<svg xmlns="http://www.w3.org/2000/svg" width="25.79" height="25.791"><defs><clipPath id="clip-path"><path id="Path_2882" data-name="Path 2882" d="M6729.914 2759.348c.1.2.19.4.276.6l.081.194c.04.1.077.2.113.293a11.375 11.375 0 01.709 3.6q.011.324 0 .648c0 .146-.01.293-.019.439a11.551 11.551 0 01-2.142 6.009 11.407 11.407 0 01-1.928 2.077 11.517 11.517 0 01-2.308 1.5q-.323.159-.651.3h-.006a11.392 11.392 0 01-5.21.859 11.52 11.52 0 01-4.064-1.052q-.5-.235-.982-.518-.335-.2-.655-.416l-.069-.048q-.231-.16-.455-.333a11.391 11.391 0 01-2.665-2.924c-.054-.085-.107-.17-.159-.257q-.135-.224-.26-.457a8.752 8.752 0 01-.19-.369 11.53 11.53 0 01-.465-1.078 12.937 12.937 0 01-.092-.254 11.4 11.4 0 01-.571-4.884 9.47 9.47 0 01.096-.725c.036-.219.079-.437.127-.652.018-.082.038-.164.058-.247q.128-.516.3-1.018a11.527 11.527 0 01.9-1.96 11.354 11.354 0 011.225-1.729c.18-.212.37-.417.567-.615a11.435 11.435 0 013.064-2.2 11.6 11.6 0 011.652-.663c.3-.094.6-.176.9-.243a11.274 11.274 0 011.6-.244c.111-.009.223-.017.334-.022l.178-.007h.692q.486.013.965.065.423.047.842.126.541.1 1.07.252.486.139.959.321c.093.036.186.073.278.112a11.423 11.423 0 011.04.493c.082.044.165.09.247.136l.1.06.2.119a11.42 11.42 0 012.016 1.565c.109.107.216.215.322.327q.307.323.59.673.2.242.38.5.256.352.485.729.29.442.525.918z" transform="translate(-6708.149 -2752.948)" fill="#618400"/></clipPath></defs><g id="Group_7366" data-name="Group 7366" transform="translate(-6703.649 -2748.45)"><g id="Group_1295" data-name="Group 1295" transform="translate(6703.649 2748.45)"><g id="Group_1283" data-name="Group 1283"><circle id="Ellipse_44" data-name="Ellipse 44" cx="12.734" cy="12.734" r="12.734" transform="translate(.161 .161)"/><path id="Path_2839" data-name="Path 2839" d="M6716.545 2748.772a12.573 12.573 0 11-12.574 12.573 12.573 12.573 0 0112.574-12.573m0-.322a12.9 12.9 0 1012.895 12.9 12.909 12.909 0 00-12.895-12.9z" transform="translate(-6703.649 -2748.45)" fill="#fff"/></g><g id="Group_1294" data-name="Group 1294" transform="translate(1.419 1.419)"><g id="Group_1293" data-name="Group 1293"><path id="Path_2840" data-name="Path 2840" d="M6729.914 2759.348c.1.2.19.4.276.6l.081.194c.04.1.077.2.113.293a11.375 11.375 0 01.709 3.6q.011.324 0 .648c0 .146-.01.293-.019.439a11.551 11.551 0 01-2.142 6.009 11.407 11.407 0 01-1.928 2.077 11.517 11.517 0 01-2.308 1.5q-.323.159-.651.3h-.006a11.392 11.392 0 01-5.21.859 11.52 11.52 0 01-4.064-1.052q-.5-.235-.982-.518-.335-.2-.655-.416l-.069-.048q-.231-.16-.455-.333a11.391 11.391 0 01-2.665-2.924c-.054-.085-.107-.17-.159-.257q-.135-.224-.26-.457a8.752 8.752 0 01-.19-.369 11.53 11.53 0 01-.465-1.078 12.937 12.937 0 01-.092-.254 11.4 11.4 0 01-.571-4.884 9.47 9.47 0 01.096-.725c.036-.219.079-.437.127-.652.018-.082.038-.164.058-.247q.128-.516.3-1.018a11.527 11.527 0 01.9-1.96 11.354 11.354 0 011.225-1.729c.18-.212.37-.417.567-.615a11.435 11.435 0 013.064-2.2 11.6 11.6 0 011.652-.663c.3-.094.6-.176.9-.243a11.274 11.274 0 011.6-.244c.111-.009.223-.017.334-.022l.178-.007h.692q.486.013.965.065.423.047.842.126.541.1 1.07.252.486.139.959.321c.093.036.186.073.278.112a11.423 11.423 0 011.04.493c.082.044.165.09.247.136l.1.06.2.119a11.42 11.42 0 012.016 1.565c.109.107.216.215.322.327q.307.323.59.673.2.242.38.5.256.352.485.729.29.442.525.918z" transform="translate(-6708.149 -2752.948)" fill="#618400"/><g id="Group_1292" data-name="Group 1292" clip-path="url(#clip-path)"><g id="Group_1287" data-name="Group 1287" transform="translate(-417.769 -.173)"><g id="Group_1284" data-name="Group 1284" transform="translate(.1 .299)" fill="#f14617"><path id="Path_2841" data-name="Path 2841" d="M5450.769 2768.87l.029.043.055-.054z" transform="translate(-5429.871 -2763.964)"/><path id="Path_2842" data-name="Path 2842" d="M5424.109 2806.1c-1 .655-2.1 1.323-3.3 1.991-.6.333-1.217.669-1.86 1s-1.309.649-2 .942a18.946 18.946 0 01-2.157.772 14.09 14.09 0 01-1.717.382q.544.117 1.1.181c.242-.046.483-.1.722-.148.771-.17 1.529-.365 2.268-.58s1.459-.458 2.153-.725a21.754 21.754 0 001.991-.882 20.274 20.274 0 001.795-1.023 17.613 17.613 0 001.461-1.038 11.514 11.514 0 001.281-2.1c-.109.084-.22.168-.333.251-.433.321-.906.644-1.404.977z" transform="translate(-5404.073 -2788.61)"/><path id="Path_2843" data-name="Path 2843" d="M5411.857 2789.348c-.471.3-.973.594-1.5.9s-1.077.62-1.648.944-1.165.652-1.778.986-1.246.676-1.9 1.018-1.323.682-2.017 1.007a21.412 21.412 0 01-4.444 1.564q-.587.13-1.186.212c-.2.025-.4.047-.6.063l-.145.009c-.151.008-.3.014-.454.014a5.511 5.511 0 01-.752-.049 11.085 11.085 0 00.566.51l.2-.011.215-.016c.347-.029.688-.077 1.025-.134.408-.067.81-.152 1.208-.241.8-.182 1.575-.4 2.343-.619s1.521-.458 2.26-.7 1.459-.508 2.156-.785 1.368-.577 2.009-.894a24.862 24.862 0 003.462-2.062c.509-.364.981-.736 1.418-1.1s.836-.734 1.2-1.088a17.712 17.712 0 001.368-1.477c0-.118-.009-.237-.017-.356a11.432 11.432 0 01-1.685 1.436c-.392.283-.831.576-1.304.869z" transform="translate(-5391.999 -2776.405)"/><path id="Path_2844" data-name="Path 2844" d="M5409.174 2775.419q-.284.24-.63.491a20.297 20.297 0 01-1.54 1.001c-.438.26-.911.526-1.414.8s-1.033.552-1.585.845l-1.411.747q-1.038.551-2.156 1.149l-1.946 1.045c-.665.357-1.347.717-2.049 1.07-.405.2-.818.4-1.238.595a27.689 27.689 0 01-3.228 1.257c-.163.051-.326.1-.49.149a16.708 16.708 0 01-1.748.421l-.162.028a8.2 8.2 0 01-1 .108l.029.054q.12.223.249.439l.179-.029c.111-.019.221-.041.331-.063s.2-.043.3-.065c.4-.093.794-.2 1.184-.311.418-.12.831-.249 1.241-.381.66-.214 1.311-.438 1.954-.662l.383-.134q1.153-.4 2.271-.813a63.534 63.534 0 002.179-.845l.145-.06q.982-.41 1.9-.854.759-.368 1.466-.754a31.313 31.313 0 002.108-1.255c.408-.265.8-.533 1.166-.8l.335-.244a36.85 36.85 0 002.672-2.176c.1-.088.193-.175.284-.26q.188-.173.355-.338l.064-.064-.021-.055-.058-.139a3.417 3.417 0 01-.119.103z" transform="translate(-5387.305 -2768.382)"/><path id="Path_2845" data-name="Path 2845" d="M5386.842 2779.29a17.308 17.308 0 002.47-.524q.275-.078.547-.16a35.184 35.184 0 001.81-.6q1.153-.409 2.253-.863a46.053 46.053 0 004.135-1.939c.321-.168.635-.341.943-.511.292-.161.577-.321.855-.484l.05-.03c.59-.343 1.148-.7 1.674-1.046s1.019-.7 1.479-1.047l.069-.052c.433-.328.836-.647 1.21-.955a23.2 23.2 0 001.938-1.769l.119-.126.006-.008h-.01c-.034-.052-.067-.1-.1-.155q-.082.08-.172.162l-.085.076a15.144 15.144 0 01-2 1.448c-.853.533-1.851 1.081-2.943 1.663q-.405.217-.829.439l-.879.459-.9.466c-.306.157-.62.312-.937.47a114.254 114.254 0 01-4.03 1.9q-.254.113-.512.224a44.295 44.295 0 01-3.9 1.5 34.3 34.3 0 01-.879.273c-.471.138-.944.263-1.415.362a7.929 7.929 0 01-.7.118 4.283 4.283 0 01-.367.03c.026.09.053.179.081.268q.075.236.16.471c.212 0 .421-.019.629-.04.077-.002.154-.01.23-.02z" transform="translate(-5385.363 -2764.082)"/><path id="Path_2846" data-name="Path 2846" d="M5390.965 2757.787a68.782 68.782 0 013.427-1.788c.277-.134.549-.267.82-.393l.8-.369c.528-.238 1.038-.468 1.531-.681s.967-.415 1.423-.6c.359-.143.707-.275 1.041-.391q-.547-.138-1.105-.221a25.384 25.384 0 00-4.054 1.384c-.284.122-.572.246-.861.38a36.711 36.711 0 00-3.546 1.86c-.6.355-1.192.734-1.783 1.135-.512.349-1.021.715-1.518 1.1a11.545 11.545 0 00-.739 1.66c.351-.309.729-.6 1.113-.889a32.593 32.593 0 013.451-2.187z" transform="translate(-5385.814 -2753.347)"/><path id="Path_2847" data-name="Path 2847" d="M5385.384 2766.819a15.969 15.969 0 002.112-.435 44.78 44.78 0 002.042-.606l.071-.023a65.525 65.525 0 001.907-.645 46.018 46.018 0 001.9-.725l.142-.059q.846-.356 1.637-.745l.033-.016q.836-.414 1.6-.855t1.462-.919c.457-.31.882-.624 1.275-.932l.09-.072q.537-.428 1-.835a15.637 15.637 0 001.478-1.482l-.152-.095a10.819 10.819 0 01-1.617 1.292c-.36.245-.753.493-1.174.745s-.866.509-1.333.775q-.642.364-1.336.746l-.126.07q-.76.42-1.577.859c-.543.291-1.1.591-1.679.891s-1.146.589-1.745.874l-.038.019a22.032 22.032 0 01-3.888 1.455 10.955 10.955 0 01-2.032.353 4.106 4.106 0 01-.83-.024 9.287 9.287 0 00-.057.436q.151.005.3 0c.174-.009.351-.025.535-.047z" transform="translate(-5384.542 -2756.788)"/></g><g id="Group_1285" data-name="Group 1285" fill="#ff6229"><path id="Path_2848" data-name="Path 2848" d="M5428.006 2810.024a11.38 11.38 0 01-1.928 2.077q-.724.506-1.459.957t-1.5.844h-.006a11.4 11.4 0 01-5.21.859l.351-.12c1.207-.421 2.5-.924 3.843-1.5.673-.292 1.363-.6 2.061-.931s1.405-.69 2.106-1.087c.59-.335 1.174-.699 1.742-1.099z" transform="translate(-5407.276 -2791.841)"/><path id="Path_2849" data-name="Path 2849" d="M5416.66 2787.531q.011.325 0 .648c-.1.1-.2.189-.3.282-.323.3-.657.589-.993.87-.674.557-1.365 1.08-2.054 1.588s-1.382.994-2.072 1.462-1.383.909-2.074 1.321-1.382.786-2.07 1.125a26.631 26.631 0 01-4.011 1.6c-.642.195-1.266.354-1.863.485s-1.169.232-1.708.313q-.464.067-.894.112-.231-.16-.454-.333c.389-.083.8-.19 1.228-.322.51-.152 1.045-.335 1.6-.546s1.14-.439 1.744-.686 1.229-.512 1.877-.785 1.314-.566 2-.869 1.387-.618 2.1-.949 1.443-.679 2.172-1.058a22.939 22.939 0 004.228-2.759q.494-.414.954-.87c.151-.153.3-.309.443-.468.035-.039.069-.078.1-.118z" transform="translate(-5393.772 -2776.446)"/><path id="Path_2850" data-name="Path 2850" d="M5409.63 2774.592l.081.194c.04.1.078.2.113.293l-.022.018c-.34.279-.686.545-1.036.8-.375.277-.753.544-1.133.806-.612.422-1.228.828-1.837 1.229l-.364.239q-1.1.717-2.173 1.4c-.718.454-1.432.89-2.139 1.3l-.146.083a38.34 38.34 0 01-1.964 1.058q-.808.405-1.6.754a31.696 31.696 0 01-3.881 1.444l-.426.126c-.6.171-1.169.321-1.708.451-.685.163-1.317.3-1.889.4l-.126.023c-.054-.085-.107-.17-.159-.257l.149-.043c.2-.061.414-.127.631-.2.387-.131.8-.283 1.225-.456.507-.2 1.041-.431 1.6-.682s1.144-.518 1.753-.8l1.556-.713q1.146-.523 2.383-1.084l2.158-.973a91.31 91.31 0 002.245-1.045q.657-.317 1.314-.664a29.71 29.71 0 003.173-1.924q.223-.157.445-.319a18 18 0 001.5-1.212l.13-.119z" transform="translate(-5387.647 -2767.589)"/><path id="Path_2851" data-name="Path 2851" d="M5406.666 2768.19l-.058.059a18.4 18.4 0 01-2.057 1.759 44.872 44.872 0 01-2.179 1.511q-1.1.713-2.2 1.353-.286.167-.573.328a50.994 50.994 0 01-4.819 2.395c-.326.143-.648.281-.969.411l-.058.023a34.959 34.959 0 01-3.836 1.315l-.089.024c-.562.155-1.1.289-1.6.406-.772.177-1.474.313-2.1.406-.032-.084-.062-.169-.092-.254a17.918 17.918 0 002.074-.657c1.01-.377 2.126-.868 3.333-1.417q.449-.2.914-.419l.964-.448.985-.463c.333-.158.669-.324 1.011-.49a118.61 118.61 0 004.239-2.19q.261-.142.525-.289a47.496 47.496 0 003.814-2.335q.407-.279.807-.57c.425-.31.839-.631 1.229-.967.084-.073.168-.147.25-.222q.256.355.485.731z" transform="translate(-5385.464 -2762.709)"/><path id="Path_2852" data-name="Path 2852" d="M5400.954 2752.6a35.576 35.576 0 00-3.917 1.446 73.133 73.133 0 00-4.624 2.188c-.284.147-.563.3-.837.44-.546.293-1.074.578-1.577.858q-.556.309-1.071.606a11.435 11.435 0 011.225-1.729 30.47 30.47 0 011.755-1.055c.288-.162.583-.326.885-.484a39.346 39.346 0 013.893-1.8c.577-.23 1.167-.449 1.77-.654h.692q.485.012.965.065.422.035.841.119z" transform="translate(-5387.443 -2752.401)"/><path id="Path_2853" data-name="Path 2853" d="M5401.435 2756.949l-.052.054a17.134 17.134 0 01-1.747 1.512 48.46 48.46 0 01-1.847 1.34l-.066.046c-.6.414-1.2.814-1.792 1.2q-.928.6-1.854 1.14l-.143.082q-.854.488-1.7.906l-.035.017q-.9.442-1.77.8-.889.364-1.734.643a24.64 24.64 0 01-1.625.476l-.12.03c-.476.118-.93.219-1.359.3a20.83 20.83 0 01-1.363.215c.009-.093.019-.185.031-.277.4-.094.826-.218 1.279-.37s.91-.319 1.4-.512 1-.4 1.529-.628c.485-.2.988-.423 1.505-.65l.143-.062q.853-.373 1.758-.78c.6-.272 1.221-.552 1.853-.846s1.248-.589 1.879-.913l.042-.021a23.518 23.518 0 003.772-2.356 11.747 11.747 0 001.626-1.5l.042-.049c.083.044.165.09.247.136z" transform="translate(-5384.226 -2755.38)"/></g><g id="Group_1286" data-name="Group 1286" transform="translate(.1 .299)" fill="#f14617"><path id="Path_2854" data-name="Path 2854" d="M5450.769 2768.87l.029.043.055-.054z" transform="translate(-5429.871 -2763.964)"/><path id="Path_2855" data-name="Path 2855" d="M5424.109 2806.1c-1 .655-2.1 1.323-3.3 1.991-.6.333-1.217.669-1.86 1s-1.309.649-2 .942a18.946 18.946 0 01-2.157.772 14.09 14.09 0 01-1.717.382q.544.117 1.1.181c.242-.046.483-.1.722-.148.771-.17 1.529-.365 2.268-.58s1.459-.458 2.153-.725a21.754 21.754 0 001.991-.882 20.274 20.274 0 001.795-1.023 17.613 17.613 0 001.461-1.038 11.514 11.514 0 001.281-2.1c-.109.084-.22.168-.333.251-.433.321-.906.644-1.404.977z" transform="translate(-5404.073 -2788.61)"/><path id="Path_2856" data-name="Path 2856" d="M5411.857 2789.348c-.471.3-.973.594-1.5.9s-1.077.62-1.648.944-1.165.652-1.778.986-1.246.676-1.9 1.018-1.323.682-2.017 1.007a21.412 21.412 0 01-4.444 1.564q-.587.13-1.186.212c-.2.025-.4.047-.6.063l-.145.009c-.151.008-.3.014-.454.014a5.511 5.511 0 01-.752-.049 11.085 11.085 0 00.566.51l.2-.011.215-.016c.347-.029.688-.077 1.025-.134.408-.067.81-.152 1.208-.241.8-.182 1.575-.4 2.343-.619s1.521-.458 2.26-.7 1.459-.508 2.156-.785 1.368-.577 2.009-.894a24.862 24.862 0 003.462-2.062c.509-.364.981-.736 1.418-1.1s.836-.734 1.2-1.088a17.712 17.712 0 001.368-1.477c0-.118-.009-.237-.017-.356a11.432 11.432 0 01-1.685 1.436c-.392.283-.831.576-1.304.869z" transform="translate(-5391.999 -2776.405)"/><path id="Path_2857" data-name="Path 2857" d="M5409.174 2775.419q-.284.24-.63.491a20.297 20.297 0 01-1.54 1.001c-.438.26-.911.526-1.414.8s-1.033.552-1.585.845l-1.411.747q-1.038.551-2.156 1.149l-1.946 1.045c-.665.357-1.347.717-2.049 1.07-.405.2-.818.4-1.238.595a27.689 27.689 0 01-3.228 1.257c-.163.051-.326.1-.49.149a16.708 16.708 0 01-1.748.421l-.162.028a8.2 8.2 0 01-1 .108l.029.054q.12.223.249.439l.179-.029c.111-.019.221-.041.331-.063s.2-.043.3-.065c.4-.093.794-.2 1.184-.311.418-.12.831-.249 1.241-.381.66-.214 1.311-.438 1.954-.662l.383-.134q1.153-.4 2.271-.813a63.534 63.534 0 002.179-.845l.145-.06q.982-.41 1.9-.854.759-.368 1.466-.754a31.313 31.313 0 002.108-1.255c.408-.265.8-.533 1.166-.8l.335-.244a36.85 36.85 0 002.672-2.176c.1-.088.193-.175.284-.26q.188-.173.355-.338l.064-.064-.021-.055-.058-.139a3.417 3.417 0 01-.119.103z" transform="translate(-5387.305 -2768.382)"/><path id="Path_2858" data-name="Path 2858" d="M5386.842 2779.29a17.308 17.308 0 002.47-.524q.275-.078.547-.16a35.184 35.184 0 001.81-.6q1.153-.409 2.253-.863a46.053 46.053 0 004.135-1.939c.321-.168.635-.341.943-.511.292-.161.577-.321.855-.484l.05-.03c.59-.343 1.148-.7 1.674-1.046s1.019-.7 1.479-1.047l.069-.052c.433-.328.836-.647 1.21-.955a23.2 23.2 0 001.938-1.769l.119-.126.006-.008h-.01c-.034-.052-.067-.1-.1-.155q-.082.08-.172.162l-.085.076a15.144 15.144 0 01-2 1.448c-.853.533-1.851 1.081-2.943 1.663q-.405.217-.829.439l-.879.459-.9.466c-.306.157-.62.312-.937.47a114.254 114.254 0 01-4.03 1.9q-.254.113-.512.224a44.295 44.295 0 01-3.9 1.5 34.3 34.3 0 01-.879.273c-.471.138-.944.263-1.415.362a7.929 7.929 0 01-.7.118 4.283 4.283 0 01-.367.03c.026.09.053.179.081.268q.075.236.16.471c.212 0 .421-.019.629-.04.077-.002.154-.01.23-.02z" transform="translate(-5385.363 -2764.082)"/><path id="Path_2859" data-name="Path 2859" d="M5390.965 2757.787a68.782 68.782 0 013.427-1.788c.277-.134.549-.267.82-.393l.8-.369c.528-.238 1.038-.468 1.531-.681s.967-.415 1.423-.6c.359-.143.707-.275 1.041-.391q-.547-.138-1.105-.221a25.384 25.384 0 00-4.054 1.384c-.284.122-.572.246-.861.38a36.711 36.711 0 00-3.546 1.86c-.6.355-1.192.734-1.783 1.135-.512.349-1.021.715-1.518 1.1a11.545 11.545 0 00-.739 1.66c.351-.309.729-.6 1.113-.889a32.593 32.593 0 013.451-2.187z" transform="translate(-5385.814 -2753.347)"/><path id="Path_2860" data-name="Path 2860" d="M5385.384 2766.819a15.969 15.969 0 002.112-.435 44.78 44.78 0 002.042-.606l.071-.023a65.525 65.525 0 001.907-.645 46.018 46.018 0 001.9-.725l.142-.059q.846-.356 1.637-.745l.033-.016q.836-.414 1.6-.855t1.462-.919c.457-.31.882-.624 1.275-.932l.09-.072q.537-.428 1-.835a15.637 15.637 0 001.478-1.482l-.152-.095a10.819 10.819 0 01-1.617 1.292c-.36.245-.753.493-1.174.745s-.866.509-1.333.775q-.642.364-1.336.746l-.126.07q-.76.42-1.577.859c-.543.291-1.1.591-1.679.891s-1.146.589-1.745.874l-.038.019a22.032 22.032 0 01-3.888 1.455 10.955 10.955 0 01-2.032.353 4.106 4.106 0 01-.83-.024 9.287 9.287 0 00-.057.436q.151.005.3 0c.174-.009.351-.025.535-.047z" transform="translate(-5384.542 -2756.788)"/></g></g><g id="Group_1291" data-name="Group 1291" transform="translate(-.027 -.173)"><g id="Group_1288" data-name="Group 1288" transform="translate(.1 .299)" fill="#f14617"><path id="Path_2861" data-name="Path 2861" d="M6774.6 2768.87l.029.043.055-.054z" transform="translate(-6753.707 -2763.964)"/><path id="Path_2862" data-name="Path 2862" d="M6747.945 2806.1c-1 .655-2.1 1.323-3.3 1.991-.6.333-1.217.669-1.86 1s-1.31.649-2 .942a18.9 18.9 0 01-2.157.772 14.09 14.09 0 01-1.717.382q.545.117 1.1.181c.242-.046.482-.1.722-.148.771-.17 1.528-.365 2.268-.58s1.458-.458 2.153-.725 1.359-.562 1.991-.882a20.274 20.274 0 001.795-1.023 17.778 17.778 0 001.461-1.038 11.514 11.514 0 001.281-2.1c-.109.084-.22.168-.333.251-.433.321-.906.644-1.404.977z" transform="translate(-6727.909 -2788.61)"/><path id="Path_2863" data-name="Path 2863" d="M6735.693 2789.348c-.47.3-.973.594-1.5.9s-1.077.62-1.648.944-1.165.652-1.778.986-1.246.676-1.9 1.018-1.323.682-2.017 1.007a21.406 21.406 0 01-4.445 1.564q-.587.13-1.186.212c-.2.025-.4.047-.6.063l-.146.009c-.151.008-.3.014-.453.014a5.48 5.48 0 01-.751-.049 11.085 11.085 0 00.566.51l.205-.011.215-.016c.347-.029.688-.077 1.025-.134.408-.067.81-.152 1.208-.241.8-.182 1.575-.4 2.342-.619s1.521-.458 2.26-.7 1.459-.508 2.156-.785 1.368-.577 2.009-.894a24.862 24.862 0 003.462-2.062c.509-.364.981-.736 1.417-1.1s.836-.734 1.2-1.088a17.966 17.966 0 001.368-1.477c0-.118-.009-.237-.017-.356a11.413 11.413 0 01-1.685 1.436c-.395.283-.834.576-1.307.869z" transform="translate(-6715.835 -2776.405)"/><path id="Path_2864" data-name="Path 2864" d="M6733.01 2775.419q-.284.24-.63.491a20.297 20.297 0 01-1.54 1.001c-.437.26-.91.526-1.413.8s-1.033.552-1.585.845l-1.411.747q-1.038.551-2.156 1.149l-1.946 1.045c-.665.357-1.347.717-2.049 1.07-.406.2-.818.4-1.238.595a27.656 27.656 0 01-3.228 1.257c-.162.051-.325.1-.489.149a16.746 16.746 0 01-1.749.421l-.162.028a8.209 8.209 0 01-1 .108l.029.054c.081.149.163.3.249.439l.178-.029c.111-.019.222-.041.331-.063l.3-.065c.4-.093.794-.2 1.184-.311.418-.12.831-.249 1.241-.381.66-.214 1.31-.438 1.955-.662l.383-.134q1.153-.4 2.271-.813a63.534 63.534 0 002.179-.845l.144-.06a35.86 35.86 0 001.9-.854q.759-.368 1.466-.754a30.82 30.82 0 003.609-2.299 37.172 37.172 0 002.958-2.436q.188-.173.355-.338l.064-.064-.022-.055-.058-.139a4.791 4.791 0 01-.12.103z" transform="translate(-6711.141 -2768.382)"/><path id="Path_2865" data-name="Path 2865" d="M6710.678 2779.29a17.287 17.287 0 002.47-.524q.275-.078.548-.16a35.184 35.184 0 001.81-.6q1.154-.409 2.254-.863a46.204 46.204 0 004.134-1.939c.321-.168.635-.341.944-.511.292-.161.577-.321.855-.484l.05-.03c.59-.343 1.147-.7 1.674-1.046s1.019-.7 1.479-1.047l.069-.052c.433-.328.836-.647 1.21-.955a23.108 23.108 0 001.937-1.769l.119-.126.007-.008h-.01c-.034-.052-.067-.1-.1-.155a9.434 9.434 0 01-.172.162l-.085.076a15.136 15.136 0 01-2 1.448c-.853.533-1.851 1.081-2.943 1.663q-.405.217-.829.439l-.879.459-.9.466c-.306.157-.62.312-.937.47a114.254 114.254 0 01-4.03 1.9q-.254.113-.512.224a44.295 44.295 0 01-3.9 1.5 34.3 34.3 0 01-.879.273c-.471.138-.944.263-1.414.362-.234.049-.47.091-.7.118a4.283 4.283 0 01-.367.03c.026.09.053.179.081.268q.075.236.16.471c.212 0 .422-.019.629-.04.074-.002.149-.01.227-.02z" transform="translate(-6709.199 -2764.082)"/><path id="Path_2866" data-name="Path 2866" d="M6714.8 2757.787a68.782 68.782 0 014.247-2.181c.27-.126.538-.248.8-.369.527-.238 1.038-.468 1.53-.681s.968-.415 1.423-.6c.359-.143.706-.275 1.04-.391a11.242 11.242 0 00-1.1-.221c-.5.125-1.035.275-1.585.451-.526.17-1.071.363-1.626.584-.278.109-.559.227-.843.349s-.572.246-.861.38a36.654 36.654 0 00-3.546 1.86c-.6.355-1.192.734-1.783 1.135-.512.349-1.021.715-1.518 1.1a11.491 11.491 0 00-.739 1.66c.351-.309.729-.6 1.113-.889a32.593 32.593 0 013.448-2.187z" transform="translate(-6709.65 -2753.347)"/><path id="Path_2867" data-name="Path 2867" d="M6709.22 2766.819a15.969 15.969 0 002.112-.435 44.78 44.78 0 002.042-.606l.071-.023a65.525 65.525 0 001.907-.645 45.476 45.476 0 001.9-.725l.142-.059q.846-.356 1.637-.745l.033-.016q.837-.414 1.6-.855t1.462-.919c.456-.31.882-.624 1.275-.932l.09-.072q.537-.428 1-.835a15.579 15.579 0 001.478-1.482l-.151-.095a10.844 10.844 0 01-1.617 1.292c-.36.245-.753.493-1.174.745s-.867.509-1.333.775q-.642.364-1.337.746l-.126.07q-.76.42-1.577.859c-.543.291-1.1.591-1.679.891s-1.146.589-1.744.874l-.038.019a22.047 22.047 0 01-3.888 1.455 10.967 10.967 0 01-2.032.353 4.107 4.107 0 01-.83-.024 9.287 9.287 0 00-.057.436h.3c.173-.009.354-.025.534-.047z" transform="translate(-6708.378 -2756.788)"/></g><g id="Group_1289" data-name="Group 1289" fill="#1e6e12"><path id="Path_2868" data-name="Path 2868" d="M6751.842 2810.024a11.38 11.38 0 01-1.928 2.077q-.724.506-1.459.957t-1.5.844h-.007a11.394 11.394 0 01-5.209.859l.35-.12c1.207-.421 2.5-.924 3.843-1.5.673-.292 1.364-.6 2.061-.931s1.405-.69 2.106-1.087c.59-.335 1.174-.699 1.743-1.099z" transform="translate(-6731.112 -2791.841)"/><path id="Path_2869" data-name="Path 2869" d="M6740.5 2787.531q.011.325 0 .648c-.1.1-.2.189-.295.282-.323.3-.657.589-.993.87-.674.557-1.365 1.08-2.055 1.588s-1.382.994-2.072 1.462-1.383.909-2.074 1.321-1.382.786-2.07 1.125a26.606 26.606 0 01-4.011 1.6c-.642.195-1.266.354-1.863.485s-1.169.232-1.708.313q-.464.067-.895.112a10.57 10.57 0 01-.454-.333c.389-.083.8-.19 1.228-.322.51-.152 1.044-.335 1.6-.546s1.139-.439 1.744-.686 1.229-.512 1.876-.785 1.314-.566 2-.869 1.387-.618 2.1-.949 1.443-.679 2.172-1.058a22.935 22.935 0 004.227-2.759q.5-.414.955-.87c.151-.153.3-.309.443-.468.035-.039.069-.078.1-.118z" transform="translate(-6717.608 -2776.446)"/><path id="Path_2870" data-name="Path 2870" d="M6733.467 2774.592l.08.194q.06.146.113.293l-.021.018c-.34.279-.687.545-1.036.8-.375.277-.754.544-1.134.806-.612.422-1.228.828-1.837 1.229l-.364.239q-1.1.717-2.173 1.4c-.718.454-1.432.89-2.14 1.3l-.146.083a38.34 38.34 0 01-1.964 1.058q-.808.405-1.6.754a31.696 31.696 0 01-3.881 1.444l-.425.126c-.6.171-1.169.321-1.708.451-.686.163-1.317.3-1.889.4l-.127.023a8.42 8.42 0 01-.158-.257l.149-.043c.2-.061.414-.127.631-.2.387-.131.8-.283 1.225-.456.506-.2 1.041-.431 1.6-.682s1.144-.518 1.753-.8l1.555-.713q1.146-.523 2.383-1.084l2.158-.973a91.355 91.355 0 002.246-1.045c.438-.211.876-.433 1.313-.664a29.813 29.813 0 003.174-1.924c.148-.1.3-.211.445-.319a18.159 18.159 0 001.5-1.212l.129-.119a.95.95 0 00.149-.127z" transform="translate(-6711.483 -2767.589)"/><path id="Path_2871" data-name="Path 2871" d="M6730.5 2768.19l-.058.059a18.446 18.446 0 01-2.058 1.759c-.164.123-.327.242-.492.361-.557.4-1.121.782-1.687 1.15q-1.1.713-2.2 1.353-.286.167-.574.328a51.176 51.176 0 01-4.818 2.395 39.99 39.99 0 01-.969.411l-.059.023a34.395 34.395 0 01-3.835 1.315l-.089.024c-.561.155-1.1.289-1.6.406-.772.177-1.474.313-2.1.406-.032-.084-.062-.169-.092-.254a17.953 17.953 0 002.075-.657c1.009-.377 2.126-.868 3.333-1.417q.449-.2.914-.419l.964-.448.985-.463c.333-.158.669-.324 1.011-.49a118.61 118.61 0 004.239-2.19c.174-.095.35-.191.525-.289a47.69 47.69 0 003.815-2.335c.271-.186.54-.376.806-.57.425-.31.839-.631 1.229-.967.085-.073.169-.147.25-.222q.258.355.485.731z" transform="translate(-6709.3 -2762.709)"/><path id="Path_2872" data-name="Path 2872" d="M6724.79 2752.6a35.576 35.576 0 00-3.917 1.446 73.133 73.133 0 00-4.624 2.188c-.283.147-.563.3-.837.44-.546.293-1.074.578-1.577.858q-.556.309-1.071.606a11.435 11.435 0 011.225-1.729 30.47 30.47 0 011.755-1.055c.288-.162.583-.326.885-.484a39.3 39.3 0 013.894-1.8 36.18 36.18 0 011.77-.654h.693q.486.012.966.065.42.035.838.119z" transform="translate(-6711.279 -2752.401)"/><path id="Path_2873" data-name="Path 2873" d="M6725.271 2756.949l-.052.054a17.082 17.082 0 01-1.747 1.512c-.607.468-1.229.909-1.847 1.34l-.066.046q-.9.621-1.792 1.2-.927.6-1.854 1.14l-.143.082q-.854.488-1.7.906l-.035.017a27.05 27.05 0 01-3.505 1.443 24.64 24.64 0 01-1.625.476l-.12.03c-.476.118-.93.219-1.358.3a20.83 20.83 0 01-1.363.215c.009-.093.019-.185.031-.277.4-.094.825-.218 1.279-.37s.91-.319 1.4-.512 1-.4 1.529-.628c.485-.2.988-.423 1.506-.65l.142-.062q.854-.373 1.759-.78c.6-.272 1.222-.552 1.854-.846s1.248-.589 1.879-.913l.042-.021a23.54 23.54 0 003.772-2.356 11.743 11.743 0 001.625-1.5l.042-.049c.083.044.165.09.247.136z" transform="translate(-6708.063 -2755.38)"/></g><g id="Group_1290" data-name="Group 1290" transform="translate(.1 .299)" fill="#bbd25f"><path id="Path_2874" data-name="Path 2874" d="M6774.6 2768.87l.029.043.055-.054z" transform="translate(-6753.707 -2763.964)"/><path id="Path_2875" data-name="Path 2875" d="M6747.945 2806.1c-1 .655-2.1 1.323-3.3 1.991-.6.333-1.217.669-1.86 1s-1.31.649-2 .942a18.9 18.9 0 01-2.157.772 14.09 14.09 0 01-1.717.382q.545.117 1.1.181c.242-.046.482-.1.722-.148.771-.17 1.528-.365 2.268-.58s1.458-.458 2.153-.725 1.359-.562 1.991-.882a20.274 20.274 0 001.795-1.023 17.778 17.778 0 001.461-1.038 11.514 11.514 0 001.281-2.1c-.109.084-.22.168-.333.251-.433.321-.906.644-1.404.977z" transform="translate(-6727.909 -2788.61)"/><path id="Path_2876" data-name="Path 2876" d="M6735.693 2789.348c-.47.3-.973.594-1.5.9s-1.077.62-1.648.944-1.165.652-1.778.986-1.246.676-1.9 1.018-1.323.682-2.017 1.007a21.406 21.406 0 01-4.445 1.564q-.587.13-1.186.212c-.2.025-.4.047-.6.063l-.146.009c-.151.008-.3.014-.453.014a5.48 5.48 0 01-.751-.049 11.085 11.085 0 00.566.51l.205-.011.215-.016c.347-.029.688-.077 1.025-.134.408-.067.81-.152 1.208-.241.8-.182 1.575-.4 2.342-.619s1.521-.458 2.26-.7 1.459-.508 2.156-.785 1.368-.577 2.009-.894a24.862 24.862 0 003.462-2.062c.509-.364.981-.736 1.417-1.1s.836-.734 1.2-1.088a17.966 17.966 0 001.368-1.477c0-.118-.009-.237-.017-.356a11.413 11.413 0 01-1.685 1.436c-.395.283-.834.576-1.307.869z" transform="translate(-6715.835 -2776.405)"/><path id="Path_2877" data-name="Path 2877" d="M6733.01 2775.419q-.284.24-.63.491a20.297 20.297 0 01-1.54 1.001c-.437.26-.91.526-1.413.8s-1.033.552-1.585.845l-1.411.747q-1.038.551-2.156 1.149l-1.946 1.045c-.665.357-1.347.717-2.049 1.07-.406.2-.818.4-1.238.595a27.656 27.656 0 01-3.228 1.257c-.162.051-.325.1-.489.149a16.746 16.746 0 01-1.749.421l-.162.028a8.209 8.209 0 01-1 .108l.029.054c.081.149.163.3.249.439l.178-.029c.111-.019.222-.041.331-.063l.3-.065c.4-.093.794-.2 1.184-.311.418-.12.831-.249 1.241-.381.66-.214 1.31-.438 1.955-.662l.383-.134q1.153-.4 2.271-.813a63.534 63.534 0 002.179-.845l.144-.06a35.86 35.86 0 001.9-.854q.759-.368 1.466-.754a30.82 30.82 0 003.609-2.299 37.172 37.172 0 002.958-2.436q.188-.173.355-.338l.064-.064-.022-.055-.058-.139a4.791 4.791 0 01-.12.103z" transform="translate(-6711.141 -2768.382)"/><path id="Path_2878" data-name="Path 2878" d="M6710.678 2779.29a17.287 17.287 0 002.47-.524q.275-.078.548-.16a35.184 35.184 0 001.81-.6q1.154-.409 2.254-.863a46.204 46.204 0 004.134-1.939c.321-.168.635-.341.944-.511.292-.161.577-.321.855-.484l.05-.03c.59-.343 1.147-.7 1.674-1.046s1.019-.7 1.479-1.047l.069-.052c.433-.328.836-.647 1.21-.955a23.108 23.108 0 001.937-1.769l.119-.126.007-.008h-.01c-.034-.052-.067-.1-.1-.155a9.434 9.434 0 01-.172.162l-.085.076a15.136 15.136 0 01-2 1.448c-.853.533-1.851 1.081-2.943 1.663q-.405.217-.829.439l-.879.459-.9.466c-.306.157-.62.312-.937.47a114.254 114.254 0 01-4.03 1.9q-.254.113-.512.224a44.295 44.295 0 01-3.9 1.5 34.3 34.3 0 01-.879.273c-.471.138-.944.263-1.414.362-.234.049-.47.091-.7.118a4.283 4.283 0 01-.367.03c.026.09.053.179.081.268q.075.236.16.471c.212 0 .422-.019.629-.04.074-.002.149-.01.227-.02z" transform="translate(-6709.199 -2764.082)"/><path id="Path_2879" data-name="Path 2879" d="M6714.8 2757.787a68.782 68.782 0 014.247-2.181c.27-.126.538-.248.8-.369.527-.238 1.038-.468 1.53-.681s.968-.415 1.423-.6c.359-.143.706-.275 1.04-.391a11.242 11.242 0 00-1.1-.221c-.5.125-1.035.275-1.585.451-.526.17-1.071.363-1.626.584-.278.109-.559.227-.843.349s-.572.246-.861.38a36.654 36.654 0 00-3.546 1.86c-.6.355-1.192.734-1.783 1.135-.512.349-1.021.715-1.518 1.1a11.491 11.491 0 00-.739 1.66c.351-.309.729-.6 1.113-.889a32.593 32.593 0 013.448-2.187z" transform="translate(-6709.65 -2753.347)"/><path id="Path_2880" data-name="Path 2880" d="M6709.22 2766.819a15.969 15.969 0 002.112-.435 44.78 44.78 0 002.042-.606l.071-.023a65.525 65.525 0 001.907-.645 45.476 45.476 0 001.9-.725l.142-.059q.846-.356 1.637-.745l.033-.016q.837-.414 1.6-.855t1.462-.919c.456-.31.882-.624 1.275-.932l.09-.072q.537-.428 1-.835a15.579 15.579 0 001.478-1.482l-.151-.095a10.844 10.844 0 01-1.617 1.292c-.36.245-.753.493-1.174.745s-.867.509-1.333.775q-.642.364-1.337.746l-.126.07q-.76.42-1.577.859c-.543.291-1.1.591-1.679.891s-1.146.589-1.744.874l-.038.019a22.047 22.047 0 01-3.888 1.455 10.967 10.967 0 01-2.032.353 4.107 4.107 0 01-.83-.024 9.287 9.287 0 00-.057.436h.3c.173-.009.354-.025.534-.047z" transform="translate(-6708.378 -2756.788)"/></g></g><path id="Path_2881" data-name="Path 2881" d="M6721.014 2777.89c-5.782 2.95-10.83 4.636-11.273 3.767l1.9 3.719c.443.869 5.49-.817 11.273-3.767s10.11-6.047 9.667-6.916l-1.9-3.719c.443.87-3.881 3.966-9.667 6.916z" transform="translate(-6709.239 -2765.286)" fill="#1e5412" opacity=".8" style="mix-blend-mode:multiply;isolation:isolate"/></g></g><path id="Path_2883" data-name="Path 2883" d="M6709.334 2769.5c.039.08.079.158.12.236l.069.131a11.416 11.416 0 003.607 4.019q.32.219.654.416.479.282.982.517a11.572 11.572 0 001.085.441 11.482 11.482 0 0015.226-10.14 11.4 11.4 0 00-.808-4.976q-.162-.4-.356-.8a11.465 11.465 0 00-1.372-2.146q-.283-.35-.589-.673-.158-.167-.322-.327a11.427 11.427 0 00-2.017-1.565q-.15-.092-.3-.179a11.61 11.61 0 00-1.287-.63 11.384 11.384 0 00-1.237-.433 11.55 11.55 0 00-1.912-.378q-.48-.053-.965-.065c-.183 0-.365-.005-.549 0a17.011 17.011 0 017.275 4.413 11.209 11.209 0 013.075 7.7 8.7 8.7 0 01-2.573 5.98 11.467 11.467 0 01-18.708-9.141c-.049.216-.092.434-.127.652a11.424 11.424 0 001.029 6.948z" transform="translate(-6708.147 -2752.947)" opacity=".1"/><path id="Path_2884" data-name="Path 2884" d="M6709.333 2769.5q.059.119.12.236l.069.132a11.415 11.415 0 003.607 4.018q.32.22.655.416.478.283.982.518a11.639 11.639 0 001.085.441 11.482 11.482 0 0015.226-10.14 11.407 11.407 0 00-.808-4.976 13.324 13.324 0 00-.356-.8 11.465 11.465 0 00-1.372-2.146q-.282-.35-.589-.673c-.1-.112-.213-.22-.322-.327a11.407 11.407 0 00-2.017-1.565c-.1-.062-.2-.121-.3-.179a11.441 11.441 0 00-1.287-.63q-.138-.058-.278-.112-.472-.182-.959-.321a11.57 11.57 0 00-1.912-.378q-.48-.052-.966-.065c-.183 0-.365-.005-.548 0-.107 0-.215.006-.322.011s-.223.013-.334.022a11.253 11.253 0 00-1.6.244q-.454.1-.9.243a11.559 11.559 0 00-4.716 2.863 11.464 11.464 0 00-2.691 4.305q-.176.5-.3 1.018c-.021.082-.04.164-.058.247q-.073.324-.127.652a11.419 11.419 0 001.018 6.946zm1.946-11.764a9.729 9.729 0 015.248-2.851 8.375 8.375 0 018.788 4.692 7.492 7.492 0 01.5 6.052c-2.226 6-11.269 6.629-14.649 1.427-1.851-2.856-2.307-6.845.113-9.322z" transform="translate(-6708.147 -2752.947)" opacity=".1"/><path id="Path_2885" data-name="Path 2885" d="M6723.387 2772.978a2.706 2.706 0 01-1.94 3.241c-1.5.418-2.894.127-3.626-1.428a3.153 3.153 0 01.146-2.914c1.514-2.525 4.767-1.468 5.42 1.101z" transform="translate(-6714.571 -2764.916)" fill="#fff" opacity=".34"/></g></g></g></svg>