<svg xmlns="http://www.w3.org/2000/svg" width="1920" height="9323.444"><defs><clipPath id="clip-path"><path id="Path_12807" data-name="Path 12807" d="M5596.444 9315.444l-1920 8V0h1920z" fill="none"/></clipPath></defs><g id="Group_4844" data-name="Group 4844" transform="translate(-3676.444)" style="mix-blend-mode:multiply;isolation:isolate"><g id="Group_4843" data-name="Group 4843" clip-path="url(#clip-path)"><g id="Group_4842" data-name="Group 4842" fill="none" stroke="#e1e5ed" stroke-miterlimit="10" stroke-width=".5"><g id="Group_4840" data-name="Group 4840"><g id="Ellipse_628" data-name="Ellipse 628" transform="rotate(-67.741 2396.407 -4302.577)"><ellipse cx="93.828" cy="355.697" rx="93.828" ry="355.697" stroke="none"/><ellipse cx="93.828" cy="355.697" rx="93.578" ry="355.447"/></g><g id="Ellipse_629" data-name="Ellipse 629" transform="rotate(-69.054 2426.406 -4136.422)"><ellipse cx="126.052" cy="385.862" rx="126.052" ry="385.862" stroke="none"/><ellipse cx="126.052" cy="385.862" rx="125.802" ry="385.612"/></g><g id="Ellipse_630" data-name="Ellipse 630" transform="rotate(-70.06 2452.961 -3997.376)"><ellipse cx="158.707" cy="416.458" rx="158.707" ry="416.458" stroke="none"/><ellipse cx="158.707" cy="416.458" rx="158.457" ry="416.208"/></g><g id="Ellipse_631" data-name="Ellipse 631" transform="rotate(-70.891 2476.704 -3873.895)"><ellipse cx="191.666" cy="447.357" rx="191.666" ry="447.357" stroke="none"/><ellipse cx="191.666" cy="447.357" rx="191.416" ry="447.107"/></g><g id="Ellipse_632" data-name="Ellipse 632" transform="rotate(-71.555 2498.887 -3764.027)"><ellipse cx="224.845" cy="478.477" rx="224.845" ry="478.477" stroke="none"/><ellipse cx="224.845" cy="478.477" rx="224.595" ry="478.227"/></g><g id="Ellipse_633" data-name="Ellipse 633" transform="rotate(-72.13 2519.139 -3660.93)"><ellipse cx="258.189" cy="509.762" rx="258.189" ry="509.762" stroke="none"/><ellipse cx="258.189" cy="509.762" rx="257.939" ry="509.512"/></g><g id="Ellipse_634" data-name="Ellipse 634" transform="rotate(-72.564 2539.745 -3569.841)"><ellipse cx="291.659" cy="541.174" rx="291.659" ry="541.174" stroke="none"/><ellipse cx="291.659" cy="541.174" rx="291.409" ry="540.924"/></g><g id="Ellipse_635" data-name="Ellipse 635" transform="rotate(-72.954 2558.956 -3481.664)"><ellipse cx="325.229" cy="572.685" rx="325.229" ry="572.685" stroke="none"/><ellipse cx="325.229" cy="572.685" rx="324.979" ry="572.435"/></g><g id="Ellipse_636" data-name="Ellipse 636" transform="rotate(-73.29 2577.587 -3397.62)"><ellipse cx="358.878" cy="604.275" rx="358.878" ry="604.275" stroke="none"/><ellipse cx="358.878" cy="604.275" rx="358.628" ry="604.025"/></g><g id="Ellipse_637" data-name="Ellipse 637" transform="rotate(-73.58 2595.754 -3317.02)"><ellipse cx="392.591" cy="635.93" rx="392.591" ry="635.93" stroke="none"/><ellipse cx="392.591" cy="635.93" rx="392.341" ry="635.68"/></g><g id="Ellipse_638" data-name="Ellipse 638" transform="rotate(-73.832 2613.544 -3239.227)"><ellipse cx="426.356" cy="667.637" rx="426.356" ry="667.637" stroke="none"/><ellipse cx="426.356" cy="667.637" rx="426.106" ry="667.387"/></g><g id="Ellipse_639" data-name="Ellipse 639" transform="rotate(-74.05 2629.638 -3162.386)"><ellipse cx="460.165" cy="699.387" rx="460.165" ry="699.387" stroke="none"/><ellipse cx="460.165" cy="699.387" rx="459.915" ry="699.137"/></g><g id="Ellipse_640" data-name="Ellipse 640" transform="rotate(-74.25 2648.24 -3089.947)"><ellipse cx="494.011" cy="731.175" rx="494.011" ry="731.175" stroke="none"/><ellipse cx="494.011" cy="731.175" rx="493.761" ry="730.925"/></g><g id="Ellipse_641" data-name="Ellipse 641" transform="rotate(-74.423 2665.243 -3017.89)"><ellipse cx="527.888" cy="762.993" rx="527.888" ry="762.993" stroke="none"/><ellipse cx="527.888" cy="762.993" rx="527.638" ry="762.743"/></g><g id="Ellipse_642" data-name="Ellipse 642" transform="rotate(-74.577 2682.06 -2947.185)"><ellipse cx="561.791" cy="794.839" rx="561.791" ry="794.839" stroke="none"/><ellipse cx="561.791" cy="794.839" rx="561.541" ry="794.589"/></g><g id="Ellipse_643" data-name="Ellipse 643" transform="rotate(-74.7 2697.562 -2877.153)"><ellipse cx="595.717" cy="826.707" rx="595.717" ry="826.707" stroke="none"/><ellipse cx="595.717" cy="826.707" rx="595.467" ry="826.457"/></g><g id="Ellipse_644" data-name="Ellipse 644" transform="rotate(-74.81 2715.626 -2810.603)"><ellipse cx="629.662" cy="858.595" rx="629.662" ry="858.595" stroke="none"/><ellipse cx="629.662" cy="858.595" rx="629.412" ry="858.345"/></g><g id="Ellipse_645" data-name="Ellipse 645" transform="matrix(.26 -.966 .966 .26 4669.626 608.424)"><ellipse cx="663.625" cy="890.5" rx="663.625" ry="890.5" stroke="none"/><ellipse cx="663.625" cy="890.5" rx="663.375" ry="890.25"/></g><g id="Ellipse_646" data-name="Ellipse 646" transform="rotate(-75.048 2747.936 -2674.495)"><ellipse cx="697.603" cy="922.421" rx="697.603" ry="922.421" stroke="none"/><ellipse cx="697.603" cy="922.421" rx="697.353" ry="922.171"/></g><g id="Ellipse_647" data-name="Ellipse 647" transform="rotate(-75.17 2762.982 -2605.596)"><ellipse cx="731.595" cy="954.355" rx="731.595" ry="954.355" stroke="none"/><ellipse cx="731.595" cy="954.355" rx="731.345" ry="954.105"/></g><g id="Ellipse_648" data-name="Ellipse 648" transform="rotate(-75.23 2780.007 -2542.16)"><ellipse cx="765.598" cy="986.301" rx="765.598" ry="986.301" stroke="none"/><ellipse cx="765.598" cy="986.301" rx="765.348" ry="986.051"/></g><g id="Ellipse_649" data-name="Ellipse 649" transform="rotate(-75.29 2796.992 -2477.812)"><ellipse cx="799.612" cy="1018.258" rx="799.612" ry="1018.258" stroke="none"/><ellipse cx="799.612" cy="1018.258" rx="799.362" ry="1018.008"/></g><g id="Ellipse_650" data-name="Ellipse 650" transform="rotate(-75.357 2812.296 -2412.821)"><ellipse cx="833.635" cy="1050.224" rx="833.635" ry="1050.224" stroke="none"/><ellipse cx="833.635" cy="1050.224" rx="833.385" ry="1049.974"/></g><g id="Ellipse_651" data-name="Ellipse 651" transform="rotate(-75.416 2828.224 -2348.602)"><ellipse cx="867.667" cy="1082.199" rx="867.667" ry="1082.199" stroke="none"/><ellipse cx="867.667" cy="1082.199" rx="867.417" ry="1081.949"/></g><g id="Ellipse_652" data-name="Ellipse 652" transform="rotate(-75.47 2844.088 -2284.717)"><ellipse cx="901.706" cy="1114.182" rx="901.706" ry="1114.182" stroke="none"/><ellipse cx="901.706" cy="1114.182" rx="901.456" ry="1113.932"/></g><g id="Ellipse_653" data-name="Ellipse 653" transform="rotate(-75.52 2860.58 -2220.982)"><ellipse cx="935.753" cy="1146.172" rx="935.753" ry="1146.172" stroke="none"/><ellipse cx="935.753" cy="1146.172" rx="935.503" ry="1145.922"/></g><g id="Ellipse_654" data-name="Ellipse 654" transform="rotate(-75.56 2875.705 -2158.056)"><ellipse cx="969.805" cy="1178.168" rx="969.805" ry="1178.168" stroke="none"/><ellipse cx="969.805" cy="1178.168" rx="969.555" ry="1177.918"/></g><g id="Ellipse_655" data-name="Ellipse 655" transform="rotate(-75.59 2890.193 -2094.606)"><ellipse cx="1003.863" cy="1210.17" rx="1003.863" ry="1210.17" stroke="none"/><ellipse cx="1003.863" cy="1210.17" rx="1003.613" ry="1209.92"/></g><g id="Ellipse_656" data-name="Ellipse 656" transform="rotate(-75.633 2907.142 -2032.464)"><ellipse cx="1037.926" cy="1242.177" rx="1037.926" ry="1242.177" stroke="none"/><ellipse cx="1037.926" cy="1242.177" rx="1037.676" ry="1241.927"/></g><g id="Ellipse_657" data-name="Ellipse 657" transform="rotate(-75.64 2922.474 -1971.16)"><ellipse cx="1071.994" cy="1274.19" rx="1071.994" ry="1274.19" stroke="none"/><ellipse cx="1071.994" cy="1274.19" rx="1071.744" ry="1273.94"/></g><g id="Ellipse_658" data-name="Ellipse 658" transform="rotate(-75.689 2938.463 -1907.88)"><ellipse cx="1106.067" cy="1306.206" rx="1106.067" ry="1306.206" stroke="none"/><ellipse cx="1106.067" cy="1306.206" rx="1105.817" ry="1305.956"/></g><g id="Ellipse_659" data-name="Ellipse 659" transform="rotate(-75.712 2954.074 -1845.88)"><ellipse cx="1140.143" cy="1338.227" rx="1140.143" ry="1338.227" stroke="none"/><ellipse cx="1140.143" cy="1338.227" rx="1139.893" ry="1337.977"/></g><g id="Ellipse_660" data-name="Ellipse 660" transform="rotate(-75.732 2969.653 -1784.056)"><ellipse cx="1174.223" cy="1370.252" rx="1174.223" ry="1370.252" stroke="none"/><ellipse cx="1174.223" cy="1370.252" rx="1173.973" ry="1370.002"/></g><g id="Ellipse_661" data-name="Ellipse 661" transform="rotate(-75.748 2985.225 -1722.443)"><ellipse cx="1208.306" cy="1402.281" rx="1208.306" ry="1402.281" stroke="none"/><ellipse cx="1208.306" cy="1402.281" rx="1208.056" ry="1402.031"/></g><g id="Ellipse_662" data-name="Ellipse 662" transform="rotate(-75.75 3001.671 -1661.686)"><ellipse cx="1242.393" cy="1434.312" rx="1242.393" ry="1434.312" stroke="none"/><ellipse cx="1242.393" cy="1434.312" rx="1242.143" ry="1434.062"/></g><g id="Ellipse_663" data-name="Ellipse 663" transform="rotate(-75.773 3016.273 -1599.613)"><ellipse cx="1276.482" cy="1466.347" rx="1276.482" ry="1466.347" stroke="none"/><ellipse cx="1276.482" cy="1466.347" rx="1276.232" ry="1466.097"/></g><g id="Ellipse_664" data-name="Ellipse 664" transform="rotate(-75.75 3033.098 -1539.957)"><ellipse cx="1310.574" cy="1498.385" rx="1310.574" ry="1498.385" stroke="none"/><ellipse cx="1310.574" cy="1498.385" rx="1310.324" ry="1498.135"/></g><g id="Ellipse_665" data-name="Ellipse 665" transform="rotate(-75.787 3047.247 -1477.35)"><ellipse cx="1344.668" cy="1530.425" rx="1344.668" ry="1530.425" stroke="none"/><ellipse cx="1344.668" cy="1530.425" rx="1344.418" ry="1530.175"/></g><g id="Ellipse_666" data-name="Ellipse 666" transform="rotate(-75.79 3062.713 -1416.415)"><ellipse cx="1378.765" cy="1562.468" rx="1378.765" ry="1562.468" stroke="none"/><ellipse cx="1378.765" cy="1562.468" rx="1378.515" ry="1562.218"/></g><g id="Ellipse_667" data-name="Ellipse 667" transform="rotate(-75.81 3079.267 -1355.431)"><ellipse cx="1412.864" cy="1594.513" rx="1412.864" ry="1594.513" stroke="none"/><ellipse cx="1412.864" cy="1594.513" rx="1412.614" ry="1594.263"/></g><g id="Ellipse_668" data-name="Ellipse 668" transform="rotate(-75.79 3093.576 -1294.834)"><ellipse cx="1446.964" cy="1626.56" rx="1446.964" ry="1626.56" stroke="none"/><ellipse cx="1446.964" cy="1626.56" rx="1446.714" ry="1626.31"/></g><g id="Ellipse_669" data-name="Ellipse 669" transform="rotate(-75.787 3108.975 -1234.182)"><ellipse cx="1481.067" cy="1658.61" rx="1481.067" ry="1658.61" stroke="none"/><ellipse cx="1481.067" cy="1658.61" rx="1480.817" ry="1658.36"/></g><g id="Ellipse_670" data-name="Ellipse 670" transform="rotate(-75.781 3124.38 -1173.659)"><ellipse cx="1515.171" cy="1690.661" rx="1515.171" ry="1690.661" stroke="none"/><ellipse cx="1515.171" cy="1690.661" rx="1514.921" ry="1690.411"/></g><g id="Ellipse_671" data-name="Ellipse 671" transform="rotate(-75.774 3139.745 -1113.18)"><ellipse cx="1549.277" cy="1722.715" rx="1549.277" ry="1722.715" stroke="none"/><ellipse cx="1549.277" cy="1722.715" rx="1549.027" ry="1722.465"/></g><g id="Ellipse_672" data-name="Ellipse 672" transform="rotate(-75.75 3156.175 -1053.441)"><ellipse cx="1583.385" cy="1754.77" rx="1583.385" ry="1754.77" stroke="none"/><ellipse cx="1583.385" cy="1754.77" rx="1583.135" ry="1754.52"/></g><g id="Ellipse_673" data-name="Ellipse 673" transform="rotate(-75.752 3170.482 -992.542)"><ellipse cx="1617.493" cy="1786.827" rx="1617.493" ry="1786.827" stroke="none"/><ellipse cx="1617.493" cy="1786.827" rx="1617.243" ry="1786.577"/></g><g id="Ellipse_674" data-name="Ellipse 674" transform="rotate(-75.739 3185.805 -932.3)"><ellipse cx="1651.603" cy="1818.885" rx="1651.603" ry="1818.885" stroke="none"/><ellipse cx="1651.603" cy="1818.885" rx="1651.353" ry="1818.635"/></g><g id="Ellipse_675" data-name="Ellipse 675" transform="rotate(-75.723 3201.145 -872.167)"><ellipse cx="1685.715" cy="1850.945" rx="1685.715" ry="1850.945" stroke="none"/><ellipse cx="1685.715" cy="1850.945" rx="1685.465" ry="1850.695"/></g><g id="Ellipse_676" data-name="Ellipse 676" transform="rotate(-75.706 3216.446 -812.068)"><ellipse cx="1719.827" cy="1883.006" rx="1719.827" ry="1883.006" stroke="none"/><ellipse cx="1719.827" cy="1883.006" rx="1719.577" ry="1882.756"/></g><g id="Ellipse_677" data-name="Ellipse 677" transform="rotate(-75.686 3231.766 -752.073)"><ellipse cx="1753.94" cy="1915.069" rx="1753.94" ry="1915.069" stroke="none"/><ellipse cx="1753.94" cy="1915.069" rx="1753.69" ry="1914.819"/></g><g id="Ellipse_678" data-name="Ellipse 678" transform="rotate(-75.665 3247.048 -692.105)"><ellipse cx="1788.055" cy="1947.133" rx="1788.055" ry="1947.133" stroke="none"/><ellipse cx="1788.055" cy="1947.133" rx="1787.805" ry="1946.883"/></g><g id="Ellipse_679" data-name="Ellipse 679" transform="rotate(-75.642 3262.321 -632.2)"><ellipse cx="1822.17" cy="1979.199" rx="1822.17" ry="1979.199" stroke="none"/><ellipse cx="1822.17" cy="1979.199" rx="1821.92" ry="1978.949"/></g><g id="Ellipse_680" data-name="Ellipse 680" transform="rotate(-75.64 3276.251 -571.825)"><ellipse cx="1856.286" cy="2011.265" rx="1856.286" ry="2011.265" stroke="none"/><ellipse cx="1856.286" cy="2011.265" rx="1856.036" ry="2011.015"/></g><g id="Ellipse_681" data-name="Ellipse 681" transform="rotate(-75.59 3291.298 -512.362)"><ellipse cx="1890.403" cy="2043.333" rx="1890.403" ry="2043.333" stroke="none"/><ellipse cx="1890.403" cy="2043.333" rx="1890.153" ry="2043.083"/></g><g id="Ellipse_682" data-name="Ellipse 682" transform="rotate(-75.56 3308.118 -452.864)"><ellipse cx="1924.521" cy="2075.402" rx="1924.521" ry="2075.402" stroke="none"/><ellipse cx="1924.521" cy="2075.402" rx="1924.271" ry="2075.152"/></g><g id="Ellipse_683" data-name="Ellipse 683" transform="rotate(-75.529 3323.354 -393.18)"><ellipse cx="1958.639" cy="2107.472" rx="1958.639" ry="2107.472" stroke="none"/><ellipse cx="1958.639" cy="2107.472" rx="1958.389" ry="2107.222"/></g><g id="Ellipse_684" data-name="Ellipse 684" transform="rotate(-75.52 3338.23 -332.315)"><ellipse cx="1992.758" cy="2139.543" rx="1992.758" ry="2139.543" stroke="none"/><ellipse cx="1992.758" cy="2139.543" rx="1992.508" ry="2139.293"/></g><g id="Ellipse_685" data-name="Ellipse 685" transform="rotate(-75.46 3353.683 -273.9)"><ellipse cx="2026.877" cy="2171.615" rx="2026.877" ry="2171.615" stroke="none"/><ellipse cx="2026.877" cy="2171.615" rx="2026.627" ry="2171.365"/></g><g id="Ellipse_686" data-name="Ellipse 686" transform="rotate(-75.4 3368.683 -214.86)"><ellipse cx="2060.997" cy="2203.689" rx="2060.997" ry="2203.689" stroke="none"/><ellipse cx="2060.997" cy="2203.689" rx="2060.747" ry="2203.439"/></g><g id="Ellipse_687" data-name="Ellipse 687" transform="rotate(-75.4 3382.44 -154.144)"><ellipse cx="2095.118" cy="2235.763" rx="2095.118" ry="2235.763" stroke="none"/><ellipse cx="2095.118" cy="2235.763" rx="2094.868" ry="2235.513"/></g><g id="Ellipse_688" data-name="Ellipse 688" transform="rotate(-75.34 3401.107 -95.664)"><ellipse cx="2129.239" cy="2267.838" rx="2129.239" ry="2267.838" stroke="none"/><ellipse cx="2129.239" cy="2267.838" rx="2128.989" ry="2267.588"/></g><g id="Ellipse_689" data-name="Ellipse 689" transform="rotate(-75.29 3415.547 -36.132)"><ellipse cx="2163.36" cy="2299.914" rx="2163.36" ry="2299.914" stroke="none"/><ellipse cx="2163.36" cy="2299.914" rx="2163.11" ry="2299.664"/></g><g id="Ellipse_690" data-name="Ellipse 690" transform="rotate(-75.23 3430.658 22.402)"><ellipse cx="2197.481" cy="2331.991" rx="2197.481" ry="2331.991" stroke="none"/><ellipse cx="2197.481" cy="2331.991" rx="2197.231" ry="2331.741"/></g><g id="Ellipse_691" data-name="Ellipse 691" transform="rotate(-75.23 3443.917 83.146)"><ellipse cx="2231.603" cy="2364.07" rx="2231.603" ry="2364.07" stroke="none"/><ellipse cx="2231.603" cy="2364.07" rx="2231.353" ry="2363.82"/></g><g id="Ellipse_692" data-name="Ellipse 692" transform="rotate(-75.17 3458.253 142.37)"><ellipse cx="2265.725" cy="2396.148" rx="2265.725" ry="2396.148" stroke="none"/><ellipse cx="2265.725" cy="2396.148" rx="2265.475" ry="2395.898"/></g><g id="Ellipse_693" data-name="Ellipse 693" transform="rotate(-75.103 3475.105 201.21)"><ellipse cx="2299.848" cy="2428.228" rx="2299.848" ry="2428.228" stroke="none"/><ellipse cx="2299.848" cy="2428.228" rx="2299.598" ry="2427.978"/></g><g id="Ellipse_694" data-name="Ellipse 694" transform="rotate(-75.047 3490.24 260.41)"><ellipse cx="2333.97" cy="2460.309" rx="2333.97" ry="2460.309" stroke="none"/><ellipse cx="2333.97" cy="2460.309" rx="2333.72" ry="2460.059"/></g><g id="Ellipse_695" data-name="Ellipse 695" transform="rotate(-74.99 3505.067 319.354)"><ellipse cx="2368.093" cy="2492.391" rx="2368.093" ry="2492.391" stroke="none"/><ellipse cx="2368.093" cy="2492.391" rx="2367.843" ry="2492.141"/></g><g id="Ellipse_696" data-name="Ellipse 696" transform="rotate(-74.928 3520.435 378.72)"><ellipse cx="2402.216" cy="2524.473" rx="2402.216" ry="2524.473" stroke="none"/><ellipse cx="2402.216" cy="2524.473" rx="2401.966" ry="2524.223"/></g><g id="Ellipse_697" data-name="Ellipse 697" transform="rotate(-74.864 3535.526 437.811)"><ellipse cx="2436.339" cy="2556.557" rx="2436.339" ry="2556.557" stroke="none"/><ellipse cx="2436.339" cy="2556.557" rx="2436.089" ry="2556.307"/></g><g id="Ellipse_698" data-name="Ellipse 698" transform="rotate(-74.798 3550.562 496.89)"><ellipse cx="2470.462" cy="2588.641" rx="2470.462" ry="2588.641" stroke="none"/><ellipse cx="2470.462" cy="2588.641" rx="2470.212" ry="2588.391"/></g><g id="Ellipse_699" data-name="Ellipse 699" transform="rotate(-74.728 3565.625 555.905)"><ellipse cx="2504.584" cy="2620.726" rx="2504.584" ry="2620.726" stroke="none"/><ellipse cx="2504.584" cy="2620.726" rx="2504.334" ry="2620.476"/></g><g id="Ellipse_700" data-name="Ellipse 700" transform="rotate(-74.655 3580.664 614.889)"><ellipse cx="2538.707" cy="2652.813" rx="2538.707" ry="2652.813" stroke="none"/><ellipse cx="2538.707" cy="2652.813" rx="2538.457" ry="2652.563"/></g><g id="Ellipse_701" data-name="Ellipse 701" transform="rotate(-74.579 3595.671 673.842)"><ellipse cx="2572.83" cy="2684.9" rx="2572.83" ry="2684.9" stroke="none"/><ellipse cx="2572.83" cy="2684.9" rx="2572.58" ry="2684.65"/></g><g id="Ellipse_702" data-name="Ellipse 702" transform="rotate(-74.499 3610.686 732.746)"><ellipse cx="2606.952" cy="2716.988" rx="2606.952" ry="2716.988" stroke="none"/><ellipse cx="2606.952" cy="2716.988" rx="2606.702" ry="2716.738"/></g><g id="Ellipse_703" data-name="Ellipse 703" transform="rotate(-74.4 3626.941 791.485)"><ellipse cx="2641.075" cy="2749.076" rx="2641.075" ry="2749.076" stroke="none"/><ellipse cx="2641.075" cy="2749.076" rx="2640.825" ry="2748.826"/></g><g id="Ellipse_704" data-name="Ellipse 704" transform="rotate(-74.34 3639.999 850.278)"><ellipse cx="2675.197" cy="2781.167" rx="2675.197" ry="2781.167" stroke="none"/><ellipse cx="2675.197" cy="2781.167" rx="2674.947" ry="2780.917"/></g><g id="Ellipse_705" data-name="Ellipse 705" transform="rotate(-74.237 3655.59 909.24)"><ellipse cx="2709.319" cy="2813.257" rx="2709.319" ry="2813.257" stroke="none"/><ellipse cx="2709.319" cy="2813.257" rx="2709.069" ry="2813.007"/></g><g id="Ellipse_706" data-name="Ellipse 706" transform="rotate(-74.141 3670.541 967.981)"><ellipse cx="2743.44" cy="2845.349" rx="2743.44" ry="2845.349" stroke="none"/><ellipse cx="2743.44" cy="2845.349" rx="2743.19" ry="2845.099"/></g><g id="Ellipse_707" data-name="Ellipse 707" transform="rotate(-74.041 3685.446 1026.692)"><ellipse cx="2777.561" cy="2877.442" rx="2777.561" ry="2877.442" stroke="none"/><ellipse cx="2777.561" cy="2877.442" rx="2777.311" ry="2877.192"/></g><g id="Ellipse_708" data-name="Ellipse 708" transform="rotate(-73.936 3700.342 1085.354)"><ellipse cx="2811.682" cy="2909.536" rx="2811.682" ry="2909.536" stroke="none"/><ellipse cx="2811.682" cy="2909.536" rx="2811.432" ry="2909.286"/></g><g id="Ellipse_709" data-name="Ellipse 709" transform="rotate(-73.826 3715.212 1143.973)"><ellipse cx="2845.802" cy="2941.632" rx="2845.802" ry="2941.632" stroke="none"/><ellipse cx="2845.802" cy="2941.632" rx="2845.552" ry="2941.382"/></g><g id="Ellipse_710" data-name="Ellipse 710" transform="rotate(-73.71 3730.094 1202.533)"><ellipse cx="2879.921" cy="2973.728" rx="2879.921" ry="2973.728" stroke="none"/><ellipse cx="2879.921" cy="2973.728" rx="2879.671" ry="2973.478"/></g><g id="Ellipse_711" data-name="Ellipse 711" transform="rotate(-73.56 3746.69 1260.875)"><ellipse cx="2914.04" cy="3005.825" rx="2914.04" ry="3005.825" stroke="none"/><ellipse cx="2914.04" cy="3005.825" rx="2913.79" ry="3005.575"/></g><g id="Ellipse_712" data-name="Ellipse 712" transform="rotate(-73.462 3759.707 1319.535)"><ellipse cx="2948.158" cy="3037.924" rx="2948.158" ry="3037.924" stroke="none"/><ellipse cx="2948.158" cy="3037.924" rx="2947.908" ry="3037.674"/></g><g id="Ellipse_713" data-name="Ellipse 713" transform="rotate(-73.328 3774.503 1377.949)"><ellipse cx="2982.276" cy="3070.024" rx="2982.276" ry="3070.024" stroke="none"/><ellipse cx="2982.276" cy="3070.024" rx="2982.026" ry="3069.774"/></g><g id="Ellipse_714" data-name="Ellipse 714" transform="rotate(-73.188 3789.221 1436.323)"><ellipse cx="3016.393" cy="3102.126" rx="3016.393" ry="3102.126" stroke="none"/><ellipse cx="3016.393" cy="3102.126" rx="3016.143" ry="3101.876"/></g><g id="Ellipse_715" data-name="Ellipse 715" transform="rotate(-73.03 3802.293 1493.674)"><ellipse cx="3050.508" cy="3134.229" rx="3050.508" ry="3134.229" stroke="none"/><ellipse cx="3050.508" cy="3134.229" rx="3050.258" ry="3133.979"/></g><g id="Ellipse_716" data-name="Ellipse 716" transform="rotate(-72.884 3818.645 1552.873)"><ellipse cx="3084.623" cy="3166.333" rx="3084.623" ry="3166.333" stroke="none"/><ellipse cx="3084.623" cy="3166.333" rx="3084.373" ry="3166.083"/></g><g id="Ellipse_717" data-name="Ellipse 717" transform="rotate(-72.72 3833.284 1611.06)"><ellipse cx="3118.736" cy="3198.44" rx="3118.736" ry="3198.44" stroke="none"/><ellipse cx="3118.736" cy="3198.44" rx="3118.486" ry="3198.19"/></g><g id="Ellipse_718" data-name="Ellipse 718" transform="rotate(-72.54 3848.052 1668.93)"><ellipse cx="3152.848" cy="3230.548" rx="3152.848" ry="3230.548" stroke="none"/><ellipse cx="3152.848" cy="3230.548" rx="3152.598" ry="3230.298"/></g><g id="Ellipse_719" data-name="Ellipse 719" transform="rotate(-72.364 3862.456 1727.222)"><ellipse cx="3186.958" cy="3262.657" rx="3186.958" ry="3262.657" stroke="none"/><ellipse cx="3186.958" cy="3262.657" rx="3186.708" ry="3262.407"/></g><g id="Ellipse_720" data-name="Ellipse 720" transform="rotate(-72.171 3876.953 1785.195)"><ellipse cx="3221.068" cy="3294.769" rx="3221.068" ry="3294.769" stroke="none"/><ellipse cx="3221.068" cy="3294.769" rx="3220.818" ry="3294.519"/></g><g id="Ellipse_721" data-name="Ellipse 721" transform="rotate(-71.94 3891.762 1842.374)"><ellipse cx="3255.175" cy="3326.883" rx="3255.175" ry="3326.883" stroke="none"/><ellipse cx="3255.175" cy="3326.883" rx="3254.925" ry="3326.633"/></g><g id="Ellipse_722" data-name="Ellipse 722" transform="rotate(-71.76 3904.742 1900.192)"><ellipse cx="3289.281" cy="3358.999" rx="3289.281" ry="3358.999" stroke="none"/><ellipse cx="3289.281" cy="3358.999" rx="3289.031" ry="3358.749"/></g><g id="Ellipse_723" data-name="Ellipse 723" transform="rotate(-71.519 3920.212 1958.583)"><ellipse cx="3323.384" cy="3391.117" rx="3323.384" ry="3391.117" stroke="none"/><ellipse cx="3323.384" cy="3391.117" rx="3323.134" ry="3390.867"/></g><g id="Ellipse_724" data-name="Ellipse 724" transform="rotate(-71.275 3934.466 2016.192)"><ellipse cx="3357.485" cy="3423.239" rx="3357.485" ry="3423.239" stroke="none"/><ellipse cx="3357.485" cy="3423.239" rx="3357.235" ry="3422.989"/></g><g id="Ellipse_725" data-name="Ellipse 725" transform="rotate(-71.015 3948.667 2073.686)"><ellipse cx="3391.584" cy="3455.363" rx="3391.584" ry="3455.363" stroke="none"/><ellipse cx="3391.584" cy="3455.363" rx="3391.334" ry="3455.113"/></g><g id="Ellipse_726" data-name="Ellipse 726" transform="rotate(-70.737 3962.846 2131.053)"><ellipse cx="3425.68" cy="3487.49" rx="3425.68" ry="3487.49" stroke="none"/><ellipse cx="3425.68" cy="3487.49" rx="3425.43" ry="3487.24"/></g><g id="Ellipse_727" data-name="Ellipse 727" transform="rotate(-70.441 3976.887 2188.295)"><ellipse cx="3459.773" cy="3519.62" rx="3459.773" ry="3519.62" stroke="none"/><ellipse cx="3459.773" cy="3519.62" rx="3459.523" ry="3519.37"/></g><g id="Ellipse_728" data-name="Ellipse 728" transform="rotate(-70.124 3990.86 2245.39)"><ellipse cx="3493.862" cy="3551.755" rx="3493.862" ry="3551.755" stroke="none"/><ellipse cx="3493.862" cy="3551.755" rx="3493.612" ry="3551.505"/></g><g id="Ellipse_729" data-name="Ellipse 729" transform="rotate(-69.76 4007.042 2303.019)"><ellipse cx="3527.948" cy="3583.893" rx="3527.948" ry="3583.893" stroke="none"/><ellipse cx="3527.948" cy="3583.893" rx="3527.698" ry="3583.643"/></g><g id="Ellipse_730" data-name="Ellipse 730" transform="rotate(-69.421 4018.387 2359.1)"><ellipse cx="3562.029" cy="3616.036" rx="3562.029" ry="3616.036" stroke="none"/><ellipse cx="3562.029" cy="3616.036" rx="3561.779" ry="3615.786"/></g><g id="Ellipse_731" data-name="Ellipse 731" transform="rotate(-69.03 4030.987 2415.04)"><ellipse cx="3596.106" cy="3648.184" rx="3596.106" ry="3648.184" stroke="none"/><ellipse cx="3596.106" cy="3648.184" rx="3595.856" ry="3647.934"/></g><g id="Ellipse_732" data-name="Ellipse 732" transform="rotate(-68.606 4045.46 2472.028)"><ellipse cx="3630.178" cy="3680.337" rx="3630.178" ry="3680.337" stroke="none"/><ellipse cx="3630.178" cy="3680.337" rx="3629.928" ry="3680.087"/></g><g id="Ellipse_733" data-name="Ellipse 733" transform="rotate(-68.149 4058.764 2528.146)"><ellipse cx="3664.243" cy="3712.497" rx="3664.243" ry="3712.497" stroke="none"/><ellipse cx="3664.243" cy="3712.497" rx="3663.993" ry="3712.247"/></g><g id="Ellipse_734" data-name="Ellipse 734" transform="rotate(-67.67 4070.922 2583.966)"><ellipse cx="3698.302" cy="3744.664" rx="3698.302" ry="3744.664" stroke="none"/><ellipse cx="3698.302" cy="3744.664" rx="3698.052" ry="3744.414"/></g><g id="Ellipse_735" data-name="Ellipse 735" transform="rotate(-67.118 4084.656 2639.55)"><ellipse cx="3732.354" cy="3776.838" rx="3732.354" ry="3776.838" stroke="none"/><ellipse cx="3732.354" cy="3776.838" rx="3732.104" ry="3776.588"/></g><g id="Ellipse_736" data-name="Ellipse 736" transform="rotate(-66.54 4098.345 2695.712)"><ellipse cx="3766.397" cy="3809.021" rx="3766.397" ry="3809.021" stroke="none"/><ellipse cx="3766.397" cy="3809.021" rx="3766.147" ry="3808.771"/></g><g id="Ellipse_737" data-name="Ellipse 737" transform="rotate(-65.894 4109.656 2749.585)"><ellipse cx="3800.43" cy="3841.215" rx="3800.43" ry="3841.215" stroke="none"/><ellipse cx="3800.43" cy="3841.215" rx="3800.18" ry="3840.965"/></g><g id="Ellipse_738" data-name="Ellipse 738" transform="rotate(-65.196 4121.568 2803.969)"><ellipse cx="3834.452" cy="3873.419" rx="3834.452" ry="3873.419" stroke="none"/><ellipse cx="3834.452" cy="3873.419" rx="3834.202" ry="3873.169"/></g><g id="Ellipse_739" data-name="Ellipse 739" transform="rotate(-64.428 4133.213 2857.854)"><ellipse cx="3868.461" cy="3905.637" rx="3868.461" ry="3905.637" stroke="none"/><ellipse cx="3868.461" cy="3905.637" rx="3868.211" ry="3905.387"/></g><g id="Ellipse_740" data-name="Ellipse 740" transform="rotate(-63.583 4144.35 2911.162)"><ellipse cx="3902.456" cy="3937.87" rx="3902.456" ry="3937.87" stroke="none"/><ellipse cx="3902.456" cy="3937.87" rx="3902.206" ry="3937.62"/></g><g id="Ellipse_741" data-name="Ellipse 741" transform="rotate(-62.67 4155.181 2964.852)"><ellipse cx="3936.433" cy="3970.12" rx="3936.433" ry="3970.12" stroke="none"/><ellipse cx="3936.433" cy="3970.12" rx="3936.183" ry="3969.87"/></g><g id="Ellipse_742" data-name="Ellipse 742" transform="rotate(-61.617 4164.848 3015.672)"><ellipse cx="3970.39" cy="4002.39" rx="3970.39" ry="4002.39" stroke="none"/><ellipse cx="3970.39" cy="4002.39" rx="3970.14" ry="4002.14"/></g><g id="Ellipse_743" data-name="Ellipse 743" transform="rotate(-60.469 4174.09 3066.657)"><ellipse cx="4004.325" cy="4034.683" rx="4004.325" ry="4034.683" stroke="none"/><ellipse cx="4004.325" cy="4034.683" rx="4004.075" ry="4034.433"/></g><g id="Ellipse_744" data-name="Ellipse 744" transform="rotate(-59.192 4182.376 3116.603)"><ellipse cx="4038.232" cy="4067.004" rx="4038.232" ry="4067.004" stroke="none"/><ellipse cx="4038.232" cy="4067.004" rx="4037.982" ry="4066.754"/></g><g id="Ellipse_745" data-name="Ellipse 745" transform="rotate(-57.769 4189.515 3165.34)"><ellipse cx="4072.107" cy="4099.357" rx="4072.107" ry="4099.357" stroke="none"/><ellipse cx="4072.107" cy="4099.357" rx="4071.857" ry="4099.107"/></g><g id="Ellipse_746" data-name="Ellipse 746" transform="rotate(-56.182 4195.251 3212.669)"><ellipse cx="4105.944" cy="4131.749" rx="4105.944" ry="4131.749" stroke="none"/><ellipse cx="4105.944" cy="4131.749" rx="4105.694" ry="4131.499"/></g><g id="Ellipse_747" data-name="Ellipse 747" transform="rotate(-45 4123.12 3080.303)"><ellipse cx="4140.385" cy="4163.525" rx="4140.385" ry="4163.525" stroke="none"/><ellipse cx="4140.385" cy="4163.525" rx="4140.135" ry="4163.275"/></g><g id="Ellipse_748" data-name="Ellipse 748" transform="rotate(-45 4139.416 3164.388)"><ellipse cx="4173.864" cy="4196.28" rx="4173.864" ry="4196.28" stroke="none"/><ellipse cx="4173.864" cy="4196.28" rx="4173.614" ry="4196.03"/></g><g id="Ellipse_749" data-name="Ellipse 749" transform="rotate(-45 4155.713 3248.471)"><ellipse cx="4207.342" cy="4229.035" rx="4207.342" ry="4229.035" stroke="none"/><ellipse cx="4207.342" cy="4229.035" rx="4207.092" ry="4228.785"/></g><g id="Ellipse_750" data-name="Ellipse 750" transform="rotate(-45 4172.009 3332.553)"><ellipse cx="4240.818" cy="4261.79" rx="4240.818" ry="4261.79" stroke="none"/><ellipse cx="4240.818" cy="4261.79" rx="4240.568" ry="4261.54"/></g><g id="Ellipse_751" data-name="Ellipse 751" transform="rotate(-45 4188.305 3416.634)"><ellipse cx="4274.294" cy="4294.544" rx="4274.294" ry="4294.544" stroke="none"/><ellipse cx="4274.294" cy="4294.544" rx="4274.044" ry="4294.294"/></g><g id="Ellipse_752" data-name="Ellipse 752" transform="rotate(-45 4204.6 3500.713)"><ellipse cx="4307.769" cy="4327.298" rx="4307.769" ry="4327.298" stroke="none"/><ellipse cx="4307.769" cy="4327.298" rx="4307.519" ry="4327.048"/></g><g id="Ellipse_753" data-name="Ellipse 753" transform="rotate(-45 4220.897 3584.792)"><ellipse cx="4341.244" cy="4360.052" rx="4341.244" ry="4360.052" stroke="none"/><ellipse cx="4341.244" cy="4360.052" rx="4340.994" ry="4359.802"/></g><g id="Ellipse_754" data-name="Ellipse 754" transform="rotate(-45 4237.193 3668.87)"><ellipse cx="4374.717" cy="4392.806" rx="4374.717" ry="4392.806" stroke="none"/><ellipse cx="4374.717" cy="4392.806" rx="4374.467" ry="4392.556"/></g><g id="Ellipse_755" data-name="Ellipse 755" transform="rotate(-45 4253.488 3752.946)"><ellipse cx="4408.189" cy="4425.559" rx="4408.189" ry="4425.559" stroke="none"/><ellipse cx="4408.189" cy="4425.559" rx="4407.939" ry="4425.309"/></g><g id="Ellipse_756" data-name="Ellipse 756" transform="rotate(-45 4269.784 3837.021)"><ellipse cx="4441.662" cy="4458.312" rx="4441.662" ry="4458.312" stroke="none"/><ellipse cx="4441.662" cy="4458.312" rx="4441.412" ry="4458.062"/></g><g id="Ellipse_757" data-name="Ellipse 757" transform="rotate(-27.18 4018.573 3615.909)"><ellipse cx="4473.305" cy="4492.914" rx="4473.305" ry="4492.914" stroke="none"/><ellipse cx="4473.305" cy="4492.914" rx="4473.055" ry="4492.664"/></g><g id="Ellipse_758" data-name="Ellipse 758" transform="rotate(-24.351 3964.77 3660.568)"><ellipse cx="4506.1" cy="4526.35" rx="4506.1" ry="4526.35" stroke="none"/><ellipse cx="4506.1" cy="4526.35" rx="4505.85" ry="4526.1"/></g><g id="Ellipse_759" data-name="Ellipse 759" transform="rotate(-21.73 3896.175 3711.854)"><ellipse cx="4538.802" cy="4559.878" rx="4538.802" ry="4559.878" stroke="none"/><ellipse cx="4538.802" cy="4559.878" rx="4538.552" ry="4559.628"/></g><g id="Ellipse_760" data-name="Ellipse 760" transform="rotate(-19.324 3815.746 3776.423)"><ellipse cx="4571.424" cy="4593.488" rx="4571.424" ry="4593.488" stroke="none"/><ellipse cx="4571.424" cy="4593.488" rx="4571.174" ry="4593.238"/></g><g id="Ellipse_761" data-name="Ellipse 761" transform="rotate(-17.139 3721.737 3858.306)"><ellipse cx="4603.974" cy="4627.168" rx="4603.974" ry="4627.168" stroke="none"/><ellipse cx="4603.974" cy="4627.168" rx="4603.724" ry="4626.918"/></g><g id="Ellipse_762" data-name="Ellipse 762" transform="rotate(-15.168 3612.45 3962.454)"><ellipse cx="4636.463" cy="4660.911" rx="4636.463" ry="4660.911" stroke="none"/><ellipse cx="4636.463" cy="4660.911" rx="4636.213" ry="4660.661"/></g><g id="Ellipse_763" data-name="Ellipse 763" transform="rotate(-13.397 3485.763 4094.747)"><ellipse cx="4668.9" cy="4694.705" rx="4668.9" ry="4694.705" stroke="none"/><ellipse cx="4668.9" cy="4694.705" rx="4668.65" ry="4694.455"/></g><g id="Ellipse_764" data-name="Ellipse 764" transform="rotate(-11.76 3337.516 4252.058)"><ellipse cx="4701.293" cy="4728.544" rx="4701.293" ry="4728.544" stroke="none"/><ellipse cx="4701.293" cy="4728.544" rx="4701.043" ry="4728.294"/></g><g id="Ellipse_765" data-name="Ellipse 765" transform="rotate(-10.384 3168.253 4473.936)"><ellipse cx="4733.648" cy="4762.42" rx="4733.648" ry="4762.42" stroke="none"/><ellipse cx="4733.648" cy="4762.42" rx="4733.398" ry="4762.17"/></g><g id="Ellipse_766" data-name="Ellipse 766" transform="rotate(-9.1 2974.039 4748.044)"><ellipse cx="4765.971" cy="4796.33" rx="4765.971" ry="4796.33" stroke="none"/><ellipse cx="4765.971" cy="4796.33" rx="4765.721" ry="4796.08"/></g><g id="Ellipse_767" data-name="Ellipse 767" transform="rotate(-7.94 2743.173 5091.887)"><ellipse cx="4798.266" cy="4830.266" rx="4798.266" ry="4830.266" stroke="none"/><ellipse cx="4798.266" cy="4830.266" rx="4798.016" ry="4830.016"/></g><g id="Ellipse_768" data-name="Ellipse 768" transform="rotate(-6.922 2454.193 5501.213)"><ellipse cx="4830.539" cy="4864.226" rx="4830.539" ry="4864.226" stroke="none"/><ellipse cx="4830.539" cy="4864.226" rx="4830.289" ry="4863.976"/></g><g id="Ellipse_769" data-name="Ellipse 769" transform="rotate(-5.97 2125.02 6058.582)"><ellipse cx="4862.791" cy="4898.205" rx="4862.791" ry="4898.205" stroke="none"/><ellipse cx="4862.791" cy="4898.205" rx="4862.541" ry="4897.955"/></g><g id="Ellipse_770" data-name="Ellipse 770" transform="rotate(-5.13 1701.6 6703.271)"><ellipse cx="4895.026" cy="4932.202" rx="4895.026" ry="4932.202" stroke="none"/><ellipse cx="4895.026" cy="4932.202" rx="4894.776" ry="4931.952"/></g><g id="Ellipse_771" data-name="Ellipse 771" transform="rotate(-4.371 1193.151 7636.032)"><ellipse cx="4927.247" cy="4966.214" rx="4927.247" ry="4966.214" stroke="none"/><ellipse cx="4927.247" cy="4966.214" rx="4926.997" ry="4965.964"/></g><g id="Ellipse_772" data-name="Ellipse 772" transform="rotate(-3.67 537.108 8832.859)"><ellipse cx="4959.454" cy="5000.239" rx="4959.454" ry="5000.239" stroke="none"/><ellipse cx="4959.454" cy="5000.239" rx="4959.204" ry="4999.989"/></g><g id="Ellipse_773" data-name="Ellipse 773" transform="rotate(-3.029 -329.293 10466.319)"><ellipse cx="4991.651" cy="5034.275" rx="4991.651" ry="5034.275" stroke="none"/><ellipse cx="4991.651" cy="5034.275" rx="4991.401" ry="5034.025"/></g><g id="Ellipse_774" data-name="Ellipse 774" transform="rotate(-2.56 -1534.82 12659.283)"><ellipse cx="5023.837" cy="5068.322" rx="5023.837" ry="5068.322" stroke="none"/><ellipse cx="5023.837" cy="5068.322" rx="5023.587" ry="5068.072"/></g><g id="Ellipse_775" data-name="Ellipse 775" transform="rotate(-1.902 -3275.3 16249.275)"><ellipse cx="5056.015" cy="5102.377" rx="5056.015" ry="5102.377" stroke="none"/><ellipse cx="5056.015" cy="5102.377" rx="5055.765" ry="5102.127"/></g><g id="Ellipse_776" data-name="Ellipse 776" transform="rotate(-1.405 -6081.105 21906.667)"><ellipse cx="5088.186" cy="5136.439" rx="5088.186" ry="5136.439" stroke="none"/><ellipse cx="5088.186" cy="5136.439" rx="5087.936" ry="5136.189"/></g><g id="Ellipse_777" data-name="Ellipse 777" transform="rotate(-.946 -11295.273 32565.496)"><ellipse cx="5120.349" cy="5170.509" rx="5120.349" ry="5170.509" stroke="none"/><ellipse cx="5120.349" cy="5170.509" rx="5120.099" ry="5170.259"/></g><g id="Ellipse_778" data-name="Ellipse 778" transform="translate(-541.605 -218.704)"><ellipse cx="5152.507" cy="5204.584" rx="5152.507" ry="5204.584" stroke="none"/><ellipse cx="5152.507" cy="5204.584" rx="5152.257" ry="5204.334"/></g><g id="Ellipse_779" data-name="Ellipse 779" transform="rotate(-.125 -116147.938 250141.007)"><ellipse cx="5184.659" cy="5238.666" rx="5184.659" ry="5238.666" stroke="none"/><ellipse cx="5184.659" cy="5238.666" rx="5184.409" ry="5238.416"/></g></g><g id="Group_4841" data-name="Group 4841"><path id="Line_251" data-name="Line 251" transform="translate(3676.446 -547.498)" d="M0 0v10205.166"/><path id="Line_252" data-name="Line 252" transform="translate(3767.875 -547.498)" d="M0 0v10205.166"/><path id="Line_253" data-name="Line 253" transform="translate(3859.303 -547.498)" d="M0 0v10205.166"/><path id="Line_254" data-name="Line 254" transform="translate(3950.732 -547.498)" d="M0 0v10205.166"/><path id="Line_255" data-name="Line 255" transform="translate(4042.16 -547.498)" d="M0 0v10205.166"/><path id="Line_256" data-name="Line 256" transform="translate(4133.589 -547.498)" d="M0 0v10205.166"/><path id="Line_257" data-name="Line 257" transform="translate(4225.018 -547.498)" d="M0 0v10205.166"/><path id="Line_258" data-name="Line 258" transform="translate(4316.446 -547.498)" d="M0 0v10205.166"/><path id="Line_259" data-name="Line 259" transform="translate(4407.875 -547.498)" d="M0 0v10205.166"/><path id="Line_260" data-name="Line 260" transform="translate(4499.303 -547.498)" d="M0 0v10205.166"/><path id="Line_261" data-name="Line 261" transform="translate(4590.732 -547.498)" d="M0 0v10205.166"/><path id="Line_262" data-name="Line 262" transform="translate(4682.161 -547.498)" d="M0 0v10205.166"/><path id="Line_263" data-name="Line 263" transform="translate(4773.589 -547.498)" d="M0 0v10205.166"/><path id="Line_264" data-name="Line 264" transform="translate(4865.018 -547.498)" d="M0 0v10205.166"/><path id="Line_265" data-name="Line 265" transform="translate(4956.446 -547.498)" d="M0 0v10205.166"/><path id="Line_266" data-name="Line 266" transform="translate(5047.875 -547.498)" d="M0 0v10205.166"/><path id="Line_267" data-name="Line 267" transform="translate(5139.303 -547.498)" d="M0 0v10205.166"/><path id="Line_268" data-name="Line 268" transform="translate(5230.732 -547.498)" d="M0 0v10205.166"/><path id="Line_269" data-name="Line 269" transform="translate(5322.161 -547.498)" d="M0 0v10205.166"/><path id="Line_270" data-name="Line 270" transform="translate(5413.589 -547.498)" d="M0 0v10205.166"/><path id="Line_271" data-name="Line 271" transform="translate(5505.018 -547.498)" d="M0 0v10205.166"/><path id="Line_272" data-name="Line 272" transform="translate(5596.446 -547.498)" d="M0 0v10205.166"/></g></g></g></g></svg>