<svg xmlns="http://www.w3.org/2000/svg" xmlns:xlink="http://www.w3.org/1999/xlink" width="752.723" height="71.41" viewBox="0 0 752.723 71.41">
  <defs>
    <linearGradient id="linear-gradient" x1="0.5" y1="-0.408" x2="0.5" y2="1.023" gradientUnits="objectBoundingBox">
      <stop offset="0" stop-color="#00ffd5"/>
      <stop offset="1" stop-color="#01cb2d"/>
    </linearGradient>
  </defs>
  <g id="big-inputbg1" transform="translate(-399.942 -854.734)">
    <g id="Group_439" data-name="Group 439">
      <g id="Group_438" data-name="Group 438">
        <path id="Path_719" data-name="Path 719" d="M438.853,922.674c-5.913,0-13.518-.255-19.9-2.239-13.175-4.1-15.084-13.864-15.294-17.873-.153-2.915-.378-15.061-.163-23.325.189-7.246,3.468-12.65,9.489-15.655a19.481,19.481,0,0,1,6.328-3.3c5.417-1.741,12.774-2.082,23.649-2.082h4.466c156.142.025,666.767.178,681.786,1.081,6.487.389,11.537,2.641,15.01,6.692,5.269,6.144,5.359,17.544,4.67,28.949-.083,1.38-.168,2.771-.23,4.181-.244,5.554-1.558,13.387-10.041,17.673a19.491,19.491,0,0,1-5.122,2.89c-5.438,2.119-13.147,2.87-29.458,2.87-6.489,0-649,0-653.2-.019h-.408c-1.488,0-3.172.032-4.955.068l-.142,0C443.26,922.632,441.1,922.674,438.853,922.674Z" fill="url(#linear-gradient)"/>
        <path id="Path_720" data-name="Path 720" d="M443.512,861.674c23.229.005,668.9.079,685.5,1.076,5.512.33,9.747,2.177,12.584,5.486,4.816,5.616,4.342,18.172,3.84,26.482-.083,1.376-.169,2.8-.232,4.238-.228,5.184-1.414,11.5-8.462,14.886a15.9,15.9,0,0,1-4.5,2.6c-4.988,1.944-12.367,2.633-28.2,2.633-12.273,0-648.987,0-653.181-.019h-.419c-1.512,0-3.22.033-5.028.068-2.108.041-4.288.083-6.566.083-5.667,0-12.932-.236-18.865-2.082-10.693-3.325-12.646-10.662-12.859-14.74-.148-2.81-.37-14.968-.16-23.053.159-6.1,2.817-10.4,7.9-12.8a15.923,15.923,0,0,1,5.506-2.935c4.983-1.6,12.055-1.915,22.586-1.915h.546m0-6.94h-.548c-11.49,0-18.831.358-24.71,2.248a23.041,23.041,0,0,0-7.145,3.662c-6.937,3.605-10.862,10.142-11.08,18.5s.012,20.642.167,23.6c.247,4.734,2.47,16.259,17.729,21,6.824,2.124,14.768,2.4,20.926,2.4,2.32,0,4.511-.043,6.631-.084h.07c1.679-.033,3.412-.067,4.893-.067h.408c4.229.018,646.7.018,653.192.018,17.005,0,24.757-.784,30.717-3.106a23.014,23.014,0,0,0,5.743-3.189c10.981-5.752,11.466-16.777,11.628-20.455.061-1.379.145-2.768.226-4.111.733-12.147.574-24.35-5.5-31.432-2.826-3.294-8.144-7.338-17.437-7.9-15.153-.911-526.172-1.062-682.432-1.087Z" fill="#fff"/>
        <path id="Path_721" data-name="Path 721" d="M443.512,861.674c23.229.005,668.9.079,685.5,1.076,5.512.33,9.747,2.177,12.584,5.486,4.816,5.616,4.342,18.172,3.84,26.482-.083,1.376-.169,2.8-.232,4.238-.228,5.184-1.414,11.5-8.462,14.886a15.9,15.9,0,0,1-4.5,2.6c-4.988,1.944-12.367,2.633-28.2,2.633-12.273,0-648.987,0-653.181-.019h-.419c-1.512,0-3.22.033-5.028.068-2.108.041-4.288.083-6.566.083-5.667,0-12.932-.236-18.865-2.082-10.693-3.325-12.646-10.662-12.859-14.74-.148-2.81-.37-14.968-.16-23.053.159-6.1,2.817-10.4,7.9-12.8a15.923,15.923,0,0,1,5.506-2.935c4.983-1.6,12.055-1.915,22.586-1.915h.546m0-5.205h-.547c-11.048,0-18.547.354-24.179,2.165a21.262,21.262,0,0,0-6.736,3.478c-6.528,3.322-10.081,9.213-10.285,17.08-.217,8.306.011,20.527.165,23.461.228,4.371,2.294,15.017,16.511,19.438,6.6,2.054,14.376,2.318,20.411,2.318,2.3,0,4.486-.042,6.6-.083l.07,0c1.687-.033,3.429-.067,4.927-.067h.411c4.23.018,646.7.018,653.189.018,16.762,0,24.354-.754,30.087-2.988a21.265,21.265,0,0,0,5.435-3.04c10.226-5.279,10.681-15.622,10.833-19.063.061-1.394.146-2.79.227-4.14.712-11.782.587-23.584-5.083-30.2-3.792-4.422-9.25-6.876-16.224-7.294-15.1-.908-526.08-1.059-682.328-1.084Z"/>
      </g>
    </g>
    <path id="Path_722" data-name="Path 722" d="M1138.131,871.031c-1.977-2.368-5-3.647-9.233-3.908-16.52-1.019-662.274-1.093-685.518-1.1h-.547c-9.828,0-16.8.291-21.178,1.737a10.641,10.641,0,0,0-4.332,2.511c-3.791,1.6-5.556,4.381-5.67,8.869-.206,8.15.011,20.486.154,23.308.257,5.04,3.423,8.566,9.412,10.48,5.332,1.7,12.15,1.922,17.493,1.922,2.234,0,4.4-.043,6.487-.084,1.835-.037,3.568-.071,5.137-.071h.432c4.159.019,641.1.019,653.4.019,15.012,0,22.2-.644,26.528-2.376a10.7,10.7,0,0,0,3.6-2.257c4.856-2.119,6-5.836,6.226-11.113.065-1.513.153-3.006.238-4.45C1141.214,886.752,1141.609,875.2,1138.131,871.031Z"/>
    <path id="Path_723" data-name="Path 723" d="M1127.727,868.937c-17.333-1.069-679.132-1.073-682.743-1.074h-.153c-19.676,0-25.952,1.209-26.162,9.5-.2,7.9.007,19.932.15,22.739.49,9.626,13.325,10.874,25.1,10.874,4.119,0,8.11-.153,11.4-.153h.429c4.133.018,640.518.018,650.944.018,26.935,0,30.8-1.942,31.232-12.1C1138.484,885.495,1140.8,869.744,1127.727,868.937Z" fill="#fff"/>
  </g>
</svg>
