<svg xmlns="http://www.w3.org/2000/svg" xmlns:xlink="http://www.w3.org/1999/xlink" width="46.589" height="42.066" viewBox="0 0 46.589 42.066">
  <defs>
    <linearGradient id="linear-gradient" x1="0.5" y1="0.039" x2="0.5" y2="1.357" gradientUnits="objectBoundingBox">
      <stop offset="0.187" stop-color="#00ffd5"/>
      <stop offset="1" stop-color="#01cb2d"/>
    </linearGradient>
  </defs>
  <g id="Group_10198" data-name="Group 10198" transform="translate(-34.107 -1309.374)">
    <g id="Group_8272" data-name="Group 8272" transform="translate(30.632 1306.187)">
      <g id="Group_8271" data-name="Group 8271">
        <g id="Group_8270" data-name="Group 8270" transform="translate(3.475 3.186)">
          <path id="Path_19382" data-name="Path 19382" d="M1796.271,1349.721a36.037,36.037,0,0,1-10.317-1.167c-6.764-2.118-7.745-7.162-7.854-9.231-.083-1.609-.192-13.318-.085-17.467a8.713,8.713,0,0,1,4.872-8.083,9.958,9.958,0,0,1,3.257-1.711c2.8-.906,6.619-1.083,12.269-1.083.176,0,3.993.047,12.581.567a10.486,10.486,0,0,1,7.7,3.452c3.133,3.677,2.627,16.483,2.4,20.319-.045.72-.088,1.452-.121,2.2-.126,2.877-.8,6.935-5.159,9.144a9.947,9.947,0,0,1-2.639,1.5c-2.81,1.1-6.81,1.494-15.286,1.494-.4,0-.743,0-1.041,0A2.322,2.322,0,0,1,1796.271,1349.721Z" transform="translate(-1776.329 -1309.317)" fill="#f7aa33"/>
          <path id="Path_19383" data-name="Path 19383" d="M1798.414,1312.66s3.836.041,12.484.564a8.928,8.928,0,0,1,6.557,2.878c2.509,2.946,2.262,14.776,2,19.134-.044.722-.088,1.468-.121,2.223-.119,2.719-.737,6.031-4.409,7.807a8.252,8.252,0,0,1-2.343,1.362c-2.6,1.019-6.444,1.381-14.692,1.381-6.394,0-.433.07-1.62.07a34.6,34.6,0,0,1-9.83-1.092c-5.571-1.744-6.589-5.592-6.7-7.73-.077-1.474-.193-13.1-.083-17.336a7.056,7.056,0,0,1,4.119-6.716,8.275,8.275,0,0,1,2.869-1.538c2.6-.84,6.281-1,11.768-1m.017-3.324h-.017c-5.812,0-9.764.19-12.769,1.163a11.629,11.629,0,0,0-3.643,1.884,10.418,10.418,0,0,0-5.628,9.449c-.108,4.178,0,15.975.087,17.6.125,2.419,1.255,8.3,9.009,10.732a37.5,37.5,0,0,0,10.8,1.24,4.057,4.057,0,0,0,.749-.068h.871c8.812,0,12.819-.406,15.879-1.606a11.671,11.671,0,0,0,2.933-1.644c5.583-2.929,5.831-8.591,5.913-10.479.033-.737.076-1.463.118-2.167.308-5.121.651-17.467-2.791-21.506a12.059,12.059,0,0,0-8.849-4.026c-8.629-.521-12.486-.567-12.646-.569Z" transform="translate(-1776.329 -1309.336)" fill="#fff"/>
          <path id="Path_19384" data-name="Path 19384" d="M1798.414,1312.653s3.836.042,12.484.564a8.928,8.928,0,0,1,6.557,2.878c2.509,2.946,2.262,14.776,2,19.134-.044.722-.088,1.469-.121,2.223-.119,2.719-.737,6.031-4.409,7.807a8.27,8.27,0,0,1-2.343,1.362c-2.6,1.019-6.444,1.381-14.692,1.381-6.394,0-.433.07-1.62.07a34.591,34.591,0,0,1-9.83-1.092c-5.571-1.744-6.589-5.592-6.7-7.73-.077-1.474-.193-13.1-.083-17.337a7.058,7.058,0,0,1,4.119-6.716,8.278,8.278,0,0,1,2.869-1.538c2.6-.84,6.281-1,11.768-1m.014-2.737h-.014c-5.754,0-9.659.186-12.592,1.134a11.058,11.058,0,0,0-3.507,1.823,9.73,9.73,0,0,0-5.361,8.968c-.108,4.168,0,15.935.086,17.552.119,2.3,1.2,7.883,8.6,10.2a36.972,36.972,0,0,0,10.629,1.214,3.517,3.517,0,0,0,.707-.068c.267,0,.569,0,.913,0,8.731,0,12.686-.395,15.67-1.565a10.994,10.994,0,0,0,2.829-1.594c5.331-2.769,5.568-8.2,5.647-10.006.032-.741.076-1.471.119-2.178.3-5.049.65-17.211-2.653-21.088a11.5,11.5,0,0,0-8.444-3.823c-8.615-.52-12.457-.567-12.617-.568Z" transform="translate(-1776.329 -1309.329)"/>
        </g>
      </g>
      <path id="Path_19385" data-name="Path 19385" d="M1815.65,1317.457a6.394,6.394,0,0,0-4.81-2.049c-8.608-.534-12.5-.575-12.5-.575-5.12,0-8.751.153-11.033.91a5.541,5.541,0,0,0-2.257,1.316,4.622,4.622,0,0,0-2.955,4.652c-.107,4.274.006,15.99.081,17.47.134,2.643,1.783,4.493,4.9,5.5a31.665,31.665,0,0,0,9.114,1.009c1.164,0-4.65-.072,1.757-.072,7.822,0,11.568-.337,13.822-1.246a5.577,5.577,0,0,0,1.874-1.184c2.53-1.111,3.126-3.061,3.244-5.829.034-.793.08-1.577.124-2.333C1817.257,1330.948,1817.463,1319.643,1815.65,1317.457Z" transform="translate(-1772.854 -1306.084)"/>
      <path id="Path_19386" data-name="Path 19386" d="M1810.229,1316.348c-9.031-.561-10.817-.563-10.843-.563-10.252,0-13.523.634-13.632,4.984-.1,4.144,0,15.7.078,17.17.255,5.049,6.943,5.7,13.077,5.7,2.147,0-2.25-.08-2.176-.079,2.153.009-2.9.009,2.533.009,14.035,0,16.047-1.019,16.273-6.349C1815.835,1330.276,1817.041,1316.771,1810.229,1316.348Z" transform="translate(-1772.854 -1306.072)" fill="url(#linear-gradient)"/>
      <g id="Group_10183" data-name="Group 10183" transform="translate(14.623 11.367)">
        <path id="Path_19387" data-name="Path 19387" d="M1804.212,1317.872c4.646-1.359,11.911.212,9.772,6.506a8.6,8.6,0,0,0-1.01-3.109,4.571,4.571,0,0,0-2.286-1.741c-2.035-.8-4.312-1.025-6.476-1.656Z" transform="translate(-1787.477 -1317.42)" fill="#fff"/>
        <path id="Path_19388" data-name="Path 19388" d="M1797.633,1340.943c-4.645,1.359-11.91-.211-9.771-6.505a8.615,8.615,0,0,0,1.01,3.11,4.575,4.575,0,0,0,2.286,1.74c2.036.805,4.312,1.026,6.475,1.656Z" transform="translate(-1787.477 -1317.217)" fill="#fff"/>
      </g>
    </g>
    <g id="Group_10199" data-name="Group 10199" transform="translate(47.939 1321.832)">
      <path id="Path_16986" data-name="Path 16986" d="M5367.739,565.023a4.764,4.764,0,0,0-1.211-1.665,19.966,19.966,0,0,0-2.043-1.7q-1.136-.831-2.271-1.515t-1.854-1.059a6.335,6.335,0,0,0-1.117-.472,3.645,3.645,0,0,0-1.078-.17,3.135,3.135,0,0,0-2.1.757,6.128,6.128,0,0,0-1.014,1.1c-.086-.053-.171-.107-.257-.159q-1.134-.681-1.854-1.059a6.366,6.366,0,0,0-1.117-.472,3.65,3.65,0,0,0-1.078-.17,3.139,3.139,0,0,0-2.1.757,6.024,6.024,0,0,0-1.418,1.739,1.688,1.688,0,0,0,.265,2.2,15.241,15.241,0,0,0,1.552,1.361q.8.607,1.665,1.172-.419.114-.757.21c-.228.064-.466.131-.719.207a4.249,4.249,0,0,0-1.589.947,2.138,2.138,0,0,0-.682,1.628,5.832,5.832,0,0,0,.926,3.178,3.431,3.431,0,0,0,3.01,1.211,9.221,9.221,0,0,0,3.479-.757c.326-.133.643-.277.951-.428a3.447,3.447,0,0,0,2.989,1.185,9.215,9.215,0,0,0,3.479-.757,13.838,13.838,0,0,0,3.33-1.912,8.591,8.591,0,0,0,2.271-2.572A3.33,3.33,0,0,0,5367.739,565.023Z" transform="translate(-5346.942 -558.074)"/>
      <g id="Group_7852" data-name="Group 7852" transform="translate(1.142)">
        <path id="Path_16987" data-name="Path 16987" d="M5365.063,563.81a15.244,15.244,0,0,1-1.552-1.361,1.688,1.688,0,0,1-.265-2.2,6.033,6.033,0,0,1,1.419-1.739,3.136,3.136,0,0,1,2.1-.757,3.644,3.644,0,0,1,1.078.17,6.382,6.382,0,0,1,1.117.473q.721.379,1.854,1.059t2.271,1.515a20.026,20.026,0,0,1,2.043,1.7,4.77,4.77,0,0,1,1.211,1.665,3.332,3.332,0,0,1-.341,2.782,8.611,8.611,0,0,1-2.27,2.573,13.867,13.867,0,0,1-3.331,1.911,9.219,9.219,0,0,1-3.48.757,3.43,3.43,0,0,1-3.01-1.211,5.836,5.836,0,0,1-.926-3.178,2.136,2.136,0,0,1,.682-1.628,4.25,4.25,0,0,1,1.589-.947c.253-.076.491-.144.719-.207s.479-.133.757-.209Q5365.856,564.416,5365.063,563.81Z" transform="translate(-5355.542 -557.756)"/>
        <path id="Path_16988" data-name="Path 16988" d="M5367.05,564.507c.316.2.643.417.983.645s.643.441.907.643.386.353.361.454a.3.3,0,0,1-.3.228,1.721,1.721,0,0,1-.624-.17,1.249,1.249,0,0,0-.965.058,5.652,5.652,0,0,1-.757.244,6.122,6.122,0,0,0-.756.246,2.079,2.079,0,0,0-.359.189,2.018,2.018,0,0,1-.361.191,1.549,1.549,0,0,0-.794,1.589q.114.53.191,1.059a4.562,4.562,0,0,0,.265,1.022,2.244,2.244,0,0,0,1.078,1.078,3.929,3.929,0,0,0,1.646.32,8.518,8.518,0,0,0,3.141-.679,12.609,12.609,0,0,0,3.065-1.741,8.9,8.9,0,0,0,2.137-2.31,2.547,2.547,0,0,0,.322-2.383,3.868,3.868,0,0,0-1.155-1.514,23.141,23.141,0,0,0-2.043-1.628q-1.114-.794-2.231-1.437c-.746-.429-1.318-.757-1.723-.983a2.6,2.6,0,0,0-.834-.359,3.544,3.544,0,0,0-.794-.095,2.578,2.578,0,0,0-1.721.624,5.1,5.1,0,0,0-1.229,1.571.955.955,0,0,0,.188,1.248q.416.416.852.776c.29.24.585.472.889.7C5366.526,564.168,5366.733,564.306,5367.05,564.507Z" transform="translate(-5356.186 -558.416)" fill="#fc3"/>
        <path id="Path_16989" data-name="Path 16989" d="M5351.181,563.81a15.3,15.3,0,0,1-1.552-1.361,1.688,1.688,0,0,1-.265-2.2,6.009,6.009,0,0,1,1.419-1.739,3.135,3.135,0,0,1,2.1-.757,3.647,3.647,0,0,1,1.078.17,6.413,6.413,0,0,1,1.117.473q.721.379,1.854,1.059t2.271,1.515a19.905,19.905,0,0,1,2.042,1.7,4.764,4.764,0,0,1,1.211,1.665,3.333,3.333,0,0,1-.341,2.782,8.611,8.611,0,0,1-2.27,2.573,13.873,13.873,0,0,1-3.33,1.911,9.219,9.219,0,0,1-3.48.757,3.429,3.429,0,0,1-3.01-1.211,5.828,5.828,0,0,1-.926-3.178,2.136,2.136,0,0,1,.682-1.628,4.242,4.242,0,0,1,1.589-.947c.252-.076.49-.144.719-.207s.478-.133.757-.209Q5351.975,564.416,5351.181,563.81Z" transform="translate(-5349.079 -557.756)"/>
        <path id="Path_16990" data-name="Path 16990" d="M5353.167,564.507c.316.2.642.417.983.645s.643.441.908.643.386.353.361.454a.3.3,0,0,1-.3.228,1.723,1.723,0,0,1-.625-.17,1.249,1.249,0,0,0-.965.058,5.669,5.669,0,0,1-.757.244,6.122,6.122,0,0,0-.756.246,2.084,2.084,0,0,0-.359.189,2.018,2.018,0,0,1-.361.191,1.55,1.55,0,0,0-.795,1.589q.114.53.191,1.059a4.615,4.615,0,0,0,.265,1.022,2.246,2.246,0,0,0,1.078,1.078,3.928,3.928,0,0,0,1.646.32,8.518,8.518,0,0,0,3.141-.679,12.609,12.609,0,0,0,3.065-1.741,8.9,8.9,0,0,0,2.138-2.31,2.548,2.548,0,0,0,.322-2.383,3.877,3.877,0,0,0-1.155-1.514,23.15,23.15,0,0,0-2.044-1.628q-1.114-.794-2.231-1.437t-1.723-.983a2.6,2.6,0,0,0-.833-.359,3.553,3.553,0,0,0-.795-.095,2.58,2.58,0,0,0-1.721.624,5.109,5.109,0,0,0-1.229,1.571.956.956,0,0,0,.189,1.248c.277.277.56.536.852.776s.585.472.889.7C5352.644,564.168,5352.851,564.306,5353.167,564.507Z" transform="translate(-5349.723 -558.416)" fill="#fc3"/>
      </g>
    </g>
  </g>
</svg>
