<svg xmlns="http://www.w3.org/2000/svg" width="93.758" height="90.452"><g id="bt1" transform="translate(-7358.539 -2320.885)"><g id="Group_1114" data-name="Group 1114"><path id="Path_2410" data-name="Path 2410" d="M7405.854 2410.337c-18.054 0-34.06-9.65-41.771-25.187a43.059 43.059 0 016.943-48.534 47.067 47.067 0 0169.4 1.088 43.294 43.294 0 01.394 56.927 45.766 45.766 0 01-34.966 15.706z"/><path id="Path_2411" data-name="Path 2411" d="M7405.185 2322.885a45.6 45.6 0 0134.485 15.476 42.307 42.307 0 01.389 55.619 44.769 44.769 0 01-34.2 15.357c-17.672 0-33.33-9.429-40.877-24.631a42.065 42.065 0 016.785-47.413 45.363 45.363 0 0133.422-14.408m0-2a47.371 47.371 0 00-34.9 15.055 44.049 44.049 0 00-7.1 49.652c7.883 15.881 24.232 25.745 42.669 25.745a46.765 46.765 0 0035.724-16.057 44.289 44.289 0 00-.4-58.231 47.619 47.619 0 00-36-16.164z" fill="#fff"/></g><g id="Group_1175" data-name="Group 1175"><g id="Group_1173" data-name="Group 1173"><path id="Path_2525" data-name="Path 2525" d="M7405.855 2393.338c-11.552 0-21.719-6.025-26.533-15.722a26.174 26.174 0 014.225-29.5 30.074 30.074 0 0144.042.736 26.417 26.417 0 01.309 34.732 28.8 28.8 0 01-22.043 9.755z" fill="#ff7b0f"/><g id="Group_1172" data-name="Group 1172"><path id="Path_2526" data-name="Path 2526" d="M7405.185 2340.885a27.586 27.586 0 0120.9 9.279 24.305 24.305 0 01.3 32.117 26.771 26.771 0 01-20.524 9.056c-9.964 0-19.971-5-24.741-14.61a24.255 24.255 0 013.905-27.258 27.284 27.284 0 0120.166-8.584m0-4a31.338 31.338 0 00-23.112 9.878 28.158 28.158 0 00-4.545 31.737c5.156 10.388 16.01 16.837 28.327 16.837a30.8 30.8 0 0023.564-10.456 28.4 28.4 0 00-.318-37.34 31.6 31.6 0 00-23.916-10.656z"/></g></g><g id="Group_1174" data-name="Group 1174" opacity=".4" style="mix-blend-mode:multiply;isolation:isolate"><path id="Path_2527" data-name="Path 2527" d="M7426.081 2350.164a26.522 26.522 0 00-2.133-2.177 24.205 24.205 0 01-5.748 18.5c-9.878 11.549-28.454 11.816-39.419 2.05a24.337 24.337 0 002.332 8.187c8.442 17.007 33.277 19.573 45.266 5.554a24.305 24.305 0 00-.298-32.114z" fill="#ff7b0f"/></g><ellipse id="Ellipse_37" data-name="Ellipse 37" cx="10.641" cy="8.505" rx="10.641" ry="8.505" transform="rotate(-30 8085.084 -12605.598)" fill="#ff521b" opacity=".7" style="mix-blend-mode:screen;isolation:isolate"/></g></g></svg>