<svg xmlns="http://www.w3.org/2000/svg" xmlns:xlink="http://www.w3.org/1999/xlink" width="275.415" height="70.172" viewBox="0 0 275.415 70.172">
  <defs>
    <linearGradient id="linear-gradient" x1="0.5" y1="0.039" x2="0.5" y2="1.357" gradientUnits="objectBoundingBox">
      <stop offset="0.187" stop-color="#00ffd5"/>
      <stop offset="1" stop-color="#01cb2d"/>
    </linearGradient>
  </defs>
  <g id="btn-lit2" transform="translate(-1214.308 -846.735)">
    <g id="Group_453" data-name="Group 453">
      <g id="Group_452" data-name="Group 452">
        <g id="Group_451" data-name="Group 451">
          <path id="Path_741" data-name="Path 741" d="M1252.6,913.746c-5.891,0-13.466-.253-19.8-2.225-12.988-4.04-14.87-13.649-15.076-17.593-.153-2.913-.378-15.049-.163-23.3.186-7.135,3.416-12.452,9.347-15.4a19.184,19.184,0,0,1,6.256-3.264c5.377-1.728,12.708-2.066,23.554-2.066h.545c19.677,0,192.72.066,209.617,1.081,6.4.384,11.376,2.6,14.794,6.584,5.2,6.061,5.28,17.39,4.595,28.729-.082,1.36-.167,2.764-.23,4.187-.241,5.481-1.537,13.212-9.9,17.423a19.153,19.153,0,0,1-5.068,2.865c-5.4,2.1-13.075,2.848-29.345,2.848-7.056,0-172.862,0-177.123-.018h-.413c-1.486,0-3.173.033-4.959.068C1257.091,913.7,1254.9,913.746,1252.6,913.746Z" fill="#fff700"/>
          <path id="Path_742" data-name="Path 742" d="M1257.259,853.056c23.229,0,192.83.079,209.427,1.075,5.512.331,9.747,2.178,12.584,5.487,4.816,5.616,4.342,18.172,3.84,26.482-.083,1.376-.169,2.8-.232,4.238-.228,5.184-1.414,11.5-8.462,14.886a15.9,15.9,0,0,1-4.5,2.6c-4.988,1.944-12.367,2.633-28.2,2.633-12.273,0-172.916,0-177.11-.019h-.418c-1.513,0-3.22.033-5.028.068-2.108.041-4.288.083-6.566.083-5.667,0-12.932-.236-18.866-2.082-10.692-3.326-12.646-10.662-12.859-14.74-.147-2.81-.37-14.969-.16-23.053.159-6.1,2.818-10.4,7.906-12.8a15.919,15.919,0,0,1,5.505-2.935c4.983-1.6,12.055-1.915,22.587-1.915h.545m0-6.321h-.547c-11.16,0-18.75.363-24.521,2.218a22.4,22.4,0,0,0-7,3.6c-6.758,3.493-10.583,9.852-10.8,17.995-.216,8.329.012,20.6.166,23.548.241,4.6,2.408,15.816,17.3,20.446,6.745,2.1,14.628,2.368,20.743,2.368,2.308,0,4.491-.042,6.6-.083l.085,0c1.684-.033,3.423-.067,4.906-.067h.408c4.295.018,170.065.018,177.12.018,16.919,0,24.613-.773,30.492-3.064a22.347,22.347,0,0,0,5.633-3.136c10.712-5.583,11.187-16.365,11.345-19.958.061-1.392.145-2.786.227-4.135.725-12,.578-24.063-5.351-30.978-4-4.659-9.717-7.244-17-7.681-16.964-1.019-190.116-1.083-209.8-1.087Z" fill="#fff"/>
          <path id="Path_743" data-name="Path 743" d="M1257.259,853.056c23.229,0,192.83.079,209.427,1.075,5.512.331,9.747,2.178,12.584,5.487,4.816,5.616,4.342,18.172,3.84,26.482-.083,1.376-.169,2.8-.232,4.238-.228,5.184-1.414,11.5-8.462,14.886a15.9,15.9,0,0,1-4.5,2.6c-4.988,1.944-12.367,2.633-28.2,2.633-12.273,0-172.916,0-177.11-.019h-.418c-1.513,0-3.22.033-5.028.068-2.108.041-4.288.083-6.566.083-5.667,0-12.932-.236-18.866-2.082-10.692-3.326-12.646-10.662-12.859-14.74-.147-2.81-.37-14.969-.16-23.053.159-6.1,2.818-10.4,7.906-12.8a15.919,15.919,0,0,1,5.505-2.935c4.983-1.6,12.055-1.915,22.587-1.915h.545m0-5.205h-.546c-11.049,0-18.547.354-24.18,2.165a21.28,21.28,0,0,0-6.736,3.477c-6.528,3.323-10.08,9.214-10.285,17.081-.216,8.3.011,20.524.165,23.461.228,4.371,2.3,15.017,16.511,19.438,6.6,2.054,14.376,2.318,20.412,2.318,2.3,0,4.48-.042,6.588-.083l.079,0c1.687-.033,3.431-.067,4.927-.067h.41c4.3.018,175.39.018,177.118.018,16.762,0,24.354-.754,30.087-2.988a21.263,21.263,0,0,0,5.435-3.04c10.226-5.279,10.681-15.622,10.833-19.063.061-1.4.146-2.8.228-4.153.711-11.769.587-23.571-5.084-30.184-3.792-4.421-9.25-6.876-16.224-7.294-16.932-1.017-190.053-1.081-209.738-1.085Z"/>
        </g>
      </g>
      <path id="Path_744" data-name="Path 744" d="M1475.807,862.413c-1.977-2.368-5-3.647-9.233-3.908-16.52-1.019-186.2-1.093-209.447-1.1h-.547c-9.827,0-16.8.291-21.178,1.737a10.655,10.655,0,0,0-4.332,2.511c-3.79,1.6-5.556,4.381-5.67,8.869-.206,8.15.011,20.486.155,23.308.256,5.04,3.423,8.566,9.411,10.48,5.333,1.7,12.15,1.922,17.493,1.922,2.234,0,4.4-.043,6.488-.084,1.834-.037,3.567-.072,5.136-.072h.433c4.158.019,165.03.019,177.329.019,15.012,0,22.2-.644,26.528-2.376a10.7,10.7,0,0,0,3.6-2.257c4.856-2.119,6-5.836,6.226-11.114.065-1.512.153-3.005.237-4.449C1478.89,878.134,1479.285,866.579,1475.807,862.413Z"/>
      <path id="Path_745" data-name="Path 745" d="M1465.4,860.319c-17.333-1.069-203.06-1.073-206.671-1.074h-.153c-19.677,0-25.953,1.209-26.163,9.5-.2,7.9.007,19.932.15,22.739.49,9.626,13.325,10.874,25.1,10.874,4.12,0,8.11-.153,11.4-.153h.429c4.134.018,164.447.018,174.873.018,26.935,0,30.8-1.942,31.232-12.1C1476.16,876.877,1478.475,861.126,1465.4,860.319Z" fill="url(#linear-gradient)"/>
    </g>
    <g id="Group_455" data-name="Group 455">
      <path id="Path_746" data-name="Path 746" d="M1463.934,879.686a9.928,9.928,0,0,0-2.519-3.461,41.754,41.754,0,0,0-4.247-3.539q-2.362-1.728-4.72-3.15t-3.855-2.2a13.233,13.233,0,0,0-2.322-.982,7.584,7.584,0,0,0-2.24-.354,6.524,6.524,0,0,0-4.367,1.575,12.848,12.848,0,0,0-2.108,2.293c-.177-.109-.355-.222-.533-.33q-2.356-1.414-3.854-2.2a13.263,13.263,0,0,0-2.322-.982,7.6,7.6,0,0,0-2.241-.354,6.519,6.519,0,0,0-4.366,1.575,12.534,12.534,0,0,0-2.95,3.615,3.51,3.51,0,0,0,.551,4.567,31.557,31.557,0,0,0,3.227,2.83q1.651,1.262,3.461,2.437-.87.237-1.575.436c-.474.132-.969.273-1.494.431a8.817,8.817,0,0,0-3.3,1.967,4.442,4.442,0,0,0-1.417,3.385,12.11,12.11,0,0,0,1.925,6.607q1.773,2.517,6.257,2.519a19.167,19.167,0,0,0,7.234-1.575c.679-.277,1.336-.575,1.977-.89,1.189,1.64,3.255,2.465,6.213,2.465a19.168,19.168,0,0,0,7.235-1.575,28.768,28.768,0,0,0,6.923-3.974,17.883,17.883,0,0,0,4.721-5.348A6.934,6.934,0,0,0,1463.934,879.686Z"/>
      <g id="Group_454" data-name="Group 454">
        <path id="Path_747" data-name="Path 747" d="M1442.867,877.826A31.657,31.657,0,0,1,1439.64,875a3.511,3.511,0,0,1-.551-4.567,12.526,12.526,0,0,1,2.95-3.616,6.521,6.521,0,0,1,4.366-1.575,7.565,7.565,0,0,1,2.241.355,13.148,13.148,0,0,1,2.322.981q1.5.787,3.854,2.2t4.721,3.15a41.622,41.622,0,0,1,4.247,3.538,9.9,9.9,0,0,1,2.518,3.462,6.925,6.925,0,0,1-.709,5.783,17.879,17.879,0,0,1-4.72,5.348,28.809,28.809,0,0,1-6.923,3.974,19.172,19.172,0,0,1-7.235,1.575q-4.488,0-6.257-2.518a12.117,12.117,0,0,1-1.925-6.608,4.441,4.441,0,0,1,1.417-3.384,8.831,8.831,0,0,1,3.3-1.968c.525-.158,1.021-.3,1.494-.431s.995-.277,1.575-.435Q1444.516,879.085,1442.867,877.826Z"/>
        <path id="Path_748" data-name="Path 748" d="M1445.658,877.9c.657.423,1.336.867,2.045,1.341s1.336.917,1.886,1.335.8.735.751.944a.619.619,0,0,1-.631.474,3.6,3.6,0,0,1-1.3-.355,2.593,2.593,0,0,0-2.006.12,11.857,11.857,0,0,1-1.575.508,12.652,12.652,0,0,0-1.571.512,4.32,4.32,0,0,0-.747.393,4.211,4.211,0,0,1-.751.4,3.222,3.222,0,0,0-1.652,3.3q.237,1.1.4,2.2a9.5,9.5,0,0,0,.551,2.125,4.662,4.662,0,0,0,2.241,2.241,8.162,8.162,0,0,0,3.423.666,17.718,17.718,0,0,0,6.53-1.413,26.215,26.215,0,0,0,6.373-3.619,18.535,18.535,0,0,0,4.443-4.8,5.3,5.3,0,0,0,.67-4.956,8.041,8.041,0,0,0-2.4-3.145,47.632,47.632,0,0,0-4.247-3.385q-2.318-1.651-4.639-2.988c-1.55-.892-2.74-1.575-3.581-2.044a5.413,5.413,0,0,0-1.733-.747,7.339,7.339,0,0,0-1.652-.2,5.355,5.355,0,0,0-3.577,1.3,10.619,10.619,0,0,0-2.557,3.265,1.988,1.988,0,0,0,.393,2.595q.864.864,1.771,1.614c.6.5,1.217.981,1.849,1.455C1444.57,877.2,1445,877.485,1445.658,877.9Z" fill="#fff700"/>
        <path id="Path_749" data-name="Path 749" d="M1427.442,877.826a31.776,31.776,0,0,1-3.227-2.829,3.51,3.51,0,0,1-.55-4.567,12.536,12.536,0,0,1,2.949-3.616,6.522,6.522,0,0,1,4.366-1.575,7.555,7.555,0,0,1,2.241.355,13.145,13.145,0,0,1,2.322.981q1.5.787,3.854,2.2t4.721,3.15a41.634,41.634,0,0,1,4.247,3.538,9.9,9.9,0,0,1,2.518,3.462,6.929,6.929,0,0,1-.708,5.783,17.884,17.884,0,0,1-4.721,5.348,28.769,28.769,0,0,1-6.923,3.974,19.167,19.167,0,0,1-7.235,1.575q-4.488,0-6.257-2.518a12.124,12.124,0,0,1-1.925-6.608,4.445,4.445,0,0,1,1.417-3.384,8.836,8.836,0,0,1,3.3-1.968c.525-.158,1.02-.3,1.494-.431s.994-.277,1.575-.435Q1429.092,879.085,1427.442,877.826Z"/>
        <path id="Path_750" data-name="Path 750" d="M1430.234,877.9c.657.423,1.335.867,2.044,1.341s1.336.917,1.887,1.335.8.735.751.944a.621.621,0,0,1-.632.474,3.593,3.593,0,0,1-1.3-.355,2.6,2.6,0,0,0-2.007.12,11.855,11.855,0,0,1-1.575.508,12.694,12.694,0,0,0-1.57.512,4.283,4.283,0,0,0-.747.393,4.249,4.249,0,0,1-.751.4,3.22,3.22,0,0,0-1.652,3.3q.237,1.1.4,2.2a9.5,9.5,0,0,0,.55,2.125,4.662,4.662,0,0,0,2.241,2.241,8.162,8.162,0,0,0,3.423.666,17.724,17.724,0,0,0,6.531-1.413,26.21,26.21,0,0,0,6.372-3.619,18.536,18.536,0,0,0,4.444-4.8,5.3,5.3,0,0,0,.67-4.956,8.041,8.041,0,0,0-2.4-3.145,47.917,47.917,0,0,0-4.247-3.385q-2.317-1.651-4.64-2.988t-3.581-2.044a5.4,5.4,0,0,0-1.733-.747,7.337,7.337,0,0,0-1.652-.2,5.359,5.359,0,0,0-3.577,1.3,10.62,10.62,0,0,0-2.556,3.265,1.988,1.988,0,0,0,.392,2.595q.865.864,1.772,1.614c.6.5,1.216.981,1.848,1.455C1429.145,877.2,1429.576,877.485,1430.234,877.9Z" fill="#fff700"/>
      </g>
    </g>
    <path id="Path_751" data-name="Path 751" d="M1453.854,863.263c8.916-2.591,22.86.4,18.754,12.4a16.338,16.338,0,0,0-1.938-5.927,8.768,8.768,0,0,0-4.387-3.318c-3.9-1.535-8.276-1.955-12.429-3.159Z" fill="#fff"/>
    <path id="Path_752" data-name="Path 752" d="M1258.064,897.754c-8.915,2.591-22.86-.4-18.754-12.4a16.337,16.337,0,0,0,1.938,5.927,8.779,8.779,0,0,0,4.387,3.319c3.906,1.535,8.276,1.955,12.429,3.158Z" fill="#fff"/>
  </g>
</svg>
