<svg xmlns="http://www.w3.org/2000/svg" xmlns:xlink="http://www.w3.org/1999/xlink" width="363.405" height="71.41" viewBox="0 0 363.405 71.41">
  <defs>
    <linearGradient id="linear-gradient" x1="0.5" y1="0.039" x2="0.5" y2="1.357" gradientUnits="objectBoundingBox">
      <stop offset="0.187" stop-color="#00ffd5"/>
      <stop offset="1" stop-color="#01cb2d"/>
    </linearGradient>
  </defs>
  <g id="btn-bg1" transform="translate(-789.26 -1021.844)">
    <g id="Group_446" data-name="Group 446">
      <g id="Group_445" data-name="Group 445">
        <g id="Group_444" data-name="Group 444">
          <path id="Path_729" data-name="Path 729" d="M828.171,1089.783c-5.913,0-13.517-.254-19.9-2.238-13.174-4.1-15.084-13.864-15.294-17.873-.152-2.914-.378-15.06-.163-23.324.189-7.247,3.467-12.65,9.489-15.656a19.476,19.476,0,0,1,6.329-3.3c5.415-1.741,12.771-2.082,23.649-2.082h.545c28.584.006,279.742.082,296.388,1.082,6.487.389,11.537,2.641,15.011,6.692,5.268,6.143,5.358,17.544,4.669,28.949-.083,1.382-.168,2.772-.23,4.182-.244,5.553-1.558,13.385-10.041,17.672a19.46,19.46,0,0,1-5.123,2.89c-5.436,2.118-13.144,2.869-29.457,2.869-26.579,0-259.795,0-263.878-.017h-.412c-1.483,0-3.167.032-4.95.068l-.212,0C832.53,1089.743,830.4,1089.783,828.171,1089.783Z" fill="#a42d6b"/>
          <path id="Path_730" data-name="Path 730" d="M832.83,1028.785c23.229,0,279.583.078,296.18,1.075,5.512.331,9.747,2.177,12.584,5.487,4.816,5.615,4.342,18.172,3.84,26.481-.083,1.376-.169,2.8-.232,4.238-.228,5.184-1.414,11.5-8.462,14.886a15.9,15.9,0,0,1-4.5,2.6c-4.988,1.944-12.367,2.633-28.2,2.633-12.273,0-259.67,0-263.863-.018h-.419c-1.512,0-3.22.033-5.028.068-2.108.041-4.288.084-6.566.084-5.666,0-12.932-.237-18.865-2.083-10.693-3.325-12.646-10.662-12.859-14.74-.148-2.81-.37-14.968-.16-23.053.159-6.1,2.817-10.4,7.906-12.8a15.891,15.891,0,0,1,5.505-2.934c4.983-1.6,12.055-1.915,22.587-1.915h.545m0-6.941h-.547c-11.491,0-18.832.359-24.711,2.248a23.051,23.051,0,0,0-7.145,3.662c-6.937,3.6-10.862,10.142-11.08,18.5s.012,20.642.167,23.6c.247,4.734,2.47,16.259,17.729,21,6.824,2.124,14.768,2.4,20.926,2.4,2.327,0,4.525-.043,6.651-.084h.05c1.681-.033,3.418-.067,4.893-.067h.41c4.3.018,261.277.018,263.872.018,17.005,0,24.756-.784,30.717-3.106a23.02,23.02,0,0,0,5.743-3.189c10.981-5.752,11.466-16.777,11.628-20.455.06-1.37.144-2.75.225-4.085.734-12.173.575-24.376-5.5-31.457-2.825-3.295-8.144-7.339-17.436-7.9-16.7-1-268-1.082-296.6-1.088Z" fill="#fff"/>
          <path id="Path_731" data-name="Path 731" d="M832.83,1028.785c23.229,0,279.583.078,296.18,1.075,5.512.331,9.747,2.177,12.584,5.487,4.816,5.615,4.342,18.172,3.84,26.481-.083,1.376-.169,2.8-.232,4.238-.228,5.184-1.414,11.5-8.462,14.886a15.9,15.9,0,0,1-4.5,2.6c-4.988,1.944-12.367,2.633-28.2,2.633-12.273,0-259.67,0-263.863-.018h-.419c-1.512,0-3.22.033-5.028.068-2.108.041-4.288.084-6.566.084-5.666,0-12.932-.237-18.865-2.083-10.693-3.325-12.646-10.662-12.859-14.74-.148-2.81-.37-14.968-.16-23.053.159-6.1,2.817-10.4,7.906-12.8a15.891,15.891,0,0,1,5.505-2.934c4.983-1.6,12.055-1.915,22.587-1.915h.545m0-5.206h-.546c-11.049,0-18.548.355-24.18,2.165a21.283,21.283,0,0,0-6.736,3.478c-6.528,3.322-10.08,9.214-10.285,17.08-.216,8.307.011,20.527.165,23.462.228,4.371,2.295,15.016,16.511,19.438,6.6,2.053,14.376,2.317,20.411,2.317,2.309,0,4.5-.043,6.613-.083l.054,0c1.691-.033,3.438-.067,4.927-.067h.411c4.311.018,261.276.018,263.871.018,16.762,0,24.354-.754,30.087-2.988a21.263,21.263,0,0,0,5.435-3.04c10.226-5.279,10.681-15.622,10.833-19.063.06-1.381.144-2.765.225-4.1l0-.05c.711-11.769.586-23.571-5.084-30.184-3.792-4.421-9.25-6.875-16.224-7.294-16.651-1-267.9-1.079-296.491-1.085Z"/>
        </g>
      </g>
      <path id="Path_732" data-name="Path 732" d="M1138.131,1038.141c-1.977-2.368-5-3.646-9.233-3.908-16.52-1.019-272.955-1.093-296.2-1.1h-.547c-9.828,0-16.8.291-21.178,1.737a10.641,10.641,0,0,0-4.332,2.511c-3.791,1.6-5.556,4.381-5.67,8.869-.206,8.15.011,20.486.155,23.308.256,5.04,3.422,8.566,9.411,10.48,5.332,1.7,12.15,1.923,17.493,1.923,2.234,0,4.4-.044,6.487-.085,1.835-.037,3.568-.071,5.137-.071h.432c4.159.018,251.784.018,264.083.018,15.012,0,22.2-.644,26.528-2.376a10.7,10.7,0,0,0,3.6-2.257c4.856-2.119,6-5.836,6.226-11.113.065-1.512.153-3.006.238-4.45C1141.214,1053.862,1141.609,1042.308,1138.131,1038.141Z"/>
      <path id="Path_733" data-name="Path 733" d="M1127.727,1036.047c-17.333-1.069-289.813-1.072-293.425-1.074h-.152c-19.677,0-25.953,1.209-26.163,9.5-.2,7.9.007,19.932.15,22.739.49,9.626,13.325,10.874,25.1,10.874,4.12,0,8.11-.153,11.4-.153h.429c4.134.018,251.2.019,261.626.019,26.935,0,30.8-1.943,31.232-12.106C1138.484,1052.6,1140.8,1036.854,1127.727,1036.047Z" fill="url(#linear-gradient)"/>
    </g>
    <g id="Group_448" data-name="Group 448">
      <path id="Path_734" data-name="Path 734" d="M1126.258,1055.415a9.922,9.922,0,0,0-2.519-3.462,41.614,41.614,0,0,0-4.247-3.538q-2.362-1.73-4.72-3.15t-3.855-2.2a13.143,13.143,0,0,0-2.322-.981,7.55,7.55,0,0,0-2.24-.355,6.523,6.523,0,0,0-4.367,1.575,12.848,12.848,0,0,0-2.108,2.293c-.177-.109-.355-.222-.533-.329q-2.357-1.416-3.854-2.2a13.174,13.174,0,0,0-2.322-.981,7.562,7.562,0,0,0-2.241-.355,6.519,6.519,0,0,0-4.366,1.575,12.533,12.533,0,0,0-2.95,3.615,3.51,3.51,0,0,0,.551,4.567,31.535,31.535,0,0,0,3.227,2.83q1.652,1.262,3.461,2.438-.87.235-1.575.435c-.474.132-.969.273-1.494.431a8.834,8.834,0,0,0-3.3,1.968,4.442,4.442,0,0,0-1.417,3.384,12.117,12.117,0,0,0,1.925,6.608q1.773,2.516,6.257,2.518a19.167,19.167,0,0,0,7.234-1.575c.679-.277,1.336-.575,1.977-.89,1.189,1.64,3.255,2.465,6.213,2.465a19.169,19.169,0,0,0,7.235-1.575,28.769,28.769,0,0,0,6.923-3.974,17.884,17.884,0,0,0,4.721-5.348A6.932,6.932,0,0,0,1126.258,1055.415Z"/>
      <g id="Group_447" data-name="Group 447">
        <path id="Path_735" data-name="Path 735" d="M1105.191,1053.555a31.672,31.672,0,0,1-3.227-2.83,3.511,3.511,0,0,1-.551-4.567,12.522,12.522,0,0,1,2.95-3.615,6.521,6.521,0,0,1,4.366-1.575,7.563,7.563,0,0,1,2.241.354,13.159,13.159,0,0,1,2.322.982q1.5.788,3.854,2.2t4.721,3.15a41.741,41.741,0,0,1,4.247,3.538,9.912,9.912,0,0,1,2.518,3.462,6.924,6.924,0,0,1-.709,5.783,17.878,17.878,0,0,1-4.72,5.348,28.805,28.805,0,0,1-6.923,3.974,19.171,19.171,0,0,1-7.235,1.575q-4.488,0-6.257-2.518a12.115,12.115,0,0,1-1.925-6.607,4.442,4.442,0,0,1,1.417-3.385,8.83,8.83,0,0,1,3.3-1.968c.525-.158,1.021-.3,1.494-.431s.995-.277,1.575-.435Q1106.84,1054.813,1105.191,1053.555Z"/>
        <path id="Path_736" data-name="Path 736" d="M1107.982,1053.631c.658.423,1.336.867,2.045,1.341s1.336.917,1.886,1.336.8.734.751.943a.619.619,0,0,1-.631.474,3.6,3.6,0,0,1-1.3-.355,2.593,2.593,0,0,0-2.006.12,11.87,11.87,0,0,1-1.575.508,12.654,12.654,0,0,0-1.571.512,4.318,4.318,0,0,0-.747.393,4.213,4.213,0,0,1-.751.4,3.222,3.222,0,0,0-1.652,3.3q.237,1.1.4,2.2a9.5,9.5,0,0,0,.551,2.125,4.662,4.662,0,0,0,2.241,2.241,8.163,8.163,0,0,0,3.423.666,17.7,17.7,0,0,0,6.53-1.413,26.2,26.2,0,0,0,6.373-3.619,18.515,18.515,0,0,0,4.443-4.8,5.3,5.3,0,0,0,.67-4.955,8.036,8.036,0,0,0-2.4-3.146,47.637,47.637,0,0,0-4.247-3.385q-2.318-1.651-4.639-2.988c-1.55-.892-2.74-1.575-3.581-2.044a5.414,5.414,0,0,0-1.733-.747,7.4,7.4,0,0,0-1.652-.2,5.359,5.359,0,0,0-3.577,1.3,10.621,10.621,0,0,0-2.557,3.265,1.988,1.988,0,0,0,.393,2.595q.864.866,1.771,1.614c.6.5,1.217.981,1.849,1.455C1106.894,1052.927,1107.325,1053.213,1107.982,1053.631Z" fill="#fc3"/>
        <path id="Path_737" data-name="Path 737" d="M1089.766,1053.555a31.79,31.79,0,0,1-3.227-2.83,3.51,3.51,0,0,1-.55-4.567,12.534,12.534,0,0,1,2.949-3.615,6.523,6.523,0,0,1,4.366-1.575,7.554,7.554,0,0,1,2.241.354,13.158,13.158,0,0,1,2.322.982q1.5.788,3.854,2.2t4.721,3.15a41.753,41.753,0,0,1,4.247,3.538,9.914,9.914,0,0,1,2.518,3.462,6.928,6.928,0,0,1-.708,5.783,17.883,17.883,0,0,1-4.721,5.348,28.765,28.765,0,0,1-6.923,3.974,19.166,19.166,0,0,1-7.235,1.575q-4.488,0-6.257-2.518a12.124,12.124,0,0,1-1.925-6.607,4.445,4.445,0,0,1,1.417-3.385,8.835,8.835,0,0,1,3.3-1.968c.525-.158,1.02-.3,1.494-.431s.994-.277,1.575-.435Q1091.416,1054.813,1089.766,1053.555Z"/>
        <path id="Path_738" data-name="Path 738" d="M1092.558,1053.631c.657.423,1.335.867,2.044,1.341s1.336.917,1.887,1.336.8.734.751.943a.621.621,0,0,1-.632.474,3.593,3.593,0,0,1-1.3-.355,2.6,2.6,0,0,0-2.007.12,11.859,11.859,0,0,1-1.575.508,12.685,12.685,0,0,0-1.57.512,4.284,4.284,0,0,0-.747.393,4.245,4.245,0,0,1-.751.4,3.22,3.22,0,0,0-1.652,3.3q.237,1.1.4,2.2a9.5,9.5,0,0,0,.55,2.125,4.662,4.662,0,0,0,2.241,2.241,8.163,8.163,0,0,0,3.423.666,17.7,17.7,0,0,0,6.531-1.413,26.21,26.21,0,0,0,6.372-3.619,18.537,18.537,0,0,0,4.444-4.8,5.3,5.3,0,0,0,.67-4.955,8.035,8.035,0,0,0-2.4-3.146,47.955,47.955,0,0,0-4.247-3.385q-2.318-1.651-4.64-2.988t-3.581-2.044a5.4,5.4,0,0,0-1.733-.747,7.394,7.394,0,0,0-1.652-.2,5.363,5.363,0,0,0-3.577,1.3,10.62,10.62,0,0,0-2.556,3.265,1.988,1.988,0,0,0,.392,2.595q.866.866,1.772,1.614c.6.5,1.216.981,1.848,1.455C1091.469,1052.927,1091.9,1053.213,1092.558,1053.631Z" fill="#fc3"/>
      </g>
    </g>
    <path id="Path_739" data-name="Path 739" d="M1116.178,1038.992c8.915-2.592,22.861.4,18.754,12.4a16.355,16.355,0,0,0-1.937-5.928,8.781,8.781,0,0,0-4.388-3.318c-3.905-1.535-8.276-1.955-12.429-3.158Z" fill="#fff"/>
    <path id="Path_740" data-name="Path 740" d="M833.635,1073.482c-8.915,2.591-22.861-.4-18.754-12.4a16.334,16.334,0,0,0,1.938,5.927,8.77,8.77,0,0,0,4.387,3.319c3.906,1.535,8.276,1.955,12.429,3.158Z" fill="#fff"/>
  </g>
</svg>
