<svg xmlns="http://www.w3.org/2000/svg" width="52" height="40.889"><g id="Group_600" data-name="Group 600" transform="translate(.5 .5)"><path id="Path_994" data-name="Path 994" d="M7859.271 53.795a8.551 8.551 0 002.147-5.661 8.659 8.659 0 00-8.675-8.623h-33.65a8.659 8.659 0 00-8.675 8.623 8.547 8.547 0 002.148 5.661 8.532 8.532 0 000 11.322 8.545 8.545 0 00-2.148 5.661 8.659 8.659 0 008.675 8.622h33.65a8.659 8.659 0 008.675-8.622 8.549 8.549 0 00-2.147-5.661 8.537 8.537 0 000-11.322z" transform="translate(-7810.418 -39.511)" fill="#fff"/><path id="Path_995" data-name="Path 995" d="M7859.271 53.795a8.551 8.551 0 002.147-5.661 8.659 8.659 0 00-8.675-8.623h-33.65a8.659 8.659 0 00-8.675 8.623 8.547 8.547 0 002.148 5.661 8.532 8.532 0 000 11.322 8.545 8.545 0 00-2.148 5.661 8.659 8.659 0 008.675 8.622h33.65a8.659 8.659 0 008.675-8.622 8.549 8.549 0 00-2.147-5.661 8.537 8.537 0 000-11.322z" transform="translate(-7810.418 -39.511)" fill="none"/><path id="Path_996" data-name="Path 996" d="M48.853 14.284A8.551 8.551 0 0051 8.623 8.659 8.659 0 0042.325 0H8.675A8.659 8.659 0 000 8.623a8.547 8.547 0 002.148 5.661 8.532 8.532 0 000 11.322A8.545 8.545 0 000 31.267a8.659 8.659 0 008.675 8.622h33.65A8.659 8.659 0 0051 31.267a8.549 8.549 0 00-2.147-5.661 8.537 8.537 0 000-11.322z" fill="none" stroke="#000" stroke-miterlimit="10" stroke-width="1"/></g></svg>