<svg xmlns="http://www.w3.org/2000/svg" width="275.414" height="77.239"><defs><linearGradient id="linear-gradient" x1=".5" y1=".039" x2=".5" y2="1.357" gradientUnits="objectBoundingBox"><stop offset=".187" stop-color="#00ffd5"/><stop offset="1" stop-color="#01cb2d"/></linearGradient></defs><g id="Group_7395" data-name="Group 7395" transform="translate(-6489.754 -2379.107)"><g id="Group_1331" data-name="Group 1331"><g id="Group_1330" data-name="Group 1330"><g id="Group_1327" data-name="Group 1327"><g id="Group_1326" data-name="Group 1326"><g id="Group_1325" data-name="Group 1325"><path id="Path_3002" data-name="Path 3002" d="M6528.046 2453.186c-5.891 0-13.465-.253-19.8-2.226-12.99-4.04-14.871-13.649-15.077-17.593-.152-2.917-.377-15.055-.162-23.3.185-7.135 3.415-12.452 9.347-15.4a19.179 19.179 0 016.255-3.264c5.375-1.727 12.707-2.066 23.554-2.066h.546c19.669 0 192.651.062 209.616 1.08 6.4.385 11.377 2.6 14.794 6.585 5.2 6.062 5.28 17.39 4.6 28.729a259.749 259.749 0 00-.231 4.187c-.241 5.481-1.537 13.213-9.9 17.424a19.147 19.147 0 01-5.067 2.863c-5.4 2.1-13.078 2.85-29.347 2.85-28.876 0-173.125 0-177.123-.019h-.411c-1.487 0-3.172.033-4.956.069-2.138.038-4.338.081-6.638.081z" fill="#f7aa33"/><path id="Path_3003" data-name="Path 3003" d="M6532.705 2392.5c23.229 0 192.829.078 209.427 1.075 5.512.331 9.746 2.177 12.584 5.487 4.815 5.615 4.342 18.171 3.84 26.481-.084 1.377-.17 2.8-.233 4.239-.228 5.183-1.413 11.5-8.461 14.885a15.916 15.916 0 01-4.5 2.6c-4.989 1.944-12.367 2.633-28.2 2.633-12.273 0-172.916 0-177.109-.018h-.419c-1.512 0-3.22.033-5.028.068-2.108.041-4.288.084-6.566.084-5.667 0-12.932-.237-18.865-2.083-10.693-3.325-12.646-10.662-12.86-14.74-.147-2.81-.369-14.968-.159-23.053.159-6.1 2.817-10.4 7.9-12.8a15.908 15.908 0 015.506-2.934c4.983-1.6 12.055-1.915 22.587-1.915h.545m0-6.322h-.546c-11.16 0-18.75.363-24.522 2.219a22.4 22.4 0 00-7 3.6c-6.76 3.493-10.584 9.852-10.8 18-.217 8.332.011 20.6.166 23.548.24 4.6 2.407 15.815 17.294 20.446 6.745 2.1 14.629 2.367 20.743 2.367 2.3 0 4.477-.042 6.581-.082h.107c1.6-.031 3.406-.067 4.906-.067h.408c4.32.018 175.393.018 177.12.018 16.919 0 24.613-.773 30.493-3.064a22.341 22.341 0 005.633-3.136c10.71-5.583 11.186-16.364 11.344-19.957.061-1.379.144-2.763.225-4.1.728-12.037.581-24.1-5.349-31.011-4-4.66-9.717-7.245-17-7.682-16.956-1.019-190.115-1.083-209.8-1.087z" fill="#fff"/><path id="Path_3004" data-name="Path 3004" d="M6532.705 2392.5c23.229 0 192.829.078 209.427 1.075 5.512.331 9.746 2.177 12.584 5.487 4.815 5.615 4.342 18.171 3.84 26.481-.084 1.377-.17 2.8-.233 4.239-.228 5.183-1.413 11.5-8.461 14.885a15.916 15.916 0 01-4.5 2.6c-4.989 1.944-12.367 2.633-28.2 2.633-12.273 0-172.916 0-177.109-.018h-.419c-1.512 0-3.22.033-5.028.068-2.108.041-4.288.084-6.566.084-5.667 0-12.932-.237-18.865-2.083-10.693-3.325-12.646-10.662-12.86-14.74-.147-2.81-.369-14.968-.159-23.053.159-6.1 2.817-10.4 7.9-12.8a15.908 15.908 0 015.506-2.934c4.983-1.6 12.055-1.915 22.587-1.915h.545m0-5.205h-.546c-11.049 0-18.548.354-24.18 2.164a21.3 21.3 0 00-6.736 3.477c-6.528 3.323-10.081 9.215-10.285 17.082-.217 8.3.011 20.525.164 23.46.229 4.371 2.295 15.017 16.512 19.439 6.6 2.054 14.376 2.317 20.411 2.317 2.288 0 4.457-.042 6.556-.082h.11c1.682-.033 3.419-.068 4.928-.068h.409c4.316.018 175.392.018 177.119.018 16.762 0 24.354-.754 30.088-2.988a21.248 21.248 0 005.434-3.04c10.226-5.278 10.682-15.622 10.833-19.062.061-1.385.145-2.771.226-4.111.713-11.812.589-23.614-5.082-30.227-3.792-4.421-9.25-6.876-16.223-7.294-16.926-1.017-190.053-1.081-209.738-1.084z"/></g></g><path id="Path_3005" data-name="Path 3005" d="M6751.252 2401.852c-1.976-2.368-5-3.646-9.233-3.908-16.519-1.019-186.2-1.093-209.446-1.1h-.547c-9.828 0-16.8.291-21.178 1.737a10.639 10.639 0 00-4.332 2.511c-3.791 1.6-5.556 4.381-5.67 8.869-.207 8.15.011 20.486.154 23.308.257 5.04 3.423 8.566 9.412 10.48 5.332 1.7 12.149 1.923 17.493 1.923 2.234 0 4.4-.044 6.487-.085 1.835-.037 3.568-.071 5.136-.071h.433c4.159.018 165.031.018 177.33.018 15.011 0 22.2-.644 26.527-2.376a10.7 10.7 0 003.6-2.257c4.855-2.119 6-5.836 6.225-11.113.065-1.512.153-3.006.238-4.45.455-7.765.849-19.319-2.629-23.486z"/><path id="Path_3006" data-name="Path 3006" d="M6740.848 2399.758c-17.333-1.069-203.06-1.072-206.671-1.074h-.153c-19.676 0-25.952 1.209-26.162 9.5-.2 7.9.007 19.932.15 22.739.49 9.626 13.325 10.874 25.1 10.874 4.119 0 8.109-.153 11.4-.153h.428c4.134.018 164.447.019 174.873.019 26.936 0 30.8-1.943 31.233-12.106.56-13.241 2.875-28.992-10.198-29.799z" fill="url(#linear-gradient)"/></g><g id="Group_1329" data-name="Group 1329"><path id="Path_3007" data-name="Path 3007" d="M6739.379 2419.126a9.9 9.9 0 00-2.518-3.462 41.588 41.588 0 00-4.247-3.538q-2.362-1.73-4.721-3.15t-3.854-2.2a13.146 13.146 0 00-2.322-.981 7.559 7.559 0 00-2.241-.355 6.521 6.521 0 00-4.366 1.575 12.837 12.837 0 00-2.108 2.294c-.178-.11-.356-.223-.534-.33q-2.355-1.416-3.854-2.2a13.126 13.126 0 00-2.322-.981 7.555 7.555 0 00-2.241-.355 6.522 6.522 0 00-4.366 1.575 12.532 12.532 0 00-2.949 3.616 3.51 3.51 0 00.55 4.567 31.748 31.748 0 003.227 2.829q1.651 1.262 3.462 2.438-.872.235-1.575.435c-.474.132-.969.273-1.494.431a8.839 8.839 0 00-3.3 1.968 4.441 4.441 0 00-1.417 3.384 12.127 12.127 0 001.925 6.608q1.773 2.516 6.257 2.518a19.165 19.165 0 007.235-1.575 31.708 31.708 0 001.977-.89c1.189 1.64 3.255 2.465 6.213 2.465a19.169 19.169 0 007.235-1.575 28.818 28.818 0 006.923-3.974 17.9 17.9 0 004.72-5.348 6.924 6.924 0 00.705-5.789z"/><g id="Group_1328" data-name="Group 1328"><path id="Path_3008" data-name="Path 3008" d="M6718.312 2417.266a31.794 31.794 0 01-3.227-2.83 3.511 3.511 0 01-.55-4.567 12.535 12.535 0 012.949-3.615 6.524 6.524 0 014.367-1.575 7.554 7.554 0 012.24.354 13.17 13.17 0 012.322.982q1.5.788 3.855 2.2t4.72 3.15a41.715 41.715 0 014.247 3.538 9.911 9.911 0 012.518 3.462 6.928 6.928 0 01-.708 5.783 17.9 17.9 0 01-4.721 5.349 28.794 28.794 0 01-6.923 3.973 19.166 19.166 0 01-7.235 1.575q-4.488 0-6.257-2.518a12.119 12.119 0 01-1.925-6.607 4.446 4.446 0 011.417-3.385 8.842 8.842 0 013.3-1.968c.525-.158 1.02-.3 1.494-.431s.994-.277 1.575-.435q-1.808-1.175-3.458-2.435z"/><path id="Path_3009" data-name="Path 3009" d="M6721.1 2417.343c.657.422 1.336.866 2.044 1.34s1.336.917 1.887 1.336.8.734.751.943a.621.621 0 01-.632.474 3.613 3.613 0 01-1.3-.354 2.588 2.588 0 00-2.006.119 11.85 11.85 0 01-1.575.508 12.664 12.664 0 00-1.571.512 4.268 4.268 0 00-.747.393 4.232 4.232 0 01-.751.4 3.22 3.22 0 00-1.652 3.3q.237 1.1.4 2.2a9.5 9.5 0 00.55 2.125 4.662 4.662 0 002.241 2.241 8.163 8.163 0 003.423.666 17.7 17.7 0 006.531-1.413 26.172 26.172 0 006.372-3.619 18.525 18.525 0 004.444-4.8 5.3 5.3 0 00.67-4.955 8.035 8.035 0 00-2.4-3.146 47.89 47.89 0 00-4.247-3.385q-2.318-1.652-4.64-2.988t-3.581-2.044a5.4 5.4 0 00-1.733-.747 7.4 7.4 0 00-1.652-.2 5.358 5.358 0 00-3.576 1.3 10.611 10.611 0 00-2.557 3.265 1.987 1.987 0 00.393 2.595q.864.866 1.771 1.614c.6.5 1.216.982 1.848 1.455.21.16.641.446 1.295.865z" fill="#fc3"/><path id="Path_3010" data-name="Path 3010" d="M6702.888 2417.266a31.689 31.689 0 01-3.227-2.83 3.51 3.51 0 01-.551-4.567 12.545 12.545 0 012.949-3.615 6.526 6.526 0 014.367-1.575 7.566 7.566 0 012.241.354 13.182 13.182 0 012.322.982q1.5.788 3.854 2.2t4.721 3.15a41.715 41.715 0 014.247 3.538 9.917 9.917 0 012.518 3.462 6.928 6.928 0 01-.709 5.783 17.9 17.9 0 01-4.72 5.349 28.816 28.816 0 01-6.924 3.973 19.165 19.165 0 01-7.234 1.575q-4.488 0-6.257-2.518a12.107 12.107 0 01-1.925-6.607 4.441 4.441 0 011.417-3.385 8.829 8.829 0 013.3-1.968c.525-.158 1.02-.3 1.494-.431l1.575-.435q-1.809-1.175-3.458-2.435z"/><path id="Path_3011" data-name="Path 3011" d="M6705.679 2417.343c.657.422 1.336.866 2.044 1.34s1.336.917 1.887 1.336.8.734.751.943a.619.619 0 01-.631.474 3.619 3.619 0 01-1.3-.354 2.589 2.589 0 00-2.006.119 11.844 11.844 0 01-1.575.508 12.7 12.7 0 00-1.571.512 4.316 4.316 0 00-.747.393 4.232 4.232 0 01-.751.4 3.222 3.222 0 00-1.652 3.3q.237 1.1.4 2.2a9.5 9.5 0 00.551 2.125 4.663 4.663 0 002.241 2.241 8.164 8.164 0 003.423.666 17.7 17.7 0 006.53-1.413 26.215 26.215 0 006.373-3.619 18.535 18.535 0 004.443-4.8 5.293 5.293 0 00.67-4.955 8.033 8.033 0 00-2.4-3.146 47.758 47.758 0 00-4.247-3.385q-2.317-1.652-4.639-2.988t-3.582-2.044a5.4 5.4 0 00-1.732-.747 7.406 7.406 0 00-1.652-.2 5.36 5.36 0 00-3.577 1.3 10.617 10.617 0 00-2.557 3.265 1.988 1.988 0 00.393 2.595q.864.866 1.771 1.614c.6.5 1.217.982 1.848 1.455.206.16.637.446 1.294.865z" fill="#fc3"/></g></g><path id="Path_3012" data-name="Path 3012" d="M6729.3 2402.7c8.915-2.591 22.86.4 18.753 12.4a16.328 16.328 0 00-1.937-5.928 8.781 8.781 0 00-4.388-3.318c-3.9-1.535-8.276-1.955-12.428-3.158z" fill="#fff"/><path id="Path_3013" data-name="Path 3013" d="M6533.509 2437.193c-8.915 2.591-22.859-.4-18.753-12.4a16.371 16.371 0 001.937 5.928 8.781 8.781 0 004.388 3.318c3.9 1.535 8.276 1.955 12.428 3.158z" fill="#fff"/></g></g><g id="Group_1336" data-name="Group 1336"><g id="Group_1333" data-name="Group 1333"><g id="Group_1332" data-name="Group 1332"><path id="Path_3014" data-name="Path 3014" d="M6693.745 2388.092c0 5.058 1.792 9.159 4 9.159s4-4.1 4-9.159-1.792-6.461-4-6.461-4 1.403-4 6.461z" fill="#f9ecc9"/><path id="Path_3015" data-name="Path 3015" d="M6693.745 2388.092c0 5.058 1.792 9.159 4 9.159s4-4.1 4-9.159-1.792-6.461-4-6.461-4 1.403-4 6.461z" fill="none" stroke="#fff" stroke-miterlimit="10" stroke-width="4"/><path id="Path_3016" data-name="Path 3016" d="M6693.745 2388.092c0 5.058 1.792 9.159 4 9.159s4-4.1 4-9.159-1.792-6.461-4-6.461-4 1.403-4 6.461z" fill="none" stroke="#000" stroke-miterlimit="10" stroke-width="2"/></g><path id="Path_3017" data-name="Path 3017" d="M6688.807 2390.085c0 6.159 2 11.152 4.47 11.152s4.471-4.993 4.471-11.152-2-8.454-4.471-8.454-4.47 2.295-4.47 8.454z" fill="#f9ecc9" stroke="#000" stroke-miterlimit="10" stroke-width="2"/><path id="Path_3018" data-name="Path 3018" d="M6683.468 2391.739c0 7.072 2 12.806 4.471 12.806s4.47-5.734 4.47-12.806-2-10.108-4.47-10.108-4.471 3.036-4.471 10.108z" fill="#f9ecc9" stroke="#000" stroke-miterlimit="10" stroke-width="2"/><path id="Path_3019" data-name="Path 3019" d="M6677.227 2390.085c0 6.159 2 11.152 4.471 11.152s4.47-4.993 4.47-11.152-2-8.454-4.47-8.454-4.471 2.295-4.471 8.454z" fill="#f9ecc9" stroke="#000" stroke-miterlimit="10" stroke-width="2"/><path id="Path_3020" data-name="Path 3020" d="M6660.709 2388.411c.627 2.3 3.637 3.485 6.724 2.644s5.081-3.388 4.455-5.689-3.363-2.477-6.45-1.636-5.356 2.38-4.729 4.681z" fill="#f9ecc9" stroke="#000" stroke-miterlimit="10" stroke-width="2"/></g><g id="Group_1335" data-name="Group 1335"><g id="Group_1334" data-name="Group 1334"><path id="Path_3021" data-name="Path 3021" d="M6560.779 2387.568c0 5.058-1.792 9.159-4 9.159s-4-4.1-4-9.159 1.792-6.461 4-6.461 4 1.403 4 6.461z" fill="#f9ecc9"/><path id="Path_3022" data-name="Path 3022" d="M6560.779 2387.568c0 5.058-1.792 9.159-4 9.159s-4-4.1-4-9.159 1.792-6.461 4-6.461 4 1.403 4 6.461z" fill="none" stroke="#fff" stroke-miterlimit="10" stroke-width="4"/><path id="Path_3023" data-name="Path 3023" d="M6560.779 2387.568c0 5.058-1.792 9.159-4 9.159s-4-4.1-4-9.159 1.792-6.461 4-6.461 4 1.403 4 6.461z" fill="none" stroke="#000" stroke-miterlimit="10" stroke-width="2"/></g><path id="Path_3024" data-name="Path 3024" d="M6565.717 2389.561c0 6.159-2 11.152-4.47 11.152s-4.47-4.993-4.47-11.152 2-8.454 4.47-8.454 4.47 2.293 4.47 8.454z" fill="#f9ecc9" stroke="#000" stroke-miterlimit="10" stroke-width="2"/><path id="Path_3025" data-name="Path 3025" d="M6571.056 2391.215c0 7.072-2 12.806-4.471 12.806s-4.47-5.734-4.47-12.806 2-10.108 4.47-10.108 4.471 3.036 4.471 10.108z" fill="#f9ecc9" stroke="#000" stroke-miterlimit="10" stroke-width="2"/><path id="Path_3026" data-name="Path 3026" d="M6577.3 2389.561c0 6.159-2 11.152-4.471 11.152s-4.47-4.993-4.47-11.152 2-8.454 4.47-8.454 4.471 2.293 4.471 8.454z" fill="#f9ecc9" stroke="#000" stroke-miterlimit="10" stroke-width="2"/><path id="Path_3027" data-name="Path 3027" d="M6593.815 2387.887c-.626 2.3-3.637 3.485-6.724 2.644s-5.081-3.388-4.454-5.689 3.362-2.477 6.449-1.636 5.356 2.38 4.729 4.681z" fill="#f9ecc9" stroke="#000" stroke-miterlimit="10" stroke-width="2"/></g></g></g></svg>