<svg xmlns="http://www.w3.org/2000/svg" width="287.244" height="213.154"><defs><clipPath id="clip-path"><path id="Path_2803" data-name="Path 2803" d="M7433.464 3040.984q1.094 2.217 2.044 4.467l.6 1.436c.292.72.572 1.446.84 2.173a84.464 84.464 0 015.262 26.67q.083 2.407.023 4.8-.033 1.632-.134 3.258a85.617 85.617 0 01-15.881 44.565v.007a84.527 84.527 0 01-14.3 15.406v.008a85.267 85.267 0 01-17.114 11.156q-2.392 1.179-4.825 2.193c0 .006-.007 0-.007 0s-.009.009-.015.007a.007.007 0 01-.011 0 .007.007 0 01-.008 0 84.5 84.5 0 01-38.636 6.371h-.009a85.452 85.452 0 01-30.139-7.8q-3.731-1.742-7.287-3.84-2.478-1.458-4.854-3.085a24.766 24.766 0 01-.513-.356q-1.712-1.188-3.367-2.468a84.413 84.413 0 01-19.767-21.683c-.4-.63-.8-1.263-1.177-1.907q-1-1.664-1.926-3.388a82.196 82.196 0 01-1.406-2.73 86.3 86.3 0 01-3.453-8 81.475 81.475 0 01-.679-1.884 84.535 84.535 0 01-4.232-36.216c.066-.688.142-1.371.232-2.056.133-1.112.3-2.22.479-3.324q.4-2.436.947-4.837c.131-.61.277-1.219.426-1.829q.956-3.827 2.255-7.551a85.5 85.5 0 016.662-14.535 84.2 84.2 0 019.084-12.825q2.01-2.355 4.21-4.564l.017-.022a84.823 84.823 0 0122.722-16.314 85.96 85.96 0 0112.253-4.916c2.221-.7 4.461-1.3 6.705-1.8a83.431 83.431 0 0111.867-1.807 86.06 86.06 0 012.474-.165q.66-.033 1.321-.052c.356-.016.711-.023 1.067-.03a86.16 86.16 0 014.067 0q3.6.094 7.16.484 3.138.348 6.241.937 4.009.744 7.938 1.868 3.611 1.029 7.112 2.38c.69.265 1.378.544 2.064.829q3.936 1.632 7.711 3.658c.613.33 1.224.665 1.831 1.011.259.146.515.3.771.448.5.287.993.583 1.482.883a84.767 84.767 0 0114.955 11.607c.81.792 1.606 1.6 2.387 2.424q2.274 2.4 4.372 4.991a79.174 79.174 0 012.82 3.7q1.895 2.611 3.592 5.4 2.005 3.318 3.747 6.847z" fill="#ff4b19"/></clipPath><clipPath id="clip-path-2"><path id="Rectangle_91" data-name="Rectangle 91" transform="rotate(-26.23 10349.332 -13940.153)" fill="none" d="M0 0h288.309v64.831H0z"/></clipPath></defs><g id="Group_1263" data-name="Group 1263" transform="translate(-7227.529 -2983.558)"><g id="Group_1261" data-name="Group 1261"><g id="Group_1246" data-name="Group 1246"><path id="Path_2759" data-name="Path 2759" d="M7357.234 3172.558a94.426 94.426 0 01-67.516-28.568 217.92 217.92 0 01-12.742 2.959c-4.878.972-9.309 1.652-13.546 2.078-2.157.2-5.018.439-8.1.439a53.938 53.938 0 01-6.347-.356 34.881 34.881 0 01-3.913-.689 24.352 24.352 0 01-4.094-1.338 17.31 17.31 0 01-4.244-2.557 13.6 13.6 0 01-3.533-4.434 9.995 9.995 0 01-.243-.565l-.2-.465a19.783 19.783 0 01-.53-1.664c-.122-.592-.2-.995-.262-1.4a34.294 34.294 0 01-.122-1.331 17.386 17.386 0 01.546-4.977 24.157 24.157 0 011.444-4.1 33.394 33.394 0 011.828-3.506 67.4 67.4 0 018.843-11.4c2.933-3.118 6.171-6.221 9.9-9.494 3.115-2.728 6.367-5.4 9.931-8.173a94.025 94.025 0 0151.284-98.59 92.942 92.942 0 0141.448-9.734 94.472 94.472 0 0167.963 29.014l.206-.056a164.77 164.77 0 0128.372-5.178 76.546 76.546 0 015.814-.232c1.928 0 3.775.085 5.492.252a29.167 29.167 0 019.215 2.292 15.736 15.736 0 015.878 4.425c.285.385.494.674.673.928a7.239 7.239 0 01.388.633l.116.2c.167.307.252.463.274.5l.068.095-.006.026.4.9c.046.107.089.2.176.458.123.354.26.782.4 1.274a15.791 15.791 0 01-.057 7.435 28.933 28.933 0 01-3.775 8.663 65.971 65.971 0 01-6.876 9 165.08 165.08 0 01-21.371 19.36l-.348.266a93.978 93.978 0 01-51.378 97.879 92.962 92.962 0 01-41.456 9.731zm-102.2-44.2a3.431 3.431 0 00.858.088 21.88 21.88 0 003.979-.582 42.381 42.381 0 011.71-.331c3.419-.564 7.2-1.388 11.243-2.447a132.82 132.82 0 002.4-.66 91.02 91.02 0 01-2.265-4.266 94.664 94.664 0 01-3.747-8.716c-.974.96-1.9 1.9-2.777 2.8-3.291 3.38-5.809 6.184-7.929 8.825a64.378 64.378 0 00-3.232 4.388 1.453 1.453 0 00-.242.9zm180.994-100.632a94.4 94.4 0 015.324 9.371 91.175 91.175 0 012.483 5.519c1.554-1.138 3-2.232 4.3-3.26a110.628 110.628 0 008.428-7.313c.419-.4.871-.812 1.334-1.234a23.913 23.913 0 003.122-3.177 1.685 1.685 0 00-.754-1.344 6.411 6.411 0 00-2.553-.338c-.606 0-1.22.024-1.785.047s-1.063.041-1.5.042a104.459 104.459 0 00-11.446.755c-2.159.239-4.489.552-6.955.931z"/><path id="Path_2760" data-name="Path 2760" d="M7357.068 2985.832a93.32 93.32 0 0167.6 29.152c.284-.075.574-.157.856-.231a163.752 163.752 0 0128.168-5.144 75.494 75.494 0 015.733-.229c1.891 0 3.688.082 5.377.246a28.1 28.1 0 018.848 2.193 14.571 14.571 0 015.461 4.1c.258.349.462.631.637.879.137.2.238.377.327.535l.125.214c.177.33.273.5.277.505l.4.9c.034.079.069.158.141.369.119.34.248.745.376 1.209a14.584 14.584 0 01-.067 6.866 27.925 27.925 0 01-3.639 8.335 64.975 64.975 0 01-6.753 8.834 164.124 164.124 0 01-21.223 19.221c-.286.222-.585.446-.874.669a92.8 92.8 0 01-158.763 78.268c-.106.028-.213.058-.319.085a217.58 217.58 0 01-13 3.03c-4.857.968-9.252 1.641-13.438 2.062-2.41.229-5.1.432-7.982.432a53.436 53.436 0 01-6.215-.348 33.762 33.762 0 01-3.781-.665 23.259 23.259 0 01-3.913-1.279 16.159 16.159 0 01-3.961-2.384 12.458 12.458 0 01-3.24-4.062 3.252 3.252 0 01-.2-.472l-.223-.511a19.638 19.638 0 01-.474-1.5c-.1-.5-.177-.89-.237-1.278a34.41 34.41 0 01-.112-1.243 16.226 16.226 0 01.515-4.618 23.108 23.108 0 011.374-3.9 32.736 32.736 0 011.77-3.4 66.327 66.327 0 018.7-11.211c2.907-3.088 6.116-6.166 9.818-9.413 3.23-2.828 6.6-5.6 10.318-8.472l.092-.071a92.9 92.9 0 0191.5-107.672m86.258 58.558a163.919 163.919 0 005.51-4.142 111.865 111.865 0 008.516-7.39c.411-.394.859-.8 1.32-1.22a24.556 24.556 0 003.264-3.34 1.224 1.224 0 00.229-.72 2.811 2.811 0 00-1.382-2.3 7.352 7.352 0 00-3.074-.466c-.621 0-1.251.025-1.832.048-.527.021-1.024.04-1.459.041a105.777 105.777 0 00-11.575.763c-2.768.309-5.7.722-8.735 1.213a94.216 94.216 0 016.222 10.722c1.1 2.234 2.083 4.5 3 6.792m-187.436 85.193a22.988 22.988 0 004.221-.608c.6-.125 1.162-.24 1.652-.32 3.455-.571 7.273-1.4 11.347-2.47 1.248-.327 2.535-.7 3.814-1.063a94.848 94.848 0 01-2.951-5.467 94.345 94.345 0 01-4.3-10.258 176.653 176.653 0 00-4.061 4.059c-3.31 3.4-5.851 6.228-8 8.9a65.917 65.917 0 00-3.291 4.467 2.424 2.424 0 00-.344 1.986.967.967 0 00.7.627 4.441 4.441 0 001.216.143m101.178-146.025a95.181 95.181 0 00-89.9 64.534 95.212 95.212 0 00-4.061 44.438 223.88 223.88 0 00-9.454 7.8c-3.755 3.295-7.018 6.423-9.976 9.566a68.529 68.529 0 00-9 11.606 34.688 34.688 0 00-1.892 3.63 25.472 25.472 0 00-1.5 4.269 18.583 18.583 0 00-.584 5.271v.077c.031.422.068.844.12 1.322v.051l.008.051c.065.419.147.84.255 1.378l.013.066.017.065c.126.479.289 1 .528 1.675l.028.079.033.077.183.419c.051.138.126.311.255.595l.014.031.015.03a14.757 14.757 0 003.831 4.811 18.419 18.419 0 004.5 2.718 25.56 25.56 0 004.315 1.41 35.624 35.624 0 004.016.707 55.515 55.515 0 006.485.363c3.138 0 6.029-.236 8.2-.442 4.286-.431 8.753-1.116 13.667-2.095a218.748 218.748 0 0012.168-2.807 95.572 95.572 0 0067.869 28.437 95.19 95.19 0 0089.9-64.533 95.284 95.284 0 004.15-43.722 165.786 165.786 0 0021.347-19.363 67.316 67.316 0 006.987-9.146 30.14 30.14 0 003.928-9.04 16.715 16.715 0 00.052-7.929 23 23 0 00-.433-1.4c-.1-.3-.153-.412-.2-.528l-.4-.9-.073-.165-.065-.1-.219-.4-.018-.033-.018-.032-.125-.215c-.1-.184-.235-.412-.421-.683s-.41-.574-.68-.94l-.021-.028-.022-.028a16.948 16.948 0 00-6.321-4.767 30.305 30.305 0 00-9.536-2.376 58 58 0 00-5.616-.26c-1.878 0-3.865.08-5.907.236a164.814 164.814 0 00-28.134 5.1 95.616 95.616 0 00-68.318-28.881zm80.852 45.034c1.823-.264 3.555-.488 5.175-.668a103.476 103.476 0 0111.334-.749c.456 0 .981-.021 1.539-.043a43.702 43.702 0 011.741-.046 6.135 6.135 0 012 .2.64.64 0 01.068.08 29.17 29.17 0 01-2.622 2.576c-.492.447-.954.868-1.379 1.275a109.55 109.55 0 01-8.352 7.247c-.966.761-2 1.557-3.106 2.378a88.349 88.349 0 00-1.95-4.249 95.14 95.14 0 00-4.45-8zm-181.133 98.659a67.167 67.167 0 012.6-3.47c2.1-2.613 4.591-5.391 7.851-8.739q.739-.765 1.529-1.559c.981 2.5 2.04 4.9 3.163 7.178a82.349 82.349 0 001.591 3.057 70.85 70.85 0 01-.99.266c-4 1.05-7.752 1.867-11.142 2.427-.548.089-1.183.22-1.742.336-.9.186-1.955.4-2.863.5z" fill="#fff"/></g><g id="Group_1256" data-name="Group 1256"><path id="Path_2761" data-name="Path 2761" d="M7433.464 3040.984q1.094 2.217 2.044 4.467l.6 1.436c.292.72.572 1.446.84 2.173a84.464 84.464 0 015.262 26.67q.083 2.407.023 4.8-.033 1.632-.134 3.258a85.617 85.617 0 01-15.881 44.565v.007a84.527 84.527 0 01-14.3 15.406v.008a85.267 85.267 0 01-17.114 11.156q-2.392 1.179-4.825 2.193c0 .006-.007 0-.007 0s-.009.009-.015.007a.007.007 0 01-.011 0 .007.007 0 01-.008 0 84.5 84.5 0 01-38.636 6.371h-.009a85.452 85.452 0 01-30.139-7.8q-3.731-1.742-7.287-3.84-2.478-1.458-4.854-3.085a24.766 24.766 0 01-.513-.356q-1.712-1.188-3.367-2.468a84.413 84.413 0 01-19.767-21.683c-.4-.63-.8-1.263-1.177-1.907q-1-1.664-1.926-3.388a82.196 82.196 0 01-1.406-2.73 86.3 86.3 0 01-3.453-8 81.475 81.475 0 01-.679-1.884 84.535 84.535 0 01-4.232-36.216c.066-.688.142-1.371.232-2.056.133-1.112.3-2.22.479-3.324q.4-2.436.947-4.837c.131-.61.277-1.219.426-1.829q.956-3.827 2.255-7.551a85.5 85.5 0 016.662-14.535 84.2 84.2 0 019.084-12.825q2.01-2.355 4.21-4.564l.017-.022a84.823 84.823 0 0122.722-16.314 85.96 85.96 0 0112.253-4.916c2.221-.7 4.461-1.3 6.705-1.8a83.431 83.431 0 0111.867-1.807 86.06 86.06 0 012.474-.165q.66-.033 1.321-.052c.356-.016.711-.023 1.067-.03a86.16 86.16 0 014.067 0q3.6.094 7.16.484 3.138.348 6.241.937 4.009.744 7.938 1.868 3.611 1.029 7.112 2.38c.69.265 1.378.544 2.064.829q3.936 1.632 7.711 3.658c.613.33 1.224.665 1.831 1.011.259.146.515.3.771.448.5.287.993.583 1.482.883a84.767 84.767 0 0114.955 11.607c.81.792 1.606 1.6 2.387 2.424q2.274 2.4 4.372 4.991a79.174 79.174 0 012.82 3.7q1.895 2.611 3.592 5.4 2.005 3.318 3.747 6.847z" fill="#ff4b19"/><g id="Group_1255" data-name="Group 1255" clip-path="url(#clip-path)"><g id="Group_1250" data-name="Group 1250"><g id="Group_1247" data-name="Group 1247" fill="#f14617"><path id="Path_2762" data-name="Path 2762" d="M4329.549 3030.838l.212.318c.139-.132.277-.268.41-.4-.204.026-.414.052-.622.082z"/><path id="Path_2763" data-name="Path 2763" d="M4323.156 3124.127c-7.394 4.857-15.584 9.815-24.449 14.77-4.436 2.465-9.028 4.962-13.794 7.4s-9.708 4.811-14.841 6.989a140.114 140.114 0 01-16 5.725 104.136 104.136 0 01-12.731 2.833q4.036.867 8.154 1.339c1.795-.344 3.581-.716 5.352-1.1q8.583-1.889 16.819-4.3c5.484-1.6 10.819-3.4 15.965-5.374a161.287 161.287 0 0014.77-6.544 149.247 149.247 0 0013.308-7.588 130.176 130.176 0 0010.837-7.7 85.208 85.208 0 009.5-15.554q-1.207.938-2.468 1.863c-3.229 2.414-6.731 4.806-10.422 7.241z"/><path id="Path_2764" data-name="Path 2764" d="M4321.835 3090.439c-3.486 2.2-7.211 4.408-11.112 6.686s-7.987 4.595-12.22 7c-4.242 2.379-8.638 4.834-13.187 7.309s-9.235 5.015-14.063 7.551-9.808 5.061-14.957 7.464a158.6 158.6 0 01-32.961 11.6q-4.357.969-8.795 1.574a94.476 94.476 0 01-4.441.462c-.36.028-.717.049-1.077.068-1.124.063-2.245.1-3.363.1a47.132 47.132 0 01-3.731-.152c-.629-.049-1.25-.12-1.866-.207a77.553 77.553 0 004.189 3.781 67.402 67.402 0 003.119-.203c2.57-.218 5.1-.571 7.6-.992 3.022-.5 6.006-1.125 8.958-1.786 5.9-1.352 11.683-2.948 17.374-4.591s11.282-3.4 16.759-5.22 10.819-3.768 15.988-5.826 10.144-4.277 14.9-6.631a184.114 184.114 0 0025.679-15.29c3.775-2.7 7.275-5.457 10.514-8.183s6.2-5.445 8.911-8.069a132.355 132.355 0 0010.146-10.957 78.14 78.14 0 00-.125-2.639 84.486 84.486 0 01-12.493 10.65c-2.981 2.156-6.242 4.323-9.746 6.501z"/><path id="Path_2765" data-name="Path 2765" d="M4336.749 3046.643q-2.111 1.777-4.67 3.64c-1.184.862-2.439 1.74-3.76 2.619a157.824 157.824 0 01-7.664 4.808c-3.245 1.928-6.75 3.9-10.48 5.91-3.718 2.03-7.66 4.1-11.758 6.269q-5.065 2.675-10.464 5.538-7.7 4.084-15.991 8.52l-14.433 7.751c-4.927 2.649-9.99 5.319-15.194 7.932q-4.51 2.265-9.181 4.415a205.334 205.334 0 01-23.936 9.319q-1.805.57-3.63 1.1a124.348 124.348 0 01-12.965 3.121c-.4.075-.8.144-1.2.211a60.679 60.679 0 01-7.409.8c.071.134.141.267.215.4q.891 1.655 1.846 3.255.666-.1 1.326-.218a73.58 73.58 0 002.451-.468c.743-.153 1.481-.316 2.217-.484 2.965-.69 5.886-1.471 8.775-2.3 3.1-.893 6.164-1.849 9.2-2.83 4.892-1.586 9.718-3.252 14.492-4.911l2.843-.993q8.555-3 16.846-6.032a467.436 467.436 0 0016.161-6.266l1.071-.447q7.285-3.041 14.084-6.328 5.625-2.727 10.873-5.595a231.75 231.75 0 0015.634-9.308 234.385 234.385 0 0011.13-7.727 305.563 305.563 0 009.671-7.476c3.781-3.074 7.185-5.972 10.176-8.666.729-.651 1.435-1.294 2.11-1.927.927-.858 1.8-1.69 2.634-2.5.163-.157.321-.317.477-.471l-.161-.408c-.138-.345-.28-.689-.43-1.029-.29.254-.594.513-.906.776z"/><path id="Path_2766" data-name="Path 2766" d="M4185.526 3107.239a128.128 128.128 0 0018.321-3.889q2.04-.578 4.058-1.184c4.551-1.366 9.02-2.862 13.423-4.415q8.551-3.031 16.713-6.4 2.127-.873 4.215-1.77a355.369 355.369 0 0026.452-12.58 379.631 379.631 0 007-3.788 254.951 254.951 0 006.34-3.591c.127-.076.251-.147.374-.221 4.374-2.544 8.51-5.157 12.416-7.756s7.552-5.217 10.969-7.767l.509-.387c3.212-2.43 6.2-4.8 8.979-7.084a171.776 171.776 0 0014.367-13.121c.3-.317.594-.63.882-.94.018-.018.031-.038.05-.056-.024.007-.05.011-.073.018-.25-.386-.5-.771-.758-1.15q-.609.594-1.274 1.2c-.207.189-.42.375-.636.564a112.115 112.115 0 01-14.86 10.74c-6.324 3.956-13.723 8.019-21.825 12.334q-3.007 1.607-6.147 3.255-3.2 1.674-6.519 3.406-3.288 1.7-6.693 3.456c-2.272 1.166-4.6 2.31-6.947 3.486-9.419 4.651-19.421 9.421-29.885 14.055q-1.887.834-3.8 1.664c-9.3 4.028-18.967 7.887-28.893 11.115-2.163.7-4.341 1.386-6.522 2.025-3.494 1.028-7 1.952-10.49 2.683-1.736.361-3.478.674-5.173.878a33.35 33.35 0 01-2.724.221q.288 1 .6 1.987.558 1.752 1.192 3.5a56.612 56.612 0 004.665-.295c.568-.062 1.13-.132 1.694-.193z"/><path id="Path_2767" data-name="Path 2767" d="M4212.767 3027.38c8.654-4.856 17.217-9.252 25.414-13.264 2.054-.99 4.076-1.978 6.083-2.914s3.994-1.842 5.942-2.74c3.913-1.766 7.7-3.469 11.351-5.049s7.175-3.079 10.553-4.418a184.422 184.422 0 017.713-2.9q-4.052-1.023-8.194-1.642c-3.744.928-7.68 2.038-11.759 3.345a191.665 191.665 0 00-12.06 4.33c-2.066.81-4.148 1.686-6.253 2.589s-4.241 1.828-6.386 2.818a272.3 272.3 0 00-26.3 13.789 259.851 259.851 0 00-13.224 8.423c-3.8 2.588-7.571 5.3-11.255 8.185a85.692 85.692 0 00-5.481 12.311c2.6-2.289 5.406-4.481 8.252-6.594a242.377 242.377 0 0125.604-16.269z"/><path id="Path_2768" data-name="Path 2768" d="M4180.812 3068.846a118.206 118.206 0 0015.665-3.225c5.128-1.366 10.165-2.918 15.137-4.5.177-.055.353-.114.53-.17q7.181-2.3 14.143-4.78c4.8-1.71 9.506-3.507 14.07-5.381l1.053-.437q6.276-2.639 12.14-5.524l.245-.121q6.207-3.069 11.857-6.345 5.744-3.344 10.839-6.815c3.388-2.3 6.543-4.628 9.461-6.917.225-.179.448-.353.67-.531q3.981-3.171 7.381-6.191a115.886 115.886 0 0010.958-10.989q-.558-.359-1.125-.705a80.451 80.451 0 01-11.99 9.579c-2.669 1.817-5.582 3.654-8.7 5.521s-6.426 3.779-9.887 5.75q-4.758 2.7-9.911 5.534l-.94.518q-5.638 3.116-11.69 6.371c-4.029 2.156-8.177 4.384-12.453 6.611a368.4 368.4 0 01-13.22 6.616 163.148 163.148 0 01-28.829 10.792 81.277 81.277 0 01-15.069 2.618 30.313 30.313 0 01-6.154-.179 66.47 66.47 0 00-.425 3.233 30 30 0 002.225-.006 45.407 45.407 0 004.019-.327z"/></g><g id="Group_1248" data-name="Group 1248" fill="#ff6229"><path id="Path_2769" data-name="Path 2769" d="M4327.562 3127.087a84.521 84.521 0 01-14.3 15.406l-.006.008q-5.373 3.749-10.82 7.092-5.535 3.378-11.118 6.257a.006.006 0 01-.008 0c0 .007-.009.009-.014.007a.008.008 0 01-.011 0c0 .006-.007 0-.007 0a84.5 84.5 0 01-38.635 6.371c.86-.293 1.725-.587 2.6-.891 8.951-3.119 18.506-6.85 28.5-11.153 4.989-2.165 10.109-4.441 15.282-6.906s10.421-5.117 15.622-8.06c4.366-2.463 8.701-5.161 12.915-8.131z"/><path id="Path_2770" data-name="Path 2770" d="M4343.558 3074.45q.083 2.407.024 4.8-1.088 1.061-2.189 2.089c-2.394 2.244-4.873 4.372-7.361 6.454-5 4.135-10.123 8.008-15.235 11.776s-10.249 7.374-15.367 10.844-10.257 6.742-15.38 9.8c-5.126 3.038-10.25 5.834-15.352 8.341a197.465 197.465 0 01-29.747 11.863 181.979 181.979 0 01-13.816 3.6 197.42 197.42 0 01-12.671 2.317q-3.438.5-6.63.829-1.712-1.188-3.368-2.468a109.551 109.551 0 009.1-2.385q5.665-1.7 11.882-4.047c4.141-1.533 8.451-3.259 12.932-5.087s9.114-3.795 13.919-5.825c4.793-2.055 9.745-4.193 14.819-6.445s10.285-4.582 15.587-7.034 10.7-5.037 16.1-7.848a169.982 169.982 0 0031.353-20.462q3.667-3.071 7.076-6.451a110.014 110.014 0 003.289-3.472c.256-.291.51-.579.759-.875a6.14 6.14 0 00.276-.314z"/><path id="Path_2771" data-name="Path 2771" d="M4336.858 3044.171l.6 1.436c.292.72.572 1.446.84 2.173l-.165.136a189.176 189.176 0 01-7.683 5.959 332.46 332.46 0 01-8.405 5.978c-4.541 3.127-9.106 6.142-13.627 9.118l-2.7 1.769q-8.125 5.317-16.114 10.39a503.097 503.097 0 01-15.868 9.655c-.358.2-.715.412-1.077.618q-7.335 4.21-14.567 7.849-5.988 3-11.846 5.593c-6.2 2.753-12.26 5.16-18.109 7.222a242.545 242.545 0 01-10.669 3.49c-1.065.321-2.117.63-3.158.935a329.355 329.355 0 01-12.664 3.345c-5.082 1.211-9.766 2.216-14.006 3-.316.06-.628.119-.939.172-.4-.63-.8-1.263-1.176-1.907.363-.1.734-.207 1.106-.318 1.507-.448 3.069-.941 4.681-1.491 2.872-.971 5.911-2.1 9.086-3.381 3.756-1.5 7.719-3.194 11.856-5.057 4.155-1.836 8.481-3.842 13-5.908q5.579-2.561 11.535-5.285 8.493-3.882 17.67-8.038 7.8-3.519 16-7.216c5.468-2.465 11.039-5.026 16.652-7.75q4.869-2.353 9.744-4.924a221.086 221.086 0 0023.533-14.273q1.656-1.164 3.3-2.366a132.923 132.923 0 0011.108-8.989c.324-.292.643-.586.964-.885.372-.347.74-.695 1.098-1.05z"/><path id="Path_2772" data-name="Path 2772" d="M4331.055 3032.887c-.141.147-.284.29-.425.437a136.952 136.952 0 01-15.257 13.041q-1.818 1.36-3.653 2.679c-4.128 2.978-8.315 5.8-12.506 8.533q-8.153 5.291-16.343 10.036-2.124 1.237-4.254 2.43a379.614 379.614 0 01-27.944 14.283 401.293 401.293 0 01-7.786 3.482 273.006 273.006 0 01-7.185 3.048c-.15.056-.293.117-.433.173a259.643 259.643 0 01-28.449 9.76c-.219.063-.443.124-.661.181a295.884 295.884 0 01-11.881 3.014c-5.725 1.31-10.933 2.319-15.54 3.009a77.057 77.057 0 01-.679-1.884 132.428 132.428 0 0015.384-4.874c7.487-2.8 15.768-6.436 24.721-10.511q3.325-1.51 6.775-3.106 3.508-1.627 7.147-3.32l7.305-3.435c2.473-1.17 4.964-2.408 7.5-3.634 10.1-4.976 20.672-10.369 31.438-16.244q1.939-1.059 3.9-2.144c9.486-5.279 19.073-10.981 28.288-17.318q3.018-2.068 5.979-4.222c3.153-2.3 6.222-4.679 9.117-7.171q.943-.813 1.859-1.644 1.886 2.614 3.583 5.401z"/><path id="Path_2773" data-name="Path 2773" d="M4274.019 2993.684a263.482 263.482 0 00-29.05 10.723c-9.774 4.189-19.1 8.6-27.853 12.957-2.182 1.1-4.341 2.177-6.444 3.269s-4.174 2.195-6.206 3.266c-4.051 2.176-7.967 4.285-11.695 6.36q-4.122 2.292-7.943 4.5a84.2 84.2 0 019.084-12.825 189.507 189.507 0 016.73-4.2c2.037-1.227 4.142-2.425 6.281-3.63s4.32-2.413 6.559-3.59a292.244 292.244 0 0128.874-13.365q6.418-2.559 13.125-4.855c.355-.016.711-.023 1.067-.03 1.36-.035 2.713-.03 4.066 0q3.6.093 7.159.483 3.144.348 6.246.937z"/><path id="Path_2774" data-name="Path 2774" d="M4301.447 3003.881c-.125.134-.255.266-.385.4a127.057 127.057 0 01-12.956 11.215c-4.509 3.47-9.112 6.741-13.7 9.935-.165.117-.33.226-.491.342a516.972 516.972 0 01-13.29 8.906q-6.88 4.458-13.749 8.455c-.352.2-.705.407-1.06.609a230.038 230.038 0 01-12.614 6.718l-.26.128a221.899 221.899 0 01-13.126 5.947q-6.594 2.7-12.862 4.771c-4.171 1.38-8.2 2.545-12.054 3.531-.3.075-.593.152-.889.225-3.528.877-6.9 1.624-10.077 2.238-3.628.685-7.01 1.221-10.111 1.59.066-.687.143-1.37.232-2.055 2.94-.7 6.124-1.616 9.489-2.748 3.285-1.084 6.746-2.364 10.367-3.8 3.626-1.415 7.406-3 11.34-4.656 3.6-1.52 7.324-3.136 11.165-4.817.351-.155.7-.306 1.055-.461q6.328-2.767 13.042-5.787c4.46-2.019 9.058-4.091 13.742-6.274a388.86 388.86 0 0013.939-6.771c.1-.051.2-.1.306-.155a174.428 174.428 0 0027.975-17.474 87.242 87.242 0 0012.057-11.1c.1-.12.207-.243.31-.367.613.33 1.224.665 1.831 1.011.261.142.518.293.774.444z"/></g><g id="Group_1249" data-name="Group 1249" fill="#f14617"><path id="Path_2775" data-name="Path 2775" d="M4329.549 3030.838l.212.318c.139-.132.277-.268.41-.4-.204.026-.414.052-.622.082z"/><path id="Path_2776" data-name="Path 2776" d="M4323.156 3124.127c-7.394 4.857-15.584 9.815-24.449 14.77-4.436 2.465-9.028 4.962-13.794 7.4s-9.708 4.811-14.841 6.989a140.114 140.114 0 01-16 5.725 104.136 104.136 0 01-12.731 2.833q4.036.867 8.154 1.339c1.795-.344 3.581-.716 5.352-1.1q8.583-1.889 16.819-4.3c5.484-1.6 10.819-3.4 15.965-5.374a161.287 161.287 0 0014.77-6.544 149.247 149.247 0 0013.308-7.588 130.176 130.176 0 0010.837-7.7 85.208 85.208 0 009.5-15.554q-1.207.938-2.468 1.863c-3.229 2.414-6.731 4.806-10.422 7.241z"/><path id="Path_2777" data-name="Path 2777" d="M4321.835 3090.439c-3.486 2.2-7.211 4.408-11.112 6.686s-7.987 4.595-12.22 7c-4.242 2.379-8.638 4.834-13.187 7.309s-9.235 5.015-14.063 7.551-9.808 5.061-14.957 7.464a158.6 158.6 0 01-32.961 11.6q-4.357.969-8.795 1.574a94.476 94.476 0 01-4.441.462c-.36.028-.717.049-1.077.068-1.124.063-2.245.1-3.363.1a47.132 47.132 0 01-3.731-.152c-.629-.049-1.25-.12-1.866-.207a77.553 77.553 0 004.189 3.781 67.402 67.402 0 003.119-.203c2.57-.218 5.1-.571 7.6-.992 3.022-.5 6.006-1.125 8.958-1.786 5.9-1.352 11.683-2.948 17.374-4.591s11.282-3.4 16.759-5.22 10.819-3.768 15.988-5.826 10.144-4.277 14.9-6.631a184.114 184.114 0 0025.679-15.29c3.775-2.7 7.275-5.457 10.514-8.183s6.2-5.445 8.911-8.069a132.355 132.355 0 0010.146-10.957 78.14 78.14 0 00-.125-2.639 84.486 84.486 0 01-12.493 10.65c-2.981 2.156-6.242 4.323-9.746 6.501z"/><path id="Path_2778" data-name="Path 2778" d="M4336.749 3046.643q-2.111 1.777-4.67 3.64c-1.184.862-2.439 1.74-3.76 2.619a157.824 157.824 0 01-7.664 4.808c-3.245 1.928-6.75 3.9-10.48 5.91-3.718 2.03-7.66 4.1-11.758 6.269q-5.065 2.675-10.464 5.538-7.7 4.084-15.991 8.52l-14.433 7.751c-4.927 2.649-9.99 5.319-15.194 7.932q-4.51 2.265-9.181 4.415a205.334 205.334 0 01-23.936 9.319q-1.805.57-3.63 1.1a124.348 124.348 0 01-12.965 3.121c-.4.075-.8.144-1.2.211a60.679 60.679 0 01-7.409.8c.071.134.141.267.215.4q.891 1.655 1.846 3.255.666-.1 1.326-.218a73.58 73.58 0 002.451-.468c.743-.153 1.481-.316 2.217-.484 2.965-.69 5.886-1.471 8.775-2.3 3.1-.893 6.164-1.849 9.2-2.83 4.892-1.586 9.718-3.252 14.492-4.911l2.843-.993q8.555-3 16.846-6.032a467.436 467.436 0 0016.161-6.266l1.071-.447q7.285-3.041 14.084-6.328 5.625-2.727 10.873-5.595a231.75 231.75 0 0015.634-9.308 234.385 234.385 0 0011.13-7.727 305.563 305.563 0 009.671-7.476c3.781-3.074 7.185-5.972 10.176-8.666.729-.651 1.435-1.294 2.11-1.927.927-.858 1.8-1.69 2.634-2.5.163-.157.321-.317.477-.471l-.161-.408c-.138-.345-.28-.689-.43-1.029-.29.254-.594.513-.906.776z"/><path id="Path_2779" data-name="Path 2779" d="M4185.526 3107.239a128.128 128.128 0 0018.321-3.889q2.04-.578 4.058-1.184c4.551-1.366 9.02-2.862 13.423-4.415q8.551-3.031 16.713-6.4 2.127-.873 4.215-1.77a355.369 355.369 0 0026.452-12.58 379.631 379.631 0 007-3.788 254.951 254.951 0 006.34-3.591c.127-.076.251-.147.374-.221 4.374-2.544 8.51-5.157 12.416-7.756s7.552-5.217 10.969-7.767l.509-.387c3.212-2.43 6.2-4.8 8.979-7.084a171.776 171.776 0 0014.367-13.121c.3-.317.594-.63.882-.94.018-.018.031-.038.05-.056-.024.007-.05.011-.073.018-.25-.386-.5-.771-.758-1.15q-.609.594-1.274 1.2c-.207.189-.42.375-.636.564a112.115 112.115 0 01-14.86 10.74c-6.324 3.956-13.723 8.019-21.825 12.334q-3.007 1.607-6.147 3.255-3.2 1.674-6.519 3.406-3.288 1.7-6.693 3.456c-2.272 1.166-4.6 2.31-6.947 3.486-9.419 4.651-19.421 9.421-29.885 14.055q-1.887.834-3.8 1.664c-9.3 4.028-18.967 7.887-28.893 11.115-2.163.7-4.341 1.386-6.522 2.025-3.494 1.028-7 1.952-10.49 2.683-1.736.361-3.478.674-5.173.878a33.35 33.35 0 01-2.724.221q.288 1 .6 1.987.558 1.752 1.192 3.5a56.612 56.612 0 004.665-.295c.568-.062 1.13-.132 1.694-.193z"/><path id="Path_2780" data-name="Path 2780" d="M4212.767 3027.38c8.654-4.856 17.217-9.252 25.414-13.264 2.054-.99 4.076-1.978 6.083-2.914s3.994-1.842 5.942-2.74c3.913-1.766 7.7-3.469 11.351-5.049s7.175-3.079 10.553-4.418a184.422 184.422 0 017.713-2.9q-4.052-1.023-8.194-1.642c-3.744.928-7.68 2.038-11.759 3.345a191.665 191.665 0 00-12.06 4.33c-2.066.81-4.148 1.686-6.253 2.589s-4.241 1.828-6.386 2.818a272.3 272.3 0 00-26.3 13.789 259.851 259.851 0 00-13.224 8.423c-3.8 2.588-7.571 5.3-11.255 8.185a85.692 85.692 0 00-5.481 12.311c2.6-2.289 5.406-4.481 8.252-6.594a242.377 242.377 0 0125.604-16.269z"/><path id="Path_2781" data-name="Path 2781" d="M4180.812 3068.846a118.206 118.206 0 0015.665-3.225c5.128-1.366 10.165-2.918 15.137-4.5.177-.055.353-.114.53-.17q7.181-2.3 14.143-4.78c4.8-1.71 9.506-3.507 14.07-5.381l1.053-.437q6.276-2.639 12.14-5.524l.245-.121q6.207-3.069 11.857-6.345 5.744-3.344 10.839-6.815c3.388-2.3 6.543-4.628 9.461-6.917.225-.179.448-.353.67-.531q3.981-3.171 7.381-6.191a115.886 115.886 0 0010.958-10.989q-.558-.359-1.125-.705a80.451 80.451 0 01-11.99 9.579c-2.669 1.817-5.582 3.654-8.7 5.521s-6.426 3.779-9.887 5.75q-4.758 2.7-9.911 5.534l-.94.518q-5.638 3.116-11.69 6.371c-4.029 2.156-8.177 4.384-12.453 6.611a368.4 368.4 0 01-13.22 6.616 163.148 163.148 0 01-28.829 10.792 81.277 81.277 0 01-15.069 2.618 30.313 30.313 0 01-6.154-.179 66.47 66.47 0 00-.425 3.233 30 30 0 002.225-.006 45.407 45.407 0 004.019-.327z"/></g></g><g id="Group_1254" data-name="Group 1254"><g id="Group_1251" data-name="Group 1251" fill="#f14617"><path id="Path_2782" data-name="Path 2782" d="M7427.568 3030.838l.212.318c.139-.132.276-.268.41-.4-.204.026-.414.052-.622.082z"/><path id="Path_2783" data-name="Path 2783" d="M7421.175 3124.127c-7.4 4.857-15.584 9.815-24.449 14.77-4.436 2.465-9.029 4.962-13.794 7.4s-9.709 4.811-14.841 6.989a140.114 140.114 0 01-16 5.725 104.124 104.124 0 01-12.731 2.833q4.037.867 8.154 1.339c1.795-.344 3.58-.716 5.352-1.1q8.583-1.889 16.819-4.3c5.484-1.6 10.819-3.4 15.965-5.374a161.287 161.287 0 0014.77-6.544 149.316 149.316 0 0013.308-7.588 130 130 0 0010.836-7.7 85.24 85.24 0 009.5-15.554q-1.208.938-2.468 1.863c-3.228 2.414-6.73 4.806-10.421 7.241z"/><path id="Path_2784" data-name="Path 2784" d="M7419.854 3090.439c-3.486 2.2-7.211 4.408-11.112 6.686s-7.987 4.595-12.22 7c-4.242 2.379-8.638 4.834-13.187 7.309s-9.235 5.015-14.063 7.551-9.808 5.061-14.957 7.464a158.609 158.609 0 01-32.961 11.6q-4.357.969-8.795 1.574a94.38 94.38 0 01-4.442.462 43.14 43.14 0 01-1.076.068c-1.124.063-2.245.1-3.363.1-1.25-.007-2.5-.047-3.731-.152-.629-.049-1.25-.12-1.866-.207a78.443 78.443 0 004.188 3.781 65.042 65.042 0 003.115-.203c2.57-.218 5.1-.571 7.6-.992 3.023-.5 6.007-1.125 8.959-1.786 5.9-1.352 11.682-2.948 17.374-4.591s11.282-3.4 16.759-5.22 10.819-3.768 15.988-5.826 10.144-4.277 14.9-6.631a184.022 184.022 0 0025.678-15.29c3.776-2.7 7.276-5.457 10.515-8.183s6.2-5.445 8.91-8.069a132.283 132.283 0 0010.147-10.957 78.14 78.14 0 00-.125-2.639 84.479 84.479 0 01-12.493 10.65c-2.978 2.156-6.238 4.323-9.742 6.501z"/><path id="Path_2785" data-name="Path 2785" d="M7434.768 3046.643q-2.111 1.777-4.67 3.64a109.7 109.7 0 01-3.76 2.619 157.824 157.824 0 01-7.664 4.808 290.772 290.772 0 01-10.48 5.91c-3.719 2.03-7.66 4.1-11.759 6.269q-5.064 2.675-10.463 5.538-7.7 4.084-15.991 8.52l-14.433 7.751c-4.927 2.649-9.99 5.319-15.194 7.932q-4.51 2.265-9.181 4.415a205.334 205.334 0 01-23.936 9.319q-1.805.57-3.63 1.1a124.348 124.348 0 01-12.965 3.121c-.4.075-.8.144-1.2.211a60.731 60.731 0 01-7.409.8c.071.134.141.267.215.4a82.927 82.927 0 001.846 3.255q.667-.1 1.325-.218c.822-.141 1.64-.3 2.452-.468.743-.153 1.481-.316 2.217-.484 2.965-.69 5.886-1.471 8.775-2.3 3.1-.893 6.164-1.849 9.2-2.83 4.892-1.586 9.718-3.252 14.492-4.911l2.843-.993q8.555-3 16.846-6.032a468.227 468.227 0 0016.161-6.266l1.071-.447a271.365 271.365 0 0014.084-6.328q5.625-2.727 10.872-5.595a231.253 231.253 0 0015.634-9.308 234.441 234.441 0 0011.131-7.727 306.715 306.715 0 009.671-7.476c3.781-3.074 7.185-5.972 10.176-8.666.729-.651 1.435-1.294 2.11-1.927.927-.858 1.8-1.69 2.634-2.5.163-.157.321-.317.476-.471a31.893 31.893 0 00-.59-1.437c-.29.254-.594.513-.906.776z"/><path id="Path_2786" data-name="Path 2786" d="M7283.545 3107.239a128.128 128.128 0 0018.321-3.889q2.04-.578 4.058-1.184c4.551-1.366 9.02-2.862 13.423-4.415q8.551-3.031 16.713-6.4 2.127-.873 4.215-1.77a355.369 355.369 0 0026.452-12.58 382.908 382.908 0 007-3.788 254.951 254.951 0 006.34-3.591c.126-.076.251-.147.373-.221 4.375-2.544 8.511-5.157 12.416-7.756s7.553-5.217 10.97-7.767l.509-.387c3.212-2.43 6.2-4.8 8.978-7.084a171.884 171.884 0 0014.368-13.121c.3-.317.594-.63.882-.94.018-.018.031-.038.049-.056-.023.007-.049.011-.073.018a60 60 0 00-.757-1.15q-.609.594-1.274 1.2c-.208.189-.42.375-.636.564a112.156 112.156 0 01-14.86 10.74c-6.324 3.956-13.723 8.019-21.825 12.334q-3.007 1.607-6.148 3.255-3.2 1.674-6.518 3.406-3.289 1.7-6.693 3.456c-2.272 1.166-4.6 2.31-6.947 3.486-9.42 4.651-19.421 9.421-29.885 14.055q-1.887.834-3.8 1.664c-9.3 4.028-18.968 7.887-28.893 11.115-2.163.7-4.341 1.386-6.522 2.025-3.494 1.028-7 1.952-10.49 2.683-1.736.361-3.478.674-5.173.878-.924.11-1.839.189-2.724.221q.286 1 .6 1.987.556 1.752 1.192 3.5a56.612 56.612 0 004.665-.295c.563-.062 1.13-.132 1.694-.193z"/><path id="Path_2787" data-name="Path 2787" d="M7310.786 3027.38c8.654-4.856 17.217-9.252 25.414-13.264 2.054-.99 4.076-1.978 6.083-2.914s3.993-1.842 5.942-2.74c3.913-1.766 7.7-3.469 11.351-5.049s7.175-3.079 10.552-4.418a184.977 184.977 0 017.714-2.9q-4.051-1.023-8.194-1.642c-3.744.928-7.68 2.038-11.759 3.345a191.665 191.665 0 00-12.06 4.33c-2.066.81-4.148 1.686-6.253 2.589s-4.241 1.828-6.386 2.818a272.3 272.3 0 00-26.3 13.789 259.851 259.851 0 00-13.224 8.423c-3.8 2.588-7.571 5.3-11.255 8.185a85.584 85.584 0 00-5.481 12.311c2.6-2.289 5.406-4.481 8.252-6.594a242.277 242.277 0 0125.604-16.269z"/><path id="Path_2788" data-name="Path 2788" d="M7278.831 3068.846a118.206 118.206 0 0015.665-3.225c5.128-1.366 10.164-2.918 15.137-4.5.177-.055.353-.114.53-.17q7.179-2.3 14.143-4.78c4.8-1.71 9.506-3.507 14.07-5.381l1.053-.437q6.275-2.639 12.14-5.524l.245-.121q6.207-3.069 11.857-6.345 5.744-3.344 10.839-6.815c3.388-2.3 6.543-4.628 9.461-6.917.225-.179.448-.353.67-.531q3.981-3.171 7.381-6.191a115.886 115.886 0 0010.958-10.989q-.558-.359-1.125-.705a80.451 80.451 0 01-11.99 9.579c-2.669 1.817-5.582 3.654-8.7 5.521s-6.426 3.779-9.887 5.75q-4.758 2.7-9.911 5.534l-.94.518q-5.638 3.116-11.69 6.371c-4.029 2.156-8.177 4.384-12.453 6.611a368.4 368.4 0 01-13.22 6.616 163.176 163.176 0 01-28.829 10.792 81.277 81.277 0 01-15.069 2.618 30.318 30.318 0 01-6.154-.179 66.47 66.47 0 00-.425 3.233 30 30 0 002.225-.006 45.345 45.345 0 004.019-.327z"/></g><g id="Group_1252" data-name="Group 1252" fill="#ff6229"><path id="Path_2789" data-name="Path 2789" d="M7425.581 3127.087a84.521 84.521 0 01-14.3 15.406l-.006.008q-5.373 3.749-10.82 7.092-5.536 3.378-11.118 6.257a.006.006 0 01-.008 0c0 .007-.009.009-.014.007a.008.008 0 01-.011 0c0 .006-.007 0-.007 0a84.5 84.5 0 01-38.635 6.371c.86-.293 1.724-.587 2.6-.891 8.951-3.119 18.506-6.85 28.5-11.153 4.989-2.165 10.109-4.441 15.282-6.906s10.421-5.117 15.622-8.06c4.366-2.463 8.701-5.161 12.915-8.131z"/><path id="Path_2790" data-name="Path 2790" d="M7441.577 3074.45q.082 2.407.023 4.8-1.086 1.061-2.188 2.089c-2.394 2.244-4.873 4.372-7.361 6.454-5 4.135-10.123 8.008-15.235 11.776s-10.25 7.374-15.367 10.844-10.257 6.742-15.38 9.8c-5.127 3.038-10.25 5.834-15.352 8.341a197.44 197.44 0 01-29.747 11.863 181.979 181.979 0 01-13.816 3.6 197.42 197.42 0 01-12.671 2.317q-3.438.5-6.63.829-1.712-1.188-3.368-2.468a109.551 109.551 0 009.1-2.385q5.665-1.7 11.882-4.047c4.141-1.533 8.451-3.259 12.932-5.087s9.114-3.795 13.919-5.825c4.793-2.055 9.745-4.193 14.818-6.445s10.285-4.582 15.588-7.034 10.7-5.037 16.1-7.848a169.982 169.982 0 0031.353-20.462q3.667-3.071 7.076-6.451a108.843 108.843 0 003.288-3.472c.257-.291.511-.579.76-.875a5.69 5.69 0 00.276-.314z"/><path id="Path_2791" data-name="Path 2791" d="M7434.876 3044.171q.306.716.6 1.436c.292.72.572 1.446.84 2.173l-.165.136a189.176 189.176 0 01-7.683 5.959c-2.779 2.053-5.591 4.031-8.4 5.978-4.541 3.127-9.106 6.142-13.627 9.118l-2.7 1.769q-8.127 5.317-16.114 10.39a503.097 503.097 0 01-15.868 9.655c-.358.2-.715.412-1.077.618q-7.334 4.21-14.567 7.849-5.988 3-11.846 5.593c-6.2 2.753-12.26 5.16-18.109 7.222a242.545 242.545 0 01-10.669 3.49c-1.065.321-2.117.63-3.158.935a329.355 329.355 0 01-12.664 3.345c-5.082 1.211-9.766 2.216-14.006 3-.316.06-.628.119-.939.172-.4-.63-.795-1.263-1.177-1.907.364-.1.735-.207 1.107-.318 1.507-.448 3.069-.941 4.681-1.491 2.872-.971 5.911-2.1 9.086-3.381 3.755-1.5 7.718-3.194 11.856-5.057 4.155-1.836 8.481-3.842 13-5.908q5.579-2.561 11.535-5.285 8.492-3.882 17.669-8.038 7.8-3.519 16-7.216c5.468-2.465 11.038-5.026 16.652-7.75q4.869-2.353 9.743-4.924a221 221 0 0023.534-14.273q1.656-1.164 3.3-2.366a133 133 0 0011.108-8.989c.324-.292.643-.586.964-.885a72.18 72.18 0 001.094-1.05z"/><path id="Path_2792" data-name="Path 2792" d="M7429.074 3032.887c-.141.147-.284.29-.425.437a136.952 136.952 0 01-15.257 13.041q-1.818 1.36-3.653 2.679c-4.128 2.978-8.315 5.8-12.506 8.533q-8.153 5.291-16.343 10.036-2.125 1.237-4.254 2.43a379.614 379.614 0 01-27.944 14.283 401.293 401.293 0 01-7.786 3.482 273.006 273.006 0 01-7.185 3.048c-.15.056-.293.117-.434.173-5.017 2.061-9.934 3.873-14.694 5.5s-9.359 3.02-13.754 4.26c-.219.063-.443.124-.661.181a295.884 295.884 0 01-11.881 3.014c-5.725 1.31-10.933 2.319-15.54 3.009a77.057 77.057 0 01-.679-1.884 132.428 132.428 0 0015.384-4.874c7.487-2.8 15.768-6.436 24.721-10.511q3.325-1.51 6.775-3.106 3.508-1.627 7.147-3.32c2.4-1.127 4.836-2.272 7.3-3.435s4.965-2.408 7.5-3.634c10.1-4.976 20.672-10.369 31.438-16.244q1.939-1.059 3.894-2.144c9.487-5.279 19.074-10.981 28.289-17.318q3.018-2.068 5.979-4.222c3.153-2.3 6.222-4.679 9.117-7.171q.943-.813 1.858-1.644 1.897 2.614 3.594 5.401z"/><path id="Path_2793" data-name="Path 2793" d="M7372.037 2993.684a263.583 263.583 0 00-29.049 10.723c-9.775 4.189-19.1 8.6-27.853 12.957-2.182 1.1-4.341 2.177-6.445 3.269s-4.173 2.195-6.205 3.266c-4.052 2.176-7.968 4.285-11.7 6.36q-4.121 2.292-7.942 4.5a84.093 84.093 0 019.084-12.825 189.507 189.507 0 016.73-4.2c2.036-1.227 4.142-2.425 6.28-3.63s4.321-2.413 6.56-3.59a292.14 292.14 0 0128.874-13.365q6.418-2.559 13.124-4.855c.356-.016.712-.023 1.067-.03a84.835 84.835 0 014.067 0q3.6.093 7.159.483 3.148.348 6.249.937z"/><path id="Path_2794" data-name="Path 2794" d="M7399.466 3003.881c-.125.134-.255.266-.385.4a127.057 127.057 0 01-12.956 11.215c-4.509 3.47-9.112 6.741-13.7 9.935-.165.117-.33.226-.491.342a516.972 516.972 0 01-13.29 8.906q-6.88 4.458-13.75 8.455c-.351.2-.7.407-1.059.609a230.038 230.038 0 01-12.614 6.718l-.26.128a221.628 221.628 0 01-13.127 5.947q-6.593 2.7-12.861 4.771c-4.171 1.38-8.2 2.545-12.054 3.531-.3.075-.593.152-.889.225-3.528.877-6.9 1.624-10.077 2.238-3.628.685-7.01 1.221-10.111 1.59.066-.687.143-1.37.232-2.055 2.94-.7 6.124-1.616 9.489-2.748 3.285-1.084 6.746-2.364 10.367-3.8 3.626-1.415 7.406-3 11.34-4.656 3.6-1.52 7.324-3.136 11.165-4.817.351-.155.7-.306 1.055-.461q6.328-2.767 13.041-5.787c4.461-2.019 9.059-4.091 13.743-6.274a389.687 389.687 0 0013.939-6.771c.1-.051.2-.1.306-.155a174.45 174.45 0 0027.975-17.474 87.3 87.3 0 0012.057-11.1c.1-.12.207-.243.31-.367.613.33 1.224.665 1.831 1.011.261.142.518.293.774.444z"/></g><g id="Group_1253" data-name="Group 1253" fill="#f14617"><path id="Path_2795" data-name="Path 2795" d="M7427.568 3030.838l.212.318c.139-.132.276-.268.41-.4-.204.026-.414.052-.622.082z"/><path id="Path_2796" data-name="Path 2796" d="M7421.175 3124.127c-7.4 4.857-15.584 9.815-24.449 14.77-4.436 2.465-9.029 4.962-13.794 7.4s-9.709 4.811-14.841 6.989a140.114 140.114 0 01-16 5.725 104.124 104.124 0 01-12.731 2.833q4.037.867 8.154 1.339c1.795-.344 3.58-.716 5.352-1.1q8.583-1.889 16.819-4.3c5.484-1.6 10.819-3.4 15.965-5.374a161.287 161.287 0 0014.77-6.544 149.316 149.316 0 0013.308-7.588 130 130 0 0010.836-7.7 85.24 85.24 0 009.5-15.554q-1.208.938-2.468 1.863c-3.228 2.414-6.73 4.806-10.421 7.241z"/><path id="Path_2797" data-name="Path 2797" d="M7419.854 3090.439c-3.486 2.2-7.211 4.408-11.112 6.686s-7.987 4.595-12.22 7c-4.242 2.379-8.638 4.834-13.187 7.309s-9.235 5.015-14.063 7.551-9.808 5.061-14.957 7.464a158.609 158.609 0 01-32.961 11.6q-4.357.969-8.795 1.574a94.38 94.38 0 01-4.442.462 43.14 43.14 0 01-1.076.068c-1.124.063-2.245.1-3.363.1-1.25-.007-2.5-.047-3.731-.152-.629-.049-1.25-.12-1.866-.207a78.443 78.443 0 004.188 3.781 65.042 65.042 0 003.115-.203c2.57-.218 5.1-.571 7.6-.992 3.023-.5 6.007-1.125 8.959-1.786 5.9-1.352 11.682-2.948 17.374-4.591s11.282-3.4 16.759-5.22 10.819-3.768 15.988-5.826 10.144-4.277 14.9-6.631a184.022 184.022 0 0025.678-15.29c3.776-2.7 7.276-5.457 10.515-8.183s6.2-5.445 8.91-8.069a132.283 132.283 0 0010.147-10.957 78.14 78.14 0 00-.125-2.639 84.479 84.479 0 01-12.493 10.65c-2.978 2.156-6.238 4.323-9.742 6.501z"/><path id="Path_2798" data-name="Path 2798" d="M7434.768 3046.643q-2.111 1.777-4.67 3.64a109.7 109.7 0 01-3.76 2.619 157.824 157.824 0 01-7.664 4.808 290.772 290.772 0 01-10.48 5.91c-3.719 2.03-7.66 4.1-11.759 6.269q-5.064 2.675-10.463 5.538-7.7 4.084-15.991 8.52l-14.433 7.751c-4.927 2.649-9.99 5.319-15.194 7.932q-4.51 2.265-9.181 4.415a205.334 205.334 0 01-23.936 9.319q-1.805.57-3.63 1.1a124.348 124.348 0 01-12.965 3.121c-.4.075-.8.144-1.2.211a60.731 60.731 0 01-7.409.8c.071.134.141.267.215.4a82.927 82.927 0 001.846 3.255q.667-.1 1.325-.218c.822-.141 1.64-.3 2.452-.468.743-.153 1.481-.316 2.217-.484 2.965-.69 5.886-1.471 8.775-2.3 3.1-.893 6.164-1.849 9.2-2.83 4.892-1.586 9.718-3.252 14.492-4.911l2.843-.993q8.555-3 16.846-6.032a468.227 468.227 0 0016.161-6.266l1.071-.447a271.365 271.365 0 0014.084-6.328q5.625-2.727 10.872-5.595a231.253 231.253 0 0015.634-9.308 234.441 234.441 0 0011.131-7.727 306.715 306.715 0 009.671-7.476c3.781-3.074 7.185-5.972 10.176-8.666.729-.651 1.435-1.294 2.11-1.927.927-.858 1.8-1.69 2.634-2.5.163-.157.321-.317.476-.471a31.893 31.893 0 00-.59-1.437c-.29.254-.594.513-.906.776z"/><path id="Path_2799" data-name="Path 2799" d="M7283.545 3107.239a128.128 128.128 0 0018.321-3.889q2.04-.578 4.058-1.184c4.551-1.366 9.02-2.862 13.423-4.415q8.551-3.031 16.713-6.4 2.127-.873 4.215-1.77a355.369 355.369 0 0026.452-12.58 382.908 382.908 0 007-3.788 254.951 254.951 0 006.34-3.591c.126-.076.251-.147.373-.221 4.375-2.544 8.511-5.157 12.416-7.756s7.553-5.217 10.97-7.767l.509-.387c3.212-2.43 6.2-4.8 8.978-7.084a171.884 171.884 0 0014.368-13.121c.3-.317.594-.63.882-.94.018-.018.031-.038.049-.056-.023.007-.049.011-.073.018a60 60 0 00-.757-1.15q-.609.594-1.274 1.2c-.208.189-.42.375-.636.564a112.156 112.156 0 01-14.86 10.74c-6.324 3.956-13.723 8.019-21.825 12.334q-3.007 1.607-6.148 3.255-3.2 1.674-6.518 3.406-3.289 1.7-6.693 3.456c-2.272 1.166-4.6 2.31-6.947 3.486-9.42 4.651-19.421 9.421-29.885 14.055q-1.887.834-3.8 1.664c-9.3 4.028-18.968 7.887-28.893 11.115-2.163.7-4.341 1.386-6.522 2.025-3.494 1.028-7 1.952-10.49 2.683-1.736.361-3.478.674-5.173.878-.924.11-1.839.189-2.724.221q.286 1 .6 1.987.556 1.752 1.192 3.5a56.612 56.612 0 004.665-.295c.563-.062 1.13-.132 1.694-.193z"/><path id="Path_2800" data-name="Path 2800" d="M7310.786 3027.38c8.654-4.856 17.217-9.252 25.414-13.264 2.054-.99 4.076-1.978 6.083-2.914s3.993-1.842 5.942-2.74c3.913-1.766 7.7-3.469 11.351-5.049s7.175-3.079 10.552-4.418a184.977 184.977 0 017.714-2.9q-4.051-1.023-8.194-1.642c-3.744.928-7.68 2.038-11.759 3.345a191.665 191.665 0 00-12.06 4.33c-2.066.81-4.148 1.686-6.253 2.589s-4.241 1.828-6.386 2.818a272.3 272.3 0 00-26.3 13.789 259.851 259.851 0 00-13.224 8.423c-3.8 2.588-7.571 5.3-11.255 8.185a85.584 85.584 0 00-5.481 12.311c2.6-2.289 5.406-4.481 8.252-6.594a242.277 242.277 0 0125.604-16.269z"/><path id="Path_2801" data-name="Path 2801" d="M7278.831 3068.846a118.206 118.206 0 0015.665-3.225c5.128-1.366 10.164-2.918 15.137-4.5.177-.055.353-.114.53-.17q7.179-2.3 14.143-4.78c4.8-1.71 9.506-3.507 14.07-5.381l1.053-.437q6.275-2.639 12.14-5.524l.245-.121q6.207-3.069 11.857-6.345 5.744-3.344 10.839-6.815c3.388-2.3 6.543-4.628 9.461-6.917.225-.179.448-.353.67-.531q3.981-3.171 7.381-6.191a115.886 115.886 0 0010.958-10.989q-.558-.359-1.125-.705a80.451 80.451 0 01-11.99 9.579c-2.669 1.817-5.582 3.654-8.7 5.521s-6.426 3.779-9.887 5.75q-4.758 2.7-9.911 5.534l-.94.518q-5.638 3.116-11.69 6.371c-4.029 2.156-8.177 4.384-12.453 6.611a368.4 368.4 0 01-13.22 6.616 163.176 163.176 0 01-28.829 10.792 81.277 81.277 0 01-15.069 2.618 30.318 30.318 0 01-6.154-.179 66.47 66.47 0 00-.425 3.233 30 30 0 002.225-.006 45.345 45.345 0 004.019-.327z"/></g></g><path id="Path_2802" data-name="Path 2802" d="M7359.377 3086.991c-42.88 21.876-80.314 34.38-83.6 27.935l14.071 27.582c3.288 6.446 40.722-6.058 83.6-27.934s74.977-44.841 71.689-51.287l-14.071-27.583c3.289 6.446-28.808 29.412-71.689 51.287z" fill="#662017" opacity=".3" style="mix-blend-mode:multiply;isolation:isolate"/></g></g><path id="Path_2804" data-name="Path 2804" d="M7280.84 3116.268q.437.885.89 1.753c.171.328.34.654.517.975A84.652 84.652 0 007309 3148.8q2.377 1.627 4.856 3.087 3.552 2.1 7.284 3.839a85.825 85.825 0 008.047 3.266 85.157 85.157 0 00112.916-75.2 84.582 84.582 0 00-5.992-36.9q-1.2-2.971-2.642-5.9a85.164 85.164 0 00-10.172-15.918q-2.1-2.6-4.368-4.992-1.173-1.24-2.39-2.423a84.612 84.612 0 00-14.956-11.609q-1.113-.683-2.249-1.328a85.17 85.17 0 00-9.544-4.671 85.667 85.667 0 00-23.356-6.011q-3.56-.391-7.158-.484-2.03-.054-4.067-.007c20.187 6.977 39.038 16.44 53.954 32.724 14.194 15.5 23.341 36.117 22.8 57.126-.423 16.427-7.2 32.894-19.077 44.35-13.046 12.585-32.106 22.711-50.363 23.652a81.7 81.7 0 01-84.745-64.912c-2.045-9.446-4.469-16.728-3.635-26.527q-.541 2.4-.944 4.837a84.706 84.706 0 007.641 51.469z" opacity=".1"/><path id="Path_2805" data-name="Path 2805" d="M7280.84 3116.268q.437.885.89 1.753c.171.328.34.654.517.975A84.652 84.652 0 007309 3148.8q2.377 1.627 4.856 3.087 3.552 2.1 7.284 3.839a85.825 85.825 0 008.047 3.266 85.157 85.157 0 00112.916-75.2 84.582 84.582 0 00-5.992-36.9q-1.2-2.971-2.642-5.9a85.164 85.164 0 00-10.172-15.918q-2.1-2.6-4.368-4.992-1.173-1.24-2.39-2.423a84.612 84.612 0 00-14.956-11.609q-1.113-.683-2.249-1.328a85.17 85.17 0 00-9.544-4.671q-1.029-.429-2.064-.827-3.506-1.348-7.114-2.382a85.881 85.881 0 00-14.178-2.8q-3.56-.391-7.158-.484-2.03-.054-4.067-.007-1.195.022-2.388.084c-.822.042-1.651.1-2.476.163a83.911 83.911 0 00-11.869 1.809q-3.363.756-6.7 1.8a85.9 85.9 0 00-12.255 4.916 84.844 84.844 0 00-22.721 16.312l-.016.021a85.022 85.022 0 00-19.956 31.926c-.868 2.479-1.618 5-2.254 7.551-.151.611-.3 1.218-.429 1.828q-.541 2.4-.944 4.837a84.706 84.706 0 007.639 51.47zm14.434-87.247c10.49-10.74 24.122-18.637 38.922-21.145 27.493-4.652 52.906 10.766 65.168 34.8 7.133 13.981 9.273 29.945 3.73 44.88-16.509 44.478-83.574 49.162-108.638 10.588-13.744-21.158-17.127-50.75.818-69.123z" opacity=".05"/><path id="Path_2806" data-name="Path 2806" d="M7348.17 3059.255c2.7 10.623-4 21.131-14.389 24.034-11.124 3.106-21.457.946-26.891-10.59a23.4 23.4 0 011.084-21.613c11.236-18.725 35.361-10.886 40.196 8.169z" fill="#fff" opacity=".08"/><g id="Group_1259" data-name="Group 1259"><g id="Group_1258" data-name="Group 1258" clip-path="url(#clip-path-2)"><g id="Group_1257" data-name="Group 1257"><path id="Path_2807" data-name="Path 2807" d="M7479.2 3018.085c-.1-.169-.215-.393-.38-.634s-.371-.519-.6-.831a13.636 13.636 0 00-5.044-3.768 27.273 27.273 0 00-8.483-2.094 63.476 63.476 0 00-10.914-.015 162.32 162.32 0 00-27.966 5.111 355.164 355.164 0 00-34.693 11.187c-12.486 4.681-25.784 10.3-39.582 16.8s-28.09 13.893-42.5 22.244c-7.2 4.178-14.429 8.6-21.608 13.3s-14.312 9.694-21.266 15.08c-3.479 2.693-6.91 5.492-10.264 8.429s-6.619 6.021-9.735 9.331a65.2 65.2 0 00-8.558 11.021 31.608 31.608 0 00-1.712 3.287 21.77 21.77 0 00-1.3 3.7 15.12 15.12 0 00-.485 4.262c.028.383.06.767.1 1.151.059.387.137.777.214 1.164.114.438.265.9.418 1.338l.161.378.078.182a4 4 0 00.161.37 11.366 11.366 0 002.946 3.689 15.107 15.107 0 003.679 2.212 22.016 22.016 0 003.731 1.218 31.865 31.865 0 003.65.642 65.27 65.27 0 0013.952-.086c4.524-.454 8.958-1.176 13.328-2.045s8.683-1.889 12.935-3.015c8.508-2.236 16.8-4.866 24.91-7.692s16.009-5.875 23.707-9.047c15.4-6.353 29.951-13.205 43.515-20.182 13.556-6.993 26.11-14.12 37.423-21.179a356.2 356.2 0 0029.991-20.72 162.5 162.5 0 0021.075-19.082 63.447 63.447 0 006.63-8.67 27.1 27.1 0 003.5-8 13.612 13.612 0 00.079-6.3c-.122-.438-.243-.82-.358-1.147a2.738 2.738 0 00-.123-.319 3.071 3.071 0 00-.084-.2 38.845 38.845 0 01-.158-.363l-.083-.187s-.096-.169-.287-.52zm-15.9 9.517a2.352 2.352 0 01-.446 1.363 40.794 40.794 0 01-4.712 4.709 113.008 113.008 0 01-8.6 7.467c-3.348 2.64-7.166 5.393-11.369 8.234s-8.81 5.751-13.764 8.709c-2.48 1.48-5.022 3-7.66 4.513s-5.364 3.026-8.146 4.574c-11.142 6.177-23.425 12.591-36.547 19.142a758.134 758.134 0 01-9.992 4.92q-2.552 1.229-5.124 2.475l-5.189 2.461q-2.609 1.232-5.259 2.451l-5.318 2.452c-3.574 1.616-7.172 3.26-10.825 4.853a756.523 756.523 0 01-22.294 9.449c-7.573 2.988-15.244 5.967-23.008 8.474-3.877 1.267-7.771 2.424-11.646 3.437s-7.728 1.876-11.452 2.492c-2.1.344-5.529 1.354-7.591.754-1.945-.568-1.929-2.916-.978-4.336 1-1.5 2.135-3.03 3.348-4.547 2.442-3.043 5.2-6.036 8.068-8.983s5.875-5.855 8.974-8.674 6.268-5.583 9.494-8.273 6.519-5.307 9.843-7.849c6.633-5.11 13.449-9.864 20.313-14.316a348.818 348.818 0 0141.394-22.746 333.569 333.569 0 0139.366-15.419c3.113-1 6.181-1.885 9.18-2.744 3-.842 5.927-1.653 8.8-2.37 5.745-1.421 11.2-2.617 16.314-3.575s9.887-1.679 14.243-2.166a107.132 107.132 0 0111.7-.77c1.955 0 5.145-.4 6.889.5a3.937 3.937 0 011.994 3.337z"/></g></g></g><g id="Group_1260" data-name="Group 1260"><path id="Path_2808" data-name="Path 2808" d="M7421.443 3022.86c.75-.159 1.49-.307 2.229-.455 1.342-.284 2.65-.534 3.946-.773 5.175-.978 10.1-1.729 14.626-2.229a115 115 0 0112.317-.808c.319 0 .751-.011 1.206-.034 2.456-.1 5.516-.216 8.109 1.126a8.83 8.83 0 014.708 7.87 7.571 7.571 0 01-1.444 4.311 29.23 29.23 0 01-4.174 4.355c-.41.376-.819.74-1.16 1.07-2.593 2.513-5.63 5.152-9.019 7.836-3.344 2.638-7.279 5.481-11.7 8.473-.148.1-.3.193-.444.295-.568.376-1.148.762-1.728 1.149s-1.149.751-1.729 1.126a289.744 289.744 0 01-10.122 6.3l-.216.137a501.207 501.207 0 01-7.506 4.413 390.978 390.978 0 01-6.676 3.753l-1.558.876a504.15 504.15 0 01-5.073 2.775c-9.576 5.22-20.21 10.747-31.662 16.468-1.308.648-2.616 1.308-3.947 1.956q-3.036 1.5-6.141 3l-5.038 2.434-5.312 2.525c-1.967.921-3.7 1.74-5.311 2.468l-5.311 2.457-2.024.909c-2.9 1.32-5.892 2.673-8.871 3.97a731.625 731.625 0 01-16.014 6.88c-2.126.876-4.287 1.763-6.448 2.639l-.046.023c-6.391 2.524-13.147 5.152-19.914 7.46a78.43 78.43 0 01-1.956.649c-.478.17-.967.318-1.444.477-.182.057-.353.114-.535.171-3.912 1.262-7.756 2.4-11.43 3.355-4.265 1.126-8.279 1.99-11.953 2.6-.364.057-.864.16-1.388.273-2.547.523-5.709 1.172-8.575.341a7.155 7.155 0 01-4.8-4.469 8.675 8.675 0 011.069-7.563 73.02 73.02 0 013.628-4.925c2.286-2.854 4.959-5.823 8.393-9.36 2.821-2.9 5.914-5.9 9.224-8.905.682-.625 1.376-1.251 2.092-1.888l1.706-1.5a79.753 79.753 0 01-.352-1.638c-.592.432-1.172.876-1.752 1.32-.864.636-1.706 1.285-2.547 1.933a215.547 215.547 0 00-10.009 8.211c-3.537 3.1-6.6 6.039-9.337 8.951a60.377 60.377 0 00-7.881 10.111 29.5 29.5 0 00-1.422 2.729l-.023.057a17.439 17.439 0 00-.978 2.775 10.356 10.356 0 00-.341 2.764l.068.762c.034.227.08.455.125.682.057.182.125.409.216.682l.251.592a6.585 6.585 0 001.637 1.99 9.932 9.932 0 002.434 1.456 16.673 16.673 0 002.821.921l.057.011a26.549 26.549 0 003.036.535 60.186 60.186 0 0012.783-.091c3.97-.4 8.155-1.046 12.807-1.968a216.03 216.03 0 0012.612-2.945c1.081-.285 2.161-.569 3.253-.876.705-.193 1.422-.4 2.138-.6.694-.193 1.4-.4 2.1-.6a355.619 355.619 0 0017-5.482 461.606 461.606 0 0017.753-6.642q2.815-1.126 5.664-2.3c11.236-4.628 22.689-9.826 34.039-15.421 3-1.479 6.051-3.014 9.053-4.561 8.325-4.3 16.366-8.689 24.02-13.136q6.721-3.89 13.011-7.825c8.223-5.129 15.843-10.235 22.712-15.251.6-.443 1.194-.875 1.786-1.308.591-.455 1.182-.887 1.762-1.33a283.17 283.17 0 003.264-2.5 157.983 157.983 0 0020.37-18.413 60.016 60.016 0 006.061-7.916 22.137 22.137 0 002.832-6.392l.023-.068a8.619 8.619 0 00.1-3.821 8.809 8.809 0 00-.238-.774l-.023-.068-.046-.1s-.125-.273-.147-.341c-.046-.08-.091-.171-.16-.285a3 3 0 00-.17-.295 19.185 19.185 0 00-.432-.6 8.754 8.754 0 00-3.094-2.241l-.057-.022a22.217 22.217 0 00-6.806-1.643 59.345 59.345 0 00-9.963-.012 157.47 157.47 0 00-27 4.959c-1.262.33-2.536.671-3.821 1.035q-1.041.289-2.115.58z" fill="#ffd101"/></g></g></g></svg>