<svg id="Component_23_7" data-name="Component 23 – 7" xmlns="http://www.w3.org/2000/svg" width="250.225" height="47.161"><defs><linearGradient id="linear-gradient" x1=".5" y1=".039" x2=".5" y2="1.357" gradientUnits="objectBoundingBox"><stop offset=".187" stop-color="#00ffd5"/><stop offset="1" stop-color="#01cb2d"/></linearGradient></defs><g id="Group_1031" data-name="Group 1031" transform="translate(-6607.793 -3423.483)"><g id="Group_1028" data-name="Group 1028"><g id="Group_1027" data-name="Group 1027"><g id="Group_1026" data-name="Group 1026"><path id="Path_2295" data-name="Path 2295" d="M6851.53 3431.654c-1.973-2.3-4.917-3.579-8.749-3.809-11.538-.692-189.758-.743-205.907-.746h-.379c-7.322 0-12.238.218-15.7 1.329a11.059 11.059 0 00-3.827 2.037c-3.537 1.667-5.385 4.653-5.5 8.887-.146 5.611.009 14.05.111 16 .148 2.83 1.506 7.922 8.94 10.231 4.125 1.281 9.176 1.445 13.115 1.445 1.584 0 3.1-.03 4.565-.058 1.257-.025 2.444-.047 3.5-.047h.291c2.915.012 174.907.013 183.439.013 11.006 0 16.135-.478 19.6-1.827a11.059 11.059 0 003.125-1.8c4.9-2.351 5.724-6.734 5.883-10.332.043-1 .1-1.986.161-2.942.35-5.769.68-14.484-2.668-18.381z" fill="#fc3"/><path id="Path_2296" data-name="Path 2296" d="M6636.874 3427.1c16.149 0 194.369.055 205.907.746 3.832.23 6.776 1.512 8.749 3.809 3.348 3.9 3.018 12.612 2.669 18.379-.058.956-.118 1.942-.161 2.942-.159 3.6-.983 7.981-5.883 10.332a11.051 11.051 0 01-3.126 1.8c-3.468 1.349-8.6 1.827-19.6 1.827-8.532 0-180.524 0-183.439-.013h-.292c-1.051 0-2.238.023-3.495.047-1.465.028-2.981.058-4.565.058-3.939 0-8.99-.164-13.115-1.445-7.434-2.309-8.792-7.4-8.94-10.231-.1-1.95-.257-10.389-.111-16 .111-4.234 1.959-7.22 5.5-8.887a11.059 11.059 0 013.827-2.037c3.465-1.111 8.381-1.329 15.7-1.329h.379m0-3.616h-.38c-7.68 0-12.893.246-16.808 1.5a14.787 14.787 0 00-4.681 2.413c-4.539 2.306-7.009 6.4-7.151 11.858-.15 5.765.007 14.247.114 16.285.159 3.034 1.6 10.425 11.479 13.494 4.588 1.425 9.992 1.608 14.187 1.608 1.605 0 3.127-.03 4.6-.058 1.273-.025 2.44-.048 3.462-.048h.286c3 .012 181.641.013 183.445.013 11.652 0 16.93-.524 20.914-2.074a14.767 14.767 0 003.778-2.109c7.11-3.664 7.426-10.846 7.532-13.234.043-.978.1-1.941.158-2.875.494-8.178.408-16.371-3.535-20.962-2.636-3.069-6.43-4.771-11.276-5.062-11.534-.692-186.239-.748-206.122-.753z"/></g></g><path id="Path_2297" data-name="Path 2297" d="M6849.122 3433.593c-1.374-1.643-3.474-2.531-6.419-2.712-11.485-.708-189.761-.759-205.921-.762h-.38c-6.832 0-11.679.2-14.723 1.205a7.411 7.411 0 00-3.012 1.743c-2.635 1.113-3.863 3.041-3.942 6.156-.143 5.656.008 14.218.108 16.177.178 3.5 2.379 5.945 6.543 7.274 3.707 1.182 8.446 1.334 12.161 1.334 1.553 0 3.057-.03 4.51-.059 1.276-.025 2.48-.049 3.571-.049h.3c2.891.013 175.042.013 183.593.013 10.435 0 15.434-.447 18.442-1.649a7.434 7.434 0 002.5-1.566c3.376-1.471 4.172-4.051 4.329-7.714.045-1.049.106-2.086.165-3.088.319-5.396.593-13.411-1.825-16.303z"/><path id="Path_2298" data-name="Path 2298" d="M6841.889 3432.14c-12.05-.742-201.481-.745-203.991-.745h-.107c-13.679 0-18.042.839-18.188 6.595-.139 5.485 0 13.834.1 15.782.341 6.682 9.264 7.548 17.449 7.548 2.864 0 5.638-.106 7.921-.106h.3c2.874.013 174.637.013 181.885.013 18.726 0 21.411-1.349 21.713-8.4.397-9.195 2.006-20.127-7.082-20.687z" fill="url(#linear-gradient)"/></g><g id="Group_1030" data-name="Group 1030"><path id="Path_2299" data-name="Path 2299" d="M6840.867 3445.582a6.872 6.872 0 00-1.75-2.4 29.015 29.015 0 00-2.953-2.456q-1.643-1.2-3.282-2.187t-2.679-1.528a9.143 9.143 0 00-1.614-.682 5.276 5.276 0 00-1.558-.245 4.539 4.539 0 00-3.036 1.093 8.916 8.916 0 00-1.465 1.591c-.124-.076-.247-.154-.371-.229q-1.638-.981-2.68-1.528a9.155 9.155 0 00-1.614-.682 5.271 5.271 0 00-1.558-.245 4.536 4.536 0 00-3.035 1.093 8.693 8.693 0 00-2.051 2.509 2.434 2.434 0 00.383 3.17 22.221 22.221 0 002.243 1.964q1.148.874 2.407 1.691l-1.095.3c-.329.092-.674.19-1.039.3a6.134 6.134 0 00-2.3 1.365 3.081 3.081 0 00-.985 2.35 8.4 8.4 0 001.338 4.585q1.233 1.748 4.35 1.748a13.343 13.343 0 005.03-1.093q.706-.288 1.374-.618 1.239 1.708 4.319 1.711a13.337 13.337 0 005.03-1.093 20.032 20.032 0 004.813-2.758 12.436 12.436 0 003.282-3.712 4.8 4.8 0 00.496-4.014z"/><g id="Group_1029" data-name="Group 1029"><path id="Path_2300" data-name="Path 2300" d="M6826.222 3444.291a21.884 21.884 0 01-2.244-1.964 2.433 2.433 0 01-.382-3.17 8.687 8.687 0 012.05-2.509 4.538 4.538 0 013.036-1.093 5.259 5.259 0 011.557.246 9.186 9.186 0 011.615.681q1.041.547 2.679 1.529t3.282 2.186a29 29 0 012.952 2.456 6.874 6.874 0 011.751 2.4 4.807 4.807 0 01-.492 4.015 12.449 12.449 0 01-3.282 3.712 20.086 20.086 0 01-4.813 2.758 13.364 13.364 0 01-5.03 1.093q-3.12 0-4.35-1.748a8.4 8.4 0 01-1.338-4.586 3.08 3.08 0 01.985-2.349 6.135 6.135 0 012.3-1.366c.365-.11.709-.207 1.038-.3s.692-.193 1.095-.3q-1.263-.816-2.409-1.691z"/><path id="Path_2301" data-name="Path 2301" d="M6828.162 3444.344c.457.294.929.6 1.422.931s.928.637 1.311.927.558.509.522.655a.43.43 0 01-.439.328 2.5 2.5 0 01-.9-.245 1.8 1.8 0 00-1.394.083 8.3 8.3 0 01-1.1.352 8.732 8.732 0 00-1.092.356 2.99 2.99 0 00-.52.272 2.886 2.886 0 01-.522.276 2.233 2.233 0 00-1.148 2.293c.11.509.2 1.019.276 1.528a6.539 6.539 0 00.382 1.475 3.244 3.244 0 001.558 1.556 5.689 5.689 0 002.38.462 12.326 12.326 0 004.54-.981 18.2 18.2 0 004.43-2.512 12.843 12.843 0 003.089-3.333 3.671 3.671 0 00.466-3.439 5.572 5.572 0 00-1.67-2.183 33.664 33.664 0 00-2.953-2.35q-1.611-1.146-3.225-2.073a255.642 255.642 0 00-2.49-1.419 3.76 3.76 0 00-1.205-.519 5.184 5.184 0 00-1.148-.136 3.727 3.727 0 00-2.487.9 7.353 7.353 0 00-1.777 2.266 1.378 1.378 0 00.273 1.8q.6.6 1.231 1.12c.419.346.846.681 1.285 1.01.149.112.448.31.905.6z" fill="#fc3"/><path id="Path_2302" data-name="Path 2302" d="M6815.5 3444.291a21.98 21.98 0 01-2.243-1.964 2.433 2.433 0 01-.383-3.17 8.706 8.706 0 012.051-2.509 4.536 4.536 0 013.035-1.093 5.263 5.263 0 011.558.246 9.22 9.22 0 011.614.681q1.043.547 2.68 1.529t3.282 2.186a29 29 0 012.952 2.456 6.886 6.886 0 011.751 2.4 4.8 4.8 0 01-.493 4.015 12.416 12.416 0 01-3.282 3.712 20.038 20.038 0 01-4.813 2.758 13.357 13.357 0 01-5.029 1.093q-3.12 0-4.35-1.748a8.407 8.407 0 01-1.339-4.586 3.081 3.081 0 01.986-2.349 6.131 6.131 0 012.3-1.366 70.836 70.836 0 012.134-.6q-1.266-.816-2.411-1.691z"/><path id="Path_2303" data-name="Path 2303" d="M6817.439 3444.344c.457.294.929.6 1.421.931s.929.637 1.312.927.558.509.522.655a.43.43 0 01-.439.328 2.5 2.5 0 01-.9-.245 1.8 1.8 0 00-1.4.083 8.3 8.3 0 01-1.1.352 8.758 8.758 0 00-1.092.356 2.947 2.947 0 00-.519.272 2.886 2.886 0 01-.522.276 2.235 2.235 0 00-1.149 2.293q.165.764.276 1.528a6.62 6.62 0 00.383 1.475 3.237 3.237 0 001.558 1.556 5.692 5.692 0 002.38.462 12.328 12.328 0 004.54-.981 18.22 18.22 0 004.43-2.512 12.86 12.86 0 003.089-3.333 3.671 3.671 0 00.466-3.439 5.59 5.59 0 00-1.671-2.183 33.438 33.438 0 00-2.952-2.35q-1.611-1.146-3.226-2.073t-2.489-1.419a3.779 3.779 0 00-1.205-.519 5.2 5.2 0 00-1.148-.136 3.726 3.726 0 00-2.487.9 7.346 7.346 0 00-1.777 2.266 1.378 1.378 0 00.273 1.8q.6.6 1.231 1.12c.418.346.846.681 1.285 1.01.153.112.453.31.91.6z" fill="#fc3"/></g></g><path id="Path_2304" data-name="Path 2304" d="M6833.86 3434.183c10.164 0 13.612 2.465 13.038 8.61" fill="none" stroke="#fff" stroke-miterlimit="10" stroke-width="1.808"/><path id="Path_2305" data-name="Path 2305" d="M6637.433 3458.122c-10.163 0-13.611-2.464-13.037-8.609" fill="none" stroke="#fff" stroke-miterlimit="10" stroke-width="1.808"/></g></svg>