<svg id="Component_3_2" data-name="Component 3 – 2" xmlns="http://www.w3.org/2000/svg" xmlns:xlink="http://www.w3.org/1999/xlink" width="303.402" height="71.409" viewBox="0 0 303.402 71.409">
  <defs>
    <linearGradient id="linear-gradient" x1="0.5" y1="-0.408" x2="0.5" y2="1.023" gradientUnits="objectBoundingBox">
      <stop offset="0" stop-color="#00ffd5"/>
      <stop offset="1" stop-color="#01cb2d"/>
    </linearGradient>
    <clipPath id="clip-path">
      <path id="Path_23338" data-name="Path 23338" d="M48.292,6139.723a6.818,6.818,0,0,0-2.012,2.5l-.2.425a9.968,9.968,0,0,0-.486,1.468,19.158,19.158,0,0,0,.013,7.89,24.811,24.811,0,0,0,2.853,8.059,18.887,18.887,0,0,0,4.393,5.276,9.217,9.217,0,0,0,2.125,1.336,8.613,8.613,0,0,0,3.984.6,19.5,19.5,0,0,0,7.842-2.647,49.729,49.729,0,0,0,7.336-4.972l.919-.734c4.261-3.4,8.667-6.916,11.963-11.264a22.363,22.363,0,0,0,3.876-7.155c.507-1.715,1.865-7.621-1.949-11.6a11.941,11.941,0,0,0-6.479-3.214,22.006,22.006,0,0,0-8.322,0,20.1,20.1,0,0,0-3.194.937,9.068,9.068,0,0,0-3.151,1.81c-1.782,1.726-2.288,4.487-2.623,6.939a45.7,45.7,0,0,1-1.842,8.6,17.493,17.493,0,0,1-1.725,3.772,4.99,4.99,0,0,1-3.273,2.572c-1.926.3-2.89-1.383-3.406-2.25a33.217,33.217,0,0,1-1.9-3.94c-.455-1.061-.87-2.113-1.233-3.128-.064-.179-.122-.378-.181-.583-.165-.573-.336-1.165-.7-1.353a1.328,1.328,0,0,0-.619-.138A3.675,3.675,0,0,0,48.292,6139.723Z" fill="#a42d6b"/>
    </clipPath>
  </defs>
  <g id="Group_9967" data-name="Group 9967" transform="translate(-27.919 -6116.255)">
    <g id="Group_9966" data-name="Group 9966">
      <g id="Group_9965" data-name="Group 9965">
        <g id="Group_9964" data-name="Group 9964">
          <path id="Path_23328" data-name="Path 23328" d="M66.83,6184.194c-5.912,0-13.517-.254-19.9-2.239-13.174-4.1-15.084-13.864-15.294-17.872-.152-2.915-.378-15.061-.163-23.326.189-7.246,3.467-12.649,9.489-15.655a19.493,19.493,0,0,1,6.329-3.3c5.415-1.74,12.772-2.081,23.649-2.081h.545c22.423,0,219.554.07,236.385,1.081,6.486.389,11.536,2.641,15.01,6.692,5.269,6.144,5.358,17.545,4.669,28.949-.082,1.358-.167,2.761-.229,4.182-.245,5.554-1.56,13.386-10.041,17.672a19.476,19.476,0,0,1-5.122,2.891c-.876.341-1.471.633-2.047.915-3.094,1.517-4.558,1.954-17.411,1.954-8.557,0-209.6,0-213.874-.018h-.412c-1.485,0-3.17.033-4.953.068C71.325,6184.152,69.127,6184.194,66.83,6184.194Z" fill="url(#linear-gradient)"/>
          <path id="Path_23329" data-name="Path 23329" d="M71.489,6123.195c23.229,0,219.579.078,236.177,1.075,5.512.331,9.746,2.177,12.584,5.487,4.815,5.615,4.342,18.172,3.84,26.481-.084,1.377-.17,2.8-.233,4.239-.228,5.183-1.413,11.5-8.461,14.885a15.913,15.913,0,0,1-4.5,2.6c-4.989,1.944-2.367,2.633-18.2,2.633-12.273,0-209.667,0-213.86-.018h-.418c-1.513,0-3.221.033-5.028.068-2.109.041-4.289.084-6.567.084-5.666,0-12.932-.237-18.865-2.083-10.692-3.325-12.646-10.662-12.859-14.74-.147-2.81-.37-14.968-.16-23.053.159-6.1,2.818-10.4,7.906-12.8a15.9,15.9,0,0,1,5.5-2.934c4.983-1.6,12.055-1.915,22.587-1.915h.545m0-6.94h-.547c-11.491,0-18.832.358-24.711,2.248a23.023,23.023,0,0,0-7.144,3.661c-6.937,3.6-10.863,10.142-11.081,18.5-.217,8.345.012,20.64.167,23.6.247,4.734,2.469,16.258,17.729,21,6.824,2.124,14.768,2.4,20.926,2.4,2.317,0,4.506-.042,6.622-.083l.079,0c1.68-.033,3.415-.067,4.894-.067h.407c4.289.018,211.776.018,213.871.018,12.917,0,15.122-.437,18.939-2.309.534-.262,1.039-.509,1.777-.8a22.974,22.974,0,0,0,5.743-3.189c10.981-5.752,11.467-16.777,11.628-20.454.062-1.4.146-2.783.227-4.124.733-12.134.574-24.337-5.5-31.419-2.825-3.295-8.144-7.339-17.436-7.9-16.9-1.015-214.155-1.083-236.591-1.087Z" fill="#fff"/>
          <path id="Path_23330" data-name="Path 23330" d="M71.489,6123.195c23.229,0,219.579.078,236.177,1.075,5.512.331,9.746,2.177,12.584,5.487,4.815,5.615,4.342,18.172,3.84,26.481-.084,1.377-.17,2.8-.233,4.239-.228,5.183-1.413,11.5-8.461,14.885a15.913,15.913,0,0,1-4.5,2.6c-4.989,1.944-2.367,2.633-18.2,2.633-12.273,0-209.667,0-213.86-.018h-.418c-1.513,0-3.221.033-5.028.068-2.109.041-4.289.084-6.567.084-5.666,0-12.932-.237-18.865-2.083-10.692-3.325-12.646-10.662-12.859-14.74-.147-2.81-.37-14.968-.16-23.053.159-6.1,2.818-10.4,7.906-12.8a15.9,15.9,0,0,1,5.5-2.934c4.983-1.6,12.055-1.915,22.587-1.915h.545m0-5.2h-.546c-11.049,0-18.547.354-24.18,2.164a21.3,21.3,0,0,0-6.736,3.478c-6.528,3.322-10.08,9.213-10.285,17.08-.216,8.3.011,20.525.165,23.461.228,4.371,2.293,15.017,16.511,19.439,6.6,2.054,14.376,2.317,20.411,2.317,2.3,0,4.48-.042,6.589-.083H73.5c1.689-.033,3.434-.068,4.928-.068h.41c4.282.018,211.773.018,213.868.018,12.636,0,14.6-.376,18.175-2.131.568-.279,1.105-.542,1.911-.857a21.228,21.228,0,0,0,5.435-3.04c10.226-5.278,10.682-15.622,10.833-19.063.062-1.415.147-2.806.228-4.152.711-11.769.587-23.571-5.084-30.185-3.791-4.421-9.25-6.875-16.223-7.294-16.846-1.012-214.056-1.08-236.488-1.084Z"/>
        </g>
      </g>
    </g>
    <path id="Path_23331" data-name="Path 23331" d="M91.372,6132.551c-1.977-2.368-5.033-3.3-9.234-3.908a89.621,89.621,0,0,0-11.172-1.1H70.81c-9.828,0-16.8.29-21.178,1.736a10.653,10.653,0,0,0-4.332,2.511c-3.791,1.6-5.556,4.382-5.67,8.869-.206,8.15.011,20.486.155,23.308.256,5.04,3.423,8.566,9.411,10.48a38.15,38.15,0,0,0,11.684,1.786c15.011,0,18.731-.644,23.057-2.375a10.732,10.732,0,0,0,3.6-2.257c4.856-2.12,6-5.837,6.226-11.114.064-1.512.152-3.005.237-4.449C94.455,6148.272,94.85,6136.718,91.372,6132.551Z"/>
    <path id="Path_23332" data-name="Path 23332" d="M80.967,6130.457c-8.414-1.073-8.108-1.073-8.158-1.073-19.677,0-25.953,1.208-26.163,9.5-.2,7.9.007,19.932.15,22.739.49,9.626,6.174,10.741,16.6,10.741,26.935,0,27.327-1.943,27.762-12.106C91.725,6147.015,93.959,6132.116,80.967,6130.457Z" fill="#fff"/>
  </g>
  <g id="Group_9970" data-name="Group 9970" transform="translate(-27.919 -6116.255)" opacity="0">
    <path id="Path_23333" data-name="Path 23333" d="M89.959,6127.942a13.3,13.3,0,0,0-7.216-3.617,23.4,23.4,0,0,0-8.858,0,21.431,21.431,0,0,0-3.417,1,10.359,10.359,0,0,0-3.633,2.114,7.358,7.358,0,0,0-.887,1.061,6.893,6.893,0,0,0-1.1.848c-1.95,1.889-2.477,4.77-2.828,7.345a44.877,44.877,0,0,1-1.812,8.465,16.953,16.953,0,0,1-1.654,3.624c-.01.017-.022.033-.032.05a2.109,2.109,0,0,1-.391.11c-.807.129-1.342-.5-1.991-1.588a31.687,31.687,0,0,1-1.821-3.775c-.443-1.034-.847-2.059-1.2-3.047-.055-.154-.1-.325-.154-.5a3.212,3.212,0,0,0-1.409-2.207,2.725,2.725,0,0,0-1.254-.291,5.173,5.173,0,0,0-2.83,1.066,7.493,7.493,0,0,0-1.617,1.674c-.158.1-.31.194-.447.295a7.537,7.537,0,0,0-2.224,2.755l-.2.44a10.532,10.532,0,0,0-.532,1.595,20.169,20.169,0,0,0,0,8.178,25.6,25.6,0,0,0,2.934,8.286,19.534,19.534,0,0,0,4.556,5.47,9.9,9.9,0,0,0,2.291,1.436,8.849,8.849,0,0,0,3.517.682c.265,0,.53-.01.794-.029a15.827,15.827,0,0,0,4.228-.944,23.476,23.476,0,0,0,6.705-2.58,51.113,51.113,0,0,0,7.543-5.109l.917-.733c4.329-3.454,8.8-7.025,12.206-11.511a23.69,23.69,0,0,0,4.1-7.6C92.8,6139,94.293,6132.463,89.959,6127.942Zm-39.044,11.124c.368.188.539.78.7,1.353.059.205.117.4.181.583.363,1.015.778,2.067,1.233,3.128a33.217,33.217,0,0,0,1.9,3.94,4.221,4.221,0,0,0,2.361,2.209,3.157,3.157,0,0,1-1.543.761,2.053,2.053,0,0,1-.318.026c-1.131,0-1.827-1.02-2.379-1.945a32.56,32.56,0,0,1-1.862-3.858q-.654-1.526-1.217-3.087c-.275-.77-.411-1.906-1.223-2.322a1.9,1.9,0,0,0-.428-.154,3.648,3.648,0,0,1,1.968-.772A1.328,1.328,0,0,1,50.915,6139.066Zm39.986,1.441a22.363,22.363,0,0,1-3.876,7.155,43.374,43.374,0,0,1-5.454,5.833,39.512,39.512,0,0,0,3.533-4,23.333,23.333,0,0,0,3.988-7.378c.6-2.04,1.911-8.082-2.114-12.28a12.787,12.787,0,0,0-6.848-3.415,22.111,22.111,0,0,0-4.278-.412,22.642,22.642,0,0,0-4.275.406,18.709,18.709,0,0,1,2.574-.717,22.006,22.006,0,0,1,8.322,0,11.941,11.941,0,0,1,6.479,3.214C92.766,6132.886,91.408,6138.792,90.9,6140.507Z"/>
    <g id="Group_9969" data-name="Group 9969">
      <path id="Path_23334" data-name="Path 23334" d="M48.292,6139.723a6.818,6.818,0,0,0-2.012,2.5l-.2.425a9.968,9.968,0,0,0-.486,1.468,19.158,19.158,0,0,0,.013,7.89,24.811,24.811,0,0,0,2.853,8.059,18.887,18.887,0,0,0,4.393,5.276,9.217,9.217,0,0,0,2.125,1.336,8.613,8.613,0,0,0,3.984.6,19.5,19.5,0,0,0,7.842-2.647,49.729,49.729,0,0,0,7.336-4.972l.919-.734c4.261-3.4,8.667-6.916,11.963-11.264a22.363,22.363,0,0,0,3.876-7.155c.507-1.715,1.865-7.621-1.949-11.6a11.941,11.941,0,0,0-6.479-3.214,22.006,22.006,0,0,0-8.322,0,20.1,20.1,0,0,0-3.194.937,9.068,9.068,0,0,0-3.151,1.81c-1.782,1.726-2.288,4.487-2.623,6.939a45.7,45.7,0,0,1-1.842,8.6,17.493,17.493,0,0,1-1.725,3.772,4.99,4.99,0,0,1-3.273,2.572c-1.926.3-2.89-1.383-3.406-2.25a33.217,33.217,0,0,1-1.9-3.94c-.455-1.061-.87-2.113-1.233-3.128-.064-.179-.122-.378-.181-.583-.165-.573-.336-1.165-.7-1.353a1.328,1.328,0,0,0-.619-.138A3.675,3.675,0,0,0,48.292,6139.723Z" fill="#a42d6b"/>
      <g id="Group_9968" data-name="Group 9968" clip-path="url(#clip-path)">
        <path id="Path_23335" data-name="Path 23335" d="M81.566,6127.091c4.962.005,9.215,4.75,8.6,10.217a13.8,13.8,0,0,0-8.6-10.217Z" fill="#fff"/>
        <path id="Path_23336" data-name="Path 23336" d="M70.635,6157.659c-2.61,5.355-9.079,9.177-15.032,7.6,6.05-.321,10.9-3.341,15.032-7.6Z" fill="#fff"/>
        <path id="Path_23337" data-name="Path 23337" d="M50.6,6139.824a2.937,2.937,0,0,0-.461,2.615,8.415,8.415,0,0,0,1.181,2.388,6.346,6.346,0,0,0,1.221,1.224l.088-.085A7.742,7.742,0,0,1,51.407,6143a8.4,8.4,0,0,0-.684-3.157l-.121-.02Z" fill="#fff"/>
      </g>
    </g>
  </g>
</svg>
