<svg xmlns="http://www.w3.org/2000/svg" xmlns:xlink="http://www.w3.org/1999/xlink" width="250.911" height="145.819" viewBox="0 0 250.911 145.819">
  <defs>
    <clipPath id="clip-path">
      <path id="Path_19895" data-name="Path 19895" d="M2034.325,4653.536a6.747,6.747,0,0,0-1.575-1.738,3.458,3.458,0,0,0-.51-.364,3.049,3.049,0,0,0-.63-.338,7.247,7.247,0,0,0-3.175-.669,9.736,9.736,0,0,0-1.081.061,16.52,16.52,0,0,0-1.862.347c-.328.075-.637.146-.945.2a49.164,49.164,0,0,1-8.237.75q-.65.01-1.3.01c-2.406,0-4.958-.1-8.033-.32-1.936-.138-3.908-.339-5.814-.534-1.2-.123-2.448-.25-3.678-.361-.606-.054-1.213-.082-1.8-.082a15.207,15.207,0,0,0-7.728,1.924,13.565,13.565,0,0,0-4.316,4.048,15.03,15.03,0,0,0-3.356,5.189,19.141,19.141,0,0,0-1.17,4.74,12.449,12.449,0,0,0,.253,5.1,5.235,5.235,0,0,0,3.129,3.541,5.683,5.683,0,0,0,1.971.339,8.2,8.2,0,0,0,3.214-.714,11.536,11.536,0,0,0,2.144-1.215c.35-.249.669-.512.979-.765.273-.225.532-.436.794-.627a12.15,12.15,0,0,1,3.379-1.726,13.318,13.318,0,0,1,4.046-.665c.126,0,.251,0,.375.007l.013.052c1.634,6.222-.5,12.647-2.561,18.86-.237.713-.472,1.421-.7,2.124l-.069.21a7.8,7.8,0,0,0-.54,3.074,5.83,5.83,0,0,0,1.391,3.254,13.585,13.585,0,0,0,5.091,3.542,39.558,39.558,0,0,0,12.326,3.031,38.074,38.074,0,0,0,3.844.223c.655,0,1.29-.026,1.886-.075a3.35,3.35,0,0,0,2.935-2.353c2.014-1.032,2.172-3.99,2.237-5.219a33.379,33.379,0,0,0-.424-6.47c-.286-1.984-.691-4.094-1.237-6.451-.507-2.185-1.063-4.328-1.653-6.37-.138-.478-.288-.961-.433-1.428a23.149,23.149,0,0,1-1.058-4.379c-.014-.141-.022-.272-.027-.4l.163-.006h.073a12.156,12.156,0,0,1,1.627.155l.511.069a25.35,25.35,0,0,0,3.166.243,11.723,11.723,0,0,0,2.7-.288,6.3,6.3,0,0,0,4.236-3.215,6.559,6.559,0,0,0,1.985-2.658,14.348,14.348,0,0,0,.967-5.3A11.213,11.213,0,0,0,2034.325,4653.536Z"/>
    </clipPath>
    <linearGradient id="linear-gradient" x1="0.5" y1="2.116" x2="0.5" y2="83.169" gradientUnits="objectBoundingBox">
      <stop offset="0" stop-color="#00ffd5"/>
      <stop offset="1" stop-color="#01cb2d"/>
    </linearGradient>
    <linearGradient id="linear-gradient-2" x1="0.5" y1="0.029" x2="0.5" y2="0.675" xlink:href="#linear-gradient"/>
    <clipPath id="clip-path-2">
      <path id="Path_19903" data-name="Path 19903" d="M1997.6,4663.935l0-.009,0-.01,0-.01c-.011-.048-.024-.094-.035-.139h0l0-.011h0l-.016-.058h0a15.029,15.029,0,0,0-5.556-8.421,15.377,15.377,0,0,0-9.017-2.723,19.441,19.441,0,0,0-2.079.113,27.165,27.165,0,0,0-8.963,2.658,23.825,23.825,0,0,0-8.344,6.684c-.125.16-.242.328-.364.493-.4.429-.788.871-1.155,1.329-.079-.081-.158-.166-.236-.242a5.993,5.993,0,0,0-2.011-1.356,3.325,3.325,0,0,0-1.145-.212,3.173,3.173,0,0,0-2.69,1.588,6.637,6.637,0,0,0-.419.794,3.473,3.473,0,0,0-1.251,1.21,10.387,10.387,0,0,0-1.275,4.065,29.35,29.35,0,0,0-.267,4.071,65.863,65.863,0,0,0,.571,8.5c.338,2.739.792,5.557,1.351,8.378a28.551,28.551,0,0,0,2.6,7.914c1.635,3.06,3.8,4.923,6.251,5.388a6.481,6.481,0,0,0,1.192.112,7.13,7.13,0,0,0,6.012-3.583c.018-.031.036-.064.055-.1a7.648,7.648,0,0,0,1.614-1.907,19.27,19.27,0,0,0,2.725-9.225,19.209,19.209,0,0,0,2.278.14,17.363,17.363,0,0,0,5.965-1.029,19.516,19.516,0,0,0,8.871-6.858,22.251,22.251,0,0,0,4.533-7.215A17.05,17.05,0,0,0,1997.6,4663.935Zm-23.112,16.45a2.194,2.194,0,0,1-.519.061,4.063,4.063,0,0,1-2.674-1.242,2.111,2.111,0,0,1-.78-1.354h0a1.118,1.118,0,0,1,.083-.121c.138-.183.28-.37.426-.558.3-.322.6-.64.924-.935a3.6,3.6,0,0,1,2.007-1.128H1974a.984.984,0,0,1,.78.332,4.25,4.25,0,0,1,.734,2.714,2.374,2.374,0,0,0-.08.517,7.508,7.508,0,0,1-.568,1.565A1.57,1.57,0,0,1,1974.489,4680.385Z"/>
    </clipPath>
    <linearGradient id="linear-gradient-3" x1="0.5" y1="0.017" x2="0.5" y2="0.692" xlink:href="#linear-gradient"/>
    <linearGradient id="linear-gradient-4" x1="0.497" y1="-42.444" x2="0.497" y2="99.889" xlink:href="#linear-gradient"/>
    <linearGradient id="linear-gradient-5" x1="0.5" y1="-54.639" x2="0.5" y2="24.823" xlink:href="#linear-gradient"/>
    <clipPath id="clip-path-3">
      <path id="Path_19909" data-name="Path 19909" d="M1962.936,4656.56a5.909,5.909,0,0,0-.566-.771,6.272,6.272,0,0,0-.58-.67,13.787,13.787,0,0,0-10.1-4.247h-.145a10.729,10.729,0,0,0-3.406.539,14.4,14.4,0,0,0-2.9,1.409,25.957,25.957,0,0,0-4.765,3.869,36.491,36.491,0,0,0-2.969,3.392,38.38,38.38,0,0,0-5.447,7.927,29.793,29.793,0,0,0-3.643,11.968,19.587,19.587,0,0,0,3.314,12.048,27.256,27.256,0,0,0,8.882,8.228c2.875,1.7,7.293,3.732,12.015,3.79l.2,0a7.508,7.508,0,0,0,5.42-1.754,5.721,5.721,0,0,0,1.155-1.573,5.3,5.3,0,0,0,.514-.431,7.435,7.435,0,0,0,1.861-6.4c-.149-1.208-.735-4.185-2.95-5.727a3.477,3.477,0,0,0-1.978-.661h-.064a4.7,4.7,0,0,0-1.5.341c-.139.05-.271.1-.385.13-.483.14-.988.256-1.507.352a17.045,17.045,0,0,0,1.739-1.295,19.819,19.819,0,0,0,3.115-3.383,23.211,23.211,0,0,0,4.079-6.085,31.724,31.724,0,0,0,2.9-10.172C1965.528,4664.354,1965.356,4660.108,1962.936,4656.56Zm-22.322,24.219c-.01-.1-.018-.195-.024-.294a8.293,8.293,0,0,1,1.069-4.557,3.557,3.557,0,0,1,2.1-.94c.053,0,.108,0,.161.007a1.494,1.494,0,0,1,1.255,1.712h0v.009h0a3.814,3.814,0,0,1-.6,1.726A10.924,10.924,0,0,1,1940.614,4680.779Z"/>
    </clipPath>
    <linearGradient id="linear-gradient-6" x1="0.5" y1="-5.185" x2="0.5" y2="27.059" xlink:href="#linear-gradient"/>
    <linearGradient id="linear-gradient-7" x1="0.5" y1="-0.025" x2="0.5" y2="0.635" xlink:href="#linear-gradient"/>
    <clipPath id="clip-path-4">
      <path id="Path_19916" data-name="Path 19916" d="M1943.481,4691.448a7.173,7.173,0,0,0-1.075-3.239,3.523,3.523,0,0,0-.436-.568l-.011-.012,0,0a9.112,9.112,0,0,0-1.835-1.467,6.128,6.128,0,0,0-3.025-1.1l-.158,0a6.251,6.251,0,0,0-2.8.81c-.241.121-.481.245-.721.369-.507.262-.986.51-1.475.718a5.874,5.874,0,0,1-2.329.486,6.548,6.548,0,0,1-1.817-.27,12.4,12.4,0,0,1-3.97-2.083,16.036,16.036,0,0,1-5.548-7.343,8.782,8.782,0,0,1-.5-3.446h0a13.174,13.174,0,0,0,8.852,3.688,9.5,9.5,0,0,0,4.659-1.168,15.058,15.058,0,0,0,5.794-8.784,12.17,12.17,0,0,0-2.736-7.562,25.741,25.741,0,0,0-12.737-8.712,22.533,22.533,0,0,0-6.623-1.06,13.64,13.64,0,0,0-8.616,2.7,11.119,11.119,0,0,0-2.461,2.692,11.892,11.892,0,0,0-3.184,5.308,13.717,13.717,0,0,0,0,6.7,32.849,32.849,0,0,0,2.73,7.635,59.364,59.364,0,0,0,4,6.941,74.182,74.182,0,0,0,10.3,12.335c2.114,2.033,4.327,3.491,6.2,5.176,2.286,2.062,4.991,4.182,7.5,3.656.661-.139,1.325.207,1.973.207a7.79,7.79,0,0,0,5.9-2.552,9.172,9.172,0,0,0,.986-1.334,7.551,7.551,0,0,0,.684-.67A10.659,10.659,0,0,0,1943.481,4691.448Z"/>
    </clipPath>
    <linearGradient id="linear-gradient-8" x1="0.5" y1="-130.5" x2="0.5" y2="-26.791" xlink:href="#linear-gradient"/>
    <linearGradient id="linear-gradient-9" x1="0.5" y1="-0.079" x2="0.5" y2="0.58" xlink:href="#linear-gradient"/>
    <clipPath id="clip-path-5">
      <path id="Path_19922" data-name="Path 19922" d="M1971.213,4581.154a5.91,5.91,0,0,0-.565-.771,6.4,6.4,0,0,0-.58-.669,13.787,13.787,0,0,0-10.1-4.248h-.146a10.739,10.739,0,0,0-3.406.539,14.455,14.455,0,0,0-2.9,1.409,25.949,25.949,0,0,0-4.766,3.87,36.553,36.553,0,0,0-2.969,3.391,38.38,38.38,0,0,0-5.446,7.927,29.778,29.778,0,0,0-3.643,11.968,19.593,19.593,0,0,0,3.313,12.048,27.265,27.265,0,0,0,8.883,8.228c2.875,1.7,7.293,3.732,12.015,3.791h.2a7.509,7.509,0,0,0,5.42-1.754,5.738,5.738,0,0,0,1.155-1.573,5.35,5.35,0,0,0,.514-.431,7.438,7.438,0,0,0,1.86-6.4c-.149-1.208-.734-4.185-2.95-5.727a3.476,3.476,0,0,0-1.977-.66h-.065a4.709,4.709,0,0,0-1.5.341c-.14.05-.271.1-.385.13-.484.14-.988.256-1.507.352a17.119,17.119,0,0,0,1.738-1.295,19.756,19.756,0,0,0,3.115-3.383,23.186,23.186,0,0,0,4.079-6.084,31.714,31.714,0,0,0,2.9-10.172C1973.806,4588.948,1973.633,4584.7,1971.213,4581.154Zm-22.321,24.22c-.01-.1-.018-.2-.024-.295a8.3,8.3,0,0,1,1.069-4.557,3.551,3.551,0,0,1,2.095-.94c.054,0,.108,0,.162.007a1.5,1.5,0,0,1,1.255,1.712h0v.009h0a3.828,3.828,0,0,1-.6,1.726A10.947,10.947,0,0,1,1948.892,4605.374Z"/>
    </clipPath>
    <linearGradient id="linear-gradient-10" x1="0.5" y1="-5.187" x2="0.5" y2="27.072" xlink:href="#linear-gradient"/>
    <linearGradient id="linear-gradient-12" x1="0.463" y1="-396.789" x2="0.463" y2="185.128" xlink:href="#linear-gradient"/>
    <linearGradient id="linear-gradient-13" x1="0.5" y1="0.081" x2="0.5" y2="0.728" xlink:href="#linear-gradient"/>
    <linearGradient id="linear-gradient-14" x1="0.504" y1="-23.864" x2="0.504" y2="52.379" xlink:href="#linear-gradient"/>
    <clipPath id="clip-path-6">
      <path id="Path_19936" data-name="Path 19936" d="M1905.933,4578.13a6.79,6.79,0,0,0-1.575-1.738,3.551,3.551,0,0,0-.51-.364,3.074,3.074,0,0,0-.63-.338,7.271,7.271,0,0,0-3.175-.669,9.722,9.722,0,0,0-1.081.061,16.087,16.087,0,0,0-1.862.348c-.328.074-.638.145-.946.2a48.988,48.988,0,0,1-8.236.75q-.651.011-1.3.01c-2.4,0-4.957-.1-8.032-.32-1.936-.138-3.908-.339-5.815-.534-1.2-.123-2.447-.25-3.677-.361-.606-.054-1.214-.082-1.806-.082a15.206,15.206,0,0,0-7.727,1.924,13.553,13.553,0,0,0-4.316,4.048,15.032,15.032,0,0,0-3.356,5.189,19.1,19.1,0,0,0-1.17,4.741,12.446,12.446,0,0,0,.253,5.1,5.232,5.232,0,0,0,3.129,3.541,5.679,5.679,0,0,0,1.971.34,8.2,8.2,0,0,0,3.214-.715,11.484,11.484,0,0,0,2.144-1.215c.349-.249.669-.512.978-.765.274-.224.532-.436.8-.627a12.15,12.15,0,0,1,3.379-1.726,13.325,13.325,0,0,1,4.046-.664c.126,0,.251,0,.374.006l.014.052c1.633,6.222-.5,12.647-2.561,18.86-.237.713-.472,1.421-.7,2.124l-.069.21a7.8,7.8,0,0,0-.54,3.075,5.828,5.828,0,0,0,1.391,3.253,13.575,13.575,0,0,0,5.09,3.542,39.53,39.53,0,0,0,12.327,3.031,38.2,38.2,0,0,0,3.844.223c.655,0,1.289-.025,1.885-.075a3.348,3.348,0,0,0,2.935-2.353c2.015-1.032,2.172-3.989,2.237-5.219a33.316,33.316,0,0,0-.423-6.47c-.286-1.984-.691-4.094-1.238-6.451-.506-2.185-1.062-4.328-1.652-6.369-.139-.479-.288-.962-.433-1.429a22.96,22.96,0,0,1-1.058-4.379c-.014-.14-.022-.271-.027-.4l.163-.007h.073a12.077,12.077,0,0,1,1.627.155l.511.069a25.247,25.247,0,0,0,3.166.244,11.7,11.7,0,0,0,2.7-.289,6.3,6.3,0,0,0,4.237-3.215,6.556,6.556,0,0,0,1.984-2.658,14.328,14.328,0,0,0,.967-5.3A11.207,11.207,0,0,0,1905.933,4578.13Z"/>
    </clipPath>
    <linearGradient id="linear-gradient-15" x1="0.5" y1="2.117" x2="0.5" y2="83.17" xlink:href="#linear-gradient"/>
    <clipPath id="clip-path-7">
      <path id="Path_19944" data-name="Path 19944" d="M1873.916,4674.131c-.128-.768-.288-1.549-.476-2.322l0-.016,0-.015-.012-.046c-.024-.106-.053-.217-.083-.336h-.005l0-.007h.005c-.146-.559-.245-.935-.307-1.171a3.276,3.276,0,0,0-.178-.532c-2.035-6.6-5.379-11.352-9.952-14.138a22.366,22.366,0,0,0-10.239-3.011c-.752-.05-1.546-.075-2.426-.075-.994,0-1.977.032-2.807.063-.5.019-1.007.026-1.5.034-.366.006-.733.011-1.1.021a7.5,7.5,0,0,0-2.626.487,4.551,4.551,0,0,0-2.525,2.454,4.881,4.881,0,0,0-2.113,4.071,19.226,19.226,0,0,0-4.667,4.561,22.932,22.932,0,0,0-5.661,11.249,34.939,34.939,0,0,0-.514,10.716,23.734,23.734,0,0,0,2.47,9.138,15.224,15.224,0,0,0,7.741,6.774,30.579,30.579,0,0,0,10.719,1.975c.776.027,1.463.04,2.1.04a23.814,23.814,0,0,0,8.8-1.372,21.58,21.58,0,0,0,8.448-5.953c.388-.443.75-.907,1.1-1.38.193-.2.384-.411.57-.623C1873.3,4689.42,1875.218,4681.917,1873.916,4674.131Zm-32.815,11.444c.15-.187.288-.37.426-.554.064-.068.129-.137.191-.206.347-.388.7-.806,1.053-1.244a18.312,18.312,0,0,0,1.6-2.311,7.339,7.339,0,0,1,1.046,4.324h0v.008h0a6.586,6.586,0,0,1-.5,2.1,3.733,3.733,0,0,1-1.928.561,3.26,3.26,0,0,1-.816-.1,2.3,2.3,0,0,1-1.463-.968,1.21,1.21,0,0,1-.031-1.1C1840.819,4685.919,1840.96,4685.75,1841.1,4685.575Z"/>
    </clipPath>
    <linearGradient id="linear-gradient-17" x1="0.5" y1="-0.125" x2="0.5" y2="0.549" xlink:href="#linear-gradient"/>
    <linearGradient id="linear-gradient-18" x1="0.501" y1="-52.858" x2="0.501" y2="17.382" xlink:href="#linear-gradient"/>
    <linearGradient id="linear-gradient-19" x1="0.5" y1="-14.844" x2="0.5" y2="6.21" xlink:href="#linear-gradient"/>
    <clipPath id="clip-path-8">
      <path id="Path_19951" data-name="Path 19951" d="M1842.481,4691.448a7.161,7.161,0,0,0-1.075-3.239,3.518,3.518,0,0,0-.435-.568l-.011-.012,0,0a9.139,9.139,0,0,0-1.835-1.467,6.135,6.135,0,0,0-3.025-1.1l-.158,0a6.248,6.248,0,0,0-2.8.81c-.242.121-.481.245-.721.369-.507.262-.986.51-1.476.718a5.87,5.87,0,0,1-2.328.486,6.541,6.541,0,0,1-1.817-.27,12.4,12.4,0,0,1-3.97-2.083,16.037,16.037,0,0,1-5.548-7.343,8.764,8.764,0,0,1-.5-3.446h0a13.173,13.173,0,0,0,8.851,3.688,9.507,9.507,0,0,0,4.66-1.168,15.052,15.052,0,0,0,5.793-8.784,12.175,12.175,0,0,0-2.735-7.562,25.746,25.746,0,0,0-12.737-8.712,22.532,22.532,0,0,0-6.623-1.06,13.645,13.645,0,0,0-8.617,2.7,11.135,11.135,0,0,0-2.46,2.692,11.894,11.894,0,0,0-3.185,5.308,13.729,13.729,0,0,0,0,6.7,32.855,32.855,0,0,0,2.731,7.635,59.225,59.225,0,0,0,4,6.941,74.183,74.183,0,0,0,10.3,12.335c2.114,2.033,4.327,3.491,6.194,5.176,2.287,2.062,4.992,4.182,7.5,3.656.661-.139,1.324.207,1.972.207a7.792,7.792,0,0,0,5.9-2.552,9.166,9.166,0,0,0,.985-1.334,7.579,7.579,0,0,0,.685-.67A10.655,10.655,0,0,0,1842.481,4691.448Z"/>
    </clipPath>
    <linearGradient id="linear-gradient-20" x1="0.5" y1="-130.5" x2="0.5" y2="-26.791" xlink:href="#linear-gradient"/>
    <clipPath id="clip-path-9">
      <path id="Path_19959" data-name="Path 19959" d="M1908.712,4665.042c-.086-.389-.179-.774-.276-1.153a6.109,6.109,0,0,0-.174-.652c-.016-.054-.032-.111-.049-.168l-.022-.077a20.208,20.208,0,0,0-6.332-10.02,13.325,13.325,0,0,0-6.057-3,9.4,9.4,0,0,0-1.68-.152,8.884,8.884,0,0,0-5.211,1.659,11.585,11.585,0,0,0-2.859,3,12.364,12.364,0,0,0-1.711,2.071c-.089-.071-.174-.131-.24-.175l-.034-.024q-.248-.2-.5-.386a29.843,29.843,0,0,0-2.5-1.7,15.866,15.866,0,0,0-8.045-2.61,8.761,8.761,0,0,0-4.611,1.253,10.631,10.631,0,0,0-3.313,3.274c-2.757,2.618-3.922,6.611-4.571,9.58a51.019,51.019,0,0,0-.9,13.737c.136,2.5.425,4.912.689,6.946a54.96,54.96,0,0,0,1.24,6.784,17.482,17.482,0,0,0,2.589,6.133,7.4,7.4,0,0,0,2.565,2.242,8.311,8.311,0,0,0,1.672.6,9.318,9.318,0,0,0,2.417.394,4.747,4.747,0,0,0,1.162-.138,2.769,2.769,0,0,0,2.052-2.13,3.074,3.074,0,0,0,1.818-3.089,11.971,11.971,0,0,0-.271-2.611,23.943,23.943,0,0,0,9.856,8.253,15.084,15.084,0,0,0,8.622.894,13.067,13.067,0,0,0,7.215-3.961,18.085,18.085,0,0,0,1.512-1.848c.052-.054.107-.1.158-.156,3.229-3.431,5.29-8.43,6.3-15.283A48.759,48.759,0,0,0,1908.712,4665.042Z"/>
    </clipPath>
    <linearGradient id="linear-gradient-22" x1="0.501" y1="-6.76" x2="0.501" y2="29.923" xlink:href="#linear-gradient"/>
    <linearGradient id="linear-gradient-23" x1="0.5" y1="0.119" x2="0.5" y2="0.789" xlink:href="#linear-gradient"/>
  </defs>
  <g id="Group_10186" data-name="Group 10186" transform="translate(-49.905 -4565.417)">
    <g id="Group_8544" data-name="Group 8544" transform="translate(-1742.222)">
      <g id="Group_8543" data-name="Group 8543">
        <g id="Group_8539" data-name="Group 8539">
          <path id="Path_19882" data-name="Path 19882" d="M2038.649,4650.763a11.916,11.916,0,0,0-2.632-2.932,8.608,8.608,0,0,0-1.056-.754,8.324,8.324,0,0,0-1.353-.717,12.954,12.954,0,0,0-6.82-.978,20.964,20.964,0,0,0-2.441.446c-.258.059-.5.116-.747.161a43.928,43.928,0,0,1-7.373.664q-.609.01-1.217.009c-2.281,0-4.717-.1-7.668-.307-1.877-.134-3.8-.33-5.657-.521-1.223-.125-2.488-.253-3.738-.366-.758-.069-1.521-.1-2.267-.1a20.465,20.465,0,0,0-9.662,2.262,23.254,23.254,0,0,0-5.682-.066,32.331,32.331,0,0,0-10.681,3.156,30.642,30.642,0,0,0-3.271,1.866l0,0a11.507,11.507,0,0,0-.927-1.064,18.9,18.9,0,0,0-13.791-5.782h-.171a15.813,15.813,0,0,0-5.015.815,19.432,19.432,0,0,0-3.935,1.9,31,31,0,0,0-5.714,4.621q-.576.581-1.138,1.2a31.906,31.906,0,0,0-12.55-7.407,27.713,27.713,0,0,0-8.154-1.294h0a19.029,19.029,0,0,0-10.537,2.9,18.152,18.152,0,0,0-7.726-3.55,14.545,14.545,0,0,0-2.6-.235,14,14,0,0,0-8.2,2.621,16.129,16.129,0,0,0-2.59,2.33,20.563,20.563,0,0,0-10.3-3.114,13.823,13.823,0,0,0-7.275,2,14.652,14.652,0,0,0-2.134,1.579,28.451,28.451,0,0,0-10.613-2.682c-.868-.059-1.774-.087-2.769-.087-1.077,0-2.121.034-3,.067-.457.017-.929.024-1.391.031h-.061c-.365.006-.73.012-1.093.022a12.544,12.544,0,0,0-4.4.854,9.7,9.7,0,0,0-4.631,3.861,9.561,9.561,0,0,0-1.439,1.651,32,32,0,0,0-12.072-6.954,27.713,27.713,0,0,0-8.155-1.294h0a18.638,18.638,0,0,0-11.775,3.785,16.148,16.148,0,0,0-3.266,3.439,17.173,17.173,0,0,0-4.147,7.16,18.665,18.665,0,0,0-.1,9.194,37.863,37.863,0,0,0,3.139,8.833,64.528,64.528,0,0,0,4.348,7.545,79.337,79.337,0,0,0,11.013,13.191,51.208,51.208,0,0,0,3.995,3.383c.843.664,1.639,1.29,2.319,1.9,2.052,1.851,6.218,5.608,11.231,5a8.227,8.227,0,0,0,1.685.189,13.168,13.168,0,0,0,5.8-1.309,40.087,40.087,0,0,0,9.244,1.266c.838.029,1.583.043,2.277.043a28.679,28.679,0,0,0,10.635-1.712,25.659,25.659,0,0,0,3.415-1.609q.282.166.571.313a13.3,13.3,0,0,0,2.681.992,14.158,14.158,0,0,0,3.753.571,9.862,9.862,0,0,0,2.42-.294,7.825,7.825,0,0,0,4.551-3.146,24.658,24.658,0,0,0,5.68,3.334,20.239,20.239,0,0,0,11.55,1.2,18.111,18.111,0,0,0,9.994-5.488,22.918,22.918,0,0,0,1.69-2.025,24.673,24.673,0,0,0,4.139-6.053q1.636,1.784,3.369,3.45a51.389,51.389,0,0,0,3.995,3.383c.843.664,1.639,1.29,2.319,1.9,2.052,1.851,6.219,5.607,11.231,5a8.248,8.248,0,0,0,1.686.189,12.991,12.991,0,0,0,8.042-2.691,27.9,27.9,0,0,0,11.1,2.689l.258,0a14.067,14.067,0,0,0,6.416-1.378,11.856,11.856,0,0,0,3.339,1.176,11.6,11.6,0,0,0,2.148.2,12.246,12.246,0,0,0,10.05-5.5,12.771,12.771,0,0,0,2.042-2.59,25.125,25.125,0,0,0,2.752-6.68,22.141,22.141,0,0,0,5.564-1.241,22.948,22.948,0,0,0,5.843-3.168,11.681,11.681,0,0,0-.563,4.379,11.008,11.008,0,0,0,2.533,6.114,18.615,18.615,0,0,0,6.971,4.983,44.54,44.54,0,0,0,13.912,3.454,43.023,43.023,0,0,0,4.358.249c.8,0,1.577-.032,2.313-.093a8.262,8.262,0,0,0,6.507-4.015c3.063-2.655,3.287-6.878,3.368-8.406a38.111,38.111,0,0,0-.469-7.474c-.308-2.129-.739-4.378-1.318-6.877-.463-2-.965-3.959-1.5-5.85a16.049,16.049,0,0,0,2.736-.392,11.476,11.476,0,0,0,7.045-4.875,11.762,11.762,0,0,0,2.738-4.007,19.314,19.314,0,0,0,1.367-7.186A16.2,16.2,0,0,0,2038.649,4650.763Z" fill="#fff"/>
          <path id="Path_19883" data-name="Path 19883" d="M1974.661,4577.176h0a11.673,11.673,0,0,0-.928-1.064,18.9,18.9,0,0,0-13.79-5.782h-.172a15.812,15.812,0,0,0-5.014.815,19.465,19.465,0,0,0-3.936,1.9,30.946,30.946,0,0,0-5.713,4.621c-.712.716-1.408,1.473-2.083,2.263a16.86,16.86,0,0,0-7.379-1.486,25.363,25.363,0,0,0-2.8.158,25.016,25.016,0,0,0-3.844.73c-.64.176-1.218.363-1.766.574-.434.166-.807.328-1.166.507a7.286,7.286,0,0,0-2.334,1.7q-.1-.3-.2-.6a25.981,25.981,0,0,0-4.657-8.677,15.445,15.445,0,0,0-11.045-5.321c-.449-.028-.912-.041-1.378-.041a38.435,38.435,0,0,0-8.6,1.191,71.2,71.2,0,0,0-8.817,2.456l-.286.1c-.3.01-.606.017-.917.023-.405.006-.811.01-1.216.01-2.281,0-4.718-.1-7.668-.308-1.877-.134-3.8-.33-5.658-.52-1.223-.125-2.488-.254-3.738-.367-.757-.068-1.52-.1-2.267-.1a20.258,20.258,0,0,0-10.3,2.617,18.716,18.716,0,0,0-5.7,5.192,20.353,20.353,0,0,0-4.185,6.624,24.247,24.247,0,0,0-1.487,6.015,17.414,17.414,0,0,0,.444,7.19,10.39,10.39,0,0,0,6.261,6.857,12.108,12.108,0,0,0,8.986-.472,16.648,16.648,0,0,0,3.108-1.756c.483-.345.9-.687,1.252-.975.19-.155.367-.305.549-.437.053-.038.106-.076.159-.112a52.042,52.042,0,0,1-2.81,10.9c-.236.71-.47,1.415-.692,2.1l-.07.214a12.561,12.561,0,0,0-.778,5.054,11,11,0,0,0,2.533,6.113,18.617,18.617,0,0,0,6.971,4.983,44.568,44.568,0,0,0,13.912,3.455,43.286,43.286,0,0,0,4.358.248c.8,0,1.576-.031,2.313-.093a8.26,8.26,0,0,0,6.507-4.015,8.665,8.665,0,0,0,2.12-2.813q.218.435.45.875l.077.146c.755,1.433,2.522,4.79,6.572,5.662a11.06,11.06,0,0,0,2.352.238c.56,0,1.055-.034,1.458-.062.123-.009.245-.017.359-.023l2.391-.117a55.112,55.112,0,0,0,6.982-.637,14.594,14.594,0,0,0,3.22-.892,8.141,8.141,0,0,0,2.762-1.816c.094-.1.185-.195.271-.3a7.871,7.871,0,0,0,.808-1.163c.074-.06.148-.124.223-.19a7.086,7.086,0,0,0,1.936.591,17.4,17.4,0,0,0,2.636.2l.262,0a16.767,16.767,0,0,0,6.089-1.143h0a7.324,7.324,0,0,0,2.664-1.729,34.587,34.587,0,0,0,4.026,2.778c3.413,2.014,8.71,4.431,14.568,4.5l.259,0a12.511,12.511,0,0,0,8.963-3.172,10.642,10.642,0,0,0,1.6-1.942l.065-.061a12.485,12.485,0,0,0,3.416-10.751,14.143,14.143,0,0,0-3.4-7.824,29.5,29.5,0,0,0,3.487-5.679,36.9,36.9,0,0,0,3.362-11.842c.388-3.775.171-9.26-3.033-14.076A11.392,11.392,0,0,0,1974.661,4577.176Z" fill="#fff"/>
        </g>
        <g id="Group_8540" data-name="Group 8540">
          <path id="Path_19884" data-name="Path 19884" d="M2038.649,4650.763a11.916,11.916,0,0,0-2.632-2.932,8.608,8.608,0,0,0-1.056-.754,8.324,8.324,0,0,0-1.353-.717,12.954,12.954,0,0,0-6.82-.978,20.964,20.964,0,0,0-2.441.446c-.258.059-.5.116-.747.161a43.928,43.928,0,0,1-7.373.664q-.609.01-1.217.009c-2.281,0-4.717-.1-7.668-.307-1.877-.134-3.8-.33-5.657-.521-1.223-.125-2.488-.253-3.738-.366-.758-.069-1.521-.1-2.267-.1a20.465,20.465,0,0,0-9.662,2.262,23.254,23.254,0,0,0-5.682-.066,32.331,32.331,0,0,0-10.681,3.156,30.642,30.642,0,0,0-3.271,1.866l0,0a11.507,11.507,0,0,0-.927-1.064,18.9,18.9,0,0,0-13.791-5.782h-.171a15.813,15.813,0,0,0-5.015.815,19.432,19.432,0,0,0-3.935,1.9,31,31,0,0,0-5.714,4.621q-.576.581-1.138,1.2a31.906,31.906,0,0,0-12.55-7.407,27.713,27.713,0,0,0-8.154-1.294h0a19.029,19.029,0,0,0-10.537,2.9,18.152,18.152,0,0,0-7.726-3.55,14.545,14.545,0,0,0-2.6-.235,14,14,0,0,0-8.2,2.621,16.129,16.129,0,0,0-2.59,2.33,20.563,20.563,0,0,0-10.3-3.114,13.823,13.823,0,0,0-7.275,2,14.652,14.652,0,0,0-2.134,1.579,28.451,28.451,0,0,0-10.613-2.682c-.868-.059-1.774-.087-2.769-.087-1.077,0-2.121.034-3,.067-.457.017-.929.024-1.391.031h-.061c-.365.006-.73.012-1.093.022a12.544,12.544,0,0,0-4.4.854,9.7,9.7,0,0,0-4.631,3.861,9.561,9.561,0,0,0-1.439,1.651,32,32,0,0,0-12.072-6.954,27.713,27.713,0,0,0-8.155-1.294h0a18.638,18.638,0,0,0-11.775,3.785,16.148,16.148,0,0,0-3.266,3.439,17.173,17.173,0,0,0-4.147,7.16,18.665,18.665,0,0,0-.1,9.194,37.863,37.863,0,0,0,3.139,8.833,64.528,64.528,0,0,0,4.348,7.545,79.337,79.337,0,0,0,11.013,13.191,51.208,51.208,0,0,0,3.995,3.383c.843.664,1.639,1.29,2.319,1.9,2.052,1.851,6.218,5.608,11.231,5a8.227,8.227,0,0,0,1.685.189,13.168,13.168,0,0,0,5.8-1.309,40.087,40.087,0,0,0,9.244,1.266c.838.029,1.583.043,2.277.043a28.679,28.679,0,0,0,10.635-1.712,25.659,25.659,0,0,0,3.415-1.609q.282.166.571.313a13.3,13.3,0,0,0,2.681.992,14.158,14.158,0,0,0,3.753.571,9.862,9.862,0,0,0,2.42-.294,7.825,7.825,0,0,0,4.551-3.146,24.658,24.658,0,0,0,5.68,3.334,20.239,20.239,0,0,0,11.55,1.2,18.111,18.111,0,0,0,9.994-5.488,22.918,22.918,0,0,0,1.69-2.025,24.673,24.673,0,0,0,4.139-6.053q1.636,1.784,3.369,3.45a51.389,51.389,0,0,0,3.995,3.383c.843.664,1.639,1.29,2.319,1.9,2.052,1.851,6.219,5.607,11.231,5a8.248,8.248,0,0,0,1.686.189,12.991,12.991,0,0,0,8.042-2.691,27.9,27.9,0,0,0,11.1,2.689l.258,0a14.067,14.067,0,0,0,6.416-1.378,11.856,11.856,0,0,0,3.339,1.176,11.6,11.6,0,0,0,2.148.2,12.246,12.246,0,0,0,10.05-5.5,12.771,12.771,0,0,0,2.042-2.59,25.125,25.125,0,0,0,2.752-6.68,22.141,22.141,0,0,0,5.564-1.241,22.948,22.948,0,0,0,5.843-3.168,11.681,11.681,0,0,0-.563,4.379,11.008,11.008,0,0,0,2.533,6.114,18.615,18.615,0,0,0,6.971,4.983,44.54,44.54,0,0,0,13.912,3.454,43.023,43.023,0,0,0,4.358.249c.8,0,1.577-.032,2.313-.093a8.262,8.262,0,0,0,6.507-4.015c3.063-2.655,3.287-6.878,3.368-8.406a38.111,38.111,0,0,0-.469-7.474c-.308-2.129-.739-4.378-1.318-6.877-.463-2-.965-3.959-1.5-5.85a16.049,16.049,0,0,0,2.736-.392,11.476,11.476,0,0,0,7.045-4.875,11.762,11.762,0,0,0,2.738-4.007,19.314,19.314,0,0,0,1.367-7.186A16.2,16.2,0,0,0,2038.649,4650.763Z" fill="#fff"/>
          <path id="Path_19885" data-name="Path 19885" d="M1974.661,4577.176h0a11.673,11.673,0,0,0-.928-1.064,18.9,18.9,0,0,0-13.79-5.782h-.172a15.812,15.812,0,0,0-5.014.815,19.465,19.465,0,0,0-3.936,1.9,30.946,30.946,0,0,0-5.713,4.621c-.712.716-1.408,1.473-2.083,2.263a16.86,16.86,0,0,0-7.379-1.486,25.363,25.363,0,0,0-2.8.158,25.016,25.016,0,0,0-3.844.73c-.64.176-1.218.363-1.766.574-.434.166-.807.328-1.166.507a7.286,7.286,0,0,0-2.334,1.7q-.1-.3-.2-.6a25.981,25.981,0,0,0-4.657-8.677,15.445,15.445,0,0,0-11.045-5.321c-.449-.028-.912-.041-1.378-.041a38.435,38.435,0,0,0-8.6,1.191,71.2,71.2,0,0,0-8.817,2.456l-.286.1c-.3.01-.606.017-.917.023-.405.006-.811.01-1.216.01-2.281,0-4.718-.1-7.668-.308-1.877-.134-3.8-.33-5.658-.52-1.223-.125-2.488-.254-3.738-.367-.757-.068-1.52-.1-2.267-.1a20.258,20.258,0,0,0-10.3,2.617,18.716,18.716,0,0,0-5.7,5.192,20.353,20.353,0,0,0-4.185,6.624,24.247,24.247,0,0,0-1.487,6.015,17.414,17.414,0,0,0,.444,7.19,10.39,10.39,0,0,0,6.261,6.857,12.108,12.108,0,0,0,8.986-.472,16.648,16.648,0,0,0,3.108-1.756c.483-.345.9-.687,1.252-.975.19-.155.367-.305.549-.437.053-.038.106-.076.159-.112a52.042,52.042,0,0,1-2.81,10.9c-.236.71-.47,1.415-.692,2.1l-.07.214a12.561,12.561,0,0,0-.778,5.054,11,11,0,0,0,2.533,6.113,18.617,18.617,0,0,0,6.971,4.983,44.568,44.568,0,0,0,13.912,3.455,43.286,43.286,0,0,0,4.358.248c.8,0,1.576-.031,2.313-.093a8.26,8.26,0,0,0,6.507-4.015,8.665,8.665,0,0,0,2.12-2.813q.218.435.45.875l.077.146c.755,1.433,2.522,4.79,6.572,5.662a11.06,11.06,0,0,0,2.352.238c.56,0,1.055-.034,1.458-.062.123-.009.245-.017.359-.023l2.391-.117a55.112,55.112,0,0,0,6.982-.637,14.594,14.594,0,0,0,3.22-.892,8.141,8.141,0,0,0,2.762-1.816c.094-.1.185-.195.271-.3a7.871,7.871,0,0,0,.808-1.163c.074-.06.148-.124.223-.19a7.086,7.086,0,0,0,1.936.591,17.4,17.4,0,0,0,2.636.2l.262,0a16.767,16.767,0,0,0,6.089-1.143h0a7.324,7.324,0,0,0,2.664-1.729,34.587,34.587,0,0,0,4.026,2.778c3.413,2.014,8.71,4.431,14.568,4.5l.259,0a12.511,12.511,0,0,0,8.963-3.172,10.642,10.642,0,0,0,1.6-1.942l.065-.061a12.485,12.485,0,0,0,3.416-10.751,14.143,14.143,0,0,0-3.4-7.824,29.5,29.5,0,0,0,3.487-5.679,36.9,36.9,0,0,0,3.362-11.842c.388-3.775.171-9.26-3.033-14.076A11.392,11.392,0,0,0,1974.661,4577.176Z" fill="#fff"/>
        </g>
        <g id="Group_8541" data-name="Group 8541">
          <path id="Path_19886" data-name="Path 19886" d="M2038.649,4650.763a11.916,11.916,0,0,0-2.632-2.932,8.608,8.608,0,0,0-1.056-.754,8.324,8.324,0,0,0-1.353-.717,12.954,12.954,0,0,0-6.82-.978,20.964,20.964,0,0,0-2.441.446c-.258.059-.5.116-.747.161a43.928,43.928,0,0,1-7.373.664q-.609.01-1.217.009c-2.281,0-4.717-.1-7.668-.307-1.877-.134-3.8-.33-5.657-.521-1.223-.125-2.488-.253-3.738-.366-.758-.069-1.521-.1-2.267-.1a20.465,20.465,0,0,0-9.662,2.262,23.254,23.254,0,0,0-5.682-.066,32.331,32.331,0,0,0-10.681,3.156,30.642,30.642,0,0,0-3.271,1.866l0,0a11.507,11.507,0,0,0-.927-1.064,18.9,18.9,0,0,0-13.791-5.782h-.171a15.813,15.813,0,0,0-5.015.815,19.432,19.432,0,0,0-3.935,1.9,31,31,0,0,0-5.714,4.621q-.576.581-1.138,1.2a31.906,31.906,0,0,0-12.55-7.407,27.713,27.713,0,0,0-8.154-1.294h0a19.029,19.029,0,0,0-10.537,2.9,18.152,18.152,0,0,0-7.726-3.55,14.545,14.545,0,0,0-2.6-.235,14,14,0,0,0-8.2,2.621,16.129,16.129,0,0,0-2.59,2.33,20.563,20.563,0,0,0-10.3-3.114,13.823,13.823,0,0,0-7.275,2,14.652,14.652,0,0,0-2.134,1.579,28.451,28.451,0,0,0-10.613-2.682c-.868-.059-1.774-.087-2.769-.087-1.077,0-2.121.034-3,.067-.457.017-.929.024-1.391.031h-.061c-.365.006-.73.012-1.093.022a12.544,12.544,0,0,0-4.4.854,9.7,9.7,0,0,0-4.631,3.861,9.561,9.561,0,0,0-1.439,1.651,32,32,0,0,0-12.072-6.954,27.713,27.713,0,0,0-8.155-1.294h0a18.638,18.638,0,0,0-11.775,3.785,16.148,16.148,0,0,0-3.266,3.439,17.173,17.173,0,0,0-4.147,7.16,18.665,18.665,0,0,0-.1,9.194,37.863,37.863,0,0,0,3.139,8.833,64.528,64.528,0,0,0,4.348,7.545,79.337,79.337,0,0,0,11.013,13.191,51.208,51.208,0,0,0,3.995,3.383c.843.664,1.639,1.29,2.319,1.9,2.052,1.851,6.218,5.608,11.231,5a8.227,8.227,0,0,0,1.685.189,13.168,13.168,0,0,0,5.8-1.309,40.087,40.087,0,0,0,9.244,1.266c.838.029,1.583.043,2.277.043a28.679,28.679,0,0,0,10.635-1.712,25.659,25.659,0,0,0,3.415-1.609q.282.166.571.313a13.3,13.3,0,0,0,2.681.992,14.158,14.158,0,0,0,3.753.571,9.862,9.862,0,0,0,2.42-.294,7.825,7.825,0,0,0,4.551-3.146,24.658,24.658,0,0,0,5.68,3.334,20.239,20.239,0,0,0,11.55,1.2,18.111,18.111,0,0,0,9.994-5.488,22.918,22.918,0,0,0,1.69-2.025,24.673,24.673,0,0,0,4.139-6.053q1.636,1.784,3.369,3.45a51.389,51.389,0,0,0,3.995,3.383c.843.664,1.639,1.29,2.319,1.9,2.052,1.851,6.219,5.607,11.231,5a8.248,8.248,0,0,0,1.686.189,12.991,12.991,0,0,0,8.042-2.691,27.9,27.9,0,0,0,11.1,2.689l.258,0a14.067,14.067,0,0,0,6.416-1.378,11.856,11.856,0,0,0,3.339,1.176,11.6,11.6,0,0,0,2.148.2,12.246,12.246,0,0,0,10.05-5.5,12.771,12.771,0,0,0,2.042-2.59,25.125,25.125,0,0,0,2.752-6.68,22.141,22.141,0,0,0,5.564-1.241,22.948,22.948,0,0,0,5.843-3.168,11.681,11.681,0,0,0-.563,4.379,11.008,11.008,0,0,0,2.533,6.114,18.615,18.615,0,0,0,6.971,4.983,44.54,44.54,0,0,0,13.912,3.454,43.023,43.023,0,0,0,4.358.249c.8,0,1.577-.032,2.313-.093a8.262,8.262,0,0,0,6.507-4.015c3.063-2.655,3.287-6.878,3.368-8.406a38.111,38.111,0,0,0-.469-7.474c-.308-2.129-.739-4.378-1.318-6.877-.463-2-.965-3.959-1.5-5.85a16.049,16.049,0,0,0,2.736-.392,11.476,11.476,0,0,0,7.045-4.875,11.762,11.762,0,0,0,2.738-4.007,19.314,19.314,0,0,0,1.367-7.186A16.2,16.2,0,0,0,2038.649,4650.763Z" fill="none" stroke="#fff" stroke-miterlimit="10" stroke-width="4.11"/>
          <path id="Path_19887" data-name="Path 19887" d="M1974.661,4577.176h0a11.673,11.673,0,0,0-.928-1.064,18.9,18.9,0,0,0-13.79-5.782h-.172a15.812,15.812,0,0,0-5.014.815,19.465,19.465,0,0,0-3.936,1.9,30.946,30.946,0,0,0-5.713,4.621c-.712.716-1.408,1.473-2.083,2.263a16.86,16.86,0,0,0-7.379-1.486,25.363,25.363,0,0,0-2.8.158,25.016,25.016,0,0,0-3.844.73c-.64.176-1.218.363-1.766.574-.434.166-.807.328-1.166.507a7.286,7.286,0,0,0-2.334,1.7q-.1-.3-.2-.6a25.981,25.981,0,0,0-4.657-8.677,15.445,15.445,0,0,0-11.045-5.321c-.449-.028-.912-.041-1.378-.041a38.435,38.435,0,0,0-8.6,1.191,71.2,71.2,0,0,0-8.817,2.456l-.286.1c-.3.01-.606.017-.917.023-.405.006-.811.01-1.216.01-2.281,0-4.718-.1-7.668-.308-1.877-.134-3.8-.33-5.658-.52-1.223-.125-2.488-.254-3.738-.367-.757-.068-1.52-.1-2.267-.1a20.258,20.258,0,0,0-10.3,2.617,18.716,18.716,0,0,0-5.7,5.192,20.353,20.353,0,0,0-4.185,6.624,24.247,24.247,0,0,0-1.487,6.015,17.414,17.414,0,0,0,.444,7.19,10.39,10.39,0,0,0,6.261,6.857,12.108,12.108,0,0,0,8.986-.472,16.648,16.648,0,0,0,3.108-1.756c.483-.345.9-.687,1.252-.975.19-.155.367-.305.549-.437.053-.038.106-.076.159-.112a52.042,52.042,0,0,1-2.81,10.9c-.236.71-.47,1.415-.692,2.1l-.07.214a12.561,12.561,0,0,0-.778,5.054,11,11,0,0,0,2.533,6.113,18.617,18.617,0,0,0,6.971,4.983,44.568,44.568,0,0,0,13.912,3.455,43.286,43.286,0,0,0,4.358.248c.8,0,1.576-.031,2.313-.093a8.26,8.26,0,0,0,6.507-4.015,8.665,8.665,0,0,0,2.12-2.813q.218.435.45.875l.077.146c.755,1.433,2.522,4.79,6.572,5.662a11.06,11.06,0,0,0,2.352.238c.56,0,1.055-.034,1.458-.062.123-.009.245-.017.359-.023l2.391-.117a55.112,55.112,0,0,0,6.982-.637,14.594,14.594,0,0,0,3.22-.892,8.141,8.141,0,0,0,2.762-1.816c.094-.1.185-.195.271-.3a7.871,7.871,0,0,0,.808-1.163c.074-.06.148-.124.223-.19a7.086,7.086,0,0,0,1.936.591,17.4,17.4,0,0,0,2.636.2l.262,0a16.767,16.767,0,0,0,6.089-1.143h0a7.324,7.324,0,0,0,2.664-1.729,34.587,34.587,0,0,0,4.026,2.778c3.413,2.014,8.71,4.431,14.568,4.5l.259,0a12.511,12.511,0,0,0,8.963-3.172,10.642,10.642,0,0,0,1.6-1.942l.065-.061a12.485,12.485,0,0,0,3.416-10.751,14.143,14.143,0,0,0-3.4-7.824,29.5,29.5,0,0,0,3.487-5.679,36.9,36.9,0,0,0,3.362-11.842c.388-3.775.171-9.26-3.033-14.076A11.392,11.392,0,0,0,1974.661,4577.176Z" fill="none" stroke="#fff" stroke-miterlimit="10" stroke-width="4.11"/>
        </g>
        <g id="Group_8542" data-name="Group 8542">
          <path id="Path_19888" data-name="Path 19888" d="M2038.649,4650.763a11.916,11.916,0,0,0-2.632-2.932,8.608,8.608,0,0,0-1.056-.754,8.324,8.324,0,0,0-1.353-.717,12.954,12.954,0,0,0-6.82-.978,20.964,20.964,0,0,0-2.441.446c-.258.059-.5.116-.747.161a43.928,43.928,0,0,1-7.373.664q-.609.01-1.217.009c-2.281,0-4.717-.1-7.668-.307-1.877-.134-3.8-.33-5.657-.521-1.223-.125-2.488-.253-3.738-.366-.758-.069-1.521-.1-2.267-.1a20.465,20.465,0,0,0-9.662,2.262,23.254,23.254,0,0,0-5.682-.066,32.331,32.331,0,0,0-10.681,3.156,30.642,30.642,0,0,0-3.271,1.866l0,0a11.507,11.507,0,0,0-.927-1.064,18.9,18.9,0,0,0-13.791-5.782h-.171a15.813,15.813,0,0,0-5.015.815,19.432,19.432,0,0,0-3.935,1.9,31,31,0,0,0-5.714,4.621q-.576.581-1.138,1.2a31.906,31.906,0,0,0-12.55-7.407,27.713,27.713,0,0,0-8.154-1.294h0a19.029,19.029,0,0,0-10.537,2.9,18.152,18.152,0,0,0-7.726-3.55,14.545,14.545,0,0,0-2.6-.235,14,14,0,0,0-8.2,2.621,16.129,16.129,0,0,0-2.59,2.33,20.563,20.563,0,0,0-10.3-3.114,13.823,13.823,0,0,0-7.275,2,14.652,14.652,0,0,0-2.134,1.579,28.451,28.451,0,0,0-10.613-2.682c-.868-.059-1.774-.087-2.769-.087-1.077,0-2.121.034-3,.067-.457.017-.929.024-1.391.031h-.061c-.365.006-.73.012-1.093.022a12.544,12.544,0,0,0-4.4.854,9.7,9.7,0,0,0-4.631,3.861,9.561,9.561,0,0,0-1.439,1.651,32,32,0,0,0-12.072-6.954,27.713,27.713,0,0,0-8.155-1.294h0a18.638,18.638,0,0,0-11.775,3.785,16.148,16.148,0,0,0-3.266,3.439,17.173,17.173,0,0,0-4.147,7.16,18.665,18.665,0,0,0-.1,9.194,37.863,37.863,0,0,0,3.139,8.833,64.528,64.528,0,0,0,4.348,7.545,79.337,79.337,0,0,0,11.013,13.191,51.208,51.208,0,0,0,3.995,3.383c.843.664,1.639,1.29,2.319,1.9,2.052,1.851,6.218,5.608,11.231,5a8.227,8.227,0,0,0,1.685.189,13.168,13.168,0,0,0,5.8-1.309,40.087,40.087,0,0,0,9.244,1.266c.838.029,1.583.043,2.277.043a28.679,28.679,0,0,0,10.635-1.712,25.659,25.659,0,0,0,3.415-1.609q.282.166.571.313a13.3,13.3,0,0,0,2.681.992,14.158,14.158,0,0,0,3.753.571,9.862,9.862,0,0,0,2.42-.294,7.825,7.825,0,0,0,4.551-3.146,24.658,24.658,0,0,0,5.68,3.334,20.239,20.239,0,0,0,11.55,1.2,18.111,18.111,0,0,0,9.994-5.488,22.918,22.918,0,0,0,1.69-2.025,24.673,24.673,0,0,0,4.139-6.053q1.636,1.784,3.369,3.45a51.389,51.389,0,0,0,3.995,3.383c.843.664,1.639,1.29,2.319,1.9,2.052,1.851,6.219,5.607,11.231,5a8.248,8.248,0,0,0,1.686.189,12.991,12.991,0,0,0,8.042-2.691,27.9,27.9,0,0,0,11.1,2.689l.258,0a14.067,14.067,0,0,0,6.416-1.378,11.856,11.856,0,0,0,3.339,1.176,11.6,11.6,0,0,0,2.148.2,12.246,12.246,0,0,0,10.05-5.5,12.771,12.771,0,0,0,2.042-2.59,25.125,25.125,0,0,0,2.752-6.68,22.141,22.141,0,0,0,5.564-1.241,22.948,22.948,0,0,0,5.843-3.168,11.681,11.681,0,0,0-.563,4.379,11.008,11.008,0,0,0,2.533,6.114,18.615,18.615,0,0,0,6.971,4.983,44.54,44.54,0,0,0,13.912,3.454,43.023,43.023,0,0,0,4.358.249c.8,0,1.577-.032,2.313-.093a8.262,8.262,0,0,0,6.507-4.015c3.063-2.655,3.287-6.878,3.368-8.406a38.111,38.111,0,0,0-.469-7.474c-.308-2.129-.739-4.378-1.318-6.877-.463-2-.965-3.959-1.5-5.85a16.049,16.049,0,0,0,2.736-.392,11.476,11.476,0,0,0,7.045-4.875,11.762,11.762,0,0,0,2.738-4.007,19.314,19.314,0,0,0,1.367-7.186A16.2,16.2,0,0,0,2038.649,4650.763Z" fill="none" stroke="#000" stroke-miterlimit="10" stroke-width="3.082"/>
          <path id="Path_19889" data-name="Path 19889" d="M1974.661,4577.176h0a11.673,11.673,0,0,0-.928-1.064,18.9,18.9,0,0,0-13.79-5.782h-.172a15.812,15.812,0,0,0-5.014.815,19.465,19.465,0,0,0-3.936,1.9,30.946,30.946,0,0,0-5.713,4.621c-.712.716-1.408,1.473-2.083,2.263a16.86,16.86,0,0,0-7.379-1.486,25.363,25.363,0,0,0-2.8.158,25.016,25.016,0,0,0-3.844.73c-.64.176-1.218.363-1.766.574-.434.166-.807.328-1.166.507a7.286,7.286,0,0,0-2.334,1.7q-.1-.3-.2-.6a25.981,25.981,0,0,0-4.657-8.677,15.445,15.445,0,0,0-11.045-5.321c-.449-.028-.912-.041-1.378-.041a38.435,38.435,0,0,0-8.6,1.191,71.2,71.2,0,0,0-8.817,2.456l-.286.1c-.3.01-.606.017-.917.023-.405.006-.811.01-1.216.01-2.281,0-4.718-.1-7.668-.308-1.877-.134-3.8-.33-5.658-.52-1.223-.125-2.488-.254-3.738-.367-.757-.068-1.52-.1-2.267-.1a20.258,20.258,0,0,0-10.3,2.617,18.716,18.716,0,0,0-5.7,5.192,20.353,20.353,0,0,0-4.185,6.624,24.247,24.247,0,0,0-1.487,6.015,17.414,17.414,0,0,0,.444,7.19,10.39,10.39,0,0,0,6.261,6.857,12.108,12.108,0,0,0,8.986-.472,16.648,16.648,0,0,0,3.108-1.756c.483-.345.9-.687,1.252-.975.19-.155.367-.305.549-.437.053-.038.106-.076.159-.112a52.042,52.042,0,0,1-2.81,10.9c-.236.71-.47,1.415-.692,2.1l-.07.214a12.561,12.561,0,0,0-.778,5.054,11,11,0,0,0,2.533,6.113,18.617,18.617,0,0,0,6.971,4.983,44.568,44.568,0,0,0,13.912,3.455,43.286,43.286,0,0,0,4.358.248c.8,0,1.576-.031,2.313-.093a8.26,8.26,0,0,0,6.507-4.015,8.665,8.665,0,0,0,2.12-2.813q.218.435.45.875l.077.146c.755,1.433,2.522,4.79,6.572,5.662a11.06,11.06,0,0,0,2.352.238c.56,0,1.055-.034,1.458-.062.123-.009.245-.017.359-.023l2.391-.117a55.112,55.112,0,0,0,6.982-.637,14.594,14.594,0,0,0,3.22-.892,8.141,8.141,0,0,0,2.762-1.816c.094-.1.185-.195.271-.3a7.871,7.871,0,0,0,.808-1.163c.074-.06.148-.124.223-.19a7.086,7.086,0,0,0,1.936.591,17.4,17.4,0,0,0,2.636.2l.262,0a16.767,16.767,0,0,0,6.089-1.143h0a7.324,7.324,0,0,0,2.664-1.729,34.587,34.587,0,0,0,4.026,2.778c3.413,2.014,8.71,4.431,14.568,4.5l.259,0a12.511,12.511,0,0,0,8.963-3.172,10.642,10.642,0,0,0,1.6-1.942l.065-.061a12.485,12.485,0,0,0,3.416-10.751,14.143,14.143,0,0,0-3.4-7.824,29.5,29.5,0,0,0,3.487-5.679,36.9,36.9,0,0,0,3.362-11.842c.388-3.775.171-9.26-3.033-14.076A11.392,11.392,0,0,0,1974.661,4577.176Z" fill="none" stroke="#000" stroke-miterlimit="10" stroke-width="3.082"/>
        </g>
      </g>
    </g>
    <g id="Group_8548" data-name="Group 8548" transform="translate(-1742.222)">
      <path id="Path_19890" data-name="Path 19890" d="M2034.325,4653.536a6.747,6.747,0,0,0-1.575-1.738,3.458,3.458,0,0,0-.51-.364,3.049,3.049,0,0,0-.63-.338,7.247,7.247,0,0,0-3.175-.669,9.736,9.736,0,0,0-1.081.061,16.52,16.52,0,0,0-1.862.347c-.328.075-.637.146-.945.2a49.164,49.164,0,0,1-8.237.75q-.65.01-1.3.01c-2.406,0-4.958-.1-8.033-.32-1.936-.138-3.908-.339-5.814-.534-1.2-.123-2.448-.25-3.678-.361-.606-.054-1.213-.082-1.8-.082a15.207,15.207,0,0,0-7.728,1.924,13.565,13.565,0,0,0-4.316,4.048,15.03,15.03,0,0,0-3.356,5.189,19.141,19.141,0,0,0-1.17,4.74,12.449,12.449,0,0,0,.253,5.1,5.235,5.235,0,0,0,3.129,3.541,5.683,5.683,0,0,0,1.971.339,8.2,8.2,0,0,0,3.214-.714,11.536,11.536,0,0,0,2.144-1.215c.35-.249.669-.512.979-.765.273-.225.532-.436.794-.627a12.15,12.15,0,0,1,3.379-1.726,13.318,13.318,0,0,1,4.046-.665c.126,0,.251,0,.375.007l.013.052c1.634,6.222-.5,12.647-2.561,18.86-.237.713-.472,1.421-.7,2.124l-.069.21a7.8,7.8,0,0,0-.54,3.074,5.83,5.83,0,0,0,1.391,3.254,13.585,13.585,0,0,0,5.091,3.542,39.558,39.558,0,0,0,12.326,3.031,38.074,38.074,0,0,0,3.844.223c.655,0,1.29-.026,1.886-.075a3.35,3.35,0,0,0,2.935-2.353c2.014-1.032,2.172-3.99,2.237-5.219a33.379,33.379,0,0,0-.424-6.47c-.286-1.984-.691-4.094-1.237-6.451-.507-2.185-1.063-4.328-1.653-6.37-.138-.478-.288-.961-.433-1.428a23.149,23.149,0,0,1-1.058-4.379c-.014-.141-.022-.272-.027-.4l.163-.006h.073a12.156,12.156,0,0,1,1.627.155l.511.069a25.35,25.35,0,0,0,3.166.243,11.723,11.723,0,0,0,2.7-.288,6.3,6.3,0,0,0,4.236-3.215,6.559,6.559,0,0,0,1.985-2.658,14.348,14.348,0,0,0,.967-5.3A11.213,11.213,0,0,0,2034.325,4653.536Z"/>
      <g id="Group_8547" data-name="Group 8547" clip-path="url(#clip-path)">
        <g id="Group_8546" data-name="Group 8546">
          <g id="Group_8545" data-name="Group 8545">
            <path id="Path_19891" data-name="Path 19891" d="M2031.217,4652.374s.078.054.308.2.313.189.316.189S2031.226,4652.374,2031.217,4652.374Z" fill="url(#linear-gradient)"/>
            <path id="Path_19892" data-name="Path 19892" d="M2033.646,4664.683a13.3,13.3,0,0,0,.862-4.809,10.018,10.018,0,0,0-1.307-5.617,5.31,5.31,0,0,0-1.676-1.682,5.678,5.678,0,0,0-3.09-.813,8.484,8.484,0,0,0-.934.053c-.916.1-1.8.367-2.708.536a50.306,50.306,0,0,1-8.461.773q-.662.01-1.322.011c-2.712,0-5.423-.132-8.127-.324-3.181-.226-6.343-.611-9.517-.9-.559-.05-1.123-.077-1.686-.077a14.008,14.008,0,0,0-7.058,1.745,12.889,12.889,0,0,0-5.428,6.563,17.807,17.807,0,0,0-1.087,4.409,11.147,11.147,0,0,0,.2,4.551,3.95,3.95,0,0,0,2.315,2.679,4.326,4.326,0,0,0,1.507.257,6.961,6.961,0,0,0,2.689-.607,10.154,10.154,0,0,0,1.894-1.073c.609-.435,1.158-.947,1.765-1.387a13.516,13.516,0,0,1,3.751-1.915,14.656,14.656,0,0,1,4.458-.73,10.41,10.41,0,0,1,3.714.641,5.431,5.431,0,0,1,1.125.55c-1.053-.056-2.1-.111-3.159-.135,1.929,7.348-1.041,14.815-3.282,21.734a7.216,7.216,0,0,0-.547,2.773,4.564,4.564,0,0,0,1.094,2.509,12.3,12.3,0,0,0,4.6,3.167,38.816,38.816,0,0,0,11.914,2.922c1.226.123,2.471.216,3.711.216.593,0,1.185-.022,1.774-.071,1.985-.165,2.2-2.768,2.28-4.308a31.966,31.966,0,0,0-.411-6.208c-.308-2.131-.731-4.244-1.217-6.341q-.735-3.169-1.635-6.3a35.18,35.18,0,0,1-1.536-6.041,3.92,3.92,0,0,1,.559-2.8,3.138,3.138,0,0,1,2.555-1.081h.093a18.221,18.221,0,0,1,2.308.235,23.85,23.85,0,0,0,3,.232,10.444,10.444,0,0,0,2.394-.253A5.037,5.037,0,0,0,2033.646,4664.683Z" fill="url(#linear-gradient-2)"/>
          </g>
          <path id="Path_19893" data-name="Path 19893" d="M2016.647,4698.529c3.473.19,5.6.214,5.542-3.975a20.3,20.3,0,0,0-.268-3.07l.129-.033a17.146,17.146,0,0,1,.8,3.054c.453,2.287-.347,5.347-3.161,5.34a4.763,4.763,0,0,1-3.1-1.2l.055-.121Z" fill="#fff"/>
          <path id="Path_19894" data-name="Path 19894" d="M2024.75,4654.252c3.134-2.58,7.378-1.99,8.425,2.306a10.679,10.679,0,0,1,.047,4.574c-.25-1.191-.449-2.356-.775-3.458-1.143-4.223-3.837-4.621-7.7-3.422Z" fill="#fff"/>
        </g>
      </g>
    </g>
    <g id="Group_8551" data-name="Group 8551" transform="translate(-1742.222)">
      <path id="Path_19896" data-name="Path 19896" d="M1997.6,4663.935l0-.009,0-.01,0-.01c-.011-.048-.024-.094-.035-.139h0l0-.011h0l-.016-.058h0a15.029,15.029,0,0,0-5.556-8.421,15.377,15.377,0,0,0-9.017-2.723,19.441,19.441,0,0,0-2.079.113,27.165,27.165,0,0,0-8.963,2.658,23.825,23.825,0,0,0-8.344,6.684c-.125.16-.242.328-.364.493-.4.429-.788.871-1.155,1.329-.079-.081-.158-.166-.236-.242a5.993,5.993,0,0,0-2.011-1.356,3.325,3.325,0,0,0-1.145-.212,3.173,3.173,0,0,0-2.69,1.588,6.637,6.637,0,0,0-.419.794,3.473,3.473,0,0,0-1.251,1.21,10.387,10.387,0,0,0-1.275,4.065,29.35,29.35,0,0,0-.267,4.071,65.863,65.863,0,0,0,.571,8.5c.338,2.739.792,5.557,1.351,8.378a28.551,28.551,0,0,0,2.6,7.914c1.635,3.06,3.8,4.923,6.251,5.388a6.481,6.481,0,0,0,1.192.112,7.13,7.13,0,0,0,6.012-3.583c.018-.031.036-.064.055-.1a7.648,7.648,0,0,0,1.614-1.907,19.27,19.27,0,0,0,2.725-9.225,19.209,19.209,0,0,0,2.278.14,17.363,17.363,0,0,0,5.965-1.029,19.516,19.516,0,0,0,8.871-6.858,22.251,22.251,0,0,0,4.533-7.215A17.05,17.05,0,0,0,1997.6,4663.935Zm-23.112,16.45a2.194,2.194,0,0,1-.519.061,4.063,4.063,0,0,1-2.674-1.242,2.111,2.111,0,0,1-.78-1.354h0a1.118,1.118,0,0,1,.083-.121c.138-.183.28-.37.426-.558.3-.322.6-.64.924-.935a3.6,3.6,0,0,1,2.007-1.128H1974a.984.984,0,0,1,.78.332,4.25,4.25,0,0,1,.734,2.714,2.374,2.374,0,0,0-.08.517,7.508,7.508,0,0,1-.568,1.565A1.57,1.57,0,0,1,1974.489,4680.385Z"/>
      <g id="Group_8550" data-name="Group 8550" clip-path="url(#clip-path-2)">
        <g id="Group_8549" data-name="Group 8549">
          <path id="Path_19897" data-name="Path 19897" d="M1976.663,4685.87a18.015,18.015,0,0,0,2.419.165,16.058,16.058,0,0,0,5.508-.949,19.256,19.256,0,0,0,10.946-11.3,15.683,15.683,0,0,0,.77-9.528l-.058-.219a13.809,13.809,0,0,0-5.041-7.679,14.034,14.034,0,0,0-8.241-2.474,17.847,17.847,0,0,0-1.936.106,25.73,25.73,0,0,0-8.516,2.528,22.558,22.558,0,0,0-7.882,6.309,21.262,21.262,0,0,0-2.834,4.868,17.333,17.333,0,0,0-1.245,4.228,12.736,12.736,0,0,1,.227-2.539,18.56,18.56,0,0,1,.407-1.822c.169-.614.445-1.213.595-1.828.043-.179-.011-.2-.128-.349-.071-.089-.142-.176-.216-.262-.171-.2-.351-.4-.541-.578a4.624,4.624,0,0,0-1.547-1.064,1.954,1.954,0,0,0-.681-.129,1.841,1.841,0,0,0-1.559.962,9.163,9.163,0,0,0-1.085,3.546,28.539,28.539,0,0,0-.253,3.888,65.437,65.437,0,0,0,.561,8.333c.342,2.773.793,5.539,1.335,8.281a27.076,27.076,0,0,0,2.465,7.544c1.122,2.1,2.853,4.238,5.32,4.705a5.131,5.131,0,0,0,.945.089,5.783,5.783,0,0,0,4.864-2.932c2.48-4.154,3.694-10.007,1.086-14.389-.222-.373-.485-.712-.737-1.065a8.306,8.306,0,0,1,2.047,2.557c.054.1.122.346.207.411a1.129,1.129,0,0,0,.294.077c.269.07.538.139.81.2C1975.528,4685.693,1976.094,4685.792,1976.663,4685.87Zm-2.693-4.089a5.414,5.414,0,0,1-3.613-1.626,3.238,3.238,0,0,1-1.166-2.466,1.477,1.477,0,0,1,.34-.762q.453-.6.928-1.194a21.9,21.9,0,0,1,2.259-2.488,4.686,4.686,0,0,1,2.873-1.477h.076c2.319,0,2.957,2.8,2.836,4.674,0,.015,0,.037,0,.075-.033.175-.052.262-.06.292a8.762,8.762,0,0,1-1.207,2.9,4.362,4.362,0,0,1-2.425,1.973A3.5,3.5,0,0,1,1973.97,4681.781Z" fill="url(#linear-gradient-3)"/>
          <path id="Path_19898" data-name="Path 19898" d="M1996.267,4664.109l.039.153.019.069Z" fill="url(#linear-gradient-4)"/>
          <path id="Path_19899" data-name="Path 19899" d="M1978.435,4676.821l0-.012c.021-.1.041-.2.06-.292,0-.025,0-.051,0-.075s0-.019,0-.019A2.506,2.506,0,0,0,1978.435,4676.821Z" fill="url(#linear-gradient-5)"/>
        </g>
        <path id="Path_19900" data-name="Path 19900" d="M1978.992,4656.581c5.2-2.772,12.383-.712,14.879,4.749-4.283-4.165-9.008-5.442-14.879-4.749Z" fill="#fff"/>
        <path id="Path_19901" data-name="Path 19901" d="M1958.532,4664.137a1.268,1.268,0,0,1,.979.2c.249.153.27.479.37.732a4.918,4.918,0,0,1,.356,1.6l-.122.055-.573-.543-.549-.512c-.172-.164-.45-.244-.526-.494a1.7,1.7,0,0,1-.027-.937l.092-.1Z" fill="#fff"/>
        <path id="Path_19902" data-name="Path 19902" d="M1970.325,4682.7a3.187,3.187,0,0,1,2.005,2.073,9.121,9.121,0,0,1,.389,2.866,6.946,6.946,0,0,1-.354,1.844l-.131-.024a8.384,8.384,0,0,0-.7-3.411,9.145,9.145,0,0,1-1.3-3.256l.1-.092Z" fill="#fff"/>
      </g>
    </g>
    <g id="Group_8555" data-name="Group 8555" transform="translate(-1742.222)">
      <path id="Path_19904" data-name="Path 19904" d="M1962.936,4656.56a5.909,5.909,0,0,0-.566-.771,6.272,6.272,0,0,0-.58-.67,13.787,13.787,0,0,0-10.1-4.247h-.145a10.729,10.729,0,0,0-3.406.539,14.4,14.4,0,0,0-2.9,1.409,25.957,25.957,0,0,0-4.765,3.869,36.491,36.491,0,0,0-2.969,3.392,38.38,38.38,0,0,0-5.447,7.927,29.793,29.793,0,0,0-3.643,11.968,19.587,19.587,0,0,0,3.314,12.048,27.256,27.256,0,0,0,8.882,8.228c2.875,1.7,7.293,3.732,12.015,3.79l.2,0a7.508,7.508,0,0,0,5.42-1.754,5.721,5.721,0,0,0,1.155-1.573,5.3,5.3,0,0,0,.514-.431,7.435,7.435,0,0,0,1.861-6.4c-.149-1.208-.735-4.185-2.95-5.727a3.477,3.477,0,0,0-1.978-.661h-.064a4.7,4.7,0,0,0-1.5.341c-.139.05-.271.1-.385.13-.483.14-.988.256-1.507.352a17.045,17.045,0,0,0,1.739-1.295,19.819,19.819,0,0,0,3.115-3.383,23.211,23.211,0,0,0,4.079-6.085,31.724,31.724,0,0,0,2.9-10.172C1965.528,4664.354,1965.356,4660.108,1962.936,4656.56Zm-22.322,24.219c-.01-.1-.018-.195-.024-.294a8.293,8.293,0,0,1,1.069-4.557,3.557,3.557,0,0,1,2.1-.94c.053,0,.108,0,.161.007a1.494,1.494,0,0,1,1.255,1.712h0v.009h0a3.814,3.814,0,0,1-.6,1.726A10.924,10.924,0,0,1,1940.614,4680.779Z"/>
      <g id="Group_8554" data-name="Group 8554" clip-path="url(#clip-path-3)">
        <g id="Group_8553" data-name="Group 8553">
          <g id="Group_8552" data-name="Group 8552">
            <path id="Path_19905" data-name="Path 19905" d="M1960.929,4656.127s.1.133.393.5.4.5.4.5Z" fill="url(#linear-gradient-6)"/>
            <path id="Path_19906" data-name="Path 19906" d="M1961.322,4656.625a12.327,12.327,0,0,0-9.631-4.417h-.132a9.506,9.506,0,0,0-2.987.468,13.126,13.126,0,0,0-2.633,1.282,24.739,24.739,0,0,0-4.519,3.674,36.738,36.738,0,0,0-6.508,8.988,28.733,28.733,0,0,0-3.495,11.432,18.3,18.3,0,0,0,3.093,11.231,25.844,25.844,0,0,0,8.449,7.816,23.6,23.6,0,0,0,11.352,3.606h.184a6.414,6.414,0,0,0,4.5-1.386,6.18,6.18,0,0,0,1.456-5.273c-.21-1.706-.911-3.767-2.387-4.794a2.163,2.163,0,0,0-1.215-.421h-.036a6.34,6.34,0,0,0-1.545.419,17.887,17.887,0,0,1-2.923.578,21.512,21.512,0,0,1-2.457.143,19.9,19.9,0,0,1-3.334-.277,12.827,12.827,0,0,1-4.513-1.507,5.907,5.907,0,0,1-1.549-1.329c.558.186,1.095.441,1.644.65a6.242,6.242,0,0,0,1.667.3q.717.063,1.438.062a17.147,17.147,0,0,0,2.522-.187,16.293,16.293,0,0,0,8.169-3.68,20.8,20.8,0,0,0,5.183-7.018,30.339,30.339,0,0,0,2.775-9.738C1964.268,4663.554,1963.711,4659.6,1961.322,4656.625Zm-13.158,18.332s0-.045.009-.168a6.808,6.808,0,0,1-2.1,4.045,12.226,12.226,0,0,1-5.056,3.219,7.28,7.28,0,0,1-2.26.468,3.375,3.375,0,0,1-.521-.039,7.085,7.085,0,0,0,1.109-.451c.152-.1.117-.054.078-.238-.029-.135-.055-.27-.077-.406-.043-.271-.072-.545-.089-.818a9.577,9.577,0,0,1,.6-3.927,8.894,8.894,0,0,1,2.3-3.469,5.09,5.09,0,0,1,3.267-1.524c.093,0,.187,0,.281.013a2.811,2.811,0,0,1,2.468,3.127l.011-.165Z" fill="url(#linear-gradient-7)"/>
          </g>
          <path id="Path_19907" data-name="Path 19907" d="M1952.055,4654.33a7.523,7.523,0,0,1,9.668,8.282,20.044,20.044,0,0,0-1.339-3.246c-1.614-3.152-4.947-4.55-8.329-5.036Z" fill="#fff"/>
          <path id="Path_19908" data-name="Path 19908" d="M1951.512,4691.462c.727-.2,1.362-.376,1.984-.6a9.721,9.721,0,0,1,3.131-.842,2.672,2.672,0,0,1,2.454,2.353c-.99-.7-1.715-1.346-2.842-1.011-.114.02-.341.079-.452.114a5.7,5.7,0,0,1-4.275-.015Z" fill="#fff"/>
        </g>
      </g>
    </g>
    <g id="Group_8559" data-name="Group 8559" transform="translate(-1742.222)">
      <path id="Path_19910" data-name="Path 19910" d="M1943.481,4691.448a7.173,7.173,0,0,0-1.075-3.239,3.523,3.523,0,0,0-.436-.568l-.011-.012,0,0a9.112,9.112,0,0,0-1.835-1.467,6.128,6.128,0,0,0-3.025-1.1l-.158,0a6.251,6.251,0,0,0-2.8.81c-.241.121-.481.245-.721.369-.507.262-.986.51-1.475.718a5.874,5.874,0,0,1-2.329.486,6.548,6.548,0,0,1-1.817-.27,12.4,12.4,0,0,1-3.97-2.083,16.036,16.036,0,0,1-5.548-7.343,8.782,8.782,0,0,1-.5-3.446h0a13.174,13.174,0,0,0,8.852,3.688,9.5,9.5,0,0,0,4.659-1.168,15.058,15.058,0,0,0,5.794-8.784,12.17,12.17,0,0,0-2.736-7.562,25.741,25.741,0,0,0-12.737-8.712,22.533,22.533,0,0,0-6.623-1.06,13.64,13.64,0,0,0-8.616,2.7,11.119,11.119,0,0,0-2.461,2.692,11.892,11.892,0,0,0-3.184,5.308,13.717,13.717,0,0,0,0,6.7,32.849,32.849,0,0,0,2.73,7.635,59.364,59.364,0,0,0,4,6.941,74.182,74.182,0,0,0,10.3,12.335c2.114,2.033,4.327,3.491,6.2,5.176,2.286,2.062,4.991,4.182,7.5,3.656.661-.139,1.325.207,1.973.207a7.79,7.79,0,0,0,5.9-2.552,9.172,9.172,0,0,0,.986-1.334,7.551,7.551,0,0,0,.684-.67A10.659,10.659,0,0,0,1943.481,4691.448Z"/>
      <g id="Group_8558" data-name="Group 8558" clip-path="url(#clip-path-4)">
        <g id="Group_8557" data-name="Group 8557">
          <g id="Group_8556" data-name="Group 8556">
            <path id="Path_19911" data-name="Path 19911" d="M1940.97,4688.526l.048.056.224.253Z" fill="url(#linear-gradient-8)"/>
            <path id="Path_19912" data-name="Path 19912" d="M1942.153,4691.591a5.553,5.553,0,0,0-1.135-3.009l-.052-.06a7.868,7.868,0,0,0-1.568-1.24,4.8,4.8,0,0,0-2.353-.887c-.036,0-.071,0-.107,0a5.023,5.023,0,0,0-2.2.67c-.756.376-1.492.79-2.27,1.12a7.235,7.235,0,0,1-2.851.593,7.8,7.8,0,0,1-2.189-.324,13.76,13.76,0,0,1-4.4-2.3,17.421,17.421,0,0,1-6-7.972,9.621,9.621,0,0,1-.46-4.907,7.539,7.539,0,0,1,.7-2.053c.065-.126.134-.25.206-.372.045-.076.223-.277.226-.362,0-.107-.227-.348-.289-.448-.13-.212-.254-.426-.374-.643a18.249,18.249,0,0,1-1.938-5.485,14.9,14.9,0,0,1-.3-3.749,26.71,26.71,0,0,0,1.48,4.767,18.324,18.324,0,0,0,4.1,6.4,11.89,11.89,0,0,0,7.928,3.317,8.218,8.218,0,0,0,4.013-1,6.646,6.646,0,0,0,3.436-5.65,10.914,10.914,0,0,0-2.469-6.722,24.3,24.3,0,0,0-12.068-8.24,21.144,21.144,0,0,0-6.224-1,12.471,12.471,0,0,0-7.795,2.415,10.368,10.368,0,0,0-3.515,5.321,12.626,12.626,0,0,0,.028,6.048,31.7,31.7,0,0,0,2.624,7.325,57.794,57.794,0,0,0,3.912,6.783,72.9,72.9,0,0,0,10.113,12.113,52.144,52.144,0,0,0,6.038,5.047,19.386,19.386,0,0,0,7.006,3.44,8.355,8.355,0,0,0,1.7.179,6.424,6.424,0,0,0,4.9-2.108A9.271,9.271,0,0,0,1942.153,4691.591Z" fill="url(#linear-gradient-9)"/>
          </g>
          <path id="Path_19913" data-name="Path 19913" d="M1915.753,4653.214c5.22-.451,10.878,1.793,13.908,6.164.95,1.666,1.044,1.741-.392.338-3.825-3.388-8.626-5.191-13.516-6.5Z" fill="#fff"/>
          <path id="Path_19914" data-name="Path 19914" d="M1916.712,4669.925a8.786,8.786,0,0,1-1.109,3.344,7.4,7.4,0,0,0-.431,3.444l-.128.038a6.278,6.278,0,0,1-.542-3.264,5.737,5.737,0,0,1,.611-2.346,3.269,3.269,0,0,1,1.5-1.3l.1.084Z" fill="#fff"/>
          <path id="Path_19915" data-name="Path 19915" d="M1932.78,4689.791c1.764-2.812,5.751-3.683,7.365-.252.529,1.075-.287.121-.741-.06-2.411-1.667-4.164-.46-6.624.312Z" fill="#fff"/>
        </g>
      </g>
    </g>
    <g id="Group_8563" data-name="Group 8563" transform="translate(-1742.222)">
      <path id="Path_19917" data-name="Path 19917" d="M1971.213,4581.154a5.91,5.91,0,0,0-.565-.771,6.4,6.4,0,0,0-.58-.669,13.787,13.787,0,0,0-10.1-4.248h-.146a10.739,10.739,0,0,0-3.406.539,14.455,14.455,0,0,0-2.9,1.409,25.949,25.949,0,0,0-4.766,3.87,36.553,36.553,0,0,0-2.969,3.391,38.38,38.38,0,0,0-5.446,7.927,29.778,29.778,0,0,0-3.643,11.968,19.593,19.593,0,0,0,3.313,12.048,27.265,27.265,0,0,0,8.883,8.228c2.875,1.7,7.293,3.732,12.015,3.791h.2a7.509,7.509,0,0,0,5.42-1.754,5.738,5.738,0,0,0,1.155-1.573,5.35,5.35,0,0,0,.514-.431,7.438,7.438,0,0,0,1.86-6.4c-.149-1.208-.734-4.185-2.95-5.727a3.476,3.476,0,0,0-1.977-.66h-.065a4.709,4.709,0,0,0-1.5.341c-.14.05-.271.1-.385.13-.484.14-.988.256-1.507.352a17.119,17.119,0,0,0,1.738-1.295,19.756,19.756,0,0,0,3.115-3.383,23.186,23.186,0,0,0,4.079-6.084,31.714,31.714,0,0,0,2.9-10.172C1973.806,4588.948,1973.633,4584.7,1971.213,4581.154Zm-22.321,24.22c-.01-.1-.018-.2-.024-.295a8.3,8.3,0,0,1,1.069-4.557,3.551,3.551,0,0,1,2.095-.94c.054,0,.108,0,.162.007a1.5,1.5,0,0,1,1.255,1.712h0v.009h0a3.828,3.828,0,0,1-.6,1.726A10.947,10.947,0,0,1,1948.892,4605.374Z"/>
      <g id="Group_8562" data-name="Group 8562" clip-path="url(#clip-path-5)">
        <g id="Group_8561" data-name="Group 8561">
          <g id="Group_8560" data-name="Group 8560">
            <path id="Path_19918" data-name="Path 19918" d="M1969.206,4580.721s.1.134.394.5.4.5.4.5Z" fill="url(#linear-gradient-10)"/>
            <path id="Path_19919" data-name="Path 19919" d="M1969.6,4581.219a12.329,12.329,0,0,0-9.632-4.417h-.131a9.456,9.456,0,0,0-2.988.467,13.175,13.175,0,0,0-2.633,1.282,24.788,24.788,0,0,0-4.518,3.674,36.719,36.719,0,0,0-6.508,8.988,28.758,28.758,0,0,0-3.5,11.432,18.293,18.293,0,0,0,3.094,11.231,25.849,25.849,0,0,0,8.448,7.817,23.6,23.6,0,0,0,11.353,3.6h.183a6.416,6.416,0,0,0,4.5-1.386,6.186,6.186,0,0,0,1.456-5.273c-.211-1.706-.912-3.767-2.388-4.793a2.155,2.155,0,0,0-1.214-.422h-.036a6.3,6.3,0,0,0-1.545.418,17.848,17.848,0,0,1-2.924.579,21.386,21.386,0,0,1-2.457.142,19.9,19.9,0,0,1-3.334-.277,12.846,12.846,0,0,1-4.513-1.507,5.942,5.942,0,0,1-1.548-1.328c.557.185,1.094.44,1.644.649a6.208,6.208,0,0,0,1.667.3q.717.063,1.438.063a17.157,17.157,0,0,0,2.522-.188,16.283,16.283,0,0,0,8.169-3.68,20.8,20.8,0,0,0,5.183-7.018,30.387,30.387,0,0,0,2.775-9.738C1972.545,4588.148,1971.988,4584.19,1969.6,4581.219Zm-13.158,18.332s0-.045.009-.168a6.817,6.817,0,0,1-2.1,4.045,12.224,12.224,0,0,1-5.057,3.219,7.274,7.274,0,0,1-2.26.468,3.352,3.352,0,0,1-.52-.039,7,7,0,0,0,1.109-.451c.151-.1.117-.054.078-.238-.029-.135-.055-.27-.077-.406-.043-.271-.072-.544-.089-.818a9.556,9.556,0,0,1,.6-3.926,8.872,8.872,0,0,1,2.3-3.47,5.1,5.1,0,0,1,3.268-1.524c.093,0,.187,0,.281.013a2.811,2.811,0,0,1,2.468,3.127c.008-.121.011-.165.011-.165Z" fill="url(#linear-gradient-7)"/>
          </g>
          <path id="Path_19920" data-name="Path 19920" d="M1960.333,4578.924a7.523,7.523,0,0,1,9.667,8.282,20.048,20.048,0,0,0-1.338-3.246c-1.614-3.151-4.948-4.549-8.329-5.036Z" fill="#fff"/>
          <path id="Path_19921" data-name="Path 19921" d="M1959.79,4616.056c.726-.2,1.361-.375,1.984-.6a9.726,9.726,0,0,1,3.13-.842,2.672,2.672,0,0,1,2.454,2.353c-.989-.7-1.714-1.346-2.841-1.011-.114.021-.342.079-.453.114a5.692,5.692,0,0,1-4.274-.015Z" fill="#fff"/>
        </g>
      </g>
    </g>
    <g id="Group_8565" data-name="Group 8565" transform="translate(-1742.222)">
      <path id="Path_19923" data-name="Path 19923" d="M1944.325,4590.184a13.888,13.888,0,0,0-.221-1.376l-.008-.056a2.206,2.206,0,0,0-.1-.408c-.008-.029-.018-.064-.03-.1l-.023-.081c-.83-2.953-3.777-4.583-8.3-4.583a20.2,20.2,0,0,0-2.233.126,19.93,19.93,0,0,0-3.053.578c-.478.131-.9.267-1.287.416a8.155,8.155,0,0,0-.762.332l-.026.013a1.83,1.83,0,0,0-.96.849,1.691,1.691,0,0,0-.138.9c-.2.083-.38.163-.546.247l-.026.012a1.832,1.832,0,0,0-.96.85,1.884,1.884,0,0,0-.115,1.1l0,.033.011.313.012.355q.012.372.028.744c.112,2.71.24,5.392.35,7.658l.117,2.393.037.767-.1.006c-.167.012-.335.028-.5.045-.259.026-.5.05-.723.05-.085,0-.16,0-.23-.011a.762.762,0,0,1-.561-.288,1.714,1.714,0,0,1-.086-.238c-.026-.081-.051-.162-.081-.244-.066-.187-.163-.483-.22-.691-.412-1.5-.839-2.988-1.166-4.114-.563-1.94-1.143-3.909-1.7-5.814l-.516-1.751q-.133-.455-.265-.909c-.4-1.356-.8-2.758-1.272-4.131a21.118,21.118,0,0,0-3.682-6.975,10.422,10.422,0,0,0-7.468-3.55c-.346-.021-.7-.032-1.066-.032a34.052,34.052,0,0,0-7.462,1.065,66.56,66.56,0,0,0-8.2,2.275,18.37,18.37,0,0,0-3.823,1.818,5.916,5.916,0,0,0-2.242,2.406,4.554,4.554,0,0,0-1.991,3.4,7.36,7.36,0,0,0,1.75,4.331l.017.025c.385.554.783,1.088,1.126,1.545,2.152,2.866,4.63,6.213,6.805,9.679a143.606,143.606,0,0,1,7.867,14.586c1.255,2.617,2.5,5.342,3.594,7.746l.153.335c.527,1.156,1.072,2.352,1.685,3.51l.08.152c.56,1.062,1.4,2.666,3.106,3.033a5.99,5.99,0,0,0,1.273.123c.381,0,.746-.025,1.1-.05.15-.01.3-.02.448-.028l1.029-.052.483-.023.911-.043a50.214,50.214,0,0,0,6.334-.566,9.656,9.656,0,0,0,2.11-.566,3.164,3.164,0,0,0,1.086-.674,2.1,2.1,0,0,0,.463-.829c.025-.158.042-.317.056-.476.021-.009.043-.015.065-.024a3.167,3.167,0,0,0,1.086-.674,2.093,2.093,0,0,0,.463-.829,11.582,11.582,0,0,0-.048-3.038c-.022-.21-.045-.418-.063-.622l-.056-.606c-.1-1.065-.2-2.167-.264-3.242a28.613,28.613,0,0,1-.027-3.831,10.1,10.1,0,0,1,.252-1.683,1.631,1.631,0,0,1,.281-.027,1.523,1.523,0,0,1,1.272.673,7.938,7.938,0,0,1,1.02,3c.189,1.007.337,2.054.479,3.067l.129.906.056.389a15.384,15.384,0,0,0,.853,3.714l.016.04a2.206,2.206,0,0,0,1.659,1.541,12.229,12.229,0,0,0,1.854.139h.188a11.656,11.656,0,0,0,4.257-.778l.051-.019a1.949,1.949,0,0,0,1.062-.83,1.826,1.826,0,0,0,.205-.6l0-.015c.037-.147.071-.3.107-.444.08-.03.163-.059.242-.091l.05-.02a1.943,1.943,0,0,0,1.062-.83,1.826,1.826,0,0,0,.206-.6l0-.016c.066-.265.13-.534.193-.8.87-3.758,1.632-7.819,2.331-12.416.482-3.176.807-5.79,1.023-8.226A41.8,41.8,0,0,0,1944.325,4590.184Z"/>
      <g id="Group_8564" data-name="Group 8564">
        <path id="Path_19924" data-name="Path 19924" d="M1929.181,4600.813h0l-.006-.057Z" fill="url(#linear-gradient-12)"/>
        <path id="Path_19925" data-name="Path 19925" d="M1942.887,4598.418a40.121,40.121,0,0,0,.111-8.081,11.215,11.215,0,0,0-.341-1.809c-.816-2.9-4.145-3.616-7.012-3.616a19.075,19.075,0,0,0-2.085.118,18.663,18.663,0,0,0-2.848.539c-.392.108-.782.23-1.162.375a6.653,6.653,0,0,0-.636.277c-.1.048-.337.144-.383.242a1.46,1.46,0,0,0,.016.479c.007.235.015.469.023.7s.017.489.028.734q.157,3.825.35,7.648.116,2.393.233,4.786c.087,1.07-1.151,1.555-2.013,1.688-.358.055-.721.068-1.082.093-.437.03-.879.1-1.319.1a3.459,3.459,0,0,1-.369-.018,2.05,2.05,0,0,1-1.54-.885,3.317,3.317,0,0,1-.308-.767c-.068-.193-.179-.528-.249-.784-.375-1.368-.766-2.732-1.161-4.095-.732-2.522-1.477-5.041-2.218-7.56-.49-1.667-.961-3.342-1.52-4.987a19.533,19.533,0,0,0-3.429-6.533,9.1,9.1,0,0,0-6.537-3.089q-.492-.03-.986-.029a32.8,32.8,0,0,0-7.167,1.031,66.6,66.6,0,0,0-8.039,2.228,16.905,16.905,0,0,0-3.543,1.679,3.657,3.657,0,0,0-1.964,2.729,6.369,6.369,0,0,0,1.529,3.554c.355.51.725,1.008,1.1,1.5,2.393,3.187,4.748,6.392,6.868,9.77a147.462,147.462,0,0,1,7.94,14.719c1.234,2.575,2.42,5.171,3.6,7.769.578,1.268,1.15,2.543,1.8,3.775.5.948,1.134,2.256,2.287,2.5a4.705,4.705,0,0,0,.992.093c.493,0,.991-.051,1.475-.076.506-.027,1.012-.05,1.518-.075a57.609,57.609,0,0,0,7.08-.591,8.386,8.386,0,0,0,1.822-.481,1.987,1.987,0,0,0,.65-.377c.023-.024.08-.118.095-.118s.005,0,0,.014a13.822,13.822,0,0,0-.122-3.33c-.118-1.3-.245-2.59-.323-3.889a29.552,29.552,0,0,1-.025-4.013,7.475,7.475,0,0,1,.976-3.547,3.066,3.066,0,0,1,2.558-1.4,2.857,2.857,0,0,1,2.365,1.241,9,9,0,0,1,1.239,3.525c.251,1.336.423,2.685.618,4.029a16.023,16.023,0,0,0,.822,3.788c.132.321.276.712.642.768a10.866,10.866,0,0,0,1.651.123h.17a10.458,10.458,0,0,0,3.768-.677c.155-.064.377-.13.459-.274a1.148,1.148,0,0,0,.07-.267q.1-.4.191-.8c.942-4.067,1.685-8.188,2.312-12.315C1942.285,4603.857,1942.647,4601.142,1942.887,4598.418Z" fill="url(#linear-gradient-13)"/>
        <path id="Path_19926" data-name="Path 19926" d="M1942.647,4588.493l.01.035.115.4Z" fill="url(#linear-gradient-14)"/>
      </g>
      <path id="Path_19927" data-name="Path 19927" d="M1903.841,4575.661c4.583-1.9,10.46.706,10.607,6.04a14.505,14.505,0,0,0-1.853-2.726c-2.214-2.479-5.55-3.077-8.754-3.314Z" fill="#fff"/>
      <path id="Path_19928" data-name="Path 19928" d="M1936.458,4586.471a3.557,3.557,0,0,1,4.745,1.086,5.594,5.594,0,0,1,.519,4.922c-.276-.79-.471-1.544-.715-2.253a4.708,4.708,0,0,0-4.549-3.755Z" fill="#fff"/>
      <path id="Path_19929" data-name="Path 19929" d="M1918.547,4623.865c1.265-.588,2.588-.745,3.763-1.362.109-.071.106-.073.153-.155a5.448,5.448,0,0,0,.029-2.025,14.2,14.2,0,0,1-.072-2.467c.724,1.456,2.4,4.516.626,5.762a5.786,5.786,0,0,1-4.5.247Z" fill="#fff"/>
      <path id="Path_19930" data-name="Path 19930" d="M1934.353,4619.6c.915-.529,1.826-.708,2.716-1.128a.723.723,0,0,0,.173-.131c.623-.682.732-2.007,1.18-2.935.566,1.358.76,3.4-.736,4.244a4.129,4.129,0,0,1-3.333-.05Z" fill="#fff"/>
    </g>
    <g id="Group_8569" data-name="Group 8569" transform="translate(-1742.222)">
      <path id="Path_19931" data-name="Path 19931" d="M1905.933,4578.13a6.79,6.79,0,0,0-1.575-1.738,3.551,3.551,0,0,0-.51-.364,3.074,3.074,0,0,0-.63-.338,7.271,7.271,0,0,0-3.175-.669,9.722,9.722,0,0,0-1.081.061,16.087,16.087,0,0,0-1.862.348c-.328.074-.638.145-.946.2a48.988,48.988,0,0,1-8.236.75q-.651.011-1.3.01c-2.4,0-4.957-.1-8.032-.32-1.936-.138-3.908-.339-5.815-.534-1.2-.123-2.447-.25-3.677-.361-.606-.054-1.214-.082-1.806-.082a15.206,15.206,0,0,0-7.727,1.924,13.553,13.553,0,0,0-4.316,4.048,15.032,15.032,0,0,0-3.356,5.189,19.1,19.1,0,0,0-1.17,4.741,12.446,12.446,0,0,0,.253,5.1,5.232,5.232,0,0,0,3.129,3.541,5.679,5.679,0,0,0,1.971.34,8.2,8.2,0,0,0,3.214-.715,11.484,11.484,0,0,0,2.144-1.215c.349-.249.669-.512.978-.765.274-.224.532-.436.8-.627a12.15,12.15,0,0,1,3.379-1.726,13.325,13.325,0,0,1,4.046-.664c.126,0,.251,0,.374.006l.014.052c1.633,6.222-.5,12.647-2.561,18.86-.237.713-.472,1.421-.7,2.124l-.069.21a7.8,7.8,0,0,0-.54,3.075,5.828,5.828,0,0,0,1.391,3.253,13.575,13.575,0,0,0,5.09,3.542,39.53,39.53,0,0,0,12.327,3.031,38.2,38.2,0,0,0,3.844.223c.655,0,1.289-.025,1.885-.075a3.348,3.348,0,0,0,2.935-2.353c2.015-1.032,2.172-3.989,2.237-5.219a33.316,33.316,0,0,0-.423-6.47c-.286-1.984-.691-4.094-1.238-6.451-.506-2.185-1.062-4.328-1.652-6.369-.139-.479-.288-.962-.433-1.429a22.96,22.96,0,0,1-1.058-4.379c-.014-.14-.022-.271-.027-.4l.163-.007h.073a12.077,12.077,0,0,1,1.627.155l.511.069a25.247,25.247,0,0,0,3.166.244,11.7,11.7,0,0,0,2.7-.289,6.3,6.3,0,0,0,4.237-3.215,6.556,6.556,0,0,0,1.984-2.658,14.328,14.328,0,0,0,.967-5.3A11.207,11.207,0,0,0,1905.933,4578.13Z"/>
      <g id="Group_8568" data-name="Group 8568" clip-path="url(#clip-path-6)">
        <g id="Group_8567" data-name="Group 8567">
          <g id="Group_8566" data-name="Group 8566">
            <path id="Path_19932" data-name="Path 19932" d="M1902.825,4576.968s.078.054.308.2.313.189.316.189S1902.833,4576.968,1902.825,4576.968Z" fill="url(#linear-gradient-15)"/>
            <path id="Path_19933" data-name="Path 19933" d="M1905.253,4589.277a13.271,13.271,0,0,0,.863-4.808,10.018,10.018,0,0,0-1.308-5.618,5.3,5.3,0,0,0-1.675-1.682,5.685,5.685,0,0,0-3.09-.813,8.47,8.47,0,0,0-.934.053c-.917.1-1.805.367-2.709.537a50.234,50.234,0,0,1-8.46.772c-.441.008-.882.011-1.323.011-2.711,0-5.422-.131-8.127-.324-3.18-.226-6.342-.611-9.517-.9q-.839-.076-1.686-.077a14.016,14.016,0,0,0-7.058,1.744,12.894,12.894,0,0,0-5.427,6.563,17.869,17.869,0,0,0-1.088,4.409,11.152,11.152,0,0,0,.2,4.551,3.954,3.954,0,0,0,2.314,2.68,4.347,4.347,0,0,0,1.508.257,6.962,6.962,0,0,0,2.689-.608,10.059,10.059,0,0,0,1.893-1.073c.61-.435,1.159-.947,1.766-1.386a13.532,13.532,0,0,1,3.751-1.916,14.666,14.666,0,0,1,4.458-.729,10.442,10.442,0,0,1,3.714.64,5.45,5.45,0,0,1,1.124.55c-1.052-.056-2.1-.111-3.158-.135,1.928,7.348-1.041,14.815-3.282,21.734a7.227,7.227,0,0,0-.548,2.773,4.566,4.566,0,0,0,1.094,2.509,12.312,12.312,0,0,0,4.6,3.167,38.815,38.815,0,0,0,11.914,2.922c1.226.123,2.47.216,3.71.216.594,0,1.186-.021,1.775-.071,1.985-.165,2.2-2.768,2.28-4.308a31.884,31.884,0,0,0-.412-6.208c-.308-2.131-.731-4.244-1.217-6.341q-.733-3.168-1.634-6.3a35.211,35.211,0,0,1-1.537-6.042,3.926,3.926,0,0,1,.56-2.8,3.143,3.143,0,0,1,2.555-1.081h.093a18.3,18.3,0,0,1,2.307.235,23.591,23.591,0,0,0,3,.233,10.535,10.535,0,0,0,2.4-.253A5.036,5.036,0,0,0,1905.253,4589.277Z" fill="url(#linear-gradient-2)"/>
          </g>
          <path id="Path_19934" data-name="Path 19934" d="M1888.255,4623.123c3.473.191,5.6.214,5.542-3.975a20.307,20.307,0,0,0-.268-3.07l.129-.033a17.141,17.141,0,0,1,.805,3.054c.453,2.287-.347,5.348-3.162,5.34a4.765,4.765,0,0,1-3.1-1.194l.055-.122Z" fill="#fff"/>
          <path id="Path_19935" data-name="Path 19935" d="M1896.358,4578.846c3.134-2.58,7.377-1.99,8.424,2.306a10.663,10.663,0,0,1,.047,4.574c-.249-1.191-.448-2.356-.774-3.458-1.143-4.223-3.837-4.621-7.7-3.422Z" fill="#fff"/>
        </g>
      </g>
    </g>
    <g id="Group_8573" data-name="Group 8573" transform="translate(-1742.222)">
      <path id="Path_19937" data-name="Path 19937" d="M1873.916,4674.131c-.128-.768-.288-1.549-.476-2.322l0-.016,0-.015-.012-.046c-.024-.106-.053-.217-.083-.336h-.005l0-.007h.005c-.146-.559-.245-.935-.307-1.171a3.276,3.276,0,0,0-.178-.532c-2.035-6.6-5.379-11.352-9.952-14.138a22.366,22.366,0,0,0-10.239-3.011c-.752-.05-1.546-.075-2.426-.075-.994,0-1.977.032-2.807.063-.5.019-1.007.026-1.5.034-.366.006-.733.011-1.1.021a7.5,7.5,0,0,0-2.626.487,4.551,4.551,0,0,0-2.525,2.454,4.881,4.881,0,0,0-2.113,4.071,19.226,19.226,0,0,0-4.667,4.561,22.932,22.932,0,0,0-5.661,11.249,34.939,34.939,0,0,0-.514,10.716,23.734,23.734,0,0,0,2.47,9.138,15.224,15.224,0,0,0,7.741,6.774,30.579,30.579,0,0,0,10.719,1.975c.776.027,1.463.04,2.1.04a23.814,23.814,0,0,0,8.8-1.372,21.58,21.58,0,0,0,8.448-5.953c.388-.443.75-.907,1.1-1.38.193-.2.384-.411.57-.623C1873.3,4689.42,1875.218,4681.917,1873.916,4674.131Zm-32.815,11.444c.15-.187.288-.37.426-.554.064-.068.129-.137.191-.206.347-.388.7-.806,1.053-1.244a18.312,18.312,0,0,0,1.6-2.311,7.339,7.339,0,0,1,1.046,4.324h0v.008h0a6.586,6.586,0,0,1-.5,2.1,3.733,3.733,0,0,1-1.928.561,3.26,3.26,0,0,1-.816-.1,2.3,2.3,0,0,1-1.463-.968,1.21,1.21,0,0,1-.031-1.1C1840.819,4685.919,1840.96,4685.75,1841.1,4685.575Z"/>
      <g id="Group_8572" data-name="Group 8572" clip-path="url(#clip-path-7)">
        <g id="Group_8571" data-name="Group 8571">
          <g id="Group_8570" data-name="Group 8570">
            <path id="Path_19938" data-name="Path 19938" d="M1859.738,4699.422a20.255,20.255,0,0,0,7.921-5.585c4.663-5.323,6.088-12.621,4.94-19.486q-.187-1.122-.457-2.227c-.04-.15-.156-.592-.265-1.011-1.586-5.685-4.5-11.271-9.674-14.424a21.117,21.117,0,0,0-9.634-2.819c-.778-.053-1.557-.072-2.336-.072-.919,0-1.838.027-2.757.062-.872.032-1.744.032-2.616.055a6.27,6.27,0,0,0-2.165.391,3.583,3.583,0,0,0-2.129,3.738,23.515,23.515,0,0,1,.194,3.86q-.309-1.146-.675-2.277c-5.407,2.81-8.652,8.2-9.876,14.045a33.706,33.706,0,0,0-.493,10.307,22.921,22.921,0,0,0,2.314,8.633,13.956,13.956,0,0,0,7.075,6.179,29.66,29.66,0,0,0,10.258,1.876c.685.023,1.371.039,2.056.039A23.012,23.012,0,0,0,1859.738,4699.422Zm-11.306-15.925-.02.248,0-.057a7.077,7.077,0,0,1-1.631,4.178,5.161,5.161,0,0,1-3.8,1.727,4.671,4.671,0,0,1-1.145-.142,3.625,3.625,0,0,1-2.294-1.6,2.581,2.581,0,0,1,.165-2.766,12.479,12.479,0,0,1,1.009-1.16c.346-.387.681-.785,1.007-1.19a16.439,16.439,0,0,0,1.761-2.637,10.993,10.993,0,0,0,1.086-3.086.611.611,0,0,0,.013-.33,1.826,1.826,0,0,0-.227-.344c-.137-.2-.278-.4-.428-.6-.287-.372-.589-.728-.9-1.085a7.814,7.814,0,0,1,1.841,1.238,10.914,10.914,0,0,1,1.886,2.035,8.757,8.757,0,0,1,1.649,5.759Z" fill="url(#linear-gradient-17)"/>
            <path id="Path_19939" data-name="Path 19939" d="M1872.157,4672.178s-.031-.129-.114-.45c.034.132.067.264.1.4C1872.151,4672.158,1872.157,4672.178,1872.157,4672.178Z" fill="url(#linear-gradient-18)"/>
            <path id="Path_19940" data-name="Path 19940" d="M1871.648,4670.226s.11.43.229.887c.057.2.112.41.166.615C1871.751,4670.612,1871.649,4670.226,1871.648,4670.226Z" fill="url(#linear-gradient-19)"/>
          </g>
          <path id="Path_19941" data-name="Path 19941" d="M1851.8,4655.226c7.5-.7,14.932,4.808,16.779,12.049-3.881-6.5-9.3-10.591-16.779-12.049Z" fill="#fff"/>
          <path id="Path_19942" data-name="Path 19942" d="M1868.916,4684.6c-.684,7.5-7.459,13.8-14.917,14.29a36.264,36.264,0,0,0,4.877-2.3,23.746,23.746,0,0,0,10.04-11.989Z" fill="#fff"/>
          <path id="Path_19943" data-name="Path 19943" d="M1842.724,4676a3.188,3.188,0,0,1-.1,2.882,9.117,9.117,0,0,1-1.793,2.271,6.954,6.954,0,0,1-1.572,1.025l-.074-.111a8.389,8.389,0,0,0,1.967-2.873,9.156,9.156,0,0,1,1.438-3.2l.133.006Z" fill="#fff"/>
        </g>
      </g>
    </g>
    <g id="Group_8577" data-name="Group 8577" transform="translate(-1742.222)">
      <path id="Path_19945" data-name="Path 19945" d="M1842.481,4691.448a7.161,7.161,0,0,0-1.075-3.239,3.518,3.518,0,0,0-.435-.568l-.011-.012,0,0a9.139,9.139,0,0,0-1.835-1.467,6.135,6.135,0,0,0-3.025-1.1l-.158,0a6.248,6.248,0,0,0-2.8.81c-.242.121-.481.245-.721.369-.507.262-.986.51-1.476.718a5.87,5.87,0,0,1-2.328.486,6.541,6.541,0,0,1-1.817-.27,12.4,12.4,0,0,1-3.97-2.083,16.037,16.037,0,0,1-5.548-7.343,8.764,8.764,0,0,1-.5-3.446h0a13.173,13.173,0,0,0,8.851,3.688,9.507,9.507,0,0,0,4.66-1.168,15.052,15.052,0,0,0,5.793-8.784,12.175,12.175,0,0,0-2.735-7.562,25.746,25.746,0,0,0-12.737-8.712,22.532,22.532,0,0,0-6.623-1.06,13.645,13.645,0,0,0-8.617,2.7,11.135,11.135,0,0,0-2.46,2.692,11.894,11.894,0,0,0-3.185,5.308,13.729,13.729,0,0,0,0,6.7,32.855,32.855,0,0,0,2.731,7.635,59.225,59.225,0,0,0,4,6.941,74.183,74.183,0,0,0,10.3,12.335c2.114,2.033,4.327,3.491,6.194,5.176,2.287,2.062,4.992,4.182,7.5,3.656.661-.139,1.324.207,1.972.207a7.792,7.792,0,0,0,5.9-2.552,9.166,9.166,0,0,0,.985-1.334,7.579,7.579,0,0,0,.685-.67A10.655,10.655,0,0,0,1842.481,4691.448Z"/>
      <g id="Group_8576" data-name="Group 8576" clip-path="url(#clip-path-8)">
        <g id="Group_8575" data-name="Group 8575">
          <g id="Group_8574" data-name="Group 8574">
            <path id="Path_19946" data-name="Path 19946" d="M1839.97,4688.526c.017.018.033.037.049.056.081.092.223.253.224.253S1840.175,4688.757,1839.97,4688.526Z" fill="url(#linear-gradient-20)"/>
            <path id="Path_19947" data-name="Path 19947" d="M1841.153,4691.591a5.553,5.553,0,0,0-1.134-3.009l-.053-.06a7.864,7.864,0,0,0-1.567-1.24,4.805,4.805,0,0,0-2.353-.887c-.036,0-.072,0-.107,0a5.031,5.031,0,0,0-2.2.67c-.756.376-1.491.79-2.27,1.12a7.23,7.23,0,0,1-2.85.593,7.8,7.8,0,0,1-2.19-.324,13.763,13.763,0,0,1-4.4-2.3,17.42,17.42,0,0,1-6-7.972,9.631,9.631,0,0,1-.461-4.907,7.606,7.606,0,0,1,.7-2.053q.1-.189.207-.372c.045-.076.223-.277.226-.362,0-.107-.228-.348-.289-.448-.13-.212-.254-.426-.374-.643a18.249,18.249,0,0,1-1.938-5.485,14.905,14.905,0,0,1-.3-3.749,26.723,26.723,0,0,0,1.481,4.767,18.324,18.324,0,0,0,4.1,6.4,11.888,11.888,0,0,0,7.928,3.317,8.218,8.218,0,0,0,4.013-1,6.645,6.645,0,0,0,3.435-5.65,10.914,10.914,0,0,0-2.468-6.722,24.3,24.3,0,0,0-12.068-8.24,21.151,21.151,0,0,0-6.224-1,12.469,12.469,0,0,0-7.8,2.415,10.375,10.375,0,0,0-3.516,5.321,12.65,12.65,0,0,0,.028,6.048,31.7,31.7,0,0,0,2.625,7.325,57.794,57.794,0,0,0,3.912,6.783,72.9,72.9,0,0,0,10.112,12.113,52.154,52.154,0,0,0,6.039,5.047,19.39,19.39,0,0,0,7.005,3.44,8.365,8.365,0,0,0,1.7.179A6.426,6.426,0,0,0,1839,4698.6,9.267,9.267,0,0,0,1841.153,4691.591Z" fill="url(#linear-gradient-9)"/>
          </g>
          <path id="Path_19948" data-name="Path 19948" d="M1814.753,4653.214c5.22-.451,10.879,1.793,13.909,6.164.95,1.666,1.044,1.741-.392.338-3.826-3.388-8.626-5.191-13.517-6.5Z" fill="#fff"/>
          <path id="Path_19949" data-name="Path 19949" d="M1815.713,4669.925a8.8,8.8,0,0,1-1.109,3.344,7.4,7.4,0,0,0-.431,3.444l-.128.038a6.276,6.276,0,0,1-.542-3.264,5.72,5.72,0,0,1,.611-2.346,3.267,3.267,0,0,1,1.495-1.3l.1.084Z" fill="#fff"/>
          <path id="Path_19950" data-name="Path 19950" d="M1831.781,4689.791c1.763-2.812,5.751-3.683,7.365-.252.529,1.075-.287.121-.741-.06-2.411-1.667-4.164-.46-6.624.312Z" fill="#fff"/>
        </g>
      </g>
    </g>
    <g id="Group_8581" data-name="Group 8581" transform="translate(-1742.222)">
      <path id="Path_19952" data-name="Path 19952" d="M1908.712,4665.042c-.086-.389-.179-.774-.276-1.153a6.109,6.109,0,0,0-.174-.652c-.016-.054-.032-.111-.049-.168l-.022-.077a20.208,20.208,0,0,0-6.332-10.02,13.325,13.325,0,0,0-6.057-3,9.4,9.4,0,0,0-1.68-.152,8.884,8.884,0,0,0-5.211,1.659,11.585,11.585,0,0,0-2.859,3,12.364,12.364,0,0,0-1.711,2.071c-.089-.071-.174-.131-.24-.175l-.034-.024q-.248-.2-.5-.386a29.843,29.843,0,0,0-2.5-1.7,15.866,15.866,0,0,0-8.045-2.61,8.761,8.761,0,0,0-4.611,1.253,10.631,10.631,0,0,0-3.313,3.274c-2.757,2.618-3.922,6.611-4.571,9.58a51.019,51.019,0,0,0-.9,13.737c.136,2.5.425,4.912.689,6.946a54.96,54.96,0,0,0,1.24,6.784,17.482,17.482,0,0,0,2.589,6.133,7.4,7.4,0,0,0,2.565,2.242,8.311,8.311,0,0,0,1.672.6,9.318,9.318,0,0,0,2.417.394,4.747,4.747,0,0,0,1.162-.138,2.769,2.769,0,0,0,2.052-2.13,3.074,3.074,0,0,0,1.818-3.089,11.971,11.971,0,0,0-.271-2.611,23.943,23.943,0,0,0,9.856,8.253,15.084,15.084,0,0,0,8.622.894,13.067,13.067,0,0,0,7.215-3.961,18.085,18.085,0,0,0,1.512-1.848c.052-.054.107-.1.158-.156,3.229-3.431,5.29-8.43,6.3-15.283A48.759,48.759,0,0,0,1908.712,4665.042Z"/>
      <g id="Group_8580" data-name="Group 8580" clip-path="url(#clip-path-9)">
        <g id="Group_8579" data-name="Group 8579">
          <g id="Group_8578" data-name="Group 8578">
            <path id="Path_19953" data-name="Path 19953" d="M1906.848,4663.155l.06.208c.149.519.2.7.2.7Z" fill="url(#linear-gradient-22)"/>
            <path id="Path_19954" data-name="Path 19954" d="M1907.91,4682.335a47.324,47.324,0,0,0-.5-17q-.219-.992-.5-1.968A18.888,18.888,0,0,0,1901,4654a11.978,11.978,0,0,0-5.439-2.713,8.015,8.015,0,0,0-1.44-.13,7.578,7.578,0,0,0-4.433,1.408c-3.169,2.273-4.6,6.407-5.388,10.064a44.058,44.058,0,0,0-1.082,12.345,24.654,24.654,0,0,0,1.057,5.82,14.165,14.165,0,0,0,2.41,4.711,4.544,4.544,0,0,0,.369.407,10.108,10.108,0,0,1-2.492-3.222,20.673,20.673,0,0,1-1.955-5.359,38.146,38.146,0,0,1-.361-12.957,35.619,35.619,0,0,1,.923-5.074q.111-.409.235-.814c.061-.2.286-.64.194-.8-.061-.1-.252-.206-.347-.281q-.243-.192-.489-.378a27.89,27.89,0,0,0-2.384-1.62,14.9,14.9,0,0,0-7.355-2.418,7.425,7.425,0,0,0-3.918,1.059c-3.388,2.056-4.8,6.334-5.6,9.993a50.286,50.286,0,0,0-.869,13.38c.125,2.29.385,4.573.68,6.846a54.7,54.7,0,0,0,1.209,6.623,16.339,16.339,0,0,0,2.37,5.674,6.119,6.119,0,0,0,2.1,1.847,7.036,7.036,0,0,0,1.41.5,8.147,8.147,0,0,0,2.07.348,3.417,3.417,0,0,0,.834-.1c.927-.234,1.166-1.1,1.193-1.961a15.687,15.687,0,0,0-.42-3.232c-.2-1.122-.371-2.252-.518-3.382a58.3,58.3,0,0,1-.493-6.314,27.574,27.574,0,0,1,.393-5.789,15.453,15.453,0,0,1,.536-2.017,22.514,22.514,0,0,0-.2,6.588,4.986,4.986,0,0,0,.113.956,7.837,7.837,0,0,0,.323.823q.267.636.571,1.254a35.266,35.266,0,0,0,1.735,3.131c2.656,4.282,6.312,8.458,11.064,10.427a13.849,13.849,0,0,0,5.3,1.058,13.653,13.653,0,0,0,2.562-.242,11.806,11.806,0,0,0,6.492-3.565C1905.606,4693.019,1907.15,4687.479,1907.91,4682.335Z" fill="url(#linear-gradient-23)"/>
          </g>
          <path id="Path_19955" data-name="Path 19955" d="M1892.266,4652.931c2.84-1.169,6.232.056,8.426,2.032a14.787,14.787,0,0,1,3.816,5.475c.873,2.518.95,2.572-.575.315-2.748-3.938-6.48-7.933-11.667-7.822Z" fill="#fff"/>
          <path id="Path_19956" data-name="Path 19956" d="M1891.827,4699.257c5.187.11,8.918-3.884,11.667-7.822,1.5-2.214,1.467-2.25.575.314a14.771,14.771,0,0,1-3.816,5.475c-2.194,1.977-5.588,3.2-8.426,2.033Z" fill="#fff"/>
          <path id="Path_19957" data-name="Path 19957" d="M1867.287,4659.356a6.139,6.139,0,0,1,1.44-3.4c2.637-3.185,7.464-2.239,10.307.118-1.176-.318-2.307-.655-3.442-.844-3.786-.726-6.523.716-8.305,4.121Z" fill="#fff"/>
          <path id="Path_19958" data-name="Path 19958" d="M1873.348,4698.133a3.444,3.444,0,0,1-1.139-1.81,13.242,13.242,0,0,1-.149-3.027q.046-1.5.224-3l.134,0,.705,3.891a8.78,8.78,0,0,1,.338,3.873l-.113.071Z" fill="#fff"/>
        </g>
      </g>
    </g>
  </g>
</svg>
