<svg xmlns="http://www.w3.org/2000/svg" xmlns:xlink="http://www.w3.org/1999/xlink" width="517.881" height="132.562"><defs><linearGradient id="linear-gradient" x1=".5" y1="-6.766" x2=".5" y2="29.948" gradientUnits="objectBoundingBox"><stop offset="0" stop-color="#00ffd5"/><stop offset="1" stop-color="#01cb2d"/></linearGradient><linearGradient id="linear-gradient-2" x1=".5" y1=".119" x2=".5" y2=".789" xlink:href="#linear-gradient"/><linearGradient id="linear-gradient-3" x1=".5" y1="2.115" x2=".5" y2="83.085" xlink:href="#linear-gradient"/><linearGradient id="linear-gradient-4" x1=".5" y1=".029" x2=".5" y2=".675" xlink:href="#linear-gradient"/><linearGradient id="linear-gradient-5" x1=".5" y1=".039" x2=".5" y2=".966" gradientUnits="objectBoundingBox"><stop offset="0" stop-color="#00ffd5"/><stop offset=".638" stop-color="#01cc31"/><stop offset="1" stop-color="#01cb2d"/></linearGradient><linearGradient id="linear-gradient-6" x1=".501" y1="-52.883" x2=".501" y2="17.391" xlink:href="#linear-gradient"/><linearGradient id="linear-gradient-7" x1=".5" y1="-14.841" x2=".5" y2="6.209" xlink:href="#linear-gradient"/><linearGradient id="linear-gradient-8" x1=".499" y1="-130.633" x2=".499" y2="-26.818" xlink:href="#linear-gradient"/><linearGradient id="linear-gradient-9" x1=".5" y1="-.079" x2=".5" y2=".58" xlink:href="#linear-gradient"/><linearGradient id="linear-gradient-10" x1=".499" y1="-130.633" x2=".499" y2="-26.818" xlink:href="#linear-gradient"/><linearGradient id="linear-gradient-12" x1=".5" y1="-5.185" x2=".5" y2="27.062" xlink:href="#linear-gradient"/><linearGradient id="linear-gradient-13" x1=".5" y1="-.025" x2=".5" y2=".635" xlink:href="#linear-gradient"/><linearGradient id="linear-gradient-14" x1=".5" y1="-6.766" x2=".5" y2="29.948" xlink:href="#linear-gradient"/><clipPath id="clip-path"><path id="Path_513" data-name="Path 513" d="M4321.765 7699.668a63.926 63.926 0 00-.538-2.244 11.668 11.668 0 00-.338-1.269 6.327 6.327 0 00-.1-.328l-.043-.149a39.338 39.338 0 00-12.326-19.506 25.948 25.948 0 00-11.791-5.844 18.349 18.349 0 00-3.27-.3 17.284 17.284 0 00-10.144 3.229 22.569 22.569 0 00-5.565 5.837 24.093 24.093 0 00-3.332 4.031 6.812 6.812 0 00-.466-.341l-.067-.046c-.322-.254-.646-.5-.974-.751a57.1 57.1 0 00-4.862-3.3c-5.593-3.372-10.862-5.081-15.66-5.081a17.033 17.033 0 00-8.976 2.439 20.66 20.66 0 00-6.45 6.373c-5.367 5.1-7.636 12.868-8.9 18.648a99.311 99.311 0 00-1.748 26.743c.265 4.859.828 9.562 1.342 13.521a107.06 107.06 0 002.414 13.206c1.052 4.08 2.392 8.35 5.04 11.939a14.431 14.431 0 004.993 4.366 16.256 16.256 0 003.256 1.173 18.181 18.181 0 004.705.766 9.245 9.245 0 002.262-.268 5.4 5.4 0 004-4.146c1.514-.611 3.42-2.147 3.537-6.013a23.262 23.262 0 00-.526-5.083c5.741 7.765 12.175 13.162 19.186 16.066a29.41 29.41 0 0016.785 1.741 25.456 25.456 0 0014.045-7.713 35.051 35.051 0 002.943-3.6c.1-.1.208-.2.307-.3 6.285-6.679 10.3-16.411 12.271-29.752a94.923 94.923 0 00-1.01-34.044z"/></clipPath><clipPath id="clip-path-2"><path id="Path_519" data-name="Path 519" d="M4519.588 7677.269a13.192 13.192 0 00-3.065-3.383 6.712 6.712 0 00-.993-.708 5.956 5.956 0 00-1.227-.658 14.136 14.136 0 00-6.18-1.3 19.141 19.141 0 00-2.1.119 32.03 32.03 0 00-3.624.677c-.638.146-1.241.284-1.841.4a95.454 95.454 0 01-16.035 1.46q-1.265.021-2.53.021c-4.683 0-9.652-.2-15.637-.624-3.769-.268-7.608-.66-11.32-1.04a575.84 575.84 0 00-7.158-.7 39.466 39.466 0 00-3.515-.16 29.6 29.6 0 00-15.043 3.746 26.367 26.367 0 00-8.4 7.88 29.245 29.245 0 00-6.533 10.1 37.185 37.185 0 00-2.277 9.228 24.193 24.193 0 00.492 9.92 10.184 10.184 0 006.092 6.894 11.049 11.049 0 003.835.661 15.936 15.936 0 006.257-1.392 22.323 22.323 0 004.174-2.364c.681-.486 1.3-1 1.9-1.49.533-.436 1.036-.849 1.547-1.219a23.613 23.613 0 016.578-3.361 25.958 25.958 0 017.876-1.294c.245 0 .489 0 .729.013l.027.1c3.179 12.111-.972 24.618-4.986 36.714a600.003 600.003 0 00-1.362 4.134l-.133.41a15.173 15.173 0 00-1.051 5.984 11.329 11.329 0 002.708 6.333c2.8 3.433 6.767 5.489 9.909 6.9 6.761 3.028 14.61 4.958 24 5.9a74.263 74.263 0 007.483.433c1.275 0 2.51-.049 3.67-.146a6.519 6.519 0 005.714-4.579c3.922-2.01 4.228-7.767 4.355-10.162a64.928 64.928 0 00-.824-12.593c-.558-3.862-1.346-7.97-2.41-12.559a240.359 240.359 0 00-3.217-12.4c-.27-.932-.561-1.872-.842-2.782a44.783 44.783 0 01-2.06-8.524 11.676 11.676 0 01-.052-.775c.108-.006.215-.011.317-.013h.142a23.684 23.684 0 013.166.3c.333.046.665.092 1 .135a49.128 49.128 0 006.163.474 22.825 22.825 0 005.255-.561 12.26 12.26 0 008.247-6.26 12.762 12.762 0 003.863-5.174 27.9 27.9 0 001.882-10.315c.093-5.012-.901-9.181-2.966-12.4z"/></clipPath><clipPath id="clip-path-3"><path id="Path_527" data-name="Path 527" d="M4177.414 7717.361a63.153 63.153 0 00-.927-4.52l-.007-.03-.008-.031-.024-.089c-.047-.206-.1-.423-.161-.653h-.011v-.014h.01a596.62 596.62 0 00-.6-2.279 6.281 6.281 0 00-.345-1.035c-3.961-12.846-10.473-22.1-19.374-27.522a43.518 43.518 0 00-19.933-5.862 68.974 68.974 0 00-4.721-.146c-1.935 0-3.849.062-5.465.122-.965.037-1.961.052-2.924.066-.713.011-1.427.022-2.141.041a14.589 14.589 0 00-5.113.948 8.859 8.859 0 00-4.915 4.778 9.5 9.5 0 00-4.113 7.925 37.4 37.4 0 00-9.085 8.878 44.656 44.656 0 00-11.02 21.9 67.979 67.979 0 00-1 20.861c.769 7.537 2.3 13.189 4.81 17.789a29.635 29.635 0 0015.068 13.187c5.691 2.331 12.321 3.553 20.867 3.845 1.511.052 2.849.077 4.09.077 7.022 0 12.3-.824 17.125-2.671a42.009 42.009 0 0016.446-11.588 41.503 41.503 0 002.141-2.686c.376-.4.747-.8 1.109-1.214 9.028-10.313 12.755-24.92 10.221-40.077zm-63.881 22.278c.292-.363.561-.72.83-1.077.125-.134.251-.268.371-.4a60.167 60.167 0 002.049-2.42 35.915 35.915 0 003.113-4.5 14.3 14.3 0 012.036 8.418v.016a12.837 12.837 0 01-.971 4.1 7.274 7.274 0 01-3.754 1.091 6.489 6.489 0 01-1.588-.2 4.482 4.482 0 01-2.848-1.885 2.359 2.359 0 01-.061-2.142c.274-.33.549-.66.823-1.001z"/></clipPath><clipPath id="clip-path-4"><path id="Path_534" data-name="Path 534" d="M4115.695 7751.073a13.971 13.971 0 00-2.093-6.306 6.869 6.869 0 00-.847-1.1l-.022-.024-.006-.007a17.813 17.813 0 00-3.572-2.855 11.962 11.962 0 00-5.889-2.139c-.1 0-.205-.006-.307-.006a12.151 12.151 0 00-5.445 1.578c-.471.234-.937.475-1.4.716-.987.512-1.92.994-2.872 1.4a11.406 11.406 0 01-4.533.948 12.707 12.707 0 01-3.538-.527 24.1 24.1 0 01-7.728-4.055 31.216 31.216 0 01-10.8-14.294 17.1 17.1 0 01-.982-6.709 25.643 25.643 0 0017.231 7.179 18.511 18.511 0 009.071-2.273 29.316 29.316 0 0011.278-17.1c.14-4.807-1.7-9.9-5.325-14.722-5.745-7.648-14.783-13.829-24.8-16.959a43.919 43.919 0 00-12.892-2.064c-6.664 0-12.308 1.767-16.774 5.252a21.625 21.625 0 00-4.79 5.24 23.146 23.146 0 00-6.2 10.333c-1.068 3.63-1.067 7.895 0 13.038a63.968 63.968 0 005.315 14.864 115.525 115.525 0 007.791 13.511A144.39 144.39 0 004065.62 7758c4.114 3.956 8.422 6.8 12.058 10.075 4.451 4.014 9.716 8.142 14.607 7.118 1.286-.27 2.578.4 3.839.4a15.166 15.166 0 0011.486-4.968 17.843 17.843 0 001.918-2.6 14.836 14.836 0 001.332-1.3 20.75 20.75 0 004.835-15.652z"/></clipPath><clipPath id="clip-path-5"><path id="Path_541" data-name="Path 541" d="M4449.059 7751.073a13.971 13.971 0 00-2.093-6.306 6.867 6.867 0 00-.847-1.1l-.022-.024-.006-.007a17.8 17.8 0 00-3.572-2.855 11.958 11.958 0 00-5.889-2.139q-.155-.007-.307-.006a12.155 12.155 0 00-5.445 1.578c-.471.234-.937.475-1.4.716-.987.512-1.92.994-2.872 1.4a11.406 11.406 0 01-4.533.948 12.707 12.707 0 01-3.538-.527 24.1 24.1 0 01-7.728-4.055A31.215 31.215 0 014400 7724.4a17.118 17.118 0 01-.982-6.709 25.643 25.643 0 0017.231 7.179 18.512 18.512 0 009.071-2.273 29.322 29.322 0 0011.278-17.1c.14-4.807-1.7-9.9-5.325-14.722-5.745-7.648-14.783-13.829-24.8-16.959a43.914 43.914 0 00-12.892-2.064c-6.664 0-12.308 1.767-16.774 5.252a21.625 21.625 0 00-4.79 5.24 23.152 23.152 0 00-6.2 10.333c-1.068 3.63-1.066 7.895 0 13.038a63.957 63.957 0 005.315 14.864 115.525 115.525 0 007.791 13.511 144.389 144.389 0 0020.061 24.01c4.114 3.956 8.422 6.8 12.058 10.075 4.451 4.014 9.716 8.142 14.607 7.118 1.286-.27 2.578.4 3.84.4a15.165 15.165 0 0011.485-4.968 17.843 17.843 0 001.918-2.6 14.9 14.9 0 001.332-1.3 20.752 20.752 0 004.835-15.652z"/></clipPath><clipPath id="clip-path-6"><path id="Path_547" data-name="Path 547" d="M4372.943 7683.157a11.373 11.373 0 00-1.1-1.5 12.332 12.332 0 00-1.128-1.3 26.836 26.836 0 00-19.66-8.268h-.283a20.911 20.911 0 00-6.63 1.049 28.059 28.059 0 00-5.649 2.743 50.519 50.519 0 00-9.277 7.533 70.9 70.9 0 00-5.779 6.6 74.633 74.633 0 00-10.6 15.432c-4.346 8.382-6.666 16-7.092 23.3a38.124 38.124 0 006.451 23.453 53.054 53.054 0 0017.291 16.018c5.6 3.3 14.2 7.265 23.389 7.379h.39c4.687 0 8.138-1.117 10.55-3.414a11.145 11.145 0 002.249-3.062 10.554 10.554 0 001-.838c2.934-2.795 4.254-7.338 3.621-12.466-.289-2.352-1.429-8.147-5.742-11.148a6.77 6.77 0 00-3.849-1.286h-.127a9.159 9.159 0 00-2.924.664c-.272.1-.528.189-.75.253-.941.272-1.923.5-2.933.685a33.374 33.374 0 003.384-2.521 38.5 38.5 0 006.064-6.586 45.172 45.172 0 007.94-11.844 61.753 61.753 0 005.638-19.8c.603-5.905.266-14.17-4.444-21.076zm-43.454 47.147a14.92 14.92 0 01-.047-.573 16.065 16.065 0 011.006-6.571 15.87 15.87 0 011.076-2.3 6.921 6.921 0 014.079-1.83c.1 0 .211.005.314.014a2.909 2.909 0 012.443 3.332v.017a7.452 7.452 0 01-1.162 3.36 21.3 21.3 0 01-7.709 4.547z"/></clipPath><clipPath id="clip-path-7"><path id="Path_555" data-name="Path 555" d="M4247.131 7699.668a68.74 68.74 0 00-.538-2.244 11.8 11.8 0 00-.338-1.269c-.031-.107-.062-.216-.1-.328l-.043-.149a39.343 39.343 0 00-12.327-19.506 25.938 25.938 0 00-11.791-5.844 18.334 18.334 0 00-3.269-.3 17.289 17.289 0 00-10.145 3.229 22.588 22.588 0 00-5.564 5.837 24.045 24.045 0 00-3.332 4.031 6.812 6.812 0 00-.466-.341l-.068-.046c-.321-.254-.646-.5-.973-.751a56.958 56.958 0 00-4.863-3.3c-5.593-3.372-10.862-5.081-15.66-5.081a17.038 17.038 0 00-8.976 2.439 20.648 20.648 0 00-6.449 6.373c-5.367 5.1-7.637 12.868-8.9 18.648a99.333 99.333 0 00-1.747 26.743c.265 4.859.827 9.562 1.342 13.521a107.272 107.272 0 002.413 13.206c1.053 4.08 2.392 8.35 5.041 11.939a14.415 14.415 0 004.993 4.366 16.277 16.277 0 003.255 1.173 18.184 18.184 0 004.705.766 9.237 9.237 0 002.262-.268 5.4 5.4 0 003.995-4.146c1.515-.611 3.42-2.147 3.538-6.013a23.292 23.292 0 00-.526-5.083c5.741 7.765 12.175 13.162 19.186 16.066a29.41 29.41 0 0016.785 1.741 25.458 25.458 0 0014.045-7.713 35.112 35.112 0 002.943-3.6c.1-.1.208-.2.307-.3 6.285-6.679 10.3-16.411 12.271-29.752a94.923 94.923 0 00-1.006-34.044z"/></clipPath></defs><g id="connect" transform="translate(-4018.171 -7656.532)"><g id="Group_309" data-name="Group 309"><g id="Group_308" data-name="Group 308"><path id="Path_503" data-name="Path 503" d="M4528.008 7671.874a23.223 23.223 0 00-5.128-5.711 16.682 16.682 0 00-2.05-1.465 16.125 16.125 0 00-2.638-1.4 24.182 24.182 0 00-10.069-2.083 29.126 29.126 0 00-3.2.179 41.123 41.123 0 00-4.761.869c-.5.115-.975.226-1.448.314a85.731 85.731 0 01-14.365 1.291c-.786.014-1.572.018-2.357.018-4.452 0-9.194-.19-14.926-.6-3.654-.261-7.4-.644-11.014-1.014l-.127-.013c-2.343-.239-4.762-.486-7.15-.7-1.475-.133-2.96-.2-4.413-.2a39.443 39.443 0 00-20.057 5.094 34.513 34.513 0 00-3.735 2.5 63.123 63.123 0 00-11.1-4.7 54.046 54.046 0 00-15.876-2.518c-8.407 0-15.723 2.187-21.773 6.508a37.628 37.628 0 00-20.832-6.172h-.313a30.631 30.631 0 00-9.766 1.586 37.907 37.907 0 00-7.662 3.691 60.271 60.271 0 00-11.058 8.934 45.911 45.911 0 00-7.344-7.795 35.929 35.929 0 00-16.421-8.014 28.309 28.309 0 00-5.054-.457h-.007a27.223 27.223 0 00-15.969 5.1 31.282 31.282 0 00-5.041 4.533c-6.905-4.023-13.649-6.062-20.056-6.062a26.922 26.922 0 00-13.7 3.613 35.261 35.261 0 00-14.81-6.731 28.3 28.3 0 00-5.053-.457h-.008a27.22 27.22 0 00-15.968 5.1 31.334 31.334 0 00-5.042 4.533c-6.9-4.023-13.649-6.062-20.056-6.062a26.905 26.905 0 00-14.161 3.888 28.687 28.687 0 00-4.859 3.72 54.717 54.717 0 00-21.934-5.868 80.244 80.244 0 00-5.393-.168c-2.109 0-4.135.065-5.849.129-.886.034-1.8.047-2.7.06h-.237c-.666.011-1.332.022-2.006.04a24.4 24.4 0 00-8.574 1.664 48.707 48.707 0 00-12.019 11.03 62.228 62.228 0 00-23.822-13.84 54.038 54.038 0 00-15.876-2.518c-8.946 0-16.66 2.479-22.925 7.368a31.469 31.469 0 00-6.358 6.695 33.436 33.436 0 00-8.072 13.94c-1.544 5.248-1.607 11.1-.193 17.9a73.808 73.808 0 006.109 17.2 125.89 125.89 0 008.464 14.686 154.526 154.526 0 0021.44 25.679 100.325 100.325 0 007.773 6.584c1.642 1.292 3.193 2.512 4.518 3.707 4 3.6 12.1 10.9 21.865 9.725a15.9 15.9 0 003.279.369 25.913 25.913 0 0011.459-2.644 77.668 77.668 0 0018.359 2.562c1.638.055 3.086.082 4.426.082 8.3 0 14.685-1.028 20.7-3.332a49.6 49.6 0 007.667-3.727 23.139 23.139 0 002.073 1.2 25.783 25.783 0 005.222 1.933 27.637 27.637 0 007.3 1.109 19.212 19.212 0 004.711-.572 15.233 15.233 0 008.858-6.124 48.061 48.061 0 0011.058 6.492 39.421 39.421 0 0022.486 2.324 35.325 35.325 0 0013.839-5.8q.57.336 1.157.637a25.883 25.883 0 005.221 1.932 27.641 27.641 0 007.3 1.109 19.212 19.212 0 004.711-.572 15.229 15.229 0 008.858-6.124 48.032 48.032 0 0011.059 6.492 39.416 39.416 0 0022.485 2.324 35.263 35.263 0 0019.455-10.684 42.95 42.95 0 002.251-2.6 68.342 68.342 0 007.608 5.2c6.643 3.922 16.954 8.626 28.322 8.767h.541c7.277 0 13.148-2.078 17.448-6.174a20.783 20.783 0 003.124-3.782l.125-.118c5.25-5 7.674-12.63 6.649-20.929a32.061 32.061 0 00-.321-2.061 152.946 152.946 0 0011.768 12.679 100.142 100.142 0 007.774 6.586c1.642 1.291 3.192 2.51 4.516 3.705 4 3.6 12.107 10.913 21.865 9.725a15.9 15.9 0 003.28.369 25.039 25.039 0 0018.928-8.29c.2-.223.4-.45.59-.681 1.3.7 2.525 1.279 3.606 1.764 7.753 3.47 16.611 5.67 27.081 6.723a83.7 83.7 0 008.485.484 54.21 54.21 0 004.5-.181 16.079 16.079 0 0012.668-7.816c5.962-5.167 6.4-13.389 6.555-16.363a73.979 73.979 0 00-.913-14.551c-.6-4.144-1.438-8.524-2.565-13.385-.9-3.884-1.879-7.707-2.915-11.389a31.059 31.059 0 005.324-.763 22.323 22.323 0 0013.715-9.492 22.84 22.84 0 005.329-7.8 37.608 37.608 0 002.664-13.989c.149-6.984-1.377-13.037-4.529-17.954z" fill="#fff"/><path id="Path_504" data-name="Path 504" d="M4528.008 7671.874a23.223 23.223 0 00-5.128-5.711 16.682 16.682 0 00-2.05-1.465 16.125 16.125 0 00-2.638-1.4 24.182 24.182 0 00-10.069-2.083 29.126 29.126 0 00-3.2.179 41.123 41.123 0 00-4.761.869c-.5.115-.975.226-1.448.314a85.731 85.731 0 01-14.365 1.291c-.786.014-1.572.018-2.357.018-4.452 0-9.194-.19-14.926-.6-3.654-.261-7.4-.644-11.014-1.014l-.127-.013c-2.343-.239-4.762-.486-7.15-.7-1.475-.133-2.96-.2-4.413-.2a39.443 39.443 0 00-20.057 5.094 34.513 34.513 0 00-3.735 2.5 63.123 63.123 0 00-11.1-4.7 54.046 54.046 0 00-15.876-2.518c-8.407 0-15.723 2.187-21.773 6.508a37.628 37.628 0 00-20.832-6.172h-.313a30.631 30.631 0 00-9.766 1.586 37.907 37.907 0 00-7.662 3.691 60.271 60.271 0 00-11.058 8.934 45.911 45.911 0 00-7.344-7.795 35.929 35.929 0 00-16.421-8.014 28.309 28.309 0 00-5.054-.457h-.007a27.223 27.223 0 00-15.969 5.1 31.282 31.282 0 00-5.041 4.533c-6.905-4.023-13.649-6.062-20.056-6.062a26.922 26.922 0 00-13.7 3.613 35.261 35.261 0 00-14.81-6.731 28.3 28.3 0 00-5.053-.457h-.008a27.22 27.22 0 00-15.968 5.1 31.334 31.334 0 00-5.042 4.533c-6.9-4.023-13.649-6.062-20.056-6.062a26.905 26.905 0 00-14.161 3.888 28.687 28.687 0 00-4.859 3.72 54.717 54.717 0 00-21.934-5.868 80.244 80.244 0 00-5.393-.168c-2.109 0-4.135.065-5.849.129-.886.034-1.8.047-2.7.06h-.237c-.666.011-1.332.022-2.006.04a24.4 24.4 0 00-8.574 1.664 48.707 48.707 0 00-12.019 11.03 62.228 62.228 0 00-23.822-13.84 54.038 54.038 0 00-15.876-2.518c-8.946 0-16.66 2.479-22.925 7.368a31.469 31.469 0 00-6.358 6.695 33.436 33.436 0 00-8.072 13.94c-1.544 5.248-1.607 11.1-.193 17.9a73.808 73.808 0 006.109 17.2 125.89 125.89 0 008.464 14.686 154.526 154.526 0 0021.44 25.679 100.325 100.325 0 007.773 6.584c1.642 1.292 3.193 2.512 4.518 3.707 4 3.6 12.1 10.9 21.865 9.725a15.9 15.9 0 003.279.369 25.913 25.913 0 0011.459-2.644 77.668 77.668 0 0018.359 2.562c1.638.055 3.086.082 4.426.082 8.3 0 14.685-1.028 20.7-3.332a49.6 49.6 0 007.667-3.727 23.139 23.139 0 002.073 1.2 25.783 25.783 0 005.222 1.933 27.637 27.637 0 007.3 1.109 19.212 19.212 0 004.711-.572 15.233 15.233 0 008.858-6.124 48.061 48.061 0 0011.058 6.492 39.421 39.421 0 0022.486 2.324 35.325 35.325 0 0013.839-5.8q.57.336 1.157.637a25.883 25.883 0 005.221 1.932 27.641 27.641 0 007.3 1.109 19.212 19.212 0 004.711-.572 15.229 15.229 0 008.858-6.124 48.032 48.032 0 0011.059 6.492 39.416 39.416 0 0022.485 2.324 35.263 35.263 0 0019.455-10.684 42.95 42.95 0 002.251-2.6 68.342 68.342 0 007.608 5.2c6.643 3.922 16.954 8.626 28.322 8.767h.541c7.277 0 13.148-2.078 17.448-6.174a20.783 20.783 0 003.124-3.782l.125-.118c5.25-5 7.674-12.63 6.649-20.929a32.061 32.061 0 00-.321-2.061 152.946 152.946 0 0011.768 12.679 100.142 100.142 0 007.774 6.586c1.642 1.291 3.192 2.51 4.516 3.705 4 3.6 12.107 10.913 21.865 9.725a15.9 15.9 0 003.28.369 25.039 25.039 0 0018.928-8.29c.2-.223.4-.45.59-.681 1.3.7 2.525 1.279 3.606 1.764 7.753 3.47 16.611 5.67 27.081 6.723a83.7 83.7 0 008.485.484 54.21 54.21 0 004.5-.181 16.079 16.079 0 0012.668-7.816c5.962-5.167 6.4-13.389 6.555-16.363a73.979 73.979 0 00-.913-14.551c-.6-4.144-1.438-8.524-2.565-13.385-.9-3.884-1.879-7.707-2.915-11.389a31.059 31.059 0 005.324-.763 22.323 22.323 0 0013.715-9.492 22.84 22.84 0 005.329-7.8 37.608 37.608 0 002.664-13.989c.149-6.984-1.377-13.037-4.529-17.954z" fill="none" stroke="#fff" stroke-miterlimit="10" stroke-width="7"/><path id="Path_505" data-name="Path 505" d="M4528.008 7671.874a23.223 23.223 0 00-5.128-5.711 16.682 16.682 0 00-2.05-1.465 16.125 16.125 0 00-2.638-1.4 24.182 24.182 0 00-10.069-2.083 29.126 29.126 0 00-3.2.179 41.123 41.123 0 00-4.761.869c-.5.115-.975.226-1.448.314a85.731 85.731 0 01-14.365 1.291c-.786.014-1.572.018-2.357.018-4.452 0-9.194-.19-14.926-.6-3.654-.261-7.4-.644-11.014-1.014l-.127-.013c-2.343-.239-4.762-.486-7.15-.7-1.475-.133-2.96-.2-4.413-.2a39.443 39.443 0 00-20.057 5.094 34.513 34.513 0 00-3.735 2.5 63.123 63.123 0 00-11.1-4.7 54.046 54.046 0 00-15.876-2.518c-8.407 0-15.723 2.187-21.773 6.508a37.628 37.628 0 00-20.832-6.172h-.313a30.631 30.631 0 00-9.766 1.586 37.907 37.907 0 00-7.662 3.691 60.271 60.271 0 00-11.058 8.934 45.911 45.911 0 00-7.344-7.795 35.929 35.929 0 00-16.421-8.014 28.309 28.309 0 00-5.054-.457h-.007a27.223 27.223 0 00-15.969 5.1 31.282 31.282 0 00-5.041 4.533c-6.905-4.023-13.649-6.062-20.056-6.062a26.922 26.922 0 00-13.7 3.613 35.261 35.261 0 00-14.81-6.731 28.3 28.3 0 00-5.053-.457h-.008a27.22 27.22 0 00-15.968 5.1 31.334 31.334 0 00-5.042 4.533c-6.9-4.023-13.649-6.062-20.056-6.062a26.905 26.905 0 00-14.161 3.888 28.687 28.687 0 00-4.859 3.72 54.717 54.717 0 00-21.934-5.868 80.244 80.244 0 00-5.393-.168c-2.109 0-4.135.065-5.849.129-.886.034-1.8.047-2.7.06h-.237c-.666.011-1.332.022-2.006.04a24.4 24.4 0 00-8.574 1.664 48.707 48.707 0 00-12.019 11.03 62.228 62.228 0 00-23.822-13.84 54.038 54.038 0 00-15.876-2.518c-8.946 0-16.66 2.479-22.925 7.368a31.469 31.469 0 00-6.358 6.695 33.436 33.436 0 00-8.072 13.94c-1.544 5.248-1.607 11.1-.193 17.9a73.808 73.808 0 006.109 17.2 125.89 125.89 0 008.464 14.686 154.526 154.526 0 0021.44 25.679 100.325 100.325 0 007.773 6.584c1.642 1.292 3.193 2.512 4.518 3.707 4 3.6 12.1 10.9 21.865 9.725a15.9 15.9 0 003.279.369 25.913 25.913 0 0011.459-2.644 77.668 77.668 0 0018.359 2.562c1.638.055 3.086.082 4.426.082 8.3 0 14.685-1.028 20.7-3.332a49.6 49.6 0 007.667-3.727 23.139 23.139 0 002.073 1.2 25.783 25.783 0 005.222 1.933 27.637 27.637 0 007.3 1.109 19.212 19.212 0 004.711-.572 15.233 15.233 0 008.858-6.124 48.061 48.061 0 0011.058 6.492 39.421 39.421 0 0022.486 2.324 35.325 35.325 0 0013.839-5.8q.57.336 1.157.637a25.883 25.883 0 005.221 1.932 27.641 27.641 0 007.3 1.109 19.212 19.212 0 004.711-.572 15.229 15.229 0 008.858-6.124 48.032 48.032 0 0011.059 6.492 39.416 39.416 0 0022.485 2.324 35.263 35.263 0 0019.455-10.684 42.95 42.95 0 002.251-2.6 68.342 68.342 0 007.608 5.2c6.643 3.922 16.954 8.626 28.322 8.767h.541c7.277 0 13.148-2.078 17.448-6.174a20.783 20.783 0 003.124-3.782l.125-.118c5.25-5 7.674-12.63 6.649-20.929a32.061 32.061 0 00-.321-2.061 152.946 152.946 0 0011.768 12.679 100.142 100.142 0 007.774 6.586c1.642 1.291 3.192 2.51 4.516 3.705 4 3.6 12.107 10.913 21.865 9.725a15.9 15.9 0 003.28.369 25.039 25.039 0 0018.928-8.29c.2-.223.4-.45.59-.681 1.3.7 2.525 1.279 3.606 1.764 7.753 3.47 16.611 5.67 27.081 6.723a83.7 83.7 0 008.485.484 54.21 54.21 0 004.5-.181 16.079 16.079 0 0012.668-7.816c5.962-5.167 6.4-13.389 6.555-16.363a73.979 73.979 0 00-.913-14.551c-.6-4.144-1.438-8.524-2.565-13.385-.9-3.884-1.879-7.707-2.915-11.389a31.059 31.059 0 005.324-.763 22.323 22.323 0 0013.715-9.492 22.84 22.84 0 005.329-7.8 37.608 37.608 0 002.664-13.989c.149-6.984-1.377-13.037-4.529-17.954z" fill="none" stroke="#000" stroke-miterlimit="10" stroke-width="6"/></g></g><g id="Group_338" data-name="Group 338"><g id="Group_313" data-name="Group 313"><path id="Path_506" data-name="Path 506" d="M4321.765 7699.668a63.926 63.926 0 00-.538-2.244 11.668 11.668 0 00-.338-1.269 6.327 6.327 0 00-.1-.328l-.043-.149a39.338 39.338 0 00-12.326-19.506 25.948 25.948 0 00-11.791-5.844 18.349 18.349 0 00-3.27-.3 17.284 17.284 0 00-10.144 3.229 22.569 22.569 0 00-5.565 5.837 24.093 24.093 0 00-3.332 4.031 6.812 6.812 0 00-.466-.341l-.067-.046c-.322-.254-.646-.5-.974-.751a57.1 57.1 0 00-4.862-3.3c-5.593-3.372-10.862-5.081-15.66-5.081a17.033 17.033 0 00-8.976 2.439 20.66 20.66 0 00-6.45 6.373c-5.367 5.1-7.636 12.868-8.9 18.648a99.311 99.311 0 00-1.748 26.743c.265 4.859.828 9.562 1.342 13.521a107.06 107.06 0 002.414 13.206c1.052 4.08 2.392 8.35 5.04 11.939a14.431 14.431 0 004.993 4.366 16.256 16.256 0 003.256 1.173 18.181 18.181 0 004.705.766 9.245 9.245 0 002.262-.268 5.4 5.4 0 004-4.146c1.514-.611 3.42-2.147 3.537-6.013a23.262 23.262 0 00-.526-5.083c5.741 7.765 12.175 13.162 19.186 16.066a29.41 29.41 0 0016.785 1.741 25.456 25.456 0 0014.045-7.713 35.051 35.051 0 002.943-3.6c.1-.1.208-.2.307-.3 6.285-6.679 10.3-16.411 12.271-29.752a94.923 94.923 0 00-1.01-34.044z"/><g id="Group_312" data-name="Group 312" clip-path="url(#clip-path)"><g id="Group_311" data-name="Group 311"><g id="Group_310" data-name="Group 310"><path id="Path_507" data-name="Path 507" d="M4318.136 7696l.117.4.393 1.358z" fill="url(#linear-gradient)"/><path id="Path_508" data-name="Path 508" d="M4320.2 7733.333a92.152 92.152 0 00-.977-33.1q-.428-1.931-.974-3.831a36.782 36.782 0 00-11.5-18.234 23.335 23.335 0 00-10.588-5.28 15.685 15.685 0 00-2.8-.254 14.745 14.745 0 00-8.629 2.742c-6.169 4.425-8.956 12.471-10.49 19.592a85.838 85.838 0 00-2.106 24.031 48.087 48.087 0 002.057 11.329 27.6 27.6 0 004.692 9.172 9.1 9.1 0 00.718.791 19.665 19.665 0 01-4.85-6.271 40.271 40.271 0 01-3.807-10.432c-1.877-8.273-1.7-16.849-.7-25.223a69.5 69.5 0 011.8-9.88q.215-.795.457-1.584c.119-.387.557-1.245.378-1.55a2.945 2.945 0 00-.676-.546c-.314-.25-.632-.494-.952-.736a54.431 54.431 0 00-4.64-3.153c-4.211-2.538-9.325-4.707-14.317-4.707a14.453 14.453 0 00-7.628 2.062c-6.6 4-9.351 12.329-10.906 19.453a97.878 97.878 0 00-1.691 26.046c.243 4.457.748 8.9 1.324 13.328a106.437 106.437 0 002.352 12.891c.989 3.831 2.239 7.826 4.615 11.046a11.917 11.917 0 004.088 3.595 13.744 13.744 0 002.745.977 15.87 15.87 0 004.029.676 6.6 6.6 0 001.624-.188c1.8-.456 2.27-2.132 2.322-3.818a30.549 30.549 0 00-.817-6.291 134.074 134.074 0 01-1.008-6.584 113.4 113.4 0 01-.961-12.292 53.867 53.867 0 01.765-11.269 30.531 30.531 0 011.043-3.925 43.888 43.888 0 00-.4 12.824 9.984 9.984 0 00.22 1.862 15.124 15.124 0 00.63 1.6q.519 1.237 1.111 2.441a68.854 68.854 0 003.377 6.095c5.171 8.335 12.288 16.466 21.538 20.3a26.811 26.811 0 0015.3 1.589 22.993 22.993 0 0012.639-6.94c7.111-7.556 10.117-18.341 11.593-28.354z" fill="url(#linear-gradient-2)"/></g><path id="Path_509" data-name="Path 509" d="M4289.751 7676.091c5.527-2.274 12.131.11 16.4 3.957a28.766 28.766 0 017.429 10.658c1.7 4.9 1.848 5.006-1.12.613-5.349-7.667-12.615-15.443-22.711-15.228z" fill="#fff"/><path id="Path_510" data-name="Path 510" d="M4288.9 7766.274c10.1.214 17.361-7.56 22.712-15.228 2.918-4.31 2.856-4.378 1.12.613a28.787 28.787 0 01-7.429 10.658c-4.27 3.847-10.877 6.232-16.4 3.957z" fill="#fff"/><path id="Path_511" data-name="Path 511" d="M4241.124 7688.6a11.953 11.953 0 012.8-6.609c5.133-6.2 14.53-4.359 20.065.23-2.289-.62-4.491-1.275-6.7-1.645-7.368-1.413-12.7 1.4-16.166 8.024z" fill="#fff"/><path id="Path_512" data-name="Path 512" d="M4252.923 7764.086a6.716 6.716 0 01-2.218-3.523c-.546-1.855-.2-3.991-.289-5.894q.089-2.925.436-5.829l.26-.007 1.373 7.576a17.083 17.083 0 01.657 7.538l-.219.139z" fill="#fff"/></g></g></g><g id="Group_317" data-name="Group 317"><path id="Path_514" data-name="Path 514" d="M4519.588 7677.269a13.192 13.192 0 00-3.065-3.383 6.712 6.712 0 00-.993-.708 5.956 5.956 0 00-1.227-.658 14.136 14.136 0 00-6.18-1.3 19.141 19.141 0 00-2.1.119 32.03 32.03 0 00-3.624.677c-.638.146-1.241.284-1.841.4a95.454 95.454 0 01-16.035 1.46q-1.265.021-2.53.021c-4.683 0-9.652-.2-15.637-.624-3.769-.268-7.608-.66-11.32-1.04a575.84 575.84 0 00-7.158-.7 39.466 39.466 0 00-3.515-.16 29.6 29.6 0 00-15.043 3.746 26.367 26.367 0 00-8.4 7.88 29.245 29.245 0 00-6.533 10.1 37.185 37.185 0 00-2.277 9.228 24.193 24.193 0 00.492 9.92 10.184 10.184 0 006.092 6.894 11.049 11.049 0 003.835.661 15.936 15.936 0 006.257-1.392 22.323 22.323 0 004.174-2.364c.681-.486 1.3-1 1.9-1.49.533-.436 1.036-.849 1.547-1.219a23.613 23.613 0 016.578-3.361 25.958 25.958 0 017.876-1.294c.245 0 .489 0 .729.013l.027.1c3.179 12.111-.972 24.618-4.986 36.714a600.003 600.003 0 00-1.362 4.134l-.133.41a15.173 15.173 0 00-1.051 5.984 11.329 11.329 0 002.708 6.333c2.8 3.433 6.767 5.489 9.909 6.9 6.761 3.028 14.61 4.958 24 5.9a74.263 74.263 0 007.483.433c1.275 0 2.51-.049 3.67-.146a6.519 6.519 0 005.714-4.579c3.922-2.01 4.228-7.767 4.355-10.162a64.928 64.928 0 00-.824-12.593c-.558-3.862-1.346-7.97-2.41-12.559a240.359 240.359 0 00-3.217-12.4c-.27-.932-.561-1.872-.842-2.782a44.783 44.783 0 01-2.06-8.524 11.676 11.676 0 01-.052-.775c.108-.006.215-.011.317-.013h.142a23.684 23.684 0 013.166.3c.333.046.665.092 1 .135a49.128 49.128 0 006.163.474 22.825 22.825 0 005.255-.561 12.26 12.26 0 008.247-6.26 12.762 12.762 0 003.863-5.174 27.9 27.9 0 001.882-10.315c.093-5.012-.901-9.181-2.966-12.4z"/><g id="Group_316" data-name="Group 316" clip-path="url(#clip-path-2)"><g id="Group_315" data-name="Group 315"><g id="Group_314" data-name="Group 314"><path id="Path_515" data-name="Path 515" d="M4513.538 7675.007c-.006 0 .152.1.6.392.441.269.608.368.614.368s-1.197-.76-1.214-.76z" fill="url(#linear-gradient-3)"/><path id="Path_516" data-name="Path 516" d="M4518.266 7698.969a25.877 25.877 0 001.679-9.36c.077-3.747-.486-7.725-2.545-10.936a10.31 10.31 0 00-3.261-3.274 11.084 11.084 0 00-6.016-1.583 16.675 16.675 0 00-1.819.1c-1.784.2-3.513.715-5.272 1.045a98.069 98.069 0 01-16.471 1.5q-1.287.021-2.573.021c-5.279 0-10.556-.256-15.821-.631-6.192-.44-12.347-1.189-18.527-1.745-1.088-.1-2.185-.15-3.282-.15a27.274 27.274 0 00-13.74 3.4 25.1 25.1 0 00-10.566 12.776 34.828 34.828 0 00-2.117 8.582 21.729 21.729 0 00.4 8.861 7.694 7.694 0 004.506 5.215 8.426 8.426 0 002.935.5 13.554 13.554 0 005.234-1.182 19.672 19.672 0 003.687-2.09c1.186-.847 2.255-1.843 3.436-2.7a26.282 26.282 0 017.3-3.728 28.482 28.482 0 018.677-1.421 20.291 20.291 0 017.23 1.247 10.549 10.549 0 012.19 1.071c-2.049-.11-4.1-.216-6.149-.264 3.755 14.305-2.026 28.842-6.389 42.311a14.047 14.047 0 00-1.065 5.4 8.887 8.887 0 002.129 4.885c2.3 2.821 5.683 4.7 8.958 6.166a75.53 75.53 0 0023.193 5.687 72.31 72.31 0 007.223.42c1.155 0 2.308-.041 3.454-.137 3.865-.323 4.28-5.389 4.438-8.387a61.98 61.98 0 00-.8-12.085c-.6-4.148-1.423-8.261-2.369-12.343q-1.429-6.17-3.182-12.264c-1.113-3.851-2.578-7.752-2.99-11.762a7.632 7.632 0 011.089-5.449 6.109 6.109 0 014.974-2.1h.18a35.684 35.684 0 014.493.458 46.092 46.092 0 005.832.453 20.418 20.418 0 004.661-.492 9.808 9.808 0 007.056-6.015z" fill="url(#linear-gradient-4)"/></g><path id="Path_517" data-name="Path 517" d="M4485.175 7764.856c6.761.371 10.9.417 10.789-7.737a39.735 39.735 0 00-.522-5.977l.252-.064a33.456 33.456 0 011.566 5.945c.883 4.453-.676 10.41-6.154 10.4a9.269 9.269 0 01-6.038-2.326l.107-.237z" fill="#fff"/><path id="Path_518" data-name="Path 518" d="M4500.949 7678.664c6.1-5.023 14.361-3.875 16.4 4.488a20.774 20.774 0 01.092 8.9c-.487-2.318-.874-4.586-1.508-6.731-2.225-8.222-7.47-9-14.984-6.661z" fill="#fff"/></g></g></g><g id="Group_321" data-name="Group 321"><path id="Path_520" data-name="Path 520" d="M4177.414 7717.361a63.153 63.153 0 00-.927-4.52l-.007-.03-.008-.031-.024-.089c-.047-.206-.1-.423-.161-.653h-.011v-.014h.01a596.62 596.62 0 00-.6-2.279 6.281 6.281 0 00-.345-1.035c-3.961-12.846-10.473-22.1-19.374-27.522a43.518 43.518 0 00-19.933-5.862 68.974 68.974 0 00-4.721-.146c-1.935 0-3.849.062-5.465.122-.965.037-1.961.052-2.924.066-.713.011-1.427.022-2.141.041a14.589 14.589 0 00-5.113.948 8.859 8.859 0 00-4.915 4.778 9.5 9.5 0 00-4.113 7.925 37.4 37.4 0 00-9.085 8.878 44.656 44.656 0 00-11.02 21.9 67.979 67.979 0 00-1 20.861c.769 7.537 2.3 13.189 4.81 17.789a29.635 29.635 0 0015.068 13.187c5.691 2.331 12.321 3.553 20.867 3.845 1.511.052 2.849.077 4.09.077 7.022 0 12.3-.824 17.125-2.671a42.009 42.009 0 0016.446-11.588 41.503 41.503 0 002.141-2.686c.376-.4.747-.8 1.109-1.214 9.028-10.313 12.755-24.92 10.221-40.077zm-63.881 22.278c.292-.363.561-.72.83-1.077.125-.134.251-.268.371-.4a60.167 60.167 0 002.049-2.42 35.915 35.915 0 003.113-4.5 14.3 14.3 0 012.036 8.418v.016a12.837 12.837 0 01-.971 4.1 7.274 7.274 0 01-3.754 1.091 6.489 6.489 0 01-1.588-.2 4.482 4.482 0 01-2.848-1.885 2.359 2.359 0 01-.061-2.142c.274-.33.549-.66.823-1.001z"/><g id="Group_320" data-name="Group 320" clip-path="url(#clip-path-3)"><g id="Group_319" data-name="Group 319"><g id="Group_318" data-name="Group 318"><path id="Path_521" data-name="Path 521" d="M4149.813 7766.6a39.419 39.419 0 0015.42-10.873c9.078-10.362 11.851-24.569 9.617-37.932q-.365-2.184-.889-4.335c-.079-.293-.3-1.153-.517-1.97-3.086-11.065-8.756-21.94-18.832-28.078a41.1 41.1 0 00-18.754-5.488c-1.514-.1-3.031-.14-4.547-.14-1.79 0-3.579.053-5.367.121-1.7.063-3.4.062-5.094.107a12.17 12.17 0 00-4.213.762c-3.041 1.22-4.292 4.129-4.145 7.277.118 2.515.671 4.981.377 7.514-.4-1.487-.84-2.968-1.313-4.433-10.527 5.471-16.844 15.971-19.227 27.341a65.657 65.657 0 00-.959 20.065c.582 5.712 1.726 11.719 4.5 16.806a27.181 27.181 0 0013.773 12.027c6.31 2.585 13.2 3.421 19.97 3.653 1.332.045 2.668.075 4 .075a44.791 44.791 0 0016.2-2.499zm-22.009-31l-.038.482.008-.111a13.786 13.786 0 01-3.175 8.132 10.04 10.04 0 01-7.393 3.364 9.019 9.019 0 01-2.229-.278 7.043 7.043 0 01-4.465-3.116 5.025 5.025 0 01.321-5.385 24.687 24.687 0 011.964-2.258 56.932 56.932 0 001.96-2.316 32.042 32.042 0 003.429-5.133 21.387 21.387 0 002.113-6.009 1.175 1.175 0 00.026-.641 3.553 3.553 0 00-.442-.671 23.73 23.73 0 00-.832-1.159 53.353 53.353 0 00-1.742-2.113 15.224 15.224 0 013.582 2.411 21.272 21.272 0 013.671 3.961 17.051 17.051 0 013.212 11.211c.026-.281.026-.371.026-.371z" fill="url(#linear-gradient-5)"/><path id="Path_522" data-name="Path 522" d="M4173.989 7713.559s-.06-.25-.221-.876q.1.385.193.772c.017.067.028.104.028.104z" fill="url(#linear-gradient-6)"/><path id="Path_523" data-name="Path 523" d="M4173 7709.759s.215.838.446 1.726c.111.4.219.8.324 1.2-.57-2.174-.77-2.926-.77-2.926z" fill="url(#linear-gradient-7)"/></g><path id="Path_524" data-name="Path 524" d="M4134.354 7680.56c14.6-1.365 29.068 9.359 32.665 23.455-7.556-12.649-18.106-20.617-32.665-23.455z" fill="#fff"/><path id="Path_525" data-name="Path 525" d="M4167.681 7737.746c-1.332 14.608-14.522 26.864-29.039 27.82a70.675 70.675 0 009.493-4.48 46.234 46.234 0 0019.546-23.34z" fill="#fff"/><path id="Path_526" data-name="Path 526" d="M4116.693 7721a6.208 6.208 0 01-.194 5.61 17.755 17.755 0 01-3.489 4.42 13.537 13.537 0 01-3.061 2l-.145-.216a16.344 16.344 0 003.83-5.593 17.8 17.8 0 012.8-6.229l.26.011z" fill="#fff"/></g></g></g><g id="Group_325" data-name="Group 325"><path id="Path_528" data-name="Path 528" d="M4115.695 7751.073a13.971 13.971 0 00-2.093-6.306 6.869 6.869 0 00-.847-1.1l-.022-.024-.006-.007a17.813 17.813 0 00-3.572-2.855 11.962 11.962 0 00-5.889-2.139c-.1 0-.205-.006-.307-.006a12.151 12.151 0 00-5.445 1.578c-.471.234-.937.475-1.4.716-.987.512-1.92.994-2.872 1.4a11.406 11.406 0 01-4.533.948 12.707 12.707 0 01-3.538-.527 24.1 24.1 0 01-7.728-4.055 31.216 31.216 0 01-10.8-14.294 17.1 17.1 0 01-.982-6.709 25.643 25.643 0 0017.231 7.179 18.511 18.511 0 009.071-2.273 29.316 29.316 0 0011.278-17.1c.14-4.807-1.7-9.9-5.325-14.722-5.745-7.648-14.783-13.829-24.8-16.959a43.919 43.919 0 00-12.892-2.064c-6.664 0-12.308 1.767-16.774 5.252a21.625 21.625 0 00-4.79 5.24 23.146 23.146 0 00-6.2 10.333c-1.068 3.63-1.067 7.895 0 13.038a63.968 63.968 0 005.315 14.864 115.525 115.525 0 007.791 13.511A144.39 144.39 0 004065.62 7758c4.114 3.956 8.422 6.8 12.058 10.075 4.451 4.014 9.716 8.142 14.607 7.118 1.286-.27 2.578.4 3.839.4a15.166 15.166 0 0011.486-4.968 17.843 17.843 0 001.918-2.6 14.836 14.836 0 001.332-1.3 20.75 20.75 0 004.835-15.652z"/><g id="Group_324" data-name="Group 324" clip-path="url(#clip-path-4)"><g id="Group_323" data-name="Group 323"><g id="Group_322" data-name="Group 322"><path id="Path_529" data-name="Path 529" d="M4110.807 7745.384l.094.109a70.929 70.929 0 00-.094-.109z" fill="url(#linear-gradient-8)"/><path id="Path_530" data-name="Path 530" d="M4113.109 7751.351a10.8 10.8 0 00-2.208-5.858l-.1-.117a15.32 15.32 0 00-3.051-2.414 9.375 9.375 0 00-4.581-1.727h-.207a9.8 9.8 0 00-4.287 1.305c-1.471.733-2.9 1.538-4.419 2.181a14.06 14.06 0 01-5.548 1.154 15.241 15.241 0 01-4.263-.63 26.79 26.79 0 01-8.572-4.479 33.921 33.921 0 01-11.688-15.518 18.743 18.743 0 01-.9-9.553 14.732 14.732 0 011.361-4c.126-.245.26-.487.4-.724.088-.149.435-.539.441-.705.008-.208-.444-.677-.564-.873q-.378-.617-.727-1.251a35.544 35.544 0 01-3.773-10.678 28.987 28.987 0 01-.593-7.3 52.029 52.029 0 002.882 9.279 35.648 35.648 0 007.992 12.463 23.137 23.137 0 0015.433 6.457 16 16 0 007.812-1.948 12.94 12.94 0 006.688-11c.139-4.789-1.984-9.33-4.805-13.086-5.733-7.632-14.443-13.21-23.493-16.039a41.2 41.2 0 00-12.117-1.945c-5.452 0-10.834 1.315-15.173 4.7a20.186 20.186 0 00-6.844 10.358c-1.114 3.786-.738 7.968.054 11.774a61.66 61.66 0 005.109 14.259 112.218 112.218 0 007.616 13.2 141.9 141.9 0 0019.686 23.581 101.267 101.267 0 0011.755 9.824c4.1 2.9 8.659 5.663 13.637 6.7a16.343 16.343 0 003.31.348 12.506 12.506 0 009.549-4.1 18.043 18.043 0 004.188-13.638z" fill="url(#linear-gradient-9)"/></g><path id="Path_531" data-name="Path 531" d="M4061.717 7676.642c10.162-.878 21.177 3.49 27.076 12 1.848 3.242 2.031 3.39-.763.658-7.448-6.595-16.792-10.1-26.313-12.658z" fill="#fff"/><path id="Path_532" data-name="Path 532" d="M4063.585 7709.174a17.109 17.109 0 01-2.16 6.51 14.42 14.42 0 00-.838 6.7l-.249.074a12.221 12.221 0 01-1.055-6.354c.236-1.548.31-3.221 1.189-4.567a6.365 6.365 0 012.912-2.531l.2.164z" fill="#fff"/><path id="Path_533" data-name="Path 533" d="M4094.864 7747.846c3.433-5.473 11.2-7.17 14.338-.489 1.029 2.092-.559.235-1.444-.118-4.693-3.245-8.106-.9-12.894.607z" fill="#fff"/></g></g></g><g id="Group_329" data-name="Group 329"><path id="Path_535" data-name="Path 535" d="M4449.059 7751.073a13.971 13.971 0 00-2.093-6.306 6.867 6.867 0 00-.847-1.1l-.022-.024-.006-.007a17.8 17.8 0 00-3.572-2.855 11.958 11.958 0 00-5.889-2.139q-.155-.007-.307-.006a12.155 12.155 0 00-5.445 1.578c-.471.234-.937.475-1.4.716-.987.512-1.92.994-2.872 1.4a11.406 11.406 0 01-4.533.948 12.707 12.707 0 01-3.538-.527 24.1 24.1 0 01-7.728-4.055A31.215 31.215 0 014400 7724.4a17.118 17.118 0 01-.982-6.709 25.643 25.643 0 0017.231 7.179 18.512 18.512 0 009.071-2.273 29.322 29.322 0 0011.278-17.1c.14-4.807-1.7-9.9-5.325-14.722-5.745-7.648-14.783-13.829-24.8-16.959a43.914 43.914 0 00-12.892-2.064c-6.664 0-12.308 1.767-16.774 5.252a21.625 21.625 0 00-4.79 5.24 23.152 23.152 0 00-6.2 10.333c-1.068 3.63-1.066 7.895 0 13.038a63.957 63.957 0 005.315 14.864 115.525 115.525 0 007.791 13.511 144.389 144.389 0 0020.061 24.01c4.114 3.956 8.422 6.8 12.058 10.075 4.451 4.014 9.716 8.142 14.607 7.118 1.286-.27 2.578.4 3.84.4a15.165 15.165 0 0011.485-4.968 17.843 17.843 0 001.918-2.6 14.9 14.9 0 001.332-1.3 20.752 20.752 0 004.835-15.652z"/><g id="Group_328" data-name="Group 328" clip-path="url(#clip-path-5)"><g id="Group_327" data-name="Group 327"><g id="Group_326" data-name="Group 326"><path id="Path_536" data-name="Path 536" d="M4444.171 7745.384l.094.109c.158.18.435.492.436.492z" fill="url(#linear-gradient-10)"/><path id="Path_537" data-name="Path 537" d="M4446.474 7751.351a10.808 10.808 0 00-2.209-5.858l-.1-.117a15.323 15.323 0 00-3.051-2.414 9.37 9.37 0 00-4.581-1.727h-.207a9.8 9.8 0 00-4.287 1.305c-1.471.733-2.9 1.538-4.418 2.181a14.07 14.07 0 01-5.549 1.154 15.239 15.239 0 01-4.263-.63 26.79 26.79 0 01-8.572-4.479 33.93 33.93 0 01-11.688-15.518 18.746 18.746 0 01-.9-9.553 14.732 14.732 0 011.361-4c.126-.245.26-.487.4-.724.089-.149.435-.539.441-.705.008-.208-.444-.677-.564-.873q-.378-.617-.727-1.251a35.537 35.537 0 01-3.773-10.678 29.1 29.1 0 01-.593-7.3 52.089 52.089 0 002.882 9.279 35.651 35.651 0 007.992 12.463 23.14 23.14 0 0015.433 6.457 16 16 0 007.812-1.948 12.94 12.94 0 006.688-11c.139-4.789-1.984-9.33-4.8-13.086-5.733-7.632-14.443-13.21-23.493-16.039a41.2 41.2 0 00-12.117-1.945c-5.452 0-10.834 1.315-15.173 4.7a20.188 20.188 0 00-6.844 10.358c-1.114 3.786-.738 7.968.054 11.774a61.693 61.693 0 005.109 14.259 112.22 112.22 0 007.616 13.2 141.939 141.939 0 0019.686 23.581 101.267 101.267 0 0011.755 9.824c4.106 2.9 8.659 5.663 13.637 6.7a16.344 16.344 0 003.311.348 12.507 12.507 0 009.548-4.1 18.049 18.049 0 004.184-13.638z" fill="url(#linear-gradient-9)"/></g><path id="Path_538" data-name="Path 538" d="M4395.081 7676.642c10.162-.878 21.177 3.49 27.076 12 1.848 3.242 2.032 3.39-.763.658-7.448-6.595-16.792-10.1-26.313-12.658z" fill="#fff"/><path id="Path_539" data-name="Path 539" d="M4396.949 7709.174a17.113 17.113 0 01-2.16 6.51 14.411 14.411 0 00-.838 6.7l-.249.074a12.216 12.216 0 01-1.055-6.354c.236-1.548.31-3.221 1.189-4.567a6.37 6.37 0 012.912-2.531l.2.164z" fill="#fff"/><path id="Path_540" data-name="Path 540" d="M4428.228 7747.846c3.433-5.473 11.195-7.17 14.338-.489 1.029 2.092-.559.235-1.444-.118-4.693-3.245-8.1-.9-12.894.607z" fill="#fff"/></g></g></g><g id="Group_333" data-name="Group 333"><path id="Path_542" data-name="Path 542" d="M4372.943 7683.157a11.373 11.373 0 00-1.1-1.5 12.332 12.332 0 00-1.128-1.3 26.836 26.836 0 00-19.66-8.268h-.283a20.911 20.911 0 00-6.63 1.049 28.059 28.059 0 00-5.649 2.743 50.519 50.519 0 00-9.277 7.533 70.9 70.9 0 00-5.779 6.6 74.633 74.633 0 00-10.6 15.432c-4.346 8.382-6.666 16-7.092 23.3a38.124 38.124 0 006.451 23.453 53.054 53.054 0 0017.291 16.018c5.6 3.3 14.2 7.265 23.389 7.379h.39c4.687 0 8.138-1.117 10.55-3.414a11.145 11.145 0 002.249-3.062 10.554 10.554 0 001-.838c2.934-2.795 4.254-7.338 3.621-12.466-.289-2.352-1.429-8.147-5.742-11.148a6.77 6.77 0 00-3.849-1.286h-.127a9.159 9.159 0 00-2.924.664c-.272.1-.528.189-.75.253-.941.272-1.923.5-2.933.685a33.374 33.374 0 003.384-2.521 38.5 38.5 0 006.064-6.586 45.172 45.172 0 007.94-11.844 61.753 61.753 0 005.638-19.8c.603-5.905.266-14.17-4.444-21.076zm-43.454 47.147a14.92 14.92 0 01-.047-.573 16.065 16.065 0 011.006-6.571 15.87 15.87 0 011.076-2.3 6.921 6.921 0 014.079-1.83c.1 0 .211.005.314.014a2.909 2.909 0 012.443 3.332v.017a7.452 7.452 0 01-1.162 3.36 21.3 21.3 0 01-7.709 4.547z"/><g id="Group_332" data-name="Group 332" clip-path="url(#clip-path-6)"><g id="Group_331" data-name="Group 331"><g id="Group_330" data-name="Group 330"><path id="Path_543" data-name="Path 543" d="M4369.035 7682.313s.2.26.767.969.777.966.779.966-1.541-1.935-1.546-1.935z" fill="url(#linear-gradient-12)"/><path id="Path_544" data-name="Path 544" d="M4369.8 7683.282c-4.47-5.625-11.648-8.6-18.75-8.6h-.256a18.409 18.409 0 00-5.815.91 25.6 25.6 0 00-5.126 2.495 48.258 48.258 0 00-8.8 7.153 71.468 71.468 0 00-12.668 17.5c-3.588 6.921-6.346 14.41-6.805 22.253a35.611 35.611 0 006.022 21.863 50.3 50.3 0 0016.447 15.217c6.59 3.89 14.358 6.923 22.1 7.018h.358c3.074 0 6.456-.505 8.757-2.7 2.724-2.6 3.275-6.694 2.834-10.265-.409-3.321-1.774-7.333-4.647-9.332a4.2 4.2 0 00-2.364-.82h-.071a12.28 12.28 0 00-3.007.815 34.85 34.85 0 01-5.692 1.126 41.922 41.922 0 01-4.783.277 38.672 38.672 0 01-6.49-.54 24.971 24.971 0 01-8.785-2.933 11.519 11.519 0 01-3.015-2.586c1.086.361 2.131.858 3.2 1.264a12.161 12.161 0 003.245.587q1.4.121 2.8.121a33.471 33.471 0 004.909-.365 31.707 31.707 0 0015.9-7.165 40.469 40.469 0 0010.09-13.661 59.122 59.122 0 005.4-18.957c.748-7.186-.337-14.891-4.988-20.675zm-25.615 35.688s0-.088.018-.328c-.174 3.033-2.076 5.721-4.089 7.875a23.794 23.794 0 01-9.843 6.266 14.138 14.138 0 01-4.4.91 6.6 6.6 0 01-1.013-.075 13.964 13.964 0 002.158-.877c.295-.187.228-.106.152-.465a15.054 15.054 0 01-.149-.79 17.005 17.005 0 01-.175-1.591 18.638 18.638 0 011.165-7.645 17.3 17.3 0 014.48-6.754c1.726-1.573 3.962-2.966 6.361-2.966.181 0 .364.008.547.024a5.474 5.474 0 014.805 6.088l.021-.321z" fill="url(#linear-gradient-13)"/></g><path id="Path_545" data-name="Path 545" d="M4351.762 7678.815c10.473-2.918 20.256 5.234 18.819 16.123a39.022 39.022 0 00-2.6-6.32c-3.143-6.135-9.632-8.856-16.214-9.8z" fill="#fff"/><path id="Path_546" data-name="Path 546" d="M4350.705 7751.1c1.414-.4 2.65-.732 3.862-1.166 1.913-.631 3.885-1.66 6.094-1.64 2.538 0 4.362 2.228 4.777 4.582-1.926-1.369-3.337-2.622-5.532-1.97-.222.041-.664.154-.881.222-2.515.779-5.811 1.353-8.32-.028z" fill="#fff"/></g></g></g><g id="Group_337" data-name="Group 337"><path id="Path_548" data-name="Path 548" d="M4247.131 7699.668a68.74 68.74 0 00-.538-2.244 11.8 11.8 0 00-.338-1.269c-.031-.107-.062-.216-.1-.328l-.043-.149a39.343 39.343 0 00-12.327-19.506 25.938 25.938 0 00-11.791-5.844 18.334 18.334 0 00-3.269-.3 17.289 17.289 0 00-10.145 3.229 22.588 22.588 0 00-5.564 5.837 24.045 24.045 0 00-3.332 4.031 6.812 6.812 0 00-.466-.341l-.068-.046c-.321-.254-.646-.5-.973-.751a56.958 56.958 0 00-4.863-3.3c-5.593-3.372-10.862-5.081-15.66-5.081a17.038 17.038 0 00-8.976 2.439 20.648 20.648 0 00-6.449 6.373c-5.367 5.1-7.637 12.868-8.9 18.648a99.333 99.333 0 00-1.747 26.743c.265 4.859.827 9.562 1.342 13.521a107.272 107.272 0 002.413 13.206c1.053 4.08 2.392 8.35 5.041 11.939a14.415 14.415 0 004.993 4.366 16.277 16.277 0 003.255 1.173 18.184 18.184 0 004.705.766 9.237 9.237 0 002.262-.268 5.4 5.4 0 003.995-4.146c1.515-.611 3.42-2.147 3.538-6.013a23.292 23.292 0 00-.526-5.083c5.741 7.765 12.175 13.162 19.186 16.066a29.41 29.41 0 0016.785 1.741 25.458 25.458 0 0014.045-7.713 35.112 35.112 0 002.943-3.6c.1-.1.208-.2.307-.3 6.285-6.679 10.3-16.411 12.271-29.752a94.923 94.923 0 00-1.006-34.044z"/><g id="Group_336" data-name="Group 336" clip-path="url(#clip-path-7)"><g id="Group_335" data-name="Group 335"><g id="Group_334" data-name="Group 334"><path id="Path_549" data-name="Path 549" d="M4243.5 7696l.116.4.393 1.358z" fill="url(#linear-gradient-14)"/><path id="Path_550" data-name="Path 550" d="M4245.57 7733.333a92.108 92.108 0 00-.978-33.1q-.427-1.931-.974-3.831a36.773 36.773 0 00-11.5-18.234 23.342 23.342 0 00-10.588-5.28 15.685 15.685 0 00-2.8-.254 14.743 14.743 0 00-8.629 2.742c-6.17 4.425-8.957 12.471-10.49 19.592A85.838 85.838 0 004197.5 7719a48.064 48.064 0 002.058 11.329 27.6 27.6 0 004.691 9.172 9.273 9.273 0 00.719.791 19.658 19.658 0 01-4.85-6.271 40.254 40.254 0 01-3.807-10.432c-1.877-8.273-1.7-16.849-.7-25.223a69.5 69.5 0 011.8-9.88q.214-.795.457-1.584c.119-.387.556-1.245.377-1.55a2.943 2.943 0 00-.675-.546c-.314-.25-.632-.494-.952-.736a54.431 54.431 0 00-4.64-3.153c-4.211-2.538-9.325-4.707-14.318-4.707a14.454 14.454 0 00-7.627 2.062c-6.6 4-9.351 12.329-10.907 19.453a97.939 97.939 0 00-1.691 26.046c.244 4.457.749 8.9 1.325 13.328a106.532 106.532 0 002.352 12.891c.988 3.831 2.239 7.826 4.615 11.046a11.9 11.9 0 004.087 3.595 13.753 13.753 0 002.746.977 15.866 15.866 0 004.028.676 6.605 6.605 0 001.625-.188c1.8-.456 2.27-2.132 2.322-3.818a30.616 30.616 0 00-.817-6.291c-.4-2.184-.723-4.383-1.008-6.584a112.907 112.907 0 01-.961-12.292 53.8 53.8 0 01.765-11.269 30.372 30.372 0 011.043-3.925 43.872 43.872 0 00-.4 12.824 9.861 9.861 0 00.219 1.862 15.563 15.563 0 00.631 1.6q.519 1.237 1.11 2.441a68.989 68.989 0 003.378 6.095c5.171 8.335 12.288 16.466 21.538 20.3a26.809 26.809 0 0015.3 1.589 22.993 22.993 0 0012.639-6.94c7.112-7.557 10.118-18.342 11.598-28.355z" fill="url(#linear-gradient-2)"/></g><path id="Path_551" data-name="Path 551" d="M4215.116 7676.091c5.528-2.274 12.132.11 16.4 3.957a28.772 28.772 0 017.429 10.658c1.7 4.9 1.848 5.006-1.12.613-5.349-7.667-12.615-15.443-22.712-15.228z" fill="#fff"/><path id="Path_552" data-name="Path 552" d="M4214.261 7766.274c10.1.214 17.361-7.56 22.711-15.228 2.919-4.31 2.857-4.378 1.121.613a28.786 28.786 0 01-7.429 10.658c-4.27 3.847-10.877 6.232-16.4 3.957z" fill="#fff"/><path id="Path_553" data-name="Path 553" d="M4166.49 7688.6a11.951 11.951 0 012.8-6.609c5.134-6.2 14.53-4.359 20.066.23-2.289-.62-4.491-1.275-6.7-1.645-7.369-1.413-12.7 1.4-16.166 8.024z" fill="#fff"/><path id="Path_554" data-name="Path 554" d="M4178.289 7764.086a6.724 6.724 0 01-2.219-3.523c-.545-1.855-.194-3.991-.289-5.894.06-1.95.2-3.894.437-5.829l.26-.007 1.373 7.576a17.083 17.083 0 01.657 7.538l-.219.139z" fill="#fff"/></g></g></g></g></g></svg>