<svg xmlns="http://www.w3.org/2000/svg" width="72.02" height="68.806"><g id="cs2" transform="translate(-6719.7 -3743.107)"><g id="Group_632" data-name="Group 632"><g id="Group_631" data-name="Group 631"><g id="Group_629" data-name="Group 629"><path id="Path_1608" data-name="Path 1608" d="M6756.144 3807.112c-12.442 0-23.41-6.526-28.625-17.031a28.547 28.547 0 014.606-32.181 32.4 32.4 0 0147.525.779 28.784 28.784 0 01.32 37.852 31.145 31.145 0 01-23.825 10.581z" fill="#ff7b0f"/><path id="Path_1609" data-name="Path 1609" d="M6755.486 3752.707a27.121 27.121 0 0120.546 9.124 23.9 23.9 0 01.293 31.577 26.322 26.322 0 01-20.18 8.905c-9.8 0-19.635-4.916-24.326-14.365a23.848 23.848 0 013.84-26.8 26.825 26.825 0 0119.827-8.44m0-9.6a36.489 36.489 0 00-26.9 11.546 33.314 33.314 0 00-5.375 37.55c6.037 12.162 18.653 19.71 32.931 19.71a35.937 35.937 0 0027.476-12.265 33.554 33.554 0 00-.342-44.113 36.739 36.739 0 00-27.793-12.428z" fill="#fff"/><path id="Path_1610" data-name="Path 1610" d="M6755.486 3752.707a27.121 27.121 0 0120.546 9.124 23.9 23.9 0 01.293 31.577 26.322 26.322 0 01-20.18 8.905c-9.8 0-19.635-4.916-24.326-14.365a23.848 23.848 0 013.84-26.8 26.825 26.825 0 0119.827-8.44m0-8a34.891 34.891 0 00-25.719 11.028 31.726 31.726 0 00-5.119 35.758c5.764 11.613 17.831 18.82 31.5 18.82a34.339 34.339 0 0026.26-11.705 31.965 31.965 0 00-.334-42.024 35.137 35.137 0 00-26.585-11.877z"/></g><g id="Group_630" data-name="Group 630" opacity=".4" style="mix-blend-mode:multiply;isolation:isolate"><path id="Path_1611" data-name="Path 1611" d="M6776.032 3761.831a25.92 25.92 0 00-2.1-2.141 23.8 23.8 0 01-5.652 18.192c-9.712 11.356-27.976 11.618-38.757 2.016a23.909 23.909 0 002.293 8.049c8.3 16.722 32.718 19.245 44.506 5.461a23.9 23.9 0 00-.29-31.577z" fill="#ff7b0f"/></g><ellipse id="Ellipse_24" data-name="Ellipse 24" cx="10.463" cy="8.362" rx="10.463" ry="8.362" transform="rotate(-30 10394.49 -10688.043)" fill="#ff521b" opacity=".7" style="mix-blend-mode:screen;isolation:isolate"/></g></g></g></svg>