<svg id="fb1" xmlns="http://www.w3.org/2000/svg" xmlns:xlink="http://www.w3.org/1999/xlink" width="55" height="54" viewBox="0 0 55 54">
  <defs>
    <linearGradient id="linear-gradient" x1="0.5" y1="0.016" x2="0.5" y2="1.277" gradientUnits="objectBoundingBox">
      <stop offset="0" stop-color="#00ffd5"/>
      <stop offset="1" stop-color="#01cb2d"/>
    </linearGradient>
  </defs>
  <g id="Group_472" data-name="Group 472">
    <g id="Group_471" data-name="Group 471">
      <path id="Path_777" data-name="Path 777" d="M697.529,1415.9c-13.039,0-23.648-10.832-23.648-24.147a24.131,24.131,0,0,1,20.008-23.84,23.12,23.12,0,0,1,6.182-.852c13.039,0,23.648,10.831,23.648,24.147a24.128,24.128,0,0,1-20.006,23.839A23.015,23.015,0,0,1,697.529,1415.9Z" transform="translate(-671.3 -1364.484)" fill="#a42d6b"/>
      <path id="Path_778" data-name="Path 778" d="M700.074,1369.627a21.606,21.606,0,0,1,3.123,42.914,20.7,20.7,0,0,1-5.671.8,21.606,21.606,0,0,1-3.122-42.914,20.749,20.749,0,0,1,5.67-.8m0-5.143a25.653,25.653,0,0,0-6.723.906,26.73,26.73,0,0,0-22.051,26.367c0,14.738,11.765,26.727,26.226,26.727a25.65,25.65,0,0,0,6.725-.9,26.731,26.731,0,0,0,22.049-26.367c0-14.738-11.765-26.728-26.226-26.728Z" transform="translate(-671.3 -1364.484)" fill="#fff"/>
      <path id="Path_779" data-name="Path 779" d="M700.072,1369.632a21.6,21.6,0,0,1,3.119,42.9,20.644,20.644,0,0,1-5.664.8,21.6,21.6,0,0,1-3.118-42.9,20.7,20.7,0,0,1,5.663-.8m0-3.6a24.111,24.111,0,0,0-6.4.874,25.169,25.169,0,0,0-20.824,24.851c0,13.884,11.071,25.179,24.679,25.179a24.135,24.135,0,0,0,6.4-.873,25.17,25.17,0,0,0,20.823-24.851c0-13.884-11.071-25.18-24.679-25.18Z" transform="translate(-671.3 -1364.484)"/>
    </g>
  </g>
  <path id="Path_780" data-name="Path 780" d="M700.727,1373.086a18.208,18.208,0,1,0,18.219,18.219A18.134,18.134,0,0,0,700.727,1373.086Z" transform="translate(-671.924 -1364.578)"/>
  <circle id="Ellipse_12" data-name="Ellipse 12" cx="17.359" cy="17.359" r="17.359" transform="translate(11.368 9.37)" fill="url(#linear-gradient)"/>
  <path id="Path_60" data-name="Path 60" d="M707.531,1380.006v2.863a.386.386,0,0,1-.01.147.239.239,0,0,1-.14.014q-.809,0-1.624,0c-.136,0-.275,0-.411.007a3.167,3.167,0,0,0-.835.156,1.894,1.894,0,0,0-1.247,1.262,2.509,2.509,0,0,0-.119.762q0,1.336,0,2.675a.172.172,0,0,0,.009.092c.023.024.052.016.08.016h3.96a.424.424,0,0,1,.159.015c-.01.071-.017.137-.029.2-.211,1.314-.424,2.633-.637,3.942a.175.175,0,0,1-.132.024h-3.377c-.04.026-.033.054-.033.08v11.924h-4.758V1392.2a.353.353,0,0,0-.161-.017h-3.667c-.033-.026-.023-.056-.025-.082v-4.08a.306.306,0,0,1,.147-.019h3.679a.1.1,0,0,0,.027-.094v-3.095c0-.281.018-.56.045-.836a6.264,6.264,0,0,1,.208-1.094,5.031,5.031,0,0,1,.805-1.665c.025-.033.05-.067.078-.1a4.693,4.693,0,0,1,1.86-1.415,6.039,6.039,0,0,1,1.425-.413,8.744,8.744,0,0,1,1.473-.107c.314,0,.627.017.94.035.369.022.739.055,1.105.1.251.026.5.057.746.089l.228.029c.07.009.139.023.2.032.033.026.025.055.027.08Z" transform="translate(-672.942 -1364.579)"/>
  <path id="Path_781" data-name="Path 781" d="M705.27,1376.744c2.2,0,6.808,2.749,8.022,5.71" transform="translate(-672.179 -1364.531)" fill="none" stroke="#fff" stroke-width="1.72"/>
</svg>
