<svg xmlns="http://www.w3.org/2000/svg" width="147.22" height="203.869"><g id="Group_1324" data-name="Group 1324" transform="translate(-6553.607 -2274.741)"><g id="Group_1323" data-name="Group 1323"><g id="Group_1322" data-name="Group 1322"><g id="Group_1319" data-name="Group 1319"><path id="Path_2957" data-name="Path 2957" d="M6610.8 2478.109c-2.473 0-4.975-.075-7.394-.148-2.235-.067-4.547-.138-6.814-.147h-.372l-.106-.357a44.082 44.082 0 01-1.7-9.367c-.023-.329-.052-.681-.082-1.049-.216-2.668-.485-5.988.456-8.255l.118-.284 6.263-.457c0-.485-.064-1.688-.384-4.618l-.043-.4h.011a5.84 5.84 0 01-.061-.57l-.049-.555c-.013-.156-.594-14.541-.464-18.13-5.018-.471-9.708-1.069-13.948-1.777l-2.627-.437-.571-2.6a33.451 33.451 0 01-.488-7.555c-7.118-.55-19.991-2.408-25.841-5.246l-1.829-.888-.336-2a53.792 53.792 0 01-.288-11.071l.017-.389a69.8 69.8 0 011.409-12.4 85.112 85.112 0 0124.75-43.465 83.243 83.243 0 019.588-7.825c.077-.052 7.276-4.756 9.755-5.825a36.374 36.374 0 01-4.233-25.555 40.174 40.174 0 0117.347-25.627 36.144 36.144 0 0119.824-5.866q1.11 0 2.23.066a39.988 39.988 0 0129.924 16.569c9.31 13.042 9.418 32.2.259 45.542q-.24.348-.49.693a8.76 8.76 0 011.564 1.185c.254.225.5.443.743.627 1.542 1.16 2.988 2.4 4.335 3.563q.812.7 1.608 1.425a79.835 79.835 0 0115.443 18.658 77.313 77.313 0 015.091 10.545c5.193 13.154 7.478 25.741 6.793 37.414l-.194 3.32-22.365 2.465a49.915 49.915 0 010 6.1l-.166 2.3-2.085.978a52.991 52.991 0 01-5.6 2.213c1.567 8.368 1.834 17.07 1.955 24.6.67-.095 1.342-.214 2-.33 1.037-.184 2.109-.374 3.182-.47l.446-.04.088.44a108.182 108.182 0 012.064 18.867l.008.386-.372.106a76.408 76.408 0 01-13.424 2.081q-1.247.118-2.474.24c-5.251.533-11.365 1.117-17.479 1.3l-.849.021c-.333 0-.646.009-.955.016-.329.008-.653.016-.98.016a13.5 13.5 0 01-1.536-.079l-.361-.041-.073-.355a107.1 107.1 0 01-2.144-19.161l-.013-.582.577.075a14.372 14.372 0 001.9.129c.4 0 .8-.017 1.225-.049l.324-.024c-.156-1.184-.306-3.823-.641-9.7-.3-5.3-.645-11.307-.762-12.231v-.025c-4.064.331-8.313.551-12.647.654v.337a139.182 139.182 0 001.146 16c.184 1.641.248 3.308.311 4.921.013.36.027.72.043 1.082l3.979.361.01.446c.132 6.053.011 12.307-.358 18.588l-.5-.024-.113.47h-.012c-.566 0-1.987.151-2.525.209l-.234.024c-5.524.579-11.036.754-17.152.908-.89.025-1.772.034-2.652.034z"/><path id="Path_2958" data-name="Path 2958" d="M6632.708 2275.74q1.1 0 2.2.065a39.492 39.492 0 0129.546 16.361c9.252 12.962 9.233 31.885.254 44.969-.276.4-.565.795-.848 1.191 1.023.3 1.927 1.353 2.776 2 1.489 1.12 2.9 2.324 4.309 3.542q.809.7 1.6 1.417a79.406 79.406 0 0115.348 18.54 76.778 76.778 0 015.057 10.477c4.629 11.721 7.5 24.554 6.759 37.2l-.17 2.9-22.414 2.472.01.187a50.418 50.418 0 01.01 6.327l-.144 2.006-1.821.853a54.411 54.411 0 01-5.957 2.331c1.583 8.194 1.9 16.714 2.031 25.043l.009.46c1.921-.229 3.8-.7 5.711-.869a107.292 107.292 0 012.054 18.778c-5.041 1.425-10.6 1.778-15.813 2.306-5.794.588-11.619 1.123-17.442 1.3-.282.008-.564.016-.846.021-.669 0-1.29.031-1.919.031a12.843 12.843 0 01-1.484-.075 106.39 106.39 0 01-2.135-19.07 15.16 15.16 0 001.969.132c.409 0 .823-.017 1.262-.05l.783-.059c-.119 0-1.169-20.615-1.4-22.459l-.063-.5c-4.5.378-9.059.6-13.58.7v.823a139.557 139.557 0 001.149 16.063c.238 2.127.272 4.268.37 6.405l3.97.36c.135 6.176.005 12.383-.357 18.547 0-.018-.068-.026-.185-.026-.617 0-2.573.221-2.745.237-5.678.595-11.416.762-17.12.906q-1.32.033-2.638.032c-4.753 0-9.482-.277-14.205-.3a43.528 43.528 0 01-1.678-9.262c-.187-2.614-.688-6.608.337-9.075l6.335-.463c.3-.022-.311-5.153-.344-5.534-.007 0-.05-.564-.05-.564l-.05-.557c-.155-1.854-.6-18.55-.5-18.55-4.994-.46-9.8-1.056-14.324-1.81l-2.293-.382-.5-2.272a33.835 33.835 0 01-.464-7.72l.01-.19c-6.195-.443-19.928-2.217-26.145-5.234l-1.6-.775-.293-1.749a55.37 55.37 0 01-.264-11.356 69.163 69.163 0 011.4-12.309 85.058 85.058 0 0124.6-43.209 82.435 82.435 0 019.531-7.779c.783-.544 9.252-5.951 10.167-5.951.037 0 .062.009.073.027a35.7 35.7 0 01-4.513-25.769 39.669 39.669 0 0117.13-25.3 35.518 35.518 0 0119.551-5.787m0-1a36.634 36.634 0 00-20.1 5.948 40.675 40.675 0 00-17.563 25.947 36.879 36.879 0 004.02 25.432c-3.022 1.448-9.264 5.585-9.337 5.636a83.6 83.6 0 00-9.646 7.872 85.6 85.6 0 00-24.9 43.718 70.063 70.063 0 00-1.42 12.486l-.017.4a53.987 53.987 0 00.294 11.164l.293 1.75.085.509.465.225 1.6.775c6.418 3.115 19.784 4.772 25.542 5.256a32.57 32.57 0 00.516 7.2l.5 2.271.145.661.668.111 2.293.382c4.118.688 8.648 1.27 13.479 1.733-.007 1.2.053 3.436.169 7.737.107 3.967.262 8.962.347 9.987l.027.294.024.266a4.981 4.981 0 00.065.565h-.015c0 .056.021.208.045.429.245 2.247.339 3.445.368 4.082l-3.129.229-2.351.171-.615.045-.236.569c-.989 2.378-.714 5.765-.493 8.487.029.366.058.716.081 1.044a44.616 44.616 0 001.717 9.474l.211.713h.744c2.262.009 4.571.079 6.8.146 2.422.073 4.926.149 7.4.149.941 0 1.812-.011 2.663-.032 6.129-.155 11.653-.33 17.2-.911l.2-.021c1.309-.14 2.131-.211 2.441-.211a.985.985 0 01-.814-1.013l2 .1c.37-6.3.491-12.564.359-18.627l-.02-.894-.889-.081-1.776-.161-1.323-.12-.025-.644c-.063-1.621-.128-3.3-.313-4.955a139.9 139.9 0 01-1.143-15.8c4-.1 7.928-.306 11.7-.6.143 1.713.445 7.012.714 11.745.15 2.63.295 5.181.41 7.073.053.872.1 1.606.137 2.144-.334.021-.649.031-.955.031a14.053 14.053 0 01-1.84-.124l-1.153-.15.024 1.163a107.593 107.593 0 002.155 19.25l.145.711.722.082a14.123 14.123 0 001.6.081c.332 0 .662-.007 1-.015.3-.007.608-.015.925-.016.3-.006.587-.013.873-.022 6.125-.184 12.25-.769 17.511-1.3.816-.083 1.64-.161 2.47-.24a76.612 76.612 0 0013.515-2.1l.744-.21-.016-.773a108.468 108.468 0 00-2.074-18.953l-.175-.88-.894.079c-1.095.1-2.18.29-3.229.476-.465.083-.939.167-1.413.242a147.345 147.345 0 00-1.877-23.686 52.686 52.686 0 005.24-2.095l1.819-.853.531-.249.042-.585.144-2a48.871 48.871 0 00.03-5.7l21.476-2.369.839-.092.05-.843.17-2.9c.69-11.747-1.606-24.407-6.826-37.627a78.092 78.092 0 00-5.124-10.613 80.347 80.347 0 00-15.54-18.777q-.8-.726-1.617-1.433c-1.355-1.174-2.809-2.417-4.362-3.586-.22-.166-.459-.377-.711-.6a12.33 12.33 0 00-1.178-.956l.184-.266c9.275-13.512 9.163-32.907-.264-46.115a40.5 40.5 0 00-30.3-16.778 38.829 38.829 0 00-2.26-.066z" fill="#fff"/></g><g id="Group_1321" data-name="Group 1321"><path id="Path_2959" data-name="Path 2959" d="M6615.034 2284.4c15.5-10.119 36.208-4.833 46.626 9.759 5.312 7.436 7.369 17.457 5.957 26.818a32.459 32.459 0 01-14.286 8.163c7.007-9.115 8.135-21.945 1.133-31.579-7.381-10.112-23.4-14.6-35.331-6.717-11.914 7.882-16.126 24.2-7.94 36.309 7.068 10.478 20.327 15.408 31.871 10.233a21.36 21.36 0 0016.371 1.2c-14.283 15.275-42.212 12.549-55.1-6.363-11.062-16.205-4.797-37.699 10.699-47.823z" fill="#f9ecc9"/><path class="change-fill" id="Path_2960" data-name="Path 2960" d="M6620.768 2293.381c10.055-6.627 22.994-3 29.83 5.088a44.988 44.988 0 01-6.848 5.625 26.885 26.885 0 007.716-4.525l.109.146a22.031 22.031 0 012.31 3.937 51.488 51.488 0 01-8.639 7.328 28.832 28.832 0 009.261-5.81 21.543 21.543 0 011.019 3.7 49.482 49.482 0 01-9.551 6.773 28.931 28.931 0 009.828-4.751 22.874 22.874 0 010 4.093 42.423 42.423 0 01-10.02 5.428c1.878.18 5.543-.677 9.7-3.208a22.769 22.769 0 01-1.189 4.163 43.867 43.867 0 01-8.419 3.784c1.026.212 3.9-.249 7.481-1.694a23.927 23.927 0 01-4.679 6.406 18.873 18.873 0 01-7.976-1.191 4.2 4.2 0 00-3.106-3.693 4.29 4.29 0 00-5.265 2.9 4.162 4.162 0 002.974 5.13 4.429 4.429 0 002.142.056 14.136 14.136 0 002.328 2.27c-9.49 2.953-19.614-1.77-25.416-10.378a22.454 22.454 0 016.41-31.577z" fill="#00d9ff"/><path id="Path_2961" data-name="Path 2961" d="M6665.965 2327.052a14.985 14.985 0 01-2.817 5.082c-9.883 5.284-19.682 3.974-23.88.019a4.781 4.781 0 00.66-.719c5.744 1.854 15.486.966 26.037-4.382z" fill="#f9ecc9"/><path id="Path_2962" data-name="Path 2962" d="M6677.721 2355.587a91.245 91.245 0 016.471 8.542 54.085 54.085 0 01-16.76 8.4 115.015 115.015 0 00-3.817-8.258 76.534 76.534 0 0014.106-8.684z" fill="#f9ecc9"/><path id="Path_2963" data-name="Path 2963" d="M6662.1 2341.283a80.587 80.587 0 0113.743 12.165 52.9 52.9 0 01-13.718 8.032 97.637 97.637 0 00-8.942-13.5 33.477 33.477 0 008.917-6.697z" fill="#f9ecc9"/><path id="Path_2964" data-name="Path 2964" d="M6674.45 2393.773a56.873 56.873 0 0019.045-6.371c-2.14-8.7-5.124-16.547-7.725-20.778a75.548 75.548 0 01-17.2 8.772 125.338 125.338 0 015.452 18.537 1.307 1.307 0 01.428-.16z" fill="#f9ecc9"/><path id="Path_2965" data-name="Path 2965" d="M6675.024 2396.462a1.4 1.4 0 01-.5-.021 134.705 134.705 0 012.2 17.014l19.555-2.157a80.618 80.618 0 00-2.136-21.126 59.332 59.332 0 01-19.119 6.29z" fill="#f9ecc9"/><path id="Path_2966" data-name="Path 2966" d="M6649.612 2349.586a45.792 45.792 0 013.241 3.77 39.74 39.74 0 01-4.207 1.362c-.5-1.451-.985-2.891-1.5-4.286a43.13 43.13 0 002.466-.846z" fill="#f9ecc9"/><path id="Path_2967" data-name="Path 2967" d="M6645.56 2350.875c.5 1.359.991 2.775 1.487 4.25a46.426 46.426 0 01-5.228.883c-.255-1.426-.509-2.852-.788-4.256a38.666 38.666 0 004.529-.877z" fill="#f9ecc9"/><path id="Path_2968" data-name="Path 2968" d="M6655.079 2356.157c-16.414 5.1-33.643 3.433-49.875-2.091-12.376 18.138-17.254 42.02-18.551 64.486 28.493 5.826 71.446 1.293 87.065-4.562-3.411-25.89-8.663-42.077-18.639-57.833zm-51.117 52.072c.75-10.43 2.79-29.125 4.752-38.5 11.929-.01 30.854-.624 42.87-1.526a493.427 493.427 0 015.6 37.535c-14.584 2.924-40.344 3.662-53.222 2.491z" fill="#f9ecc9"/><path id="Path_2969" data-name="Path 2969" d="M6639.388 2351.935c.268 1.392.534 2.807.787 4.256a60.9 60.9 0 01-6.262.215c0-1.434.018-2.879 0-4.338a38.6 38.6 0 005.475-.133z" fill="#f9ecc9"/><path id="Path_2970" data-name="Path 2970" d="M6631.948 2351.941c.008 1.47-.009 2.938-.026 4.406a70.784 70.784 0 01-6.044-.506c.289-1.558.545-3.128.8-4.7a40.989 40.989 0 005.27.8z" fill="#f9ecc9"/><path id="Path_2971" data-name="Path 2971" d="M6620.969 2349.477c1.268.459 2.527.86 3.8 1.2-.258 1.617-.552 3.244-.847 4.894a89.03 89.03 0 01-4.684-.858c.594-1.758 1.186-3.495 1.731-5.236z" fill="#f9ecc9"/><path id="Path_2972" data-name="Path 2972" d="M6648.719 2371.128c1.991 10.564 4.049 19.99 5.277 31.232-14.879 2.985-37.127 5.584-47.215 3.254a261.768 261.768 0 014.308-32.838c10.366-.009 28.348.15 37.63-1.648zm-3.215 4.51c-7.229 1.382-23.9.916-31.968.932-1.487 7.048-2.9 19.009-1.975 25.873 7.553.643 25.366.488 36.941-1.828-.944-8.743-1.453-16.747-3.002-24.977z" fill="#f9ecc9"/><path id="Path_2973" data-name="Path 2973" d="M6615.584 2347.062c1.176.629 2.367 1.2 3.585 1.7-.6 1.807-1.205 3.649-1.851 5.5a80.747 80.747 0 01-5.151-1.434 348.386 348.386 0 003.417-5.766z" fill="#f9ecc9"/><path id="Path_2974" data-name="Path 2974" d="M6612.341 2345.122c.5.345 1.033.667 1.562.99a309.813 309.813 0 01-3.658 6.093q-1.491-.525-2.945-1.083a74.718 74.718 0 015.041-6z" fill="#f9ecc9"/><path id="Path_2975" data-name="Path 2975" d="M6602.208 2335.607a39.86 39.86 0 007.37 7.522c-6.636 5.965-11.63 13.775-15.334 21.848a53.054 53.054 0 01-15.111-12.117 74.678 74.678 0 0123.075-17.253z" fill="#f9ecc9"/><path id="Path_2976" data-name="Path 2976" d="M6673.7 2417.242a47.753 47.753 0 01.015 5.889c-18.239 8.575-58.2 9.759-86.84 4.978a31.359 31.359 0 01-.386-6.8c24.781 4.333 70.229 2.599 87.211-4.067z" fill="#f9ecc9"/><path id="Path_2977" data-name="Path 2977" d="M6643.116 2378.973c1.18 6.307 1.566 12.44 2.291 19.151-9.376 1.222-25.472 1.9-31.272 1.392-.227-3.873.935-14.927 1.516-19.849 6.191.003 21.074 1.11 27.465-.694zm-3.261 10.849a4.392 4.392 0 00-4.048-5.123 5.239 5.239 0 00-5.578 4.255 4.4 4.4 0 004.06 5.112 5.217 5.217 0 005.566-4.244zm-12.552 1.49a4.407 4.407 0 00-3.156-5.432 4.528 4.528 0 00-5.566 3.054 4.426 4.426 0 003.143 5.444 4.538 4.538 0 005.576-3.066z" fill="#f9ecc9"/><path id="Path_2978" data-name="Path 2978" d="M6635.594 2387.532a1.517 1.517 0 011.389 1.76 1.816 1.816 0 01-1.917 1.462 1.515 1.515 0 01-1.388-1.761 1.78 1.78 0 011.916-1.461z" fill="#f9ecc9"/><path id="Path_2979" data-name="Path 2979" d="M6665.779 2428.845c.406 2.017.728 4.286 1 6.669a369.272 369.272 0 00-20.958 2.266 75.423 75.423 0 00-.409-4.151 128.658 128.658 0 0020.367-4.784z" fill="#f9ecc9"/><path id="Path_2980" data-name="Path 2980" d="M6623.382 2388.587a1.59 1.59 0 011.132 1.967 1.632 1.632 0 01-2.012 1.106 1.593 1.593 0 01-1.132-1.967 1.631 1.631 0 012.012-1.106z" fill="#f9ecc9"/><path id="Path_2981" data-name="Path 2981" d="M6667 2437.719c.225 2.509.412 5.1.531 7.634-7.066.6-14.637 1.448-21.284 2.445-.055-2.615-.127-5.172-.268-7.536 6.574-1.048 14.01-1.975 21.021-2.543z" fill="#f9ecc9"/><path id="Path_2982" data-name="Path 2982" d="M6667.633 2447.5c.083 2.151.146 4.253.185 6.18-6.448.577-15 1.543-20.987 2.369a31.928 31.928 0 01-.561-5.945c6.23-1.017 13.851-1.957 21.363-2.604z" fill="#f9ecc9"/><path id="Path_2983" data-name="Path 2983" d="M6675.979 2456.868a11.8 11.8 0 01-.151 5.949c-5.3 1.321-23 2.829-32.152 3.166-.453-2.021-.978-4-1.541-5.921 9.018-.683 28.172-2.116 33.844-3.194z" fill="#f9ecc9"/><path id="Path_2984" data-name="Path 2984" d="M6577.123 2355.109c4.155 4.5 10.049 9.767 15.949 12.539a108.525 108.525 0 00-3.191 8.674c-6.414-2.755-13.348-7.978-18.591-13.6a87.408 87.408 0 015.833-7.613z" fill="#f9ecc9"/><path id="Path_2985" data-name="Path 2985" d="M6675.572 2465.776a5.486 5.486 0 01.106 3.364c-4.331 1.075-23.3 2.893-30.815 3.034-.189-1.154-.39-2.3-.616-3.417 7.721-.631 26.986-2.164 31.325-2.981z" fill="#f9ecc9"/><path id="Path_2986" data-name="Path 2986" d="M6604.111 2432.825c-.155 2.052-.195 4.343-.168 6.741 6.584-.3 14.065-.422 21.077-.327a71.638 71.638 0 01-.1-4.171 128.642 128.642 0 01-20.809-2.243z" fill="#f9ecc9"/><path id="Path_2987" data-name="Path 2987" d="M6604 2441.781c.085 2.517.218 5.108.412 7.641 7.085-.274 14.7-.361 21.422-.189-.266-2.6-.509-5.149-.66-7.512-6.663-.232-14.156-.238-21.174.06z" fill="#f9ecc9"/><path id="Path_2988" data-name="Path 2988" d="M6604.565 2451.57c.182 2.144.377 4.239.576 6.156 6.469-.22 15.08-.313 21.119-.228a31.822 31.822 0 00-.175-5.969c-6.306-.248-13.985-.243-21.52.041z" fill="#f9ecc9"/><path id="Path_2989" data-name="Path 2989" d="M6597.432 2461.889a11.8 11.8 0 00.882 5.885c5.424.66 23.176-.02 32.3-.81.2-2.061.479-4.088.8-6.065-9.035.431-28.22 1.362-33.982.99z" fill="#f9ecc9"/><path id="Path_2990" data-name="Path 2990" d="M6598.931 2470.679a5.484 5.484 0 00.309 3.352c4.43.534 23.477.007 30.954-.776.046-1.169.1-2.328.191-3.468-7.74.323-27.047 1.17-31.454.892z" fill="#f9ecc9"/><path id="Path_2991" data-name="Path 2991" d="M6569.432 2365.559c4.923 4.918 12.307 11.019 19.522 13.834a110.338 110.338 0 00-3.348 15.707c-6.711.3-18.318-1.553-25.866-4.923 1.127-7.454 6.501-19.534 9.692-24.618z" fill="#f9ecc9"/><path id="Path_2992" data-name="Path 2992" d="M6585.216 2398.349c-1.01 6.363-1.1 18.176-1.128 19.212-6.353-.373-20.015-2.209-25.666-4.951-.794-4.751.019-17.211.6-20.046 5.035 3.394 19.183 6.049 26.194 5.785z" fill="#f9ecc9"/><path id="Path_2993" data-name="Path 2993" d="M6611.265 2343.807s-28.811 20.553-24.612 74.745c6.419-26.833 19.92-69.588 41.731-68.966-14.484-4.464-17.119-5.779-17.119-5.779z" fill="#f9ecc9" style="mix-blend-mode:multiply;isolation:isolate"/><g id="Group_1320" data-name="Group 1320" style="mix-blend-mode:multiply;isolation:isolate" fill="#00d9ff"><path id="Path_2994" data-name="Path 2994" d="M6654.507 2305.17a34.944 34.944 0 01-4.5 3.41 24.089 24.089 0 01-1.71 5.709 49.077 49.077 0 007.224-5.421 21.462 21.462 0 00-1.014-3.698z"/><path id="Path_2995" data-name="Path 2995" d="M6650.359 2304.5a24.612 24.612 0 01-.15 2.678 47.448 47.448 0 003.676-3.526 21.987 21.987 0 00-2.311-3.937l-.108-.147c-.479.385-.951.737-1.415 1.073a24.52 24.52 0 01.308 3.859z"/><path id="Path_2996" data-name="Path 2996" d="M6655.8 2310.89a33.119 33.119 0 01-7.856 4.178 24.417 24.417 0 01-9.423 10.295 4.166 4.166 0 012.184 3.307 18.856 18.856 0 007.975 1.192 23.909 23.909 0 004.68-6.406c-3.583 1.445-6.455 1.906-7.481 1.694a43.929 43.929 0 008.419-3.784 22.769 22.769 0 001.189-4.163c-4.159 2.53-7.824 3.388-9.7 3.208a42.389 42.389 0 0010.02-5.429 22.863 22.863 0 00-.007-4.092z"/><path id="Path_2997" data-name="Path 2997" d="M6650.6 2298.469a22.808 22.808 0 00-1.456-1.562 24.218 24.218 0 01.645 2.359c.267-.258.537-.519.811-.797z"/><path id="Path_2998" data-name="Path 2998" d="M6637.453 2333.062a4.418 4.418 0 01-2.142-.057 4.159 4.159 0 01-2.994-5.02 24.331 24.331 0 01-16.957-1.659c5.918 7.724 15.45 11.8 24.421 9.006a14.136 14.136 0 01-2.328-2.27z"/></g></g><path id="Path_2999" data-name="Path 2999" d="M6610.6 2342.275s-46.334 21.283-52.51 46.642.155 26.19.155 26.19l26.974 4.794s1.434-51.694 25.381-77.626z" fill="#f9ecc9" style="mix-blend-mode:multiply;isolation:isolate"/><path id="Path_3000" data-name="Path 3000" d="M6660.6 2340.247l-10.6 6.815s17.486 16.3 26.722 66.393c-3.004-51.975-16.122-73.208-16.122-73.208z" fill="#f9ecc9" style="mix-blend-mode:multiply;isolation:isolate"/><path id="Path_3001" data-name="Path 3001" d="M6629.413 2293.041c-10.546 7.891-15.106 16.41-12.174 29.617-7.88-11.627-.87-26.191 12.174-29.617z" fill="#fff"/></g></g></g></svg>