<svg xmlns="http://www.w3.org/2000/svg" width="2020" height="979.803"><g id="Island" transform="translate(-5991.106 42.62)"><path id="Path_985" data-name="Path 985" d="M6897.295 936.933a61.563 61.563 0 01-10.862-.925l-33.372-5.95c-3.126-.557-6.321-1.127-8.608-1.539-21.789-3.879-38.273-21.723-39.944-42.446l-2.287-2.38-7.6 7.058a46.161 46.161 0 01-31.371 12.486 44.005 44.005 0 01-30.245-11.931l-1.759.015c-5.1 0-22.575-.831-37.255-11.534l-25.907-18.835a111.561 111.561 0 01-15.784-14.163l-7.316-8.114c-1.535-1.716-3.69-4.111-5.623-6.26l-4.542-5.046a81.4 81.4 0 01-12.854-19.281L6597.114 753l-3.387-1.078c-2.778-.878-5.675-1.8-7.583-2.4-9.428-1.889-15.766-6.819-21.9-11.59l-48.2-37.531a70.062 70.062 0 01-19.376-24l-6.992-15.074-27.12-7.013a57.925 57.925 0 00-7.778-1.138c-9.517-.477-93.043-4.661-93.537-4.688a114.8 114.8 0 01-17.294-2.895l-19.517-4.513a36.118 36.118 0 00-4.71-.36h-.193l-7.489.458a31.272 31.272 0 00-3.143.682l-27.929 11.621-4.21 1.758a126.412 126.412 0 01-24.308 6.982l-8.363 1.419a134.958 134.958 0 01-20.916 1.652c-1.437 0-2.806-.029-4.069-.084l-36.045-1.568c-2.281-.1-11.147-.478-11.147-.478-.43-.021-1.1-.052-1.921-.089a47.313 47.313 0 01-28.851 9.918 45.119 45.119 0 01-31.352-12.444l-6.348 2.043c-6.307 18.748-24.433 31.45-45.754 31.452-1.953 0-13.921-.112-15.851-.332l-50.478-5.724V-42.37h2019.5v472.132l-.4 39.9h-40.713l-16.622-.843h-.335a49.575 49.575 0 00-6.531.494l-14.348 2.757c-2.155.416-17.223 1.835-19.184 2.572l-40.886 15.475a52.763 52.763 0 00-6.157 3.037l-7.622 4.951a106.194 106.194 0 01-24.243 11.139l-19.413 5.882a44.792 44.792 0 00-5.2 2.241l-16.6 10.09a84.223 84.223 0 00-7.089 5.049l-.364.3a85.739 85.739 0 01-26.085 14.384 164.3 164.3 0 01-21.7 5.3l-46.8 7.762a76.77 76.77 0 00-8.88 2.281l-8.986 3.252a149.584 149.584 0 01-22.762 5.951l-72.958 12.364c-.467.13-1.44.461-2.019.684l-23.1 13.722-24.693 14.686-1.514 2.875a81.574 81.574 0 01-16.893 21.368l-27.985 24.908-12.382 33.987c-6.35 17.595-21.3 27.564-25.728 30.2l-19.079 11.318a103.408 103.408 0 01-25.492 10.308l-31.068 7.606a51.557 51.557 0 01-15.8 15.78c-7.62 4.769-17.831 8.257-24.84 9.927l-42.059 10c-5.588 12.618-18.511 25.231-39.942 25.231a52.035 52.035 0 01-15.255-2.334c-1.823-.564-4.374-1.35-6.927-2.136-1.516.551-2.857 1.04-3.856 1.405-6.124 2.594-11.387 2.953-17.466 3.368-2.468.169-8.212.564-12.853.9l-23.881 1.648c-4.127.288-8.86.619-12.071.834l-36.216 2.511c-.207.049-.468.117-.7.182l-1.309.705a53.089 53.089 0 01-25.217 6.274 52.553 52.553 0 01-19.822-3.847l-20.629 5.161a49.4 49.4 0 01-5.179 8.416l-14.333 18.753c-.88 1.157-1.635 2.15-2.285 3l.014.011-6.044 7.874-1.854 2.4-2.19 2.085a41.757 41.757 0 01-10.1 7.056l-5.364 2.89-23.187 12.444-8.8 9.446a80.243 80.243 0 01-25.224 17.538l-19.058 8.283a71.035 71.035 0 01-27.28 5.366z" fill="none" stroke="#e1e5eb" stroke-width=".5"/><path id="Path_986" data-name="Path 986" d="M6897.295 931.933a56.63 56.63 0 01-9.978-.846l-33.379-5.951c-3.123-.556-6.313-1.126-8.6-1.538-20.176-3.592-35.279-20.432-35.949-39.659l-6.367-6.627h-1.278l-10.526 9.777a41.173 41.173 0 01-27.968 11.15 38.972 38.972 0 01-28.206-11.949l-3.842.033c-9.576 0-23.571-2.777-34.266-10.574l-25.912-18.84a107.618 107.618 0 01-15-13.451l-7.331-8.129c-1.524-1.7-3.682-4.1-5.619-6.256l-4.542-5.047a77.153 77.153 0 01-12.018-18l-25.766-57.112-5.509-1.756c-2.921-.922-5.962-1.885-7.856-2.489-8.417-1.617-14.082-6.024-20.075-10.686l-48.2-37.529a65.7 65.7 0 01-17.917-22.168l-7.983-17.207-29.409-7.606a61.888 61.888 0 00-8.776-1.291c-3.8-.19-93.026-4.659-93.518-4.686a110.331 110.331 0 01-16.427-2.771l-19.68-4.551a39.768 39.768 0 00-5.686-.454h-.384l-7.731.473a31.553 31.553 0 00-4.428.964l-28.131 11.7-4.217 1.761a122.654 122.654 0 01-23.219 6.667l-8.361 1.418a129.428 129.428 0 01-20.08 1.582 88.83 88.83 0 01-3.849-.079l-36.048-1.568c-2.287-.1-11.149-.479-11.149-.479-.706-.034-2.1-.1-3.8-.171a42.367 42.367 0 01-27.188 10 40.06 40.06 0 01-29.9-13.124c-.52.141-1.034.293-1.5.444l-8.44 2.717c-.586.189-1.295.48-1.92.757-4.9 17.923-21.721 30.255-41.688 30.257-1.764 0-13.541-.1-15.284-.3l-46.044-5.221V-37.37h2009.5v467.132l-.349 34.9h-35.636l-16.5-.836a8.435 8.435 0 00-.457-.009h-.131a53.121 53.121 0 00-7.479.584l-24.344 2.757a87.653 87.653 0 00-10 2.8l-40.9 15.48a56.144 56.144 0 00-7.114 3.522l-7.619 4.949a102.18 102.18 0 01-22.969 10.547l-19.412 5.881a47.7 47.7 0 00-6.281 2.717l-16.662 10.128a87.219 87.219 0 00-7.7 5.486l-.352.292a81.611 81.611 0 01-24.462 13.484 161.051 161.051 0 01-20.945 5.115l-46.8 7.762a80.675 80.675 0 00-9.747 2.507l-9 3.257a146.151 146.151 0 01-21.9 5.723l-73.211 12.4a29.7 29.7 0 00-3.156 1.076l-23.419 13.916-25.906 15.411-2.171 4.122a77.408 77.408 0 01-15.8 19.968l-28.921 25.742-12.815 35.172c-4.6 12.748-15.2 22.626-23.586 27.615l-19.073 11.314a99.4 99.4 0 01-24.134 9.756l-33.056 8.092a46.777 46.777 0 01-15.268 15.906c-7.124 4.459-17.035 7.8-23.355 9.307l-44.56 10.595c-4.322 11.812-15.987 24.5-36.28 24.5a47.047 47.047 0 01-13.789-2.114c-2.2-.68-5.47-1.688-8.525-2.627-2.225.806-4.222 1.534-5.561 2.024-5.4 2.31-10.07 2.629-15.969 3.032a3672.2 3672.2 0 00-12.87.9l-23.869 1.648c-4.127.288-8.854.618-12.061.834l-36.615 2.537c-.353.067-1.317.317-1.881.495l-1.767.953a48.091 48.091 0 01-22.846 5.675 47.311 47.311 0 01-19.4-4.107l-24.6 6.156a44.757 44.757 0 01-5.6 9.646l-14.339 18.761a1736.109 1736.109 0 01-5.376 7.051l-.6.787c-.631.826-1.209 1.579-1.628 2.124-.091.118-.181.233-.272.346l-.418.548-1.622 2.1-1.914 1.824a36.592 36.592 0 01-9.02 6.274c-1.238.666-3.16 1.7-5.37 2.893l-23.906 12.842-9.365 10.054a76.033 76.033 0 01-23.552 16.356l-19.061 8.284a65.871 65.871 0 01-25.29 4.937z" fill="none" stroke="#e1e5eb" stroke-width=".5"/><path id="Path_987" data-name="Path 987" d="M6897.295 926.933a60.685 60.685 0 0023.3-4.533l19.064-8.285a70.619 70.619 0 0021.881-15.175l-.008-.007c.518-.539 1.317-1.4 2.686-2.868l7.254-7.787 24.624-13.228c2.214-1.2 4.138-2.231 5.377-2.9a32.009 32.009 0 007.941-5.492l1.639-1.561 1.389-1.8-.026-.021q.355-.4.709-.863c.416-.542.99-1.289 1.616-2.109l-.01-.007c.752-.954 2.319-3.014 6.126-8.019l14.2-18.574a40.234 40.234 0 005.863-10.837l28.845-7.218a42.1 42.1 0 0018.869 4.394 43.078 43.078 0 0020.474-5.077l2.123-1.143a21.887 21.887 0 013.366-.878l36.81-2.551c3.2-.215 7.926-.545 12.053-.834l23.856-1.646c4.653-.333 10.412-.73 12.884-.9 5.663-.387 9.792-.669 14.463-2.692 1.4-.511 3.576-1.3 6-2.182l1.283-.465a5897.31 5897.31 0 0110.122 3.117 42 42 0 0012.323 1.9c18.9 0 29.185-12.531 32.251-23.262q.059-.207.126-.45l47.306-11.245c5.954-1.418 15.25-4.543 21.871-8.687a41.875 41.875 0 0014.6-16l35.171-8.61a93.746 93.746 0 0022.774-9.2l19.068-11.311c7.647-4.55 17.287-13.509 21.445-25.03l13.246-36.356 29.859-26.576a71.964 71.964 0 0014.7-18.568l2.828-5.369 27.119-16.128 23.66-14.057a28.8 28.8 0 014.644-1.569l73.21-12.4a140.341 140.341 0 0021.031-5.494l9.018-3.263a84.672 84.672 0 0110.615-2.732l46.8-7.763a155.405 155.405 0 0020.19-4.928 76.088 76.088 0 0022.839-12.584l.34-.282a92 92 0 018.31-5.923l16.654-10.122a49.766 49.766 0 017.436-3.235l19.411-5.881a96.521 96.521 0 0021.7-9.956l7.615-4.946a59.763 59.763 0 018.071-4.007l40.908-15.484a91.332 91.332 0 0110.814-3.031l24.339-2.756a57.448 57.448 0 018.428-.675c.3 0 .585 0 .841.015l16.369.83h30.56l.3-29.9V-32.37h-1999.5v711.422l41.61 4.719c1.552.176 13.141.267 14.718.267 18.376 0 33.718-11.7 37.321-28.443l.982-.744a30 30 0 013.773-1.586l8.439-2.717c1.007-.324 2.024-.6 2.852-.8.756.039 1.6.083 2.508.128a34.94 34.94 0 0027.58 13.11 37.352 37.352 0 0024.053-8.893l1.4-1.185c2.569.113 4.813.213 5.753.258 0 0 8.857.382 11.151.479l36.05 1.567c1.12.05 2.342.075 3.629.075a124.183 124.183 0 0019.243-1.511l8.361-1.419a116.869 116.869 0 0022.13-6.351l4.222-1.763 28.2-11.735a32.489 32.489 0 015.971-1.309l7.764-.474c.158-.01.4-.011.656-.011a42.4 42.4 0 016.813.582l19.691 4.554a108.75 108.75 0 0015.56 2.647c.487.026 93.5 4.686 93.5 4.686a66.13 66.13 0 019.776 1.443l31.7 8.2 8.972 19.341a60.276 60.276 0 0016.454 20.333l48.195 37.529c5.8 4.512 10.838 8.43 18.229 9.774 1.858.593 5.064 1.609 8.15 2.583l7.632 2.432 26.678 59.134a71.732 71.732 0 0011.18 16.724l4.545 5.048c1.939 2.156 4.1 4.56 5.614 6.251l7.346 8.146a102.136 102.136 0 0014.209 12.739l25.917 18.844c9.721 7.087 22.532 9.615 31.276 9.615l6.091-.054a33.766 33.766 0 0026 11.969 36.179 36.179 0 0024.565-9.813l11.969-11.117 5.371.008 9.218 9.595c-.368 17.628 13.037 33.418 31.852 36.767 2.282.412 5.468.981 8.588 1.536l33.385 5.953a51.655 51.655 0 009.095.77z" fill="none" stroke="#e1e5eb" stroke-width=".5"/><path id="Path_988" data-name="Path 988" d="M6897.295 921.933a46.8 46.8 0 01-8.223-.69l-33.379-5.952c-3.115-.555-6.3-1.123-8.6-1.539-17.079-3.04-29.051-17.762-27.606-33.739l-12.2-12.7-9.465-.014-13.4 12.443a31.2 31.2 0 01-21.177 8.49 28.817 28.817 0 01-23.583-11.99l-8.465.074c-8 0-19.624-2.275-28.385-8.662l-25.906-18.836a98.008 98.008 0 01-13.457-12.064l-7.3-8.1c-1.53-1.71-3.7-4.119-5.641-6.282l-4.548-5.052a66.3 66.3 0 01-10.33-15.418l-27.6-61.176-9.782-3.117a3114.736 3114.736 0 01-8.445-2.677c-6.344-1.067-10.562-4.348-16.352-8.852l-48.2-37.534a54.89 54.89 0 01-14.984-18.481l-9.972-21.5-33.962-8.784a71.741 71.741 0 00-10.8-1.6s-93-4.658-93.479-4.685c-4.7-.252-12.449-2-14.713-2.528l-19.676-4.55a45.852 45.852 0 00-7.943-.712c-.374 0-.715.006-.973.02l-7.728.473a35.039 35.039 0 00-7.61 1.685l-28.217 11.74-4.206 1.756a111.27 111.27 0 01-21.05 6.04l-8.363 1.419a120.726 120.726 0 01-18.4 1.44c-1.214 0-2.362-.024-3.414-.07l-36.063-1.569c-2.285-.095-11.08-.475-11.08-.475-1.207-.058-4.423-.2-7.764-.346l-2.881 2.443a32.358 32.358 0 01-20.831 7.716 29.993 29.993 0 01-24.316-12.064l-.694-.922c-2.073-.1-4.042-.2-5.523-.282-1.05.233-2.5.6-3.937 1.069l-8.443 2.718a34.629 34.629 0 00-4.928 2.108l-2.782 2.112-.4 1.817c-3.089 14.411-16.428 24.493-32.433 24.495-1.389 0-12.788-.08-14.157-.236l-37.171-4.215V-27.37h1989.5v457.132l-.249 24.9h-25.483l-16.231-.823a22.598 22.598 0 00-1.106-.022 61.528 61.528 0 00-9.368.765l-24.349 2.757a94.75 94.75 0 00-11.646 3.268l-40.892 15.478a64.192 64.192 0 00-9.024 4.489l-7.6 4.937a90.954 90.954 0 01-20.44 9.376l-19.424 5.884a54.118 54.118 0 00-8.565 3.739l-16.681 10.136a96.831 96.831 0 00-8.879 6.33l-.407.338a70.556 70.556 0 01-21.145 11.632 151.972 151.972 0 01-19.456 4.748l-46.818 7.765a88.316 88.316 0 00-11.5 2.966l-8.99 3.254a136.934 136.934 0 01-20.176 5.271l-73.232 12.4a31.044 31.044 0 00-6.214 2.12l-23.792 14.135-27.8 16.533c-.164.13-.451.392-.7.636l-3.327 6.318a66.541 66.541 0 01-13.588 17.135l-30.157 26.843a13 13 0 00-.84 1.1l-13.5 37.044c-3.7 10.264-12.389 18.308-19.281 22.408l-19.084 11.321a88.084 88.084 0 01-21.4 8.633l-37.444 9.167a37.1 37.1 0 01-13.807 16.068c-6.1 3.817-14.782 6.726-20.363 8.055l-50.156 11.934c-.377 1.332-.705 2.5-.911 3.232-2.6 9.087-11.336 19.665-27.452 19.665a36.986 36.986 0 01-10.833-1.667c-2.959-.916-7.87-2.427-11.575-3.564-.173.011-.32.027-.427.042l-2.595.941c-2.514.91-4.766 1.732-6.157 2.241-3.936 1.73-7.532 1.976-12.935 2.345a4023.4 4023.4 0 00-12.88.9l-23.878 1.648c-4.118.288-8.834.617-12.056.834l-36.9 2.559a23.778 23.778 0 00-5.074 1.335l-2.364 1.274a38.065 38.065 0 01-18.083 4.468 36.641 36.641 0 01-18.2-4.715L7037 818.7a35.456 35.456 0 01-5.918 11.973l-14.212 18.595c-3.147 4.136-4.712 6.193-5.526 7.252l.014.013-4.031 5.211-1.369 1.3a27.163 27.163 0 01-6.851 4.7c-1.244.669-3.172 1.706-5.368 2.892l-25.364 13.625-8.153 8.752c-1.312 1.409-1.974 2.121-2.352 2.512l.006.007a65.207 65.207 0 01-20.215 13.994l-19.057 8.283a55.533 55.533 0 01-21.309 4.124z" fill="none" stroke="#e1e5eb" stroke-width=".5"/><path id="Path_989" data-name="Path 989" d="M6897.295 916.933a50.377 50.377 0 0019.314-3.7l19.06-8.284a60.74 60.74 0 0018.544-12.813l11.065-11.879c5.409-2.9 23.7-12.731 26.082-14.011 2.2-1.188 4.131-2.227 5.373-2.9a22.335 22.335 0 005.775-3.92l1.094-1.043.926-1.2s1.026-1.327 2.26-2.943c0 0 4.422-5.8 6.107-8.013l14.211-18.593a30.724 30.724 0 005.716-13.048l38.452-9.621a31.039 31.039 0 0017.354 5.081 33.052 33.052 0 0015.712-3.871l2.411-1.3a26.5 26.5 0 017.052-1.9l36.906-2.559c3.219-.216 7.93-.546 12.048-.833l23.865-1.647c4.639-.332 10.412-.73 12.89-.9 5.213-.355 8.218-.56 11.408-1.995 1.377-.5 3.712-1.356 6.327-2.3l2.976-1.078a9.715 9.715 0 012.077-.214c.177 0 .32.005.427.011 3.769 1.157 9.143 2.809 12.287 3.783a31.946 31.946 0 009.367 1.447c13.332 0 20.526-8.624 22.636-16.009.345-1.235 1.03-3.66 1.718-6.074l53.016-12.6c5.629-1.34 13.645-4.159 18.879-7.435a32.3 32.3 0 0012.793-16.076l39.909-9.77a83.811 83.811 0 0020.04-8.078l19.079-11.317c5.872-3.495 13.875-10.777 17.139-19.824l13.683-37.554a15.167 15.167 0 011.935-2.534l30.245-26.92a62.044 62.044 0 0012.493-15.735l3.644-6.919a12.649 12.649 0 012.135-1.933l27.915-16.6 23.794-14.136a34.027 34.027 0 017.931-2.751l73.231-12.4a131.1 131.1 0 0019.311-5.043l9.006-3.259a93.306 93.306 0 0112.366-3.191l46.82-7.765a146.4 146.4 0 0018.7-4.562 66.054 66.054 0 0019.523-10.733l.393-.327a101.359 101.359 0 019.49-6.766l16.669-10.132a57.652 57.652 0 019.719-4.256l19.423-5.884a86.672 86.672 0 0019.168-8.784l7.6-4.934a68.342 68.342 0 019.982-4.975l40.9-15.482a99.4 99.4 0 0112.461-3.5l24.346-2.757a66.442 66.442 0 0110.315-.855c.486 0 .944.007 1.359.029l16.1.816h20.407l.2-19.9V-22.37h-1979.5v692.492l32.737 3.713c1.183.134 12.392.2 13.591.2 13.626 0 24.954-8.458 27.549-20.566l.793-3.616 4.522-3.432a38.042 38.042 0 016.145-2.677l8.442-2.718a49.3 49.3 0 015.079-1.338c2.013.106 5.3.275 8.5.434l2.117 2.81a25.064 25.064 0 0020.307 10.052 27.34 27.34 0 0017.6-6.53l4.2-3.564c.148-.052.306-.1.438-.134l.294.013c3.814.167 7.809.342 9.153.407.049 0 8.378.362 11.087.475l36.065 1.569c.98.043 2.056.065 3.195.065a115.283 115.283 0 0017.567-1.369l8.363-1.42a107.155 107.155 0 0019.96-5.724l4.212-1.758 28.217-11.741a39.253 39.253 0 019.226-2.059l7.74-.473c.335-.019.778-.029 1.266-.029a50.282 50.282 0 019.069.84l19.688 4.553c1.518.355 9.441 2.168 13.844 2.405.809.043 89.679 4.494 93.462 4.683a75.539 75.539 0 0111.8 1.756l36.251 9.375 10.961 23.631a50.194 50.194 0 0013.526 16.651l48.2 37.533c5.612 4.365 9.16 7.125 14.448 7.921 1.649.529 5.3 1.686 8.8 2.79l11.905 3.794 28.51 63.2a61.719 61.719 0 009.493 14.141l4.549 5.054c1.949 2.166 4.119 4.579 5.637 6.276l7.317 8.113a92.451 92.451 0 0012.669 11.353l25.912 18.839c7.795 5.684 18.554 7.7 25.4 7.7l11.2-.1a23.844 23.844 0 0020.889 12.014 26.21 26.21 0 0017.774-7.154l14.553-13.518a7.089 7.089 0 01.962-.263l12.883.02 15.3 15.924-.182 1.507c-1.644 13.677 8.653 26.447 23.44 29.079 2.3.415 5.478.982 8.59 1.537l33.385 5.952a41.727 41.727 0 007.341.615z" fill="none" stroke="#e1e5eb" stroke-width=".5"/><path id="Path_990" data-name="Path 990" d="M6897.295 911.933a36.852 36.852 0 01-6.467-.535l-33.38-5.952c-3.108-.554-6.283-1.12-8.6-1.539-12.167-2.165-20.668-12.511-19.342-23.551l.467-3.864-17.822-18.552a8.29 8.29 0 00-2.578-.619l-13.222-.02a10.956 10.956 0 00-3.514.99l-15.195 14.115a21.24 21.24 0 01-14.387 5.831 18.939 18.939 0 01-16.847-10.027l-1.1-2.014-14.1.125c-6.615 0-16.107-2.087-22.5-6.751l-25.9-18.831a86.8 86.8 0 01-11.917-10.677l-7.274-8.067a2357.72 2357.72 0 00-5.663-6.3l-4.553-5.057a57.146 57.146 0 01-8.642-12.836l-29.274-64.89a5.339 5.339 0 00-1.1-.651l-13.1-4.175c-3.784-1.2-7.764-2.456-9.167-2.911-4.2-.521-6.894-2.614-12.5-6.97l-48.21-37.54a45.408 45.408 0 01-12.051-14.795l-11.852-25.552a3.972 3.972 0 00-.834-.422l-37.792-9.774a80.522 80.522 0 00-12.832-1.914c-3.78-.19-92.643-4.64-93.44-4.683-4.139-.222-12.64-2.2-13-2.287l-19.671-4.548a54.636 54.636 0 00-10.2-.97c-.6 0-1.139.013-1.587.039l-7.7.471a43.63 43.63 0 00-10.867 2.435l-28.229 11.745-4.195 1.752a101.281 101.281 0 01-18.879 5.412l-8.368 1.42a111.373 111.373 0 01-16.727 1.3c-1.067 0-2.07-.021-2.979-.061l-36.08-1.569c-2.7-.113-11.023-.473-11.023-.473-1.372-.066-5.376-.241-9.2-.409l-.834-.035a9.141 9.141 0 00-2.772.847l-4.771 4.045a22.34 22.34 0 01-14.375 5.354 20.133 20.133 0 01-16.329-8.08l-3.264-4.334a5.076 5.076 0 00-1.339-.38c-3.882-.192-8.187-.413-10.322-.526a51.181 51.181 0 00-6.28 1.6l-8.448 2.719a40.2 40.2 0 00-7.455 3.319c-.012.009-4.192 3.182-6.109 4.635a2.864 2.864 0 00-.113.292l-1.141 5.213c-2.092 9.758-11.409 16.59-22.655 16.591-1.011 0-12.03-.058-13.03-.172l-28.3-3.209V-17.37h1969.5v447.032l-.15 15h-15.329l-15.969-.809c-.5-.026-1.043-.036-1.621-.036a71.262 71.262 0 00-11.256.944l-24.356 2.759a104.191 104.191 0 00-13.29 3.734l-40.891 15.477a72.393 72.393 0 00-10.933 5.457l-7.583 4.925a80.9 80.9 0 01-17.911 8.2l-19.433 5.888a61.984 61.984 0 00-10.85 4.761l-16.691 10.145a106.029 106.029 0 00-10.067 7.18l-.449.373a61.377 61.377 0 01-17.832 9.784 142.814 142.814 0 01-17.966 4.383l-46.833 7.767a97.8 97.8 0 00-13.251 3.425l-8.977 3.249a125.253 125.253 0 01-18.456 4.819L7572.51 559.5a38.132 38.132 0 00-9.628 3.377l-23.8 14.14L7511.2 593.6a16.7 16.7 0 00-3.807 3.491l-3.88 7.367a57.37 57.37 0 01-11.376 14.3l-30.272 26.944a18.589 18.589 0 00-3.174 4.223l-13.807 37.9c-2.63 7.289-9.417 13.895-14.976 17.2l-19.095 11.327a78.04 78.04 0 01-18.664 7.514l-42.649 10.446a27.723 27.723 0 01-11.53 16.03c-4.718 2.953-12.313 5.6-17.369 6.8l-55.867 13.28-.143.5c-.871 3.039-1.928 6.774-2.37 8.356-1.64 5.741-7.289 12.412-17.837 12.412a26.9 26.9 0 01-7.877-1.22 6860.9 6860.9 0 00-12.767-3.93 9.625 9.625 0 00-1.437-.091 13.222 13.222 0 00-3.656.467l-3.1 1.123c-2.744.995-5.178 1.884-6.528 2.377-2.432 1.13-4.823 1.293-9.845 1.635-2.483.17-8.262.569-12.882.9l-23.8 1.642c-4.2.293-8.9.622-12.137.84l-36.9 2.558a30.033 30.033 0 00-9.066 2.478l-2.44 1.314a28.047 28.047 0 01-13.322 3.262 25.943 25.943 0 01-14.695-4.321l-.991-.685a7.115 7.115 0 00-1.468-.152 4.247 4.247 0 00-.7.048l-42.489 10.631a26.385 26.385 0 01-5.147 14.028l-14.227 18.614c-1.676 2.2-6.1 8-6.1 8a773.022 773.022 0 01-2.239 2.917l-.7.9-.821.784a17.606 17.606 0 01-4.691 3.132c-1.245.67-3.179 1.711-5.362 2.89l-26.819 14.407a78087.478 78087.478 0 00-11.637 12.491 56.1 56.1 0 01-16.875 11.63l-19.052 8.281a45.872 45.872 0 01-17.319 3.293z" fill="none" stroke="#e1e5eb" stroke-width=".5"/><path id="Path_991" data-name="Path 991" d="M6897.295 906.933a40.641 40.641 0 0015.332-2.878l19.056-8.282a51.365 51.365 0 0015.207-10.452s11.365-12.2 12.2-13.1c.458-.243 27.536-14.791 27.536-14.791 2.187-1.181 4.124-2.223 5.37-2.893a13.176 13.176 0 003.61-2.35l.548-.522.463-.6s1.007-1.3 2.219-2.891l6.1-8 14.226-18.612a21.545 21.545 0 004.082-14.887l46.34-11.594a8.243 8.243 0 011.891-.192 10 10 0 013.725.634l1.583 1.094a20.929 20.929 0 0011.846 3.43 23.045 23.045 0 0010.951-2.664l2.43-1.309a34.745 34.745 0 0111.1-3.069l36.909-2.559c3.255-.219 8-.55 12.127-.839l23.789-1.641c4.625-.331 10.411-.73 12.9-.9 4.768-.325 6.6-.45 8.247-1.262 1.295-.473 3.857-1.409 6.765-2.462l3.093-1.121a17.478 17.478 0 015.365-.769 11.136 11.136 0 012.762.268c3.775 1.157 9.584 2.944 12.908 3.972a21.832 21.832 0 006.411 1c7.756 0 11.811-4.523 13.021-8.756.443-1.588 1.505-5.338 2.377-8.383l.717-2.515a6.8 6.8 0 012.618-1.372l56.325-13.389c4.823-1.149 11.825-3.641 15.885-6.182a22.48 22.48 0 009.836-15.7 3.952 3.952 0 011.03-.425l44.764-10.96a73.55 73.55 0 0017.3-6.958l19.09-11.324c4.643-2.763 10.631-8.51 12.834-14.617l13.839-37.98a21.916 21.916 0 014.516-6.164l30.267-26.94a52.611 52.611 0 0010.281-12.9l3.949-7.5a20.027 20.027 0 015.606-5.329l27.887-16.586 23.8-14.138a42.436 42.436 0 0111.349-4.01l73.251-12.407a121.327 121.327 0 0017.591-4.592l8.993-3.254a102.64 102.64 0 0114.118-3.651l46.834-7.767a136.841 136.841 0 0017.211-4.2 56.552 56.552 0 0016.206-8.882l.439-.365a110.351 110.351 0 0110.68-7.609l16.684-10.14a66 66 0 0112-5.278l19.431-5.887a76.423 76.423 0 0016.639-7.613l7.578-4.921a77.187 77.187 0 0111.891-5.943l40.9-15.481a108.631 108.631 0 0114.1-3.964l24.353-2.758a75.725 75.725 0 0112.2-1.035c.67 0 1.3.013 1.874.042l15.842.8h10.253l.1-10V-12.37h-1959.5v673.562l23.864 2.706c.81.092 11.642.14 12.464.14 8.866 0 16.173-5.207 17.771-12.661l1.149-5.244a8.514 8.514 0 011.143-2.55l6.983-5.3a41.77 41.77 0 018.9-4.057l8.446-2.719a49.874 49.874 0 017.59-1.862c1.894.1 6.591.344 10.8.551a9.925 9.925 0 014.443 1.526l3.912 5.194a15.206 15.206 0 0012.32 6.068 17.33 17.33 0 0011.142-4.168l4.943-4.19a12.481 12.481 0 015.9-1.888h.109c4.078.178 8.618.377 10.072.447 0 0 8.318.36 11.025.473l36.081 1.569c.842.037 1.772.056 2.76.056a106 106 0 0015.89-1.228l8.368-1.42a97.116 97.116 0 0017.789-5.1l4.2-1.755 28.23-11.745a48.388 48.388 0 0112.482-2.81l7.715-.471c.529-.031 1.17-.048 1.876-.048a59.451 59.451 0 0111.327 1.1l19.683 4.552a97.129 97.129 0 0012.127 2.162c.8.043 93.426 4.682 93.426 4.682a85.424 85.424 0 0113.832 2.067l37.8 9.777a9.3 9.3 0 013.614 2.1l12.339 26.6a40.441 40.441 0 0010.592 12.965l48.206 37.537c5.376 4.182 7.369 5.732 10.451 6 .079.023.165.049.258.079 1.063.348 5.339 1.7 9.4 2.987l13.1 4.173a9.917 9.917 0 013.74 2.443l29.683 65.8a52.344 52.344 0 007.8 11.558l4.554 5.058c1.958 2.176 4.135 4.6 5.659 6.3l7.289 8.082a82.592 82.592 0 0011.129 9.966l25.906 18.835c5.455 3.977 13.942 5.792 19.515 5.792l14.726-.131a6.62 6.62 0 012.737.662l2.173 3.965a14.015 14.015 0 0012.456 7.419 16.245 16.245 0 0010.984-4.495l15.485-14.384a14.169 14.169 0 016.634-2.057l13.215.02a12.45 12.45 0 015.642 1.592l18.942 19.716a5.711 5.711 0 01.93 2.223l-.616 5.1c-1.011 8.412 5.695 16.331 15.264 18.035 2.317.418 5.488.983 8.593 1.536l33.386 5.954a31.907 31.907 0 005.602.457z" fill="none" stroke="#e1e5eb" stroke-width=".5"/><path id="Path_992" data-name="Path 992" d="M6897.295 901.933a26.9 26.9 0 01-4.714-.38L6859.2 895.6c-3.1-.553-6.268-1.118-8.6-1.538-6.951-1.238-11.861-6.733-11.167-12.508l.641-5.3a9.543 9.543 0 00-2.321-6.1l-19.061-19.842c-1.145-1.192-5.359-2.994-9.1-2.994l-13.237-.02c-3.58 0-8.337 1.828-10.037 3.4l-15.463 14.363a11.278 11.278 0 01-7.6 3.172 9.092 9.092 0 01-8.078-4.834l-2.614-4.768c-.516-.846-3.489-2.444-6.616-2.444l-14.784.131c-5.668 0-12.795-2.081-16.58-4.84l-25.9-18.827a78.128 78.128 0 01-10.377-9.291l-7.246-8.034c-1.509-1.688-3.633-4.05-5.563-6.2l-4.677-5.2a48.171 48.171 0 01-6.959-10.261l-29.825-66.11c-.584-1.283-3.629-3.891-6.629-4.839l-13.131-4.183a1848.638 1848.638 0 01-9.42-2.993c-.374-.119-.7-.208-.922-.261-1.62-.035-2.428-.5-8.19-4.984l-48.212-37.542a35.353 35.353 0 01-9.119-11.109l-12.525-27c-.5-1.075-3.438-3.586-6.729-4.446l-37.768-9.767a89.946 89.946 0 00-14.859-2.227s-92.613-4.638-93.406-4.681a93.117 93.117 0 01-11.282-2.044l-19.667-4.547a64.038 64.038 0 00-12.453-1.228c-.805 0-1.544.02-2.2.058l-7.678.469a53.756 53.756 0 00-14.124 3.186l-28.245 11.752-4.179 1.745a91.09 91.09 0 01-16.709 4.786l-8.371 1.42a102.083 102.083 0 01-15.056 1.157 58.65 58.65 0 01-2.539-.051l-36.1-1.57c-2.694-.112-5.526-.235-7.693-.33l-3.254-.139c-1.493-.072-6.043-.272-10.154-.451-.091 0-.2-.006-.3-.006a16.931 16.931 0 00-9.142 3.079l-4.923 4.175a12.338 12.338 0 01-7.921 2.992 10.273 10.273 0 01-8.342-4.1l-4.075-5.41c-.9-1.211-4.655-3.1-8.022-3.275-4.469-.22-9.5-.481-11.163-.571a47.869 47.869 0 00-9 2.116l-8.453 2.721a45.4 45.4 0 00-10.366 4.821s-6.443 4.89-7.382 5.6a11.875 11.875 0 00-2.615 5.152l-1.165 5.31c-1.093 5.1-6.39 8.684-12.877 8.685-.633 0-11.273-.037-11.9-.109l-19.423-2.2V-7.37h1949.5v442.032h-5.126l-.227-.007-15.589-.79a43.679 43.679 0 00-2.127-.048 80.261 80.261 0 00-13.143 1.124l-24.361 2.759a112.875 112.875 0 00-14.934 4.2l-40.89 15.476a81.962 81.962 0 00-12.841 6.423l-7.565 4.913a71.806 71.806 0 01-15.383 7.033l-19.441 5.89a69.838 69.838 0 00-13.136 5.783l-16.706 10.154a114.647 114.647 0 00-11.26 8.033l-.487.406a51.609 51.609 0 01-14.519 7.935 132.955 132.955 0 01-16.475 4.016l-46.849 7.77a107.179 107.179 0 00-15 3.885l-8.963 3.244a115.374 115.374 0 01-16.736 4.368l-73.271 12.41a47.145 47.145 0 00-13.049 4.638l-23.8 14.143-27.855 16.567a24.093 24.093 0 00-7.5 7.313l-3.96 7.519a48.407 48.407 0 01-9.165 11.471l-30.295 26.964a26.113 26.113 0 00-5.867 8.17l-13.849 38.008c-1.476 4.091-6.065 9.254-10.67 11.994l-19.114 11.336a68.844 68.844 0 01-15.929 6.395L7345 725.118a7.3 7.3 0 00-4.679 3.165l-.085 1.118a17.6 17.6 0 01-7.572 12.465 56.51 56.51 0 01-14.375 5.549l-56.332 13.391c-3.117.742-5.707 3.05-6.021 4.008l-.957 3.357c-.878 3.065-1.944 6.83-2.372 8.364-.928 3.243-4 5.16-8.222 5.16a17.058 17.058 0 01-4.919-.773 6947.232 6947.232 0 00-12.932-3.98 15.592 15.592 0 00-4.23-.488 22.4 22.4 0 00-7.065 1.067l-3.094 1.121c-3.036 1.1-5.694 2.071-6.934 2.525l-.169.061c-.814.46-1.814.529-6.551.852-2.487.17-8.279.569-12.884.9l-19.193 1.32-4.613.322c-4.125.288-8.862.619-12.135.839l-36.9 2.56a39.676 39.676 0 00-13.115 3.648l-2.46 1.325a18.266 18.266 0 01-8.559 2.056 15.918 15.918 0 01-9.012-2.549l-1.671-1.155a14.861 14.861 0 00-9.573-1.114l-49.162 12.3a4.974 4.974 0 00-1.892.857c1.96 4.52 1.082 10.932-2.127 15.136l-14.242 18.633c-1.8 2.368-6.087 7.986-6.087 7.986-1.2 1.574-2.2 2.866-2.2 2.866l-.231.3-.274.261c-.493.47-.493.47-2.493 1.546l-5.391 2.9-22.151 11.9-3.877 2.083c-.944.509-1.668.9-2.239 1.2-.767.819-12.785 13.722-12.785 13.722a47.241 47.241 0 01-13.539 9.268l-19.046 8.279a35.976 35.976 0 01-13.345 2.464z" fill="none" stroke="#e1e5eb" stroke-width=".5"/><path id="Path_993" data-name="Path 993" d="M7970.856-2.37v432.032h-.1l-15.59-.79a82.86 82.86 0 00-16.47 1.16l-24.36 2.76a117.287 117.287 0 00-15.75 4.43l-40.9 15.48a86.734 86.734 0 00-13.8 6.91l-7.56 4.91a67.123 67.123 0 01-14.11 6.44l-19.44 5.89a74.877 74.877 0 00-14.29 6.3l-16.7 10.15a118.94 118.94 0 00-11.87 8.47l-.48.4a46.609 46.609 0 01-12.89 7.03 127.556 127.556 0 01-15.72 3.83l-46.85 7.77a111.551 111.551 0 00-15.87 4.11l-8.98 3.25a111.616 111.616 0 01-15.87 4.14l-73.27 12.41a51.6 51.6 0 00-14.77 5.27l-1.8 1.07c-3.58 2.13-8.53 5.07-11 6.54s-7.41 4.4-11 6.53l-27.86 16.57c-3.59 2.12-7.8 6.3-9.37 9.28l-3.96 7.52a43.348 43.348 0 01-8.07 10.07l-30.29 26.96a30.787 30.787 0 00-7.24 10.19l-13.85 38.01c-1.1 3.05-4.95 7.28-8.53 9.41l-19.1 11.33a64.118 64.118 0 01-14.57 5.84l-44.77 10.96c-4.44 1.09-8.24 4.49-8.47 7.58l-.09 1.18a12.542 12.542 0 01-5.23 8.6 52.645 52.645 0 01-12.89 4.93l-56.33 13.39c-4.45 1.06-8.79 4.42-9.67 7.49l-.96 3.37c-.88 3.07-1.95 6.85-2.38 8.39s-3.53 1.97-6.86.95-9.15-2.82-12.93-3.98-10.29-.86-14.47.66l-3.09 1.12c-4.17 1.51-7.63 2.78-7.69 2.8-.04.03-2.11.18-4.6.35s-8.29.57-12.9.9l-19.18 1.32c-4.61.32-12.13.85-16.74 1.16l-36.91 2.56a44.355 44.355 0 00-15.15 4.24l-2.45 1.32c-3.73 2.02-9.28 1.93-12.35-.2l-1.68-1.16c-3.08-2.12-9.2-2.96-13.63-1.85l-49.16 12.3c-4.41 1.1-6.9 4.34-5.51 7.2l.14.27c1.39 2.85.75 7.51-1.41 10.34l-14.24 18.63c-2.16 2.84-4.9 6.43-6.09 7.99s-2.18 2.84-2.18 2.84-3.07 1.65-6.81 3.67l-22.14 11.89c-3.74 2.01-6.81 3.67-6.83 3.67s-2.11 2.25-4.63 4.96l-8.73 9.37a42.175 42.175 0 01-11.87 8.09l-19.05 8.28a31.1 31.1 0 01-15.18 1.75l-26.32-4.69c-4.34-.78-11.39-2.03-15.66-2.8s-7.46-3.91-7.09-6.99l.64-5.3c.39-3.09-1.28-7.65-3.67-10.15l-19.07-19.85c-2.39-2.49-8.11-4.53-12.71-4.53l-13.23-.02c-4.59 0-10.63 2.13-13.44 4.73l-15.47 14.37c-2.8 2.59-6.35 2.42-7.88-.39l-2.62-4.78c-1.53-2.82-6.56-5.09-11.15-5.04l-14.48.13c-4.59.04-10.8-1.7-13.79-3.88l-25.9-18.83a73.707 73.707 0 01-9.59-8.58l-7.26-8.05c-2.28-2.55-6.02-6.7-8.31-9.25l-1.93-2.14a43.162 43.162 0 01-6.12-8.98c-1.08-2.39-3.02-6.7-4.32-9.58l-25.5-56.52c-1.31-2.88-5.66-6.28-9.68-7.55l-13.12-4.18c-4.02-1.27-8.25-2.61-9.38-2.98a8.168 8.168 0 00-2.22-.51 57.119 57.119 0 01-5.38-3.93l-48.21-37.54a30.657 30.657 0 01-7.66-9.28l-12.52-26.99c-1.33-2.86-5.83-6.09-10-7.18l-37.78-9.77a94.545 94.545 0 00-15.86-2.38l-82.39-4.13c-4.55-.23-9.5-.47-11-.55a90.089 90.089 0 01-10.41-1.92l-19.68-4.55a68.1 68.1 0 00-16.07-1.29l-7.69.47a58.188 58.188 0 00-15.74 3.56l-13.5 5.62c-4.05 1.68-10.69 4.45-14.74 6.13l-4.19 1.75a86.966 86.966 0 01-15.62 4.47l-8.37 1.42a94.575 94.575 0 01-16.54 1.04l-36.1-1.57c-4.56-.19-9.49-.41-10.96-.47s-6.02-.27-10.14-.45a21.676 21.676 0 00-12.89 4.25l-4.93 4.18c-2.97 2.51-7.03 2.39-9.02-.28l-4.09-5.43c-1.99-2.67-7.28-5.03-11.76-5.26s-9.49-.48-11.15-.57-6.52.97-10.8 2.35l-8.45 2.72c-4.28 1.38-9.61 3.89-11.86 5.6s-5.57 4.23-7.37 5.59-3.83 5.02-4.49 8.09l-1.16 5.29c-.66 3.08-14.86 5.19-19.33 4.68l-14.99-1.7V-2.37z" fill="#fff" stroke="#ccd3de" stroke-miterlimit="10" stroke-width="1"/></g></svg>