<svg id="lin1" xmlns="http://www.w3.org/2000/svg" xmlns:xlink="http://www.w3.org/1999/xlink" width="55" height="54" viewBox="0 0 55 54">
  <defs>
    <linearGradient id="linear-gradient" x1="0.5" y1="0.016" x2="0.5" y2="1.277" gradientUnits="objectBoundingBox">
      <stop offset="0" stop-color="#00ffd5"/>
      <stop offset="1" stop-color="#01cb2d"/>
    </linearGradient>
  </defs>
  <g id="Group_475" data-name="Group 475">
    <g id="Group_474" data-name="Group 474">
      <path id="Path_782" data-name="Path 782" d="M766.409,1415.9c-13.04,0-23.649-10.832-23.649-24.147a24.132,24.132,0,0,1,20.008-23.84,23.126,23.126,0,0,1,6.182-.852c13.041,0,23.649,10.831,23.649,24.147a24.129,24.129,0,0,1-20.006,23.839A23.016,23.016,0,0,1,766.409,1415.9Z" transform="translate(-740.18 -1364.484)" fill="#a42d6b"/>
      <path id="Path_783" data-name="Path 783" d="M768.954,1369.627a21.606,21.606,0,0,1,3.123,42.914,20.685,20.685,0,0,1-5.67.8,21.606,21.606,0,0,1-3.122-42.914,20.743,20.743,0,0,1,5.669-.8m0-5.143a25.665,25.665,0,0,0-6.724.906,26.73,26.73,0,0,0-22.05,26.367c0,14.738,11.765,26.727,26.226,26.727a25.656,25.656,0,0,0,6.726-.9,26.731,26.731,0,0,0,22.048-26.367c0-14.738-11.765-26.728-26.226-26.728Z" transform="translate(-740.18 -1364.484)" fill="#fff"/>
      <path id="Path_784" data-name="Path 784" d="M768.952,1369.632a21.6,21.6,0,0,1,3.119,42.9,20.632,20.632,0,0,1-5.663.8,21.6,21.6,0,0,1-3.118-42.9,20.694,20.694,0,0,1,5.662-.8m0-3.6a24.118,24.118,0,0,0-6.4.874,25.17,25.17,0,0,0-20.825,24.851c0,13.884,11.071,25.179,24.68,25.179a24.136,24.136,0,0,0,6.4-.873,25.17,25.17,0,0,0,20.824-24.851c0-13.884-11.071-25.18-24.68-25.18Z" transform="translate(-740.18 -1364.484)"/>
    </g>
  </g>
  <path id="Path_785" data-name="Path 785" d="M769.606,1373.086a18.208,18.208,0,1,0,18.22,18.219A18.144,18.144,0,0,0,769.606,1373.086Z" transform="translate(-740.804 -1364.578)"/>
  <circle id="Ellipse_13" data-name="Ellipse 13" cx="17.359" cy="17.359" r="17.359" transform="translate(11.369 9.37)" fill="url(#linear-gradient)"/>
  <path id="Path_786" data-name="Path 786" d="M774.149,1376.744c2.2,0,6.809,2.749,8.023,5.71" transform="translate(-741.058 -1364.531)" fill="none" stroke="#fff" stroke-width="1.72"/>
  <g id="Group_476" data-name="Group 476" transform="translate(19.046 15.474)">
    <path id="Path_787" data-name="Path 787" d="M763.991,1380.357a2.357,2.357,0,0,1,.952.864,2.326,2.326,0,0,1,.345,1.256,2.389,2.389,0,0,1-.338,1.269,2.307,2.307,0,0,1-.952.864,3.259,3.259,0,0,1-2.775,0,2.314,2.314,0,0,1-1.3-2.133,2.334,2.334,0,0,1,.344-1.256,2.359,2.359,0,0,1,.953-.864,3.235,3.235,0,0,1,2.768,0Zm-3.781,20.486v-14.612h4.861v14.612Z" transform="translate(-759.926 -1380.046)"/>
    <path id="Path_788" data-name="Path 788" d="M779.8,1387.311q1.2,1.352,1.2,4.457v9.075h-4.862v-9.088a2.618,2.618,0,0,0-.222-1.2,1.123,1.123,0,0,0-.635-.561,3.438,3.438,0,0,0-1.087-.142,1.994,1.994,0,0,0-1.756.811v10.182H767.6v-14.612h4.538l.162,1.689a4.908,4.908,0,0,1,1.8-1.459,5.413,5.413,0,0,1,2.35-.5A4.267,4.267,0,0,1,779.8,1387.311Z" transform="translate(-759.926 -1380.046)"/>
  </g>
</svg>
