<svg xmlns="http://www.w3.org/2000/svg" xmlns:xlink="http://www.w3.org/1999/xlink" width="1878.333" height="105.488" viewBox="0 0 1878.333 105.488">
  <defs>
    <clipPath id="clip-path">
      <path id="Path_14362" data-name="Path 14362" d="M5573.743,949.923c-15.955-.024-1834.637.07-1876.465,0,22.642-65.013,7.42-102.941,7.42-102.941s152.744,7.775,183.789,0,479.827,4.737,496.761,6.731,28.23,26.979,28.23,26.979,16.934-19.866,25.4-22.71,81.857-6.263,90.319-6c8.2.257,26.944,25.28,28.165,26.924-4.231-6,7.1-19.173,10.709-24.8a5.775,5.775,0,0,1,2.441-2.392,13.119,13.119,0,0,1,4.316-.927c7.3-.608,20.392.413,27.764,1.2,45.155,4.822,970.148-5,970.148-5,0,23.372-.839-.179-2.908,23.169-3.523.226-6.776,1.434-8.425,3.117a50.886,50.886,0,0,1,13.253,2.041l-11.576,6.544c-1.3.74-2.712,1.753-1.92,2.68.9,1.044,3.644.974,5.583,1.449,3.5.841,4.1,3.327,4.2,5.391.345,7.44-1.1,14.5-.894,21.775.074,2.345-1.529,5.056-5.648,5.835-3.56.678-8.519-.148-10.56,1.566q10.009.993,20.02,1.979a3.3,3.3,0,0,1,1.332.312.8.8,0,0,1,.354.763C5575.9,935.359,5574.675,938.424,5573.743,949.923Z" fill="#eecc8d"/>
    </clipPath>
  </defs>
  <g id="Group_7394" data-name="Group 7394" transform="translate(0 0)">
    <g id="map" transform="translate(-3697.278 -844.462)">
      <g id="Group_5774" data-name="Group 5774">
        <g id="Group_5773" data-name="Group 5773">
          <path id="Path_14339" data-name="Path 14339" d="M5573.743,949.923c-15.955-.024-1834.637.07-1876.465,0,22.642-65.013,7.42-102.941,7.42-102.941s152.744,7.775,183.789,0,479.827,4.737,496.761,6.731,28.23,26.979,28.23,26.979,16.934-19.866,25.4-22.71,81.857-6.263,90.319-6c8.2.257,26.944,25.28,28.165,26.924-4.231-6,7.1-19.173,10.709-24.8a5.775,5.775,0,0,1,2.441-2.392,13.119,13.119,0,0,1,4.316-.927c7.3-.608,20.392.413,27.764,1.2,45.155,4.822,970.148-5,970.148-5,0,23.372-.839-.179-2.908,23.169-3.523.226-6.776,1.434-8.425,3.117a50.886,50.886,0,0,1,13.253,2.041l-11.576,6.544c-1.3.74-2.712,1.753-1.92,2.68.9,1.044,3.644.974,5.583,1.449,3.5.841,4.1,3.327,4.2,5.391.345,7.44-1.1,14.5-.894,21.775.074,2.345-1.529,5.056-5.648,5.835-3.56.678-8.519-.148-10.56,1.566q10.009.993,20.02,1.979a3.3,3.3,0,0,1,1.332.312.8.8,0,0,1,.354.763C5575.9,935.359,5574.675,938.424,5573.743,949.923Z" fill="#eecc8d"/>
          <g id="Group_5772" data-name="Group 5772" clip-path="url(#clip-path)">
            <g id="Group_5771" data-name="Group 5771" opacity="0.35" style="mix-blend-mode: multiply;isolation: isolate">
              <g id="Group_5769" data-name="Group 5769">
                <g id="Group_5747" data-name="Group 5747">
                  <path id="Path_14340" data-name="Path 14340" d="M5573.941,771.55v.218c30.894,0,58.2,17.559,66.413,42.7a47.533,47.533,0,0,1-4.151,39.023c-8.405,14.527-23.99,25.109-42.757,29.032a79.162,79.162,0,0,1-16.165,1.667c-30.893,0-58.2-17.559-66.412-42.7a47.539,47.539,0,0,1,4.15-39.024c8.4-14.526,23.99-25.108,42.757-29.031a79.162,79.162,0,0,1,16.165-1.667v-.218m0,0a79.327,79.327,0,0,0-16.209,1.672c-35.87,7.5-56.944,38.094-47.069,68.336,8.385,25.682,36.394,42.85,66.618,42.85a79.18,79.18,0,0,0,16.209-1.672c35.87-7.5,56.944-38.093,47.07-68.335-8.386-25.682-36.394-42.851-66.619-42.851Z" fill="#b3b3b3"/>
                </g>
                <g id="Group_5748" data-name="Group 5748">
                  <path id="Path_14341" data-name="Path 14341" d="M5543.01,736.609v.215a146.88,146.88,0,0,1,67.919,16.391c21.042,11.018,37.73,26.827,48.259,45.72,13.269,23.8,15.583,50.5,6.518,75.16a97.53,97.53,0,0,1-24.319,36.731,120.393,120.393,0,0,1-41.725,25.809,141.943,141.943,0,0,1-49.893,8.9c-49.277,0-94.894-24.453-116.214-62.3a90,90,0,0,1-11.687-37.934,86.987,86.987,0,0,1,5.316-36.582c10.457-28.314,35.091-51.934,65.9-63.183A145.081,145.081,0,0,1,5543,736.824l.007-.215m-.007,0a145.917,145.917,0,0,0-50,8.731c-57.215,20.894-90.878,82.558-59.639,138.006,22.008,39.066,68.437,62.406,116.4,62.406a142.708,142.708,0,0,0,49.968-8.916c62.41-23.338,89.112-85.126,59.639-138.006-21.842-39.188-68.3-62.223-116.373-62.221Z" fill="#b4b4b4"/>
                </g>
                <g id="Group_5749" data-name="Group 5749">
                  <path id="Path_14342" data-name="Path 14342" d="M5512.2,700.677c69.037,0,132.531,31.712,165.7,82.761,22.431,34.52,28.63,74.164,17.456,111.63a140.224,140.224,0,0,1-31.75,55.106c-15.568,16.919-35.021,30.589-57.821,40.631a206.319,206.319,0,0,1-83.711,17.283,216.548,216.548,0,0,1-94.923-21.747c-29.768-14.607-54.324-35.79-71.014-61.259-11.488-17.53-18.668-36.251-21.342-55.641a127.759,127.759,0,0,1,4.377-54.52c12.676-42.249,45.977-78.587,89.08-97.205a213.352,213.352,0,0,1,83.943-17.039h0m-.015-.212a212.172,212.172,0,0,0-84.016,17.056c-78.639,33.967-125.008,127.1-72.208,207.677,34.569,52.754,99.653,83.1,166.114,83.1a208,208,0,0,0,83.8-17.3c88.951-39.178,121.279-132.158,72.208-207.677-34.359-52.878-99.365-82.862-165.894-82.857Z" fill="#b5b5b5"/>
                </g>
                <g id="Group_5750" data-name="Group 5750">
                  <path id="Path_14343" data-name="Path 14343" d="M5481.286,664.189c42.533,0,84.748,9.307,122.083,26.913,38.494,18.154,70.72,44.729,93.194,76.854,31.645,45.233,41.763,97.855,28.491,148.171-7.061,26.772-20.264,51.488-39.243,73.462-19.649,22.75-44.528,41.391-73.945,55.4-35.685,17-76.344,25.986-117.578,25.986a287.363,287.363,0,0,1-122.155-27.084c-38.523-18.22-70.84-44.827-93.457-76.945-16.163-22.952-26.6-47.628-31.022-73.342a169.054,169.054,0,0,1,3.429-72.477c7.321-27.595,21.57-54.269,41.206-77.138a214.459,214.459,0,0,1,71.083-54.08c35.876-16.828,76.649-25.723,117.911-25.724h0m0-.209c-40.246,0-80.832,8.309-118,25.743-100.1,46.956-159.182,171.689-84.778,277.348,46.863,66.548,130.647,104.117,215.783,104.117,40.166,0,80.647-8.369,117.669-26.005,115.49-55.018,153.447-179.19,84.777-277.348-46.631-66.656-130.288-103.856-215.451-103.855Z" fill="#b7b7b7"/>
                </g>
                <g id="Group_5751" data-name="Group 5751">
                  <path id="Path_14344" data-name="Path 14344" d="M5450.356,627.353v.208c51.9,0,103.531,11.169,149.322,32.3,47.233,21.8,87.183,53.823,115.53,92.616,40.881,55.946,54.934,121.555,39.572,184.741-8.1,33.318-23.834,64.208-46.763,91.81-23.739,28.578-54.046,52.183-90.081,70.16-45.664,22.781-98.041,34.822-151.47,34.822-51.829,0-103.5-11.228-149.439-32.469-47.281-21.864-87.333-53.924-115.824-92.713-20.84-28.372-34.537-59-40.712-91.039a210.556,210.556,0,0,1,2.474-90.439c8.423-34.458,25.455-67.931,49.254-96.8a263.838,263.838,0,0,1,86.256-68.433c45.879-22.605,98.392-34.556,151.862-34.558l.019-.208m-.019,0c-52.022,0-104.445,11.172-151.954,34.58-121.593,59.911-193.372,216.289-97.347,347.019,59.046,80.386,161.555,125.266,265.43,125.266,51.933,0,104.222-11.226,151.562-34.844,142.032-70.856,185.616-226.222,97.348-347.018-58.815-80.489-161.156-125.007-265.039-125Z" fill="#b8b8b8"/>
                </g>
                <g id="Group_5752" data-name="Group 5752">
                  <path id="Path_14345" data-name="Path 14345" d="M5419.367,590.86c61.274,0,122.348,13.044,176.618,37.72a378.11,378.11,0,0,1,76.051,45.818A335,335,0,0,1,5733.845,737c50.126,66.656,68.123,145.255,50.675,221.32-9.145,39.866-27.414,76.928-54.3,110.158-27.832,34.4-63.572,62.969-106.226,84.906-55.622,28.606-119.723,43.727-185.373,43.727-61.22,0-122.339-13.1-176.75-37.881-56.042-25.524-103.814-63.05-138.154-108.522-25.517-33.789-42.476-70.372-50.405-108.731a252.146,252.146,0,0,1,1.515-108.4c9.524-41.323,29.338-81.6,57.3-116.467a313.413,313.413,0,0,1,101.435-82.782c55.857-28.437,120.1-43.469,185.8-43.47h0m0-.2c-63.821,0-128.068,14.054-185.889,43.491C5090.38,707,5005.9,895.044,5123.558,1050.836c71.174,94.248,192.422,146.484,315.067,146.484,63.721,0,127.829-14.107,185.467-43.75,168.571-86.7,217.783-273.255,109.916-416.689C5663.063,642.542,5542,590.654,5419.363,590.656Z" fill="#b9b9b9"/>
                </g>
                <g id="Group_5753" data-name="Group 5753">
                  <path id="Path_14346" data-name="Path 14346" d="M5388.468,554.093c70.662,0,141.176,14.922,203.918,43.153a441.675,441.675,0,0,1,88.131,52.479,392.13,392.13,0,0,1,72.025,71.78c59.379,77.366,81.323,168.959,61.791,257.909-10.192,46.413-31,89.648-61.836,128.5-31.928,40.227-73.1,73.752-122.375,99.647-65.632,34.491-141.538,52.722-219.513,52.722-70.647,0-141.2-14.97-204.042-43.293a442.767,442.767,0,0,1-88.2-52.58,392.876,392.876,0,0,1-72.065-71.839c-30.218-39.1-50.467-81.543-60.185-126.152a293.3,293.3,0,0,1,.442-126.209c10.6-48.26,33.211-95.424,65.389-136.392a363.354,363.354,0,0,1,116.774-97.3c65.8-34.291,141.778-52.419,219.736-52.424h.011m-.031-.2c-75.612,0-151.712,16.959-219.81,52.446-164.6,85.781-262.071,305.744-122.486,486.36,83.065,108.225,223.027,167.79,364.468,167.79,75.6,0,151.644-17.029,219.607-52.745,195.112-102.536,249.951-320.286,122.487-486.36-83.057-108.215-222.845-167.5-364.266-167.491Z" fill="#bababa"/>
                </g>
                <g id="Group_5754" data-name="Group 5754">
                  <path id="Path_14347" data-name="Path 14347" d="M5357.447,517.326c80.062,0,160.029,16.8,231.254,48.593a505.271,505.271,0,0,1,100.224,59.149,449.274,449.274,0,0,1,82.241,80.966c68.634,88.073,94.53,192.661,72.916,294.5a349.482,349.482,0,0,1-25.751,76.254,372.665,372.665,0,0,1-43.631,70.595c-36.025,46.049-82.632,84.533-138.527,114.384-75.569,40.358-163.2,61.691-253.419,61.691-80.046,0-160.054-16.85-231.374-48.729a506.344,506.344,0,0,1-100.294-59.246,449.961,449.961,0,0,1-82.277-81.019c-34.894-44.521-58.4-92.92-69.877-143.853a335.026,335.026,0,0,1-.516-144.181c11.7-55.122,37.1-109.085,73.432-156.054,35.756-46.219,81.384-84.824,131.952-111.642,75.743-40.17,163.446-61.4,253.639-61.406h.008m-.019-.2c-87.42,0-175.351,19.867-253.721,61.429-186.117,98.705-296.26,350.352-135.056,556.03,95.155,122.1,253.87,189.071,414.1,189.071,87.411,0,175.278-19.932,253.514-61.715,221.651-118.375,282.118-367.318,135.055-556.03-95.146-122.091-253.685-188.79-413.9-188.785Z" fill="#bbb"/>
                </g>
                <g id="Group_5755" data-name="Group 5755">
                  <path id="Path_14348" data-name="Path 14348" d="M5326.427,480.541c89.464,0,178.885,18.688,258.6,54.043a568.983,568.983,0,0,1,112.314,65.825,506.36,506.36,0,0,1,92.449,90.154c39.464,50.047,66.66,104.753,80.831,162.6a379.878,379.878,0,0,1,3.216,168.492,392.258,392.258,0,0,1-28.422,85.728,417.991,417.991,0,0,1-48.508,79.466c-40.123,51.871-92.165,95.314-154.68,129.12-85.5,46.237-184.857,70.676-287.326,70.676-89.45,0-178.913-18.731-258.715-54.17a569.942,569.942,0,0,1-112.383-65.916,507.053,507.053,0,0,1-92.486-90.206c-39.57-49.941-66.34-104.3-79.568-161.554-12.251-53.033-12.748-107.59-1.474-162.154,12.806-61.984,40.979-122.747,81.474-175.717,39.806-52.069,90.684-95.632,147.132-125.979,85.671-46.058,185.1-70.4,287.543-70.407h.007m-.016-.2c-99.229,0-199,22.782-287.628,70.43-207.634,111.625-330.447,394.96-147.624,625.7,107.235,135.99,284.7,210.367,463.739,210.367,99.217,0,198.921-22.844,287.418-70.7,248.192-134.215,314.286-414.351,147.625-625.7-107.225-135.977-284.517-210.1-463.53-210.1Z" fill="#bdbdbd"/>
                </g>
                <g id="Group_5756" data-name="Group 5756">
                  <path id="Path_14349" data-name="Path 14349" d="M5295.416,443.745c98.868,0,197.744,20.573,285.938,59.5a632.492,632.492,0,0,1,124.4,72.5A563.552,563.552,0,0,1,5808.4,675.093c44.153,55.467,74.683,116.167,90.743,180.412a421.937,421.937,0,0,1,4.439,187.273,435.077,435.077,0,0,1-31.095,95.2,463.3,463.3,0,0,1-53.386,88.336c-44.223,57.694-101.7,106.094-170.836,143.855-95.429,52.122-206.509,79.672-321.231,79.672-98.862,0-197.781-20.614-286.063-59.614a633.51,633.51,0,0,1-124.469-72.589,564.241,564.241,0,0,1-102.691-99.4c-44.246-55.363-74.278-115.673-89.26-179.256-13.871-58.863-14.69-119.467-2.434-180.128,13.909-68.846,44.864-136.408,89.517-195.379,43.857-57.921,99.984-106.441,162.313-140.317,95.589-51.952,206.739-79.415,321.453-79.419h.011m-.029-.2c-111.035,0-222.652,25.7-321.529,79.444-229.153,124.544-364.635,439.568-160.194,695.372,119.311,149.885,315.518,231.674,513.375,231.674,111.022,0,222.576-25.761,321.324-79.7,274.732-150.054,346.454-461.383,160.2-695.372-119.3-149.871-315.344-231.429-513.171-231.422Z" fill="#bebebe"/>
                </g>
                <g id="Group_5757" data-name="Group 5757">
                  <path id="Path_14350" data-name="Path 14350" d="M5264.194,406.823c108.262,0,216.637,22.5,313.408,65.066a697.274,697.274,0,0,1,136.56,79.266A621.31,621.31,0,0,1,5827.05,659.74c48.842,60.887,82.708,127.581,100.657,198.227a471.168,471.168,0,0,1,14.387,103.455,465.437,465.437,0,0,1-8.724,102.6A477.951,477.951,0,0,1,5899.6,1168.7a508.52,508.52,0,0,1-58.264,97.205,558.178,558.178,0,0,1-82,86.383,630.81,630.81,0,0,1-104.989,72.206c-105.354,58.012-228.159,88.676-355.138,88.676-108.269,0-216.645-22.5-313.412-65.062a697.181,697.181,0,0,1-136.557-79.266,621.329,621.329,0,0,1-112.89-108.589c-49-60.874-82.322-127.258-99.055-197.309-15.484-64.826-16.581-131.6-3.259-198.473a511.389,511.389,0,0,1,36.731-112.8,552.8,552.8,0,0,1,60.866-101.94c47.907-63.673,109.259-117,177.423-154.227,105.354-58.012,228.158-88.676,355.138-88.676h0m0-.193c-122.838,0-246.225,28.677-355.231,88.7-250.916,137.021-398.823,484.176-172.763,765.043,131.375,163.776,346.342,252.989,563.009,252.989,122.838,0,246.226-28.677,355.231-88.7,301.272-165.894,378.621-508.415,172.764-765.043-131.375-163.776-346.343-252.99-563.01-252.989Z" fill="#bfbfbf"/>
                </g>
                <g id="Group_5758" data-name="Group 5758">
                  <path id="Path_14351" data-name="Path 14351" d="M5233.193,370.02c117.675,0,235.5,24.384,340.75,70.515a760.719,760.719,0,0,1,148.638,85.944A678.56,678.56,0,0,1,5845.665,644.26C5899.2,710.568,5936.4,783.255,5956.236,860.3A514.059,514.059,0,0,1,5972.3,973.158a507.581,507.581,0,0,1-9.174,111.979,520.8,520.8,0,0,1-36.444,114.153,553.857,553.857,0,0,1-63.143,106.076,607.738,607.738,0,0,1-89.034,94.349,686.709,686.709,0,0,1-114.117,78.973c-115.276,63.907-249.805,97.686-389.045,97.686-117.683,0-235.517-24.381-340.764-70.509a760.8,760.8,0,0,1-148.642-85.944,678.538,678.538,0,0,1-123.09-117.786c-53.666-66.288-90.252-138.619-108.741-214.983-17.1-70.644-18.527-143.458-4.231-216.418a557.674,557.674,0,0,1,39.66-123.115A602.729,602.729,0,0,1,4651.512,636.3c51.958-69.531,118.562-127.831,192.612-168.6,115.269-63.9,249.8-97.683,389.059-97.687h.01m-.024-.19c-134.645,0-269.89,31.6-389.138,97.711-272.42,149.973-433.01,528.785-185.333,834.713,143.442,177.679,377.151,274.311,612.644,274.311,134.645,0,269.889-31.6,389.137-97.711,327.813-181.733,410.79-555.447,185.334-834.713-143.442-177.678-377.151-274.317-612.644-274.311Z" fill="silver"/>
                </g>
                <g id="Group_5759" data-name="Group 5759">
                  <path id="Path_14352" data-name="Path 14352" d="M5202.2,333.214a937.374,937.374,0,0,1,188.849,19.251,904.286,904.286,0,0,1,179.241,56.716A824.377,824.377,0,0,1,5731,501.806a735.7,735.7,0,0,1,133.276,126.975c58.221,71.728,98.759,150.408,120.488,233.857A557.031,557.031,0,0,1,6002.5,984.9a549.56,549.56,0,0,1-9.624,121.36,563.656,563.656,0,0,1-39.119,123.628,599.24,599.24,0,0,1-68.023,114.946,657.234,657.234,0,0,1-96.064,102.315,742.686,742.686,0,0,1-123.244,85.738c-125.2,69.8-271.452,106.7-422.952,106.7a937.67,937.67,0,0,1-188.868-19.247,904.276,904.276,0,0,1-179.253-56.711A824.353,824.353,0,0,1,4714.632,1471a735.735,735.735,0,0,1-133.288-126.985c-58.336-71.7-98.181-149.978-118.427-232.654-18.723-76.463-20.474-155.314-5.2-234.363A604.039,604.039,0,0,1,4500.3,743.573a652.877,652.877,0,0,1,71.089-120.691c56.01-75.389,127.866-138.657,207.8-182.967,125.183-69.8,271.437-106.693,422.985-106.7h.02m-.052-.188c-146.45.008-293.557,34.529-423.044,106.725-293.925,162.926-467.2,573.393-197.9,904.385,155.507,191.584,407.955,295.636,662.279,295.636,146.45,0,293.557-34.529,423.043-106.725,354.353-197.572,442.957-602.479,197.9-904.384-155.507-191.584-407.955-295.651-662.279-295.637Z" fill="#c1c1c1"/>
                </g>
                <g id="Group_5760" data-name="Group 5760">
                  <path id="Path_14353" data-name="Path 14353" d="M5171.137,296.4a1009.3,1009.3,0,0,1,202.857,20.63,973.757,973.757,0,0,1,192.607,60.79,888.148,888.148,0,0,1,172.813,99.3A792.85,792.85,0,0,1,5882.891,613.3c62.91,77.147,106.785,161.821,130.4,251.671a599.951,599.951,0,0,1,19.413,131.66,591.691,591.691,0,0,1-10.072,130.741,606.523,606.523,0,0,1-41.8,133.1,644.451,644.451,0,0,1-72.9,123.815,706.765,706.765,0,0,1-103.095,110.282,798.652,798.652,0,0,1-132.372,92.5c-135.117,75.7-293.1,115.72-456.86,115.72a1009.473,1009.473,0,0,1-202.865-20.627,973.769,973.769,0,0,1-192.609-60.788,887.99,887.99,0,0,1-172.814-99.3A792.867,792.867,0,0,1,4503.842,1385.9c-63.007-77.115-106.11-161.337-128.112-250.326-20.344-82.281-22.422-167.169-6.177-252.3a650.365,650.365,0,0,1,45.517-143.741,702.8,702.8,0,0,1,76.2-130.066c60.062-81.247,137.17-149.486,222.991-197.338,135.113-75.7,293.092-115.718,456.868-115.721h.008m-.016-.185c-158.278,0-317.208,37.447-456.951,115.744-315.429,175.878-501.386,618-210.471,974.056,167.556,205.474,438.779,316.966,711.913,316.966,158.278,0,317.207-37.448,456.951-115.745,380.893-213.411,475.124-649.511,210.471-974.054-167.556-205.475-438.779-316.972-711.913-316.967Z" fill="#c2c2c2"/>
                </g>
                <g id="Group_5761" data-name="Group 5761">
                  <path id="Path_14354" data-name="Path 14354" d="M5140.145,259.59A1081.2,1081.2,0,0,1,5357,281.6a1043.047,1043.047,0,0,1,205.949,64.864,951.619,951.619,0,0,1,184.884,105.987A850.088,850.088,0,0,1,5901.5,597.822c67.6,82.568,114.813,173.236,140.324,269.486a642.935,642.935,0,0,1,21.089,141.062,633.685,633.685,0,0,1-10.522,140.123,649.39,649.39,0,0,1-44.471,142.578,689.784,689.784,0,0,1-77.783,132.685A756.357,756.357,0,0,1,5820.013,1542a854.565,854.565,0,0,1-141.5,99.269c-145.035,81.607-314.74,124.743-490.767,124.743a1081.4,1081.4,0,0,1-216.871-22.005,1043.134,1043.134,0,0,1-205.962-64.861,951.6,951.6,0,0,1-184.9-105.986,850.109,850.109,0,0,1-153.677-145.381c-67.677-82.528-114.039-172.7-137.8-268-21.964-88.1-24.369-179.024-7.149-270.248a696.569,696.569,0,0,1,48.444-154.054,752.82,752.82,0,0,1,81.311-139.442c64.113-87.106,146.474-160.314,238.181-211.71,145.022-81.6,314.726-124.734,490.767-124.742h.049m-.049-.183c-170.083.007-340.879,40.378-490.857,124.766C4312.305,573,4113.665,1046.783,4426.2,1427.9c179.617,219.384,469.579,338.3,761.549,338.3,170.082,0,340.878-40.378,490.856-124.766,407.433-229.251,507.292-696.543,223.041-1043.726-179.617-219.384-469.579-338.312-761.548-338.3Z" fill="#c4c4c4"/>
                </g>
                <g id="Group_5762" data-name="Group 5762">
                  <path id="Path_14355" data-name="Path 14355" d="M5109.107,222.774a1152.995,1152.995,0,0,1,230.861,23.386A1112.458,1112.458,0,0,1,5559.277,315.1,1015.226,1015.226,0,0,1,5756.252,427.77a907.2,907.2,0,0,1,163.862,154.573,808.176,808.176,0,0,1,92.864,140,727.109,727.109,0,0,1,57.377,147.3,685.837,685.837,0,0,1,22.766,150.464,675.878,675.878,0,0,1-10.971,149.5A692.309,692.309,0,0,1,6035,1321.664a735.117,735.117,0,0,1-82.663,141.555,805.989,805.989,0,0,1-117.157,126.215,910.58,910.58,0,0,1-150.629,106.033c-154.952,87.511-336.382,133.767-524.675,133.767a1153.239,1153.239,0,0,1-230.872-23.383,1112.664,1112.664,0,0,1-219.319-68.938,1015.284,1015.284,0,0,1-196.982-112.669,907.208,907.208,0,0,1-163.87-154.579c-72.347-87.941-121.967-184.053-147.483-285.667-23.583-93.917-26.315-190.878-8.122-288.19A742.85,742.85,0,0,1,4244.6,731.441a802.781,802.781,0,0,1,86.422-148.818c68.164-92.965,155.778-171.142,253.371-226.082,154.942-87.5,336.372-133.761,524.7-133.767h.015m-.036-.181c-181.9.006-364.54,43.3-524.764,133.791-358.438,201.782-569.762,707.218-235.61,1113.4,191.667,233.283,500.391,359.635,811.182,359.635,181.9,0,364.54-43.3,524.764-133.791,433.973-245.09,539.46-743.575,235.61-1113.4-191.667-233.283-500.391-359.645-811.182-359.635Z" fill="#c5c5c5"/>
                </g>
                <g id="Group_5763" data-name="Group 5763">
                  <path id="Path_14356" data-name="Path 14356" d="M5078.059,185.956a1224.912,1224.912,0,0,1,244.865,24.766A1182.158,1182.158,0,0,1,5555.6,283.74a1079.009,1079.009,0,0,1,209.07,119.354c65.561,48.08,124.123,103.18,174.058,163.769a859.386,859.386,0,0,1,98.933,148.657,772.835,772.835,0,0,1,61.226,156.458,728.719,728.719,0,0,1,24.442,159.867,717.973,717.973,0,0,1-11.419,158.886,735.239,735.239,0,0,1-49.824,161.528,780.528,780.528,0,0,1-87.544,150.424,855.512,855.512,0,0,1-124.189,134.181,966.6,966.6,0,0,1-159.756,112.8c-164.87,93.417-358.025,142.794-558.582,142.794a1225.02,1225.02,0,0,1-244.874-24.764,1182.007,1182.007,0,0,1-232.675-73.015,1078.9,1078.9,0,0,1-209.07-119.353c-65.561-48.08-124.124-103.182-174.062-163.775-77.016-93.355-129.9-195.412-157.168-303.338-25.2-99.735-28.263-202.733-9.1-306.133a789.19,789.19,0,0,1,54.3-174.68A852.8,852.8,0,0,1,4250.9,569.2c72.215-98.822,165.082-181.97,268.561-240.454,164.866-93.414,358.02-142.791,558.582-142.793h.014m-.014-.178c-193.729,0-388.2,46.226-558.67,142.817-379.943,214.734-603.95,751.826-248.18,1183.067,203.714,247.18,531.208,380.972,860.818,380.972,193.728,0,388.2-46.226,558.67-142.817,460.513-260.93,571.627-790.608,248.18-1183.068-203.715-247.179-531.208-380.975-860.818-380.971Z" fill="#c6c6c6"/>
                </g>
                <g id="Group_5764" data-name="Group 5764">
                  <path id="Path_14357" data-name="Path 14357" d="M5047.037,149.136A1296.761,1296.761,0,0,1,5305.9,175.281a1251.513,1251.513,0,0,1,246.029,77.1c79.42,34.351,153.827,76.756,221.154,126.037,69.368,50.775,131.358,108.971,184.248,172.969a910.212,910.212,0,0,1,105,157.312,818.6,818.6,0,0,1,65.076,165.617,771.723,771.723,0,0,1,26.119,169.27,760.093,760.093,0,0,1-11.868,168.268,778.124,778.124,0,0,1-52.5,171,825.93,825.93,0,0,1-92.426,159.294,905.048,905.048,0,0,1-131.219,142.147,1022.518,1022.518,0,0,1-168.886,119.563c-174.786,99.323-379.666,151.822-592.489,151.822a1296.9,1296.9,0,0,1-258.879-26.143,1251.434,1251.434,0,0,1-246.03-77.092c-79.421-34.35-153.828-76.756-221.155-126.037-69.369-50.775-131.36-108.973-184.254-172.975-81.686-98.768-137.823-206.77-166.853-321.008-26.822-105.552-30.209-214.587-10.068-324.074a835.407,835.407,0,0,1,57.227-184.994,902.865,902.865,0,0,1,96.644-167.571c76.267-104.682,174.386-192.8,283.751-254.827,174.782-99.32,379.662-151.819,592.5-151.822h.008m-.017-.176c-205.546,0-411.865,49.155-592.578,151.846C4053,528.492,3816.3,1097.24,4193.693,1553.543c215.765,261.084,562.015,402.311,910.452,402.311,205.546,0,411.864-49.154,592.577-151.844,487.054-276.77,603.795-837.64,260.749-1252.739C5741.707,290.188,5395.457,148.956,5047.02,148.96Z" fill="#c7c7c7"/>
                </g>
                <g id="Group_5765" data-name="Group 5765">
                  <path id="Path_14358" data-name="Path 14358" d="M5016.067,112.315A1368.459,1368.459,0,0,1,5288.93,139.84a1320.682,1320.682,0,0,1,259.365,81.174c83.735,36.169,162.2,80.823,233.221,132.721,73.17,53.47,138.585,114.76,194.43,182.168A961.243,961.243,0,0,1,6087.019,701.87a864.254,864.254,0,0,1,68.925,174.777,814.593,814.593,0,0,1,27.8,178.673,802.16,802.16,0,0,1-12.317,177.65,820.905,820.905,0,0,1-55.176,180.478,871.212,871.212,0,0,1-97.307,168.163,954.582,954.582,0,0,1-138.251,150.114c-53.435,46.97-113.328,89.473-178.014,126.327-184.7,105.23-401.306,160.851-626.4,160.851a1368.877,1368.877,0,0,1-272.889-27.52A1320.754,1320.754,0,0,1,4544,1910.218c-83.739-36.169-162.211-80.822-233.234-132.721-73.174-53.471-138.6-114.766-194.447-182.183-86.356-104.18-145.751-218.127-176.537-338.676a788.6,788.6,0,0,1-24.159-172.655,816.28,816.28,0,0,1,13.117-169.36A881.682,881.682,0,0,1,3988.9,719.315a953,953,0,0,1,101.754-176.949c80.319-110.539,183.691-203.627,298.942-269.2,184.68-105.218,401.285-160.839,626.4-160.852h.073m-.074-.173c-217.345.012-435.547,52.092-626.483,160.874-422.952,240.639-672.326,841.043-273.319,1322.409,227.826,275,592.8,423.652,960.086,423.652,217.345,0,435.547-52.093,626.484-160.875,513.594-292.609,635.963-884.672,273.319-1322.409-227.826-275-592.8-423.671-960.087-423.651Z" fill="#c8c8c8"/>
                </g>
                <g id="Group_5766" data-name="Group 5766">
                  <path id="Path_14359" data-name="Path 14359" d="M4985.078,75.493a1440.346,1440.346,0,0,1,286.865,28.9,1389.987,1389.987,0,0,1,272.707,85.249c88.05,37.988,170.577,84.891,245.29,139.407,76.972,56.164,145.814,120.55,204.617,191.372A1012.253,1012.253,0,0,1,6111.7,695.045a910.139,910.139,0,0,1,72.774,183.937,857.619,857.619,0,0,1,29.473,188.075,844.283,844.283,0,0,1-12.765,187.032,863.974,863.974,0,0,1-57.854,189.953,916.553,916.553,0,0,1-102.187,177.033,1004.187,1004.187,0,0,1-145.284,158.08c-56.165,49.473-119.128,94.251-187.142,133.091-194.617,111.138-422.947,169.883-660.3,169.883a1440.766,1440.766,0,0,1-286.9-28.9,1390.174,1390.174,0,0,1-272.736-85.241c-88.061-37.986-170.6-84.888-245.316-139.405-76.98-56.165-145.831-120.557-204.639-191.386-91.025-109.594-153.679-229.486-186.222-356.346a830.143,830.143,0,0,1-25.625-181.7A859.222,859.222,0,0,1,3840.582,920.9a928.018,928.018,0,0,1,63.081-205.622,1002.957,1002.957,0,0,1,106.866-186.326c84.369-116.4,192.994-214.456,314.132-283.573,194.585-111.119,422.915-169.864,660.306-169.882h.111m-.111-.171c-229.152.018-459.224,55.028-660.39,169.905-444.457,253.591-706.514,885.651-285.889,1392.08,239.882,288.915,623.6,444.992,1009.722,444.992,229.151,0,459.224-55.027,660.39-169.905,540.134-308.448,668.131-931.7,285.888-1392.079C5754.806,231.4,5371.092,75.292,4984.967,75.322Z" fill="#cacaca"/>
                </g>
                <g id="Group_5767" data-name="Group 5767">
                  <path id="Path_14360" data-name="Path 14360" d="M4953.964,38.67a1512.283,1512.283,0,0,1,300.882,30.283,1459.724,1459.724,0,0,1,286.094,89.328c92.386,39.808,178.99,88.96,257.407,146.092,80.79,58.86,153.065,126.343,214.82,200.572,48.128,57.85,89.583,119.513,123.212,183.274A955.841,955.841,0,0,1,6213,881.317a900.589,900.589,0,0,1,31.149,197.478,886.352,886.352,0,0,1-13.213,196.414,906.837,906.837,0,0,1-60.531,199.429,961.958,961.958,0,0,1-107.068,185.9,1053.8,1053.8,0,0,1-152.315,166.045c-58.9,51.975-124.93,99.03-196.271,139.856-204.532,117.047-444.588,178.914-694.213,178.914a1512.572,1512.572,0,0,1-300.894-30.28,1459.781,1459.781,0,0,1-286.1-89.325c-92.386-39.806-178.991-88.958-257.408-146.09-80.791-58.862-153.069-126.347-214.827-200.58-95.694-115.006-161.607-240.842-195.907-374.015a871.634,871.634,0,0,1-27.091-190.745,902.223,902.223,0,0,1,14.1-187.151,974.307,974.307,0,0,1,66.009-215.936A1052.962,1052.962,0,0,1,3930.4,515.53c88.421-122.257,202.3-225.285,329.323-297.947,204.525-117.042,444.58-178.909,694.225-178.913h.012m-.024-.169c-241,0-482.865,57.942-694.3,178.936-465.962,266.543-740.7,930.26-298.458,1461.751,251.911,302.8,654.431,466.335,1059.356,466.335,241,0,482.866-57.941,694.3-178.936,566.675-324.288,700.3-978.736,298.458-1461.75C5761.385,202.039,5358.865,38.495,4953.94,38.5Z" fill="#cbcbcb"/>
                </g>
                <g id="Group_5768" data-name="Group 5768">
                  <path id="Path_14361" data-name="Path 14361" d="M4922.976,1.846A1584.17,1584.17,0,0,1,5237.86,33.507,1529,1529,0,0,1,5537.3,126.912c96.7,41.625,187.365,93.026,269.475,152.776,84.592,61.556,160.294,132.135,225.006,209.777,50.486,60.574,93.983,125.149,129.283,191.929a1001.565,1001.565,0,0,1,80.474,202.258,943.532,943.532,0,0,1,32.826,206.88,928.453,928.453,0,0,1-13.661,205.8,949.813,949.813,0,0,1-63.208,208.9A1007.3,1007.3,0,0,1,6085.542,1700a1103.5,1103.5,0,0,1-159.348,174.012c-61.625,54.477-130.731,103.807-205.4,146.62-214.446,122.955-466.227,187.946-728.121,187.946a1584.48,1584.48,0,0,1-314.9-31.658,1529.09,1529.09,0,0,1-299.452-93.4c-96.707-41.624-187.376-93.025-269.489-152.775-84.6-61.557-160.3-132.138-225.018-209.785-100.364-120.418-169.535-252.2-205.592-391.684a913.147,913.147,0,0,1-28.557-199.79,944.994,944.994,0,0,1,14.594-196.047,1020.611,1020.611,0,0,1,68.936-226.25,1103.04,1103.04,0,0,1,117.087-205.08C3942.751,374,4061.882,266,4194.793,189.792,4409.221,66.847,4661,1.856,4922.953,1.846h.023m-.062-.166c-252.807.009-506.545,60.878-728.2,187.968-487.466,279.5-774.889,974.868-311.027,1531.422,263.965,316.712,685.223,487.678,1108.99,487.678,252.806,0,506.545-60.877,728.2-187.968C6314.091,1680.652,6453.343,995.011,6031.9,489.358,5767.938,172.646,5346.68,1.663,4922.914,1.68Z" fill="#ccc"/>
                </g>
              </g>
              <g id="Group_5770" data-name="Group 5770">
                <line id="Line_298" data-name="Line 298" x1="2077.073" transform="translate(3674.16 123.215)" fill="none" stroke="#666" stroke-miterlimit="10" stroke-width="0.357"/>
                <line id="Line_299" data-name="Line 299" x1="2077.073" transform="translate(3674.16 195.186)" fill="none" stroke="#666" stroke-miterlimit="10" stroke-width="0.357"/>
                <line id="Line_300" data-name="Line 300" x1="2077.073" transform="translate(3674.16 267.156)" fill="none" stroke="#666" stroke-miterlimit="10" stroke-width="0.357"/>
                <line id="Line_301" data-name="Line 301" x1="2077.073" transform="translate(3674.16 339.127)" fill="none" stroke="#666" stroke-miterlimit="10" stroke-width="0.357"/>
                <line id="Line_302" data-name="Line 302" x1="2077.073" transform="translate(3674.16 411.098)" fill="none" stroke="#666" stroke-miterlimit="10" stroke-width="0.357"/>
                <line id="Line_303" data-name="Line 303" x1="2077.073" transform="translate(3674.16 483.069)" fill="none" stroke="#666" stroke-miterlimit="10" stroke-width="0.357"/>
                <line id="Line_304" data-name="Line 304" x1="2077.073" transform="translate(3674.16 555.039)" fill="none" stroke="#666" stroke-miterlimit="10" stroke-width="0.357"/>
                <line id="Line_305" data-name="Line 305" x1="2077.073" transform="translate(3674.16 627.01)" fill="none" stroke="#666" stroke-miterlimit="10" stroke-width="0.357"/>
                <line id="Line_306" data-name="Line 306" x1="2077.073" transform="translate(3674.16 698.981)" fill="none" stroke="#666" stroke-miterlimit="10" stroke-width="0.357"/>
                <line id="Line_307" data-name="Line 307" x1="2077.073" transform="translate(3674.16 770.952)" fill="none" stroke="#666" stroke-miterlimit="10" stroke-width="0.357"/>
                <line id="Line_308" data-name="Line 308" x1="2077.073" transform="translate(3674.16 842.922)" fill="none" stroke="#666" stroke-miterlimit="10" stroke-width="0.357"/>
                <line id="Line_309" data-name="Line 309" x1="2077.073" transform="translate(3674.16 914.893)" fill="none" stroke="#666" stroke-miterlimit="10" stroke-width="0.357"/>
                <line id="Line_310" data-name="Line 310" x1="2077.073" transform="translate(3674.16 986.864)" fill="none" stroke="#666" stroke-miterlimit="10" stroke-width="0.357"/>
                <line id="Line_311" data-name="Line 311" x1="2077.073" transform="translate(3674.16 1058.834)" fill="none" stroke="#666" stroke-miterlimit="10" stroke-width="0.357"/>
                <line id="Line_312" data-name="Line 312" x1="2077.073" transform="translate(3674.16 1130.805)" fill="none" stroke="#666" stroke-miterlimit="10" stroke-width="0.357"/>
                <line id="Line_313" data-name="Line 313" x1="2077.073" transform="translate(3674.16 1202.776)" fill="none" stroke="#666" stroke-miterlimit="10" stroke-width="0.357"/>
                <line id="Line_314" data-name="Line 314" x1="2077.073" transform="translate(3674.16 1274.747)" fill="none" stroke="#666" stroke-miterlimit="10" stroke-width="0.357"/>
                <line id="Line_315" data-name="Line 315" x1="2077.073" transform="translate(3674.16 1346.718)" fill="none" stroke="#666" stroke-miterlimit="10" stroke-width="0.357"/>
                <line id="Line_316" data-name="Line 316" x1="2077.073" transform="translate(3674.159 1418.688)" fill="none" stroke="#666" stroke-miterlimit="10" stroke-width="0.357"/>
                <line id="Line_317" data-name="Line 317" x1="2077.073" transform="translate(3674.159 1490.659)" fill="none" stroke="#666" stroke-miterlimit="10" stroke-width="0.357"/>
                <line id="Line_318" data-name="Line 318" x1="2077.073" transform="translate(3674.159 1562.63)" fill="none" stroke="#666" stroke-miterlimit="10" stroke-width="0.357"/>
                <line id="Line_319" data-name="Line 319" x1="2077.073" transform="translate(3674.159 1634.6)" fill="none" stroke="#666" stroke-miterlimit="10" stroke-width="0.357"/>
              </g>
            </g>
          </g>
        </g>
      </g>
    </g>
    <path id="Path_14399" data-name="Path 14399" d="M3848.171,904.667S3961.894,933.035,4052.838,920" transform="translate(-3750.339 -844.462)" fill="none" stroke="#666" stroke-miterlimit="10" stroke-width="2" stroke-dasharray="12 12"/>
    <path id="Path_14400" data-name="Path 14400" d="M4040.444,907s138.4-65.221,205.333-27.667" transform="translate(-3697.278 -844.462)" fill="none" stroke="#666" stroke-miterlimit="10" stroke-width="2" stroke-dasharray="12 12"/>
    <path id="Path_14401" data-name="Path 14401" d="M4285.444,898.5s165.5,43,212,27.5" transform="translate(-3690.611 -843.466)" fill="none" stroke="#666" stroke-miterlimit="10" stroke-width="2" stroke-dasharray="12 12"/>
    <path id="Path_14402" data-name="Path 14402" d="M4533.444,921c127.5-22,106.834-62.167,213.5-45.5" transform="translate(-3697.278 -844.462)" fill="none" stroke="#666" stroke-miterlimit="10" stroke-width="2" stroke-dasharray="12 12"/>
    <path id="Path_14403" data-name="Path 14403" d="M4786.444,888.667s70.574,44.4,204,27.333" transform="translate(-3697.278 -844.462)" fill="none" stroke="#666" stroke-miterlimit="10" stroke-width="2" stroke-dasharray="12 12"/>
    <path id="Path_14404" data-name="Path 14404" d="M5040.444,910.667s110-69.167,213-23.667" transform="translate(-3697.278 -844.462)" fill="none" stroke="#666" stroke-miterlimit="10" stroke-width="2" stroke-dasharray="12 12"/>
    <path id="Path_17329" data-name="Path 17329" d="M5020.777,906.667s114,36,209.334,0" transform="translate(-3432.278 -844.462)" fill="none" stroke="#666" stroke-miterlimit="10" stroke-width="2" stroke-dasharray="12 12"/>
  </g>
</svg>
