<svg xmlns="http://www.w3.org/2000/svg" width="1920" height="4761.683"><path id="Path_17469" data-name="Path 17469" d="M1920 4761.68V.327l-5.443-.275a82.946 82.946 0 00-16.479 1.16l-24.373 2.76a117.388 117.388 0 00-15.758 4.43l-40.921 15.48a86.794 86.794 0 00-13.807 6.909l-7.564 4.91a67.174 67.174 0 01-14.117 6.44l-19.45 5.891a74.994 74.994 0 00-14.3 6.3l-16.709 10.151a118.847 118.847 0 00-11.876 8.469l-.48.4a46.615 46.615 0 01-12.9 7.031 127.671 127.671 0 01-15.728 3.83l-46.874 7.77a111.65 111.65 0 00-15.878 4.11l-8.985 3.25a111.859 111.859 0 01-15.878 4.14l-73.308 12.409a51.7 51.7 0 00-14.778 5.27l-1.8 1.071c-3.582 2.13-8.534 5.07-11.006 6.54s-7.414 4.4-11.006 6.53l-27.875 16.569c-3.592 2.121-7.8 6.3-9.375 9.281l-3.962 7.52a43.359 43.359 0 01-8.074 10.07l-30.301 26.957a30.8 30.8 0 00-7.244 10.19l-13.857 38.01c-1.1 3.049-4.953 7.279-8.535 9.409l-19.11 11.33a64.17 64.17 0 01-14.578 5.841l-44.793 10.96c-4.442 1.09-8.244 4.489-8.474 7.58l-.09 1.179a12.541 12.541 0 01-5.233 8.6 52.694 52.694 0 01-12.9 4.93l-56.359 13.389c-4.452 1.06-8.794 4.42-9.675 7.491l-.96 3.37c-.88 3.07-1.951 6.849-2.381 8.389s-3.532 1.971-6.864.951-9.155-2.821-12.937-3.98-10.3-.86-14.478.659l-3.092 1.12c-4.172 1.511-7.634 2.781-7.694 2.8-.04.029-2.111.179-4.6.35s-8.294.57-12.907.9l-19.19 1.32c-4.612.319-12.136.85-16.749 1.16l-36.929 2.56a44.393 44.393 0 00-15.158 4.239l-2.451 1.321c-3.732 2.019-9.285 1.929-12.356-.2l-1.681-1.161c-3.082-2.12-9.2-2.96-13.637-1.85l-49.186 12.3c-4.412 1.1-6.9 4.339-5.513 7.2l.14.27c1.391 2.85.75 7.511-1.411 10.341L955.868 405.3c-2.161 2.839-4.9 6.43-6.093 7.989s-2.181 2.841-2.181 2.841-3.072 1.65-6.814 3.67l-22.151 11.89c-3.742 2.009-6.814 3.67-6.834 3.67s-2.111 2.25-4.632 4.96l-8.735 9.37a42.223 42.223 0 01-11.876 8.09l-19.06 8.279a31.112 31.112 0 01-15.188 1.75l-26.334-4.69c-4.342-.779-11.4-2.029-15.668-2.8s-7.464-3.911-7.094-6.991l.64-5.3c.39-3.09-1.281-7.65-3.672-10.15l-19.08-19.85c-2.391-2.491-8.114-4.531-12.717-4.531l-13.237-.019c-4.592 0-10.635 2.13-13.447 4.73l-15.478 14.369c-2.8 2.591-6.353 2.42-7.884-.389l-2.621-4.781c-1.531-2.819-6.563-5.089-11.156-5.04l-14.488.13c-4.592.04-10.806-1.7-13.8-3.88l-25.913-18.83a73.744 73.744 0 01-9.6-8.579l-7.264-8.051c-2.281-2.549-6.023-6.7-8.314-9.25l-1.931-2.139a43.148 43.148 0 01-6.123-8.981c-1.081-2.389-3.022-6.7-4.322-9.579L587.3 296.692c-1.311-2.881-5.663-6.281-9.685-7.551l-13.127-4.179c-4.022-1.27-8.254-2.611-9.385-2.98a8.134 8.134 0 00-2.221-.51 57.026 57.026 0 01-5.383-3.931L499.26 240a30.638 30.638 0 01-7.664-9.279l-12.527-26.99c-1.331-2.861-5.833-6.091-10.005-7.18l-37.8-9.77A94.639 94.639 0 00415.4 184.4l-82.433-4.13c-4.552-.231-9.5-.47-11.006-.55a90.628 90.628 0 01-10.415-1.92l-19.69-4.551a68.227 68.227 0 00-16.078-1.289l-7.694.469a58.211 58.211 0 00-15.748 3.561l-13.507 5.62c-4.052 1.679-10.7 4.449-14.748 6.13l-4.192 1.75a87.136 87.136 0 01-15.628 4.47l-8.374 1.42a94.763 94.763 0 01-16.549 1.04l-36.119-1.571c-4.562-.19-9.495-.409-10.966-.469s-6.023-.27-10.145-.451a21.708 21.708 0 00-12.9 4.25l-4.933 4.181c-2.972 2.509-7.034 2.389-9.025-.281l-4.092-5.429c-1.991-2.67-7.284-5.031-11.766-5.261s-9.495-.48-11.156-.569-6.523.969-10.806 2.35l-8.454 2.719c-4.282 1.381-9.615 3.891-11.866 5.6s-5.573 4.23-7.374 5.589-3.832 5.02-4.492 8.091l-1.161 5.29c-.66 3.079-14.868 5.19-19.34 4.679L0 224.6v4537.08z" transform="translate(0 .002)" fill="#08f"/></svg>