<svg xmlns="http://www.w3.org/2000/svg" xmlns:xlink="http://www.w3.org/1999/xlink" width="1725.381" height="827.031" viewBox="0 0 1725.381 827.031">
  <defs>
    <clipPath id="clip-path">
      <path id="Path_15635" data-name="Path 15635" d="M1343.378,1300.31c-4.674,1.925-9.925,6.061-11.671,9.192l-13.624,24.39c-1.746,3.131-.206,7.777,3.451,10.329l2.447,1.716c3.643,2.551,3.093,6.447-1.21,8.65l-3.519,1.833c-4.3,2.2-8.688,6.64-9.719,9.864l-1.856,5.69a22.736,22.736,0,0,0-.083,11.719l7.7,24.615c1.017,3.231.206,8.38-1.8,11.456l-29.584,45.317c-2.007,3.077-7.932,6.757-13.17,8.195l-12.922,3.548c-5.238,1.431-13.391,1.044-18.106-.873l-19.095-7.762c-4.729-1.925-9.073-6.153-9.65-9.416l-.77-4.352c-.577-3.262-5.7-5.342-11.4-4.631l-13.582,1.693a59.71,59.71,0,0,1-19.782-1.4l-52.35-14.851a75.054,75.054,0,0,1-16.442-7.143l-7.285-4.661a95.545,95.545,0,0,0-15.934-7.646l-14.063-5.017c-4.908-1.755-7.768-5.783-6.338-8.96l11.081-24.769c1.429-3.177,5.677-7.816,9.472-10.3l6.832-4.522c3.781-2.49,9.334-2.729,12.359-.526,3.01,2.211,8.688,3.046,12.592,1.855s7.492-4.816,7.974-8.078l1.457-9.826c.467-3.262-3.011-7.475-7.767-9.369l-8.469-3.379c-4.742-1.894-9.884-1.291-11.41,1.338s-7.52,4.522-13.321,4.19l-67.54-3.788c-5.8-.333-13.005-2.891-16.03-5.7l-.343-.317c-3.038-2.806-9.321-4.306-13.995-3.339s-11.575-.279-15.37-2.768l-11.822-7.738c-3.794-2.482-11.438-5.319-16.978-6.316L920,1306.364c-5.54-1-13.266.193-17.143,2.628l-5.622,3.525c-3.877,2.435-2.365,4.9,3.381,5.473l4.812.48c5.746.564,13.018,3.285,16.194,6.03l5.21,4.538c3.176,2.744,1,4.816-4.8,4.6l-37.022-1.391a132.819,132.819,0,0,0-17.28.471,22.29,22.29,0,0,0-11.562,6.169l-19.466,21.376c-2.653,2.914-9.444,5.968-15.08,6.779l-.757.109c-5.636.811-11.176,4.1-12.317,7.313l-3.959,11.178a19.258,19.258,0,0,0,.247,11.65l5.334,13.575c1.265,3.2-1.911,4.546-7.039,3l-22.215-6.71c-5.114-1.546-13.266-1.322-18.1.494l-20.154,7.607c-4.825,1.817-8.152.658-7.382-2.582l2.241-9.485c.769-3.239-1.98-7.777-6.145-10.073l-15.37-8.488c-4.151-2.3-12.3-4.275-18.132-4.415l-38.4-.85c-5.815-.131-12.5,2.219-14.833,5.226l-16.387,21.074c-2.337,3-9.018,5.527-14.833,5.628h-.4c-5.815.092-10.6,2.852-10.626,6.122l-.028,3.425c-.027,3.278-4.413,7.027-9.746,8.334l-35.606,8.751c-5.334,1.3-7.437,4.739-4.688,7.622l3.341,3.487c2.75,2.875,4.344,7.893,3.505,11.132l-4.523,17.734c-.838,3.239-4.921,4.028-9.1,1.739l-16.813-9.184c-4.179-2.288-8.015-6.818-8.523-10.08l-1.389-8.721c-.508-3.262-4.11-3.935-8-1.507l-18.724,11.712c-3.89,2.427-6.09,7.042-4.907,10.243l4.152,11.117c1.195,3.2-1.9,7.228-6.861,8.944l-6.048,2.095c-4.949,1.708-11.507,5.388-14.573,8.179l-21.541,19.651c-3.038,2.791-9.912,6.131-15.232,7.437l-18.243,4.461a117.964,117.964,0,0,1-20.277,2.682l-22.106.681a101.151,101.151,0,0,0-20.057,2.96l-58.357,16.32a41.827,41.827,0,0,1-18.971,0l-2.3-.642c-5.21-1.453-13.445-1.144-18.27.68l-22.161,8.357a92.275,92.275,0,0,0-15.589,7.886l-3.4,2.257c-3.739,2.512-9.678,6.695-13.2,9.315l-24.264,18.005a11.5,11.5,0,0,1-12.826.031l-6.984-5.079c-3.547-2.59-7.478-2.1-8.729,1.1l-11.63,29.964a60.436,60.436,0,0,1-6.269,11.325L113.6,1653.33c-2.2,3.023-1.292,7.7,2.049,10.39l29.377,23.734c3.327,2.682,5.376,7.537,4.578,10.776l-.77,2.969c-.8,3.247-5.32,4.321-10.035,2.381l-28.993-11.913c-4.7-1.941-9.664-1.593-11.053.757-1.361,2.35-.976,6.819.866,9.927l2.461,4.143a50.212,50.212,0,0,0,9.238,10.591l20.2,16.923c3.244,2.721,6.6,7.591,7.451,10.83l2.557,9.609c.852,3.24,3.918,8.2,6.832,11.047l20.662,20.17c2.9,2.837,5.8,7.823,6.448,11.078l4.8,24.792a33.985,33.985,0,0,0,5.21,11.418l21.652,29.253c2.241,3.03,4.028,8.171,3.986,11.449l-.577,47.358c-.041,3.278-4.069,4.932-8.963,3.672-4.867-1.252-7.327.255-5.444,3.347l6.489,10.73c1.883,3.1,7.877,6.556,13.348,7.692l5.623,1.16c5.471,1.136,12.4,4.128,15.411,6.664,2.983,2.543,10.186,4.87,15.988,5.179l42.039,2.258c5.787.309,14.407-1,19.136-2.907l63.4-25.511,26.808,14.881,58.645,72.56a49.062,49.062,0,0,1,12.455,2.691l70.744,28.464a63.7,63.7,0,0,0,19.177,3.595l106.555,1.19a164.843,164.843,0,0,0,20.841-1.337,21.616,21.616,0,0,1,2.956-.2c4.935,0,10.173,1.553,12.578,3.911l17.143,16.845c2.9,2.838,9.568,6.332,14.793,7.77l58.975,16.118a95.4,95.4,0,0,0,20.1,2.714l33.5.3a112.5,112.5,0,0,1,20.359,2.381l59.168,13.853a114.454,114.454,0,0,0,20.36,2.436l51.91.672a88.687,88.687,0,0,1,18.38,2.312c4.289,1.2,11.782.7,16.634-1.114l22.752-8.434a89.876,89.876,0,0,1,19.274-4.236l48.651-4.414c5.747-.518,12.95-3.224,15.988-6.015l54.714-49.94c3.066-2.791,3.355-7.166.66-9.717s-.715-5.937,4.386-7.507l17.637-5.427c5.128-1.569,11.053-.355,13.211,2.691l12.016,17.054c2.144,3.045,8,6.9,13,8.58l2.144.719c5,1.67,11.452,5.366,14.325,8.218l26.7,26.5c2.86,2.845,5.9,2.528,6.736-.711l4.729-18.3c.839-3.239-1.278-8.047-4.7-10.691l-9.527-7.368a65.507,65.507,0,0,1-10.352-10.289l-17.294-22.976c-2.255-3.015.646-5.311,6.447-5.086l22.477.842c5.8.217,12.716,2.776,15.342,5.7l12.084,13.49c2.626,2.922,7.85,3.262,11.6.757l5.4-3.587c3.753-2.5,4.949-7.019,2.695-10.042l-11.094-14.719c-2.255-3.015.536-4.886,6.2-4.159l7.63.966c5.664.727,13.816-.494,18.132-2.7l13.72-7.1c4.289-2.2,7.7-6.7,7.561-9.973l-.8-19.234c-.138-3.27,3.34-7.715,7.725-9.864l54.99-27.065c4.385-2.157,12.73-3.92,18.558-3.92h27.784a82.2,82.2,0,0,0,19.919-2.829l26.079-7.947a35.416,35.416,0,0,1,18.394.224l27.962,9.408c4.99,1.678,13.527,2.111,18.985.951l44.005-9.346c5.444-1.152,12.139-4.4,14.874-7.205s8.015-3.038,11.713-.51l7.822,5.357a135.042,135.042,0,0,0,14.792,8.45l14.49,6.926.385-.471c2.447-2.977,3.959-7.259,3.395-9.517s2.337-6.014,6.461-8.326l15.6-8.728c4.124-2.319,7.148-6.88,6.749-10.142l-.274-2.064-.179-1.407c-.4-3.255,3.973-5.59,9.733-5.157l5,.379c5.76.433,11.905-1.77,13.637-4.9l16.359-29.384c1.733-3.123,2.668-8.079,2.076-11.009s.165-7.916,1.677-11.085l20.03-41.862a15.916,15.916,0,0,0,.248-11.534l-4.606-10.738c-1.388-3.185-2.735-6.3-3.01-6.927a57.83,57.83,0,0,0-5.568-6.37l-4.811-4.978c-2.777-2.884-4.523-7.909-3.9-11.163l4.839-25.009c.619-3.254-.467-8.442-2.378-11.534l-4.358-6.973c-1.924-3.1-7.025-6.447-11.3-7.437a34.554,34.554,0,0,1-13.28-6.911l-17.431-16.2c-3.011-2.806-9.5-6.532-14.435-8.272l-34.547-12.291c-4.921-1.74-8.317-5.829-7.533-9.076l3.588-15.044c.783-3.239-2.64-7.29-7.6-9.006l-2.777-.936c-4.949-1.716-13.582-2.334-19.163-1.376l-.055.008c-5.554.951-11.947-.75-14.146-3.772l-18.93-25.8c-2.213-3.023-7.685-7.236-12.112-9.347l-5.87-2.783c-4.454-2.11-7.121-6.408-5.925-9.539s-2.144-6.834-7.4-8.264l-21.982-5.961c-5.251-1.422-11.094-5.117-12.991-8.21l-1.182-1.963c-1.9-3.092-8.152-5.2-13.9-4.67l-.233.016c-5.747.518-14.38-.572-19.164-2.427l-18.682-7.244c-4.8-1.855-9.458-6.015-10.393-9.246l-11.6-40.818c-.907-3.231-5.21-7.661-9.554-9.833l-6.929-3.464c-4.344-2.18-7.987-6.64-8.111-9.91l-.949-27.081c-.109-3.27-3.519-7.877-7.574-10.227l-21.46-12.462c-4.041-2.342-12.125-4.345-17.94-4.43l-11.135-.154c-5.815-.078-11.369-2.783-12.345-6.015l-5.32-17.61c-.963-3.224-4.729-6.378-8.331-7a15.1,15.1,0,0,1-9.582-6.842l-24.14-45.843C1353.221,1299.391,1348.052,1298.393,1343.378,1300.31Z" fill="#9e1f63" stroke="#e1e5ed" stroke-miterlimit="10" stroke-width="1.031"/>
    </clipPath>
  </defs>
  <g id="Group_6535" data-name="Group 6535" transform="translate(-97.422 -1298.805)">
    <path id="Path_15634" data-name="Path 15634" d="M1343.378,1300.31c-4.674,1.925-9.925,6.061-11.671,9.192l-13.624,24.39c-1.746,3.131-.206,7.777,3.451,10.329l2.447,1.716c3.643,2.551,3.093,6.447-1.21,8.65l-3.519,1.833c-4.3,2.2-8.688,6.64-9.719,9.864l-1.856,5.69a22.736,22.736,0,0,0-.083,11.719l7.7,24.615c1.017,3.231.206,8.38-1.8,11.456l-29.584,45.317c-2.007,3.077-7.932,6.757-13.17,8.195l-12.922,3.548c-5.238,1.431-13.391,1.044-18.106-.873l-19.095-7.762c-4.729-1.925-9.073-6.153-9.65-9.416l-.77-4.352c-.577-3.262-5.7-5.342-11.4-4.631l-13.582,1.693a59.71,59.71,0,0,1-19.782-1.4l-52.35-14.851a75.054,75.054,0,0,1-16.442-7.143l-7.285-4.661a95.545,95.545,0,0,0-15.934-7.646l-14.063-5.017c-4.908-1.755-7.768-5.783-6.338-8.96l11.081-24.769c1.429-3.177,5.677-7.816,9.472-10.3l6.832-4.522c3.781-2.49,9.334-2.729,12.359-.526,3.01,2.211,8.688,3.046,12.592,1.855s7.492-4.816,7.974-8.078l1.457-9.826c.467-3.262-3.011-7.475-7.767-9.369l-8.469-3.379c-4.742-1.894-9.884-1.291-11.41,1.338s-7.52,4.522-13.321,4.19l-67.54-3.788c-5.8-.333-13.005-2.891-16.03-5.7l-.343-.317c-3.038-2.806-9.321-4.306-13.995-3.339s-11.575-.279-15.37-2.768l-11.822-7.738c-3.794-2.482-11.438-5.319-16.978-6.316L920,1306.364c-5.54-1-13.266.193-17.143,2.628l-5.622,3.525c-3.877,2.435-2.365,4.9,3.381,5.473l4.812.48c5.746.564,13.018,3.285,16.194,6.03l5.21,4.538c3.176,2.744,1,4.816-4.8,4.6l-37.022-1.391a132.819,132.819,0,0,0-17.28.471,22.29,22.29,0,0,0-11.562,6.169l-19.466,21.376c-2.653,2.914-9.444,5.968-15.08,6.779l-.757.109c-5.636.811-11.176,4.1-12.317,7.313l-3.959,11.178a19.258,19.258,0,0,0,.247,11.65l5.334,13.575c1.265,3.2-1.911,4.546-7.039,3l-22.215-6.71c-5.114-1.546-13.266-1.322-18.1.494l-20.154,7.607c-4.825,1.817-8.152.658-7.382-2.582l2.241-9.485c.769-3.239-1.98-7.777-6.145-10.073l-15.37-8.488c-4.151-2.3-12.3-4.275-18.132-4.415l-38.4-.85c-5.815-.131-12.5,2.219-14.833,5.226l-16.387,21.074c-2.337,3-9.018,5.527-14.833,5.628h-.4c-5.815.092-10.6,2.852-10.626,6.122l-.028,3.425c-.027,3.278-4.413,7.027-9.746,8.334l-35.606,8.751c-5.334,1.3-7.437,4.739-4.688,7.622l3.341,3.487c2.75,2.875,4.344,7.893,3.505,11.132l-4.523,17.734c-.838,3.239-4.921,4.028-9.1,1.739l-16.813-9.184c-4.179-2.288-8.015-6.818-8.523-10.08l-1.389-8.721c-.508-3.262-4.11-3.935-8-1.507l-18.724,11.712c-3.89,2.427-6.09,7.042-4.907,10.243l4.152,11.117c1.195,3.2-1.9,7.228-6.861,8.944l-6.048,2.095c-4.949,1.708-11.507,5.388-14.573,8.179l-21.541,19.651c-3.038,2.791-9.912,6.131-15.232,7.437l-18.243,4.461a117.964,117.964,0,0,1-20.277,2.682l-22.106.681a101.151,101.151,0,0,0-20.057,2.96l-58.357,16.32a41.827,41.827,0,0,1-18.971,0l-2.3-.642c-5.21-1.453-13.445-1.144-18.27.68l-22.161,8.357a92.275,92.275,0,0,0-15.589,7.886l-3.4,2.257c-3.739,2.512-9.678,6.695-13.2,9.315l-24.264,18.005a11.5,11.5,0,0,1-12.826.031l-6.984-5.079c-3.547-2.59-7.478-2.1-8.729,1.1l-11.63,29.964a60.436,60.436,0,0,1-6.269,11.325L113.6,1653.33c-2.2,3.023-1.292,7.7,2.049,10.39l29.377,23.734c3.327,2.682,5.376,7.537,4.578,10.776l-.77,2.969c-.8,3.247-5.32,4.321-10.035,2.381l-28.993-11.913c-4.7-1.941-9.664-1.593-11.053.757-1.361,2.35-.976,6.819.866,9.927l2.461,4.143a50.212,50.212,0,0,0,9.238,10.591l20.2,16.923c3.244,2.721,6.6,7.591,7.451,10.83l2.557,9.609c.852,3.24,3.918,8.2,6.832,11.047l20.662,20.17c2.9,2.837,5.8,7.823,6.448,11.078l4.8,24.792a33.985,33.985,0,0,0,5.21,11.418l21.652,29.253c2.241,3.03,4.028,8.171,3.986,11.449l-.577,47.358c-.041,3.278-4.069,4.932-8.963,3.672-4.867-1.252-7.327.255-5.444,3.347l6.489,10.73c1.883,3.1,7.877,6.556,13.348,7.692l5.623,1.16c5.471,1.136,12.4,4.128,15.411,6.664,2.983,2.543,10.186,4.87,15.988,5.179l42.039,2.258c5.787.309,14.407-1,19.136-2.907l63.4-25.511,26.808,14.881,58.645,72.56a49.062,49.062,0,0,1,12.455,2.691l70.744,28.464a63.7,63.7,0,0,0,19.177,3.595l106.555,1.19a164.843,164.843,0,0,0,20.841-1.337,21.616,21.616,0,0,1,2.956-.2c4.935,0,10.173,1.553,12.578,3.911l17.143,16.845c2.9,2.838,9.568,6.332,14.793,7.77l58.975,16.118a95.4,95.4,0,0,0,20.1,2.714l33.5.3a112.5,112.5,0,0,1,20.359,2.381l59.168,13.853a114.454,114.454,0,0,0,20.36,2.436l51.91.672a88.687,88.687,0,0,1,18.38,2.312c4.289,1.2,11.782.7,16.634-1.114l22.752-8.434a89.876,89.876,0,0,1,19.274-4.236l48.651-4.414c5.747-.518,12.95-3.224,15.988-6.015l54.714-49.94c3.066-2.791,3.355-7.166.66-9.717s-.715-5.937,4.386-7.507l17.637-5.427c5.128-1.569,11.053-.355,13.211,2.691l12.016,17.054c2.144,3.045,8,6.9,13,8.58l2.144.719c5,1.67,11.452,5.366,14.325,8.218l26.7,26.5c2.86,2.845,5.9,2.528,6.736-.711l4.729-18.3c.839-3.239-1.278-8.047-4.7-10.691l-9.527-7.368a65.507,65.507,0,0,1-10.352-10.289l-17.294-22.976c-2.255-3.015.646-5.311,6.447-5.086l22.477.842c5.8.217,12.716,2.776,15.342,5.7l12.084,13.49c2.626,2.922,7.85,3.262,11.6.757l5.4-3.587c3.753-2.5,4.949-7.019,2.695-10.042l-11.094-14.719c-2.255-3.015.536-4.886,6.2-4.159l7.63.966c5.664.727,13.816-.494,18.132-2.7l13.72-7.1c4.289-2.2,7.7-6.7,7.561-9.973l-.8-19.234c-.138-3.27,3.34-7.715,7.725-9.864l54.99-27.065c4.385-2.157,12.73-3.92,18.558-3.92h27.784a82.2,82.2,0,0,0,19.919-2.829l26.079-7.947a35.416,35.416,0,0,1,18.394.224l27.962,9.408c4.99,1.678,13.527,2.111,18.985.951l44.005-9.346c5.444-1.152,12.139-4.4,14.874-7.205s8.015-3.038,11.713-.51l7.822,5.357a135.042,135.042,0,0,0,14.792,8.45l14.49,6.926.385-.471c2.447-2.977,3.959-7.259,3.395-9.517s2.337-6.014,6.461-8.326l15.6-8.728c4.124-2.319,7.148-6.88,6.749-10.142l-.274-2.064-.179-1.407c-.4-3.255,3.973-5.59,9.733-5.157l5,.379c5.76.433,11.905-1.77,13.637-4.9l16.359-29.384c1.733-3.123,2.668-8.079,2.076-11.009s.165-7.916,1.677-11.085l20.03-41.862a15.916,15.916,0,0,0,.248-11.534l-4.606-10.738c-1.388-3.185-2.735-6.3-3.01-6.927a57.83,57.83,0,0,0-5.568-6.37l-4.811-4.978c-2.777-2.884-4.523-7.909-3.9-11.163l4.839-25.009c.619-3.254-.467-8.442-2.378-11.534l-4.358-6.973c-1.924-3.1-7.025-6.447-11.3-7.437a34.554,34.554,0,0,1-13.28-6.911l-17.431-16.2c-3.011-2.806-9.5-6.532-14.435-8.272l-34.547-12.291c-4.921-1.74-8.317-5.829-7.533-9.076l3.588-15.044c.783-3.239-2.64-7.29-7.6-9.006l-2.777-.936c-4.949-1.716-13.582-2.334-19.163-1.376l-.055.008c-5.554.951-11.947-.75-14.146-3.772l-18.93-25.8c-2.213-3.023-7.685-7.236-12.112-9.347l-5.87-2.783c-4.454-2.11-7.121-6.408-5.925-9.539s-2.144-6.834-7.4-8.264l-21.982-5.961c-5.251-1.422-11.094-5.117-12.991-8.21l-1.182-1.963c-1.9-3.092-8.152-5.2-13.9-4.67l-.233.016c-5.747.518-14.38-.572-19.164-2.427l-18.682-7.244c-4.8-1.855-9.458-6.015-10.393-9.246l-11.6-40.818c-.907-3.231-5.21-7.661-9.554-9.833l-6.929-3.464c-4.344-2.18-7.987-6.64-8.111-9.91l-.949-27.081c-.109-3.27-3.519-7.877-7.574-10.227l-21.46-12.462c-4.041-2.342-12.125-4.345-17.94-4.43l-11.135-.154c-5.815-.078-11.369-2.783-12.345-6.015l-5.32-17.61c-.963-3.224-4.729-6.378-8.331-7a15.1,15.1,0,0,1-9.582-6.842l-24.14-45.843C1353.221,1299.391,1348.052,1298.393,1343.378,1300.31Z" fill="#9e1f63"/>
    <g id="Group_6534" data-name="Group 6534" clip-path="url(#clip-path)">
      <rect id="Rectangle_1398" data-name="Rectangle 1398" width="2856.039" height="1989.518" transform="translate(0 3237.536) rotate(-90)" fill="none" opacity="0.1" style="mix-blend-mode: hard-light;isolation: isolate"/>
    </g>
    <path id="Path_15636" data-name="Path 15636" d="M1343.378,1300.31c-4.674,1.925-9.925,6.061-11.671,9.192l-13.624,24.39c-1.746,3.131-.206,7.777,3.451,10.329l2.447,1.716c3.643,2.551,3.093,6.447-1.21,8.65l-3.519,1.833c-4.3,2.2-8.688,6.64-9.719,9.864l-1.856,5.69a22.736,22.736,0,0,0-.083,11.719l7.7,24.615c1.017,3.231.206,8.38-1.8,11.456l-29.584,45.317c-2.007,3.077-7.932,6.757-13.17,8.195l-12.922,3.548c-5.238,1.431-13.391,1.044-18.106-.873l-19.095-7.762c-4.729-1.925-9.073-6.153-9.65-9.416l-.77-4.352c-.577-3.262-5.7-5.342-11.4-4.631l-13.582,1.693a59.71,59.71,0,0,1-19.782-1.4l-52.35-14.851a75.054,75.054,0,0,1-16.442-7.143l-7.285-4.661a95.545,95.545,0,0,0-15.934-7.646l-14.063-5.017c-4.908-1.755-7.768-5.783-6.338-8.96l11.081-24.769c1.429-3.177,5.677-7.816,9.472-10.3l6.832-4.522c3.781-2.49,9.334-2.729,12.359-.526,3.01,2.211,8.688,3.046,12.592,1.855s7.492-4.816,7.974-8.078l1.457-9.826c.467-3.262-3.011-7.475-7.767-9.369l-8.469-3.379c-4.742-1.894-9.884-1.291-11.41,1.338s-7.52,4.522-13.321,4.19l-67.54-3.788c-5.8-.333-13.005-2.891-16.03-5.7l-.343-.317c-3.038-2.806-9.321-4.306-13.995-3.339s-11.575-.279-15.37-2.768l-11.822-7.738c-3.794-2.482-11.438-5.319-16.978-6.316L920,1306.364c-5.54-1-13.266.193-17.143,2.628l-5.622,3.525c-3.877,2.435-2.365,4.9,3.381,5.473l4.812.48c5.746.564,13.018,3.285,16.194,6.03l5.21,4.538c3.176,2.744,1,4.816-4.8,4.6l-37.022-1.391a132.819,132.819,0,0,0-17.28.471,22.29,22.29,0,0,0-11.562,6.169l-19.466,21.376c-2.653,2.914-9.444,5.968-15.08,6.779l-.757.109c-5.636.811-11.176,4.1-12.317,7.313l-3.959,11.178a19.258,19.258,0,0,0,.247,11.65l5.334,13.575c1.265,3.2-1.911,4.546-7.039,3l-22.215-6.71c-5.114-1.546-13.266-1.322-18.1.494l-20.154,7.607c-4.825,1.817-8.152.658-7.382-2.582l2.241-9.485c.769-3.239-1.98-7.777-6.145-10.073l-15.37-8.488c-4.151-2.3-12.3-4.275-18.132-4.415l-38.4-.85c-5.815-.131-12.5,2.219-14.833,5.226l-16.387,21.074c-2.337,3-9.018,5.527-14.833,5.628h-.4c-5.815.092-10.6,2.852-10.626,6.122l-.028,3.425c-.027,3.278-4.413,7.027-9.746,8.334l-35.606,8.751c-5.334,1.3-7.437,4.739-4.688,7.622l3.341,3.487c2.75,2.875,4.344,7.893,3.505,11.132l-4.523,17.734c-.838,3.239-4.921,4.028-9.1,1.739l-16.813-9.184c-4.179-2.288-8.015-6.818-8.523-10.08l-1.389-8.721c-.508-3.262-4.11-3.935-8-1.507l-18.724,11.712c-3.89,2.427-6.09,7.042-4.907,10.243l4.152,11.117c1.195,3.2-1.9,7.228-6.861,8.944l-6.048,2.095c-4.949,1.708-11.507,5.388-14.573,8.179l-21.541,19.651c-3.038,2.791-9.912,6.131-15.232,7.437l-18.243,4.461a117.964,117.964,0,0,1-20.277,2.682l-22.106.681a101.151,101.151,0,0,0-20.057,2.96l-58.357,16.32a41.827,41.827,0,0,1-18.971,0l-2.3-.642c-5.21-1.453-13.445-1.144-18.27.68l-22.161,8.357a92.275,92.275,0,0,0-15.589,7.886l-3.4,2.257c-3.739,2.512-9.678,6.695-13.2,9.315l-24.264,18.005a11.5,11.5,0,0,1-12.826.031l-6.984-5.079c-3.547-2.59-7.478-2.1-8.729,1.1l-11.63,29.964a60.436,60.436,0,0,1-6.269,11.325L113.6,1653.33c-2.2,3.023-1.292,7.7,2.049,10.39l29.377,23.734c3.327,2.682,5.376,7.537,4.578,10.776l-.77,2.969c-.8,3.247-5.32,4.321-10.035,2.381l-28.993-11.913c-4.7-1.941-9.664-1.593-11.053.757-1.361,2.35-.976,6.819.866,9.927l2.461,4.143a50.212,50.212,0,0,0,9.238,10.591l20.2,16.923c3.244,2.721,6.6,7.591,7.451,10.83l2.557,9.609c.852,3.24,3.918,8.2,6.832,11.047l20.662,20.17c2.9,2.837,5.8,7.823,6.448,11.078l4.8,24.792a33.985,33.985,0,0,0,5.21,11.418l21.652,29.253c2.241,3.03,4.028,8.171,3.986,11.449l-.577,47.358c-.041,3.278-4.069,4.932-8.963,3.672-4.867-1.252-7.327.255-5.444,3.347l6.489,10.73c1.883,3.1,7.877,6.556,13.348,7.692l5.623,1.16c5.471,1.136,12.4,4.128,15.411,6.664,2.983,2.543,10.186,4.87,15.988,5.179l42.039,2.258c5.787.309,14.407-1,19.136-2.907l63.4-25.511,26.808,14.881,58.645,72.56a49.062,49.062,0,0,1,12.455,2.691l70.744,28.464a63.7,63.7,0,0,0,19.177,3.595l106.555,1.19a164.843,164.843,0,0,0,20.841-1.337,21.616,21.616,0,0,1,2.956-.2c4.935,0,10.173,1.553,12.578,3.911l17.143,16.845c2.9,2.838,9.568,6.332,14.793,7.77l58.975,16.118a95.4,95.4,0,0,0,20.1,2.714l33.5.3a112.5,112.5,0,0,1,20.359,2.381l59.168,13.853a114.454,114.454,0,0,0,20.36,2.436l51.91.672a88.687,88.687,0,0,1,18.38,2.312c4.289,1.2,11.782.7,16.634-1.114l22.752-8.434a89.876,89.876,0,0,1,19.274-4.236l48.651-4.414c5.747-.518,12.95-3.224,15.988-6.015l54.714-49.94c3.066-2.791,3.355-7.166.66-9.717s-.715-5.937,4.386-7.507l17.637-5.427c5.128-1.569,11.053-.355,13.211,2.691l12.016,17.054c2.144,3.045,8,6.9,13,8.58l2.144.719c5,1.67,11.452,5.366,14.325,8.218l26.7,26.5c2.86,2.845,5.9,2.528,6.736-.711l4.729-18.3c.839-3.239-1.278-8.047-4.7-10.691l-9.527-7.368a65.507,65.507,0,0,1-10.352-10.289l-17.294-22.976c-2.255-3.015.646-5.311,6.447-5.086l22.477.842c5.8.217,12.716,2.776,15.342,5.7l12.084,13.49c2.626,2.922,7.85,3.262,11.6.757l5.4-3.587c3.753-2.5,4.949-7.019,2.695-10.042l-11.094-14.719c-2.255-3.015.536-4.886,6.2-4.159l7.63.966c5.664.727,13.816-.494,18.132-2.7l13.72-7.1c4.289-2.2,7.7-6.7,7.561-9.973l-.8-19.234c-.138-3.27,3.34-7.715,7.725-9.864l54.99-27.065c4.385-2.157,12.73-3.92,18.558-3.92h27.784a82.2,82.2,0,0,0,19.919-2.829l26.079-7.947a35.416,35.416,0,0,1,18.394.224l27.962,9.408c4.99,1.678,13.527,2.111,18.985.951l44.005-9.346c5.444-1.152,12.139-4.4,14.874-7.205s8.015-3.038,11.713-.51l7.822,5.357a135.042,135.042,0,0,0,14.792,8.45l14.49,6.926.385-.471c2.447-2.977,3.959-7.259,3.395-9.517s2.337-6.014,6.461-8.326l15.6-8.728c4.124-2.319,7.148-6.88,6.749-10.142l-.274-2.064-.179-1.407c-.4-3.255,3.973-5.59,9.733-5.157l5,.379c5.76.433,11.905-1.77,13.637-4.9l16.359-29.384c1.733-3.123,2.668-8.079,2.076-11.009s.165-7.916,1.677-11.085l20.03-41.862a15.916,15.916,0,0,0,.248-11.534l-4.606-10.738c-1.388-3.185-2.735-6.3-3.01-6.927a57.83,57.83,0,0,0-5.568-6.37l-4.811-4.978c-2.777-2.884-4.523-7.909-3.9-11.163l4.839-25.009c.619-3.254-.467-8.442-2.378-11.534l-4.358-6.973c-1.924-3.1-7.025-6.447-11.3-7.437a34.554,34.554,0,0,1-13.28-6.911l-17.431-16.2c-3.011-2.806-9.5-6.532-14.435-8.272l-34.547-12.291c-4.921-1.74-8.317-5.829-7.533-9.076l3.588-15.044c.783-3.239-2.64-7.29-7.6-9.006l-2.777-.936c-4.949-1.716-13.582-2.334-19.163-1.376l-.055.008c-5.554.951-11.947-.75-14.146-3.772l-18.93-25.8c-2.213-3.023-7.685-7.236-12.112-9.347l-5.87-2.783c-4.454-2.11-7.121-6.408-5.925-9.539s-2.144-6.834-7.4-8.264l-21.982-5.961c-5.251-1.422-11.094-5.117-12.991-8.21l-1.182-1.963c-1.9-3.092-8.152-5.2-13.9-4.67l-.233.016c-5.747.518-14.38-.572-19.164-2.427l-18.682-7.244c-4.8-1.855-9.458-6.015-10.393-9.246l-11.6-40.818c-.907-3.231-5.21-7.661-9.554-9.833l-6.929-3.464c-4.344-2.18-7.987-6.64-8.111-9.91l-.949-27.081c-.109-3.27-3.519-7.877-7.574-10.227l-21.46-12.462c-4.041-2.342-12.125-4.345-17.94-4.43l-11.135-.154c-5.815-.078-11.369-2.783-12.345-6.015l-5.32-17.61c-.963-3.224-4.729-6.378-8.331-7a15.1,15.1,0,0,1-9.582-6.842l-24.14-45.843C1353.221,1299.391,1348.052,1298.393,1343.378,1300.31Z" fill="none" stroke="#e1e5ed" stroke-miterlimit="10" stroke-width="1.031"/>
  </g>
</svg>
