<svg xmlns="http://www.w3.org/2000/svg" xmlns:xlink="http://www.w3.org/1999/xlink" width="89.273" height="91.737" viewBox="0 0 89.273 91.737">
  <defs>
    <clipPath id="clip-path">
      <path id="Path_17131" data-name="Path 17131" d="M1708.518,4238.54c-3.6-19.876-19.8-32.987-38.889-29.833-19.031,3.148-32.647,21.189-30.214,41.259s19.779,32.334,38.982,30.659C1701.389,4278.691,1712.135,4258.534,1708.518,4238.54Z" fill="#01cb2d"/>
    </clipPath>
  </defs>
  <g id="Group_7227" data-name="Group 7227" transform="translate(-1629.532 -4198.64)">
    <g id="Group_7226" data-name="Group 7226">
      <g id="Group_7224" data-name="Group 7224">
        <g id="Group_7220" data-name="Group 7220">
          <path id="Path_16984" data-name="Path 16984" d="M1708.518,4238.54c-3.6-19.876-19.8-32.987-38.889-29.833-19.031,3.148-32.647,21.189-30.214,41.259s19.779,32.334,38.982,30.659C1701.389,4278.691,1712.135,4258.534,1708.518,4238.54Z" fill="#01cb2d"/>
          <g id="Group_7219" data-name="Group 7219" clip-path="url(#clip-path)">
            <g id="Group_7218" data-name="Group 7218" opacity="0.4" style="mix-blend-mode: multiply;isolation: isolate">
              <path id="Path_16985" data-name="Path 16985" d="M1650.468,4213.459c.873,1.631,9.47.767,9.4-1.739C1658.4,4210.566,1651.161,4209.821,1650.468,4213.459Z" fill="#1e5412" opacity="0.5"/>
              <path id="Path_16986" data-name="Path 16986" d="M1629.489,4245.25c1.126-1.9-2.021-2.083-1.919-.458C1627.622,4245.636,1629.049,4246.133,1629.489,4245.25Z" fill="#1e5412" opacity="0.5"/>
              <path id="Path_16987" data-name="Path 16987" d="M1642.8,4244.73c-.143-2.307-8.707-3.053-8.539-.348C1634.51,4248.424,1642.92,4246.742,1642.8,4244.73Z" fill="#1e5412" opacity="0.5"/>
              <path id="Path_16988" data-name="Path 16988" d="M1620.557,4255.831c.269,4.318,11.419,1.336,11.206-2.076-.231-3.734-3.744-1.195-5.493-.675C1624.569,4253.591,1620.312,4251.886,1620.557,4255.831Z" fill="#1e5412" opacity="0.5"/>
              <path id="Path_16989" data-name="Path 16989" d="M1700.958,4219.38c-1.386,1.136-.95,1.821-2.61,1.494-.855-.166-3.076-1.068-2.97.64a3.361,3.361,0,0,0,1.586,2.792,62.414,62.414,0,0,0,8.753-6.38A10.937,10.937,0,0,0,1700.958,4219.38Z" fill="#1e5412" opacity="0.5"/>
              <path id="Path_16990" data-name="Path 16990" d="M1644.756,4188.165a3.265,3.265,0,0,0-1.949-2.248l-1.495.12a1.673,1.673,0,0,0-.256,1.17C1641.207,4189.63,1644.8,4188.886,1644.756,4188.165Z" fill="#1e5412" opacity="0.5"/>
              <path id="Path_16991" data-name="Path 16991" d="M1655.481,4204.814c-.157-2.5-6.034-3.249-5.917-1.335C1649.714,4205.876,1655.582,4206.426,1655.481,4204.814Z" fill="#1e5412" opacity="0.5"/>
              <path id="Path_16992" data-name="Path 16992" d="M1652.983,4191.39c-1.069-.655-1.8-1.16-2.356-.048C1650.925,4196.1,1654.66,4192.416,1652.983,4191.39Z" fill="#1e5412" opacity="0.5"/>
              <path id="Path_16993" data-name="Path 16993" d="M1639.2,4214.928c.166,2.665,5.442,3.047,6.843,1.236C1649.007,4212.316,1639.025,4212.148,1639.2,4214.928Z" fill="#1e5412" opacity="0.5"/>
              <path id="Path_16994" data-name="Path 16994" d="M1643.466,4205.087c-.126-.513-.222-2.428-1.067-1.839-.142.325-.284.657-.426.985C1642.02,4204.959,1642.941,4205.252,1643.466,4205.087Z" fill="#1e5412" opacity="0.5"/>
              <path id="Path_16995" data-name="Path 16995" d="M1636.486,4227.111a1.489,1.489,0,0,0,2.574.957C1641.231,4225.723,1636.344,4224.849,1636.486,4227.111Z" fill="#1e5412" opacity="0.5"/>
              <path id="Path_16996" data-name="Path 16996" d="M1641.52,4196.18c-.142-2.263-5.737-3.271-5.571-.578C1636.107,4198.1,1641.684,4198.825,1641.52,4196.18Z" fill="#1e5412" opacity="0.5"/>
              <path id="Path_16997" data-name="Path 16997" d="M1603.148,4189.1l-6.609.531C1597.659,4190.773,1600.928,4190.234,1603.148,4189.1Z" fill="#1e5412" opacity="0.5"/>
              <path id="Path_16998" data-name="Path 16998" d="M1633,4235.284c-.173-2.817-11.6-4.909-11.287.062C1622.013,4240.185,1633.084,4236.575,1633,4235.284Z" fill="#1e5412" opacity="0.5"/>
              <path id="Path_16999" data-name="Path 16999" d="M1611.526,4193.9c1.221.12,1.208-1.345,2.014-2,2.107-1.7-4.986-4.4-4.8-1.434C1608.832,4192.023,1610.162,4193.771,1611.526,4193.9Z" fill="#1e5412" opacity="0.5"/>
              <path id="Path_17000" data-name="Path 17000" d="M1601.079,4215.1c3.622-3.447-10.79-8.369-10.366-1.57C1590.991,4218.02,1598.7,4217.362,1601.079,4215.1Z" fill="#1e5412" opacity="0.5"/>
              <path id="Path_17001" data-name="Path 17001" d="M1596.881,4199.215c.109,1.766,2.6,1.283,2.489-.487S1596.769,4197.444,1596.881,4199.215Z" fill="#1e5412" opacity="0.5"/>
              <path id="Path_17002" data-name="Path 17002" d="M1616.149,4204.358c2.853-2.823-4.265-3.936-5.141-3.922-2.434.039-7.777-3.4-7.458,1.717C1603.785,4205.917,1613.581,4206.9,1616.149,4204.358Z" fill="#1e5412" opacity="0.5"/>
              <path id="Path_17003" data-name="Path 17003" d="M1630.314,4225.634c-.128-2.069-2.877-1.1-2.777.492C1627.651,4227.971,1630.437,4227.589,1630.314,4225.634Z" fill="#1e5412" opacity="0.5"/>
              <path id="Path_17004" data-name="Path 17004" d="M1624.753,4205.11c.133,2.134,7.422,3.1,7.24.184C1631.743,4201.276,1624.581,4202.347,1624.753,4205.11Z" fill="#1e5412" opacity="0.5"/>
              <path id="Path_17005" data-name="Path 17005" d="M1631.261,4215.767c-.217-3.5-4.644-1.438-6.353-2.3-1.948-.983-7.451-3.644-7.126,1.59C1618.139,4220.774,1631.506,4219.711,1631.261,4215.767Z" fill="#1e5412" opacity="0.5"/>
              <path id="Path_17006" data-name="Path 17006" d="M1627.62,4195.327c-.24-3.824-8.206-3.221-8.052-.733C1619.793,4198.219,1627.845,4198.96,1627.62,4195.327Z" fill="#1e5412" opacity="0.5"/>
              <path id="Path_17007" data-name="Path 17007" d="M1608.44,4225.079c.3,4.883,9.956,4.945,9.748,1.6-.2-2.881-3.508-1.149-4.935-2.574C1611.888,4222.743,1608.25,4220.973,1608.44,4225.079Z" fill="#1e5412" opacity="0.5"/>
              <path id="Path_17008" data-name="Path 17008" d="M1696.454,4214.936c1.7-1.545,1.5-1.477,3.836-1.883.455-.079,2.117-.2,2.487-.874-.293.057-.887-1.309-1.554-1.179-1.55.3-2.341,1.354-4.005.872-2.035-.591-7.374-2.6-7.052,2.568C1690.366,4217.642,1695.016,4216.246,1696.454,4214.936Z" fill="#1e5412" opacity="0.5"/>
              <path id="Path_17009" data-name="Path 17009" d="M1695.3,4205.208c.182,2.911,11.21,2.06,12.434.119.784-1.249-5.217-1.707-6.279-2.356C1700.044,4202.112,1695.066,4201.43,1695.3,4205.208Z" fill="#1e5412" opacity="0.5"/>
              <path id="Path_17010" data-name="Path 17010" d="M1598.336,4224.044c.062,1.044,1.993,1.707,1.9.238C1600.144,4222.788,1598.815,4223.307,1598.336,4224.044Z" fill="#1e5412" opacity="0.5"/>
              <path id="Path_17011" data-name="Path 17011" d="M1673.153,4228.819c.111,1.756,2.585,1.274,2.477-.486S1673.045,4227.059,1673.153,4228.819Z" fill="#1e5412" opacity="0.5"/>
              <path id="Path_17012" data-name="Path 17012" d="M1713.924,4199.58c-.012-.184-7.271-2.646-7.177-1.134C1706.817,4199.564,1714.08,4202.1,1713.924,4199.58Z" fill="#1e5412" opacity="0.5"/>
              <path id="Path_17013" data-name="Path 17013" d="M1712.186,4210.787c-1.485.674-2.86,1.507-2.968,1.87.03.471.386.711.91.787C1710.858,4212.581,1711.551,4211.7,1712.186,4210.787Z" fill="#1e5412" opacity="0.5"/>
              <path id="Path_17014" data-name="Path 17014" d="M1688.16,4204.74c.11,1.785,2.612,1.293,2.5-.487S1688.048,4202.96,1688.16,4204.74Z" fill="#1e5412" opacity="0.5"/>
              <path id="Path_17015" data-name="Path 17015" d="M1717.88,4195.84c.02.347.425.545.892.578q.324-1.191.581-2.339A1.7,1.7,0,0,0,1717.88,4195.84Z" fill="#1e5412" opacity="0.5"/>
              <path id="Path_17016" data-name="Path 17016" d="M1685.459,4226.811c-1.458-.818-3.7.771-4.867,1.7.159,2.557,12.01.926,8.832-2.89C1687.372,4223.156,1686.832,4227.577,1685.459,4226.811Z" fill="#1e5412" opacity="0.5"/>
              <path id="Path_17017" data-name="Path 17017" d="M1682.978,4208.581c2.083-2.992-6.018-4.844-5.72-.062C1677.375,4210.426,1682.179,4209.724,1682.978,4208.581Z" fill="#1e5412" opacity="0.5"/>
              <path id="Path_17018" data-name="Path 17018" d="M1674.882,4218.657c.155,2.51,1.948,3.321,3.933,2.41,1.552-.714,6.282-1.976,7.184-3.725C1688.747,4212.024,1674.614,4214.355,1674.882,4218.657Z" fill="#1e5412" opacity="0.5"/>
              <path id="Path_17019" data-name="Path 17019" d="M1674.378,4199.223c.229,3.672,9.364,2.746,9.2.207C1683.489,4197.9,1674.439,4194.863,1674.378,4199.223Z" fill="#1e5412" opacity="0.5"/>
              <path id="Path_17020" data-name="Path 17020" d="M1673.074,4191.072c-.562-.089-1.466-.054-1.411.842C1671.849,4194.9,1673.9,4191.706,1673.074,4191.072Z" fill="#1e5412" opacity="0.5"/>
              <path id="Path_17021" data-name="Path 17021" d="M1669.9,4215.159c-.219-2.976-5.6-.334-5.475,1.68C1664.526,4218.446,1670.117,4218.1,1669.9,4215.159Z" fill="#1e5412" opacity="0.5"/>
              <path id="Path_17022" data-name="Path 17022" d="M1663.936,4190.4c-.168-2.68-5.978-3.147-5.786-.069C1658.32,4193.063,1664.106,4193.156,1663.936,4190.4Z" fill="#1e5412" opacity="0.5"/>
              <path id="Path_17023" data-name="Path 17023" d="M1714.163,4184.812c.823,1.455,2.443,5.9,4.659,2.79a1.2,1.2,0,0,0,.2-.47,26.635,26.635,0,0,0-5.228-4.741c-1.5-.6-2.726-.76-2.681-.072C1711.28,4185.046,1713.163,4183.038,1714.163,4184.812Z" fill="#1e5412" opacity="0.5"/>
              <path id="Path_17024" data-name="Path 17024" d="M1667.046,4206.681c.1,1.57,2.933,2.2,3.822,1.021C1672,4206.217,1666.893,4204.222,1667.046,4206.681Z" fill="#1e5412" opacity="0.5"/>
              <path id="Path_17025" data-name="Path 17025" d="M1669.042,4199.84c-.931-1.387-5.367-3.907-5.121.041C1664.082,4202.46,1670.39,4201.838,1669.042,4199.84Z" fill="#1e5412" opacity="0.5"/>
              <path id="Path_17026" data-name="Path 17026" d="M1666.053,4226.4c-1.01.5-8.629,2.048-8.565,3.042.161,2.616,6.164,3.888,7.9,3.619,1.912-.3,2.651-2.788,2.594-4.637-.035-1.1,1.708-1.057,2.154-1.2.516-.17,1.8-1.355.812-1.914C1669.651,4224.572,1667.322,4225.778,1666.053,4226.4Z" fill="#1e5412" opacity="0.5"/>
              <path id="Path_17027" data-name="Path 17027" d="M1679.128,4185.765c-.059-.954-1.016-1.887-2.215-2.587l-5.022.4C1672.756,4186.642,1679.343,4189.2,1679.128,4185.765Z" fill="#1e5412" opacity="0.5"/>
              <path id="Path_17028" data-name="Path 17028" d="M1705.485,4182.449a7,7,0,0,0-1.625-1.436l-6.529.524a13.848,13.848,0,0,1,3.613.877C1701.339,4182.653,1706.529,4183.943,1705.485,4182.449Z" fill="#1e5412" opacity="0.5"/>
              <path id="Path_17029" data-name="Path 17029" d="M1703.478,4189.1c.141,2.268,6.825,4.539,8.1,2.7C1711.356,4189.464,1703.2,4184.569,1703.478,4189.1Z" fill="#1e5412" opacity="0.5"/>
              <path id="Path_17030" data-name="Path 17030" d="M1686.508,4193.416c.788-2.265-4.461-3.958-4.3-1.452C1682.336,4194.1,1685.426,4196.532,1686.508,4193.416Z" fill="#1e5412" opacity="0.5"/>
              <path id="Path_17031" data-name="Path 17031" d="M1695.234,4185.025c-.132-2.1-9.78-3.1-9.664-1.244C1685.741,4186.546,1695.53,4189.789,1695.234,4185.025Z" fill="#1e5412" opacity="0.5"/>
              <path id="Path_17032" data-name="Path 17032" d="M1633.545,4187.214a1.6,1.6,0,0,0,.141-.564l-1.65.133C1632.077,4187.479,1633.195,4188.029,1633.545,4187.214Z" fill="#1e5412" opacity="0.5"/>
              <path id="Path_17033" data-name="Path 17033" d="M1619.676,4263.676a33.249,33.249,0,0,0,4.444-.326C1622.614,4262.8,1620.7,4262.819,1619.676,4263.676Z" fill="#1e5412" opacity="0.5"/>
              <path id="Path_17034" data-name="Path 17034" d="M1590.6,4195.031c1.426-2.818-11.334-5.842-10.933.59C1579.885,4199.057,1589.417,4197.366,1590.6,4195.031Z" fill="#1e5412" opacity="0.5"/>
              <path id="Path_17035" data-name="Path 17035" d="M1690.827,4193.562c.187,2.966,8.757,4.773,8.634,2.816C1699.313,4193.975,1690.563,4189.306,1690.827,4193.562Z" fill="#1e5412" opacity="0.5"/>
              <path id="Path_17036" data-name="Path 17036" d="M1623.359,4246.478c.365-1.045-11.355-2.827-11.076,1.666C1612.54,4252.283,1622.4,4249.249,1623.359,4246.478Z" fill="#1e5412" opacity="0.5"/>
              <path id="Path_17037" data-name="Path 17037" d="M1608.027,4260.307c.106,1.724,3.337,3.535,3.167.789C1611.057,4258.885,1607.873,4257.016,1608.027,4260.307Z" fill="#1e5412" opacity="0.5"/>
              <path id="Path_17038" data-name="Path 17038" d="M1610.609,4238.157c.05.776,1.873.769,2.4.353C1612.6,4237.011,1610.4,4234.719,1610.609,4238.157Z" fill="#1e5412" opacity="0.5"/>
              <path id="Path_17039" data-name="Path 17039" d="M1699.394,4187.52c-.2-.973-1.375.118-1.336.772C1698.124,4189.327,1699.671,4188.819,1699.394,4187.52Z" fill="#1e5412" opacity="0.5"/>
              <path id="Path_17040" data-name="Path 17040" d="M1654.875,4247.5c.382-.293.76-.586,1.137-.873A3.878,3.878,0,0,0,1654.875,4247.5Z" fill="#1e5412" opacity="0.5"/>
              <path id="Path_17041" data-name="Path 17041" d="M1660.566,4223.026c.78-1.126-2.376-2.455-3.251-1.574-1.894,1.893-4.466-.8-6.362.836C1651.574,4224.964,1659.009,4225.255,1660.566,4223.026Z" fill="#1e5412" opacity="0.5"/>
              <path id="Path_17042" data-name="Path 17042" d="M1650.618,4240.351c.4,2.283,9.416.782,10.571-.878C1660.778,4233.662,1652.059,4236.622,1650.618,4240.351Z" fill="#1e5412" opacity="0.5"/>
              <path id="Path_17043" data-name="Path 17043" d="M1669.63,4236.446c-.316-1.623-2.524-.98-2.775.565a1.444,1.444,0,0,0,.388,1.382c.822-.527,1.635-1.019,2.439-1.468A2.793,2.793,0,0,0,1669.63,4236.446Z" fill="#1e5412" opacity="0.5"/>
              <path id="Path_17044" data-name="Path 17044" d="M1639.691,4235.513c.319,5.159,11.493,2,11.953-1.793C1651.785,4231.732,1639.39,4230.678,1639.691,4235.513Z" fill="#1e5412" opacity="0.5"/>
              <path id="Path_17045" data-name="Path 17045" d="M1637.2,4252.987c.313,5.026,9.9-1.248,9.379-2.109C1645.042,4248.351,1637.812,4249.5,1637.2,4252.987Z" fill="#1e5412" opacity="0.5"/>
              <path id="Path_17046" data-name="Path 17046" d="M1610.08,4215.058c-.126-2.017-2.756-1.2-2.638.663C1607.546,4217.435,1610.192,4216.9,1610.08,4215.058Z" fill="#1e5412" opacity="0.5"/>
              <path id="Path_17047" data-name="Path 17047" d="M1570.568,4217.741c.281,1.294.595,2.609.938,3.934.943-.9,1.532-2.243.73-3.407A1.253,1.253,0,0,0,1570.568,4217.741Z" fill="#1e5412" opacity="0.5"/>
              <path id="Path_17048" data-name="Path 17048" d="M1572.268,4207.989c.24,3.842,5.3,2.19,5.055-1.677C1577.109,4202.859,1572.073,4204.814,1572.268,4207.989Z" fill="#1e5412" opacity="0.5"/>
              <path id="Path_17049" data-name="Path 17049" d="M1579.819,4241.88a53.963,53.963,0,0,0,3.144,4.565c3.5.618,8.194-.329,8.007-3.317C1590.927,4242.41,1582.172,4239.273,1579.819,4241.88Z" fill="#1e5412" opacity="0.5"/>
              <path id="Path_17050" data-name="Path 17050" d="M1580.384,4215.923c.125,2.015,3.762,2.812,3.618.509C1583.862,4214.2,1580.2,4213.042,1580.384,4215.923Z" fill="#1e5412" opacity="0.5"/>
              <path id="Path_17051" data-name="Path 17051" d="M1575.421,4198.181c-.119-1.9-2.653-.075-2.55,1.559S1575.508,4199.534,1575.421,4198.181Z" fill="#1e5412" opacity="0.5"/>
              <path id="Path_17052" data-name="Path 17052" d="M1590.7,4204.305c-.186-2.977-9.654-3.933-9.369.65C1581.6,4209.294,1590.764,4205.337,1590.7,4204.305Z" fill="#1e5412" opacity="0.5"/>
              <path id="Path_17053" data-name="Path 17053" d="M1586.246,4234c-.474-.177-.756.042-.855.661C1585.466,4235.851,1586.961,4234.46,1586.246,4234Z" fill="#1e5412" opacity="0.5"/>
              <path id="Path_17054" data-name="Path 17054" d="M1599,4252.235c-1.7-1.443-6.5-4.3-6.1,1.287.313,5.039,8.56,4.67,11.113,1.37C1606.386,4251.813,1599.748,4252.868,1599,4252.235Z" fill="#1e5412" opacity="0.5"/>
              <path id="Path_17055" data-name="Path 17055" d="M1603.369,4245.222c2.144-2.75-2.022-1.921-1.961-.93C1601.494,4245.677,1602.014,4246.966,1603.369,4245.222Z" fill="#1e5412" opacity="0.5"/>
              <path id="Path_17056" data-name="Path 17056" d="M1597.933,4232.6c-1.655-.919-4.708-1.792-4.622,1.77.151,2.412,12.484,5.171,12.232,1.1C1605.433,4233.731,1599.336,4233.381,1597.933,4232.6Z" fill="#1e5412" opacity="0.5"/>
              <path id="Path_17057" data-name="Path 17057" d="M1586.306,4222.716c-1.935.275-9.288-1.2-9.025,3.021.367,5.9,11.52,2.315,14.037-.409C1594.131,4222.286,1587.213,4222.586,1586.306,4222.716Z" fill="#1e5412" opacity="0.5"/>
              <path id="Path_17058" data-name="Path 17058" d="M1738.621,4204.314c.459.055,5.719-.911,4.152-1.841a7.034,7.034,0,0,0-2.073-.638l-5.732,3.171A13.875,13.875,0,0,1,1738.621,4204.314Z" fill="#1e5412" opacity="0.5"/>
              <path id="Path_17059" data-name="Path 17059" d="M1679.2,4236.486a1.584,1.584,0,0,0-.1-.571l-1.448.8C1677.974,4237.333,1679.22,4237.373,1679.2,4236.486Z" fill="#1e5412" opacity="0.5"/>
              <path id="Path_17060" data-name="Path 17060" d="M1685.246,4253.6c-1.885-3.557-7.968.373-6.672,2.818C1679.575,4258.3,1686.614,4256.179,1685.246,4253.6Z" fill="#1e5412" opacity="0.5"/>
              <path id="Path_17061" data-name="Path 17061" d="M1725.488,4220.744c1,1.891,4.82,2.832,4.52-.454C1729.792,4217.9,1724.312,4218.525,1725.488,4220.744Z" fill="#1e5412" opacity="0.5"/>
              <path id="Path_17062" data-name="Path 17062" d="M1727.811,4237.865c.894,1.689,4.981-.932,5.237-2.3C1733.711,4231.977,1725.567,4233.631,1727.811,4237.865Z" fill="#1e5412" opacity="0.5"/>
              <path id="Path_17063" data-name="Path 17063" d="M1734.5,4209.048c-.989-1.862-10.19,1.205-9.318,2.853C1726.476,4214.349,1736.731,4213.266,1734.5,4209.048Z" fill="#1e5412" opacity="0.5"/>
              <path id="Path_17064" data-name="Path 17064" d="M1690.165,4241.364c-1.062-2-6.574-.612-5.313,1.772C1686.027,4245.348,1691.406,4243.707,1690.165,4241.364Z" fill="#1e5412" opacity="0.5"/>
              <path id="Path_17065" data-name="Path 17065" d="M1736.184,4229.926c.836,1.58,2.913.1,2.078-1.476S1735.348,4228.35,1736.184,4229.926Z" fill="#1e5412" opacity="0.5"/>
              <path id="Path_17066" data-name="Path 17066" d="M1734,4218.643c1.393,2.624,9.946.735,9.027-1C1741.9,4215.519,1732.007,4214.874,1734,4218.643Z" fill="#1e5412" opacity="0.5"/>
              <path id="Path_17067" data-name="Path 17067" d="M1742.883,4227.407c1.365,2.576,11.061-2.748,11.376-5.021.2-1.461-5.458.6-6.692.444C1745.926,4222.63,1741.11,4224.061,1742.883,4227.407Z" fill="#1e5412" opacity="0.5"/>
              <path id="Path_17068" data-name="Path 17068" d="M1739.315,4209.6c-.585-.8-1.2.675-.9,1.254C1738.9,4211.775,1740.1,4210.675,1739.315,4209.6Z" fill="#1e5412" opacity="0.5"/>
              <path id="Path_17069" data-name="Path 17069" d="M1705.444,4253.415c1.468,1.125,8.943-3.207,7.842-5.46C1711.479,4247.506,1704.575,4249.815,1705.444,4253.415Z" fill="#1e5412" opacity="0.5"/>
              <path id="Path_17070" data-name="Path 17070" d="M1752.18,4208.481c-1.166-2.039-10.618-3.133-8.492.88C1744.752,4211.369,1751.777,4210.68,1752.18,4208.481Z" fill="#1e5412" opacity="0.5"/>
              <path id="Path_17071" data-name="Path 17071" d="M1751.652,4201.047c1.35.985,4.658,4.364,5.4.619a1.161,1.161,0,0,0-.013-.509,26.622,26.622,0,0,0-6.718-2.163c-1.61.073-2.8.432-2.471,1.04C1749.123,4202.449,1750.01,4199.843,1751.652,4201.047Z" fill="#1e5412" opacity="0.5"/>
              <path id="Path_17072" data-name="Path 17072" d="M1689.807,4232.729a3.264,3.264,0,0,0-2.7-1.244l-1.313.726a1.675,1.675,0,0,0,.25,1.171C1687.179,4235.527,1690.144,4233.367,1689.807,4232.729Z" fill="#1e5412" opacity="0.5"/>
              <path id="Path_17073" data-name="Path 17073" d="M1657.948,4249.685c.725,1.375,2.658,2.419,3.954,1.976,1.162-.4.546-1.724,1.011-2.65C1664.133,4246.6,1656.558,4247.064,1657.948,4249.685Z" fill="#1e5412" opacity="0.5"/>
              <path id="Path_17074" data-name="Path 17074" d="M1661.129,4275.282c1.878-4.635-13.282-3.174-10.091,2.845C1653.143,4282.1,1659.9,4278.321,1661.129,4275.282Z" fill="#1e5412" opacity="0.5"/>
              <path id="Path_17075" data-name="Path 17075" d="M1708.2,4226.854c-1.258-2.371-6.744-.4-5.3,2.324C1704.184,4231.6,1709.494,4229.294,1708.2,4226.854Z" fill="#1e5412" opacity="0.5"/>
              <path id="Path_17076" data-name="Path 17076" d="M1652.819,4261.071c-.83-1.568-2.9-.1-2.067,1.471S1653.65,4262.638,1652.819,4261.071Z" fill="#1e5412" opacity="0.5"/>
              <path id="Path_17077" data-name="Path 17077" d="M1677.151,4246.321c-1.8-3.385-8.8.45-7.637,2.653C1671.214,4252.184,1678.855,4249.538,1677.151,4246.321Z" fill="#1e5412" opacity="0.5"/>
              <path id="Path_17078" data-name="Path 17078" d="M1716.8,4223.7c-.548.151-1.357.556-.938,1.35C1717.268,4227.691,1717.813,4223.935,1716.8,4223.7Z" fill="#1e5412" opacity="0.5"/>
              <path id="Path_17079" data-name="Path 17079" d="M1712.1,4235.5c1.211,2.283,6.7-.884,4.649-2.149C1715.327,4232.468,1710.246,4232,1712.1,4235.5Z" fill="#1e5412" opacity="0.5"/>
              <path id="Path_17080" data-name="Path 17080" d="M1652.291,4250.744l-5.8,3.21C1647.979,4254.53,1650.735,4252.691,1652.291,4250.744Z" fill="#1e5412" opacity="0.5"/>
              <path id="Path_17081" data-name="Path 17081" d="M1729.824,4226.976c-.718-1.358-10.213-.389-8.471,3.608C1723.077,4233.835,1731.017,4229.224,1729.824,4226.976Z" fill="#1e5412" opacity="0.5"/>
              <path id="Path_17082" data-name="Path 17082" d="M1696.467,4233.2c2.231,4.207,4.116-.685,2.165-.928C1697.388,4232.117,1696.513,4231.96,1696.467,4233.2Z" fill="#1e5412" opacity="0.5"/>
              <path id="Path_17083" data-name="Path 17083" d="M1693.882,4247.441c.005.355.012.715.018,1.073a1.165,1.165,0,0,0,1.712.162C1695.286,4248.261,1694.409,4246.555,1693.882,4247.441Z" fill="#1e5412" opacity="0.5"/>
              <path id="Path_17084" data-name="Path 17084" d="M1670.426,4259.28c1.435-3.749-5.508-1.828-6.3-1.453-2.2,1.039-8.486.11-6.086,4.64C1659.806,4265.8,1669.137,4262.657,1670.426,4259.28Z" fill="#1e5412" opacity="0.5"/>
              <path id="Path_17085" data-name="Path 17085" d="M1667.181,4273.222c.8,1.518,2.991-.062,2.13-1.693C1668.364,4269.744,1666.305,4271.572,1667.181,4273.222Z" fill="#1e5412" opacity="0.5"/>
              <path id="Path_17086" data-name="Path 17086" d="M1662.318,4284.56c.488.926,2.52.733,1.831-.568C1663.448,4282.67,1662.451,4283.691,1662.318,4284.56Z" fill="#1e5412" opacity="0.5"/>
              <path id="Path_17087" data-name="Path 17087" d="M1760.638,4209.718q-.195-1.218-.435-2.37a1.7,1.7,0,0,0-.616,2.211C1759.749,4209.867,1760.2,4209.881,1760.638,4209.718Z" fill="#1e5412" opacity="0.5"/>
              <path id="Path_17088" data-name="Path 17088" d="M1698.106,4311.862a33.41,33.41,0,0,0,3.913-2.13C1700.421,4309.854,1698.69,4310.656,1698.106,4311.862Z" fill="#1e5412" opacity="0.5"/>
              <path id="Path_17089" data-name="Path 17089" d="M1699.742,4299.489c-1.339,1.168-5.92,1.37-4.07,4.863,2.027,3.823,10.954-3.493,9.352-6.514C1703.274,4294.533,1701.121,4298.294,1699.742,4299.489Z" fill="#1e5412" opacity="0.5"/>
              <path id="Path_17090" data-name="Path 17090" d="M1709.659,4294.9c2.358,4.449,8.5-5.22,7.674-5.79C1714.893,4287.438,1708.782,4291.472,1709.659,4294.9Z" fill="#1e5412" opacity="0.5"/>
              <path id="Path_17091" data-name="Path 17091" d="M1684.964,4300.762c1.942,3.665,9.67-3.166,9.4-6.087C1694.269,4293.574,1682.857,4296.783,1684.964,4300.762Z" fill="#1e5412" opacity="0.5"/>
              <path id="Path_17092" data-name="Path 17092" d="M1675.639,4301.777c.819-3.39-2.634-.916-2.17-.039C1674.119,4302.965,1675.124,4303.924,1675.639,4301.777Z" fill="#1e5412" opacity="0.5"/>
              <path id="Path_17093" data-name="Path 17093" d="M1724.174,4281.341a3.892,3.892,0,0,0-.676,1.265C1723.725,4282.182,1723.948,4281.759,1724.174,4281.341Z" fill="#1e5412" opacity="0.5"/>
              <path id="Path_17094" data-name="Path 17094" d="M1679.32,4292.354c.365.687,2.023-.071,2.328-.666C1680.664,4290.487,1677.707,4289.31,1679.32,4292.354Z" fill="#1e5412" opacity="0.5"/>
              <path id="Path_17095" data-name="Path 17095" d="M1674.549,4309.969c-2.142-.615-7.695-1.24-5.03,3.69,2.363,4.461,9.724.723,10.689-3.336C1681.1,4306.536,1675.494,4310.236,1674.549,4309.969Z" fill="#1e5412" opacity="0.5"/>
              <path id="Path_17096" data-name="Path 17096" d="M1675.934,4278.465c-1.807-.68-5.85-.792-3.984,2.869,2.291,4.324,11.109.4,9.541-2.56C1680.117,4276.234,1677.822,4279.174,1675.934,4278.465Z" fill="#1e5412" opacity="0.5"/>
              <path id="Path_17097" data-name="Path 17097" d="M1686.1,4313.6c.808,1.526,4.5,1.843,3.211-.588C1688.278,4311.052,1684.606,4310.663,1686.1,4313.6Z" fill="#1e5412" opacity="0.5"/>
              <path id="Path_17098" data-name="Path 17098" d="M1711.352,4285.067c-1.082-2.043-9.191.81-7.923,3.205C1705.328,4291.849,1712.3,4286.847,1711.352,4285.067Z" fill="#1e5412" opacity="0.5"/>
              <path id="Path_17099" data-name="Path 17099" d="M1716.673,4277.851c1.309,1.914,8.9-3.171,9.267-5.16C1723.169,4267.567,1716.447,4273.859,1716.673,4277.851Z" fill="#1e5412" opacity="0.5"/>
              <path id="Path_17100" data-name="Path 17100" d="M1752.568,4230.674c-.244.172-1.348-.827-1.9-.434-1.289.912-1.574,2.2-3.289,2.447-2.1.3-7.789.675-5.365,5.248,1.5,2.834,5.163-.356,5.933-2.142.907-2.106.759-1.965,2.718-3.3C1751.045,4232.236,1752.507,4231.436,1752.568,4230.674Z" fill="#1e5412" opacity="0.5"/>
              <path id="Path_17101" data-name="Path 17101" d="M1753.881,4237.984c-.794,1.606-.114,2.051-1.761,2.437-.847.2-3.243.3-2.442,1.808a3.356,3.356,0,0,0,2.6,1.889,62.424,62.424,0,0,0,5.342-9.422A10.934,10.934,0,0,0,1753.881,4237.984Z" fill="#1e5412" opacity="0.5"/>
              <path id="Path_17102" data-name="Path 17102" d="M1750.52,4216.526c.525.989,8.188.3,7.006-1.927C1757.44,4214.435,1749.811,4215.186,1750.52,4216.526Z" fill="#1e5412" opacity="0.5"/>
              <path id="Path_17103" data-name="Path 17103" d="M1759.786,4228.794c.309-1.087.578-2.176.779-3.27-1.075,1.227-1.984,2.553-1.932,2.928C1758.854,4228.869,1759.277,4228.94,1759.786,4228.794Z" fill="#1e5412" opacity="0.5"/>
              <path id="Path_17104" data-name="Path 17104" d="M1745.948,4248.425c-2.886-1.4-1.554,2.853-3.121,2.72-1.665-.143-3.051,2.228-3.733,3.556C1740.294,4256.965,1750.416,4250.591,1745.948,4248.425Z" fill="#1e5412" opacity="0.5"/>
              <path id="Path_17105" data-name="Path 17105" d="M1728.983,4255.761c-1.48-.134-3.1,1.924-4,3.014-.715.868-7.016,5.424-6.548,6.3,1.226,2.317,7.219,1,8.685.041,1.62-1.059,1.266-3.634.451-5.295-.484-.984,1.12-1.667,1.466-1.984C1729.432,4257.472,1730.11,4255.864,1728.983,4255.761Z" fill="#1e5412" opacity="0.5"/>
              <path id="Path_17106" data-name="Path 17106" d="M1729.828,4248.08c1.177,2.223,3.145,2.222,4.578.574,1.119-1.291,4.907-4.391,5.007-6.357C1739.723,4236.319,1727.81,4244.272,1729.828,4248.08Z" fill="#1e5412" opacity="0.5"/>
              <path id="Path_17107" data-name="Path 17107" d="M1730.086,4268.111a1.445,1.445,0,0,0,.924,1.1c.531-.819,1.069-1.6,1.616-2.343a2.781,2.781,0,0,0-.245-.416C1731.424,4265.1,1729.678,4266.6,1730.086,4268.111Z" fill="#1e5412" opacity="0.5"/>
              <path id="Path_17108" data-name="Path 17108" d="M1732.445,4258.051c.825,1.554,2.88.094,2.056-1.465S1731.62,4256.492,1732.445,4258.051Z" fill="#1e5412" opacity="0.5"/>
              <path id="Path_17109" data-name="Path 17109" d="M1701.077,4271.428c1.011-3.032-3.8-1.812-2.74.19A1.49,1.49,0,0,0,1701.077,4271.428Z" fill="#1e5412" opacity="0.5"/>
              <path id="Path_17110" data-name="Path 17110" d="M1706.444,4243.471c-1.174-2.212-6.836-.47-5.94,1.225C1701.63,4246.818,1707.2,4244.9,1706.444,4243.471Z" fill="#1e5412" opacity="0.5"/>
              <path id="Path_17111" data-name="Path 17111" d="M1673.6,4292c-.817-1.539-6.516.657-8.116.525-1.887-.154-5.028.31-3.481,3.519C1663.133,4298.174,1675.506,4295.6,1673.6,4292Z" fill="#1e5412" opacity="0.5"/>
              <path id="Path_17112" data-name="Path 17112" d="M1721.653,4239.756c.416-1.818-5.057-1.531-3.9.646C1718.487,4241.793,1721.33,4241.2,1721.653,4239.756Z" fill="#1e5412" opacity="0.5"/>
              <path id="Path_17113" data-name="Path 17113" d="M1702.526,4257.705c1.116-4.729-8.047-.765-6.743,1.7C1697.033,4261.761,1702,4259.933,1702.526,4257.705Z" fill="#1e5412" opacity="0.5"/>
              <path id="Path_17114" data-name="Path 17114" d="M1718.588,4257.966c.247-1.348-3.176-1.257-3.61-.094-.944,2.5-4.4,1.113-5.451,3.386C1711.2,4263.44,1718.09,4260.637,1718.588,4257.966Z" fill="#1e5412" opacity="0.5"/>
              <path id="Path_17115" data-name="Path 17115" d="M1688.9,4263.439c-1.643-3.1-4.824.606-6.738.524-2.179-.092-8.29-.246-5.836,4.387C1679.01,4273.413,1690.749,4266.932,1688.9,4263.439Z" fill="#1e5412" opacity="0.5"/>
              <path id="Path_17116" data-name="Path 17116" d="M1723.847,4246.948c-1.427-2.62-5.238,2-4.294,3.789C1720.307,4252.159,1725.258,4249.538,1723.847,4246.948Z" fill="#1e5412" opacity="0.5"/>
              <path id="Path_17117" data-name="Path 17117" d="M1698.535,4280.5c-1.32-2.5-12.59.311-10.257,4.712C1690.546,4289.5,1699.142,4281.643,1698.535,4280.5Z" fill="#1e5412" opacity="0.5"/>
              <path id="Path_17118" data-name="Path 17118" d="M1699.445,4291.029c.243-2.193-2.7-1.064-1.937.374C1697.9,4292.151,1699.408,4292.014,1699.445,4291.029Z" fill="#1e5412" opacity="0.5"/>
              <path id="Path_17119" data-name="Path 17119" d="M1692.106,4272.818c-.971-1.831-3.074.187-2.328,1.594C1690.643,4276.046,1693.024,4274.548,1692.106,4272.818Z" fill="#1e5412" opacity="0.5"/>
              <path id="Path_17120" data-name="Path 17120" d="M1714.871,4271.387c-.69-1.869-12.417,2.283-10.149,6.563C1707.141,4282.519,1716.017,4275.032,1714.871,4271.387Z" fill="#1e5412" opacity="0.5"/>
              <path id="Path_17121" data-name="Path 17121" d="M1646.121,4283.537c-1.047-1.973-4.858-1.521-3.506,1.029C1643.56,4286.35,1647.2,4285.576,1646.121,4283.537Z" fill="#1e5412" opacity="0.5"/>
              <path id="Path_17122" data-name="Path 17122" d="M1656.455,4288.624c1.308-3.931-4.87-.8-5.643-.312-1.649,1.048-8.955,2.741-6.976,6.474C1646.6,4300.008,1655.286,4292.144,1656.455,4288.624Z" fill="#1e5412" opacity="0.5"/>
              <path id="Path_17123" data-name="Path 17123" d="M1647.221,4269.727c-1.4-2.635-10.417.4-8.267,4.457C1640.989,4278.026,1647.7,4270.641,1647.221,4269.727Z" fill="#1e5412" opacity="0.5"/>
              <path id="Path_17124" data-name="Path 17124" d="M1652.807,4308.446a54.219,54.219,0,0,0,4.747,2.862c3.444-.882,7.328-3.68,5.926-6.325C1663.145,4304.347,1653.875,4305.1,1652.807,4308.446Z" fill="#1e5412" opacity="0.5"/>
              <path id="Path_17125" data-name="Path 17125" d="M1654.9,4299.566c.561,1.058,1.349-.826.506-.955C1654.905,4298.646,1654.738,4298.961,1654.9,4299.566Z" fill="#1e5412" opacity="0.5"/>
              <path id="Path_17126" data-name="Path 17126" d="M1635.863,4277.073c-1.619-3.057-5.4.8-3.914,3.613C1633.753,4284.087,1637.678,4280.5,1635.863,4277.073Z" fill="#1e5412" opacity="0.5"/>
              <path id="Path_17127" data-name="Path 17127" d="M1633.591,4266.367c1.613,3.041,9.6-2.431,9.717-5.048C1643.444,4258.164,1630.573,4260.672,1633.591,4266.367Z" fill="#1e5412" opacity="0.5"/>
              <path id="Path_17128" data-name="Path 17128" d="M1629.1,4272.922c.759,1.436,2.316-1.275,1.679-2.471C1629.883,4268.766,1628.329,4271.477,1629.1,4272.922Z" fill="#1e5412" opacity="0.5"/>
              <path id="Path_17129" data-name="Path 17129" d="M1636.16,4290.063a1.254,1.254,0,0,0-1.737.208q1.185,1.594,2.477,3.2C1637.387,4292.257,1637.37,4290.793,1636.16,4290.063Z" fill="#1e5412" opacity="0.5"/>
              <path id="Path_17130" data-name="Path 17130" d="M1712.636,4217.36c2.05,2.432,9.108,2.048,7.494-.995-.448-.845-1.7-1.3-3.085-1.444Z" fill="#1e5412" opacity="0.5"/>
            </g>
          </g>
        </g>
        <g id="Group_7221" data-name="Group 7221" opacity="0.6" style="mix-blend-mode: multiply;isolation: isolate">
          <path id="Path_17132" data-name="Path 17132" d="M1708.518,4238.54a39.061,39.061,0,0,0-10.332-20.553c.062.288.141.567.194.86,2.407,13.307-4.745,26.722-20.047,28.009-12.779,1.115-24.326-7.047-25.943-20.4a25.136,25.136,0,0,1,.968-10.536,37.473,37.473,0,0,0-13.943,34.05c2.429,20.07,19.779,32.334,38.981,30.659C1701.389,4278.691,1712.134,4258.534,1708.518,4238.54Z" fill="#01cb2d"/>
        </g>
        <g id="Group_7222" data-name="Group 7222" opacity="0.6" style="mix-blend-mode: multiply;isolation: isolate">
          <path id="Path_17133" data-name="Path 17133" d="M1708.518,4238.54c-3.6-19.876-19.8-32.987-38.889-29.833-19.031,3.148-32.647,21.189-30.214,41.259s19.779,32.334,38.982,30.659C1701.389,4278.691,1712.135,4258.534,1708.518,4238.54Zm-31.225,30.452c-16.1,1.4-30.639-8.877-32.676-25.7s9.374-31.946,25.326-34.585c16.005-2.644,29.579,8.346,32.6,25.007C1705.574,4250.474,1696.566,4267.37,1677.293,4268.992Z" fill="#01cb2d"/>
        </g>
        <ellipse id="Ellipse_936" data-name="Ellipse 936" cx="9.612" cy="5.997" rx="9.612" ry="5.997" transform="translate(1665.603 4213.387)" fill="#8cc63f" style="mix-blend-mode: screen;isolation: isolate"/>
        <g id="Group_7223" data-name="Group 7223">
          <path id="Path_17134" data-name="Path 17134" d="M1675.254,4208.239c16.577,0,30.021,12.41,33.264,30.3,3.617,19.994-7.129,40.151-30.122,42.085q-1.755.153-3.485.152c-17.774,0-33.215-11.965-35.5-30.811-2.433-20.07,11.183-38.111,30.213-41.259a34.519,34.519,0,0,1,5.626-.468m0-9.6a44.223,44.223,0,0,0-7.19.6,45.576,45.576,0,0,0-29.311,18.049,47.143,47.143,0,0,0-8.868,33.836,44.113,44.113,0,0,0,15.3,28.669,46.2,46.2,0,0,0,29.731,10.587c1.431,0,2.885-.063,4.32-.189,12.493-1.05,23.327-6.766,30.475-16.093,7.712-10.062,10.722-23.644,8.259-37.264-4.077-22.488-21.64-38.191-42.712-38.191Z" fill="#fff"/>
          <path id="Path_17135" data-name="Path 17135" d="M1675.254,4208.239c16.577,0,30.021,12.41,33.264,30.3,3.617,19.994-7.129,40.151-30.122,42.085q-1.755.153-3.485.152c-17.774,0-33.215-11.965-35.5-30.811-2.433-20.07,11.183-38.111,30.213-41.259a34.519,34.519,0,0,1,5.626-.468m0-8a42.721,42.721,0,0,0-6.929.575,43.986,43.986,0,0,0-28.285,17.422,45.55,45.55,0,0,0-8.566,32.693,42.522,42.522,0,0,0,14.735,27.636,44.6,44.6,0,0,0,28.7,10.212c1.385,0,2.792-.061,4.181-.183,12.218-1.027,22.374-6.378,29.344-15.472,7.439-9.705,10.338-22.829,7.954-36.006-3.936-21.714-20.851-36.877-41.137-36.877Z"/>
        </g>
      </g>
    </g>
  </g>
</svg>
