<svg xmlns="http://www.w3.org/2000/svg" xmlns:xlink="http://www.w3.org/1999/xlink" width="1020.597" height="139.54" viewBox="0 0 1020.597 139.54">
  <defs>
    <clipPath id="clip-path">
      <path id="Path_16478" data-name="Path 16478" d="M1196.635,4273.092a6.624,6.624,0,0,0-2.754-3.868c-.186-.14-.388-.283-.606-.438a7.393,7.393,0,0,0-1.508-.939,58.9,58.9,0,0,0-10.241-4.438c-1.29-.464-2.624-.943-3.894-1.443a62.093,62.093,0,0,1-6.517-2.968,28.8,28.8,0,0,0,9.271-8.554,32.166,32.166,0,0,0,3.463-4.2,35.088,35.088,0,0,0,5.559-12.653,44.76,44.76,0,0,0,.167-17.438,41.791,41.791,0,0,0-5.957-15.461c-3.544-5.34-8.269-8.857-13.662-10.17a21.205,21.205,0,0,0-5.018-.589,27.582,27.582,0,0,0-8.684,1.5,33.11,33.11,0,0,0-17.184,12.458c-5.94,6.109-9.75,14.855-10.936,24.965-1.673.2-4,1.18-5.588,4.688-1.49.871-3.021,2.6-4,5.936a27.91,27.91,0,0,0-.8,9.03,64.307,64.307,0,0,0,1.183,9.386,106.208,106.208,0,0,0,5.237,17.981,73.419,73.419,0,0,0,3.942,8.649c1.468,2.693,3.257,5.737,5.927,7.8a6.481,6.481,0,0,0,3.934,1.548,4.782,4.782,0,0,0,.648-.043,6.231,6.231,0,0,0,4.153-2.483,9.5,9.5,0,0,0,1.161-2.1,6.327,6.327,0,0,0,2.089-1.8c2-2.705,2.178-6.218,2.32-9.041l.028-.552c.035-.652.047-1.321.059-1.969.007-.419.016-.84.03-1.258a15.429,15.429,0,0,1,1.872,3.719l.21.525.127.315a73.774,73.774,0,0,0,3.668,8.117c3.16,5.735,6.964,9.213,11.3,10.338a12.093,12.093,0,0,0,3.034.372,19.781,19.781,0,0,0,6.665-1.325,34.817,34.817,0,0,0,8.3-4.44,31.567,31.567,0,0,0,6.7-6.267c.321-.412.658-.865.988-1.351a27.094,27.094,0,0,0,2.262-2.549C1195.287,4279.906,1197.447,4276.6,1196.635,4273.092Zm-43.207-26.645a4.784,4.784,0,0,1-.863.078,7.546,7.546,0,0,1-5.363-2.687,3.273,3.273,0,0,1-1.082-2.259c.059-.088.186-.246.275-.355s.187-.233.276-.35c.18-.236.349-.454.521-.675a24.418,24.418,0,0,1,1.816-1.8,5.544,5.544,0,0,1,3.3-1.679c.075,0,.15,0,.223.011,2.076.218,2.757,3.283,2.827,4.873a9.329,9.329,0,0,1-1.112,4.515A3.347,3.347,0,0,1,1153.428,4246.447Z"/>
    </clipPath>
    <linearGradient id="linear-gradient" x1="0.5" y1="-56.276" x2="0.5" y2="-3.812" gradientUnits="objectBoundingBox">
      <stop offset="0" stop-color="#00ffd5"/>
      <stop offset="1" stop-color="#01cb2d"/>
    </linearGradient>
    <linearGradient id="linear-gradient-2" x1="0.5" y1="0.119" x2="0.5" y2="0.741" xlink:href="#linear-gradient"/>
    <clipPath id="clip-path-2">
      <path id="Path_16484" data-name="Path 16484" d="M1137.854,4205.581a11.264,11.264,0,0,0-1.1-1.5,12.467,12.467,0,0,0-1.129-1.3,26.838,26.838,0,0,0-19.66-8.269l-.283,0a20.891,20.891,0,0,0-6.63,1.049,28.087,28.087,0,0,0-5.649,2.743,50.444,50.444,0,0,0-9.276,7.533,70.807,70.807,0,0,0-5.78,6.6,74.757,74.757,0,0,0-10.6,15.432c-4.345,8.383-6.665,16-7.092,23.3a38.146,38.146,0,0,0,6.451,23.453,53.071,53.071,0,0,0,17.291,16.017c5.6,3.3,14.2,7.266,23.389,7.379l.39,0c4.687,0,8.138-1.117,10.551-3.415a11.147,11.147,0,0,0,2.248-3.062,10.7,10.7,0,0,0,1-.838c2.933-2.794,4.253-7.338,3.621-12.466-.29-2.351-1.43-8.147-5.743-11.148A6.769,6.769,0,0,0,1126,4265.8l-.126,0a9.114,9.114,0,0,0-2.924.664c-.272.1-.529.189-.75.253-.941.272-1.924.5-2.934.685a33.614,33.614,0,0,0,3.385-2.522,38.467,38.467,0,0,0,6.063-6.586,45.158,45.158,0,0,0,7.941-11.844,61.772,61.772,0,0,0,5.638-19.8C1142.9,4220.752,1142.565,4212.487,1137.854,4205.581Zm-43.453,47.147q-.029-.282-.047-.573a16.068,16.068,0,0,1,1.005-6.571,15.86,15.86,0,0,1,1.077-2.3,6.915,6.915,0,0,1,4.078-1.831c.1,0,.211,0,.315.014a2.912,2.912,0,0,1,2.443,3.333h0v.017h0a7.444,7.444,0,0,1-1.163,3.361A21.274,21.274,0,0,1,1094.4,4252.728Z"/>
    </clipPath>
    <linearGradient id="linear-gradient-3" x1="0.5" y1="-5.188" x2="0.5" y2="27.075" xlink:href="#linear-gradient"/>
    <linearGradient id="linear-gradient-4" x1="0.5" y1="-0.025" x2="0.5" y2="0.635" xlink:href="#linear-gradient"/>
    <linearGradient id="linear-gradient-5" x1="0.507" y1="-392.926" x2="0.507" y2="183.331" xlink:href="#linear-gradient"/>
    <linearGradient id="linear-gradient-6" x1="0.5" y1="0.081" x2="0.5" y2="0.728" xlink:href="#linear-gradient"/>
    <linearGradient id="linear-gradient-7" x1="0.501" y1="-23.87" x2="0.501" y2="52.39" xlink:href="#linear-gradient"/>
    <linearGradient id="linear-gradient-8" x1="0.518" y1="-392.926" x2="0.518" y2="183.331" xlink:href="#linear-gradient"/>
    <linearGradient id="linear-gradient-10" x1="0.5" y1="-23.87" x2="0.5" y2="52.39" xlink:href="#linear-gradient"/>
    <clipPath id="clip-path-3">
      <path id="Path_16506" data-name="Path 16506" d="M1005.745,4199.694a13.185,13.185,0,0,0-3.065-3.384,6.789,6.789,0,0,0-.994-.708,5.959,5.959,0,0,0-1.226-.658,14.143,14.143,0,0,0-6.181-1.3,19.262,19.262,0,0,0-2.1.119,31.841,31.841,0,0,0-3.623.677c-.639.146-1.242.283-1.842.4a95.418,95.418,0,0,1-16.034,1.461q-1.265.021-2.531.02c-4.682,0-9.651-.2-15.636-.624-3.769-.268-7.608-.66-11.32-1.039-2.342-.239-4.764-.487-7.158-.7-1.18-.107-2.363-.16-3.515-.16a29.593,29.593,0,0,0-15.043,3.746,26.37,26.37,0,0,0-8.4,7.88,29.23,29.23,0,0,0-6.533,10.1,37.19,37.19,0,0,0-2.278,9.228,24.221,24.221,0,0,0,.493,9.92,10.186,10.186,0,0,0,6.091,6.894,11.036,11.036,0,0,0,3.836.661,15.961,15.961,0,0,0,6.257-1.391,22.433,22.433,0,0,0,4.174-2.364c.681-.486,1.3-1,1.905-1.49.533-.437,1.036-.849,1.547-1.22a23.6,23.6,0,0,1,6.578-3.36,25.907,25.907,0,0,1,7.876-1.294q.367,0,.729.012l.027.1c3.179,12.112-.972,24.619-4.986,36.714-.461,1.388-.919,2.767-1.362,4.135l-.133.409a15.176,15.176,0,0,0-1.051,5.985,11.323,11.323,0,0,0,2.708,6.333c2.8,3.433,6.767,5.488,9.909,6.9,6.761,3.027,14.61,4.958,24,5.9a74.529,74.529,0,0,0,7.483.433c1.275,0,2.51-.05,3.67-.146a6.516,6.516,0,0,0,5.713-4.58c3.923-2.009,4.229-7.767,4.356-10.161a64.968,64.968,0,0,0-.824-12.594c-.558-3.862-1.346-7.97-2.41-12.559-.986-4.253-2.068-8.425-3.217-12.4-.27-.932-.561-1.872-.842-2.781a44.787,44.787,0,0,1-2.06-8.524c-.028-.274-.043-.529-.052-.776.108-.006.215-.011.317-.012h.142a23.591,23.591,0,0,1,3.166.3c.333.047.665.093,1,.135a48.849,48.849,0,0,0,6.163.474,22.774,22.774,0,0,0,5.255-.561,12.26,12.26,0,0,0,8.247-6.26,12.758,12.758,0,0,0,3.863-5.174,27.9,27.9,0,0,0,1.882-10.314C1008.8,4207.082,1007.809,4202.912,1005.745,4199.694Z"/>
    </clipPath>
    <linearGradient id="linear-gradient-11" x1="0.5" y1="2.118" x2="0.5" y2="83.244" xlink:href="#linear-gradient"/>
    <linearGradient id="linear-gradient-12" x1="0.5" y1="0.029" x2="0.5" y2="0.675" xlink:href="#linear-gradient"/>
    <clipPath id="clip-path-4">
      <path id="Path_16514" data-name="Path 16514" d="M929.113,4239.785c-.249-1.493-.561-3.014-.927-4.52l-.007-.03-.008-.03-.024-.089c-.047-.206-.1-.423-.161-.654l-.011,0,0-.014.01,0c-.285-1.088-.478-1.82-.6-2.28a6.349,6.349,0,0,0-.345-1.035c-3.961-12.845-10.473-22.1-19.374-27.522a43.538,43.538,0,0,0-19.933-5.862c-1.463-.1-3.008-.146-4.721-.146-1.935,0-3.849.062-5.465.123-.965.036-1.961.051-2.924.066-.713.011-1.427.022-2.141.041a14.613,14.613,0,0,0-5.113.947,8.858,8.858,0,0,0-4.915,4.778,9.5,9.5,0,0,0-4.113,7.926,37.41,37.41,0,0,0-9.085,8.877,44.657,44.657,0,0,0-11.02,21.9,67.984,67.984,0,0,0-1,20.862c.769,7.536,2.3,13.189,4.81,17.789A29.648,29.648,0,0,0,857.11,4294.1c5.691,2.331,12.321,3.552,20.867,3.845,1.511.051,2.849.077,4.09.077,7.021,0,12.3-.824,17.125-2.671a42.008,42.008,0,0,0,16.446-11.588c.756-.863,1.46-1.766,2.141-2.687.376-.4.747-.8,1.109-1.213C927.92,4269.549,931.647,4254.943,929.113,4239.785Zm-63.881,22.278c.292-.362.561-.72.83-1.077.125-.134.251-.268.371-.4.675-.754,1.364-1.568,2.049-2.42a35.943,35.943,0,0,0,3.113-4.5,14.292,14.292,0,0,1,2.036,8.417h0l0,.016h0a12.821,12.821,0,0,1-.971,4.1,7.269,7.269,0,0,1-3.754,1.091,6.422,6.422,0,0,1-1.588-.2,4.48,4.48,0,0,1-2.848-1.885,2.36,2.36,0,0,1-.061-2.142C864.683,4262.734,864.958,4262.4,865.232,4262.063Z"/>
    </clipPath>
    <linearGradient id="linear-gradient-13" x1="0.5" y1="-0.125" x2="0.5" y2="0.549" xlink:href="#linear-gradient"/>
    <linearGradient id="linear-gradient-14" x1="0.501" y1="-52.882" x2="0.501" y2="17.391" xlink:href="#linear-gradient"/>
    <linearGradient id="linear-gradient-15" x1="0.5" y1="-14.843" x2="0.5" y2="6.21" xlink:href="#linear-gradient"/>
    <clipPath id="clip-path-5">
      <path id="Path_16522" data-name="Path 16522" d="M555.48,4239.785c-.25-1.493-.562-3.014-.927-4.52l-.008-.03-.008-.03-.023-.089c-.047-.206-.1-.423-.162-.654l-.01,0,0-.014.011,0c-.285-1.088-.478-1.82-.6-2.28a6.359,6.359,0,0,0-.346-1.035c-3.961-12.845-10.472-22.1-19.373-27.522a43.538,43.538,0,0,0-19.933-5.862c-1.464-.1-3.008-.146-4.721-.146-1.936,0-3.849.062-5.465.123-.965.036-1.961.051-2.924.066-.713.011-1.427.022-2.141.041a14.613,14.613,0,0,0-5.113.947,8.852,8.852,0,0,0-4.915,4.778,9.5,9.5,0,0,0-4.113,7.926,37.393,37.393,0,0,0-9.085,8.877,44.667,44.667,0,0,0-11.021,21.9,68.016,68.016,0,0,0-1,20.862c.768,7.536,2.3,13.189,4.809,17.789a29.65,29.65,0,0,0,15.069,13.187c5.691,2.331,12.321,3.552,20.867,3.845,1.511.051,2.849.077,4.09.077,7.021,0,12.3-.824,17.125-2.671a42.009,42.009,0,0,0,16.446-11.588c.756-.863,1.46-1.766,2.141-2.687.376-.4.747-.8,1.109-1.213C554.287,4269.549,558.014,4254.943,555.48,4239.785ZM491.6,4262.063c.292-.362.561-.72.83-1.077.125-.134.251-.268.371-.4.675-.754,1.364-1.568,2.049-2.42a35.83,35.83,0,0,0,3.112-4.5,14.286,14.286,0,0,1,2.037,8.417h0v.016h0a12.8,12.8,0,0,1-.97,4.1,7.272,7.272,0,0,1-3.754,1.091,6.416,6.416,0,0,1-1.588-.2,4.48,4.48,0,0,1-2.848-1.885,2.36,2.36,0,0,1-.061-2.142C491.049,4262.734,491.325,4262.4,491.6,4262.063Z"/>
    </clipPath>
    <linearGradient id="linear-gradient-17" x1="0.5" y1="-52.882" x2="0.5" y2="17.391" xlink:href="#linear-gradient"/>
    <linearGradient id="linear-gradient-18" x1="0.5" y1="-14.843" x2="0.5" y2="6.21" xlink:href="#linear-gradient"/>
    <clipPath id="clip-path-6">
      <path id="Path_16530" data-name="Path 16530" d="M1455.882,4219.938l0-.019-.005-.019-.006-.019c-.022-.094-.046-.184-.069-.27h0l-.005-.021h0l-.03-.111h0c-1.958-7.07-5.7-12.739-10.816-16.4a29.946,29.946,0,0,0-17.553-5.3,38,38,0,0,0-4.049.22,52.858,52.858,0,0,0-17.446,5.174,46.359,46.359,0,0,0-16.244,13.012c-.244.312-.472.64-.708.96-.782.835-1.535,1.7-2.25,2.588-.153-.159-.306-.324-.459-.472a11.626,11.626,0,0,0-3.915-2.639,6.413,6.413,0,0,0-2.229-.413,6.176,6.176,0,0,0-5.237,3.092,13.054,13.054,0,0,0-.814,1.545,6.754,6.754,0,0,0-2.436,2.355,20.222,20.222,0,0,0-2.482,7.914,57.149,57.149,0,0,0-.52,7.925,128.335,128.335,0,0,0,1.113,16.553c.657,5.33,1.541,10.817,2.628,16.308a55.64,55.64,0,0,0,5.054,15.406c3.183,5.958,7.391,9.585,12.168,10.488a12.523,12.523,0,0,0,2.323.219,13.876,13.876,0,0,0,11.7-6.975c.037-.06.071-.125.107-.186a14.829,14.829,0,0,0,3.143-3.714,37.492,37.492,0,0,0,5.3-17.956,37.805,37.805,0,0,0,4.436.271,33.8,33.8,0,0,0,11.612-2,38,38,0,0,0,17.269-13.349,43.366,43.366,0,0,0,8.824-14.046A33.192,33.192,0,0,0,1455.882,4219.938Zm-44.993,32.022a4.2,4.2,0,0,1-1.009.119,7.915,7.915,0,0,1-5.206-2.418,4.1,4.1,0,0,1-1.517-2.636v0a2.578,2.578,0,0,1,.163-.235c.267-.357.545-.72.829-1.086.574-.627,1.17-1.247,1.8-1.821,1.1-1,2.535-2.159,3.907-2.195h.08a1.92,1.92,0,0,1,1.52.648c1.022,1.1,1.472,3.393,1.427,5.283a4.613,4.613,0,0,0-.154,1.006,14.757,14.757,0,0,1-1.107,3.047A3.174,3.174,0,0,1,1410.889,4251.96Z"/>
    </clipPath>
    <linearGradient id="linear-gradient-19" x1="0.5" y1="0.017" x2="0.5" y2="0.692" xlink:href="#linear-gradient"/>
    <linearGradient id="linear-gradient-20" x1="0.502" y1="-42.479" x2="0.502" y2="99.973" xlink:href="#linear-gradient"/>
    <linearGradient id="linear-gradient-21" x1="0.499" y1="-54.625" x2="0.499" y2="24.815" xlink:href="#linear-gradient"/>
    <clipPath id="clip-path-7">
      <path id="Path_16538" data-name="Path 16538" d="M650.775,4269.692a71.9,71.9,0,0,0-4.132-16.273l-.043-.113c-.066-.184-.139-.379-.218-.589h0v0h0l-1.055-2.8a8.079,8.079,0,0,0-.517-1.176,108.735,108.735,0,0,0-6.991-14.036,70.871,70.871,0,0,0-13.445-16.948,30.712,30.712,0,0,0-9.82-6.233,14.351,14.351,0,0,0-4.77-.871,10.345,10.345,0,0,0-4.476.972,12.258,12.258,0,0,0-5.562,5.338c-5.819,4.6-5.832,13.512-5.836,18.047,0,3.408.2,6.828.392,10.136.238,4.048.485,8.234.34,12.3-.142,4-.637,8.908-2.962,12.99a10.057,10.057,0,0,1-3.157,1.716,6.791,6.791,0,0,1-2.047.323,4.947,4.947,0,0,1-4.024-1.87c-1.342-1.779-1.778-4.473-1.334-8.234.447-3.787,1.117-7.513,1.714-10.659.391-2.065.816-4.165,1.226-6.2,1.094-5.419,2.225-11.021,2.892-16.675a82.107,82.107,0,0,0,.662-11.791,32.676,32.676,0,0,0-1.658-10.306,10.7,10.7,0,0,0-3.495-5.18c-2.407-1.815-5.661-2.7-9.948-2.7-.3,0-.591,0-.882.011a41.6,41.6,0,0,0-21.535,7.269,38.436,38.436,0,0,0-10.036,9.52,29.774,29.774,0,0,0-7.008,11.149,35.121,35.121,0,0,0-1.251,15.3,69.723,69.723,0,0,0,6.454,21.466,94.166,94.166,0,0,0,11.352,18.335,71.083,71.083,0,0,0,7.435,8.1,35.362,35.362,0,0,0,8.594,6.149,21.427,21.427,0,0,0,9.435,1.853c.334,0,.666,0,1-.014a70.722,70.722,0,0,0,37.839-13.273c.4-.3.782-.6,1.165-.92a26.167,26.167,0,0,0,2.606,5.077,14.289,14.289,0,0,0,12.533,6.617c.23,0,.459,0,.689-.012a31.561,31.561,0,0,0,7.656-1.341,11.62,11.62,0,0,0,6.635-4.861c.224-.343.426-.7.617-1.054a11.513,11.513,0,0,0,2.633-2.846C651.623,4280.5,651.3,4274.091,650.775,4269.692Z"/>
    </clipPath>
    <linearGradient id="linear-gradient-22" x1="0.5" y1="-13.441" x2="0.5" y2="3.667" xlink:href="#linear-gradient"/>
    <linearGradient id="linear-gradient-23" x1="0.5" y1="-47.849" x2="0.5" y2="8.837" xlink:href="#linear-gradient"/>
    <linearGradient id="linear-gradient-24" x1="0.5" y1="0.002" x2="0.5" y2="0.686" xlink:href="#linear-gradient"/>
    <clipPath id="clip-path-8">
      <path id="Path_16548" data-name="Path 16548" d="M1381.439,4204.552c-1.954-4.314-5.492-7.822-10.518-10.429l-.187-.142-.319-.1a49.685,49.685,0,0,0-19.723-4.642h-.267a28.565,28.565,0,0,0-11.708,2.269,19.846,19.846,0,0,0-8.5,7.421,21.968,21.968,0,0,0-3.646,4.5c-3.721,6.034-5.659,15.048.061,22.252a24.774,24.774,0,0,0,9.649,7.034,43.244,43.244,0,0,0,11.448,3.289,32.319,32.319,0,0,0,4.572.336,27.186,27.186,0,0,0,3.832-.265l.2.176a9.192,9.192,0,0,0,2.579,1.581,16.859,16.859,0,0,1-9,2.258h-.148c-.381,0-.776-.019-1.193-.036-.485-.021-.987-.042-1.506-.042a11.8,11.8,0,0,0-2.69.271,7.506,7.506,0,0,0-5.286,4.292c-.08.168-.154.337-.228.506a7.7,7.7,0,0,0-3.022,3.394,27.682,27.682,0,0,0-1.8,5.62l-.136.559c-.577,2.366-1.085,4.3-1.6,6.088a111.668,111.668,0,0,0-2.862,12.773,59.653,59.653,0,0,0-1.005,13.673l.015.222c.117,1.746.294,4.384,1.971,6.135a8.4,8.4,0,0,0,3.225,1.877l.032.012a42.9,42.9,0,0,0,13.215,2.546c.678.029,1.307.044,1.922.044a28.838,28.838,0,0,0,5.042-.4l.138-.024c1.391-.243,3.98-.695,5.01-3.212.17-.416.32-.837.46-1.259a4.743,4.743,0,0,0,2.79-2.641,32.005,32.005,0,0,0,1.563-5.55c.447-2.118.824-4.305,1.15-6.686.586-4.265.971-8.641,1.146-13.007.024-.606.042-1.247.056-1.977q.011-.138.012-.286l.009-.789c0-.56,0-.852,0-.974a110.049,110.049,0,0,0-.439-11.593,29.385,29.385,0,0,0-3.089-10.85l-.149-.281c4.713-.082,8.881-3.435,10.468-4.889a24.357,24.357,0,0,0,4.021-4.63,21.608,21.608,0,0,0,3.975-5.108,21.048,21.048,0,0,0,2.448-8.653A21.913,21.913,0,0,0,1381.439,4204.552Z"/>
    </clipPath>
    <linearGradient id="linear-gradient-25" x1="0.5" y1="-0.681" x2="0.5" y2="0.575" xlink:href="#linear-gradient"/>
    <linearGradient id="linear-gradient-26" x1="0.5" y1="0.325" x2="0.5" y2="1.936" xlink:href="#linear-gradient"/>
    <linearGradient id="linear-gradient-27" x1="0.5" y1="18.567" x2="0.5" y2="98.748" xlink:href="#linear-gradient"/>
    <clipPath id="clip-path-9">
      <path id="Path_16558" data-name="Path 16558" d="M859.883,4273.838a101.311,101.311,0,0,0-4.7-24.449c-.062-.218-.132-.436-.2-.653-.169-.531-.342-1.075-.36-1.13l-.584-1.8h-.01c-1-2.962-2.117-5.882-3.323-8.708l-.124-.29c-1.436-3.365-2.793-6.542-3.867-9.9-.5-1.574-.91-3.168-1.34-4.856-.495-1.942-1.006-3.951-1.681-5.927a10.574,10.574,0,0,0-3.294-5.215,12.07,12.07,0,0,0-6.075-2.089,32.293,32.293,0,0,0-3.826-.231,26.15,26.15,0,0,0-17.559,6.33,28.947,28.947,0,0,0-4.651,5.227q-.787.794-1.516,1.651a52.96,52.96,0,0,0-7.869-10.574,51.452,51.452,0,0,0-21.6-13.683,36.3,36.3,0,0,0-10.866-1.742,24.044,24.044,0,0,0-15.046,4.819,22.87,22.87,0,0,0-4.82,5.282,27.966,27.966,0,0,0-6.137,9.229A47.049,47.049,0,0,0,737,4227.744a68.03,68.03,0,0,0,2.08,26.126,101.454,101.454,0,0,0,9.495,23.455,86.38,86.38,0,0,0,6.591,10.23,55.857,55.857,0,0,0,4.277,5.034,22.178,22.178,0,0,0,5.366,4.361,10.676,10.676,0,0,0,5.179,1.069c.266,0,.533,0,.8-.008a14.567,14.567,0,0,0,6.519-1.8,16.877,16.877,0,0,0,5.056-4.212c.322-.39.635-.8.931-1.223l.022-.027a4.355,4.355,0,0,0,.462-.724q.644-.584,1.248-1.249c.38.348.76.689,1.141,1.017a27.7,27.7,0,0,0,11.82,6.48,18.718,18.718,0,0,0,4.182.476,21.225,21.225,0,0,0,12.044-4.013,30.021,30.021,0,0,0,7.113-7.212q.522-.537,1.013-1.093c0,.024,0,.045,0,.069a3.673,3.673,0,0,0,.725,1.824l.038.056c.247.43.505.855.769,1.261a24.409,24.409,0,0,0,3.143,3.941,21.7,21.7,0,0,0,15.273,6.427,18.988,18.988,0,0,0,6.4-1.093,10.9,10.9,0,0,0,4.9-3.217,9.889,9.889,0,0,0,1.319-2.161,9.007,9.007,0,0,0,1.931-1.739,11.865,11.865,0,0,0,2.14-4.448A36.237,36.237,0,0,0,859.883,4273.838Z"/>
    </clipPath>
    <linearGradient id="linear-gradient-28" x1="0.5" y1="0.209" x2="0.5" y2="0.904" xlink:href="#linear-gradient"/>
    <linearGradient id="linear-gradient-29" x1="0.5" y1="-14.196" x2="0.5" y2="15.885" xlink:href="#linear-gradient"/>
    <clipPath id="clip-path-10">
      <path id="Path_16565" data-name="Path 16565" d="M1253.5,4244.652a28.349,28.349,0,0,0-1.9-2.855,13.5,13.5,0,0,0-.927-1.17c-.352-.417-.636-.754-.909-1.016-4.75-5.108-11.536-8.357-19.9-9.569a29.16,29.16,0,0,0,3.818-4.351,28.851,28.851,0,0,0,8.669-22.04,19.715,19.715,0,0,0-3.647-10.625,16.479,16.479,0,0,0-9.98-6.142,19.672,19.672,0,0,0-3.674-.4,22.506,22.506,0,0,0-16.15,7.045,30.312,30.312,0,0,0-2.879,3.435c-.142.139-.288.274-.428.417a29.9,29.9,0,0,0-2.445,2.852c-1.733-.166-3.43-.266-5.04-.29a48.366,48.366,0,0,0-7.677.473c-5.8.85-10.419,2.786-13.736,5.755a18.59,18.59,0,0,0-3.182,3.749c-.04.035-.086.067-.126.1a21.871,21.871,0,0,0-6.657,13.285,23.193,23.193,0,0,0,2.843,15.014,24.637,24.637,0,0,0,10.889,9.524c.968.46,2,.891,3.056,1.281.043.019.091.043.142.067a6.8,6.8,0,0,0,.955.385l-.094.143c-.088.079-.176.157-.262.237a19.07,19.07,0,0,0-5.482,8.994,22.02,22.02,0,0,0,.175,11.272c2.022,7.67,6.9,13.378,10.638,16.816a42.36,42.36,0,0,0,17.059,9.6,37.187,37.187,0,0,0,9.55,1.373,40.834,40.834,0,0,0,28.484-11.008,33.6,33.6,0,0,0,3.973-4.507,31.25,31.25,0,0,0,8.88-16.8A32.259,32.259,0,0,0,1253.5,4244.652Z"/>
    </clipPath>
    <linearGradient id="linear-gradient-30" x1="0.5" y1="-23.679" x2="0.5" y2="14.18" xlink:href="#linear-gradient"/>
    <linearGradient id="linear-gradient-31" x1="0.5" y1="0.132" x2="0.5" y2="0.732" xlink:href="#linear-gradient"/>
    <clipPath id="clip-path-11">
      <path id="Path_16571" data-name="Path 16571" d="M703.336,4273.092a6.619,6.619,0,0,0-2.754-3.868c-.185-.14-.388-.283-.606-.438a7.392,7.392,0,0,0-1.507-.939,58.882,58.882,0,0,0-10.242-4.438c-1.29-.464-2.624-.943-3.894-1.443a61.974,61.974,0,0,1-6.516-2.968,28.812,28.812,0,0,0,9.27-8.554,32.094,32.094,0,0,0,3.464-4.2,35.107,35.107,0,0,0,5.559-12.653,44.761,44.761,0,0,0,.167-17.438,41.79,41.79,0,0,0-5.957-15.461c-3.545-5.34-8.269-8.857-13.663-10.17a21.192,21.192,0,0,0-5.018-.589,27.576,27.576,0,0,0-8.683,1.5,34.264,34.264,0,0,0-13.83,8.446,33.846,33.846,0,0,0-3.354,4.012c-5.941,6.109-9.751,14.855-10.937,24.965-1.673.2-4,1.18-5.587,4.688-1.491.871-3.022,2.6-4,5.936a27.91,27.91,0,0,0-.8,9.03,64.183,64.183,0,0,0,1.184,9.386,106.119,106.119,0,0,0,5.237,17.981,73.241,73.241,0,0,0,3.942,8.649c1.467,2.693,3.257,5.737,5.926,7.8a6.481,6.481,0,0,0,3.935,1.548,4.767,4.767,0,0,0,.647-.043,6.227,6.227,0,0,0,4.153-2.483,9.471,9.471,0,0,0,1.162-2.1,6.325,6.325,0,0,0,2.088-1.8c2-2.705,2.179-6.218,2.32-9.041l.029-.552c.035-.652.047-1.321.058-1.969.007-.419.016-.84.03-1.258a15.433,15.433,0,0,1,1.873,3.719l.21.525.127.315a73.764,73.764,0,0,0,3.667,8.117c3.161,5.735,6.965,9.213,11.306,10.338a12.093,12.093,0,0,0,3.034.372,19.776,19.776,0,0,0,6.664-1.325,34.8,34.8,0,0,0,8.3-4.44,31.549,31.549,0,0,0,6.7-6.267c.32-.412.657-.865.987-1.351a27.263,27.263,0,0,0,2.263-2.549C701.989,4279.906,704.149,4276.6,703.336,4273.092Zm-43.206-26.645a4.8,4.8,0,0,1-.863.078,7.547,7.547,0,0,1-5.364-2.687,3.267,3.267,0,0,1-1.081-2.259c.059-.088.186-.246.274-.355s.188-.233.276-.35c.18-.236.35-.454.522-.675a24.417,24.417,0,0,1,1.815-1.8,5.547,5.547,0,0,1,3.3-1.679c.075,0,.15,0,.224.011,2.076.218,2.756,3.283,2.826,4.873a9.329,9.329,0,0,1-1.112,4.515A3.341,3.341,0,0,1,660.13,4246.447Z"/>
    </clipPath>
    <linearGradient id="linear-gradient-32" x1="0.5" y1="-56.276" x2="0.5" y2="-3.812" xlink:href="#linear-gradient"/>
  </defs>
  <g id="Group_7076" data-name="Group 7076" transform="translate(-450.219 -4172.479)">
    <g id="Group_7026" data-name="Group 7026">
      <g id="Group_7025" data-name="Group 7025">
        <g id="Group_7024" data-name="Group 7024">
          <g id="Group_7023" data-name="Group 7023">
            <path id="Path_16469" data-name="Path 16469" d="M1465.589,4217.534c-.012-.051-.026-.1-.039-.152-.021-.086-.043-.17-.064-.252l-.028-.1-.027-.1-.031-.111c-2.576-9.306-7.639-16.866-14.642-21.868a39.872,39.872,0,0,0-23.365-7.163,48.042,48.042,0,0,0-5.121.278,62.922,62.922,0,0,0-20.792,6.145,58.839,58.839,0,0,0-10.693,6.746c-.087-.2-.175-.391-.266-.586-2.817-6.185-7.644-11.155-14.356-14.782a10.013,10.013,0,0,0-2.2-1.067,68.21,68.21,0,0,0-9.061-3.226l-.6-.306a9.972,9.972,0,0,0-4.534-1.091c-.316,0-.631.027-.945.057a51.7,51.7,0,0,0-8.063-.713l-.3,0a38.5,38.5,0,0,0-15.823,3.141,29.477,29.477,0,0,0-12.12,10.1,32.292,32.292,0,0,0-4.455,5.7q-.665,1.077-1.249,2.2-1.314-.081-2.683-.082a49.513,49.513,0,0,0-5.456.308,48.866,48.866,0,0,0-7.484,1.421c-1.25.343-2.372.708-3.435,1.115-.849.326-1.573.641-2.269.986a14.246,14.246,0,0,0-4.55,3.321q-.192-.583-.391-1.17c-1.541-4.529-4.156-11.2-9.065-16.893a30.075,30.075,0,0,0-21.506-10.36c-.875-.052-1.776-.079-2.677-.079a74.71,74.71,0,0,0-16.677,2.305,27.516,27.516,0,0,0-9.874-4.159,29.652,29.652,0,0,0-5.548-.609l-.43,0a32.644,32.644,0,0,0-23.008,10.045,39.324,39.324,0,0,0-2.981,3.427l-.525-.01c-.315,0-.631-.007-.947-.007a57.574,57.574,0,0,0-8.328.585c-.187.027-.373.056-.558.085a31.682,31.682,0,0,0-16.1-9.795,31.287,31.287,0,0,0-7.383-.872,37.527,37.527,0,0,0-11.839,2.013,44.647,44.647,0,0,0-15.867,9.072,37.466,37.466,0,0,0-21.267-6.514h-.335a30.764,30.764,0,0,0-9.814,1.587,37.8,37.8,0,0,0-7.661,3.692,60.293,60.293,0,0,0-11.12,9c-1.333,1.34-2.639,2.755-3.905,4.23a33.118,33.118,0,0,0-13.955-2.718,49.49,49.49,0,0,0-5.457.308,48.876,48.876,0,0,0-7.483,1.421c-1.253.344-2.376.709-3.438,1.116-.843.324-1.567.638-2.265.985a14.229,14.229,0,0,0-4.552,3.321q-.192-.584-.391-1.172c-1.541-4.527-4.156-11.2-9.065-16.891a30.073,30.073,0,0,0-21.506-10.36c-.875-.052-1.776-.079-2.677-.079a74.814,74.814,0,0,0-16.735,2.319,141.9,141.9,0,0,0-16.544,4.559c-2.636.265-5.446.42-8.551.471q-1.187.02-2.366.019c-4.443,0-9.187-.19-14.927-.6-3.628-.258-7.382-.642-11.013-1.013-2.248-.23-4.8-.49-7.278-.714-1.479-.133-2.963-.2-4.412-.2a39.452,39.452,0,0,0-20.057,5.094,34.361,34.361,0,0,0-4.19,2.863,57.037,57.037,0,0,0-17.865-3.972c-1.691-.114-3.455-.169-5.393-.169-2.1,0-4.129.066-5.84.13-.894.033-1.813.047-2.7.06-.75.012-1.5.023-2.253.043a24.361,24.361,0,0,0-8.574,1.664,18.885,18.885,0,0,0-9.016,7.515,19.079,19.079,0,0,0-5.387,8.612A17.468,17.468,0,0,0,846.5,4203a21.867,21.867,0,0,0-10.985-4.1,42.55,42.55,0,0,0-5.018-.3,36.174,36.174,0,0,0-22.664,7.576q-.829-.937-1.7-1.848a61.459,61.459,0,0,0-25.838-16.316,46.251,46.251,0,0,0-13.865-2.2,33.916,33.916,0,0,0-21.222,6.955,32.549,32.549,0,0,0-6.338,6.7,38.246,38.246,0,0,0-7.615,11.694,57.1,57.1,0,0,0-4.168,15.286,77.927,77.927,0,0,0,2.324,29.973,111.436,111.436,0,0,0,10.426,25.771,95.879,95.879,0,0,0,7.357,11.406,65.687,65.687,0,0,0,5.049,5.937,31.631,31.631,0,0,0,7.847,6.239,20.5,20.5,0,0,0,9.9,2.254c.317,0,.636,0,.954-.009A24.6,24.6,0,0,0,782,4305.045a25.532,25.532,0,0,0,4.273-2.862,33.186,33.186,0,0,0,9.477,3.837,28.706,28.706,0,0,0,6.421.731,31.168,31.168,0,0,0,17.743-5.795q.7-.486,1.388-1.017a31.748,31.748,0,0,0,20.988,8.072,28.939,28.939,0,0,0,9.769-1.677,23.837,23.837,0,0,0,4.114-1.911,73.055,73.055,0,0,0,21.462,3.513c1.633.056,3.082.083,4.432.083,8.3,0,14.685-1.028,20.7-3.333a52.041,52.041,0,0,0,20.391-14.337c.262-.3.522-.6.784-.92q.585.859,1.256,1.682c4.175,5.117,9.744,7.986,13.57,9.7,7.755,3.472,16.614,5.672,27.083,6.724a83.879,83.879,0,0,0,8.482.484c1.55,0,3.064-.061,4.5-.181a16.08,16.08,0,0,0,12.67-7.816c4.321-3.745,5.739-9.094,6.252-12.886l.488,1.069.314.688c1.085,2.382,2.208,4.848,3.543,7.369l.149.283c1.464,2.779,4.9,9.313,12.784,11.01a21.544,21.544,0,0,0,4.583.464c1.088,0,2.052-.067,2.827-.12.242-.017.482-.034.719-.047.644-.034,1.29-.065,1.935-.1l.959-.047,1.335-.063.424-.02a107.041,107.041,0,0,0,13.583-1.241,28.288,28.288,0,0,0,6.272-1.737,15.887,15.887,0,0,0,5.374-3.531q.274-.282.527-.584a15.27,15.27,0,0,0,1.575-2.265q.216-.177.433-.369a13.808,13.808,0,0,0,3.77,1.151,33.938,33.938,0,0,0,5.129.386l.486,0a32.7,32.7,0,0,0,11.877-2.225l.025-.01a14.3,14.3,0,0,0,4.907-3.1,67.977,67.977,0,0,0,7.533,5.149c6.645,3.923,16.957,8.627,28.35,8.767.177,0,.345,0,.513,0,6.346,0,11.621-1.58,15.719-4.7a15.11,15.11,0,0,0,4.081.56,14.884,14.884,0,0,0,1.956-.129,16.27,16.27,0,0,0,9.919-5.266,25.456,25.456,0,0,0,13.286,8.843,22.109,22.109,0,0,0,5.543.692,29.5,29.5,0,0,0,10.042-1.913,44.722,44.722,0,0,0,10.713-5.7q.3-.216.6-.436a51.7,51.7,0,0,0,13.894,6.292,47.2,47.2,0,0,0,12.12,1.748c.246,0,.493.006.739.006a51.2,51.2,0,0,0,30.944-10.491c1.7,3.108,5.2,8.507,12.258,10.027a21.53,21.53,0,0,0,4.583.464c1.088,0,2.052-.067,2.827-.12.241-.017.481-.034.718-.047q.975-.051,1.95-.1l.944-.046,1.339-.064.42-.019a107.039,107.039,0,0,0,13.584-1.241,28.3,28.3,0,0,0,6.271-1.737,15.851,15.851,0,0,0,5.375-3.532c.184-.187.359-.382.527-.583a15.39,15.39,0,0,0,1.575-2.264q.216-.179.433-.37a13.784,13.784,0,0,0,3.77,1.151,33.919,33.919,0,0,0,5.129.386l.485,0a33.3,33.3,0,0,0,11.079-1.916,15.327,15.327,0,0,0,2.2,2.938,17.977,17.977,0,0,0,6.893,4.308l.073.028a52.939,52.939,0,0,0,16.3,3.175c.831.035,1.6.053,2.354.053a38.765,38.765,0,0,0,6.774-.555l.149-.026c5.507-.962,9.444-3.512,11.715-7.589a14.522,14.522,0,0,0,3.357-4.112c5.516,8.134,12.087,10.979,16.9,11.889a22.549,22.549,0,0,0,4.181.393,23.837,23.837,0,0,0,19.564-10.707,24.8,24.8,0,0,0,3.975-5.044,48.931,48.931,0,0,0,5.356-13,43.152,43.152,0,0,0,10.833-2.416,47.541,47.541,0,0,0,21.536-16.331,53.77,53.77,0,0,0,10.459-16.851A43.134,43.134,0,0,0,1465.589,4217.534Z" fill="#fff"/>
            <path id="Path_16470" data-name="Path 16470" d="M1465.589,4217.534c-.012-.051-.026-.1-.039-.152-.021-.086-.043-.17-.064-.252l-.028-.1-.027-.1-.031-.111c-2.576-9.306-7.639-16.866-14.642-21.868a39.872,39.872,0,0,0-23.365-7.163,48.042,48.042,0,0,0-5.121.278,62.922,62.922,0,0,0-20.792,6.145,58.839,58.839,0,0,0-10.693,6.746c-.087-.2-.175-.391-.266-.586-2.817-6.185-7.644-11.155-14.356-14.782a10.013,10.013,0,0,0-2.2-1.067,68.21,68.21,0,0,0-9.061-3.226l-.6-.306a9.972,9.972,0,0,0-4.534-1.091c-.316,0-.631.027-.945.057a51.7,51.7,0,0,0-8.063-.713l-.3,0a38.5,38.5,0,0,0-15.823,3.141,29.477,29.477,0,0,0-12.12,10.1,32.292,32.292,0,0,0-4.455,5.7q-.665,1.077-1.249,2.2-1.314-.081-2.683-.082a49.513,49.513,0,0,0-5.456.308,48.866,48.866,0,0,0-7.484,1.421c-1.25.343-2.372.708-3.435,1.115-.849.326-1.573.641-2.269.986a14.246,14.246,0,0,0-4.55,3.321q-.192-.583-.391-1.17c-1.541-4.529-4.156-11.2-9.065-16.893a30.075,30.075,0,0,0-21.506-10.36c-.875-.052-1.776-.079-2.677-.079a74.71,74.71,0,0,0-16.677,2.305,27.516,27.516,0,0,0-9.874-4.159,29.652,29.652,0,0,0-5.548-.609l-.43,0a32.644,32.644,0,0,0-23.008,10.045,39.324,39.324,0,0,0-2.981,3.427l-.525-.01c-.315,0-.631-.007-.947-.007a57.574,57.574,0,0,0-8.328.585c-.187.027-.373.056-.558.085a31.682,31.682,0,0,0-16.1-9.795,31.287,31.287,0,0,0-7.383-.872,37.527,37.527,0,0,0-11.839,2.013,44.647,44.647,0,0,0-15.867,9.072,37.466,37.466,0,0,0-21.267-6.514h-.335a30.764,30.764,0,0,0-9.814,1.587,37.8,37.8,0,0,0-7.661,3.692,60.293,60.293,0,0,0-11.12,9c-1.333,1.34-2.639,2.755-3.905,4.23a33.118,33.118,0,0,0-13.955-2.718,49.49,49.49,0,0,0-5.457.308,48.876,48.876,0,0,0-7.483,1.421c-1.253.344-2.376.709-3.438,1.116-.843.324-1.567.638-2.265.985a14.229,14.229,0,0,0-4.552,3.321q-.192-.584-.391-1.172c-1.541-4.527-4.156-11.2-9.065-16.891a30.073,30.073,0,0,0-21.506-10.36c-.875-.052-1.776-.079-2.677-.079a74.814,74.814,0,0,0-16.735,2.319,141.9,141.9,0,0,0-16.544,4.559c-2.636.265-5.446.42-8.551.471q-1.187.02-2.366.019c-4.443,0-9.187-.19-14.927-.6-3.628-.258-7.382-.642-11.013-1.013-2.248-.23-4.8-.49-7.278-.714-1.479-.133-2.963-.2-4.412-.2a39.452,39.452,0,0,0-20.057,5.094,34.361,34.361,0,0,0-4.19,2.863,57.037,57.037,0,0,0-17.865-3.972c-1.691-.114-3.455-.169-5.393-.169-2.1,0-4.129.066-5.84.13-.894.033-1.813.047-2.7.06-.75.012-1.5.023-2.253.043a24.361,24.361,0,0,0-8.574,1.664,18.885,18.885,0,0,0-9.016,7.515,19.079,19.079,0,0,0-5.387,8.612A17.468,17.468,0,0,0,846.5,4203a21.867,21.867,0,0,0-10.985-4.1,42.55,42.55,0,0,0-5.018-.3,36.174,36.174,0,0,0-22.664,7.576q-.829-.937-1.7-1.848a61.459,61.459,0,0,0-25.838-16.316,46.251,46.251,0,0,0-13.865-2.2,33.916,33.916,0,0,0-21.222,6.955,32.549,32.549,0,0,0-6.338,6.7,38.246,38.246,0,0,0-7.615,11.694,57.1,57.1,0,0,0-4.168,15.286,77.927,77.927,0,0,0,2.324,29.973,111.436,111.436,0,0,0,10.426,25.771,95.879,95.879,0,0,0,7.357,11.406,65.687,65.687,0,0,0,5.049,5.937,31.631,31.631,0,0,0,7.847,6.239,20.5,20.5,0,0,0,9.9,2.254c.317,0,.636,0,.954-.009A24.6,24.6,0,0,0,782,4305.045a25.532,25.532,0,0,0,4.273-2.862,33.186,33.186,0,0,0,9.477,3.837,28.706,28.706,0,0,0,6.421.731,31.168,31.168,0,0,0,17.743-5.795q.7-.486,1.388-1.017a31.748,31.748,0,0,0,20.988,8.072,28.939,28.939,0,0,0,9.769-1.677,23.837,23.837,0,0,0,4.114-1.911,73.055,73.055,0,0,0,21.462,3.513c1.633.056,3.082.083,4.432.083,8.3,0,14.685-1.028,20.7-3.333a52.041,52.041,0,0,0,20.391-14.337c.262-.3.522-.6.784-.92q.585.859,1.256,1.682c4.175,5.117,9.744,7.986,13.57,9.7,7.755,3.472,16.614,5.672,27.083,6.724a83.879,83.879,0,0,0,8.482.484c1.55,0,3.064-.061,4.5-.181a16.08,16.08,0,0,0,12.67-7.816c4.321-3.745,5.739-9.094,6.252-12.886l.488,1.069.314.688c1.085,2.382,2.208,4.848,3.543,7.369l.149.283c1.464,2.779,4.9,9.313,12.784,11.01a21.544,21.544,0,0,0,4.583.464c1.088,0,2.052-.067,2.827-.12.242-.017.482-.034.719-.047.644-.034,1.29-.065,1.935-.1l.959-.047,1.335-.063.424-.02a107.041,107.041,0,0,0,13.583-1.241,28.288,28.288,0,0,0,6.272-1.737,15.887,15.887,0,0,0,5.374-3.531q.274-.282.527-.584a15.27,15.27,0,0,0,1.575-2.265q.216-.177.433-.369a13.808,13.808,0,0,0,3.77,1.151,33.938,33.938,0,0,0,5.129.386l.486,0a32.7,32.7,0,0,0,11.877-2.225l.025-.01a14.3,14.3,0,0,0,4.907-3.1,67.977,67.977,0,0,0,7.533,5.149c6.645,3.923,16.957,8.627,28.35,8.767.177,0,.345,0,.513,0,6.346,0,11.621-1.58,15.719-4.7a15.11,15.11,0,0,0,4.081.56,14.884,14.884,0,0,0,1.956-.129,16.27,16.27,0,0,0,9.919-5.266,25.456,25.456,0,0,0,13.286,8.843,22.109,22.109,0,0,0,5.543.692,29.5,29.5,0,0,0,10.042-1.913,44.722,44.722,0,0,0,10.713-5.7q.3-.216.6-.436a51.7,51.7,0,0,0,13.894,6.292,47.2,47.2,0,0,0,12.12,1.748c.246,0,.493.006.739.006a51.2,51.2,0,0,0,30.944-10.491c1.7,3.108,5.2,8.507,12.258,10.027a21.53,21.53,0,0,0,4.583.464c1.088,0,2.052-.067,2.827-.12.241-.017.481-.034.718-.047q.975-.051,1.95-.1l.944-.046,1.339-.064.42-.019a107.039,107.039,0,0,0,13.584-1.241,28.3,28.3,0,0,0,6.271-1.737,15.851,15.851,0,0,0,5.375-3.532c.184-.187.359-.382.527-.583a15.39,15.39,0,0,0,1.575-2.264q.216-.179.433-.37a13.784,13.784,0,0,0,3.77,1.151,33.919,33.919,0,0,0,5.129.386l.485,0a33.3,33.3,0,0,0,11.079-1.916,15.327,15.327,0,0,0,2.2,2.938,17.977,17.977,0,0,0,6.893,4.308l.073.028a52.939,52.939,0,0,0,16.3,3.175c.831.035,1.6.053,2.354.053a38.765,38.765,0,0,0,6.774-.555l.149-.026c5.507-.962,9.444-3.512,11.715-7.589a14.522,14.522,0,0,0,3.357-4.112c5.516,8.134,12.087,10.979,16.9,11.889a22.549,22.549,0,0,0,4.181.393,23.837,23.837,0,0,0,19.564-10.707,24.8,24.8,0,0,0,3.975-5.044,48.931,48.931,0,0,0,5.356-13,43.152,43.152,0,0,0,10.833-2.416,47.541,47.541,0,0,0,21.536-16.331,53.77,53.77,0,0,0,10.459-16.851A43.134,43.134,0,0,0,1465.589,4217.534Z" fill="none" stroke="#fff" stroke-miterlimit="10" stroke-width="8"/>
            <path id="Path_16471" data-name="Path 16471" d="M1465.589,4217.534c-.012-.051-.026-.1-.039-.152-.021-.086-.043-.17-.064-.252l-.028-.1-.027-.1-.031-.111c-2.576-9.306-7.639-16.866-14.642-21.868a39.872,39.872,0,0,0-23.365-7.163,48.042,48.042,0,0,0-5.121.278,62.922,62.922,0,0,0-20.792,6.145,58.839,58.839,0,0,0-10.693,6.746c-.087-.2-.175-.391-.266-.586-2.817-6.185-7.644-11.155-14.356-14.782a10.013,10.013,0,0,0-2.2-1.067,68.21,68.21,0,0,0-9.061-3.226l-.6-.306a9.972,9.972,0,0,0-4.534-1.091c-.316,0-.631.027-.945.057a51.7,51.7,0,0,0-8.063-.713l-.3,0a38.5,38.5,0,0,0-15.823,3.141,29.477,29.477,0,0,0-12.12,10.1,32.292,32.292,0,0,0-4.455,5.7q-.665,1.077-1.249,2.2-1.314-.081-2.683-.082a49.513,49.513,0,0,0-5.456.308,48.866,48.866,0,0,0-7.484,1.421c-1.25.343-2.372.708-3.435,1.115-.849.326-1.573.641-2.269.986a14.246,14.246,0,0,0-4.55,3.321q-.192-.583-.391-1.17c-1.541-4.529-4.156-11.2-9.065-16.893a30.075,30.075,0,0,0-21.506-10.36c-.875-.052-1.776-.079-2.677-.079a74.71,74.71,0,0,0-16.677,2.305,27.516,27.516,0,0,0-9.874-4.159,29.652,29.652,0,0,0-5.548-.609l-.43,0a32.644,32.644,0,0,0-23.008,10.045,39.324,39.324,0,0,0-2.981,3.427l-.525-.01c-.315,0-.631-.007-.947-.007a57.574,57.574,0,0,0-8.328.585c-.187.027-.373.056-.558.085a31.682,31.682,0,0,0-16.1-9.795,31.287,31.287,0,0,0-7.383-.872,37.527,37.527,0,0,0-11.839,2.013,44.647,44.647,0,0,0-15.867,9.072,37.466,37.466,0,0,0-21.267-6.514h-.335a30.764,30.764,0,0,0-9.814,1.587,37.8,37.8,0,0,0-7.661,3.692,60.293,60.293,0,0,0-11.12,9c-1.333,1.34-2.639,2.755-3.905,4.23a33.118,33.118,0,0,0-13.955-2.718,49.49,49.49,0,0,0-5.457.308,48.876,48.876,0,0,0-7.483,1.421c-1.253.344-2.376.709-3.438,1.116-.843.324-1.567.638-2.265.985a14.229,14.229,0,0,0-4.552,3.321q-.192-.584-.391-1.172c-1.541-4.527-4.156-11.2-9.065-16.891a30.073,30.073,0,0,0-21.506-10.36c-.875-.052-1.776-.079-2.677-.079a74.814,74.814,0,0,0-16.735,2.319,141.9,141.9,0,0,0-16.544,4.559c-2.636.265-5.446.42-8.551.471q-1.187.02-2.366.019c-4.443,0-9.187-.19-14.927-.6-3.628-.258-7.382-.642-11.013-1.013-2.248-.23-4.8-.49-7.278-.714-1.479-.133-2.963-.2-4.412-.2a39.452,39.452,0,0,0-20.057,5.094,34.361,34.361,0,0,0-4.19,2.863,57.037,57.037,0,0,0-17.865-3.972c-1.691-.114-3.455-.169-5.393-.169-2.1,0-4.129.066-5.84.13-.894.033-1.813.047-2.7.06-.75.012-1.5.023-2.253.043a24.361,24.361,0,0,0-8.574,1.664,18.885,18.885,0,0,0-9.016,7.515,19.079,19.079,0,0,0-5.387,8.612A17.468,17.468,0,0,0,846.5,4203a21.867,21.867,0,0,0-10.985-4.1,42.55,42.55,0,0,0-5.018-.3,36.174,36.174,0,0,0-22.664,7.576q-.829-.937-1.7-1.848a61.459,61.459,0,0,0-25.838-16.316,46.251,46.251,0,0,0-13.865-2.2,33.916,33.916,0,0,0-21.222,6.955,32.549,32.549,0,0,0-6.338,6.7,38.246,38.246,0,0,0-7.615,11.694,57.1,57.1,0,0,0-4.168,15.286,77.927,77.927,0,0,0,2.324,29.973,111.436,111.436,0,0,0,10.426,25.771,95.879,95.879,0,0,0,7.357,11.406,65.687,65.687,0,0,0,5.049,5.937,31.631,31.631,0,0,0,7.847,6.239,20.5,20.5,0,0,0,9.9,2.254c.317,0,.636,0,.954-.009A24.6,24.6,0,0,0,782,4305.045a25.532,25.532,0,0,0,4.273-2.862,33.186,33.186,0,0,0,9.477,3.837,28.706,28.706,0,0,0,6.421.731,31.168,31.168,0,0,0,17.743-5.795q.7-.486,1.388-1.017a31.748,31.748,0,0,0,20.988,8.072,28.939,28.939,0,0,0,9.769-1.677,23.837,23.837,0,0,0,4.114-1.911,73.055,73.055,0,0,0,21.462,3.513c1.633.056,3.082.083,4.432.083,8.3,0,14.685-1.028,20.7-3.333a52.041,52.041,0,0,0,20.391-14.337c.262-.3.522-.6.784-.92q.585.859,1.256,1.682c4.175,5.117,9.744,7.986,13.57,9.7,7.755,3.472,16.614,5.672,27.083,6.724a83.879,83.879,0,0,0,8.482.484c1.55,0,3.064-.061,4.5-.181a16.08,16.08,0,0,0,12.67-7.816c4.321-3.745,5.739-9.094,6.252-12.886l.488,1.069.314.688c1.085,2.382,2.208,4.848,3.543,7.369l.149.283c1.464,2.779,4.9,9.313,12.784,11.01a21.544,21.544,0,0,0,4.583.464c1.088,0,2.052-.067,2.827-.12.242-.017.482-.034.719-.047.644-.034,1.29-.065,1.935-.1l.959-.047,1.335-.063.424-.02a107.041,107.041,0,0,0,13.583-1.241,28.288,28.288,0,0,0,6.272-1.737,15.887,15.887,0,0,0,5.374-3.531q.274-.282.527-.584a15.27,15.27,0,0,0,1.575-2.265q.216-.177.433-.369a13.808,13.808,0,0,0,3.77,1.151,33.938,33.938,0,0,0,5.129.386l.486,0a32.7,32.7,0,0,0,11.877-2.225l.025-.01a14.3,14.3,0,0,0,4.907-3.1,67.977,67.977,0,0,0,7.533,5.149c6.645,3.923,16.957,8.627,28.35,8.767.177,0,.345,0,.513,0,6.346,0,11.621-1.58,15.719-4.7a15.11,15.11,0,0,0,4.081.56,14.884,14.884,0,0,0,1.956-.129,16.27,16.27,0,0,0,9.919-5.266,25.456,25.456,0,0,0,13.286,8.843,22.109,22.109,0,0,0,5.543.692,29.5,29.5,0,0,0,10.042-1.913,44.722,44.722,0,0,0,10.713-5.7q.3-.216.6-.436a51.7,51.7,0,0,0,13.894,6.292,47.2,47.2,0,0,0,12.12,1.748c.246,0,.493.006.739.006a51.2,51.2,0,0,0,30.944-10.491c1.7,3.108,5.2,8.507,12.258,10.027a21.53,21.53,0,0,0,4.583.464c1.088,0,2.052-.067,2.827-.12.241-.017.481-.034.718-.047q.975-.051,1.95-.1l.944-.046,1.339-.064.42-.019a107.039,107.039,0,0,0,13.584-1.241,28.3,28.3,0,0,0,6.271-1.737,15.851,15.851,0,0,0,5.375-3.532c.184-.187.359-.382.527-.583a15.39,15.39,0,0,0,1.575-2.264q.216-.179.433-.37a13.784,13.784,0,0,0,3.77,1.151,33.919,33.919,0,0,0,5.129.386l.485,0a33.3,33.3,0,0,0,11.079-1.916,15.327,15.327,0,0,0,2.2,2.938,17.977,17.977,0,0,0,6.893,4.308l.073.028a52.939,52.939,0,0,0,16.3,3.175c.831.035,1.6.053,2.354.053a38.765,38.765,0,0,0,6.774-.555l.149-.026c5.507-.962,9.444-3.512,11.715-7.589a14.522,14.522,0,0,0,3.357-4.112c5.516,8.134,12.087,10.979,16.9,11.889a22.549,22.549,0,0,0,4.181.393,23.837,23.837,0,0,0,19.564-10.707,24.8,24.8,0,0,0,3.975-5.044,48.931,48.931,0,0,0,5.356-13,43.152,43.152,0,0,0,10.833-2.416,47.541,47.541,0,0,0,21.536-16.331,53.77,53.77,0,0,0,10.459-16.851A43.134,43.134,0,0,0,1465.589,4217.534Z" fill="none" stroke="#000" stroke-miterlimit="10" stroke-width="6"/>
          </g>
          <path id="Path_16472" data-name="Path 16472" d="M706.524,4261.18c-.233-.174-.485-.354-.755-.546a18.8,18.8,0,0,0-2.731-1.7,53.988,53.988,0,0,0-7.108-3.335,43.137,43.137,0,0,0,2.834-3.649,45.036,45.036,0,0,0,7.121-16.246,54.733,54.733,0,0,0,.234-21.319,51.876,51.876,0,0,0-7.467-19.221c-4.961-7.474-11.749-12.438-19.63-14.357a31.271,31.271,0,0,0-7.382-.872,37.529,37.529,0,0,0-11.84,2.013,44.159,44.159,0,0,0-17.81,10.928,43.7,43.7,0,0,0-3.908,4.593,46.472,46.472,0,0,0-8.069,11.93,38.816,38.816,0,0,0-12.13-7.313,24.343,24.343,0,0,0-8.1-1.441,20.268,20.268,0,0,0-8.764,1.938,22.063,22.063,0,0,0-4.9,3.165q-.334-1.209-.748-2.368a20.6,20.6,0,0,0-6.895-9.809c-4.205-3.17-9.428-4.712-15.968-4.712-.379,0-.754.005-1.124.014a51.713,51.713,0,0,0-26.835,8.941c-.235.157-.469.315-.7.475a45.9,45.9,0,0,0-4.618-3.22,53.38,53.38,0,0,0-24.463-7.3c-1.69-.114-3.454-.169-5.393-.169-2.1,0-4.129.066-5.84.13-.893.033-1.812.047-2.7.06-.75.012-1.5.023-2.253.043a24.378,24.378,0,0,0-8.573,1.663,18.9,18.9,0,0,0-9.017,7.516,19.108,19.108,0,0,0-5.472,8.9,47.872,47.872,0,0,0-7.591,8.032,55.038,55.038,0,0,0-13.117,26.265,77.95,77.95,0,0,0-1.162,23.926c.908,8.907,2.808,15.761,5.981,21.568a39.539,39.539,0,0,0,20.054,17.648c6.821,2.794,14.548,4.251,24.316,4.585,1.631.056,3.08.083,4.432.083,8.3,0,14.685-1.028,20.7-3.333a51.616,51.616,0,0,0,17.316-11.108q1.875,2,3.8,3.783a44.933,44.933,0,0,0,11.042,7.815,31.127,31.127,0,0,0,13.774,2.843q.632,0,1.256-.017a75.355,75.355,0,0,0,24.766-5.127,83.624,83.624,0,0,0,10.959-5.048,24.161,24.161,0,0,0,6,4.689,24.91,24.91,0,0,0,12.163,2.99c.352,0,.7-.006,1.052-.019a41.128,41.128,0,0,0,10.052-1.723c.172-.049.343-.1.513-.154a15.087,15.087,0,0,0,4.812.139,16.265,16.265,0,0,0,9.911-5.265,25.446,25.446,0,0,0,13.286,8.843,22.1,22.1,0,0,0,5.543.692,29.522,29.522,0,0,0,10.041-1.912,44.816,44.816,0,0,0,10.714-5.7,41.545,41.545,0,0,0,8.806-8.285c.287-.368.555-.726.81-1.079a36.652,36.652,0,0,0,2.443-2.824c4.555-5.86,6.2-11.71,4.887-17.385A16.539,16.539,0,0,0,706.524,4261.18Z" fill="#fff" stroke="#000" stroke-miterlimit="10" stroke-width="6"/>
        </g>
      </g>
    </g>
    <g id="Group_7075" data-name="Group 7075">
      <g id="Group_7030" data-name="Group 7030">
        <path id="Path_16473" data-name="Path 16473" d="M1196.635,4273.092a6.624,6.624,0,0,0-2.754-3.868c-.186-.14-.388-.283-.606-.438a7.393,7.393,0,0,0-1.508-.939,58.9,58.9,0,0,0-10.241-4.438c-1.29-.464-2.624-.943-3.894-1.443a62.093,62.093,0,0,1-6.517-2.968,28.8,28.8,0,0,0,9.271-8.554,32.166,32.166,0,0,0,3.463-4.2,35.088,35.088,0,0,0,5.559-12.653,44.76,44.76,0,0,0,.167-17.438,41.791,41.791,0,0,0-5.957-15.461c-3.544-5.34-8.269-8.857-13.662-10.17a21.205,21.205,0,0,0-5.018-.589,27.582,27.582,0,0,0-8.684,1.5,33.11,33.11,0,0,0-17.184,12.458c-5.94,6.109-9.75,14.855-10.936,24.965-1.673.2-4,1.18-5.588,4.688-1.49.871-3.021,2.6-4,5.936a27.91,27.91,0,0,0-.8,9.03,64.307,64.307,0,0,0,1.183,9.386,106.208,106.208,0,0,0,5.237,17.981,73.419,73.419,0,0,0,3.942,8.649c1.468,2.693,3.257,5.737,5.927,7.8a6.481,6.481,0,0,0,3.934,1.548,4.782,4.782,0,0,0,.648-.043,6.231,6.231,0,0,0,4.153-2.483,9.5,9.5,0,0,0,1.161-2.1,6.327,6.327,0,0,0,2.089-1.8c2-2.705,2.178-6.218,2.32-9.041l.028-.552c.035-.652.047-1.321.059-1.969.007-.419.016-.84.03-1.258a15.429,15.429,0,0,1,1.872,3.719l.21.525.127.315a73.774,73.774,0,0,0,3.668,8.117c3.16,5.735,6.964,9.213,11.3,10.338a12.093,12.093,0,0,0,3.034.372,19.781,19.781,0,0,0,6.665-1.325,34.817,34.817,0,0,0,8.3-4.44,31.567,31.567,0,0,0,6.7-6.267c.321-.412.658-.865.988-1.351a27.094,27.094,0,0,0,2.262-2.549C1195.287,4279.906,1197.447,4276.6,1196.635,4273.092Zm-43.207-26.645a4.784,4.784,0,0,1-.863.078,7.546,7.546,0,0,1-5.363-2.687,3.273,3.273,0,0,1-1.082-2.259c.059-.088.186-.246.275-.355s.187-.233.276-.35c.18-.236.349-.454.521-.675a24.418,24.418,0,0,1,1.816-1.8,5.544,5.544,0,0,1,3.3-1.679c.075,0,.15,0,.223.011,2.076.218,2.757,3.283,2.827,4.873a9.329,9.329,0,0,1-1.112,4.515A3.347,3.347,0,0,1,1153.428,4246.447Z"/>
        <g id="Group_7029" data-name="Group 7029" clip-path="url(#clip-path)">
          <g id="Group_7028" data-name="Group 7028">
            <g id="Group_7027" data-name="Group 7027">
              <path id="Path_16474" data-name="Path 16474" d="M1190.942,4270.322s.337.242,1.328.946c.23.162.325.227.326.227S1190.947,4270.322,1190.942,4270.322Z" fill="url(#linear-gradient)"/>
              <path id="Path_16475" data-name="Path 16475" d="M1191.539,4280.492c1.393-1.792,3.119-4.412,2.563-6.814a4.208,4.208,0,0,0-1.832-2.41c-4.674-3.322-10.318-4.809-15.59-6.882a63.412,63.412,0,0,1-7.4-3.415q-1.577-.867-3.085-1.85-.617-.4-1.22-.828a5.4,5.4,0,0,0-1.589-1.006,19.414,19.414,0,0,1-4.2-1.179,10.138,10.138,0,0,1-2.8-2.078,17.538,17.538,0,0,0,6.135,1.415c.212.007.425.01.638.01a20.083,20.083,0,0,0,6.739-1.163,24.967,24.967,0,0,0,11.812-9.527,32.479,32.479,0,0,0,5.153-11.718,42.5,42.5,0,0,0,.149-16.429c-1.754-9.757-7.191-21.014-17.676-23.566a18.526,18.526,0,0,0-4.4-.515,25.049,25.049,0,0,0-7.863,1.369,31.911,31.911,0,0,0-12.795,7.8c-7.126,7.258-10.227,17.732-10.645,27.7-.019.482-.019,1.923-.019,1.923l2.019,3.107s-3.822-2.553-6.031-2.954a3.993,3.993,0,0,0-.729-.068c-2.554,0-3.917,2.628-4.581,4.9a25.168,25.168,0,0,0-.7,8.182,62.048,62.048,0,0,0,1.138,9.006,103.332,103.332,0,0,0,5.11,17.54,71.154,71.154,0,0,0,3.8,8.344c1.359,2.493,2.95,5.222,5.233,6.985a4.006,4.006,0,0,0,2.345,1.006,2.24,2.24,0,0,0,.306-.02,3.609,3.609,0,0,0,2.405-1.452c1.648-2.229,1.7-5.536,1.842-8.186.145-2.71-.136-5.91,1.084-8.417a3.708,3.708,0,0,1,3.342-2.136,3.813,3.813,0,0,1,1.6.359c2.408,1.116,3.48,4.2,4.4,6.477a74.442,74.442,0,0,0,3.661,8.15c2.095,3.8,5.261,7.93,9.681,9.076a9.48,9.48,0,0,0,2.381.289,17.5,17.5,0,0,0,5.786-1.172,32.145,32.145,0,0,0,7.677-4.113A29.017,29.017,0,0,0,1191.539,4280.492Zm-37.58-31.5a7.4,7.4,0,0,1-1.394.132,10.159,10.159,0,0,1-7.313-3.567c-1.126-1.277-2.145-3.078-1.6-4.82a5.115,5.115,0,0,1,.946-1.439q.78-1.021,1.585-2.024a37.787,37.787,0,0,1,4.354-4.729,7.983,7.983,0,0,1,5.013-2.326,4.563,4.563,0,0,1,.494.026c3.548.371,5.016,4.219,5.153,7.344a12.812,12.812,0,0,1-2.045,7.013C1158,4246.549,1156.26,4248.481,1153.959,4248.993Z" fill="url(#linear-gradient-2)"/>
            </g>
            <path id="Path_16476" data-name="Path 16476" d="M1189.092,4277.406a11.74,11.74,0,0,0,1.416-2.079c.057-.173.044-.29,0-.314s-.035.012-.078-.074c.006-.029-.058-.1-.072-.158a6.454,6.454,0,0,0-2.684-2.181c-1.57-.9-3.221-1.6-4.88-2.359l.066-.252c2.837.347,8.49,1.081,10.024,3.8,1.135,2.322-1.558,4.315-3.708,3.86l-.089-.244Z" fill="#fff"/>
            <path id="Path_16477" data-name="Path 16477" d="M1155.36,4196.781c12.164-5.157,26.046,1.185,27.472,14.937a37.238,37.238,0,0,0-4.574-7.258c-5.509-6.744-14.563-8.23-22.9-7.679Z" fill="#fff"/>
          </g>
        </g>
      </g>
      <g id="Group_7034" data-name="Group 7034">
        <path id="Path_16479" data-name="Path 16479" d="M1137.854,4205.581a11.264,11.264,0,0,0-1.1-1.5,12.467,12.467,0,0,0-1.129-1.3,26.838,26.838,0,0,0-19.66-8.269l-.283,0a20.891,20.891,0,0,0-6.63,1.049,28.087,28.087,0,0,0-5.649,2.743,50.444,50.444,0,0,0-9.276,7.533,70.807,70.807,0,0,0-5.78,6.6,74.757,74.757,0,0,0-10.6,15.432c-4.345,8.383-6.665,16-7.092,23.3a38.146,38.146,0,0,0,6.451,23.453,53.071,53.071,0,0,0,17.291,16.017c5.6,3.3,14.2,7.266,23.389,7.379l.39,0c4.687,0,8.138-1.117,10.551-3.415a11.147,11.147,0,0,0,2.248-3.062,10.7,10.7,0,0,0,1-.838c2.933-2.794,4.253-7.338,3.621-12.466-.29-2.351-1.43-8.147-5.743-11.148A6.769,6.769,0,0,0,1126,4265.8l-.126,0a9.114,9.114,0,0,0-2.924.664c-.272.1-.529.189-.75.253-.941.272-1.924.5-2.934.685a33.614,33.614,0,0,0,3.385-2.522,38.467,38.467,0,0,0,6.063-6.586,45.158,45.158,0,0,0,7.941-11.844,61.772,61.772,0,0,0,5.638-19.8C1142.9,4220.752,1142.565,4212.487,1137.854,4205.581Zm-43.453,47.147q-.029-.282-.047-.573a16.068,16.068,0,0,1,1.005-6.571,15.86,15.86,0,0,1,1.077-2.3,6.915,6.915,0,0,1,4.078-1.831c.1,0,.211,0,.315.014a2.912,2.912,0,0,1,2.443,3.333h0v.017h0a7.444,7.444,0,0,1-1.163,3.361A21.274,21.274,0,0,1,1094.4,4252.728Z"/>
        <g id="Group_7033" data-name="Group 7033" clip-path="url(#clip-path-2)">
          <g id="Group_7032" data-name="Group 7032">
            <g id="Group_7031" data-name="Group 7031">
              <path id="Path_16480" data-name="Path 16480" d="M1133.947,4204.738s.2.259.766.969.778.965.78.965S1133.951,4204.737,1133.947,4204.738Z" fill="url(#linear-gradient-3)"/>
              <path id="Path_16481" data-name="Path 16481" d="M1134.713,4205.707c-4.47-5.626-11.648-8.6-18.749-8.6l-.257,0a18.441,18.441,0,0,0-5.815.909,25.61,25.61,0,0,0-5.125,2.5,48.207,48.207,0,0,0-8.8,7.153,71.45,71.45,0,0,0-12.668,17.5c-3.589,6.921-6.347,14.41-6.805,22.253a35.612,35.612,0,0,0,6.022,21.864,50.3,50.3,0,0,0,16.446,15.216c6.591,3.891,14.358,6.923,22.1,7.018l.358,0c3.074,0,6.456-.506,8.757-2.7,2.725-2.594,3.275-6.693,2.835-10.264-.41-3.322-1.775-7.333-4.648-9.333a4.2,4.2,0,0,0-2.364-.82h-.07a12.289,12.289,0,0,0-3.008.816,35.05,35.05,0,0,1-5.692,1.125,41.819,41.819,0,0,1-4.783.277,38.608,38.608,0,0,1-6.489-.539,24.986,24.986,0,0,1-8.786-2.934,11.474,11.474,0,0,1-3.014-2.586c1.085.362,2.131.859,3.2,1.264a12.148,12.148,0,0,0,3.246.587c.929.081,1.864.121,2.8.121a33.416,33.416,0,0,0,4.909-.364,31.709,31.709,0,0,0,15.9-7.165,40.5,40.5,0,0,0,10.089-13.662,59.1,59.1,0,0,0,5.4-18.956C1140.447,4219.195,1139.363,4211.49,1134.713,4205.707Zm-25.615,35.687s0-.087.018-.327c-.174,3.032-2.075,5.721-4.088,7.874a23.8,23.8,0,0,1-9.843,6.267,14.169,14.169,0,0,1-4.4.91,6.546,6.546,0,0,1-1.013-.075,13.827,13.827,0,0,0,2.158-.878c.3-.187.228-.106.152-.464-.056-.263-.107-.526-.149-.791-.084-.526-.14-1.059-.174-1.591a18.621,18.621,0,0,1,1.165-7.644,17.278,17.278,0,0,1,4.48-6.754c1.725-1.574,3.961-2.967,6.36-2.967.182,0,.364.008.548.025a5.472,5.472,0,0,1,4.8,6.088c.015-.236.021-.322.022-.322Z" fill="url(#linear-gradient-4)"/>
            </g>
            <path id="Path_16482" data-name="Path 16482" d="M1116.673,4201.24c10.473-2.919,20.257,5.233,18.82,16.122a39.02,39.02,0,0,0-2.606-6.319c-3.142-6.135-9.631-8.857-16.214-9.8Z" fill="#fff"/>
            <path id="Path_16483" data-name="Path 16483" d="M1115.616,4273.524c1.415-.4,2.651-.731,3.862-1.166,1.913-.63,3.886-1.66,6.094-1.64,2.539,0,4.363,2.228,4.777,4.582-1.925-1.369-3.337-2.621-5.531-1.97-.222.041-.665.154-.881.222-2.515.779-5.811,1.354-8.321-.028Z" fill="#fff"/>
          </g>
        </g>
      </g>
      <g id="Group_7036" data-name="Group 7036">
        <path id="Path_16485" data-name="Path 16485" d="M1331.025,4223.16c-.114-.988-.254-1.865-.431-2.68l-.015-.108a4.31,4.31,0,0,0-.2-.795c-.016-.056-.035-.124-.059-.2-.014-.053-.029-.1-.044-.158-1.617-5.749-7.353-8.922-16.15-8.922a39.2,39.2,0,0,0-4.348.246,38.72,38.72,0,0,0-5.943,1.125c-.93.255-1.749.52-2.506.81a15.469,15.469,0,0,0-1.482.647l-.051.024a3.561,3.561,0,0,0-1.869,1.653,3.311,3.311,0,0,0-.269,1.743c-.394.161-.739.317-1.061.48l-.051.024a3.563,3.563,0,0,0-1.869,1.653,3.675,3.675,0,0,0-.224,2.137l.008.063.02.61.023.691q.024.724.055,1.449c.218,5.275.467,10.5.682,14.908l.227,4.658.073,1.492-.2.013c-.326.023-.654.054-.981.087-.505.05-.982.1-1.409.1a4.458,4.458,0,0,1-.448-.021,1.483,1.483,0,0,1-1.092-.561,3.564,3.564,0,0,1-.167-.464c-.049-.156-.1-.313-.157-.473-.129-.365-.318-.942-.429-1.345-.8-2.927-1.634-5.818-2.27-8.01-1.1-3.777-2.225-7.61-3.317-11.317l-1-3.41q-.261-.884-.518-1.769c-.77-2.639-1.566-5.368-2.475-8.041-1.271-3.737-3.4-9.21-7.168-13.579a20.291,20.291,0,0,0-14.537-6.911c-.675-.04-1.373-.061-2.075-.061a66.3,66.3,0,0,0-14.527,2.072,129.926,129.926,0,0,0-15.962,4.429,35.727,35.727,0,0,0-7.441,3.54,11.523,11.523,0,0,0-4.366,4.683c-1.554,1.185-3.776,3.362-3.875,6.623-.1,3.383,1.843,6.182,3.406,8.431l.034.049c.75,1.078,1.525,2.117,2.193,3.008,4.189,5.578,9.012,12.094,13.247,18.84a279.656,279.656,0,0,1,15.314,28.4c2.443,5.095,4.862,10.4,7,15.078l.3.653c1.025,2.251,2.085,4.579,3.28,6.834l.156.295c1.088,2.067,2.733,5.191,6.046,5.9a11.682,11.682,0,0,0,2.478.24c.742,0,1.452-.049,2.139-.1.292-.02.584-.04.872-.055q1-.054,2-.1l.942-.046c.59-.029,1.181-.056,1.773-.084a97.868,97.868,0,0,0,12.331-1.1,18.822,18.822,0,0,0,4.108-1.1,6.168,6.168,0,0,0,2.113-1.311,4.094,4.094,0,0,0,.9-1.615c.049-.308.082-.617.108-.927.042-.017.085-.029.127-.047a6.168,6.168,0,0,0,2.113-1.311,4.094,4.094,0,0,0,.9-1.615,22.544,22.544,0,0,0-.093-5.914c-.043-.409-.087-.813-.123-1.211l-.108-1.18c-.191-2.073-.388-4.217-.515-6.31a55.822,55.822,0,0,1-.052-7.458,19.552,19.552,0,0,1,.49-3.275,3.145,3.145,0,0,1,.547-.053,2.965,2.965,0,0,1,2.477,1.31,15.446,15.446,0,0,1,1.984,5.849c.369,1.96.657,4,.934,5.971q.125.882.251,1.763l.108.758a30.018,30.018,0,0,0,1.662,7.23l.031.077a4.3,4.3,0,0,0,3.229,3,23.853,23.853,0,0,0,3.608.27l.368,0a22.686,22.686,0,0,0,8.287-1.514l.1-.038a3.792,3.792,0,0,0,2.068-1.616,3.594,3.594,0,0,0,.4-1.174l.005-.031c.072-.286.139-.575.208-.863.157-.059.318-.115.471-.178l.1-.038a3.792,3.792,0,0,0,2.068-1.616,3.594,3.594,0,0,0,.4-1.174l.005-.031c.129-.517.254-1.039.375-1.562,1.694-7.314,3.179-15.22,4.539-24.17.939-6.182,1.572-11.27,1.991-16.012A81.345,81.345,0,0,0,1331.025,4223.16Z"/>
        <g id="Group_7035" data-name="Group 7035">
          <path id="Path_16486" data-name="Path 16486" d="M1301.544,4243.851h0q0-.056-.012-.111Z" fill="url(#linear-gradient-5)"/>
          <path id="Path_16487" data-name="Path 16487" d="M1328.226,4239.188a78.176,78.176,0,0,0,.216-15.731,21.917,21.917,0,0,0-.664-3.522c-1.589-5.649-8.069-7.038-13.65-7.038a36.952,36.952,0,0,0-4.06.23,36.1,36.1,0,0,0-5.543,1.048c-.764.21-1.523.447-2.263.731a13.325,13.325,0,0,0-1.238.538c-.186.1-.655.28-.746.472a2.874,2.874,0,0,0,.031.932q.023.684.046,1.368c.015.477.034.953.053,1.429q.309,7.446.682,14.888.227,4.659.454,9.317c.171,2.083-2.241,3.027-3.919,3.286-.7.107-1.4.132-2.1.181-.852.059-1.712.19-2.569.19a6.917,6.917,0,0,1-.718-.035,4,4,0,0,1-3-1.724,6.474,6.474,0,0,1-.6-1.492c-.132-.375-.349-1.028-.485-1.526-.73-2.664-1.49-5.32-2.26-7.972-1.425-4.911-2.875-9.813-4.318-14.718-.954-3.245-1.87-6.5-2.959-9.707-1.534-4.507-3.537-9.081-6.675-12.718a17.7,17.7,0,0,0-12.725-6.013q-.959-.059-1.919-.057a63.838,63.838,0,0,0-13.953,2.007,129.668,129.668,0,0,0-15.648,4.338,32.757,32.757,0,0,0-6.9,3.267c-1.855,1.222-3.75,2.933-3.822,5.314-.077,2.545,1.588,4.92,2.976,6.917.691.994,1.411,1.963,2.138,2.931,4.658,6.2,9.242,12.443,13.369,19.019a287.043,287.043,0,0,1,15.456,28.653c2.4,5.012,4.712,10.067,7.019,15.123,1.126,2.468,2.239,4.95,3.51,7.349.979,1.847,2.206,4.391,4.451,4.875a9.2,9.2,0,0,0,1.931.181c.961,0,1.931-.1,2.873-.149.984-.052,1.969-.1,2.954-.146a111.913,111.913,0,0,0,13.784-1.15,16.317,16.317,0,0,0,3.545-.935,3.841,3.841,0,0,0,1.266-.735c.045-.046.156-.23.185-.23.007,0,.009.008.007.027a26.876,26.876,0,0,0-.237-6.482c-.23-2.522-.477-5.042-.629-7.57a57.389,57.389,0,0,1-.049-7.813,14.536,14.536,0,0,1,1.9-6.9,5.97,5.97,0,0,1,4.978-2.725,5.563,5.563,0,0,1,4.6,2.415,17.469,17.469,0,0,1,2.412,6.863c.49,2.6.824,5.226,1.2,7.842a31.275,31.275,0,0,0,1.6,7.374c.257.626.537,1.386,1.25,1.495a21.066,21.066,0,0,0,3.213.24l.331,0a20.352,20.352,0,0,0,7.335-1.319c.3-.124.734-.251.893-.532a2.193,2.193,0,0,0,.137-.519q.194-.774.372-1.552c1.834-7.918,3.281-15.94,4.5-23.974C1327.054,4249.777,1327.757,4244.49,1328.226,4239.188Z" fill="url(#linear-gradient-6)"/>
          <path id="Path_16488" data-name="Path 16488" d="M1327.759,4219.868l.019.067c.167.585.224.782.224.782Z" fill="url(#linear-gradient-7)"/>
        </g>
        <path id="Path_16489" data-name="Path 16489" d="M1252.216,4194.887c8.921-3.7,20.362,1.376,20.648,11.758a28.335,28.335,0,0,0-3.607-5.306c-4.311-4.827-10.8-5.99-17.041-6.452Z" fill="#fff"/>
        <path id="Path_16490" data-name="Path 16490" d="M1315.71,4215.931a6.923,6.923,0,0,1,9.237,2.115,10.884,10.884,0,0,1,1.01,9.582c-.536-1.539-.916-3.007-1.391-4.386-1.426-4.567-3.975-6.878-8.856-7.311Z" fill="#fff"/>
        <path id="Path_16491" data-name="Path 16491" d="M1280.843,4288.724c2.463-1.144,5.038-1.449,7.326-2.649.212-.14.206-.143.3-.3.414-.983.132-2.736.056-3.942a27.764,27.764,0,0,1-.139-4.8c1.409,2.834,4.672,8.792,1.218,11.217a11.252,11.252,0,0,1-8.758.479Z" fill="#fff"/>
        <path id="Path_16492" data-name="Path 16492" d="M1311.612,4280.427c1.782-1.031,3.555-1.378,5.287-2.2a1.378,1.378,0,0,0,.338-.255c1.212-1.327,1.424-3.905,2.3-5.714,1.1,2.644,1.479,6.616-1.433,8.262a8.034,8.034,0,0,1-6.489-.1Z" fill="#fff"/>
      </g>
      <g id="Group_7038" data-name="Group 7038">
        <path id="Path_16493" data-name="Path 16493" d="M1086.071,4223.16c-.114-.988-.254-1.865-.431-2.68l-.015-.108a4.31,4.31,0,0,0-.2-.795c-.016-.056-.035-.124-.059-.2-.014-.053-.029-.1-.044-.158-1.617-5.749-7.353-8.922-16.15-8.922a39.2,39.2,0,0,0-4.348.246,38.72,38.72,0,0,0-5.943,1.125c-.93.255-1.749.52-2.506.81a15.479,15.479,0,0,0-1.482.647l-.051.024a3.561,3.561,0,0,0-1.869,1.653,3.321,3.321,0,0,0-.269,1.743c-.394.161-.738.317-1.061.48l-.051.024a3.562,3.562,0,0,0-1.869,1.653,3.674,3.674,0,0,0-.224,2.137l.008.063.02.61.023.691q.024.724.055,1.449c.219,5.275.467,10.5.682,14.908l.227,4.658.073,1.492-.2.013c-.326.023-.654.054-.981.087-.505.05-.982.1-1.409.1a4.461,4.461,0,0,1-.448-.021,1.485,1.485,0,0,1-1.092-.561,3.564,3.564,0,0,1-.167-.464c-.049-.156-.1-.313-.157-.473-.128-.365-.318-.942-.428-1.345-.8-2.927-1.635-5.818-2.271-8.01-1.1-3.777-2.225-7.61-3.317-11.317l-1-3.41q-.259-.884-.517-1.769c-.77-2.639-1.566-5.368-2.475-8.041-1.272-3.737-3.4-9.21-7.169-13.579a20.291,20.291,0,0,0-14.537-6.911c-.675-.04-1.373-.061-2.075-.061a66.3,66.3,0,0,0-14.527,2.072,129.9,129.9,0,0,0-15.961,4.429,35.733,35.733,0,0,0-7.442,3.54,11.515,11.515,0,0,0-4.365,4.683c-1.555,1.185-3.777,3.362-3.876,6.623-.1,3.383,1.843,6.182,3.407,8.431l.033.049c.75,1.078,1.525,2.117,2.193,3.008,4.189,5.578,9.012,12.094,13.247,18.84a279.643,279.643,0,0,1,15.314,28.4c2.443,5.095,4.863,10.4,7,15.078l.3.653c1.025,2.251,2.086,4.579,3.28,6.834l.156.295c1.089,2.067,2.733,5.191,6.046,5.9a11.682,11.682,0,0,0,2.478.24c.742,0,1.452-.049,2.139-.1.292-.02.584-.04.872-.055q1-.054,2-.1l.941-.046c.59-.029,1.181-.056,1.773-.084a97.868,97.868,0,0,0,12.331-1.1,18.822,18.822,0,0,0,4.108-1.1,6.18,6.18,0,0,0,2.114-1.311,4.082,4.082,0,0,0,.9-1.615c.049-.308.082-.617.108-.927.042-.017.085-.029.127-.047a6.18,6.18,0,0,0,2.114-1.311,4.082,4.082,0,0,0,.9-1.615,22.544,22.544,0,0,0-.093-5.914c-.043-.409-.087-.813-.123-1.211l-.108-1.18c-.191-2.073-.388-4.217-.515-6.31a55.822,55.822,0,0,1-.052-7.458,19.552,19.552,0,0,1,.49-3.275,3.145,3.145,0,0,1,.548-.053,2.963,2.963,0,0,1,2.476,1.31,15.425,15.425,0,0,1,1.984,5.849c.369,1.96.657,4,.934,5.971q.125.882.251,1.763l.108.758a30.018,30.018,0,0,0,1.662,7.23l.031.077a4.3,4.3,0,0,0,3.229,3,23.853,23.853,0,0,0,3.608.27l.368,0a22.682,22.682,0,0,0,8.287-1.514l.1-.038a3.789,3.789,0,0,0,2.068-1.616,3.6,3.6,0,0,0,.4-1.174l.005-.031c.072-.286.139-.575.208-.863.157-.059.318-.115.471-.178l.1-.038a3.789,3.789,0,0,0,2.068-1.616,3.6,3.6,0,0,0,.4-1.174l.005-.031c.13-.517.254-1.039.376-1.562,1.693-7.314,3.178-15.22,4.538-24.17.939-6.182,1.572-11.27,1.991-16.012A81.354,81.354,0,0,0,1086.071,4223.16Z"/>
        <g id="Group_7037" data-name="Group 7037">
          <path id="Path_16494" data-name="Path 16494" d="M1056.59,4243.851h0q0-.056-.012-.111Z" fill="url(#linear-gradient-8)"/>
          <path id="Path_16495" data-name="Path 16495" d="M1083.272,4239.188a78.176,78.176,0,0,0,.216-15.731,21.824,21.824,0,0,0-.664-3.522c-1.588-5.649-8.069-7.038-13.65-7.038a36.965,36.965,0,0,0-4.06.23,36.126,36.126,0,0,0-5.543,1.048c-.764.21-1.522.447-2.263.731a13.442,13.442,0,0,0-1.238.538c-.186.1-.655.28-.745.472a2.873,2.873,0,0,0,.03.932c.016.456.03.912.046,1.368q.024.716.054,1.429.308,7.446.681,14.888.227,4.659.454,9.317c.171,2.083-2.241,3.027-3.919,3.286-.7.107-1.4.132-2.1.181-.852.059-1.712.19-2.569.19a6.913,6.913,0,0,1-.718-.035,4,4,0,0,1-3-1.724,6.422,6.422,0,0,1-.6-1.492c-.133-.375-.35-1.028-.486-1.526-.73-2.664-1.49-5.32-2.26-7.972-1.425-4.911-2.875-9.813-4.317-14.718-.955-3.245-1.871-6.5-2.96-9.707-1.534-4.507-3.537-9.081-6.675-12.718a17.7,17.7,0,0,0-12.725-6.013q-.959-.059-1.919-.057a63.822,63.822,0,0,0-13.952,2.007,129.629,129.629,0,0,0-15.649,4.338,32.782,32.782,0,0,0-6.9,3.267c-1.855,1.222-3.75,2.933-3.822,5.314-.077,2.545,1.588,4.92,2.976,6.917.691.994,1.412,1.963,2.138,2.931,4.658,6.2,9.242,12.443,13.369,19.019a286.844,286.844,0,0,1,15.456,28.653c2.4,5.012,4.712,10.067,7.019,15.123,1.126,2.468,2.239,4.95,3.51,7.349.979,1.847,2.206,4.391,4.451,4.875a9.209,9.209,0,0,0,1.931.181c.961,0,1.931-.1,2.873-.149.984-.052,1.969-.1,2.954-.146a111.913,111.913,0,0,0,13.784-1.15,16.341,16.341,0,0,0,3.546-.935,3.847,3.847,0,0,0,1.265-.735c.046-.046.156-.23.186-.23.006,0,.008.008.006.027a26.876,26.876,0,0,0-.237-6.482c-.23-2.522-.477-5.042-.629-7.57a57.567,57.567,0,0,1-.049-7.813,14.547,14.547,0,0,1,1.9-6.9,5.97,5.97,0,0,1,4.979-2.725,5.562,5.562,0,0,1,4.6,2.415,17.486,17.486,0,0,1,2.413,6.863c.489,2.6.823,5.226,1.2,7.842a31.275,31.275,0,0,0,1.6,7.374c.257.626.538,1.386,1.25,1.495a21.068,21.068,0,0,0,3.213.24l.331,0a20.352,20.352,0,0,0,7.335-1.319c.3-.124.734-.251.893-.532a2.193,2.193,0,0,0,.137-.519q.194-.774.373-1.552c1.833-7.918,3.28-15.94,4.5-23.974C1082.1,4249.777,1082.8,4244.49,1083.272,4239.188Z" fill="url(#linear-gradient-6)"/>
          <path id="Path_16496" data-name="Path 16496" d="M1082.805,4219.868l.019.067c.167.585.224.782.225.782Z" fill="url(#linear-gradient-10)"/>
        </g>
        <path id="Path_16497" data-name="Path 16497" d="M1007.262,4194.887c8.921-3.7,20.362,1.376,20.648,11.758a28.289,28.289,0,0,0-3.607-5.306c-4.31-4.827-10.8-5.99-17.041-6.452Z" fill="#fff"/>
        <path id="Path_16498" data-name="Path 16498" d="M1070.756,4215.931a6.922,6.922,0,0,1,9.237,2.115,10.884,10.884,0,0,1,1.01,9.582c-.536-1.539-.916-3.007-1.391-4.386-1.426-4.567-3.975-6.878-8.856-7.311Z" fill="#fff"/>
        <path id="Path_16499" data-name="Path 16499" d="M1035.889,4288.724c2.463-1.144,5.038-1.449,7.326-2.649.212-.14.206-.143.3-.3.413-.983.131-2.736.055-3.942a27.669,27.669,0,0,1-.138-4.8c1.408,2.834,4.671,8.792,1.217,11.217a11.252,11.252,0,0,1-8.758.479Z" fill="#fff"/>
        <path id="Path_16500" data-name="Path 16500" d="M1066.658,4280.427c1.782-1.031,3.556-1.378,5.287-2.2a1.355,1.355,0,0,0,.338-.255c1.212-1.327,1.425-3.905,2.3-5.714,1.1,2.644,1.479,6.616-1.433,8.262a8.035,8.035,0,0,1-6.489-.1Z" fill="#fff"/>
      </g>
      <g id="Group_7042" data-name="Group 7042">
        <path id="Path_16501" data-name="Path 16501" d="M1005.745,4199.694a13.185,13.185,0,0,0-3.065-3.384,6.789,6.789,0,0,0-.994-.708,5.959,5.959,0,0,0-1.226-.658,14.143,14.143,0,0,0-6.181-1.3,19.262,19.262,0,0,0-2.1.119,31.841,31.841,0,0,0-3.623.677c-.639.146-1.242.283-1.842.4a95.418,95.418,0,0,1-16.034,1.461q-1.265.021-2.531.02c-4.682,0-9.651-.2-15.636-.624-3.769-.268-7.608-.66-11.32-1.039-2.342-.239-4.764-.487-7.158-.7-1.18-.107-2.363-.16-3.515-.16a29.593,29.593,0,0,0-15.043,3.746,26.37,26.37,0,0,0-8.4,7.88,29.23,29.23,0,0,0-6.533,10.1,37.19,37.19,0,0,0-2.278,9.228,24.221,24.221,0,0,0,.493,9.92,10.186,10.186,0,0,0,6.091,6.894,11.036,11.036,0,0,0,3.836.661,15.961,15.961,0,0,0,6.257-1.391,22.433,22.433,0,0,0,4.174-2.364c.681-.486,1.3-1,1.905-1.49.533-.437,1.036-.849,1.547-1.22a23.6,23.6,0,0,1,6.578-3.36,25.907,25.907,0,0,1,7.876-1.294q.367,0,.729.012l.027.1c3.179,12.112-.972,24.619-4.986,36.714-.461,1.388-.919,2.767-1.362,4.135l-.133.409a15.176,15.176,0,0,0-1.051,5.985,11.323,11.323,0,0,0,2.708,6.333c2.8,3.433,6.767,5.488,9.909,6.9,6.761,3.027,14.61,4.958,24,5.9a74.529,74.529,0,0,0,7.483.433c1.275,0,2.51-.05,3.67-.146a6.516,6.516,0,0,0,5.713-4.58c3.923-2.009,4.229-7.767,4.356-10.161a64.968,64.968,0,0,0-.824-12.594c-.558-3.862-1.346-7.97-2.41-12.559-.986-4.253-2.068-8.425-3.217-12.4-.27-.932-.561-1.872-.842-2.781a44.787,44.787,0,0,1-2.06-8.524c-.028-.274-.043-.529-.052-.776.108-.006.215-.011.317-.012h.142a23.591,23.591,0,0,1,3.166.3c.333.047.665.093,1,.135a48.849,48.849,0,0,0,6.163.474,22.774,22.774,0,0,0,5.255-.561,12.26,12.26,0,0,0,8.247-6.26,12.758,12.758,0,0,0,3.863-5.174,27.9,27.9,0,0,0,1.882-10.314C1008.8,4207.082,1007.809,4202.912,1005.745,4199.694Z"/>
        <g id="Group_7041" data-name="Group 7041" clip-path="url(#clip-path-3)">
          <g id="Group_7040" data-name="Group 7040">
            <g id="Group_7039" data-name="Group 7039">
              <path id="Path_16502" data-name="Path 16502" d="M999.7,4197.432c-.006,0,.152.1.6.391.442.269.609.368.615.368S999.712,4197.432,999.7,4197.432Z" fill="url(#linear-gradient-11)"/>
              <path id="Path_16503" data-name="Path 16503" d="M1004.423,4221.393a25.861,25.861,0,0,0,1.679-9.36c.077-3.746-.486-7.725-2.546-10.936a10.293,10.293,0,0,0-3.261-3.274,11.067,11.067,0,0,0-6.016-1.582,16.3,16.3,0,0,0-1.818.1c-1.784.2-3.513.714-5.273,1.044a98.054,98.054,0,0,1-16.47,1.5q-1.287.021-2.574.021c-5.278,0-10.556-.256-15.82-.63-6.192-.44-12.347-1.19-18.527-1.746-1.088-.1-2.185-.149-3.282-.149a27.271,27.271,0,0,0-13.74,3.4,25.1,25.1,0,0,0-10.566,12.776,34.823,34.823,0,0,0-2.117,8.583,21.718,21.718,0,0,0,.4,8.86,7.692,7.692,0,0,0,4.506,5.216,8.424,8.424,0,0,0,2.935.5,13.545,13.545,0,0,0,5.234-1.182,19.621,19.621,0,0,0,3.686-2.09c1.187-.847,2.256-1.843,3.437-2.7a26.334,26.334,0,0,1,7.3-3.729,28.533,28.533,0,0,1,8.678-1.42,20.313,20.313,0,0,1,7.23,1.246,10.538,10.538,0,0,1,2.19,1.072c-2.05-.11-4.1-.217-6.149-.264,3.754,14.305-2.027,28.841-6.389,42.31a14.069,14.069,0,0,0-1.066,5.4,8.891,8.891,0,0,0,2.13,4.885c2.3,2.822,5.683,4.7,8.958,6.166a75.561,75.561,0,0,0,23.193,5.688c2.386.239,4.809.42,7.223.42,1.155,0,2.307-.042,3.453-.137,3.866-.323,4.281-5.39,4.439-8.387a62.02,62.02,0,0,0-.8-12.085c-.6-4.148-1.423-8.262-2.369-12.344q-1.43-6.169-3.182-12.264c-1.113-3.85-2.578-7.752-2.99-11.761a7.634,7.634,0,0,1,1.089-5.45,6.112,6.112,0,0,1,4.974-2.1h.18a35.654,35.654,0,0,1,4.492.457,46.122,46.122,0,0,0,5.833.453,20.337,20.337,0,0,0,4.661-.492A9.8,9.8,0,0,0,1004.423,4221.393Z" fill="url(#linear-gradient-12)"/>
            </g>
            <path id="Path_16504" data-name="Path 16504" d="M971.332,4287.281c6.761.371,10.9.417,10.789-7.737a39.751,39.751,0,0,0-.522-5.977l.251-.065a33.391,33.391,0,0,1,1.567,5.946c.882,4.452-.676,10.409-6.155,10.4a9.283,9.283,0,0,1-6.037-2.326l.107-.237Z" fill="#fff"/>
            <path id="Path_16505" data-name="Path 16505" d="M987.106,4201.088c6.1-5.022,14.361-3.874,16.4,4.488a20.77,20.77,0,0,1,.091,8.9c-.486-2.318-.873-4.587-1.507-6.732-2.225-8.221-7.47-9-14.984-6.661Z" fill="#fff"/>
          </g>
        </g>
      </g>
      <g id="Group_7046" data-name="Group 7046">
        <path id="Path_16507" data-name="Path 16507" d="M929.113,4239.785c-.249-1.493-.561-3.014-.927-4.52l-.007-.03-.008-.03-.024-.089c-.047-.206-.1-.423-.161-.654l-.011,0,0-.014.01,0c-.285-1.088-.478-1.82-.6-2.28a6.349,6.349,0,0,0-.345-1.035c-3.961-12.845-10.473-22.1-19.374-27.522a43.538,43.538,0,0,0-19.933-5.862c-1.463-.1-3.008-.146-4.721-.146-1.935,0-3.849.062-5.465.123-.965.036-1.961.051-2.924.066-.713.011-1.427.022-2.141.041a14.613,14.613,0,0,0-5.113.947,8.858,8.858,0,0,0-4.915,4.778,9.5,9.5,0,0,0-4.113,7.926,37.41,37.41,0,0,0-9.085,8.877,44.657,44.657,0,0,0-11.02,21.9,67.984,67.984,0,0,0-1,20.862c.769,7.536,2.3,13.189,4.81,17.789A29.648,29.648,0,0,0,857.11,4294.1c5.691,2.331,12.321,3.552,20.867,3.845,1.511.051,2.849.077,4.09.077,7.021,0,12.3-.824,17.125-2.671a42.008,42.008,0,0,0,16.446-11.588c.756-.863,1.46-1.766,2.141-2.687.376-.4.747-.8,1.109-1.213C927.92,4269.549,931.647,4254.943,929.113,4239.785Zm-63.881,22.278c.292-.362.561-.72.83-1.077.125-.134.251-.268.371-.4.675-.754,1.364-1.568,2.049-2.42a35.943,35.943,0,0,0,3.113-4.5,14.292,14.292,0,0,1,2.036,8.417h0l0,.016h0a12.821,12.821,0,0,1-.971,4.1,7.269,7.269,0,0,1-3.754,1.091,6.422,6.422,0,0,1-1.588-.2,4.48,4.48,0,0,1-2.848-1.885,2.36,2.36,0,0,1-.061-2.142C864.683,4262.734,864.958,4262.4,865.232,4262.063Z"/>
        <g id="Group_7045" data-name="Group 7045" clip-path="url(#clip-path-4)">
          <g id="Group_7044" data-name="Group 7044">
            <g id="Group_7043" data-name="Group 7043">
              <path id="Path_16508" data-name="Path 16508" d="M901.512,4289.02a39.443,39.443,0,0,0,15.42-10.873c9.078-10.362,11.851-24.569,9.617-37.933q-.364-2.183-.889-4.335c-.079-.292-.3-1.152-.517-1.969-3.086-11.065-8.756-21.94-18.832-28.079a41.1,41.1,0,0,0-18.754-5.487c-1.514-.1-3.031-.141-4.547-.141-1.79,0-3.579.054-5.367.121-1.7.064-3.4.063-5.094.108a12.183,12.183,0,0,0-4.213.761c-3.041,1.22-4.292,4.129-4.145,7.277.118,2.515.671,4.981.377,7.514-.4-1.486-.84-2.967-1.313-4.433-10.527,5.471-16.844,15.971-19.227,27.342a65.659,65.659,0,0,0-.959,20.064c.582,5.713,1.726,11.72,4.5,16.806a27.179,27.179,0,0,0,13.773,12.028c6.31,2.585,13.2,3.421,19.97,3.652,1.332.046,2.668.076,4,.076A44.78,44.78,0,0,0,901.512,4289.02Zm-22.009-31-.038.481.008-.111a13.787,13.787,0,0,1-3.175,8.133,10.043,10.043,0,0,1-7.393,3.363,9.066,9.066,0,0,1-2.229-.277,7.053,7.053,0,0,1-4.465-3.116,5.027,5.027,0,0,1,.321-5.386,24.7,24.7,0,0,1,1.964-2.257c.674-.753,1.327-1.528,1.96-2.316a32.136,32.136,0,0,0,3.429-5.133,21.4,21.4,0,0,0,2.113-6.009,1.174,1.174,0,0,0,.026-.641,3.507,3.507,0,0,0-.442-.671c-.267-.394-.542-.783-.832-1.16-.559-.725-1.147-1.417-1.742-2.112a15.182,15.182,0,0,1,3.582,2.41,21.258,21.258,0,0,1,3.671,3.961,17.054,17.054,0,0,1,3.212,11.211C879.495,4258.115,879.5,4258.02,879.5,4258.02Z" fill="url(#linear-gradient-13)"/>
              <path id="Path_16509" data-name="Path 16509" d="M925.688,4235.983s-.061-.249-.221-.876q.1.385.193.772C925.677,4235.946,925.688,4235.983,925.688,4235.983Z" fill="url(#linear-gradient-14)"/>
              <path id="Path_16510" data-name="Path 16510" d="M924.7,4232.183s.214.838.446,1.727q.167.6.324,1.2C924.9,4232.935,924.7,4232.183,924.7,4232.183Z" fill="url(#linear-gradient-15)"/>
            </g>
            <path id="Path_16511" data-name="Path 16511" d="M886.053,4202.985c14.605-1.365,29.068,9.358,32.665,23.455-7.556-12.65-18.106-20.618-32.665-23.455Z" fill="#fff"/>
            <path id="Path_16512" data-name="Path 16512" d="M919.38,4260.171c-1.332,14.608-14.522,26.864-29.039,27.819a70.6,70.6,0,0,0,9.493-4.479,46.24,46.24,0,0,0,19.546-23.34Z" fill="#fff"/>
            <path id="Path_16513" data-name="Path 16513" d="M868.392,4243.428a6.209,6.209,0,0,1-.194,5.611,17.79,17.79,0,0,1-3.489,4.42,13.569,13.569,0,0,1-3.061,2l-.145-.216a16.318,16.318,0,0,0,3.83-5.593,17.792,17.792,0,0,1,2.8-6.229l.26.011Z" fill="#fff"/>
          </g>
        </g>
      </g>
      <g id="Group_7050" data-name="Group 7050">
        <path id="Path_16515" data-name="Path 16515" d="M555.48,4239.785c-.25-1.493-.562-3.014-.927-4.52l-.008-.03-.008-.03-.023-.089c-.047-.206-.1-.423-.162-.654l-.01,0,0-.014.011,0c-.285-1.088-.478-1.82-.6-2.28a6.359,6.359,0,0,0-.346-1.035c-3.961-12.845-10.472-22.1-19.373-27.522a43.538,43.538,0,0,0-19.933-5.862c-1.464-.1-3.008-.146-4.721-.146-1.936,0-3.849.062-5.465.123-.965.036-1.961.051-2.924.066-.713.011-1.427.022-2.141.041a14.613,14.613,0,0,0-5.113.947,8.852,8.852,0,0,0-4.915,4.778,9.5,9.5,0,0,0-4.113,7.926,37.393,37.393,0,0,0-9.085,8.877,44.667,44.667,0,0,0-11.021,21.9,68.016,68.016,0,0,0-1,20.862c.768,7.536,2.3,13.189,4.809,17.789a29.65,29.65,0,0,0,15.069,13.187c5.691,2.331,12.321,3.552,20.867,3.845,1.511.051,2.849.077,4.09.077,7.021,0,12.3-.824,17.125-2.671a42.009,42.009,0,0,0,16.446-11.588c.756-.863,1.46-1.766,2.141-2.687.376-.4.747-.8,1.109-1.213C554.287,4269.549,558.014,4254.943,555.48,4239.785ZM491.6,4262.063c.292-.362.561-.72.83-1.077.125-.134.251-.268.371-.4.675-.754,1.364-1.568,2.049-2.42a35.83,35.83,0,0,0,3.112-4.5,14.286,14.286,0,0,1,2.037,8.417h0v.016h0a12.8,12.8,0,0,1-.97,4.1,7.272,7.272,0,0,1-3.754,1.091,6.416,6.416,0,0,1-1.588-.2,4.48,4.48,0,0,1-2.848-1.885,2.36,2.36,0,0,1-.061-2.142C491.049,4262.734,491.325,4262.4,491.6,4262.063Z"/>
        <g id="Group_7049" data-name="Group 7049" clip-path="url(#clip-path-5)">
          <g id="Group_7048" data-name="Group 7048">
            <g id="Group_7047" data-name="Group 7047">
              <path id="Path_16516" data-name="Path 16516" d="M527.879,4289.02a39.457,39.457,0,0,0,15.42-10.873c9.077-10.362,11.851-24.569,9.617-37.933q-.365-2.183-.89-4.335c-.078-.292-.3-1.152-.516-1.969-3.087-11.065-8.756-21.94-18.832-28.079a41.1,41.1,0,0,0-18.754-5.487c-1.515-.1-3.031-.141-4.547-.141-1.79,0-3.579.054-5.368.121-1.7.064-3.395.063-5.093.108a12.183,12.183,0,0,0-4.213.761c-3.041,1.22-4.292,4.129-4.145,7.277.118,2.515.671,4.981.377,7.514-.4-1.486-.84-2.967-1.313-4.433-10.527,5.471-16.844,15.971-19.227,27.342a65.659,65.659,0,0,0-.959,20.064c.582,5.713,1.726,11.72,4.5,16.806a27.175,27.175,0,0,0,13.773,12.028c6.31,2.585,13.2,3.421,19.97,3.652,1.332.046,2.667.076,4,.076A44.78,44.78,0,0,0,527.879,4289.02Zm-22.009-31-.038.481.008-.111a13.788,13.788,0,0,1-3.175,8.133,10.043,10.043,0,0,1-7.393,3.363,9.061,9.061,0,0,1-2.229-.277,7.057,7.057,0,0,1-4.466-3.116,5.027,5.027,0,0,1,.322-5.386,24.7,24.7,0,0,1,1.964-2.257c.673-.753,1.327-1.528,1.96-2.316a32.065,32.065,0,0,0,3.428-5.133,21.375,21.375,0,0,0,2.114-6.009,1.174,1.174,0,0,0,.026-.641,3.51,3.51,0,0,0-.442-.671c-.267-.394-.542-.783-.832-1.16-.559-.725-1.147-1.417-1.743-2.112a15.166,15.166,0,0,1,3.583,2.41,21.257,21.257,0,0,1,3.671,3.961,17.059,17.059,0,0,1,3.212,11.211C505.862,4258.115,505.87,4258.02,505.87,4258.02Z" fill="url(#linear-gradient-13)"/>
              <path id="Path_16517" data-name="Path 16517" d="M552.055,4235.983s-.061-.249-.221-.876c.065.257.13.514.192.772C552.044,4235.946,552.055,4235.983,552.055,4235.983Z" fill="url(#linear-gradient-17)"/>
              <path id="Path_16518" data-name="Path 16518" d="M551.063,4232.183s.215.838.447,1.727q.166.6.324,1.2C551.264,4232.935,551.066,4232.183,551.063,4232.183Z" fill="url(#linear-gradient-18)"/>
            </g>
            <path id="Path_16519" data-name="Path 16519" d="M512.42,4202.985c14.605-1.365,29.068,9.358,32.665,23.455-7.556-12.65-18.107-20.618-32.665-23.455Z" fill="#fff"/>
            <path id="Path_16520" data-name="Path 16520" d="M545.746,4260.171c-1.331,14.608-14.521,26.864-29.038,27.819a70.535,70.535,0,0,0,9.492-4.479,46.23,46.23,0,0,0,19.546-23.34Z" fill="#fff"/>
            <path id="Path_16521" data-name="Path 16521" d="M494.759,4243.428a6.209,6.209,0,0,1-.194,5.611,17.79,17.79,0,0,1-3.489,4.42,13.569,13.569,0,0,1-3.061,2l-.145-.216a16.332,16.332,0,0,0,3.83-5.593,17.775,17.775,0,0,1,2.8-6.229l.26.011Z" fill="#fff"/>
          </g>
        </g>
      </g>
      <g id="Group_7053" data-name="Group 7053">
        <path id="Path_16523" data-name="Path 16523" d="M1455.882,4219.938l0-.019-.005-.019-.006-.019c-.022-.094-.046-.184-.069-.27h0l-.005-.021h0l-.03-.111h0c-1.958-7.07-5.7-12.739-10.816-16.4a29.946,29.946,0,0,0-17.553-5.3,38,38,0,0,0-4.049.22,52.858,52.858,0,0,0-17.446,5.174,46.359,46.359,0,0,0-16.244,13.012c-.244.312-.472.64-.708.96-.782.835-1.535,1.7-2.25,2.588-.153-.159-.306-.324-.459-.472a11.626,11.626,0,0,0-3.915-2.639,6.413,6.413,0,0,0-2.229-.413,6.176,6.176,0,0,0-5.237,3.092,13.054,13.054,0,0,0-.814,1.545,6.754,6.754,0,0,0-2.436,2.355,20.222,20.222,0,0,0-2.482,7.914,57.149,57.149,0,0,0-.52,7.925,128.335,128.335,0,0,0,1.113,16.553c.657,5.33,1.541,10.817,2.628,16.308a55.64,55.64,0,0,0,5.054,15.406c3.183,5.958,7.391,9.585,12.168,10.488a12.523,12.523,0,0,0,2.323.219,13.876,13.876,0,0,0,11.7-6.975c.037-.06.071-.125.107-.186a14.829,14.829,0,0,0,3.143-3.714,37.492,37.492,0,0,0,5.3-17.956,37.805,37.805,0,0,0,4.436.271,33.8,33.8,0,0,0,11.612-2,38,38,0,0,0,17.269-13.349,43.366,43.366,0,0,0,8.824-14.046A33.192,33.192,0,0,0,1455.882,4219.938Zm-44.993,32.022a4.2,4.2,0,0,1-1.009.119,7.915,7.915,0,0,1-5.206-2.418,4.1,4.1,0,0,1-1.517-2.636v0a2.578,2.578,0,0,1,.163-.235c.267-.357.545-.72.829-1.086.574-.627,1.17-1.247,1.8-1.821,1.1-1,2.535-2.159,3.907-2.195h.08a1.92,1.92,0,0,1,1.52.648c1.022,1.1,1.472,3.393,1.427,5.283a4.613,4.613,0,0,0-.154,1.006,14.757,14.757,0,0,1-1.107,3.047A3.174,3.174,0,0,1,1410.889,4251.96Z"/>
        <g id="Group_7052" data-name="Group 7052" clip-path="url(#clip-path-6)">
          <g id="Group_7051" data-name="Group 7051">
            <path id="Path_16524" data-name="Path 16524" d="M1415.122,4262.637a34.938,34.938,0,0,0,4.709.322,31.257,31.257,0,0,0,10.722-1.846c9.978-3.636,17.531-12.227,21.309-21.991a30.524,30.524,0,0,0,1.5-18.548c-.044-.164-.112-.419-.112-.426-1.626-5.855-4.8-11.363-9.814-14.948a27.3,27.3,0,0,0-16.042-4.816,35.32,35.32,0,0,0-3.77.205,50.1,50.1,0,0,0-16.577,4.921,43.924,43.924,0,0,0-15.344,12.282,41.27,41.27,0,0,0-5.516,9.476,33.8,33.8,0,0,0-2.426,8.231,24.928,24.928,0,0,1,.443-4.943,36.16,36.16,0,0,1,.792-3.546c.33-1.2.866-2.361,1.158-3.559.085-.347-.02-.391-.249-.678q-.206-.259-.42-.512c-.333-.391-.683-.767-1.053-1.124a9.015,9.015,0,0,0-3.011-2.072,3.831,3.831,0,0,0-1.327-.251,3.585,3.585,0,0,0-3.034,1.872,17.855,17.855,0,0,0-2.112,6.9,55.383,55.383,0,0,0-.493,7.569,127.224,127.224,0,0,0,1.093,16.222c.666,5.4,1.542,10.784,2.6,16.121a52.7,52.7,0,0,0,4.8,14.686c2.185,4.09,5.554,8.25,10.357,9.158a9.924,9.924,0,0,0,1.84.174,11.261,11.261,0,0,0,9.469-5.707c4.827-8.087,7.19-19.481,2.113-28.012-.433-.726-.944-1.386-1.434-2.073a16.181,16.181,0,0,1,3.985,4.979c.1.195.237.672.4.8a2.169,2.169,0,0,0,.571.15c.524.137,1.049.27,1.577.39C1412.914,4262.293,1414.015,4262.487,1415.122,4262.637Zm-5.242-7.958a10.539,10.539,0,0,1-7.033-3.167c-1.222-1.206-2.491-2.987-2.271-4.8a2.881,2.881,0,0,1,.663-1.482q.882-1.178,1.806-2.325a42.794,42.794,0,0,1,4.4-4.842c1.538-1.406,3.42-2.819,5.593-2.875l.147,0c4.514,0,5.756,5.457,5.522,9.1,0,.028,0,.072-.007.145-.065.342-.1.51-.117.569a17.056,17.056,0,0,1-2.349,5.646,8.486,8.486,0,0,1-4.722,3.84A6.8,6.8,0,0,1,1409.88,4254.679Z" fill="url(#linear-gradient-19)"/>
            <path id="Path_16525" data-name="Path 16525" d="M1453.284,4220.276c.027.1.052.2.077.3.021.078.037.134.037.134S1453.369,4220.6,1453.284,4220.276Z" fill="url(#linear-gradient-20)"/>
            <path id="Path_16526" data-name="Path 16526" d="M1418.572,4245.023a.06.06,0,0,0,.009-.024q.063-.283.117-.569c0-.047,0-.1.007-.145,0-.022,0-.037-.005-.037A4.635,4.635,0,0,0,1418.572,4245.023Z" fill="url(#linear-gradient-21)"/>
          </g>
          <path id="Path_16527" data-name="Path 16527" d="M1419.655,4205.621c10.124-5.4,24.107-1.385,28.967,9.245-8.339-8.107-17.537-10.593-28.967-9.245Z" fill="#fff"/>
          <path id="Path_16528" data-name="Path 16528" d="M1379.827,4220.33a2.474,2.474,0,0,1,1.905.389c.485.3.526.934.721,1.426a9.6,9.6,0,0,1,.693,3.1l-.237.107-1.116-1.056-1.068-1c-.335-.319-.877-.474-1.024-.961a3.307,3.307,0,0,1-.054-1.824l.18-.188Z" fill="#fff"/>
          <path id="Path_16529" data-name="Path 16529" d="M1402.784,4256.469a6.206,6.206,0,0,1,3.9,4.035,17.791,17.791,0,0,1,.758,5.58,13.5,13.5,0,0,1-.689,3.589l-.256-.046a16.345,16.345,0,0,0-1.365-6.639,17.776,17.776,0,0,1-2.539-6.34l.188-.179Z" fill="#fff"/>
        </g>
      </g>
      <g id="Group_7057" data-name="Group 7057">
        <path id="Path_16531" data-name="Path 16531" d="M650.775,4269.692a71.9,71.9,0,0,0-4.132-16.273l-.043-.113c-.066-.184-.139-.379-.218-.589h0v0h0l-1.055-2.8a8.079,8.079,0,0,0-.517-1.176,108.735,108.735,0,0,0-6.991-14.036,70.871,70.871,0,0,0-13.445-16.948,30.712,30.712,0,0,0-9.82-6.233,14.351,14.351,0,0,0-4.77-.871,10.345,10.345,0,0,0-4.476.972,12.258,12.258,0,0,0-5.562,5.338c-5.819,4.6-5.832,13.512-5.836,18.047,0,3.408.2,6.828.392,10.136.238,4.048.485,8.234.34,12.3-.142,4-.637,8.908-2.962,12.99a10.057,10.057,0,0,1-3.157,1.716,6.791,6.791,0,0,1-2.047.323,4.947,4.947,0,0,1-4.024-1.87c-1.342-1.779-1.778-4.473-1.334-8.234.447-3.787,1.117-7.513,1.714-10.659.391-2.065.816-4.165,1.226-6.2,1.094-5.419,2.225-11.021,2.892-16.675a82.107,82.107,0,0,0,.662-11.791,32.676,32.676,0,0,0-1.658-10.306,10.7,10.7,0,0,0-3.495-5.18c-2.407-1.815-5.661-2.7-9.948-2.7-.3,0-.591,0-.882.011a41.6,41.6,0,0,0-21.535,7.269,38.436,38.436,0,0,0-10.036,9.52,29.774,29.774,0,0,0-7.008,11.149,35.121,35.121,0,0,0-1.251,15.3,69.723,69.723,0,0,0,6.454,21.466,94.166,94.166,0,0,0,11.352,18.335,71.083,71.083,0,0,0,7.435,8.1,35.362,35.362,0,0,0,8.594,6.149,21.427,21.427,0,0,0,9.435,1.853c.334,0,.666,0,1-.014a70.722,70.722,0,0,0,37.839-13.273c.4-.3.782-.6,1.165-.92a26.167,26.167,0,0,0,2.606,5.077,14.289,14.289,0,0,0,12.533,6.617c.23,0,.459,0,.689-.012a31.561,31.561,0,0,0,7.656-1.341,11.62,11.62,0,0,0,6.635-4.861c.224-.343.426-.7.617-1.054a11.513,11.513,0,0,0,2.633-2.846C651.623,4280.5,651.3,4274.091,650.775,4269.692Z"/>
        <g id="Group_7056" data-name="Group 7056" clip-path="url(#clip-path-7)">
          <g id="Group_7055" data-name="Group 7055">
            <g id="Group_7054" data-name="Group 7054">
              <path id="Path_16532" data-name="Path 16532" d="M642.592,4250.031s.533,1.422,1.013,2.7q.172.45.342.9C642.942,4250.956,642.593,4250.031,642.592,4250.031Z" fill="url(#linear-gradient-22)"/>
              <path id="Path_16533" data-name="Path 16533" d="M644.353,4254.715s-.115-.309-.406-1.086c.086.228.17.457.255.686C644.295,4254.563,644.353,4254.715,644.353,4254.715Z" fill="url(#linear-gradient-23)"/>
              <path id="Path_16534" data-name="Path 16534" d="M623.078,4283.529a11.7,11.7,0,0,0,10.381,5.477c.2,0,.4,0,.6-.01a29.259,29.259,0,0,0,7.032-1.243,9.036,9.036,0,0,0,5.174-3.78c2.6-4,2.473-9.429,1.933-13.974a69.594,69.594,0,0,0-3.991-15.684c-.141-.372-.362-.962-.6-1.586a108.7,108.7,0,0,0-8.019-16.7,69.071,69.071,0,0,0-12.941-16.337,27.765,27.765,0,0,0-8.958-5.724,11.817,11.817,0,0,0-3.9-.723,7.773,7.773,0,0,0-3.361.721c-6.265,2.974-6.658,11.113-6.663,17.138-.007,7.517,1,15,.731,22.527-.208,5.835-1.166,11.92-4.925,16.586a13.458,13.458,0,0,1-6.257,4.4,9.39,9.39,0,0,1-2.833.445,7.473,7.473,0,0,1-6.1-2.9c-2.14-2.839-2.24-6.718-1.84-10.1.428-3.631,1.06-7.248,1.742-10.839,1.433-7.56,3.187-15.037,4.09-22.69a80.484,80.484,0,0,0,.645-11.422,30.505,30.505,0,0,0-1.508-9.5,8.35,8.35,0,0,0-2.612-3.976c-2.336-1.762-5.5-2.173-8.382-2.173-.276,0-.548,0-.817.01-7.1.176-14.295,2.929-20.159,6.834-5.547,3.693-10.632,8.983-12.767,15.423a32.845,32.845,0,0,0-1.137,14.188,67.087,67.087,0,0,0,6.226,20.658,91.566,91.566,0,0,0,11.038,17.828,67.927,67.927,0,0,0,7.16,7.805,33.245,33.245,0,0,0,7.956,5.717,19.131,19.131,0,0,0,8.308,1.6c.312,0,.621,0,.93-.013a68.139,68.139,0,0,0,36.341-12.749c.617-.466,1.208-.948,1.79-1.457a6.3,6.3,0,0,0,.807-.7c.223-.28.224-.255.162-.678a21.175,21.175,0,0,1-.182-3.776C619.808,4275.951,620.717,4280.052,623.078,4283.529Z" fill="url(#linear-gradient-24)"/>
            </g>
            <path id="Path_16535" data-name="Path 16535" d="M632.79,4285.247c7.159-1.645,12.181-3.855,12.418-11.927a33.023,33.023,0,0,0-.5-6.762l.252-.064a29.8,29.8,0,0,1,1.548,6.8c.57,4.735-1.5,10.761-6.5,12.362a10.639,10.639,0,0,1-7.248-.149l.032-.258Z" fill="#fff"/>
            <path id="Path_16536" data-name="Path 16536" d="M564.91,4206.533c6.1-5.023,14.361-3.875,16.4,4.488a20.77,20.77,0,0,1,.091,8.9c-.486-2.318-.873-4.587-1.507-6.732-2.225-8.222-7.47-9-14.984-6.661Z" fill="#fff"/>
            <path id="Path_16537" data-name="Path 16537" d="M610.119,4216.32a6.207,6.207,0,0,1,5.6.319,17.767,17.767,0,0,1,4.34,3.587,13.515,13.515,0,0,1,1.927,3.106l-.219.14a16.318,16.318,0,0,0-5.5-3.955,17.785,17.785,0,0,1-6.165-2.938l.017-.259Z" fill="#fff"/>
          </g>
        </g>
      </g>
      <g id="Group_7062" data-name="Group 7062">
        <path id="Path_16539" data-name="Path 16539" d="M1381.439,4204.552c-1.954-4.314-5.492-7.822-10.518-10.429l-.187-.142-.319-.1a49.685,49.685,0,0,0-19.723-4.642h-.267a28.565,28.565,0,0,0-11.708,2.269,19.846,19.846,0,0,0-8.5,7.421,21.968,21.968,0,0,0-3.646,4.5c-3.721,6.034-5.659,15.048.061,22.252a24.774,24.774,0,0,0,9.649,7.034,43.244,43.244,0,0,0,11.448,3.289,32.319,32.319,0,0,0,4.572.336,27.186,27.186,0,0,0,3.832-.265l.2.176a9.192,9.192,0,0,0,2.579,1.581,16.859,16.859,0,0,1-9,2.258h-.148c-.381,0-.776-.019-1.193-.036-.485-.021-.987-.042-1.506-.042a11.8,11.8,0,0,0-2.69.271,7.506,7.506,0,0,0-5.286,4.292c-.08.168-.154.337-.228.506a7.7,7.7,0,0,0-3.022,3.394,27.682,27.682,0,0,0-1.8,5.62l-.136.559c-.577,2.366-1.085,4.3-1.6,6.088a111.668,111.668,0,0,0-2.862,12.773,59.653,59.653,0,0,0-1.005,13.673l.015.222c.117,1.746.294,4.384,1.971,6.135a8.4,8.4,0,0,0,3.225,1.877l.032.012a42.9,42.9,0,0,0,13.215,2.546c.678.029,1.307.044,1.922.044a28.838,28.838,0,0,0,5.042-.4l.138-.024c1.391-.243,3.98-.695,5.01-3.212.17-.416.32-.837.46-1.259a4.743,4.743,0,0,0,2.79-2.641,32.005,32.005,0,0,0,1.563-5.55c.447-2.118.824-4.305,1.15-6.686.586-4.265.971-8.641,1.146-13.007.024-.606.042-1.247.056-1.977q.011-.138.012-.286l.009-.789c0-.56,0-.852,0-.974a110.049,110.049,0,0,0-.439-11.593,29.385,29.385,0,0,0-3.089-10.85l-.149-.281c4.713-.082,8.881-3.435,10.468-4.889a24.357,24.357,0,0,0,4.021-4.63,21.608,21.608,0,0,0,3.975-5.108,21.048,21.048,0,0,0,2.448-8.653A21.913,21.913,0,0,0,1381.439,4204.552Z"/>
        <g id="Group_7061" data-name="Group 7061" clip-path="url(#clip-path-8)">
          <g id="Group_7060" data-name="Group 7060">
            <g id="Group_7058" data-name="Group 7058">
              <path id="Path_16540" data-name="Path 16540" d="M1379.077,4205.639c.453.966-.439-.973,0,0Z" fill="#5b2743"/>
              <path id="Path_16541" data-name="Path 16541" d="M1378.952,4205.358s.257.553.258.559-.255-.559-.258-.559m.258.559h0"/>
            </g>
            <g id="Group_7059" data-name="Group 7059">
              <path id="Path_16542" data-name="Path 16542" d="M1363.171,4249.888a26.789,26.789,0,0,0-2.8-9.905,19.39,19.39,0,0,1-10.46,2.7h-.165c-.892-.006-1.789-.078-2.682-.078a9.422,9.422,0,0,0-2.11.205,4.945,4.945,0,0,0-3.522,2.883,28.822,28.822,0,0,0-1.751,5.671c-.506,2.075-1.036,4.136-1.625,6.188a108.344,108.344,0,0,0-2.8,12.476,57.2,57.2,0,0,0-.978,13.074c.1,1.459.193,3.612,1.271,4.739a6.352,6.352,0,0,0,2.3,1.256,40.2,40.2,0,0,0,12.4,2.378c.6.026,1.2.042,1.81.042a26.49,26.49,0,0,0,4.591-.364c1.2-.212,2.687-.425,3.193-1.661a29.548,29.548,0,0,0,1.425-5.1c.455-2.153.82-4.323,1.119-6.5.58-4.227.952-8.494,1.123-12.757.034-.86.053-1.721.065-2.582,0,.346,0,.619,0,.619s.005-.27.012-1.01c0-.536,0-.824,0-.943A106.513,106.513,0,0,0,1363.171,4249.888Z" fill="url(#linear-gradient-25)"/>
              <path id="Path_16543" data-name="Path 16543" d="M1379.077,4205.639c-1.927-4.265-5.457-7.224-9.545-9.307l0,0a47.167,47.167,0,0,0-18.862-4.5h-.249a26.129,26.129,0,0,0-10.646,2.043,17.493,17.493,0,0,0-7.746,7.009c-3.623,5.876-4.649,13.56-.116,19.27a22.466,22.466,0,0,0,8.672,6.276,40.879,40.879,0,0,0,10.758,3.09,29.639,29.639,0,0,0,4.2.31,22.419,22.419,0,0,0,7.255-1.137c2.729-.931,5.735-2.62,7.407-5.056-1.741,3.314-5.5,5.578-8.922,6.741a6.381,6.381,0,0,0,4.3,1.609c3.223,0,6.594-2.113,8.885-4.212a20.153,20.153,0,0,0,4.217-5.161,18.357,18.357,0,0,0,2.14-7.579A19.306,19.306,0,0,0,1379.077,4205.639Z" fill="url(#linear-gradient-26)"/>
              <path id="Path_16544" data-name="Path 16544" d="M1361.348,4190.7l-1.584-.807.687.572C1360.749,4190.538,1361.049,4190.626,1361.348,4190.7Z" fill="url(#linear-gradient-27)"/>
            </g>
            <path id="Path_16545" data-name="Path 16545" d="M1348.274,4287.965a17.126,17.126,0,0,1,4.961-.608,10.062,10.062,0,0,0,3.086-.007,1.355,1.355,0,0,0,.533-.513c1.519-2.755,1.662-6.207,2.13-9.308l.26.006a37.583,37.583,0,0,1-.034,7.58c-.243,2.037-1.027,4.135-3.358,4.585a8.495,8.495,0,0,1-7.63-1.48l.052-.255Z" fill="#fff"/>
            <path id="Path_16546" data-name="Path 16546" d="M1359.237,4243.556c1.895,1.372,2.3,3.194,2.173,5.326a19.617,19.617,0,0,1-.582,5.739l-.26-.015a45.631,45.631,0,0,0-1.214-5.409,6.946,6.946,0,0,1-.363-5.557l.246-.084Z" fill="#fff"/>
            <path id="Path_16547" data-name="Path 16547" d="M1368.773,4198.3c11.977,4.649,13.926,18.188,4.43,26.609,5.493-10.865,4.738-18.235-4.43-26.609Z" fill="#fff"/>
          </g>
        </g>
      </g>
      <g id="Group_7066" data-name="Group 7066">
        <path id="Path_16549" data-name="Path 16549" d="M859.883,4273.838a101.311,101.311,0,0,0-4.7-24.449c-.062-.218-.132-.436-.2-.653-.169-.531-.342-1.075-.36-1.13l-.584-1.8h-.01c-1-2.962-2.117-5.882-3.323-8.708l-.124-.29c-1.436-3.365-2.793-6.542-3.867-9.9-.5-1.574-.91-3.168-1.34-4.856-.495-1.942-1.006-3.951-1.681-5.927a10.574,10.574,0,0,0-3.294-5.215,12.07,12.07,0,0,0-6.075-2.089,32.293,32.293,0,0,0-3.826-.231,26.15,26.15,0,0,0-17.559,6.33,28.947,28.947,0,0,0-4.651,5.227q-.787.794-1.516,1.651a52.96,52.96,0,0,0-7.869-10.574,51.452,51.452,0,0,0-21.6-13.683,36.3,36.3,0,0,0-10.866-1.742,24.044,24.044,0,0,0-15.046,4.819,22.87,22.87,0,0,0-4.82,5.282,27.966,27.966,0,0,0-6.137,9.229A47.049,47.049,0,0,0,737,4227.744a68.03,68.03,0,0,0,2.08,26.126,101.454,101.454,0,0,0,9.495,23.455,86.38,86.38,0,0,0,6.591,10.23,55.857,55.857,0,0,0,4.277,5.034,22.178,22.178,0,0,0,5.366,4.361,10.676,10.676,0,0,0,5.179,1.069c.266,0,.533,0,.8-.008a14.567,14.567,0,0,0,6.519-1.8,16.877,16.877,0,0,0,5.056-4.212c.322-.39.635-.8.931-1.223l.022-.027a4.355,4.355,0,0,0,.462-.724q.644-.584,1.248-1.249c.38.348.76.689,1.141,1.017a27.7,27.7,0,0,0,11.82,6.48,18.718,18.718,0,0,0,4.182.476,21.225,21.225,0,0,0,12.044-4.013,30.021,30.021,0,0,0,7.113-7.212q.522-.537,1.013-1.093c0,.024,0,.045,0,.069a3.673,3.673,0,0,0,.725,1.824l.038.056c.247.43.505.855.769,1.261a24.409,24.409,0,0,0,3.143,3.941,21.7,21.7,0,0,0,15.273,6.427,18.988,18.988,0,0,0,6.4-1.093,10.9,10.9,0,0,0,4.9-3.217,9.889,9.889,0,0,0,1.319-2.161,9.007,9.007,0,0,0,1.931-1.739,11.865,11.865,0,0,0,2.14-4.448A36.237,36.237,0,0,0,859.883,4273.838Z"/>
        <g id="Group_7065" data-name="Group 7065" clip-path="url(#clip-path-9)">
          <g id="Group_7064" data-name="Group 7064">
            <g id="Group_7063" data-name="Group 7063">
              <path id="Path_16550" data-name="Path 16550" d="M854.829,4288.159a9.578,9.578,0,0,0,1.651-3.5,33.39,33.39,0,0,0,.806-10.679A101.364,101.364,0,0,0,852.3,4248.9c-1.155-3.65-2.487-7.256-3.99-10.778-1.469-3.442-2.932-6.844-4.076-10.413-1.134-3.539-1.8-7.22-3.006-10.735a8.171,8.171,0,0,0-2.419-4,9.688,9.688,0,0,0-4.8-1.567,29.489,29.489,0,0,0-3.516-.213,23.63,23.63,0,0,0-15.844,5.685,26.266,26.266,0,0,0-5.643,7.026,3.562,3.562,0,0,0-.487.922c-.035.348.4,1.053.524,1.393.335.936.63,1.885.892,2.844a44.033,44.033,0,0,1,1.117,5.381,42.22,42.22,0,0,1-2.429,20.7,44.782,44.782,0,0,0,.275-21.055,46.851,46.851,0,0,0-11.88-21.067,49.191,49.191,0,0,0-20.5-13,33.989,33.989,0,0,0-10.087-1.623,21.4,21.4,0,0,0-13.44,4.264,23.93,23.93,0,0,0-6.928,9.6,44.488,44.488,0,0,0-3.233,11.91,65.879,65.879,0,0,0,2.018,25.125,98.961,98.961,0,0,0,9.252,22.853,84.513,84.513,0,0,0,6.392,9.924,52.765,52.765,0,0,0,4.077,4.8,19.846,19.846,0,0,0,4.72,3.873,8.138,8.138,0,0,0,3.952.761c.252,0,.505,0,.758-.008a11.973,11.973,0,0,0,5.34-1.494,14.422,14.422,0,0,0,4.272-3.573c.283-.343.551-.694.8-1.058a2.67,2.67,0,0,0,.3-.447c.122-.293.023-.311-.2-.574q-1.012-1.217-1.953-2.493a75.693,75.693,0,0,1-10.809-21.581c-.435-1.333-.842-2.693-1.145-4.063a147.58,147.58,0,0,0,12,18.531,63.429,63.429,0,0,0,8.5,9.169,25.549,25.549,0,0,0,10.7,5.913,16.044,16.044,0,0,0,3.6.41,18.56,18.56,0,0,0,10.563-3.55c4.922-3.412,8.3-8.843,10.9-14.113a109.71,109.71,0,0,0,7.759-22.251c.137-.552.267-1.1.4-1.657a53.461,53.461,0,0,1-.3,8.429,73.814,73.814,0,0,1-1.777,10.453,58.266,58.266,0,0,1-3.56,10.364q-.313.683-.648,1.355c-.132.266-.6.858-.581,1.131.016.219.295.547.406.742q.34.6.715,1.176a21.747,21.747,0,0,0,2.806,3.522,19.247,19.247,0,0,0,13.428,5.659,16.386,16.386,0,0,0,5.528-.942A8.429,8.429,0,0,0,854.829,4288.159Z" fill="url(#linear-gradient-28)"/>
              <path id="Path_16551" data-name="Path 16551" d="M852.147,4248.406s.044.141.156.5c.391,1.23.527,1.656.527,1.656Z" fill="url(#linear-gradient-29)"/>
            </g>
            <path id="Path_16552" data-name="Path 16552" d="M827.587,4213.659c3.647-.917,10.172-.725,11.3,3.806a38.932,38.932,0,0,0,3.568,12.257l-.221.136a32.859,32.859,0,0,1-5.5-11.109,2.586,2.586,0,0,0-1.157-1.728c-2.333-1.536-5.2-2.1-7.987-3.1l0-.26Z" fill="#fff"/>
            <path id="Path_16553" data-name="Path 16553" d="M751.911,4212.13c1.15-5.8,6.718-10.212,12.486-11.017a22.158,22.158,0,0,1,8.707.416,27.232,27.232,0,0,1,7.861,3.29c-5.381-.956-10.793-2.019-16.146-1.142a18.638,18.638,0,0,0-12.908,8.453Z" fill="#fff"/>
            <path id="Path_16554" data-name="Path 16554" d="M799.981,4221.713c4.209,3.735,6.255,9.286,6.977,14.738a43.768,43.768,0,0,1,.648,8.2,49.216,49.216,0,0,1-.8,8.111l-.258-.031.025-2.019a50.73,50.73,0,0,0-2.2-15.719c-1.061-2.864-2.285-6.387-3.257-9.3l-1.343-3.818.209-.154Z" fill="#fff"/>
            <path id="Path_16555" data-name="Path 16555" d="M815.917,4279.994c.471,6.892-7.777,9.977-13.064,6.478,1.379-.289,2.695-.375,4.02-.627a12.929,12.929,0,0,0,9.044-5.851Z" fill="#fff"/>
            <path id="Path_16556" data-name="Path 16556" d="M854.025,4276.238c2.024,4.134.254,9.79-4.172,11.554-2.55.9-5.364.042-7.56-1.162l.1-.242c2.822.787,6.467,1.035,8.285-1.53.848-1.167,1.05-2.648,1.543-4.009.466-1.4.987-3.2,1.549-4.593l.259-.018Z" fill="#fff"/>
            <path id="Path_16557" data-name="Path 16557" d="M782.038,4286.617a6.726,6.726,0,0,1-3.46-2.316c-1.252-1.472-1.8-3.567-2.661-5.267-.739-1.805-1.4-3.639-1.973-5.5l.235-.112,4.336,6.362a16.99,16.99,0,0,1,3.667,6.619l-.144.216Z" fill="#fff"/>
          </g>
        </g>
      </g>
      <g id="Group_7070" data-name="Group 7070">
        <path id="Path_16559" data-name="Path 16559" d="M1253.5,4244.652a28.349,28.349,0,0,0-1.9-2.855,13.5,13.5,0,0,0-.927-1.17c-.352-.417-.636-.754-.909-1.016-4.75-5.108-11.536-8.357-19.9-9.569a29.16,29.16,0,0,0,3.818-4.351,28.851,28.851,0,0,0,8.669-22.04,19.715,19.715,0,0,0-3.647-10.625,16.479,16.479,0,0,0-9.98-6.142,19.672,19.672,0,0,0-3.674-.4,22.506,22.506,0,0,0-16.15,7.045,30.312,30.312,0,0,0-2.879,3.435c-.142.139-.288.274-.428.417a29.9,29.9,0,0,0-2.445,2.852c-1.733-.166-3.43-.266-5.04-.29a48.366,48.366,0,0,0-7.677.473c-5.8.85-10.419,2.786-13.736,5.755a18.59,18.59,0,0,0-3.182,3.749c-.04.035-.086.067-.126.1a21.871,21.871,0,0,0-6.657,13.285,23.193,23.193,0,0,0,2.843,15.014,24.637,24.637,0,0,0,10.889,9.524c.968.46,2,.891,3.056,1.281.043.019.091.043.142.067a6.8,6.8,0,0,0,.955.385l-.094.143c-.088.079-.176.157-.262.237a19.07,19.07,0,0,0-5.482,8.994,22.02,22.02,0,0,0,.175,11.272c2.022,7.67,6.9,13.378,10.638,16.816a42.36,42.36,0,0,0,17.059,9.6,37.187,37.187,0,0,0,9.55,1.373,40.834,40.834,0,0,0,28.484-11.008,33.6,33.6,0,0,0,3.973-4.507,31.25,31.25,0,0,0,8.88-16.8A32.259,32.259,0,0,0,1253.5,4244.652Z"/>
        <g id="Group_7069" data-name="Group 7069" clip-path="url(#clip-path-10)">
          <g id="Group_7068" data-name="Group 7068">
            <g id="Group_7067" data-name="Group 7067">
              <path id="Path_16560" data-name="Path 16560" d="M1247.976,4240.955s.185.219.7.815.712.811.713.811S1247.981,4240.955,1247.976,4240.955Z" fill="url(#linear-gradient-30)"/>
              <path id="Path_16561" data-name="Path 16561" d="M1251.3,4245.381a25.134,25.134,0,0,0-2.623-3.611c-6.4-7.406-16.186-9.816-25.86-9.817a69.942,69.942,0,0,0-12.458,1.189c-3.525.644-6.969,1.66-10.509,2.234a27.118,27.118,0,0,1-4.314.423q-.342,0-.684-.016c-1.531-.068-3.284-.389-4.246-1.713a4.23,4.23,0,0,1,.027-4.353,6.406,6.406,0,0,1,2.939-3.254,3.859,3.859,0,0,1,1.567-.338c2.41,0,4.5,2.318,6.011,4.015.249.28.5.56.754.834.118.126.343.462.5.511a.238.238,0,0,0,.077.01,5.925,5.925,0,0,0,1.045-.281q.687-.169,1.372-.35c1.7-.446,3.411-.855,5.138-1.194a73.072,73.072,0,0,1,10.3-1.291q1.292-.067,2.586-.082h.043c.422,0,.975.067,1.5.067a2.382,2.382,0,0,0,1.155-.22,28.016,28.016,0,0,0,3.579-2.438,26.9,26.9,0,0,0,6.527-7.572,26.1,26.1,0,0,0,3.456-14.727,17.229,17.229,0,0,0-3.273-9.183,13.883,13.883,0,0,0-8.494-5.023,16.956,16.956,0,0,0-3.192-.3,19.8,19.8,0,0,0-14.161,6.475c-4.657,4.891-7.3,11.43-8.559,17.987-.222,1.158-.4,2.321-.556,3.489a38.448,38.448,0,0,1,1.583-13.876c-1.675-.14-3.362-.22-5.047-.22a45.343,45.343,0,0,0-7.254.553c-4.432.716-8.945,2.206-12.3,5.3a19.291,19.291,0,0,0-5.644,11.8,20.607,20.607,0,0,0,2.708,13.288,22.089,22.089,0,0,0,9.887,8.347c.943.432,1.9.814,2.881,1.157a4.785,4.785,0,0,0,1.19.427.366.366,0,0,0,.067,0c.173-.026.451-.307.6-.4.266-.174.536-.343.811-.5a20.836,20.836,0,0,1,6.348-2.387,25.047,25.047,0,0,1,5.019-.5,33.661,33.661,0,0,1,19.9,7.11c6.127,4.689,12.094,13.027,8.229,20.974a12.506,12.506,0,0,1-1.008,1.692,16.846,16.846,0,0,0,.134-7.515,20.084,20.084,0,0,0-4.555-8.5,30.755,30.755,0,0,0-16.931-9.575,25.934,25.934,0,0,0-5.077-.514,18.517,18.517,0,0,0-13.062,4.837,16.514,16.514,0,0,0-4.627,7.834,19.394,19.394,0,0,0,.325,9.931,33.166,33.166,0,0,0,10.113,15.418,39.784,39.784,0,0,0,16.135,8.778,34.591,34.591,0,0,0,8.9,1.145,38.5,38.5,0,0,0,26.5-10.689,28.638,28.638,0,0,0,8.531-16.115A29.684,29.684,0,0,0,1251.3,4245.381Z" fill="url(#linear-gradient-31)"/>
            </g>
            <path id="Path_16562" data-name="Path 16562" d="M1215.17,4194.135c7.24-4.967,18.625-4.74,21.145,5.209a17.9,17.9,0,0,1,.134,8.184,37.221,37.221,0,0,0-2.069-7.523c-3.189-8.22-11.96-7.356-19.21-5.87Z" fill="#fff"/>
            <path id="Path_16563" data-name="Path 16563" d="M1209.293,4247.944a6.207,6.207,0,0,1,5.6.319,17.776,17.776,0,0,1,4.341,3.588,13.488,13.488,0,0,1,1.927,3.1l-.219.14a16.345,16.345,0,0,0-5.506-3.955,17.771,17.771,0,0,1-6.164-2.938l.017-.259Z" fill="#fff"/>
            <path id="Path_16564" data-name="Path 16564" d="M1230.094,4236.344c17.923-1.774,27.836,19.767,20.812,34.582a22.331,22.331,0,0,1-10.99,11.063,26.032,26.032,0,0,0,9.116-11.842c5.308-14.2-2.738-32.524-18.938-33.8Z" fill="#fff"/>
          </g>
        </g>
      </g>
      <g id="Group_7074" data-name="Group 7074">
        <path id="Path_16566" data-name="Path 16566" d="M703.336,4273.092a6.619,6.619,0,0,0-2.754-3.868c-.185-.14-.388-.283-.606-.438a7.392,7.392,0,0,0-1.507-.939,58.882,58.882,0,0,0-10.242-4.438c-1.29-.464-2.624-.943-3.894-1.443a61.974,61.974,0,0,1-6.516-2.968,28.812,28.812,0,0,0,9.27-8.554,32.094,32.094,0,0,0,3.464-4.2,35.107,35.107,0,0,0,5.559-12.653,44.761,44.761,0,0,0,.167-17.438,41.79,41.79,0,0,0-5.957-15.461c-3.545-5.34-8.269-8.857-13.663-10.17a21.192,21.192,0,0,0-5.018-.589,27.576,27.576,0,0,0-8.683,1.5,34.264,34.264,0,0,0-13.83,8.446,33.846,33.846,0,0,0-3.354,4.012c-5.941,6.109-9.751,14.855-10.937,24.965-1.673.2-4,1.18-5.587,4.688-1.491.871-3.022,2.6-4,5.936a27.91,27.91,0,0,0-.8,9.03,64.183,64.183,0,0,0,1.184,9.386,106.119,106.119,0,0,0,5.237,17.981,73.241,73.241,0,0,0,3.942,8.649c1.467,2.693,3.257,5.737,5.926,7.8a6.481,6.481,0,0,0,3.935,1.548,4.767,4.767,0,0,0,.647-.043,6.227,6.227,0,0,0,4.153-2.483,9.471,9.471,0,0,0,1.162-2.1,6.325,6.325,0,0,0,2.088-1.8c2-2.705,2.179-6.218,2.32-9.041l.029-.552c.035-.652.047-1.321.058-1.969.007-.419.016-.84.03-1.258a15.433,15.433,0,0,1,1.873,3.719l.21.525.127.315a73.764,73.764,0,0,0,3.667,8.117c3.161,5.735,6.965,9.213,11.306,10.338a12.093,12.093,0,0,0,3.034.372,19.776,19.776,0,0,0,6.664-1.325,34.8,34.8,0,0,0,8.3-4.44,31.549,31.549,0,0,0,6.7-6.267c.32-.412.657-.865.987-1.351a27.263,27.263,0,0,0,2.263-2.549C701.989,4279.906,704.149,4276.6,703.336,4273.092Zm-43.206-26.645a4.8,4.8,0,0,1-.863.078,7.547,7.547,0,0,1-5.364-2.687,3.267,3.267,0,0,1-1.081-2.259c.059-.088.186-.246.274-.355s.188-.233.276-.35c.18-.236.35-.454.522-.675a24.417,24.417,0,0,1,1.815-1.8,5.547,5.547,0,0,1,3.3-1.679c.075,0,.15,0,.224.011,2.076.218,2.756,3.283,2.826,4.873a9.329,9.329,0,0,1-1.112,4.515A3.341,3.341,0,0,1,660.13,4246.447Z"/>
        <g id="Group_7073" data-name="Group 7073" clip-path="url(#clip-path-11)">
          <g id="Group_7072" data-name="Group 7072">
            <g id="Group_7071" data-name="Group 7071">
              <path id="Path_16567" data-name="Path 16567" d="M697.644,4270.322s.337.242,1.327.946c.231.162.325.227.327.227S697.648,4270.322,697.644,4270.322Z" fill="url(#linear-gradient-32)"/>
              <path id="Path_16568" data-name="Path 16568" d="M698.241,4280.492c1.392-1.792,3.118-4.412,2.562-6.814a4.2,4.2,0,0,0-1.832-2.41c-4.674-3.322-10.317-4.809-15.589-6.882a63.342,63.342,0,0,1-7.4-3.415q-1.577-.867-3.085-1.85c-.412-.269-.817-.546-1.22-.828a5.422,5.422,0,0,0-1.589-1.006,19.422,19.422,0,0,1-4.2-1.179,10.138,10.138,0,0,1-2.8-2.078,17.543,17.543,0,0,0,6.135,1.415c.213.007.425.01.638.01a20.089,20.089,0,0,0,6.74-1.163,24.964,24.964,0,0,0,11.811-9.527,32.462,32.462,0,0,0,5.153-11.718,42.521,42.521,0,0,0,.15-16.429c-1.755-9.757-7.192-21.014-17.676-23.566a18.541,18.541,0,0,0-4.4-.515,25.053,25.053,0,0,0-7.863,1.369,31.911,31.911,0,0,0-12.795,7.8c-7.126,7.258-10.226,17.732-10.644,27.7-.02.482-.019,1.923-.019,1.923l2.018,3.107s-3.822-2.553-6.03-2.954a4.012,4.012,0,0,0-.73-.068c-2.554,0-3.916,2.628-4.581,4.9a25.192,25.192,0,0,0-.7,8.182,62.041,62.041,0,0,0,1.139,9.006,103.245,103.245,0,0,0,5.109,17.54,71,71,0,0,0,3.8,8.344c1.359,2.493,2.949,5.222,5.232,6.985a4.008,4.008,0,0,0,2.346,1.006,2.227,2.227,0,0,0,.3-.02,3.607,3.607,0,0,0,2.4-1.452c1.649-2.229,1.7-5.536,1.842-8.186.146-2.71-.135-5.91,1.084-8.417a3.709,3.709,0,0,1,3.342-2.136,3.815,3.815,0,0,1,1.6.359c2.407,1.116,3.48,4.2,4.4,6.477a74.262,74.262,0,0,0,3.66,8.15c2.095,3.8,5.261,7.93,9.681,9.076a9.489,9.489,0,0,0,2.382.289,17.5,17.5,0,0,0,5.786-1.172,32.159,32.159,0,0,0,7.676-4.113A29,29,0,0,0,698.241,4280.492Zm-37.581-31.5a7.384,7.384,0,0,1-1.393.132,10.161,10.161,0,0,1-7.314-3.567c-1.125-1.277-2.145-3.078-1.6-4.82a5.116,5.116,0,0,1,.946-1.439q.778-1.021,1.584-2.024a37.866,37.866,0,0,1,4.354-4.729,7.983,7.983,0,0,1,5.013-2.326,4.538,4.538,0,0,1,.494.026c3.548.371,5.016,4.219,5.154,7.344a12.829,12.829,0,0,1-2.045,7.013C664.7,4246.549,662.962,4248.481,660.66,4248.993Z" fill="url(#linear-gradient-2)"/>
            </g>
            <path id="Path_16569" data-name="Path 16569" d="M695.793,4277.406a11.745,11.745,0,0,0,1.417-2.079c.057-.173.043-.29.005-.314s-.035.012-.078-.074c.005-.029-.059-.1-.072-.158a6.457,6.457,0,0,0-2.685-2.181c-1.57-.9-3.22-1.6-4.88-2.359l.067-.252c2.837.347,8.489,1.081,10.023,3.8,1.136,2.322-1.558,4.315-3.708,3.86l-.089-.244Z" fill="#fff"/>
            <path id="Path_16570" data-name="Path 16570" d="M662.062,4196.781c12.163-5.157,26.045,1.185,27.471,14.937a37.234,37.234,0,0,0-4.573-7.258c-5.509-6.744-14.564-8.23-22.9-7.679Z" fill="#fff"/>
          </g>
        </g>
      </g>
    </g>
  </g>
</svg>
