<svg xmlns="http://www.w3.org/2000/svg" xmlns:xlink="http://www.w3.org/1999/xlink" width="262.62" height="209.906" viewBox="0 0 262.62 209.906">
  <defs>
    <clipPath id="clip-path">
      <path id="Path_795" data-name="Path 795" d="M1392.287,1032.08a14.42,14.42,0,0,0,.192-4.5,2.312,2.312,0,0,0-1.542-1.7c-.4-3.77-1.832-7.253-5.238-9.566-5.457-3.707-12.972.162-15.766,5.387a6.524,6.524,0,0,0-.3.6,1.674,1.674,0,0,0-.147.652c-2.545,2.746-4.39,5.91-4.469,9.868a1.67,1.67,0,0,0-.473,1.123,22.8,22.8,0,0,0,.013,3.867c.13.837.54,1.61.738,2.417.026.333.063.665.115,1a1.528,1.528,0,0,0,.092.53,18.558,18.558,0,0,0,9.008,11.87c5.595,3.071,10.708-1.262,13.364-6.016a21.837,21.837,0,0,0,1.4-3.1,9.719,9.719,0,0,0,1.79-2.16,7.375,7.375,0,0,0,1.238-3.077c.072-.538-.446-1.087-.867-1.394a29.751,29.751,0,0,0,1.211-4.623A1.311,1.311,0,0,0,1392.287,1032.08Z" fill="none"/>
    </clipPath>
    <clipPath id="clip-path-2">
      <path id="Path_796" data-name="Path 796" d="M1446.331,1036.641a1.526,1.526,0,0,0-.188-.447,27.178,27.178,0,0,0-.56-5.425,17.344,17.344,0,0,0-16.7-13.733c-.2,0-.372.015-.549.03a11.533,11.533,0,0,0-8.418,2c-3.638.473-6.112,3.863-8.013,6.987a20.492,20.492,0,0,0-3.132,13.392,1.633,1.633,0,0,0-.044.333c.135,5.925,1.909,13.545,6.7,17.515a13.817,13.817,0,0,0,9.474,2.992c.99.778,3.148.774,4.519.514a12.273,12.273,0,0,0,9.127-4.174,3.454,3.454,0,0,0,1.416-.822,21.685,21.685,0,0,0,4.325-6.107,10.951,10.951,0,0,0,1.118-2.945,1.805,1.805,0,0,0-.007-.959A14.64,14.64,0,0,0,1446.331,1036.641Z" fill="none"/>
    </clipPath>
    <clipPath id="clip-path-3">
      <path id="Path_802" data-name="Path 802" d="M1392.287,1032.08a14.42,14.42,0,0,0,.192-4.5,2.312,2.312,0,0,0-1.542-1.7c-.4-3.77-1.832-7.253-5.238-9.566-5.457-3.707-12.972.162-15.766,5.387a6.524,6.524,0,0,0-.3.6,1.674,1.674,0,0,0-.147.652c-2.545,2.746-4.39,5.91-4.469,9.868a1.67,1.67,0,0,0-.473,1.123,22.8,22.8,0,0,0,.013,3.867c.13.837.54,1.61.738,2.417.026.333.063.665.115,1a1.528,1.528,0,0,0,.092.53,18.558,18.558,0,0,0,9.008,11.87c5.595,3.071,10.708-1.262,13.364-6.016a21.837,21.837,0,0,0,1.4-3.1,9.719,9.719,0,0,0,1.79-2.16,7.375,7.375,0,0,0,1.238-3.077c.072-.538-.446-1.087-.867-1.394a29.751,29.751,0,0,0,1.211-4.623A1.311,1.311,0,0,0,1392.287,1032.08Z" fill="#1a1a1a"/>
    </clipPath>
    <clipPath id="clip-path-4">
      <path id="Path_805" data-name="Path 805" d="M1446.331,1036.641a1.526,1.526,0,0,0-.188-.447,27.178,27.178,0,0,0-.56-5.425,17.344,17.344,0,0,0-16.7-13.733c-.2,0-.372.015-.549.03a11.533,11.533,0,0,0-8.418,2c-3.638.473-6.112,3.863-8.013,6.987a20.492,20.492,0,0,0-3.132,13.392,1.633,1.633,0,0,0-.044.333c.135,5.925,1.909,13.545,6.7,17.515a13.817,13.817,0,0,0,9.474,2.992c.99.778,3.148.774,4.519.514a12.273,12.273,0,0,0,9.127-4.174,3.454,3.454,0,0,0,1.416-.822,21.685,21.685,0,0,0,4.325-6.107,10.951,10.951,0,0,0,1.118-2.945,1.805,1.805,0,0,0-.007-.959A14.64,14.64,0,0,0,1446.331,1036.641Z" fill="#1a1a1a"/>
    </clipPath>
  </defs>
  <g id="octopus" transform="translate(-1270.519 -962.726)">
    <g id="Group_516" data-name="Group 516">
      <g id="Group_488" data-name="Group 488">
        <path id="Path_797" data-name="Path 797" d="M1398.039,1172.028c-.477,0-.953-.015-1.412-.045a20.048,20.048,0,0,1-13.716-6.731,46.1,46.1,0,0,1-11.309,1.568c-8.312,0-12.6-3.074-14.766-5.78a36.462,36.462,0,0,1-6.479.647c-9.569,0-14.305-5.055-16.593-9.3-.037-.069-.075-.137-.111-.206-7.726-.761-13.152-3.4-16.582-8.067a27.75,27.75,0,0,1-5.062-11.964,34.177,34.177,0,0,1,.587-13.368,47.064,47.064,0,0,1,1.456-4.974l-.072,0a16.423,16.423,0,0,1-5.284,1.55c-.284.04-.561.071-.835.092-.528.044-1.02.064-1.507.064a16.051,16.051,0,0,1-5.085-.789l-.285.045a14.612,14.612,0,0,1-1.942.127,15.7,15.7,0,0,1-4.767-.744l-.132-.042a18.314,18.314,0,0,1-2.863-1.224,12.989,12.989,0,0,1-2.9-1.977,15.326,15.326,0,0,1-5.014-2.264,11.4,11.4,0,0,1-1.2-.891q-.45-.361-.915-.809a12.731,12.731,0,0,1-1.659-1.781,16.663,16.663,0,0,1-1.552-2.381q-.094-.18-.179-.364c-.032-.07-.062-.14-.092-.208l-.082-.065a12.645,12.645,0,0,1-2.454-2.621l-.138-.193a13.256,13.256,0,0,1-.913-1.422l-.069-.129c-.217-.417-.425-.848-.62-1.286a15.155,15.155,0,0,1-1.085-3.385,12.868,12.868,0,0,1-.286-3.48c.006-.17.016-.343.03-.514-.054-.134-.1-.269-.155-.41-.154-.415-.3-.868-.425-1.342-.022-.086-.044-.173-.064-.26a15.1,15.1,0,0,1-.264-1.637c-.058-.528-.1-1.022-.115-1.519-.007-.157-.007-.314,0-.471.007-.25.023-.458.033-.583.012-.285.033-.6.063-.935.045-.44.1-.809.172-1.208a14.941,14.941,0,0,1,2-5.426c.088-.144.182-.29.279-.434.011-.087.055-.393.055-.393a14.961,14.961,0,0,1,2.151-5.417c.22-.36.443-.693.673-1.006.084-.116.149-.2.216-.285l.1-.116q.231-.283.459-.539a14.585,14.585,0,0,1,5.242-3.856c.192-.077.381-.15.569-.216q.317-.316.667-.615a11.58,11.58,0,0,1,1.548-1.154l.115-.068c.381-.223.791-.44,1.218-.648a12.436,12.436,0,0,1,2.727-1,12.77,12.77,0,0,1,1.32-.293c.265-.041.412-.058.514-.068a16.5,16.5,0,0,1,2.1-.131c.338,0,.681.01,1.05.029q.312.016.62.062a16.989,16.989,0,0,1,2.948.682q.321.109.629.247a10.916,10.916,0,0,1,2.771,1.759,7.426,7.426,0,0,1,1.549,1.255,17.1,17.1,0,0,1,4.81-6.912,20.06,20.06,0,0,1,13.358-4.633c5.088,0,10.674,1.543,16.6,4.586a33.456,33.456,0,0,0,8.308,3.175,14.166,14.166,0,0,1-1.1-5.937,18.331,18.331,0,0,1,3.441-10.8,10.947,10.947,0,0,1,1.588-1.789,30.394,30.394,0,0,1-.452-17.219,33.6,33.6,0,0,1,10.162-17c5.763-5.068,12.78-6.771,18.972-8.275.75-.182,1.458-.354,2.167-.532,2.441-.6,3.123-1.192,3.235-1.3h0s.17-.224.087-1.227q-.012-.162-.018-.324c-.008-.231-.073-.639-.133-1.033a15.229,15.229,0,0,1-.067-5.467c1.246-6.717,6.722-10.8,8.522-12.149.077-.057.156-.113.235-.168,15.305-10.441,36.4-12.714,51.4-12.782h.112a102.2,102.2,0,0,1,31.512,4.926c11.458,3.87,20.761,9.945,27.647,18.057a49.978,49.978,0,0,1,8.648,14.871,58.391,58.391,0,0,1,3.523,16.3c1.244,9.809-1.373,19.535-7.572,28.093a52.106,52.106,0,0,1-22.532,17.364,55.108,55.108,0,0,1-16.032,3.938,6.854,6.854,0,0,1-.954.3c-.576.135-1.775.416-1.869,3.219-.182,5.384,3.913,12.515,10.845,14.648.9.277,1.8.528,2.693.747a11.759,11.759,0,0,1,1.362-.756,17.669,17.669,0,0,1,4.9-1.387l.46-.06c.15-.019.344-.041.565-.06-2.567-4.307-2.384-10.8.549-16.332,3.629-6.845,10.541-10.772,18.963-10.772.733,0,1.48.031,2.22.09a25.258,25.258,0,0,1,21.342,15.551,28.834,28.834,0,0,1,1.233,18.034,42.523,42.523,0,0,1-9.134,17.253,43.543,43.543,0,0,1-15.618,11.415,18.111,18.111,0,0,1,2.262,10.273,29.353,29.353,0,0,1-6.52,16.739,31.98,31.98,0,0,1-18.043,11.137,65.942,65.942,0,0,1-14.781,1.743,53.839,53.839,0,0,1-15.077-2.09,38.633,38.633,0,0,1-3.744,3.625,32.1,32.1,0,0,1-20.857,7.917,35.732,35.732,0,0,1-13.566-2.821c-1.208.845-2.446,1.629-3.682,2.331A30.247,30.247,0,0,1,1398.039,1172.028Z"/>
        <path id="Path_798" data-name="Path 798" d="M1444.059,963.933h.068a101.561,101.561,0,0,1,31.331,4.9c11.354,3.834,20.566,9.848,27.382,17.876a49.412,49.412,0,0,1,8.542,14.692,57.783,57.783,0,0,1,3.486,16.13,38.376,38.376,0,0,1-7.459,27.695,51.5,51.5,0,0,1-22.268,17.16,54.492,54.492,0,0,1-15.95,3.9,6.187,6.187,0,0,1-.949.3c-.666.157-2.224.524-2.334,3.787-.189,5.606,4.066,13.028,11.27,15.245q1.506.462,2.986.82a10.536,10.536,0,0,1,1.505-.859,17.088,17.088,0,0,1,4.743-1.338q.116-.019.231-.033c.064-.009.129-.016.2-.023h.005c.16-.02.363-.043.593-.062.313-.028.623-.05.928-.064-.053-.092-.1-.186-.151-.28-2.807-4.144-2.755-10.71.21-16.3,3.52-6.642,10.237-10.451,18.429-10.451.716,0,1.45.03,2.172.088a24.66,24.66,0,0,1,20.834,15.182,28.248,28.248,0,0,1,1.2,17.659,41.927,41.927,0,0,1-9.01,17.006,43.086,43.086,0,0,1-16.044,11.535,17.168,17.168,0,0,1,2.547,10.514,28.75,28.75,0,0,1-6.389,16.391,31.388,31.388,0,0,1-17.707,10.925,65.273,65.273,0,0,1-14.645,1.728,53.038,53.038,0,0,1-15.272-2.173,38.276,38.276,0,0,1-3.938,3.85,31.507,31.507,0,0,1-20.468,7.775,35.25,35.25,0,0,1-13.641-2.9,46.122,46.122,0,0,1-3.905,2.491,29.655,29.655,0,0,1-14.55,4.328c-.464,0-.926-.015-1.372-.044a19.481,19.481,0,0,1-13.554-6.808,45.626,45.626,0,0,1-11.511,1.644c-8.342,0-12.492-3.146-14.514-5.837a36.8,36.8,0,0,1-6.731.7c-9.271,0-13.852-4.883-16.062-8.979-.088-.162-.175-.326-.26-.49-5.27-.478-12.161-1.981-16.478-7.853a27.151,27.151,0,0,1-4.953-11.706,33.577,33.577,0,0,1,.58-13.133,47.153,47.153,0,0,1,1.728-5.716c-.15.005-.3.008-.446.008q-.315,0-.621-.015a15.734,15.734,0,0,1-5.225,1.562c-.279.038-.544.068-.806.089l-.047,0c-.467.038-.943.058-1.413.058a15.332,15.332,0,0,1-5.033-.807l-.254.044-.16.023a13.894,13.894,0,0,1-1.865.123,15.123,15.123,0,0,1-4.585-.716l-.075-.023-.081-.026a17.765,17.765,0,0,1-2.745-1.179l-.024-.012a12.285,12.285,0,0,1-2.792-1.92l-.067-.061a14.576,14.576,0,0,1-4.965-2.209,11.01,11.01,0,0,1-1.152-.853c-.3-.24-.591-.5-.887-.784a12.152,12.152,0,0,1-1.6-1.709,16.136,16.136,0,0,1-1.5-2.3c-.057-.109-.112-.22-.163-.332s-.1-.226-.147-.338c-.066-.05-.132-.1-.2-.154a12.17,12.17,0,0,1-2.347-2.509c-.018-.024-.035-.049-.053-.074l-.079-.11a12.919,12.919,0,0,1-.876-1.364l-.063-.117c-.211-.406-.414-.827-.6-1.253a14.487,14.487,0,0,1-1.046-3.265,12.354,12.354,0,0,1-.273-3.329q.01-.32.041-.632-.105-.253-.2-.52c-.15-.405-.288-.841-.41-1.3-.021-.079-.04-.158-.059-.238a14.482,14.482,0,0,1-.253-1.573l-.005-.047c-.051-.463-.086-.943-.106-1.427-.006-.144-.007-.287,0-.431.007-.235.022-.432.032-.549v-.007c.012-.293.033-.6.062-.923l.007-.074c.035-.343.087-.7.158-1.078a14.313,14.313,0,0,1,1.92-5.214q.17-.276.351-.537.022-.2.051-.4c.005-.039.011-.078.018-.116a14.327,14.327,0,0,1,2.066-5.193c.214-.352.427-.671.648-.971l.022-.031c.058-.078.117-.156.178-.232l.089-.108c.153-.188.3-.36.445-.522a13.959,13.959,0,0,1,5.019-3.7c.228-.093.452-.177.674-.252q.34-.351.727-.679l.065-.055a10.391,10.391,0,0,1,1.407-1.043c.033-.021.068-.041.1-.061.371-.217.767-.428,1.18-.629a11.765,11.765,0,0,1,2.61-.953,12.6,12.6,0,0,1,1.273-.283l.081-.013c.162-.025.3-.04.392-.049a15.923,15.923,0,0,1,2.038-.128c.328,0,.661.009,1.018.028.189.01.378.028.565.056a16.352,16.352,0,0,1,2.843.658,6.121,6.121,0,0,1,.572.224,10.228,10.228,0,0,1,2.66,1.7,6.827,6.827,0,0,1,2.129,2.005,16.409,16.409,0,0,1,4.986-7.693,19.453,19.453,0,0,1,12.963-4.486c4.991,0,10.484,1.521,16.327,4.52a30.055,30.055,0,0,0,9.6,3.418,13.756,13.756,0,0,1-1.514-6.7,17.732,17.732,0,0,1,3.322-10.462,9.866,9.866,0,0,1,1.809-1.956,29.854,29.854,0,0,1-.573-17.264,32.988,32.988,0,0,1,9.975-16.7h0c5.652-4.97,12.592-6.655,18.716-8.142.752-.183,1.462-.355,2.172-.533l.03-.008c2.433-.6,3.247-1.218,3.485-1.456s.335-.82.262-1.7c-.008-.1-.014-.2-.017-.3-.008-.246-.075-.682-.139-1.1a14.687,14.687,0,0,1-.072-5.26c1.2-6.489,6.536-10.47,8.291-11.78.071-.053.142-.1.215-.154,15.178-10.354,36.143-12.608,51.058-12.676h.028m0-1.207h-.047c-15.07.068-36.289,2.36-51.719,12.886-.087.06-.173.121-.258.184-1.846,1.378-7.465,5.574-8.754,12.527a15.723,15.723,0,0,0,.064,5.661c.051.334.121.788.127.964,0,.119.01.236.02.353a3.408,3.408,0,0,1,0,.823,8.582,8.582,0,0,1-2.828,1.065c-.743.187-1.45.358-2.2.54-6.26,1.519-13.354,3.242-19.229,8.409a34.2,34.2,0,0,0-10.348,17.31,31.1,31.1,0,0,0,.342,17.188,11.964,11.964,0,0,0-1.387,1.621,18.924,18.924,0,0,0-3.55,11.153,14.569,14.569,0,0,0,.74,5.084,36.225,36.225,0,0,1-7.073-2.864c-6.015-3.087-11.694-4.652-16.878-4.652a20.659,20.659,0,0,0-13.755,4.781,17.715,17.715,0,0,0-4.642,6.321,8.07,8.07,0,0,0-.961-.7,11.564,11.564,0,0,0-2.883-1.821,7.326,7.326,0,0,0-.685-.269,17.693,17.693,0,0,0-3.053-.708c-.224-.032-.449-.055-.676-.067-.379-.02-.733-.029-1.081-.029a17.08,17.08,0,0,0-2.193.138c-.074.007-.232.024-.42.053l-.093.015a13.966,13.966,0,0,0-1.4.31,12.967,12.967,0,0,0-2.846,1.046c-.411.2-.835.425-1.233.657l-.126.076a11.444,11.444,0,0,0-1.562,1.157l-.06.051c-.207.176-.41.36-.6.55q-.233.084-.467.18a15.182,15.182,0,0,0-5.469,4.018c-.154.171-.313.358-.479.563l-.087.106c-.078.1-.149.189-.218.283-.262.357-.493.7-.726,1.084a15.541,15.541,0,0,0-2.226,5.627l-.023.145c-.006.042-.011.085-.017.127q-.112.169-.219.345a15.539,15.539,0,0,0-2.081,5.642c-.073.394-.129.778-.168,1.155l-.007.079c-.032.359-.054.681-.067.993-.008.09-.025.309-.033.57,0,.175,0,.345,0,.515.021.514.059,1.022.112,1.51v.005l.005.05a15.876,15.876,0,0,0,.275,1.7c.023.1.046.192.071.285.13.487.279.959.443,1.4.034.094.069.19.107.286q-.015.2-.021.4a13.427,13.427,0,0,0,.3,3.64,15.656,15.656,0,0,0,1.13,3.51c.19.426.4.87.626,1.3l.071.134a14.283,14.283,0,0,0,.957,1.493l.077.108.066.092a13.3,13.3,0,0,0,2.529,2.7l.033.076c.062.134.127.267.2.4a17.289,17.289,0,0,0,1.611,2.473,13.3,13.3,0,0,0,1.743,1.866c.294.286.611.566.94.83a12.037,12.037,0,0,0,1.252.925,15.956,15.956,0,0,0,5.039,2.3,13.6,13.6,0,0,0,2.887,1.95,18.956,18.956,0,0,0,2.954,1.267l.083.028.087.027a16.332,16.332,0,0,0,4.94.769,15.345,15.345,0,0,0,2.027-.133l.151-.023a16.765,16.765,0,0,0,5.134.773c.5,0,1.011-.021,1.511-.062h.007l.054,0c.269-.022.557-.054.859-.095a17.906,17.906,0,0,0,4.268-1.071c-.41,1.273-.76,2.533-1.045,3.763a34.8,34.8,0,0,0-.594,13.6,28.343,28.343,0,0,0,5.171,12.222c3.489,4.746,8.952,7.457,16.688,8.276,2.38,4.368,7.272,9.538,17.084,9.538a36.476,36.476,0,0,0,6.237-.594c2.316,2.74,6.739,5.728,15.008,5.728a46.5,46.5,0,0,0,11.111-1.5,20.59,20.59,0,0,0,13.876,6.659c.472.031.96.047,1.45.047a30.833,30.833,0,0,0,15.146-4.485c1.163-.661,2.324-1.391,3.46-2.174a36.194,36.194,0,0,0,13.49,2.743,32.7,32.7,0,0,0,21.247-8.06,39.526,39.526,0,0,0,3.548-3.4,54.551,54.551,0,0,0,14.883,2.01,66.515,66.515,0,0,0,14.917-1.759,32.583,32.583,0,0,0,18.378-11.347,29.958,29.958,0,0,0,6.651-17.088,19.1,19.1,0,0,0-2.011-10.027,43.877,43.877,0,0,0,15.227-11.3,43.116,43.116,0,0,0,9.259-17.5,29.442,29.442,0,0,0-1.263-18.408,25.866,25.866,0,0,0-21.852-15.92c-.755-.06-1.518-.091-2.267-.091-8.653,0-15.759,4.043-19.5,11.093-2.842,5.363-3.172,11.611-.97,16.113l-.17.026a18.2,18.2,0,0,0-5.067,1.439,12.322,12.322,0,0,0-1.2.651c-.8-.2-1.606-.428-2.412-.676-6.659-2.049-10.593-8.888-10.419-14.051.079-2.34.908-2.535,1.4-2.652a7.435,7.435,0,0,0,.956-.294,55.71,55.71,0,0,0,16.126-3.974,52.722,52.722,0,0,0,22.787-17.568,39.573,39.573,0,0,0,7.682-28.522,58.957,58.957,0,0,0-3.557-16.435,50.613,50.613,0,0,0-8.752-15.049c-6.96-8.2-16.352-14.334-27.915-18.238a102.774,102.774,0,0,0-31.7-4.959Z" fill="#fff"/>
      </g>
      <g id="Group_489" data-name="Group 489">
        <path id="Path_799" data-name="Path 799" d="M1524.15,1074.69a18.5,18.5,0,0,0-15.613-11.4c-6.64-.533-11.98,2.061-14.647,7.092-1.9,3.59-2.071,8.056-.383,10.166l.131.163a.876.876,0,0,0,.16.38,1.171,1.171,0,0,0,.979.394,9.689,9.689,0,0,0,3.878-1.487l.021-.014c.13-.079.29-.181.461-.3,2.039-1.326,2.993-2.407,2.833-3.218.228.508.907.717,1.6.884a5.957,5.957,0,0,1,.961.286.95.95,0,0,1,.418.3l.008.01a2.106,2.106,0,0,1,.393.769,6.124,6.124,0,0,0,.259.614c.033.079.06.156.087.232.04.111.08.218.126.316a4.325,4.325,0,0,0,.254.5l.058.108a2.43,2.43,0,0,0,.181.306,1.228,1.228,0,0,0,.6.483,2.314,2.314,0,0,0-1.5.907c-.3.287-.606.628-.928.989-.28.315-.583.654-.928,1.007-.125.132-.239.268-.353.4l-.143.172c-.191.184-.369.371-.532.559s-.31.378-.429.541a6.371,6.371,0,0,0-.425.514c-.553.764-.725,1.394-.523,1.842-.277-.433-.916-.608-1.843-.5a7.711,7.711,0,0,0-1.429.219c-.212.05-.427.115-.65.182l-.115.035c-.277.068-.559.149-.842.242l-.006,0h0l-.2.074c-.418.145-.808.31-1.18.475l-.178.079a7.643,7.643,0,0,0-1.292.689c-.774.528-1.157,1.059-1.128,1.544-.361-.968-2.357-1.14-4.332-.957-.129.009-.258.024-.387.04-.052.006-.106.011-.158.018a11.663,11.663,0,0,0-3.092.822c-.931.436-1.4.955-1.357,1.5a.983.983,0,0,0,.381.673,52.076,52.076,0,0,1-7.987-1.813c-10.133-3.117-15.907-13.312-15.635-21.367.171-5.081,2.759-8.581,7.1-9.6l-.074-.314a48.546,48.546,0,0,0,16.057-3.6c15.41-6.21,28.2-21.109,25.9-38.506-.689-9.921-4.1-19.8-10.585-27.434-13.138-15.476-34.556-20.375-54.063-20.588-15.628.071-34.46,2.637-47.6,11.6-2.664,1.99-5.29,4.549-5.914,7.981-.335,1.678.26,3.327.317,4.995.487,5.947-3.135,8.368-8.436,9.673-6.341,1.6-13.221,2.839-18.319,7.329-7.77,6.807-11.4,19.664-6.907,29.014-.11.049.815,2.807-1.458,4.331-.931.624-1.215.569-1.931,1.576a11.728,11.728,0,0,0-2.128,6.953c-.144,3.457,2.223,6.271,4.815,8.315l-.2-.058a6.646,6.646,0,0,1-3.743,3.8c-2.8,1.208-8.2,1.6-17.972-3.419-13.281-6.815-20.093-2.878-22.406-.868a10.6,10.6,0,0,0-2.9,11.728c1.175,3.385.907,6.188-.774,8.106-1.729,1.973-4.845,2.782-8.134,2.1-3.754-.771-6.236-2.991-6.811-6.091a6.9,6.9,0,0,1,2.621-6.933c1.529-1.054,2.084-1.7,1.917-2.238a.768.768,0,0,0-.769-.476v.149l-.013-.016c-.055-.379-.4-.864-1.516-1.368a10.354,10.354,0,0,0-1.764-.4,10.535,10.535,0,0,0-2,.067c-.062.007-.124.011-.185.02a6.724,6.724,0,0,0-.718.165,5.813,5.813,0,0,0-1.394.493q-.456.218-.848.447a4.643,4.643,0,0,0-.606.462l-.075.064c-.809.683-1.148,1.44-.9,1.964-.015.008-.03.014-.044.023a1.077,1.077,0,0,0-.87-.352,3.788,3.788,0,0,0-1.275.319,7.816,7.816,0,0,0-2.731,2.088c-.1.11-.2.225-.29.343-.013.017-.027.032-.041.049l0,.007c-.148.2-.281.4-.405.607a8.155,8.155,0,0,0-1.215,2.924c-.17,1.179.023,1.887.572,2.1l.008,0a.788.788,0,0,0,.134.023c-.013.023-.028.046-.04.069a.813.813,0,0,0-.1-.067c-.557-.207-1.3.27-1.842,1.182a8.192,8.192,0,0,0-1.088,3.034c-.039.206-.073.416-.1.632-.022.253-.037.479-.045.695-.007.134-.022.267-.026.4.014.351.04.688.075,1.01a8.8,8.8,0,0,0,.143.928c.076.284.16.547.247.779.347.986.875,1.556,1.431,1.556l.039,0c.007.013.011.026.018.039-.553.138-.929.876-.959,1.914a6.24,6.24,0,0,0,.132,1.756,8.6,8.6,0,0,0,.626,2.016c.15.34.307.666.471.982a7.327,7.327,0,0,0,.48.733l.089.125a6.291,6.291,0,0,0,1.181,1.3,2.686,2.686,0,0,0,1.573.758.88.88,0,0,0,.285-.046c.016.053.033.105.049.158a2.361,2.361,0,0,0,.251,1.933,10.082,10.082,0,0,0,.949,1.438,6.508,6.508,0,0,0,.905.942,7.05,7.05,0,0,0,.588.521l.007.006.005.005.009.006a4.734,4.734,0,0,0,.615.456,7.286,7.286,0,0,0,3.75,1.432,2.079,2.079,0,0,0,.461-.046.911.911,0,0,0,.668-.467.241.241,0,0,1,.006-.025l.034.016c-.005.009-.015.014-.019.022-.18.354-.167.981.913,1.951a6.167,6.167,0,0,0,1.438.97,11.784,11.784,0,0,0,1.875.814l.009,0,.009,0a9,9,0,0,0,2.775.446,7.732,7.732,0,0,0,1.038-.068,2.576,2.576,0,0,0,1.647-.738c.1-.006.192-.016.288-.023a1.117,1.117,0,0,0,.227.33c.669.684,2.316,1.115,4.112,1.115.3,0,.6-.012.909-.037h.011c.182-.014.36-.035.535-.059,1.936-.239,3.637-.931,4.243-1.76a.929.929,0,0,0,.2-.776.75.75,0,0,0-.062-.162l.076-.015a.761.761,0,0,0,.011.171.928.928,0,0,0,.511.623,3.63,3.63,0,0,0,1.678.319,9.625,9.625,0,0,0,2.774-.466c.219-.063.439-.133.661-.218s.413-.167.609-.258a9.183,9.183,0,0,0,2.617-1.672c.782-.76,1.074-1.445.841-1.945l.041-.026a1.124,1.124,0,0,0,.961.4,3.835,3.835,0,0,0,1.152-.213,8.119,8.119,0,0,0,1.6-.76,9.775,9.775,0,0,0,1.649-1.331h0a7.786,7.786,0,0,0,2.066-3.346c.3-1.018.156-1.865-.357-2.148l.018-.044a.724.724,0,0,0,.244.047,1.183,1.183,0,0,0,.672-.241,2.973,2.973,0,0,0,.9-1.022,6.629,6.629,0,0,0,.4-.785c.1-.284.2-.593.281-.912a5.061,5.061,0,0,0,.167-.972l.012-.114c.026-.267.041-.512.051-.736.006-.118.01-.23.01-.327l-.014-2.125-.021-1.274a2.024,2.024,0,0,0-.394-1.476c-.015-.016-.039-.02-.056-.034.014-.014.03-.025.044-.038.012.017.017.038.03.055a1.921,1.921,0,0,0,1.2.479c.154.027.317.055.5.095.426.078.969.2,1.625.355.372.085.781.179,1.224.278l.013,0c.109.024.264.056.437.088a14.308,14.308,0,0,0,2.721.334c.114,0,.224,0,.329-.007.14-.007.273-.017.4-.032-2.275,2.487-4.573,5.149-6.773,7.932-14.923,18.876-18.57,34.62-10.548,45.529,3.693,5.024,10.816,5.368,15.608,5.566a28.048,28.048,0,0,0,1.59,3.5c2.4,4.453,6.429,5.73,10.62,5.73a42.748,42.748,0,0,0,9.577-1.47,33.1,33.1,0,0,0,2.055,3.181c1.819,2.481,5.47,3.422,9.609,3.422a41.1,41.1,0,0,0,13.781-2.685,30.215,30.215,0,0,0,2.155,2.886,13.313,13.313,0,0,0,9.531,4.976c.323.022.647.031.97.031,8.336,0,16.4-6.748,17.724-7.907a24.926,24.926,0,0,0,2.86,1.458,29.078,29.078,0,0,0,11.512,2.533c14.381,0,22.14-12.587,22.234-12.746l-.1-.062a45.531,45.531,0,0,0,17.548,3.356,58.983,58.983,0,0,0,13.253-1.569c12.7-2.93,18.909-13.241,19.3-21.58.211-4.427-1.245-7.707-3.8-8.559l-.862-.287q-.626,0-1.253,0a1.812,1.812,0,0,0-.673.855,5.376,5.376,0,0,1-.326.572,10.457,10.457,0,0,1-1.8,2.047l-.028.026-.014.012c-.414.378-.834.74-1.232,1.082-1.488,1.278-2.563,2.2-2.258,3.025h0a.346.346,0,0,0,.029.049l-.085.037a.589.589,0,0,0-.012-.072c-.375-.973-2.406-.885-5.215-.764l-.284.013c-.323.019-.645.033-.96.047a14.451,14.451,0,0,0-2.61.26,4.347,4.347,0,0,0-1.222.435,1.225,1.225,0,0,0-.564.543l-.127-.014c-.04-.487-.531-.987-1.45-1.463-.192-.086-.394-.194-.608-.308-.26-.138-.536-.286-.83-.415-.276-.126-.566-.246-.875-.36l-.868-.356-.005,0c-.154-.073-.307-.137-.458-.194-.246-.1-.49-.19-.729-.276-.2-.071-.394-.14-.566-.207a9.286,9.286,0,0,0-1.505-.538c-.852-.274-1.7-.461-2.13.022a.674.674,0,0,0-.067.1c-.02-.029-.042-.056-.062-.084.017-.015.043-.025.058-.041.469-.493.191-1.44-.125-2.145-.061-.141-.119-.292-.18-.45a9.093,9.093,0,0,0-.428-.983,3.421,3.421,0,0,1-.169-.4c-.05-.133-.1-.268-.157-.386s-.094-.211-.145-.318c-.024-.051-.048-.1-.072-.158a3.355,3.355,0,0,1-.142-.355h0l-.009-.024c-.227-.533-.432-1.055-.625-1.544a13.854,13.854,0,0,0-1.142-2.477,56.108,56.108,0,0,0,16.328,2.4c14.033,0,27.626-5.064,35.193-14.073C1525.237,1093.55,1527.73,1083.237,1524.15,1074.69Z" fill="#ff926e"/>
      </g>
      <g id="Group_494" data-name="Group 494">
        <path id="Path_800" data-name="Path 800" d="M1392.287,1032.08a14.42,14.42,0,0,0,.192-4.5,2.312,2.312,0,0,0-1.542-1.7c-.4-3.77-1.832-7.253-5.238-9.566-5.457-3.707-12.972.162-15.766,5.387a6.524,6.524,0,0,0-.3.6,1.674,1.674,0,0,0-.147.652c-2.545,2.746-4.39,5.91-4.469,9.868a1.67,1.67,0,0,0-.473,1.123,22.8,22.8,0,0,0,.013,3.867c.13.837.54,1.61.738,2.417.026.333.063.665.115,1a1.528,1.528,0,0,0,.092.53,18.558,18.558,0,0,0,9.008,11.87c5.595,3.071,10.708-1.262,13.364-6.016a21.837,21.837,0,0,0,1.4-3.1,9.719,9.719,0,0,0,1.79-2.16,7.375,7.375,0,0,0,1.238-3.077c.072-.538-.446-1.087-.867-1.394a29.751,29.751,0,0,0,1.211-4.623A1.311,1.311,0,0,0,1392.287,1032.08Z" fill="#1a1a1a"/>
        <g id="Group_493" data-name="Group 493" clip-path="url(#clip-path-3)">
          <g id="Group_492" data-name="Group 492">
            <g id="Group_490" data-name="Group 490">
              <ellipse id="Ellipse_14" data-name="Ellipse 14" cx="14.729" cy="16.435" rx="14.729" ry="16.435" transform="translate(1370.788 1031.579)" fill="#f2f2f2"/>
            </g>
            <g id="Group_491" data-name="Group 491">
              <path id="Path_801" data-name="Path 801" d="M1376.146,1048.788c0-8.781,6.177-15.933,13.944-16.391a13.313,13.313,0,0,0-4.573-.818c-8.135,0-14.729,7.359-14.729,16.436s6.594,16.435,14.729,16.435c.265,0,.523-.029.785-.044C1380.408,1062.258,1376.146,1056.082,1376.146,1048.788Z" fill="#b3b3b3"/>
            </g>
          </g>
        </g>
      </g>
      <g id="Group_499" data-name="Group 499">
        <path id="Path_803" data-name="Path 803" d="M1446.331,1036.641a1.526,1.526,0,0,0-.188-.447,27.178,27.178,0,0,0-.56-5.425,17.344,17.344,0,0,0-16.7-13.733c-.2,0-.372.015-.549.03a11.533,11.533,0,0,0-8.418,2c-3.638.473-6.112,3.863-8.013,6.987a20.492,20.492,0,0,0-3.132,13.392,1.633,1.633,0,0,0-.044.333c.135,5.925,1.909,13.545,6.7,17.515a13.817,13.817,0,0,0,9.474,2.992c.99.778,3.148.774,4.519.514a12.273,12.273,0,0,0,9.127-4.174,3.454,3.454,0,0,0,1.416-.822,21.685,21.685,0,0,0,4.325-6.107,10.951,10.951,0,0,0,1.118-2.945,1.805,1.805,0,0,0-.007-.959A14.64,14.64,0,0,0,1446.331,1036.641Z" fill="#1a1a1a"/>
        <g id="Group_498" data-name="Group 498" clip-path="url(#clip-path-4)">
          <g id="Group_497" data-name="Group 497">
            <g id="Group_495" data-name="Group 495">
              <ellipse id="Ellipse_15" data-name="Ellipse 15" cx="16.71" cy="18.646" rx="16.71" ry="18.646" transform="translate(1405.082 1032.314)" fill="#f2f2f2"/>
            </g>
            <g id="Group_496" data-name="Group 496">
              <path id="Path_804" data-name="Path 804" d="M1432.423,1051.838c0-9.962-7.007-18.076-15.819-18.6a15.1,15.1,0,0,1,5.188-.928c9.229,0,16.711,8.348,16.711,18.646s-7.482,18.646-16.711,18.646c-.3,0-.594-.032-.891-.05C1427.588,1067.119,1432.423,1060.113,1432.423,1051.838Z" fill="#b3b3b3"/>
            </g>
          </g>
        </g>
      </g>
      <path id="Path_806" data-name="Path 806" d="M1510.8,1080.235a6.541,6.541,0,0,0-2.622-7.627,9.08,9.08,0,0,0-12.2,2.045,1.06,1.06,0,0,0-.251,1,6.749,6.749,0,0,0-1.551,3.63,1.606,1.606,0,0,0,.313,2.734,5.114,5.114,0,0,0,3.154.611c1.4-.028,2.768-.518,3.18-1.545a6.223,6.223,0,0,1,.294-.623,7.9,7.9,0,0,0,.914-1.394c.079.823,1.184,1.24,2.3,1.213a2.331,2.331,0,0,1,.206.705,3.359,3.359,0,0,1-.223,1.206,2.367,2.367,0,0,0-.286.061c-3.18.963-5.071,3.609-7.817,5.285-.284.173-.695.4-1.179.638-3.182.244-6.382.064-9.532.783a2.016,2.016,0,0,0-1.436.864c-1.716-.133-3.954,1.043-2.167,2.355.13.1.266.177.4.259a1.666,1.666,0,0,0,1.041.851,16.586,16.586,0,0,0,8,.979,2.1,2.1,0,0,0,.869.057c2.224-.358,4.331-1.2,6.511-1.744a11.907,11.907,0,0,0,2.779-.972,28.2,28.2,0,0,0,2.712-1.826,19.821,19.821,0,0,0,4.548-3.73,11.571,11.571,0,0,0,2.237-5.358A.46.46,0,0,0,1510.8,1080.235Z" fill="#ffd66e"/>
      <g id="Group_500" data-name="Group 500">
        <path id="Path_807" data-name="Path 807" d="M1463.065,1113.694l.008,0c-.089-.045-.112-.056-.093-.045l.067.033Z" fill="#ffd66e"/>
        <path id="Path_808" data-name="Path 808" d="M1498.756,1118.666a1.621,1.621,0,0,0-1.822-.143,2.976,2.976,0,0,0-.769.583,1.214,1.214,0,0,0-1.077.48,14.076,14.076,0,0,0-.736,1.967c-.336.422-.693.829-1.065,1.22-1.312-1.236-5.342-.659-4.848,1.507a1.8,1.8,0,0,1,0,.771c-1.516-.753-4.409-.348-4.507,1.312a.5.5,0,0,1-.225.4c-.209-.076-.419-.149-.629-.221a4.725,4.725,0,0,0-2.13-.177c-1.524-.391-3.046-.785-4.573-1.163a42.3,42.3,0,0,0-4.866-1.183c-2.035-2.781-3.751-5.851-5.636-8.709a.359.359,0,0,0,.038-.181.636.636,0,0,0-.34-.5,4.734,4.734,0,0,0-.509-.246,3.421,3.421,0,0,0-1.33-.452l-.03-.01c-.146-.047-.292-.1-.435-.15q-.1-.038-.192-.078l.073.038c-.03-.016-.062-.03-.093-.046l-.006,0a.716.716,0,0,1-.067-.033c-.056-.028-.126-.067-.185-.1-.005,0-.006-.007-.027-.026s-.049-.043-.072-.065a1.779,1.779,0,0,1-.154-.172,1.228,1.228,0,0,0-.694-.324c-.007,0-.017,0-.024,0-.244-.915-2.457-.829-2.3.052.429,2.471.092,5.064,1.118,7.413a24.242,24.242,0,0,0,1.727,3.16,8.7,8.7,0,0,0,.7.944c.022.115.044.228.071.335a3.592,3.592,0,0,0,.943,1.578,15.58,15.58,0,0,0,3.027,2.655,14.1,14.1,0,0,0,1.746.768c.595.27,1.057.758,1.655,1.029a4.485,4.485,0,0,0,1.471.34,8.259,8.259,0,0,0,2.616.778c2.935,1.168,5.661.339,8.8.867a3.361,3.361,0,0,0,2.143-.346,13.933,13.933,0,0,0,4.287-.348,12.2,12.2,0,0,0,3.379-1.625c.161-.041.32-.073.484-.132a2.073,2.073,0,0,0,1.2-1.04q.405-.291.812-.58a9.492,9.492,0,0,0,2.2-1.976,6.528,6.528,0,0,0,1.112-3.044C1499.264,1122.191,1499.908,1120.05,1498.756,1118.666Z" fill="#ffd66e"/>
      </g>
      <path id="Path_809" data-name="Path 809" d="M1347.9,1078.427a.532.532,0,0,0-.53-.084,3.307,3.307,0,0,0-.641.3,1.718,1.718,0,0,0-.918.1,1.925,1.925,0,0,0-.652-.126c-.4,0-.777,0-1.161,0a1.762,1.762,0,0,0-.9-.253c-2.1-.038-4.127-.7-6.211-.925a28.063,28.063,0,0,0-6.091-.266,5.37,5.37,0,0,0-4.1,2.392,4.578,4.578,0,0,0-.371.762,2.116,2.116,0,0,0-.933.993,5.316,5.316,0,0,0-.36,1.844c-.037.674-.045,1.347-.1,2.02-.015.175-.031.351-.047.526-.073.258-.15.516-.212.783a17.312,17.312,0,0,0-.1,2.287,19.278,19.278,0,0,1-.636,3.035,32.437,32.437,0,0,1-2.358,4.241c-1.336.962-2.492,2.153-3.8,3.153a19.442,19.442,0,0,1-4.793,2.885,29.828,29.828,0,0,1-5.4,1.558c-1.333.242-2.661.019-3.992.138h-.02l-.066-.009c-.239-.03-.477-.063-.714-.1-.471-.083-.938-.188-1.409-.272-.25-.045-.5-.084-.754-.111-.109-.012-.217-.021-.326-.03l-.417-.034-.018,0c-.249-.023-.5-.047-.745-.092-.024-.005-.148-.036-.191-.045-.125-.039-.247-.083-.368-.134a1.362,1.362,0,0,0-.357-.088,2.41,2.41,0,0,0-.658-.318c-.308-.088-.62-.144-.934-.2l-.008,0c-.052-.017-.1-.039-.154-.059l-.05-.022c-.067-.035-.133-.073-.2-.111-.255-.15-.5-.315-.758-.459a1.69,1.69,0,0,0-.821-.207,1.925,1.925,0,0,0-.438.052c-.511-.3-1.015-.617-1.5-.953a13.374,13.374,0,0,1-1.758-1.492c-.238-.233-.475-.468-.7-.715-.093-.1-.187-.208-.269-.319l-.019-.033,0-.005c-.01-.479-.651-.706-1.259-.667a13.418,13.418,0,0,1-1.787-3.343.919.919,0,0,0-.762-.494c-.1-.421-.215-.864-.369-1.347-.817-2.564-2.181-4.65-2.129-7.431a27.78,27.78,0,0,1,.486-4.594c.006-.01.018-.015.024-.026.4-.753.511-1.633.973-2.355.037-.047.072-.1.113-.141a.8.8,0,0,1,.2-.6.473.473,0,0,0,.013-.321c.078-.118.15-.234.232-.354.817-1.179,1.753-2.262,2.579-3.4a18.218,18.218,0,0,1,2.961-1.553,22.532,22.532,0,0,1,5.817-1.488c1.594-.089,2.3-1.047,2.076-1.825.006-.019.015-.037.02-.056,1.068-.838.564-2.409-1.581-2.319-.76.033-1.512.11-2.26.206a16,16,0,0,0-3.623-.1,21.071,21.071,0,0,0-6.021,1.194c-.373.142-.735.474-.475.882a.972.972,0,0,0,.582.369,1.141,1.141,0,0,0-.088.209c-.579.209-1.157.418-1.733.634-3.567,1.338-6.72,3.037-8.9,6.238-1.085,1.591,3.442,2.266,4.476.751a8.909,8.909,0,0,1,1.17-1.361,28.965,28.965,0,0,0-3.239,6.971,1.028,1.028,0,0,0,.253,1.129,51.353,51.353,0,0,0-.887,5.224c-.426,3.213-.074,5.646,1.971,8.168,2.343,2.891,4.237,6.364,7.148,8.742.788.643,2.653.529,3.689.033.2.129.386.26.588.385a22.5,22.5,0,0,0,18.023,2.73c.464-.135.932-.266,1.4-.4a1.139,1.139,0,0,0,.278.6,3.147,3.147,0,0,0,3.175.506,44.576,44.576,0,0,1,7.354-2.178c.8-.173,2.01-.708,1.62-1.737a1.614,1.614,0,0,0-1.092-.865,22.508,22.508,0,0,0,5.618-3.564,14.567,14.567,0,0,0,4.7-7.359c.391-1.676.186-7.286,2.092-8.019a6.071,6.071,0,0,0-.7,1.919c-.123.7.955,1.17,1.426,1.29a3.675,3.675,0,0,0,2.146-.081c1.064.334,2.5.213,3.018-.54.616-.888,1.51-1.556,2.179-2.348a20.1,20.1,0,0,0,2.081-1.831q1.966-1.914,3.935-3.827c.271-.262.15-.554-.075-.757a2.512,2.512,0,0,1,.386-.17C1347.912,1078.7,1348.011,1078.563,1347.9,1078.427Z" fill="#ffd66e"/>
      <path id="Path_810" data-name="Path 810" d="M1501.941,1076.756a.786.786,0,0,0-.554-.516,4.444,4.444,0,0,0-3.565.626,8.433,8.433,0,0,0-1.394.939,4.868,4.868,0,0,0-1.75,1.3,2.13,2.13,0,0,0-.491,1.643c.082.519.691.719,1.16.706.3-.008,1.091-.157,1.152-.589.026,0,.053-.005.077-.01a5.8,5.8,0,0,0,2.293-1.113,8.926,8.926,0,0,1,.9-.6c.041-.022.083-.045.125-.066.1-.049.084-.043-.043.018a.861.861,0,0,1,.268-.1c.028-.01.057-.019.086-.027.084-.013.41-.054.067-.026.406-.033,1.16-.154,1.16-.706a.66.66,0,0,0-.445-.56,5.14,5.14,0,0,0,.632-.322A.564.564,0,0,0,1501.941,1076.756Z" fill="#fff"/>
      <g id="Group_501" data-name="Group 501">
        <path id="Path_811" data-name="Path 811" d="M1508.2,1077.723a7.055,7.055,0,0,0-1.3-2.71,1.2,1.2,0,0,0-.693-.324,1.761,1.761,0,0,0-.894.071l-.008,0c.028,0,.046-.007.089-.01a1.812,1.812,0,0,0-.178.035c-.129.021-.26.033-.39.046a5.984,5.984,0,0,0-.742.1c-.757.17-1.537.58-1.525,1.463.007.522.747.717,1.16.706a2.023,2.023,0,0,0,.749-.165c.012.025.026.05.038.076a2.554,2.554,0,0,1,.095.238c.027.079.05.159.071.24.01.039.019.078.029.116l.006.034c.039.2.074.408.107.612a4.457,4.457,0,0,0,.8,2.383,1.379,1.379,0,0,0,1,.35,1.337,1.337,0,0,0,1-.35A3.422,3.422,0,0,0,1508.2,1077.723Z" fill="#fff"/>
        <path id="Path_812" data-name="Path 812" d="M1505.3,1074.762c-.17.021-.1.038,0,0Z" fill="#fff"/>
      </g>
      <g id="Group_502" data-name="Group 502">
        <path id="Path_813" data-name="Path 813" d="M1501.894,1085.782h.01C1501.63,1085.781,1501.8,1085.793,1501.894,1085.782Z" fill="#fff"/>
        <path id="Path_814" data-name="Path 814" d="M1507.168,1082.478c.066-.129.131-.258.185-.392.2-.493-.41-.812-.81-.869a1.788,1.788,0,0,0-.9.071.893.893,0,0,0-.533.422c-.042.1-.088.207-.137.308a.724.724,0,0,0-.436.38,5.366,5.366,0,0,1-.647,1.387c.006-.01-.043.063-.069.1l-.078.11c-.069.094-.139.187-.212.279-.168.213-.345.421-.525.625-.246.278-.5.549-.751.823-.118.022-.237.041-.356.056h.05c-.06,0-.122.007-.182.009-.113,0-.6-.026-.157.011-.464-.039-1.206-.022-1.428.493-.206.478.422.836.811.869.06.005.12.005.179.007a.322.322,0,0,0,.016.063.779.779,0,0,0-.318.322.5.5,0,0,0,.117.544,1.648,1.648,0,0,0,1.588.253c.161-.043.319-.1.475-.154a4.166,4.166,0,0,0,.977-.377,3.542,3.542,0,0,0,1.177-.914,2.566,2.566,0,0,0,.154-.249,5.933,5.933,0,0,0,.907-.795,2.714,2.714,0,0,0,.6-.953,4.006,4.006,0,0,0,.38-.528,2.927,2.927,0,0,0,.371-1.036A.829.829,0,0,0,1507.168,1082.478Z" fill="#fff"/>
      </g>
      <path id="Path_815" data-name="Path 815" d="M1500.968,1088.673a1.635,1.635,0,0,0-1.406-.949,6.53,6.53,0,0,0-3.794,1.167c-.581.322-1.149.666-1.726.995-.214.122-.433.233-.65.349l-.1.041c-.394.056-.983.393-.781.863a.761.761,0,0,0,.453.4,1.6,1.6,0,0,0,1.01.349,11.883,11.883,0,0,0,3.036-.434,7.929,7.929,0,0,0,3.544-1.485A1.219,1.219,0,0,0,1500.968,1088.673Z" fill="#fff"/>
      <path id="Path_816" data-name="Path 816" d="M1491.709,1090.582a.706.706,0,0,0-.24-.244,1.7,1.7,0,0,0-1.641,0c-1.208.668-2.637.534-4.023.767a5.9,5.9,0,0,0-2.976,1.124,1.614,1.614,0,0,0-1.138.171.549.549,0,0,0,0,1,5.441,5.441,0,0,0,3.22.6,2.519,2.519,0,0,0,.418.037,3.4,3.4,0,0,0,1.152-.24c.512-.085,1.022-.179,1.527-.25,1.429-.2,3.573-.64,3.979-2.295A.58.58,0,0,0,1491.709,1090.582Z" fill="#fff"/>
      <path id="Path_817" data-name="Path 817" d="M1478.519,1127.366c-.754-1.363-2.3-1.311-3.64-1.547-.184-.032-.367-.071-.549-.114l-.027-.008c-.1-.029-.2-.058-.3-.09q-.25-.08-.495-.177a3.52,3.52,0,0,1-.338-.148,3.9,3.9,0,0,1-1.516-1.281,1.154,1.154,0,0,0-.965-.353,1.7,1.7,0,0,0-.553-.082,2.129,2.129,0,0,0-.688.14c.22-.207.349-.5.057-.736-1.914-1.565-2.705-4.109-2.938-6.55l0-.056a.381.381,0,0,0-.02-.111c-.036-.427-.061-.851-.066-1.264-.012-.964-2.333-.963-2.321,0,.006.472.038.957.084,1.447a11.527,11.527,0,0,0,.058,2.2,4.51,4.51,0,0,0,1.048,2.3.622.622,0,0,0,.106.09,7.846,7.846,0,0,0,2.043,2.66,1.645,1.645,0,0,0,1.587.254l.008,0a.457.457,0,0,0-.12.34,3.624,3.624,0,0,0,2.179,2.82,17.242,17.242,0,0,0,1.8.778,21.207,21.207,0,0,0,2.338.815,4.556,4.556,0,0,0,2.6.167A.969.969,0,0,0,1478.519,1127.366Z" fill="#fff"/>
      <g id="Group_503" data-name="Group 503">
        <path id="Path_818" data-name="Path 818" d="M1489.537,1127.14a2.146,2.146,0,0,0-1.861-.427c-.12.014-.238.038-.355.062a1.764,1.764,0,0,0-.941-.287,10.225,10.225,0,0,0-2.93.5c.114-.029-.084.019-.086.019-.114.025-.228.051-.344.072.017.014.017.026-.034.02-.031,0-.062,0-.092,0a.437.437,0,0,0-.131.026c.015-.018.033-.02.05-.03l-.2-.01a4.8,4.8,0,0,0-2.713.25c-1.334.791.572,1.924,1.31,2.139.165.048.332.085.5.119.069.471.772.635,1.148.634a14.9,14.9,0,0,0,4.23-.526,4.522,4.522,0,0,0,2.314-1.409C1489.671,1127.944,1489.867,1127.52,1489.537,1127.14Z" fill="#fff"/>
        <path id="Path_819" data-name="Path 819" d="M1483,1127.08l.017,0a.2.2,0,0,0-.207.012l.081,0Z" fill="#fff"/>
      </g>
      <path id="Path_820" data-name="Path 820" d="M1497.7,1121.766c-.017-.017-.04-.032-.059-.048a2.748,2.748,0,0,0-.074-1.308c-.116-.35-.665-.481-.965-.506a1.556,1.556,0,0,0-1.156.337,6.606,6.606,0,0,0-1.229,1.477,11.572,11.572,0,0,1-1.139,1.445,23.17,23.17,0,0,1-2.788,2.414c-.164.128-.34.267-.34.5,0,.014.007.027.008.041a1.417,1.417,0,0,0-.29.556.666.666,0,0,0,.533.8,5.192,5.192,0,0,0,5.2-1.392,7.493,7.493,0,0,0,1.116-1.407.731.731,0,0,0,.065-.043,6.82,6.82,0,0,0,1.234-2.318A.5.5,0,0,0,1497.7,1121.766Z" fill="#fff"/>
      <path id="Path_821" data-name="Path 821" d="M1341.172,1085.56a3.378,3.378,0,0,0-1.355-1.352,9.264,9.264,0,0,0-2.151-.961c-1.536-.477-3.522-.844-5.013-.034a1.716,1.716,0,0,0-.941,1.779.646.646,0,0,0,.125.3,1.65,1.65,0,0,0-1.17.157,2.17,2.17,0,0,0-1.247.617,2.322,2.322,0,0,0-.549,1.089,6.311,6.311,0,0,0-.094,2.192c-.015.048-.031.1-.043.143a5.281,5.281,0,0,0-.219,1.748,3.9,3.9,0,0,0,.136,1.5c.1.382.243.754.378,1.127.006.168.017.336.018.5.006.588.872.815,1.544.685.031,0,.067,0,.1,0a1.2,1.2,0,0,0,.693-.325.532.532,0,0,0,.117-.544c-.045-.166-.1-.33-.155-.493-.023-.561-.056-1.12-.082-1.681-.013-.29-.009-.577-.005-.864a.419.419,0,0,0,.156-.572,1.651,1.651,0,0,1-.127-.293l0-.01c.009-.178.014-.354.025-.532.015-.274.02-.56.033-.845l.038-.067c.011-.011.02-.023.031-.035.3-.177.519-.523.274-.825a.486.486,0,0,0,.074-.487.538.538,0,0,0-.069-.107,8.893,8.893,0,0,1,.812-1.068.488.488,0,0,0,.07-.619,1.587,1.587,0,0,0,.3.023,1.745,1.745,0,0,0,1.039-.357,3.079,3.079,0,0,0,.865.625,7.81,7.81,0,0,0,2.088.675,8.379,8.379,0,0,0,2.054.144,3.62,3.62,0,0,0,1.955-.538C1341.093,1086.08,1341.307,1085.862,1341.172,1085.56Z" fill="#fff"/>
      <path id="Path_822" data-name="Path 822" d="M1329.418,1095.556a1.623,1.623,0,0,0-1.588.253,9.746,9.746,0,0,0-.811.915,2.672,2.672,0,0,0-.626.388c-.159.134-.3.284-.447.432-.061.063-.121.125-.184.186,0,0-.1.086-.111.1a8.359,8.359,0,0,0-1.8,1.352,14.153,14.153,0,0,0-1.059,1.6,4.277,4.277,0,0,0-.51,1.115.858.858,0,0,0,.01.7c.316.668,1.4.6,1.939.312a9.209,9.209,0,0,0,3.161-3.106c.305-.45.586-.884.87-1.311a2.554,2.554,0,0,0,.893-1.124.531.531,0,0,0,.016-.122,9.313,9.313,0,0,1,.664-.729C1330.218,1096.147,1329.811,1095.686,1329.418,1095.556Z" fill="#fff"/>
      <path id="Path_823" data-name="Path 823" d="M1321.405,1102.275a4.618,4.618,0,0,0-2.723.573,6.78,6.78,0,0,0-2.528.477,13.356,13.356,0,0,0-2.324,1.108.642.642,0,0,0-.34.5.423.423,0,0,0,.04.158c-.028,0-.058,0-.083,0-.407,0-1.16.177-1.16.706,0,.349.332.543.672.636a1.046,1.046,0,0,0,.505.374c1.3.551,2.709-.071,3.954-.471.049-.016.208-.063.213-.066.2-.051.392-.1.587-.151.307-.081.613-.168.912-.276a5.566,5.566,0,0,0,1.937-1.151c.4-.367-.032-.839-.416-.966h0c.069-.025.136-.056.207-.077h.005c.461.047,1.149-.025,1.354-.5C1322.428,1102.652,1321.788,1102.328,1321.405,1102.275Z" fill="#fff"/>
      <path id="Path_824" data-name="Path 824" d="M1311.235,1105.634a5.558,5.558,0,0,0-2.711-.508,11.064,11.064,0,0,0-3.894.6,7.171,7.171,0,0,0-.9.389c-.408-.029-1.155.2-1.155.706a.5.5,0,0,0,.136.348.869.869,0,0,0,.439.961,5.428,5.428,0,0,0,1.842.574,3.773,3.773,0,0,0,1.918-.194,7.574,7.574,0,0,0,2.169-.034,4.805,4.805,0,0,0,2.319-.854,1.085,1.085,0,0,0-.163-1.991Z" fill="#fff"/>
      <path id="Path_825" data-name="Path 825" d="M1299.265,1105.43c-.052,0-.11,0-.172.01-.091-.048-.184-.094-.273-.148-.53-.326-1.031-.7-1.592-.97a4.576,4.576,0,0,0-2.2-.529,4.159,4.159,0,0,0-.622.076,1.7,1.7,0,0,0-1.313-.062c-.4.162-.79.554-.416.966.088.1.186.18.28.268a1.7,1.7,0,0,0,.413,1.215,3.606,3.606,0,0,0,1.179.94,6.057,6.057,0,0,0,1.921.65,4.168,4.168,0,0,0,1.784-.078,1.079,1.079,0,0,0,.245.12c.921.3,2.7.291,2.878-.983C1301.53,1105.814,1300.075,1105.424,1299.265,1105.43Z" fill="#fff"/>
      <path id="Path_826" data-name="Path 826" d="M1297.586,1066.826a1.412,1.412,0,0,0-1.108-.339c.42-.378.163-.8-.336-1.021a4.416,4.416,0,0,0-2.564-.1,19.31,19.31,0,0,0-2.461.708c-.262.089-.53.172-.8.259a1.572,1.572,0,0,0-.716-.356,1.392,1.392,0,0,0-1.428.493,6.591,6.591,0,0,1-1.127,1.131.494.494,0,0,0,0,.712c.026.034.06.062.09.094a.539.539,0,0,0,.075.928,1.669,1.669,0,0,0,1.41.092,8.186,8.186,0,0,0,4.372-.324c.037-.011.072-.025.109-.036a7.6,7.6,0,0,0,4.3-1.383C1297.693,1067.456,1297.88,1067.144,1297.586,1066.826Z" fill="#fff"/>
      <path id="Path_827" data-name="Path 827" d="M1286.631,1069.692a1.488,1.488,0,0,0-1.292-.332,3.2,3.2,0,0,0-1.909,1.286c-.231.283-.445.579-.654.878q-.2.281-.39.564l-.127.184c.1-.139-.039.056-.058.082a14.541,14.541,0,0,0-1.176,1.944l-.046.091a10.769,10.769,0,0,0-1.478,1.948c-.35.616.778.886,1.119.894.027,0,.053-.006.079-.006l.023,0c1.52-.022,2.759-1.288,3.675-2.373a23.275,23.275,0,0,0,2.579-4.454C1287.135,1070.094,1286.909,1069.846,1286.631,1069.692Z" fill="#fff"/>
      <path id="Path_828" data-name="Path 828" d="M1281.2,1081.153a2.447,2.447,0,0,0,.237-.806,3.933,3.933,0,0,0-.177-1.162,2.03,2.03,0,0,0-.1-.634c-.149-.45-.9-.541-1.273-.506-.36.034-1.025.213-1.006.693a2.625,2.625,0,0,0,.067.458.5.5,0,0,0-.2.41c.006.161.018.324.032.49a5.1,5.1,0,0,0-.22.663c-.171.777-.063,1.6-.293,2.366a12.377,12.377,0,0,0-.58,2.046,2.823,2.823,0,0,0,.674,2.1,1.54,1.54,0,0,0,2,0,5.968,5.968,0,0,0,1.067-3.806C1281.4,1082.69,1281.293,1081.922,1281.2,1081.153Z" fill="#fff"/>
      <path id="Path_829" data-name="Path 829" d="M1284.136,1095.671a12.183,12.183,0,0,0-.853-1.242l-.023-.032c-.027-.039-.054-.078-.079-.119-.082-.132-.153-.272-.23-.406-.039-.068-.082-.133-.122-.2a19.785,19.785,0,0,0-1.222-3.636.748.748,0,0,0-.357-.336,3.148,3.148,0,0,0-.348-.884,1.379,1.379,0,0,0-1.427-.494c-.327.056-1.093.394-.81.869a2.981,2.981,0,0,1,.355,1.043.522.522,0,0,0-.178.593c.077.218.177.425.273.633.007.433.005.864.047,1.266a8.255,8.255,0,0,0,1.038,3.192,2.925,2.925,0,0,0,1.124,1.183,2.439,2.439,0,0,0,2.376.029A1.141,1.141,0,0,0,1284.136,1095.671Z" fill="#fff"/>
      <g id="Group_504" data-name="Group 504">
        <path id="Path_830" data-name="Path 830" d="M1286.444,1101.668a.223.223,0,0,0,.057.041l-.016-.015Z" fill="#fff"/>
        <path id="Path_831" data-name="Path 831" d="M1291.588,1103.744a.415.415,0,0,0,.014-.072.438.438,0,0,0-.014-.074l0-.017a.518.518,0,0,0-.03-.113,1.081,1.081,0,0,0-.079-.179.488.488,0,0,0-.033-.661c-1.33-1.748-3.3-2.764-5.077-3.987a.447.447,0,0,0,.079-.241.64.64,0,0,0-.34-.5,1.6,1.6,0,0,0-.821-.207l-.061,0a1.5,1.5,0,0,0-.856-.233c-.352.01-1.218.175-1.16.706a2.689,2.689,0,0,0,.449,1.2,2.787,2.787,0,0,0,0,.387c.052.58.238,1.149.237,1.734a.642.642,0,0,0,.34.5,1.58,1.58,0,0,0,.82.207,1.55,1.55,0,0,0,.82-.207.645.645,0,0,0,.337-.482c.077.053.154.109.232.156,0,0,.019.009.041.026s.057.041.087.056c-.034-.017-.051-.029-.071-.041a.19.19,0,0,1,.025.024l.172.2c.156.182.311.364.468.545a14.169,14.169,0,0,0,1.222,1.288,2.551,2.551,0,0,0,2.153.82,1.266,1.266,0,0,0,1-.653c.007-.017.008-.032.014-.048a.6.6,0,0,0,.03-.1C1291.585,1103.765,1291.587,1103.755,1291.588,1103.744Z" fill="#fff"/>
      </g>
      <path id="Path_832" data-name="Path 832" d="M1392.414,988.842s14.9-16.44,49.873-14.439c48.083,2.75,63.431,31.859,54.541,56.269-11.584,31.8-47.619,14.372-42.679,37.549-2.307-13.573,24.352-7.252,24.352-7.252l20.783-12.993,10.388-17.648-1.16-28.421-24.74-26.768-37.073-8.3-35.886,8.022-15.971,5.73Z" fill="#ffd66e" opacity="0.45" style="mix-blend-mode: screen;isolation: isolate"/>
      <path id="Path_833" data-name="Path 833" d="M1390.858,991.593s11.749,17.052-1.058,17.419c-16.012.458-34.524,6.16-31.358,31.845-5.314-14.2-9.211-25.657,3.4-30.928s24.608-4.938,26.817-10.085S1390.858,991.593,1390.858,991.593Z" fill="#ffd66e" opacity="0.45" style="mix-blend-mode: screen;isolation: isolate"/>
      <path id="Path_834" data-name="Path 834" d="M1359.8,1064.063s-3.558-6.767-3.558-10.006c0-4.706,5.6-7.456,5.6-7.456l-4.636-5.888-7.5,8.18,3.717,11.3Z" fill="#ffd66e" opacity="0.45" style="mix-blend-mode: screen;isolation: isolate"/>
      <path id="Path_835" data-name="Path 835" d="M1452.042,1027.577c-5.343-25.67-36.357-13.322-36.357-13.322C1429.452,1003.053,1452.171,1003.511,1452.042,1027.577Z" fill="#ffd66e" opacity="0.45" style="mix-blend-mode: screen;isolation: isolate"/>
      <g id="Group_505" data-name="Group 505" opacity="0.45" style="mix-blend-mode: screen;isolation: isolate">
        <path id="Path_836" data-name="Path 836" d="M1358.442,1072.572c-10.364,11.906-37.212,39.923-33.579,56.044a14.358,14.358,0,0,1-.639-2.034,18.476,18.476,0,0,1-.172-6.44c2.445-16.686,21.458-37.259,34.39-47.57Z" fill="#ffd66e"/>
      </g>
      <g id="Group_506" data-name="Group 506" opacity="0.45" style="mix-blend-mode: screen;isolation: isolate">
        <path id="Path_837" data-name="Path 837" d="M1362.859,1081.106c-7.086,14.105-26.146,47.905-18.629,62.621a14.477,14.477,0,0,1-1.123-1.812,18.5,18.5,0,0,1-1.764-6.2c-1.77-16.772,11.545-41.418,21.516-54.614Z" fill="#ffd66e"/>
      </g>
      <g id="Group_507" data-name="Group 507" opacity="0.45" style="mix-blend-mode: screen;isolation: isolate">
        <path id="Path_838" data-name="Path 838" d="M1373.4,1087.308c-4.665,15.08-17.891,51.56-8.05,64.835a14.284,14.284,0,0,1-1.407-1.6,18.49,18.49,0,0,1-2.761-5.819c-4.511-16.251,4.559-42.754,12.218-57.414Z" fill="#ffd66e"/>
      </g>
      <g id="Group_508" data-name="Group 508" opacity="0.45" style="mix-blend-mode: screen;isolation: isolate">
        <path id="Path_839" data-name="Path 839" d="M1392.922,1085.538c-3.063,15.485-12.4,53.148-1.229,65.322a14.578,14.578,0,0,1-1.567-1.446,18.512,18.512,0,0,1-3.354-5.5c-6.185-15.689.065-43,6.15-58.376Z" fill="#ffd66e"/>
      </g>
      <g id="Group_509" data-name="Group 509" opacity="0.45" style="mix-blend-mode: screen;isolation: isolate">
        <path id="Path_840" data-name="Path 840" d="M1409.97,1086.06c-.931,15.619-5.154,54.478,7.873,64.648a14.223,14.223,0,0,1-1.778-1.173,15.745,15.745,0,0,1-1.581-1.453c-11.755-12.861-8.519-46.032-4.514-62.022Z" fill="#ffd66e"/>
      </g>
      <g id="Group_510" data-name="Group 510" opacity="0.45" style="mix-blend-mode: screen;isolation: isolate">
        <path id="Path_841" data-name="Path 841" d="M1427.645,1092.685a88.229,88.229,0,0,0,7.474,28.38c5.556,12.047,14.987,21.377,27.807,25.348a63.409,63.409,0,0,0,9.616,2.183,46.547,46.547,0,0,1-9.915-1.083,47.331,47.331,0,0,1-4.831-1.409c-9.65-3.346-17.553-10.713-22.425-19.6a65.793,65.793,0,0,1-7.726-33.817Z" fill="#ffd66e"/>
      </g>
      <g id="Group_511" data-name="Group 511" opacity="0.45" style="mix-blend-mode: screen;isolation: isolate">
        <path id="Path_842" data-name="Path 842" d="M1324.863,1061.672c-3.378.391-7.614.525-9.737,3.311a8.1,8.1,0,0,0-1.258,3.849c-.141,1.239-.106,2.483-.163,3.74a10.04,10.04,0,0,1-1.478-5.045c0-.12,0-.407,0-.522s.085-.76.1-.881a6.623,6.623,0,0,1,.726-2.075l.185-.329c2.456-3.756,7.935-3.867,11.625-2.048Z" fill="#ffd66e"/>
      </g>
      <g id="Group_512" data-name="Group 512" opacity="0.45" style="mix-blend-mode: screen;isolation: isolate">
        <path id="Path_843" data-name="Path 843" d="M1290.327,1079.534c1.947,4.884,4.408,8.431,9.9,8.955a31.079,31.079,0,0,0,4.546.019c.448-.039.9-.062,1.373-.069a12.415,12.415,0,0,1-5.23,1.921,9.3,9.3,0,0,1-7.633-2.276,10,10,0,0,1-2.952-8.55Z" fill="#ffd66e"/>
      </g>
      <g id="Group_513" data-name="Group 513" opacity="0.45" style="mix-blend-mode: screen;isolation: isolate">
        <path id="Path_844" data-name="Path 844" d="M1443.634,1079.534c.374,6.578,1.98,13.372,6.033,18.636,3.387,4.446,8.2,7.162,13.406,9.212a22.422,22.422,0,0,1-10.71-3.634,23.872,23.872,0,0,1-2.4-1.9c-.271-.217-.626-.619-.876-.865l-.43-.443-.4-.469c-.219-.274-.578-.674-.771-.962a23.8,23.8,0,0,1-3.848-19.571Z" fill="#ffd66e"/>
      </g>
      <g id="Group_514" data-name="Group 514" opacity="0.45" style="mix-blend-mode: screen;isolation: isolate">
        <path id="Path_845" data-name="Path 845" d="M1509.672,1067.679a9.449,9.449,0,0,1,10.864,5.784c1.6,4.064.921,8.745-.894,12.6-.043-3.366.109-6.5-.619-9.723-1.112-4.932-4.464-7.508-9.351-8.658Z" fill="#ffd66e"/>
      </g>
      <circle id="Ellipse_16" data-name="Ellipse 16" cx="4.534" cy="4.534" r="4.534" transform="translate(1480.839 1005.188)" fill="#ffd66e" opacity="0.45" style="mix-blend-mode: screen;isolation: isolate"/>
      <circle id="Ellipse_17" data-name="Ellipse 17" cx="2.878" cy="2.878" r="2.878" transform="translate(1475.978 1014.255)" fill="#ffd66e" opacity="0.45" style="mix-blend-mode: screen;isolation: isolate"/>
      <circle id="Ellipse_18" data-name="Ellipse 18" cx="1.439" cy="1.439" r="1.439" transform="translate(1475.978 1008.282)" fill="#ffd66e" opacity="0.45" style="mix-blend-mode: screen;isolation: isolate"/>
      <circle id="Ellipse_19" data-name="Ellipse 19" cx="1.439" cy="1.439" r="1.439" transform="translate(1485.373 1015.937)" fill="#ffd66e" opacity="0.45" style="mix-blend-mode: screen;isolation: isolate"/>
      <circle id="Ellipse_20" data-name="Ellipse 20" cx="1.439" cy="1.439" r="1.439" transform="translate(1451.842 1037.489)" fill="#ffd66e" opacity="0.45" style="mix-blend-mode: screen;isolation: isolate"/>
      <circle id="Ellipse_21" data-name="Ellipse 21" cx="2.067" cy="2.067" r="2.067" transform="translate(1453.281 1032.049)" fill="#ffd66e" opacity="0.45" style="mix-blend-mode: screen;isolation: isolate"/>
      <circle id="Ellipse_22" data-name="Ellipse 22" cx="2.067" cy="2.067" r="2.067" transform="translate(1457.445 1036.861)" fill="#ffd66e" opacity="0.45" style="mix-blend-mode: screen;isolation: isolate"/>
      <path id="Path_846" data-name="Path 846" d="M1365.139,1043.513s-2.28,8.111,8.26,13.843c6.295-1.077,5.168-1.492,5.168-1.492S1366.824,1049.173,1365.139,1043.513Z" fill="#bf7453" opacity="0.45" style="mix-blend-mode: multiply;isolation: isolate"/>
      <path id="Path_847" data-name="Path 847" d="M1409.549,1049.351s4.6,15.185,17.869,15.1,17.505-14.016,17.505-14.016-6.074,10.526-16.145,10.426C1415.4,1060.728,1409.549,1049.351,1409.549,1049.351Z" fill="#bf7453" opacity="0.45" style="mix-blend-mode: multiply;isolation: isolate"/>
      <path id="Path_848" data-name="Path 848" d="M1357.531,1070.252s-7.14,6.648-9.153,7.772-7.865-.526-9.79-.81c-9.7-1.432-11.3,1.246-13.194,4.1,1.8-6.462,10.465-11.43,15.937-8.74C1350.068,1076.868,1357.531,1070.252,1357.531,1070.252Z" fill="#bf7453" opacity="0.45" style="mix-blend-mode: multiply;isolation: isolate"/>
      <path id="Path_849" data-name="Path 849" d="M1464.85,1060.837s-.6-2.464-5.338-1.462-4.791,2.38-4.791,6.278c3.573-1.2,4.685,3.537,4.657,6.274C1460.779,1078.009,1464.85,1060.837,1464.85,1060.837Z" fill="#bf7453" opacity="0.45" style="mix-blend-mode: multiply;isolation: isolate"/>
      <path id="Path_850" data-name="Path 850" d="M1440.294,1091.728a36.975,36.975,0,0,0,19.484,20.3c5,2.155,5.747,2.159,5.747,2.159s3.066,6.256,5.039,9.542C1463.6,1127.28,1445.854,1116.682,1440.294,1091.728Z" fill="#bf7453" opacity="0.45" style="mix-blend-mode: multiply;isolation: isolate"/>
      <path id="Path_851" data-name="Path 851" d="M1426.317,1114.4s4.739,22.967,21.452,31.479c4.851,2.471,4.134,1.884,4.134,1.884s-1.834,2.248.139,5.533C1445.081,1156.849,1424.18,1148.6,1426.317,1114.4Z" fill="#bf7453" opacity="0.45" style="mix-blend-mode: multiply;isolation: isolate"/>
      <path id="Path_852" data-name="Path 852" d="M1401.588,1128.616s.258,17.638,11.823,26.762c4.273,3.372,4.133,1.884,4.133,1.884s-1.859,1.418-1.859,2.379C1408.724,1163.195,1395.78,1154.054,1401.588,1128.616Z" fill="#bf7453" opacity="0.45" style="mix-blend-mode: multiply;isolation: isolate"/>
      <path id="Path_853" data-name="Path 853" d="M1379.283,1132.926s-.427,10.8,4.127,20.134c2.387,4.892,2.357,4.624,2.357,4.624s-.6.227-.6,1.187C1378.207,1162.426,1367.682,1148.08,1379.283,1132.926Z" fill="#bf7453" opacity="0.45" style="mix-blend-mode: multiply;isolation: isolate"/>
      <path id="Path_854" data-name="Path 854" d="M1355.526,1129.231s-.823,12.317,2.528,20.133c2.145,5,2.357,4.624,2.357,4.624s-.6.227-.6,1.187C1352.852,1158.73,1343.925,1144.384,1355.526,1129.231Z" fill="#bf7453" opacity="0.45" style="mix-blend-mode: multiply;isolation: isolate"/>
      <path id="Path_855" data-name="Path 855" d="M1337.264,1125.54s-2.212,10.06.222,16.971c1.557,4.424,1.811,4.139,1.811,4.139a.976.976,0,0,0-.728.9C1331.269,1149.538,1324.053,1136.476,1337.264,1125.54Z" fill="#bf7453" opacity="0.45" style="mix-blend-mode: multiply;isolation: isolate"/>
      <g id="Group_515" data-name="Group 515">
        <path id="Path_856" data-name="Path 856" d="M1387.371,1016.377a7.889,7.889,0,0,0-4.883-2.592c-4.791-.345-9.222,2.532-12.238,6-6.511,7.533-9.515,19.594-3.714,28.352a19.448,19.448,0,0,0,8.988,6.986c.547.219,1.1.416,1.658.6a65.082,65.082,0,0,1-7.921,2.856l.022.14a24.883,24.883,0,0,0,10.839-2.833c8.3-4.2,12.995-12.563,13.1-21.761C1393.27,1027.917,1391.669,1021.061,1387.371,1016.377Zm-8.155,38.343a23.871,23.871,0,0,1-6.294-2.638c-8.982-5.363-9.6-16.554-5.412-25.276,2.735-5.713,8.017-11.8,14.865-11.478,4.708.563,7.593,7.507,8.495,11.619,1.577,6.955.674,14.7-3.455,20.622A22.452,22.452,0,0,1,1379.216,1054.72Z"/>
        <path id="Path_857" data-name="Path 857" d="M1441.108,1060.878a24.642,24.642,0,0,1-3.752,2.193,12.378,12.378,0,0,0,2.9-.717c6.765-2.548,10.287-10.412,9.654-17.31C1448.583,1051.045,1446.208,1057.162,1441.108,1060.878Z"/>
        <path id="Path_858" data-name="Path 858" d="M1427.413,1064.536l.009-.172a39.312,39.312,0,0,1-4.866-1.261c-.306-.123-.72-.271-1.027-.385-.249-.106-.755-.327-1-.431-.43-.22-1.03-.5-1.444-.75a17.563,17.563,0,0,1-7.611-8.644,19.557,19.557,0,0,0,16.011,8.85c11.2,0,20.306-10.294,20.306-22.946s-9.109-22.945-20.306-22.945-20.306,10.293-20.306,22.945h0c-.145,6.161.832,12.543,4.241,17.825A17.223,17.223,0,0,0,1427.413,1064.536Zm.069-47.137c10.344,0,18.759,9.6,18.759,21.4s-8.415,21.4-18.759,21.4c-9.649,0-17.618-8.354-18.646-19.054-.055-.79-.092-1.573-.113-2.345h0C1408.723,1027,1417.138,1017.4,1427.482,1017.4Z"/>
        <path id="Path_859" data-name="Path 859" d="M1529.858,1072.3a24.66,24.66,0,0,0-20.834-15.182c-.722-.058-1.456-.088-2.172-.088-8.192,0-14.909,3.809-18.429,10.451-2.965,5.593-3.017,12.159-.21,16.3.048.094.1.188.151.28-.305.014-.615.036-.928.064-.231.019-.433.042-.593.062h-.005l-.2.023q-.115.013-.231.033a17.078,17.078,0,0,0-4.743,1.338,10.536,10.536,0,0,0-1.505.859q-1.479-.357-2.985-.82c-7.2-2.217-11.46-9.639-11.271-15.245.11-3.263,1.668-3.63,2.334-3.787a6.187,6.187,0,0,0,.949-.3,54.492,54.492,0,0,0,15.95-3.9,51.5,51.5,0,0,0,22.268-17.16,38.376,38.376,0,0,0,7.459-27.695,57.783,57.783,0,0,0-3.486-16.13,49.393,49.393,0,0,0-8.543-14.692c-6.814-8.028-16.027-14.042-27.381-17.876a101.561,101.561,0,0,0-31.331-4.9h-.1c-14.915.068-35.88,2.322-51.058,12.676-.073.05-.144.1-.215.154-1.755,1.31-7.087,5.291-8.291,11.78a14.735,14.735,0,0,0,.071,5.26c.065.422.132.858.14,1.1,0,.1.009.2.017.3.072.882-.016,1.455-.262,1.7s-1.053.857-3.485,1.456l-.03.008c-.71.178-1.42.35-2.172.533-6.124,1.487-13.064,3.172-18.716,8.142h0a32.988,32.988,0,0,0-9.975,16.7,29.854,29.854,0,0,0,.573,17.264,9.834,9.834,0,0,0-1.809,1.956,17.739,17.739,0,0,0-3.323,10.462,13.769,13.769,0,0,0,1.515,6.7,30.063,30.063,0,0,1-9.6-3.418c-5.843-3-11.336-4.519-16.327-4.52a19.453,19.453,0,0,0-12.963,4.486,16.409,16.409,0,0,0-4.986,7.693,6.827,6.827,0,0,0-2.129-2.005,10.2,10.2,0,0,0-2.66-1.7q-.28-.126-.572-.224a16.352,16.352,0,0,0-2.843-.658c-.187-.028-.376-.046-.565-.056-.357-.019-.69-.028-1.018-.028a15.923,15.923,0,0,0-2.038.128c-.094.009-.23.024-.393.049l-.08.013a12.875,12.875,0,0,0-1.273.283,11.72,11.72,0,0,0-2.61.954c-.413.2-.809.411-1.18.628l-.1.061a10.391,10.391,0,0,0-1.407,1.043l-.065.055q-.387.328-.727.679c-.222.075-.446.159-.674.252a13.959,13.959,0,0,0-5.019,3.7c-.146.162-.292.334-.445.522l-.089.108c-.061.076-.12.154-.178.233l-.022.03c-.22.3-.434.619-.648.971a14.327,14.327,0,0,0-2.066,5.193c-.006.038-.013.077-.018.116q-.028.2-.051.4-.182.261-.351.537a14.313,14.313,0,0,0-1.92,5.214c-.071.382-.123.735-.158,1.078l-.007.074c-.029.327-.05.63-.062.923v.007c-.009.117-.024.314-.031.549,0,.144,0,.287,0,.431.02.484.055.964.106,1.427l.005.047a14.268,14.268,0,0,0,.254,1.573c.018.08.037.159.058.238.122.455.26.891.41,1.3q.1.267.2.52-.03.312-.041.632a12.314,12.314,0,0,0,.273,3.329,14.487,14.487,0,0,0,1.046,3.265c.19.426.393.847.6,1.253.021.039.041.078.063.117a12.919,12.919,0,0,0,.876,1.364l.079.11c.018.025.035.05.053.074a12.17,12.17,0,0,0,2.347,2.509c.065.052.131.1.2.154.047.112.1.224.147.338s.106.223.163.332a16.136,16.136,0,0,0,1.5,2.3,12.152,12.152,0,0,0,1.6,1.709c.3.286.588.544.887.784a11.01,11.01,0,0,0,1.152.853,14.576,14.576,0,0,0,4.965,2.209l.067.061a12.285,12.285,0,0,0,2.792,1.92l.024.012a17.765,17.765,0,0,0,2.745,1.179l.081.026.076.023a15.113,15.113,0,0,0,4.584.716,13.894,13.894,0,0,0,1.865-.123l.16-.023.254-.044a15.332,15.332,0,0,0,5.033.807c.47,0,.946-.02,1.413-.058l.047,0c.262-.021.527-.051.806-.089a15.734,15.734,0,0,0,5.225-1.562q.306.015.621.015c.147,0,.3,0,.446-.008a47.153,47.153,0,0,0-1.728,5.716,33.557,33.557,0,0,0-.579,13.133,27.137,27.137,0,0,0,4.952,11.706c4.317,5.872,11.207,7.375,16.478,7.853.085.164.172.328.259.49,2.211,4.1,6.792,8.979,16.063,8.979a36.789,36.789,0,0,0,6.731-.7c2.022,2.691,6.172,5.837,14.514,5.837a45.626,45.626,0,0,0,11.511-1.644,19.481,19.481,0,0,0,13.554,6.808c.446.029.908.044,1.372.044a29.655,29.655,0,0,0,14.55-4.328,46.094,46.094,0,0,0,3.9-2.491,35.258,35.258,0,0,0,13.642,2.9,31.507,31.507,0,0,0,20.468-7.775,38.276,38.276,0,0,0,3.938-3.85,53.035,53.035,0,0,0,15.273,2.173,65.271,65.271,0,0,0,14.644-1.728,31.382,31.382,0,0,0,17.707-10.925,28.743,28.743,0,0,0,6.389-16.391,17.162,17.162,0,0,0-2.548-10.514,43.091,43.091,0,0,0,16.045-11.535,41.927,41.927,0,0,0,9.01-17.006A28.248,28.248,0,0,0,1529.858,1072.3Zm-77.489,76.275v0l-.067-.04.015.006Zm-69.959-39.064a173.452,173.452,0,0,1,10.419-31.359l-.7-.327a174.278,174.278,0,0,0-10.47,31.5c-2.253,10.086-3.135,19.2-2.619,27.1.526,8.047,2.511,14.841,5.914,20.263-7.095,2.665-18.794,4.289-22.331-.537-11.08-15.117-6.3-35.685-.346-50.277a145.01,145.01,0,0,1,15.815-28.432l-.62-.463a145.865,145.865,0,0,0-15.906,28.588c-3.834,9.388-5.974,18.121-6.361,25.957-.4,8.042,1.061,15.152,4.338,21.2a40.788,40.788,0,0,1-9.122,1.384c-3.978,0-7.772-1.192-9.994-5.31-8.128-15.063-.638-34.892,7.076-48.874a166.711,166.711,0,0,1,18.964-27.1l-.576-.515a167.4,167.4,0,0,0-19.059,27.23c-4.96,8.988-8.242,17.4-9.755,25-1.517,7.618-1.247,14.436.791,20.337-4.636-.195-11.3-.62-14.7-5.238-4.334-5.893-5.189-13.21-2.543-21.745,2.134-6.883,6.53-14.566,13.067-22.836a181.052,181.052,0,0,1,24.989-25.281l-.484-.6c-.073.058-3.974,3.207-9.294,8.266-2.135,1.285-5.582.65-9.211-.019-4.484-.827-9.121-1.682-12.219.794-2.084,1.665-3.183,4.622-3.36,9.04-.2,5.12-2.944,9.6-7.712,12.606a23.049,23.049,0,0,1-20.505,1.837,18.759,18.759,0,0,1-11.4-20.03c.924-5.843,4.7-9.927,9.991-10.942a8.1,8.1,0,0,0-1.688,6.6c.635,3.426,3.338,5.871,7.416,6.709a12.013,12.013,0,0,0,2.413.25,8.473,8.473,0,0,0,6.458-2.6c1.308-1.492,2.53-4.242.924-8.87a9.845,9.845,0,0,1,2.674-10.892c4.636-4.028,12.489-3.673,21.545.974,8.08,4.146,14.356,5.3,18.655,3.43a7.59,7.59,0,0,0,3.889-3.616c.095.06.191.121.287.179a18.664,18.664,0,0,0,3.3,1.575l.027-.042c-1.6-1.737-3.329-3.351-4.765-5.173a9.536,9.536,0,0,1-2.132-4.153,6.533,6.533,0,0,1-.079-1.481,10.756,10.756,0,0,1,1.837-5.956c1.093-1.507,2.573-2.708,3.04-4.256a15.885,15.885,0,0,0,4.005,3.655,21.112,21.112,0,0,1-5.233-17.89,29.723,29.723,0,0,1,5.44-13.028c4.021-5.271,10.09-7.434,16.359-8.833,3.364-.835,6.989-1.439,10-3.4a9.245,9.245,0,0,0,4.093-7.711,19.617,19.617,0,0,0-.289-4.1,5.423,5.423,0,0,1,.167-2.888c.942-2.7,3.464-4.829,5.878-6.44,8.212-5.215,18.052-7.625,27.6-9.133,30.4-4.672,72.529,2.714,79.306,38.16a57.175,57.175,0,0,1,1.069,9.648,31.272,31.272,0,0,1-.981,9.428c-4.729,17.57-23.362,27.99-40.879,27.354a18.092,18.092,0,0,0-5.354.358,7.087,7.087,0,0,0-5.76,6.9c.318,3.263-2.138,5.01-5.1,5.516a7.659,7.659,0,0,1-2.456.05l-.018.062a5.623,5.623,0,0,0,1.227.36c3.092.6,6.88-.624,7.974-3.848a7.43,7.43,0,0,0,.386-2.085,4.931,4.931,0,0,1,.93-2.325c1.518-2.036,4.328-2.211,6.809-2.077-2.769,1.784-4.373,4.918-4.511,9a22.533,22.533,0,0,0,4.066,12.967,22.971,22.971,0,0,0,12.115,9.167c8.749,2.692,16.867,3.014,23.477.931,5.464-1.721,9.754-5.091,11.771-9.244,2.215-4.563,1.263-9.16-2.425-11.714a7.968,7.968,0,0,0-8.05-.72,11.5,11.5,0,0,0-6.29,7.683c-.835-1.935-.731-5.281.961-8.471,1.478-2.79,5.254-7.367,13.9-6.684a17.725,17.725,0,0,1,14.96,10.932c3.464,8.27,1.016,18.293-6.716,27.5-10.816,12.876-34.2,17.529-53.238,10.6-15.876-5.784-24.982-18.3-24.982-34.326h-.773a35.326,35.326,0,0,0,7.387,22.442,39,39,0,0,0,14.244,11.007c-.166,1.394-.709,8.27,3.872,13.871,3.62,4.427,9.478,6.854,17.411,7.215,11.457.521,17.277-4.2,18.783-8.4a5.336,5.336,0,0,0,.241-3.164c1.347,1.324,2.082,3.854,1.935,6.951-.383,8.057-6.4,18.023-18.707,20.863-15.926,3.675-30.436.758-40.857-8.216-13.656-11.758-19.694-33.118-17.461-61.771l-.771-.06c-2.253,28.908,3.877,50.492,17.727,62.418a39.713,39.713,0,0,0,10.123,6.342,29.773,29.773,0,0,1-8.338,8.3c-7.327,4.8-15.533,5.311-24.389,1.515-7.07-3.03-12.034-8.969-14.753-17.653-2.19-6.992-2.941-15.765-2.233-26.075a164.281,164.281,0,0,1,6.372-33.928l-.737-.235a165.112,165.112,0,0,0-6.406,34.1c-.716,10.409.045,19.281,2.264,26.366,2.31,7.381,6.213,12.832,11.625,16.263-1.73,1.461-9.4,7.552-17.04,7.552-.3,0-.6-.01-.9-.03a12.568,12.568,0,0,1-8.989-4.7C1377.049,1146.671,1378.9,1125.212,1382.41,1109.51Zm-59.134,31.476c-.046-.051-.09-.1-.136-.157C1323.186,1140.881,1323.23,1140.935,1323.276,1140.986Zm-11.005-34.724c0-.012,0-.024,0-.036Zm-5.053,1.855c-.113.009-.225.014-.337.02a3.714,3.714,0,0,1-2.214-.392,4.994,4.994,0,0,1,2.476-.592,4.92,4.92,0,0,1,2.536.205,3.764,3.764,0,0,1-2.15.729C1307.425,1108.1,1307.322,1108.109,1307.218,1108.117Zm3.045-.852c-.132-.8-2.039-.776-3.165-.69-1.373.111-3.012.4-3.024,1.164a.52.52,0,0,0,.021.151c-.129-.034-.254-.071-.373-.111-.855-.282-1.227-.645-1.211-.863.007-.094.118-.427,1.255-.771a16.526,16.526,0,0,1,3.257-.534c.6-.045,1.165-.068,1.678-.068a11.657,11.657,0,0,1,1.633.1c.936.137,1.313.39,1.354.582.045.212-.271.625-1.073,1.029-.112.056-.228.11-.35.162A.5.5,0,0,0,1310.263,1107.265Zm1.981-1.2c0,.008.006.017.008.026l0,.013C1312.252,1106.089,1312.247,1106.077,1312.244,1106.064Zm.012.044c.005.026.009.055.012.085A.773.773,0,0,0,1312.256,1106.108Zm.005-.194-.066.013c-.2-.431-.785-.713-1.777-.858a16.593,16.593,0,0,0-3.44-.037,17.11,17.11,0,0,0-3.379.558c-1.081.327-1.626.746-1.666,1.283a.8.8,0,0,0,.077.4c-.092.007-.183.016-.274.022a.838.838,0,0,0,.171-.429c.047-.53-.42-1.032-1.428-1.536a23.576,23.576,0,0,0-3.107-1.169,17.463,17.463,0,0,0-3.321-.779,5.293,5.293,0,0,0-.656-.028,2.887,2.887,0,0,0-.564.048,1.093,1.093,0,0,0-.792.49l-.027-.013a1.1,1.1,0,0,0-.057-.929,4.518,4.518,0,0,0-.688-1.008,25.628,25.628,0,0,0-5.21-4.2,4.041,4.041,0,0,0-1.112-.467,1.076,1.076,0,0,0-.951.139.838.838,0,0,0-.2.248l-.045-.145a.8.8,0,0,0,.228-.12,1.082,1.082,0,0,0,.378-.888,4.664,4.664,0,0,0-.176-1.193,24.036,24.036,0,0,0-1.147-3.106,22.786,22.786,0,0,0-1.47-2.967c-.374-.606-.951-1.4-1.639-1.288-.018,0-.036.009-.055.013-.005-.011-.009-.023-.015-.034l.066,0a1.07,1.07,0,0,0,.758-.591,4.227,4.227,0,0,0,.43-1.121,24.808,24.808,0,0,0,.527-3.274,23.328,23.328,0,0,0,.172-3.3,5.893,5.893,0,0,0-.061-.639,2.872,2.872,0,0,0-.124-.552,1.191,1.191,0,0,0-.5-.681l.023-.041a.838.838,0,0,0,.174.02,1.366,1.366,0,0,0,.647-.195,4.6,4.6,0,0,0,.929-.756,27.383,27.383,0,0,0,2.089-2.51c.656-.846,1.393-1.818,1.89-2.618.059-.1.115-.193.159-.278s.1-.181.148-.268a3.01,3.01,0,0,0,.206-.513,1.084,1.084,0,0,0-.064-.953c-.013-.02-.029-.04-.045-.061l.034-.018a.581.581,0,0,0,.034.066,1.423,1.423,0,0,0,1.292.5,6.925,6.925,0,0,0,.714-.045c.683-.076,1.508-.217,2.382-.367l.733-.125c.373-.066.738-.126,1.089-.184.743-.122,1.446-.237,2.027-.382.743-.173,1.611-.455,1.739-1.113a.83.83,0,0,0,.012-.1l0,.422a5.434,5.434,0,0,1-1.572,1.358,5.43,5.43,0,0,0-.551.411c-5.969.777-10.268,5.158-11.279,11.556a19.337,19.337,0,0,0,11.744,20.653,21.543,21.543,0,0,0,8.447,1.648,23.9,23.9,0,0,0,12.6-3.527c4.935-3.114,7.77-7.757,7.983-13.074.169-4.239,1.2-7.056,3.142-8.61,2.891-2.31,7.4-1.48,11.751-.677,3.043.561,5.96,1.1,8.19.529-2.029,1.96-4.227,4.168-6.476,6.566a3.211,3.211,0,0,0-1.143-1.072,10.885,10.885,0,0,0-3.4-1.352,8.473,8.473,0,0,0-2.195-.2,5.08,5.08,0,0,0-1.995.478,2.548,2.548,0,0,0-1.169,1.042.962.962,0,0,0-.019,1.01l-.034.029a.974.974,0,0,0-1-.043,2.611,2.611,0,0,0-.563.366l-.018.017a3.763,3.763,0,0,0-.533.611q-.118.174-.24.378c-.068.117-.124.236-.177.351l-.034.074a6.044,6.044,0,0,0-.329.911l-.019.063a8.812,8.812,0,0,0-.275,2.168v.277l0,.248c0,.148.01.293.018.419,0,.146.007.29.012.431s.011.252.011.386.012.292.017.434c.013.354.025.688.051,1,.066.839.206,1.649.778,1.886.014.006.029.008.043.013l-.013.033c-.013-.007-.025-.015-.038-.021a1.14,1.14,0,0,0-.948.073,3.259,3.259,0,0,0-.468.276,6.06,6.06,0,0,0-.5.38c-.64.527-1.37,1.233-2.341,2.2-.5.5-.892.9-1.23,1.27a14.729,14.729,0,0,0-.995,1.17c-.428.574-.956,1.407-.593,2.005.011.018.025.034.037.051l-.031.019c-.009-.019-.017-.038-.028-.057-.269-.46-.941-.6-2.055-.429a17.844,17.844,0,0,0-3.278.936,16.669,16.669,0,0,0-3.095,1.476C1312.675,1104.938,1312.262,1105.438,1312.261,1105.914Zm-10.089,1.615-.007-.008Zm-10.149-3.609.009-.01-.013.022c-.012.023-.023.049-.034.076C1292,1103.977,1292.009,1103.948,1292.023,1103.92Zm-.022-.012v0h0Zm-.055.255.006-.034Zm.016-.08c.006-.024.014-.048.022-.071C1291.976,1104.035,1291.969,1104.059,1291.962,1104.083Zm2.246,1.706a4.905,4.905,0,0,1,2.517.4c1.887.6,2.261.98,2.331,1.081a1.438,1.438,0,0,1-.648.139,5.609,5.609,0,0,1-1.672-.211c-.1-.028-.2-.055-.3-.086-.119-.04-.235-.082-.351-.124A3.767,3.767,0,0,1,1294.208,1105.789Zm2.695-.149c-1.072-.35-2.918-.825-3.243-.079a.525.525,0,0,0-.034.144c-.107-.082-.209-.165-.3-.249a4.608,4.608,0,0,1-.437-.427,2.233,2.233,0,0,1-.268-.389c-.058-.111-.146-.317-.08-.448a.566.566,0,0,1,.407-.216,2.334,2.334,0,0,1,.459-.037h.1c.152,0,.317.009.49.026a16.907,16.907,0,0,1,3.2.753,23.22,23.22,0,0,1,3.028,1.137c1.062.531,1.117.873,1.109.965h0c-.02.22-.447.519-1.339.653-.128.019-.259.033-.393.044a.5.5,0,0,0,.046-.14v-.005C1299.708,1106.967,1299.432,1106.444,1296.9,1105.64Zm-4.925-1.691-.019.032Zm-3.424-.869a4.246,4.246,0,0,1-.794-.375c-.111-.063-.252-.146-.392-.237l-.089-.062c-.129-.093-.255-.189-.378-.285-.015-.013-.031-.024-.047-.036-.113-.091-.223-.184-.331-.279-.031-.028-.064-.055-.093-.083l-.007-.007c-.129-.125-.254-.254-.371-.381s-.227-.257-.307-.358c-.089-.123-.169-.24-.235-.349a1.925,1.925,0,0,1-.241-.516.49.49,0,0,1-.012-.094.43.43,0,0,1,.1.014,1.966,1.966,0,0,1,.524.21c.108.058.223.127.349.209.141.085.268.166.387.248.134.092.271.192.408.3l.152.115c.094.07.19.141.284.218,1.374,1.106,1.722,1.7,1.753,1.866A1.451,1.451,0,0,1,1288.554,1103.08Zm-3.308-1.725-.08-.09Zm6.236,2.3h0c-.065.122-.258.171-.409.191a2.915,2.915,0,0,1-1.08-.106c-.123-.029-.248-.064-.376-.1a.491.491,0,0,0,.1-.112l0,0c.113-.185.456-.746-1.891-2.636-.1-.081-.2-.157-.3-.232l-.146-.109c-.144-.113-.29-.22-.433-.318s-.265-.176-.407-.261-.261-.163-.383-.229a2.582,2.582,0,0,0-.679-.267.653.653,0,0,0-.634.126.544.544,0,0,0-.091.121c-.068-.118-.131-.236-.187-.353a3.215,3.215,0,0,1-.321-1.038.527.527,0,0,1,.115-.442.337.337,0,0,1,.215-.059,1.134,1.134,0,0,1,.248.033,3.5,3.5,0,0,1,.953.406,25.084,25.084,0,0,1,5.055,4.068,4,4,0,0,1,.6.865A.569.569,0,0,1,1291.482,1103.65Zm-7.105-33.694c.07-.043.14-.082.21-.121C1284.517,1069.874,1284.447,1069.913,1284.377,1069.956Zm-.68.471c.032-.026.065-.051.1-.075C1283.762,1070.376,1283.729,1070.4,1283.7,1070.427Zm-1.169,1.981a6.7,6.7,0,0,1,.761-.828c.121-.109.25-.223.37-.314s.245-.17.362-.241a1.65,1.65,0,0,1,.531-.231.508.508,0,0,1,.091-.011.489.489,0,0,1-.015.09,2.78,2.78,0,0,1-.235.534c-.06.108-.13.223-.212.345l-.018.029c-.073.115-.15.237-.233.355-.056.077-.113.158-.172.24-.144.2-.292.41-.465.624a13.42,13.42,0,0,1-1.254,1.457,1.72,1.72,0,0,1-.543.393,1.367,1.367,0,0,1,.082-.667,5.5,5.5,0,0,1,.8-1.564C1282.426,1072.549,1282.475,1072.477,1282.528,1072.408Zm-1.317,2.966h0a.528.528,0,0,0,.251.063,1.69,1.69,0,0,0,.976-.562,13.883,13.883,0,0,0,1.311-1.519c.178-.219.332-.436.481-.645l.171-.238c.091-.131.174-.261.251-.383l.014-.022c.087-.13.166-.259.235-.385a3.261,3.261,0,0,0,.287-.663.656.656,0,0,0-.1-.642.525.525,0,0,0-.117-.094c.127-.067.253-.128.378-.18.108-.047.213-.089.3-.121s.2-.059.291-.08a2.2,2.2,0,0,1,.466-.065.521.521,0,0,1,.431.148.609.609,0,0,1-.009.466,2.37,2.37,0,0,1-.169.417c-.038.077-.082.155-.135.246s-.095.171-.147.257c-.482.775-1.208,1.732-1.855,2.568a26.984,26.984,0,0,1-2.041,2.454,4.008,4.008,0,0,1-.8.658.629.629,0,0,1-.456.106c-.14-.056-.2-.264-.231-.386a2.889,2.889,0,0,1,.014-1.091c.022-.131.05-.265.084-.4A.481.481,0,0,0,1281.211,1075.374Zm3.557-5.638.071-.033Zm-3.758,7.962.017.005-.012,0-.008,0-.009-.005Zm.007.031-.013-.006.007,0Zm-.24-.175c.023.019.046.038.068.054C1280.821,1077.592,1280.8,1077.572,1280.777,1077.554Zm.1.135Zm-.439-.755c.011.046.022.091.036.132A1.264,1.264,0,0,1,1280.438,1076.934Zm.051.175a1.257,1.257,0,0,0,.113.238A1.216,1.216,0,0,1,1280.489,1077.109Zm.122.251a.92.92,0,0,0,.127.155A.843.843,0,0,1,1280.611,1077.36Zm-.237,1.039a.676.676,0,0,1,.349-.146.227.227,0,0,1,.078.013c.129.048.217.234.268.381a2.23,2.23,0,0,1,.1.442,5.2,5.2,0,0,1,.056.583,22.721,22.721,0,0,1-.169,3.219,24.247,24.247,0,0,1-.512,3.193,3.681,3.681,0,0,1-.368.97c-.108.186-.228.3-.336.311h0c-.145.02-.312-.132-.4-.222a3.025,3.025,0,0,1-.529-.951c-.046-.122-.088-.249-.126-.38a.522.522,0,0,0,.131.016h.023c.407-.021.863-.4,1.152-3.036s-.113-3.109-.494-3.212a.511.511,0,0,0-.151-.012q.1-.181.2-.347a4.134,4.134,0,0,1,.368-.5A2.244,2.244,0,0,1,1280.374,1078.4Zm3.251,18.545a.536.536,0,0,1-.447,0,2.865,2.865,0,0,1-.929-.569c-.1-.085-.2-.175-.3-.271a.51.51,0,0,0,.139-.057c.446-.27.253-1.05.192-1.3a6.584,6.584,0,0,0-.27-.886c-.087-.272-.2-.546-.323-.835l-.079-.19c-.115-.279-.239-.535-.359-.782l-.1-.215c-.133-.26-.282-.522-.459-.807a2.7,2.7,0,0,0-.464-.561.649.649,0,0,0-.618-.2.543.543,0,0,0-.138.063c0-.138,0-.272.007-.4.052-.866.31-1.356.538-1.393l.033,0c.139,0,.467.125,1.021,1.023a22.213,22.213,0,0,1,1.429,2.889,23.637,23.637,0,0,1,1.119,3.021,4.269,4.269,0,0,1,.158,1.031A.587.587,0,0,1,1283.625,1096.944Zm-3.438-3.5a6.519,6.519,0,0,1-.356-1.051,4.382,4.382,0,0,1-.14-.884,1.9,1.9,0,0,1,.037-.572.445.445,0,0,1,.036-.089.455.455,0,0,1,.075.057,2.16,2.16,0,0,1,.358.437c.166.266.307.515.428.753l.1.212c.116.239.236.487.345.75l.08.192c.116.277.226.539.31.8a6.132,6.132,0,0,1,.253.827,1.485,1.485,0,0,1,.066.656,1.431,1.431,0,0,1-.529-.394,5.865,5.865,0,0,1-.547-.707c-.128-.214-.26-.441-.38-.683C1280.279,1093.648,1280.231,1093.547,1280.187,1093.444Zm-1.119-5.855c.017.016.034.034.05.048C1279.1,1087.622,1279.085,1087.6,1279.068,1087.589Zm.093.086.063.051Zm.107.083.057.038Zm.108.068.045.023Zm.111.053.026.01Zm.114.038h0Zm-1.048-5.278v-.008a6.64,6.64,0,0,1,.205-1.09c.048-.175.1-.327.141-.454.056-.142.113-.273.171-.391a1.338,1.338,0,0,1,.384-.535c.068.111.268.621.061,2.568-.217,1.984-.509,2.416-.6,2.5a1.447,1.447,0,0,1-.267-.612,5.112,5.112,0,0,1-.127-.881A7.294,7.294,0,0,1,1278.553,1082.639Zm.446,4.877a2.006,2.006,0,0,1-.136-.169A2.006,2.006,0,0,0,1279,1087.516Zm-.167-.21c-.045-.065-.089-.135-.131-.208C1278.744,1087.171,1278.787,1087.242,1278.832,1087.306Zm-.184-.3c-.024-.045-.048-.091-.071-.139C1278.6,1086.912,1278.624,1086.96,1278.648,1087Zm.343,4.416-.01-.06C1278.984,1091.38,1278.988,1091.4,1278.991,1091.42Zm-.031-.192q-.027-.187-.042-.366C1278.93,1090.983,1278.943,1091.1,1278.96,1091.228Zm.486,1.92c-.039-.106-.074-.211-.108-.315C1279.373,1092.938,1279.408,1093.043,1279.446,1093.148Zm2,3.262-.041-.042Zm.286.274-.048-.044Zm8.274-29.425c.115-.071.244-.142.388-.214a3.012,3.012,0,0,1,.447-.19c.155-.056.318-.109.476-.157l.1-.026.154-.034c.125-.028.25-.054.376-.075l.013,0,.089-.013a4.9,4.9,0,0,1,.509-.057c.19-.011.369-.021.53-.017a4.946,4.946,0,0,1,.921.109,1.447,1.447,0,0,1,.625.264,1.609,1.609,0,0,1-.611.269l-.074.02a7.861,7.861,0,0,1-.783.184l-.176.036c-.106.023-.215.046-.328.065l-.175.029c-.125.02-.252.041-.375.066-.171.031-.351.058-.551.084-.169.031-.336.057-.493.076s-.331.036-.476.056-.278.026-.407.03a1.638,1.638,0,0,1-.673-.049A1.454,1.454,0,0,1,1290,1067.259Zm-.066-.707a5.147,5.147,0,0,1,.7-.262C1290.4,1066.368,1290.164,1066.455,1289.937,1066.552Zm-.988,1.38c.139.342.568.417.991.417.089,0,.177,0,.263-.008.137,0,.288-.016.453-.035.146-.019.3-.037.471-.055s.352-.049.515-.079c.2-.024.385-.053.573-.087.121-.025.241-.044.358-.063l.18-.03c.12-.02.236-.045.35-.069l.161-.034a8.178,8.178,0,0,0,.831-.194l.076-.021c.694-.194,1.039-.458,1.054-.8a.534.534,0,0,0-.015-.15c.134.041.266.084.391.133.813.33,1.193.738,1.147.969-.027.14-.232.411-1.305.66-.563.141-1.254.254-1.985.374-.353.058-.72.118-1.094.184l-.732.125c-.865.148-1.682.288-2.347.362-1.038.112-1.361-.035-1.449-.179h0c-.123-.2.1-.723.75-1.3.1-.092.213-.18.329-.266A.478.478,0,0,0,1288.949,1067.932Zm-1.16.1.038-.042Zm-.52.894.006-.022Zm.031-.1c.009-.029.02-.057.032-.086C1287.32,1068.764,1287.31,1068.792,1287.3,1068.821Zm.041-.107a2.461,2.461,0,0,1,.43-.665A2.623,2.623,0,0,0,1287.341,1068.714Zm30.366,37.093-.006,0-.013,0c-.093.036-.188.068-.283.1a3.746,3.746,0,0,1-2.259.245,4.979,4.979,0,0,1,2.214-1.254,5.091,5.091,0,0,1,2.5-.522,3.853,3.853,0,0,1-1.867,1.311C1317.9,1105.732,1317.8,1105.771,1317.707,1105.807Zm2.683-1.686c-.336-.672-1.943-.241-3.234.241s-2.783,1.221-2.58,1.958a.517.517,0,0,0,.061.138c-.132,0-.261,0-.386,0-.9-.032-1.357-.274-1.405-.485-.043-.192.194-.58.987-1.1a16.322,16.322,0,0,1,2.983-1.42,17.332,17.332,0,0,1,3.163-.906,4.868,4.868,0,0,1,.73-.064c.554,0,.7.153.734.213h0c.111.19-.065.68-.716,1.305-.092.089-.19.177-.293.264A.566.566,0,0,0,1320.39,1104.121Zm20.457-18.544-.251.27a2.806,2.806,0,0,1-1.154.244c-.118.006-.244.007-.374.006a.53.53,0,0,0,.058-.134h0c.092-.346-.167-.7-.771-1.062a6.71,6.71,0,0,0-1.919-.723,4.981,4.981,0,0,0-2.068-.062c-.636.146-1,.462-.97.851a.6.6,0,0,0,.026.123l-.2-.039-.89-.171a.884.884,0,0,1-.467-.2c-.054-.069-.072-.214.047-.429a2.052,2.052,0,0,1,.915-.792,4.493,4.493,0,0,1,1.762-.416c.1-.005.206-.007.31-.007a8.2,8.2,0,0,1,1.734.2,10.294,10.294,0,0,1,3.213,1.276C1340.785,1085.1,1340.858,1085.456,1340.847,1085.577Zm-12.7,12.907a5.391,5.391,0,0,1-.929,1.39c-.082.089-.163.177-.248.262h0c-.084.084-.172.163-.259.243a5.657,5.657,0,0,1-1.368.932,1.462,1.462,0,0,1-.644.17c.016-.124.177-.624,1.585-2.027a14.339,14.339,0,0,1,1.439-1.293,1.73,1.73,0,0,1,.586-.333A1.367,1.367,0,0,1,1328.15,1098.484Zm3.568-12.816c.014.064.026.131.035.2A1.959,1.959,0,0,0,1331.718,1085.668Zm-.155-.4a.874.874,0,0,1,.054.1A.975.975,0,0,0,1331.563,1085.266Zm.092.19c.012.033.024.066.034.1C1331.679,1085.522,1331.667,1085.488,1331.655,1085.456Zm-.4,4.451v.04l-.006.249c-.009.226-.027.544-.068.828a4.423,4.423,0,0,1-.237.915,1.674,1.674,0,0,1-.287.519.426.426,0,0,1-.062.061.568.568,0,0,1-.045-.088,2.99,2.99,0,0,1-.132-.564c-.032-.251-.067-.552-.086-.885-.033-.4-.047-.734-.043-1.054a4.593,4.593,0,0,1,.33-1.78,1.539,1.539,0,0,1,.274-.424.348.348,0,0,1,.082-.056.384.384,0,0,1,.053.088,1.757,1.757,0,0,1,.127.477A10.716,10.716,0,0,1,1331.255,1089.907Zm6.665-3.99a8.253,8.253,0,0,1-1.812-.228,10.909,10.909,0,0,1-1.633-.469c-.438-.176-.492-.285-.5-.286.016-.035.142-.167.52-.254a4.465,4.465,0,0,1,1.815.064,6.2,6.2,0,0,1,1.748.655,1.3,1.3,0,0,1,.493.41A1.332,1.332,0,0,1,1337.92,1085.917Zm-6.4-.723a.792.792,0,0,0-.128-.142h0l-.007-.005a.063.063,0,0,1,.017.011A.936.936,0,0,1,1331.52,1085.194Zm-.405,1.907a.656.656,0,0,0-.607.189,1.985,1.985,0,0,0-.413.611,5.087,5.087,0,0,0-.387,2.025c0,.335.011.685.045,1.1.02.344.057.657.091.929a3.247,3.247,0,0,0,.171.7.667.667,0,0,0,.468.455.486.486,0,0,0,.1.009l.05,0c-.071.147-.14.275-.2.379-.477.8-.96,1.043-1.154.962-.324-.134-.4-1.084-.423-1.4-.025-.295-.037-.622-.049-.969-.005-.142-.011-.288-.017-.427s-.006-.261-.011-.4-.011-.271-.012-.427c-.009-.135-.015-.272-.017-.409l0-.242v-.275a8.288,8.288,0,0,1,.254-2.011l.016-.05a5.5,5.5,0,0,1,.3-.829l.037-.081c.05-.107.1-.208.15-.3.073-.124.147-.24.221-.349a3.268,3.268,0,0,1,.447-.51,2.131,2.131,0,0,1,.413-.275c.143-.056.336-.106.437-.019a.753.753,0,0,1,.168.47,2.834,2.834,0,0,1,.034.406v.03c.01.094.012.186.014.293,0,.071,0,.144.005.213l0,.247A.506.506,0,0,0,1331.115,1087.1Zm-2.1,9.312a4.194,4.194,0,0,1-.119.629c-.036.132-.08.266-.13.4a.443.443,0,0,0-.111-.106c-.359-.246-.844.042-1.271.357a14.71,14.71,0,0,0-1.5,1.348c-1.881,1.874-1.894,2.462-1.656,2.8a.563.563,0,0,0,.108.1c-.128.053-.255.1-.377.139-.859.282-1.375.2-1.491.013-.06-.1-.127-.434.561-1.356a14.02,14.02,0,0,1,.957-1.124c.333-.364.719-.763,1.214-1.254.959-.957,1.678-1.653,2.3-2.164a5.645,5.645,0,0,1,.456-.347,2.831,2.831,0,0,1,.385-.229.929.929,0,0,1,.354-.1.26.26,0,0,1,.111.022.5.5,0,0,1,.2.4A2.08,2.08,0,0,1,1329.012,1096.413Zm4.079-1.846c2.2-2.782,4.5-5.442,6.767-7.927h.009c-2.274,2.486-4.572,5.15-6.772,7.933q-3.351,4.239-5.955,8.272Q1329.734,1098.817,1333.091,1094.567Zm-6.074,8.466c-.072.112-.142.223-.212.334Zm160.49-12.09c.092-.012.182-.022.273-.032a3.2,3.2,0,0,1,1.948.177c-.029.15-.717.627-2.09.814a5.321,5.321,0,0,1-1.686-.007.328.328,0,1,1-.063-.536,6.206,6.206,0,0,1,1.354-.375Zm-2.68.8h0c.025.244.221.566,1.012.72a4.55,4.55,0,0,0,.9.081,7.271,7.271,0,0,0,.973-.069,3.961,3.961,0,0,0,2.459-1.005.609.609,0,0,0,.125-.476.543.543,0,0,0-.039-.126c.092.01.184.022.27.035.735.125,1.188.343,1.242.6.048.223-.222.623-.936,1.015a8.668,8.668,0,0,1-2.992.918,8.887,8.887,0,0,1-3.116-.08c-.845-.209-1.164-.508-1.181-.717s.244-.56,1.028-.917c.081-.037.167-.074.255-.11A.5.5,0,0,0,1484.827,1091.744Zm6.292,1.279c.81-.445,1.25-.978,1.237-1.486.147.354.582.739,1.74.841.141.014.292.022.456.022a9.383,9.383,0,0,0,1.1-.078,7.984,7.984,0,0,0,.893-.17l.049-.012a8.108,8.108,0,0,0,.871-.25,8.434,8.434,0,0,0,3-1.694,3.376,3.376,0,0,0,.733-.965,1.137,1.137,0,0,0,.079-.822,1.26,1.26,0,0,0,1.015.38,3.656,3.656,0,0,0,.953-.145,7.174,7.174,0,0,0,.731-.265c.234-.111.49-.248.766-.411a8.811,8.811,0,0,0,.8-.57,9.229,9.229,0,0,0,.768-.732l.092-.108a6.159,6.159,0,0,0,.565-.731c.094-.144.184-.286.276-.439s.153-.3.222-.441a5.118,5.118,0,0,0,.483-1.693c.089-.991-.191-1.725-.717-1.927a1.053,1.053,0,0,0,.763-.389,2.269,2.269,0,0,0,.343-.5,4.4,4.4,0,0,0,.256-.672,5.688,5.688,0,0,0,.14-.818l0-.037a5.39,5.39,0,0,0,0-.9l-.011-.111c-.011-.123-.022-.249-.051-.408l-.063-.3c-.023-.091-.052-.185-.082-.279l-.011-.037a4.021,4.021,0,0,0-.73-1.311,3.684,3.684,0,0,0-1.3-.984,3.77,3.77,0,0,0-1.356-.328,4.06,4.06,0,0,0-1.935.376,2.77,2.77,0,0,0-1.032.79,1.1,1.1,0,0,0-.249.8c-.256-.461-.95-.673-1.9-.57a8.285,8.285,0,0,0-3.238,1.185,9.536,9.536,0,0,0-2.166,1.755,10.881,10.881,0,0,1,5.625-6.365,7.221,7.221,0,0,1,7.294.65c3.357,2.324,4.208,6.54,2.169,10.74-2.713,5.587-9.9,10.151-20.535,10.151h-.026A7.958,7.958,0,0,0,1491.119,1093.023Zm5.172-12.762c-.039-.169.448-.914,1.57-1.588a4.085,4.085,0,0,1,1.9-.669.426.426,0,0,1,.223.042c0,.134-.355.684-1.592,1.438l-.029.018c-.074.045-.146.085-.219.128C1497.079,1080.229,1496.4,1080.333,1496.291,1080.261Zm3.687-2.224Zm1.1,9.717a.922.922,0,0,0,0,.1A.917.917,0,0,1,1501.081,1087.754Zm0-.065a2.825,2.825,0,0,1,.6-1.325,6.371,6.371,0,0,1,.425-.514c.119-.163.266-.353.429-.541s.341-.375.532-.559l.143-.173c.114-.135.228-.271.353-.4.345-.353.648-.692.928-1.007.322-.361.625-.7.928-.989a2.854,2.854,0,0,1,1.2-.862,3.193,3.193,0,0,0-1.2.876c-.4.407-.828.887-1.33,1.443l-.513.566c-.175.187-.355.38-.508.559-.136.137-.258.277-.376.413l-.128.147c-.158.17-.316.356-.458.54a6.559,6.559,0,0,0-.407.521A2.968,2.968,0,0,0,1501.085,1087.689Zm5.275-8.8a.272.272,0,0,1-.1-.064,1.942,1.942,0,0,1-.264-.348,2.562,2.562,0,0,1-.141-.256l-.019-.033c-.02-.03-.038-.061-.056-.091a1.622,1.622,0,0,0-.093-.148,3.35,3.35,0,0,0-.279-.38h0l0,0-.056-.066c-.052-.061-.1-.118-.165-.184a2.774,2.774,0,0,0-.365-.291l-.035-.025c-.12-.086-.342-.246-.355-.318.009-.037.13-.164.43-.218a1.327,1.327,0,0,1,.633.04,1.4,1.4,0,0,1,.655.442,1.705,1.705,0,0,1,.357.749,1.859,1.859,0,0,1,.043.335v.01c0,.124-.005.24-.016.353a1.033,1.033,0,0,1-.119.423A.238.238,0,0,1,1506.36,1078.89Zm.552,2.381Zm-2.1-3.483a1.143,1.143,0,0,1,.157.155l0,.005,0,0a1.664,1.664,0,0,1,.179.268l.052.1c.019.042.038.083.054.116s.036.089.055.14.042.113.066.168c.044.1.08.194.116.288s.081.212.123.3l.054.133c.058.145.112.283.18.42a4.229,4.229,0,0,0,.233.492,3.045,3.045,0,0,0,.257.425,1.483,1.483,0,0,0,.453.415,1.305,1.305,0,0,1-.477-.429,2.43,2.43,0,0,1-.181-.306l-.058-.108a4.325,4.325,0,0,1-.254-.5c-.046-.1-.085-.2-.126-.316-.027-.076-.054-.153-.087-.232a6.124,6.124,0,0,1-.259-.614,2.106,2.106,0,0,0-.393-.769l-.008-.01a.93.93,0,0,0-.194-.183C1504.774,1077.765,1504.8,1077.777,1504.809,1077.788Zm-.266-.152a1.211,1.211,0,0,1,.208.114,1.319,1.319,0,0,0-.218-.116c-.133-.054-.285-.106-.444-.154A3.334,3.334,0,0,1,1504.543,1077.636Zm-1.331-.382c.117.033.237.063.357.092l.092.023-.089-.021C1503.45,1077.319,1503.33,1077.287,1503.212,1077.254Zm3.505,4.037c-.021,0-.041.007-.062.013C1506.676,1081.3,1506.7,1081.294,1506.717,1081.291Zm-3.659,4.489.044-.066a4.739,4.739,0,0,1,.356-.489c.051-.056.1-.116.148-.178.037-.047.075-.095.123-.149s.095-.108.145-.161.085-.091.126-.139l.013-.013.037-.042c.109-.124.224-.24.336-.353.068-.068.133-.134.19-.194s.1-.1.155-.142c.037-.034.074-.066.111-.1a2.709,2.709,0,0,1,.217-.187,2.026,2.026,0,0,1,.381-.239.367.367,0,0,1,.106-.028.208.208,0,0,1,.03.092.992.992,0,0,1-.04.445,3.087,3.087,0,0,1-.106.327,2.6,2.6,0,0,1-.149.3l-.028.052a4.1,4.1,0,0,1-.532.729,3.106,3.106,0,0,1-.272.266l-.12.107a2.384,2.384,0,0,1-.278.219,3.419,3.419,0,0,1-.644.36.973.973,0,0,1-.555.1A.92.92,0,0,1,1503.058,1085.78Zm-.885.937c.045-.064.095-.13.145-.2a.539.539,0,0,0,.064.118h0a.638.638,0,0,0,.549.247,1.969,1.969,0,0,0,.678-.148,3.9,3.9,0,0,0,.757-.416,2.879,2.879,0,0,0,.343-.269l.129-.114a3.968,3.968,0,0,0,.321-.316,4.6,4.6,0,0,0,.606-.837l.025-.046a2.98,2.98,0,0,0,.182-.371c.051-.136.093-.266.123-.378a1.586,1.586,0,0,0,.053-.7.652.652,0,0,0-.335-.51.513.513,0,0,0-.115-.043c.046-.048.093-.1.138-.145.366-.373.775-.747,1.073-.747a.283.283,0,0,1,.066.007c.207.042.464.487.388,1.342a4.564,4.564,0,0,1-.43,1.5c-.065.136-.132.276-.2.4s-.167.271-.262.415a5.665,5.665,0,0,1-.516.667l-.085.1a8.739,8.739,0,0,1-.7.667,8.54,8.54,0,0,1-.729.523c-.257.151-.5.28-.7.378a6.44,6.44,0,0,1-.654.237c-.8.221-1.274.117-1.388-.084h0C1501.568,1087.782,1501.746,1087.3,1502.173,1086.717Zm5-5.972a.651.651,0,0,1-.369-.294,2.621,2.621,0,0,1-.211-.353,3.793,3.793,0,0,1-.208-.44l-.01-.021c-.027-.055-.052-.113-.078-.172.023,0,.047.006.067.006a.583.583,0,0,0,.061,0,.65.65,0,0,0,.495-.363,1.577,1.577,0,0,0,.193-.659,3.848,3.848,0,0,0,.018-.423l0-.028a2.374,2.374,0,0,0-.057-.431,2.291,2.291,0,0,0-.478-.989,2,2,0,0,0-.928-.622,1.92,1.92,0,0,0-.907-.057c-.561.1-.925.429-.906.806a.6.6,0,0,0,.016.122l-.066-.017-.1-.024c-.556-.133-1.136-.306-1.22-.585a.521.521,0,0,1,.131-.419,2.14,2.14,0,0,1,.814-.614,3.5,3.5,0,0,1,1.464-.326c.064,0,.128,0,.192.005a3.214,3.214,0,0,1,1.151.278,3.086,3.086,0,0,1,1.093.828,3.434,3.434,0,0,1,.622,1.118l.01.032c.026.083.052.166.07.235l.059.276c.022.125.032.233.042.347l.011.121a4.807,4.807,0,0,1,0,.805l0,.027a5.132,5.132,0,0,1-.121.709,3.858,3.858,0,0,1-.215.563,1.724,1.724,0,0,1-.255.368.485.485,0,0,1-.381.195Zm-4.053-3.517-.078-.023Zm-2.388.512c-.06.058-.124.118-.189.177a.54.54,0,0,0-.038-.121.606.606,0,0,0-.4-.32,3.777,3.777,0,0,0-2.548.7,3.906,3.906,0,0,0-1.833,1.913.607.607,0,0,0,.082.493.552.552,0,0,0,.093.1c-.881.289-1.462.287-1.642.054a.475.475,0,0,1-.046-.362,6.016,6.016,0,0,1,2.849-3.026,7.714,7.714,0,0,1,3-1.105,3.568,3.568,0,0,1,.4-.023c.573,0,.893.159.954.335h0C1501.464,1076.7,1501.441,1077.038,1500.732,1077.74Zm-6.929,3.352a.785.785,0,0,0,.086.095.79.79,0,0,1-.091-.1c-.012-.015-.023-.033-.035-.052C1493.776,1081.056,1493.79,1081.075,1493.8,1081.092Zm-.043-.061c-.008-.013-.016-.027-.023-.041C1493.744,1081,1493.752,1081.018,1493.76,1081.031Zm-.052-.1-.005-.01Zm1,8.084.178-.079c.372-.165.762-.33,1.18-.475l.2-.074h0l.006,0c.283-.093.565-.174.842-.242l.115-.035c.223-.067.438-.132.65-.182a7.711,7.711,0,0,1,1.429-.219,4.271,4.271,0,0,1,.51-.033,1.892,1.892,0,0,1,1.059.258,1.5,1.5,0,0,0-.439-.176,3.419,3.419,0,0,0-1.128-.044,13.2,13.2,0,0,0-3.036.7q-.157.058-.315.112c-.17.059-.338.118-.495.182-.173.066-.338.139-.5.211-.084.038-.167.075-.253.111a9.323,9.323,0,0,0-1.282.7,2.424,2.424,0,0,0-1.111,1.244,2.455,2.455,0,0,1,1.095-1.262A7.643,7.643,0,0,1,1494.71,1089.018Zm2.635-.3a4.152,4.152,0,0,1,.709-.114c.062,0,.117,0,.166,0a.97.97,0,0,1,.412.053c0,.034-.058.21-.364.45a4.523,4.523,0,0,1-.627.411,7.079,7.079,0,0,1-.865.365,5.487,5.487,0,0,1-.893.225,3.523,3.523,0,0,1-.748.063,1.047,1.047,0,0,1-.568-.122c.015-.05.11-.2.413-.394a5.956,5.956,0,0,1,.658-.362c.2-.1.431-.181.675-.27l.162-.059.021-.007A6.745,6.745,0,0,1,1497.345,1088.716Zm-3.36,1.35a.506.506,0,0,0,.018.128c.062.237.307.525,1.109.551.04,0,.081,0,.123,0a4.448,4.448,0,0,0,.75-.075,5.953,5.953,0,0,0,.987-.25,7.429,7.429,0,0,0,.941-.4,5.022,5.022,0,0,0,.715-.469c.481-.376.682-.8.538-1.127a.521.521,0,0,0-.067-.11c.091-.011.181-.02.267-.026a2.854,2.854,0,0,1,.943.031.575.575,0,0,1,.4.225.517.517,0,0,1-.04.442,2.849,2.849,0,0,1-.6.784,8.709,8.709,0,0,1-3.61,1.8l-.058.014a7.4,7.4,0,0,1-.812.155,6.528,6.528,0,0,1-1.431.054c-.869-.076-1.228-.326-1.274-.535s.162-.585.872-1.053C1493.822,1090.166,1493.9,1090.116,1493.985,1090.066Zm-1.689,1.185-.005-.017a.24.24,0,0,1,0-.026C1492.292,1091.222,1492.3,1091.236,1492.3,1091.251Zm0-.093a.974.974,0,0,1,.021-.158A.974.974,0,0,0,1492.294,1091.158Zm-.454-.427c.044.029.085.059.124.09A1.2,1.2,0,0,0,1491.84,1090.731Zm-31.731,21.818c1.012.452,2.049.877,3.113,1.264q.541.2,1.09.383a2.774,2.774,0,0,0-.753,1.7,7.027,7.027,0,0,0-.007,1.932,8.723,8.723,0,0,0,.6,2.267,7.962,7.962,0,0,0,2.573,3.408,5.8,5.8,0,0,0,.665.4,3.086,3.086,0,0,0,.6.208,1.629,1.629,0,0,0,.346.04.863.863,0,0,0,.591-.2l.052.071a1.073,1.073,0,0,0-.075.94,2.969,2.969,0,0,0,.263.575,3.535,3.535,0,0,0,.44.626,8.724,8.724,0,0,0,3.426,2.372c.184.075.367.146.564.219.184.058.366.11.551.161l.194.052a7.067,7.067,0,0,0,.866.192,10.434,10.434,0,0,0,1.435.128c.141,0,.279-.006.412-.018a3.769,3.769,0,0,0,1.334-.281.926.926,0,0,0,.286-1.657,4.755,4.755,0,0,0-1.041-.747l-.228-.119c-.366-.191-.782-.408-1.248-.6-.128-.051-.256-.109-.386-.169-.147-.067-.3-.136-.455-.2s-.3-.121-.441-.172-.292-.128-.443-.19l-.019-.008h0c-1.245-.505-2.363-.926-3.252-1.22-.092-.024-.179-.05-.263-.074-.126-.037-.246-.071-.361-.1a3.182,3.182,0,0,0-.576-.083,1.115,1.115,0,0,0-.927.293c-.013.015-.023.032-.036.048a.368.368,0,0,1,.05-.072,1,1,0,0,1,.791-.3,4.684,4.684,0,0,1,1.339.276,9.286,9.286,0,0,1,1.505.538c.172.067.366.136.566.207.239.086.483.177.729.276.151.057.3.121.458.194l.005,0,.868.356c.309.114.6.234.875.36.294.129.57.277.83.415.214.114.416.222.608.308.919.476,1.41.976,1.45,1.463l.122.013a.791.791,0,0,0-.064.218h0a1.03,1.03,0,0,0,.432.917,4.188,4.188,0,0,0,1.171.652,8.559,8.559,0,0,0,1.756.463,9.577,9.577,0,0,0,1.757.152c.164,0,.328,0,.492-.011a9.225,9.225,0,0,0,3.986-1.066,3.755,3.755,0,0,0,1.077-.864,1.028,1.028,0,0,0,.273-.925l.072-.032c.175.385.65.591,1.339.591a4.608,4.608,0,0,0,.855-.087,8.022,8.022,0,0,0,3.783-1.972,6.935,6.935,0,0,0,1.542-2.035,4.586,4.586,0,0,0,.488-2.269,2.855,2.855,0,0,0-.357-1.24l.418.314c.881.661,1.069,2.151.478,3.8-1.417,3.951-6.988,8.385-18.019,7.884-7.7-.35-13.367-2.68-16.843-6.925C1459.726,1120.574,1459.953,1114.287,1460.109,1112.549Zm9.1,10.4a2.95,2.95,0,0,0-.133-.545,5.493,5.493,0,0,0-.215-.629c-.167-.434-.38-.917-.6-1.428l-.093-.212a1.822,1.822,0,0,0,.086.186,9.093,9.093,0,0,1,.428.983c.061.158.119.309.18.45a3.3,3.3,0,0,1,.362,1.609A1.664,1.664,0,0,0,1469.213,1122.951Zm0,.486,0,.025Zm-4.376-8.866h.006c.355.013.775.936.912,1.237.047.107.1.22.146.337a.554.554,0,0,0-.146,0c-.215.036-.581.24-.609,1.2a5.418,5.418,0,0,0,.441,2.153,6.225,6.225,0,0,0,.572,1.08,4.552,4.552,0,0,0,.644.766,2.212,2.212,0,0,0,.628.437.9.9,0,0,0,.329.069.544.544,0,0,0,.323-.1.518.518,0,0,0,.107-.1c.048.117.094.231.136.342a4.9,4.9,0,0,1,.2.583,2.567,2.567,0,0,1,.113.456.6.6,0,0,1-.067.474c-.1.1-.322.069-.448.041a2.438,2.438,0,0,1-.475-.163,5.321,5.321,0,0,1-.583-.356,7.362,7.362,0,0,1-2.371-3.153,8.12,8.12,0,0,1-.566-2.118,6.462,6.462,0,0,1,0-1.772C1464.28,1115.015,1464.637,1114.571,1464.836,1114.571Zm2.33,4.713c.08.2.156.381.215.559l.008.02a5.523,5.523,0,0,1,.192.557c.024.079.047.155.069.218a2.094,2.094,0,0,1,.092.541.416.416,0,0,1,0,.091.41.41,0,0,1-.092-.026,1.791,1.791,0,0,1-.459-.333,4.113,4.113,0,0,1-.549-.657,5.612,5.612,0,0,1-.512-.97,4.823,4.823,0,0,1-.4-1.917,1.287,1.287,0,0,1,.13-.634,1.473,1.473,0,0,1,.39.512,16.839,16.839,0,0,1,.76,1.637l.013.031,0,0C1467.068,1119.043,1467.118,1119.165,1467.166,1119.284Zm.474-.382c.023.054.047.108.07.161s.048.107.072.158c.051.107.1.212.145.318s.107.253.157.386c.026.068.051.136.078.2C1467.99,1119.735,1467.815,1119.33,1467.64,1118.9Zm-.084-.2v0l0-.007c-.217-.519-.436-1.066-.672-1.675-.212-.539-.41-1.017-.589-1.424.2.449.413.971.641,1.55.193.489.4,1.011.625,1.544l.009.024h0c.019.061.041.118.064.175C1467.607,1118.82,1467.581,1118.76,1467.556,1118.7Zm6.974,7.112c.056.026.112.051.177.079.156.062.309.129.458.2.2.094.384.2.559.3l.2.113a1.384,1.384,0,0,1,.505.417,1.515,1.515,0,0,1-.645.094h-.025a3.986,3.986,0,0,1-.869-.118c-.168-.037-.344-.081-.515-.128s-.329-.117-.506-.188l-.027-.011c-.18-.073-.358-.152-.527-.231-.129-.063-.253-.14-.374-.215l-.075-.046a3.943,3.943,0,0,1-.7-.533,1.414,1.414,0,0,1-.391-.526,1.362,1.362,0,0,1,.635.053l.246.067c.186.049.38.1.584.173.079.026.158.057.238.088s.153.059.236.088c.164.056.33.118.5.186l0,0C1474.319,1125.714,1474.425,1125.762,1474.53,1125.809Zm-2.784.135a4.4,4.4,0,0,0,.811.619l.079.048a4.45,4.45,0,0,0,.428.245c.181.085.369.168.561.246l.029.012c.179.072.364.146.558.206s.376.1.558.138a4.8,4.8,0,0,0,.945.131h.077c.72,0,1.128-.177,1.215-.528a.551.551,0,0,0,.014-.146l.125.066.226.117a4.242,4.242,0,0,1,.906.649c.159.157.238.3.221.4s-.14.216-.35.315a3.332,3.332,0,0,1-1.135.226,7.655,7.655,0,0,1-1.718-.106,6.336,6.336,0,0,1-.8-.178l-.193-.051c-.174-.048-.351-.1-.513-.149-.176-.066-.354-.135-.534-.209a8.147,8.147,0,0,1-3.2-2.209,3.157,3.157,0,0,1-.379-.54,2.443,2.443,0,0,1-.213-.461.517.517,0,0,1,.013-.456h0a.488.488,0,0,1,.368-.1l.1,0a2.611,2.611,0,0,1,.474.07c.1.023.212.055.327.088.088.026.181.053.26.073.115.038.235.079.358.122a.5.5,0,0,0-.1.112C1470.968,1125.17,1471.558,1125.758,1471.746,1125.944Zm10.945,1.6a13.153,13.153,0,0,1,1.907-.2,12.281,12.281,0,0,1,1.89.021,1.662,1.662,0,0,1,.64.159,1.342,1.342,0,0,1-.553.369,6.045,6.045,0,0,1-3.9.186,1.545,1.545,0,0,1-.6-.3A1.494,1.494,0,0,1,1482.691,1127.54Zm-.2,1.083a5.945,5.945,0,0,0,1.83.268c.117,0,.234,0,.352-.009a6.249,6.249,0,0,0,2.139-.467c.654-.291.972-.651.9-1.014a.564.564,0,0,0-.052-.139c.133,0,.262.009.386.016a4.506,4.506,0,0,1,1.085.163c.22.074.359.169.393.266s-.025.255-.165.43a3.278,3.278,0,0,1-.912.722,8.634,8.634,0,0,1-3.723.989,9.416,9.416,0,0,1-2.117-.133,8.115,8.115,0,0,1-1.642-.429,3.708,3.708,0,0,1-1.008-.552c-.167-.148-.254-.294-.239-.4.018-.129.191-.247.336-.325a3.765,3.765,0,0,1,1.052-.347l.065-.011.339-.058a.5.5,0,0,0-.033.144h0C1481.448,1128.1,1481.791,1128.4,1482.492,1128.623Zm6.816-1.733a4.961,4.961,0,0,0-1.236-.191c-.977-.056-2.261-.005-3.5.058-.522.022-1.01.052-1.495.081l-.414.025a15.556,15.556,0,0,0-1.593.216l-.072.013a4.262,4.262,0,0,0-1.224.408,1.667,1.667,0,0,0-.337.232,1.612,1.612,0,0,1,.337-.238,4.347,4.347,0,0,1,1.222-.435,14.451,14.451,0,0,1,2.61-.26c.315-.014.637-.028.96-.047l.284-.013c.878-.038,1.68-.072,2.379-.072a4.5,4.5,0,0,1,2.558.469A1.579,1.579,0,0,0,1489.308,1126.89Zm.507.27c.017.015.034.03.049.046C1489.848,1127.191,1489.833,1127.175,1489.815,1127.16Zm.1.1.026.032Zm.081.111.013.022Zm.056.111.011.022v.005Zm.033-.2a.7.7,0,0,0,.011.079C1490.091,1127.333,1490.088,1127.307,1490.085,1127.28Zm.04.189.006.02h0Zm3.9-3.666c.184-.168.357-.328.517-.476.28-.26.522-.484.733-.662a1.989,1.989,0,0,1,.208-.163,1.193,1.193,0,0,1,.163-.1,1,1,0,0,1,.113-.046.22.22,0,0,1,.025.076.84.84,0,0,1,.013.2,2.357,2.357,0,0,1-.057.309,3.6,3.6,0,0,1-1.056,1.575,4.684,4.684,0,0,1-1.667,1.009,1.892,1.892,0,0,1-.554.1.467.467,0,0,1-.094-.014C1492.424,1125.279,1493.463,1124.323,1494.029,1123.8Zm-2.225,1.948a.559.559,0,0,0,.049.137l0,0a.65.65,0,0,0,.588.305h.042a2.5,2.5,0,0,0,.709-.123,5.269,5.269,0,0,0,1.886-1.134,4.19,4.19,0,0,0,1.226-1.858,3.313,3.313,0,0,0,.073-.4,1.419,1.419,0,0,0-.02-.353.618.618,0,0,0-.385-.518.53.53,0,0,0-.131-.032c.037-.054.074-.107.108-.161a6.251,6.251,0,0,0,.32-.559c.048-.093.094-.182.152-.284.138-.277.244-.367.308-.393a.152.152,0,0,1,.059-.011.577.577,0,0,1,.33.189,2.07,2.07,0,0,1,.463,1.246,4.055,4.055,0,0,1-.431,1.979,6.366,6.366,0,0,1-1.413,1.862,7.364,7.364,0,0,1-3.5,1.828c-1.019.192-1.5-.011-1.566-.183h0c-.048-.128,0-.466.854-1.284C1491.616,1125.923,1491.708,1125.838,1491.8,1125.751Zm4.659-5.882-.028.014.023-.014Zm-.1.062-.02.014Zm-.446.569c-.054.094-.1.19-.156.289a5.768,5.768,0,0,1-.29.511,8.344,8.344,0,0,1-.7.933,14.619,14.619,0,0,1-1.124,1.143c-.434.4-.875.779-1.3,1.143-.443.378-.86.735-1.207,1.068-.54.515-1.065,1.1-1.045,1.654-.039-.761.963-1.625,2.3-2.778.4-.342.818-.7,1.232-1.082l.014-.012.028-.026a10.457,10.457,0,0,0,1.8-2.047,5.376,5.376,0,0,0,.326-.572,4.127,4.127,0,0,1,.281-.49A2.149,2.149,0,0,0,1495.912,1120.5Zm.155-.268.021-.028Zm.086-.112.007-.008Zm.09-.095.009-.008Zm2.335.141-.878-.293h.011l.862.287a4.444,4.444,0,0,1,2.057,1.473A4.434,4.434,0,0,0,1498.578,1120.166Zm-4.688-49.788c2.438-4.6,7.107-7.161,12.962-7.161q.828,0,1.685.069a18.354,18.354,0,0,1,12.182,6,18.357,18.357,0,0,0-12.177-5.991c-6.64-.526-11.98,2.061-14.647,7.092-1.9,3.59-2.071,8.056-.383,10.166l.125.157h0l-.131-.163C1491.819,1078.434,1491.988,1073.968,1493.89,1070.378Zm-9.569,20.8a11.652,11.652,0,0,1,3.092-.822c.052-.007.106-.012.158-.018.129-.016.258-.031.387-.04.446-.042.893-.065,1.322-.065a5.106,5.106,0,0,1,2.545.492,3.476,3.476,0,0,0-1.2-.389,11.346,11.346,0,0,0-2.939.006q-.1.01-.2.024l-.056.006-.051.008-.219.034a10.754,10.754,0,0,0-2.826.785c-.935.425-1.406.94-1.363,1.489h0a.859.859,0,0,0,.06.252.824.824,0,0,1-.065-.26C1482.92,1092.129,1483.39,1091.61,1484.321,1091.174Zm-8.963.362a52.146,52.146,0,0,0,7.975,1.811l.007.006a52.127,52.127,0,0,1-7.977-1.811,21.6,21.6,0,0,1-9.475-6.011A21.588,21.588,0,0,0,1475.358,1091.536Zm-127-25.135a10.5,10.5,0,0,0,4.192-.773,6.875,6.875,0,0,0,3.56-3.343l.006,0a6.878,6.878,0,0,1-3.562,3.345c-2.8,1.209-8.2,1.6-17.972-3.418q-.247-.127-.493-.249c.163.081.324.159.489.243C1340.789,1065.4,1345.229,1066.4,1348.361,1066.4Zm-39.858,14.774c1.681-1.918,1.949-4.721.774-8.106a10.6,10.6,0,0,1,2.9-11.728,13.257,13.257,0,0,1,8.9-2.968,26.524,26.524,0,0,1,9.935,2.2c-10.95-4.447-16.739-1.044-18.834.776a10.6,10.6,0,0,0-2.9,11.729c1.175,3.386.907,6.189-.775,8.107a7.535,7.535,0,0,1-5.422,2.323A7.536,7.536,0,0,0,1308.5,1081.175Zm25.4-19.3q-.882-.435-1.725-.808Q1333.022,1061.436,1333.9,1061.872Zm-1.754-.821q-.57-.252-1.123-.477Q1331.579,1060.8,1332.15,1061.051Zm-31.781,22.226a11.154,11.154,0,0,0,2.267.237c.15,0,.3,0,.447-.01a11.1,11.1,0,0,1-2.71-.221,9.14,9.14,0,0,1-5.393-3.006A9.139,9.139,0,0,0,1300.369,1083.277Zm-3.042-15.738a.879.879,0,0,1,.646.256.882.882,0,0,0-.641-.251l0,.225a.755.755,0,0,0-.005-.083l0,0Zm-1.47-1.208-.041-.017-.064-.024.046.014Zm-1.812-.426-.029,0h.018Zm-5.106,1.162c-.125.078-.245.16-.36.244a3.53,3.53,0,0,1,.31-.216C1288.905,1067.085,1288.923,1067.076,1288.939,1067.067Zm-2.355,2.2c-.055-.006-.114-.01-.177-.011a2.355,2.355,0,0,0-.243.018c.08-.01.158-.019.232-.021S1286.525,1069.263,1286.584,1069.27Zm.138.024-.04-.007Zm-2.511.767c-.064.042-.129.085-.194.13C1284.082,1070.146,1284.147,1070.1,1284.211,1070.061Zm-2.152,1.994c.014-.017.028-.032.041-.049.074-.091.149-.179.225-.265-.087.1-.174.206-.256.312l0,0h0l-.014.019c-.074.1-.144.2-.215.3.069-.1.141-.207.217-.309Zm-1.542,3.142c-.031.13-.059.259-.08.386l-.005.037,0-.027C1280.456,1075.464,1280.484,1075.331,1280.517,1075.2Zm.093-.34-.036.128C1280.586,1074.942,1280.6,1074.9,1280.61,1074.857Zm-.195,1.957c-.007-.042-.016-.083-.02-.127C1280.4,1076.73,1280.407,1076.772,1280.415,1076.814Zm-.62,1.311c-.05.046-.1.1-.151.149C1279.694,1078.221,1279.744,1078.171,1279.8,1078.125Zm.15-.129-.018.013Zm-.629.685.068-.1C1279.362,1078.615,1279.339,1078.648,1279.316,1078.681Zm.182-.243.077-.09Zm-1.579,5.153c0,.087,0,.173.005.259,0-.06-.007-.118-.01-.179C1277.915,1083.644,1277.917,1083.618,1277.919,1083.591Zm.154,1.707c.027.147.059.29.094.431-.011-.041-.024-.079-.035-.12C1278.109,1085.506,1278.09,1085.4,1278.073,1085.3Zm2.061,9.345c.048.084.1.166.147.248-.049-.078-.1-.158-.144-.242Zm11.643,9.533.023-.017Zm.066-.056c.013-.013.026-.025.037-.038C1291.869,1104.095,1291.856,1104.107,1291.843,1104.12Zm.1-.11c-.01.014-.022.029-.034.044C1291.917,1104.039,1291.929,1104.024,1291.939,1104.01Zm20.336,2.056,0,.026,0-.008Zm.052.173-.008-.018Zm-.023-.061c-.008-.023-.014-.044-.02-.065C1312.29,1106.135,1312.3,1106.157,1312.3,1106.178Zm9.842,33.359c.131.189.264.377.4.564q.174.236.357.457-.186-.225-.361-.463C1322.407,1139.911,1322.275,1139.724,1322.146,1139.537Zm-1-1.591.081.14Zm.3.515c.057.094.116.188.175.282C1321.567,1138.649,1321.508,1138.555,1321.451,1138.461Zm.333.533q.145.223.3.445C1321.98,1139.291,1321.88,1139.143,1321.784,1138.994Zm17.81,9.888c.05.1.1.193.151.289a11.72,11.72,0,0,0,1.238,1.86,11.661,11.661,0,0,1-1.242-1.865C1339.69,1149.072,1339.643,1148.976,1339.594,1148.882Zm-.74-1.516c.035.078.071.155.106.232C1338.925,1147.521,1338.889,1147.444,1338.854,1147.366Zm.348.742c.056.113.111.227.168.34C1339.313,1148.335,1339.257,1148.222,1339.2,1148.108Zm22.677,8.336.119.168q.169.231.36.444c-.129-.144-.25-.294-.365-.45C1361.954,1156.553,1361.917,1156.5,1361.879,1156.444Zm-.491-.695c.03.042.058.085.087.127Zm26.148,4.477,0,0h0Zm-.6-.736.049.063Z"/>
      </g>
    </g>
  </g>
</svg>
