<svg xmlns="http://www.w3.org/2000/svg" width="694.375" height="718.672"><g id="orange2" transform="translate(-7452.354 -1887.708)"><g id="Group_1220" data-name="Group 1220"><g id="Group_1116" data-name="Group 1116"><g id="Group_1112" data-name="Group 1112"><path id="Path_2406" data-name="Path 2406" d="M7761.782 2605.381a287.223 287.223 0 01-66.934-7.978 281.642 281.642 0 01-145.181-86.723 68.74 68.74 0 01-17.933 3.943 73.336 73.336 0 01-6.346.276 68.678 68.678 0 01-44.191-15.765 65.837 65.837 0 01-22.845-42.762 69.928 69.928 0 0113.163-50.188 68.985 68.985 0 0114.627-14.6 280.985 280.985 0 01-6.317-32.582 48.774 48.774 0 01-14.8-11.251 45.466 45.466 0 016.754-66.945 49.106 49.106 0 019.5-5.637c1.126-6.735 2.5-13.5 4.1-20.115a288.907 288.907 0 0110.827-34.98 39.085 39.085 0 01-18.008-12.127 40.653 40.653 0 01-8.692-32.026 45.707 45.707 0 0115.161-27.636 44.7 44.7 0 0129.445-11.344c.478 0 .959.008 1.421.025a40.48 40.48 0 0123.19 8.243 285.088 285.088 0 01195.054-106.257v-1.211c0-2.582.106-5.308.315-8.112a118.25 118.25 0 00-4.246-1.985c-27.252 12.827-54.454 19.329-80.86 19.329-63.442 0-122.5-38.367-157.986-102.63a23.584 23.584 0 01-1.788-18.422 23.335 23.335 0 0112.106-13.959c23.159-11.24 63.95-23.252 108.976-23.252 31.5 0 58.5 5.921 80.264 17.6 29.174 15.644 48.424 40.316 57.248 73.355a171.81 171.81 0 0158.812-67.882l7.365-4.905.907-.248a10.745 10.745 0 012.928-.426c.162 0 .325 0 .486.013.171-.009.342-.014.512-.014a12.631 12.631 0 014.018.712 20.213 20.213 0 015.141 2.482 44.739 44.739 0 0112.412 12.8 48.761 48.761 0 017.386 16.535 22.558 22.558 0 01.571 6.271 4.95 4.95 0 01-.031.494 12.877 12.877 0 01-3.608 8.572 6.413 6.413 0 01-.834.781 9.161 9.161 0 01-1.892 1.2l-4.031 2.685c-28.092 18.726-47.711 51.214-47.711 79.006v1.412a284.534 284.534 0 01241.178 195.019 41.2 41.2 0 0117.68-5.957l.13-.012a42.13 42.13 0 013.546-.157c21.488 0 39.11 17.3 40.118 39.376a43.682 43.682 0 01-10.088 30.015 41.34 41.34 0 01-28.148 14.952 40.128 40.128 0 01-3.729.175 39.167 39.167 0 01-5.874-.451 287.344 287.344 0 01-22.81 121.068 36.09 36.09 0 0110.8 9.858 35.076 35.076 0 016.209 27.127 37.241 37.241 0 01-16.239 24.286 38.567 38.567 0 01-38.411 2.352 285.06 285.06 0 01-222.815 108.579z"/><path id="Path_2407" data-name="Path 2407" d="M7610.291 1889.708c28.161 0 56.374 4.913 79.791 17.481 29.729 15.943 49.032 41.3 57.444 75.421a171.915 171.915 0 0159.644-70l7.23-4.815.751-.206a9.792 9.792 0 012.661-.39c.163 0 .326.005.489.014.171-.01.342-.014.513-.014a11.6 11.6 0 013.7.659 19.07 19.07 0 014.918 2.374 43.781 43.781 0 0112.123 12.514 47.779 47.779 0 017.239 16.187 21.634 21.634 0 01.548 6.049c.005.008-.007.214-.025.417a11.914 11.914 0 01-3.31 7.946 5.82 5.82 0 01-.758.714 8.323 8.323 0 01-1.767 1.113l-4.089 2.725c-28.353 18.9-48.156 51.729-48.156 79.838v2.315a283.641 283.641 0 0138.258 6.5 280.742 280.742 0 01175 127.322 284.745 284.745 0 0128.366 61.833 39.972 39.972 0 0118.328-6.5l.062-.006h.062c1.147-.1 2.311-.153 3.458-.153 20.953 0 38.136 16.877 39.119 38.422a42.679 42.679 0 01-9.858 29.329 40.335 40.335 0 01-27.468 14.6c-1.209.113-2.433.17-3.64.17a38.21 38.21 0 01-6.915-.639 286.258 286.258 0 01-23.035 122.676 35.4 35.4 0 0111.256 10.025 34.072 34.072 0 016.036 26.364 36.241 36.241 0 01-15.805 23.627 37.728 37.728 0 01-20.783 6.217 37.215 37.215 0 01-17.357-4.3 284.044 284.044 0 01-222.535 108.845 286.2 286.2 0 01-66.7-7.949 280.842 280.842 0 01-145.122-86.928 67.534 67.534 0 01-18.309 4.124 72.557 72.557 0 01-6.262.272 67.673 67.673 0 01-43.547-15.531 64.824 64.824 0 01-22.495-42.117 68.928 68.928 0 0112.973-49.473 68.038 68.038 0 0114.961-14.788 279.345 279.345 0 01-6.534-33.652 48.037 48.037 0 01-14.975-11.254l-.025-.028-.025-.029a44.3 44.3 0 01-11.149-33.983 44.764 44.764 0 0117.812-31.445 48.133 48.133 0 019.79-5.738q1.7-10.31 4.174-20.575a287.046 287.046 0 0111.17-35.853 38.258 38.258 0 01-18.554-12.128 39.655 39.655 0 01-8.472-31.24 44.7 44.7 0 0114.832-27.031 43.7 43.7 0 0128.786-11.095c.465 0 .935.008 1.386.024a39.235 39.235 0 0123.39 8.647 282.924 282.924 0 0174.818-66.358 279.61 279.61 0 01121.071-40.392v-2.121c0-2.771.122-5.69.363-8.709-1.79-.892-3.579-1.73-5.309-2.488-27.258 12.893-54.451 19.428-80.846 19.428-63.072 0-121.806-38.173-157.111-102.113a22.436 22.436 0 019.877-31c25.811-12.528 67.123-23.154 108.542-23.153m0-2c-45.193 0-86.153 12.063-109.415 23.354a24.433 24.433 0 00-10.76 33.752c35.667 64.6 95.055 103.156 158.867 103.156 26.42 0 53.625-6.469 80.871-19.229 1.048.469 2.115.967 3.189 1.488a110.158 110.158 0 00-.268 7.51v.3a281.681 281.681 0 00-120.115 40.5 284.549 284.549 0 00-74.118 65.279 41.543 41.543 0 00-22.98-7.861 43.153 43.153 0 00-1.452-.025 45.7 45.7 0 00-30.115 11.602 46.709 46.709 0 00-15.49 28.245 41.652 41.652 0 008.915 32.808 40 40 0 0017.473 12.1 290.223 290.223 0 00-10.5 34.131 292.093 292.093 0 00-4.025 19.661 50.012 50.012 0 00-9.2 5.529 46.736 46.736 0 00-18.592 32.84 46.27 46.27 0 0011.64 35.5l.009.011.034.039a49.751 49.751 0 0014.639 11.255 282.279 282.279 0 006.1 31.522 70.046 70.046 0 00-14.3 14.411 70.92 70.92 0 00-13.349 50.9 66.818 66.818 0 0023.194 43.408 69.677 69.677 0 0044.833 16c2.132 0 4.3-.094 6.435-.28a69.773 69.773 0 0017.548-3.769 282.63 282.63 0 00145.242 86.525 288.23 288.23 0 0067.17 8 286.058 286.058 0 00223.1-108.327 39.572 39.572 0 0038.674-2.768 38.25 38.25 0 0016.674-24.942 36.064 36.064 0 00-6.387-27.9 36.981 36.981 0 00-10.349-9.67 288.374 288.374 0 0022.586-119.514 39.749 39.749 0 004.84.3c1.268 0 2.555-.06 3.826-.179a42.32 42.32 0 0028.819-15.307 44.666 44.666 0 0010.318-30.7c-1.031-22.616-19.092-40.331-41.116-40.331-1.205 0-2.427.054-3.634.161h-.059l-.079.007a42.222 42.222 0 00-17.024 5.453 287.439 287.439 0 00-27.774-59.837 282.706 282.706 0 00-176.238-128.222 285.662 285.662 0 00-36.725-6.36v-.512c0-27.477 19.436-59.624 47.265-78.174l3.974-2.648a10.118 10.118 0 002.054-1.318 7.742 7.742 0 00.925-.868 13.888 13.888 0 003.856-9.179 5.88 5.88 0 00.032-.516 23.645 23.645 0 00-.6-6.534 49.759 49.759 0 00-7.535-16.872 45.747 45.747 0 00-12.708-13.083 20.941 20.941 0 00-5.4-2.595 13.605 13.605 0 00-4.293-.749c-.171 0-.342 0-.512.011s-.326-.011-.49-.011a11.744 11.744 0 00-3.2.464l-.742.2-.31.085-.268.178-7.23 4.815a172.92 172.92 0 00-58 65.907c-9.195-32.038-28.362-56.053-57.036-71.43-21.9-11.756-49.069-17.718-80.736-17.718z" fill="#fff"/></g><g id="Group_1115" data-name="Group 1115"><path id="Path_2412" data-name="Path 2412" d="M8100.286 2424.259c-18.054 0-34.06-9.651-41.772-25.187a43.057 43.057 0 016.943-48.534 47.066 47.066 0 0169.4 1.088 43.3 43.3 0 01.394 56.927 45.767 45.767 0 01-34.965 15.706z"/><path id="Path_2413" data-name="Path 2413" d="M8099.616 2336.807a45.6 45.6 0 0134.486 15.476 42.308 42.308 0 01.388 55.619 44.77 44.77 0 01-34.2 15.357c-17.672 0-33.33-9.429-40.876-24.632a42.062 42.062 0 016.784-47.412 45.367 45.367 0 0133.422-14.408m0-2a47.37 47.37 0 00-34.9 15.055 44.05 44.05 0 00-7.1 49.652c7.883 15.881 24.232 25.745 42.669 25.745a46.767 46.767 0 0035.724-16.057 44.289 44.289 0 00-.4-58.231 47.622 47.622 0 00-36-16.164z" fill="#fff"/></g></g><g id="Group_1219" data-name="Group 1219"><g id="Group_1122" data-name="Group 1122"><g id="Group_1119" data-name="Group 1119"><g id="Group_1118" data-name="Group 1118"><path id="Path_2414" data-name="Path 2414" d="M8050.921 2295.561c-12.306 0-22.411-10.14-23-23.084-.631-13.817 9.593-26.081 22.79-27.341a23.222 23.222 0 012.062-.092c12.38 0 22.542 10.169 23.135 23.151.633 13.858-9.6 26.088-22.812 27.263-.713.067-1.448.1-2.17.1z" fill="#a40900"/><g id="Group_1117" data-name="Group 1117"><path id="Path_2415" data-name="Path 2415" d="M8052.768 2247.044c11.278 0 20.583 9.1 21.137 21.242.585 12.811-8.8 24.1-20.991 25.18q-1.006.1-1.993.095c-11.216 0-20.452-9.075-21.007-21.176-.585-12.811 8.8-24.1 20.983-25.258q.943-.084 1.871-.083m0-4c-.737 0-1.485.033-2.224.1-14.27 1.361-25.305 14.56-24.626 29.425a26.735 26.735 0 007.673 17.771 24.368 24.368 0 0017.33 7.222c.785 0 1.583-.038 2.371-.113 14.239-1.266 25.289-14.431 24.609-29.344-.641-14.052-11.681-25.06-25.133-25.06z"/></g></g></g><g id="Group_1120" data-name="Group 1120" style="mix-blend-mode:multiply;isolation:isolate"><path id="Path_2416" data-name="Path 2416" d="M8044.636 2264.915a24.815 24.815 0 016.431-17.794c-.057 0-.113 0-.17.006-12.18 1.162-21.568 12.447-20.983 25.259s10.9 22.23 23 21.08a22.426 22.426 0 0014.623-7.466c-12.053 1.087-22.314-8.31-22.901-21.085z" fill="#a40900"/></g><g id="Group_1121" data-name="Group 1121" opacity=".58" style="mix-blend-mode:screen;isolation:isolate"><ellipse id="Ellipse_33" data-name="Ellipse 33" cx="3.539" cy="6.497" rx="3.539" ry="6.497" transform="matrix(.963 -.271 .271 .963 8058.62 2257.794)" fill="#ff4200"/></g></g><g id="Group_1126" data-name="Group 1126"><g id="Group_1123" data-name="Group 1123"><path id="Path_2417" data-name="Path 2417" d="M7508.929 2205.082c-.287 0-.576-.005-.863-.015a22.48 22.48 0 01-16.809-8 23.334 23.334 0 01-4.933-18.678c1.983-13.7 14.188-24.446 27.785-24.446.285 0 .573.005.859.015a22.55 22.55 0 0116.818 7.989 23.311 23.311 0 015.007 18.581c-2.058 13.775-14.3 24.558-27.863 24.558z" fill="#ac1aff"/><path id="Path_2418" data-name="Path 2418" d="M7514.11 2155.939c.262 0 .527.005.79.014 12.886.426 21.788 11.325 19.914 24.286-1.912 12.791-13.393 22.843-25.885 22.843-.264 0-.53-.005-.8-.014-12.886-.427-21.787-11.325-19.833-24.387 1.837-12.691 13.319-22.742 25.809-22.742m0-4c-14.569 0-27.644 11.5-29.768 26.169a25.3 25.3 0 005.379 20.236 24.457 24.457 0 0018.281 8.722c.306.01.618.016.927.016 14.533 0 27.641-11.532 29.841-26.252a25.3 25.3 0 00-5.45-20.17 24.527 24.527 0 00-18.288-8.7c-.3-.01-.615-.016-.922-.016z"/></g><g id="Group_1124" data-name="Group 1124" style="mix-blend-mode:multiply;isolation:isolate"><path id="Path_2419" data-name="Path 2419" d="M7498.662 2177.923a27.206 27.206 0 0118.94-21.705 22.82 22.82 0 00-2.7-.265c-12.791-.435-24.723 9.771-26.6 22.728-1.954 13.063 6.947 23.961 19.833 24.388a23.955 23.955 0 007.661-1.023c-11.396-1.746-18.948-11.996-17.134-24.123z" fill="#ff09c6"/></g><g id="Group_1125" data-name="Group 1125" opacity=".58" style="mix-blend-mode:screen;isolation:isolate"><ellipse id="Ellipse_34" data-name="Ellipse 34" cx="6.497" cy="3.539" rx="6.497" ry="3.539" transform="rotate(-22.639 9152.317 -17656.511)" fill="#ff4200"/></g></g><g id="Group_1127" data-name="Group 1127"><path id="Path_2421" data-name="Path 2421" d="M8002.492 2173.877a280.742 280.742 0 00-175-127.322 283.641 283.641 0 00-38.258-6.5v-2.315c0-28.109 19.8-60.939 48.156-79.838l4.089-2.725a8.351 8.351 0 001.768-1.113 5.875 5.875 0 00.757-.714 11.914 11.914 0 003.31-7.946c.018-.2.03-.409.025-.417a21.6 21.6 0 00-.548-6.049 47.76 47.76 0 00-7.239-16.187 43.768 43.768 0 00-12.123-12.514 19.055 19.055 0 00-4.918-2.374 11.2 11.2 0 00-4.211-.645 9.5 9.5 0 00-3.15.376l-.751.206-7.23 4.815a171.915 171.915 0 00-59.644 70c-8.412-34.122-27.715-59.478-57.444-75.421-57.858-31.053-144.973-15.373-188.333 5.672a22.436 22.436 0 00-9.877 31c35.3 63.939 94.039 102.112 157.111 102.112 26.4 0 53.588-6.535 80.846-19.427 1.73.757 3.519 1.595 5.309 2.487a109.882 109.882 0 00-.363 8.709v2.121a282.84 282.84 0 00-39.694 556.571 286.2 286.2 0 0066.7 7.949 282.869 282.869 0 00240.709-430.5z"/></g><path id="Path_2422" data-name="Path 2422" d="M8025.156 2321.481c0 2.04-.025 4.068-.074 6.1a137.64 137.64 0 01-.1 3.421 262.561 262.561 0 01-33.511 119.578q-4.38 7.79-9.273 15.247-7 10.7-14.99 20.671a266.74 266.74 0 01-17.9 20.121 264.075 264.075 0 01-417.194-54.23v-.013a262.386 262.386 0 01-33.963-110.855q-.734-9.915-.745-20.036a264.2 264.2 0 016.45-58.225q2.273-10.1 5.3-19.877 1.559-5.058 3.324-10.018a262.57 262.57 0 0125.667-52.8q2.162-3.428 4.435-6.781a264.18 264.18 0 0120.133-26.083v-.012q2.272-2.6 4.606-5.131 7.9-8.558 16.517-16.383a266.164 266.164 0 0135.588-27.244q9.364-5.973 19.241-11.166h.013q5.569-2.931 11.3-5.595 3.354-1.577 6.756-3.042a277.819 277.819 0 017.11-2.944 260.191 260.191 0 0135.49-11.252q10.39-2.511 21.111-4.178a266.055 266.055 0 0140.829-3.14 263.1 263.1 0 0185.567 14.2l.073.037a263.67 263.67 0 0199.3 61.414q8.722 8.557 16.627 17.91a198.353 198.353 0 013.7 4.5q4.8 5.937 9.26 12.155a262.7 262.7 0 0149.353 153.651z" fill="#ffd101"/><path id="Path_2423" data-name="Path 2423" d="M7986.368 2183.766q1.6 2.61 3.119 5.238c.578.992 1.151 1.974 1.7 2.969a262.558 262.558 0 0133.823 119.49q.33 8.93.048 17.845a265.048 265.048 0 01-2 25.456 266.89 266.89 0 01-4.766 26.5 264.072 264.072 0 01-384.171 171.476l-.006-.011a262.394 262.394 0 01-86.827-76.835q-5.8-8.075-11.092-16.7a264.208 264.208 0 01-24.886-53.034q-3.332-9.8-5.851-19.722-1.311-5.127-2.394-10.28a262.561 262.561 0 01-5.662-58.435q.055-4.052.244-8.1a264.143 264.143 0 013.561-32.757l-.007-.01a265.735 265.735 0 0122.928-71.188q4.871-9.984 10.586-19.567l.01-.007q3.222-5.408 6.719-10.67c-15.145 64.478-21.563 129.575-3.577 195.652 17.12 62.883 56.026 121.016 112 154.4 43.768 26.1 98.157 35.616 147.87 23.446 54.6-13.357 112.72-46.552 145.428-92.86 32.048-45.374 49.315-101.282 47.241-156.872-2.413-64.735-30.955-127.49-77.05-172.818-21.375-21.008-36.453-39.425-63.521-53.47q7.194 2.559 14.243 5.536a262.694 262.694 0 01122.29 105.328z" fill="#ff7b0f" opacity=".4" style="mix-blend-mode:multiply;isolation:isolate"/><g id="Group_1128" data-name="Group 1128"><path id="Path_2424" data-name="Path 2424" d="M8025.022 2311.447a262.672 262.672 0 00-33.83-119.46c-.544-1.025-1.121-1.986-1.7-2.979a450.89 450.89 0 00-3.107-5.254 262.678 262.678 0 00-122.311-105.3 256.22 256.22 0 00-14.223-5.542c-1.827-.673-3.653-1.282-5.511-1.922q-11.628-3.8-23.546-6.6a263.868 263.868 0 00-116.736-.544h-.1a265.549 265.549 0 00-113.566 56.542q-8.265 7.016-15.826 14.576a259.457 259.457 0 00-24.41 28.127c-1.538 2.051-3.076 4.133-4.517 6.215-1.442 2.018-2.819 4.069-4.2 6.119q-3.508 5.286-6.728 10.668a262.216 262.216 0 00-10.571 19.573 267.149 267.149 0 00-16.14 41.807q-3.267 11.2-5.542 22.617a228.472 228.472 0 00-1.249 6.759v.032a266.164 266.164 0 00-3.556 32.74c-.129 2.691-.192 5.414-.256 8.1a263.008 263.008 0 005.67 58.432q1.106 5.142 2.4 10.284c1.665 6.6 3.619 13.2 5.862 19.734a263.585 263.585 0 0024.859 53.018 264.391 264.391 0 0011.117 16.691 263.958 263.958 0 00475.756-121.126 270.016 270.016 0 001.987-25.468c.198-5.922.198-11.88-.026-17.839zm-125.707-148.964c-14.063 57.92-160.562 88.578-240.329 46.2-26.782-14.224-38.346-33.766-37.385-53.724 1.7-34.277 39.852-65.7 102.673-75.09 33.8-5.094 70.606-3.3 103.6 3.427 56.48 11.528 79.161 47.44 71.441 79.187z" fill="#ff7b0f" opacity=".25" style="mix-blend-mode:multiply;isolation:isolate"/></g><path id="Path_2425" data-name="Path 2425" d="M7827.171 2109.72c-6.674-14.023-39.447-23.309-72.394-21.687-35.262 1.736-61.268 9.382-61.029 25.839.14 9.693 12.524 19.5 31.946 25.312 56.471 16.885 113.449-4.31 101.477-29.464z" fill="#fff" opacity=".15"/><g id="Group_1135" data-name="Group 1135"><path id="Path_2426" data-name="Path 2426" d="M7781.891 2482.525c-1.43 2.6-.651 5.989 1.174 8.333s4.509 3.844 7.182 5.138c4.724 2.288 10.661 4.039 14.945 1.006 4.177-2.956 4.493-9.59 1.443-13.7-4.505-6.07-20.457-8.587-24.744-.777z" fill="#ffc101"/><path id="Path_2427" data-name="Path 2427" d="M7853.173 2476.045c-1.27.967-2.27 2.76-2.584 5.606a5.663 5.663 0 002.385 5.557 5.14 5.14 0 006.264-1.451c5.59-6.818-1.777-12.98-6.065-9.712z" fill="#ffc101"/><path id="Path_2428" data-name="Path 2428" d="M7787.629 2484.581c-1.43 2.6-.651 5.989 1.174 8.332s4.508 3.844 7.182 5.139c4.724 2.288 10.661 4.039 14.945 1.006 4.177-2.956 4.493-9.591 1.443-13.7-4.505-6.07-20.457-8.587-24.744-.777z" fill="#ff4200"/><path id="Path_2429" data-name="Path 2429" d="M7858.91 2478.1c-1.269.967-2.269 2.761-2.583 5.607a5.662 5.662 0 002.385 5.557 5.139 5.139 0 006.263-1.451c5.591-6.813-1.775-12.98-6.065-9.713z" fill="#ff4200"/><g id="Group_1129" data-name="Group 1129"><path id="Path_2430" data-name="Path 2430" d="M7703.444 2544.057c1.956 1.724 4.52 3.328 7.019 2.585a5.693 5.693 0 003.654-4.714 13.276 13.276 0 00-.9-6.171c-1.472-4.33-3.9-8.667-7.974-10.736-3.546-1.8-11.18-1.041-11.952 3.926-.714 4.626 7.093 12.412 10.153 15.11z" fill="#ffc101"/><path id="Path_2431" data-name="Path 2431" d="M7709.182 2546.113c1.956 1.724 4.52 3.328 7.019 2.585a5.693 5.693 0 003.654-4.714 13.273 13.273 0 00-.9-6.171c-1.472-4.33-3.9-8.667-7.974-10.736-3.546-1.8-11.18-1.041-11.952 3.926-.714 4.625 7.093 12.412 10.153 15.11z" fill="#ff4200"/><path id="Path_2432" data-name="Path 2432" d="M7706.708 2544.734c1.956 1.724 4.52 3.328 7.019 2.584a5.691 5.691 0 003.654-4.713 13.278 13.278 0 00-.9-6.171c-1.473-4.33-3.9-8.667-7.975-10.736-3.546-1.8-11.18-1.041-11.951 3.925-.714 4.626 7.093 12.413 10.153 15.111z" fill="#ff970f"/></g><g id="Group_1130" data-name="Group 1130"><path id="Path_2433" data-name="Path 2433" d="M7815.849 2531.206c-3.969.948-8.346 3.053-10.08 4.611-2.768 2.487-4.167 6.924-2.093 10.013a7.552 7.552 0 006.533 2.979 15.863 15.863 0 007.061-2.3c4.352-2.42 12.5-11.752 4.678-15.368-1.427-.66-3.688-.511-6.099.065z" fill="#ffc101"/><path id="Path_2434" data-name="Path 2434" d="M7821.587 2533.262c-3.969.948-8.346 3.053-10.08 4.611-2.768 2.487-4.167 6.924-2.093 10.013a7.551 7.551 0 006.533 2.979 15.858 15.858 0 007.061-2.3c4.352-2.42 12.5-11.753 4.677-15.368-1.426-.661-3.685-.511-6.098.065z" fill="#ff4200"/><path id="Path_2435" data-name="Path 2435" d="M7819.113 2531.882c-3.969.949-8.346 3.054-10.08 4.612-2.768 2.487-4.167 6.924-2.093 10.013a7.552 7.552 0 006.533 2.979 15.863 15.863 0 007.061-2.3c4.352-2.42 12.5-11.753 4.678-15.368-1.427-.661-3.688-.511-6.099.064z" fill="#ff970f"/></g><g id="Group_1131" data-name="Group 1131"><path id="Path_2436" data-name="Path 2436" d="M7817.218 2413.83c-3.709.53-7.379 3.352-7.546 7.094-.133 2.985 1.9 5.619 4.089 7.654a34.611 34.611 0 0011.683 7.156c3.389 1.236 7.313 1.893 10.5.2 4.3-2.287 5.547-8.372 3.447-12.764-3.391-7.094-14.821-10.39-22.173-9.34z" fill="#ffc101"/><path id="Path_2437" data-name="Path 2437" d="M7822.956 2415.886c-3.709.53-7.379 3.352-7.546 7.094-.133 2.985 1.9 5.619 4.089 7.654a34.613 34.613 0 0011.683 7.156c3.389 1.236 7.313 1.893 10.5.2 4.3-2.286 5.547-8.371 3.447-12.763-3.394-7.095-14.821-10.391-22.173-9.341z" fill="#ff4200"/><path id="Path_2438" data-name="Path 2438" d="M7820.482 2414.507c-3.709.53-7.379 3.351-7.546 7.094-.133 2.985 1.9 5.618 4.089 7.654a34.634 34.634 0 0011.683 7.156c3.389 1.236 7.313 1.893 10.5.2 4.3-2.286 5.547-8.371 3.447-12.763-3.394-7.095-14.821-10.391-22.173-9.341z" fill="#ff970f"/></g><path id="Path_2439" data-name="Path 2439" d="M7785.155 2483.2c-1.43 2.6-.651 5.989 1.174 8.332s4.509 3.844 7.182 5.139c4.724 2.288 10.661 4.038 14.945 1.006 4.177-2.956 4.493-9.591 1.443-13.7-4.505-6.068-20.457-8.585-24.744-.777z" fill="#ff970f"/><g id="Group_1132" data-name="Group 1132"><path id="Path_2440" data-name="Path 2440" d="M7756.248 2400.718c6.663 2.575 11.442 9.655 2.588 15.538a11.485 11.485 0 01-11.192 1.055 9.884 9.884 0 01-5.174-10.405c1.402-7.355 8.241-8.327 13.778-6.188z" fill="#ffc101"/><path id="Path_2441" data-name="Path 2441" d="M7761.986 2402.774c6.663 2.575 11.442 9.655 2.588 15.537a11.487 11.487 0 01-11.192 1.056 9.884 9.884 0 01-5.174-10.405c1.402-7.355 8.241-8.327 13.778-6.188z" fill="#ff4200"/><path id="Path_2442" data-name="Path 2442" d="M7759.512 2401.4c6.664 2.575 11.442 9.655 2.588 15.537a11.485 11.485 0 01-11.192 1.056 9.885 9.885 0 01-5.174-10.405c1.402-7.36 8.241-8.332 13.778-6.188z" fill="#ff970f"/></g><path id="Path_2443" data-name="Path 2443" d="M7856.437 2476.721c-1.27.967-2.27 2.76-2.584 5.607a5.664 5.664 0 002.385 5.557 5.141 5.141 0 006.264-1.451c5.59-6.819-1.777-12.98-6.065-9.713z" fill="#ff970f"/><g id="Group_1133" data-name="Group 1133"><path id="Path_2444" data-name="Path 2444" d="M7751.805 2549.438c.09 3.988 6.779 7.871 10.948 7.023 2.615-.532 5.27-2.551 5.19-5.218a5.312 5.312 0 00-3.133-4.306c-1.908-.957-8.2-2.8-10.242-1.551-2.007 1.228-2.795 2.647-2.763 4.052z" fill="#ffc101"/><path id="Path_2445" data-name="Path 2445" d="M7757.543 2551.494c.09 3.987 6.779 7.871 10.948 7.023 2.615-.532 5.27-2.551 5.19-5.218a5.313 5.313 0 00-3.133-4.306c-1.908-.957-8.2-2.8-10.242-1.552-2.006 1.229-2.795 2.647-2.763 4.053z" fill="#ff4200"/><path id="Path_2446" data-name="Path 2446" d="M7755.069 2550.115c.091 3.987 6.779 7.871 10.948 7.023 2.615-.532 5.27-2.551 5.19-5.218a5.312 5.312 0 00-3.133-4.306c-1.908-.957-8.2-2.8-10.242-1.552-2.007 1.229-2.795 2.647-2.763 4.053z" fill="#ff970f"/></g><g id="Group_1134" data-name="Group 1134"><path id="Path_2447" data-name="Path 2447" d="M7714.828 2476.433c-2.279 3.686-2.2 8.745 2.717 11.707a8.756 8.756 0 009.284-14.846c-4.7-3.046-9.629-.694-12.001 3.139z" fill="#ffc101"/><path id="Path_2448" data-name="Path 2448" d="M7720.566 2478.489c-2.279 3.686-2.2 8.745 2.716 11.707a8.756 8.756 0 009.284-14.846c-4.699-3.05-9.628-.697-12 3.139z" fill="#ff4200"/><path id="Path_2449" data-name="Path 2449" d="M7718.092 2477.11c-2.279 3.686-2.2 8.745 2.717 11.707a8.756 8.756 0 009.284-14.846c-4.7-3.047-9.629-.697-12.001 3.139z" fill="#ff970f"/></g></g><g id="Group_1138" data-name="Group 1138"><g id="Group_1136" data-name="Group 1136"><path id="Path_2450" data-name="Path 2450" d="M7677.84 2322.639c.738 2.5 2.056 5.222 4.567 5.922a5.69 5.69 0 005.6-2.046 13.274 13.274 0 002.525-5.7c1.057-4.449 1.312-9.411-1.04-13.333-2.046-3.41-8.912-6.83-12.208-3.035-3.068 3.532-.6 14.279.556 18.192z" fill="#ffc101"/><path id="Path_2451" data-name="Path 2451" d="M7681.6 2327.433c.739 2.5 2.056 5.222 4.568 5.922a5.7 5.7 0 005.6-2.046 13.28 13.28 0 002.524-5.7c1.058-4.45 1.313-9.411-1.04-13.333-2.045-3.41-8.911-6.83-12.207-3.035-3.064 3.532-.597 14.278.555 18.192z" fill="#ff4200"/><path id="Path_2452" data-name="Path 2452" d="M7680.243 2324.949c.739 2.5 2.056 5.222 4.568 5.922a5.694 5.694 0 005.6-2.046 13.3 13.3 0 002.525-5.7c1.057-4.45 1.312-9.411-1.041-13.333-2.045-3.41-8.911-6.83-12.207-3.035-3.068 3.532-.601 14.278.555 18.192z" fill="#ff970f"/></g><g id="Group_1137" data-name="Group 1137"><path id="Path_2453" data-name="Path 2453" d="M7715.924 2352.926c-2.045 3.424 1.552 10.271 5.533 11.771 2.5.941 5.819.644 7.171-1.657a5.318 5.318 0 00-.362-5.313c-1.107-1.825-5.457-6.733-7.846-6.762-2.354-.028-3.775.754-4.496 1.961z" fill="#ffc101"/><path id="Path_2454" data-name="Path 2454" d="M7719.688 2357.719c-2.045 3.425 1.553 10.272 5.534 11.772 2.5.941 5.819.644 7.17-1.657a5.312 5.312 0 00-.362-5.313c-1.106-1.825-5.456-6.733-7.846-6.763-2.353-.028-3.775.754-4.496 1.961z" fill="#ff4200"/><path id="Path_2455" data-name="Path 2455" d="M7718.327 2355.235c-2.044 3.425 1.553 10.272 5.534 11.772 2.5.941 5.819.644 7.17-1.657a5.311 5.311 0 00-.362-5.313c-1.106-1.825-5.456-6.733-7.846-6.763-2.353-.028-3.775.754-4.496 1.961z" fill="#ff970f"/></g></g><g id="Group_1145" data-name="Group 1145"><path id="Path_2456" data-name="Path 2456" d="M7618.627 2434.184c-2.9.663-4.907 3.495-5.444 6.417s.127 5.923.938 8.781c1.432 5.05 4.071 10.648 9.185 11.832 4.985 1.154 10.151-3.021 11.192-8.031 1.539-7.401-7.187-20.99-15.871-18.999z" fill="#ffc101"/><path id="Path_2457" data-name="Path 2457" d="M7670.862 2483.118c-1.566-.3-3.571.14-5.906 1.8a5.662 5.662 0 00-2.565 5.476 5.142 5.142 0 005.249 3.714c8.81-.36 8.514-9.959 3.222-10.99z" fill="#ffc101"/><path id="Path_2458" data-name="Path 2458" d="M7620.906 2439.836c-2.895.664-4.906 3.5-5.443 6.417s.126 5.924.937 8.782c1.432 5.049 4.072 10.648 9.185 11.832 4.986 1.154 10.152-3.021 11.193-8.032 1.538-7.401-7.187-20.989-15.872-18.999z" fill="#ff4200"/><path id="Path_2459" data-name="Path 2459" d="M7673.141 2488.77c-1.566-.3-3.57.141-5.905 1.8a5.662 5.662 0 00-2.565 5.475 5.139 5.139 0 005.248 3.714c8.81-.359 8.515-9.959 3.222-10.989z" fill="#ff4200"/><g id="Group_1139" data-name="Group 1139"><path id="Path_2460" data-name="Path 2460" d="M7528.294 2377.963c.012 2.607.519 5.588 2.736 6.961a5.693 5.693 0 005.95-.405 13.277 13.277 0 004.014-4.772c2.255-3.979 3.883-8.673 2.717-13.095-1.015-3.844-6.656-9.043-10.879-6.317-3.932 2.539-4.558 13.547-4.538 17.628z" fill="#ffc101"/><path id="Path_2461" data-name="Path 2461" d="M7530.573 2383.616c.013 2.607.52 5.588 2.736 6.96a5.694 5.694 0 005.951-.4 13.28 13.28 0 004.013-4.772c2.256-3.979 3.883-8.673 2.717-13.095-1.014-3.845-6.655-9.043-10.878-6.317-3.933 2.535-4.558 13.543-4.539 17.624z" fill="#ff4200"/><path id="Path_2462" data-name="Path 2462" d="M7529.958 2380.851c.013 2.607.52 5.588 2.736 6.96a5.693 5.693 0 005.951-.4 13.286 13.286 0 004.014-4.772c2.255-3.979 3.883-8.673 2.716-13.095-1.014-3.844-6.655-9.043-10.878-6.317-3.933 2.535-4.558 13.543-4.539 17.624z" fill="#ff970f"/></g><g id="Group_1140" data-name="Group 1140"><path id="Path_2463" data-name="Path 2463" d="M7627.8 2499.073c-3.347-2.335-7.83-4.2-10.147-4.464-3.7-.413-7.942 1.491-8.87 5.1a7.554 7.554 0 002.118 6.861 15.882 15.882 0 006.414 3.744c4.7 1.641 17.087 1.519 14.589-6.725-.46-1.509-2.075-3.098-4.104-4.516z" fill="#ffc101"/><path id="Path_2464" data-name="Path 2464" d="M7630.076 2504.725c-3.348-2.334-7.83-4.2-10.147-4.463-3.7-.413-7.942 1.491-8.87 5.094a7.552 7.552 0 002.118 6.861 15.87 15.87 0 006.414 3.744c4.7 1.642 17.087 1.52 14.588-6.724-.455-1.504-2.07-3.094-4.103-4.512z" fill="#ff4200"/><path id="Path_2465" data-name="Path 2465" d="M7629.461 2501.961c-3.347-2.335-7.83-4.2-10.147-4.464-3.7-.413-7.942 1.492-8.87 5.094a7.552 7.552 0 002.118 6.862 15.882 15.882 0 006.414 3.744c4.7 1.641 17.087 1.52 14.589-6.725-.456-1.504-2.071-3.093-4.104-4.511z" fill="#ff970f"/></g><g id="Group_1141" data-name="Group 1141"><path id="Path_2466" data-name="Path 2466" d="M7693.426 2414.9c-2.861-2.418-7.409-3.283-10.316-.92-2.318 1.886-2.932 5.157-3 8.144a34.628 34.628 0 002.423 13.484c1.33 3.353 3.449 6.721 6.832 7.974 4.565 1.69 9.941-1.423 11.825-5.912 3.045-7.254-2.09-17.981-7.764-22.77z" fill="#ffc101"/><path id="Path_2467" data-name="Path 2467" d="M7695.706 2420.549c-2.862-2.418-7.41-3.283-10.316-.92-2.319 1.885-2.932 5.156-3 8.144a34.6 34.6 0 002.423 13.484c1.33 3.353 3.448 6.721 6.831 7.974 4.565 1.689 9.942-1.423 11.826-5.912 3.044-7.25-2.092-17.977-7.764-22.77z" fill="#ff4200"/><path id="Path_2468" data-name="Path 2468" d="M7695.091 2417.784c-2.862-2.418-7.41-3.283-10.316-.92-2.318 1.886-2.932 5.157-3 8.144a34.6 34.6 0 002.423 13.484c1.33 3.353 3.448 6.721 6.832 7.974 4.565 1.69 9.941-1.423 11.825-5.912 3.045-7.254-2.091-17.977-7.764-22.77z" fill="#ff970f"/></g><path id="Path_2469" data-name="Path 2469" d="M7620.291 2437.072c-2.9.663-4.906 3.495-5.443 6.417s.127 5.923.937 8.781c1.433 5.05 4.072 10.648 9.186 11.832 4.985 1.154 10.151-3.021 11.192-8.031 1.537-7.401-7.187-20.99-15.872-18.999z" fill="#ff970f"/><g id="Group_1142" data-name="Group 1142"><path id="Path_2470" data-name="Path 2470" d="M7662.681 2360.637c2.508 6.689.4 14.966-9.884 12.264a11.484 11.484 0 01-8.23-7.658 9.885 9.885 0 014.331-10.783c6.427-3.843 11.702.619 13.783 6.177z" fill="#ffc101"/><path id="Path_2471" data-name="Path 2471" d="M7664.961 2366.29c2.507 6.689.4 14.966-9.884 12.264a11.487 11.487 0 01-8.231-7.658 9.885 9.885 0 014.332-10.783c6.422-3.843 11.699.619 13.783 6.177z" fill="#ff4200"/><path id="Path_2472" data-name="Path 2472" d="M7664.346 2363.525c2.508 6.689.4 14.966-9.884 12.264a11.485 11.485 0 01-8.23-7.658 9.884 9.884 0 014.331-10.783c6.427-3.848 11.699.619 13.783 6.177z" fill="#ff970f"/></g><path id="Path_2473" data-name="Path 2473" d="M7672.527 2486.006c-1.567-.305-3.571.14-5.906 1.8a5.662 5.662 0 00-2.565 5.476 5.141 5.141 0 005.248 3.714c8.81-.36 8.515-9.959 3.223-10.99z" fill="#ff970f"/><g id="Group_1143" data-name="Group 1143"><path id="Path_2474" data-name="Path 2474" d="M7558.845 2432.311c-2.918 2.719-1.371 10.3 2.034 12.847 2.136 1.6 5.409 2.241 7.348.407a5.31 5.31 0 001.133-5.2c-.554-2.061-3.364-7.987-5.65-8.681-2.253-.684-3.836-.331-4.865.627z" fill="#ffc101"/><path id="Path_2475" data-name="Path 2475" d="M7561.125 2437.964c-2.918 2.719-1.372 10.3 2.034 12.847 2.136 1.6 5.409 2.24 7.348.407a5.314 5.314 0 001.133-5.2c-.554-2.062-3.364-7.987-5.651-8.682-2.252-.685-3.835-.336-4.864.628z" fill="#ff4200"/><path id="Path_2476" data-name="Path 2476" d="M7560.51 2435.2c-2.918 2.719-1.372 10.3 2.034 12.847 2.136 1.6 5.409 2.241 7.348.407a5.311 5.311 0 001.133-5.2c-.554-2.062-3.364-7.987-5.651-8.682-2.252-.686-3.835-.331-4.864.628z" fill="#ff970f"/></g><g id="Group_1144" data-name="Group 1144"><path id="Path_2477" data-name="Path 2477" d="M7592.618 2368.279c-4.31-.455-8.833 1.813-9.37 7.526a8.756 8.756 0 0017.4 1.924c.71-5.556-3.548-8.977-8.03-9.45z" fill="#ffc101"/><path id="Path_2478" data-name="Path 2478" d="M7593.255 2374.341c-4.31-.455-8.833 1.813-9.37 7.526a8.756 8.756 0 0017.4 1.924c.715-5.556-3.545-8.978-8.03-9.45z" fill="#ff4200"/><path id="Path_2479" data-name="Path 2479" d="M7593.424 2371.513c-4.31-.454-8.832 1.814-9.369 7.526a8.756 8.756 0 0017.4 1.925c.71-5.556-3.545-8.978-8.031-9.451z" fill="#ff970f"/></g></g><g id="Group_1152" data-name="Group 1152"><path id="Path_2480" data-name="Path 2480" d="M7558.214 2244.19c-2.8-1-6.016.312-8.039 2.488s-3.075 5.064-3.927 7.91c-1.5 5.029-2.287 11.168 1.39 14.914 3.585 3.652 10.185 2.906 13.755-.76 5.274-5.416 5.215-21.565-3.179-24.552z" fill="#ffc101"/><path id="Path_2481" data-name="Path 2481" d="M7578.312 2315.838c-1.157-1.1-3.086-1.8-5.947-1.656a5.663 5.663 0 00-5.105 3.241 5.141 5.141 0 002.431 5.952c7.623 4.431 12.531-3.824 8.621-7.537z" fill="#ffc101"/><path id="Path_2482" data-name="Path 2482" d="M7557.1 2250.182c-2.8-.995-6.016.313-8.039 2.488s-3.076 5.064-3.927 7.91c-1.5 5.029-2.287 11.169 1.39 14.915 3.585 3.652 10.185 2.906 13.755-.761 5.273-5.416 5.215-21.564-3.179-24.552z" fill="#ff4200"/><path id="Path_2483" data-name="Path 2483" d="M7577.2 2321.831c-1.157-1.1-3.087-1.8-5.947-1.657a5.661 5.661 0 00-5.1 3.241 5.14 5.14 0 002.431 5.952c7.616 4.433 12.524-3.823 8.616-7.536z" fill="#ff4200"/><g id="Group_1146" data-name="Group 1146"><path id="Path_2484" data-name="Path 2484" d="M7601.825 2165.57c-1.391 2.2-2.565 4.992-1.433 7.341a5.7 5.7 0 005.236 2.856 13.288 13.288 0 005.949-1.869c4.04-2.144 7.935-5.229 9.327-9.585 1.21-3.788-.755-11.2-5.781-11.172-4.681.028-11.123 8.977-13.298 12.429z" fill="#ffc101"/><path id="Path_2485" data-name="Path 2485" d="M7600.71 2171.562c-1.39 2.206-2.564 4.992-1.432 7.341a5.694 5.694 0 005.236 2.856 13.272 13.272 0 005.949-1.869c4.04-2.144 7.935-5.228 9.327-9.585 1.21-3.787-.755-11.2-5.781-11.172-4.682.028-11.123 8.977-13.299 12.429z" fill="#ff4200"/><path id="Path_2486" data-name="Path 2486" d="M7601.677 2168.9c-1.39 2.206-2.564 4.992-1.432 7.341a5.7 5.7 0 005.236 2.856 13.287 13.287 0 005.949-1.869c4.04-2.144 7.934-5.228 9.327-9.585 1.21-3.787-.755-11.2-5.782-11.172-4.681.029-11.122 8.977-13.298 12.429z" fill="#ff970f"/></g><g id="Group_1147" data-name="Group 1147"><path id="Path_2487" data-name="Path 2487" d="M7533.812 2320.726c0-4.081-1.021-8.828-2.131-10.878-1.773-3.272-5.76-5.668-9.248-4.372a7.551 7.551 0 00-4.422 5.657 15.855 15.855 0 00.59 7.4c1.338 4.8 8.511 14.9 13.852 8.135.974-1.23 1.357-3.463 1.359-5.942z" fill="#ffc101"/><path id="Path_2488" data-name="Path 2488" d="M7530.474 2325.825c0-4.08-1.021-8.828-2.132-10.878-1.772-3.271-5.759-5.667-9.247-4.372a7.555 7.555 0 00-4.422 5.658 15.857 15.857 0 00.59 7.4c1.337 4.8 8.511 14.894 13.851 8.135.975-1.231 1.357-3.468 1.36-5.943z" fill="#ff4200"/><path id="Path_2489" data-name="Path 2489" d="M7532.392 2323.742c0-4.081-1.02-8.828-2.131-10.879-1.772-3.271-5.76-5.667-9.248-4.371a7.553 7.553 0 00-4.422 5.657 15.856 15.856 0 00.59 7.4c1.338 4.8 8.511 14.894 13.852 8.135.974-1.23 1.357-3.463 1.359-5.942z" fill="#ff970f"/></g><g id="Group_1148" data-name="Group 1148"><path id="Path_2490" data-name="Path 2490" d="M7629.4 2283.754c-1.115-3.577-4.486-6.75-8.207-6.318-2.968.344-5.243 2.773-6.9 5.258a34.619 34.619 0 00-5.2 12.674c-.679 3.543-.7 7.522 1.478 10.4 2.943 3.878 9.15 4.14 13.15 1.367 6.453-4.484 7.879-16.291 5.679-23.381z" fill="#ffc101"/><path id="Path_2491" data-name="Path 2491" d="M7628.281 2289.746c-1.114-3.577-4.485-6.75-8.206-6.318-2.968.345-5.244 2.774-6.9 5.258a34.609 34.609 0 00-5.2 12.674c-.68 3.543-.7 7.522 1.478 10.4 2.943 3.878 9.149 4.141 13.15 1.367 6.457-4.484 7.888-16.291 5.678-23.381z" fill="#ff4200"/><path id="Path_2492" data-name="Path 2492" d="M7629.248 2287.084c-1.114-3.577-4.485-6.75-8.206-6.318-2.969.344-5.244 2.774-6.9 5.258a34.612 34.612 0 00-5.2 12.674c-.68 3.543-.7 7.522 1.478 10.4 2.942 3.878 9.149 4.141 13.15 1.367 6.456-4.484 7.887-16.291 5.678-23.381z" fill="#ff970f"/></g><path id="Path_2493" data-name="Path 2493" d="M7558.067 2247.52c-2.8-1-6.016.313-8.039 2.488s-3.076 5.064-3.927 7.91c-1.5 5.029-2.287 11.169 1.39 14.914 3.585 3.653 10.184 2.906 13.755-.76 5.273-5.416 5.215-21.565-3.179-24.552z" fill="#ff970f"/><g id="Group_1149" data-name="Group 1149"><path id="Path_2494" data-name="Path 2494" d="M7632.616 2221.473c-1.479 6.989-7.707 12.835-14.926 5.033a11.487 11.487 0 01-2.827-10.88 9.885 9.885 0 019.447-6.768c7.485.211 9.535 6.808 8.306 12.615z" fill="#ffc101"/><path id="Path_2495" data-name="Path 2495" d="M7631.5 2227.465c-1.479 6.989-7.707 12.835-14.926 5.034a11.488 11.488 0 01-2.827-10.881 9.884 9.884 0 019.447-6.767c7.486.211 9.536 6.807 8.306 12.614z" fill="#ff4200"/><path id="Path_2496" data-name="Path 2496" d="M7632.468 2224.8c-1.478 6.989-7.706 12.835-14.925 5.033a11.486 11.486 0 01-2.827-10.88 9.886 9.886 0 019.446-6.768c7.485.215 9.538 6.815 8.306 12.615z" fill="#ff970f"/></g><path id="Path_2497" data-name="Path 2497" d="M7578.165 2319.169c-1.157-1.1-3.087-1.8-5.947-1.657a5.662 5.662 0 00-5.1 3.241 5.14 5.14 0 002.431 5.952c7.617 4.431 12.526-3.824 8.616-7.536z" fill="#ff970f"/><g id="Group_1150" data-name="Group 1150"><path id="Path_2498" data-name="Path 2498" d="M7664.6 2255.143c-3.922.726-6.69 7.949-5.187 11.929.942 2.5 3.358 4.795 5.979 4.291a5.316 5.316 0 003.751-3.78c.64-2.036 1.453-8.544-.1-10.358-1.531-1.786-3.057-2.337-4.443-2.082z" fill="#ffc101"/><path id="Path_2499" data-name="Path 2499" d="M7663.489 2261.136c-3.922.725-6.689 7.948-5.187 11.928.943 2.5 3.359 4.8 5.979 4.291a5.311 5.311 0 003.751-3.78c.641-2.036 1.454-8.543-.1-10.358-1.532-1.785-3.06-2.337-4.443-2.081z" fill="#ff4200"/><path id="Path_2500" data-name="Path 2500" d="M7664.456 2258.474c-3.922.725-6.689 7.948-5.187 11.928.943 2.5 3.359 4.8 5.979 4.291a5.313 5.313 0 003.751-3.78c.641-2.036 1.454-8.543-.1-10.358-1.535-1.785-3.06-2.337-4.443-2.081z" fill="#ff970f"/></g><g id="Group_1151" data-name="Group 1151"><path id="Path_2501" data-name="Path 2501" d="M7569.418 2190.276c-3.391-2.7-8.424-3.216-11.946 1.314a8.756 8.756 0 0013.645 10.973c3.583-4.307 1.829-9.478-1.699-12.287z" fill="#ffc101"/><path id="Path_2502" data-name="Path 2502" d="M7566.7 2195.731c-3.391-2.7-8.424-3.216-11.946 1.314a8.756 8.756 0 0013.645 10.973c3.579-4.307 1.828-9.479-1.699-12.287z" fill="#ff4200"/><path id="Path_2503" data-name="Path 2503" d="M7568.36 2193.437c-3.391-2.7-8.424-3.215-11.946 1.314a8.756 8.756 0 0013.645 10.973c3.58-4.306 1.83-9.478-1.699-12.287z" fill="#ff970f"/></g></g><g id="Group_1153" data-name="Group 1153" opacity=".1" style="mix-blend-mode:multiply;isolation:isolate"><path id="Path_2504" data-name="Path 2504" d="M7758.223 2076.364s-126.389-48.142-213.377 86.883c70.423 28.128 200.486-19.747 211.258-35.743s2.119-51.14 2.119-51.14z" fill="#a40900"/></g><g id="Group_1154" data-name="Group 1154"><path id="Path_2505" data-name="Path 2505" d="M7748.293 2037.738a104.72 104.72 0 011.356-16.284 135.154 135.154 0 00-20.382-9.688c-27.214 13.723-54.224 20.681-80.291 20.681-58.077 0-112.377-35.556-145.256-95.114a8.907 8.907 0 013.906-12.318c21.939-10.642 60.389-22.012 102.516-22.012 28.915 0 53.665 5.414 73.563 16.092 28.872 15.5 46.6 41.17 52.693 76.318a145.9 145.9 0 0117.5 8.047c9.937-31.159 32.467-60.739 60.766-79.606l2.077-1.384 15.241 22.8-2.083 1.388c-31.9 21.257-54.179 58.71-54.179 91.079v89.4l-27.425.117z" fill="#618a00"/><path id="Path_2506" data-name="Path 2506" d="M7610.142 1905.5c25.659 0 51.235 4.447 72.38 15.795 28.594 15.346 45.934 40.911 51.655 75.976a144.74 144.74 0 0121.216 9.843c9.133-31.241 31.26-61.585 60.656-81.182l12.462 18.644c-32.548 21.688-55.293 60-55.293 93.159v86.912l-22.425.1v-87.008a103.434 103.434 0 011.607-17.594c-6.178-3.553-15.474-8.508-23.328-11.082-28.644 14.606-55.48 20.886-80.1 20.886-65.861 0-115.959-44.719-143.068-93.823a6.41 6.41 0 012.813-8.863c24.2-11.741 62.908-21.76 101.421-21.759m0-5c-42.55 0-81.417 11.5-103.6 22.261a11.408 11.408 0 00-5.01 15.773c14.973 27.124 35.19 50.282 58.467 66.976 27.232 19.531 57.169 29.435 88.98 29.435 26.156 0 53.213-6.885 80.457-20.468a132.293 132.293 0 0117.486 8.31 105.334 105.334 0 00-1.126 14.948v92.03l5.022-.022 22.424-.1 4.979-.021v-91.891c0-31.581 21.821-68.178 53.065-89l4.167-2.776-2.782-4.163-12.462-18.645-2.775-4.152-4.155 2.771a159.89 159.89 0 00-39.169 37.405 151.926 151.926 0 00-21.657 40.7 145.075 145.075 0 00-13.839-6.305c-6.463-35.222-24.527-61.013-53.724-76.683-20.265-10.875-45.412-16.389-74.745-16.389z"/></g><g id="Group_1155" data-name="Group 1155"><path id="Path_2507" data-name="Path 2507" d="M7713.754 2109.586a92.672 92.672 0 0096.068 0c-5.066 7.428-12.715 13.079-21.092 16.826-24.714 11-58.67 5.891-74.976-16.826z"/></g><ellipse id="Ellipse_35" data-name="Ellipse 35" cx="5.886" cy="11.821" rx="5.886" ry="11.821" transform="rotate(-36.288 6847.794 -10956.093)" fill="#615a00" stroke="#000" stroke-linecap="round" stroke-linejoin="round" stroke-width="3"/><g id="Group_1156" data-name="Group 1156"><path id="Path_2508" data-name="Path 2508" d="M7813.653 1935.562c-25.838 22.923-40.4 51.515-47.1 85.183-6.914 32.794-6.334 66.713-10.308 100.137-4.011-33.918-6.389-68.306.519-102.165 6.6-33.84 25.589-66.782 56.889-83.155z" fill="#78ad0a"/></g><g id="Group_1157" data-name="Group 1157"><path id="Path_2509" data-name="Path 2509" d="M7759.034 2016.918c-47.2-23.16-95.651-44.157-145.491-61.008-29.948-9.7-60.621-18.881-92.253-20.348 21.115.467 41.912 4.967 62.323 10.115 40.809 10.791 80.413 25.686 119.352 41.887 19.463 8.161 38.755 16.669 57.842 25.768a2 2 0 11-1.773 3.586z" fill="#78ad0a"/></g><path id="Path_2510" data-name="Path 2510" d="M7510.657 1931.472s106.057 3 218.758 69.361c-7.069-61.533-81.347-124.162-218.758-69.361z" fill="#78ad0a"/><g id="Group_1158" data-name="Group 1158"><path id="Path_2511" data-name="Path 2511" d="M7526.2 1947.013c22.633 26.954 51.277 49.759 84.334 62.333 26.21 10.182 55.255 11.98 82.7 6.009 1.387-.344 6.636-1.683 8.054-2.033 3.86-.917 8.927-2.757 12.759-3.874-3.749 1.505-8.656 3.743-12.432 4.934l-6.38 2.064c-1.736.613-4.677 1.26-6.489 1.721-1.948.452-4.62 1.185-6.56 1.469-1.328.242-7.139 1.178-8.305 1.387-3.837.291-7.929.866-11.765.907l-6.754.137c-3.372-.14-6.757-.29-10.122-.556-2.441-.31-5.965-.693-8.392-1.019-1.128-.2-7.068-1.339-8.31-1.571l-6.555-1.67c-38.7-10.7-73.026-37.555-95.786-70.238z" fill="#78ad0a"/></g><g id="Group_1159" data-name="Group 1159"><path id="Path_2512" data-name="Path 2512" d="M8025.057 2329.276a270.016 270.016 0 01-1.987 25.468 263.908 263.908 0 01-341.3 218.321 262.7 262.7 0 01-134.452-97.195 264.391 264.391 0 01-11.117-16.691 263.632 263.632 0 01-24.859-53.018 245.83 245.83 0 01-5.862-19.734q-1.3-5.142-2.4-10.284a262.983 262.983 0 01-5.67-58.432c.064-2.691.128-5.414.256-8.1a266.263 266.263 0 013.556-32.74v-.032c.384-2.275.8-4.517 1.249-6.759q2.26-11.437 5.542-22.617a267.142 267.142 0 0116.146-41.807 262.228 262.228 0 0110.572-19.573q3.219-5.382 6.727-10.668c1.378-2.05 2.755-4.1 4.2-6.119 1.442-2.082 2.979-4.164 4.517-6.215a259.724 259.724 0 014.484-5.8 215.746 215.746 0 00-33.765 109.433c-1.665 55.485 18.26 109.849 64.359 149.381 137.336 117.858 389.551 32.612 413.769-128.462a226.469 226.469 0 00-4.421-89.443 262.181 262.181 0 0130.434 113.245 261.43 261.43 0 01.022 17.841z" fill="#ff7b0f" opacity=".25" style="mix-blend-mode:multiply;isolation:isolate"/></g><g id="Group_1160" data-name="Group 1160" opacity=".3" style="mix-blend-mode:multiply;isolation:isolate"><path id="Path_2513" data-name="Path 2513" d="M7787.888 2442.445c-21.66 4.766-36.027 26.072-32.21 47.557 3.935 21.428 24.544 34.957 46.242 30.107 21.576-4.8 36.066-26.163 32.21-47.557-3.899-21.52-24.546-34.961-46.242-30.107z" fill="#a40900"/></g><g id="Group_1161" data-name="Group 1161" opacity=".5" style="mix-blend-mode:multiply;isolation:isolate"><path id="Path_2514" data-name="Path 2514" d="M7874.226 2507.76c-14.771 3.873-24.947 19.465-22.81 34.8 2.218 15.3 15.9 24.576 30.693 20.642 14.715-3.9 24.975-19.53 22.81-34.8-2.192-15.363-15.896-24.578-30.693-20.642z" fill="#a40900"/></g><g id="Group_1162" data-name="Group 1162" opacity=".5" style="mix-blend-mode:multiply;isolation:isolate"><path id="Path_2515" data-name="Path 2515" d="M7985.578 2436.262c-13.39 2.281-21.867 14.318-19.01 26.864 2.93 12.516 16.075 20.822 29.487 18.494 13.337-2.306 21.889-14.37 19.009-26.864-2.909-12.569-16.075-20.825-29.486-18.494z" fill="#a40900"/></g><g id="Group_1163" data-name="Group 1163" opacity=".3" style="mix-blend-mode:multiply;isolation:isolate"><path id="Path_2516" data-name="Path 2516" d="M7661.106 2372.5c-24.91 6.02-41.761 31.442-37.775 56.747 4.123 25.236 27.5 40.841 52.456 34.722 24.815-6.064 41.807-31.55 37.774-56.747-4.08-25.34-27.501-40.842-52.455-34.722z" fill="#a40900"/></g><g id="Group_1164" data-name="Group 1164" opacity=".3" style="mix-blend-mode:multiply;isolation:isolate"><path id="Path_2517" data-name="Path 2517" d="M7928.534 2327.649c-31.782 8.56-53.817 42.5-49.389 75.754 4.6 33.164 33.9 53.15 65.741 44.458 31.662-8.615 53.877-42.638 49.388-75.753-4.546-33.308-33.899-53.157-65.74-44.459z" fill="#a40900"/></g><g id="Group_1165" data-name="Group 1165" opacity=".3" style="mix-blend-mode:multiply;isolation:isolate"><path id="Path_2518" data-name="Path 2518" d="M8007.168 2349.586c-13.242 3.567-22.424 17.706-20.579 31.564 1.919 13.819 14.124 22.147 27.393 18.525 13.192-3.59 22.449-17.766 20.578-31.564-1.894-13.879-14.124-22.149-27.392-18.525z" fill="#a40900"/></g><g id="Group_1166" data-name="Group 1166" opacity=".3" style="mix-blend-mode:multiply;isolation:isolate"><path id="Path_2519" data-name="Path 2519" d="M7510.466 2228.764c-6.975 1.879-11.811 9.326-10.839 16.625 1.01 7.278 7.439 11.665 14.427 9.757 6.949-1.891 11.824-9.357 10.839-16.625-.993-7.31-7.439-11.665-14.427-9.757z" fill="#a40900"/></g><g id="Group_1167" data-name="Group 1167" opacity=".5" style="mix-blend-mode:multiply;isolation:isolate"><path id="Path_2520" data-name="Path 2520" d="M7699.423 2490.976c-17.282 4.759-29.327 23.391-27 41.591 2.425 18.149 18.29 29.025 35.6 24.193 17.217-4.789 29.361-23.469 27-41.591-2.389-18.228-18.286-29.028-35.6-24.193z" fill="#a40900"/></g><g id="Group_1171" data-name="Group 1171" opacity=".3" style="mix-blend-mode:multiply;isolation:isolate"><path id="Path_2524" data-name="Path 2524" d="M7545.882 2348.467c18.722-14.234 21.331-39.867 5.817-57.371-15.5-17.394-43.262-19.993-61.981-5.759s-21.328 39.862-5.95 57.266c15.502 17.397 43.266 19.988 62.114 5.864z" fill="#a40900"/></g><g id="Group_1179" data-name="Group 1179"><g id="Group_1177" data-name="Group 1177"><path id="Path_2528" data-name="Path 2528" d="M8100.287 2407.26c-11.553 0-21.72-6.025-26.533-15.722a26.172 26.172 0 014.223-29.5 30.073 30.073 0 0144.042.734 26.416 26.416 0 01.31 34.733 28.8 28.8 0 01-22.042 9.755z" fill="#ff7b0f"/><g id="Group_1176" data-name="Group 1176"><path id="Path_2529" data-name="Path 2529" d="M8099.616 2354.807a27.584 27.584 0 0120.9 9.279 24.3 24.3 0 01.3 32.117 26.77 26.77 0 01-20.524 9.056c-9.964 0-19.97-5-24.741-14.61a24.252 24.252 0 013.906-27.258 27.28 27.28 0 0120.165-8.584m0-4a31.335 31.335 0 00-23.111 9.878 28.157 28.157 0 00-4.546 31.737c5.156 10.388 16.01 16.837 28.327 16.837a30.8 30.8 0 0023.564-10.456 28.4 28.4 0 00-.318-37.34 31.6 31.6 0 00-23.916-10.656z"/></g></g><g id="Group_1178" data-name="Group 1178" opacity=".4" style="mix-blend-mode:multiply;isolation:isolate"><path id="Path_2530" data-name="Path 2530" d="M8120.512 2364.086a26.487 26.487 0 00-2.133-2.177 24.206 24.206 0 01-5.747 18.5c-9.878 11.549-28.454 11.816-39.42 2.05a24.316 24.316 0 002.333 8.187c8.442 17.007 33.276 19.573 45.266 5.554a24.3 24.3 0 00-.299-32.114z" fill="#ff7b0f"/></g><ellipse id="Ellipse_38" data-name="Ellipse 38" cx="10.641" cy="8.505" rx="10.641" ry="8.505" transform="rotate(-30 8458.278 -13894.463)" fill="#ff521b" opacity=".7" style="mix-blend-mode:screen;isolation:isolate"/></g><g id="Group_1183" data-name="Group 1183"><g id="Group_1181" data-name="Group 1181"><path id="Path_2531" data-name="Path 2531" d="M7502.692 2349.347a35.362 35.362 0 01-26.469-11.577 30.447 30.447 0 01-7.719-23.348 30.911 30.911 0 0112.355-21.679 35.882 35.882 0 0147.814 4.464 30.554 30.554 0 017.8 23.429 30.869 30.869 0 01-12.343 21.67 35.9 35.9 0 01-21.432 7.041z" fill="#01ffa9"/><g id="Group_1180" data-name="Group 1180"><path id="Path_2532" data-name="Path 2532" d="M7502.27 2289.641a31.325 31.325 0 0123.417 10.227c10.614 11.976 8.829 29.514-3.981 39.253a32.094 32.094 0 01-42.5-4.013c-10.522-11.907-8.737-29.445 4.071-39.181a31.316 31.316 0 0118.99-6.286m0-8a39.541 39.541 0 00-23.833 7.919 34.857 34.857 0 00-13.913 24.468 34.4 34.4 0 008.69 26.378 39.378 39.378 0 0029.478 12.94 39.9 39.9 0 0023.812-7.824l.022-.016.022-.017a34.459 34.459 0 005.126-50.927 39.283 39.283 0 00-29.4-12.921z"/></g></g><g id="Group_1182" data-name="Group 1182" opacity=".4" style="mix-blend-mode:multiply;isolation:isolate"><path id="Path_2533" data-name="Path 2533" d="M7530.162 2306.684a22.4 22.4 0 01-8.874 15.171c-10.7 8.015-26.453 6.543-35.249-3.328a21.872 21.872 0 01-4.759-20.9 26.38 26.38 0 00-2.056 37.484c10.606 11.9 29.6 13.676 42.5 4.013 10.539-8.018 13.594-21.309 8.438-32.44z" fill="#ff970f"/></g><ellipse id="Ellipse_39" data-name="Ellipse 39" cx="8.505" cy="10.641" rx="8.505" ry="10.641" transform="rotate(-82.489 5064.965 -3119.27)" fill="#ff521b" opacity=".7" style="mix-blend-mode:screen;isolation:isolate"/></g><g id="Group_1184" data-name="Group 1184" opacity=".3" style="mix-blend-mode:multiply;isolation:isolate"><path id="Path_2534" data-name="Path 2534" d="M7600.84 2426.408c-5.739-31.659-31.532-52.543-61.944-47.518-30.312 5.014-52 33.75-48.125 65.718s31.5 51.5 62.091 48.834c36.622-3.081 53.738-35.188 47.978-67.034z" fill="#a40900"/></g><g id="Group_1188" data-name="Group 1188"><g id="Group_1185" data-name="Group 1185"><path id="Path_2535" data-name="Path 2535" d="M7525.389 2499.9c-27.471 0-48.913-18.642-52.145-45.334-3.538-29.183 15.931-55.723 44.322-60.419a50.994 50.994 0 018.286-.688c24.158 0 44.34 18.261 49.08 44.406 2.892 15.989-.567 31.834-9.49 43.475-8.252 10.766-20.35 17.108-34.989 18.34-1.675.145-3.383.22-5.063.22z" fill="#d63eff"/><path id="Path_2536" data-name="Path 2536" d="M7525.853 2397.458c22.5 0 40.741 16.842 45.143 41.12 4.908 27.134-9.675 54.49-40.878 57.114q-2.383.209-4.73.207c-24.123 0-45.076-16.236-48.173-41.814-3.3-27.237 15.177-51.72 41-55.992a46.764 46.764 0 017.634-.635m0-8a54.939 54.939 0 00-8.938.742 56.842 56.842 0 00-36.554 22.522 58.967 58.967 0 00-11.088 42.326 54.863 54.863 0 0019 35.662 57.662 57.662 0 0037.116 13.189c1.8 0 3.622-.08 5.425-.237 15.767-1.326 28.848-8.205 37.8-19.89 9.607-12.533 13.343-29.525 10.251-46.618-2.481-13.684-8.795-25.489-18.259-34.144a51.418 51.418 0 00-34.756-13.552z"/></g><g id="Group_1186" data-name="Group 1186" opacity=".6" style="mix-blend-mode:multiply;isolation:isolate"><path id="Path_2537" data-name="Path 2537" d="M7571 2438.578a53 53 0 00-14.021-27.892c.084.391.191.77.263 1.168 3.267 18.058-6.438 36.264-27.2 38.011-17.343 1.513-33.014-9.564-35.208-27.691a34.079 34.079 0 011.314-14.3 50.858 50.858 0 00-18.923 46.209c3.3 27.237 26.843 43.881 52.9 41.607 31.196-2.622 45.775-29.978 40.875-57.112z" fill="#ac159f"/></g><g id="Group_1187" data-name="Group 1187" opacity=".6" style="mix-blend-mode:multiply;isolation:isolate"><path id="Path_2538" data-name="Path 2538" d="M7571 2438.579c-4.89-26.975-26.866-44.768-52.777-40.486-25.827 4.271-44.306 28.756-41 55.993s26.843 43.88 52.9 41.606c31.198-2.624 45.777-29.979 40.877-57.113zm-42.376 41.326c-21.844 1.906-41.581-12.046-44.345-34.877s12.722-43.355 34.371-46.935c21.72-3.589 40.141 11.326 44.239 33.936 4.111 22.745-8.113 45.676-34.269 47.876z" fill="#ac159f"/></g><ellipse id="Ellipse_40" data-name="Ellipse 40" cx="13.045" cy="8.139" rx="13.045" ry="8.139" transform="translate(7512.756 2404.443)" fill="#ffd101" style="mix-blend-mode:screen;isolation:isolate"/></g><g id="Group_1192" data-name="Group 1192"><g id="Group_1189" data-name="Group 1189"><path id="Path_2539" data-name="Path 2539" d="M7919.952 2439.384a47.929 47.929 0 01-36.444-16.46c-18.661-21.185-16.645-53.276 4.591-73.059a50.065 50.065 0 0134.1-13.75c13.706 0 26.934 5.7 37.245 16.037 10.657 10.7 16.319 24.79 15.533 38.672-.775 13.715-7.511 26.019-19.478 35.581a57.23 57.23 0 01-35.55 12.979z" fill="#01ffa9"/><path id="Path_2540" data-name="Path 2540" d="M7922.2 2340.115c12.326 0 24.669 5.089 34.413 14.861 18.625 18.692 21.072 48.582-3.61 68.3a53.119 53.119 0 01-33.054 12.1 43.886 43.886 0 01-33.442-15.1c-17.337-19.682-14.991-49.5 4.316-67.488a45.721 45.721 0 0131.377-12.677m0-8a54.057 54.057 0 00-36.83 14.823 57.791 57.791 0 00-18.428 38.416 54.725 54.725 0 0013.562 40.214 51.878 51.878 0 0039.445 17.816 61.242 61.242 0 0038.066-13.869c12.862-10.277 20.115-23.583 20.957-38.464.85-15.016-5.234-30.223-16.692-41.721-11.07-11.1-25.3-17.215-40.08-17.215z"/></g><g id="Group_1190" data-name="Group 1190" opacity=".6" style="mix-blend-mode:multiply;isolation:isolate"><path id="Path_2541" data-name="Path 2541" d="M7956.616 2354.976a49.7 49.7 0 00-26.65-14.138c.28.263.572.5.846.775 12.4 12.44 14.024 32.333-2.4 45.459-13.69 11-32.72 11.1-44.255-2a30.928 30.928 0 01-6.554-12.055 47.386 47.386 0 008.91 47.26c17.333 19.684 45.925 19.537 66.5 3 24.675-19.719 22.228-49.609 3.603-68.301z" fill="#ffd101"/></g><g id="Group_1191" data-name="Group 1191" opacity=".6" style="mix-blend-mode:multiply;isolation:isolate"><path id="Path_2542" data-name="Path 2542" d="M7956.617 2354.976c-18.524-18.575-46.42-20.224-65.791-2.184-19.307 17.986-21.653 47.807-4.316 67.489s45.925 19.536 66.5 3c24.679-19.723 22.231-49.613 3.607-68.305zm-13.312 56.661c-17.243 13.861-41.211 13.985-55.74-2.515s-12.566-41.5 3.618-56.571c16.238-15.123 39.621-13.74 55.148 1.83 15.612 15.669 17.663 40.719-3.026 57.256z" fill="#ffd101"/></g><ellipse id="Ellipse_41" data-name="Ellipse 41" cx="13.167" cy="7.774" rx="13.167" ry="7.774" transform="rotate(-34.075 7796.897 -11692.36)" fill="#ffd101" style="mix-blend-mode:screen;isolation:isolate"/></g><g id="Group_1197" data-name="Group 1197"><g id="Group_1193" data-name="Group 1193"><path id="Path_2543" data-name="Path 2543" d="M7669.734 2470.159a37.591 37.591 0 01-28.5-12.984c-13.695-16.053-11.62-40.623 4.61-54.79a39.349 39.349 0 0125.947-9.891 37.461 37.461 0 0128.463 13.023c13.69 15.964 11.621 40.535-4.61 54.774a39.3 39.3 0 01-25.913 9.868z" fill="#01ffa9"/><path id="Path_2544" data-name="Path 2544" d="M7671.8 2396.494a33.322 33.322 0 0125.429 11.629c12.259 14.3 10.349 36.386-4.213 49.161a35.206 35.206 0 01-23.277 8.875 33.465 33.465 0 01-25.469-11.6c-12.269-14.381-10.43-36.38 4.213-49.162a35.275 35.275 0 0123.317-8.9m0-8a43.351 43.351 0 00-28.6 10.9c-17.852 15.582-20.113 42.669-5.018 60.362a41.607 41.607 0 0031.555 14.407 43.294 43.294 0 0028.557-10.866c17.865-15.672 20.113-42.76 5.006-60.378a41.461 41.461 0 00-31.5-14.421z"/></g><g id="Group_1194" data-name="Group 1194" opacity=".6" style="mix-blend-mode:multiply;isolation:isolate"><path id="Path_2545" data-name="Path 2545" d="M7697.225 2408.123a33.329 33.329 0 00-26.348-11.6 25.712 25.712 0 015.081 4.5c9.464 11.037 7.989 28.088-3.252 37.95a26.517 26.517 0 01-35.964-.364 33.753 33.753 0 007.524 15.946c12.336 14.289 34.109 15.585 48.746 2.724 14.562-12.77 16.472-34.859 4.213-49.156z" fill="#ffd101"/></g><g id="Group_1196" data-name="Group 1196"><g id="Group_1195" data-name="Group 1195" style="mix-blend-mode:multiply;isolation:isolate"><path id="Path_2546" data-name="Path 2546" d="M7701.919 2415.324a35.927 35.927 0 01-11.956 31.682c-14.637 12.86-36.41 11.564-48.746-2.724-.6-.709-1.1-1.472-1.632-2.215-.021-.024-.045-.045-.066-.069a28.034 28.034 0 01-2.851-4.058 33.759 33.759 0 007.628 16.62c12.335 14.289 34.109 15.585 48.746 2.724a35.6 35.6 0 008.877-41.96z" fill="#ffd101"/></g></g><ellipse id="Ellipse_42" data-name="Ellipse 42" cx="15.81" cy="8.396" rx="15.81" ry="8.396" transform="rotate(-53.49 6224.23 -6364.397)" fill="#ffd101" opacity=".7" style="mix-blend-mode:screen;isolation:isolate"/></g><g id="Group_1202" data-name="Group 1202"><g id="Group_1199" data-name="Group 1199"><path id="Path_2547" data-name="Path 2547" d="M7796.983 2503.671a32.335 32.335 0 01-29.375-19.288 31.707 31.707 0 01-.714-24.578 30.9 30.9 0 0128.818-19.793 32.356 32.356 0 0129.412 19.284 31.713 31.713 0 01.713 24.577 30.914 30.914 0 01-28.853 19.8z" fill="#01ffa9"/><g id="Group_1198" data-name="Group 1198"><path id="Path_2548" data-name="Path 2548" d="M7795.712 2444.012a28.383 28.383 0 0125.759 16.915 27.367 27.367 0 01-13.694 36.488 26.941 26.941 0 01-10.794 2.255 28.329 28.329 0 01-25.723-16.919 27.365 27.365 0 0113.7-36.487 26.739 26.739 0 0110.756-2.252m0-8a34.9 34.9 0 00-32.548 22.35 35.686 35.686 0 00.8 27.664 36.333 36.333 0 0033.022 21.644 34.909 34.909 0 0032.585-22.355 35.679 35.679 0 00-.8-27.662 36.357 36.357 0 00-33.058-21.641z"/></g></g><g id="Group_1200" data-name="Group 1200" opacity=".3" style="mix-blend-mode:multiply;isolation:isolate"><path id="Path_2549" data-name="Path 2549" d="M7771.26 2482.751c6.332 14.172 22.637 20.717 36.517 14.663a27.1 27.1 0 0016.1-26.621 23.64 23.64 0 01-14.083 19.956c-12.147 5.3-26.418-.431-31.958-12.833a23.948 23.948 0 0111.985-31.933 23.367 23.367 0 017.708-1.884 26.753 26.753 0 00-12.576 2.165 27.365 27.365 0 00-13.693 36.487z" fill="#ff970f"/></g><g id="Group_1201" data-name="Group 1201" opacity=".45" style="mix-blend-mode:multiply;isolation:isolate"><path id="Path_2550" data-name="Path 2550" d="M7771.26 2482.751c6.332 14.172 22.637 20.717 36.517 14.663a27.048 27.048 0 0016.153-24.725 19.872 19.872 0 01-10.719 11.374 20.728 20.728 0 01-27.069-10.87 20.285 20.285 0 0110.152-27.048 19.772 19.772 0 015.3-1.467 26.9 26.9 0 00-16.637 1.586 27.365 27.365 0 00-13.697 36.487z" fill="#ff970f"/></g></g><g id="Group_1206" data-name="Group 1206"><g id="Group_1203" data-name="Group 1203"><path id="Path_2551" data-name="Path 2551" d="M7707.606 2539.682a21.452 21.452 0 01-5.328-.671 20.771 20.771 0 01-13-10.163 24.919 24.919 0 01-1.719-19.449c3.337-10.951 13.108-18.616 23.754-18.616a21.29 21.29 0 015.3.667 20.733 20.733 0 0112.985 10.078 25.157 25.157 0 011.836 19.578c-3.411 10.947-13.2 18.576-23.819 18.576z" fill="#d63eff"/><path id="Path_2552" data-name="Path 2552" d="M7711.308 2494.783a17.271 17.271 0 014.3.541c10.016 2.572 15.34 13.621 11.988 24.616-2.938 9.428-11.346 15.742-19.992 15.742a17.421 17.421 0 01-4.334-.545c-9.935-2.582-15.331-13.543-11.9-24.547 2.874-9.432 11.28-15.807 19.936-15.807m0-8c-12.382 0-23.72 8.819-27.581 21.449a28.934 28.934 0 002.051 22.559 24.723 24.723 0 0015.483 12.089 25.5 25.5 0 006.346.8c12.349 0 23.711-8.784 27.63-21.361a29.2 29.2 0 00-2.16-22.751 24.7 24.7 0 00-15.477-12 25.364 25.364 0 00-6.292-.792z"/></g><g id="Group_1204" data-name="Group 1204" style="mix-blend-mode:screen;isolation:isolate"><path id="Path_2553" data-name="Path 2553" d="M7719.7 2508.5c.808-2.651-.475-5.314-2.89-5.934a5.059 5.059 0 00-5.843 3.68 4.512 4.512 0 002.869 5.917 5.079 5.079 0 005.864-3.663z" fill="#ffd101"/></g><g id="Group_1205" data-name="Group 1205" style="mix-blend-mode:multiply;isolation:isolate"><path id="Path_2554" data-name="Path 2554" d="M7728.36 2510.211a17.927 17.927 0 01-.7 4.222c-2.728 8.753-11.384 14.131-19.349 12.087-7.9-2.053-12.194-10.772-9.466-19.524a17.646 17.646 0 0112.8-12.2c-8.772-.168-17.361 6.242-20.273 15.794-3.429 11 1.967 21.966 11.9 24.548 10.013 2.569 20.9-4.192 24.326-15.2a22.183 22.183 0 00.762-9.727z" fill="#8a0d9a"/></g></g><g id="Group_1207" data-name="Group 1207" opacity=".3" style="mix-blend-mode:screen;isolation:isolate"><path id="Path_2555" data-name="Path 2555" d="M7685.4 1952.389c-5.452-6.322-12.963-10.805-20.39-14.438-18.366-8.825-38.936-12.151-59.074-14.046-4.17-.2-10.286-.72-14.42-.888-4.82-.121-9.646-.234-14.491-.482a212.138 212.138 0 0143.593.152c2.6.425 8.347 1.147 10.836 1.623 3.326.744 7.439 1.509 10.7 2.422l7.027 2.067c3.431 1.231 6.935 2.446 10.249 3.975 1.094.549 3.9 1.81 4.968 2.359 1.079.6 3.7 2.1 4.789 2.713 6.084 3.812 12.261 8.446 16.212 14.543z" fill="#fff"/></g><g id="Group_1208" data-name="Group 1208" opacity=".58" style="mix-blend-mode:screen;isolation:isolate"><path id="Path_2556" data-name="Path 2556" d="M7812.851 2457.167c-1.825-4.083-5.894-6.677-9.1-5.759s-4.325 4.982-2.5 9.064c1.807 4.1 5.873 6.654 9.057 5.752 3.205-.918 4.35-4.959 2.543-9.057z" fill="#ffd101"/></g><g id="Group_1212" data-name="Group 1212"><g id="Group_1209" data-name="Group 1209"><path id="Path_2557" data-name="Path 2557" d="M7866.74 2543.538c-.625 0-1.254-.031-1.871-.093a16.444 16.444 0 01-12.05-6.9 18.374 18.374 0 01-2.465-15.089c2.452-9.837 11.631-17.263 21.351-17.263.622 0 1.249.031 1.863.092a16.436 16.436 0 0112.038 6.915 18.452 18.452 0 012.489 15.157c-2.564 9.809-11.741 17.182-21.355 17.182z" fill="#d63eff"/><path id="Path_2558" data-name="Path 2558" d="M7871.706 2508.191c.488 0 .977.024 1.465.073 8.276.827 13.212 8.521 11.045 17.113-2.114 8.092-9.7 14.161-17.475 14.161-.49 0-.982-.024-1.472-.073-8.279-.827-13.2-8.439-11.035-17.031 2.032-8.16 9.68-14.243 17.472-14.243m0-8c-11.5 0-22.352 8.731-25.235 20.309a22.344 22.344 0 003.073 18.341 20.391 20.391 0 0014.93 8.585c.745.074 1.509.112 2.267.112 11.375 0 22.216-8.657 25.215-20.139l.008-.032.008-.032a22.445 22.445 0 00-3.092-18.435 20.376 20.376 0 00-14.913-8.6 22.699 22.699 0 00-2.261-.113z"/></g><g id="Group_1210" data-name="Group 1210" opacity=".8" style="mix-blend-mode:multiply;isolation:isolate"><path id="Path_2559" data-name="Path 2559" d="M7869.256 2528.408c-6.94-.693-11.461-6.175-11.484-12.986a18.664 18.664 0 00-3.538 7.012c-2.169 8.592 2.756 16.2 11.035 17.031s16.7-5.487 18.946-14.087a16.047 16.047 0 00.445-4.136c-3.769 4.772-9.6 7.749-15.404 7.166z" fill="#ac159f"/></g><g id="Group_1211" data-name="Group 1211" opacity=".58" style="mix-blend-mode:screen;isolation:isolate"><path id="Path_2560" data-name="Path 2560" d="M7877.671 2517.758c1.749-2.281.9-5.177-1.929-6.46a7.174 7.174 0 00-8.3 1.806c-1.774 2.278-.9 5.158 1.907 6.438a7.218 7.218 0 008.322-1.784z" fill="#ffd101"/></g></g><g id="Group_1218" data-name="Group 1218"><g id="Group_1215" data-name="Group 1215"><g id="Group_1214" data-name="Group 1214"><path id="Path_2561" data-name="Path 2561" d="M8001.675 2485.831a22.527 22.527 0 01-18.22-9 20.357 20.357 0 01-3.545-15.736 21.918 21.918 0 019.718-14.38 23.738 23.738 0 0113.078-3.912 22.374 22.374 0 0118.2 9.055 20.188 20.188 0 013.582 15.635 21.881 21.881 0 01-9.719 14.423 23.761 23.761 0 01-13.092 3.916z" fill="#a40900"/><g id="Group_1213" data-name="Group 1213"><path id="Path_2562" data-name="Path 2562" d="M8002.706 2446.8a18.3 18.3 0 0114.955 7.4c5.719 7.831 3.46 18.75-5.091 24.376a19.816 19.816 0 01-10.9 3.257 18.446 18.446 0 01-14.991-7.361c-5.669-7.87-3.411-18.791 5.142-24.414a19.8 19.8 0 0110.88-3.255m0-8a27.732 27.732 0 00-15.275 4.57 25.89 25.89 0 00-11.455 17 24.306 24.306 0 004.217 18.779l.016.022.016.023a26.54 26.54 0 0021.45 10.64 27.758 27.758 0 0015.29-4.572 26.2 26.2 0 0011.458-17.055 24.16 24.16 0 00-4.3-18.724 26.364 26.364 0 00-21.416-10.679z"/></g></g></g><g id="Group_1216" data-name="Group 1216" style="mix-blend-mode:multiply;isolation:isolate"><path id="Path_2563" data-name="Path 2563" d="M8001.442 2471.516a19.8 19.8 0 01-14.831 2.84c.026.037.046.077.073.114 5.762 7.884 17.333 9.727 25.886 4.1s10.81-16.545 5.091-24.376a17.9 17.9 0 00-11.084-6.991c5.659 7.831 3.393 18.703-5.135 24.313z" fill="#a40900"/></g><g id="Group_1217" data-name="Group 1217" opacity=".58" style="mix-blend-mode:screen;isolation:isolate"><ellipse id="Ellipse_43" data-name="Ellipse 43" cx="5.185" cy="2.825" rx="5.185" ry="2.825" transform="rotate(-46.42 6866.747 -8087.008)" fill="#ff4200"/></g></g></g></g></g></svg>