<svg xmlns="http://www.w3.org/2000/svg" xmlns:xlink="http://www.w3.org/1999/xlink" width="487.298" height="278.264"><defs><linearGradient id="linear-gradient" x1="142.843" y1="893.268" x2="142.843" y2="987.089" gradientUnits="objectBoundingBox"><stop offset="0" stop-color="#00ffd5"/><stop offset="1" stop-color="#01cb2d"/></linearGradient><linearGradient id="linear-gradient-2" x1=".405" y1="0" x2=".444" y2="1.049" xlink:href="#linear-gradient"/><linearGradient id="linear-gradient-3" x1=".5" y1="0" x2=".45" y2="1" xlink:href="#linear-gradient"/><linearGradient id="linear-gradient-4" x1="601.88" y1="722.832" x2="601.88" y2="801.959" xlink:href="#linear-gradient"/><linearGradient id="linear-gradient-5" x1="177.55" y1="218.471" x2="177.55" y2="242.277" xlink:href="#linear-gradient"/><linearGradient id="linear-gradient-6" x1="119.436" y1="190.643" x2="119.436" y2="210.713" xlink:href="#linear-gradient"/><linearGradient id="linear-gradient-7" x1="396.277" y1="627.302" x2="396.277" y2="693.689" xlink:href="#linear-gradient"/><linearGradient id="linear-gradient-8" x1=".568" y1="0" x2=".685" y2=".812" xlink:href="#linear-gradient"/><linearGradient id="linear-gradient-9" x1="-137.274" y1="159.126" x2="-137.274" y2="196.853" xlink:href="#linear-gradient"/><linearGradient id="linear-gradient-10" x1=".5" y1=".214" x2=".24" y2="1.062" xlink:href="#linear-gradient"/><linearGradient id="linear-gradient-11" x1="-68.801" y1="447.781" x2="-68.801" y2="541.895" xlink:href="#linear-gradient"/><linearGradient id="linear-gradient-12" x1=".637" y1=".061" x2=".547" y2="1" xlink:href="#linear-gradient"/><linearGradient id="linear-gradient-13" x1="-52.251" y1="148.833" x2="-52.251" y2="183.545" xlink:href="#linear-gradient"/><linearGradient id="linear-gradient-14" x1=".765" y1=".045" x2=".6" y2="1" xlink:href="#linear-gradient"/><linearGradient id="linear-gradient-15" x1="-261.27" y1="1030.475" x2="-261.27" y2="1314.943" xlink:href="#linear-gradient"/><linearGradient id="linear-gradient-16" x1="-76.053" y1="307.949" x2="-76.053" y2="392.684" xlink:href="#linear-gradient"/><linearGradient id="linear-gradient-17" x1=".318" y1="-.077" x2=".555" y2="1" xlink:href="#linear-gradient"/><linearGradient id="linear-gradient-18" x1=".5" y1="0" x2=".5" y2="1" xlink:href="#linear-gradient"/><linearGradient id="linear-gradient-19" x1=".36" y1=".136" x2=".34" y2="1.468" xlink:href="#linear-gradient"/><linearGradient id="linear-gradient-20" x1="-53.102" y1="429.201" x2="-53.102" y2="525.747" xlink:href="#linear-gradient"/><linearGradient id="linear-gradient-21" x1="-58.827" y1="172.452" x2="-58.827" y2="213.461" xlink:href="#linear-gradient"/><linearGradient id="linear-gradient-22" x1=".667" y1=".045" x2=".5" y2="1.054" xlink:href="#linear-gradient"/><linearGradient id="linear-gradient-23" x1="-165.266" y1="340.156" x2="-165.266" y2="452.887" xlink:href="#linear-gradient"/><linearGradient id="linear-gradient-24" x1=".5" y1="-.069" x2=".835" y2=".955" gradientUnits="objectBoundingBox"><stop offset="0" stop-color="#00ffd5"/><stop offset=".477" stop-color="#00e685"/><stop offset="1" stop-color="#01cb2d"/></linearGradient><clipPath id="clip-path"><path id="Path_106" data-name="Path 106" d="M8767.432 125.229a6.527 6.527 0 00-3.679-2.885c-.214-.08-.445-.159-.7-.244a7.337 7.337 0 00-1.685-.467 57.99 57.99 0 00-10.908-1.336c-1.348-.079-2.741-.16-4.08-.277a61.382 61.382 0 01-6.98-.987 28.392 28.392 0 006.371-10.662 31.785 31.785 0 002.1-4.928 34.543 34.543 0 001.723-13.5 44.08 44.08 0 00-4.7-16.514 41.167 41.167 0 00-9.936-12.941c-4.835-4.055-10.277-6.059-15.737-5.8a20.951 20.951 0 00-4.9.843 27.212 27.212 0 00-7.782 3.838 33.717 33.717 0 00-10.706 11.831 33.318 33.318 0 00-2.049 4.723c-3.908 7.425-5.068 16.746-3.37 26.624-1.524.657-3.447 2.229-3.97 5.984-1.165 1.238-2.129 3.3-2.121 6.721a27.459 27.459 0 001.761 8.75 63.326 63.326 0 003.734 8.533 104.473 104.473 0 009.957 15.521 72.123 72.123 0 006.134 7.07c2.136 2.133 4.674 4.509 7.77 5.712a6.386 6.386 0 004.147.366 4.94 4.94 0 00.6-.221 6.137 6.137 0 003.23-3.5 9.379 9.379 0 00.512-2.3 6.229 6.229 0 001.47-2.284c1.137-3.113.324-6.479-.329-9.185l-.127-.529a52.657 52.657 0 00-.493-1.876c-.109-.4-.219-.8-.322-1.2a15.136 15.136 0 012.8 2.99l.345.437.208.262a72.642 72.642 0 005.726 6.644c4.583 4.534 9.145 6.758 13.558 6.611a11.9 11.9 0 002.969-.495 19.461 19.461 0 005.925-3.108 34.247 34.247 0 006.6-6.507 31.05 31.05 0 004.579-7.785c.188-.478.38-1 .557-1.551a27.072 27.072 0 001.427-3.038c.998-2.528 2.116-6.252.371-9.34zM8719.2 112.11a4.81 4.81 0 01-.794.314 7.43 7.43 0 01-5.813-1.043c-.975-.613-1.612-1.323-1.65-1.832.03-.1.106-.283.16-.411s.111-.273.162-.408c.1-.273.2-.525.3-.783a24.331 24.331 0 011.213-2.206 5.466 5.466 0 012.645-2.5c.071-.02.144-.038.214-.051 2.021-.374 3.519 2.331 4.027 3.814a9.179 9.179 0 01.208 4.573 3.272 3.272 0 01-.672.533z"/></clipPath><clipPath id="clip-path-2"><path id="Path_114" data-name="Path 114" d="M8616.108 136.372a62.032 62.032 0 00-2.136-4.01l-.016-.027-.016-.026-.048-.078c-.1-.181-.214-.37-.334-.572l-.009.005-.008-.012h.009c-.571-.948-.958-1.586-1.2-1.986a6.3 6.3 0 00-.614-.881c-7.321-11.027-16.049-17.951-25.966-20.591a42.859 42.859 0 00-20.457.02c-1.41.315-2.883.7-4.5 1.178a142.5 142.5 0 00-5.126 1.639c-.9.3-1.839.6-2.743.877-.671.209-1.343.418-2.011.635a14.393 14.393 0 00-4.564 2.32 8.718 8.718 0 00-3.311 5.882 9.358 9.358 0 00-1.675 8.631 36.8 36.8 0 00-6.1 10.915 43.974 43.974 0 00-4.3 23.751 66.981 66.981 0 004.869 19.98c2.826 6.9 5.845 11.814 9.5 15.458a29.183 29.183 0 0017.906 8.253c6.023.616 12.625-.079 20.777-2.184 1.44-.373 2.711-.722 3.884-1.068 6.63-1.957 11.388-4.207 15.427-7.295a41.345 41.345 0 0012.3-15.526 40.22 40.22 0 001.273-3.134c.244-.481.482-.964.709-1.455 5.649-12.259 5.098-27.092-1.52-40.699zm-54.116 38.842c.174-.424.329-.836.482-1.248.08-.162.162-.323.238-.484.427-.9.852-1.861 1.261-2.857a35.419 35.419 0 001.686-5.115 14.069 14.069 0 014.269 7.381v.015a12.6 12.6 0 01.226 4.139 7.161 7.161 0 01-3.24 2.077 6.382 6.382 0 01-1.555.256 4.409 4.409 0 01-3.215-.986 2.318 2.318 0 01-.654-2.006c.17-.386.338-.773.502-1.172z"/></clipPath><clipPath id="clip-path-3"><path id="Path_122" data-name="Path 122" d="M8708.154 139.263a70.744 70.744 0 00-8.438-14.216l-.071-.095c-.113-.155-.237-.319-.369-.5l-1.776-2.352a7.9 7.9 0 00-.817-.966 107.093 107.093 0 00-10.513-11.307 69.825 69.825 0 00-17.421-12.257 30.232 30.232 0 00-11.011-3.15 14.147 14.147 0 00-4.746.508 10.172 10.172 0 00-3.957 2.165 12.062 12.062 0 00-3.765 6.591c-4.214 5.963-1.741 14.385-.481 18.669.947 3.22 2.09 6.393 3.2 9.462 1.353 3.757 2.752 7.641 3.749 11.522.979 3.816 1.88 8.589.821 13.092a9.854 9.854 0 01-2.5 2.5 6.653 6.653 0 01-1.842.876 4.869 4.869 0 01-4.321-.645c-1.764-1.306-2.926-3.728-3.555-7.4-.634-3.7-1.039-7.406-1.353-10.543a528.016 528.016 0 01-.569-6.193c-.477-5.422-.97-11.028-1.916-16.553a80.792 80.792 0 00-2.661-11.319 32.138 32.138 0 00-4.438-9.271 10.535 10.535 0 00-4.744-3.917c-2.778-1.043-6.1-.969-10.146.225-.281.083-.557.169-.83.257a40.96 40.96 0 00-18.311 12.866 37.872 37.872 0 00-6.824 11.787 29.319 29.319 0 00-3.51 12.482 34.564 34.564 0 003.083 14.8 68.636 68.636 0 0012.078 18.473A92.735 92.735 0 008616.02 179a69.9 69.9 0 009.28 5.58 34.834 34.834 0 009.829 3.413 21.12 21.12 0 009.427-.881q.473-.14.938-.291a69.628 69.628 0 0032.034-23.081c.291-.392.569-.787.844-1.193a25.776 25.776 0 003.876 4.068 14.071 14.071 0 0013.68 2.756l.646-.2a31.034 31.034 0 006.856-3.4 11.437 11.437 0 004.911-6.439c.116-.387.208-.777.288-1.168a11.328 11.328 0 001.694-3.421c1.645-5.507-.45-11.472-2.169-15.48z"/></clipPath><clipPath id="clip-path-4"><path id="Path_130" data-name="Path 130" d="M8772.917 192.812a65.63 65.63 0 00-.714-2.157 11.938 11.938 0 00-.437-1.217c-.039-.1-.079-.207-.122-.314-.018-.047-.035-.095-.054-.142a38.724 38.724 0 00-13.713-18.114 25.533 25.533 0 00-12.054-4.755 17.994 17.994 0 00-3.232-.019 17.019 17.019 0 00-9.685 4.011 22.228 22.228 0 00-4.976 6.188 23.745 23.745 0 00-2.934 4.232c-.181-.123-.353-.222-.485-.3l-.07-.04q-.5-.333-1.018-.656a56.436 56.436 0 00-5.045-2.837c-5.767-2.844-11.078-4.083-15.786-3.685a16.782 16.782 0 00-8.6 3.138 20.342 20.342 0 00-5.8 6.788c-4.844 5.446-6.425 13.26-7.183 19.035a97.735 97.735 0 00.506 26.383c.663 4.745 1.605 9.312 2.439 13.154a105.5 105.5 0 003.464 12.756c1.372 3.916 3.04 7.994 5.936 11.3a14.208 14.208 0 005.262 3.868 16.022 16.022 0 003.292.881 17.884 17.884 0 004.68.361 9.075 9.075 0 002.2-.451 5.315 5.315 0 003.575-4.4c1.435-.726 3.177-2.39 2.972-6.194a22.9 22.9 0 00-.939-4.942c6.277 7.14 13.038 11.9 20.158 14.169a28.957 28.957 0 0016.612.314 25.057 25.057 0 0013.14-8.733 34.66 34.66 0 002.589-3.773c.091-.111.188-.211.276-.323 5.611-7.075 8.741-16.956 9.568-30.209a93.467 93.467 0 00-3.822-33.317z"/></clipPath><clipPath id="clip-path-5"><path id="Path_136" data-name="Path 136" d="M8848.591 163.69a12.973 12.973 0 00-3.289-3.065 6.616 6.616 0 00-1.033-.612 5.85 5.85 0 00-1.258-.544 13.92 13.92 0 00-6.172-.765 19.031 19.031 0 00-2.055.291 31.546 31.546 0 00-3.5.965c-.615.2-1.2.381-1.774.541a93.977 93.977 0 01-15.609 2.764q-1.239.126-2.481.23c-4.595.389-9.486.607-15.393.687-3.721.049-7.52-.017-11.192-.081-2.318-.04-4.715-.082-7.082-.094a38.745 38.745 0 00-3.462.134 29.152 29.152 0 00-14.448 4.925 25.963 25.963 0 00-7.588 8.429 28.788 28.788 0 00-5.572 10.453 36.7 36.7 0 00-1.468 9.242 23.837 23.837 0 001.308 9.692 10.028 10.028 0 006.549 6.258 10.851 10.851 0 003.817.33 15.684 15.684 0 006.023-1.885 21.979 21.979 0 003.9-2.665c.628-.534 1.2-1.086 1.745-1.62.487-.473.946-.92 1.416-1.326a23.267 23.267 0 016.176-3.842 25.521 25.521 0 017.62-1.924c.24-.02.479-.036.716-.048l.034.1c4.125 11.619 1.092 24.235-1.844 36.435a572.06 572.06 0 00-.992 4.17l-.1.412a14.944 14.944 0 00-.534 5.959 11.157 11.157 0 003.183 5.989c3.032 3.135 7.095 4.822 10.295 5.942 6.884 2.409 14.745 3.651 24.031 3.8a73.2 73.2 0 007.379-.2 43.46 43.46 0 003.589-.448 6.416 6.416 0 005.225-4.967c3.681-2.3 3.5-7.971 3.429-10.331a63.808 63.808 0 00-1.854-12.287c-.868-3.743-1.982-7.708-3.407-12.122a237.011 237.011 0 00-4.185-11.9c-.343-.892-.706-1.791-1.058-2.659a44.033 44.033 0 01-2.729-8.193c-.05-.265-.086-.514-.116-.756.106-.015.21-.029.311-.039l.14-.012a23.08 23.08 0 013.131.033c.331.018.661.035.988.049a48.273 48.273 0 006.086-.046 22.434 22.434 0 005.108-.987 12.068 12.068 0 007.572-6.826 12.563 12.563 0 003.361-5.4 27.471 27.471 0 00.989-10.276c-.312-4.915-1.634-8.923-3.926-11.91z"/></clipPath><clipPath id="clip-path-6"><path id="Path_142" data-name="Path 142" d="M8687.583 187.456a11.1 11.1 0 00-1.205-1.382 12.153 12.153 0 00-1.216-1.184 26.419 26.419 0 00-19.976-6.48l-.277.025a20.556 20.556 0 00-6.417 1.579 27.7 27.7 0 00-5.315 3.16 49.755 49.755 0 00-8.475 8.161 69.8 69.8 0 00-5.123 6.957 73.548 73.548 0 00-9.121 16.021c-3.568 8.584-5.211 16.254-5.024 23.447a37.552 37.552 0 008.276 22.474 52.25 52.25 0 0018.29 14.28c5.765 2.776 14.532 5.949 23.561 5.3.127-.009.255-.019.382-.03 4.6-.389 7.892-1.771 10.067-4.226a10.941 10.941 0 001.952-3.191 10.393 10.393 0 00.913-.9c2.646-2.985 3.564-7.552 2.519-12.531-.48-2.283-2.08-7.874-6.561-10.46a6.659 6.659 0 00-3.883-.942l-.124.011a8.983 8.983 0 00-2.814.9c-.258.118-.5.229-.714.31-.9.345-1.847.648-2.821.916a32.84 32.84 0 003.11-2.755 37.88 37.88 0 005.4-6.965 44.481 44.481 0 006.807-12.28 60.789 60.789 0 003.888-19.9c.112-5.849-.904-13.93-6.099-20.315zm-38.718 49.864q-.053-.275-.094-.558a15.9 15.9 0 011.306-8.876 6.8 6.8 0 013.85-2.134c.1-.009.207-.013.31-.013a2.866 2.866 0 012.674 3.067v.016a7.307 7.307 0 01-.861 3.394 20.964 20.964 0 01-7.185 5.104z"/></clipPath><clipPath id="clip-path-7"><path id="Path_149" data-name="Path 149" d="M8623.942 231.823a14.424 14.424 0 00-4.873-5.077l-.025-.016-.025-.016-.033-.021c-.076-.052-.144-.094-.2-.129l-.009-.006a11.483 11.483 0 00-1.851-1.056 35.613 35.613 0 00-11.526-3.431 44.707 44.707 0 00-7.56-.33c-.789.024-1.5.063-2.171.12a22.88 22.88 0 00-5.139.975c-4.349 1.407-7.968 4.587-10.759 9.451-.014.022-.025.044-.037.067a25.667 25.667 0 00-2.828 4.029c-.474.824-.921 1.658-1.355 2.465a76.614 76.614 0 01-1.57 2.814 39.575 39.575 0 01-.633-7.833c.036-8.5 1.711-17.146 3.331-25.508l.21-1.085c.184-.947.374-1.9.564-2.846a105.385 105.385 0 001.937-12.082v-.053a13.192 13.192 0 00-.3-5.222c-.771-2.31-2.752-3.92-5.885-4.784a23.523 23.523 0 00-8.229-.628 41.547 41.547 0 00-7.55 1.416 32.739 32.739 0 00-12.357 5.968 10.921 10.921 0 00-2.949 4.175 12.891 12.891 0 00-3.635 6.27 35.041 35.041 0 00-1.248 7.687 82.859 82.859 0 00.594 15.334 145.3 145.3 0 006.911 30.214c2.919 8.487 7.013 17.988 15.24 24.1a30.458 30.458 0 0013.087 5.506 34.83 34.83 0 008.684.393 28.248 28.248 0 006.357-1.263c8.069-2.631 15.889-8.532 23.243-17.538a72.636 72.636 0 004.764-6.527 61.9 61.9 0 006.152-9.868c2.396-4.864 4.459-10.529 1.673-15.665z"/></clipPath><clipPath id="clip-path-8"><path id="Path_159" data-name="Path 159" d="M8648.576 182.831c-2.276-4.07-6.038-7.218-11.187-9.359l-.194-.123-.322-.073a48.9 48.9 0 00-19.735-2.916l-.262.021a28.109 28.109 0 00-11.3 3.2 19.538 19.538 0 00-7.726 7.986 21.682 21.682 0 00-3.2 4.715c-3.149 6.229-4.3 15.233 1.907 21.827a24.4 24.4 0 0010.052 6.1 42.564 42.564 0 0011.5 2.277 31.767 31.767 0 004.514-.05 26.719 26.719 0 003.737-.578l.214.156a9.027 9.027 0 002.661 1.336 16.585 16.585 0 01-8.646 2.963l-.145.012c-.374.029-.764.046-1.174.063-.478.021-.972.042-1.48.085a11.646 11.646 0 00-2.618.489 7.394 7.394 0 00-4.829 4.65c-.064.171-.123.343-.181.515a7.578 7.578 0 00-2.684 3.581 27.271 27.271 0 00-1.3 5.663l-.086.56c-.37 2.369-.708 4.309-1.062 6.1a109.72 109.72 0 00-1.748 12.77 58.771 58.771 0 00.148 13.5l.033.216c.26 1.7.653 4.277 2.443 5.856a8.274 8.274 0 003.32 1.573l.032.009a42.211 42.211 0 0013.177 1.4 42.806 42.806 0 001.889-.116 28.492 28.492 0 004.914-.815l.133-.035c1.345-.354 3.848-1.013 4.649-3.568.132-.421.243-.847.347-1.273a4.671 4.671 0 002.518-2.823 31.57 31.57 0 001.073-5.575 92.43 92.43 0 00.573-6.655c.22-4.233.235-8.558.044-12.856-.027-.6-.062-1.227-.109-1.945 0-.09 0-.184-.012-.281l-.057-.775c-.045-.549-.068-.836-.079-.955a108.068 108.068 0 00-1.394-11.338 28.929 28.929 0 00-3.924-10.386l-.169-.264c4.616-.472 8.428-4.107 9.863-5.665a24 24 0 003.561-4.877 21.3 21.3 0 003.477-5.341 20.754 20.754 0 001.684-8.693 21.589 21.589 0 00-2.84-10.288z"/></clipPath><clipPath id="clip-path-9"><path id="Path_166" data-name="Path 166" d="M8920.842 200.779a27.765 27.765 0 00-2.1-2.644 13.211 13.211 0 00-1.007-1.071c-.38-.379-.687-.686-.977-.922-5.085-4.617-12.011-7.241-20.32-7.735a28.661 28.661 0 003.384-4.585 28.415 28.415 0 006.675-22.344 19.4 19.4 0 00-4.46-10.121 16.218 16.218 0 00-10.3-5.2 19.414 19.414 0 00-3.639-.091 22.162 22.162 0 00-15.26 8.253 29.766 29.766 0 00-2.539 3.61c-.129.148-.26.292-.386.444a29.234 29.234 0 00-2.161 3 61.655 61.655 0 00-4.969.135 47.491 47.491 0 00-7.493 1.1c-5.618 1.315-9.991 3.6-13 6.786a18.336 18.336 0 00-2.809 3.942c-.037.038-.079.073-.115.111a21.528 21.528 0 00-5.429 13.587 22.844 22.844 0 004.034 14.494 24.261 24.261 0 0011.475 8.44c.987.372 2.033.709 3.1 1l.146.054a6.524 6.524 0 00.969.3c-.028.049-.054.1-.081.148-.079.084-.159.168-.237.254a18.784 18.784 0 00-4.632 9.28 21.7 21.7 0 001.108 11.044c2.621 7.357 7.882 12.552 11.833 15.615a41.708 41.708 0 0017.534 8.006 36.6 36.6 0 009.483.555 40.206 40.206 0 0027.032-13.166 33.212 33.212 0 003.524-4.751 30.776 30.776 0 007.316-17.218 31.763 31.763 0 00-5.699-20.31z"/></clipPath><clipPath id="clip-path-10"><path id="Path_173" data-name="Path 173" d="M8566.236 267a13.752 13.752 0 00-2.577-6.013 6.79 6.79 0 00-.923-1.014l-.023-.022-.007-.006a17.588 17.588 0 00-3.741-2.505 11.781 11.781 0 00-5.956-1.609c-.1 0-.2.011-.3.019a11.992 11.992 0 00-5.211 2c-.442.269-.88.544-1.317.82-.927.583-1.8 1.134-2.7 1.61a11.247 11.247 0 01-4.368 1.306 12.492 12.492 0 01-3.516-.224 23.732 23.732 0 01-7.919-3.336 30.747 30.747 0 01-11.782-13.128 16.83 16.83 0 01-1.52-6.5 25.248 25.248 0 0017.5 5.614 18.236 18.236 0 008.711-2.984 15.267 15.267 0 005.32-6.135 15.219 15.219 0 004.325-11.577c-.263-4.729-2.491-9.571-6.447-14-6.271-7.026-15.651-12.341-25.735-14.58a43.206 43.206 0 00-12.82-.954c-6.537.553-11.929 2.755-16.021 6.545a21.269 21.269 0 00-4.264 5.539 22.779 22.779 0 00-5.225 10.652c-.747 3.65-.391 7.834 1.086 12.791a62.983 62.983 0 006.449 14.143 113.924 113.924 0 008.765 12.608 142.253 142.253 0 0021.663 21.9c4.365 3.539 8.827 5.968 12.666 8.883 4.7 3.569 10.209 7.182 14.924 5.77 1.238-.371 2.563.181 3.8.076a14.931 14.931 0 0010.855-5.827 17.527 17.527 0 001.666-2.707 14.425 14.425 0 001.2-1.39 20.428 20.428 0 003.442-15.765z"/></clipPath></defs><g id="Group_1817" data-name="Group 1817" transform="translate(-272.34 -1018.368)"><g id="Group_1816" data-name="Group 1816" transform="translate(-8186.995 983.697)"><g id="Group_91" data-name="Group 91"><g id="Group_46" data-name="Group 46"><path id="Path_98" data-name="Path 98" d="M8543.024 308.935c-10.031 0-18.353-6.321-22.352-9.358-1.232-.935-2.77-1.947-4.4-3.017a103.869 103.869 0 01-8.674-6.182 158.235 158.235 0 01-24.1-24.359 130.175 130.175 0 01-10-14.4 78.661 78.661 0 01-8.03-17.75c-2.248-7.541-2.715-14.268-1.428-20.564a39.239 39.239 0 017.73-16.644 37.131 37.131 0 016.562-8.081c6.771-6.272 15.365-9.889 25.545-10.75a53.573 53.573 0 014.5-.187 59.676 59.676 0 018.787.659 80.4 80.4 0 01-2.142-12.984 60.468 60.468 0 015.545-31.4 53.75 53.75 0 014.486-9.143 25.012 25.012 0 013.1-10.5 24.686 24.686 0 018.293-11.975 30.009 30.009 0 019.554-4.983c.727-.235 1.45-.462 2.175-.688.819-.255 1.625-.5 2.4-.766a157.759 157.759 0 015.708-1.822 83.466 83.466 0 015.538-1.447 66.725 66.725 0 0114.28-1.621 54.274 54.274 0 0111.515 1.208 55.162 55.162 0 0121.145-12.967c.392-.126.795-.251 1.205-.371a37 37 0 0110.438-1.6 27.968 27.968 0 019.864 1.74 25.01 25.01 0 018.741 5.625 26.166 26.166 0 019.444-5.023 29.708 29.708 0 018.408-1.185q.847 0 1.7.045a44.562 44.562 0 0116.116 4.246 51.511 51.511 0 014.392-13.134 49 49 0 012.634-5.868 49.612 49.612 0 0115.697-17.446 43.136 43.136 0 0112.395-6.052 37.07 37.07 0 018.661-1.478 36.635 36.635 0 011.751-.043c8.921 0 17.579 3.307 25.037 9.561a57.231 57.231 0 0113.956 18.026 59.981 59.981 0 016.356 22.5 50.157 50.157 0 01-1.677 17.032c.184.04.367.082.55.124a24.482 24.482 0 013.8 1.046c.384.131.705.244 1 .353a22.34 22.34 0 0112.133 10.047c3.776 6.684 3.979 14.441.6 23.057a41.723 41.723 0 01-1.586 3.542c-.125.343-.256.691-.4 1.049a42.259 42.259 0 01-1.319 3.008c2.142.017 4.3.053 6.4.09 2.7.047 5.5.1 8.208.1q1.283 0 2.551-.016c5.526-.075 10.057-.275 14.256-.631.747-.063 1.484-.131 2.22-.205a78.6 78.6 0 0012.96-2.267c.338-.094.679-.205 1.038-.319l.134-.043a45.507 45.507 0 015.269-1.422 35.139 35.139 0 013.8-.535c.93-.079 1.866-.119 2.78-.119a29.371 29.371 0 019.727 1.612 21.9 21.9 0 013.554 1.51c.375.192.961.492 1.665.919q2.944-.6 6-.924c.42-.563.853-1.112 1.291-1.642a38.2 38.2 0 0126.477-14.015c.81-.057 1.636-.086 2.452-.086a35.225 35.225 0 014.212.253 32.172 32.172 0 0120.374 10.483 35.336 35.336 0 018.3 18.4 44.272 44.272 0 01-1.828 19.982 42.652 42.652 0 016.8 4.964c.7.6 1.334 1.231 1.752 1.651.555.553 1.189 1.186 1.866 2a44 44 0 013.029 3.855 48.022 48.022 0 018.548 30.744 46.947 46.947 0 01-10.265 25.335 49.239 49.239 0 01-4.581 6.021 56.319 56.319 0 01-37.863 18.482 54.067 54.067 0 01-3.748.131 52.307 52.307 0 01-9.882-.936A57.8 57.8 0 018852 260.429a22.519 22.519 0 01-3.977 6.451 21.879 21.879 0 01-15.824 11.212 59.243 59.243 0 01-4.919.616c-2.127.181-4.406.269-6.967.269-.647 0-1.316-.006-2.011-.017-11.031-.175-20.539-1.711-29.063-4.694a47.315 47.315 0 01-11.206-5.47q-.593.814-1.2 1.58a40.752 40.752 0 01-21.365 14.2 45.034 45.034 0 01-8.285 1.495 45.702 45.702 0 01-3.819.161 45.016 45.016 0 01-13.676-2.133 52.129 52.129 0 01-8.051-3.348 21.283 21.283 0 01-7.642 4.594 25.016 25.016 0 01-6.071 1.268c-.763.065-1.551.1-2.337.1a36.454 36.454 0 01-6.532-.657c-.256-.046-.535-.1-.836-.158-.078.092-.157.182-.237.272-4.963 5.6-11.926 8.812-20.69 9.555l-.5.04q-1.806.132-3.605.131c-11.295 0-21.529-3.789-28.127-6.966a76.154 76.154 0 01-2.66-1.347 24.6 24.6 0 01-8.954 4.283l-.129.033a44.156 44.156 0 01-7.636 1.286 64.15 64.15 0 01-5.263.215 57.324 57.324 0 01-15.565-2.062l-.262-.076a54.293 54.293 0 01-11.511 5.372 44.328 44.328 0 01-9.964 1.994 48.856 48.856 0 01-4.083.171 51.925 51.925 0 01-7.73-.589 30.794 30.794 0 01-20.885 10.415c-.553.047-1.122.071-1.691.071-.594 0-1.193-.026-1.818-.078a23.9 23.9 0 01-3.885.317z" fill="#fff"/><path id="Path_99" data-name="Path 99" d="M8720.207 42.671c7.978 0 15.716 2.964 22.466 8.625a53.22 53.22 0 0112.95 16.754 56.029 56.029 0 015.943 21 46.5 46.5 0 01-2.3 18.165q-.287.87-.609 1.724a49.336 49.336 0 014.969.89 20.478 20.478 0 013.3.909c.348.12.646.224.92.324a18.408 18.408 0 0110.028 8.26c3.155 5.584 3.276 12.188.358 19.628a38.214 38.214 0 01-1.541 3.415c-.138.383-.284.774-.442 1.177a41.682 41.682 0 01-4.832 8.831 50.204 50.204 0 016.097-.37h.3c2.394.014 4.818.054 7.166.1 2.747.048 5.528.1 8.271.1q1.311 0 2.609-.017c5.618-.075 10.239-.28 14.54-.645.767-.064 1.525-.134 2.285-.211a82.346 82.346 0 0013.622-2.391c.43-.119.863-.26 1.323-.406a41.378 41.378 0 014.821-1.307 31.216 31.216 0 013.369-.476q1.236-.1 2.443-.1a25.3 25.3 0 018.47 1.414 18.025 18.025 0 012.994 1.274 18.883 18.883 0 012.378 1.411c.106.072.213.143.318.216l.126-.03a59.417 59.417 0 018.852-1.347c.7-1.023 1.432-2 2.186-2.908a34.191 34.191 0 0123.671-12.574q1.087-.075 2.178-.076a31.145 31.145 0 013.73.224 28.182 28.182 0 0117.856 9.162 31.345 31.345 0 017.344 16.332 40.263 40.263 0 01-2.839 21.276 39.2 39.2 0 019.1 6.071c.634.54 1.157 1.063 1.588 1.494.536.536 1.091 1.09 1.661 1.776a40.127 40.127 0 012.788 3.544 43.949 43.949 0 017.837 28.137 42.83 42.83 0 01-9.525 23.306 45.223 45.223 0 01-4.319 5.7 52.317 52.317 0 01-35.155 17.152q-1.739.122-3.469.121a48.185 48.185 0 01-9.124-.864 54.019 54.019 0 01-27.1-14.2 20.649 20.649 0 01-5.088 11.293 17.932 17.932 0 01-13.207 9.593c-1.464.248-3 .441-4.579.573-2.02.172-4.162.254-6.632.254-.627 0-1.274-.005-1.946-.016-10.594-.167-19.69-1.629-27.806-4.469a39.486 39.486 0 01-13.413-7.446q-.234.306-.473.609a45.754 45.754 0 01-2.975 4.236 36.83 36.83 0 01-19.309 12.834 40.878 40.878 0 01-7.548 1.362q-1.745.147-3.48.147a40.935 40.935 0 01-12.46-1.945 48.693 48.693 0 01-10.095-4.569 17.158 17.158 0 01-8.116 5.846 21.048 21.048 0 01-5.1 1.063c-.687.059-1.355.084-2 .084a32.173 32.173 0 01-5.819-.594c-.945-.171-2-.383-3.131-.7a22.28 22.28 0 01-1.646 2.1c-4.261 4.8-10.329 7.571-18.036 8.223l-.483.039c-1.1.08-2.2.117-3.285.117-10.443 0-19.98-3.48-26.393-6.569q-2.55-1.229-4.954-2.633a19.207 19.207 0 01-9.414 5.3l-.13.034a40.28 40.28 0 01-6.956 1.168 60.98 60.98 0 01-4.922.201 53.043 53.043 0 01-14.461-1.907l-.089-.026c-.468-.134-1.1-.316-1.846-.582a50.927 50.927 0 01-12.183 5.946 40.217 40.217 0 01-9.062 1.811q-1.854.158-3.745.157a48.11 48.11 0 01-7.94-.672 45.713 45.713 0 01-1.424-.264c-.052.071-.1.142-.157.212a26.782 26.782 0 01-19.43 10.564 15.72 15.72 0 01-1.352.057 18.3 18.3 0 01-1.984-.112 19.728 19.728 0 01-3.722.352c-8.684 0-16.043-5.59-19.934-8.543-1.339-1.017-2.931-2.065-4.616-3.174a100.354 100.354 0 01-8.352-5.946 154.252 154.252 0 01-23.5-23.744 125.821 125.821 0 01-9.688-13.948 74.676 74.676 0 01-7.635-16.847c-2.056-6.9-2.5-12.989-1.343-18.622a35.082 35.082 0 017.1-15.151 33.048 33.048 0 015.989-7.44c6.1-5.653 13.9-8.915 23.164-9.7a49.56 49.56 0 014.166-.173 57.033 57.033 0 0112.268 1.369q1.113.248 2.221.536a77.585 77.585 0 01-3.843-18.549 56.39 56.39 0 015.233-29.489 49.477 49.477 0 014.76-9.492 20.871 20.871 0 012.846-10.144 20.742 20.742 0 017.077-10.435 26.125 26.125 0 018.307-4.32c.712-.23 1.422-.452 2.133-.674.825-.257 1.671-.52 2.487-.795a156.46 156.46 0 015.56-1.776 80.637 80.637 0 015.281-1.379 62.454 62.454 0 0113.407-1.525 49.413 49.413 0 0112.753 1.62h.007a52.085 52.085 0 0121.128-13.573c.36-.116.731-.231 1.108-.342a32.931 32.931 0 019.307-1.439 23.934 23.934 0 018.458 1.486 22.223 22.223 0 019.939 7.7 24.094 24.094 0 012.221-2.271 22.088 22.088 0 018.563-4.734 25.634 25.634 0 017.276-1.022q.743 0 1.5.04a41.654 41.654 0 0115.493 4.275q2.013.948 4.013 2.068a48.878 48.878 0 014.885-17.635 44.694 44.694 0 012.49-5.579 45.613 45.613 0 0114.441-16.041 39.128 39.128 0 0111.242-5.5 33.01 33.01 0 017.723-1.32q.781-.038 1.558-.037m0-8c-.643 0-1.3.015-1.943.047a41.01 41.01 0 00-9.6 1.636 47.078 47.078 0 00-13.551 6.606 53.547 53.547 0 00-16.935 18.847 52.916 52.916 0 00-2.778 6.156 54.552 54.552 0 00-3.527 9.247 45.2 45.2 0 00-13.094-2.761 36.31 36.31 0 00-1.915-.051 33.676 33.676 0 00-9.54 1.349 30.436 30.436 0 00-8.1 3.731 28.485 28.485 0 00-7.545-4.242 31.955 31.955 0 00-11.27-2A40.986 40.986 0 008608.84 75q-.669.2-1.3.4a58.613 58.613 0 00-21.154 12.454 59 59 0 00-10.28-.888 70.7 70.7 0 00-15.125 1.711 88.581 88.581 0 00-5.826 1.52c-2.138.631-4.155 1.3-5.848 1.867-.729.245-1.483.48-2.222.709l-.095.03c-.741.231-1.479.462-2.217.7a33.975 33.975 0 00-10.8 5.653 28.679 28.679 0 00-9.5 13.519 28.972 28.972 0 00-3.316 10.828 57.821 57.821 0 00-4.258 8.824 64.526 64.526 0 00-5.856 33.31q.327 4.055 1.061 8.115-1.863-.111-3.719-.112c-1.636 0-3.265.068-4.841.2-11.089.938-20.484 4.909-27.925 11.8a41.08 41.08 0 00-7.13 8.722 43.3 43.3 0 00-8.363 18.134c-1.422 6.959-.927 14.322 1.514 22.511a82.605 82.605 0 008.424 18.651 133.931 133.931 0 0010.307 14.841 162.289 162.289 0 0024.716 24.976 106.541 106.541 0 008.987 6.411c1.571 1.035 3.051 2.009 4.183 2.868 4.348 3.3 13.4 10.171 24.771 10.171a27.918 27.918 0 004.046-.295 24.38 24.38 0 003.689-.03 34.824 34.824 0 0022.068-10.166 55.412 55.412 0 006.205.354 52.64 52.64 0 004.42-.186 48.238 48.238 0 0010.869-2.177 57.613 57.613 0 0010.853-4.868 62.469 62.469 0 0015.243 1.832 68.42 68.42 0 005.604-.23 48.126 48.126 0 008.323-1.4l.138-.036a29.623 29.623 0 008.235-3.492q.3.15.608.3c6.973 3.358 17.813 7.361 29.864 7.361 1.293 0 2.593-.046 3.861-.138h.066l.482-.039c9.117-.772 16.522-3.963 22.067-9.5a37.716 37.716 0 005.924.5c.9 0 1.8-.038 2.682-.112a29.009 29.009 0 007.031-1.473 25.417 25.417 0 006.913-3.646 55.206 55.206 0 006.261 2.429 49 49 0 0014.89 2.323c1.377 0 2.774-.059 4.155-.175a48.988 48.988 0 009.029-1.63 44.593 44.593 0 0022.42-14.346 55.368 55.368 0 008.949 3.96c8.938 3.127 18.856 4.736 30.322 4.917q1.074.018 2.073.017c2.676 0 5.065-.092 7.308-.282a63.937 63.937 0 005.237-.656 25.788 25.788 0 0018.455-12.845 25.574 25.574 0 002.112-2.846 61.575 61.575 0 0021.974 8.966 56.262 56.262 0 0010.641 1.009c1.333 0 2.688-.047 4.024-.14a60.31 60.31 0 0040.57-19.81 53.165 53.165 0 004.847-6.342 50.969 50.969 0 0011-27.362 52.1 52.1 0 00-9.256-33.351 48.409 48.409 0 00-3.275-4.171c-.778-.927-1.5-1.644-2.077-2.224a34.318 34.318 0 00-1.973-1.856 46.191 46.191 0 00-4.723-3.687 47.969 47.969 0 001.105-18.8 39.318 39.318 0 00-9.267-20.474 36.168 36.168 0 00-22.9-11.807 39.4 39.4 0 00-4.681-.28c-.91 0-1.83.032-2.736.1a42.214 42.214 0 00-29.275 15.453c-.113.138-.229.278-.342.419q-1.611.21-3.181.493c-.206-.109-.383-.2-.525-.272a25.711 25.711 0 00-4.115-1.746 33.348 33.348 0 00-11-1.823 37.23 37.23 0 00-3.118.133 39.228 39.228 0 00-4.234.6 48.683 48.683 0 00-5.684 1.527l-.192.061c-.3.1-.583.188-.866.267a74.652 74.652 0 01-12.29 2.141c-.713.072-1.426.138-2.146.2-4.111.349-8.55.545-13.982.618q-1.241.017-2.5.016c-2.681 0-5.452-.049-8.132-.1l-.383-.006q.507-1.114.941-2.225c4.783-12.193 2.184-21.131-.841-26.482a26.308 26.308 0 00-14.291-11.855c-.274-.1-.618-.22-1.019-.358-.268-.091-.557-.19-.867-.292a53.752 53.752 0 00.877-14.426 63.983 63.983 0 00-6.77-24 61.3 61.3 0 00-14.96-19.3c-8.187-6.866-17.733-10.495-27.607-10.495z" fill="#fff"/><path id="Path_100" data-name="Path 100" d="M8720.207 42.671c7.978 0 15.716 2.964 22.466 8.625a53.22 53.22 0 0112.95 16.754 56.029 56.029 0 015.943 21 46.5 46.5 0 01-2.3 18.165q-.287.87-.609 1.724a49.336 49.336 0 014.969.89 20.371 20.371 0 013.3.91c.348.119.646.223.92.323a18.408 18.408 0 0110.028 8.26c3.155 5.584 3.276 12.188.358 19.628a38.214 38.214 0 01-1.541 3.415c-.138.383-.284.774-.442 1.177a41.682 41.682 0 01-4.832 8.831 50.204 50.204 0 016.097-.37h.3c2.394.014 4.818.054 7.166.1 2.747.048 5.529.1 8.272.1q1.311 0 2.608-.017c5.618-.075 10.239-.28 14.54-.645.767-.064 1.525-.134 2.285-.211a82.346 82.346 0 0013.622-2.391c.43-.119.863-.26 1.323-.406a41.378 41.378 0 014.821-1.307 31.216 31.216 0 013.369-.476q1.236-.1 2.443-.1a25.3 25.3 0 018.47 1.414 18.025 18.025 0 012.994 1.274 18.883 18.883 0 012.378 1.411c.106.072.213.143.318.216l.126-.03a59.417 59.417 0 018.852-1.347c.7-1.023 1.432-2 2.186-2.908a34.191 34.191 0 0123.671-12.574q1.087-.075 2.178-.076a31.145 31.145 0 013.73.224 28.182 28.182 0 0117.856 9.162 31.345 31.345 0 017.344 16.332 40.263 40.263 0 01-2.839 21.276 39.2 39.2 0 019.1 6.071c.634.54 1.157 1.063 1.588 1.494.536.536 1.091 1.09 1.661 1.776a40.127 40.127 0 012.788 3.544 43.949 43.949 0 017.837 28.137 42.83 42.83 0 01-9.525 23.306 45.223 45.223 0 01-4.319 5.7 52.317 52.317 0 01-35.155 17.152q-1.739.122-3.469.121a48.267 48.267 0 01-9.124-.863 54 54 0 01-27.1-14.2 20.649 20.649 0 01-5.088 11.293 17.932 17.932 0 01-13.207 9.593c-1.464.248-3 .441-4.579.573-2.02.172-4.162.254-6.632.254q-.939 0-1.946-.016c-10.594-.167-19.69-1.629-27.806-4.469a39.486 39.486 0 01-13.413-7.446q-.234.306-.473.609a45.754 45.754 0 01-2.975 4.236 36.83 36.83 0 01-19.309 12.834 40.878 40.878 0 01-7.548 1.362q-1.745.147-3.48.147a40.94 40.94 0 01-12.46-1.945 48.693 48.693 0 01-10.095-4.569 17.158 17.158 0 01-8.116 5.846 21.048 21.048 0 01-5.1 1.063c-.687.059-1.355.084-2 .084a32.173 32.173 0 01-5.819-.594c-.945-.171-2-.383-3.131-.7a22.28 22.28 0 01-1.646 2.1c-4.261 4.8-10.329 7.571-18.036 8.223l-.483.039c-1.1.08-2.2.117-3.285.117-10.443 0-19.98-3.48-26.393-6.569q-2.55-1.229-4.954-2.633a19.207 19.207 0 01-9.414 5.3l-.13.034a40.28 40.28 0 01-6.956 1.168 60.98 60.98 0 01-4.922.201 53.048 53.048 0 01-14.461-1.907l-.089-.026c-.468-.134-1.1-.316-1.846-.582a50.927 50.927 0 01-12.183 5.946 40.217 40.217 0 01-9.062 1.811q-1.854.158-3.745.157a48.1 48.1 0 01-7.94-.672 45.713 45.713 0 01-1.424-.264c-.052.071-.1.142-.157.212a26.782 26.782 0 01-19.43 10.564c-.476.041-.928.057-1.352.057a18.3 18.3 0 01-1.984-.112 19.728 19.728 0 01-3.722.352c-8.684 0-16.043-5.59-19.934-8.543-1.339-1.017-2.931-2.065-4.616-3.174a100.354 100.354 0 01-8.352-5.946 154.252 154.252 0 01-23.5-23.744 125.821 125.821 0 01-9.688-13.948 74.676 74.676 0 01-7.635-16.847c-2.056-6.9-2.5-12.989-1.343-18.622a35.082 35.082 0 017.1-15.151 33.048 33.048 0 015.989-7.44c6.1-5.653 13.9-8.915 23.164-9.7a49.554 49.554 0 014.165-.173 57.035 57.035 0 0112.269 1.369q1.113.248 2.221.536a77.585 77.585 0 01-3.843-18.55 56.39 56.39 0 015.233-29.489 49.477 49.477 0 014.76-9.492 20.874 20.874 0 012.846-10.144 20.742 20.742 0 017.077-10.435 26.125 26.125 0 018.307-4.32c.712-.23 1.422-.452 2.133-.674.825-.257 1.671-.52 2.487-.795a156.46 156.46 0 015.56-1.776 81.313 81.313 0 015.281-1.38 62.515 62.515 0 0113.407-1.524 49.413 49.413 0 0112.753 1.62h.007a52.085 52.085 0 0121.128-13.573c.36-.116.731-.231 1.108-.342a32.892 32.892 0 019.307-1.438 23.911 23.911 0 018.458 1.485 22.223 22.223 0 019.939 7.7 24.094 24.094 0 012.221-2.271 22.088 22.088 0 018.563-4.734 25.634 25.634 0 017.276-1.022q.743 0 1.5.04a41.654 41.654 0 0115.493 4.275q2.013.948 4.013 2.068a48.878 48.878 0 014.885-17.635 44.694 44.694 0 012.49-5.579 45.613 45.613 0 0114.441-16.041 39.128 39.128 0 0111.242-5.5 33.01 33.01 0 017.723-1.32q.781-.038 1.558-.037m0-6c-.612 0-1.235.015-1.847.044a38.976 38.976 0 00-9.128 1.557 45.14 45.14 0 00-12.976 6.33 51.553 51.553 0 00-16.31 18.145 50.671 50.671 0 00-2.707 6.011 52.947 52.947 0 00-4 11.128 44.594 44.594 0 00-14.569-3.44c-.6-.032-1.213-.048-1.81-.048a31.678 31.678 0 00-8.975 1.267 28.275 28.275 0 00-8.772 4.319 26.682 26.682 0 00-8.145-4.875 29.948 29.948 0 00-10.566-1.868 38.981 38.981 0 00-11 1.683c-.43.126-.849.256-1.254.387a56.875 56.875 0 00-21.15 12.7 56.623 56.623 0 00-10.9-1.038 68.744 68.744 0 00-14.7 1.664 87.166 87.166 0 00-5.69 1.485c-2.1.622-4.1 1.281-5.775 1.844-.743.25-1.513.49-2.264.724l-.1.03c-.733.228-1.464.457-2.2.694a31.994 31.994 0 00-10.177 5.319 26.685 26.685 0 00-8.9 12.747 26.993 26.993 0 00-3.212 10.669 55.782 55.782 0 00-4.368 8.98 62.508 62.508 0 00-5.7 32.355 81.657 81.657 0 001.542 10.482 61.214 61.214 0 00-6.194-.318c-1.579 0-3.15.066-4.671.194-10.634.9-19.629 4.693-26.736 11.276a39.14 39.14 0 00-6.845 8.4 41.275 41.275 0 00-8.046 17.388c-1.355 6.628-.874 13.673 1.471 21.539a80.509 80.509 0 008.228 18.2 131.64 131.64 0 0010.15 14.618 160.295 160.295 0 0024.411 24.668 105.131 105.131 0 008.827 6.295c1.6 1.053 3.107 2.044 4.293 2.944 4.174 3.169 12.858 9.764 23.561 9.764a26.039 26.039 0 003.966-.3c.592.044 1.167.065 1.74.065.622 0 1.248-.026 1.86-.078a32.8 32.8 0 0021.486-10.279 53.6 53.6 0 006.956.46c1.424 0 2.854-.06 4.251-.179a46.187 46.187 0 0010.417-2.085 55.848 55.848 0 0011.181-5.113 59.818 59.818 0 0015.536 1.978c.919 0 1.85-.019 2.771-.057a60.759 60.759 0 002.663-.166 46.147 46.147 0 007.982-1.345l.133-.036a27.113 27.113 0 008.614-3.864q.8.41 1.613.8c6.784 3.268 17.322 7.163 29 7.163 1.245 0 2.5-.044 3.718-.133l.533-.042c9.018-.764 16.247-4.009 21.521-9.65a37.736 37.736 0 006.629.643c.842 0 1.688-.035 2.512-.105a27.057 27.057 0 006.55-1.37 23.339 23.339 0 007.3-4.093 53.607 53.607 0 007.133 2.861 47.007 47.007 0 0014.282 2.228c1.321 0 2.663-.056 3.985-.168a46.931 46.931 0 008.659-1.563 42.719 42.719 0 0022.395-14.884l.1-.131a51.192 51.192 0 0010.073 4.667c8.732 3.056 18.445 4.627 29.693 4.806.705.011 1.384.016 2.041.016 2.617 0 4.954-.09 7.139-.275a61.657 61.657 0 005.072-.635 23.833 23.833 0 0017.145-12.029 23.976 23.976 0 003.11-4.549 59.7 59.7 0 0023 9.862 54.343 54.343 0 0010.262.972c1.287 0 2.594-.046 3.886-.136a58.312 58.312 0 0039.218-19.145 51.236 51.236 0 004.713-6.182 48.952 48.952 0 0010.634-26.348 50.05 50.05 0 00-8.9-32.048 46.142 46.142 0 00-3.152-4.013c-.729-.87-1.418-1.558-1.975-2.114-.428-.428-1.077-1.079-1.877-1.766a44.336 44.336 0 00-5.716-4.32 46.107 46.107 0 001.438-19.378 37.333 37.333 0 00-8.785-19.439 34.174 34.174 0 00-21.639-11.145 37.331 37.331 0 00-4.443-.266c-.864 0-1.737.031-2.6.091a40.21 40.21 0 00-27.875 14.733q-.415.5-.821 1.027-2.331.276-4.574.706c-.452-.254-.831-.448-1.1-.589a24.146 24.146 0 00-3.836-1.628 31.369 31.369 0 00-10.364-1.72c-.97 0-1.963.042-2.949.126a37.3 37.3 0 00-4.019.566 46.9 46.9 0 00-5.461 1.469l-.192.062c-.324.1-.633.2-.939.288a76.517 76.517 0 01-12.623 2.2q-1.085.109-2.18.2c-4.156.353-8.642.551-14.123.625-.835.011-1.679.016-2.526.016-2.7 0-5.481-.049-8.168-.1-1.169-.02-2.285-.039-3.375-.055.042-.1.083-.208.124-.311q.2-.5.374-.986c.6-1.2 1.14-2.41 1.61-3.609 3.557-9.071 3.308-17.637-.723-24.769a24.324 24.324 0 00-13.225-10.955c-.275-.1-.607-.217-.993-.35-.73-.25-1.573-.537-2.561-.79a51.939 51.939 0 001.227-15.67 62.013 62.013 0 00-6.563-23.248 59.265 59.265 0 00-14.446-18.651c-7.823-6.561-16.924-10.028-26.322-10.028z"/></g><g id="Group_90" data-name="Group 90"><g id="Group_59" data-name="Group 59"><g id="Group_50" data-name="Group 50"><path id="Path_101" data-name="Path 101" d="M8767.432 125.229a6.527 6.527 0 00-3.679-2.885c-.214-.08-.445-.159-.7-.244a7.337 7.337 0 00-1.685-.467 57.99 57.99 0 00-10.908-1.336c-1.348-.079-2.741-.16-4.08-.277a61.382 61.382 0 01-6.98-.987 28.392 28.392 0 006.371-10.662 31.785 31.785 0 002.1-4.928 34.543 34.543 0 001.723-13.5 44.08 44.08 0 00-4.7-16.514 41.167 41.167 0 00-9.936-12.941c-4.835-4.055-10.277-6.059-15.737-5.8a20.951 20.951 0 00-4.9.843 27.212 27.212 0 00-7.782 3.838 33.717 33.717 0 00-10.706 11.831 33.318 33.318 0 00-2.049 4.723c-3.908 7.425-5.068 16.746-3.37 26.624-1.524.657-3.447 2.229-3.97 5.984-1.165 1.238-2.129 3.3-2.121 6.721a27.459 27.459 0 001.761 8.75 63.326 63.326 0 003.734 8.533 104.473 104.473 0 009.957 15.521 72.123 72.123 0 006.134 7.07c2.136 2.133 4.674 4.509 7.77 5.712a6.386 6.386 0 004.147.366 4.94 4.94 0 00.6-.221 6.137 6.137 0 003.23-3.5 9.379 9.379 0 00.512-2.3 6.229 6.229 0 001.47-2.284c1.137-3.113.324-6.479-.329-9.185l-.127-.529a52.657 52.657 0 00-.493-1.876c-.109-.4-.219-.8-.322-1.2a15.136 15.136 0 012.8 2.99l.345.437.208.262a72.642 72.642 0 005.726 6.644c4.583 4.534 9.145 6.758 13.558 6.611a11.9 11.9 0 002.969-.495 19.461 19.461 0 005.925-3.108 34.247 34.247 0 006.6-6.507 31.05 31.05 0 004.579-7.785c.188-.478.38-1 .557-1.551a27.072 27.072 0 001.427-3.038c.998-2.528 2.116-6.252.371-9.34zM8719.2 112.11a4.81 4.81 0 01-.794.314 7.43 7.43 0 01-5.813-1.043c-.975-.613-1.612-1.323-1.65-1.832.03-.1.106-.283.16-.411s.111-.273.162-.408c.1-.273.2-.525.3-.783a24.331 24.331 0 011.213-2.206 5.466 5.466 0 012.645-2.5c.071-.02.144-.038.214-.051 2.021-.374 3.519 2.331 4.027 3.814a9.179 9.179 0 01.208 4.573 3.272 3.272 0 01-.672.533z"/><g id="Group_49" data-name="Group 49" clip-path="url(#clip-path)"><g id="Group_48" data-name="Group 48"><g id="Group_47" data-name="Group 47"><path id="Path_102" data-name="Path 102" d="M8761.284 124.2l1.517.523c.264.089.37.124.372.123s-1.885-.646-1.889-.646z" fill="url(#linear-gradient)"/><path id="Path_103" data-name="Path 103" d="M8764.682 133.638c.816-2.08 1.717-5.035.521-7.149a4.138 4.138 0 00-2.4-1.765c-5.339-1.834-11.083-1.666-16.64-2.154a62.507 62.507 0 01-7.938-1.163 46.492 46.492 0 01-3.429-.888q-.694-.208-1.382-.441a5.319 5.319 0 00-1.782-.507 19.163 19.163 0 01-4.3.058 10 10 0 01-3.22-1.183 17.289 17.289 0 006.188-.374q.3-.08.605-.168a19.775 19.775 0 006.04-2.977 24.58 24.58 0 008.5-12.289 31.956 31.956 0 001.6-12.5 41.886 41.886 0 00-4.437-15.557c-4.377-8.724-12.649-17.839-23.262-17.328a18.258 18.258 0 00-4.3.742 24.659 24.659 0 00-7.046 3.481 31.436 31.436 0 00-9.908 10.933c-4.707 8.84-4.716 19.6-2.331 29.127.115.461.519 1.821.519 1.821l2.771 2.373s-4.32-1.346-6.519-1.11a4 4 0 00-.708.139c-2.411.712-2.966 3.574-2.96 5.9a24.788 24.788 0 001.621 7.92 61.1 61.1 0 003.585 8.189 101.722 101.722 0 009.714 15.139 70.029 70.029 0 005.915 6.821c1.978 1.975 4.24 4.109 6.888 5.137a3.947 3.947 0 002.5.3 2.422 2.422 0 00.283-.1 3.554 3.554 0 001.866-2.042c.936-2.564.063-5.7-.541-8.244-.618-2.6-1.776-5.543-1.323-8.25a3.651 3.651 0 012.561-2.949 3.748 3.748 0 011.614-.108c2.585.383 4.457 3 5.96 4.891a73.19 73.19 0 005.729 6.676c3.038 3.006 7.178 6.023 11.671 5.873a9.329 9.329 0 002.33-.392 17.228 17.228 0 005.137-2.719 31.6 31.6 0 006.1-6.024 28.534 28.534 0 004.208-7.139zm-44.268-19.272a7.155 7.155 0 01-1.279.513 10 10 0 01-7.9-1.33c-1.419-.892-2.885-2.309-2.852-4.107a5.021 5.021 0 01.493-1.622q.45-1.184.932-2.354a37.223 37.223 0 012.794-5.679 7.874 7.874 0 014.086-3.594c.154-.045.313-.083.474-.113 3.454-.639 5.913 2.586 6.913 5.5a12.607 12.607 0 01.023 7.192c-.552 2.161-1.653 4.47-3.684 5.594z" fill="url(#linear-gradient-2)"/></g><path id="Path_104" data-name="Path 104" d="M8761.511 131.406a11.507 11.507 0 00.758-2.358c.007-.18-.038-.286-.083-.3s-.028.021-.094-.048c0-.029-.082-.075-.111-.129a6.355 6.355 0 00-3.144-1.312c-1.731-.407-3.488-.616-5.266-.868l-.007-.256c2.775-.463 8.317-1.345 10.524.8 1.719 1.876-.269 4.509-2.426 4.679l-.152-.206z" fill="#fff"/><path id="Path_105" data-name="Path 105" d="M8707.185 64.669c10.051-8.26 24.928-6.14 30.107 6.45a36.686 36.686 0 00-6.342-5.58c-7.082-4.833-16.047-3.712-23.766-.87z" fill="#fff"/></g></g></g><g id="Group_54" data-name="Group 54"><path id="Path_107" data-name="Path 107" d="M8616.108 136.372a62.032 62.032 0 00-2.136-4.01l-.016-.027-.016-.026-.048-.078c-.1-.181-.214-.37-.334-.572l-.009.005-.008-.012h.009c-.571-.948-.958-1.586-1.2-1.986a6.3 6.3 0 00-.614-.881c-7.321-11.027-16.049-17.951-25.966-20.591a42.859 42.859 0 00-20.457.02c-1.41.315-2.883.7-4.5 1.178a142.5 142.5 0 00-5.126 1.639c-.9.3-1.839.6-2.743.877-.671.209-1.343.418-2.011.635a14.393 14.393 0 00-4.564 2.32 8.718 8.718 0 00-3.311 5.882 9.358 9.358 0 00-1.675 8.631 36.8 36.8 0 00-6.1 10.915 43.974 43.974 0 00-4.3 23.751 66.981 66.981 0 004.869 19.98c2.826 6.9 5.845 11.814 9.5 15.458a29.183 29.183 0 0017.906 8.253c6.023.616 12.625-.079 20.777-2.184 1.44-.373 2.711-.722 3.884-1.068 6.63-1.957 11.388-4.207 15.427-7.295a41.345 41.345 0 0012.3-15.526 40.22 40.22 0 001.273-3.134c.244-.481.482-.964.709-1.455 5.649-12.259 5.098-27.092-1.52-40.699zm-54.116 38.842c.174-.424.329-.836.482-1.248.08-.162.162-.323.238-.484.427-.9.852-1.861 1.261-2.857a35.419 35.419 0 001.686-5.115 14.069 14.069 0 014.269 7.381v.015a12.6 12.6 0 01.226 4.139 7.161 7.161 0 01-3.24 2.077 6.382 6.382 0 01-1.555.256 4.409 4.409 0 01-3.215-.986 2.318 2.318 0 01-.654-2.006c.17-.386.338-.773.502-1.172z"/><g id="Group_53" data-name="Group 53" clip-path="url(#clip-path-2)"><g id="Group_52" data-name="Group 52"><g id="Group_51" data-name="Group 51"><path id="Path_108" data-name="Path 108" d="M8603.765 190.559a38.831 38.831 0 0011.532-14.566c5.685-12.315 4.343-26.5-1.491-38.5q-.952-1.959-2.048-3.845c-.155-.255-.607-1-1.036-1.716-6-9.589-14.384-18.279-25.609-21.267a40.476 40.476 0 00-19.24.044c-1.459.326-2.9.712-4.333 1.135-1.69.5-3.365 1.048-5.035 1.61-1.586.534-3.188 1.006-4.78 1.521a12 12 0 00-3.767 1.894c-2.531 2-2.9 5.1-1.885 8.027.812 2.342 2.021 4.517 2.45 6.991q-1.191-1.939-2.477-3.821c-8.416 8.1-11.455 19.777-10.536 31.179a64.659 64.659 0 004.687 19.215c2.142 5.232 4.9 10.586 8.938 14.615a26.757 26.757 0 0016.358 7.52c6.68.682 13.42-.449 19.876-2.117 1.271-.328 2.541-.672 3.8-1.044a44.082 44.082 0 0014.596-6.875zm-29.424-23.141l.1.465-.023-.106a13.563 13.563 0 01-.732 8.564 9.88 9.88 0 01-6.044 5.237 8.871 8.871 0 01-2.182.359 6.938 6.938 0 01-5.085-1.7 4.944 4.944 0 01-1.2-5.175 24.325 24.325 0 011.225-2.679c.427-.9.827-1.813 1.206-2.734a31.615 31.615 0 001.807-5.8 21.034 21.034 0 00.321-6.263 1.167 1.167 0 00-.153-.613 3.525 3.525 0 00-.605-.511c-.361-.3-.729-.587-1.108-.862a53.295 53.295 0 00-2.234-1.51 14.966 14.966 0 014.054 1.278 20.845 20.845 0 014.571 2.718 16.794 16.794 0 016.158 9.692l-.076-.36z" fill="url(#linear-gradient-3)"/><path id="Path_109" data-name="Path 109" d="M8611.814 133.736s-.128-.219-.453-.766l.4.676.053.09z" fill="url(#linear-gradient-4)"/><path id="Path_110" data-name="Path 110" d="M8609.819 130.424l.9 1.506q.325.519.64 1.04a395.307 395.307 0 00-1.54-2.546z" fill="url(#linear-gradient-5)"/></g><path id="Path_111" data-name="Path 111" d="M8565.188 113.62c13.411-5.359 30.059.737 37.384 13.046-10.661-9.839-22.846-14.423-37.384-13.046z" fill="#fff"/><path id="Path_112" data-name="Path 112" d="M8612.6 158.336c2.814 14.166-6.226 29.416-19.669 34.364a69.433 69.433 0 007.716-6.876 45.518 45.518 0 0011.953-27.488z" fill="#fff"/><path id="Path_113" data-name="Path 113" d="M8559.782 156.735a6.117 6.117 0 011.381 5.353 17.531 17.531 0 01-2.063 5.146 13.31 13.31 0 01-2.335 2.739l-.2-.164a16.079 16.079 0 002.058-6.349 17.5 17.5 0 01.907-6.662l.249-.063z" fill="#fff"/></g></g></g><g id="Group_58" data-name="Group 58"><path id="Path_115" data-name="Path 115" d="M8708.154 139.263a70.744 70.744 0 00-8.438-14.216l-.071-.095c-.113-.155-.237-.319-.369-.5l-1.776-2.352a7.9 7.9 0 00-.817-.966 107.093 107.093 0 00-10.513-11.307 69.825 69.825 0 00-17.421-12.257 30.232 30.232 0 00-11.011-3.15 14.147 14.147 0 00-4.746.508 10.172 10.172 0 00-3.957 2.165 12.062 12.062 0 00-3.765 6.591c-4.214 5.963-1.741 14.385-.481 18.669.947 3.22 2.09 6.393 3.2 9.462 1.353 3.757 2.752 7.641 3.749 11.522.979 3.816 1.88 8.589.821 13.092a9.854 9.854 0 01-2.5 2.5 6.653 6.653 0 01-1.842.876 4.869 4.869 0 01-4.321-.645c-1.764-1.306-2.926-3.728-3.555-7.4-.634-3.7-1.039-7.406-1.353-10.543a528.016 528.016 0 01-.569-6.193c-.477-5.422-.97-11.028-1.916-16.553a80.792 80.792 0 00-2.661-11.319 32.138 32.138 0 00-4.438-9.271 10.535 10.535 0 00-4.744-3.917c-2.778-1.043-6.1-.969-10.146.225-.281.083-.557.169-.83.257a40.96 40.96 0 00-18.311 12.866 37.872 37.872 0 00-6.824 11.787 29.319 29.319 0 00-3.51 12.482 34.564 34.564 0 003.083 14.8 68.636 68.636 0 0012.078 18.473A92.735 92.735 0 008616.02 179a69.9 69.9 0 009.28 5.58 34.834 34.834 0 009.829 3.413 21.12 21.12 0 009.427-.881q.473-.14.938-.291a69.628 69.628 0 0032.034-23.081c.291-.392.569-.787.844-1.193a25.776 25.776 0 003.876 4.068 14.071 14.071 0 0013.68 2.756l.646-.2a31.034 31.034 0 006.856-3.4 11.437 11.437 0 004.911-6.439c.116-.387.208-.777.288-1.168a11.328 11.328 0 001.694-3.421c1.645-5.507-.45-11.472-2.169-15.48z"/><g id="Group_57" data-name="Group 57" clip-path="url(#clip-path-3)"><g id="Group_56" data-name="Group 56"><g id="Group_55" data-name="Group 55"><path id="Path_116" data-name="Path 116" d="M8694.947 122.976l1.709 2.266.574.754-2.283-3.02z" fill="url(#linear-gradient-6)"/><path id="Path_117" data-name="Path 117" d="M8697.915 126.909l-.685-.913.431.577z" fill="url(#linear-gradient-7)"/><path id="Path_118" data-name="Path 118" d="M8685.855 160.049a11.52 11.52 0 0011.329 2.279c.188-.055.374-.114.56-.176a28.852 28.852 0 006.295-3.133 8.907 8.907 0 003.832-5.012c1.345-4.5-.293-9.594-2.07-13.735a68.477 68.477 0 00-8.14-13.7c-.236-.312-.61-.807-1-1.331a106.925 106.925 0 00-12.228-13.533 68 68 0 00-16.773-11.822 27.355 27.355 0 00-10.056-2.909 11.646 11.646 0 00-3.888.406 7.642 7.642 0 00-2.977 1.617c-5.088 4.555-3.19 12.35-1.517 18.042 2.089 7.1 5.124 13.891 6.97 21.069 1.43 5.569 2.221 11.581-.028 17.036a13.25 13.25 0 01-4.681 5.9 9.236 9.236 0 01-2.553 1.21 7.352 7.352 0 01-6.568-1.043c-2.813-2.084-3.988-5.719-4.556-9.029-.606-3.548-1.018-7.139-1.376-10.721-.753-7.539-1.18-15.088-2.461-22.567a79.246 79.246 0 00-2.573-10.966 30.034 30.034 0 00-4.072-8.55 8.208 8.208 0 00-3.574-3.027c-2.7-1.013-5.8-.52-8.522.284q-.39.116-.769.237c-6.651 2.144-12.682 6.751-17.132 12.072-4.209 5.034-7.536 11.447-7.757 18.123a32.318 32.318 0 002.88 13.715 66 66 0 0011.637 17.773 90.229 90.229 0 0015.392 13.76 67.069 67.069 0 008.938 5.375 32.743 32.743 0 009.107 3.181 18.846 18.846 0 008.29-.809c.294-.087.585-.177.875-.271a67.082 67.082 0 0030.765-22.169 31.64 31.64 0 001.284-1.874 6.312 6.312 0 00.566-.888c.133-.326.141-.3-.037-.685a20.953 20.953 0 01-1.223-3.515c2.611 3.137 4.613 6.76 7.811 9.386z" fill="url(#linear-gradient-8)"/></g><path id="Path_119" data-name="Path 119" d="M8695.506 158.964c6.3-3.548 10.429-7.035 8.4-14.724a32.584 32.584 0 00-2.356-6.246l.221-.131a29.406 29.406 0 013.355 5.988c1.858 4.313 1.586 10.58-2.694 13.486a10.477 10.477 0 01-6.887 1.88l-.041-.253z" fill="#fff"/><path id="Path_120" data-name="Path 120" d="M8609.465 103.55c4.361-6.443 12.482-7.662 16.738-.333a20.478 20.478 0 012.568 8.384c-1.105-2.054-2.1-4.088-3.3-5.937-4.392-7.144-9.561-6.413-16.006-2.114z" fill="#fff"/><path id="Path_121" data-name="Path 121" d="M8654.886 100.192a6.113 6.113 0 015.381-1.261 17.516 17.516 0 015.1 2.178 13.311 13.311 0 012.686 2.4l-.168.193a16.088 16.088 0 00-6.3-2.2 17.5 17.5 0 01-6.64-1.057l-.057-.249z" fill="#fff"/></g></g></g></g><g id="Group_89" data-name="Group 89"><g id="Group_63" data-name="Group 63"><path id="Path_123" data-name="Path 123" d="M8772.917 192.812a65.63 65.63 0 00-.714-2.157 11.938 11.938 0 00-.437-1.217c-.039-.1-.079-.207-.122-.314-.018-.047-.035-.095-.054-.142a38.724 38.724 0 00-13.713-18.114 25.533 25.533 0 00-12.054-4.755 17.994 17.994 0 00-3.232-.019 17.019 17.019 0 00-9.685 4.011 22.228 22.228 0 00-4.976 6.188 23.745 23.745 0 00-2.934 4.232c-.181-.123-.353-.222-.485-.3l-.07-.04q-.5-.333-1.018-.656a56.436 56.436 0 00-5.045-2.837c-5.767-2.844-11.078-4.083-15.786-3.685a16.782 16.782 0 00-8.6 3.138 20.342 20.342 0 00-5.8 6.788c-4.844 5.446-6.425 13.26-7.183 19.035a97.735 97.735 0 00.506 26.383c.663 4.745 1.605 9.312 2.439 13.154a105.5 105.5 0 003.464 12.756c1.372 3.916 3.04 7.994 5.936 11.3a14.208 14.208 0 005.262 3.868 16.022 16.022 0 003.292.881 17.884 17.884 0 004.68.361 9.075 9.075 0 002.2-.451 5.315 5.315 0 003.575-4.4c1.435-.726 3.177-2.39 2.972-6.194a22.9 22.9 0 00-.939-4.942c6.277 7.14 13.038 11.9 20.158 14.169a28.957 28.957 0 0016.612.314 25.057 25.057 0 0013.14-8.733 34.66 34.66 0 002.589-3.773c.091-.111.188-.211.276-.323 5.611-7.075 8.741-16.956 9.568-30.209a93.467 93.467 0 00-3.822-33.317z"/><g id="Group_62" data-name="Group 62" clip-path="url(#clip-path-4)"><g id="Group_61" data-name="Group 61"><g id="Group_60" data-name="Group 60"><path id="Path_124" data-name="Path 124" d="M8769.052 189.509l.147.389c.37.965.5 1.3.5 1.3z" fill="url(#linear-gradient-9)"/><path id="Path_125" data-name="Path 125" d="M8774.18 225.971a90.682 90.682 0 00-3.707-32.4q-.579-1.857-1.273-3.677a36.215 36.215 0 00-12.794-16.935 22.965 22.965 0 00-10.826-4.3 15.291 15.291 0 00-2.772-.017 14.511 14.511 0 00-8.237 3.407c-5.687 4.853-7.752 12.979-8.666 20.092a84.475 84.475 0 00-.071 23.752 47.286 47.286 0 002.959 10.945 27.16 27.16 0 005.364 8.608 8.945 8.945 0 00.771.717 19.349 19.349 0 01-5.278-5.75 39.625 39.625 0 01-4.6-9.919c-2.528-7.96-3.067-16.389-2.783-24.688a68.538 68.538 0 01.943-9.842q.144-.8.316-1.592c.085-.39.442-1.268.241-1.552a2.884 2.884 0 00-.708-.48q-.494-.329-1-.643a53.369 53.369 0 00-4.813-2.708c-4.342-2.141-9.54-3.844-14.438-3.43a14.233 14.233 0 00-7.312 2.656c-6.14 4.474-8.151 12.873-9.086 19.991a96.4 96.4 0 00.5 25.7c.608 4.353 1.473 8.672 2.405 12.966a104.9 104.9 0 003.379 12.453c1.287 3.676 2.846 7.491 5.443 10.453a11.742 11.742 0 004.31 3.189 13.572 13.572 0 002.774.73 15.672 15.672 0 004.01.329 6.551 6.551 0 001.578-.32c1.731-.6 2.05-2.28 1.961-3.938a30.155 30.155 0 00-1.324-6.1c-.568-2.11-1.074-4.24-1.536-6.376a111.383 111.383 0 01-1.963-11.979 53.052 53.052 0 01-.186-11.12 30.362 30.362 0 01.7-3.938 43.262 43.262 0 00.677 12.615 9.854 9.854 0 00.371 1.808 15.268 15.268 0 00.751 1.519q.612 1.17 1.292 2.3a68.187 68.187 0 003.82 5.7c5.765 7.748 13.423 15.135 22.816 18.127a26.557 26.557 0 0010.293 1.163 26.184 26.184 0 004.853-.876 22.635 22.635 0 0011.824-7.857c6.348-8.005 8.402-18.836 9.022-28.783z" fill="url(#linear-gradient-10)"/></g><path id="Path_126" data-name="Path 126" d="M8739.55 172.338c5.234-2.69 11.911-.9 16.421 2.521a28.313 28.313 0 018.174 9.84c2.073 4.668 2.229 4.758-1.048.694-5.885-7.077-13.658-14.1-23.547-13.055z" fill="#fff"/><path id="Path_127" data-name="Path 127" d="M8746.2 260.889c9.925-.628 16.4-8.859 21.018-16.826 2.5-4.471 2.439-4.533 1.15.508a28.327 28.327 0 01-6.4 11.074c-3.87 4.129-10.154 7.017-15.764 5.244z" fill="#fff"/><path id="Path_128" data-name="Path 128" d="M8692.88 188.648a11.78 11.78 0 012.2-6.717c4.521-6.51 13.894-5.483 19.706-1.44-2.3-.418-4.512-.878-6.712-1.057-7.348-.775-12.342 2.422-15.2 9.214z" fill="#fff"/><path id="Path_129" data-name="Path 129" d="M8710.723 261.729a6.616 6.616 0 01-2.468-3.273c-.688-1.774-.521-3.9-.772-5.758q-.157-2.877-.057-5.755l.255-.028 1.976 7.318a16.819 16.819 0 011.271 7.342l-.2.154z" fill="#fff"/></g></g></g><g id="Group_67" data-name="Group 67"><path id="Path_131" data-name="Path 131" d="M8848.591 163.69a12.973 12.973 0 00-3.289-3.065 6.616 6.616 0 00-1.033-.612 5.85 5.85 0 00-1.258-.544 13.92 13.92 0 00-6.172-.765 19.031 19.031 0 00-2.055.291 31.546 31.546 0 00-3.5.965c-.615.2-1.2.381-1.774.541a93.977 93.977 0 01-15.609 2.764q-1.239.126-2.481.23c-4.595.389-9.486.607-15.393.687-3.721.049-7.52-.017-11.192-.081-2.318-.04-4.715-.082-7.082-.094a38.745 38.745 0 00-3.462.134 29.152 29.152 0 00-14.448 4.925 25.963 25.963 0 00-7.588 8.429 28.788 28.788 0 00-5.572 10.453 36.7 36.7 0 00-1.468 9.242 23.837 23.837 0 001.308 9.692 10.028 10.028 0 006.549 6.258 10.851 10.851 0 003.817.33 15.684 15.684 0 006.023-1.885 21.979 21.979 0 003.9-2.665c.628-.534 1.2-1.086 1.745-1.62.487-.473.946-.92 1.416-1.326a23.267 23.267 0 016.176-3.842 25.521 25.521 0 017.62-1.924c.24-.02.479-.036.716-.048l.034.1c4.125 11.619 1.092 24.235-1.844 36.435a572.06 572.06 0 00-.992 4.17l-.1.412a14.944 14.944 0 00-.534 5.959 11.157 11.157 0 003.183 5.989c3.032 3.135 7.095 4.822 10.295 5.942 6.884 2.409 14.745 3.651 24.031 3.8a73.2 73.2 0 007.379-.2 43.46 43.46 0 003.589-.448 6.416 6.416 0 005.225-4.967c3.681-2.3 3.5-7.971 3.429-10.331a63.808 63.808 0 00-1.854-12.287c-.868-3.743-1.982-7.708-3.407-12.122a237.011 237.011 0 00-4.185-11.9c-.343-.892-.706-1.791-1.058-2.659a44.033 44.033 0 01-2.729-8.193c-.05-.265-.086-.514-.116-.756.106-.015.21-.029.311-.039l.14-.012a23.08 23.08 0 013.131.033c.331.018.661.035.988.049a48.273 48.273 0 006.086-.046 22.434 22.434 0 005.108-.987 12.068 12.068 0 007.572-6.826 12.563 12.563 0 003.361-5.4 27.471 27.471 0 00.989-10.276c-.312-4.915-1.634-8.923-3.926-11.91z"/><g id="Group_66" data-name="Group 66" clip-path="url(#clip-path-5)"><g id="Group_65" data-name="Group 65"><g id="Group_64" data-name="Group 64"><path id="Path_132" data-name="Path 132" d="M8842.467 161.973c-.006 0 .158.09.622.335.455.227.627.31.633.309s-1.239-.645-1.255-.644z" fill="url(#linear-gradient-11)"/><path id="Path_133" data-name="Path 133" d="M8849.095 185.09a25.469 25.469 0 00.87-9.323c-.234-3.682-1.118-7.539-3.405-10.518a10.144 10.144 0 00-3.471-2.941 10.9 10.9 0 00-6.034-1.053 16.114 16.114 0 00-1.775.252c-1.733.342-3.388.992-5.086 1.462a96.482 96.482 0 01-16.034 2.843q-1.261.128-2.523.234c-5.179.439-10.378.626-15.575.695-6.11.082-12.212-.142-18.321-.174a36.01 36.01 0 00-3.232.125 26.853 26.853 0 00-13.2 4.473 24.709 24.709 0 00-9.309 13.411 34.242 34.242 0 00-1.364 8.6 21.376 21.376 0 001.124 8.66 7.576 7.576 0 004.854 4.743 8.306 8.306 0 002.921.247 13.349 13.349 0 005.037-1.594 19.439 19.439 0 003.442-2.356c1.095-.93 2.061-2 3.148-2.934a25.93 25.93 0 016.854-4.264 28.087 28.087 0 018.4-2.114 20 20 0 017.2.623 10.39 10.39 0 012.237.869c-2.02.062-4.037.128-6.055.252 4.871 13.723.406 28.465-2.756 42.041a13.864 13.864 0 00-.6 5.384 8.757 8.757 0 002.5 4.616c2.492 2.577 5.966 4.139 9.3 5.305a74.388 74.388 0 0023.228 3.655 71.21 71.21 0 007.121-.188c1.133-.1 2.261-.232 3.377-.421 3.765-.637 3.752-5.643 3.658-8.6a61.062 61.062 0 00-1.789-11.79c-.932-4.02-2.082-7.987-3.349-11.914q-1.915-5.934-4.141-11.768c-1.412-3.685-3.173-7.391-3.91-11.291a7.515 7.515 0 01.616-5.437 6.015 6.015 0 014.705-2.477l.177-.016a34.894 34.894 0 014.445.076 45.583 45.583 0 005.76-.04 20.076 20.076 0 004.533-.87 9.658 9.658 0 006.422-6.483z" fill="url(#linear-gradient-12)"/></g><path id="Path_134" data-name="Path 134" d="M8822.1 252.48c6.663-.2 10.725-.5 9.942-8.487a39.165 39.165 0 00-1.008-5.821l.241-.084a32.944 32.944 0 012.03 5.7c1.235 4.3.2 10.27-5.175 10.711a9.138 9.138 0 01-6.117-1.781l.086-.241z" fill="#fff"/><path id="Path_135" data-name="Path 135" d="M8830.419 166.606c5.569-5.434 13.77-4.994 16.463 3.041a20.439 20.439 0 01.829 8.729c-.669-2.233-1.237-4.427-2.038-6.479-2.865-7.881-8.075-8.206-15.254-5.291z" fill="#fff"/></g></g></g><g id="Group_71" data-name="Group 71"><path id="Path_137" data-name="Path 137" d="M8687.583 187.456a11.1 11.1 0 00-1.205-1.382 12.153 12.153 0 00-1.216-1.184 26.419 26.419 0 00-19.976-6.48l-.277.025a20.556 20.556 0 00-6.417 1.579 27.7 27.7 0 00-5.315 3.16 49.755 49.755 0 00-8.475 8.161 69.8 69.8 0 00-5.123 6.957 73.548 73.548 0 00-9.121 16.021c-3.568 8.584-5.211 16.254-5.024 23.447a37.552 37.552 0 008.276 22.474 52.25 52.25 0 0018.29 14.28c5.765 2.776 14.532 5.949 23.561 5.3.127-.009.255-.019.382-.03 4.6-.389 7.892-1.771 10.067-4.226a10.941 10.941 0 001.952-3.191 10.393 10.393 0 00.913-.9c2.646-2.985 3.564-7.552 2.519-12.531-.48-2.283-2.08-7.874-6.561-10.46a6.659 6.659 0 00-3.883-.942l-.124.011a8.983 8.983 0 00-2.814.9c-.258.118-.5.229-.714.31-.9.345-1.847.648-2.821.916a32.84 32.84 0 003.11-2.755 37.88 37.88 0 005.4-6.965 44.481 44.481 0 006.807-12.28 60.789 60.789 0 003.888-19.9c.112-5.849-.904-13.93-6.099-20.315zm-38.718 49.864q-.053-.275-.094-.558a15.9 15.9 0 011.306-8.876 6.8 6.8 0 013.85-2.134c.1-.009.207-.013.31-.013a2.866 2.866 0 012.674 3.067v.016a7.307 7.307 0 01-.861 3.394 20.964 20.964 0 01-7.185 5.104z"/><g id="Group_70" data-name="Group 70" clip-path="url(#clip-path-6)"><g id="Group_69" data-name="Group 69"><g id="Group_68" data-name="Group 68"><path id="Path_138" data-name="Path 138" d="M8683.679 186.953s.222.238.833.887.844.883.846.883-1.674-1.771-1.679-1.77z" fill="url(#linear-gradient-13)"/><path id="Path_139" data-name="Path 139" d="M8684.512 187.84a23.63 23.63 0 00-19.108-6.879l-.252.022a18.146 18.146 0 00-5.63 1.375 25.192 25.192 0 00-4.821 2.875 47.439 47.439 0 00-8.037 7.748 70.361 70.361 0 00-10.977 18.218c-2.945 7.088-5.029 14.665-4.828 22.4a35.061 35.061 0 007.723 20.951 49.538 49.538 0 0017.4 13.563c6.787 3.27 14.66 5.6 22.264 5.051l.351-.028c3.017-.255 6.292-1.032 8.368-3.373 2.458-2.772 2.657-6.839 1.929-10.306-.678-3.225-2.35-7.047-5.335-8.77a4.141 4.141 0 00-2.388-.609l-.069.007a12.106 12.106 0 00-2.883 1.05 34.322 34.322 0 01-5.49 1.576 41.136 41.136 0 01-4.67.67 38.126 38.126 0 01-6.411.009 24.588 24.588 0 01-8.863-2.149 11.3 11.3 0 01-3.172-2.286c1.095.264 2.162.665 3.245.974a11.977 11.977 0 003.232.306q1.378 0 2.756-.113a33.031 33.031 0 004.786-.765 31.22 31.22 0 0015.007-8.357 39.841 39.841 0 008.765-14.241 58.157 58.157 0 003.726-19.047c.127-7.112-1.576-14.584-6.618-19.872zm-22.168 37.14s0-.086-.01-.323c.081 2.99-1.561 5.785-3.357 8.065a23.434 23.434 0 01-9.137 6.966 13.956 13.956 0 01-4.241 1.258 6.55 6.55 0 01-1 .01 13.518 13.518 0 002.044-1.04c.275-.208.216-.123.111-.468a15.686 15.686 0 01-.212-.763 15.698 15.698 0 01-.3-1.547 18.328 18.328 0 01.508-7.6 17.015 17.015 0 013.834-7c1.563-1.687 3.641-3.239 6-3.438a6.01 6.01 0 01.539-.022 5.388 5.388 0 015.219 5.574c0-.232-.006-.317-.006-.317z" fill="url(#linear-gradient-14)"/></g><path id="Path_140" data-name="Path 140" d="M8666.442 184.955c10.031-3.733 20.308 3.453 19.8 14.256a38.4 38.4 0 00-3.081-5.984c-3.592-5.758-10.186-7.89-16.721-8.272z" fill="#fff"/><path id="Path_141" data-name="Path 141" d="M8671.406 255.962c1.354-.507 2.54-.938 3.691-1.465 1.824-.777 3.675-1.951 5.844-2.115 2.49-.209 4.465 1.824 5.066 4.1-2-1.183-3.491-2.295-5.59-1.473a9.38 9.38 0 00-.846.291c-2.4.972-5.589 1.81-8.166.663z" fill="#fff"/></g></g></g><g id="Group_75" data-name="Group 75"><path id="Path_143" data-name="Path 143" d="M8623.942 231.823a14.424 14.424 0 00-4.873-5.077l-.025-.016-.025-.016-.033-.021c-.076-.052-.144-.094-.2-.129l-.009-.006a11.483 11.483 0 00-1.851-1.056 35.613 35.613 0 00-11.526-3.431 44.707 44.707 0 00-7.56-.33c-.789.024-1.5.063-2.171.12a22.88 22.88 0 00-5.139.975c-4.349 1.407-7.968 4.587-10.759 9.451-.014.022-.025.044-.037.067a25.667 25.667 0 00-2.828 4.029c-.474.824-.921 1.658-1.355 2.465a76.614 76.614 0 01-1.57 2.814 39.575 39.575 0 01-.633-7.833c.036-8.5 1.711-17.146 3.331-25.508l.21-1.085c.184-.947.374-1.9.564-2.846a105.385 105.385 0 001.937-12.082v-.053a13.192 13.192 0 00-.3-5.222c-.771-2.31-2.752-3.92-5.885-4.784a23.523 23.523 0 00-8.229-.628 41.547 41.547 0 00-7.55 1.416 32.739 32.739 0 00-12.357 5.968 10.921 10.921 0 00-2.949 4.175 12.891 12.891 0 00-3.635 6.27 35.041 35.041 0 00-1.248 7.687 82.859 82.859 0 00.594 15.334 145.3 145.3 0 006.911 30.214c2.919 8.487 7.013 17.988 15.24 24.1a30.458 30.458 0 0013.087 5.506 34.83 34.83 0 008.684.393 28.248 28.248 0 006.357-1.263c8.069-2.631 15.889-8.532 23.243-17.538a72.636 72.636 0 004.764-6.527 61.9 61.9 0 006.152-9.868c2.396-4.864 4.459-10.529 1.673-15.665z"/><g id="Group_74" data-name="Group 74" clip-path="url(#clip-path-7)"><g id="Group_73" data-name="Group 73"><g id="Group_72" data-name="Group 72"><path id="Path_144" data-name="Path 144" d="M8617.766 228.949l-.351-.224c.082.052.164.1.245.159z" fill="url(#linear-gradient-15)"/><path id="Path_145" data-name="Path 145" d="M8616.217 227.973l.85.537.349.215c-.889-.559-1.197-.752-1.199-.752z" fill="url(#linear-gradient-16)"/><path id="Path_146" data-name="Path 146" d="M8612.245 258.167a62.1 62.1 0 007.735-11.807c1.944-3.964 4.013-9.075 1.712-13.317a11.983 11.983 0 00-4.032-4.159l-.594-.374a31.548 31.548 0 00-12.014-3.9 42.827 42.827 0 00-7.133-.308c-.677.021-1.355.056-2.033.113a20.371 20.371 0 00-4.566.86c-4.181 1.352-7.187 4.56-9.327 8.289-1.1 1.923-2.073 3.912-3.232 5.806-1.147 1.874-2.4 3.686-3.675 5.473a61.9 61.9 0 01-7.3 8.9c.617-1.108 1.238-2.215 1.853-3.325q.708-1.275 1.412-2.551.416-.75.827-1.5a3.733 3.733 0 00.411-.754 1.056 1.056 0 00-.1-.6 36.33 36.33 0 01-1.406-11.188c.039-9.108 1.866-18.161 3.588-27.068a136.737 136.737 0 002.463-14.651 11.392 11.392 0 00-.167-4.254c-.6-1.784-2.447-2.661-4.139-3.128a20.98 20.98 0 00-7.333-.545 39.474 39.474 0 00-7.085 1.333 30.5 30.5 0 00-11.4 5.464 10.294 10.294 0 00-2.905 5.109 32.952 32.952 0 00-1.149 7.133 81.248 81.248 0 00.582 14.864 143.019 143.019 0 006.789 29.681c2.957 8.6 6.844 17.3 14.346 22.878a27.738 27.738 0 0011.984 5.036 32.355 32.355 0 008.045.367 25.631 25.631 0 005.779-1.146c8.838-2.885 16.292-9.661 22.064-16.731z" fill="url(#linear-gradient-17)"/></g><path id="Path_147" data-name="Path 147" d="M8563.252 186.559c3.236-1.06 7.856-1.446 10.538 1.233a3.945 3.945 0 01.967 2.043c.688 2.928 0 6.059-.713 8.706a332.06 332.06 0 01-1.795 6.472l-.251-.049c.213-2.229.518-4.448.758-6.663.3-2.963.813-5.793-.518-8.369a5.6 5.6 0 00-2.646-1.517c-1.918-.655-4.1-1.037-6.323-1.6l-.018-.256z" fill="#fff"/><path id="Path_148" data-name="Path 148" d="M8616.405 230.731c2.1 2.039 2.9 5.16 2.9 8.032a17.234 17.234 0 01-.952 5.731 15.423 15.423 0 01-1.1 2.658 49.454 49.454 0 01-8.185 11.4c-.529.6-1.335 1.474-1.927 2-1.187 1.078-2.832 2.767-4.075 3.759q-2.125 1.776-4.265 3.516l-.166-.194c2.553-2.556 5.235-5.183 7.569-7.953a26.415 26.415 0 001.749-2.094 58.666 58.666 0 004.678-6.645c.233-.439 1.362-2.571 1.565-2.964.362-.889.861-2.181 1.236-3.07l.392-1.247a27.154 27.154 0 001.332-5.667c.008-.619.075-1.319.074-1.938a13.349 13.349 0 00-1.02-5.163l.2-.163z" fill="#fff"/></g></g></g><g id="Group_80" data-name="Group 80"><path id="Path_150" data-name="Path 150" d="M8648.576 182.831c-2.276-4.07-6.038-7.218-11.187-9.359l-.194-.123-.322-.073a48.9 48.9 0 00-19.735-2.916l-.262.021a28.109 28.109 0 00-11.3 3.2 19.538 19.538 0 00-7.726 7.986 21.682 21.682 0 00-3.2 4.715c-3.149 6.229-4.3 15.233 1.907 21.827a24.4 24.4 0 0010.052 6.1 42.564 42.564 0 0011.5 2.277 31.767 31.767 0 004.514-.05 26.719 26.719 0 003.737-.578l.214.156a9.027 9.027 0 002.661 1.336 16.585 16.585 0 01-8.646 2.963l-.145.012c-.374.029-.764.046-1.174.063-.478.021-.972.042-1.48.085a11.646 11.646 0 00-2.618.489 7.394 7.394 0 00-4.829 4.65c-.064.171-.123.343-.181.515a7.578 7.578 0 00-2.684 3.581 27.271 27.271 0 00-1.3 5.663l-.086.56c-.37 2.369-.708 4.309-1.062 6.1a109.72 109.72 0 00-1.748 12.77 58.771 58.771 0 00.148 13.5l.033.216c.26 1.7.653 4.277 2.443 5.856a8.274 8.274 0 003.32 1.573l.032.009a42.211 42.211 0 0013.177 1.4 42.806 42.806 0 001.889-.116 28.492 28.492 0 004.914-.815l.133-.035c1.345-.354 3.848-1.013 4.649-3.568.132-.421.243-.847.347-1.273a4.671 4.671 0 002.518-2.823 31.57 31.57 0 001.073-5.575 92.43 92.43 0 00.573-6.655c.22-4.233.235-8.558.044-12.856-.027-.6-.062-1.227-.109-1.945 0-.09 0-.184-.012-.281l-.057-.775c-.045-.549-.068-.836-.079-.955a108.068 108.068 0 00-1.394-11.338 28.929 28.929 0 00-3.924-10.386l-.169-.264c4.616-.472 8.428-4.107 9.863-5.665a24 24 0 003.561-4.877 21.3 21.3 0 003.477-5.341 20.754 20.754 0 001.684-8.693 21.589 21.589 0 00-2.84-10.288z"/><g id="Group_79" data-name="Group 79" clip-path="url(#clip-path-8)"><g id="Group_78" data-name="Group 78"><g id="Group_76" data-name="Group 76"><path id="Path_151" data-name="Path 151" d="M8646.349 184.094c.524.91-.512-.918 0 0z" fill="#5b2743"/><path id="Path_152" data-name="Path 152" d="M8646.2 183.828s.3.522.3.528-.3-.528-.3-.528m.3.528"/></g><g id="Group_77" data-name="Group 77"><path id="Path_153" data-name="Path 153" d="M8634.417 228.828a26.385 26.385 0 00-3.571-9.486 19.089 19.089 0 01-10.038 3.52l-.161.013c-.875.069-1.763.073-2.639.147a9.172 9.172 0 00-2.052.376 4.866 4.866 0 00-3.216 3.12 28.32 28.32 0 00-1.248 5.71 157.168 157.168 0 01-1.081 6.206 106.847 106.847 0 00-1.707 12.472 56.324 56.324 0 00.126 12.908c.221 1.424.489 3.528 1.641 4.544a6.249 6.249 0 002.364 1.041 39.593 39.593 0 0012.365 1.3 40.667 40.667 0 001.778-.109 26.064 26.064 0 004.476-.739c1.16-.307 2.6-.64 2.994-1.894a29.065 29.065 0 00.975-5.124c.269-2.15.445-4.31.559-6.472.218-4.2.229-8.413.042-12.61a98.114 98.114 0 00-.15-2.538l.05.608c.001 0-.018-.266-.073-.993l-.075-.925a105.141 105.141 0 00-1.359-11.075z" fill="url(#linear-gradient-18)"/><path id="Path_154" data-name="Path 154" d="M8646.349 184.094c-2.245-4.024-5.955-6.634-10.138-8.339a46.444 46.444 0 00-18.879-2.846l-.245.02a25.727 25.727 0 00-10.274 2.889 17.23 17.23 0 00-7.018 7.519c-3.066 6.066-3.436 13.69 1.486 18.916a22.1 22.1 0 009.029 5.437 40.22 40.22 0 0010.812 2.139 29.179 29.179 0 004.149-.045 22.065 22.065 0 007.023-1.718c2.6-1.139 5.409-3.046 6.848-5.575-1.434 3.4-4.936 5.929-8.194 7.354a6.281 6.281 0 004.356 1.222c3.162-.268 6.294-2.621 8.367-4.871a19.829 19.829 0 003.71-5.413 18.085 18.085 0 001.47-7.614 19.021 19.021 0 00-2.502-9.075z" fill="url(#linear-gradient-19)"/><path id="Path_155" data-name="Path 155" d="M8627.714 170.912l-1.621-.66.723.5c.297.048.599.109.898.16z" fill="url(#linear-gradient-20)"/></g><path id="Path_156" data-name="Path 156" d="M8622.962 267.422a16.9 16.9 0 014.817-1.009 9.864 9.864 0 003.027-.262 1.345 1.345 0 00.48-.548c1.261-2.829 1.115-6.227 1.315-9.309l.257-.016a36.949 36.949 0 01.6 7.44c-.069 2.019-.664 4.142-2.914 4.777a8.361 8.361 0 01-7.608-.819l.029-.254z" fill="#fff"/><path id="Path_157" data-name="Path 157" d="M8630.031 222.942c1.973 1.189 2.524 2.942 2.574 5.045a19.282 19.282 0 01-.1 5.679l-.255.006a44.99 44.99 0 00-1.641-5.205 6.84 6.84 0 01-.817-5.422l.234-.1z" fill="#fff"/><path id="Path_158" data-name="Path 158" d="M8635.63 177.753c12.137 3.567 15.173 16.688 6.555 25.738 4.488-11.115 3.136-18.283-6.555-25.738z" fill="#fff"/></g></g></g><g id="Group_84" data-name="Group 84"><path id="Path_160" data-name="Path 160" d="M8920.842 200.779a27.765 27.765 0 00-2.1-2.644 13.211 13.211 0 00-1.007-1.071c-.38-.379-.687-.686-.977-.922-5.085-4.617-12.011-7.241-20.32-7.735a28.661 28.661 0 003.384-4.585 28.415 28.415 0 006.675-22.344 19.4 19.4 0 00-4.46-10.121 16.218 16.218 0 00-10.3-5.2 19.414 19.414 0 00-3.639-.091 22.162 22.162 0 00-15.26 8.253 29.766 29.766 0 00-2.539 3.61c-.129.148-.26.292-.386.444a29.234 29.234 0 00-2.161 3 61.655 61.655 0 00-4.969.135 47.491 47.491 0 00-7.493 1.1c-5.618 1.315-9.991 3.6-13 6.786a18.336 18.336 0 00-2.809 3.942c-.037.038-.079.073-.115.111a21.528 21.528 0 00-5.429 13.587 22.844 22.844 0 004.034 14.494 24.261 24.261 0 0011.475 8.44c.987.372 2.033.709 3.1 1l.146.054a6.524 6.524 0 00.969.3c-.028.049-.054.1-.081.148-.079.084-.159.168-.237.254a18.784 18.784 0 00-4.632 9.28 21.7 21.7 0 001.108 11.044c2.621 7.357 7.882 12.552 11.833 15.615a41.708 41.708 0 0017.534 8.006 36.6 36.6 0 009.483.555 40.206 40.206 0 0027.032-13.166 33.212 33.212 0 003.524-4.751 30.776 30.776 0 007.316-17.218 31.763 31.763 0 00-5.699-20.31z"/><g id="Group_83" data-name="Group 83" clip-path="url(#clip-path-9)"><g id="Group_82" data-name="Group 82"><g id="Group_81" data-name="Group 81"><path id="Path_161" data-name="Path 161" d="M8915.119 197.61s.2.2.755.741.765.737.767.737-1.517-1.478-1.522-1.478z" fill="url(#linear-gradient-21)"/><path id="Path_162" data-name="Path 162" d="M8918.747 201.676a24.766 24.766 0 00-2.873-3.325c-6.9-6.734-16.7-8.287-26.187-7.484a68.853 68.853 0 00-12.122 2.2c-3.406.924-6.7 2.207-10.125 3.064a26.789 26.789 0 01-4.2.773q-.337.028-.672.042c-1.509.059-3.255-.11-4.31-1.329a4.168 4.168 0 01-.334-4.273 6.3 6.3 0 012.613-3.436 3.791 3.791 0 011.509-.462c2.364-.2 4.608 1.9 6.231 3.44.268.254.535.508.809.755.126.114.375.426.535.461a.273.273 0 00.077 0 5.934 5.934 0 001-.362q.659-.224 1.316-.457a83.889 83.889 0 014.941-1.6 72.184 72.184 0 0110-2.123q1.263-.171 2.531-.294h.042c.414-.035.962-.015 1.474-.058a2.346 2.346 0 001.115-.313 27.554 27.554 0 003.309-2.688 26.5 26.5 0 005.775-7.971 25.7 25.7 0 002.169-14.736 16.98 16.98 0 00-3.975-8.738 13.672 13.672 0 00-8.751-4.223 16.754 16.754 0 00-3.156-.032 19.5 19.5 0 00-13.356 7.529c-4.163 5.185-6.215 11.82-6.9 18.357a68.171 68.171 0 00-.257 3.47 37.87 37.87 0 01.4-13.746c-1.655 0-3.315.064-4.97.2a44.658 44.658 0 00-7.071 1.144c-4.289 1.071-8.593 2.907-11.631 6.223a18.989 18.989 0 00-4.558 12.049 20.291 20.291 0 003.761 12.812 21.744 21.744 0 0010.393 7.368 34.7 34.7 0 002.922.9 4.713 4.713 0 001.2.32.428.428 0 00.065-.01c.167-.04.417-.339.556-.447.247-.193.5-.382.754-.563a20.541 20.541 0 016.03-2.868 24.658 24.658 0 014.884-.9 33.145 33.145 0 0120.111 5.324c6.4 4.092 12.947 11.777 9.814 19.9a12.231 12.231 0 01-.849 1.744 16.6 16.6 0 00-.492-7.385 19.762 19.762 0 00-5.175-7.957 30.276 30.276 0 00-17.405-7.989 25.566 25.566 0 00-5.024-.083 18.231 18.231 0 00-12.413 5.83 16.247 16.247 0 00-3.889 8.071 19.09 19.09 0 001.143 9.716 32.665 32.665 0 0011.2 14.287 39.165 39.165 0 0016.559 7.273 34.089 34.089 0 008.828.384 37.911 37.911 0 0025.115-12.687 28.207 28.207 0 007.032-16.519 29.241 29.241 0 00-5.518-18.578z" fill="url(#linear-gradient-22)"/></g><path id="Path_163" data-name="Path 163" d="M8879.046 154.4c6.691-5.474 17.88-6.2 21.178 3.356a17.607 17.607 0 01.812 8.017 36.714 36.714 0 00-2.655-7.209c-3.811-7.8-12.344-6.224-19.334-4.164z" fill="#fff"/><path id="Path_164" data-name="Path 164" d="M8877.747 207.678a6.117 6.117 0 015.525-.152 17.527 17.527 0 014.557 3.16 13.264 13.264 0 012.147 2.886l-.2.156a16.1 16.1 0 00-5.73-3.423 17.506 17.506 0 01-6.292-2.371v-.256z" fill="#fff"/><path id="Path_165" data-name="Path 165" d="M8897.192 194.571c17.437-3.228 28.951 17.082 23.29 32.2a21.984 21.984 0 01-9.864 11.765 25.624 25.624 0 007.961-12.375c4.029-14.373-5.387-31.681-21.387-31.591z" fill="#fff"/></g></g></g><g id="Group_88" data-name="Group 88"><path id="Path_167" data-name="Path 167" d="M8566.236 267a13.752 13.752 0 00-2.577-6.013 6.79 6.79 0 00-.923-1.014l-.023-.022-.007-.006a17.588 17.588 0 00-3.741-2.505 11.781 11.781 0 00-5.956-1.609c-.1 0-.2.011-.3.019a11.992 11.992 0 00-5.211 2c-.442.269-.88.544-1.317.82-.927.583-1.8 1.134-2.7 1.61a11.247 11.247 0 01-4.368 1.306 12.492 12.492 0 01-3.516-.224 23.732 23.732 0 01-7.919-3.336 30.747 30.747 0 01-11.782-13.128 16.83 16.83 0 01-1.52-6.5 25.248 25.248 0 0017.5 5.614 18.236 18.236 0 008.711-2.984 15.267 15.267 0 005.32-6.135 15.219 15.219 0 004.325-11.577c-.263-4.729-2.491-9.571-6.447-14-6.271-7.026-15.651-12.341-25.735-14.58a43.206 43.206 0 00-12.82-.954c-6.537.553-11.929 2.755-16.021 6.545a21.269 21.269 0 00-4.264 5.539 22.779 22.779 0 00-5.225 10.652c-.747 3.65-.391 7.834 1.086 12.791a62.983 62.983 0 006.449 14.143 113.924 113.924 0 008.765 12.608 142.253 142.253 0 0021.663 21.9c4.365 3.539 8.827 5.968 12.666 8.883 4.7 3.569 10.209 7.182 14.924 5.77 1.238-.371 2.563.181 3.8.076a14.931 14.931 0 0010.855-5.827 17.527 17.527 0 001.666-2.707 14.425 14.425 0 001.2-1.39 20.428 20.428 0 003.442-15.765z"/><g id="Group_87" data-name="Group 87" clip-path="url(#clip-path-10)"><g id="Group_86" data-name="Group 86"><g id="Group_85" data-name="Group 85"><path id="Path_168" data-name="Path 168" d="M8560.968 261.823c.034.033.068.066.1.1l.468.445z" fill="url(#linear-gradient-23)"/><path id="Path_169" data-name="Path 169" d="M8563.722 267.486a10.631 10.631 0 00-2.652-5.563l-.11-.107a15.071 15.071 0 00-3.194-2.115 9.224 9.224 0 00-4.638-1.314c-.068 0-.136.008-.2.013a9.641 9.641 0 00-4.1 1.636c-1.383.842-2.721 1.75-4.154 2.507a13.866 13.866 0 01-5.348 1.593 15 15 0 01-4.235-.265 26.33 26.33 0 01-8.782-3.682 33.407 33.407 0 01-12.756-14.255 18.455 18.455 0 01-1.672-9.3 14.523 14.523 0 011-4.034c.1-.251.215-.5.334-.744.074-.153.381-.564.373-.728-.009-.205-.491-.627-.625-.809q-.422-.575-.816-1.168a34.969 34.969 0 01-4.59-10.163 28.592 28.592 0 01-1.187-7.11 51.257 51.257 0 003.6 8.865 35.1 35.1 0 008.876 11.564 22.781 22.781 0 0015.678 5.054 15.769 15.769 0 007.5-2.561 12.74 12.74 0 005.647-11.347c-.261-4.71-2.721-8.988-5.8-12.439-6.258-7.012-15.267-11.762-24.38-13.786a40.529 40.529 0 00-12.05-.9c-5.35.452-10.521 2.189-14.5 5.872a19.874 19.874 0 00-5.855 10.73c-.778 3.807-.062 7.879 1.031 11.547a60.675 60.675 0 006.2 13.565 110.525 110.525 0 008.567 12.323 139.759 139.759 0 0021.272 21.5 99.813 99.813 0 0012.349 8.663c4.269 2.5 8.965 4.837 13.936 5.438a16.066 16.066 0 003.276.066 12.314 12.314 0 009.028-4.818 17.765 17.765 0 002.977-13.728z" fill="url(#linear-gradient-24)"/></g><path id="Path_170" data-name="Path 170" d="M8507.1 198.455c9.9-1.7 21.067 1.666 27.562 9.526 2.083 3.027 2.273 3.157-.694.709-7.854-5.852-17.313-8.52-26.867-10.235z" fill="#fff"/><path id="Path_171" data-name="Path 171" d="M8511.632 230.218a16.833 16.833 0 01-1.579 6.566 14.2 14.2 0 00-.265 6.647l-.238.093a12.023 12.023 0 01-1.562-6.146c.1-1.538.037-3.186.787-4.58a6.267 6.267 0 012.646-2.725l.211.145z" fill="#fff"/><path id="Path_172" data-name="Path 172" d="M8545.531 265.562c2.913-5.655 10.388-7.964 14.025-1.67 1.184 1.968-.528.277-1.426 0-4.874-2.794-8.027-.206-12.6 1.666z" fill="#fff"/></g></g></g></g></g></g></g></g></svg>