<svg xmlns="http://www.w3.org/2000/svg" width="653.352" height="586.043"><defs><clipPath id="clip-path"><path id="Path_2711" data-name="Path 2711" d="M6710.575 2458.787c-.037.519-.037 1.037-.074 1.556.037.037 0 .111 0 .185a303.864 303.864 0 01-38.761 138.146 314.3 314.3 0 01-10.709 17.639c-5.41 8.264-11.228 16.231-17.343 23.9a309.32 309.32 0 01-20.714 23.272 305.114 305.114 0 01-521.863-190.951c-.26-3.854-.482-7.671-.63-11.562-.037-.037-.037-.037 0-.074a69.656 69.656 0 01-.074-2.779c4.409-23.827 139.294-42.948 305.01-42.948 167.309.001 303.12 19.492 305.158 43.616z" fill="#347b00"/></clipPath></defs><g id="Group_1236" data-name="Group 1236" transform="translate(-6078.927 -2190.007)"><g id="Group_1234" data-name="Group 1234"><g id="Group_1224" data-name="Group 1224"><path id="Path_2564" data-name="Path 2564" d="M6405.454 2775.05a325.416 325.416 0 01-324.775-301.1c-.307-4.539-.548-8.117-.59-11.034l-.071-1.18c-.046-1.154-.09-4.464-.09-4.818 0-24.406 28.891-35.092 38.385-38.6 14.054-5.186 32.71-9.889 55.47-13.985a232.44 232.44 0 01463.3-.06c22.883 4.1 41.613 8.815 55.682 14 9.527 3.509 38.516 14.189 38.516 38.649a26.9 26.9 0 01-.289 3.926c0 .327-.02.655-.042.983a326.369 326.369 0 01-41.35 146.881 339.192 339.192 0 01-11.426 18.815c-5.569 8.51-11.8 17.091-18.508 25.506a331.5 331.5 0 01-22.1 24.83 323.425 323.425 0 01-232.112 97.187z"/><path id="Path_2565" data-name="Path 2565" d="M6405.435 2192.007a231.461 231.461 0 01230.709 213.109c23.174 4.128 42.1 8.865 56.271 14.09 9.366 3.45 37.864 13.948 37.864 37.711a26.158 26.158 0 01-.289 3.846c0 .333-.019.666-.041 1a325.461 325.461 0 01-41.224 146.455 339.434 339.434 0 01-11.392 18.76c-5.555 8.487-11.763 17.042-18.453 25.428a329.858 329.858 0 01-22.026 24.752 324.606 324.606 0 01-555.179-203.284c-.313-4.66-.545-8.116-.586-10.973l-.073-1.224a246.31 246.31 0 01-.089-4.759c0-23.719 28.409-34.217 37.743-37.669 14.15-5.222 32.993-9.953 56.049-14.071a231.456 231.456 0 01230.716-213.17m0-2a233.461 233.461 0 00-232.584 213.474c-22.476 4.073-40.931 8.745-54.874 13.89-9.669 3.577-39.05 14.445-39.05 39.546 0 .356.045 3.7.091 4.839l.072 1.22c.044 2.925.285 6.5.59 11.032a326.724 326.724 0 00558.6 204.553 331.7 331.7 0 0022.16-24.9c6.735-8.442 12.98-17.048 18.568-25.585a341.691 341.691 0 0011.461-18.875 327.363 327.363 0 0041.478-147.33c.021-.315.036-.63.042-.945a27.991 27.991 0 00.291-4.005c0-25.16-29.484-36.019-39.172-39.587-13.965-5.148-32.5-9.826-55.095-13.91a233.463 233.463 0 00-232.577-213.413z" fill="#fff"/></g><g id="Group_1228" data-name="Group 1228"><path id="Path_2566" data-name="Path 2566" d="M6710.575 2458.787c-.037.519-.037 1.037-.074 1.556.037.037 0 .111 0 .185a303.864 303.864 0 01-38.761 138.146 314.3 314.3 0 01-10.709 17.639c-5.41 8.264-11.228 16.231-17.343 23.9a309.32 309.32 0 01-20.714 23.272 305.114 305.114 0 01-521.863-190.951c-.26-3.854-.482-7.671-.63-11.562-.037-.037-.037-.037 0-.074a69.656 69.656 0 01-.074-2.779c4.409-23.827 139.294-42.948 305.01-42.948 167.309.001 303.12 19.492 305.158 43.616z" fill="#347b00"/><g id="Group_1227" data-name="Group 1227" clip-path="url(#clip-path)"><g id="Group_1226" data-name="Group 1226"><g id="Group_1225" data-name="Group 1225" fill="#1e5412"><path id="Path_2567" data-name="Path 2567" d="M6336.732 2537.271c3.285 6.139 35.644 2.887 35.368-6.547-5.5-4.345-32.761-7.146-35.368 6.547z" opacity=".5"/><path id="Path_2568" data-name="Path 2568" d="M6257.761 2656.94c4.24-7.141-7.605-7.842-7.221-1.725.194 3.178 5.56 5.045 7.221 1.725z" opacity=".5"/><path id="Path_2569" data-name="Path 2569" d="M6307.85 2654.981c-.542-8.684-32.779-11.491-32.146-1.309.958 15.215 32.616 8.881 32.146 1.309z" opacity=".5"/><path id="Path_2570" data-name="Path 2570" d="M6224.14 2696.767c1.014 16.255 42.983 5.03 42.182-7.815-.872-14.054-14.093-4.5-20.678-2.541-6.404 1.926-22.428-4.494-21.504 10.356z" opacity=".5"/><path id="Path_2571" data-name="Path 2571" d="M6526.785 2559.559c-5.218 4.276-3.577 6.855-9.825 5.623-3.217-.625-11.58-4.02-11.178 2.41.313 5.045 2.719 8.557 5.969 10.509a234.833 234.833 0 0032.947-24.016c-6.493.201-15.657 3.615-17.913 5.474z" opacity=".5"/><path id="Path_2572" data-name="Path 2572" d="M6315.228 2442.061c-.2-3.205-3.829-6.929-7.337-8.462l-5.626.451a6.3 6.3 0 00-.963 4.4c.57 9.123 14.091 6.322 13.926 3.611z" opacity=".5"/><path id="Path_2573" data-name="Path 2573" d="M6355.6 2504.728c-.59-9.411-22.713-12.229-22.272-5.024.566 9.025 22.651 11.096 22.272 5.024z" opacity=".5"/><path id="Path_2574" data-name="Path 2574" d="M6346.2 2454.2c-4.023-2.467-6.78-4.366-8.866-.181 1.116 17.89 15.176 4.043 8.866.181z" opacity=".5"/><path id="Path_2575" data-name="Path 2575" d="M6294.308 2542.8c.623 10.033 20.483 11.471 25.758 4.654 11.166-14.485-26.408-15.117-25.758-4.654z" opacity=".5"/><path id="Path_2576" data-name="Path 2576" d="M6310.374 2505.757c-.475-1.931-.835-9.141-4.016-6.923a877.63 877.63 0 00-1.6 3.708c.171 2.733 3.642 3.836 5.616 3.215z" opacity=".5"/><path id="Path_2577" data-name="Path 2577" d="M6284.1 2588.659a5.608 5.608 0 009.691 3.6c8.172-8.826-10.225-12.115-9.691-3.6z" opacity=".5"/><path id="Path_2578" data-name="Path 2578" d="M6303.049 2472.228c-.534-8.516-21.594-12.309-20.971-2.176.595 9.412 21.587 12.134 20.971 2.176z" opacity=".5"/><path id="Path_2579" data-name="Path 2579" d="M6158.609 2445.589l-24.878 2c4.218 4.287 16.522 2.26 24.878-2z" opacity=".5"/><path id="Path_2580" data-name="Path 2580" d="M6270.986 2619.425c-.652-10.6-43.655-18.479-42.487.234 1.123 18.213 42.794 4.626 42.487-.234z" opacity=".5"/><path id="Path_2581" data-name="Path 2581" d="M6190.144 2463.654c4.6.451 4.549-5.062 7.582-7.517 7.931-6.383-18.769-16.543-18.072-5.4.346 5.845 5.359 12.423 10.49 12.917z" opacity=".5"/><path id="Path_2582" data-name="Path 2582" d="M6150.822 2543.452c13.633-12.976-40.618-31.5-39.021-5.91 1.045 16.898 30.081 14.42 39.021 5.91z" opacity=".5"/><path id="Path_2583" data-name="Path 2583" d="M6135.019 2483.655c.41 6.648 9.787 4.828 9.37-1.836s-9.789-4.833-9.37 1.836z" opacity=".5"/><path id="Path_2584" data-name="Path 2584" d="M6207.546 2503.015c10.741-10.627-16.051-14.818-19.351-14.765-9.16.148-29.272-12.8-28.074 6.461.885 14.171 37.761 17.889 47.425 8.304z" opacity=".5"/><path id="Path_2585" data-name="Path 2585" d="M6260.869 2583.1c-.485-7.788-10.832-4.133-10.457 1.852.43 6.948 10.92 5.506 10.457-1.852z" opacity=".5"/><path id="Path_2586" data-name="Path 2586" d="M6239.935 2505.843c.5 8.032 27.936 11.671 27.254.694-.942-15.126-27.903-11.093-27.254-.694z" opacity=".5"/><path id="Path_2587" data-name="Path 2587" d="M6264.433 2545.957c-.817-13.185-17.484-5.412-23.915-8.664-7.334-3.7-28.048-13.715-26.826 5.984 1.348 21.529 51.663 17.529 50.741 2.68z" opacity=".5"/><path id="Path_2588" data-name="Path 2588" d="M6250.726 2469.018c-.9-14.394-30.89-12.123-30.308-2.759.848 13.641 31.155 16.441 30.308 2.759z" opacity=".5"/><path id="Path_2589" data-name="Path 2589" d="M6178.531 2581.009c1.14 18.383 37.475 18.617 36.69 6.032-.768-10.844-13.2-4.324-18.575-9.687-5.139-5.137-18.831-11.8-18.115 3.655z" opacity=".5"/><path id="Path_2590" data-name="Path 2590" d="M6509.831 2542.832c6.379-5.815 5.65-5.561 14.438-7.088 1.715-.3 7.969-.77 9.362-3.29-1.1.212-3.337-4.929-5.85-4.441-5.833 1.126-8.812 5.1-15.075 3.284-7.659-2.223-27.758-9.777-26.545 9.667.753 12.054 18.258 6.796 23.67 1.868z" opacity=".5"/><path id="Path_2591" data-name="Path 2591" d="M6505.493 2506.214c.682 10.955 42.2 7.751 46.8.446 2.951-4.7-19.64-6.426-23.635-8.866-5.314-3.236-24.05-5.804-23.165 8.42z" opacity=".5"/><path id="Path_2592" data-name="Path 2592" d="M6140.494 2577.114c.235 3.931 7.5 6.426 7.16.9-.354-5.627-5.354-3.674-7.16-.9z" opacity=".5"/><path id="Path_2593" data-name="Path 2593" d="M6422.122 2595.089c.417 6.611 9.73 4.8 9.324-1.83s-9.732-4.796-9.324 1.83z" opacity=".5"/><path id="Path_2594" data-name="Path 2594" d="M6575.592 2485.029c-.044-.7-27.369-9.963-27.018-4.271.265 4.208 27.606 13.752 27.018 4.271z" opacity=".5"/><path id="Path_2595" data-name="Path 2595" d="M6569.048 2527.212c-5.589 2.536-10.766 5.672-11.17 7.041.112 1.771 1.451 2.674 3.424 2.96 2.748-3.247 5.359-6.563 7.746-10.001z" opacity=".5"/><path id="Path_2596" data-name="Path 2596" d="M6478.61 2504.452c.413 6.717 9.833 4.865 9.416-1.835s-9.837-4.865-9.416 1.835z" opacity=".5"/><path id="Path_2597" data-name="Path 2597" d="M6590.481 2470.949c.078 1.3 1.6 2.053 3.36 2.175q1.221-4.481 2.187-8.8c-2.637.062-5.767 3.028-5.547 6.625z" opacity=".5"/><path id="Path_2598" data-name="Path 2598" d="M6468.443 2587.529c-5.486-3.077-13.919 2.9-18.319 6.4.6 9.624 45.206 3.486 33.246-10.881-7.727-9.275-9.759 7.367-14.927 4.481z" opacity=".5"/><path id="Path_2599" data-name="Path 2599" d="M6459.106 2518.909c7.838-11.263-22.656-18.234-21.532-.233.441 7.178 18.526 4.536 21.532.233z" opacity=".5"/><path id="Path_2600" data-name="Path 2600" d="M6428.629 2556.838c.586 9.448 7.334 12.5 14.806 9.072 5.842-2.69 23.645-7.439 27.04-14.022 10.345-20.017-42.854-11.243-41.846 4.95z" opacity=".5"/><path id="Path_2601" data-name="Path 2601" d="M6426.733 2483.682c.863 13.826 35.249 10.34 34.65.78-.355-5.773-34.419-17.19-34.65-.78z" opacity=".5"/><path id="Path_2602" data-name="Path 2602" d="M6421.824 2453c-2.114-.333-5.519-.2-5.313 3.173.702 11.248 8.404-.785 5.313-3.173z" opacity=".5"/><path id="Path_2603" data-name="Path 2603" d="M6409.877 2543.67c-.826-11.2-21.074-1.258-20.608 6.324.377 6.047 21.424 4.745 20.608-6.324z" opacity=".5"/><path id="Path_2604" data-name="Path 2604" d="M6387.427 2450.475c-.631-10.085-22.5-11.847-21.779-.26.639 10.285 22.421 10.632 21.779.26z" opacity=".5"/><path id="Path_2605" data-name="Path 2605" d="M6576.489 2429.439c3.1 5.476 9.2 22.2 17.538 10.5a4.407 4.407 0 00.745-1.767 100.135 100.135 0 00-19.679-17.847c-5.635-2.249-10.258-2.86-10.089-.27.636 10.265 7.722 2.705 11.485 9.384z" opacity=".5"/><path id="Path_2606" data-name="Path 2606" d="M6399.135 2511.758c.364 5.91 11.039 8.287 14.385 3.841 4.248-5.587-14.962-13.099-14.385-3.841z" opacity=".5"/><path id="Path_2607" data-name="Path 2607" d="M6406.647 2486c-3.5-5.22-20.2-14.706-19.278.154.608 9.714 24.351 7.375 19.278-.154z" opacity=".5"/><path id="Path_2608" data-name="Path 2608" d="M6395.4 2585.98c-3.8 1.868-32.48 7.708-32.241 11.449.608 9.847 23.2 14.637 29.722 13.624 7.2-1.114 9.981-10.494 9.765-17.455-.132-4.127 6.43-3.978 8.106-4.53 1.943-.642 6.764-5.1 3.057-7.205-4.869-2.763-13.636 1.777-18.409 4.117z" opacity=".5"/><path id="Path_2609" data-name="Path 2609" d="M6444.613 2433.026c-.224-3.592-3.825-7.1-8.337-9.74l-18.9 1.517c3.25 11.523 28.047 21.163 27.237 8.223z" opacity=".5"/><path id="Path_2610" data-name="Path 2610" d="M6543.827 2420.543a26.489 26.489 0 00-6.118-5.407l-24.578 1.974c5.519 1.014 11 1.729 13.6 3.3 1.487.902 21.024 5.756 17.096.133z" opacity=".5"/><path id="Path_2611" data-name="Path 2611" d="M6536.271 2445.584c.529 8.536 25.689 17.083 30.486 10.165-.832-8.801-31.548-27.227-30.486-10.165z" opacity=".5"/><path id="Path_2612" data-name="Path 2612" d="M6472.392 2461.823c2.966-8.525-16.793-14.9-16.2-5.464.497 8.041 12.126 17.195 16.2 5.464z" opacity=".5"/><path id="Path_2613" data-name="Path 2613" d="M6505.24 2430.241c-.5-7.922-36.815-11.688-36.38-4.685.64 10.409 37.492 22.616 36.38 4.685z" opacity=".5"/><path id="Path_2614" data-name="Path 2614" d="M6273.03 2438.48a5.968 5.968 0 00.53-2.122l-6.209.5c.149 2.619 4.362 4.688 5.679 1.622z" opacity=".5"/><path id="Path_2615" data-name="Path 2615" d="M6220.824 2726.3a125.47 125.47 0 0016.727-1.226c-5.669-2.067-12.851-2.003-16.727 1.226z" opacity=".5"/><path id="Path_2616" data-name="Path 2616" d="M6111.389 2467.9c5.365-10.6-42.665-21.99-41.157 2.224.809 12.937 36.691 6.57 41.157-2.224z" opacity=".5"/><path id="Path_2617" data-name="Path 2617" d="M6488.65 2462.375c.7 11.163 32.963 17.964 32.5 10.6-.558-9.045-33.493-26.622-32.5-10.6z" opacity=".5"/><path id="Path_2618" data-name="Path 2618" d="M6234.689 2661.56c1.371-3.931-42.744-10.642-41.695 6.272.968 15.581 38.074 4.159 41.695-6.272z" opacity=".5"/><path id="Path_2619" data-name="Path 2619" d="M6176.973 2713.617c.4 6.488 12.563 13.306 11.924 2.971-.517-8.325-12.497-15.359-11.924-2.971z" opacity=".5"/><path id="Path_2620" data-name="Path 2620" d="M6186.694 2630.237c.186 2.923 7.049 2.9 9.015 1.332-1.509-5.644-9.821-14.269-9.015-1.332z" opacity=".5"/><path id="Path_2621" data-name="Path 2621" d="M6520.9 2439.631c-.76-3.661-5.176.446-5.028 2.907.246 3.894 6.068 1.985 5.028-2.907z" opacity=".5"/><path id="Path_2622" data-name="Path 2622" d="M6353.319 2665.4c1.438-1.1 2.86-2.208 4.28-3.29a14.618 14.618 0 00-4.28 3.29z" opacity=".5"/><path id="Path_2623" data-name="Path 2623" d="M6374.74 2573.284c2.938-4.238-8.94-9.241-12.237-5.926-7.127 7.125-16.81-3.013-23.946 3.146 2.335 10.075 30.325 11.168 36.183 2.78z" opacity=".5"/><path id="Path_2624" data-name="Path 2624" d="M6337.3 2638.5c1.517 8.595 35.443 2.944 39.79-3.306-1.55-21.875-34.372-10.734-39.79 3.306z" opacity=".5"/><path id="Path_2625" data-name="Path 2625" d="M6408.861 2623.8c-1.189-6.107-9.5-3.687-10.448 2.128a5.448 5.448 0 001.462 5.2 178.103 178.103 0 019.179-5.528 10.574 10.574 0 00-.193-1.8z" opacity=".5"/><path id="Path_2626" data-name="Path 2626" d="M6296.163 2620.285c1.2 19.423 43.263 7.528 44.993-6.749.533-7.48-46.126-11.449-44.993 6.749z" opacity=".5"/><path id="Path_2627" data-name="Path 2627" d="M6286.781 2686.06c1.176 18.919 37.264-4.694 35.305-7.936-5.779-9.513-32.996-5.168-35.305 7.936z" opacity=".5"/><path id="Path_2628" data-name="Path 2628" d="M6184.7 2543.288c-.476-7.592-10.373-4.521-9.931 2.5.395 6.45 10.356 4.428 9.931-2.5z" opacity=".5"/><path id="Path_2629" data-name="Path 2629" d="M6035.972 2553.389a381.58 381.58 0 003.531 14.807c3.55-3.4 5.764-8.44 2.747-12.822-1.804-2.632-4.064-2.945-6.278-1.985z" opacity=".5"/><path id="Path_2630" data-name="Path 2630" d="M6042.371 2516.681c.9 14.462 19.937 8.245 19.028-6.313-.805-12.999-19.764-5.64-19.028 6.313z" opacity=".5"/><path id="Path_2631" data-name="Path 2631" d="M6070.794 2644.254a203.59 203.59 0 0011.836 17.184c13.176 2.324 30.841-1.241 30.139-12.488-.162-2.701-33.117-14.51-41.975-4.696z" opacity=".5"/><path id="Path_2632" data-name="Path 2632" d="M6072.922 2546.545c.47 7.587 14.161 10.584 13.617 1.915-.525-8.393-14.295-12.76-13.617-1.915z" opacity=".5"/><path id="Path_2633" data-name="Path 2633" d="M6054.24 2479.761c-.447-7.162-9.986-.281-9.6 5.868.379 6.101 9.926-.775 9.6-5.868z" opacity=".5"/><path id="Path_2634" data-name="Path 2634" d="M6111.753 2502.813c-.7-11.205-36.34-14.8-35.266 2.446 1.013 16.335 35.505 1.441 35.266-2.446z" opacity=".5"/><path id="Path_2635" data-name="Path 2635" d="M6094.987 2614.571c-1.784-.664-2.846.159-3.218 2.488.28 4.499 5.908-.738 3.218-2.488z" opacity=".5"/><path id="Path_2636" data-name="Path 2636" d="M6142.985 2683.233c-6.391-5.433-24.462-16.2-22.978 4.844 1.177 18.966 32.223 17.576 41.833 5.156 8.96-11.592-16.029-7.618-18.855-10z" opacity=".5"/><path id="Path_2637" data-name="Path 2637" d="M6159.441 2656.833c8.071-10.35-7.611-7.231-7.38-3.5.323 5.214 2.28 10.067 7.38 3.5z" opacity=".5"/><path id="Path_2638" data-name="Path 2638" d="M6138.977 2609.323c-6.229-3.458-17.72-6.742-17.4 6.664.57 9.078 46.994 19.466 46.044 4.138-.41-6.547-23.359-7.862-28.644-10.802z" opacity=".5"/><path id="Path_2639" data-name="Path 2639" d="M6095.214 2572.117c-7.284 1.034-34.963-4.5-33.975 11.37 1.384 22.2 43.366 8.716 52.838-1.539 10.59-11.448-15.449-10.32-18.863-9.831z" opacity=".5"/><path id="Path_2640" data-name="Path 2640" d="M6668.556 2502.846c1.726.209 21.527-3.427 15.628-6.93a26.506 26.506 0 00-7.8-2.4l-21.576 11.935c5.443-1.351 10.729-2.962 13.748-2.605z" opacity=".5"/><path id="Path_2641" data-name="Path 2641" d="M6444.894 2623.95a5.97 5.97 0 00-.394-2.152l-5.45 3.015c1.219 2.326 5.909 2.473 5.844-.863z" opacity=".5"/><path id="Path_2642" data-name="Path 2642" d="M6467.643 2688.357c-7.1-13.39-29.994 1.4-25.114 10.609 3.771 7.111 30.263-.89 25.114-10.609z" opacity=".5"/><path id="Path_2643" data-name="Path 2643" d="M6619.121 2564.692c3.773 7.12 18.142 10.661 17.015-1.706-.815-8.986-21.444-6.644-17.015 1.706z" opacity=".5"/><path id="Path_2644" data-name="Path 2644" d="M6627.866 2629.139c3.363 6.357 18.747-3.508 19.711-8.669 2.495-13.493-28.16-7.27-19.711 8.669z" opacity=".5"/><path id="Path_2645" data-name="Path 2645" d="M6653.033 2520.667c-3.722-7.01-38.358 4.537-35.074 10.738 4.88 9.216 43.483 5.138 35.074-10.738z" opacity=".5"/><path id="Path_2646" data-name="Path 2646" d="M6486.159 2642.312c-4-7.538-24.748-2.307-20 6.667 4.423 8.329 24.668 2.15 20-6.667z" opacity=".5"/><path id="Path_2647" data-name="Path 2647" d="M6659.382 2599.256c3.146 5.948 10.965.375 7.821-5.557s-10.969-.374-7.821 5.557z" opacity=".5"/><path id="Path_2648" data-name="Path 2648" d="M6651.173 2556.784c5.244 9.879 37.439 2.768 33.979-3.749-4.238-8.01-41.491-10.435-33.979 3.749z" opacity=".5"/><path id="Path_2649" data-name="Path 2649" d="M6684.6 2589.772c5.14 9.7 41.638-10.343 42.821-18.9.749-5.5-20.542 2.248-25.187 1.672-6.181-.753-24.308 4.636-17.634 17.228z" opacity=".5"/><path id="Path_2650" data-name="Path 2650" d="M6671.169 2522.763c-2.2-3.022-4.531 2.541-3.381 4.723 1.832 3.445 6.349-.696 3.381-4.723z" opacity=".5"/><path id="Path_2651" data-name="Path 2651" d="M6543.672 2687.672c5.524 4.237 33.661-12.073 29.519-20.551-6.805-1.69-32.791 7.002-29.519 20.551z" opacity=".5"/><path id="Path_2652" data-name="Path 2652" d="M6719.594 2518.531c-4.388-7.675-39.969-11.791-31.964 3.314 4.002 7.555 30.448 4.967 31.964-3.314z" opacity=".5"/><path id="Path_2653" data-name="Path 2653" d="M6717.608 2490.55c5.082 3.709 17.534 16.428 20.308 2.33a4.423 4.423 0 00-.05-1.916 100.185 100.185 0 00-25.288-8.142c-6.062.275-10.525 1.626-9.3 3.915 4.811 9.09 8.147-.72 14.33 3.813z" opacity=".5"/><path id="Path_2654" data-name="Path 2654" d="M6484.811 2609.807c-1.5-2.836-6.346-4.733-10.173-4.683l-4.94 2.732a6.305 6.305 0 00.939 4.409c4.281 8.073 15.443-.056 14.174-2.458z" opacity=".5"/><path id="Path_2655" data-name="Path 2655" d="M6364.887 2673.633c2.729 5.176 10 9.1 14.882 7.437 4.376-1.486 2.056-6.487 3.806-9.975 4.593-9.086-23.921-7.329-18.688 2.538z" opacity=".5"/><path id="Path_2656" data-name="Path 2656" d="M6376.861 2769.983c7.068-17.445-50-11.945-37.984 10.71 7.923 14.963 33.35.729 37.984-10.71z" opacity=".5"/><path id="Path_2657" data-name="Path 2657" d="M6554.054 2587.693c-4.735-8.927-25.386-1.51-19.948 8.747 4.823 9.103 24.81.438 19.948-8.747z" opacity=".5"/><path id="Path_2658" data-name="Path 2658" d="M6345.581 2716.49c-3.125-5.9-10.914-.364-7.779 5.537 3.115 5.887 10.907.362 7.779-5.537z" opacity=".5"/><path id="Path_2659" data-name="Path 2659" d="M6437.17 2660.969c-6.758-12.741-33.139 1.7-28.748 9.987 6.401 12.081 35.161 2.123 28.748-9.987z" opacity=".5"/><path id="Path_2660" data-name="Path 2660" d="M6586.43 2575.806c-2.063.568-5.111 2.093-3.531 5.082 5.279 9.956 7.332-4.182 3.531-5.082z" opacity=".5"/><path id="Path_2661" data-name="Path 2661" d="M6568.719 2620.224c4.558 8.594 25.223-3.33 17.5-8.091-5.347-3.31-24.471-5.065-17.5 8.091z" opacity=".5"/><path id="Path_2662" data-name="Path 2662" d="M6343.591 2677.621l-21.839 12.083c5.611 2.165 15.983-4.756 21.839-12.083z" opacity=".5"/><path id="Path_2663" data-name="Path 2663" d="M6635.444 2588.15c-2.705-5.112-38.445-1.462-31.887 13.581 6.488 12.24 36.376-5.119 31.887-13.581z" opacity=".5"/><path id="Path_2664" data-name="Path 2664" d="M6509.879 2611.584c8.4 15.836 15.5-2.577 8.151-3.492-4.683-.592-7.977-1.181-8.151 3.492z" opacity=".5"/><path id="Path_2665" data-name="Path 2665" d="M6500.148 2665.185c.019 1.336.046 2.692.07 4.039 1.285 2.417 4.9 1.991 6.443.611-1.228-1.564-4.529-7.983-6.513-4.65z" opacity=".5"/><path id="Path_2666" data-name="Path 2666" d="M6411.857 2709.749c5.4-14.111-20.734-6.878-23.719-5.469-8.283 3.913-31.944.416-22.908 17.466 6.65 12.544 41.77.718 46.627-11.997z" opacity=".5"/><path id="Path_2667" data-name="Path 2667" d="M6399.641 2762.231c3.019 5.715 11.259-.235 8.018-6.372-3.565-6.721-11.315.16-8.018 6.372z" opacity=".5"/><path id="Path_2668" data-name="Path 2668" d="M6381.337 2804.908c1.835 3.485 9.485 2.759 6.893-2.136-2.641-4.977-6.392-1.136-6.893 2.136z" opacity=".5"/><path id="Path_2669" data-name="Path 2669" d="M6751.434 2523.188q-.737-4.585-1.638-8.92c-2.377 1.145-4 5.139-2.32 8.324.609 1.157 2.304 1.208 3.958.596z" opacity=".5"/><path id="Path_2670" data-name="Path 2670" d="M6516.048 2907.677a125.429 125.429 0 0014.732-8.016c-6.015.458-12.534 3.479-14.732 8.016z" opacity=".5"/><path id="Path_2671" data-name="Path 2671" d="M6522.207 2861.1c-5.039 4.4-22.285 5.156-15.319 18.3 7.629 14.391 41.231-13.147 35.2-24.517-6.588-12.436-14.688 1.717-19.881 6.217z" opacity=".5"/><path id="Path_2672" data-name="Path 2672" d="M6559.537 2843.818c8.875 16.75 32.01-19.647 28.888-21.792-9.187-6.282-32.19 8.902-28.888 21.792z" opacity=".5"/><path id="Path_2673" data-name="Path 2673" d="M6495.769 2855.849c3.933-4.625 6.52-9.453 6.208-12.864-.132-1.468-5.6-.9-12.253 1.1a67 67 0 016.045 11.764z" opacity=".5"/><path id="Path_2674" data-name="Path 2674" d="M6614.173 2792.792a14.623 14.623 0 00-2.543 4.762c.855-1.598 1.695-3.19 2.543-4.762z" opacity=".5"/><path id="Path_2675" data-name="Path 2675" d="M6432.589 2781.966c-6.8-2.559-22.021-2.982-14.995 10.8 8.622 16.277 41.817 1.5 35.913-9.637-5.173-9.562-13.812 1.507-20.918-1.163z" opacity=".5"/><path id="Path_2676" data-name="Path 2676" d="M6565.912 2806.816c-4.076-7.688-34.6 3.051-29.825 12.065 7.148 13.466 33.376-5.362 29.825-12.065z" opacity=".5"/><path id="Path_2677" data-name="Path 2677" d="M6585.939 2779.654c4.926 7.2 33.5-11.937 34.884-19.423-10.431-19.289-35.736 4.399-34.884 19.423z" opacity=".5"/><path id="Path_2678" data-name="Path 2678" d="M6721.055 2602.07c-.917.649-5.073-3.113-7.161-1.632-4.85 3.431-5.925 8.279-12.379 9.21-7.894 1.134-29.319 2.541-20.194 19.754 5.658 10.671 19.435-1.339 22.333-8.061 3.413-7.928 2.854-7.4 10.23-12.413 1.439-.977 6.942-3.987 7.171-6.858z" opacity=".5"/><path id="Path_2679" data-name="Path 2679" d="M6726 2629.587c-2.99 6.048-.431 7.719-6.63 9.174-3.189.757-12.208 1.114-9.19 6.806 2.366 4.467 6.006 6.674 9.772 7.112a234.869 234.869 0 0020.109-35.468c-5.835 2.861-12.774 9.754-14.061 12.376z" opacity=".5"/><path id="Path_2680" data-name="Path 2680" d="M6713.345 2548.814c1.977 3.724 30.82 1.141 26.375-7.254-.327-.614-29.043 2.213-26.375 7.254z" opacity=".5"/><path id="Path_2681" data-name="Path 2681" d="M6748.226 2594.993c1.163-4.091 2.174-8.189 2.932-12.306-4.047 4.616-7.469 9.607-7.273 11.021.833 1.568 2.424 1.838 4.341 1.285z" opacity=".5"/><path id="Path_2682" data-name="Path 2682" d="M6696.135 2668.889c-10.863-5.26-5.85 10.739-11.749 10.241-6.267-.54-11.483 8.385-14.049 13.385 4.515 8.52 42.619-15.471 25.798-23.626z" opacity=".5"/><path id="Path_2683" data-name="Path 2683" d="M6632.276 2696.5c-5.571-.506-11.686 7.242-15.073 11.343-2.691 3.27-26.409 20.42-24.648 23.729 4.615 8.719 27.174 3.764 32.7.152 6.1-3.984 4.763-13.677 1.7-19.929-1.823-3.706 4.216-6.276 5.516-7.471 1.496-1.381 4.048-7.434-.195-7.824z" opacity=".5"/><path id="Path_2684" data-name="Path 2684" d="M6635.458 2667.592c4.431 8.366 11.836 8.363 17.23 2.158 4.212-4.859 18.472-16.528 18.849-23.926 1.163-22.502-43.676 7.433-36.079 21.768z" opacity=".5"/><path id="Path_2685" data-name="Path 2685" d="M6636.427 2742.992c.643 2.382 1.976 3.665 3.479 4.138q3-4.626 6.082-8.823a10.668 10.668 0 00-.92-1.563c-3.603-5.072-10.177.556-8.641 6.248z" opacity=".5"/><path id="Path_2686" data-name="Path 2686" d="M6645.308 2705.122c3.106 5.851 10.841.357 7.739-5.513s-10.847-.354-7.739 5.513z" opacity=".5"/><path id="Path_2687" data-name="Path 2687" d="M6527.234 2755.479c3.8-11.413-14.312-6.822-10.314.715a5.608 5.608 0 0010.314-.715z" opacity=".5"/><path id="Path_2688" data-name="Path 2688" d="M6547.437 2650.244c-4.42-8.33-25.736-1.772-22.361 4.609 4.237 7.988 25.21.764 22.361-4.609z" opacity=".5"/><path id="Path_2689" data-name="Path 2689" d="M6604.685 2636.257c1.566-6.841-19.034-5.762-14.689 2.434 2.77 5.233 13.474 2.996 14.689-2.434z" opacity=".5"/><path id="Path_2690" data-name="Path 2690" d="M6532.689 2703.821c4.2-17.8-30.291-2.878-25.384 6.385 4.705 8.883 23.39 2.001 25.384-6.385z" opacity=".5"/><path id="Path_2691" data-name="Path 2691" d="M6593.149 2704.8c.929-5.073-11.956-4.731-13.591-.351-3.554 9.43-16.556 4.188-20.517 12.743 6.283 8.216 32.232-2.332 34.108-12.392z" opacity=".5"/><path id="Path_2692" data-name="Path 2692" d="M6481.391 2725.405c-6.182-11.674-18.159 2.281-25.36 1.971-8.206-.344-31.207-.925-21.969 16.516 10.108 19.057 54.294-5.34 47.329-18.487z" opacity=".5"/><path id="Path_2693" data-name="Path 2693" d="M6612.944 2663.331c-5.373-9.864-19.716 7.547-16.165 14.261 2.838 5.354 21.475-4.513 16.165-14.261z" opacity=".5"/><path id="Path_2694" data-name="Path 2694" d="M6517.663 2789.63c-4.968-9.392-47.39 1.172-38.607 17.736 8.535 16.134 40.891-13.436 38.607-17.736z" opacity=".5"/><path id="Path_2695" data-name="Path 2695" d="M6521.09 2829.259c.916-8.254-10.163-4.006-7.291 1.408 1.489 2.815 7.151 2.301 7.291-1.408z" opacity=".5"/><path id="Path_2696" data-name="Path 2696" d="M6493.464 2760.71c-3.653-6.894-11.572.7-8.762 6 3.257 6.15 12.219.513 8.762-6z" opacity=".5"/><path id="Path_2697" data-name="Path 2697" d="M6579.158 2755.323c-2.6-7.035-46.742 8.595-38.205 24.705 9.107 17.199 42.517-10.986 38.205-24.705z" opacity=".5"/><path id="Path_2698" data-name="Path 2698" d="M6320.366 2801.06c-3.939-7.43-18.284-5.728-13.194 3.871 3.557 6.717 17.266 3.801 13.194-3.871z" opacity=".5"/><path id="Path_2699" data-name="Path 2699" d="M6359.266 2820.208c4.925-14.8-18.331-3.029-21.239-1.176-6.209 3.947-33.708 10.318-26.261 24.371 10.419 19.655 43.101-9.946 47.5-23.195z" opacity=".5"/><path id="Path_2700" data-name="Path 2700" d="M6324.508 2749.076c-5.259-9.919-39.21 1.505-31.117 16.774 7.66 14.463 32.937-13.335 31.117-16.774z" opacity=".5"/><path id="Path_2701" data-name="Path 2701" d="M6356.979 2885.5c-5.591 2.186-10.142 5.237-11.445 9.318q6.942 4.678 14.274 8.789a91.845 91.845 0 01-2.829-18.107z" opacity=".5"/><path id="Path_2702" data-name="Path 2702" d="M6353.425 2861.394c2.112 3.983 5.078-3.109 1.905-3.595-1.898.133-2.53 1.319-1.905 3.595z" opacity=".5"/><path id="Path_2703" data-name="Path 2703" d="M6281.754 2776.727c-6.095-11.509-20.331 3.015-14.731 13.6 6.789 12.802 21.563-.713 14.731-13.6z" opacity=".5"/><path id="Path_2704" data-name="Path 2704" d="M6273.2 2736.426c6.073 11.449 36.134-9.151 36.576-19 .516-11.876-47.935-2.437-36.576 19z" opacity=".5"/><path id="Path_2705" data-name="Path 2705" d="M6256.285 2761.1c2.859 5.4 8.72-4.8 6.323-9.3-3.361-6.343-9.208 3.86-6.323 9.3z" opacity=".5"/><path id="Path_2706" data-name="Path 2706" d="M6282.873 2825.624c-2.73-1.653-4.918-1.006-6.539.783q4.458 6 9.324 12.032c1.834-4.557 1.77-10.067-2.785-12.815z" opacity=".5"/><path id="Path_2707" data-name="Path 2707" d="M6570.744 2551.955c7.718 9.155 34.283 7.709 28.208-3.745-1.685-3.18-6.415-4.894-11.613-5.435z" opacity=".5"/></g><path id="Path_2708" data-name="Path 2708" d="M6655.926 2576.6c4.391 4.969 12.393-5.187 17.756-4.513 4.93.629 6.963-13.063 7.041-13.067-3.012.247-31.114 10.435-24.797 17.58zm-19.489 1.683c1.016.321 7.516-3.562 7.322-.522-.5 8.062-2.079 12.835-7.6 12.567-13.039-.637-12.914-16.222.278-12.048zm-26.66 9.116c1.7-.58-4.192 8.3-3.656 7.576-3.042 4.076-6.891 5.643-10.736 4.5-8.308-2.483-15.6 1.8-23.739.227-11.462-2.214 7.283-8.2 9.087-10.607 7.408-9.94 20.138 1.654 29.044-1.695zm-34 24.236c1.321 3.786-8 9.219-9.81 6.063-3.131-5.445 7.433-12.887 9.805-6.066zm-40.224 5.117c2.138.468 9.031-2.612 10.237 1.825 1.658 6.1-5.785 9.411-7.953 9.849-7.124 1.464-12.268 6.048-19.016 8.8-4.9 2-17.065-2.929-6.424-6.893 8.522-3.174 13.493-15.723 23.151-13.584zm20.138-22.416c-.668 9.443-12.494 8.228-11.145 3.71 1.073-3.583 11.384-7.266 11.14-3.713zm140.714-51.365c-.36 3.558-6.639 13.879-8.76 8.455-2.522-6.418 9.781-18.56 8.755-8.458zm-98.964 65.258c1.11 3.393 2.347 5.884-1.6 7.4-7.126 2.726-3.709-12.474 1.595-7.403zm-100.191 40.366c4.593 7.285-13.939 15.8-15.334 16.312-11.2 4.134-17.837 11.478-29.538 4.223-14.274-8.848 11.834-9.4 14.173-10.245 4.711-1.7 8.879-6.21 13.648-7.451 3.659-.95 14.245-7.128 17.046-2.842zm.306-18.759c.942.522-6.848 15.75-9.424 8.987-2.723-7.101 7.024-10.311 9.419-8.99zm17.594 29.227c1.745 8.938-10.985 15.228-10.8 5.674.105-6.163 9.203-13.837 10.795-5.677zm18.24-13.892c.994 5.348-6.664 9.879-7.783 4.2-.996-4.998 6.665-10.212 7.778-4.203zm-115.7 28.794c3.056 1.647 6.729 9.531 10.335 5.924.81-.8 11.2-7.08 8.631.013-6.976 19.326-12.483 13.9-23 7.616-7.873-4.7-17.34 5.558-23.309-8.718-2.284-5.46 7.6-3.763 8.326-3.71 6.516.47 12.527-4.628 19.01-1.128zm12.09-15.321c4.446 4.482-4.355 10.272-7.327 6.95-5.034-5.627 4.24-10.06 7.32-6.953zm38.112 27.848c2.829-3.3 17.687-7.036 10.668 1.951-5.086 6.5-15.942 10.526-22.183 10.075-2.613.773-16.563-.085-9.953-9.25 5.323-7.395 14.644 5.167 21.461-2.779zm-118.926-22.509c2.138 1.375 3.933 4.152 6.143 5.152 3.806 1.728 7.558-2.866 11.587-1.487 1.7.585 9.288 1.83 10.175 3.728 3.052 6.5-5.817 7.527-7.224 7.308-6.967-1.1-13.147 4.321-19.909-.545-5.882-4.226-12.098-21.471-.779-14.159zm27.231 28.5c2.552.152 5.742-.147 7.811 2.871 2.308 3.361-5.817 7.4-6.825 7.308-6.118-.562-8.683-10.616-.993-10.187zm-47.584-36.571c5.756 4.232 4.386 11.616-1.538 7.978-5.558-3.424-4.928-12.696 1.531-7.99z" fill="#618400"/><path id="Path_2709" data-name="Path 2709" d="M6337.187 2731.568c-1.414 6.478 11.509 6.932 14.134 11.657 2.406 4.348 14.653-2.1 14.7-2.043-1.979-2.282-26.805-18.931-28.834-9.614zm-12.874-14.728c.341 1.01 7.315 3.958 4.747 5.6-6.8 4.358-11.582 5.908-14.63 1.294-7.192-10.894 5.454-20.002 9.883-6.894zm-23.109-16.119c1.471 1.025-9.176 1.525-8.273 1.527-5.085-.045-8.624-2.224-9.97-6-2.907-8.169-10.673-11.526-14.213-19.016-4.986-10.555 10.916 1.031 13.927 1.062 12.391.106 10.561 17.223 18.525 22.427zm-39.647-13.11c-2.273 3.3-12.166-1.008-10.688-4.331 2.543-5.738 14.792-1.609 10.688 4.331zm-27.9-29.426c.886 2 7.444 5.743 4.577 9.338-3.943 4.944-11.01.894-12.645-.6-5.391-4.882-12.129-6.323-18.339-10.138-4.508-2.77-7.722-15.5 1.765-9.256 7.601 5.008 20.662 1.602 24.644 10.656zm29.983 3c-8.012 5.041-14.02-5.217-9.579-6.8 3.527-1.245 12.592 4.896 9.581 6.8zm124.592 83.16c-3.083 1.812-15.119 2.847-12-2.07 3.692-5.821 20.758-3.075 12.002 2.07zm-111.127-41.27c-2.081 2.9-3.359 5.37-6.913 3.087-6.41-4.137 7.872-10.362 6.915-3.087zm-91.771-56.971c-3.163 8.01-20.983-1.909-22.221-2.73-9.952-6.59-19.8-7.607-20.863-21.333-1.3-16.744 14.575 3.993 16.641 5.379 4.156 2.8 10.256 3.493 14.076 6.607 2.933 2.396 14.171 7.284 12.369 12.073zm15.314-10.838c.135 1.068-16.753 3.782-12.819-2.293 4.121-6.387 12.471-.42 12.821 2.293zm-13.181 31.465c-6.179 6.689-18.776.137-10.962-5.363 5.039-3.548 16.61-.747 10.964 5.363zm21.986 6.5c-3.727 3.962-11.908.462-7.988-3.8 3.446-3.744 12.18-.645 7.99 3.804zm-91.6-76.322c.478 3.439-3.712 11.061 1.329 11.838 1.126.178 12.329 4.849 5.09 6.971-19.713 5.793-18.592-1.855-19.735-14.053-.865-9.127-14.731-10.7-6.741-23.955 3.054-5.069 7.526 3.906 7.912 4.524 3.472 5.545 11.134 7.378 12.144 14.679zm19.5.7c-.989 6.236-10.86 2.557-9.938-1.8 1.571-7.379 10.628-2.518 9.942 1.803zm.057 47.2c4.333.333 16.127 10.11 4.73 9.759-8.252-.259-17.912-6.64-21.237-11.941-2.167-1.652-9.72-13.412 1.581-13.5 9.116-.06 4.491 14.883 14.93 15.687zm-52.122-109.24c.155 2.538-1.025 5.626-.525 8 .855 4.092 6.778 4.4 8.046 8.469.535 1.719 4.013 8.574 3.006 10.411-3.44 6.3-9.509-.244-10.164-1.509-3.228-6.272-11.256-8.052-11.326-16.383-.061-7.229 10.175-22.435 10.967-8.983zm-6.9 38.807c1.386 2.148 3.512 4.545 2.3 8-1.348 3.849-9.4-.321-9.928-1.187-3.16-5.252 3.44-13.266 7.64-6.808zm1.382-60c-.012 7.144-6.778 10.4-7.344 3.474-.516-6.49 7.336-11.461 7.353-3.467z" fill="#618400"/><path id="Path_2710" data-name="Path 2710" d="M6425.87 2548.3c4.514 7.335-14.109 15.648-15.508 16.146-11.242 4.013-17.96 11.285-29.583 3.905-14.177-9 11.935-9.269 14.283-10.092 4.729-1.65 8.945-6.114 13.728-7.3 3.674-.911 14.325-6.975 17.08-2.659zm.509-18.754c.936.532-7.018 15.675-9.521 8.885-2.642-7.131 7.142-10.231 9.521-8.886zm17.278 29.415c1.648 8.956-11.149 15.109-10.865 5.557.181-6.159 9.361-13.739 10.865-5.558zm-97.618 13.851c3.039 1.68 6.627 9.6 10.271 6.035.818-.795 11.273-6.959 8.631.106-7.185 19.25-12.632 13.766-23.08 7.368-7.823-4.781-17.4 5.37-23.214-8.97-2.225-5.484 7.639-3.681 8.366-3.619 6.516.542 12.578-4.491 19.026-.921zm12.255-15.191c4.4 4.53-4.465 10.225-7.4 6.872-4.968-5.68 4.353-10.013 7.4-6.873zm37.809 28.257c2.865-3.268 17.762-6.844 10.647 2.066-5.156 6.449-16.054 10.354-22.29 9.836-2.622.744-16.562-.263-9.853-9.356 5.409-7.336 14.593 5.326 21.493-2.547zm-118.676-23.789c2.123 1.4 3.888 4.194 6.087 5.218 3.788 1.769 7.589-2.784 11.6-1.362 1.7.6 9.268 1.931 10.133 3.838 2.982 6.532-5.9 7.463-7.3 7.229-6.954-1.178-13.193 4.179-19.9-.759-5.829-4.287-11.86-21.598-.62-14.165zm26.922 28.787c2.55.18 5.744-.085 7.78 2.955 2.271 3.386-5.9 7.334-6.9 7.234-6.108-.616-8.565-10.701-.88-10.19zm-47.187-37.081c5.71 4.294 4.261 11.662-1.623 7.96-5.514-3.476-4.785-12.741 1.623-7.961z" fill="#618400"/></g></g></g><path id="Path_2712" data-name="Path 2712" d="M6681.661 2440.561c-12.154-3.743-27.792-7.189-46.321-10.265a198.312 198.312 0 01-25.9 63.478c-68.221 108.982-236.159 152.894-337.434 57.177a182.082 182.082 0 01-38.835-53.249 209.107 209.107 0 01-19.492-72.742c-28.274 3.335-52.4 7.374-71.037 11.932-25.05 6.115-40.168 13.192-42.1 20.752.037 2.408.148 4.817.259 7.226q.166 3.834.444 7.671a304.344 304.344 0 0074 177.055 310.165 310.165 0 0062.588 54.843 298.589 298.589 0 0033.167 18.972q9.171 4.448 18.677 8.412h.037c3.149 1.3 6.336 2.52 9.56 3.743a303.764 303.764 0 009.746 3.409c4.373 1.482 8.745 2.853 13.192 4.076 2.223.63 4.447 1.223 6.707 1.816 4.484 1.149 9 2.186 13.563 3.15 2.26.482 4.558.963 6.855 1.371 4.632.852 9.264 1.63 13.933 2.26a304.523 304.523 0 0042.171 2.927c10.634 0 21.159-.555 31.535-1.593a303.611 303.611 0 00185.985-89.49 309.41 309.41 0 0020.714-23.272c6.115-7.671 11.933-15.637 17.343-23.9a315.024 315.024 0 0010.709-17.639 303.867 303.867 0 0038.761-138.146c0-.074.037-.148 0-.185.037-.519.037-1.038.074-1.557-.553-6.485-10.855-12.674-28.901-18.232z" fill="#1e5412" opacity=".2" style="mix-blend-mode:multiply;isolation:isolate"/><path id="Path_2713" data-name="Path 2713" d="M6710.565 2458.792c-.037.519-.037 1.038-.074 1.557.037.037 0 .111 0 .185a303.867 303.867 0 01-38.761 138.146 314.3 314.3 0 01-10.709 17.639c-5.41 8.264-11.228 16.23-17.343 23.9a307.187 307.187 0 01-128.7 94.16 304.023 304.023 0 01-78 18.6 316.772 316.772 0 01-31.535 1.593 304.523 304.523 0 01-42.171-2.927c-4.669-.63-9.3-1.408-13.933-2.26-2.3-.408-4.595-.889-6.855-1.371-4.558-.964-9.079-2-13.563-3.15a354.622 354.622 0 01-6.707-1.816c-4.447-1.223-8.819-2.594-13.192-4.076a303.764 303.764 0 01-9.746-3.409c-3.224-1.223-6.411-2.446-9.56-3.743h-.037q-9.506-3.947-18.677-8.412a298.589 298.589 0 01-33.165-18.972 307.612 307.612 0 01-97.31-103.684 303.834 303.834 0 01-39.28-128.214q-.278-3.836-.444-7.671c-.111-2.409-.222-4.818-.259-7.226 1.927-7.56 17.045-14.637 42.1-20.752a302.077 302.077 0 00.816 45.987c3.261 35.056 12.71 69.3 29.089 100.5 27.421 52.175 75.335 94.382 131.735 112.392 61.958 19.788 139.331 22.122 199.548-3.817 59.031-25.421 109.8-70.185 141.332-126.288a288.008 288.008 0 0031.276-85.23 282.973 282.973 0 005.225-39.872c18.042 5.558 28.344 11.747 28.9 18.231z" fill="#1e5412" opacity=".2" style="mix-blend-mode:multiply;isolation:isolate"/><g id="Group_1229" data-name="Group 1229"><path id="Path_2714" data-name="Path 2714" d="M6405.6 2508.535c-81.664 0-158.46-5.093-216.246-14.34-60.867-9.74-91.729-22.283-91.729-37.279s30.862-27.54 91.729-37.28c57.786-9.247 134.582-14.34 216.246-14.34s158.461 5.093 216.246 14.34c60.867 9.74 91.729 22.283 91.729 37.28s-30.862 27.539-91.729 37.279c-57.784 9.247-134.58 14.34-216.246 14.34z" fill="#bed466"/><path id="Path_2715" data-name="Path 2715" d="M6405.6 2408.075c168.555 0 305.2 21.867 305.2 48.841s-136.641 48.84-305.2 48.84-305.195-21.867-305.195-48.84 136.64-48.841 305.195-48.841m0-5.558c-81.806 0-158.759 5.1-216.684 14.375-28.4 4.545-50.772 9.865-66.5 15.814-18.555 7.021-27.575 14.94-27.575 24.21s9.02 17.189 27.576 24.209c15.722 5.949 38.094 11.27 66.494 15.815 57.925 9.269 134.878 14.374 216.684 14.374s158.759-5.1 216.684-14.374c28.4-4.545 50.772-9.866 66.495-15.815 18.555-7.02 27.575-14.939 27.575-24.209s-9.02-17.189-27.575-24.21c-15.723-5.949-38.095-11.269-66.495-15.814-57.925-9.27-134.878-14.375-216.684-14.375z"/><path id="Path_2716" data-name="Path 2716" d="M6405.6 2413.634c81.236 0 157.565 5.055 214.927 14.235 27.658 4.426 49.3 9.552 64.318 15.235 15.051 5.694 20.392 11 20.392 13.812s-5.341 8.117-20.392 13.812c-15.02 5.683-36.66 10.808-64.318 15.234-57.362 9.18-133.691 14.236-214.927 14.236s-157.565-5.056-214.927-14.236c-27.658-4.426-49.3-9.551-64.318-15.234-15.051-5.7-20.392-11-20.392-13.812s5.341-8.118 20.392-13.812c15.021-5.683 36.66-10.809 64.318-15.235 57.362-9.18 133.691-14.235 214.927-14.235m0-5.559c-168.555 0-305.195 21.867-305.195 48.841s136.64 48.84 305.195 48.84 305.2-21.867 305.2-48.84-136.641-48.841-305.2-48.841z" fill="#78ad0a"/></g><path id="Path_2717" data-name="Path 2717" d="M6614.229 2448.708c-6.634 2.705-15.6 5.224-26.5 7.485-15.49 3.3-34.87 6.114-57.215 8.375-35.908 3.594-79.375 5.707-126.214 5.707-38.428 0-74.6-1.446-106.167-3.929-27.977-2.223-52.36-5.3-71.518-8.967-12.191-2.372-22.307-4.966-29.867-7.745-.778-.3-1.519-.593-2.261-.889.186 1.741.371 3.483.593 5.224s.445 3.447.7 5.152c.223 1.444.445 2.927.7 4.372.075.519.186 1.038.26 1.556 7.56 2.779 17.676 5.374 29.867 7.745 19.158 3.669 43.541 6.745 71.518 8.968 31.572 2.482 67.739 3.928 106.167 3.928 46.839 0 90.306-2.113 126.214-5.707 22.345-2.26 41.725-5.076 57.215-8.375 10.894-2.26 19.861-4.78 26.5-7.485.3-1.556.556-3.15.815-4.706a243.479 243.479 0 001.408-11.636c-.696.296-1.437.63-2.215.927z" fill="#c1642e" opacity=".25" style="mix-blend-mode:multiply;isolation:isolate"/><path id="Path_2718" data-name="Path 2718" d="M6143.021 2481.984c-25.346-6.855-40.613-14.785-42.54-23.271-.037-.037-.037-.037 0-.075a6.973 6.973 0 01-.223-1.741 5.908 5.908 0 01.149-1.371c1.444-8.634 16.786-16.749 42.577-23.716-8.374 7.226-13.266 14.859-14.044 22.752a16.526 16.526 0 00-.149 2.335 20.51 20.51 0 00.223 3c-.037.074-.037.074 0 .148 1.038 7.635 5.892 14.972 14.007 21.939z" opacity=".15"/><g id="Group_1230" data-name="Group 1230"><path id="Path_2719" data-name="Path 2719" d="M6404.323 2487.67c-109.256 0-225.374-12.188-225.374-34.775s116.118-34.775 225.374-34.775 225.377 12.188 225.377 34.78-116.121 34.77-225.377 34.77z" fill="#78ad0a"/><path id="Path_2720" data-name="Path 2720" d="M6404.323 2420.1c123.377 0 223.394 14.683 223.394 32.795s-100.017 32.795-223.394 32.795-223.393-14.683-223.393-32.795 100.017-32.795 223.393-32.795m0-3.961c-59.857 0-116.16 3.426-158.538 9.647-20.762 3.048-37.113 6.615-48.6 10.6-13.793 4.788-20.217 10.033-20.217 16.508s6.424 11.72 20.217 16.508c11.486 3.986 27.837 7.553 48.6 10.6 42.378 6.221 98.681 9.647 158.538 9.647s116.161-3.426 158.539-9.647c20.762-3.048 37.113-6.615 48.6-10.6 13.793-4.788 20.217-10.033 20.217-16.508s-6.424-11.72-20.217-16.508c-11.486-3.986-27.837-7.553-48.6-10.6-42.378-6.221-98.681-9.647-158.539-9.647z"/></g><path id="Path_2721" data-name="Path 2721" d="M6232.4 2497.4c-76.929-8.561-128.289-22.642-131.92-38.687-.037-.037-.037-.037 0-.075a6.973 6.973 0 01-.223-1.741 5.908 5.908 0 01.149-1.371c2.7-16.231 54.287-30.5 131.92-39.094-20.344 11.45-32.276 24.346-33.536 38.02a18.1 18.1 0 00-.148 2.445 21.956 21.956 0 00.222 3.113c-.037.074-.037.074 0 .148 1.669 13.414 13.601 26.013 33.536 37.242z" opacity=".1"/><path id="Path_2722" data-name="Path 2722" d="M6614.229 2448.708c-6.634 2.705-15.6 5.224-26.5 7.485-15.49 3.3-34.87 6.114-57.215 8.375-35.908 3.594-79.375 5.707-126.214 5.707-38.428 0-74.6-1.446-106.167-3.929-27.977-2.223-52.36-5.3-71.518-8.967-12.191-2.372-22.307-4.966-29.867-7.745-.778-.3-1.519-.593-2.261-.889.186 1.741.371 3.483.593 5.224s.445 3.447.7 5.152c.223 1.444.445 2.927.7 4.372.075.519.186 1.038.26 1.556 7.56 2.779 17.676 5.374 29.867 7.745 19.158 3.669 43.541 6.745 71.518 8.968 31.572 2.482 67.739 3.928 106.167 3.928 46.839 0 90.306-2.113 126.214-5.707 22.345-2.26 41.725-5.076 57.215-8.375 10.894-2.26 19.861-4.78 26.5-7.485.3-1.556.556-3.15.815-4.706a243.479 243.479 0 001.408-11.636c-.696.296-1.437.63-2.215.927z" fill="#c1642e" opacity=".25" style="mix-blend-mode:multiply;isolation:isolate"/><path id="Path_2723" data-name="Path 2723" d="M6143.021 2481.984c-25.346-6.855-40.613-14.785-42.54-23.271-.037-.037-.037-.037 0-.075a6.973 6.973 0 01-.223-1.741 5.908 5.908 0 01.149-1.371c1.444-8.634 16.786-16.749 42.577-23.716-8.374 7.226-13.266 14.859-14.044 22.752a16.526 16.526 0 00-.149 2.335 20.51 20.51 0 00.223 3c-.037.074-.037.074 0 .148 1.038 7.635 5.892 14.972 14.007 21.939z" opacity=".15"/><path id="Path_2724" data-name="Path 2724" d="M6232.4 2497.4c-76.929-8.561-128.289-22.642-131.92-38.687-.037-.037-.037-.037 0-.075a6.973 6.973 0 01-.223-1.741 5.908 5.908 0 01.149-1.371c2.7-16.231 54.287-30.5 131.92-39.094-20.344 11.45-32.276 24.346-33.536 38.02a18.1 18.1 0 00-.148 2.445 21.956 21.956 0 00.222 3.113c-.037.074-.037.074 0 .148 1.669 13.414 13.601 26.013 33.536 37.242z" opacity=".1"/><g id="Group_1233" data-name="Group 1233"><g id="Group_1231" data-name="Group 1231"><path id="Path_2725" data-name="Path 2725" d="M6404.306 2487.542c-36.823 0-73.585-1.36-106.313-3.934-27.672-2.2-52.473-5.308-71.722-8.995-12.5-2.43-22.645-5.063-30.158-7.825l-1.038-.382-.156-1.094a18.98 18.98 0 00-.12-.714c-.05-.282-.1-.562-.14-.842a143.922 143.922 0 01-.622-3.84l-.078-.514a214.525 214.525 0 01-.712-5.2c-.422-3.27-.764-6.684-1.047-10.434l-.113-1.8c-.111-1.591-.186-3.2-.261-4.8l-.112-2.988a55.091 55.091 0 01-.038-1.307c-.009-.412-.018-.825-.035-1.237-.039-1.381-.039-2.77-.039-4.12 0-2.27.037-4.572.112-6.843.037-2.01.151-4.024.262-5.973.075-1.2.149-2.35.259-3.5.042-1.086.157-2.153.268-3.187.07-.9.147-1.819.262-2.737.1-1.391.279-2.827.482-4.415.014-.161.044-.4.075-.636.025-.189.05-.377.067-.557l.122-.872c.185-1.377.374-2.728.6-4.081.182-1.272.407-2.587.632-3.9.279-1.674.584-3.286.9-4.781.367-1.87.777-3.771 1.186-5.673 1.274-5.637 2.722-11.059 4.305-16.131.8-2.669 1.686-5.331 2.694-8.12a212.322 212.322 0 0120.78-42.791 228.775 228.775 0 012.389-3.671c.4-.6.791-1.2 1.182-1.8a214.152 214.152 0 0115.893-20.623v-.008l.47-.564a365.443 365.443 0 013.724-4.133l1.47 1.139-1.377-1.239a3.885 3.885 0 01.367-.368c1.357-1.466 2.722-2.941 4.116-4.333a146.688 146.688 0 014.184-4.147l.1-.1c1.468-1.4 2.986-2.84 4.523-4.231a213.163 213.163 0 0128.817-22.088 232.395 232.395 0 0115.584-9.045l.406-.213h.038a183.995 183.995 0 015.325-2.676l.085-.087.128-.046.267-.267h.353c.582-.3 1.069-.538 1.541-.746l.059-.058.322-.116a4.714 4.714 0 01.545-.247l.112-.06c1.7-.814 3.541-1.647 5.481-2.478 1.472-.635 2.971-1.249 4.459-1.859l1.272-.522a215.817 215.817 0 0128.8-9.129 216.642 216.642 0 0117.087-3.366 215.808 215.808 0 0133.08-2.541 213.512 213.512 0 0169.34 11.476l.419.143.017.019A214.861 214.861 0 016555.31 2275c4.564 4.455 9.093 9.336 13.458 14.5.8.916 1.577 1.875 2.325 2.8l.662.818c2.6 3.194 5.131 6.518 7.52 9.878a214.225 214.225 0 013.955 5.71c.671.986 1.3 1.953 1.865 2.868a40.182 40.182 0 011.946 3.106c.683.99 1.285 2.006 1.868 2.99a237.408 237.408 0 013.552 6.094c1.4 2.5 2.6 4.787 3.679 6.985.976 1.877 1.944 3.886 2.879 5.827l.055.115c.5 1.077.989 2.132 1.442 3.185 1.725 3.767 3.367 7.747 5 12.127.527 1.34 1.016 2.7 1.381 3.736.38.965.769 2.08 1.134 3.254l.029.085a235.118 235.118 0 011.492 4.586c.6 1.884 1.209 3.915 1.793 6.018.632 2.276 1.147 4.184 1.609 6.1.436 1.705.849 3.468 1.223 5.219a20.926 20.926 0 01.466 2.17c.367 1.658.7 3.348 1 5.023.384 1.953.707 3.974 1.021 5.928l.059.366c.251 1.5.48 3.115.678 4.78l.013.11v.051c.24 1.671.417 3.369.588 5.011l.031.3c.109.83.187 1.709.263 2.588.37 3.775.634 7.651.784 11.5a2.443 2.443 0 01.013.455c.062.786.062 1.547.062 2.285.075 1.936.111 3.9.111 5.93 0 1.643-.037 3.289-.074 4.932 0 .91-.037 1.862-.075 2.812-.076 2.2-.189 4.4-.337 6.539-.02.211-.027.365-.035.519-.011.217-.022.433-.044.649-.349 5.281-.965 10.93-1.826 16.726l-.112.674c-.227 1.365-.457 2.749-.716 4.107l-.189.989-.932.38c-6.692 2.728-15.715 5.28-26.819 7.584-15.417 3.282-34.734 6.11-57.4 8.4-37.358 3.756-81.065 5.733-126.401 5.733z" fill="#c1642e"/><path id="Path_2726" data-name="Path 2726" d="M6405.417 2215.549a211.73 211.73 0 0168.739 11.377.115.115 0 00.074.037 211.665 211.665 0 0179.782 49.359c4.669 4.558 9.116 9.375 13.341 14.378 1.038 1.185 2 2.408 2.964 3.594q3.891 4.781 7.448 9.783a216.145 216.145 0 013.928 5.67c.63.926 1.26 1.889 1.853 2.853.7 1 1.334 2.038 1.927 3.076.667.963 1.26 1.964 1.853 2.964 1.186 1.964 2.372 4 3.52 6.04a152.514 152.514 0 013.632 6.893c1 1.926 1.963 3.927 2.927 5.929a115.37 115.37 0 011.408 3.112c1.816 3.965 3.446 7.968 4.966 12.043.482 1.223.926 2.447 1.371 3.706a46.297 46.297 0 011.112 3.187c.518 1.556 1.037 3.113 1.519 4.669.63 1.964 1.223 3.965 1.779 5.967s1.111 4.038 1.593 6.039q.668 2.613 1.223 5.225a18.8 18.8 0 01.445 2.075q.555 2.5 1 5c.407 2.076.741 4.188 1.075 6.263.259 1.556.482 3.15.667 4.706v.074c.259 1.779.444 3.594.63 5.373.111.852.185 1.7.259 2.557.37 3.78.63 7.6.778 11.413a.983.983 0 010 .334c.075.778.075 1.556.075 2.334.074 1.964.111 3.928.111 5.929 0 1.631-.037 3.261-.074 4.892 0 .926-.037 1.853-.074 2.779a192.811 192.811 0 01-.334 6.485c-.038.37-.038.741-.075 1.111-.37 5.6-1 11.154-1.815 16.639-.259 1.556-.519 3.15-.816 4.706-6.633 2.7-15.6 5.225-26.494 7.485-15.49 3.3-34.87 6.114-57.216 8.375-35.907 3.594-79.374 5.707-126.213 5.707-38.428 0-74.6-1.446-106.167-3.929-27.977-2.222-52.36-5.3-71.518-8.967-12.191-2.371-22.307-4.966-29.867-7.745-.074-.518-.185-1.037-.26-1.556-.259-1.445-.481-2.928-.7-4.372a197.58 197.58 0 01-.7-5.152 195.514 195.514 0 01-1.037-10.338l-.111-1.779a201.034 201.034 0 01-.26-4.78l-.111-2.964c-.037-.853-.037-1.7-.074-2.557-.037-1.334-.037-2.706-.037-4.04q0-3.39.111-6.781c.037-2 .148-3.965.259-5.929.075-1.186.149-2.334.26-3.484.037-1.037.148-2.074.259-3.112a60.99 60.99 0 01.259-2.705c.112-1.482.3-2.964.482-4.41.037-.407.111-.852.149-1.259l.11-.779c.186-1.371.371-2.705.594-4.039.185-1.3.407-2.594.63-3.891.259-1.556.555-3.15.889-4.706.371-1.89.778-3.78 1.186-5.67 1.223-5.41 2.631-10.746 4.261-15.971a158.95 158.95 0 012.668-8.041 210.007 210.007 0 0120.6-42.43c1.149-1.815 2.372-3.631 3.558-5.447a211.813 211.813 0 0116.194-20.937v-.037a361.786 361.786 0 013.705-4.113 3.436 3.436 0 01.37-.37c1.372-1.483 2.743-2.965 4.151-4.373a144.784 144.784 0 014.15-4.113 259.45 259.45 0 014.595-4.3 210.737 210.737 0 0128.571-21.9q7.558-4.781 15.452-8.968h.037a175.882 175.882 0 015.966-3c.037-.037.111-.037.148-.074.037 0 .074-.037.112-.037.7-.371 1.371-.705 2.075-1 .037-.037.111-.037.148-.074a4.045 4.045 0 01.593-.26l.037-.037a142.13 142.13 0 015.41-2.445c1.89-.815 3.817-1.593 5.707-2.372a213.024 213.024 0 0128.533-9.042 214.364 214.364 0 0116.935-3.335 212.915 212.915 0 0132.795-2.52m0-3.705a217.538 217.538 0 00-33.365 2.564 217.802 217.802 0 00-17.23 3.393 217.545 217.545 0 00-29.037 9.2l-1.357.557c-1.458.6-2.966 1.216-4.448 1.855a146.266 146.266 0 00-5.545 2.506l-.137.067a6.049 6.049 0 00-.571.266l-.088.042c-.512.222-1 .454-1.426.67h-.678l-.646.648a184.607 184.607 0 00-4.844 2.428l-.849.428a233.24 233.24 0 00-15.7 9.113 215.027 215.027 0 00-29.087 22.294c-1.571 1.422-3.125 2.9-4.628 4.328a142.382 142.382 0 00-4.257 4.219c-1.4 1.4-2.766 2.873-4.086 4.3a5.8 5.8 0 00-.441.448l.021-.02-.054.054-.052.056c-1.279 1.392-2.531 2.8-3.742 4.154l-.94 1.054v.057a216.588 216.588 0 00-15.553 20.246l-.02.029-.019.029q-.593.907-1.192 1.813c-.792 1.2-1.611 2.442-2.394 3.679a214.213 214.213 0 00-20.966 43.177 161.599 161.599 0 00-2.722 8.206c-1.588 5.087-3.047 10.557-4.327 16.223a298.09 298.09 0 00-1.2 5.742 108.25 108.25 0 00-.914 4.841 139.088 139.088 0 00-.637 3.935c-.234 1.405-.427 2.8-.6 4.108l-.054.377-.053.374-.013.094-.009.1c-.014.157-.037.322-.058.486-.031.236-.061.472-.083.7-.192 1.5-.373 2.966-.487 4.451a64.9 64.9 0 00-.261 2.73c-.11 1.032-.223 2.1-.268 3.209a111.141 111.141 0 00-.259 3.5c-.112 1.977-.227 4-.266 6.067-.074 2.28-.112 4.593-.112 6.875 0 1.356 0 2.757.039 4.143v.058c.018.4.026.8.035 1.2.01.453.02.906.04 1.359l.054 1.449.056 1.491c.075 1.626.152 3.266.266 4.9l.07 1.112.04.64c.286 3.819.632 7.265 1.06 10.581.2 1.581.44 3.424.716 5.235l.08.521c.195 1.273.4 2.588.629 3.889.042.279.091.558.141.838.039.216.078.432.109.648l.314 2.19 2.076.763c7.6 2.795 17.842 5.454 30.438 7.9 19.324 3.7 44.194 6.819 71.932 9.024 32.776 2.577 69.588 3.939 106.46 3.939 45.392 0 89.164-1.979 126.583-5.725 22.748-2.3 42.132-5.14 57.618-8.438 11.2-2.322 20.328-4.907 27.122-7.678l1.863-.76.377-1.977c.271-1.417.509-2.855.74-4.245l.091-.547v-.063c.867-5.829 1.487-11.51 1.844-16.885.021-.223.033-.446.044-.669.007-.124.011-.248.024-.372v-.114c.149-2.156.264-4.381.341-6.612a72.18 72.18 0 00.076-2.864c.037-1.629.074-3.285.074-4.935 0-2.029-.036-3.992-.111-6 0-.719 0-1.46-.06-2.248a4.234 4.234 0 00-.02-.565 198.4 198.4 0 00-.79-11.559 60.723 60.723 0 00-.267-2.627l-.022-.22c-.17-1.629-.345-3.311-.583-4.987v-.029l-.025-.218c-.2-1.688-.434-3.329-.692-4.877l-.058-.362c-.313-1.953-.637-3.971-1.029-5.971a128.604 128.604 0 00-1-5.019 21.976 21.976 0 00-.485-2.257c-.372-1.742-.784-3.5-1.227-5.24a202.09 202.09 0 00-1.62-6.14c-.591-2.127-1.2-4.181-1.821-6.106-.47-1.52-.991-3.085-1.5-4.6l-.025-.076c-.367-1.18-.76-2.3-1.166-3.343-.53-1.5-.958-2.657-1.383-3.737-1.642-4.4-3.291-8.4-5.039-12.221-.473-1.1-.984-2.2-1.435-3.172l-.011-.023-.011-.023-.028-.058c-.944-1.961-1.92-3.988-2.93-5.934a159.523 159.523 0 00-3.7-7.026 243.245 243.245 0 00-3.585-6.152c-.574-.969-1.183-2-1.886-3.024a40.986 40.986 0 00-1.969-3.137 79.413 79.413 0 00-1.886-2.9 217.012 217.012 0 00-3.984-5.751c-2.4-3.374-4.955-6.73-7.582-9.957l-.65-.8a97.957 97.957 0 00-2.377-2.867c-4.4-5.2-8.958-10.119-13.563-14.615a216.749 216.749 0 00-80.413-49.952l-.021-.02-.811-.278a215.355 215.355 0 00-69.939-11.576z"/></g><g id="Group_1232" data-name="Group 1232" opacity=".1" style="mix-blend-mode:multiply;isolation:isolate" fill="#c1642e"><path id="Path_2727" data-name="Path 2727" d="M6554 2276.308a8.626 8.626 0 01-.952 1.934c-5.888 8.833-23.554 24.536-103.051 16.684-65.1-6.428-118.361-37.216-143.054-55.167q7.095-3.738 14.506-6.938c49.592 20.472 163.33 46.559 189.4 32.662 14.477-7.724-9-23.977-36.617-38.512a211.8 211.8 0 0179.768 49.337z"/><path id="Path_2728" data-name="Path 2728" d="M6546.182 2414.661c-49.072 17.666-124.642 23.555-248.3-1.962-45.844-9.462-77.524-21.082-99.243-31.956q1.825-8.112 4.259-15.968c38.217 18.245 99.793 40.72 174.48 43.016 127.587 3.926 176.659-8.833 188.436-27.48s-7.851-24.536-19.629-23.555-121.7 25.518-279.709-30.424c-15.664-5.545-27.716-11.4-36.726-17.47a212.144 212.144 0 0116.174-20.953c55.432 45.117 200.881 71.949 289.465 58.052 100.104-15.703 55.586 52.576 10.793 68.7z"/><path id="Path_2729" data-name="Path 2729" d="M6195.234 2399.83c8.819 5.225 18.157 10.117 27.829 14.675 10.672 5.039 21.752 9.634 33.128 13.859h.037c6.6 2.445 13.34 4.743 20.085 6.892 51.434 16.379 106.018 24.05 148.521 20.789 42.652-3.261 85.563-11.932 125.991-27.9 4-1.556 7.968-3.224 11.933-4.928a333.682 333.682 0 0034.832-17.639q8.782-5.058 17.306-10.783c.259 1.556.481 3.15.667 4.706-5.448 4.187-11.451 8.6-18.01 13.044a375.418 375.418 0 01-29.533 18.046 248.33 248.33 0 01-9.487 5 376.876 376.876 0 01-71.481 27.866c-80.116 22.123-144.557 20.084-194.916 9.486a366.429 366.429 0 01-68.777-21.9V2451c-8.819-3.743-16.823-7.559-24.049-11.117h-.037c-1.927-.963-3.78-1.927-5.6-2.816z"/></g><path id="Path_2730" data-name="Path 2730" d="M6226.62 2472.794c-12.191-2.371-22.307-4.966-29.867-7.745-.074-.518-.185-1.037-.26-1.556-.259-1.445-.481-2.928-.7-4.372a211.26 211.26 0 01-.705-5.152 195.514 195.514 0 01-1.037-10.338l-.111-1.779c-.112-1.593-.186-3.187-.26-4.78l-.111-2.964c-.037-.853-.037-1.7-.074-2.557-.038-1.334-.038-2.706-.038-4.039q0-3.391.112-6.782c.037-2 .148-3.965.259-5.929.075-1.186.149-2.335.26-3.484.037-1.037.148-2.074.259-3.112a60.99 60.99 0 01.259-2.705c.112-1.482.3-2.964.482-4.41.037-.407.111-.852.149-1.259l.11-.779c.186-1.371.371-2.705.594-4.039.185-1.3.407-2.594.63-3.891.259-1.556.555-3.15.889-4.706.371-1.89.778-3.78 1.186-5.67 1.223-5.41 2.631-10.746 4.261-15.971.815-2.7 1.7-5.373 2.668-8.041a210.007 210.007 0 0120.6-42.43c1.149-1.815 2.372-3.631 3.558-5.447a211.813 211.813 0 0116.194-20.937v-.037a361.786 361.786 0 013.705-4.113 3.436 3.436 0 01.37-.37c1.372-1.483 2.743-2.965 4.151-4.373a144.784 144.784 0 014.15-4.113 259.45 259.45 0 014.595-4.3 210.737 210.737 0 0128.571-21.9q7.558-4.781 15.452-8.968h.037a177.76 177.76 0 015.966-3c.037-.037.111-.037.148-.074.037 0 .074-.037.112-.037.7-.371 1.371-.705 2.075-1 .037-.037.111-.037.148-.074a4.045 4.045 0 01.593-.26q-3.169 3.225-6.225 6.448a281.75 281.75 0 00-5.633 5.929c-2.409 2.631-4.818 5.262-7.189 7.893-1.186 1.371-2.372 2.7-3.557 4.076a179.56 179.56 0 00-4.188 4.892 312.727 312.727 0 00-5.558 6.744c-.7.852-1.408 1.705-2.039 2.594-1.333 1.631-2.593 3.3-3.89 4.965-.7.927-1.408 1.853-2.075 2.78a158.706 158.706 0 00-3.484 4.78c-.7.926-1.408 1.89-2.075 2.89a310.947 310.947 0 00-3.928 5.707q-1.611 2.334-3.113 4.669c-4.261 6.67-8.337 13.488-12.08 20.566v.037a247.335 247.335 0 00-19.418 47.581 244.667 244.667 0 00-2.3 8.449 149.709 149.709 0 00-1.63 7.077 198.436 198.436 0 00-1.038 5.04c-.037.26-.111.482-.148.741a105.503 105.503 0 00-.593 3.335 219.285 219.285 0 00-2.779 22.012c-.482 6.447-.7 12.9-.593 19.343.037 5.744.371 11.45.889 17.157v.037a205.391 205.391 0 003.264 21.751z" fill="#c1642e" opacity=".25" style="mix-blend-mode:multiply;isolation:isolate"/><path id="Path_2731" data-name="Path 2731" d="M6617.416 2427.512c0 1.63-.037 3.26-.074 4.891 0 .926-.037 1.853-.075 2.779a190.202 190.202 0 01-.333 6.485c-.037.37-.037.741-.075 1.111-.37 5.6-1 11.154-1.815 16.639-.259 1.556-.519 3.15-.815 4.706-6.634 2.7-15.6 5.225-26.5 7.485a202.1 202.1 0 008-35.61 198.859 198.859 0 001.815-23.457c.074-2.335.074-4.669.037-6.967a207.161 207.161 0 00-3.26-34.536V2371a205.908 205.908 0 00-2.891-13.415 403.726 403.726 0 01-1.778-7.3c-4.707-20.121-8.005-37.241-19.344-55.992q3.891 4.781 7.448 9.783a216.145 216.145 0 013.928 5.67c.63.926 1.26 1.889 1.853 2.853.7 1 1.334 2.038 1.927 3.076.667.963 1.26 1.964 1.853 2.964 1.186 1.964 2.372 4 3.52 6.04a152.514 152.514 0 013.632 6.893c1 1.926 1.963 3.928 2.927 5.929a115.37 115.37 0 011.408 3.112c1.816 3.965 3.446 7.967 4.966 12.044a108.64 108.64 0 011.371 3.705 46.297 46.297 0 011.112 3.187c.518 1.557 1.038 3.113 1.519 4.669.63 1.964 1.223 3.965 1.778 5.967s1.112 4.038 1.594 6.039q.668 2.613 1.223 5.225a18.756 18.756 0 01.445 2.075q.555 2.5 1 5c.408 2.076.741 4.188 1.075 6.263.259 1.556.482 3.15.667 4.706v.074c.259 1.779.444 3.594.63 5.373.111.852.185 1.7.259 2.557.37 3.779.63 7.6.778 11.413a1.009 1.009 0 010 .334c.075.778.075 1.556.075 2.334.083 1.968.12 3.932.12 5.934z" fill="#c1642e" opacity=".25" style="mix-blend-mode:multiply;isolation:isolate"/><path id="Path_2732" data-name="Path 2732" d="M6617.305 2421.582c0-.778 0-1.556-.075-2.334a1.009 1.009 0 000-.334 194.715 194.715 0 00-.778-11.413 59.656 59.656 0 00-.259-2.557c-.186-1.779-.371-3.594-.63-5.373v-.074c-.185-1.556-.408-3.15-.667-4.706-.334-2.075-.667-4.187-1.075-6.263q-.444-2.5-1-5a18.756 18.756 0 00-.445-2.075q-.557-2.611-1.223-5.225c-.482-2-1.038-4.039-1.594-6.039s-1.148-4-1.778-5.967c-.481-1.556-1-3.112-1.519-4.669a44.262 44.262 0 00-1.112-3.187 108.64 108.64 0 00-1.371-3.705c-1.52-4.077-3.15-8.079-4.966-12.044a115.37 115.37 0 00-1.408-3.112c-.964-2-1.927-4-2.927-5.929a152.514 152.514 0 00-3.632-6.893 232.427 232.427 0 00-3.52-6.04c-.593-1-1.186-2-1.853-2.964a38.642 38.642 0 00-1.927-3.076 74.587 74.587 0 00-1.853-2.853 226.283 226.283 0 00-3.928-5.67q-3.557-5-7.448-9.783c-.964-1.186-1.927-2.409-2.964-3.594-4.225-5-8.672-9.82-13.341-14.378a211.665 211.665 0 00-79.782-49.359.114.114 0 01-.074-.038 213.772 213.772 0 00-101.534-8.856c-5.707.89-11.377 2-16.935 3.335a213.024 213.024 0 00-28.533 9.042c-1.89.779-3.817 1.557-5.707 2.372a142.13 142.13 0 00-5.41 2.445l-.037.037a4.045 4.045 0 00-.593.26c-.037.037-.111.037-.148.074-.7.3-1.372.63-2.075 1-.038 0-.075.037-.112.037-.037.037-.111.037-.148.074-2 .963-4 1.964-5.966 3h-.037q-7.893 4.168-15.452 8.968a210.737 210.737 0 00-28.571 21.9 252.213 252.213 0 00-4.595 4.3 138.527 138.527 0 00-4.15 4.113c-1.408 1.408-2.779 2.89-4.151 4.373a3.436 3.436 0 00-.37.37 361.786 361.786 0 00-3.705 4.113v.037a211.813 211.813 0 00-16.194 20.937c-1.186 1.816-2.409 3.632-3.558 5.447a210.007 210.007 0 00-20.6 42.43 156.33 156.33 0 00-2.668 8.041c-1.63 5.225-3.038 10.561-4.261 15.971a308.85 308.85 0 00-1.186 5.67c-.334 1.556-.63 3.15-.889 4.706-.223 1.3-.445 2.594-.63 3.891a132.308 132.308 0 00-.594 4.039l-.11.779c-.038.407-.112.852-.149 1.259-.185 1.446-.37 2.928-.482 4.41a60.99 60.99 0 00-.259 2.705c-.111 1.038-.222 2.075-.259 3.112-.111 1.149-.185 2.3-.26 3.484-.111 1.964-.222 3.928-.259 5.929q-.111 3.391-.112 6.782c0 1.333 0 2.705.038 4.039.037.852.037 1.7.074 2.557l.111 2.964c.074 1.593.148 3.187.26 4.78l.111 1.779c.259 3.446.593 6.892 1.037 10.338.222 1.742.445 3.447.705 5.152.222 1.444.444 2.927.7 4.372.075.519.186 1.038.26 1.556 7.56 2.779 17.676 5.374 29.867 7.745 19.158 3.669 43.541 6.745 71.518 8.967-2.148-2.853-4.112-5.78-6-8.818a134.918 134.918 0 01-15.823-37.687c-.778-3-1.446-6-2-9.042a154.577 154.577 0 01-2.483-19.491q-.445-6.448-.334-13.007c0-.927.037-1.89.074-2.817a169.483 169.483 0 0112.229-58.7 158.359 158.359 0 018.671-18.047 147.5 147.5 0 0149.248-52.916 136.633 136.633 0 0125.38-13.038h.037a133.714 133.714 0 0111.6-4.039c35.834-10.71 75-8.115 110.279 4.335a103.741 103.741 0 0125.718 13.341 111.416 111.416 0 0126.347 26.569c11.413 16.082 19.195 35.167 23.419 55.288a182.21 182.21 0 013 20.159v.037c.37 3.89.593 7.781.7 11.71v.037a178.772 178.772 0 01-1.186 26.383c-.074.557-.148 1.075-.223 1.631a130.716 130.716 0 01-4.038 19.566c-.63 2.149-1.26 4.224-2 6.3a92.827 92.827 0 01-2.224 6.077 144.926 144.926 0 01-28.014 44.393c22.345-2.261 41.725-5.076 57.215-8.375 10.894-2.26 19.861-4.78 26.5-7.485.3-1.556.556-3.15.815-4.706.815-5.485 1.445-11.043 1.815-16.639.038-.37.038-.741.075-1.111.148-2.149.259-4.336.333-6.485.038-.926.075-1.853.075-2.779.037-1.631.074-3.261.074-4.891-.001-2.006-.038-3.97-.112-5.934z" fill="#c1642e" opacity=".1" style="mix-blend-mode:color-burn;isolation:isolate"/><path id="Path_2733" data-name="Path 2733" d="M6377.642 2255.4c3.587 20.764 44.46 46.391 89.83 58.114 48.558 12.547 86.856 13.643 92.958-7.544 3.595-12.479-9.389-30.239-33.494-45.816-70.084-45.293-155.726-42.002-149.294-4.754z" fill="#e59f79" opacity=".1" style="mix-blend-mode:color-dodge;isolation:isolate"/><path id="Path_2734" data-name="Path 2734" d="M6442.567 2250.454c1.374 7.955 17.033 17.773 34.414 22.264 18.6 4.807 33.276 5.226 35.614-2.89 1.376-4.781-3.6-11.585-12.832-17.553-26.85-17.351-59.663-16.09-57.196-1.821z" fill="#fff" opacity=".85"/></g></g></g></svg>