<svg xmlns="http://www.w3.org/2000/svg" xmlns:xlink="http://www.w3.org/1999/xlink" width="247.328" height="141.686" viewBox="0 0 247.328 141.686">
  <defs>
    <clipPath id="clip-path">
      <path id="Path_19746" data-name="Path 19746" d="M1944.951,3446.728a35.469,35.469,0,0,0-2.04-8.034l-.021-.056q-.049-.135-.108-.291h0v0h0l-.521-1.384a4.015,4.015,0,0,0-.255-.58,53.666,53.666,0,0,0-3.452-6.93,35,35,0,0,0-6.637-8.367,15.16,15.16,0,0,0-4.848-3.077,7.093,7.093,0,0,0-2.355-.43,5.114,5.114,0,0,0-2.21.48,6.045,6.045,0,0,0-2.746,2.635c-2.873,2.27-2.879,6.671-2.881,8.91,0,1.682.1,3.371.194,5,.117,2,.239,4.065.167,6.072a14.022,14.022,0,0,1-1.462,6.413,4.944,4.944,0,0,1-1.559.847,3.336,3.336,0,0,1-1.01.16,2.443,2.443,0,0,1-1.987-.923,5.584,5.584,0,0,1-.658-4.066c.22-1.869.551-3.709.846-5.262.193-1.019.4-2.056.6-3.059.54-2.675,1.1-5.441,1.428-8.232a40.588,40.588,0,0,0,.327-5.821,16.15,16.15,0,0,0-.819-5.088,5.284,5.284,0,0,0-1.725-2.557,7.932,7.932,0,0,0-4.912-1.332q-.219,0-.435.006a20.538,20.538,0,0,0-10.632,3.588,18.986,18.986,0,0,0-4.954,4.7,14.711,14.711,0,0,0-3.46,5.505,17.331,17.331,0,0,0-.618,7.554,34.417,34.417,0,0,0,3.187,10.6,46.5,46.5,0,0,0,5.6,9.052,34.995,34.995,0,0,0,3.671,4,17.44,17.44,0,0,0,4.242,3.036,10.592,10.592,0,0,0,4.659.914q.246,0,.492-.006a34.918,34.918,0,0,0,18.681-6.553c.195-.148.386-.3.575-.454a12.934,12.934,0,0,0,1.287,2.506,7.055,7.055,0,0,0,6.187,3.267c.113,0,.227,0,.34-.006a15.568,15.568,0,0,0,3.78-.662,5.734,5.734,0,0,0,3.275-2.4c.111-.169.211-.344.305-.52a5.717,5.717,0,0,0,1.3-1.405C1945.37,3452.066,1945.209,3448.9,1944.951,3446.728Z"/>
    </clipPath>
    <linearGradient id="linear-gradient" x1="0.501" y1="-13.435" x2="0.501" y2="3.666" gradientUnits="objectBoundingBox">
      <stop offset="0" stop-color="#00ffd5"/>
      <stop offset="1" stop-color="#01cb2d"/>
    </linearGradient>
    <linearGradient id="linear-gradient-2" x1="0.5" y1="-47.87" x2="0.5" y2="8.84" xlink:href="#linear-gradient"/>
    <linearGradient id="linear-gradient-3" x1="0.5" y1="0.002" x2="0.5" y2="0.686" xlink:href="#linear-gradient"/>
    <clipPath id="clip-path-2">
      <path id="Path_19753" data-name="Path 19753" d="M1899.171,3434.366a13.948,13.948,0,0,0-.936-1.409,6.324,6.324,0,0,0-.458-.578c-.173-.206-.314-.372-.448-.5a16.229,16.229,0,0,0-9.826-4.724,14.42,14.42,0,0,0,1.885-2.148,14.245,14.245,0,0,0,4.279-10.881,9.723,9.723,0,0,0-1.8-5.245,8.133,8.133,0,0,0-4.927-3.032,9.623,9.623,0,0,0-1.814-.2,11.114,11.114,0,0,0-7.973,3.479,14.806,14.806,0,0,0-1.421,1.7c-.07.068-.142.135-.211.205a14.691,14.691,0,0,0-1.207,1.408c-.856-.082-1.694-.131-2.489-.143a23.84,23.84,0,0,0-3.79.234,12.729,12.729,0,0,0-6.781,2.841,9.144,9.144,0,0,0-1.571,1.85c-.02.018-.042.033-.062.051a10.8,10.8,0,0,0-3.287,6.559,11.453,11.453,0,0,0,1.4,7.412,12.16,12.16,0,0,0,5.375,4.7c.478.227.986.44,1.509.632l.07.033a3.341,3.341,0,0,0,.472.19l-.047.071-.129.117a9.416,9.416,0,0,0-2.706,4.44,10.878,10.878,0,0,0,.086,5.565,17.73,17.73,0,0,0,5.252,8.3,20.919,20.919,0,0,0,8.422,4.741,18.355,18.355,0,0,0,4.715.678,20.157,20.157,0,0,0,14.062-5.435,16.572,16.572,0,0,0,1.961-2.225,15.42,15.42,0,0,0,4.384-8.292A15.924,15.924,0,0,0,1899.171,3434.366Z"/>
    </clipPath>
    <linearGradient id="linear-gradient-4" x1="0.5" y1="-23.701" x2="0.5" y2="14.192" xlink:href="#linear-gradient"/>
    <linearGradient id="linear-gradient-5" x1="0.5" y1="0.132" x2="0.5" y2="0.732" xlink:href="#linear-gradient"/>
    <clipPath id="clip-path-3">
      <path id="Path_19760" data-name="Path 19760" d="M2036.782,3434.366a13.785,13.785,0,0,0-.936-1.409,6.452,6.452,0,0,0-.457-.578c-.174-.206-.314-.372-.449-.5a16.226,16.226,0,0,0-9.826-4.724A14.365,14.365,0,0,0,2027,3425a14.24,14.24,0,0,0,4.28-10.881,9.725,9.725,0,0,0-1.8-5.245,8.13,8.13,0,0,0-4.926-3.032,9.643,9.643,0,0,0-1.814-.2,11.11,11.11,0,0,0-7.973,3.479,14.814,14.814,0,0,0-1.422,1.7c-.07.068-.142.135-.211.205a14.69,14.69,0,0,0-1.207,1.408c-.856-.082-1.693-.131-2.488-.143a23.843,23.843,0,0,0-3.79.234,12.733,12.733,0,0,0-6.782,2.841,9.167,9.167,0,0,0-1.57,1.85c-.02.018-.043.033-.063.051a10.8,10.8,0,0,0-3.286,6.559,11.452,11.452,0,0,0,1.4,7.412,12.158,12.158,0,0,0,5.376,4.7c.478.227.985.44,1.509.632l.07.033a3.273,3.273,0,0,0,.471.19l-.046.071c-.044.039-.087.077-.13.117a9.417,9.417,0,0,0-2.706,4.44,10.879,10.879,0,0,0,.086,5.565,17.739,17.739,0,0,0,5.252,8.3,20.919,20.919,0,0,0,8.422,4.741,18.362,18.362,0,0,0,4.715.678,20.156,20.156,0,0,0,14.062-5.435,16.519,16.519,0,0,0,1.962-2.225,15.426,15.426,0,0,0,4.383-8.292A15.918,15.918,0,0,0,2036.782,3434.366Z"/>
    </clipPath>
    <linearGradient id="linear-gradient-6" x1="0.5" y1="-23.701" x2="0.5" y2="14.192" xlink:href="#linear-gradient"/>
    <clipPath id="clip-path-4">
      <path id="Path_19766" data-name="Path 19766" d="M1968.357,3341.072a5.665,5.665,0,0,0-.544-.741,6.063,6.063,0,0,0-.557-.643,13.248,13.248,0,0,0-9.706-4.082h-.14a10.307,10.307,0,0,0-3.273.517,13.884,13.884,0,0,0-2.789,1.355,24.85,24.85,0,0,0-4.579,3.719,34.777,34.777,0,0,0-2.854,3.259,36.841,36.841,0,0,0-5.234,7.618,28.633,28.633,0,0,0-3.5,11.5,18.834,18.834,0,0,0,3.185,11.579,26.211,26.211,0,0,0,8.537,7.908,24.237,24.237,0,0,0,11.547,3.642l.192,0a7.217,7.217,0,0,0,5.209-1.686,5.517,5.517,0,0,0,1.11-1.512,5.114,5.114,0,0,0,.494-.413,7.15,7.15,0,0,0,1.788-6.155c-.143-1.161-.706-4.022-2.835-5.5a3.336,3.336,0,0,0-1.9-.635h-.063a4.509,4.509,0,0,0-1.443.327c-.135.048-.261.094-.37.125-.465.135-.95.246-1.449.338a16.432,16.432,0,0,0,1.671-1.245,18.988,18.988,0,0,0,2.994-3.251,22.317,22.317,0,0,0,3.92-5.847,30.474,30.474,0,0,0,2.783-9.776C1970.848,3348.562,1970.682,3344.482,1968.357,3341.072Zm-21.453,23.276c-.009-.093-.017-.187-.023-.283a7.919,7.919,0,0,1,.5-3.243,7.74,7.74,0,0,1,.531-1.136,3.414,3.414,0,0,1,2.014-.9c.051,0,.1,0,.155.006a1.438,1.438,0,0,1,1.206,1.646h0v.008h0a3.666,3.666,0,0,1-.574,1.659A10.5,10.5,0,0,1,1946.9,3364.348Z"/>
    </clipPath>
    <linearGradient id="linear-gradient-8" x1="0.5" y1="-5.187" x2="0.5" y2="27.068" xlink:href="#linear-gradient"/>
    <linearGradient id="linear-gradient-9" x1="0.5" y1="-0.025" x2="0.5" y2="0.635" xlink:href="#linear-gradient"/>
    <linearGradient id="linear-gradient-10" x1="0.515" y1="-394.842" x2="0.515" y2="184.21" xlink:href="#linear-gradient"/>
    <linearGradient id="linear-gradient-11" x1="0.5" y1="0.081" x2="0.5" y2="0.728" xlink:href="#linear-gradient"/>
    <linearGradient id="linear-gradient-12" x1="0.502" y1="-23.814" x2="0.502" y2="52.271" xlink:href="#linear-gradient"/>
    <clipPath id="clip-path-5">
      <path id="Path_19780" data-name="Path 19780" d="M2006.221,3412.17a6.522,6.522,0,0,0-1.514-1.67,3.275,3.275,0,0,0-.49-.349,2.891,2.891,0,0,0-.6-.325,6.971,6.971,0,0,0-3.052-.644,9.457,9.457,0,0,0-1.039.059,15.941,15.941,0,0,0-1.789.334c-.315.072-.613.14-.909.2a47.162,47.162,0,0,1-7.916.72q-.624.011-1.249.011c-2.312,0-4.765-.1-7.72-.308-1.86-.133-3.756-.326-5.588-.514-1.157-.118-2.352-.24-3.534-.346-.583-.053-1.167-.079-1.736-.079a14.612,14.612,0,0,0-7.426,1.849,13.038,13.038,0,0,0-4.148,3.89,14.436,14.436,0,0,0-3.225,4.987,18.369,18.369,0,0,0-1.125,4.556,11.962,11.962,0,0,0,.243,4.9,5.033,5.033,0,0,0,3.008,3.4,5.459,5.459,0,0,0,1.893.326,7.869,7.869,0,0,0,3.089-.687,11,11,0,0,0,2.061-1.167c.336-.24.643-.492.94-.735.263-.216.512-.42.764-.6a11.636,11.636,0,0,1,3.248-1.659,12.794,12.794,0,0,1,3.888-.639q.181,0,.36.006l.013.05c1.57,5.98-.48,12.154-2.462,18.125-.227.686-.453,1.367-.672,2.042l-.066.2a7.5,7.5,0,0,0-.518,2.954,5.592,5.592,0,0,0,1.337,3.127,13.033,13.033,0,0,0,4.892,3.4,38,38,0,0,0,11.846,2.913,36.694,36.694,0,0,0,3.694.214c.63,0,1.24-.024,1.812-.072a3.218,3.218,0,0,0,2.821-2.261c1.936-.992,2.087-3.834,2.15-5.016a32.044,32.044,0,0,0-.407-6.218c-.275-1.906-.664-3.934-1.19-6.2-.486-2.1-1.02-4.159-1.588-6.121-.133-.46-.276-.924-.415-1.373a22.047,22.047,0,0,1-1.017-4.208c-.014-.135-.022-.261-.026-.383.053,0,.106-.006.157-.006h.07a11.789,11.789,0,0,1,1.563.149c.164.023.328.046.491.067a24.348,24.348,0,0,0,3.043.234,11.269,11.269,0,0,0,2.594-.277,6.053,6.053,0,0,0,4.072-3.091,6.3,6.3,0,0,0,1.907-2.554,13.787,13.787,0,0,0,.929-5.092A10.775,10.775,0,0,0,2006.221,3412.17Z"/>
    </clipPath>
    <linearGradient id="linear-gradient-13" x1="0.5" y1="2.116" x2="0.5" y2="83.157" xlink:href="#linear-gradient"/>
    <linearGradient id="linear-gradient-14" x1="0.5" y1="0.029" x2="0.5" y2="0.675" xlink:href="#linear-gradient"/>
    <clipPath id="clip-path-6">
      <path id="Path_19786" data-name="Path 19786" d="M1905.595,3338.166a6.521,6.521,0,0,0-1.513-1.671,3.317,3.317,0,0,0-.491-.349,2.92,2.92,0,0,0-.6-.325,6.984,6.984,0,0,0-3.052-.643,9.448,9.448,0,0,0-1.039.058,15.622,15.622,0,0,0-1.789.335c-.315.072-.613.139-.909.2a47.183,47.183,0,0,1-7.916.721q-.624.01-1.249.01c-2.312,0-4.765-.1-7.72-.308-1.86-.132-3.755-.326-5.588-.513-1.156-.118-2.352-.241-3.534-.347-.583-.052-1.167-.079-1.735-.079a14.616,14.616,0,0,0-7.427,1.849,13.029,13.029,0,0,0-4.148,3.891,14.438,14.438,0,0,0-3.225,4.987,18.357,18.357,0,0,0-1.125,4.555,11.962,11.962,0,0,0,.244,4.9,5.028,5.028,0,0,0,3.007,3.4,5.442,5.442,0,0,0,1.894.327,7.877,7.877,0,0,0,3.089-.687,11.069,11.069,0,0,0,2.06-1.167c.336-.24.643-.492.941-.736.263-.216.511-.419.763-.6a11.632,11.632,0,0,1,3.248-1.659,12.8,12.8,0,0,1,3.888-.639q.182,0,.36.006l.013.051c1.57,5.979-.479,12.154-2.461,18.125-.228.685-.454,1.366-.672,2.041l-.066.2a7.482,7.482,0,0,0-.519,2.955,5.59,5.59,0,0,0,1.337,3.126,13.022,13.022,0,0,0,4.892,3.4,37.995,37.995,0,0,0,11.846,2.914,36.7,36.7,0,0,0,3.694.214c.63,0,1.24-.025,1.812-.072a3.217,3.217,0,0,0,2.821-2.261c1.936-.992,2.088-3.835,2.15-5.017a31.954,31.954,0,0,0-.407-6.217c-.275-1.907-.664-3.935-1.189-6.2-.487-2.1-1.021-4.16-1.588-6.122-.134-.46-.277-.924-.416-1.373a22.03,22.03,0,0,1-1.017-4.208c-.014-.135-.021-.261-.026-.383l.157-.006h.07a11.706,11.706,0,0,1,1.563.148c.164.023.328.046.492.067a24.13,24.13,0,0,0,3.042.234,11.216,11.216,0,0,0,2.594-.277,6.053,6.053,0,0,0,4.072-3.09,6.3,6.3,0,0,0,1.907-2.555,13.765,13.765,0,0,0,.929-5.092A10.767,10.767,0,0,0,1905.595,3338.166Z"/>
    </clipPath>
    <linearGradient id="linear-gradient-15" x1="0.5" y1="2.116" x2="0.5" y2="83.157" xlink:href="#linear-gradient"/>
    <clipPath id="clip-path-7">
      <path id="Path_19792" data-name="Path 19792" d="M1864.342,3415.077a5.6,5.6,0,0,0-.544-.741,6.19,6.19,0,0,0-.557-.644,13.25,13.25,0,0,0-9.706-4.081h-.14a10.334,10.334,0,0,0-3.273.518,13.943,13.943,0,0,0-2.789,1.354,24.978,24.978,0,0,0-4.579,3.719,35.059,35.059,0,0,0-2.854,3.259,36.907,36.907,0,0,0-5.234,7.619,28.622,28.622,0,0,0-3.5,11.5,18.827,18.827,0,0,0,3.184,11.579,26.2,26.2,0,0,0,8.537,7.907,24.251,24.251,0,0,0,11.547,3.643h.192a7.218,7.218,0,0,0,5.209-1.685,5.514,5.514,0,0,0,1.11-1.512,5.157,5.157,0,0,0,.494-.414,7.147,7.147,0,0,0,1.788-6.154c-.143-1.161-.706-4.022-2.835-5.5a3.342,3.342,0,0,0-1.9-.634h-.063a4.516,4.516,0,0,0-1.443.328c-.134.048-.261.093-.37.125-.465.134-.95.246-1.449.338a16.471,16.471,0,0,0,1.671-1.245,18.984,18.984,0,0,0,2.994-3.251,22.335,22.335,0,0,0,3.92-5.847,30.485,30.485,0,0,0,2.783-9.776C1866.834,3422.567,1866.668,3418.486,1864.342,3415.077Zm-21.452,23.276c-.01-.093-.018-.187-.024-.283a7.944,7.944,0,0,1,.5-3.244,7.741,7.741,0,0,1,.531-1.135,3.416,3.416,0,0,1,2.014-.9c.052,0,.1,0,.155.007a1.437,1.437,0,0,1,1.206,1.645h0v.009h0a3.668,3.668,0,0,1-.573,1.658A10.5,10.5,0,0,1,1842.89,3438.353Z"/>
    </clipPath>
    <linearGradient id="linear-gradient-17" x1="0.5" y1="-5.187" x2="0.5" y2="27.068" xlink:href="#linear-gradient"/>
    <clipPath id="clip-path-8">
      <path id="Path_19799" data-name="Path 19799" d="M1977.311,3437.085a7.22,7.22,0,0,0-2.22-2.743l-.012-.009-.011-.009-.017-.012c-.035-.029-.067-.053-.093-.073v0l0,0h0a5.764,5.764,0,0,0-.88-.606,17.853,17.853,0,0,0-5.614-2.2,22.444,22.444,0,0,0-3.763-.485c-.4-.021-.751-.032-1.089-.032a11.493,11.493,0,0,0-2.609.27,9.766,9.766,0,0,0-5.775,4.267l-.022.032a12.9,12.9,0,0,0-1.582,1.893c-.272.392-.531.79-.782,1.175-.3.467-.6.909-.9,1.339a19.885,19.885,0,0,1,.016-3.94,69.742,69.742,0,0,1,2.743-12.6l.15-.534q.2-.7.4-1.4a53.017,53.017,0,0,0,1.478-5.954l0-.027a6.6,6.6,0,0,0,.074-2.621,3.9,3.9,0,0,0-2.738-2.639,11.805,11.805,0,0,0-4.086-.662,20.764,20.764,0,0,0-3.831.389,16.414,16.414,0,0,0-6.427,2.459,5.481,5.481,0,0,0-1.65,1.961,6.465,6.465,0,0,0-2.081,2.979,17.592,17.592,0,0,0-.948,3.788,41.5,41.5,0,0,0-.352,7.686,72.9,72.9,0,0,0,2.175,15.388c1.1,4.364,2.744,9.283,6.6,12.685a15.266,15.266,0,0,0,6.305,3.3,17.457,17.457,0,0,0,4.322.563,14.155,14.155,0,0,0,3.23-.362c4.143-.973,8.3-3.591,12.354-7.78a36.234,36.234,0,0,0,2.656-3.059,31.063,31.063,0,0,0,3.491-4.67C1977.216,3442.511,1978.486,3439.768,1977.311,3437.085Z"/>
    </clipPath>
    <linearGradient id="linear-gradient-19" x1="0.5" y1="-145.16" x2="0.5" y2="106.505" xlink:href="#linear-gradient"/>
    <linearGradient id="linear-gradient-20" x1="0.5" y1="-42.257" x2="0.5" y2="32.738" xlink:href="#linear-gradient"/>
    <linearGradient id="linear-gradient-21" x1="0.5" y1="0.129" x2="0.5" y2="0.813" xlink:href="#linear-gradient"/>
    <clipPath id="clip-path-9">
      <path id="Path_19805" data-name="Path 19805" d="M1844.456,3448.406a3.262,3.262,0,0,0-1.36-1.909c-.091-.069-.191-.14-.3-.217a3.693,3.693,0,0,0-.744-.463,29.08,29.08,0,0,0-5.056-2.191c-.637-.229-1.3-.466-1.923-.712a30.726,30.726,0,0,1-3.217-1.466,14.218,14.218,0,0,0,4.577-4.223,15.825,15.825,0,0,0,1.71-2.071,17.333,17.333,0,0,0,2.744-6.247,22.1,22.1,0,0,0,.083-8.609,20.634,20.634,0,0,0-2.941-7.633,11.4,11.4,0,0,0-6.745-5.021,10.517,10.517,0,0,0-2.477-.29,13.627,13.627,0,0,0-4.288.741,16.923,16.923,0,0,0-6.827,4.17,16.634,16.634,0,0,0-1.656,1.98,21.013,21.013,0,0,0-5.4,12.326,3.491,3.491,0,0,0-2.759,2.314,4.694,4.694,0,0,0-1.973,2.931,13.77,13.77,0,0,0-.4,4.457,31.7,31.7,0,0,0,.584,4.634,52.314,52.314,0,0,0,2.586,8.877,36.021,36.021,0,0,0,1.946,4.27,11.9,11.9,0,0,0,2.926,3.85,3.2,3.2,0,0,0,1.942.765,2.416,2.416,0,0,0,.32-.021,3.076,3.076,0,0,0,2.05-1.226,4.648,4.648,0,0,0,.573-1.036,3.118,3.118,0,0,0,1.031-.89,7.988,7.988,0,0,0,1.146-4.463l.014-.273c.017-.322.023-.652.029-.972,0-.207.008-.415.015-.621a7.612,7.612,0,0,1,.924,1.836l.1.259.062.156a36.392,36.392,0,0,0,1.811,4.007c1.56,2.831,3.438,4.548,5.581,5.1a5.977,5.977,0,0,0,1.5.183,9.762,9.762,0,0,0,3.29-.654,17.116,17.116,0,0,0,4.1-2.192,15.573,15.573,0,0,0,3.307-3.093c.159-.2.325-.427.488-.668a13.336,13.336,0,0,0,1.117-1.258C1843.791,3451.771,1844.857,3450.139,1844.456,3448.406Zm-21.33-13.154a2.4,2.4,0,0,1-.427.038,3.724,3.724,0,0,1-2.647-1.326,1.612,1.612,0,0,1-.534-1.115c.029-.044.091-.122.135-.175s.093-.116.136-.173c.089-.117.173-.224.258-.334a12.07,12.07,0,0,1,.9-.888,2.736,2.736,0,0,1,1.627-.829,1,1,0,0,1,.111.006c1.025.107,1.36,1.62,1.4,2.405a4.613,4.613,0,0,1-.549,2.229A1.635,1.635,0,0,1,1823.126,3435.252Z"/>
    </clipPath>
    <linearGradient id="linear-gradient-22" x1="0.5" y1="-56.316" x2="0.5" y2="-3.815" xlink:href="#linear-gradient"/>
    <linearGradient id="linear-gradient-23" x1="0.5" y1="0.119" x2="0.5" y2="0.741" xlink:href="#linear-gradient"/>
  </defs>
  <g id="Group_10184" data-name="Group 10184" transform="translate(-56.354 -3325.947)">
    <g id="Group_8442" data-name="Group 8442" transform="translate(-1742.222)">
      <g id="Group_8441" data-name="Group 8441">
        <g id="Group_8437" data-name="Group 8437">
          <path id="Path_19731" data-name="Path 19731" d="M2041.052,3431.888v0a19.163,19.163,0,0,0-1.187-1.8c-.232-.332-.47-.615-.7-.892-.2-.232-.415-.491-.68-.758a18.788,18.788,0,0,0-4.985-3.752l.043-.072a19.163,19.163,0,0,0,2.667-10.787,14.631,14.631,0,0,0-2.767-7.893,13.058,13.058,0,0,0-7.889-4.92,14.653,14.653,0,0,0-2.74-.3,16.086,16.086,0,0,0-11.571,4.958,19.644,19.644,0,0,0-1.471,1.692l-.258-.005q-.448-.007-.9,0c-.246-.235-.5-.458-.766-.667a8.421,8.421,0,0,0-1.017-.727,8,8,0,0,0-1.3-.688,12.446,12.446,0,0,0-6.554-.94,20.335,20.335,0,0,0-2.35.43c-.247.056-.48.111-.713.154a42.307,42.307,0,0,1-7.087.637c-.389.007-.78.009-1.169.009-2.195,0-4.537-.094-7.369-.295-1.79-.127-3.644-.317-5.438-.5-1.175-.12-2.391-.244-3.592-.352-.728-.066-1.461-.1-2.178-.1a19.485,19.485,0,0,0-9.9,2.514q-.253.148-.5.3a10.43,10.43,0,0,0-2.9-1.6,16.689,16.689,0,0,0-5.795-.967,25.65,25.65,0,0,0-4.737.472,21.233,21.233,0,0,0-8.355,3.27,9.971,9.971,0,0,0-2.634,2.766,11.347,11.347,0,0,0-2.56,3.687,16.384,16.384,0,0,0-2.98-1.416,10.514,10.514,0,0,0-10.743,1.808q-.165-.6-.369-1.169a10.174,10.174,0,0,0-3.4-4.843,12.62,12.62,0,0,0-7.884-2.327c-.188,0-.375,0-.557.008a23.885,23.885,0,0,0-8.364,1.822,13.543,13.543,0,0,0-1.563-2.72,13.058,13.058,0,0,0-7.889-4.92,14.66,14.66,0,0,0-2.74-.3,16.094,16.094,0,0,0-11.57,4.958,19.3,19.3,0,0,0-1.472,1.692l-.259-.005a28.546,28.546,0,0,0-4.579.285,22.472,22.472,0,0,0-2.807.59,18.478,18.478,0,0,0-11-3.557h-.165a15.177,15.177,0,0,0-4.818.782,18.738,18.738,0,0,0-3.784,1.823,26.565,26.565,0,0,0-2.962,2.128,16.091,16.091,0,0,0-9.327-6.56,17.147,17.147,0,0,0-9.491.562,21.816,21.816,0,0,0-8.793,5.4,21.521,21.521,0,0,0-1.929,2.267,24.943,24.943,0,0,0-6.064,12.174,8.942,8.942,0,0,0-2.128,2.358,10.167,10.167,0,0,0-2.882,4.824,18.422,18.422,0,0,0-.588,6.07,36.645,36.645,0,0,0,.67,5.352,57.426,57.426,0,0,0,2.828,9.718,41.3,41.3,0,0,0,2.215,4.849,16.356,16.356,0,0,0,4.245,5.4,7.865,7.865,0,0,0,5.928,1.729,8.034,8.034,0,0,0,4.893-2.6,12.564,12.564,0,0,0,6.56,4.366,10.939,10.939,0,0,0,2.735.341,14.576,14.576,0,0,0,4.958-.944,22.08,22.08,0,0,0,5.289-2.813l.21-.151a28.593,28.593,0,0,0,13.248,3.906l.267,0a12.023,12.023,0,0,0,8.614-3.048,10.294,10.294,0,0,0,1.542-1.866l.063-.059q.346-.331.66-.692a25.753,25.753,0,0,0,9.2,4.8,23.261,23.261,0,0,0,5.983.863,25.233,25.233,0,0,0,15.143-4.8,21.366,21.366,0,0,0,4.948,3.4,15.374,15.374,0,0,0,6.8,1.4c.208,0,.416,0,.62-.008a37.205,37.205,0,0,0,12.227-2.531,41.33,41.33,0,0,0,5.409-2.492,11.9,11.9,0,0,0,2.962,2.315,12.3,12.3,0,0,0,6,1.476c.173,0,.346,0,.518-.009a20.381,20.381,0,0,0,4.964-.851,10.981,10.981,0,0,0,2.513-1.069,20.477,20.477,0,0,0,5.748,2.451,20.923,20.923,0,0,0,9.906.225,27.31,27.31,0,0,0,10.626-5.385,21.747,21.747,0,0,0,4.083,2.32,42.807,42.807,0,0,0,13.369,3.319,41.33,41.33,0,0,0,4.189.239c.769,0,1.517-.03,2.223-.089a7.941,7.941,0,0,0,6.254-3.858,8.5,8.5,0,0,0,2.257-3.193q.224.216.441.415a25.855,25.855,0,0,0,10.423,5.859,23.268,23.268,0,0,0,5.983.863,25.156,25.156,0,0,0,17.531-6.787,21.54,21.54,0,0,0,2.32-2.586,20.4,20.4,0,0,0,5.5-10.713A20.94,20.94,0,0,0,2041.052,3431.888Z" fill="#fff"/>
          <path id="Path_19732" data-name="Path 19732" d="M1971.669,3337.248h0a11.085,11.085,0,0,0-.892-1.023,18.157,18.157,0,0,0-13.253-5.556h-.165a15.165,15.165,0,0,0-4.818.783,18.69,18.69,0,0,0-3.783,1.823,29.745,29.745,0,0,0-5.49,4.441q-.759.764-1.493,1.589a17.435,17.435,0,0,0-5.6-.842,24.317,24.317,0,0,0-2.7.152,24.042,24.042,0,0,0-3.695.7c-.615.169-1.17.349-1.7.551-.419.161-.778.317-1.122.488a7.023,7.023,0,0,0-2.242,1.637c-.063-.192-.128-.385-.193-.578a24.981,24.981,0,0,0-4.475-8.339,14.846,14.846,0,0,0-10.615-5.114c-.431-.026-.877-.04-1.324-.04a36.984,36.984,0,0,0-8.262,1.145,68.954,68.954,0,0,0-8.411,2.338c-1.013.078-2.1.127-3.239.146q-.584.009-1.169.009c-2.195,0-4.536-.094-7.369-.3-1.79-.127-3.644-.316-5.437-.5-1.176-.12-2.391-.244-3.593-.352-.728-.066-1.461-.1-2.178-.1a19.472,19.472,0,0,0-9.9,2.515,17.978,17.978,0,0,0-5.475,4.99,19.555,19.555,0,0,0-4.023,6.367,23.314,23.314,0,0,0-1.429,5.779,16.747,16.747,0,0,0,.427,6.911,9.983,9.983,0,0,0,6.017,6.589,11.635,11.635,0,0,0,8.636-.453,15.914,15.914,0,0,0,2.987-1.688c.468-.334.872-.665,1.208-.941.181-.148.35-.29.523-.416l.153-.108a49.666,49.666,0,0,1-2.687,10.438c-.231.7-.461,1.389-.68,2.065l-.065.2a12.065,12.065,0,0,0-.749,4.86,10.57,10.57,0,0,0,2.434,5.875,17.9,17.9,0,0,0,6.7,4.789,42.832,42.832,0,0,0,13.37,3.32,41.589,41.589,0,0,0,4.189.238c.768,0,1.516-.03,2.222-.089a7.937,7.937,0,0,0,6.254-3.858,9.406,9.406,0,0,0,2.881-5.194c.494,1.083,1.009,2.2,1.609,3.332l.075.14c.725,1.378,2.424,4.6,6.312,5.44a10.63,10.63,0,0,0,2.264.229c.537,0,1.013-.032,1.4-.059.118-.008.237-.017.346-.022l2.3-.113a52.772,52.772,0,0,0,6.7-.612,13.956,13.956,0,0,0,3.1-.858,7.811,7.811,0,0,0,2.653-1.744l.26-.287a7.677,7.677,0,0,0,.778-1.118q.107-.087.213-.183a6.824,6.824,0,0,0,1.863.569,16.817,16.817,0,0,0,2.531.191l.252,0a16.106,16.106,0,0,0,5.865-1.1,7.534,7.534,0,0,0,1.6-.847q1.352.991,2.822,1.86a29.133,29.133,0,0,0,13.982,4.328h.267a12.028,12.028,0,0,0,8.614-3.047,10.292,10.292,0,0,0,1.542-1.867l.062-.059a12,12,0,0,0,3.283-10.333,13.6,13.6,0,0,0-3.264-7.519,28.33,28.33,0,0,0,3.352-5.457,35.488,35.488,0,0,0,3.231-11.381c.373-3.628.163-8.9-2.915-13.528A10.984,10.984,0,0,0,1971.669,3337.248Z" fill="#fff"/>
        </g>
        <g id="Group_8438" data-name="Group 8438">
          <path id="Path_19733" data-name="Path 19733" d="M2041.052,3431.888v0a19.163,19.163,0,0,0-1.187-1.8c-.232-.332-.47-.615-.7-.892-.2-.232-.415-.491-.68-.758a18.788,18.788,0,0,0-4.985-3.752l.043-.072a19.163,19.163,0,0,0,2.667-10.787,14.631,14.631,0,0,0-2.767-7.893,13.058,13.058,0,0,0-7.889-4.92,14.653,14.653,0,0,0-2.74-.3,16.086,16.086,0,0,0-11.571,4.958,19.644,19.644,0,0,0-1.471,1.692l-.258-.005q-.448-.007-.9,0c-.246-.235-.5-.458-.766-.667a8.421,8.421,0,0,0-1.017-.727,8,8,0,0,0-1.3-.688,12.446,12.446,0,0,0-6.554-.94,20.335,20.335,0,0,0-2.35.43c-.247.056-.48.111-.713.154a42.307,42.307,0,0,1-7.087.637c-.389.007-.78.009-1.169.009-2.195,0-4.537-.094-7.369-.295-1.79-.127-3.644-.317-5.438-.5-1.175-.12-2.391-.244-3.592-.352-.728-.066-1.461-.1-2.178-.1a19.485,19.485,0,0,0-9.9,2.514q-.253.148-.5.3a10.43,10.43,0,0,0-2.9-1.6,16.689,16.689,0,0,0-5.795-.967,25.65,25.65,0,0,0-4.737.472,21.233,21.233,0,0,0-8.355,3.27,9.971,9.971,0,0,0-2.634,2.766,11.347,11.347,0,0,0-2.56,3.687,16.384,16.384,0,0,0-2.98-1.416,10.514,10.514,0,0,0-10.743,1.808q-.165-.6-.369-1.169a10.174,10.174,0,0,0-3.4-4.843,12.62,12.62,0,0,0-7.884-2.327c-.188,0-.375,0-.557.008a23.885,23.885,0,0,0-8.364,1.822,13.543,13.543,0,0,0-1.563-2.72,13.058,13.058,0,0,0-7.889-4.92,14.66,14.66,0,0,0-2.74-.3,16.094,16.094,0,0,0-11.57,4.958,19.3,19.3,0,0,0-1.472,1.692l-.259-.005a28.546,28.546,0,0,0-4.579.285,22.472,22.472,0,0,0-2.807.59,18.478,18.478,0,0,0-11-3.557h-.165a15.177,15.177,0,0,0-4.818.782,18.738,18.738,0,0,0-3.784,1.823,26.565,26.565,0,0,0-2.962,2.128,16.091,16.091,0,0,0-9.327-6.56,17.147,17.147,0,0,0-9.491.562,21.816,21.816,0,0,0-8.793,5.4,21.521,21.521,0,0,0-1.929,2.267,24.943,24.943,0,0,0-6.064,12.174,8.942,8.942,0,0,0-2.128,2.358,10.167,10.167,0,0,0-2.882,4.824,18.422,18.422,0,0,0-.588,6.07,36.645,36.645,0,0,0,.67,5.352,57.426,57.426,0,0,0,2.828,9.718,41.3,41.3,0,0,0,2.215,4.849,16.356,16.356,0,0,0,4.245,5.4,7.865,7.865,0,0,0,5.928,1.729,8.034,8.034,0,0,0,4.893-2.6,12.564,12.564,0,0,0,6.56,4.366,10.939,10.939,0,0,0,2.735.341,14.576,14.576,0,0,0,4.958-.944,22.08,22.08,0,0,0,5.289-2.813l.21-.151a28.593,28.593,0,0,0,13.248,3.906l.267,0a12.023,12.023,0,0,0,8.614-3.048,10.294,10.294,0,0,0,1.542-1.866l.063-.059q.346-.331.66-.692a25.753,25.753,0,0,0,9.2,4.8,23.261,23.261,0,0,0,5.983.863,25.233,25.233,0,0,0,15.143-4.8,21.366,21.366,0,0,0,4.948,3.4,15.374,15.374,0,0,0,6.8,1.4c.208,0,.416,0,.62-.008a37.205,37.205,0,0,0,12.227-2.531,41.33,41.33,0,0,0,5.409-2.492,11.9,11.9,0,0,0,2.962,2.315,12.3,12.3,0,0,0,6,1.476c.173,0,.346,0,.518-.009a20.381,20.381,0,0,0,4.964-.851,10.981,10.981,0,0,0,2.513-1.069,20.477,20.477,0,0,0,5.748,2.451,20.923,20.923,0,0,0,9.906.225,27.31,27.31,0,0,0,10.626-5.385,21.747,21.747,0,0,0,4.083,2.32,42.807,42.807,0,0,0,13.369,3.319,41.33,41.33,0,0,0,4.189.239c.769,0,1.517-.03,2.223-.089a7.941,7.941,0,0,0,6.254-3.858,8.5,8.5,0,0,0,2.257-3.193q.224.216.441.415a25.855,25.855,0,0,0,10.423,5.859,23.268,23.268,0,0,0,5.983.863,25.156,25.156,0,0,0,17.531-6.787,21.54,21.54,0,0,0,2.32-2.586,20.4,20.4,0,0,0,5.5-10.713A20.94,20.94,0,0,0,2041.052,3431.888Z" fill="#fff"/>
          <path id="Path_19734" data-name="Path 19734" d="M1971.669,3337.248h0a11.085,11.085,0,0,0-.892-1.023,18.157,18.157,0,0,0-13.253-5.556h-.165a15.165,15.165,0,0,0-4.818.783,18.69,18.69,0,0,0-3.783,1.823,29.745,29.745,0,0,0-5.49,4.441q-.759.764-1.493,1.589a17.435,17.435,0,0,0-5.6-.842,24.317,24.317,0,0,0-2.7.152,24.042,24.042,0,0,0-3.695.7c-.615.169-1.17.349-1.7.551-.419.161-.778.317-1.122.488a7.023,7.023,0,0,0-2.242,1.637c-.063-.192-.128-.385-.193-.578a24.981,24.981,0,0,0-4.475-8.339,14.846,14.846,0,0,0-10.615-5.114c-.431-.026-.877-.04-1.324-.04a36.984,36.984,0,0,0-8.262,1.145,68.954,68.954,0,0,0-8.411,2.338c-1.013.078-2.1.127-3.239.146q-.584.009-1.169.009c-2.195,0-4.536-.094-7.369-.3-1.79-.127-3.644-.316-5.437-.5-1.176-.12-2.391-.244-3.593-.352-.728-.066-1.461-.1-2.178-.1a19.472,19.472,0,0,0-9.9,2.515,17.978,17.978,0,0,0-5.475,4.99,19.555,19.555,0,0,0-4.023,6.367,23.314,23.314,0,0,0-1.429,5.779,16.747,16.747,0,0,0,.427,6.911,9.983,9.983,0,0,0,6.017,6.589,11.635,11.635,0,0,0,8.636-.453,15.914,15.914,0,0,0,2.987-1.688c.468-.334.872-.665,1.208-.941.181-.148.35-.29.523-.416l.153-.108a49.666,49.666,0,0,1-2.687,10.438c-.231.7-.461,1.389-.68,2.065l-.065.2a12.065,12.065,0,0,0-.749,4.86,10.57,10.57,0,0,0,2.434,5.875,17.9,17.9,0,0,0,6.7,4.789,42.832,42.832,0,0,0,13.37,3.32,41.589,41.589,0,0,0,4.189.238c.768,0,1.516-.03,2.222-.089a7.937,7.937,0,0,0,6.254-3.858,9.406,9.406,0,0,0,2.881-5.194c.494,1.083,1.009,2.2,1.609,3.332l.075.14c.725,1.378,2.424,4.6,6.312,5.44a10.63,10.63,0,0,0,2.264.229c.537,0,1.013-.032,1.4-.059.118-.008.237-.017.346-.022l2.3-.113a52.772,52.772,0,0,0,6.7-.612,13.956,13.956,0,0,0,3.1-.858,7.811,7.811,0,0,0,2.653-1.744l.26-.287a7.677,7.677,0,0,0,.778-1.118q.107-.087.213-.183a6.824,6.824,0,0,0,1.863.569,16.817,16.817,0,0,0,2.531.191l.252,0a16.106,16.106,0,0,0,5.865-1.1,7.534,7.534,0,0,0,1.6-.847q1.352.991,2.822,1.86a29.133,29.133,0,0,0,13.982,4.328h.267a12.028,12.028,0,0,0,8.614-3.047,10.292,10.292,0,0,0,1.542-1.867l.062-.059a12,12,0,0,0,3.283-10.333,13.6,13.6,0,0,0-3.264-7.519,28.33,28.33,0,0,0,3.352-5.457,35.488,35.488,0,0,0,3.231-11.381c.373-3.628.163-8.9-2.915-13.528A10.984,10.984,0,0,0,1971.669,3337.248Z" fill="#fff"/>
        </g>
        <g id="Group_8439" data-name="Group 8439">
          <path id="Path_19735" data-name="Path 19735" d="M2041.052,3431.888v0a19.163,19.163,0,0,0-1.187-1.8c-.232-.332-.47-.615-.7-.892-.2-.232-.415-.491-.68-.758a18.788,18.788,0,0,0-4.985-3.752l.043-.072a19.163,19.163,0,0,0,2.667-10.787,14.631,14.631,0,0,0-2.767-7.893,13.058,13.058,0,0,0-7.889-4.92,14.653,14.653,0,0,0-2.74-.3,16.086,16.086,0,0,0-11.571,4.958,19.644,19.644,0,0,0-1.471,1.692l-.258-.005q-.448-.007-.9,0c-.246-.235-.5-.458-.766-.667a8.421,8.421,0,0,0-1.017-.727,8,8,0,0,0-1.3-.688,12.446,12.446,0,0,0-6.554-.94,20.335,20.335,0,0,0-2.35.43c-.247.056-.48.111-.713.154a42.307,42.307,0,0,1-7.087.637c-.389.007-.78.009-1.169.009-2.195,0-4.537-.094-7.369-.295-1.79-.127-3.644-.317-5.438-.5-1.175-.12-2.391-.244-3.592-.352-.728-.066-1.461-.1-2.178-.1a19.485,19.485,0,0,0-9.9,2.514q-.253.148-.5.3a10.43,10.43,0,0,0-2.9-1.6,16.689,16.689,0,0,0-5.795-.967,25.65,25.65,0,0,0-4.737.472,21.233,21.233,0,0,0-8.355,3.27,9.971,9.971,0,0,0-2.634,2.766,11.347,11.347,0,0,0-2.56,3.687,16.384,16.384,0,0,0-2.98-1.416,10.514,10.514,0,0,0-10.743,1.808q-.165-.6-.369-1.169a10.174,10.174,0,0,0-3.4-4.843,12.62,12.62,0,0,0-7.884-2.327c-.188,0-.375,0-.557.008a23.885,23.885,0,0,0-8.364,1.822,13.543,13.543,0,0,0-1.563-2.72,13.058,13.058,0,0,0-7.889-4.92,14.66,14.66,0,0,0-2.74-.3,16.094,16.094,0,0,0-11.57,4.958,19.3,19.3,0,0,0-1.472,1.692l-.259-.005a28.546,28.546,0,0,0-4.579.285,22.472,22.472,0,0,0-2.807.59,18.478,18.478,0,0,0-11-3.557h-.165a15.177,15.177,0,0,0-4.818.782,18.738,18.738,0,0,0-3.784,1.823,26.565,26.565,0,0,0-2.962,2.128,16.091,16.091,0,0,0-9.327-6.56,17.147,17.147,0,0,0-9.491.562,21.816,21.816,0,0,0-8.793,5.4,21.521,21.521,0,0,0-1.929,2.267,24.943,24.943,0,0,0-6.064,12.174,8.942,8.942,0,0,0-2.128,2.358,10.167,10.167,0,0,0-2.882,4.824,18.422,18.422,0,0,0-.588,6.07,36.645,36.645,0,0,0,.67,5.352,57.426,57.426,0,0,0,2.828,9.718,41.3,41.3,0,0,0,2.215,4.849,16.356,16.356,0,0,0,4.245,5.4,7.865,7.865,0,0,0,5.928,1.729,8.034,8.034,0,0,0,4.893-2.6,12.564,12.564,0,0,0,6.56,4.366,10.939,10.939,0,0,0,2.735.341,14.576,14.576,0,0,0,4.958-.944,22.08,22.08,0,0,0,5.289-2.813l.21-.151a28.593,28.593,0,0,0,13.248,3.906l.267,0a12.023,12.023,0,0,0,8.614-3.048,10.294,10.294,0,0,0,1.542-1.866l.063-.059q.346-.331.66-.692a25.753,25.753,0,0,0,9.2,4.8,23.261,23.261,0,0,0,5.983.863,25.233,25.233,0,0,0,15.143-4.8,21.366,21.366,0,0,0,4.948,3.4,15.374,15.374,0,0,0,6.8,1.4c.208,0,.416,0,.62-.008a37.205,37.205,0,0,0,12.227-2.531,41.33,41.33,0,0,0,5.409-2.492,11.9,11.9,0,0,0,2.962,2.315,12.3,12.3,0,0,0,6,1.476c.173,0,.346,0,.518-.009a20.381,20.381,0,0,0,4.964-.851,10.981,10.981,0,0,0,2.513-1.069,20.477,20.477,0,0,0,5.748,2.451,20.923,20.923,0,0,0,9.906.225,27.31,27.31,0,0,0,10.626-5.385,21.747,21.747,0,0,0,4.083,2.32,42.807,42.807,0,0,0,13.369,3.319,41.33,41.33,0,0,0,4.189.239c.769,0,1.517-.03,2.223-.089a7.941,7.941,0,0,0,6.254-3.858,8.5,8.5,0,0,0,2.257-3.193q.224.216.441.415a25.855,25.855,0,0,0,10.423,5.859,23.268,23.268,0,0,0,5.983.863,25.156,25.156,0,0,0,17.531-6.787,21.54,21.54,0,0,0,2.32-2.586,20.4,20.4,0,0,0,5.5-10.713A20.94,20.94,0,0,0,2041.052,3431.888Z" fill="none" stroke="#fff" stroke-miterlimit="10" stroke-width="3.95"/>
          <path id="Path_19736" data-name="Path 19736" d="M1971.669,3337.248h0a11.085,11.085,0,0,0-.892-1.023,18.157,18.157,0,0,0-13.253-5.556h-.165a15.165,15.165,0,0,0-4.818.783,18.69,18.69,0,0,0-3.783,1.823,29.745,29.745,0,0,0-5.49,4.441q-.759.764-1.493,1.589a17.435,17.435,0,0,0-5.6-.842,24.317,24.317,0,0,0-2.7.152,24.042,24.042,0,0,0-3.695.7c-.615.169-1.17.349-1.7.551-.419.161-.778.317-1.122.488a7.023,7.023,0,0,0-2.242,1.637c-.063-.192-.128-.385-.193-.578a24.981,24.981,0,0,0-4.475-8.339,14.846,14.846,0,0,0-10.615-5.114c-.431-.026-.877-.04-1.324-.04a36.984,36.984,0,0,0-8.262,1.145,68.954,68.954,0,0,0-8.411,2.338c-1.013.078-2.1.127-3.239.146q-.584.009-1.169.009c-2.195,0-4.536-.094-7.369-.3-1.79-.127-3.644-.316-5.437-.5-1.176-.12-2.391-.244-3.593-.352-.728-.066-1.461-.1-2.178-.1a19.472,19.472,0,0,0-9.9,2.515,17.978,17.978,0,0,0-5.475,4.99,19.555,19.555,0,0,0-4.023,6.367,23.314,23.314,0,0,0-1.429,5.779,16.747,16.747,0,0,0,.427,6.911,9.983,9.983,0,0,0,6.017,6.589,11.635,11.635,0,0,0,8.636-.453,15.914,15.914,0,0,0,2.987-1.688c.468-.334.872-.665,1.208-.941.181-.148.35-.29.523-.416l.153-.108a49.666,49.666,0,0,1-2.687,10.438c-.231.7-.461,1.389-.68,2.065l-.065.2a12.065,12.065,0,0,0-.749,4.86,10.57,10.57,0,0,0,2.434,5.875,17.9,17.9,0,0,0,6.7,4.789,42.832,42.832,0,0,0,13.37,3.32,41.589,41.589,0,0,0,4.189.238c.768,0,1.516-.03,2.222-.089a7.937,7.937,0,0,0,6.254-3.858,9.406,9.406,0,0,0,2.881-5.194c.494,1.083,1.009,2.2,1.609,3.332l.075.14c.725,1.378,2.424,4.6,6.312,5.44a10.63,10.63,0,0,0,2.264.229c.537,0,1.013-.032,1.4-.059.118-.008.237-.017.346-.022l2.3-.113a52.772,52.772,0,0,0,6.7-.612,13.956,13.956,0,0,0,3.1-.858,7.811,7.811,0,0,0,2.653-1.744l.26-.287a7.677,7.677,0,0,0,.778-1.118q.107-.087.213-.183a6.824,6.824,0,0,0,1.863.569,16.817,16.817,0,0,0,2.531.191l.252,0a16.106,16.106,0,0,0,5.865-1.1,7.534,7.534,0,0,0,1.6-.847q1.352.991,2.822,1.86a29.133,29.133,0,0,0,13.982,4.328h.267a12.028,12.028,0,0,0,8.614-3.047,10.292,10.292,0,0,0,1.542-1.867l.062-.059a12,12,0,0,0,3.283-10.333,13.6,13.6,0,0,0-3.264-7.519,28.33,28.33,0,0,0,3.352-5.457,35.488,35.488,0,0,0,3.231-11.381c.373-3.628.163-8.9-2.915-13.528A10.984,10.984,0,0,0,1971.669,3337.248Z" fill="none" stroke="#fff" stroke-miterlimit="10" stroke-width="3.95"/>
        </g>
        <g id="Group_8440" data-name="Group 8440">
          <path id="Path_19737" data-name="Path 19737" d="M2041.052,3431.888v0a19.163,19.163,0,0,0-1.187-1.8c-.232-.332-.47-.615-.7-.892-.2-.232-.415-.491-.68-.758a18.788,18.788,0,0,0-4.985-3.752l.043-.072a19.163,19.163,0,0,0,2.667-10.787,14.631,14.631,0,0,0-2.767-7.893,13.058,13.058,0,0,0-7.889-4.92,14.653,14.653,0,0,0-2.74-.3,16.086,16.086,0,0,0-11.571,4.958,19.644,19.644,0,0,0-1.471,1.692l-.258-.005q-.448-.007-.9,0c-.246-.235-.5-.458-.766-.667a8.421,8.421,0,0,0-1.017-.727,8,8,0,0,0-1.3-.688,12.446,12.446,0,0,0-6.554-.94,20.335,20.335,0,0,0-2.35.43c-.247.056-.48.111-.713.154a42.307,42.307,0,0,1-7.087.637c-.389.007-.78.009-1.169.009-2.195,0-4.537-.094-7.369-.295-1.79-.127-3.644-.317-5.438-.5-1.175-.12-2.391-.244-3.592-.352-.728-.066-1.461-.1-2.178-.1a19.485,19.485,0,0,0-9.9,2.514q-.253.148-.5.3a10.43,10.43,0,0,0-2.9-1.6,16.689,16.689,0,0,0-5.795-.967,25.65,25.65,0,0,0-4.737.472,21.233,21.233,0,0,0-8.355,3.27,9.971,9.971,0,0,0-2.634,2.766,11.347,11.347,0,0,0-2.56,3.687,16.384,16.384,0,0,0-2.98-1.416,10.514,10.514,0,0,0-10.743,1.808q-.165-.6-.369-1.169a10.174,10.174,0,0,0-3.4-4.843,12.62,12.62,0,0,0-7.884-2.327c-.188,0-.375,0-.557.008a23.885,23.885,0,0,0-8.364,1.822,13.543,13.543,0,0,0-1.563-2.72,13.058,13.058,0,0,0-7.889-4.92,14.66,14.66,0,0,0-2.74-.3,16.094,16.094,0,0,0-11.57,4.958,19.3,19.3,0,0,0-1.472,1.692l-.259-.005a28.546,28.546,0,0,0-4.579.285,22.472,22.472,0,0,0-2.807.59,18.478,18.478,0,0,0-11-3.557h-.165a15.177,15.177,0,0,0-4.818.782,18.738,18.738,0,0,0-3.784,1.823,26.565,26.565,0,0,0-2.962,2.128,16.091,16.091,0,0,0-9.327-6.56,17.147,17.147,0,0,0-9.491.562,21.816,21.816,0,0,0-8.793,5.4,21.521,21.521,0,0,0-1.929,2.267,24.943,24.943,0,0,0-6.064,12.174,8.942,8.942,0,0,0-2.128,2.358,10.167,10.167,0,0,0-2.882,4.824,18.422,18.422,0,0,0-.588,6.07,36.645,36.645,0,0,0,.67,5.352,57.426,57.426,0,0,0,2.828,9.718,41.3,41.3,0,0,0,2.215,4.849,16.356,16.356,0,0,0,4.245,5.4,7.865,7.865,0,0,0,5.928,1.729,8.034,8.034,0,0,0,4.893-2.6,12.564,12.564,0,0,0,6.56,4.366,10.939,10.939,0,0,0,2.735.341,14.576,14.576,0,0,0,4.958-.944,22.08,22.08,0,0,0,5.289-2.813l.21-.151a28.593,28.593,0,0,0,13.248,3.906l.267,0a12.023,12.023,0,0,0,8.614-3.048,10.294,10.294,0,0,0,1.542-1.866l.063-.059q.346-.331.66-.692a25.753,25.753,0,0,0,9.2,4.8,23.261,23.261,0,0,0,5.983.863,25.233,25.233,0,0,0,15.143-4.8,21.366,21.366,0,0,0,4.948,3.4,15.374,15.374,0,0,0,6.8,1.4c.208,0,.416,0,.62-.008a37.205,37.205,0,0,0,12.227-2.531,41.33,41.33,0,0,0,5.409-2.492,11.9,11.9,0,0,0,2.962,2.315,12.3,12.3,0,0,0,6,1.476c.173,0,.346,0,.518-.009a20.381,20.381,0,0,0,4.964-.851,10.981,10.981,0,0,0,2.513-1.069,20.477,20.477,0,0,0,5.748,2.451,20.923,20.923,0,0,0,9.906.225,27.31,27.31,0,0,0,10.626-5.385,21.747,21.747,0,0,0,4.083,2.32,42.807,42.807,0,0,0,13.369,3.319,41.33,41.33,0,0,0,4.189.239c.769,0,1.517-.03,2.223-.089a7.941,7.941,0,0,0,6.254-3.858,8.5,8.5,0,0,0,2.257-3.193q.224.216.441.415a25.855,25.855,0,0,0,10.423,5.859,23.268,23.268,0,0,0,5.983.863,25.156,25.156,0,0,0,17.531-6.787,21.54,21.54,0,0,0,2.32-2.586,20.4,20.4,0,0,0,5.5-10.713A20.94,20.94,0,0,0,2041.052,3431.888Z" fill="none" stroke="#000" stroke-miterlimit="10" stroke-width="2.962"/>
          <path id="Path_19738" data-name="Path 19738" d="M1971.669,3337.248h0a11.085,11.085,0,0,0-.892-1.023,18.157,18.157,0,0,0-13.253-5.556h-.165a15.165,15.165,0,0,0-4.818.783,18.69,18.69,0,0,0-3.783,1.823,29.745,29.745,0,0,0-5.49,4.441q-.759.764-1.493,1.589a17.435,17.435,0,0,0-5.6-.842,24.317,24.317,0,0,0-2.7.152,24.042,24.042,0,0,0-3.695.7c-.615.169-1.17.349-1.7.551-.419.161-.778.317-1.122.488a7.023,7.023,0,0,0-2.242,1.637c-.063-.192-.128-.385-.193-.578a24.981,24.981,0,0,0-4.475-8.339,14.846,14.846,0,0,0-10.615-5.114c-.431-.026-.877-.04-1.324-.04a36.984,36.984,0,0,0-8.262,1.145,68.954,68.954,0,0,0-8.411,2.338c-1.013.078-2.1.127-3.239.146q-.584.009-1.169.009c-2.195,0-4.536-.094-7.369-.3-1.79-.127-3.644-.316-5.437-.5-1.176-.12-2.391-.244-3.593-.352-.728-.066-1.461-.1-2.178-.1a19.472,19.472,0,0,0-9.9,2.515,17.978,17.978,0,0,0-5.475,4.99,19.555,19.555,0,0,0-4.023,6.367,23.314,23.314,0,0,0-1.429,5.779,16.747,16.747,0,0,0,.427,6.911,9.983,9.983,0,0,0,6.017,6.589,11.635,11.635,0,0,0,8.636-.453,15.914,15.914,0,0,0,2.987-1.688c.468-.334.872-.665,1.208-.941.181-.148.35-.29.523-.416l.153-.108a49.666,49.666,0,0,1-2.687,10.438c-.231.7-.461,1.389-.68,2.065l-.065.2a12.065,12.065,0,0,0-.749,4.86,10.57,10.57,0,0,0,2.434,5.875,17.9,17.9,0,0,0,6.7,4.789,42.832,42.832,0,0,0,13.37,3.32,41.589,41.589,0,0,0,4.189.238c.768,0,1.516-.03,2.222-.089a7.937,7.937,0,0,0,6.254-3.858,9.406,9.406,0,0,0,2.881-5.194c.494,1.083,1.009,2.2,1.609,3.332l.075.14c.725,1.378,2.424,4.6,6.312,5.44a10.63,10.63,0,0,0,2.264.229c.537,0,1.013-.032,1.4-.059.118-.008.237-.017.346-.022l2.3-.113a52.772,52.772,0,0,0,6.7-.612,13.956,13.956,0,0,0,3.1-.858,7.811,7.811,0,0,0,2.653-1.744l.26-.287a7.677,7.677,0,0,0,.778-1.118q.107-.087.213-.183a6.824,6.824,0,0,0,1.863.569,16.817,16.817,0,0,0,2.531.191l.252,0a16.106,16.106,0,0,0,5.865-1.1,7.534,7.534,0,0,0,1.6-.847q1.352.991,2.822,1.86a29.133,29.133,0,0,0,13.982,4.328h.267a12.028,12.028,0,0,0,8.614-3.047,10.292,10.292,0,0,0,1.542-1.867l.062-.059a12,12,0,0,0,3.283-10.333,13.6,13.6,0,0,0-3.264-7.519,28.33,28.33,0,0,0,3.352-5.457,35.488,35.488,0,0,0,3.231-11.381c.373-3.628.163-8.9-2.915-13.528A10.984,10.984,0,0,0,1971.669,3337.248Z" fill="none" stroke="#000" stroke-miterlimit="10" stroke-width="2.962"/>
        </g>
      </g>
    </g>
    <g id="Group_8481" data-name="Group 8481" transform="translate(-1742.222)">
      <g id="Group_8446" data-name="Group 8446">
        <path id="Path_19739" data-name="Path 19739" d="M1944.951,3446.728a35.469,35.469,0,0,0-2.04-8.034l-.021-.056q-.049-.135-.108-.291h0v0h0l-.521-1.384a4.015,4.015,0,0,0-.255-.58,53.666,53.666,0,0,0-3.452-6.93,35,35,0,0,0-6.637-8.367,15.16,15.16,0,0,0-4.848-3.077,7.093,7.093,0,0,0-2.355-.43,5.114,5.114,0,0,0-2.21.48,6.045,6.045,0,0,0-2.746,2.635c-2.873,2.27-2.879,6.671-2.881,8.91,0,1.682.1,3.371.194,5,.117,2,.239,4.065.167,6.072a14.022,14.022,0,0,1-1.462,6.413,4.944,4.944,0,0,1-1.559.847,3.336,3.336,0,0,1-1.01.16,2.443,2.443,0,0,1-1.987-.923,5.584,5.584,0,0,1-.658-4.066c.22-1.869.551-3.709.846-5.262.193-1.019.4-2.056.6-3.059.54-2.675,1.1-5.441,1.428-8.232a40.588,40.588,0,0,0,.327-5.821,16.15,16.15,0,0,0-.819-5.088,5.284,5.284,0,0,0-1.725-2.557,7.932,7.932,0,0,0-4.912-1.332q-.219,0-.435.006a20.538,20.538,0,0,0-10.632,3.588,18.986,18.986,0,0,0-4.954,4.7,14.711,14.711,0,0,0-3.46,5.505,17.331,17.331,0,0,0-.618,7.554,34.417,34.417,0,0,0,3.187,10.6,46.5,46.5,0,0,0,5.6,9.052,34.995,34.995,0,0,0,3.671,4,17.44,17.44,0,0,0,4.242,3.036,10.592,10.592,0,0,0,4.659.914q.246,0,.492-.006a34.918,34.918,0,0,0,18.681-6.553c.195-.148.386-.3.575-.454a12.934,12.934,0,0,0,1.287,2.506,7.055,7.055,0,0,0,6.187,3.267c.113,0,.227,0,.34-.006a15.568,15.568,0,0,0,3.78-.662,5.734,5.734,0,0,0,3.275-2.4c.111-.169.211-.344.305-.52a5.717,5.717,0,0,0,1.3-1.405C1945.37,3452.066,1945.209,3448.9,1944.951,3446.728Z"/>
        <g id="Group_8445" data-name="Group 8445" clip-path="url(#clip-path)">
          <g id="Group_8444" data-name="Group 8444">
            <g id="Group_8443" data-name="Group 8443">
              <path id="Path_19740" data-name="Path 19740" d="M1940.911,3437.021l.5,1.333c.057.147.114.295.169.444C1941.084,3437.478,1940.912,3437.021,1940.911,3437.021Z" fill="url(#linear-gradient)"/>
              <path id="Path_19741" data-name="Path 19741" d="M1941.781,3439.334s-.057-.153-.2-.536c.043.112.084.225.126.338S1941.78,3439.334,1941.781,3439.334Z" fill="url(#linear-gradient-2)"/>
              <path id="Path_19742" data-name="Path 19742" d="M1931.277,3453.559a5.78,5.78,0,0,0,5.125,2.7c.1,0,.2,0,.294,0a14.491,14.491,0,0,0,3.472-.613,4.467,4.467,0,0,0,2.554-1.867c1.285-1.972,1.221-4.655.954-6.9a34.321,34.321,0,0,0-1.97-7.743l-.3-.782a53.457,53.457,0,0,0-3.959-8.244,34.107,34.107,0,0,0-6.388-8.066,13.729,13.729,0,0,0-4.423-2.826,5.843,5.843,0,0,0-1.927-.356,3.852,3.852,0,0,0-1.66.355c-3.092,1.469-3.286,5.487-3.289,8.461,0,3.711.493,7.408.361,11.121-.1,2.882-.576,5.885-2.432,8.189a6.637,6.637,0,0,1-3.089,2.175,4.631,4.631,0,0,1-1.4.219,3.686,3.686,0,0,1-3.011-1.434,6.918,6.918,0,0,1-.909-4.988c.211-1.793.523-3.578.86-5.351.708-3.732,1.574-7.424,2.019-11.2a39.823,39.823,0,0,0,.319-5.639,15.061,15.061,0,0,0-.745-4.689,4.118,4.118,0,0,0-1.289-1.963,6.865,6.865,0,0,0-4.139-1.073c-.136,0-.27,0-.4.005a19.347,19.347,0,0,0-9.952,3.374,15.464,15.464,0,0,0-6.3,7.614,16.221,16.221,0,0,0-.561,7,33.115,33.115,0,0,0,3.073,10.2,45.22,45.22,0,0,0,5.45,8.8,33.606,33.606,0,0,0,3.534,3.854,16.441,16.441,0,0,0,3.929,2.822,9.441,9.441,0,0,0,4.1.787c.154,0,.306,0,.459-.006a33.631,33.631,0,0,0,17.941-6.294c.3-.23.6-.468.884-.719a3.124,3.124,0,0,0,.4-.347c.11-.138.111-.126.08-.335a10.366,10.366,0,0,1-.089-1.863C1929.663,3449.818,1930.112,3451.842,1931.277,3453.559Z" fill="url(#linear-gradient-3)"/>
            </g>
            <path id="Path_19743" data-name="Path 19743" d="M1936.072,3454.407c3.534-.812,6.014-1.9,6.131-5.888a16.346,16.346,0,0,0-.247-3.338l.124-.032a14.687,14.687,0,0,1,.764,3.356c.282,2.338-.738,5.313-3.209,6.1a5.256,5.256,0,0,1-3.579-.073l.016-.128Z" fill="#fff"/>
            <path id="Path_19744" data-name="Path 19744" d="M1902.56,3415.547c3.012-2.48,7.09-1.913,8.1,2.216a10.267,10.267,0,0,1,.045,4.4c-.24-1.145-.431-2.265-.744-3.324-1.1-4.059-3.688-4.441-7.4-3.288Z" fill="#fff"/>
            <path id="Path_19745" data-name="Path 19745" d="M1924.88,3420.379a3.064,3.064,0,0,1,2.767.157,8.827,8.827,0,0,1,2.143,1.771,6.7,6.7,0,0,1,.951,1.533l-.108.069a8.078,8.078,0,0,0-2.718-1.952,8.793,8.793,0,0,1-3.044-1.45l.009-.128Z" fill="#fff"/>
          </g>
        </g>
      </g>
      <g id="Group_8450" data-name="Group 8450">
        <path id="Path_19747" data-name="Path 19747" d="M1899.171,3434.366a13.948,13.948,0,0,0-.936-1.409,6.324,6.324,0,0,0-.458-.578c-.173-.206-.314-.372-.448-.5a16.229,16.229,0,0,0-9.826-4.724,14.42,14.42,0,0,0,1.885-2.148,14.245,14.245,0,0,0,4.279-10.881,9.723,9.723,0,0,0-1.8-5.245,8.133,8.133,0,0,0-4.927-3.032,9.623,9.623,0,0,0-1.814-.2,11.114,11.114,0,0,0-7.973,3.479,14.806,14.806,0,0,0-1.421,1.7c-.07.068-.142.135-.211.205a14.691,14.691,0,0,0-1.207,1.408c-.856-.082-1.694-.131-2.489-.143a23.84,23.84,0,0,0-3.79.234,12.729,12.729,0,0,0-6.781,2.841,9.144,9.144,0,0,0-1.571,1.85c-.02.018-.042.033-.062.051a10.8,10.8,0,0,0-3.287,6.559,11.453,11.453,0,0,0,1.4,7.412,12.16,12.16,0,0,0,5.375,4.7c.478.227.986.44,1.509.632l.07.033a3.341,3.341,0,0,0,.472.19l-.047.071-.129.117a9.416,9.416,0,0,0-2.706,4.44,10.878,10.878,0,0,0,.086,5.565,17.73,17.73,0,0,0,5.252,8.3,20.919,20.919,0,0,0,8.422,4.741,18.355,18.355,0,0,0,4.715.678,20.157,20.157,0,0,0,14.062-5.435,16.572,16.572,0,0,0,1.961-2.225,15.42,15.42,0,0,0,4.384-8.292A15.924,15.924,0,0,0,1899.171,3434.366Z"/>
        <g id="Group_8449" data-name="Group 8449" clip-path="url(#clip-path-2)">
          <g id="Group_8448" data-name="Group 8448">
            <g id="Group_8447" data-name="Group 8447">
              <path id="Path_19748" data-name="Path 19748" d="M1896.446,3432.541s.091.108.346.4.351.4.352.4Z" fill="url(#linear-gradient-4)"/>
              <path id="Path_19749" data-name="Path 19749" d="M1898.087,3434.726a12.449,12.449,0,0,0-1.3-1.783c-3.16-3.656-7.991-4.846-12.767-4.846a34.57,34.57,0,0,0-6.15.586c-1.741.318-3.441.82-5.189,1.1a13.33,13.33,0,0,1-2.13.209c-.112,0-.225,0-.337-.007a2.637,2.637,0,0,1-2.1-.846,2.092,2.092,0,0,1,.014-2.15,3.163,3.163,0,0,1,1.451-1.606,1.9,1.9,0,0,1,.774-.167c1.189,0,2.221,1.144,2.967,1.983.123.138.246.276.372.411.058.062.17.228.248.253a.14.14,0,0,0,.038,0,3.019,3.019,0,0,0,.516-.138c.226-.056.452-.114.677-.173.841-.22,1.684-.422,2.537-.589a36.129,36.129,0,0,1,5.087-.638c.425-.022.851-.036,1.277-.04h.021c.208,0,.481.033.739.033a1.18,1.18,0,0,0,.57-.109,13.9,13.9,0,0,0,1.767-1.2,13.294,13.294,0,0,0,3.222-3.739,12.88,12.88,0,0,0,1.707-7.27,8.51,8.51,0,0,0-1.616-4.534,6.861,6.861,0,0,0-4.194-2.48,8.383,8.383,0,0,0-1.576-.149,9.776,9.776,0,0,0-6.991,3.2,17.587,17.587,0,0,0-4.225,8.879c-.11.572-.2,1.146-.275,1.723a18.969,18.969,0,0,1,.782-6.851c-.827-.069-1.66-.108-2.492-.108a22.319,22.319,0,0,0-3.581.273,11.552,11.552,0,0,0-6.074,2.617,9.519,9.519,0,0,0-2.787,5.827,10.181,10.181,0,0,0,1.337,6.56,10.911,10.911,0,0,0,4.881,4.121c.466.213.939.4,1.422.571a2.369,2.369,0,0,0,.588.211l.033,0c.086-.013.223-.152.3-.2.132-.086.265-.17.4-.25a10.276,10.276,0,0,1,3.134-1.178,12.351,12.351,0,0,1,2.478-.245,16.614,16.614,0,0,1,9.822,3.51c3.025,2.315,5.971,6.431,4.063,10.355a6.075,6.075,0,0,1-.5.835,8.3,8.3,0,0,0,.066-3.71,9.913,9.913,0,0,0-2.248-4.2,15.187,15.187,0,0,0-8.359-4.727,12.785,12.785,0,0,0-2.506-.254,9.144,9.144,0,0,0-6.449,2.388,8.156,8.156,0,0,0-2.284,3.868,9.583,9.583,0,0,0,.16,4.9,16.389,16.389,0,0,0,4.993,7.612,19.645,19.645,0,0,0,7.966,4.333,17.06,17.06,0,0,0,4.394.565,19.01,19.01,0,0,0,13.084-5.276,14.141,14.141,0,0,0,4.212-7.956A14.659,14.659,0,0,0,1898.087,3434.726Z" fill="url(#linear-gradient-5)"/>
            </g>
            <path id="Path_19750" data-name="Path 19750" d="M1880.25,3409.426c3.574-2.452,9.195-2.34,10.439,2.572a8.82,8.82,0,0,1,.066,4.04,18.386,18.386,0,0,0-1.021-3.714c-1.575-4.058-5.905-3.631-9.484-2.9Z" fill="#fff"/>
            <path id="Path_19751" data-name="Path 19751" d="M1877.348,3435.991a3.064,3.064,0,0,1,2.767.158,8.769,8.769,0,0,1,2.143,1.771,6.67,6.67,0,0,1,.952,1.533l-.109.069a8.057,8.057,0,0,0-2.718-1.952,8.778,8.778,0,0,1-3.043-1.451l.008-.128Z" fill="#fff"/>
            <path id="Path_19752" data-name="Path 19752" d="M1887.618,3430.264c8.848-.875,13.742,9.759,10.274,17.073a11.013,11.013,0,0,1-5.425,5.461,12.852,12.852,0,0,0,4.5-5.846c2.62-7.01-1.352-16.056-9.35-16.688Z" fill="#fff"/>
          </g>
        </g>
      </g>
      <g id="Group_8454" data-name="Group 8454">
        <path id="Path_19754" data-name="Path 19754" d="M2036.782,3434.366a13.785,13.785,0,0,0-.936-1.409,6.452,6.452,0,0,0-.457-.578c-.174-.206-.314-.372-.449-.5a16.226,16.226,0,0,0-9.826-4.724A14.365,14.365,0,0,0,2027,3425a14.24,14.24,0,0,0,4.28-10.881,9.725,9.725,0,0,0-1.8-5.245,8.13,8.13,0,0,0-4.926-3.032,9.643,9.643,0,0,0-1.814-.2,11.11,11.11,0,0,0-7.973,3.479,14.814,14.814,0,0,0-1.422,1.7c-.07.068-.142.135-.211.205a14.69,14.69,0,0,0-1.207,1.408c-.856-.082-1.693-.131-2.488-.143a23.843,23.843,0,0,0-3.79.234,12.733,12.733,0,0,0-6.782,2.841,9.167,9.167,0,0,0-1.57,1.85c-.02.018-.043.033-.063.051a10.8,10.8,0,0,0-3.286,6.559,11.452,11.452,0,0,0,1.4,7.412,12.158,12.158,0,0,0,5.376,4.7c.478.227.985.44,1.509.632l.07.033a3.273,3.273,0,0,0,.471.19l-.046.071c-.044.039-.087.077-.13.117a9.417,9.417,0,0,0-2.706,4.44,10.879,10.879,0,0,0,.086,5.565,17.739,17.739,0,0,0,5.252,8.3,20.919,20.919,0,0,0,8.422,4.741,18.362,18.362,0,0,0,4.715.678,20.156,20.156,0,0,0,14.062-5.435,16.519,16.519,0,0,0,1.962-2.225,15.426,15.426,0,0,0,4.383-8.292A15.918,15.918,0,0,0,2036.782,3434.366Z"/>
        <g id="Group_8453" data-name="Group 8453" clip-path="url(#clip-path-3)">
          <g id="Group_8452" data-name="Group 8452">
            <g id="Group_8451" data-name="Group 8451">
              <path id="Path_19755" data-name="Path 19755" d="M2034.057,3432.541s.092.108.346.4.351.4.352.4Z" fill="url(#linear-gradient-6)"/>
              <path id="Path_19756" data-name="Path 19756" d="M2035.7,3434.726a12.3,12.3,0,0,0-1.3-1.783c-3.16-3.656-7.991-4.846-12.767-4.846a34.59,34.59,0,0,0-6.15.586c-1.74.318-3.441.82-5.188,1.1a13.34,13.34,0,0,1-2.13.209c-.113,0-.225,0-.338-.007a2.635,2.635,0,0,1-2.1-.846,2.092,2.092,0,0,1,.013-2.15,3.172,3.172,0,0,1,1.451-1.606,1.908,1.908,0,0,1,.774-.167c1.19,0,2.221,1.144,2.967,1.983.123.138.246.276.373.411.058.062.169.228.247.253a.154.154,0,0,0,.039,0,3.025,3.025,0,0,0,.516-.138c.226-.056.452-.114.677-.173.84-.22,1.684-.422,2.536-.589a36.127,36.127,0,0,1,5.087-.638c.426-.022.851-.036,1.277-.04h.021c.209,0,.481.033.739.033a1.184,1.184,0,0,0,.571-.109,13.955,13.955,0,0,0,1.766-1.2,13.277,13.277,0,0,0,3.222-3.739,12.881,12.881,0,0,0,1.707-7.27,8.512,8.512,0,0,0-1.616-4.534,6.858,6.858,0,0,0-4.194-2.48,8.37,8.37,0,0,0-1.575-.149,9.772,9.772,0,0,0-6.991,3.2,17.6,17.6,0,0,0-4.226,8.879c-.11.572-.195,1.146-.274,1.723a19,19,0,0,1,.781-6.851c-.827-.069-1.659-.108-2.491-.108a22.341,22.341,0,0,0-3.582.273,11.553,11.553,0,0,0-6.074,2.617,9.523,9.523,0,0,0-2.786,5.827,10.168,10.168,0,0,0,1.337,6.56,10.91,10.91,0,0,0,4.881,4.121c.465.213.939.4,1.422.571a2.357,2.357,0,0,0,.588.211l.033,0c.085-.013.222-.152.3-.2.131-.086.264-.17.4-.25a10.3,10.3,0,0,1,3.134-1.178,12.352,12.352,0,0,1,2.478-.245,16.62,16.62,0,0,1,9.823,3.51c3.024,2.315,5.971,6.431,4.063,10.355a6.291,6.291,0,0,1-.5.835,8.329,8.329,0,0,0,.066-3.71,9.914,9.914,0,0,0-2.249-4.2,15.185,15.185,0,0,0-8.358-4.727,12.8,12.8,0,0,0-2.507-.254,9.146,9.146,0,0,0-6.449,2.388,8.156,8.156,0,0,0-2.284,3.868,9.574,9.574,0,0,0,.161,4.9,16.386,16.386,0,0,0,4.992,7.612,19.645,19.645,0,0,0,7.966,4.333,17.066,17.066,0,0,0,4.394.565,19.008,19.008,0,0,0,13.084-5.276,14.136,14.136,0,0,0,4.212-7.956A14.658,14.658,0,0,0,2035.7,3434.726Z" fill="url(#linear-gradient-5)"/>
            </g>
            <path id="Path_19757" data-name="Path 19757" d="M2017.861,3409.426c3.575-2.452,9.2-2.34,10.439,2.572a8.836,8.836,0,0,1,.067,4.04,18.379,18.379,0,0,0-1.022-3.714c-1.574-4.058-5.9-3.631-9.484-2.9Z" fill="#fff"/>
            <path id="Path_19758" data-name="Path 19758" d="M2014.96,3435.991a3.064,3.064,0,0,1,2.767.158,8.784,8.784,0,0,1,2.143,1.771,6.671,6.671,0,0,1,.951,1.533l-.108.069a8.057,8.057,0,0,0-2.718-1.952,8.761,8.761,0,0,1-3.043-1.451l.008-.128Z" fill="#fff"/>
            <path id="Path_19759" data-name="Path 19759" d="M2025.229,3430.264c8.848-.875,13.743,9.759,10.275,17.073a11.019,11.019,0,0,1-5.426,5.461,12.844,12.844,0,0,0,4.5-5.846c2.62-7.01-1.352-16.056-9.35-16.688Z" fill="#fff"/>
          </g>
        </g>
      </g>
      <g id="Group_8458" data-name="Group 8458">
        <path id="Path_19761" data-name="Path 19761" d="M1968.357,3341.072a5.665,5.665,0,0,0-.544-.741,6.063,6.063,0,0,0-.557-.643,13.248,13.248,0,0,0-9.706-4.082h-.14a10.307,10.307,0,0,0-3.273.517,13.884,13.884,0,0,0-2.789,1.355,24.85,24.85,0,0,0-4.579,3.719,34.777,34.777,0,0,0-2.854,3.259,36.841,36.841,0,0,0-5.234,7.618,28.633,28.633,0,0,0-3.5,11.5,18.834,18.834,0,0,0,3.185,11.579,26.211,26.211,0,0,0,8.537,7.908,24.237,24.237,0,0,0,11.547,3.642l.192,0a7.217,7.217,0,0,0,5.209-1.686,5.517,5.517,0,0,0,1.11-1.512,5.114,5.114,0,0,0,.494-.413,7.15,7.15,0,0,0,1.788-6.155c-.143-1.161-.706-4.022-2.835-5.5a3.336,3.336,0,0,0-1.9-.635h-.063a4.509,4.509,0,0,0-1.443.327c-.135.048-.261.094-.37.125-.465.135-.95.246-1.449.338a16.432,16.432,0,0,0,1.671-1.245,18.988,18.988,0,0,0,2.994-3.251,22.317,22.317,0,0,0,3.92-5.847,30.474,30.474,0,0,0,2.783-9.776C1970.848,3348.562,1970.682,3344.482,1968.357,3341.072Zm-21.453,23.276c-.009-.093-.017-.187-.023-.283a7.919,7.919,0,0,1,.5-3.243,7.74,7.74,0,0,1,.531-1.136,3.414,3.414,0,0,1,2.014-.9c.051,0,.1,0,.155.006a1.438,1.438,0,0,1,1.206,1.646h0v.008h0a3.666,3.666,0,0,1-.574,1.659A10.5,10.5,0,0,1,1946.9,3364.348Z"/>
        <g id="Group_8457" data-name="Group 8457" clip-path="url(#clip-path-4)">
          <g id="Group_8456" data-name="Group 8456">
            <g id="Group_8455" data-name="Group 8455">
              <path id="Path_19762" data-name="Path 19762" d="M1966.428,3340.656s.1.128.378.478.384.477.385.477Z" fill="url(#linear-gradient-8)"/>
              <path id="Path_19763" data-name="Path 19763" d="M1966.806,3341.134a11.851,11.851,0,0,0-9.256-4.245h-.127a9.1,9.1,0,0,0-2.871.449,12.7,12.7,0,0,0-2.53,1.232,23.808,23.808,0,0,0-4.343,3.532,35.248,35.248,0,0,0-6.254,8.638,27.618,27.618,0,0,0-3.36,10.986,17.587,17.587,0,0,0,2.973,10.794,24.833,24.833,0,0,0,8.12,7.512,22.682,22.682,0,0,0,10.91,3.465h.177a6.165,6.165,0,0,0,4.323-1.332,5.94,5.94,0,0,0,1.4-5.067,6.661,6.661,0,0,0-2.294-4.608,2.078,2.078,0,0,0-1.167-.405h-.035a6.081,6.081,0,0,0-1.485.4,17.2,17.2,0,0,1-2.81.556,20.669,20.669,0,0,1-2.361.137,19.1,19.1,0,0,1-3.2-.266,12.322,12.322,0,0,1-4.337-1.449,5.693,5.693,0,0,1-1.489-1.276c.536.178,1.052.423,1.581.624a5.953,5.953,0,0,0,1.6.289q.688.06,1.381.06a16.517,16.517,0,0,0,2.424-.18,15.649,15.649,0,0,0,7.851-3.537,19.972,19.972,0,0,0,4.981-6.745,29.158,29.158,0,0,0,2.667-9.358C1969.637,3347.794,1969.1,3343.99,1966.806,3341.134Zm-12.646,17.619s0-.043.009-.162a6.547,6.547,0,0,1-2.018,3.888,11.757,11.757,0,0,1-4.86,3.094,7,7,0,0,1-2.172.449,3.349,3.349,0,0,1-.5-.037,6.8,6.8,0,0,0,1.066-.434c.146-.092.112-.052.075-.229-.028-.129-.053-.259-.074-.39-.041-.26-.069-.523-.086-.786a9.209,9.209,0,0,1,.575-3.773,8.523,8.523,0,0,1,2.212-3.335,4.9,4.9,0,0,1,3.14-1.464q.135,0,.27.012a2.7,2.7,0,0,1,2.372,3.005l.011-.159Z" fill="url(#linear-gradient-9)"/>
            </g>
            <path id="Path_19764" data-name="Path 19764" d="M1957.9,3338.929a7.231,7.231,0,0,1,9.291,7.96,19.346,19.346,0,0,0-1.286-3.12c-1.552-3.029-4.755-4.373-8.005-4.84Z" fill="#fff"/>
            <path id="Path_19765" data-name="Path 19765" d="M1957.378,3374.615c.7-.2,1.309-.361,1.907-.576a9.358,9.358,0,0,1,3.008-.809,2.569,2.569,0,0,1,2.359,2.262c-.951-.676-1.648-1.294-2.731-.973-.11.02-.328.076-.435.11a5.476,5.476,0,0,1-4.108-.014Z" fill="#fff"/>
          </g>
        </g>
      </g>
      <g id="Group_8460" data-name="Group 8460">
        <path id="Path_19767" data-name="Path 19767" d="M1944.512,3349.751c-.056-.488-.125-.921-.212-1.323l-.008-.054a2.048,2.048,0,0,0-.1-.392c-.007-.028-.017-.061-.029-.1l-.021-.078c-.8-2.838-3.631-4.405-7.973-4.405a19.751,19.751,0,0,0-5.081.677c-.459.126-.864.257-1.237.4a7.773,7.773,0,0,0-.732.32l-.025.011a1.762,1.762,0,0,0-.923.817,1.635,1.635,0,0,0-.132.86c-.2.079-.365.156-.524.237l-.025.012a1.753,1.753,0,0,0-.923.816,1.811,1.811,0,0,0-.111,1.055l0,.031.01.3.012.341c.007.239.017.477.026.716.108,2.6.231,5.182.337,7.36l.112,2.3.036.737-.1.006c-.16.011-.322.027-.484.043-.249.025-.485.048-.7.048a2.169,2.169,0,0,1-.221-.01.729.729,0,0,1-.539-.277,1.71,1.71,0,0,1-.083-.229c-.024-.077-.049-.155-.077-.234-.064-.18-.157-.465-.212-.664-.4-1.445-.807-2.872-1.121-3.954-.541-1.865-1.1-3.757-1.637-5.587l-.5-1.684-.255-.873c-.38-1.3-.773-2.65-1.222-3.97a20.312,20.312,0,0,0-3.539-6.7,10.016,10.016,0,0,0-7.177-3.411c-.333-.02-.678-.031-1.024-.031a32.793,32.793,0,0,0-7.172,1.023,64.132,64.132,0,0,0-7.88,2.187,17.66,17.66,0,0,0-3.674,1.747,5.687,5.687,0,0,0-2.155,2.312,4.379,4.379,0,0,0-1.913,3.27,7.084,7.084,0,0,0,1.681,4.162l.017.024c.37.533.753,1.046,1.083,1.485,2.068,2.754,4.449,5.971,6.54,9.3a138.041,138.041,0,0,1,7.56,14.018c1.206,2.515,2.4,5.134,3.454,7.444l.147.322c.506,1.111,1.03,2.261,1.62,3.374l.077.146c.537,1.02,1.349,2.562,2.985,2.914a5.743,5.743,0,0,0,1.223.119c.366,0,.717-.024,1.056-.048.144-.01.288-.02.43-.027.33-.018.659-.034.989-.05l.465-.022c.291-.015.583-.028.875-.042a48.053,48.053,0,0,0,6.088-.544,9.29,9.29,0,0,0,2.028-.543,3.022,3.022,0,0,0,1.043-.648,2.01,2.01,0,0,0,.445-.8c.024-.152.041-.305.053-.457.021-.009.042-.015.063-.024a3.049,3.049,0,0,0,1.044-.647,2.026,2.026,0,0,0,.445-.8,11.114,11.114,0,0,0-.046-2.92c-.022-.2-.043-.4-.061-.6l-.053-.582c-.094-1.024-.192-2.082-.254-3.116a27.369,27.369,0,0,1-.026-3.682,9.563,9.563,0,0,1,.242-1.616,1.516,1.516,0,0,1,.27-.027,1.467,1.467,0,0,1,1.223.647,7.616,7.616,0,0,1,.979,2.888c.183.968.324,1.974.461,2.948q.062.435.124.87l.054.374a14.811,14.811,0,0,0,.82,3.57l.015.038a2.122,2.122,0,0,0,1.594,1.481,11.71,11.71,0,0,0,1.782.134l.181,0a11.193,11.193,0,0,0,4.092-.747l.048-.019a1.868,1.868,0,0,0,1.021-.8,1.753,1.753,0,0,0,.2-.579l0-.015c.035-.141.068-.284.1-.426.078-.029.157-.057.233-.088l.048-.019a1.867,1.867,0,0,0,1.021-.8,1.768,1.768,0,0,0,.2-.58l0-.015c.063-.255.125-.513.185-.771.836-3.611,1.569-7.514,2.24-11.932.464-3.052.776-5.564.983-7.9A40.071,40.071,0,0,0,1944.512,3349.751Z"/>
        <g id="Group_8459" data-name="Group 8459">
          <path id="Path_19768" data-name="Path 19768" d="M1929.958,3359.966h0c0-.018,0-.036-.006-.054Z" fill="url(#linear-gradient-10)"/>
          <path id="Path_19769" data-name="Path 19769" d="M1943.131,3357.664a38.561,38.561,0,0,0,.106-7.767,10.684,10.684,0,0,0-.328-1.738c-.784-2.789-3.983-3.475-6.738-3.475a18.105,18.105,0,0,0-2.005.114,17.775,17.775,0,0,0-2.736.517c-.378.1-.752.221-1.117.361a6.151,6.151,0,0,0-.612.266c-.092.046-.323.138-.368.232a1.431,1.431,0,0,0,.015.461c.008.225.015.45.023.675s.017.47.026.7q.153,3.677.337,7.351.112,2.3.224,4.6c.084,1.028-1.106,1.495-1.935,1.622-.344.053-.692.066-1.039.09-.42.029-.845.094-1.268.094a3.19,3.19,0,0,1-.355-.018,1.976,1.976,0,0,1-1.48-.851,3.2,3.2,0,0,1-.295-.736c-.066-.186-.173-.508-.24-.754-.36-1.315-.736-2.626-1.116-3.936-.7-2.424-1.419-4.844-2.131-7.266-.471-1.6-.924-3.211-1.461-4.792a18.77,18.77,0,0,0-3.3-6.278,8.743,8.743,0,0,0-6.282-2.969q-.473-.028-.947-.028a31.5,31.5,0,0,0-6.888.991,64.08,64.08,0,0,0-7.726,2.141,16.266,16.266,0,0,0-3.406,1.613,3.515,3.515,0,0,0-1.887,2.624,6.111,6.111,0,0,0,1.47,3.414c.341.491.7.97,1.055,1.447,2.3,3.063,4.562,6.144,6.6,9.39a141.663,141.663,0,0,1,7.631,14.146c1.186,2.474,2.326,4.969,3.465,7.466.556,1.218,1.1,2.444,1.733,3.628.483.911,1.089,2.168,2.2,2.406a4.518,4.518,0,0,0,.953.09c.475,0,.954-.049,1.419-.074.486-.025.972-.048,1.458-.072a55.133,55.133,0,0,0,6.8-.568,8,8,0,0,0,1.75-.461,1.892,1.892,0,0,0,.625-.363c.023-.023.077-.113.092-.113s0,0,0,.013a13.308,13.308,0,0,0-.117-3.2c-.113-1.245-.235-2.489-.311-3.737a28.365,28.365,0,0,1-.024-3.857,7.185,7.185,0,0,1,.939-3.409,2.947,2.947,0,0,1,2.458-1.346,2.745,2.745,0,0,1,2.272,1.193,8.629,8.629,0,0,1,1.191,3.388c.242,1.283.407,2.58.594,3.872a15.463,15.463,0,0,0,.791,3.64c.127.309.265.684.617.738a10.39,10.39,0,0,0,1.586.119l.163,0a10.053,10.053,0,0,0,3.622-.65c.149-.062.362-.125.441-.263a1.079,1.079,0,0,0,.067-.257q.1-.381.184-.766c.906-3.909,1.62-7.869,2.222-11.835C1942.552,3362.891,1942.9,3360.281,1943.131,3357.664Z" fill="url(#linear-gradient-11)"/>
          <path id="Path_19770" data-name="Path 19770" d="M1942.9,3348.125l.009.034.111.386Z" fill="url(#linear-gradient-12)"/>
        </g>
        <path id="Path_19771" data-name="Path 19771" d="M1905.6,3335.793c4.4-1.826,10.053.679,10.194,5.8a14,14,0,0,0-1.781-2.619c-2.128-2.383-5.333-2.957-8.413-3.185Z" fill="#fff"/>
        <path id="Path_19772" data-name="Path 19772" d="M1936.952,3346.182a3.417,3.417,0,0,1,4.56,1.044,5.369,5.369,0,0,1,.5,4.73c-.264-.759-.452-1.484-.686-2.165a4.528,4.528,0,0,0-4.372-3.609Z" fill="#fff"/>
        <path id="Path_19773" data-name="Path 19773" d="M1919.738,3382.119c1.216-.565,2.487-.715,3.617-1.308.1-.069.1-.07.147-.149a5.221,5.221,0,0,0,.027-1.946,13.68,13.68,0,0,1-.068-2.371c.695,1.4,2.306,4.34.6,5.537a5.549,5.549,0,0,1-4.324.237Z" fill="#fff"/>
        <path id="Path_19774" data-name="Path 19774" d="M1934.928,3378.023c.88-.509,1.756-.68,2.611-1.085a.669.669,0,0,0,.167-.126c.6-.655.7-1.928,1.133-2.82.544,1.305.731,3.266-.707,4.079a3.972,3.972,0,0,1-3.2-.048Z" fill="#fff"/>
      </g>
      <g id="Group_8464" data-name="Group 8464">
        <path id="Path_19775" data-name="Path 19775" d="M2006.221,3412.17a6.522,6.522,0,0,0-1.514-1.67,3.275,3.275,0,0,0-.49-.349,2.891,2.891,0,0,0-.6-.325,6.971,6.971,0,0,0-3.052-.644,9.457,9.457,0,0,0-1.039.059,15.941,15.941,0,0,0-1.789.334c-.315.072-.613.14-.909.2a47.162,47.162,0,0,1-7.916.72q-.624.011-1.249.011c-2.312,0-4.765-.1-7.72-.308-1.86-.133-3.756-.326-5.588-.514-1.157-.118-2.352-.24-3.534-.346-.583-.053-1.167-.079-1.736-.079a14.612,14.612,0,0,0-7.426,1.849,13.038,13.038,0,0,0-4.148,3.89,14.436,14.436,0,0,0-3.225,4.987,18.369,18.369,0,0,0-1.125,4.556,11.962,11.962,0,0,0,.243,4.9,5.033,5.033,0,0,0,3.008,3.4,5.459,5.459,0,0,0,1.893.326,7.869,7.869,0,0,0,3.089-.687,11,11,0,0,0,2.061-1.167c.336-.24.643-.492.94-.735.263-.216.512-.42.764-.6a11.636,11.636,0,0,1,3.248-1.659,12.794,12.794,0,0,1,3.888-.639q.181,0,.36.006l.013.05c1.57,5.98-.48,12.154-2.462,18.125-.227.686-.453,1.367-.672,2.042l-.066.2a7.5,7.5,0,0,0-.518,2.954,5.592,5.592,0,0,0,1.337,3.127,13.033,13.033,0,0,0,4.892,3.4,38,38,0,0,0,11.846,2.913,36.694,36.694,0,0,0,3.694.214c.63,0,1.24-.024,1.812-.072a3.218,3.218,0,0,0,2.821-2.261c1.936-.992,2.087-3.834,2.15-5.016a32.044,32.044,0,0,0-.407-6.218c-.275-1.906-.664-3.934-1.19-6.2-.486-2.1-1.02-4.159-1.588-6.121-.133-.46-.276-.924-.415-1.373a22.047,22.047,0,0,1-1.017-4.208c-.014-.135-.022-.261-.026-.383.053,0,.106-.006.157-.006h.07a11.789,11.789,0,0,1,1.563.149c.164.023.328.046.491.067a24.348,24.348,0,0,0,3.043.234,11.269,11.269,0,0,0,2.594-.277,6.053,6.053,0,0,0,4.072-3.091,6.3,6.3,0,0,0,1.907-2.554,13.787,13.787,0,0,0,.929-5.092A10.775,10.775,0,0,0,2006.221,3412.17Z"/>
        <g id="Group_8463" data-name="Group 8463" clip-path="url(#clip-path-5)">
          <g id="Group_8462" data-name="Group 8462">
            <g id="Group_8461" data-name="Group 8461">
              <path id="Path_19776" data-name="Path 19776" d="M2003.234,3411.054s.075.051.3.193.3.182.3.182S2003.242,3411.054,2003.234,3411.054Z" fill="url(#linear-gradient-13)"/>
              <path id="Path_19777" data-name="Path 19777" d="M2005.568,3422.883a12.773,12.773,0,0,0,.829-4.621,9.625,9.625,0,0,0-1.257-5.4,5.08,5.08,0,0,0-1.61-1.616,5.461,5.461,0,0,0-2.97-.781,8.087,8.087,0,0,0-.9.051c-.88.1-1.734.352-2.6.515a48.405,48.405,0,0,1-8.132.743q-.634.011-1.27.01c-2.606,0-5.212-.126-7.811-.311-3.057-.217-6.1-.587-9.146-.862-.537-.048-1.079-.074-1.621-.074a13.461,13.461,0,0,0-6.783,1.677,12.39,12.39,0,0,0-5.216,6.307,17.182,17.182,0,0,0-1.045,4.237,10.728,10.728,0,0,0,.195,4.374,3.8,3.8,0,0,0,2.225,2.575,4.151,4.151,0,0,0,1.449.247,6.686,6.686,0,0,0,2.584-.583,9.735,9.735,0,0,0,1.82-1.032c.586-.418,1.113-.91,1.7-1.332a13,13,0,0,1,3.6-1.841,14.073,14.073,0,0,1,4.285-.7,10.021,10.021,0,0,1,3.569.615,5.2,5.2,0,0,1,1.081.529c-1.012-.054-2.023-.107-3.036-.13,1.854,7.062-1,14.239-3.154,20.888a6.956,6.956,0,0,0-.526,2.665,4.386,4.386,0,0,0,1.051,2.411,11.831,11.831,0,0,0,4.423,3.044,37.285,37.285,0,0,0,11.45,2.808c1.178.118,2.374.207,3.566.207.57,0,1.139-.02,1.705-.067,1.908-.16,2.113-2.661,2.191-4.141a30.653,30.653,0,0,0-.4-5.966c-.3-2.048-.7-4.079-1.17-6.094q-.7-3.045-1.571-6.054a33.818,33.818,0,0,1-1.476-5.807,3.764,3.764,0,0,1,.538-2.69,3.014,3.014,0,0,1,2.455-1.039h.089a17.518,17.518,0,0,1,2.218.226,22.787,22.787,0,0,0,2.879.224,10.1,10.1,0,0,0,2.3-.243A4.84,4.84,0,0,0,2005.568,3422.883Z" fill="url(#linear-gradient-14)"/>
            </g>
            <path id="Path_19778" data-name="Path 19778" d="M1989.231,3455.411c3.338.183,5.379.206,5.327-3.819a19.642,19.642,0,0,0-.258-2.951l.124-.032a16.535,16.535,0,0,1,.774,2.935c.435,2.2-.334,5.139-3.039,5.132a4.574,4.574,0,0,1-2.98-1.148l.052-.117Z" fill="#fff"/>
            <path id="Path_19779" data-name="Path 19779" d="M1997.019,3412.859c3.012-2.48,7.09-1.913,8.1,2.216a10.236,10.236,0,0,1,.045,4.4c-.24-1.145-.431-2.265-.744-3.324-1.1-4.058-3.688-4.441-7.4-3.288Z" fill="#fff"/>
          </g>
        </g>
      </g>
      <g id="Group_8468" data-name="Group 8468">
        <path id="Path_19781" data-name="Path 19781" d="M1905.595,3338.166a6.521,6.521,0,0,0-1.513-1.671,3.317,3.317,0,0,0-.491-.349,2.92,2.92,0,0,0-.6-.325,6.984,6.984,0,0,0-3.052-.643,9.448,9.448,0,0,0-1.039.058,15.622,15.622,0,0,0-1.789.335c-.315.072-.613.139-.909.2a47.183,47.183,0,0,1-7.916.721q-.624.01-1.249.01c-2.312,0-4.765-.1-7.72-.308-1.86-.132-3.755-.326-5.588-.513-1.156-.118-2.352-.241-3.534-.347-.583-.052-1.167-.079-1.735-.079a14.616,14.616,0,0,0-7.427,1.849,13.029,13.029,0,0,0-4.148,3.891,14.438,14.438,0,0,0-3.225,4.987,18.357,18.357,0,0,0-1.125,4.555,11.962,11.962,0,0,0,.244,4.9,5.028,5.028,0,0,0,3.007,3.4,5.442,5.442,0,0,0,1.894.327,7.877,7.877,0,0,0,3.089-.687,11.069,11.069,0,0,0,2.06-1.167c.336-.24.643-.492.941-.736.263-.216.511-.419.763-.6a11.632,11.632,0,0,1,3.248-1.659,12.8,12.8,0,0,1,3.888-.639q.182,0,.36.006l.013.051c1.57,5.979-.479,12.154-2.461,18.125-.228.685-.454,1.366-.672,2.041l-.066.2a7.482,7.482,0,0,0-.519,2.955,5.59,5.59,0,0,0,1.337,3.126,13.022,13.022,0,0,0,4.892,3.4,37.995,37.995,0,0,0,11.846,2.914,36.7,36.7,0,0,0,3.694.214c.63,0,1.24-.025,1.812-.072a3.217,3.217,0,0,0,2.821-2.261c1.936-.992,2.088-3.835,2.15-5.017a31.954,31.954,0,0,0-.407-6.217c-.275-1.907-.664-3.935-1.189-6.2-.487-2.1-1.021-4.16-1.588-6.122-.134-.46-.277-.924-.416-1.373a22.03,22.03,0,0,1-1.017-4.208c-.014-.135-.021-.261-.026-.383l.157-.006h.07a11.706,11.706,0,0,1,1.563.148c.164.023.328.046.492.067a24.13,24.13,0,0,0,3.042.234,11.216,11.216,0,0,0,2.594-.277,6.053,6.053,0,0,0,4.072-3.09,6.3,6.3,0,0,0,1.907-2.555,13.765,13.765,0,0,0,.929-5.092A10.767,10.767,0,0,0,1905.595,3338.166Z"/>
        <g id="Group_8467" data-name="Group 8467" clip-path="url(#clip-path-6)">
          <g id="Group_8466" data-name="Group 8466">
            <g id="Group_8465" data-name="Group 8465">
              <path id="Path_19782" data-name="Path 19782" d="M1902.608,3337.049s.075.052.3.193.3.182.3.182S1902.616,3337.049,1902.608,3337.049Z" fill="url(#linear-gradient-15)"/>
              <path id="Path_19783" data-name="Path 19783" d="M1904.942,3348.879a12.778,12.778,0,0,0,.829-4.621,9.623,9.623,0,0,0-1.257-5.4,5.089,5.089,0,0,0-1.61-1.617,5.47,5.47,0,0,0-2.97-.781,8.114,8.114,0,0,0-.9.051c-.881.1-1.734.353-2.6.516a48.493,48.493,0,0,1-8.131.742q-.636.011-1.271.011c-2.606,0-5.211-.127-7.811-.312-3.056-.217-6.095-.587-9.146-.862-.537-.048-1.079-.073-1.62-.073a13.46,13.46,0,0,0-6.783,1.676,12.394,12.394,0,0,0-5.217,6.307,17.2,17.2,0,0,0-1.045,4.238,10.727,10.727,0,0,0,.195,4.374,3.8,3.8,0,0,0,2.225,2.575,4.185,4.185,0,0,0,1.449.247,6.687,6.687,0,0,0,2.584-.584,9.721,9.721,0,0,0,1.82-1.032c.586-.418,1.114-.909,1.7-1.332a13,13,0,0,1,3.6-1.841,14.092,14.092,0,0,1,4.284-.7,10.022,10.022,0,0,1,3.569.616,5.2,5.2,0,0,1,1.081.528c-1.012-.054-2.023-.106-3.036-.13,1.854,7.062-1,14.239-3.154,20.888a6.954,6.954,0,0,0-.526,2.665,4.387,4.387,0,0,0,1.052,2.411,11.8,11.8,0,0,0,4.422,3.044,37.265,37.265,0,0,0,11.45,2.808,35.613,35.613,0,0,0,3.566.208c.57,0,1.139-.021,1.7-.068,1.908-.159,2.113-2.661,2.191-4.14a30.662,30.662,0,0,0-.4-5.967c-.3-2.048-.7-4.078-1.17-6.094s-.992-4.052-1.57-6.054a33.8,33.8,0,0,1-1.477-5.807,3.769,3.769,0,0,1,.538-2.69,3.017,3.017,0,0,1,2.455-1.039h.089a17.746,17.746,0,0,1,2.218.225,22.77,22.77,0,0,0,2.879.224,10.043,10.043,0,0,0,2.3-.243A4.84,4.84,0,0,0,1904.942,3348.879Z" fill="url(#linear-gradient-14)"/>
            </g>
            <path id="Path_19784" data-name="Path 19784" d="M1888.606,3381.406c3.337.184,5.379.206,5.326-3.819a19.632,19.632,0,0,0-.258-2.951l.124-.032a16.563,16.563,0,0,1,.774,2.935c.435,2.2-.334,5.14-3.039,5.133a4.582,4.582,0,0,1-2.98-1.149l.053-.117Z" fill="#fff"/>
            <path id="Path_19785" data-name="Path 19785" d="M1896.393,3338.854c3.012-2.479,7.09-1.913,8.1,2.216a10.251,10.251,0,0,1,.046,4.4c-.24-1.144-.431-2.264-.745-3.323-1.1-4.059-3.687-4.441-7.4-3.289Z" fill="#fff"/>
          </g>
        </g>
      </g>
      <g id="Group_8472" data-name="Group 8472">
        <path id="Path_19787" data-name="Path 19787" d="M1864.342,3415.077a5.6,5.6,0,0,0-.544-.741,6.19,6.19,0,0,0-.557-.644,13.25,13.25,0,0,0-9.706-4.081h-.14a10.334,10.334,0,0,0-3.273.518,13.943,13.943,0,0,0-2.789,1.354,24.978,24.978,0,0,0-4.579,3.719,35.059,35.059,0,0,0-2.854,3.259,36.907,36.907,0,0,0-5.234,7.619,28.622,28.622,0,0,0-3.5,11.5,18.827,18.827,0,0,0,3.184,11.579,26.2,26.2,0,0,0,8.537,7.907,24.251,24.251,0,0,0,11.547,3.643h.192a7.218,7.218,0,0,0,5.209-1.685,5.514,5.514,0,0,0,1.11-1.512,5.157,5.157,0,0,0,.494-.414,7.147,7.147,0,0,0,1.788-6.154c-.143-1.161-.706-4.022-2.835-5.5a3.342,3.342,0,0,0-1.9-.634h-.063a4.516,4.516,0,0,0-1.443.328c-.134.048-.261.093-.37.125-.465.134-.95.246-1.449.338a16.471,16.471,0,0,0,1.671-1.245,18.984,18.984,0,0,0,2.994-3.251,22.335,22.335,0,0,0,3.92-5.847,30.485,30.485,0,0,0,2.783-9.776C1866.834,3422.567,1866.668,3418.486,1864.342,3415.077Zm-21.452,23.276c-.01-.093-.018-.187-.024-.283a7.944,7.944,0,0,1,.5-3.244,7.741,7.741,0,0,1,.531-1.135,3.416,3.416,0,0,1,2.014-.9c.052,0,.1,0,.155.007a1.437,1.437,0,0,1,1.206,1.645h0v.009h0a3.668,3.668,0,0,1-.573,1.658A10.5,10.5,0,0,1,1842.89,3438.353Z"/>
        <g id="Group_8471" data-name="Group 8471" clip-path="url(#clip-path-7)">
          <g id="Group_8470" data-name="Group 8470">
            <g id="Group_8469" data-name="Group 8469">
              <path id="Path_19788" data-name="Path 19788" d="M1862.413,3414.661s.1.128.378.478.384.477.385.477Z" fill="url(#linear-gradient-17)"/>
              <path id="Path_19789" data-name="Path 19789" d="M1862.791,3415.139a11.848,11.848,0,0,0-9.256-4.245h-.127a9.111,9.111,0,0,0-2.871.449,12.652,12.652,0,0,0-2.53,1.232,23.854,23.854,0,0,0-4.343,3.531,35.315,35.315,0,0,0-6.254,8.638,27.62,27.62,0,0,0-3.36,10.987,17.583,17.583,0,0,0,2.973,10.793,24.834,24.834,0,0,0,8.12,7.512,22.671,22.671,0,0,0,10.91,3.465h.177a6.166,6.166,0,0,0,4.323-1.331,5.942,5.942,0,0,0,1.4-5.068,6.66,6.66,0,0,0-2.294-4.607,2.075,2.075,0,0,0-1.167-.405h-.035a6.082,6.082,0,0,0-1.485.4,17.25,17.25,0,0,1-2.81.556,20.653,20.653,0,0,1-2.361.137,19.075,19.075,0,0,1-3.2-.267,12.336,12.336,0,0,1-4.337-1.448,5.673,5.673,0,0,1-1.489-1.277c.536.179,1.052.424,1.581.624a5.98,5.98,0,0,0,1.6.29q.688.06,1.382.06a16.516,16.516,0,0,0,2.423-.18,15.653,15.653,0,0,0,7.851-3.537,19.971,19.971,0,0,0,4.981-6.745,29.165,29.165,0,0,0,2.667-9.359C1865.622,3421.8,1865.087,3417.994,1862.791,3415.139Zm-12.646,17.619s0-.044.009-.162a6.545,6.545,0,0,1-2.018,3.887,11.748,11.748,0,0,1-4.859,3.094,6.986,6.986,0,0,1-2.172.449,3.228,3.228,0,0,1-.5-.037,6.823,6.823,0,0,0,1.066-.433c.146-.092.113-.052.075-.229-.028-.13-.053-.26-.074-.39-.041-.26-.069-.523-.086-.786a9.217,9.217,0,0,1,.575-3.774,8.549,8.549,0,0,1,2.212-3.334,4.9,4.9,0,0,1,3.14-1.465q.135,0,.27.012a2.7,2.7,0,0,1,2.372,3.006c.008-.116.011-.159.011-.159Z" fill="url(#linear-gradient-9)"/>
            </g>
            <path id="Path_19790" data-name="Path 19790" d="M1853.885,3412.934a7.23,7.23,0,0,1,9.291,7.959,19.208,19.208,0,0,0-1.286-3.12c-1.552-3.028-4.755-4.372-8.005-4.839Z" fill="#fff"/>
            <path id="Path_19791" data-name="Path 19791" d="M1853.363,3448.62c.7-.2,1.309-.361,1.907-.576a9.391,9.391,0,0,1,3.008-.81,2.57,2.57,0,0,1,2.359,2.262c-.951-.675-1.648-1.294-2.731-.972-.11.02-.328.076-.435.11a5.477,5.477,0,0,1-4.108-.014Z" fill="#fff"/>
          </g>
        </g>
      </g>
      <g id="Group_8476" data-name="Group 8476">
        <path id="Path_19793" data-name="Path 19793" d="M1977.311,3437.085a7.22,7.22,0,0,0-2.22-2.743l-.012-.009-.011-.009-.017-.012c-.035-.029-.067-.053-.093-.073v0l0,0h0a5.764,5.764,0,0,0-.88-.606,17.853,17.853,0,0,0-5.614-2.2,22.444,22.444,0,0,0-3.763-.485c-.4-.021-.751-.032-1.089-.032a11.493,11.493,0,0,0-2.609.27,9.766,9.766,0,0,0-5.775,4.267l-.022.032a12.9,12.9,0,0,0-1.582,1.893c-.272.392-.531.79-.782,1.175-.3.467-.6.909-.9,1.339a19.885,19.885,0,0,1,.016-3.94,69.742,69.742,0,0,1,2.743-12.6l.15-.534q.2-.7.4-1.4a53.017,53.017,0,0,0,1.478-5.954l0-.027a6.6,6.6,0,0,0,.074-2.621,3.9,3.9,0,0,0-2.738-2.639,11.805,11.805,0,0,0-4.086-.662,20.764,20.764,0,0,0-3.831.389,16.414,16.414,0,0,0-6.427,2.459,5.481,5.481,0,0,0-1.65,1.961,6.465,6.465,0,0,0-2.081,2.979,17.592,17.592,0,0,0-.948,3.788,41.5,41.5,0,0,0-.352,7.686,72.9,72.9,0,0,0,2.175,15.388c1.1,4.364,2.744,9.283,6.6,12.685a15.266,15.266,0,0,0,6.305,3.3,17.457,17.457,0,0,0,4.322.563,14.155,14.155,0,0,0,3.23-.362c4.143-.973,8.3-3.591,12.354-7.78a36.234,36.234,0,0,0,2.656-3.059,31.063,31.063,0,0,0,3.491-4.67C1977.216,3442.511,1978.486,3439.768,1977.311,3437.085Z"/>
        <g id="Group_8475" data-name="Group 8475" clip-path="url(#clip-path-8)">
          <g id="Group_8474" data-name="Group 8474">
            <g id="Group_8473" data-name="Group 8473">
              <path id="Path_19794" data-name="Path 19794" d="M1974.347,3435.388l-.166-.127c.039.029.078.059.116.09Z" fill="url(#linear-gradient-19)"/>
              <path id="Path_19795" data-name="Path 19795" d="M1973.615,3434.835l.4.3.165.122Z" fill="url(#linear-gradient-20)"/>
              <path id="Path_19796" data-name="Path 19796" d="M1970.353,3449.752a31.133,31.133,0,0,0,4.364-5.572c1.139-1.9,2.389-4.364,1.418-6.581a6,6,0,0,0-1.838-2.248l-.281-.212a15.827,15.827,0,0,0-5.837-2.458,21.416,21.416,0,0,0-3.551-.455c-.339-.019-.68-.03-1.02-.03a10.2,10.2,0,0,0-2.318.237,8.6,8.6,0,0,0-5.01,3.746c-.633.915-1.2,1.867-1.861,2.764s-1.353,1.741-2.067,2.58a31.093,31.093,0,0,1-4.022,4.137q.533-.79,1.067-1.583l.813-1.214q.239-.357.476-.715a1.864,1.864,0,0,0,.238-.36.523.523,0,0,0-.024-.305,18.235,18.235,0,0,1-.229-5.649,73.7,73.7,0,0,1,2.937-13.372,68.391,68.391,0,0,0,1.85-7.215,5.732,5.732,0,0,0,.1-2.133,2.792,2.792,0,0,0-1.936-1.738,10.543,10.543,0,0,0-3.641-.582,19.793,19.793,0,0,0-3.6.367,15.271,15.271,0,0,0-5.925,2.248,5.154,5.154,0,0,0-1.667,2.429,16.542,16.542,0,0,0-.876,3.516,40.789,40.789,0,0,0-.338,7.451,71.7,71.7,0,0,0,2.138,15.116c1.113,4.419,2.687,8.934,6.2,12.036a13.9,13.9,0,0,0,5.774,3.023,16.228,16.228,0,0,0,4,.523,12.81,12.81,0,0,0,2.936-.328C1963.16,3456.11,1967.171,3453.04,1970.353,3449.752Z" fill="url(#linear-gradient-21)"/>
            </g>
            <path id="Path_19797" data-name="Path 19797" d="M1948.9,3411.9c1.662-.393,3.986-.39,5.213,1.062a1.964,1.964,0,0,1,.4,1.061,9.119,9.119,0,0,1-.724,4.32c-.384,1.059-.766,2.109-1.17,3.157l-.123-.034c.2-1.1.447-2.2.66-3.3.276-1.468.651-2.86.095-4.2a2.793,2.793,0,0,0-1.257-.869c-.931-.409-2-.692-3.092-1.067l0-.129Z" fill="#fff"/>
            <path id="Path_19798" data-name="Path 19798" d="M1973.592,3436.221a5.613,5.613,0,0,1,1.108,4.135,8.643,8.643,0,0,1-.718,2.823,7.715,7.715,0,0,1-.663,1.281,24.8,24.8,0,0,1-4.572,5.349,13.826,13.826,0,0,1-1.047.92c-.639.488-1.531,1.262-2.195,1.705q-1.135.8-2.279,1.577l-.075-.1c1.384-1.169,2.835-2.368,4.118-3.654a12.778,12.778,0,0,0,.962-.972,29.413,29.413,0,0,0,2.619-3.122c.135-.21.789-1.227.907-1.414.219-.43.523-1.054.748-1.482l.248-.607a13.606,13.606,0,0,0,.9-2.775c.03-.308.093-.656.119-.965a6.7,6.7,0,0,0-.291-2.623l.106-.072Z" fill="#fff"/>
          </g>
        </g>
      </g>
      <g id="Group_8480" data-name="Group 8480">
        <path id="Path_19800" data-name="Path 19800" d="M1844.456,3448.406a3.262,3.262,0,0,0-1.36-1.909c-.091-.069-.191-.14-.3-.217a3.693,3.693,0,0,0-.744-.463,29.08,29.08,0,0,0-5.056-2.191c-.637-.229-1.3-.466-1.923-.712a30.726,30.726,0,0,1-3.217-1.466,14.218,14.218,0,0,0,4.577-4.223,15.825,15.825,0,0,0,1.71-2.071,17.333,17.333,0,0,0,2.744-6.247,22.1,22.1,0,0,0,.083-8.609,20.634,20.634,0,0,0-2.941-7.633,11.4,11.4,0,0,0-6.745-5.021,10.517,10.517,0,0,0-2.477-.29,13.627,13.627,0,0,0-4.288.741,16.923,16.923,0,0,0-6.827,4.17,16.634,16.634,0,0,0-1.656,1.98,21.013,21.013,0,0,0-5.4,12.326,3.491,3.491,0,0,0-2.759,2.314,4.694,4.694,0,0,0-1.973,2.931,13.77,13.77,0,0,0-.4,4.457,31.7,31.7,0,0,0,.584,4.634,52.314,52.314,0,0,0,2.586,8.877,36.021,36.021,0,0,0,1.946,4.27,11.9,11.9,0,0,0,2.926,3.85,3.2,3.2,0,0,0,1.942.765,2.416,2.416,0,0,0,.32-.021,3.076,3.076,0,0,0,2.05-1.226,4.648,4.648,0,0,0,.573-1.036,3.118,3.118,0,0,0,1.031-.89,7.988,7.988,0,0,0,1.146-4.463l.014-.273c.017-.322.023-.652.029-.972,0-.207.008-.415.015-.621a7.612,7.612,0,0,1,.924,1.836l.1.259.062.156a36.392,36.392,0,0,0,1.811,4.007c1.56,2.831,3.438,4.548,5.581,5.1a5.977,5.977,0,0,0,1.5.183,9.762,9.762,0,0,0,3.29-.654,17.116,17.116,0,0,0,4.1-2.192,15.573,15.573,0,0,0,3.307-3.093c.159-.2.325-.427.488-.668a13.336,13.336,0,0,0,1.117-1.258C1843.791,3451.771,1844.857,3450.139,1844.456,3448.406Zm-21.33-13.154a2.4,2.4,0,0,1-.427.038,3.724,3.724,0,0,1-2.647-1.326,1.612,1.612,0,0,1-.534-1.115c.029-.044.091-.122.135-.175s.093-.116.136-.173c.089-.117.173-.224.258-.334a12.07,12.07,0,0,1,.9-.888,2.736,2.736,0,0,1,1.627-.829,1,1,0,0,1,.111.006c1.025.107,1.36,1.62,1.4,2.405a4.613,4.613,0,0,1-.549,2.229A1.635,1.635,0,0,1,1823.126,3435.252Z"/>
        <g id="Group_8479" data-name="Group 8479" clip-path="url(#clip-path-9)">
          <g id="Group_8478" data-name="Group 8478">
            <g id="Group_8477" data-name="Group 8477">
              <path id="Path_19801" data-name="Path 19801" d="M1841.646,3447.039l.655.467.161.112Z" fill="url(#linear-gradient-22)"/>
              <path id="Path_19802" data-name="Path 19802" d="M1841.94,3452.059c.688-.884,1.54-2.177,1.266-3.363a2.079,2.079,0,0,0-.905-1.19c-2.307-1.64-5.094-2.374-7.7-3.4a31.038,31.038,0,0,1-3.653-1.686q-.777-.428-1.523-.913c-.2-.133-.4-.27-.6-.409a2.667,2.667,0,0,0-.784-.5,9.613,9.613,0,0,1-2.075-.582,5.035,5.035,0,0,1-1.381-1.026,8.654,8.654,0,0,0,3.029.7c.1,0,.21,0,.315,0a9.918,9.918,0,0,0,3.327-.574,12.323,12.323,0,0,0,5.832-4.7,16.042,16.042,0,0,0,2.544-5.784,20.986,20.986,0,0,0,.073-8.111c-.866-4.817-3.55-10.374-8.726-11.635a9.211,9.211,0,0,0-2.173-.254,12.365,12.365,0,0,0-3.882.676,15.754,15.754,0,0,0-6.317,3.851c-3.518,3.583-5.049,8.754-5.255,13.676-.01.238-.009.95-.009.95l1,1.534a11.526,11.526,0,0,0-2.977-1.459,1.988,1.988,0,0,0-.36-.033c-1.261,0-1.934,1.3-2.262,2.419a12.422,12.422,0,0,0-.344,4.039,30.65,30.65,0,0,0,.561,4.446,51.043,51.043,0,0,0,2.523,8.659,35.1,35.1,0,0,0,1.876,4.12,10.735,10.735,0,0,0,2.584,3.448,1.979,1.979,0,0,0,1.157.5,1.092,1.092,0,0,0,.151-.01,1.79,1.79,0,0,0,1.188-.717c.814-1.1.839-2.733.909-4.041.072-1.338-.067-2.918.535-4.156a1.832,1.832,0,0,1,1.65-1.054,1.884,1.884,0,0,1,.792.177c1.188.551,1.718,2.073,2.171,3.2a36.692,36.692,0,0,0,1.808,4.023c1.034,1.877,2.6,3.915,4.779,4.481a4.7,4.7,0,0,0,1.176.142,8.644,8.644,0,0,0,2.856-.578,15.856,15.856,0,0,0,3.79-2.031A14.291,14.291,0,0,0,1841.94,3452.059Zm-18.553-15.55a3.63,3.63,0,0,1-.688.065,5.014,5.014,0,0,1-3.61-1.761,2.6,2.6,0,0,1-.788-2.38,2.528,2.528,0,0,1,.467-.71c.257-.336.517-.67.783-1a18.567,18.567,0,0,1,2.149-2.335,3.946,3.946,0,0,1,2.475-1.148,2.281,2.281,0,0,1,.244.013c1.751.183,2.476,2.083,2.544,3.626a6.328,6.328,0,0,1-1.01,3.462A4.329,4.329,0,0,1,1823.387,3436.509Z" fill="url(#linear-gradient-23)"/>
            </g>
            <path id="Path_19803" data-name="Path 19803" d="M1840.732,3450.536a5.732,5.732,0,0,0,.7-1.026c.029-.086.022-.143,0-.155s-.017.006-.039-.037c0-.014-.029-.048-.035-.078a3.182,3.182,0,0,0-1.326-1.077c-.774-.441-1.589-.791-2.409-1.164l.033-.124c1.4.171,4.191.533,4.949,1.876.56,1.146-.77,2.13-1.831,1.906l-.044-.121Z" fill="#fff"/>
            <path id="Path_19804" data-name="Path 19804" d="M1824.079,3410.732c6.005-2.546,12.859.585,13.563,7.375a18.423,18.423,0,0,0-2.258-3.583c-2.72-3.33-7.19-4.063-11.305-3.792Z" fill="#fff"/>
          </g>
        </g>
      </g>
    </g>
  </g>
</svg>
