<svg xmlns="http://www.w3.org/2000/svg" xmlns:xlink="http://www.w3.org/1999/xlink" width="257.168" height="184.39" viewBox="0 0 257.168 184.39">
  <defs>
    <clipPath id="clip-path">
      <path id="Path_8960" data-name="Path 8960" d="M10849.838,814.725l61.111-.026,4.08,22.06h42.94l.646,4.812h135.565s-10.231,22.58-51.8,33.9c-73.45,20-163.018-.629-163.018-.629l-4.9-7.777a57.773,57.773,0,0,1-8.653-25.493l-10.1-4.811Z" fill="none"/>
    </clipPath>
  </defs>
  <g id="Group_2670" data-name="Group 2670" transform="translate(-10841.473 -704.267)">
    <g id="Group_2669" data-name="Group 2669">
      <g id="Group_2666" data-name="Group 2666">
        <g id="Group_2641" data-name="Group 2641">
          <path id="Path_8943" data-name="Path 8943" d="M10968.975,888.157c-9.812,0-20.026-.377-30.361-1.12a440.483,440.483,0,0,1-60.135-8.336,3.931,3.931,0,0,1-2.46-1.747l-.84-1.332v.671a3.962,3.962,0,0,1-3.958,3.958h-25.29A3.956,3.956,0,0,1,10842,875.8l1.813-14.559c.991-7.959,6.133-15.063,13.826-19.181l-3.633-1.732a3.956,3.956,0,0,1-2.122-2.553l-5.872-22.026a3.959,3.959,0,0,1,3.819-4.987l28.069-.015V745.268a3.974,3.974,0,0,1-3.186-3.36l-.709-5.265a3.959,3.959,0,0,1,3.922-4.486h12.045a3.959,3.959,0,0,1,3.923,4.486l-.708,5.265a3.966,3.966,0,0,1-1.405,2.525,6.281,6.281,0,0,1,.331,1.041,19.689,19.689,0,0,1,6.407,13.649c.108,4.951-1.868,9.845-5.726,14.183,6.652,5.483,10.4,12.515,10.563,19.852.1,4.286-1,10.748-6.619,17.587l14.2-.005a3.962,3.962,0,0,1,3.9,3.24l3.484,18.82h30.533V717.806a3.986,3.986,0,0,1-2.876-3.289l-.708-5.265a3.956,3.956,0,0,1,3.922-4.485h12.044a3.956,3.956,0,0,1,3.922,4.485l-.708,5.265a3.932,3.932,0,0,1-1.533,2.627,6.319,6.319,0,0,1,.416,1.232,19.677,19.677,0,0,1,6.408,13.651c.11,4.951-1.867,9.845-5.726,14.183,6.554,5.4,10.294,12.326,10.548,19.546.187,5.278-1.385,13.235-9.842,21.355,7.5,7.108,11.821,16.159,12.19,25.543.34,8.6-2.559,17.211-8.394,24.959h52.985V745.268a3.974,3.974,0,0,1-3.185-3.36l-.708-5.265a3.956,3.956,0,0,1,3.922-4.486h12.044a3.96,3.96,0,0,1,3.923,4.486l-.709,5.265a3.932,3.932,0,0,1-1.227,2.371,6.353,6.353,0,0,1,.313,1.083c6.949,5.475,10.922,12.587,11.192,20.043.191,5.283-1.374,13.249-9.841,21.379,7.524,7.133,11.85,16.22,12.193,25.643.317,8.7-2.669,17.385-8.646,25.186h53.4a3.958,3.958,0,0,1,3.6,5.593,39.17,39.17,0,0,1-6.076,8.736q-.4.457-.833.935l-.235.252-.454-.245.367.34c-.763.823-1.577,1.655-2.42,2.472l-.2.194q-.617.6-1.28,1.2l-.289.262c-.453.409-.916.822-1.4,1.237l-.113.095c-.478.408-.937.79-1.408,1.174l-.393.319q-.738.593-1.515,1.187l-.482.364c-.5.373-1,.749-1.526,1.124l-.454.323q-.738.52-1.509,1.042l-.6.4q-.866.574-1.773,1.148l-.678.422q-.82.507-1.675,1.013l-.77.449q-.822.476-1.681.949l-.795.436q-1.011.546-2.064,1.086l-.879.442q-.914.456-1.859.907c-.352.168-.708.334-1.068.5-.618.287-1.25.571-1.891.854l-1,.438q-1.17.5-2.387.994l-1.074.426c-.69.271-1.39.539-2.1.8q-.65.242-1.314.48-1.069.386-2.173.761c-.449.152-.815.277-1.187.4-.9.3-1.833.593-2.762.878l-1.246.373q-1.189.353-2.416.694l-.745.214C11021.816,885.173,10996.768,888.157,10968.975,888.157Z"/>
          <path id="Path_8944" data-name="Path 8944" d="M10961.24,705.267a3.457,3.457,0,0,1,3.427,3.918l-.709,5.265a3.457,3.457,0,0,1-1.681,2.524,5.848,5.848,0,0,1,.6,1.657,19.125,19.125,0,0,1,6.365,13.407c.112,5-1.937,9.878-5.949,14.227,6.711,5.374,10.515,12.229,10.772,19.509.189,5.4-1.487,13.292-10.071,21.339,7.661,7.093,12.046,16.072,12.42,25.56.35,8.872-2.71,17.549-8.91,25.44h54.5V744.83a3.459,3.459,0,0,1-3.188-2.989l-.709-5.265a3.457,3.457,0,0,1,3.427-3.919h12.044a3.459,3.459,0,0,1,3.427,3.919l-.709,5.265a3.449,3.449,0,0,1-1.336,2.293,5.79,5.79,0,0,1,.459,1.5c6.941,5.411,10.883,12.378,11.152,19.785.2,5.4-1.476,13.3-10.071,21.363,7.69,7.119,12.076,16.129,12.423,25.659.327,8.969-2.822,17.722-9.172,25.668h54.427a3.458,3.458,0,0,1,3.149,4.885,38.66,38.66,0,0,1-6,8.613c-.264.3-.538.612-.826.928-.016.018-.035.038-.054.058l-.1.111-.074.08-.056.06-.033.035c-.759.819-1.566,1.644-2.4,2.453l-.069.068-.13.126q-.612.588-1.271,1.191l-.208.19-.078.07c-.45.407-.91.816-1.392,1.229l-.109.093-.036.03c-.44.376-.9.756-1.366,1.138l-.1.082-.291.236q-.729.587-1.5,1.177l-.37.281-.108.081c-.494.372-1,.745-1.519,1.118l-.347.246-.105.075q-.732.517-1.5,1.036l-.11.075-.482.325q-.86.57-1.764,1.141c-.192.122-.389.243-.585.364l-.09.056q-.816.505-1.665,1.007-.378.224-.766.447c-.546.316-1.1.63-1.671.944l-.115.063c-.225.124-.449.248-.677.372q-1.006.543-2.056,1.079c-.256.132-.518.262-.778.393l-.1.048q-.908.455-1.85.9-.526.25-1.063.5-.924.429-1.883.85l-.112.05c-.293.129-.586.258-.884.387q-1.165.5-2.378.99c-.31.125-.625.249-.939.372l-.129.051q-1.031.405-2.094.8-.649.242-1.31.479-1.066.384-2.165.757l-.083.029c-.365.124-.729.248-1.1.37-.9.3-1.825.591-2.752.875-.355.109-.717.216-1.077.323l-.162.048q-1.187.352-2.409.692l-.286.083c-.15.044-.3.088-.457.131-21.565,5.872-46.569,8.85-74.318,8.85-9.8,0-20-.376-30.325-1.118a439.9,439.9,0,0,1-60.059-8.325,3.452,3.452,0,0,1-2.148-1.527l-1.764-2.8v2.4a3.457,3.457,0,0,1-3.457,3.457h-25.291a3.456,3.456,0,0,1-3.431-3.884l1.813-14.559c1.022-8.206,6.567-15.375,14.458-19.26l-4.546-2.166a3.454,3.454,0,0,1-1.853-2.231l-3-11.233-.583-2.184-.05-.192-2.244-8.417a3.458,3.458,0,0,1,3.336-4.358l28.568-.016V744.83a3.461,3.461,0,0,1-3.189-2.989l-.708-5.265a3.459,3.459,0,0,1,3.427-3.919h12.044a3.457,3.457,0,0,1,3.427,3.919l-.708,5.265a3.457,3.457,0,0,1-1.531,2.43,5.853,5.853,0,0,1,.5,1.457,19.129,19.129,0,0,1,6.364,13.406c.111,5-1.937,9.879-5.949,14.227,6.813,5.453,10.623,12.413,10.787,19.808.1,4.7-1.229,11.232-7.2,18.076l15.279-.005h0a3.462,3.462,0,0,1,3.4,2.831l1.909,10.322,1.651,8.907h31.449V717.4a3.457,3.457,0,0,1-2.881-2.953l-.709-5.265a3.457,3.457,0,0,1,3.428-3.918h12.044m0-1H10949.2a4.456,4.456,0,0,0-4.418,5.052l.709,5.264a4.492,4.492,0,0,0,2.871,3.586V832.3h-29.617l-1.5-8.09-1.909-10.321a4.462,4.462,0,0,0-4.387-3.649l-13.163,0c5.148-6.652,6.173-12.9,6.08-17.1-.163-7.337-3.829-14.367-10.351-19.9,3.721-4.336,5.622-9.205,5.513-14.138a20.143,20.143,0,0,0-6.454-13.9q-.081-.325-.192-.641a4.458,4.458,0,0,0,1.309-2.6l.71-5.265a4.46,4.46,0,0,0-4.419-5.052h-12.044a4.458,4.458,0,0,0-4.418,5.052l.708,5.265a4.48,4.48,0,0,0,3.181,3.688v64.589l-27.568.015a4.457,4.457,0,0,0-4.3,5.619l2.244,8.414.049.189.584,2.187,3,11.233a4.455,4.455,0,0,0,2.39,2.876l2.758,1.314c-7.362,4.254-12.258,11.263-13.232,19.086l-1.814,14.558a4.457,4.457,0,0,0,4.424,5.008h25.291a4.465,4.465,0,0,0,4.364-3.545l.009.016a4.432,4.432,0,0,0,2.772,1.968,442.891,442.891,0,0,0,60.21,8.347c10.348.744,20.575,1.121,30.4,1.121,27.837,0,52.93-2.99,74.581-8.886.162-.044.32-.09.478-.136l.281-.081c.81-.225,1.618-.457,2.414-.694l.161-.048.1-.029c.332-.1.662-.2.988-.3.933-.286,1.865-.583,2.771-.882.359-.118.712-.237,1.065-.357l.126-.044q1.107-.376,2.183-.763.667-.24,1.32-.483,1.071-.4,2.109-.807l.129-.051c.317-.124.636-.249.948-.376q1.225-.494,2.4-1c.261-.112.516-.225.771-.337l.122-.054.116-.051c.64-.283,1.273-.568,1.9-.857q.542-.251,1.073-.5.951-.451,1.867-.91l.094-.047.071-.035c.241-.121.483-.242.72-.364q1.058-.542,2.073-1.09c.229-.124.455-.249.681-.374l.119-.065q.861-.476,1.689-.954.39-.225.772-.45c.574-.339,1.134-.679,1.685-1.019l.087-.054.073-.045c.176-.109.351-.217.522-.327q.911-.573,1.781-1.152c.167-.111.329-.221.491-.331l.108-.073q.778-.525,1.519-1.049l.1-.075.349-.246c.53-.381,1.04-.759,1.54-1.135l.108-.081.373-.283q.788-.6,1.526-1.2l.294-.239.1-.083c.476-.386.939-.771,1.385-1.153l.142-.119c.494-.424.961-.839,1.417-1.251l.077-.07.211-.192q.669-.613,1.291-1.21l.134-.129.071-.07c.846-.821,1.667-1.659,2.437-2.49h0l.034-.036.055-.06.072-.077.1-.112.06-.063c.295-.323.574-.638.843-.947a39.771,39.771,0,0,0,6.153-8.855,4.458,4.458,0,0,0-4.061-6.3h-52.4c5.646-7.686,8.456-16.188,8.146-24.7-.343-9.4-4.586-18.457-11.974-25.626,8.273-8.132,9.813-16.088,9.621-21.395-.274-7.555-4.263-14.752-11.24-20.305a6.768,6.768,0,0,0-.187-.675,4.426,4.426,0,0,0,1.144-2.433l.709-5.265a4.459,4.459,0,0,0-4.418-5.052h-12.044a4.456,4.456,0,0,0-4.418,5.052l.709,5.265a4.477,4.477,0,0,0,3.18,3.688v91.451h-51.5c5.509-7.631,8.235-16.055,7.9-24.479-.369-9.357-4.61-18.383-11.97-25.525,8.263-8.122,9.808-16.069,9.621-21.37-.254-7.219-3.914-14.138-10.334-19.585,3.72-4.338,5.622-9.206,5.512-14.139a20.14,20.14,0,0,0-6.456-13.9,6.993,6.993,0,0,0-.262-.827,4.431,4.431,0,0,0,1.422-2.709l.709-5.264a4.458,4.458,0,0,0-4.418-5.052Z" fill="#fff"/>
        </g>
        <g id="Group_2665" data-name="Group 2665">
          <g id="Group_2642" data-name="Group 2642">
            <rect id="Rectangle_363" data-name="Rectangle 363" width="4.187" height="86.202" transform="translate(10881.862 737.503)" fill="#9a6e49"/>
            <path id="Path_8945" data-name="Path 8945" d="M10877.934,736.114l.709,5.265h10.626l.709-5.265Z" fill="#9a6e49"/>
            <path id="Path_8946" data-name="Path 8946" d="M10885.47,774.286c5.049-7.546,6.214-20.742.267-27.866l.5-.611c10.4,7,11.812,18.849,0,28.254Z" fill="#666"/>
            <path id="Path_8947" data-name="Path 8947" d="M10885.978,814.815c7.448-10.808,9.166-29.709.394-39.911l.746-.876c15.333,10.03,17.422,27,0,40.467Z" fill="#4d4d4d"/>
            <circle id="Ellipse_300" data-name="Ellipse 300" cx="2.387" cy="2.387" r="2.387" transform="translate(10883.538 771.641)" fill="#743800"/>
            <circle id="Ellipse_301" data-name="Ellipse 301" cx="2.387" cy="2.387" r="2.387" transform="translate(10883.538 744.473)" fill="#743800"/>
          </g>
          <path id="Path_8948" data-name="Path 8948" d="M10845.931,876.292h25.291V853.239l-5.031-10.166c-9.974,2.228-17.325,9.666-18.445,18.661Z" fill="#7c3400"/>
          <path id="Path_8949" data-name="Path 8949" d="M11094.178,841.572l-.009.017-.035.069a35.4,35.4,0,0,1-4.685,6.829c-.458.554-.951,1.124-1.5,1.721l-.009.008c-6.924,7.581-20.582,18.447-45.564,25.25-73.451,20-163.014-.622-163.014-.622l-4.9-7.78a56.486,56.486,0,0,1-3.242-5.878,57.409,57.409,0,0,1-5.247-18.058c-.06-.519-.111-1.037-.163-1.556l-10.1-4.815-3.578-13.407-.459-1.738-1.841-6.889,32.027-.018h4.513l24.567-.008,4.088,22.06h42.937l.648,4.815Z" fill="#9a6e49"/>
          <g id="Group_2655" data-name="Group 2655">
            <g id="Group_2654" data-name="Group 2654" clip-path="url(#clip-path)">
              <g id="Group_2653" data-name="Group 2653" opacity="0.3" style="mix-blend-mode: multiply;isolation: isolate">
                <g id="Group_2643" data-name="Group 2643">
                  <path id="Path_8950" data-name="Path 8950" d="M10959.351,907.217a624.812,624.812,0,0,1-146.875-17.545l.406-1.68a619.224,619.224,0,0,0,341.945-14.247l.547,1.64A618.869,618.869,0,0,1,10959.351,907.217Z" fill="#9a6e49"/>
                </g>
                <g id="Group_2644" data-name="Group 2644">
                  <path id="Path_8951" data-name="Path 8951" d="M10959.352,898.57a616.213,616.213,0,0,1-144.977-17.334l.407-1.68a610.6,610.6,0,0,0,337.194-13.975l.548,1.64A610.276,610.276,0,0,1,10959.352,898.57Z" fill="#9a6e49"/>
                </g>
                <g id="Group_2645" data-name="Group 2645">
                  <path id="Path_8952" data-name="Path 8952" d="M10959.351,889.923a607.531,607.531,0,0,1-143.062-17.121l.407-1.679a601.943,601.943,0,0,0,332.444-13.711l.547,1.64A601.6,601.6,0,0,1,10959.351,889.923Z" fill="#9a6e49"/>
                </g>
                <g id="Group_2646" data-name="Group 2646">
                  <path id="Path_8953" data-name="Path 8953" d="M10959.35,881.276a598.907,598.907,0,0,1-141.137-16.9l.407-1.68a593.3,593.3,0,0,0,327.7-13.452l.547,1.64A592.961,592.961,0,0,1,10959.35,881.276Z" fill="#9a6e49"/>
                </g>
                <g id="Group_2647" data-name="Group 2647">
                  <path id="Path_8954" data-name="Path 8954" d="M10959.352,872.629a590.189,590.189,0,0,1-139.2-16.685l.407-1.68a584.642,584.642,0,0,0,322.944-13.2l.547,1.641A584.331,584.331,0,0,1,10959.352,872.629Z" fill="#9a6e49"/>
                </g>
                <g id="Group_2648" data-name="Group 2648">
                  <path id="Path_8955" data-name="Path 8955" d="M10959.351,863.983a581.639,581.639,0,0,1-137.25-16.462l.408-1.68a576.008,576.008,0,0,0,318.2-12.958l.546,1.641A575.688,575.688,0,0,1,10959.351,863.983Z" fill="#9a6e49"/>
                </g>
                <g id="Group_2649" data-name="Group 2649">
                  <path id="Path_8956" data-name="Path 8956" d="M10959.352,855.337a573.006,573.006,0,0,1-135.287-16.236l.407-1.68a567.381,567.381,0,0,0,313.445-12.723l.545,1.641A566.992,566.992,0,0,1,10959.352,855.337Z" fill="#9a6e49"/>
                </g>
                <g id="Group_2650" data-name="Group 2650">
                  <path id="Path_8957" data-name="Path 8957" d="M10959.351,846.691a564.268,564.268,0,0,1-133.311-16.008l.409-1.679a558.756,558.756,0,0,0,308.692-12.493l.545,1.641A558.43,558.43,0,0,1,10959.351,846.691Z" fill="#9a6e49"/>
                </g>
                <g id="Group_2651" data-name="Group 2651">
                  <path id="Path_8958" data-name="Path 8958" d="M10959.351,838.046a555.632,555.632,0,0,1-131.321-15.776l.407-1.68a550.124,550.124,0,0,0,303.943-12.271l.545,1.641A549.8,549.8,0,0,1,10959.351,838.046Z" fill="#9a6e49"/>
                </g>
                <g id="Group_2652" data-name="Group 2652">
                  <path id="Path_8959" data-name="Path 8959" d="M10959.352,829.4a547,547,0,0,1-129.321-15.542l.408-1.68a541.454,541.454,0,0,0,299.191-12.056l.545,1.641A541.11,541.11,0,0,1,10959.352,829.4Z" fill="#9a6e49"/>
                </g>
              </g>
            </g>
          </g>
          <g id="Group_2662" data-name="Group 2662">
            <g id="Group_2656" data-name="Group 2656">
              <circle id="Ellipse_302" data-name="Ellipse 302" cx="6.648" cy="6.648" r="6.648" transform="translate(11024.783 858.938) rotate(-35.187)" fill="#fc3"/>
              <path id="Path_8961" data-name="Path 8961" d="M11034.048,864.6a4.056,4.056,0,1,1,1.317-7.891,4.056,4.056,0,0,1-1.317,7.891Z" fill="#6f3304"/>
            </g>
            <g id="Group_2657" data-name="Group 2657">
              <circle id="Ellipse_303" data-name="Ellipse 303" cx="6.648" cy="6.648" r="6.648" transform="translate(10998.851 858.938) rotate(-35.187)" fill="#fc3"/>
              <path id="Path_8962" data-name="Path 8962" d="M11008.115,864.6a4.056,4.056,0,1,1,1.317-7.891,4.056,4.056,0,0,1-1.316,7.891Z" fill="#6f3304"/>
            </g>
            <g id="Group_2658" data-name="Group 2658">
              <circle id="Ellipse_304" data-name="Ellipse 304" cx="6.648" cy="6.648" r="6.648" transform="matrix(0.817, -0.576, 0.576, 0.817, 10972.918, 858.938)" fill="#fc3"/>
              <path id="Path_8963" data-name="Path 8963" d="M10982.182,864.6a4.056,4.056,0,1,1,1.318-7.891,4.056,4.056,0,0,1-1.317,7.891Z" fill="#6f3304"/>
            </g>
            <g id="Group_2659" data-name="Group 2659">
              <circle id="Ellipse_305" data-name="Ellipse 305" cx="6.648" cy="6.648" r="6.648" transform="matrix(0.817, -0.576, 0.576, 0.817, 10946.984, 858.938)" fill="#fc3"/>
              <path id="Path_8964" data-name="Path 8964" d="M10956.249,864.6a4.056,4.056,0,1,1,1.318-7.891,4.056,4.056,0,0,1-1.317,7.891Z" fill="#6f3304"/>
            </g>
            <g id="Group_2660" data-name="Group 2660">
              <circle id="Ellipse_306" data-name="Ellipse 306" cx="6.648" cy="6.648" r="6.648" transform="matrix(0.817, -0.576, 0.576, 0.817, 10921.052, 858.938)" fill="#fc3"/>
              <path id="Path_8965" data-name="Path 8965" d="M10930.317,864.6a4.056,4.056,0,1,1,1.316-7.891,4.056,4.056,0,0,1-1.316,7.891Z" fill="#6f3304"/>
            </g>
            <g id="Group_2661" data-name="Group 2661">
              <circle id="Ellipse_307" data-name="Ellipse 307" cx="6.648" cy="6.648" r="6.648" transform="matrix(0.817, -0.576, 0.576, 0.817, 10895.119, 858.938)" fill="#fc3"/>
              <path id="Path_8966" data-name="Path 8966" d="M10904.384,864.6a4.056,4.056,0,1,1,1.317-7.891,4.056,4.056,0,0,1-1.317,7.891Z" fill="#6f3304"/>
            </g>
          </g>
          <path id="Path_8967" data-name="Path 8967" d="M10865.009,827.327a3.452,3.452,0,1,0,4.688-1.364A3.452,3.452,0,0,0,10865.009,827.327Z" fill="#6f3304"/>
          <path id="Path_8968" data-name="Path 8968" d="M10877.06,827.327a3.452,3.452,0,1,0,4.688-1.364A3.452,3.452,0,0,0,10877.06,827.327Z" fill="#6f3304"/>
          <g id="Group_2663" data-name="Group 2663">
            <rect id="Rectangle_364" data-name="Rectangle 364" width="4.187" height="111.104" transform="translate(11025.466 739.11)" fill="#9a6e49"/>
            <path id="Path_8969" data-name="Path 8969" d="M11029.706,787.391c7.447-10.808,9.165-29.709.392-39.911l.746-.876c15.334,10.03,17.423,27,0,40.467Z" fill="#666"/>
            <path id="Path_8970" data-name="Path 8970" d="M11029.653,842.8c8.787-14.878,10.813-40.9.462-54.939l.881-1.206c18.092,13.806,20.557,37.162.006,55.705Z" fill="#4d4d4d"/>
            <path id="Path_8971" data-name="Path 8971" d="M11021.537,736.114l.708,5.265h10.627l.709-5.265Z" fill="#9a6e49"/>
            <circle id="Ellipse_308" data-name="Ellipse 308" cx="2.387" cy="2.387" r="2.387" transform="translate(11027.266 744.187)" fill="#743800"/>
            <circle id="Ellipse_309" data-name="Ellipse 309" cx="2.387" cy="2.387" r="2.387" transform="translate(11027.266 784.684)" fill="#743800"/>
          </g>
          <g id="Group_2664" data-name="Group 2664">
            <rect id="Rectangle_365" data-name="Rectangle 365" width="4.805" height="135.766" transform="translate(10952.815 711.356)" fill="#9a6e49"/>
            <path id="Path_8972" data-name="Path 8972" d="M10956.691,747.19c5.048-7.546,6.214-20.743.266-27.866l.5-.612c10.4,7,11.813,18.85,0,28.255Z" fill="#666"/>
            <path id="Path_8973" data-name="Path 8973" d="M10957.2,787.719c7.448-10.809,9.166-29.709.393-39.911l.746-.876c15.333,10.03,17.422,27,0,40.467Z" fill="#4d4d4d"/>
            <path id="Path_8974" data-name="Path 8974" d="M10957.146,843.127c8.786-14.878,10.814-40.9.463-54.94l.88-1.206c18.093,13.807,20.557,37.163.007,55.706Z" fill="#333"/>
            <path id="Path_8975" data-name="Path 8975" d="M10949.2,708.723l.708,5.265h10.627l.709-5.265Z" fill="#9a6e49"/>
            <circle id="Ellipse_310" data-name="Ellipse 310" cx="2.387" cy="2.387" r="2.387" transform="translate(10954.812 785.331)" fill="#743800"/>
            <circle id="Ellipse_311" data-name="Ellipse 311" cx="2.387" cy="2.387" r="2.387" transform="translate(10954.759 744.544)" fill="#743800"/>
            <circle id="Ellipse_312" data-name="Ellipse 312" cx="2.387" cy="2.387" r="2.387" transform="translate(10954.759 717.377)" fill="#743800"/>
          </g>
          <path id="Path_8976" data-name="Path 8976" d="M11093.927,842.065a37.953,37.953,0,0,1-4.478,6.422c-.458.554-.951,1.124-1.5,1.721l-.009.008c-6.924,7.581-20.582,18.447-45.564,25.25-73.451,20-163.014-.622-163.014-.622l-4.9-7.78a56.486,56.486,0,0,1-3.242-5.878,57.409,57.409,0,0,1-5.247-18.058c-.06-.519-.111-1.037-.163-1.556l-10.1-4.815-3.578-13.407-.459-1.738-1.841-6.889h6.44l.068.242.458,1.737,3.579,13.408,10.1,4.814c.052.519.1,1.038.163,1.556a57.4,57.4,0,0,0,5.247,18.058,56.385,56.385,0,0,0,3.242,5.878l4.9,7.78s89.563,20.626,163.014.623c24.982-6.8,38.641-17.669,45.564-25.25l.009-.009C11093.088,843.041,11093.521,842.549,11093.927,842.065Z" fill="#9a6e49" opacity="0.5" style="mix-blend-mode: multiply;isolation: isolate"/>
          <path id="Path_8977" data-name="Path 8977" d="M11094.178,841.572l-.009.017-.035.069a35.4,35.4,0,0,1-4.685,6.829c-.458.554-.951,1.124-1.5,1.721l-137.116.008-.647-4.815h-42.644l-4.08-22.06-17.418.009h-4.184l-23.028.017-6.7-.017-.459-1.738-1.841-6.889,32.027.89,4.184.121,24.9.692,4.088,22.06h42.937l.648,4.815,71.376-.908,4.184-.052.269-.008,1.123-.018Z"/>
          <path id="Path_8978" data-name="Path 8978" d="M11094.178,841.572l-.009.017-.035.069a35.4,35.4,0,0,1-4.685,6.829h-136.882l-.648-4.815h-42.643l-4.08-22.06-19.147.009-4.184.009-23.028.008-7.158-.026-1.841-6.889,32.027-.018h4.513l24.567-.008,4.088,22.06h42.937l.648,4.815Z" fill="#fc3"/>
        </g>
      </g>
    </g>
  </g>
</svg>
