<svg xmlns="http://www.w3.org/2000/svg" width="84.365" height="131.522"><defs><clipPath id="clip-path"><path id="Path_3346" data-name="Path 3346" d="M4277.273 905.2h-.179c-30.569-49.3-7.888-113.942-6.233-113.947l5.89-.02h.11l5.892-.019c1.655-.002 24.764 64.486-5.48 113.986z" fill="#a87c50"/></clipPath></defs><g id="Group_1821" data-name="Group 1821" transform="translate(-915.808 -782.128)"><g id="ship" transform="translate(-3317.106)"><g id="Group_1455" data-name="Group 1455"><g id="Group_1451" data-name="Group 1451"><g id="Group_1437" data-name="Group 1437"><path id="Path_3341" data-name="Path 3341" d="M4275.553 913.247l-.9-1.325a109.9 109.9 0 01-14.241-30.807c-10.575-2.622-16.662-7.6-17.609-14.409l-.029-.2.152-4.258 6.812.274.083-2.262 6.475.334c-.151-1.27-.285-2.55-.4-3.816-9.675-1.749-21.323-5.724-22.578-14.735l-.028-.206.151-4.238 6.759.219-.022-.158.151-4.255 6.812.272.082-2.263 8.489.439c.166-2.33.386-4.691.652-7.028-8.176-2.813-12.925-7.4-13.743-13.268l-.028-.2.151-4.255 6.812.273.083-2.263 10.059.519a116.2 116.2 0 015.641-18.081c1.418-3.377 2.438-4.986 4.4-4.993l13.995-.046c1.965 0 2.993 1.6 4.433 4.965a119.242 119.242 0 016.21 19.949l11.1.573-.063 1.616 6.973.28-.194 4.34c-1.084 6.148-8.528 9.456-14.718 11.169.335 2.881.6 5.79.781 8.656l4.805.248-.063 1.614 6.973.28-.164 3.886 7.082.231-.2 4.356c-1.136 6.436-10.667 9.771-18.584 11.452a140.193 140.193 0 01-.691 6.6l8.24.426-.063 1.616 6.973.28-.193 4.339c-1.324 7.505-12.246 10.817-18.807 12.144a109.8 109.8 0 01-13.89 30.378l-1.014 1.373z"/><path id="Path_3342" data-name="Path 3342" d="M4283.747 782.878c1.743 0 2.7 1.529 4.077 4.737a119.309 119.309 0 016.253 20.161l11.01.569-.064 1.621 6.971.279-.176 3.964c-1.044 5.9-8.268 9.157-14.754 10.909.366 3.093.647 6.2.837 9.29l4.77.246-.063 1.619 6.971.28-.164 3.888 7.081.231-.177 3.977c-1.094 6.177-10.4 9.458-18.562 11.16a139.896 139.896 0 01-.763 7.261l8.275.428-.063 1.621 6.971.279-.177 3.964c-1.276 7.212-11.83 10.468-18.729 11.837a109.475 109.475 0 01-13.9 30.494l-.358.488-.531.715-2.724-.022-.785-1.162a109.557 109.557 0 01-14.251-30.91c-10.55-2.57-16.606-7.449-17.538-14.148l-.028-.2.14-3.816 6.813.273.082-2.257 6.541.338a141.468 141.468 0 01-.479-4.532c-9.921-1.757-21.332-5.687-22.554-14.469l-.029-.205.141-3.8 6.837.222a12.977 12.977 0 01-.062-.395l-.028-.205.141-3.814 6.812.273.082-2.259 8.476.439c.177-2.558.415-5.128.711-7.679-8.218-2.759-12.97-7.255-13.778-13.062l-.028-.205.14-3.813 6.812.272.074-2.26 9.991.517a116.232 116.232 0 015.694-18.327c1.352-3.222 2.3-4.757 4.053-4.763l14-.046h.009m0-.75h-.015l-13.993.046c-2.366.008-3.5 2.269-4.743 5.223a115.985 115.985 0 00-5.589 17.835l-9.365-.484-.76-.039-.028.761-.056 1.507-6.06-.243-.752-.03-.027.752-.141 3.813v.066l.009.066.028.2c.828 5.952 5.564 10.6 13.708 13.472a169.458 169.458 0 00-.594 6.379l-7.741-.4-.76-.039-.028.761-.055 1.507-6.06-.243-.752-.03-.028.752-.135 3.664-5.979-.2-.746-.024-.028.746-.14 3.8v.065l.009.066.028.2c1.013 7.28 8.824 12.462 22.6 15 .1 1.033.2 2.071.324 3.1l-5.652-.292-.76-.039-.028.761-.055 1.505-6.06-.244-.752-.03-.028.752-.141 3.817v.066l.009.065.029.2c.963 6.925 7.074 11.992 17.68 14.668a110.227 110.227 0 0014.229 30.7l.785 1.163.221.327h.4l2.723.022h.382l.227-.307.531-.715.36-.491a110.219 110.219 0 0013.9-30.293c8.008-1.644 17.592-5.114 18.873-12.352l.008-.048v-.049l.177-3.963.034-.753-.753-.03-6.223-.25.035-.871.029-.741-.74-.038-7.467-.386c.246-1.958.454-3.949.619-5.937 11.408-2.459 17.664-6.377 18.6-11.646l.009-.049v-.049l.177-3.977.034-.758-.758-.025-6.324-.206.131-3.132.032-.751-.751-.03-6.222-.249.034-.87.029-.74-.74-.039-4.1-.212a166.62 166.62 0 00-.724-8.023c8.73-2.473 13.8-6.383 14.673-11.33l.009-.049v-.049l.177-3.964.033-.752-.753-.03-6.222-.249.034-.872.029-.74-.739-.039-10.445-.539a119.263 119.263 0 00-6.167-19.737c-1.259-2.942-2.41-5.192-4.766-5.192z" fill="#fff"/></g><g id="Group_1450" data-name="Group 1450"><g id="Group_1442" data-name="Group 1442"><g id="Group_1438" data-name="Group 1438"><path id="Path_3343" data-name="Path 3343" d="M4277.306 909.831h-.212c-35.974-53.573-9.249-123.832-7.3-123.838l6.931-.023h.132l6.932-.023c1.946-.006 29.133 70.075-6.483 123.884z" fill="#9a6e49"/><path id="Path_3344" data-name="Path 3344" d="M4286.288 788.523c7.913 18.484 21.85 76.42-8.279 121.934l-.3.4-1.058-.009-.261-.385c-30.429-45.315-16.873-103.344-9.083-121.879 1.407-3.349 1.934-3.616 2.479-3.617l14-.047c.541-.001 1.072.262 2.502 3.603zm-9.093 119.777c33.146-51.27 9.5-116.875 6.3-121.326l-13.4.045c-3.176 4.473-26.381 70.241 7.1 121.281z" fill="#fc3"/></g><g id="Group_1441" data-name="Group 1441"><path id="Path_3345" data-name="Path 3345" d="M4277.273 905.2h-.179c-30.569-49.3-7.888-113.942-6.233-113.947l5.89-.02h.11l5.892-.019c1.655-.002 24.764 64.486-5.48 113.986z" fill="#a87c50"/><g id="Group_1440" data-name="Group 1440" clip-path="url(#clip-path)"><g id="Group_1439" data-name="Group 1439" fill="none" stroke="#9a6e49" stroke-miterlimit="10" stroke-width="1"><path id="Line_85" data-name="Line 85" transform="translate(4258.627 767.259)" d="M.492 148.972L0 0"/><path id="Line_86" data-name="Line 86" transform="translate(4263.152 767.244)" d="M.492 148.972L0 0"/><path id="Line_87" data-name="Line 87" transform="translate(4267.677 767.229)" d="M.492 148.972L0 0"/><path id="Line_88" data-name="Line 88" transform="translate(4272.203 767.214)" d="M.492 148.972L0 0"/><path id="Line_89" data-name="Line 89" transform="translate(4276.728 767.199)" d="M.492 148.972L0 0"/><path id="Line_90" data-name="Line 90" transform="translate(4281.253 767.184)" d="M.492 148.972L0 0"/><path id="Line_91" data-name="Line 91" transform="translate(4285.779 767.169)" d="M.492 148.972L0 0"/><path id="Line_92" data-name="Line 92" transform="translate(4290.304 767.154)" d="M.492 148.972L0 0"/><path id="Line_93" data-name="Line 93" transform="translate(4294.83 767.139)" d="M.492 148.972L0 0"/></g></g></g></g><g id="Group_1443" data-name="Group 1443"><path id="Rectangle_105" data-name="Rectangle 105" transform="rotate(-87.702 2573.375 -1776.19)" fill="#c3996c" d="M0 0h1.591v65.415H0z"/><path id="Path_3347" data-name="Path 3347" d="M4244.956 866.337c16.21.3 65.361 2.619 65.361 2.619-2.596 14.67-62.585 17.334-65.361-2.619z" fill="#4d4d4d"/><path id="Path_3348" data-name="Path 3348" d="M4279.616 865.487a2.226 2.226 0 00-2.954-1.568 2.8 2.8 0 00-1.353 3.421 2.22 2.22 0 002.953 1.567 2.793 2.793 0 001.354-3.42z" fill="#a87c50"/></g><g id="Group_1444" data-name="Group 1444"><path id="Path_3349" data-name="Path 3349" d="M4303.471 865.447l-51.562-2.666-.059 1.59 51.559 2.664z" fill="#c3996c"/><path id="Path_3350" data-name="Path 3350" d="M4251.85 864.371c16.21.3 51.559 2.664 51.559 2.664-2.598 14.671-48.783 17.289-51.559-2.664z" fill="#666"/><path id="Path_3351" data-name="Path 3351" d="M4278.78 863.549a2.227 2.227 0 00-2.955-1.571 2.8 2.8 0 00-1.353 3.423 2.221 2.221 0 002.953 1.566 2.793 2.793 0 001.355-3.418z" fill="#c3996c"/></g><g id="Group_1445" data-name="Group 1445"><path id="Rectangle_106" data-name="Rectangle 106" transform="rotate(-87.704 2544.565 -1803.595)" fill="#c3996c" d="M0 0h1.59v65.415H0z"/><path id="Path_3352" data-name="Path 3352" d="M4244.773 811.184c16.21.3 65.361 2.619 65.361 2.619-2.596 14.67-62.585 17.334-65.361-2.619z" fill="#4d4d4d"/><path id="Path_3353" data-name="Path 3353" d="M4279.434 810.336a2.224 2.224 0 00-2.955-1.568 2.8 2.8 0 00-1.352 3.421 2.221 2.221 0 002.953 1.566 2.793 2.793 0 001.354-3.419z" fill="#a87c50"/></g><g id="Group_1446" data-name="Group 1446"><path id="Path_3354" data-name="Path 3354" d="M4303.289 810.294l-51.562-2.666-.059 1.59 51.559 2.664z" fill="#c3996c"/><path id="Path_3355" data-name="Path 3355" d="M4251.668 809.218c16.21.3 51.559 2.664 51.559 2.664-2.598 14.671-48.783 17.289-51.559-2.664z" fill="#666"/></g><g id="Group_1447" data-name="Group 1447"><path id="Path_3356" data-name="Path 3356" d="M4314.7 842.654l-79.168-2.575-.059 1.59 79.165 2.573z" fill="#c3996c"/><path id="Path_3357" data-name="Path 3357" d="M4235.47 841.669c16.209.3 79.165 2.573 79.165 2.573-2.598 14.671-76.389 17.382-79.165-2.573z" fill="#333"/><path id="Path_3358" data-name="Path 3358" d="M4277.03 840.8a2.223 2.223 0 00-2.953-1.568 2.793 2.793 0 00-1.352 3.42 2.223 2.223 0 002.953 1.568 2.793 2.793 0 001.352-3.42z" fill="#a87c50"/></g><g id="Group_1448" data-name="Group 1448"><path id="Rectangle_107" data-name="Rectangle 107" transform="rotate(-87.704 2557.048 -1789.184)" fill="#c3996c" d="M0 0h1.59v65.415H0z"/><path id="Path_3359" data-name="Path 3359" d="M4242.358 837.491c16.21.3 65.361 2.619 65.361 2.619-2.596 14.671-62.585 17.336-65.361-2.619z" fill="#4d4d4d"/><path id="Path_3360" data-name="Path 3360" d="M4277.017 836.643a2.223 2.223 0 00-2.953-1.568 2.8 2.8 0 00-1.353 3.421 2.223 2.223 0 002.953 1.568 2.8 2.8 0 001.353-3.421z" fill="#a87c50"/></g><path id="Path_3361" data-name="Path 3361" d="M4278.6 808.4a2.224 2.224 0 00-2.955-1.568 2.8 2.8 0 00-1.353 3.42 2.223 2.223 0 002.953 1.568 2.8 2.8 0 001.355-3.42z" fill="#c3996c"/><g id="Group_1449" data-name="Group 1449"><path id="Path_3362" data-name="Path 3362" d="M4300.874 836.6l-51.562-2.668-.059 1.592 51.559 2.662z" fill="#c3996c"/><path id="Path_3363" data-name="Path 3363" d="M4249.252 835.527c16.212.3 51.559 2.662 51.559 2.662-2.598 14.673-48.783 17.291-51.559-2.662z" fill="#666"/></g><path id="Path_3364" data-name="Path 3364" d="M4278.684 834.694a2.223 2.223 0 00-2.953-1.567 2.794 2.794 0 00-1.353 3.42 2.222 2.222 0 002.953 1.568 2.8 2.8 0 001.353-3.421z" fill="#c3996c"/></g></g></g></g></g></svg>