<svg xmlns="http://www.w3.org/2000/svg" width="113.516" height="114.52"><g id="Group_1354" data-name="Group 1354" transform="translate(-6522.633 -1958.681)"><g id="Group_1353" data-name="Group 1353"><g id="Group_1349" data-name="Group 1349"><path id="Path_3056" data-name="Path 3056" d="M6580.709 2072.7a56.171 56.171 0 01-28.6-7.622 54.761 54.761 0 01-5.741-4.1c-.9-.706-1.81-1.416-2.748-2.1-18.5-13.551-22.338-37.308-19.767-55.023a38.523 38.523 0 012.608-9.113c8.662-21.269 30.709-35.56 54.859-35.56 8.583 0 21.046 1.432 31.673 8.255 8.126 5.217 14.878 14.233 19.012 25.386a73.78 73.78 0 011.873 5.8 55.139 55.139 0 01.059 27.544 66.956 66.956 0 01-3.2 9.426c-6.757 16.452-22.029 34.775-44.632 36.86a59.166 59.166 0 01-5.396.247z"/><path id="Path_3057" data-name="Path 3057" d="M6581.317 1959.681c10.771 0 22.239 2.293 31.4 8.176 8.918 5.726 15.186 15.351 18.814 25.14q1.051 2.838 1.86 5.76a54.615 54.615 0 01.055 27.29 67.342 67.342 0 01-3.173 9.356c-7.616 18.547-23.453 34.637-44.215 36.553q-2.665.246-5.35.245a55.908 55.908 0 01-28.349-7.552c-3.02-1.786-5.6-4.085-8.448-6.174-16.911-12.39-22.464-34.6-19.569-54.547a38.41 38.41 0 012.577-9c8.878-21.8 31.158-35.25 54.4-35.25m0-1c-24.351 0-46.584 14.416-55.322 35.872a38.891 38.891 0 00-2.64 9.231c-2.592 17.858 1.293 41.816 19.966 55.5.93.681 1.849 1.4 2.737 2.094a54.875 54.875 0 005.794 4.134 56.658 56.658 0 0028.858 7.691c1.812 0 3.643-.084 5.442-.25 22.825-2.106 38.236-20.58 45.048-37.168a67.452 67.452 0 003.219-9.5 55.654 55.654 0 00-.063-27.8c-.556-2-1.19-3.962-1.886-5.839-4.171-11.255-10.993-20.359-19.211-25.634-10.729-6.889-23.292-8.335-31.942-8.335z" fill="#fff"/></g><g id="Group_1352" data-name="Group 1352"><g id="Group_1350" data-name="Group 1350"><path id="Path_3058" data-name="Path 3058" d="M6630.208 1999.638c3.564 12.786 1.146 33.876-8.934 41.609-16.75 10.932-39.68 3.573-48.81-11.915-13.882-23.5-1.475-58.169 28.766-62.66 9.849 1.657 23.039 11.662 28.978 32.966zm-7.7 19.777a6.645 6.645 0 002.376-8.981 6.41 6.41 0 00-8.916-2.049 6.642 6.642 0 00-2.36 8.982 6.377 6.377 0 008.892 2.048zm-18.423-15.341a8.479 8.479 0 005.278-10.08 7.156 7.156 0 00-9.08-5.458 8.479 8.479 0 00-5.278 10.08 7.153 7.153 0 009.076 5.458zm-.819 25.274a6.541 6.541 0 003.786-7.753 5.176 5.176 0 00-7-3.507 6.539 6.539 0 00-3.786 7.752 5.176 5.176 0 006.996 3.508z" fill="#ffdb65"/><path id="Path_3059" data-name="Path 3059" d="M6620.029 2010.122a4.55 4.55 0 012.819 5 3.2 3.2 0 01-4.409 2.278 4.481 4.481 0 01-2.819-4.983 3.206 3.206 0 014.409-2.295z" fill="#ff650f"/><path id="Path_3060" data-name="Path 3060" d="M6622.849 2015.121a3.2 3.2 0 01-4.41 2.28 4.578 4.578 0 01-2.71-2.91 3.969 3.969 0 001.01.55 3.184 3.184 0 004.4-2.28 4.089 4.089 0 00-.13-2.11 4.537 4.537 0 011.84 4.47z" fill="#ff650f" opacity=".3" style="mix-blend-mode:multiply;isolation:isolate"/><path id="Path_3061" data-name="Path 3061" d="M6622.848 2015.117a3.193 3.193 0 01-4.41 2.28 4.448 4.448 0 01-2.18-1.78 4.039 4.039 0 001.24.72 3.19 3.19 0 004.41-2.28 4.224 4.224 0 00-.66-3.21 4.473 4.473 0 011.6 4.27z" fill="#ff650f" opacity=".3" style="mix-blend-mode:multiply;isolation:isolate"/><path id="Path_3062" data-name="Path 3062" d="M6605.609 2022.3a4.548 4.548 0 01-3.228 4.745 3.2 3.2 0 01-4-2.939 4.482 4.482 0 013.214-4.738 3.206 3.206 0 014.014 2.932z" fill="#ff650f"/><path id="Path_3063" data-name="Path 3063" d="M6602.381 2027.042a3.2 3.2 0 01-4-2.94 4.578 4.578 0 011.4-3.72 3.983 3.983 0 00-.044 1.149 3.183 3.183 0 004 2.931 4.085 4.085 0 001.833-1.053 4.535 4.535 0 01-3.189 3.633z" fill="#ff650f" opacity=".3" style="mix-blend-mode:multiply;isolation:isolate"/><path id="Path_3064" data-name="Path 3064" d="M6602.384 2027.039a3.192 3.192 0 01-4-2.939 4.454 4.454 0 01.627-2.744 4.055 4.055 0 00-.1 1.431 3.19 3.19 0 004 2.939 4.22 4.22 0 002.583-2.016 4.473 4.473 0 01-3.11 3.329z" fill="#ff650f" opacity=".3" style="mix-blend-mode:multiply;isolation:isolate"/><path id="Path_3065" data-name="Path 3065" d="M6607.244 1994.961c.705 3.033-.868 6.229-3.474 7.13-2.623.9-5.31-.82-6-3.868-.705-3.032.852-6.228 3.475-7.13s5.311.837 5.999 3.868z" fill="#ff650f"/><path id="Path_3066" data-name="Path 3066" d="M6598.707 1998.286c-.705-3.032.853-6.229 3.475-7.13a4.3 4.3 0 011.216-.227 4.226 4.226 0 00-2.152.163c-2.623.9-4.18 4.1-3.475 7.13a4.858 4.858 0 004.775 4.1 5.03 5.03 0 01-3.839-4.036z" fill="#ff650f" opacity=".5" style="mix-blend-mode:multiply;isolation:isolate"/><path id="Path_3067" data-name="Path 3067" d="M6601.089 1998.62a5.386 5.386 0 002.47 3.531c-2.55.75-5.12-.961-5.79-3.931-.7-3.03.86-6.23 3.48-7.13a4.252 4.252 0 013.53.34 1.656 1.656 0 00-.21.06c-2.63.91-4.18 4.1-3.48 7.13z" fill="#ff650f" opacity=".3" style="mix-blend-mode:multiply;isolation:isolate"/><path id="Path_3068" data-name="Path 3068" d="M6569.629 2031.43c9.309 15.767 31.731 23.8 49.547 15.095-10 23.831-42.057 28.027-65.036 15.112a82.016 82.016 0 0017.521-2.049 120.293 120.293 0 01-20 .574 50.1 50.1 0 01-8.262-6.524 80.054 80.054 0 0021.39.344c-7.687-.082-16.21-.573-23.274-2.294a50.555 50.555 0 01-5.163-6.769 80.851 80.851 0 0021.078 1.36c-7.343-.443-15.44-1.311-22.226-3.2a59.224 59.224 0 01-3.408-6.54 79 79 0 0022.618 1.721c-7.752-.475-16.373-1.409-23.372-3.54a54.536 54.536 0 01-1.935-5.655 81.947 81.947 0 0019.849 1.115 118.578 118.578 0 01-20.275-2.688 53.026 53.026 0 01-1.163-5.917 79.061 79.061 0 0022.241 1.344c-7.409-.36-15.6-1.115-22.454-2.95a52.76 52.76 0 01-.295-6.441 83.564 83.564 0 0018.357 1.245 127.9 127.9 0 01-18.325-2.655c.082-1.672.23-3.343.459-5a83.394 83.394 0 0013.7.541c-4.393-.361-9.048-.885-13.523-1.672a50.39 50.39 0 011.2-5.376 78.927 78.927 0 0011.293.262c-3.573-.278-7.31-.672-11-1.245a47.628 47.628 0 012.361-6.163 77.781 77.781 0 009.555.131c-2.984-.246-6.081-.557-9.162-.983a51.162 51.162 0 0116.5-19.242 57.649 57.649 0 0145.975-8.818c-28.114 8.626-38.85 43.013-24.771 66.877z" fill="#ff650f"/></g><path id="Path_3069" data-name="Path 3069" d="M6622.222 2032.647c-16.75 10.931-39.679 3.57-48.81-11.92a41.473 41.473 0 01-5.65-20.73 42.458 42.458 0 004.71 30.31c9.13 15.49 32.061 22.85 48.811 11.92 7-5.37 10.3-17.17 10.469-28.17-1.452 7.71-4.552 14.78-9.53 18.59z" fill="#ffdb65" style="mix-blend-mode:multiply;isolation:isolate"/><path id="Path_3070" data-name="Path 3070" d="M6630.2 1999.638c-3.352-12.021-9.012-20.443-15.078-25.8a63.845 63.845 0 014.756 12.247 53.119 53.119 0 01.861 21.438 6.213 6.213 0 014.133 2.911 6.646 6.646 0 01-2.376 8.981 6.562 6.562 0 01-5.577.655 21.761 21.761 0 01-5.974 7.624c-12.967 8.463-29.633 5.959-40.738-2.787a39.832 39.832 0 002.249 4.424c9.13 15.49 32.06 22.848 48.81 11.917 10.082-7.733 12.5-28.824 8.934-41.61z" fill="#ffdb65" opacity=".45" style="mix-blend-mode:multiply;isolation:isolate"/><ellipse id="Ellipse_45" data-name="Ellipse 45" cx="1.341" cy="1.077" rx="1.341" ry="1.077" transform="rotate(-37.713 6254.076 -8680.267)" fill="#ffdb65" opacity=".2" style="mix-blend-mode:screen;isolation:isolate"/><ellipse id="Ellipse_46" data-name="Ellipse 46" cx="1.077" cy="1.341" rx="1.077" ry="1.341" transform="rotate(-63.162 4944.77 -4358.547)" fill="#ffdb65" opacity=".2" style="mix-blend-mode:screen;isolation:isolate"/><ellipse id="Ellipse_47" data-name="Ellipse 47" cx=".701" cy=".825" rx=".701" ry=".825" transform="rotate(-63.162 4923.997 -4353.078)" fill="#ffdb65" opacity=".2" style="mix-blend-mode:screen;isolation:isolate"/><ellipse id="Ellipse_48" data-name="Ellipse 48" cx="1.341" cy="1.077" rx="1.341" ry="1.077" transform="rotate(-81.49 4461.54 -2834.16)" fill="#ffdb65" opacity=".2" style="mix-blend-mode:screen;isolation:isolate"/><g id="Group_1351" data-name="Group 1351" opacity=".5" style="mix-blend-mode:multiply;isolation:isolate" fill="#ff650f"><path id="Path_3071" data-name="Path 3071" d="M6535.115 2007.693a90.695 90.695 0 01-7.609-.569 56.797 56.797 0 00-.459 5c2.718.64 5.576 1.148 8.455 1.562a51.479 51.479 0 01-.387-5.993z"/><path id="Path_3072" data-name="Path 3072" d="M6535.62 2014.62a81.394 81.394 0 01-8.6-1.088 52.784 52.784 0 00.295 6.442 77.794 77.794 0 009.871 1.874 50.8 50.8 0 01-1.566-7.228z"/><path id="Path_3073" data-name="Path 3073" d="M6536.994 1993.683a83.858 83.858 0 01-5.455-.212 47.622 47.622 0 00-2.361 6.162c2.137.333 4.288.6 6.417.823a50.644 50.644 0 011.399-6.773z"/><path id="Path_3074" data-name="Path 3074" d="M6547.473 1974.109a50.972 50.972 0 00-15.541 18.509c1.734.24 3.468.437 5.19.613a51.02 51.02 0 0110.351-19.122z"/><path id="Path_3075" data-name="Path 3075" d="M6535.531 2000.957a84.721 84.721 0 01-6.648-.34 50.135 50.135 0 00-1.2 5.375c2.448.431 4.948.777 7.431 1.067a51.73 51.73 0 01.417-6.102z"/><path id="Path_3076" data-name="Path 3076" d="M6586.258 2058.586a50.936 50.936 0 01-33.057-12.131 80.222 80.222 0 01-16.844-1.536 50.555 50.555 0 005.163 6.769c7.064 1.721 15.587 2.213 23.274 2.295a80.135 80.135 0 01-21.39-.344 50.042 50.042 0 008.262 6.523 120.213 120.213 0 0020-.573 82.028 82.028 0 01-17.521 2.048c22.952 12.9 54.961 8.727 65-15.03a50.935 50.935 0 01-32.887 11.979z"/><path id="Path_3077" data-name="Path 3077" d="M6545.522 2038.36a71.781 71.781 0 01-13.721-1.816 59.224 59.224 0 003.408 6.54 98.5 98.5 0 0017.377 2.838 51.417 51.417 0 01-7.064-7.562z"/><path id="Path_3078" data-name="Path 3078" d="M6537.516 2022.966a65.761 65.761 0 01-9.993-1.386 53.026 53.026 0 001.163 5.917 94.008 94.008 0 0011.383 1.93 50.9 50.9 0 01-2.553-6.461z"/><path id="Path_3079" data-name="Path 3079" d="M6540.5 2030.3a79.614 79.614 0 01-11.39-1.225 54.51 54.51 0 001.935 5.654 81.462 81.462 0 0013.78 2.693 51.062 51.062 0 01-4.325-7.122z"/></g></g></g></g></svg>