<svg xmlns="http://www.w3.org/2000/svg" width="113.186" height="100.877"><defs><linearGradient id="linear-gradient" x1="-.091" y1=".109" x2=".959" y2=".796" gradientUnits="objectBoundingBox"><stop offset="0" stop-color="#00ffd5"/><stop offset="1" stop-color="#01cb2d"/></linearGradient></defs><g id="Group_1371" data-name="Group 1371" transform="translate(-6832.431 -2365.82)"><g id="Group_1370" data-name="Group 1370"><path id="Path_3232" data-name="Path 3232" d="M6936.975 2433.319c-3-5.387-29.755-25.164-46.7-35.307l-1.024-.663a26.773 26.773 0 00-.2-8.1c10.988 7.029 41.739 22.087 54.012 25.266-4.547-5.96-20.541-18.056-31.382-24.694-6.233-3.817-12.585-7.68-19.049-11.054-10.5-5.478-19.461-13.065-32.068-11.812-17.768 1.766-32.263 20.379-25.143 37.949 3.837 9.469 12.4 15.638 20.246 21.62 10.208 7.783 34.552 31.741 47.046 38.054-4.459-10.551-19.81-25.943-36.542-43.31a28.683 28.683 0 004.244-1.088l1.017.727c8.153 5.835 36.181 25.7 48.586 29.456-5.518-10.728-26.125-25.8-39.261-36.414a28.03 28.03 0 005.419-7.035c8.766 5.486 37.731 23.756 50.799 26.405z" stroke="#fff" stroke-miterlimit="10" stroke-width="2"/><path id="Path_3233" data-name="Path 3233" d="M6887.3 2393.938c0 14.871-11.434 26.926-25.538 26.926s-25.538-12.055-25.538-26.926a26.149 26.149 0 0126.067-26.3c14.101 0 25.009 11.429 25.009 26.3z" fill="url(#linear-gradient)"/><path id="Path_3234" data-name="Path 3234" d="M6887.3 2393.934c0 14.87-11.43 26.93-25.54 26.93-12.65 0-23.17-9.71-25.19-22.46a24.616 24.616 0 0015.18 5.26c14.1 0 25.53-12.05 25.53-26.92a28.816 28.816 0 00-.32-4.3 26.412 26.412 0 0110.34 21.49z" fill="#01cb2d" opacity=".7" style="mix-blend-mode:multiply;isolation:isolate"/><path id="Path_3235" data-name="Path 3235" d="M6887.3 2393.934c0 14.87-11.43 26.93-25.54 26.93s-25.54-12.06-25.54-26.93a27.98 27.98 0 012.54-11.72c.77 14.14 11.89 25.37 25.49 25.37a25.476 25.476 0 0023.01-15.23c.026.52.04 1.046.04 1.58z" fill="#615a00" opacity=".3" style="mix-blend-mode:multiply;isolation:isolate"/><path id="Path_3236" data-name="Path 3236" d="M6936.975 2433.319c-3-5.387-29.755-25.164-46.7-35.307l-1.024-.663a26.773 26.773 0 00-.2-8.1c10.988 7.029 41.739 22.087 54.012 25.266-4.547-5.96-20.541-18.056-31.382-24.694-6.233-3.817-12.585-7.68-19.049-11.054-10.5-5.478-19.461-13.065-32.068-11.812-17.768 1.766-32.263 20.379-25.143 37.949 3.837 9.469 12.4 15.638 20.246 21.62 10.208 7.783 34.552 31.741 47.046 38.054-4.459-10.551-19.81-25.943-36.542-43.31a28.683 28.683 0 004.244-1.088l1.017.727c8.153 5.835 36.181 25.7 48.586 29.456-5.518-10.728-26.125-25.8-39.261-36.414a28.03 28.03 0 005.419-7.035c8.766 5.486 37.731 23.756 50.799 26.405zm-80.332-63.523c-.7 15.872-9.9 30.222-17.014 37.543-9.3-14.667 1.357-33.622 17.014-37.539zm-16.063 38.939c7.562-7.753 17.8-23.485 17.9-39.319a23.683 23.683 0 0110.43.558c-.305 20.262-14.629 38.71-22.305 44.521a24.044 24.044 0 01-6.025-5.76zm30.2-38.139a24.71 24.71 0 019.4 6.471c-1.028 19.348-14.958 36.819-21.924 41.627a26 26 0 01-9.934-3.134c7.597-5.582 22.772-25.286 22.455-44.96zm4.808 43.873a26.175 26.175 0 01-14.743 4.378c7.27-6.09 19.78-22.825 20.871-39.966a24.6 24.6 0 01-6.131 35.588z"/><g id="Group_1367" data-name="Group 1367" fill="#bbd25f"><path id="Path_3237" data-name="Path 3237" d="M6934.811 2409.775c-11.216-4.809-35.056-17.623-46.3-24.094a27.111 27.111 0 00-4.263-8.538c17.017 10.157 40.235 24.981 50.563 32.632z"/><path id="Path_3238" data-name="Path 3238" d="M6934.811 2409.775c-11.216-4.809-35.056-17.623-46.3-24.094a27.111 27.111 0 00-4.263-8.538c8.422 11.629 45.952 28.495 50.563 32.632z" style="mix-blend-mode:multiply;isolation:isolate"/></g><g id="Group_1368" data-name="Group 1368" fill="#bbd25f"><path id="Path_3239" data-name="Path 3239" d="M6929.33 2428.375c-9.617-4.377-31.072-17.217-42.034-24.093a27.578 27.578 0 001.5-4.277c14.372 9.295 31.741 21.874 40.534 28.37z"/><path id="Path_3240" data-name="Path 3240" d="M6902.195 2413.367a794.127 794.127 0 01-14.9-9.085 27.578 27.578 0 001.5-4.277c2.936 1.954 1.918 4.143 13.4 13.362z" style="mix-blend-mode:multiply;isolation:isolate"/></g><g id="Group_1369" data-name="Group 1369" fill="#bbd25f"><path id="Path_3241" data-name="Path 3241" d="M6915.551 2446.911c-9.731-6.2-32.531-21.175-42.618-28.394a29 29 0 005.494-3.249c13.398 10.798 29.207 24.285 37.124 31.643z"/><path id="Path_3242" data-name="Path 3242" d="M6872.933 2418.517a29 29 0 005.494-3.249c4.686 3.777 14.5 11.94 14.5 11.94s-10.853-5.97-19.994-8.691z" style="mix-blend-mode:multiply;isolation:isolate"/></g><path id="Path_3243" data-name="Path 3243" d="M6897.636 2459.142c-9.274-7.752-32.823-28.813-42.643-38.278a30.689 30.689 0 007.626.342c12.738 13.194 27.62 28.894 35.017 37.936z" fill="#bbd25f"/><path id="Path_3244" data-name="Path 3244" d="M6897.636 2459.142c-9.274-7.752-30.073-34.37-42.643-38.278a30.689 30.689 0 007.626.342c12.738 13.194 27.62 28.894 35.017 37.936z" fill="#bbd25f" style="mix-blend-mode:multiply;isolation:isolate"/></g></g></svg>