<svg xmlns="http://www.w3.org/2000/svg" width="139.152" height="136.756"><g id="Group_1239" data-name="Group 1239" transform="translate(-6284.448 -2118.563)"><g id="Group_1238" data-name="Group 1238"><path id="Path_2735" data-name="Path 2735" d="M6421.911 2210.658l-23.768-26.751a12.642 12.642 0 00-12.247-3.932l-.65.147-2.85-12.568a1.776 1.776 0 00-2.125-1.34l-3.884.881-1.523-6.715c.606-.1 1.186-.213 1.732-.336 5.512-1.25 11.085-4.219 12.687-6.76 2.893-4.59-3.271-11.979-11.156-17.277l3.776-6.142a5.743 5.743 0 10-3.011-1.885l-3.781 6.151c-6.324-3.628-12.634-5.389-16.458-4.522a5.174 5.174 0 00-3.4 2.223c-1.389 2.2-1.806 7.45-.993 12.479 1.051 6.492 3.9 11.5 8.019 14.095.171.109.345.211.519.31l2.471 10.9-24.423 5.537a1.777 1.777 0 00-1.34 2.125l2.85 12.568-12.065 2.736 1.42-14.837a8.635 8.635 0 00-3.881-15.434l-6.686-9.373.857-.506a10.183 10.183 0 003.87-13.437c-.24-.465-.507-.942-.792-1.418l-.107-.176-.015-.025a10.173 10.173 0 00-13.843-3.428l-23.075 13.622a7.317 7.317 0 00-2.578 10.008l3.476 5.888a7.3 7.3 0 0010.008 2.578l12.872-7.6 6.636 9.3a8.612 8.612 0 002.251 9.487l-1.715 17.91-1.862.423a12.643 12.643 0 00-9.353 8.829l-9.906 34.386a6.669 6.669 0 007.883 8.35l6.528-1.48a15.778 15.778 0 0030.306-6.872l4.337-.983a15.778 15.778 0 0030.306-6.871l4.338-.984a15.778 15.778 0 0030.306-6.871l6.528-1.48a6.67 6.67 0 003.511-10.933z" fill="#fff"/><g id="_15" data-name="15"><path id="Path_2736" data-name="Path 2736" d="M6421.911 2210.658l-23.768-26.751a12.642 12.642 0 00-12.247-3.932l-.65.147-2.85-12.568a1.777 1.777 0 00-2.125-1.34l-3.884.881-1.523-6.715c.606-.1 1.186-.213 1.732-.336 5.512-1.25 11.085-4.219 12.687-6.76 2.893-4.59-3.271-11.979-11.156-17.277l3.776-6.142a5.743 5.743 0 10-3.011-1.885l-3.781 6.151c-6.324-3.628-12.633-5.389-16.458-4.522a5.174 5.174 0 00-3.4 2.223c-1.389 2.2-1.806 7.45-.992 12.479 1.05 6.492 3.9 11.5 8.018 14.095.171.109.345.211.519.31l2.471 10.9-24.423 5.537a1.777 1.777 0 00-1.34 2.125l2.85 12.568-12.065 2.736 1.42-14.837a8.635 8.635 0 00-3.881-15.434l-6.686-9.372.857-.507a10.183 10.183 0 003.87-13.437c-.24-.465-.507-.942-.792-1.418l-.107-.176-.015-.025a10.173 10.173 0 00-13.843-3.428l-23.075 13.622a7.317 7.317 0 00-2.578 10.008l3.476 5.888a7.3 7.3 0 0010.008 2.578l12.872-7.6 6.636 9.3a8.612 8.612 0 002.251 9.487l-1.715 17.91-1.862.423a12.643 12.643 0 00-9.353 8.829l-9.906 34.386a6.669 6.669 0 007.883 8.35l6.528-1.48a15.778 15.778 0 0030.306-6.872l4.337-.983a15.778 15.778 0 0030.306-6.871l4.338-.984a15.778 15.778 0 0030.306-6.871l6.528-1.48a6.67 6.67 0 003.511-10.933zm-39.1-88.488a2.184 2.184 0 11-1.647 2.613 2.187 2.187 0 011.645-2.613zm-9.556 14.986l-1.9 3.092a1.776 1.776 0 103.026 1.86l1.89-3.073c7.006 4.736 10.519 9.9 10.163 11.936a1.781 1.781 0 00-.255.3c-.9.619-6.8-.188-15.733-5.82s-12.207-10.6-12.036-11.684a1.859 1.859 0 00.158-.346 2.638 2.638 0 01.876-.35c2.4-.543 7.619.545 13.809 4.085zm-15.486 6.587a28.656 28.656 0 01-.366-4.574c.222.27.453.544.7.824a56.057 56.057 0 0023.617 14.525 28.221 28.221 0 01-5.909 2.061 24.053 24.053 0 01-2.731.46 1.778 1.778 0 00-.795 0 1.7 1.7 0 00-.278.09 13.212 13.212 0 01-7.834-1.725c-4.379-2.764-5.893-8.493-6.406-11.661zm9.022 16.512a18.832 18.832 0 004.507.45l1.627 7.176-4.189.949zm-23.426 17.97l35.961-8.153 2.457 10.836-35.961 8.153zm-11.888-8.5a5.087 5.087 0 11-6.086-3.837 5.094 5.094 0 016.084 3.835zm-18.555-32.716a6.619 6.619 0 019.02 2.245l.092.15c.247.413.477.825.683 1.224a6.628 6.628 0 01-2.52 8.747l-19.126 11.291a13.7 13.7 0 00-4.569-10.27 16.676 16.676 0 00-2.79-2.046zM6292 2161.66l-3.477-5.888a3.76 3.76 0 011.325-5.143l.23-.135c2.154.856 8.46 4.1 7.292 12.356l-.228.134a3.746 3.746 0 01-5.142-1.324zm26.076-6.909l5.65 7.92a8.6 8.6 0 00-3.16 1.917l-5.676-7.956zm6.017 24.385a8.565 8.565 0 003.9.224l-1.345 14.049-4.006.908zm5.438 72.326a12.23 12.23 0 119.223-14.631 12.243 12.243 0 01-9.226 14.631zm34.644-7.854a12.23 12.23 0 119.223-14.632 12.244 12.244 0 01-9.226 14.632zm34.643-7.855a12.23 12.23 0 119.223-14.632 12.243 12.243 0 01-9.226 14.632zm21.077-19.713a3.088 3.088 0 01-2.278 2.086l-6.309 1.431a15.783 15.783 0 00-30.744 6.97l-3.9.885a15.783 15.783 0 00-30.744 6.97l-3.9.884a15.782 15.782 0 00-30.743 6.971l-6.31 1.43a3.115 3.115 0 01-3.683-3.9l9.906-34.385a9.089 9.089 0 016.725-6.349l3.115-.706 7.653-1.736 16.193-3.671 39.425-8.939 2.383-.54a9.09 9.09 0 018.8 2.827l23.768 26.751a3.089 3.089 0 01.64 3.021z"/><path id="Path_2737" data-name="Path 2737" d="M6325.193 2232.339a7.379 7.379 0 108.827 5.565 7.388 7.388 0 00-8.827-5.565zm2.477 10.928a3.826 3.826 0 112.886-4.578 3.832 3.832 0 01-2.886 4.578z"/><path id="Path_2738" data-name="Path 2738" d="M6359.836 2224.484a7.379 7.379 0 108.827 5.565 7.387 7.387 0 00-8.827-5.565zm2.478 10.928a3.826 3.826 0 112.885-4.578 3.831 3.831 0 01-2.885 4.578z"/><path id="Path_2739" data-name="Path 2739" d="M6394.479 2216.63a7.379 7.379 0 108.828 5.564 7.386 7.386 0 00-8.828-5.564zm2.478 10.927a3.826 3.826 0 112.885-4.577 3.831 3.831 0 01-2.885 4.577z"/><path id="Path_2740" data-name="Path 2740" d="M6386.034 2191.089l-64.238 14.564a1.777 1.777 0 00-1.339 2.125l2.385 10.52a1.776 1.776 0 002.125 1.339l64.238-14.564a1.776 1.776 0 001.339-2.125l-2.385-10.52a1.776 1.776 0 00-2.125-1.339zm.653 10.912l-60.773 13.779-1.6-7.055 60.773-13.779z"/><path id="Path_2741" data-name="Path 2741" d="M6303.914 2149.967a1.781 1.781 0 00.521-.209l10.23-6.135a1.776 1.776 0 00-1.827-3.047l-10.23 6.135a1.776 1.776 0 001.306 3.256z"/></g></g></g></svg>