<svg xmlns="http://www.w3.org/2000/svg" width="142.751" height="85.596"><defs><clipPath id="clip-path"><path id="Path_656" data-name="Path 656" d="M3466.821 6039.944c.115-.672-.338-1.192-.43-1.8-.052-.345.1-.993-.245-1.142-.172-1.631-1.214-2.731-2.688-3.732-2.36-1.6-5.611.07-6.82 2.331q-.069.122-.129.258a.739.739 0 00-.064.282 6.388 6.388 0 00-1.933 4.269.72.72 0 00-.2.486 9.941 9.941 0 000 1.673c.056.362.076.672.162 1.021.011.144.117.341.139.485a.927.927 0 00.015.27 8.028 8.028 0 003.99 5.065c2.42 1.328 3.9.008 5.771-1.847.348-.345.877-.691 1.048-1.153.31-.26.5-1.039.714-1.372a3.374 3.374 0 00.452-1.4c.032-.233.364-.843.182-.976.22-.627-.068-.93.058-1.64.037-.205.106-.941-.022-1.078z" fill="none"/></clipPath><clipPath id="clip-path-2"><path id="Path_657" data-name="Path 657" d="M3489.687 6042.066a.678.678 0 00-.082-.193 11.846 11.846 0 00-.242-2.347 7.5 7.5 0 00-7.226-5.94 2.155 2.155 0 00-.237.013 4.985 4.985 0 00-3.642.866c-1.574.205-2.644 1.671-3.466 3.023a8.861 8.861 0 00-1.355 5.793.68.68 0 00-.019.144c.058 2.563.826 5.859 2.9 7.577a5.981 5.981 0 004.1 1.294 2.86 2.86 0 001.955.222 5.307 5.307 0 003.948-1.806 1.486 1.486 0 00.612-.355 9.384 9.384 0 001.871-2.642 4.732 4.732 0 00.484-1.274.782.782 0 000-.414 6.347 6.347 0 00.399-3.961z" fill="none"/></clipPath></defs><g id="head" transform="translate(-3403.249 -5996.203)" opacity=".8"><path id="Path_647" data-name="Path 647" d="M3500.154 6078.3l1.316-1.031.245.164c2.788 1.863 5.7 1.549 8.174.995.937-.209 1.865-.37 2.848-.541a26.264 26.264 0 008.644-2.616c-.812.092-1.348.152-1.86.243-1.027.183-2.053.38-3.078.579-1.761.34-3.581.692-5.388.959-4.548.672-4.731.594-9.339-1.384l-1.143.953c-.973.811-1.913 1.593-2.842 2.389a4.575 4.575 0 01-5.384.844c-1-.489-2.062-.91-2.995-1.283-.347-.138-.68-.27-.993-.4-.721.178-1.412.354-2.082.524-1.514.385-2.945.749-4.382 1.044-2.763.567-6.639.788-8.382-3.836a1.673 1.673 0 01-.362-.112c-.14-.051-.3-.109-.462-.181-.486.213-.984.437-1.492.665-1.3.588-2.649 1.194-4.046 1.719-4.894 1.839-6.1 1.545-9.439-2.543-.517.154-1.041.307-1.568.461-1.386.4-2.82.824-4.223 1.287-4.459 1.475-7.945 1.518-11.3.142a2.615 2.615 0 00-1.115-.045l-.2.017.032.089a1.563 1.563 0 00.2.456 8.128 8.128 0 006.735 1.619c.44-.091.883-.177 1.326-.263a27.384 27.384 0 004.354-1.087c2.061-.766 4.487-1.252 6.854.963a4.352 4.352 0 004.187.771c1.724-.447 3.44-.925 5.155-1.408.794-.223 1.584-.46 2.482-.729l1.7-.507.145.324c1.658 3.7 4.8 3.52 8.126 3.327l.284-.017a9.846 9.846 0 003.036-.506 8.6 8.6 0 013.225-.667 7.955 7.955 0 014.3 1.325c2.067 1.3 4.107 1.021 6.419-.884a79.839 79.839 0 012.288-1.819z" fill="#666"/><path id="Path_648" data-name="Path 648" d="M3456.539 6064.723l-1.328-1.015-.243.166c-2.765 1.9-5.678 1.617-8.161 1.093-.94-.2-1.87-.347-2.855-.506a26.268 26.268 0 01-8.674-2.513c.813.082 1.349.136 1.862.22 1.029.171 2.057.357 3.085.543 1.765.319 3.589.649 5.4.9 4.555.617 4.737.537 9.322-1.5l1.154.939c.983.8 1.932 1.57 2.871 2.354a4.574 4.574 0 005.393.78c1-.5 2.051-.934 2.98-1.318.345-.142.677-.279.988-.412.723.169 1.416.337 2.088.5 1.518.368 2.953.714 4.394.992 2.769.534 6.648.709 8.336-3.935a1.742 1.742 0 00.36-.117c.14-.053.295-.113.46-.186.489.207.989.425 1.5.647 1.309.572 2.663 1.162 4.066 1.67 4.916 1.78 6.123 1.472 9.408-2.656q.779.222 1.574.443c1.391.388 2.829.79 4.238 1.236 4.476 1.422 7.962 1.423 11.3.006a2.616 2.616 0 011.114-.057l.2.014-.031.09a1.545 1.545 0 01-.193.458 8.122 8.122 0 01-6.714 1.7 92.013 92.013 0 00-1.33-.246 27.481 27.481 0 01-4.366-1.036c-2.07-.741-4.5-1.2-6.842 1.045a4.352 4.352 0 01-4.178.821 258.24 258.24 0 01-5.171-1.346c-.8-.213-1.59-.441-2.491-.7l-1.705-.487-.142.326c-1.613 3.724-4.757 3.577-8.085 3.423l-.285-.013a9.807 9.807 0 01-3.042-.47 8.6 8.6 0 00-3.232-.628 7.959 7.959 0 00-4.287 1.377c-2.051 1.325-4.094 1.07-6.429-.807a91.339 91.339 0 00-2.309-1.795z" fill="#666"/><path id="Path_649" data-name="Path 649" d="M3526.708 6072.43a5.689 5.689 0 01-5-4.092 1.663 1.663 0 01-.362-.111c-.14-.052-.3-.11-.462-.181-.486.212-.984.436-1.492.665-1.3.587-2.649 1.193-4.046 1.718-4.894 1.839-6.1 1.545-9.438-2.543q-.777.231-1.569.461c-1.386.4-2.82.824-4.223 1.287-4.459 1.475-7.945 1.518-11.305.142a2.627 2.627 0 00-1.114-.045l-.2.017.032.09a1.588 1.588 0 00.2.455 8.129 8.129 0 006.735 1.619c.44-.091.883-.177 1.326-.262a27.373 27.373 0 004.354-1.088c2.061-.766 4.487-1.252 6.854.963a4.352 4.352 0 004.187.771c1.724-.447 3.44-.925 5.155-1.407.794-.223 1.584-.461 2.482-.73l1.7-.507.145.324a5.128 5.128 0 003.8 3.21 58.336 58.336 0 002.241-.756z" fill="#666"/><path id="Path_650" data-name="Path 650" d="M3541.864 6063.952a3.663 3.663 0 002.4.969q.87-.49 1.735-.986c-1.867.021-3.126-1.046-5.226-3.622-.518.154-1.042.307-1.569.462-1.386.4-2.819.823-4.223 1.287-4.459 1.474-7.945 1.517-11.3.141a2.606 2.606 0 00-1.114-.044l-.2.016.032.09a1.549 1.549 0 00.2.455 8.128 8.128 0 006.734 1.62c.44-.092.883-.177 1.326-.263a27.441 27.441 0 004.354-1.088c2.058-.765 4.487-1.252 6.851.963z" fill="#666"/><path id="Path_651" data-name="Path 651" d="M3499.851 6059.265a5.69 5.69 0 004.995-4.092 1.688 1.688 0 00.361-.112c.141-.051.3-.109.463-.181.486.213.983.437 1.491.665 1.3.588 2.649 1.194 4.046 1.719 4.9 1.839 6.106 1.545 9.439-2.543q.776.231 1.569.461c1.386.4 2.819.824 4.223 1.287 4.458 1.475 7.945 1.518 11.3.141a2.634 2.634 0 011.115-.044l.2.017-.031.089a1.572 1.572 0 01-.2.456 8.126 8.126 0 01-6.734 1.619c-.44-.091-.883-.177-1.326-.263a27.358 27.358 0 01-4.354-1.087c-2.061-.766-4.487-1.252-6.855.963a4.351 4.351 0 01-4.187.771 258.327 258.327 0 01-5.154-1.408c-.794-.223-1.585-.46-2.483-.729l-1.7-.507-.146.324a5.127 5.127 0 01-3.8 3.21 63.647 63.647 0 01-2.232-.756z" fill="#666"/><path id="Path_652" data-name="Path 652" d="M3540.1 6046.755c-.812.092-1.348.152-1.859.242-1.028.184-2.053.381-3.079.58-1.76.34-3.581.692-5.388.959-4.548.672-4.731.594-9.34-1.384l-1.143.953c-.973.811-1.913 1.593-2.842 2.389a4.577 4.577 0 01-5.384.844c-1-.489-2.062-.911-2.995-1.283-.347-.138-.68-.27-.993-.4-.721.178-1.412.354-2.082.523-1.514.386-2.944.749-4.382 1.045a9.273 9.273 0 01-4.821-.059c-.637.255 1.542 1.3 3.524 1.187l.284-.016a9.811 9.811 0 003.036-.507 8.616 8.616 0 013.225-.666 7.958 7.958 0 014.3 1.325c2.067 1.3 4.107 1.021 6.419-.884a97.6 97.6 0 012.291-1.819l1.316-1.031.245.163c2.788 1.864 5.7 1.55 8.174 1 .937-.209 1.866-.37 2.848-.541a26.254 26.254 0 008.644-2.616z" fill="#666"/><path id="Path_653" data-name="Path 653" d="M3447.828 6071.037c-.817-.039-1.355-.065-1.875-.057-1.043.018-2.087.05-3.131.083-1.792.056-3.646.115-5.472.091-4.6-.059-4.765-.165-9-2.85l-1.28.759c-1.09.646-2.143 1.269-3.186 1.907a4.575 4.575 0 01-5.449-.022c-.914-.642-1.892-1.226-2.754-1.742a70.837 70.837 0 01-.917-.553c-.74.061-1.45.125-2.138.186-1.556.14-3.026.272-4.492.335a9.271 9.271 0 01-4.751-.824c-.67.151 1.315 1.531 3.291 1.732l.283.029a9.8 9.8 0 003.078-.018 8.621 8.621 0 013.289-.146 7.972 7.972 0 014.038 1.992c1.834 1.613 3.893 1.661 6.478.148a108.54 108.54 0 012.551-1.433l1.463-.808.216.2c2.456 2.283 5.378 2.434 7.912 2.281.959-.057 1.9-.069 2.9-.081a26.293 26.293 0 008.949-1.209z" fill="#666"/><path id="Path_654" data-name="Path 654" d="M3450.41 6044.791c-.354.157-.707.314-1.072.478-1.3.587-2.649 1.194-4.046 1.718-4.9 1.839-6.1 1.546-9.439-2.543q-.776.231-1.569.462c-1.386.4-2.819.823-4.223 1.287-4.458 1.474-7.945 1.517-11.3.141a2.618 2.618 0 00-1.115-.044l-.2.016.031.09a1.592 1.592 0 00.2.456 8.129 8.129 0 006.734 1.619c.44-.092.883-.177 1.326-.263a27.57 27.57 0 004.354-1.087c2.061-.766 4.488-1.253 6.855.962a4.354 4.354 0 004.187.772c1.723-.448 3.439-.926 5.154-1.408.794-.223 1.585-.46 2.483-.73l1.4-.417a8.132 8.132 0 01.24-1.509z" fill="#666"/><path id="Path_655" data-name="Path 655" d="M3451.341 6057.265a6.493 6.493 0 01.524-.5c.323-.272.63-.557.932-.847l-.687.174c-1.515.385-2.945.749-4.383 1.044-2.762.567-6.639.788-8.382-3.836a1.642 1.642 0 01-.361-.112 7.122 7.122 0 01-.463-.181c-.486.213-.984.437-1.492.665-1.3.588-2.649 1.194-4.046 1.719-4.894 1.839-6.1 1.545-9.438-2.543-.518.154-1.042.307-1.569.461-1.386.4-2.819.824-4.223 1.287-4.458 1.475-7.945 1.518-11.3.142a2.61 2.61 0 00-1.114-.045l-.2.017.032.089a1.558 1.558 0 00.2.456 8.123 8.123 0 006.734 1.619c.44-.091.883-.177 1.326-.263a27.384 27.384 0 004.354-1.087c2.061-.766 4.487-1.252 6.854.963a4.351 4.351 0 004.187.771c1.724-.447 3.44-.925 5.155-1.408.794-.223 1.585-.46 2.482-.729l1.7-.507.146.324c1.657 3.7 4.8 3.52 8.125 3.327l.284-.017a9.841 9.841 0 003.036-.506 9.21 9.21 0 011.587-.477z" fill="#666"/><g id="Group_409" data-name="Group 409"><g id="Group_391" data-name="Group 391"><g id="Group_390" data-name="Group 390" clip-path="url(#clip-path)"><g id="Group_389" data-name="Group 389"><ellipse id="Ellipse_10" data-name="Ellipse 10" cx="6.371" cy="7.11" rx="6.371" ry="7.11" transform="translate(3457.008 6039.876)" fill="none" stroke="#666" stroke-miterlimit="10" stroke-width=".669"/></g></g></g><g id="Group_394" data-name="Group 394"><g id="Group_393" data-name="Group 393" clip-path="url(#clip-path-2)"><g id="Group_392" data-name="Group 392"><ellipse id="Ellipse_11" data-name="Ellipse 11" cx="7.228" cy="8.066" rx="7.228" ry="8.066" transform="translate(3471.843 6040.194)" fill="none" stroke="#666" stroke-miterlimit="10" stroke-width=".669"/></g></g></g><g id="Group_395" data-name="Group 395" fill="#666"><path id="Path_658" data-name="Path 658" d="M3499.635 6051.914c-.842-.029-1.683-.062-2.527-.063-.01 0-.017-.006-.027-.006.04.443.166.886.236 1.316a5.437 5.437 0 01-.043 2.019 5.951 5.951 0 01-2.051 3.238 10.794 10.794 0 01-8.354 2.138 10.668 10.668 0 01-2.3-.6 9.777 9.777 0 01-1.044-.47c-.116-.061-.23-.128-.344-.193-.547-.415-1.155-.76-1.662-1.214.374.336.76.656 1.151.967a7.389 7.389 0 001.124.828 11.819 11.819 0 006.439 2.285c2.94.075 6.307-.953 8.111-3.418a5.4 5.4 0 001.021-3.887c-.115-.873-.689-2.4.27-2.94z"/><path id="Path_659" data-name="Path 659" d="M3517.369 6033.5a21.062 21.062 0 00-6.424-12.632c-7.4-6.947-17.326-9.814-27.328-9.408a38.221 38.221 0 00-13.4 2.807c-3.244 1.383-6.565 3.482-8.232 6.708a9.014 9.014 0 00-.956 4.543c.074 2.216-2.308 2.6-3.99 3.213a10.85 10.85 0 00-6.775 6.27 11.414 11.414 0 00.774 10.37 7.98 7.98 0 001.114 1.448c.592.582 1.427.916 2.016 1.5-4.2-4.128-3.45-11.913.736-15.735 1.914-1.749 4.3-2.2 6.57-3.247a2.4 2.4 0 001.553-1.6c.149-.758-.034-1.588.063-2.365.938-7.486 10.379-10.663 16.654-11.778 9-1.6 19.188-.6 27.116 4.2.143.087.281.181.42.272-.245-.18.3.141.607.393l.018.016c.142.095.283.191.428.283l-.388-.249c.254.212.5.428.749.651a21.58 21.58 0 012.284 2.43 20.371 20.371 0 013.314 5.961c2.05 5.812 1.8 12.927-1.258 18.336a10.852 10.852 0 01-5.714 5.116q1.968.255 3.923.6c2.638-1.679 4.316-4.655 5.258-7.572a24.014 24.014 0 00.868-10.531z"/></g><g id="Group_396" data-name="Group 396"><path id="Path_660" data-name="Path 660" d="M3449.914 6042.557c.446 1.061-.38 1.785-.969 2.574a5.509 5.509 0 00-1.166 3.792c.247 2.226 2.13 3.779 3.916 4.87a8.193 8.193 0 005.49.8c-.109.016-.568-.431-.667-.505-.115-.085-.529-.513-.677-.492a8.81 8.81 0 01-4.728-.41 5.808 5.808 0 01-.762-.391c-.078-.048-.151-.1-.229-.15 1.874 1.159 1.228.952.906.666-.132-.118-.265-.233-.389-.36a5.594 5.594 0 01-.865-1.152 5.076 5.076 0 01.456-5.594c.594-.812 1.487-1.559 1.028-2.652-.073-.173-.516-.393-.667-.505s-.6-.317-.677-.492z" fill="#666"/></g><g id="Group_397" data-name="Group 397"><path id="Path_661" data-name="Path 661" d="M3458.1 6051.525c4.2-.511 8.036-2.682 9.1-7.013a12.187 12.187 0 00-1.657-9.4 9.569 9.569 0 00-2.987-2.681 3.911 3.911 0 00-3.722.115c-3.192 1.547-5.134 5.442-5.32 8.866a7.824 7.824 0 001.908 5.762 12.743 12.743 0 005.954 3.574c-.5-.132-.838-.862-1.343-1a24.785 24.785 0 01-3.185-1.367c.066-.073 1.17 1.032.466.326-.06-.061-.128-.116-.19-.175q-.246-.234-.47-.489a7.044 7.044 0 01-.765-1.058 8.208 8.208 0 01-1.015-4.82 10.991 10.991 0 014.7-8.293 4.7 4.7 0 013.654-.761c.21.066.388.2.591.267.531.191-.853-.65-.858-.656.052.062.152.121.2.174.1.1.2.191.3.291a7.83 7.83 0 011.089 1.493 12.337 12.337 0 011.338 8.689c-1.017 4.408-4.879 6.639-9.137 7.158.393-.048.934 1.047 1.344 1z" fill="#666"/></g><g id="Group_398" data-name="Group 398"><path id="Path_662" data-name="Path 662" d="M3491.889 6044.861a6.9 6.9 0 01-5.431 8.39c.089-.021.58.441.667.5q.237.177.477.351c.032.023.167.149.2.141a6.861 6.861 0 004.755-3.536 8.281 8.281 0 00.761-3.976 6.354 6.354 0 00-.085-.878c-.024-.134-.555-.422-.667-.5q-.237-.177-.476-.351c-.033-.023-.2-.111-.2-.141z" fill="#666"/></g><g id="Group_399" data-name="Group 399"><path id="Path_663" data-name="Path 663" d="M3489.31 6042.5a9.789 9.789 0 01-5.16 8.838 7.608 7.608 0 01-4.992.559 8.9 8.9 0 01-2.412-1.022c-.847-.482 1.3 1.132.174.106a7.411 7.411 0 01-.439-.429 9.208 9.208 0 01-.869-1.056 10.666 10.666 0 01-.78-10.686 8.308 8.308 0 018.479-4.821 7.711 7.711 0 012.609.892l.209.12q.938.617-.331-.283c.218.226.479.414.7.639a9.283 9.283 0 01.955 1.145 10.559 10.559 0 011.856 6c0 .348 1.34.67 1.344 1a10.512 10.512 0 00-2-6.2 13.633 13.633 0 00-3.634-3.149 7.856 7.856 0 00-10.291 1.76 10.612 10.612 0 00-.87 11.956c1.677 2.818 5.245 5.332 8.6 5.221 4.991-.164 8.141-4.954 8.2-9.587 0-.342-1.352-.686-1.348-1.003z" fill="#666"/></g><g id="Group_400" data-name="Group 400"><path id="Path_664" data-name="Path 664" d="M3477.375 6052.781c-.209-.1-.415-.206-.615-.323s-.708-.49.055.08c.8.6.242.173.1.042a7.593 7.593 0 01-.9-.971 9.234 9.234 0 01-1.289-2.3 16.006 16.006 0 01-.966-5.81c0-.1-.579-.44-.666-.5s-.677-.392-.677-.492a14.581 14.581 0 001.487 6.933 8.054 8.054 0 001.943 2.387 14.645 14.645 0 002.876 1.958c-.491-.236-.848-.759-1.343-1z" fill="#666"/></g><g id="Group_401" data-name="Group 401"><path id="Path_665" data-name="Path 665" d="M3454.31 6058.9c-.456-.152-.948-.2-1.412-.323a4.991 4.991 0 01-.849-.291 1.651 1.651 0 01-.184-.1c-.645-.372 1.485 1.244 1.04.776a.888.888 0 01-.2-.286 1.984 1.984 0 01.373-1.654c.289-.415.691-.722 1.017-1.1a1.128 1.128 0 00.133-1.4.948.948 0 00-.193-.151c-.157-.119-.316-.237-.474-.354s-.317-.235-.476-.351c-.049-.035-.174-.093-.2-.141a1.116 1.116 0 01-.106 1.373 13.649 13.649 0 00-1.1 1.22c-.291.453-.583 1.284-.2 1.761a1.633 1.633 0 00.28.254c.4.312.814.619 1.232.913a3.115 3.115 0 00.817.4c.6.2 1.25.252 1.851.453a1.206 1.206 0 01-.193-.151q-.235-.179-.474-.354a41.69 41.69 0 00-.476-.351.972.972 0 00-.2-.141z" fill="#666"/></g><g id="Group_402" data-name="Group 402"><path id="Path_666" data-name="Path 666" d="M3458.407 6054.122c-2.345 1.613-4.353 4-4.631 6.933a1.92 1.92 0 00.405 1.694 10.881 10.881 0 001.592 1.244 9.253 9.253 0 003.729 1.511c-.189-.036-.508-.388-.667-.5-.175-.13-.457-.451-.676-.492a11.285 11.285 0 01-1.783-.487 9.082 9.082 0 01-.809-.338c-.316-.15-1.394-.889-.309-.087 1.021.755.2.139.008-.183a1.316 1.316 0 01-.179-.534 5.964 5.964 0 01.259-2.074 10.515 10.515 0 014.405-5.685c-.139.1-1.185-1.106-1.344-1z" fill="#666"/></g><g id="Group_403" data-name="Group 403"><path id="Path_667" data-name="Path 667" d="M3466.4 6056.315c.033.011.005-.016-.086-.082a9.629 9.629 0 00-.858-.623c-.324-.259-.42-.324-.268-.179a1.215 1.215 0 00-1.109-.158c-1.537.477-2.7 2.166-3.5 3.451a21.769 21.769 0 00-1.811 3.7q-.437 1.136-.775 2.3c-.025.086-.051.165-.075.241l.16.109a4.662 4.662 0 01.978.786c.056.066.1.138.153.208.062-.245.17-.494.236-.708q.36-1.185.821-2.334a20.654 20.654 0 011.9-3.685 10.719 10.719 0 011.961-2.3 3.487 3.487 0 011.477-.814 6.591 6.591 0 00.579.392c.114.084.65.354.677.492a1.506 1.506 0 00-.46-.796z" fill="#666"/></g><g id="Group_404" data-name="Group 404" fill="#666"><path id="Path_668" data-name="Path 668" d="M3474.619 6066.394c.389.067.778.144 1.166.218-.092-.516-.2-1.03-.33-1.539a15.565 15.565 0 00-2.29-5.131c-.308-.436-1.04-.568-1.343-1a16.339 16.339 0 012.566 6.363c.062.323.163.708.231 1.089z"/><path id="Path_669" data-name="Path 669" d="M3465.69 6067.295a3.183 3.183 0 011.289-1.452c.01-.426.026-.852.052-1.277a17.678 17.678 0 011.233-6.335c.305-.651.8-1.428 1.6-1.421-.145 0-.543-.414-.667-.5-.142-.106-.493-.491-.676-.492-1.059-.009-1.586 1.268-1.879 2.1a19.16 19.16 0 00-.876 4.572 27.376 27.376 0 00-.113 4.215c.016.165.017.381.037.59z"/></g><g id="Group_405" data-name="Group 405"><path id="Path_670" data-name="Path 670" d="M3480.632 6064.875c.009.363 0 .726-.024 1.088v.009a12.525 12.525 0 011.349-.413 10.031 10.031 0 00-.7-3.295 8.424 8.424 0 00-2.865-3.579c-.3-.228-.6-.467-.921-.679-.242-.163.192.156.234.188 1.951 1.468 2.87 4.263 2.927 6.681z" fill="#666"/></g><g id="Group_406" data-name="Group 406"><path id="Path_671" data-name="Path 671" d="M3484.835 6062.266a.835.835 0 01.271.138 5.865 5.865 0 00.948.589c-.434-1.069 1.506-1.147 2.127-1.225a1.887 1.887 0 01-.194-.15c-.157-.12-.315-.237-.473-.355s-.317-.235-.477-.35c-.036-.027-.16-.147-.2-.142a5.73 5.73 0 00-1.825.4.55.55 0 00-.367.627 1.656 1.656 0 00.19.468z" fill="#666"/></g><path id="Path_672" data-name="Path 672" d="M3466.846 6049.95s2.734 3.04 1.2 3.16-2.24.034-2.672-.475c-.535-.626 1.415-.535 1.472-2.685z" fill="#666"/><g id="Group_407" data-name="Group 407"><path id="Path_673" data-name="Path 673" d="M3485.143 6016.581c.046-6.643 3.119-12.581 9.1-15.713a25.308 25.308 0 0110.244-2.661 23.508 23.508 0 019.562 1.54 41.588 41.588 0 015.127 2.3q1.194.63 2.35 1.328.709.429 1.4.884c.217.143 1.349.972.546.344.594.465 1.48 1.071 1.948 1.437-5.385-4.217-11.627-8.075-18.493-9.158a24.956 24.956 0 00-11.3 1.076 18.471 18.471 0 00-8.831 5.8 18.06 18.06 0 00-3.677 11.325c0 .149.87.662 1 .758s1.016.591 1.015.738z" fill="#666"/></g><g id="Group_408" data-name="Group 408"><path id="Path_674" data-name="Path 674" d="M3539.951 6007.5l-2-4.889a3.609 3.609 0 00-1.888-2.208c-.456-.2-.882.191-1.3.43-.65.373-1.29.764-1.928 1.156-1.308.8-2.606 1.625-3.959 2.351l1.343 1c-.022-2.132.318-4.245.427-6.371.037-.728.211-1.392-.4-1.86-.378-.289-.864-.812-1.353-.883a9.747 9.747 0 00-2.107.2l-3.462.326a4.622 4.622 0 00-.9.084c-.722.228-.273 1.248-.148 1.8.232 1.031.523 2.048.795 3.069.128.482.255.963.37 1.448a7.015 7.015 0 01.334 1.672c-.217.18-2.313-.832-2.638-.959-1.031-.4-2.056-.814-3.093-1.2a6.026 6.026 0 00-1.419-.494c-.505-.027-.521.234-.636.663-.322 1.2-.492 2.473-.735 3.695-.157.786-.788 2.145-.11 2.743a3.793 3.793 0 001.637.983c2.362.464 4.795.614 7.173.991l-1.343-1c-1.335 1.921-2.971 3.6-4.349 5.493-.314.43-.646.721-.246 1.162a3.456 3.456 0 00.488.373 21.07 21.07 0 001.849 1.217l3.314 1.974c.376.224 1.091.88 1.527.829.391-.046.543-.654.686-.949 1.008-2.088 1.826-4.262 2.879-6.328l-1.344-1c.822 1.172 1.565 2.4 2.318 3.612a12.625 12.625 0 002.029 2.94 7.154 7.154 0 001.054.785c.394.227.513.135.888-.151 1.371-1.048 2.626-2.315 3.921-3.456.63-.556 1.176-.794.515-1.5a17.55 17.55 0 00-1.41-1.287c-1.228-1.061-2.514-2.06-3.678-3.192-.449-.436-.3-.371.241-.563q.467-.165.937-.325c.713-.244 1.428-.48 2.143-.717s1.421-.47 2.128-.714c.485-.168 1.508-.294 1.443-.948-.038-.382-1.308-.633-1.344-1 .073.731-1.37.924-1.922 1.111-.936.319-1.876.625-2.814.938-.484.162-.969.325-1.452.493-.2.071-.409.143-.613.216l-.3.107c-.185.018-.2.074-.03.17.082.305.858.817 1.109 1.04.313.278.632.551.953.822.844.715 1.705 1.412 2.525 2.156a5.007 5.007 0 01.968.925c.279.48-.1.7-.456 1.017l-2.47 2.176-1.161 1.024c-.345.3-.769.9-1.269.8l1.321.977a6.815 6.815 0 01-1.2-1.7c-.334-.524-.659-1.053-.985-1.581-.663-1.072-1.325-2.144-2.049-3.176-.1-.146-1.373-.94-1.344-1-1.1 2.162-1.944 4.445-3.021 6.619-.235.475-.367.77-.911.52a20.434 20.434 0 01-1.823-1.086q-1.823-1.085-3.644-2.172l1.343 1c-.687-.671 1.424-2.67 1.883-3.222.933-1.123 1.879-2.234 2.712-3.434-.01.016-1.2-.974-1.343-1-1.3-.206-2.6-.373-3.907-.542-.669-.086-1.338-.173-2.006-.265a6.273 6.273 0 01-1.747-.321l1.344 1c-.394-.557.175-1.951.3-2.592l.589-2.956c.06-.3.07-1.125.335-1.326.3-.226.7 0 1 .106.7.241 1.4.508 2.089.777.83.322 1.657.654 2.489.971.4.15.791.3 1.189.439q.281.1.563.194.434.275.224-.2a6.882 6.882 0 00-.486-2.179c-.224-.87-.471-1.735-.7-2.6a7.427 7.427 0 01-.533-2.47c.06-.34.206-.373.479-.448a13.236 13.236 0 012.175-.2l2.815-.265a6.112 6.112 0 011.609-.1l-1.321-.977c.416.331.2 1.387.174 1.849-.04.723-.108 1.443-.175 2.163a39.717 39.717 0 00-.243 4.048 7.735 7.735 0 001.343 1c1.207-.648 2.369-1.372 3.535-2.09.558-.344 1.116-.688 1.679-1.023a5.686 5.686 0 011.824-.927l-1.254-.926c.376.291.5.992.674 1.418l.643 1.571q.642 1.573 1.285 3.143c.183.448 1.166.562 1.344 1z" fill="#666"/></g></g></g></svg>