<svg xmlns="http://www.w3.org/2000/svg" xmlns:xlink="http://www.w3.org/1999/xlink" width="576.402" height="93.701" viewBox="0 0 576.402 93.701">
  <defs>
    <clipPath id="clip-path">
      <path id="Path_14187" data-name="Path 14187" d="M4517.686,2423.915a7.352,7.352,0,0,0-.716-.976,8.09,8.09,0,0,0-.734-.847,17.445,17.445,0,0,0-12.779-5.375h-.184a13.616,13.616,0,0,0-4.309.682,18.221,18.221,0,0,0-3.672,1.783,32.81,32.81,0,0,0-6.03,4.9,46.076,46.076,0,0,0-3.756,4.291,48.556,48.556,0,0,0-6.892,10.03,37.691,37.691,0,0,0-4.61,15.144,24.787,24.787,0,0,0,4.193,15.245,34.484,34.484,0,0,0,11.239,10.411c3.638,2.147,9.228,4.723,15.2,4.8.084,0,.169,0,.253,0,3.047,0,5.29-.726,6.858-2.219a7.241,7.241,0,0,0,1.462-1.991,6.881,6.881,0,0,0,.651-.544c1.907-1.817,2.765-4.77,2.354-8.1-.189-1.529-.93-5.3-3.733-7.246a4.4,4.4,0,0,0-2.5-.836h-.082a5.923,5.923,0,0,0-1.9.431c-.177.064-.343.123-.487.165-.612.177-1.251.323-1.907.445a21.7,21.7,0,0,0,2.2-1.639,24.97,24.97,0,0,0,3.941-4.281,29.365,29.365,0,0,0,5.161-7.7,40.13,40.13,0,0,0,3.665-12.872C4520.966,2433.776,4520.748,2428.4,4517.686,2423.915Zm-28.245,30.645c-.012-.122-.023-.246-.03-.372a10.436,10.436,0,0,1,.653-4.271,10.293,10.293,0,0,1,.7-1.495,4.494,4.494,0,0,1,2.651-1.19c.068,0,.137,0,.2.009a1.892,1.892,0,0,1,1.588,2.166h0v.011h0a4.829,4.829,0,0,1-.755,2.184A13.821,13.821,0,0,1,4489.441,2454.56Z"/>
    </clipPath>
    <linearGradient id="linear-gradient" x1="0.5" y1="-5.184" x2="0.5" y2="27.056" gradientUnits="objectBoundingBox">
      <stop offset="0" stop-color="#00ffd5"/>
      <stop offset="1" stop-color="#01cb2d"/>
    </linearGradient>
    <linearGradient id="linear-gradient-2" x1="0.5" y1="-0.025" x2="0.5" y2="0.635" xlink:href="#linear-gradient"/>
    <linearGradient id="linear-gradient-3" x1="0.483" y1="-392.924" x2="0.483" y2="183.332" xlink:href="#linear-gradient"/>
    <linearGradient id="linear-gradient-4" x1="0.5" y1="0.081" x2="0.5" y2="0.728" xlink:href="#linear-gradient"/>
    <linearGradient id="linear-gradient-5" x1="0.498" y1="-23.852" x2="0.498" y2="52.353" xlink:href="#linear-gradient"/>
    <clipPath id="clip-path-2">
      <path id="Path_14201" data-name="Path 14201" d="M4428.894,2420.088a8.553,8.553,0,0,0-1.992-2.2,4.464,4.464,0,0,0-.646-.461,3.844,3.844,0,0,0-.8-.427,9.18,9.18,0,0,0-4.017-.847,12.539,12.539,0,0,0-1.369.077,20.73,20.73,0,0,0-2.355.44c-.415.1-.807.184-1.2.257a62,62,0,0,1-10.422.949q-.823.014-1.645.013c-3.044,0-6.274-.128-10.164-.4-2.45-.174-4.945-.429-7.358-.676-1.522-.155-3.1-.316-4.653-.456-.767-.069-1.535-.1-2.284-.1a19.236,19.236,0,0,0-9.778,2.435,17.136,17.136,0,0,0-5.461,5.122,19.02,19.02,0,0,0-4.247,6.566,24.186,24.186,0,0,0-1.48,6,15.733,15.733,0,0,0,.32,6.448,6.619,6.619,0,0,0,3.959,4.481,7.182,7.182,0,0,0,2.494.43,10.354,10.354,0,0,0,4.066-.905,14.536,14.536,0,0,0,2.714-1.536c.442-.316.846-.648,1.238-.969.346-.284.673-.552,1.005-.793a15.345,15.345,0,0,1,4.276-2.184,16.86,16.86,0,0,1,5.12-.841c.159,0,.317,0,.473.008l.018.066c2.066,7.873-.632,16-3.241,23.865q-.45,1.353-.885,2.687l-.087.266a9.85,9.85,0,0,0-.683,3.89,7.361,7.361,0,0,0,1.76,4.117,17.172,17.172,0,0,0,6.441,4.482,50.084,50.084,0,0,0,15.6,3.836,48.388,48.388,0,0,0,4.864.281c.829,0,1.632-.032,2.386-.095a4.237,4.237,0,0,0,3.714-2.976c2.549-1.307,2.748-5.049,2.83-6.6a42.192,42.192,0,0,0-.535-8.186c-.363-2.511-.875-5.181-1.567-8.164-.64-2.764-1.344-5.476-2.09-8.059-.176-.606-.365-1.217-.548-1.808a29.146,29.146,0,0,1-1.339-5.541c-.018-.177-.028-.343-.034-.5.071,0,.14-.007.206-.008h.093a15.31,15.31,0,0,1,2.058.2c.216.03.432.06.647.087a31.726,31.726,0,0,0,4.006.309,14.855,14.855,0,0,0,3.416-.365,7.968,7.968,0,0,0,5.36-4.069,8.285,8.285,0,0,0,2.511-3.363,18.134,18.134,0,0,0,1.224-6.7A14.186,14.186,0,0,0,4428.894,2420.088Z"/>
    </clipPath>
    <linearGradient id="linear-gradient-6" x1="0.5" y1="2.118" x2="0.5" y2="83.252" xlink:href="#linear-gradient"/>
    <linearGradient id="linear-gradient-7" x1="0.5" y1="0.029" x2="0.5" y2="0.675" xlink:href="#linear-gradient"/>
    <clipPath id="clip-path-3">
      <path id="Path_14209" data-name="Path 14209" d="M4912.693,2434.647q-.162-.738-.349-1.459a7.987,7.987,0,0,0-.22-.825c-.02-.069-.04-.14-.062-.213l-.028-.1a25.564,25.564,0,0,0-8.012-12.679,16.86,16.86,0,0,0-7.665-3.8,11.885,11.885,0,0,0-2.125-.192,11.228,11.228,0,0,0-6.594,2.1,14.664,14.664,0,0,0-3.617,3.794,15.655,15.655,0,0,0-2.166,2.62c-.112-.091-.219-.166-.3-.222l-.044-.03q-.313-.248-.633-.488a37.072,37.072,0,0,0-3.161-2.147,20.057,20.057,0,0,0-10.179-3.3,11.085,11.085,0,0,0-5.834,1.585,13.442,13.442,0,0,0-4.192,4.143c-3.489,3.312-4.964,8.365-5.784,12.122a64.566,64.566,0,0,0-1.136,17.382c.172,3.159.538,6.215.872,8.789a69.8,69.8,0,0,0,1.569,8.584,22.1,22.1,0,0,0,3.276,7.76,9.378,9.378,0,0,0,3.246,2.838,10.542,10.542,0,0,0,2.116.763,11.856,11.856,0,0,0,3.058.5,6.021,6.021,0,0,0,1.47-.174,3.509,3.509,0,0,0,2.6-2.7c.984-.4,2.223-1.4,2.3-3.909a15.159,15.159,0,0,0-.343-3.3c3.732,5.047,7.914,8.555,12.471,10.443a19.111,19.111,0,0,0,10.911,1.131,16.541,16.541,0,0,0,9.129-5.013,22.644,22.644,0,0,0,1.913-2.338c.066-.067.135-.128.2-.2,4.085-4.341,6.694-10.667,7.976-19.339A61.709,61.709,0,0,0,4912.693,2434.647Z"/>
    </clipPath>
    <linearGradient id="linear-gradient-8" x1="0.5" y1="-6.758" x2="0.5" y2="29.917" xlink:href="#linear-gradient"/>
    <linearGradient id="linear-gradient-9" x1="0.5" y1="0.119" x2="0.5" y2="0.789" xlink:href="#linear-gradient"/>
    <clipPath id="clip-path-4">
      <path id="Path_14217" data-name="Path 14217" d="M4755.775,2465.587a46.624,46.624,0,0,0-2.686-10.577l-.027-.074c-.043-.12-.091-.247-.142-.383h0v0h0l-.685-1.822a5.261,5.261,0,0,0-.337-.764,70.83,70.83,0,0,0-4.543-9.124,46.076,46.076,0,0,0-8.74-11.016,19.93,19.93,0,0,0-6.383-4.051,9.317,9.317,0,0,0-3.1-.566,6.727,6.727,0,0,0-2.91.631,7.966,7.966,0,0,0-3.615,3.47c-3.782,2.988-3.791,8.783-3.794,11.73,0,2.216.129,4.439.256,6.589.154,2.631.314,5.352.221,8a18.477,18.477,0,0,1-1.926,8.443,6.529,6.529,0,0,1-2.052,1.116,4.41,4.41,0,0,1-1.331.21,3.215,3.215,0,0,1-2.615-1.216c-.872-1.156-1.156-2.907-.867-5.352.29-2.461.726-4.883,1.114-6.928.254-1.342.53-2.708.8-4.028.711-3.522,1.446-7.163,1.879-10.838a53.359,53.359,0,0,0,.431-7.665,21.24,21.24,0,0,0-1.078-6.7,6.957,6.957,0,0,0-2.272-3.368,10.451,10.451,0,0,0-6.466-1.753c-.193,0-.384,0-.573.008a27.041,27.041,0,0,0-14,4.724,25,25,0,0,0-6.523,6.188,19.353,19.353,0,0,0-4.555,7.248,22.828,22.828,0,0,0-.814,9.946,45.29,45.29,0,0,0,4.2,13.953,61.189,61.189,0,0,0,7.378,11.918,46.093,46.093,0,0,0,4.833,5.267,22.968,22.968,0,0,0,5.586,4,13.939,13.939,0,0,0,6.133,1.2q.326,0,.648-.009a45.955,45.955,0,0,0,24.6-8.627c.257-.2.508-.393.757-.6a17.077,17.077,0,0,0,1.694,3.3,9.289,9.289,0,0,0,8.147,4.3q.223,0,.447-.008a20.506,20.506,0,0,0,4.977-.872,7.545,7.545,0,0,0,4.312-3.159c.146-.223.278-.453.4-.685a7.481,7.481,0,0,0,1.712-1.85C4756.327,2472.615,4756.115,2468.446,4755.775,2465.587Z"/>
    </clipPath>
    <linearGradient id="linear-gradient-10" x1="0.5" y1="-13.439" x2="0.5" y2="3.667" xlink:href="#linear-gradient"/>
    <linearGradient id="linear-gradient-11" x1="0.501" y1="-47.836" x2="0.501" y2="8.834" xlink:href="#linear-gradient"/>
    <linearGradient id="linear-gradient-12" x1="0.5" y1="0.002" x2="0.5" y2="0.686" xlink:href="#linear-gradient"/>
    <clipPath id="clip-path-5">
      <path id="Path_14224" data-name="Path 14224" d="M4697.191,2452.89a9.52,9.52,0,0,0-2.922-3.61l-.016-.012-.016-.012-.021-.016c-.047-.038-.089-.07-.123-.1v0l-.006,0v0a7.525,7.525,0,0,0-1.158-.8,23.5,23.5,0,0,0-7.391-2.9,29.5,29.5,0,0,0-4.954-.639c-.521-.028-.99-.041-1.435-.041a15.079,15.079,0,0,0-3.434.355,12.855,12.855,0,0,0-7.6,5.618l-.029.042a17,17,0,0,0-2.084,2.493c-.357.516-.7,1.039-1.028,1.546-.4.615-.787,1.2-1.191,1.763a26.167,26.167,0,0,1,.021-5.187c.5-5.589,2.08-11.184,3.611-16.594l.2-.7q.26-.919.529-1.841a69.825,69.825,0,0,0,1.947-7.839l0-.035a8.686,8.686,0,0,0,.1-3.452c-.379-1.562-1.592-2.731-3.6-3.474a15.545,15.545,0,0,0-5.379-.872,27.421,27.421,0,0,0-5.045.512,21.6,21.6,0,0,0-8.46,3.237,7.207,7.207,0,0,0-2.173,2.583,8.509,8.509,0,0,0-2.74,3.922,23.122,23.122,0,0,0-1.249,4.987,54.643,54.643,0,0,0-.463,10.12,95.89,95.89,0,0,0,2.864,20.26c1.448,5.745,3.612,12.222,8.684,16.7a20.113,20.113,0,0,0,8.3,4.35,23.006,23.006,0,0,0,5.69.742,18.581,18.581,0,0,0,4.253-.477c5.454-1.281,10.926-4.728,16.265-10.243a47.715,47.715,0,0,0,3.5-4.028,40.778,40.778,0,0,0,4.6-6.149C4697.065,2460.035,4698.738,2456.424,4697.191,2452.89Z"/>
    </clipPath>
    <linearGradient id="linear-gradient-13" x1="0.5" y1="-145.294" x2="0.5" y2="106.607" xlink:href="#linear-gradient"/>
    <linearGradient id="linear-gradient-14" x1="0.5" y1="-42.247" x2="0.5" y2="32.732" xlink:href="#linear-gradient"/>
    <linearGradient id="linear-gradient-15" x1="0.5" y1="0.129" x2="0.5" y2="0.813" xlink:href="#linear-gradient"/>
    <clipPath id="clip-path-6">
      <path id="Path_14230" data-name="Path 14230" d="M4796.856,2420.088a8.553,8.553,0,0,0-1.992-2.2,4.411,4.411,0,0,0-.646-.461,3.832,3.832,0,0,0-.8-.427,9.18,9.18,0,0,0-4.017-.847,12.521,12.521,0,0,0-1.368.077,20.718,20.718,0,0,0-2.356.44c-.415.1-.807.184-1.2.257a62,62,0,0,1-10.422.949c-.548.009-1.1.013-1.645.013-3.044,0-6.273-.128-10.164-.4-2.449-.174-4.945-.429-7.358-.676-1.522-.155-3.1-.316-4.653-.456-.767-.069-1.535-.1-2.284-.1a19.233,19.233,0,0,0-9.778,2.435,17.133,17.133,0,0,0-5.461,5.122,19.012,19.012,0,0,0-4.247,6.566,24.143,24.143,0,0,0-1.48,6,15.724,15.724,0,0,0,.32,6.448,6.622,6.622,0,0,0,3.959,4.481,7.187,7.187,0,0,0,2.494.43,10.352,10.352,0,0,0,4.066-.905,14.536,14.536,0,0,0,2.714-1.536c.442-.316.847-.648,1.238-.969.346-.284.673-.552,1-.793a15.345,15.345,0,0,1,4.276-2.184,16.865,16.865,0,0,1,5.12-.841c.159,0,.317,0,.473.008l.018.066c2.066,7.873-.632,16-3.241,23.865q-.45,1.353-.885,2.687l-.087.266a9.868,9.868,0,0,0-.683,3.89,7.364,7.364,0,0,0,1.76,4.117,17.187,17.187,0,0,0,6.441,4.482,50.1,50.1,0,0,0,15.6,3.836,48.4,48.4,0,0,0,4.864.281c.829,0,1.632-.032,2.386-.095a4.237,4.237,0,0,0,3.714-2.976c2.549-1.307,2.748-5.049,2.831-6.6a42.189,42.189,0,0,0-.536-8.186c-.363-2.511-.875-5.181-1.566-8.164-.641-2.764-1.344-5.476-2.091-8.059-.176-.606-.365-1.217-.548-1.808a29.146,29.146,0,0,1-1.339-5.541c-.018-.177-.028-.343-.034-.5.071,0,.14-.007.207-.008h.092a15.3,15.3,0,0,1,2.058.2c.217.03.432.06.647.087a31.717,31.717,0,0,0,4.006.309,14.846,14.846,0,0,0,3.416-.365,7.97,7.97,0,0,0,5.361-4.069,8.3,8.3,0,0,0,2.511-3.363,18.135,18.135,0,0,0,1.223-6.7A14.171,14.171,0,0,0,4796.856,2420.088Z"/>
    </clipPath>
    <linearGradient id="linear-gradient-16" x1="0.5" y1="2.118" x2="0.5" y2="83.252" xlink:href="#linear-gradient"/>
    <clipPath id="clip-path-7">
      <path id="Path_14238" data-name="Path 14238" d="M4652.482,2446.147c-.162-.971-.365-1.959-.6-2.937l0-.02-.006-.02-.015-.058c-.03-.134-.067-.275-.1-.425l-.007,0,0-.009.007,0c-.186-.707-.311-1.183-.389-1.482a4.183,4.183,0,0,0-.225-.672c-2.575-8.35-6.807-14.365-12.593-17.89a28.289,28.289,0,0,0-12.956-3.81c-.952-.064-1.955-.095-3.069-.095-1.258,0-2.5.04-3.552.08-.628.023-1.275.033-1.9.043-.464.007-.927.014-1.391.026a9.514,9.514,0,0,0-3.324.616,5.759,5.759,0,0,0-3.2,3.106,6.173,6.173,0,0,0-2.673,5.151,24.286,24.286,0,0,0-5.9,5.771,29.03,29.03,0,0,0-7.164,14.234,44.245,44.245,0,0,0-.651,13.56,30.066,30.066,0,0,0,3.126,11.562,19.267,19.267,0,0,0,9.8,8.572,38.7,38.7,0,0,0,13.563,2.5c.983.034,1.852.05,2.659.05a30.133,30.133,0,0,0,11.131-1.736,27.306,27.306,0,0,0,10.69-7.532c.491-.561.949-1.148,1.392-1.746.244-.259.486-.521.721-.789C4651.707,2465.494,4654.129,2456,4652.482,2446.147Zm-41.522,14.481c.189-.236.364-.468.539-.7.081-.087.163-.174.241-.262.439-.49.887-1.019,1.332-1.573a23.3,23.3,0,0,0,2.023-2.924,9.294,9.294,0,0,1,1.324,5.471h0v.01h0a8.338,8.338,0,0,1-.631,2.663,4.727,4.727,0,0,1-2.44.709,4.189,4.189,0,0,1-1.032-.128,2.916,2.916,0,0,1-1.852-1.225,1.534,1.534,0,0,1-.039-1.393C4610.6,2461.064,4610.781,2460.85,4610.96,2460.628Z"/>
    </clipPath>
    <linearGradient id="linear-gradient-18" x1="0.5" y1="-0.125" x2="0.5" y2="0.549" xlink:href="#linear-gradient"/>
    <linearGradient id="linear-gradient-19" x1="0.501" y1="-52.91" x2="0.501" y2="17.4" xlink:href="#linear-gradient"/>
    <linearGradient id="linear-gradient-20" x1="0.501" y1="-14.84" x2="0.501" y2="6.209" xlink:href="#linear-gradient"/>
    <clipPath id="clip-path-8">
      <path id="Path_14246" data-name="Path 14246" d="M4863.031,2446.147c-.162-.971-.365-1.959-.6-2.937l0-.02-.006-.02-.015-.058c-.03-.134-.066-.275-.1-.425l-.007,0,0-.009.007,0c-.186-.707-.311-1.183-.389-1.482a4.282,4.282,0,0,0-.225-.672c-2.575-8.35-6.807-14.365-12.593-17.89a28.287,28.287,0,0,0-12.956-3.81c-.952-.064-1.955-.095-3.069-.095-1.258,0-2.5.04-3.552.08-.628.023-1.275.033-1.9.043-.463.007-.927.014-1.391.026a9.519,9.519,0,0,0-3.324.616,5.758,5.758,0,0,0-3.195,3.106,6.174,6.174,0,0,0-2.673,5.151,24.3,24.3,0,0,0-5.9,5.771,29.03,29.03,0,0,0-7.164,14.234,44.23,44.23,0,0,0-.651,13.56c.5,4.9,1.493,8.572,3.126,11.562a19.266,19.266,0,0,0,9.795,8.572,38.7,38.7,0,0,0,13.563,2.5c.983.034,1.852.05,2.659.05a30.128,30.128,0,0,0,11.131-1.736,27.3,27.3,0,0,0,10.69-7.532c.491-.561.949-1.148,1.392-1.746.244-.259.486-.521.721-.789C4862.256,2465.494,4864.678,2456,4863.031,2446.147Zm-41.522,14.481c.189-.236.364-.468.539-.7.081-.087.163-.174.241-.262.439-.49.887-1.019,1.332-1.573a23.351,23.351,0,0,0,2.023-2.924,9.29,9.29,0,0,1,1.324,5.471h0v.01h0a8.338,8.338,0,0,1-.631,2.663,4.726,4.726,0,0,1-2.44.709,4.192,4.192,0,0,1-1.032-.128,2.914,2.914,0,0,1-1.852-1.225,1.533,1.533,0,0,1-.039-1.393C4821.151,2461.064,4821.33,2460.85,4821.509,2460.628Z"/>
    </clipPath>
    <linearGradient id="linear-gradient-22" x1="0.499" y1="-52.91" x2="0.499" y2="17.4" xlink:href="#linear-gradient"/>
    <linearGradient id="linear-gradient-23" x1="0.5" y1="-14.84" x2="0.5" y2="6.209" xlink:href="#linear-gradient"/>
    <clipPath id="clip-path-9">
      <path id="Path_14256" data-name="Path 14256" d="M4822.355,2423.246a14.459,14.459,0,0,0-6.837-6.779l-.122-.092-.207-.066a32.263,32.263,0,0,0-12.82-3.017h-.174a18.565,18.565,0,0,0-7.61,1.476,12.89,12.89,0,0,0-5.525,4.823,14.258,14.258,0,0,0-2.37,2.923c-2.419,3.922-3.678,9.781.039,14.464a16.11,16.11,0,0,0,6.272,4.572,28.117,28.117,0,0,0,7.441,2.138,21.025,21.025,0,0,0,2.972.218,17.61,17.61,0,0,0,2.491-.172l.132.114a5.935,5.935,0,0,0,1.676,1.028,10.949,10.949,0,0,1-5.852,1.468h-.1c-.248,0-.505-.012-.776-.023-.315-.014-.641-.027-.979-.027a7.681,7.681,0,0,0-1.749.176,4.878,4.878,0,0,0-3.435,2.789c-.052.11-.1.22-.148.329a5.005,5.005,0,0,0-1.965,2.206,18.094,18.094,0,0,0-1.168,3.654l-.088.363c-.375,1.538-.706,2.795-1.039,3.957a72.538,72.538,0,0,0-1.861,8.3,38.815,38.815,0,0,0-.653,8.887l.01.144a6.227,6.227,0,0,0,1.281,3.988,5.47,5.47,0,0,0,2.1,1.22l.021.008a27.894,27.894,0,0,0,8.59,1.655c.44.019.849.028,1.249.028a18.822,18.822,0,0,0,3.277-.262l.09-.016a3.854,3.854,0,0,0,3.257-2.088c.11-.27.207-.544.3-.818a3.086,3.086,0,0,0,1.813-1.717,20.86,20.86,0,0,0,1.016-3.607c.291-1.377.535-2.8.748-4.346.38-2.773.631-5.617.744-8.454.016-.4.028-.811.037-1.286,0-.06.007-.122.008-.186l0-.512c0-.364,0-.554,0-.633a71.425,71.425,0,0,0-.286-7.536,19.11,19.11,0,0,0-2.007-7.052l-.1-.183c3.063-.054,5.772-2.233,6.8-3.178a15.828,15.828,0,0,0,2.613-3.009,14.025,14.025,0,0,0,2.584-3.321,13.682,13.682,0,0,0,1.592-5.624A14.259,14.259,0,0,0,4822.355,2423.246Z"/>
    </clipPath>
    <linearGradient id="linear-gradient-24" x1="0.5" y1="-0.681" x2="0.5" y2="0.575" xlink:href="#linear-gradient"/>
    <linearGradient id="linear-gradient-25" x1="0.5" y1="0.325" x2="0.5" y2="1.936" xlink:href="#linear-gradient"/>
    <linearGradient id="linear-gradient-26" x1="0.5" y1="18.558" x2="0.5" y2="98.698" xlink:href="#linear-gradient"/>
    <clipPath id="clip-path-10">
      <path id="Path_14263" data-name="Path 14263" d="M4608.258,2449.311a18.315,18.315,0,0,0-1.233-1.856,8.774,8.774,0,0,0-.6-.761c-.229-.27-.414-.489-.591-.66-3.088-3.32-7.5-5.432-12.937-6.22a18.91,18.91,0,0,0,2.482-2.828,18.757,18.757,0,0,0,5.634-14.326,12.81,12.81,0,0,0-2.37-6.906,10.705,10.705,0,0,0-6.487-3.992,12.8,12.8,0,0,0-2.388-.263,14.631,14.631,0,0,0-10.5,4.58,19.524,19.524,0,0,0-1.872,2.233c-.092.09-.187.178-.278.27a19.435,19.435,0,0,0-1.589,1.854c-1.127-.107-2.23-.172-3.276-.188a31.391,31.391,0,0,0-4.99.307,16.77,16.77,0,0,0-8.929,3.741,12.094,12.094,0,0,0-2.068,2.437c-.026.023-.056.043-.082.066a14.215,14.215,0,0,0-4.327,8.636,15.068,15.068,0,0,0,1.848,9.758,16.006,16.006,0,0,0,7.078,6.191c.629.3,1.3.58,1.986.833.028.012.059.028.092.043a4.377,4.377,0,0,0,.621.251l-.061.093c-.057.051-.114.1-.171.154a12.4,12.4,0,0,0-3.563,5.846,14.325,14.325,0,0,0,.114,7.326,23.355,23.355,0,0,0,6.915,10.931,27.529,27.529,0,0,0,11.088,6.242,24.145,24.145,0,0,0,6.208.893,26.548,26.548,0,0,0,18.515-7.155,21.912,21.912,0,0,0,2.582-2.93,20.3,20.3,0,0,0,5.772-10.918A20.971,20.971,0,0,0,4608.258,2449.311Z"/>
    </clipPath>
    <linearGradient id="linear-gradient-27" x1="0.5" y1="-23.674" x2="0.5" y2="14.176" xlink:href="#linear-gradient"/>
    <linearGradient id="linear-gradient-28" x1="0.5" y1="0.132" x2="0.5" y2="0.732" xlink:href="#linear-gradient"/>
  </defs>
  <g id="Group_5684" data-name="Group 5684" transform="translate(-4348.263 -2400.898)">
    <g id="Group_5638" data-name="Group 5638">
      <g id="Group_5637" data-name="Group 5637">
        <g id="Group_5633" data-name="Group 5633">
          <path id="Path_14174" data-name="Path 14174" d="M4523.221,2417.946a16.29,16.29,0,0,0-1.274-1.46,25.4,25.4,0,0,0-18.489-7.769h-.226a21.5,21.5,0,0,0-6.858,1.113,26.029,26.029,0,0,0-5.281,2.543,40.719,40.719,0,0,0-7.5,6.065q-1.168,1.174-2.289,2.456a23.314,23.314,0,0,0-9.659-1.916,33.659,33.659,0,0,0-3.712.21,33.305,33.305,0,0,0-5.1.968c-.858.236-1.634.488-2.371.771-.577.221-1.1.448-1.594.693a11.655,11.655,0,0,0-1.608.922,32.714,32.714,0,0,0-5.7-10.136,21.293,21.293,0,0,0-15.025-7.251c-.6-.036-1.218-.055-1.83-.055a50.729,50.729,0,0,0-11.209,1.544,101.515,101.515,0,0,0-9.829,2.64,57.323,57.323,0,0,1-7.7.593c-.5.009-1.006.013-1.512.013-2.85,0-5.9-.123-9.6-.386-2.332-.166-4.762-.414-7.112-.654-1.553-.159-3.161-.323-4.749-.466-1-.09-2.01-.136-3-.136a27.116,27.116,0,0,0-13.789,3.513,25.2,25.2,0,0,0-7.612,6.905,27.3,27.3,0,0,0-5.54,8.8,32.171,32.171,0,0,0-1.972,7.981,23.43,23.43,0,0,0,.617,9.711,14.635,14.635,0,0,0,8.838,9.644,15.141,15.141,0,0,0,5.264.925,18.29,18.29,0,0,0,7.214-1.55,22.4,22.4,0,0,0,3.751-2.057,97.109,97.109,0,0,1-2.888,9.8q-.459,1.38-.9,2.742l-.082.252a17.455,17.455,0,0,0-1.055,6.971,15.409,15.409,0,0,0,3.54,8.574,24.984,24.984,0,0,0,9.37,6.725,57.826,57.826,0,0,0,18.066,4.494,56.1,56.1,0,0,0,5.664.322c1.052,0,2.079-.041,3.052-.123a11.89,11.89,0,0,0,9.273-5.6,13.547,13.547,0,0,0,3.909-6.848c.6,1.3,1.261,2.726,2.007,4.132l.1.188c.954,1.813,3.51,6.668,9.318,7.917a15.431,15.431,0,0,0,3.294.335c.758,0,1.413-.045,1.94-.082.15-.01.293-.02.434-.027.424-.023.844-.043,1.263-.063l.622-.031.851-.04.288-.014a70.56,70.56,0,0,0,9.019-.827,19.838,19.838,0,0,0,4.4-1.224,11.759,11.759,0,0,0,3.983-2.628c.147-.15.288-.307.423-.468.241-.289.458-.576.653-.859a10.6,10.6,0,0,0,1.725.416,23.521,23.521,0,0,0,3.56.268l.335,0a22.722,22.722,0,0,0,8.259-1.554l.008,0a10.888,10.888,0,0,0,3.372-2.037,45.51,45.51,0,0,0,4.805,3.266c4.475,2.642,11.434,5.811,19.171,5.907l.353,0c5.127,0,9.29-1.489,12.374-4.426a14.928,14.928,0,0,0,2.156-2.577c3.729-3.578,5.455-8.982,4.733-14.833a19.922,19.922,0,0,0-3.857-9.772,39.453,39.453,0,0,0,3.841-6.489,48.2,48.2,0,0,0,4.39-15.472c.736-7.165-.668-13.647-4.063-18.767A16.082,16.082,0,0,0,4523.221,2417.946Z" fill="#fff"/>
          <path id="Path_14175" data-name="Path 14175" d="M4920.5,2432.916q-.165-.746-.351-1.479c-.087-.405-.2-.792-.342-1.291l-.073-.25-.009-.031a33.553,33.553,0,0,0-10.574-16.626,24.835,24.835,0,0,0-11.365-5.533,19.867,19.867,0,0,0-3.558-.323,19.2,19.2,0,0,0-11.257,3.6,21.453,21.453,0,0,0-2.686,2.286,26.81,26.81,0,0,0-12.753-3.56,18.964,18.964,0,0,0-9.983,2.745,20.323,20.323,0,0,0-4.208,3.407l-.1-.058a36.182,36.182,0,0,0-16.58-4.96c-1.133-.076-2.313-.113-3.606-.113-1.4,0-2.735.043-3.854.085-.568.022-1.152.03-1.717.039h-.122c-.457.007-.914.015-1.371.027a18.912,18.912,0,0,0-3.612.427,26.282,26.282,0,0,0-2.7-1.684,8.006,8.006,0,0,0-1.643-.8,45.961,45.961,0,0,0-5.9-2.11l-.248-.126a7.964,7.964,0,0,0-3.626-.873c-.18,0-.358.021-.538.033a35.08,35.08,0,0,0-5.308-.459h-.208a26.514,26.514,0,0,0-10.9,2.172q-.713.32-1.4.7c-.17,0-.341-.007-.511-.007a20.415,20.415,0,0,0-2.25.126,27.7,27.7,0,0,0-3.253.591c-.311.071-.6.14-.9.195a54.129,54.129,0,0,1-9.077.812q-.754.014-1.513.013c-2.85,0-5.9-.123-9.6-.386-2.332-.166-4.762-.414-7.112-.654-1.554-.159-3.161-.323-4.749-.466-1-.09-2.01-.136-3-.136a27.119,27.119,0,0,0-13.789,3.513,25.174,25.174,0,0,0-7.614,6.909q-.42.446-.822.917a14.469,14.469,0,0,0-2.94,1.023,16.016,16.016,0,0,0-1.76.977,14.714,14.714,0,0,0-4.846-6.676,18.3,18.3,0,0,0-11.283-3.366c-.256,0-.509,0-.759.01a35.131,35.131,0,0,0-18.246,6.063,33.329,33.329,0,0,0-7.757,7.075,14.84,14.84,0,0,0-.179-5.652c-.589-2.426-2.492-6.833-8.609-9.09a23.46,23.46,0,0,0-8.149-1.367,35.265,35.265,0,0,0-6.512.648,29.443,29.443,0,0,0-11.588,4.552,13.912,13.912,0,0,0-1.608,1.319,36.79,36.79,0,0,0-15.375-4.262c-1.133-.076-2.312-.113-3.606-.113-1.4,0-2.735.043-3.854.085-.568.022-1.152.03-1.717.039h-.123c-.456.007-.913.015-1.37.027a17.317,17.317,0,0,0-6.083,1.188,14.015,14.015,0,0,0-2.714,1.453,19.118,19.118,0,0,0-1.594-2.543,18.694,18.694,0,0,0-11.288-7.052,20.873,20.873,0,0,0-3.889-.427l-.3,0h0a22.726,22.726,0,0,0-16.026,6.979c-.54.55-1.069,1.142-1.581,1.768h-.238a38.786,38.786,0,0,0-5.636.4,24.552,24.552,0,0,0-13.1,5.692,19.824,19.824,0,0,0-2.821,3.137,22.427,22.427,0,0,0-6.24,12.823,23.1,23.1,0,0,0,2.866,14.95,22.5,22.5,0,0,0,5.472,6.228q-.172.524-.316,1.058a22.319,22.319,0,0,0,.1,11.442,31.3,31.3,0,0,0,9.234,14.778,35.573,35.573,0,0,0,14.331,8.054A32.127,32.127,0,0,0,4583.9,2492c.168,0,.336,0,.5,0a34.74,34.74,0,0,0,16.249-4.056q.981.492,2,.91a46.312,46.312,0,0,0,16.322,3.091c1.069.037,2.029.055,2.932.055a37.7,37.7,0,0,0,13.992-2.265,34.819,34.819,0,0,0,10.128-6.057q.633.635,1.3,1.226a28.136,28.136,0,0,0,11.614,6.1,30.945,30.945,0,0,0,7.674.992,26.623,26.623,0,0,0,6.08-.688,38.018,38.018,0,0,0,15.334-7.976q.69.691,1.39,1.338a30.651,30.651,0,0,0,7.544,5.33,21.7,21.7,0,0,0,9.6,2q.426,0,.849-.011a50.5,50.5,0,0,0,16.6-3.43,57.279,57.279,0,0,0,6.319-2.831,17.092,17.092,0,0,0,3.444,2.509,17.674,17.674,0,0,0,8.631,2.13c.246,0,.491,0,.737-.013a28.28,28.28,0,0,0,6.9-1.178,15.819,15.819,0,0,0,3.652-1.566,58.957,58.957,0,0,0,17.084,4.068,56.1,56.1,0,0,0,5.664.322c1.053,0,2.079-.041,3.052-.123a11.938,11.938,0,0,0,7.022-2.941,16.689,16.689,0,0,0,1.926.848l.05.019a35.936,35.936,0,0,0,11.066,2.161c.557.024,1.078.036,1.595.036a26.65,26.65,0,0,0,4.663-.383l.08-.014a12.731,12.731,0,0,0,6.6-3.049c.234.1.469.2.707.3a46.3,46.3,0,0,0,16.321,3.091c1.069.037,2.029.055,2.932.055a37.676,37.676,0,0,0,13.992-2.265,34.234,34.234,0,0,0,6.716-3.477,16.443,16.443,0,0,0,2.742,1.771,18.121,18.121,0,0,0,3.687,1.369,19.38,19.38,0,0,0,5.139.774,13.959,13.959,0,0,0,3.435-.42,11.4,11.4,0,0,0,5.654-3.364,32.183,32.183,0,0,0,6.344,3.536,27.11,27.11,0,0,0,15.473,1.6,24.384,24.384,0,0,0,13.455-7.388,30.255,30.255,0,0,0,2.2-2.627c5.191-5.559,8.458-13.269,9.979-23.56A69.765,69.765,0,0,0,4920.5,2432.916Z" fill="#fff"/>
        </g>
        <g id="Group_5634" data-name="Group 5634">
          <path id="Path_14176" data-name="Path 14176" d="M4523.221,2417.946a16.29,16.29,0,0,0-1.274-1.46,25.4,25.4,0,0,0-18.489-7.769h-.226a21.5,21.5,0,0,0-6.858,1.113,26.029,26.029,0,0,0-5.281,2.543,40.719,40.719,0,0,0-7.5,6.065q-1.168,1.174-2.289,2.456a23.314,23.314,0,0,0-9.659-1.916,33.659,33.659,0,0,0-3.712.21,33.305,33.305,0,0,0-5.1.968c-.858.236-1.634.488-2.371.771-.577.221-1.1.448-1.594.693a11.655,11.655,0,0,0-1.608.922,32.714,32.714,0,0,0-5.7-10.136,21.293,21.293,0,0,0-15.025-7.251c-.6-.036-1.218-.055-1.83-.055a50.729,50.729,0,0,0-11.209,1.544,101.515,101.515,0,0,0-9.829,2.64,57.323,57.323,0,0,1-7.7.593c-.5.009-1.006.013-1.512.013-2.85,0-5.9-.123-9.6-.386-2.332-.166-4.762-.414-7.112-.654-1.553-.159-3.161-.323-4.749-.466-1-.09-2.01-.136-3-.136a27.116,27.116,0,0,0-13.789,3.513,25.2,25.2,0,0,0-7.612,6.905,27.3,27.3,0,0,0-5.54,8.8,32.171,32.171,0,0,0-1.972,7.981,23.43,23.43,0,0,0,.617,9.711,14.635,14.635,0,0,0,8.838,9.644,15.141,15.141,0,0,0,5.264.925,18.29,18.29,0,0,0,7.214-1.55,22.4,22.4,0,0,0,3.751-2.057,97.109,97.109,0,0,1-2.888,9.8q-.459,1.38-.9,2.742l-.082.252a17.455,17.455,0,0,0-1.055,6.971,15.409,15.409,0,0,0,3.54,8.574,24.984,24.984,0,0,0,9.37,6.725,57.826,57.826,0,0,0,18.066,4.494,56.1,56.1,0,0,0,5.664.322c1.052,0,2.079-.041,3.052-.123a11.89,11.89,0,0,0,9.273-5.6,13.547,13.547,0,0,0,3.909-6.848c.6,1.3,1.261,2.726,2.007,4.132l.1.188c.954,1.813,3.51,6.668,9.318,7.917a15.431,15.431,0,0,0,3.294.335c.758,0,1.413-.045,1.94-.082.15-.01.293-.02.434-.027.424-.023.844-.043,1.263-.063l.622-.031.851-.04.288-.014a70.56,70.56,0,0,0,9.019-.827,19.838,19.838,0,0,0,4.4-1.224,11.759,11.759,0,0,0,3.983-2.628c.147-.15.288-.307.423-.468.241-.289.458-.576.653-.859a10.6,10.6,0,0,0,1.725.416,23.521,23.521,0,0,0,3.56.268l.335,0a22.722,22.722,0,0,0,8.259-1.554l.008,0a10.888,10.888,0,0,0,3.372-2.037,45.51,45.51,0,0,0,4.805,3.266c4.475,2.642,11.434,5.811,19.171,5.907l.353,0c5.127,0,9.29-1.489,12.374-4.426a14.928,14.928,0,0,0,2.156-2.577c3.729-3.578,5.455-8.982,4.733-14.833a19.922,19.922,0,0,0-3.857-9.772,39.453,39.453,0,0,0,3.841-6.489,48.2,48.2,0,0,0,4.39-15.472c.736-7.165-.668-13.647-4.063-18.767A16.082,16.082,0,0,0,4523.221,2417.946Z" fill="#fff"/>
          <path id="Path_14177" data-name="Path 14177" d="M4920.5,2432.916q-.165-.746-.351-1.479c-.087-.405-.2-.792-.342-1.291l-.073-.25-.009-.031a33.553,33.553,0,0,0-10.574-16.626,24.835,24.835,0,0,0-11.365-5.533,19.867,19.867,0,0,0-3.558-.323,19.2,19.2,0,0,0-11.257,3.6,21.453,21.453,0,0,0-2.686,2.286,26.81,26.81,0,0,0-12.753-3.56,18.964,18.964,0,0,0-9.983,2.745,20.323,20.323,0,0,0-4.208,3.407l-.1-.058a36.182,36.182,0,0,0-16.58-4.96c-1.133-.076-2.313-.113-3.606-.113-1.4,0-2.735.043-3.854.085-.568.022-1.152.03-1.717.039h-.122c-.457.007-.914.015-1.371.027a18.912,18.912,0,0,0-3.612.427,26.282,26.282,0,0,0-2.7-1.684,8.006,8.006,0,0,0-1.643-.8,45.961,45.961,0,0,0-5.9-2.11l-.248-.126a7.964,7.964,0,0,0-3.626-.873c-.18,0-.358.021-.538.033a35.08,35.08,0,0,0-5.308-.459h-.208a26.514,26.514,0,0,0-10.9,2.172q-.713.32-1.4.7c-.17,0-.341-.007-.511-.007a20.415,20.415,0,0,0-2.25.126,27.7,27.7,0,0,0-3.253.591c-.311.071-.6.14-.9.195a54.129,54.129,0,0,1-9.077.812q-.754.014-1.513.013c-2.85,0-5.9-.123-9.6-.386-2.332-.166-4.762-.414-7.112-.654-1.554-.159-3.161-.323-4.749-.466-1-.09-2.01-.136-3-.136a27.119,27.119,0,0,0-13.789,3.513,25.174,25.174,0,0,0-7.614,6.909q-.42.446-.822.917a14.469,14.469,0,0,0-2.94,1.023,16.016,16.016,0,0,0-1.76.977,14.714,14.714,0,0,0-4.846-6.676,18.3,18.3,0,0,0-11.283-3.366c-.256,0-.509,0-.759.01a35.131,35.131,0,0,0-18.246,6.063,33.329,33.329,0,0,0-7.757,7.075,14.84,14.84,0,0,0-.179-5.652c-.589-2.426-2.492-6.833-8.609-9.09a23.46,23.46,0,0,0-8.149-1.367,35.265,35.265,0,0,0-6.512.648,29.443,29.443,0,0,0-11.588,4.552,13.912,13.912,0,0,0-1.608,1.319,36.79,36.79,0,0,0-15.375-4.262c-1.133-.076-2.312-.113-3.606-.113-1.4,0-2.735.043-3.854.085-.568.022-1.152.03-1.717.039h-.123c-.456.007-.913.015-1.37.027a17.317,17.317,0,0,0-6.083,1.188,14.015,14.015,0,0,0-2.714,1.453,19.118,19.118,0,0,0-1.594-2.543,18.694,18.694,0,0,0-11.288-7.052,20.873,20.873,0,0,0-3.889-.427l-.3,0h0a22.726,22.726,0,0,0-16.026,6.979c-.54.55-1.069,1.142-1.581,1.768h-.238a38.786,38.786,0,0,0-5.636.4,24.552,24.552,0,0,0-13.1,5.692,19.824,19.824,0,0,0-2.821,3.137,22.427,22.427,0,0,0-6.24,12.823,23.1,23.1,0,0,0,2.866,14.95,22.5,22.5,0,0,0,5.472,6.228q-.172.524-.316,1.058a22.319,22.319,0,0,0,.1,11.442,31.3,31.3,0,0,0,9.234,14.778,35.573,35.573,0,0,0,14.331,8.054A32.127,32.127,0,0,0,4583.9,2492c.168,0,.336,0,.5,0a34.74,34.74,0,0,0,16.249-4.056q.981.492,2,.91a46.312,46.312,0,0,0,16.322,3.091c1.069.037,2.029.055,2.932.055a37.7,37.7,0,0,0,13.992-2.265,34.819,34.819,0,0,0,10.128-6.057q.633.635,1.3,1.226a28.136,28.136,0,0,0,11.614,6.1,30.945,30.945,0,0,0,7.674.992,26.623,26.623,0,0,0,6.08-.688,38.018,38.018,0,0,0,15.334-7.976q.69.691,1.39,1.338a30.651,30.651,0,0,0,7.544,5.33,21.7,21.7,0,0,0,9.6,2q.426,0,.849-.011a50.5,50.5,0,0,0,16.6-3.43,57.279,57.279,0,0,0,6.319-2.831,17.092,17.092,0,0,0,3.444,2.509,17.674,17.674,0,0,0,8.631,2.13c.246,0,.491,0,.737-.013a28.28,28.28,0,0,0,6.9-1.178,15.819,15.819,0,0,0,3.652-1.566,58.957,58.957,0,0,0,17.084,4.068,56.1,56.1,0,0,0,5.664.322c1.053,0,2.079-.041,3.052-.123a11.938,11.938,0,0,0,7.022-2.941,16.689,16.689,0,0,0,1.926.848l.05.019a35.936,35.936,0,0,0,11.066,2.161c.557.024,1.078.036,1.595.036a26.65,26.65,0,0,0,4.663-.383l.08-.014a12.731,12.731,0,0,0,6.6-3.049c.234.1.469.2.707.3a46.3,46.3,0,0,0,16.321,3.091c1.069.037,2.029.055,2.932.055a37.676,37.676,0,0,0,13.992-2.265,34.234,34.234,0,0,0,6.716-3.477,16.443,16.443,0,0,0,2.742,1.771,18.121,18.121,0,0,0,3.687,1.369,19.38,19.38,0,0,0,5.139.774,13.959,13.959,0,0,0,3.435-.42,11.4,11.4,0,0,0,5.654-3.364,32.183,32.183,0,0,0,6.344,3.536,27.11,27.11,0,0,0,15.473,1.6,24.384,24.384,0,0,0,13.455-7.388,30.255,30.255,0,0,0,2.2-2.627c5.191-5.559,8.458-13.269,9.979-23.56A69.765,69.765,0,0,0,4920.5,2432.916Z" fill="#fff"/>
        </g>
        <g id="Group_5635" data-name="Group 5635">
          <path id="Path_14178" data-name="Path 14178" d="M4523.221,2417.946a16.29,16.29,0,0,0-1.274-1.46,25.4,25.4,0,0,0-18.489-7.769h-.226a21.5,21.5,0,0,0-6.858,1.113,26.029,26.029,0,0,0-5.281,2.543,40.719,40.719,0,0,0-7.5,6.065q-1.168,1.174-2.289,2.456a23.314,23.314,0,0,0-9.659-1.916,33.659,33.659,0,0,0-3.712.21,33.305,33.305,0,0,0-5.1.968c-.858.236-1.634.488-2.371.771-.577.221-1.1.448-1.594.693a11.655,11.655,0,0,0-1.608.922,32.714,32.714,0,0,0-5.7-10.136,21.293,21.293,0,0,0-15.025-7.251c-.6-.036-1.218-.055-1.83-.055a50.729,50.729,0,0,0-11.209,1.544,101.515,101.515,0,0,0-9.829,2.64,57.323,57.323,0,0,1-7.7.593c-.5.009-1.006.013-1.512.013-2.85,0-5.9-.123-9.6-.386-2.332-.166-4.762-.414-7.112-.654-1.553-.159-3.161-.323-4.749-.466-1-.09-2.01-.136-3-.136a27.116,27.116,0,0,0-13.789,3.513,25.2,25.2,0,0,0-7.612,6.905,27.3,27.3,0,0,0-5.54,8.8,32.171,32.171,0,0,0-1.972,7.981,23.43,23.43,0,0,0,.617,9.711,14.635,14.635,0,0,0,8.838,9.644,15.141,15.141,0,0,0,5.264.925,18.29,18.29,0,0,0,7.214-1.55,22.4,22.4,0,0,0,3.751-2.057,97.109,97.109,0,0,1-2.888,9.8q-.459,1.38-.9,2.742l-.082.252a17.455,17.455,0,0,0-1.055,6.971,15.409,15.409,0,0,0,3.54,8.574,24.984,24.984,0,0,0,9.37,6.725,57.826,57.826,0,0,0,18.066,4.494,56.1,56.1,0,0,0,5.664.322c1.052,0,2.079-.041,3.052-.123a11.89,11.89,0,0,0,9.273-5.6,13.547,13.547,0,0,0,3.909-6.848c.6,1.3,1.261,2.726,2.007,4.132l.1.188c.954,1.813,3.51,6.668,9.318,7.917a15.431,15.431,0,0,0,3.294.335c.758,0,1.413-.045,1.94-.082.15-.01.293-.02.434-.027.424-.023.844-.043,1.263-.063l.622-.031.851-.04.288-.014a70.56,70.56,0,0,0,9.019-.827,19.838,19.838,0,0,0,4.4-1.224,11.759,11.759,0,0,0,3.983-2.628c.147-.15.288-.307.423-.468.241-.289.458-.576.653-.859a10.6,10.6,0,0,0,1.725.416,23.521,23.521,0,0,0,3.56.268l.335,0a22.722,22.722,0,0,0,8.259-1.554l.008,0a10.888,10.888,0,0,0,3.372-2.037,45.51,45.51,0,0,0,4.805,3.266c4.475,2.642,11.434,5.811,19.171,5.907l.353,0c5.127,0,9.29-1.489,12.374-4.426a14.928,14.928,0,0,0,2.156-2.577c3.729-3.578,5.455-8.982,4.733-14.833a19.922,19.922,0,0,0-3.857-9.772,39.453,39.453,0,0,0,3.841-6.489,48.2,48.2,0,0,0,4.39-15.472c.736-7.165-.668-13.647-4.063-18.767A16.082,16.082,0,0,0,4523.221,2417.946Z" fill="none" stroke="#fff" stroke-miterlimit="10" stroke-width="5.2"/>
          <path id="Path_14179" data-name="Path 14179" d="M4920.5,2432.916q-.165-.746-.351-1.479c-.087-.405-.2-.792-.342-1.291l-.073-.25-.009-.031a33.553,33.553,0,0,0-10.574-16.626,24.835,24.835,0,0,0-11.365-5.533,19.867,19.867,0,0,0-3.558-.323,19.2,19.2,0,0,0-11.257,3.6,21.453,21.453,0,0,0-2.686,2.286,26.81,26.81,0,0,0-12.753-3.56,18.964,18.964,0,0,0-9.983,2.745,20.323,20.323,0,0,0-4.208,3.407l-.1-.058a36.182,36.182,0,0,0-16.58-4.96c-1.133-.076-2.313-.113-3.606-.113-1.4,0-2.735.043-3.854.085-.568.022-1.152.03-1.717.039h-.122c-.457.007-.914.015-1.371.027a18.912,18.912,0,0,0-3.612.427,26.282,26.282,0,0,0-2.7-1.684,8.006,8.006,0,0,0-1.643-.8,45.961,45.961,0,0,0-5.9-2.11l-.248-.126a7.964,7.964,0,0,0-3.626-.873c-.18,0-.358.021-.538.033a35.08,35.08,0,0,0-5.308-.459h-.208a26.514,26.514,0,0,0-10.9,2.172q-.713.32-1.4.7c-.17,0-.341-.007-.511-.007a20.415,20.415,0,0,0-2.25.126,27.7,27.7,0,0,0-3.253.591c-.311.071-.6.14-.9.195a54.129,54.129,0,0,1-9.077.812q-.754.014-1.513.013c-2.85,0-5.9-.123-9.6-.386-2.332-.166-4.762-.414-7.112-.654-1.554-.159-3.161-.323-4.749-.466-1-.09-2.01-.136-3-.136a27.119,27.119,0,0,0-13.789,3.513,25.174,25.174,0,0,0-7.614,6.909q-.42.446-.822.917a14.469,14.469,0,0,0-2.94,1.023,16.016,16.016,0,0,0-1.76.977,14.714,14.714,0,0,0-4.846-6.676,18.3,18.3,0,0,0-11.283-3.366c-.256,0-.509,0-.759.01a35.131,35.131,0,0,0-18.246,6.063,33.329,33.329,0,0,0-7.757,7.075,14.84,14.84,0,0,0-.179-5.652c-.589-2.426-2.492-6.833-8.609-9.09a23.46,23.46,0,0,0-8.149-1.367,35.265,35.265,0,0,0-6.512.648,29.443,29.443,0,0,0-11.588,4.552,13.912,13.912,0,0,0-1.608,1.319,36.79,36.79,0,0,0-15.375-4.262c-1.133-.076-2.312-.113-3.606-.113-1.4,0-2.735.043-3.854.085-.568.022-1.152.03-1.717.039h-.123c-.456.007-.913.015-1.37.027a17.317,17.317,0,0,0-6.083,1.188,14.015,14.015,0,0,0-2.714,1.453,19.118,19.118,0,0,0-1.594-2.543,18.694,18.694,0,0,0-11.288-7.052,20.873,20.873,0,0,0-3.889-.427l-.3,0h0a22.726,22.726,0,0,0-16.026,6.979c-.54.55-1.069,1.142-1.581,1.768h-.238a38.786,38.786,0,0,0-5.636.4,24.552,24.552,0,0,0-13.1,5.692,19.824,19.824,0,0,0-2.821,3.137,22.427,22.427,0,0,0-6.24,12.823,23.1,23.1,0,0,0,2.866,14.95,22.5,22.5,0,0,0,5.472,6.228q-.172.524-.316,1.058a22.319,22.319,0,0,0,.1,11.442,31.3,31.3,0,0,0,9.234,14.778,35.573,35.573,0,0,0,14.331,8.054A32.127,32.127,0,0,0,4583.9,2492c.168,0,.336,0,.5,0a34.74,34.74,0,0,0,16.249-4.056q.981.492,2,.91a46.312,46.312,0,0,0,16.322,3.091c1.069.037,2.029.055,2.932.055a37.7,37.7,0,0,0,13.992-2.265,34.819,34.819,0,0,0,10.128-6.057q.633.635,1.3,1.226a28.136,28.136,0,0,0,11.614,6.1,30.945,30.945,0,0,0,7.674.992,26.623,26.623,0,0,0,6.08-.688,38.018,38.018,0,0,0,15.334-7.976q.69.691,1.39,1.338a30.651,30.651,0,0,0,7.544,5.33,21.7,21.7,0,0,0,9.6,2q.426,0,.849-.011a50.5,50.5,0,0,0,16.6-3.43,57.279,57.279,0,0,0,6.319-2.831,17.092,17.092,0,0,0,3.444,2.509,17.674,17.674,0,0,0,8.631,2.13c.246,0,.491,0,.737-.013a28.28,28.28,0,0,0,6.9-1.178,15.819,15.819,0,0,0,3.652-1.566,58.957,58.957,0,0,0,17.084,4.068,56.1,56.1,0,0,0,5.664.322c1.053,0,2.079-.041,3.052-.123a11.938,11.938,0,0,0,7.022-2.941,16.689,16.689,0,0,0,1.926.848l.05.019a35.936,35.936,0,0,0,11.066,2.161c.557.024,1.078.036,1.595.036a26.65,26.65,0,0,0,4.663-.383l.08-.014a12.731,12.731,0,0,0,6.6-3.049c.234.1.469.2.707.3a46.3,46.3,0,0,0,16.321,3.091c1.069.037,2.029.055,2.932.055a37.676,37.676,0,0,0,13.992-2.265,34.234,34.234,0,0,0,6.716-3.477,16.443,16.443,0,0,0,2.742,1.771,18.121,18.121,0,0,0,3.687,1.369,19.38,19.38,0,0,0,5.139.774,13.959,13.959,0,0,0,3.435-.42,11.4,11.4,0,0,0,5.654-3.364,32.183,32.183,0,0,0,6.344,3.536,27.11,27.11,0,0,0,15.473,1.6,24.384,24.384,0,0,0,13.455-7.388,30.255,30.255,0,0,0,2.2-2.627c5.191-5.559,8.458-13.269,9.979-23.56A69.765,69.765,0,0,0,4920.5,2432.916Z" fill="none" stroke="#fff" stroke-miterlimit="10" stroke-width="5.2"/>
        </g>
        <g id="Group_5636" data-name="Group 5636">
          <path id="Path_14180" data-name="Path 14180" d="M4523.221,2417.946a16.29,16.29,0,0,0-1.274-1.46,25.4,25.4,0,0,0-18.489-7.769h-.226a21.5,21.5,0,0,0-6.858,1.113,26.029,26.029,0,0,0-5.281,2.543,40.719,40.719,0,0,0-7.5,6.065q-1.168,1.174-2.289,2.456a23.314,23.314,0,0,0-9.659-1.916,33.659,33.659,0,0,0-3.712.21,33.305,33.305,0,0,0-5.1.968c-.858.236-1.634.488-2.371.771-.577.221-1.1.448-1.594.693a11.655,11.655,0,0,0-1.608.922,32.714,32.714,0,0,0-5.7-10.136,21.293,21.293,0,0,0-15.025-7.251c-.6-.036-1.218-.055-1.83-.055a50.729,50.729,0,0,0-11.209,1.544,101.515,101.515,0,0,0-9.829,2.64,57.323,57.323,0,0,1-7.7.593c-.5.009-1.006.013-1.512.013-2.85,0-5.9-.123-9.6-.386-2.332-.166-4.762-.414-7.112-.654-1.553-.159-3.161-.323-4.749-.466-1-.09-2.01-.136-3-.136a27.116,27.116,0,0,0-13.789,3.513,25.2,25.2,0,0,0-7.612,6.905,27.3,27.3,0,0,0-5.54,8.8,32.171,32.171,0,0,0-1.972,7.981,23.43,23.43,0,0,0,.617,9.711,14.635,14.635,0,0,0,8.838,9.644,15.141,15.141,0,0,0,5.264.925,18.29,18.29,0,0,0,7.214-1.55,22.4,22.4,0,0,0,3.751-2.057,97.109,97.109,0,0,1-2.888,9.8q-.459,1.38-.9,2.742l-.082.252a17.455,17.455,0,0,0-1.055,6.971,15.409,15.409,0,0,0,3.54,8.574,24.984,24.984,0,0,0,9.37,6.725,57.826,57.826,0,0,0,18.066,4.494,56.1,56.1,0,0,0,5.664.322c1.052,0,2.079-.041,3.052-.123a11.89,11.89,0,0,0,9.273-5.6,13.547,13.547,0,0,0,3.909-6.848c.6,1.3,1.261,2.726,2.007,4.132l.1.188c.954,1.813,3.51,6.668,9.318,7.917a15.431,15.431,0,0,0,3.294.335c.758,0,1.413-.045,1.94-.082.15-.01.293-.02.434-.027.424-.023.844-.043,1.263-.063l.622-.031.851-.04.288-.014a70.56,70.56,0,0,0,9.019-.827,19.838,19.838,0,0,0,4.4-1.224,11.759,11.759,0,0,0,3.983-2.628c.147-.15.288-.307.423-.468.241-.289.458-.576.653-.859a10.6,10.6,0,0,0,1.725.416,23.521,23.521,0,0,0,3.56.268l.335,0a22.722,22.722,0,0,0,8.259-1.554l.008,0a10.888,10.888,0,0,0,3.372-2.037,45.51,45.51,0,0,0,4.805,3.266c4.475,2.642,11.434,5.811,19.171,5.907l.353,0c5.127,0,9.29-1.489,12.374-4.426a14.928,14.928,0,0,0,2.156-2.577c3.729-3.578,5.455-8.982,4.733-14.833a19.922,19.922,0,0,0-3.857-9.772,39.453,39.453,0,0,0,3.841-6.489,48.2,48.2,0,0,0,4.39-15.472c.736-7.165-.668-13.647-4.063-18.767A16.082,16.082,0,0,0,4523.221,2417.946Z" fill="none" stroke="#000" stroke-miterlimit="10" stroke-width="3.9"/>
          <path id="Path_14181" data-name="Path 14181" d="M4920.5,2432.916q-.165-.746-.351-1.479c-.087-.405-.2-.792-.342-1.291l-.073-.25-.009-.031a33.553,33.553,0,0,0-10.574-16.626,24.835,24.835,0,0,0-11.365-5.533,19.867,19.867,0,0,0-3.558-.323,19.2,19.2,0,0,0-11.257,3.6,21.453,21.453,0,0,0-2.686,2.286,26.81,26.81,0,0,0-12.753-3.56,18.964,18.964,0,0,0-9.983,2.745,20.323,20.323,0,0,0-4.208,3.407l-.1-.058a36.182,36.182,0,0,0-16.58-4.96c-1.133-.076-2.313-.113-3.606-.113-1.4,0-2.735.043-3.854.085-.568.022-1.152.03-1.717.039h-.122c-.457.007-.914.015-1.371.027a18.912,18.912,0,0,0-3.612.427,26.282,26.282,0,0,0-2.7-1.684,8.006,8.006,0,0,0-1.643-.8,45.961,45.961,0,0,0-5.9-2.11l-.248-.126a7.964,7.964,0,0,0-3.626-.873c-.18,0-.358.021-.538.033a35.08,35.08,0,0,0-5.308-.459h-.208a26.514,26.514,0,0,0-10.9,2.172q-.713.32-1.4.7c-.17,0-.341-.007-.511-.007a20.415,20.415,0,0,0-2.25.126,27.7,27.7,0,0,0-3.253.591c-.311.071-.6.14-.9.195a54.129,54.129,0,0,1-9.077.812q-.754.014-1.513.013c-2.85,0-5.9-.123-9.6-.386-2.332-.166-4.762-.414-7.112-.654-1.554-.159-3.161-.323-4.749-.466-1-.09-2.01-.136-3-.136a27.119,27.119,0,0,0-13.789,3.513,25.174,25.174,0,0,0-7.614,6.909q-.42.446-.822.917a14.469,14.469,0,0,0-2.94,1.023,16.016,16.016,0,0,0-1.76.977,14.714,14.714,0,0,0-4.846-6.676,18.3,18.3,0,0,0-11.283-3.366c-.256,0-.509,0-.759.01a35.131,35.131,0,0,0-18.246,6.063,33.329,33.329,0,0,0-7.757,7.075,14.84,14.84,0,0,0-.179-5.652c-.589-2.426-2.492-6.833-8.609-9.09a23.46,23.46,0,0,0-8.149-1.367,35.265,35.265,0,0,0-6.512.648,29.443,29.443,0,0,0-11.588,4.552,13.912,13.912,0,0,0-1.608,1.319,36.79,36.79,0,0,0-15.375-4.262c-1.133-.076-2.312-.113-3.606-.113-1.4,0-2.735.043-3.854.085-.568.022-1.152.03-1.717.039h-.123c-.456.007-.913.015-1.37.027a17.317,17.317,0,0,0-6.083,1.188,14.015,14.015,0,0,0-2.714,1.453,19.118,19.118,0,0,0-1.594-2.543,18.694,18.694,0,0,0-11.288-7.052,20.873,20.873,0,0,0-3.889-.427l-.3,0h0a22.726,22.726,0,0,0-16.026,6.979c-.54.55-1.069,1.142-1.581,1.768h-.238a38.786,38.786,0,0,0-5.636.4,24.552,24.552,0,0,0-13.1,5.692,19.824,19.824,0,0,0-2.821,3.137,22.427,22.427,0,0,0-6.24,12.823,23.1,23.1,0,0,0,2.866,14.95,22.5,22.5,0,0,0,5.472,6.228q-.172.524-.316,1.058a22.319,22.319,0,0,0,.1,11.442,31.3,31.3,0,0,0,9.234,14.778,35.573,35.573,0,0,0,14.331,8.054A32.127,32.127,0,0,0,4583.9,2492c.168,0,.336,0,.5,0a34.74,34.74,0,0,0,16.249-4.056q.981.492,2,.91a46.312,46.312,0,0,0,16.322,3.091c1.069.037,2.029.055,2.932.055a37.7,37.7,0,0,0,13.992-2.265,34.819,34.819,0,0,0,10.128-6.057q.633.635,1.3,1.226a28.136,28.136,0,0,0,11.614,6.1,30.945,30.945,0,0,0,7.674.992,26.623,26.623,0,0,0,6.08-.688,38.018,38.018,0,0,0,15.334-7.976q.69.691,1.39,1.338a30.651,30.651,0,0,0,7.544,5.33,21.7,21.7,0,0,0,9.6,2q.426,0,.849-.011a50.5,50.5,0,0,0,16.6-3.43,57.279,57.279,0,0,0,6.319-2.831,17.092,17.092,0,0,0,3.444,2.509,17.674,17.674,0,0,0,8.631,2.13c.246,0,.491,0,.737-.013a28.28,28.28,0,0,0,6.9-1.178,15.819,15.819,0,0,0,3.652-1.566,58.957,58.957,0,0,0,17.084,4.068,56.1,56.1,0,0,0,5.664.322c1.053,0,2.079-.041,3.052-.123a11.938,11.938,0,0,0,7.022-2.941,16.689,16.689,0,0,0,1.926.848l.05.019a35.936,35.936,0,0,0,11.066,2.161c.557.024,1.078.036,1.595.036a26.65,26.65,0,0,0,4.663-.383l.08-.014a12.731,12.731,0,0,0,6.6-3.049c.234.1.469.2.707.3a46.3,46.3,0,0,0,16.321,3.091c1.069.037,2.029.055,2.932.055a37.676,37.676,0,0,0,13.992-2.265,34.234,34.234,0,0,0,6.716-3.477,16.443,16.443,0,0,0,2.742,1.771,18.121,18.121,0,0,0,3.687,1.369,19.38,19.38,0,0,0,5.139.774,13.959,13.959,0,0,0,3.435-.42,11.4,11.4,0,0,0,5.654-3.364,32.183,32.183,0,0,0,6.344,3.536,27.11,27.11,0,0,0,15.473,1.6,24.384,24.384,0,0,0,13.455-7.388,30.255,30.255,0,0,0,2.2-2.627c5.191-5.559,8.458-13.269,9.979-23.56A69.765,69.765,0,0,0,4920.5,2432.916Z" fill="none" stroke="#000" stroke-miterlimit="10" stroke-width="3.9"/>
        </g>
      </g>
    </g>
    <g id="Group_5683" data-name="Group 5683">
      <g id="Group_5649" data-name="Group 5649">
        <g id="Group_5642" data-name="Group 5642">
          <path id="Path_14182" data-name="Path 14182" d="M4517.686,2423.915a7.352,7.352,0,0,0-.716-.976,8.09,8.09,0,0,0-.734-.847,17.445,17.445,0,0,0-12.779-5.375h-.184a13.616,13.616,0,0,0-4.309.682,18.221,18.221,0,0,0-3.672,1.783,32.81,32.81,0,0,0-6.03,4.9,46.076,46.076,0,0,0-3.756,4.291,48.556,48.556,0,0,0-6.892,10.03,37.691,37.691,0,0,0-4.61,15.144,24.787,24.787,0,0,0,4.193,15.245,34.484,34.484,0,0,0,11.239,10.411c3.638,2.147,9.228,4.723,15.2,4.8.084,0,.169,0,.253,0,3.047,0,5.29-.726,6.858-2.219a7.241,7.241,0,0,0,1.462-1.991,6.881,6.881,0,0,0,.651-.544c1.907-1.817,2.765-4.77,2.354-8.1-.189-1.529-.93-5.3-3.733-7.246a4.4,4.4,0,0,0-2.5-.836h-.082a5.923,5.923,0,0,0-1.9.431c-.177.064-.343.123-.487.165-.612.177-1.251.323-1.907.445a21.7,21.7,0,0,0,2.2-1.639,24.97,24.97,0,0,0,3.941-4.281,29.365,29.365,0,0,0,5.161-7.7,40.13,40.13,0,0,0,3.665-12.872C4520.966,2433.776,4520.748,2428.4,4517.686,2423.915Zm-28.245,30.645c-.012-.122-.023-.246-.03-.372a10.436,10.436,0,0,1,.653-4.271,10.293,10.293,0,0,1,.7-1.495,4.494,4.494,0,0,1,2.651-1.19c.068,0,.137,0,.2.009a1.892,1.892,0,0,1,1.588,2.166h0v.011h0a4.829,4.829,0,0,1-.755,2.184A13.821,13.821,0,0,1,4489.441,2454.56Z"/>
          <g id="Group_5641" data-name="Group 5641" clip-path="url(#clip-path)">
            <g id="Group_5640" data-name="Group 5640">
              <g id="Group_5639" data-name="Group 5639">
                <path id="Path_14183" data-name="Path 14183" d="M4515.146,2423.366s.132.169.5.63.506.628.507.628Z" fill="url(#linear-gradient)"/>
                <path id="Path_14184" data-name="Path 14184" d="M4515.644,2424a15.6,15.6,0,0,0-12.187-5.589h-.167a11.986,11.986,0,0,0-3.779.591,16.64,16.64,0,0,0-3.332,1.623,31.3,31.3,0,0,0-5.718,4.649,46.44,46.44,0,0,0-8.234,11.373,36.35,36.35,0,0,0-4.424,14.465,23.146,23.146,0,0,0,3.915,14.211,32.678,32.678,0,0,0,10.69,9.891c4.284,2.529,9.333,4.5,14.364,4.562H4507c2,0,4.2-.328,5.692-1.753,1.771-1.687,2.129-4.351,1.842-6.672-.266-2.159-1.153-4.767-3.02-6.066a2.73,2.73,0,0,0-1.537-.533h-.046a8.023,8.023,0,0,0-1.955.53,22.62,22.62,0,0,1-3.7.732,27.105,27.105,0,0,1-3.109.18,25.035,25.035,0,0,1-4.219-.351,16.233,16.233,0,0,1-5.71-1.906,7.5,7.5,0,0,1-1.96-1.681c.706.235,1.385.558,2.081.821a7.875,7.875,0,0,0,2.109.382c.6.053,1.212.079,1.82.079a21.828,21.828,0,0,0,3.191-.237,20.61,20.61,0,0,0,10.336-4.658,26.306,26.306,0,0,0,6.558-8.88,38.409,38.409,0,0,0,3.512-12.321C4519.371,2432.764,4518.666,2427.756,4515.644,2424Zm-16.65,23.2s0-.057.012-.213a8.623,8.623,0,0,1-2.657,5.119,15.468,15.468,0,0,1-6.4,4.073,9.221,9.221,0,0,1-2.86.592,4.382,4.382,0,0,1-.659-.049,9.027,9.027,0,0,0,1.4-.571c.192-.121.149-.069.1-.3q-.054-.255-.1-.513c-.054-.343-.091-.689-.113-1.035a12.114,12.114,0,0,1,.757-4.968,11.222,11.222,0,0,1,2.912-4.39,6.447,6.447,0,0,1,4.134-1.929c.118,0,.237.006.356.016a3.558,3.558,0,0,1,3.123,3.957c.01-.153.014-.209.014-.209Z" fill="url(#linear-gradient-2)"/>
              </g>
              <path id="Path_14185" data-name="Path 14185" d="M4503.918,2421.093a9.519,9.519,0,0,1,12.233,10.48,25.373,25.373,0,0,0-1.694-4.108c-2.042-3.988-6.26-5.757-10.539-6.372Z" fill="#fff"/>
              <path id="Path_14186" data-name="Path 14186" d="M4503.231,2468.078c.919-.258,1.723-.476,2.51-.758a12.321,12.321,0,0,1,3.961-1.066,3.384,3.384,0,0,1,3.106,2.978c-1.252-.89-2.169-1.7-3.6-1.28-.144.026-.432.1-.572.144-1.635.506-3.778.88-5.409-.018Z" fill="#fff"/>
            </g>
          </g>
        </g>
        <g id="Group_5644" data-name="Group 5644">
          <path id="Path_14188" data-name="Path 14188" d="M4482.623,2435.341c-.074-.643-.165-1.212-.28-1.742l-.009-.07a2.971,2.971,0,0,0-.129-.517c-.011-.037-.023-.08-.038-.13l-.029-.1c-1.051-3.738-4.78-5.8-10.5-5.8a25.664,25.664,0,0,0-2.827.16,25.2,25.2,0,0,0-3.863.731c-.6.166-1.137.338-1.629.527a10.16,10.16,0,0,0-.963.42l-.033.016a2.31,2.31,0,0,0-1.215,1.075,2.155,2.155,0,0,0-.175,1.132c-.256.1-.48.206-.69.312l-.033.016a2.315,2.315,0,0,0-1.215,1.075,2.388,2.388,0,0,0-.145,1.388l0,.042.013.4.015.45c.01.314.023.628.036.942.142,3.429.3,6.822.443,9.69l.148,3.028.047.969-.132.009c-.211.015-.424.035-.637.056-.328.033-.638.063-.916.063a2.87,2.87,0,0,1-.291-.013.963.963,0,0,1-.709-.364,2.159,2.159,0,0,1-.109-.3c-.032-.1-.065-.2-.1-.308-.084-.237-.207-.612-.279-.874-.521-1.9-1.062-3.782-1.475-5.207-.713-2.455-1.447-4.946-2.157-7.356l-.652-2.216q-.168-.575-.336-1.15c-.5-1.716-1.018-3.489-1.609-5.227a26.7,26.7,0,0,0-4.659-8.826,13.188,13.188,0,0,0-9.449-4.492c-.439-.026-.893-.04-1.349-.04a43.1,43.1,0,0,0-9.442,1.347,84.484,84.484,0,0,0-10.376,2.879,23.226,23.226,0,0,0-4.837,2.3,7.492,7.492,0,0,0-2.837,3.044,5.758,5.758,0,0,0-2.519,4.3c-.067,2.2,1.2,4.018,2.214,5.48l.022.032c.487.7.991,1.376,1.425,1.955,2.723,3.626,5.858,7.861,8.611,12.246a181.785,181.785,0,0,1,9.954,18.457c1.588,3.312,3.16,6.759,4.548,9.8l.193.424c.667,1.463,1.356,2.976,2.133,4.442l.1.192c.708,1.343,1.777,3.374,3.93,3.837a7.581,7.581,0,0,0,1.61.156c.483,0,.945-.032,1.391-.062.19-.014.379-.027.567-.037.433-.023.868-.044,1.3-.065l.612-.029,1.153-.055a63.56,63.56,0,0,0,8.015-.716,12.24,12.24,0,0,0,2.67-.716,4.007,4.007,0,0,0,1.374-.852,2.658,2.658,0,0,0,.586-1.05c.032-.2.053-.4.07-.6.027-.011.055-.019.083-.031a4,4,0,0,0,1.373-.852,2.648,2.648,0,0,0,.586-1.05,14.672,14.672,0,0,0-.06-3.844c-.028-.266-.057-.529-.08-.787l-.07-.767c-.124-1.348-.253-2.741-.335-4.1a36.238,36.238,0,0,1-.034-4.848,12.734,12.734,0,0,1,.319-2.128,2,2,0,0,1,.356-.035,1.929,1.929,0,0,1,1.61.852,10.036,10.036,0,0,1,1.289,3.8c.24,1.274.427,2.6.607,3.881q.081.573.163,1.146l.071.492a19.473,19.473,0,0,0,1.08,4.7l.02.05a2.793,2.793,0,0,0,2.1,1.951,15.578,15.578,0,0,0,2.346.175h.239a14.755,14.755,0,0,0,5.387-.984l.063-.025a2.457,2.457,0,0,0,1.344-1.05,2.32,2.32,0,0,0,.26-.763l0-.02c.046-.186.09-.374.135-.561.1-.039.206-.075.306-.116l.064-.025a2.456,2.456,0,0,0,1.344-1.05,2.347,2.347,0,0,0,.26-.763l0-.02c.083-.336.165-.676.243-1.016,1.1-4.754,2.066-9.893,2.95-15.71.611-4.019,1.022-7.326,1.294-10.408A52.791,52.791,0,0,0,4482.623,2435.341Z"/>
          <g id="Group_5643" data-name="Group 5643">
            <path id="Path_14189" data-name="Path 14189" d="M4463.461,2448.79h0c0-.023,0-.047-.008-.072Z" fill="url(#linear-gradient-3)"/>
            <path id="Path_14190" data-name="Path 14190" d="M4480.8,2445.759a50.8,50.8,0,0,0,.14-10.225,14.139,14.139,0,0,0-.431-2.29c-1.033-3.671-5.245-4.574-8.872-4.574a23.94,23.94,0,0,0-2.639.149,23.474,23.474,0,0,0-3.6.682c-.5.136-.989.29-1.471.475a8.3,8.3,0,0,0-.8.35c-.121.061-.426.182-.485.306a1.864,1.864,0,0,0,.02.606q.015.445.03.89c.01.309.022.619.035.928q.2,4.841.443,9.678.147,3.027.295,6.055c.111,1.354-1.457,1.968-2.548,2.136-.452.07-.911.086-1.368.118-.553.038-1.113.123-1.67.123a4.576,4.576,0,0,1-.466-.022,2.6,2.6,0,0,1-1.949-1.121,4.182,4.182,0,0,1-.389-.97c-.086-.244-.227-.668-.316-.992-.474-1.731-.968-3.458-1.469-5.182q-1.389-4.786-2.806-9.566c-.62-2.109-1.216-4.228-1.924-6.309a24.712,24.712,0,0,0-4.339-8.267,11.507,11.507,0,0,0-8.271-3.909q-.623-.037-1.247-.037a41.485,41.485,0,0,0-9.069,1.3,84.234,84.234,0,0,0-10.172,2.819,21.349,21.349,0,0,0-4.484,2.124c-1.206.794-2.438,1.906-2.485,3.454-.05,1.655,1.033,3.2,1.935,4.5.449.646.917,1.276,1.389,1.905,3.028,4.032,6.008,8.089,8.691,12.363a186.335,186.335,0,0,1,10.046,18.624c1.562,3.258,3.063,6.543,4.562,9.83.732,1.6,1.456,3.218,2.282,4.777.636,1.2,1.434,2.854,2.893,3.168a5.9,5.9,0,0,0,1.255.118c.624,0,1.255-.064,1.867-.1.64-.034,1.28-.064,1.92-.095a72.927,72.927,0,0,0,8.96-.748,10.675,10.675,0,0,0,2.305-.608,2.5,2.5,0,0,0,.822-.477c.03-.031.1-.15.121-.15,0,0,.006.006,0,.018a17.515,17.515,0,0,0-.154-4.214c-.149-1.639-.31-3.277-.409-4.92a37.419,37.419,0,0,1-.032-5.078,9.451,9.451,0,0,1,1.236-4.488,3.879,3.879,0,0,1,3.236-1.772,3.62,3.62,0,0,1,2.993,1.57,11.356,11.356,0,0,1,1.567,4.461c.318,1.69.536,3.4.782,5.1a20.365,20.365,0,0,0,1.042,4.793c.166.406.349.9.812.971a13.667,13.667,0,0,0,2.089.156h.214a13.231,13.231,0,0,0,4.768-.857c.2-.081.477-.164.581-.346a1.394,1.394,0,0,0,.088-.338q.126-.5.243-1.008c1.192-5.147,2.132-10.361,2.925-15.583C4480.042,2452.642,4480.5,2449.205,4480.8,2445.759Z" fill="url(#linear-gradient-4)"/>
            <path id="Path_14191" data-name="Path 14191" d="M4480.5,2433.2l.012.043c.109.381.146.509.146.509Z" fill="url(#linear-gradient-5)"/>
          </g>
          <path id="Path_14192" data-name="Path 14192" d="M4431.4,2416.963c5.8-2.4,13.235.9,13.421,7.643a18.4,18.4,0,0,0-2.345-3.449c-2.8-3.137-7.022-3.893-11.076-4.194Z" fill="#fff"/>
          <path id="Path_14193" data-name="Path 14193" d="M4472.669,2430.642a4.5,4.5,0,0,1,6,1.375,7.077,7.077,0,0,1,.656,6.228c-.349-1-.6-1.955-.9-2.851-.927-2.969-2.584-4.471-5.756-4.752Z" fill="#fff"/>
          <path id="Path_14194" data-name="Path 14194" d="M4450,2477.958c1.6-.744,3.275-.942,4.762-1.722.138-.091.134-.093.193-.2a6.87,6.87,0,0,0,.036-2.562,18.06,18.06,0,0,1-.09-3.122c.916,1.842,3.037,5.715.792,7.291a7.32,7.32,0,0,1-5.693.312Z" fill="#fff"/>
          <path id="Path_14195" data-name="Path 14195" d="M4470,2472.565c1.158-.671,2.311-.9,3.437-1.428a.881.881,0,0,0,.219-.166c.788-.863.926-2.539,1.493-3.714.716,1.718.962,4.3-.931,5.37a5.228,5.228,0,0,1-4.218-.062Z" fill="#fff"/>
        </g>
        <g id="Group_5648" data-name="Group 5648">
          <path id="Path_14196" data-name="Path 14196" d="M4428.894,2420.088a8.553,8.553,0,0,0-1.992-2.2,4.464,4.464,0,0,0-.646-.461,3.844,3.844,0,0,0-.8-.427,9.18,9.18,0,0,0-4.017-.847,12.539,12.539,0,0,0-1.369.077,20.73,20.73,0,0,0-2.355.44c-.415.1-.807.184-1.2.257a62,62,0,0,1-10.422.949q-.823.014-1.645.013c-3.044,0-6.274-.128-10.164-.4-2.45-.174-4.945-.429-7.358-.676-1.522-.155-3.1-.316-4.653-.456-.767-.069-1.535-.1-2.284-.1a19.236,19.236,0,0,0-9.778,2.435,17.136,17.136,0,0,0-5.461,5.122,19.02,19.02,0,0,0-4.247,6.566,24.186,24.186,0,0,0-1.48,6,15.733,15.733,0,0,0,.32,6.448,6.619,6.619,0,0,0,3.959,4.481,7.182,7.182,0,0,0,2.494.43,10.354,10.354,0,0,0,4.066-.905,14.536,14.536,0,0,0,2.714-1.536c.442-.316.846-.648,1.238-.969.346-.284.673-.552,1.005-.793a15.345,15.345,0,0,1,4.276-2.184,16.86,16.86,0,0,1,5.12-.841c.159,0,.317,0,.473.008l.018.066c2.066,7.873-.632,16-3.241,23.865q-.45,1.353-.885,2.687l-.087.266a9.85,9.85,0,0,0-.683,3.89,7.361,7.361,0,0,0,1.76,4.117,17.172,17.172,0,0,0,6.441,4.482,50.084,50.084,0,0,0,15.6,3.836,48.388,48.388,0,0,0,4.864.281c.829,0,1.632-.032,2.386-.095a4.237,4.237,0,0,0,3.714-2.976c2.549-1.307,2.748-5.049,2.83-6.6a42.192,42.192,0,0,0-.535-8.186c-.363-2.511-.875-5.181-1.567-8.164-.64-2.764-1.344-5.476-2.09-8.059-.176-.606-.365-1.217-.548-1.808a29.146,29.146,0,0,1-1.339-5.541c-.018-.177-.028-.343-.034-.5.071,0,.14-.007.206-.008h.093a15.31,15.31,0,0,1,2.058.2c.216.03.432.06.647.087a31.726,31.726,0,0,0,4.006.309,14.855,14.855,0,0,0,3.416-.365,7.968,7.968,0,0,0,5.36-4.069,8.285,8.285,0,0,0,2.511-3.363,18.134,18.134,0,0,0,1.224-6.7A14.186,14.186,0,0,0,4428.894,2420.088Z"/>
          <g id="Group_5647" data-name="Group 5647" clip-path="url(#clip-path-2)">
            <g id="Group_5646" data-name="Group 5646">
              <g id="Group_5645" data-name="Group 5645">
                <path id="Path_14197" data-name="Path 14197" d="M4424.962,2418.618s.1.068.39.254.4.239.4.239S4424.973,2418.617,4424.962,2418.618Z" fill="url(#linear-gradient-6)"/>
                <path id="Path_14198" data-name="Path 14198" d="M4428.035,2434.193a16.813,16.813,0,0,0,1.091-6.085,12.679,12.679,0,0,0-1.654-7.108,6.715,6.715,0,0,0-2.12-2.128,7.2,7.2,0,0,0-3.91-1.028,10.821,10.821,0,0,0-1.183.066c-1.159.129-2.283.465-3.427.679a63.7,63.7,0,0,1-10.705.978c-.558.009-1.115.014-1.673.014-3.431,0-6.862-.167-10.284-.41-4.024-.286-8.025-.773-12.042-1.135-.707-.064-1.42-.1-2.133-.1a17.727,17.727,0,0,0-8.931,2.207,16.314,16.314,0,0,0-6.868,8.3,22.661,22.661,0,0,0-1.376,5.579,14.128,14.128,0,0,0,.257,5.759,5,5,0,0,0,2.929,3.391,5.493,5.493,0,0,0,1.908.325,8.817,8.817,0,0,0,3.4-.768,12.848,12.848,0,0,0,2.4-1.359c.771-.551,1.466-1.2,2.234-1.754a17.1,17.1,0,0,1,4.746-2.423,18.531,18.531,0,0,1,5.641-.924,13.219,13.219,0,0,1,4.7.81,6.866,6.866,0,0,1,1.423.7c-1.332-.072-2.663-.141-4-.172,2.44,9.3-1.317,18.747-4.153,27.5a9.145,9.145,0,0,0-.692,3.508A5.768,5.768,0,0,0,4385,2471.8a15.565,15.565,0,0,0,5.822,4.008,49.128,49.128,0,0,0,15.076,3.7c1.551.156,3.126.273,4.695.273.751,0,1.5-.027,2.245-.089,2.512-.21,2.782-3.5,2.885-5.451a40.408,40.408,0,0,0-.521-7.856c-.389-2.7-.925-5.37-1.54-8.023q-.929-4.011-2.068-7.971a44.5,44.5,0,0,1-1.944-7.646,4.964,4.964,0,0,1,.708-3.542,3.969,3.969,0,0,1,3.233-1.367h.117a23.245,23.245,0,0,1,2.92.3,30.065,30.065,0,0,0,3.791.295,13.27,13.27,0,0,0,3.03-.32A6.377,6.377,0,0,0,4428.035,2434.193Z" fill="url(#linear-gradient-7)"/>
              </g>
              <path id="Path_14199" data-name="Path 14199" d="M4406.526,2477.019c4.394.242,7.082.271,7.012-5.029a25.868,25.868,0,0,0-.339-3.885l.164-.042a21.774,21.774,0,0,1,1.018,3.865c.574,2.894-.439,6.766-4,6.757a6.028,6.028,0,0,1-3.925-1.512l.07-.154Z" fill="#fff"/>
              <path id="Path_14200" data-name="Path 14200" d="M4416.779,2420.994c3.965-3.264,9.335-2.518,10.66,2.917a13.51,13.51,0,0,1,.059,5.789c-.316-1.507-.567-2.982-.98-4.376-1.446-5.344-4.855-5.847-9.739-4.33Z" fill="#fff"/>
            </g>
          </g>
        </g>
      </g>
      <g id="Group_5653" data-name="Group 5653">
        <path id="Path_14202" data-name="Path 14202" d="M4912.693,2434.647q-.162-.738-.349-1.459a7.987,7.987,0,0,0-.22-.825c-.02-.069-.04-.14-.062-.213l-.028-.1a25.564,25.564,0,0,0-8.012-12.679,16.86,16.86,0,0,0-7.665-3.8,11.885,11.885,0,0,0-2.125-.192,11.228,11.228,0,0,0-6.594,2.1,14.664,14.664,0,0,0-3.617,3.794,15.655,15.655,0,0,0-2.166,2.62c-.112-.091-.219-.166-.3-.222l-.044-.03q-.313-.248-.633-.488a37.072,37.072,0,0,0-3.161-2.147,20.057,20.057,0,0,0-10.179-3.3,11.085,11.085,0,0,0-5.834,1.585,13.442,13.442,0,0,0-4.192,4.143c-3.489,3.312-4.964,8.365-5.784,12.122a64.566,64.566,0,0,0-1.136,17.382c.172,3.159.538,6.215.872,8.789a69.8,69.8,0,0,0,1.569,8.584,22.1,22.1,0,0,0,3.276,7.76,9.378,9.378,0,0,0,3.246,2.838,10.542,10.542,0,0,0,2.116.763,11.856,11.856,0,0,0,3.058.5,6.021,6.021,0,0,0,1.47-.174,3.509,3.509,0,0,0,2.6-2.7c.984-.4,2.223-1.4,2.3-3.909a15.159,15.159,0,0,0-.343-3.3c3.732,5.047,7.914,8.555,12.471,10.443a19.111,19.111,0,0,0,10.911,1.131,16.541,16.541,0,0,0,9.129-5.013,22.644,22.644,0,0,0,1.913-2.338c.066-.067.135-.128.2-.2,4.085-4.341,6.694-10.667,7.976-19.339A61.709,61.709,0,0,0,4912.693,2434.647Z"/>
        <g id="Group_5652" data-name="Group 5652" clip-path="url(#clip-path-3)">
          <g id="Group_5651" data-name="Group 5651">
            <g id="Group_5650" data-name="Group 5650">
              <path id="Path_14203" data-name="Path 14203" d="M4910.335,2432.259s.021.075.075.264l.256.883Z" fill="url(#linear-gradient-8)"/>
              <path id="Path_14204" data-name="Path 14204" d="M4911.679,2456.529a59.9,59.9,0,0,0-.635-21.516q-.279-1.254-.634-2.49a23.9,23.9,0,0,0-7.473-11.852,15.173,15.173,0,0,0-6.882-3.432,10.2,10.2,0,0,0-1.823-.165,9.58,9.58,0,0,0-5.609,1.782c-4.01,2.876-5.821,8.106-6.818,12.734a55.772,55.772,0,0,0-1.369,15.621,31.215,31.215,0,0,0,1.337,7.364,17.91,17.91,0,0,0,3.05,5.961,5.792,5.792,0,0,0,.466.515,12.787,12.787,0,0,1-3.152-4.076,26.141,26.141,0,0,1-2.474-6.781,48.32,48.32,0,0,1-.457-16.4,45.22,45.22,0,0,1,1.168-6.422q.139-.517.3-1.03c.078-.252.362-.809.246-1.007a1.933,1.933,0,0,0-.439-.355q-.308-.243-.619-.478a35.28,35.28,0,0,0-3.016-2.05,18.86,18.86,0,0,0-9.307-3.06,9.393,9.393,0,0,0-4.957,1.34c-4.288,2.6-6.079,8.014-7.09,12.645a63.676,63.676,0,0,0-1.1,16.93c.158,2.9.487,5.787.861,8.663a69.274,69.274,0,0,0,1.529,8.38,20.673,20.673,0,0,0,3,7.179,7.753,7.753,0,0,0,2.657,2.337,8.962,8.962,0,0,0,1.785.635,10.314,10.314,0,0,0,2.619.44,4.287,4.287,0,0,0,1.056-.123c1.172-.3,1.475-1.386,1.509-2.482a19.9,19.9,0,0,0-.531-4.089c-.257-1.419-.47-2.849-.656-4.279a73.636,73.636,0,0,1-.624-7.99,34.948,34.948,0,0,1,.5-7.325,19.851,19.851,0,0,1,.678-2.551,28.545,28.545,0,0,0-.257,8.336,6.5,6.5,0,0,0,.143,1.21,10.077,10.077,0,0,0,.41,1.041c.225.536.467,1.064.722,1.586a44.619,44.619,0,0,0,2.195,3.962c3.361,5.418,7.987,10.7,14,13.194a17.522,17.522,0,0,0,6.706,1.338,17.28,17.28,0,0,0,3.241-.306,14.942,14.942,0,0,0,8.215-4.511C4908.763,2470.048,4910.717,2463.038,4911.679,2456.529Z" fill="url(#linear-gradient-9)"/>
            </g>
            <path id="Path_14205" data-name="Path 14205" d="M4891.884,2419.322c3.593-1.478,7.886.071,10.662,2.572a18.7,18.7,0,0,1,4.829,6.928c1.1,3.186,1.2,3.254-.728.4-3.477-4.983-8.2-10.038-14.763-9.9Z" fill="#fff"/>
            <path id="Path_14206" data-name="Path 14206" d="M4891.328,2477.941c6.564.139,11.285-4.914,14.763-9.9,1.9-2.8,1.856-2.846.728.4a18.7,18.7,0,0,1-4.829,6.928c-2.776,2.5-7.07,4.051-10.662,2.572Z" fill="#fff"/>
            <path id="Path_14207" data-name="Path 14207" d="M4860.277,2427.453a7.772,7.772,0,0,1,1.821-4.3c3.337-4.031,9.445-2.833,13.043.149-1.488-.4-2.919-.829-4.356-1.069-4.79-.918-8.254.907-10.508,5.216Z" fill="#fff"/>
            <path id="Path_14208" data-name="Path 14208" d="M4867.946,2476.519a4.371,4.371,0,0,1-1.442-2.29,16.786,16.786,0,0,1-.188-3.831c.039-1.268.131-2.532.284-3.789l.169,0,.892,4.924a11.1,11.1,0,0,1,.428,4.9l-.143.09Z" fill="#fff"/>
          </g>
        </g>
      </g>
      <g id="Group_5657" data-name="Group 5657">
        <path id="Path_14210" data-name="Path 14210" d="M4755.775,2465.587a46.624,46.624,0,0,0-2.686-10.577l-.027-.074c-.043-.12-.091-.247-.142-.383h0v0h0l-.685-1.822a5.261,5.261,0,0,0-.337-.764,70.83,70.83,0,0,0-4.543-9.124,46.076,46.076,0,0,0-8.74-11.016,19.93,19.93,0,0,0-6.383-4.051,9.317,9.317,0,0,0-3.1-.566,6.727,6.727,0,0,0-2.91.631,7.966,7.966,0,0,0-3.615,3.47c-3.782,2.988-3.791,8.783-3.794,11.73,0,2.216.129,4.439.256,6.589.154,2.631.314,5.352.221,8a18.477,18.477,0,0,1-1.926,8.443,6.529,6.529,0,0,1-2.052,1.116,4.41,4.41,0,0,1-1.331.21,3.215,3.215,0,0,1-2.615-1.216c-.872-1.156-1.156-2.907-.867-5.352.29-2.461.726-4.883,1.114-6.928.254-1.342.53-2.708.8-4.028.711-3.522,1.446-7.163,1.879-10.838a53.359,53.359,0,0,0,.431-7.665,21.24,21.24,0,0,0-1.078-6.7,6.957,6.957,0,0,0-2.272-3.368,10.451,10.451,0,0,0-6.466-1.753c-.193,0-.384,0-.573.008a27.041,27.041,0,0,0-14,4.724,25,25,0,0,0-6.523,6.188,19.353,19.353,0,0,0-4.555,7.248,22.828,22.828,0,0,0-.814,9.946,45.29,45.29,0,0,0,4.2,13.953,61.189,61.189,0,0,0,7.378,11.918,46.093,46.093,0,0,0,4.833,5.267,22.968,22.968,0,0,0,5.586,4,13.939,13.939,0,0,0,6.133,1.2q.326,0,.648-.009a45.955,45.955,0,0,0,24.6-8.627c.257-.2.508-.393.757-.6a17.077,17.077,0,0,0,1.694,3.3,9.289,9.289,0,0,0,8.147,4.3q.223,0,.447-.008a20.506,20.506,0,0,0,4.977-.872,7.545,7.545,0,0,0,4.312-3.159c.146-.223.278-.453.4-.685a7.481,7.481,0,0,0,1.712-1.85C4756.327,2472.615,4756.115,2468.446,4755.775,2465.587Z"/>
        <g id="Group_5656" data-name="Group 5656" clip-path="url(#clip-path-4)">
          <g id="Group_5655" data-name="Group 5655">
            <g id="Group_5654" data-name="Group 5654">
              <path id="Path_14211" data-name="Path 14211" d="M4750.457,2452.807s.346.924.658,1.754q.112.293.222.585C4750.684,2453.409,4750.457,2452.807,4750.457,2452.807Z" fill="url(#linear-gradient-10)"/>
              <path id="Path_14212" data-name="Path 14212" d="M4751.6,2455.852s-.074-.2-.264-.706c.056.148.111.3.166.446Z" fill="url(#linear-gradient-11)"/>
              <path id="Path_14213" data-name="Path 14213" d="M4737.772,2474.581a7.612,7.612,0,0,0,6.748,3.56q.193,0,.387-.007a19.009,19.009,0,0,0,4.571-.807,5.881,5.881,0,0,0,3.363-2.457c1.692-2.6,1.607-6.13,1.256-9.084a45.257,45.257,0,0,0-2.594-10.194l-.388-1.031a70.6,70.6,0,0,0-5.213-10.854,44.868,44.868,0,0,0-8.411-10.619,18.056,18.056,0,0,0-5.823-3.721,7.7,7.7,0,0,0-2.537-.469,5.055,5.055,0,0,0-2.185.468c-4.072,1.933-4.328,7.223-4.331,11.14-.005,4.886.648,9.753.475,14.642-.135,3.793-.758,7.748-3.2,10.782a8.745,8.745,0,0,1-4.067,2.862,6.107,6.107,0,0,1-1.842.29,4.855,4.855,0,0,1-3.964-1.888c-1.392-1.845-1.457-4.367-1.2-6.568.279-2.36.689-4.711,1.132-7.045.932-4.914,2.072-9.774,2.659-14.749a52.343,52.343,0,0,0,.42-7.424,19.837,19.837,0,0,0-.981-6.174,5.432,5.432,0,0,0-1.7-2.585,9.051,9.051,0,0,0-5.449-1.413c-.179,0-.356,0-.531.007a25.484,25.484,0,0,0-13.1,4.442c-3.606,2.4-6.911,5.839-8.3,10.025a21.349,21.349,0,0,0-.739,9.222,43.588,43.588,0,0,0,4.047,13.428,59.474,59.474,0,0,0,7.175,11.588,44.158,44.158,0,0,0,4.654,5.074,21.612,21.612,0,0,0,5.171,3.715,12.435,12.435,0,0,0,5.4,1.037q.3,0,.6-.008a44.281,44.281,0,0,0,23.621-8.287c.4-.3.786-.616,1.164-.947a4.126,4.126,0,0,0,.525-.456c.145-.182.145-.166.105-.441a13.652,13.652,0,0,1-.118-2.454C4735.647,2469.655,4736.238,2472.321,4737.772,2474.581Z" fill="url(#linear-gradient-12)"/>
            </g>
            <path id="Path_14214" data-name="Path 14214" d="M4744.085,2475.7c4.653-1.07,7.918-2.506,8.072-7.753a21.471,21.471,0,0,0-.325-4.4l.164-.042a19.37,19.37,0,0,1,1.006,4.418c.37,3.078-.973,6.995-4.226,8.036a6.915,6.915,0,0,1-4.712-.1l.021-.167Z" fill="#fff"/>
            <path id="Path_14215" data-name="Path 14215" d="M4699.963,2424.533c3.965-3.264,9.335-2.518,10.66,2.917a13.525,13.525,0,0,1,.06,5.789c-.317-1.507-.568-2.982-.981-4.376-1.446-5.344-4.855-5.847-9.739-4.33Z" fill="#fff"/>
            <path id="Path_14216" data-name="Path 14216" d="M4729.349,2430.9a4.035,4.035,0,0,1,3.643.207,11.565,11.565,0,0,1,2.822,2.332,8.76,8.76,0,0,1,1.252,2.019l-.142.091a10.618,10.618,0,0,0-3.579-2.571,11.557,11.557,0,0,1-4.007-1.91l.011-.168Z" fill="#fff"/>
          </g>
        </g>
      </g>
      <g id="Group_5661" data-name="Group 5661">
        <path id="Path_14218" data-name="Path 14218" d="M4697.191,2452.89a9.52,9.52,0,0,0-2.922-3.61l-.016-.012-.016-.012-.021-.016c-.047-.038-.089-.07-.123-.1v0l-.006,0v0a7.525,7.525,0,0,0-1.158-.8,23.5,23.5,0,0,0-7.391-2.9,29.5,29.5,0,0,0-4.954-.639c-.521-.028-.99-.041-1.435-.041a15.079,15.079,0,0,0-3.434.355,12.855,12.855,0,0,0-7.6,5.618l-.029.042a17,17,0,0,0-2.084,2.493c-.357.516-.7,1.039-1.028,1.546-.4.615-.787,1.2-1.191,1.763a26.167,26.167,0,0,1,.021-5.187c.5-5.589,2.08-11.184,3.611-16.594l.2-.7q.26-.919.529-1.841a69.825,69.825,0,0,0,1.947-7.839l0-.035a8.686,8.686,0,0,0,.1-3.452c-.379-1.562-1.592-2.731-3.6-3.474a15.545,15.545,0,0,0-5.379-.872,27.421,27.421,0,0,0-5.045.512,21.6,21.6,0,0,0-8.46,3.237,7.207,7.207,0,0,0-2.173,2.583,8.509,8.509,0,0,0-2.74,3.922,23.122,23.122,0,0,0-1.249,4.987,54.643,54.643,0,0,0-.463,10.12,95.89,95.89,0,0,0,2.864,20.26c1.448,5.745,3.612,12.222,8.684,16.7a20.113,20.113,0,0,0,8.3,4.35,23.006,23.006,0,0,0,5.69.742,18.581,18.581,0,0,0,4.253-.477c5.454-1.281,10.926-4.728,16.265-10.243a47.715,47.715,0,0,0,3.5-4.028,40.778,40.778,0,0,0,4.6-6.149C4697.065,2460.035,4698.738,2456.424,4697.191,2452.89Z"/>
        <g id="Group_5660" data-name="Group 5660" clip-path="url(#clip-path-5)">
          <g id="Group_5659" data-name="Group 5659">
            <g id="Group_5658" data-name="Group 5658">
              <path id="Path_14219" data-name="Path 14219" d="M4693.289,2450.656l-.219-.167.153.118Z" fill="url(#linear-gradient-13)"/>
              <path id="Path_14220" data-name="Path 14220" d="M4692.324,2449.928l.529.4.217.161C4692.517,2450.072,4692.325,2449.928,4692.324,2449.928Z" fill="url(#linear-gradient-14)"/>
              <path id="Path_14221" data-name="Path 14221" d="M4688.031,2469.569a41,41,0,0,0,5.745-7.336c1.5-2.5,3.145-5.747,1.867-8.665a7.913,7.913,0,0,0-2.42-2.961l-.37-.279a20.852,20.852,0,0,0-7.685-3.236,28.29,28.29,0,0,0-4.675-.6c-.447-.024-.9-.039-1.344-.039a13.49,13.49,0,0,0-3.052.311,11.327,11.327,0,0,0-6.6,4.933c-.833,1.2-1.582,2.459-2.45,3.64s-1.782,2.291-2.722,3.4a40.86,40.86,0,0,1-5.295,5.447c.468-.694.938-1.388,1.4-2.084q.537-.8,1.071-1.6.316-.469.628-.941a2.52,2.52,0,0,0,.312-.474.683.683,0,0,0-.031-.4,24,24,0,0,1-.3-7.438c.533-5.989,2.239-11.843,3.867-17.606a89.9,89.9,0,0,0,2.436-9.5,7.528,7.528,0,0,0,.127-2.808,3.673,3.673,0,0,0-2.548-2.288,13.865,13.865,0,0,0-4.794-.767,26.094,26.094,0,0,0-4.734.483,20.117,20.117,0,0,0-7.8,2.96,6.79,6.79,0,0,0-2.2,3.2,21.814,21.814,0,0,0-1.153,4.628,53.659,53.659,0,0,0-.444,9.81,94.413,94.413,0,0,0,2.813,19.9c1.467,5.818,3.539,11.763,8.164,15.847a18.3,18.3,0,0,0,7.6,3.98,21.371,21.371,0,0,0,5.272.689,16.89,16.89,0,0,0,3.866-.432C4678.56,2477.94,4683.84,2473.9,4688.031,2469.569Z" fill="url(#linear-gradient-15)"/>
            </g>
            <path id="Path_14222" data-name="Path 14222" d="M4659.789,2419.738c2.187-.518,5.248-.514,6.863,1.4a2.593,2.593,0,0,1,.522,1.4,12.019,12.019,0,0,1-.954,5.687c-.505,1.394-1.008,2.777-1.54,4.157l-.163-.046c.264-1.454.589-2.9.87-4.34.364-1.933.857-3.766.125-5.535a3.7,3.7,0,0,0-1.655-1.145c-1.226-.538-2.637-.91-4.071-1.4l0-.169Z" fill="#fff"/>
            <path id="Path_14223" data-name="Path 14223" d="M4692.294,2451.753a7.381,7.381,0,0,1,1.459,5.444,11.366,11.366,0,0,1-.945,3.717,10.189,10.189,0,0,1-.873,1.687,32.639,32.639,0,0,1-6.019,7.042,18.293,18.293,0,0,1-1.378,1.211c-.842.643-2.017,1.663-2.891,2.246q-1.5,1.05-3,2.076l-.1-.137c1.822-1.54,3.732-3.118,5.422-4.81a17.385,17.385,0,0,0,1.267-1.281,38.745,38.745,0,0,0,3.447-4.11c.178-.276,1.039-1.615,1.194-1.863.288-.564.689-1.386.985-1.951l.326-.8a17.849,17.849,0,0,0,1.192-3.653c.04-.407.123-.864.158-1.271a8.822,8.822,0,0,0-.384-3.453l.139-.1Z" fill="#fff"/>
          </g>
        </g>
      </g>
      <g id="Group_5665" data-name="Group 5665">
        <path id="Path_14225" data-name="Path 14225" d="M4796.856,2420.088a8.553,8.553,0,0,0-1.992-2.2,4.411,4.411,0,0,0-.646-.461,3.832,3.832,0,0,0-.8-.427,9.18,9.18,0,0,0-4.017-.847,12.521,12.521,0,0,0-1.368.077,20.718,20.718,0,0,0-2.356.44c-.415.1-.807.184-1.2.257a62,62,0,0,1-10.422.949c-.548.009-1.1.013-1.645.013-3.044,0-6.273-.128-10.164-.4-2.449-.174-4.945-.429-7.358-.676-1.522-.155-3.1-.316-4.653-.456-.767-.069-1.535-.1-2.284-.1a19.233,19.233,0,0,0-9.778,2.435,17.133,17.133,0,0,0-5.461,5.122,19.012,19.012,0,0,0-4.247,6.566,24.143,24.143,0,0,0-1.48,6,15.724,15.724,0,0,0,.32,6.448,6.622,6.622,0,0,0,3.959,4.481,7.187,7.187,0,0,0,2.494.43,10.352,10.352,0,0,0,4.066-.905,14.536,14.536,0,0,0,2.714-1.536c.442-.316.847-.648,1.238-.969.346-.284.673-.552,1-.793a15.345,15.345,0,0,1,4.276-2.184,16.865,16.865,0,0,1,5.12-.841c.159,0,.317,0,.473.008l.018.066c2.066,7.873-.632,16-3.241,23.865q-.45,1.353-.885,2.687l-.087.266a9.868,9.868,0,0,0-.683,3.89,7.364,7.364,0,0,0,1.76,4.117,17.187,17.187,0,0,0,6.441,4.482,50.1,50.1,0,0,0,15.6,3.836,48.4,48.4,0,0,0,4.864.281c.829,0,1.632-.032,2.386-.095a4.237,4.237,0,0,0,3.714-2.976c2.549-1.307,2.748-5.049,2.831-6.6a42.189,42.189,0,0,0-.536-8.186c-.363-2.511-.875-5.181-1.566-8.164-.641-2.764-1.344-5.476-2.091-8.059-.176-.606-.365-1.217-.548-1.808a29.146,29.146,0,0,1-1.339-5.541c-.018-.177-.028-.343-.034-.5.071,0,.14-.007.207-.008h.092a15.3,15.3,0,0,1,2.058.2c.217.03.432.06.647.087a31.717,31.717,0,0,0,4.006.309,14.846,14.846,0,0,0,3.416-.365,7.97,7.97,0,0,0,5.361-4.069,8.3,8.3,0,0,0,2.511-3.363,18.135,18.135,0,0,0,1.223-6.7A14.171,14.171,0,0,0,4796.856,2420.088Z"/>
        <g id="Group_5664" data-name="Group 5664" clip-path="url(#clip-path-6)">
          <g id="Group_5663" data-name="Group 5663">
            <g id="Group_5662" data-name="Group 5662">
              <path id="Path_14226" data-name="Path 14226" d="M4792.924,2418.618s.1.068.39.254.4.239.4.239S4792.935,2418.617,4792.924,2418.618Z" fill="url(#linear-gradient-16)"/>
              <path id="Path_14227" data-name="Path 14227" d="M4796,2434.193a16.813,16.813,0,0,0,1.091-6.085,12.675,12.675,0,0,0-1.654-7.108,6.7,6.7,0,0,0-2.12-2.128,7.194,7.194,0,0,0-3.91-1.028,10.788,10.788,0,0,0-1.182.066c-1.16.129-2.283.465-3.427.679a63.711,63.711,0,0,1-10.706.978c-.558.009-1.115.014-1.673.014-3.431,0-6.861-.167-10.284-.41-4.024-.286-8.025-.773-12.042-1.135-.707-.064-1.42-.1-2.133-.1a17.727,17.727,0,0,0-8.931,2.207,16.313,16.313,0,0,0-6.868,8.3,22.617,22.617,0,0,0-1.376,5.579,14.128,14.128,0,0,0,.257,5.759,5,5,0,0,0,2.929,3.391,5.493,5.493,0,0,0,1.908.325,8.813,8.813,0,0,0,3.4-.768,12.848,12.848,0,0,0,2.4-1.359c.772-.551,1.467-1.2,2.234-1.754a17.079,17.079,0,0,1,4.747-2.423,18.519,18.519,0,0,1,5.64-.924,13.218,13.218,0,0,1,4.7.81,6.866,6.866,0,0,1,1.423.7c-1.332-.072-2.663-.141-4-.172,2.441,9.3-1.317,18.747-4.153,27.5a9.135,9.135,0,0,0-.692,3.508,5.764,5.764,0,0,0,1.384,3.175,15.563,15.563,0,0,0,5.822,4.008,49.125,49.125,0,0,0,15.076,3.7c1.551.156,3.126.273,4.7.273.751,0,1.5-.027,2.245-.089,2.512-.21,2.782-3.5,2.885-5.451a40.408,40.408,0,0,0-.521-7.856c-.389-2.7-.925-5.37-1.54-8.023q-.929-4.011-2.068-7.971a44.455,44.455,0,0,1-1.944-7.646,4.969,4.969,0,0,1,.708-3.542,3.969,3.969,0,0,1,3.233-1.367h.117a23.261,23.261,0,0,1,2.921.3,30.036,30.036,0,0,0,3.79.295,13.291,13.291,0,0,0,3.031-.32A6.376,6.376,0,0,0,4796,2434.193Z" fill="url(#linear-gradient-7)"/>
            </g>
            <path id="Path_14228" data-name="Path 14228" d="M4774.488,2477.019c4.394.242,7.082.271,7.013-5.029a25.68,25.68,0,0,0-.34-3.885l.164-.042a21.815,21.815,0,0,1,1.018,3.865c.574,2.894-.439,6.766-4,6.757a6.03,6.03,0,0,1-3.925-1.512l.07-.154Z" fill="#fff"/>
            <path id="Path_14229" data-name="Path 14229" d="M4784.741,2420.994c3.965-3.264,9.335-2.518,10.66,2.917a13.525,13.525,0,0,1,.06,5.789c-.317-1.507-.568-2.982-.981-4.376-1.446-5.344-4.855-5.847-9.739-4.33Z" fill="#fff"/>
          </g>
        </g>
      </g>
      <g id="Group_5669" data-name="Group 5669">
        <path id="Path_14231" data-name="Path 14231" d="M4652.482,2446.147c-.162-.971-.365-1.959-.6-2.937l0-.02-.006-.02-.015-.058c-.03-.134-.067-.275-.1-.425l-.007,0,0-.009.007,0c-.186-.707-.311-1.183-.389-1.482a4.183,4.183,0,0,0-.225-.672c-2.575-8.35-6.807-14.365-12.593-17.89a28.289,28.289,0,0,0-12.956-3.81c-.952-.064-1.955-.095-3.069-.095-1.258,0-2.5.04-3.552.08-.628.023-1.275.033-1.9.043-.464.007-.927.014-1.391.026a9.514,9.514,0,0,0-3.324.616,5.759,5.759,0,0,0-3.2,3.106,6.173,6.173,0,0,0-2.673,5.151,24.286,24.286,0,0,0-5.9,5.771,29.03,29.03,0,0,0-7.164,14.234,44.245,44.245,0,0,0-.651,13.56,30.066,30.066,0,0,0,3.126,11.562,19.267,19.267,0,0,0,9.8,8.572,38.7,38.7,0,0,0,13.563,2.5c.983.034,1.852.05,2.659.05a30.133,30.133,0,0,0,11.131-1.736,27.306,27.306,0,0,0,10.69-7.532c.491-.561.949-1.148,1.392-1.746.244-.259.486-.521.721-.789C4651.707,2465.494,4654.129,2456,4652.482,2446.147Zm-41.522,14.481c.189-.236.364-.468.539-.7.081-.087.163-.174.241-.262.439-.49.887-1.019,1.332-1.573a23.3,23.3,0,0,0,2.023-2.924,9.294,9.294,0,0,1,1.324,5.471h0v.01h0a8.338,8.338,0,0,1-.631,2.663,4.727,4.727,0,0,1-2.44.709,4.189,4.189,0,0,1-1.032-.128,2.916,2.916,0,0,1-1.852-1.225,1.534,1.534,0,0,1-.039-1.393C4610.6,2461.064,4610.781,2460.85,4610.96,2460.628Z"/>
        <g id="Group_5668" data-name="Group 5668" clip-path="url(#clip-path-7)">
          <g id="Group_5667" data-name="Group 5667">
            <g id="Group_5666" data-name="Group 5666">
              <path id="Path_14232" data-name="Path 14232" d="M4634.541,2478.15a25.631,25.631,0,0,0,10.024-7.068c5.9-6.735,7.7-15.97,6.25-24.656q-.237-1.419-.578-2.818c-.051-.19-.2-.749-.335-1.28-2.007-7.192-5.692-14.261-12.241-18.251a26.734,26.734,0,0,0-12.191-3.567c-.984-.066-1.97-.091-2.955-.091-1.163,0-2.327.035-3.489.079-1.1.041-2.207.04-3.31.07a7.911,7.911,0,0,0-2.739.494,4.534,4.534,0,0,0-2.694,4.731,29.86,29.86,0,0,1,.245,4.884q-.391-1.451-.854-2.882c-6.842,3.556-10.948,10.381-12.5,17.772a42.708,42.708,0,0,0-.624,13.042,29.008,29.008,0,0,0,2.928,10.924,17.67,17.67,0,0,0,8.952,7.818,37.54,37.54,0,0,0,12.981,2.374c.866.03,1.734.049,2.6.049A29.118,29.118,0,0,0,4634.541,2478.15ZM4620.236,2458l-.025.313,0-.072a8.953,8.953,0,0,1-2.064,5.286,6.525,6.525,0,0,1-4.8,2.186,5.859,5.859,0,0,1-1.449-.18,4.582,4.582,0,0,1-2.9-2.026,3.264,3.264,0,0,1,.21-3.5,15.977,15.977,0,0,1,1.276-1.468c.438-.489.862-.993,1.274-1.505a20.839,20.839,0,0,0,2.228-3.337,13.873,13.873,0,0,0,1.374-3.905.763.763,0,0,0,.017-.417,2.351,2.351,0,0,0-.287-.436c-.174-.256-.352-.509-.541-.754-.363-.471-.746-.921-1.133-1.373a9.9,9.9,0,0,1,2.329,1.567,13.794,13.794,0,0,1,2.386,2.575,11.087,11.087,0,0,1,2.088,7.287C4620.23,2458.062,4620.235,2458,4620.236,2458Z" fill="url(#linear-gradient-18)"/>
              <path id="Path_14233" data-name="Path 14233" d="M4650.256,2443.676s-.04-.162-.144-.569q.064.25.125.5Z" fill="url(#linear-gradient-19)"/>
              <path id="Path_14234" data-name="Path 14234" d="M4649.611,2441.206s.14.545.291,1.122c.072.26.142.519.21.779C4649.742,2441.7,4649.613,2441.206,4649.611,2441.206Z" fill="url(#linear-gradient-20)"/>
            </g>
            <path id="Path_14235" data-name="Path 14235" d="M4624.493,2422.227c9.493-.887,18.894,6.083,21.232,15.246-4.911-8.222-11.769-13.4-21.232-15.246Z" fill="#fff"/>
            <path id="Path_14236" data-name="Path 14236" d="M4646.155,2459.4c-.865,9.5-9.439,17.461-18.875,18.083a45.9,45.9,0,0,0,6.17-2.912,30.048,30.048,0,0,0,12.7-15.171Z" fill="#fff"/>
            <path id="Path_14237" data-name="Path 14237" d="M4613.013,2448.515a4.036,4.036,0,0,1-.126,3.647,11.54,11.54,0,0,1-2.267,2.873,8.81,8.81,0,0,1-1.99,1.3l-.094-.141a10.611,10.611,0,0,0,2.489-3.635,11.557,11.557,0,0,1,1.819-4.049l.169.007Z" fill="#fff"/>
          </g>
        </g>
      </g>
      <g id="Group_5673" data-name="Group 5673">
        <path id="Path_14239" data-name="Path 14239" d="M4863.031,2446.147c-.162-.971-.365-1.959-.6-2.937l0-.02-.006-.02-.015-.058c-.03-.134-.066-.275-.1-.425l-.007,0,0-.009.007,0c-.186-.707-.311-1.183-.389-1.482a4.282,4.282,0,0,0-.225-.672c-2.575-8.35-6.807-14.365-12.593-17.89a28.287,28.287,0,0,0-12.956-3.81c-.952-.064-1.955-.095-3.069-.095-1.258,0-2.5.04-3.552.08-.628.023-1.275.033-1.9.043-.463.007-.927.014-1.391.026a9.519,9.519,0,0,0-3.324.616,5.758,5.758,0,0,0-3.195,3.106,6.174,6.174,0,0,0-2.673,5.151,24.3,24.3,0,0,0-5.9,5.771,29.03,29.03,0,0,0-7.164,14.234,44.23,44.23,0,0,0-.651,13.56c.5,4.9,1.493,8.572,3.126,11.562a19.266,19.266,0,0,0,9.795,8.572,38.7,38.7,0,0,0,13.563,2.5c.983.034,1.852.05,2.659.05a30.128,30.128,0,0,0,11.131-1.736,27.3,27.3,0,0,0,10.69-7.532c.491-.561.949-1.148,1.392-1.746.244-.259.486-.521.721-.789C4862.256,2465.494,4864.678,2456,4863.031,2446.147Zm-41.522,14.481c.189-.236.364-.468.539-.7.081-.087.163-.174.241-.262.439-.49.887-1.019,1.332-1.573a23.351,23.351,0,0,0,2.023-2.924,9.29,9.29,0,0,1,1.324,5.471h0v.01h0a8.338,8.338,0,0,1-.631,2.663,4.726,4.726,0,0,1-2.44.709,4.192,4.192,0,0,1-1.032-.128,2.914,2.914,0,0,1-1.852-1.225,1.533,1.533,0,0,1-.039-1.393C4821.151,2461.064,4821.33,2460.85,4821.509,2460.628Z"/>
        <g id="Group_5672" data-name="Group 5672" clip-path="url(#clip-path-8)">
          <g id="Group_5671" data-name="Group 5671">
            <g id="Group_5670" data-name="Group 5670">
              <path id="Path_14240" data-name="Path 14240" d="M4845.09,2478.15a25.631,25.631,0,0,0,10.024-7.068c5.9-6.735,7.7-15.97,6.25-24.656q-.237-1.419-.578-2.818c-.051-.19-.2-.749-.335-1.28-2.007-7.192-5.692-14.261-12.241-18.251a26.734,26.734,0,0,0-12.191-3.567c-.984-.066-1.97-.091-2.955-.091-1.163,0-2.326.035-3.489.079-1.1.041-2.207.04-3.31.07a7.914,7.914,0,0,0-2.739.494,4.534,4.534,0,0,0-2.694,4.731,29.86,29.86,0,0,1,.245,4.884q-.392-1.451-.854-2.882c-6.842,3.556-10.948,10.381-12.5,17.772a42.708,42.708,0,0,0-.624,13.042,29.017,29.017,0,0,0,2.928,10.924,17.67,17.67,0,0,0,8.952,7.818,37.54,37.54,0,0,0,12.981,2.374c.866.03,1.734.049,2.6.049A29.118,29.118,0,0,0,4845.09,2478.15Zm-14.3-20.15-.025.313.005-.072a8.959,8.959,0,0,1-2.064,5.286,6.527,6.527,0,0,1-4.805,2.186,5.862,5.862,0,0,1-1.449-.18,4.583,4.583,0,0,1-2.9-2.026,3.265,3.265,0,0,1,.21-3.5,16.052,16.052,0,0,1,1.276-1.468c.438-.489.862-.993,1.274-1.505a20.839,20.839,0,0,0,2.228-3.337,13.872,13.872,0,0,0,1.374-3.905.758.758,0,0,0,.017-.417,2.277,2.277,0,0,0-.287-.436c-.174-.256-.352-.509-.541-.754-.363-.471-.746-.921-1.133-1.373a9.9,9.9,0,0,1,2.329,1.567,13.778,13.778,0,0,1,2.386,2.575,11.085,11.085,0,0,1,2.088,7.287C4830.779,2458.062,4830.784,2458,4830.785,2458Z" fill="url(#linear-gradient-18)"/>
              <path id="Path_14241" data-name="Path 14241" d="M4860.805,2443.676s-.04-.162-.144-.569q.064.25.125.5C4860.8,2443.652,4860.805,2443.676,4860.805,2443.676Z" fill="url(#linear-gradient-22)"/>
              <path id="Path_14242" data-name="Path 14242" d="M4860.16,2441.206s.14.545.291,1.122c.072.26.142.519.21.779C4860.291,2441.7,4860.162,2441.206,4860.16,2441.206Z" fill="url(#linear-gradient-23)"/>
            </g>
            <path id="Path_14243" data-name="Path 14243" d="M4835.042,2422.227c9.493-.887,18.894,6.083,21.232,15.246-4.911-8.222-11.769-13.4-21.232-15.246Z" fill="#fff"/>
            <path id="Path_14244" data-name="Path 14244" d="M4856.7,2459.4c-.865,9.5-9.439,17.461-18.875,18.083a45.889,45.889,0,0,0,6.17-2.912A30.048,30.048,0,0,0,4856.7,2459.4Z" fill="#fff"/>
            <path id="Path_14245" data-name="Path 14245" d="M4823.562,2448.515a4.033,4.033,0,0,1-.126,3.647,11.54,11.54,0,0,1-2.267,2.873,8.818,8.818,0,0,1-1.99,1.3l-.094-.141a10.612,10.612,0,0,0,2.489-3.635,11.573,11.573,0,0,1,1.819-4.049l.169.007Z" fill="#fff"/>
          </g>
        </g>
      </g>
      <g id="Group_5678" data-name="Group 5678">
        <path id="Path_14247" data-name="Path 14247" d="M4822.355,2423.246a14.459,14.459,0,0,0-6.837-6.779l-.122-.092-.207-.066a32.263,32.263,0,0,0-12.82-3.017h-.174a18.565,18.565,0,0,0-7.61,1.476,12.89,12.89,0,0,0-5.525,4.823,14.258,14.258,0,0,0-2.37,2.923c-2.419,3.922-3.678,9.781.039,14.464a16.11,16.11,0,0,0,6.272,4.572,28.117,28.117,0,0,0,7.441,2.138,21.025,21.025,0,0,0,2.972.218,17.61,17.61,0,0,0,2.491-.172l.132.114a5.935,5.935,0,0,0,1.676,1.028,10.949,10.949,0,0,1-5.852,1.468h-.1c-.248,0-.505-.012-.776-.023-.315-.014-.641-.027-.979-.027a7.681,7.681,0,0,0-1.749.176,4.878,4.878,0,0,0-3.435,2.789c-.052.11-.1.22-.148.329a5.005,5.005,0,0,0-1.965,2.206,18.094,18.094,0,0,0-1.168,3.654l-.088.363c-.375,1.538-.706,2.795-1.039,3.957a72.538,72.538,0,0,0-1.861,8.3,38.815,38.815,0,0,0-.653,8.887l.01.144a6.227,6.227,0,0,0,1.281,3.988,5.47,5.47,0,0,0,2.1,1.22l.021.008a27.894,27.894,0,0,0,8.59,1.655c.44.019.849.028,1.249.028a18.822,18.822,0,0,0,3.277-.262l.09-.016a3.854,3.854,0,0,0,3.257-2.088c.11-.27.207-.544.3-.818a3.086,3.086,0,0,0,1.813-1.717,20.86,20.86,0,0,0,1.016-3.607c.291-1.377.535-2.8.748-4.346.38-2.773.631-5.617.744-8.454.016-.4.028-.811.037-1.286,0-.06.007-.122.008-.186l0-.512c0-.364,0-.554,0-.633a71.425,71.425,0,0,0-.286-7.536,19.11,19.11,0,0,0-2.007-7.052l-.1-.183c3.063-.054,5.772-2.233,6.8-3.178a15.828,15.828,0,0,0,2.613-3.009,14.025,14.025,0,0,0,2.584-3.321,13.682,13.682,0,0,0,1.592-5.624A14.259,14.259,0,0,0,4822.355,2423.246Z"/>
        <g id="Group_5677" data-name="Group 5677" clip-path="url(#clip-path-9)">
          <g id="Group_5676" data-name="Group 5676">
            <g id="Group_5674" data-name="Group 5674">
              <path id="Path_14248" data-name="Path 14248" d="M4820.819,2423.952c.295.628-.285-.632,0,0Z" fill="#5b2743"/>
              <path id="Path_14249" data-name="Path 14249" d="M4820.738,2423.769s.167.36.167.364-.165-.364-.167-.364m.167.364h0"/>
            </g>
            <g id="Group_5675" data-name="Group 5675">
              <path id="Path_14250" data-name="Path 14250" d="M4810.481,2452.714a17.417,17.417,0,0,0-1.821-6.438,12.61,12.61,0,0,1-6.8,1.757h-.107c-.58,0-1.163-.05-1.744-.05a6.084,6.084,0,0,0-1.371.133,3.213,3.213,0,0,0-2.289,1.873,18.786,18.786,0,0,0-1.139,3.687c-.329,1.348-.673,2.688-1.056,4.022a70.85,70.85,0,0,0-1.818,8.109,37.16,37.16,0,0,0-.635,8.5c.066.949.125,2.348.826,3.081a4.129,4.129,0,0,0,1.5.816,26.113,26.113,0,0,0,8.061,1.546c.391.017.783.027,1.176.027a17.241,17.241,0,0,0,2.985-.237c.78-.137,1.746-.276,2.075-1.079a19.33,19.33,0,0,0,.927-3.316c.295-1.4.532-2.81.726-4.227.377-2.747.62-5.521.73-8.292.023-.559.035-1.118.043-1.678,0,.225,0,.4,0,.4s0-.176.007-.657c0-.348,0-.535,0-.613A69.258,69.258,0,0,0,4810.481,2452.714Z" fill="url(#linear-gradient-24)"/>
              <path id="Path_14251" data-name="Path 14251" d="M4820.819,2423.952a12.912,12.912,0,0,0-6.2-6.049l0,0a30.665,30.665,0,0,0-12.26-2.923h-.162a16.986,16.986,0,0,0-6.92,1.329,11.372,11.372,0,0,0-5.034,4.555c-2.356,3.82-3.022,8.815-.076,12.526a14.6,14.6,0,0,0,5.637,4.079,26.576,26.576,0,0,0,6.993,2.009,19.346,19.346,0,0,0,2.732.2,14.589,14.589,0,0,0,4.716-.738,9.705,9.705,0,0,0,4.814-3.287c-1.131,2.154-3.576,3.626-5.8,4.382a4.151,4.151,0,0,0,2.8,1.046c2.095,0,4.286-1.374,5.775-2.739a13.059,13.059,0,0,0,2.741-3.354,11.918,11.918,0,0,0,1.391-4.926A12.537,12.537,0,0,0,4820.819,2423.952Z" fill="url(#linear-gradient-25)"/>
              <path id="Path_14252" data-name="Path 14252" d="M4809.295,2414.244l-1.029-.525.447.372C4808.906,2414.137,4809.1,2414.194,4809.295,2414.244Z" fill="url(#linear-gradient-26)"/>
            </g>
            <path id="Path_14253" data-name="Path 14253" d="M4800.8,2477.464a11.126,11.126,0,0,1,3.225-.4,6.546,6.546,0,0,0,2.006,0,.9.9,0,0,0,.347-.334c.987-1.791,1.08-4.034,1.384-6.05l.169,0a24.437,24.437,0,0,1-.022,4.927c-.158,1.324-.668,2.687-2.183,2.98a5.52,5.52,0,0,1-4.959-.962l.033-.166Z" fill="#fff"/>
            <path id="Path_14254" data-name="Path 14254" d="M4807.923,2448.6a3.578,3.578,0,0,1,1.413,3.461,12.722,12.722,0,0,1-.379,3.731l-.168-.01a29.7,29.7,0,0,0-.79-3.516,4.519,4.519,0,0,1-.236-3.612l.16-.054Z" fill="#fff"/>
            <path id="Path_14255" data-name="Path 14255" d="M4814.122,2419.185c7.785,3.022,9.051,11.822,2.879,17.295,3.571-7.062,3.08-11.852-2.879-17.295Z" fill="#fff"/>
          </g>
        </g>
      </g>
      <g id="Group_5682" data-name="Group 5682">
        <path id="Path_14257" data-name="Path 14257" d="M4608.258,2449.311a18.315,18.315,0,0,0-1.233-1.856,8.774,8.774,0,0,0-.6-.761c-.229-.27-.414-.489-.591-.66-3.088-3.32-7.5-5.432-12.937-6.22a18.91,18.91,0,0,0,2.482-2.828,18.757,18.757,0,0,0,5.634-14.326,12.81,12.81,0,0,0-2.37-6.906,10.705,10.705,0,0,0-6.487-3.992,12.8,12.8,0,0,0-2.388-.263,14.631,14.631,0,0,0-10.5,4.58,19.524,19.524,0,0,0-1.872,2.233c-.092.09-.187.178-.278.27a19.435,19.435,0,0,0-1.589,1.854c-1.127-.107-2.23-.172-3.276-.188a31.391,31.391,0,0,0-4.99.307,16.77,16.77,0,0,0-8.929,3.741,12.094,12.094,0,0,0-2.068,2.437c-.026.023-.056.043-.082.066a14.215,14.215,0,0,0-4.327,8.636,15.068,15.068,0,0,0,1.848,9.758,16.006,16.006,0,0,0,7.078,6.191c.629.3,1.3.58,1.986.833.028.012.059.028.092.043a4.377,4.377,0,0,0,.621.251l-.061.093c-.057.051-.114.1-.171.154a12.4,12.4,0,0,0-3.563,5.846,14.325,14.325,0,0,0,.114,7.326,23.355,23.355,0,0,0,6.915,10.931,27.529,27.529,0,0,0,11.088,6.242,24.145,24.145,0,0,0,6.208.893,26.548,26.548,0,0,0,18.515-7.155,21.912,21.912,0,0,0,2.582-2.93,20.3,20.3,0,0,0,5.772-10.918A20.971,20.971,0,0,0,4608.258,2449.311Z"/>
        <g id="Group_5681" data-name="Group 5681" clip-path="url(#clip-path-10)">
          <g id="Group_5680" data-name="Group 5680">
            <g id="Group_5679" data-name="Group 5679">
              <path id="Path_14258" data-name="Path 14258" d="M4604.67,2446.908s.12.142.455.529.462.528.463.528Z" fill="url(#linear-gradient-27)"/>
              <path id="Path_14259" data-name="Path 14259" d="M4606.83,2449.785a16.236,16.236,0,0,0-1.705-2.348c-4.161-4.813-10.521-6.38-16.809-6.38a45.452,45.452,0,0,0-8.1.772c-2.291.419-4.53,1.079-6.831,1.452a17.576,17.576,0,0,1-2.8.275c-.148,0-.3,0-.444-.01a3.468,3.468,0,0,1-2.761-1.114,2.751,2.751,0,0,1,.018-2.829,4.165,4.165,0,0,1,1.91-2.115,2.5,2.5,0,0,1,1.019-.22c1.566,0,2.925,1.507,3.907,2.61.162.182.324.364.49.542.077.082.223.3.326.332a.152.152,0,0,0,.051.007,3.887,3.887,0,0,0,.679-.183c.3-.074.6-.149.892-.227,1.106-.29,2.217-.557,3.339-.776a47.466,47.466,0,0,1,6.7-.84q.84-.043,1.681-.053h.028c.274,0,.633.044.973.044a1.545,1.545,0,0,0,.751-.144,18.266,18.266,0,0,0,2.326-1.584,17.484,17.484,0,0,0,4.242-4.922,16.95,16.95,0,0,0,2.247-9.572,11.209,11.209,0,0,0-2.127-5.97,9.032,9.032,0,0,0-5.522-3.265,11.039,11.039,0,0,0-2.075-.2,12.87,12.87,0,0,0-9.2,4.21,23.163,23.163,0,0,0-5.563,11.691c-.145.753-.257,1.509-.362,2.268a25,25,0,0,1,1.029-9.02c-1.089-.091-2.185-.143-3.28-.143a29.528,29.528,0,0,0-4.716.36,15.213,15.213,0,0,0-8,3.446,12.535,12.535,0,0,0-3.669,7.672,13.39,13.39,0,0,0,1.761,8.637,14.355,14.355,0,0,0,6.426,5.425c.613.281,1.236.529,1.872.752a3.115,3.115,0,0,0,.775.278l.043,0c.112-.017.293-.2.391-.264.173-.113.348-.223.527-.327a13.526,13.526,0,0,1,4.126-1.552,16.329,16.329,0,0,1,3.263-.323,21.876,21.876,0,0,1,12.933,4.622c3.982,3.047,7.861,8.467,5.349,13.633a8.141,8.141,0,0,1-.656,1.1,10.966,10.966,0,0,0,.088-4.885,13.056,13.056,0,0,0-2.961-5.523,19.994,19.994,0,0,0-11-6.224,16.876,16.876,0,0,0-3.3-.334,12.04,12.04,0,0,0-8.491,3.144,10.743,10.743,0,0,0-3.007,5.093,12.609,12.609,0,0,0,.211,6.455,21.563,21.563,0,0,0,6.573,10.021,25.861,25.861,0,0,0,10.488,5.706,22.466,22.466,0,0,0,5.786.744,25.029,25.029,0,0,0,17.227-6.947,18.62,18.62,0,0,0,5.545-10.475A19.3,19.3,0,0,0,4606.83,2449.785Z" fill="url(#linear-gradient-28)"/>
            </g>
            <path id="Path_14260" data-name="Path 14260" d="M4583.346,2416.475c4.706-3.229,12.106-3.081,13.744,3.386a11.64,11.64,0,0,1,.088,5.319,24.234,24.234,0,0,0-1.346-4.89c-2.073-5.343-7.773-4.781-12.486-3.815Z" fill="#fff"/>
            <path id="Path_14261" data-name="Path 14261" d="M4579.526,2451.451a4.035,4.035,0,0,1,3.643.207,11.563,11.563,0,0,1,2.821,2.332,8.826,8.826,0,0,1,1.253,2.018l-.143.091a10.624,10.624,0,0,0-3.578-2.57,11.547,11.547,0,0,1-4.007-1.91l.011-.168Z" fill="#fff"/>
            <path id="Path_14262" data-name="Path 14262" d="M4593.046,2443.911c11.65-1.153,18.094,12.848,13.528,22.478a14.517,14.517,0,0,1-7.143,7.191,16.919,16.919,0,0,0,5.925-7.7c3.451-9.23-1.78-21.14-12.31-21.971Z" fill="#fff"/>
          </g>
        </g>
      </g>
    </g>
  </g>
</svg>
