<svg xmlns="http://www.w3.org/2000/svg" width="89.273" height="91.738"><defs><clipPath id="clip-path"><path id="Path_3227" data-name="Path 3227" d="M7519.911 2695.908c-3.6-19.876-19.8-32.987-38.889-29.832-19.031 3.147-32.647 21.189-30.214 41.258s19.779 32.334 38.982 30.659c22.992-1.934 33.738-22.093 30.121-42.085z" fill="#01cb2d"/></clipPath></defs><g id="Group_7285" data-name="Group 7285" transform="translate(-7440.925 -2656.008)"><g id="Group_1363" data-name="Group 1363"><g id="Group_1359" data-name="Group 1359"><path id="Path_3080" data-name="Path 3080" d="M7534.383 2702.228c-4.355-24.022-23.928-39.868-47-36.054-23 3.8-39.457 25.609-36.516 49.863s23.9 39.078 47.112 37.054c27.788-2.337 40.775-26.699 36.404-50.863z" transform="translate(-7.308 -7.608)" fill="#01cb2d"/><g id="Group_1358" data-name="Group 1358" clip-path="url(#clip-path)"><g id="Group_1357" data-name="Group 1357" opacity=".4" style="mix-blend-mode:multiply;isolation:isolate" fill="#1e5412"><path id="Path_3081" data-name="Path 3081" d="M7461.861 2670.827c.873 1.631 9.47.767 9.4-1.739-1.466-1.154-8.707-1.898-9.4 1.739z" opacity=".5"/><path id="Path_3082" data-name="Path 3082" d="M7440.882 2702.619c1.126-1.9-2.021-2.084-1.919-.459.052.84 1.479 1.34 1.919.459z" opacity=".5"/><path id="Path_3083" data-name="Path 3083" d="M7454.188 2702.1c-.143-2.307-8.708-3.052-8.54-.348.252 4.041 8.665 2.358 8.54.348z" opacity=".5"/><path id="Path_3084" data-name="Path 3084" d="M7431.95 2713.2c.269 4.319 11.419 1.336 11.206-2.076-.232-3.734-3.744-1.2-5.493-.675-1.702.511-5.963-1.195-5.713 2.751z" opacity=".5"/><path id="Path_3085" data-name="Path 3085" d="M7512.351 2676.748c-1.386 1.136-.95 1.821-2.61 1.494-.855-.166-3.076-1.068-2.97.64a3.356 3.356 0 001.586 2.792 62.376 62.376 0 008.753-6.38 10.926 10.926 0 00-4.759 1.454z" opacity=".5"/><path id="Path_3086" data-name="Path 3086" d="M7456.148 2645.534a3.257 3.257 0 00-1.949-2.248l-1.494.119a1.673 1.673 0 00-.256 1.17c.151 2.425 3.743 1.679 3.699.959z" opacity=".5"/><path id="Path_3087" data-name="Path 3087" d="M7466.873 2662.182c-.156-2.5-6.033-3.249-5.916-1.335.15 2.398 6.017 2.947 5.916 1.335z" opacity=".5"/><path id="Path_3088" data-name="Path 3088" d="M7464.376 2648.758c-1.069-.655-1.8-1.159-2.356-.048.298 4.753 4.033 1.075 2.356.048z" opacity=".5"/><path id="Path_3089" data-name="Path 3089" d="M7450.591 2672.3c.165 2.665 5.441 3.047 6.843 1.236 2.966-3.852-7.016-4.019-6.843-1.236z" opacity=".5"/><path id="Path_3090" data-name="Path 3090" d="M7454.859 2662.455c-.126-.513-.222-2.428-1.067-1.839-.142.325-.284.657-.426.985.046.726.968 1.019 1.493.854z" opacity=".5"/><path id="Path_3091" data-name="Path 3091" d="M7447.879 2684.479a1.49 1.49 0 002.574.957c2.171-2.345-2.716-3.219-2.574-.957z" opacity=".5"/><path id="Path_3092" data-name="Path 3092" d="M7452.913 2653.548c-.142-2.262-5.737-3.27-5.571-.578.158 2.5 5.735 3.223 5.571.578z" opacity=".5"/><path id="Path_3093" data-name="Path 3093" d="M7414.541 2646.471l-6.609.531c1.12 1.139 4.389.598 6.609-.531z" opacity=".5"/><path id="Path_3094" data-name="Path 3094" d="M7444.4 2692.652c-.173-2.817-11.6-4.909-11.287.062.293 4.839 11.363 1.229 11.287-.062z" opacity=".5"/><path id="Path_3095" data-name="Path 3095" d="M7422.918 2651.27c1.222.12 1.209-1.345 2.015-2 2.107-1.7-4.987-4.4-4.8-1.434.092 1.555 1.422 3.303 2.785 3.434z" opacity=".5"/><path id="Path_3096" data-name="Path 3096" d="M7412.472 2672.469c3.622-3.447-10.791-8.369-10.366-1.57.277 4.489 7.994 3.831 10.366 1.57z" opacity=".5"/><path id="Path_3097" data-name="Path 3097" d="M7408.274 2656.584c.109 1.766 2.6 1.282 2.489-.488s-2.601-1.284-2.489.488z" opacity=".5"/><path id="Path_3098" data-name="Path 3098" d="M7427.541 2661.727c2.854-2.823-4.264-3.937-5.14-3.923-2.434.04-7.777-3.4-7.458 1.717.235 3.764 10.031 4.751 12.598 2.206z" opacity=".5"/><path id="Path_3099" data-name="Path 3099" d="M7441.707 2683c-.128-2.069-2.877-1.1-2.778.492.115 1.847 2.901 1.465 2.778-.492z" opacity=".5"/><path id="Path_3100" data-name="Path 3100" d="M7436.146 2662.478c.133 2.134 7.422 3.1 7.24.185-.25-4.019-7.412-2.948-7.24-.185z" opacity=".5"/><path id="Path_3101" data-name="Path 3101" d="M7442.654 2673.135c-.217-3.5-4.645-1.438-6.353-2.3-1.948-.982-7.451-3.643-7.127 1.59.358 5.717 13.726 4.655 13.48.71z" opacity=".5"/><path id="Path_3102" data-name="Path 3102" d="M7439.013 2652.7c-.24-3.824-8.206-3.22-8.052-.733.225 3.62 8.277 4.361 8.052.733z" opacity=".5"/><path id="Path_3103" data-name="Path 3103" d="M7419.833 2682.447c.3 4.883 9.956 4.945 9.748 1.6-.2-2.881-3.508-1.148-4.935-2.573-1.366-1.363-5.003-3.133-4.813.973z" opacity=".5"/><path id="Path_3104" data-name="Path 3104" d="M7507.847 2672.3c1.694-1.544 1.5-1.477 3.836-1.882.455-.08 2.117-.205 2.487-.874-.293.056-.887-1.31-1.554-1.18-1.55.3-2.342 1.354-4.005.872-2.035-.59-7.375-2.6-7.052 2.568.2 3.207 4.85 1.81 6.288.496z" opacity=".5"/><path id="Path_3105" data-name="Path 3105" d="M7506.694 2662.577c.182 2.91 11.21 2.059 12.434.118.784-1.249-5.218-1.707-6.279-2.355-1.412-.86-6.39-1.54-6.155 2.237z" opacity=".5"/><path id="Path_3106" data-name="Path 3106" d="M7409.728 2681.412c.063 1.044 1.993 1.707 1.9.238-.091-1.494-1.42-.975-1.9-.238z" opacity=".5"/><path id="Path_3107" data-name="Path 3107" d="M7484.546 2686.187c.111 1.756 2.585 1.275 2.477-.486s-2.585-1.274-2.477.486z" opacity=".5"/><path id="Path_3108" data-name="Path 3108" d="M7525.317 2656.949c-.012-.185-7.271-2.647-7.178-1.135.071 1.118 7.334 3.653 7.178 1.135z" opacity=".5"/><path id="Path_3109" data-name="Path 3109" d="M7523.579 2668.155c-1.485.674-2.86 1.507-2.968 1.87.03.471.385.711.91.787a35.631 35.631 0 002.058-2.657z" opacity=".5"/><path id="Path_3110" data-name="Path 3110" d="M7499.553 2662.109c.109 1.784 2.612 1.292 2.5-.488s-2.612-1.293-2.5.488z" opacity=".5"/><path id="Path_3111" data-name="Path 3111" d="M7529.273 2653.208c.02.347.425.546.892.578q.324-1.191.581-2.338a1.7 1.7 0 00-1.473 1.76z" opacity=".5"/><path id="Path_3112" data-name="Path 3112" d="M7496.852 2684.179c-1.458-.818-3.7.771-4.867 1.7.159 2.556 12.009.926 8.832-2.891-2.053-2.464-2.592 1.958-3.965 1.191z" opacity=".5"/><path id="Path_3113" data-name="Path 3113" d="M7494.371 2665.949c2.082-2.992-6.019-4.844-5.72-.062.117 1.907 4.921 1.205 5.72.062z" opacity=".5"/><path id="Path_3114" data-name="Path 3114" d="M7486.275 2676.025c.155 2.51 1.948 3.321 3.933 2.411 1.552-.715 6.282-1.977 7.184-3.726 2.748-5.317-11.385-2.986-11.117 1.315z" opacity=".5"/><path id="Path_3115" data-name="Path 3115" d="M7485.771 2656.591c.229 3.673 9.364 2.747 9.205.207-.094-1.534-9.144-4.567-9.205-.207z" opacity=".5"/><path id="Path_3116" data-name="Path 3116" d="M7484.467 2648.44c-.562-.089-1.466-.054-1.412.843.187 2.988 2.233-.209 1.412-.843z" opacity=".5"/><path id="Path_3117" data-name="Path 3117" d="M7481.293 2672.527c-.219-2.976-5.6-.334-5.475 1.68.101 1.607 5.692 1.261 5.475-1.68z" opacity=".5"/><path id="Path_3118" data-name="Path 3118" d="M7475.329 2647.769c-.168-2.679-5.978-3.147-5.786-.069.17 2.731 5.957 2.824 5.786.069z" opacity=".5"/><path id="Path_3119" data-name="Path 3119" d="M7525.555 2642.181c.824 1.454 2.444 5.9 4.66 2.789a1.179 1.179 0 00.2-.469 26.581 26.581 0 00-5.227-4.742c-1.5-.6-2.726-.759-2.681-.072.166 2.728 2.049.719 3.048 2.494z" opacity=".5"/><path id="Path_3120" data-name="Path 3120" d="M7478.439 2664.049c.1 1.571 2.933 2.2 3.822 1.021 1.128-1.484-3.975-3.48-3.822-1.021z" opacity=".5"/><path id="Path_3121" data-name="Path 3121" d="M7480.435 2657.208c-.931-1.387-5.367-3.907-5.122.041.162 2.579 6.47 1.958 5.122-.041z" opacity=".5"/><path id="Path_3122" data-name="Path 3122" d="M7477.446 2683.767c-1.01.5-8.629 2.048-8.565 3.042.161 2.616 6.164 3.889 7.9 3.619 1.912-.3 2.651-2.788 2.594-4.637-.035-1.1 1.708-1.057 2.154-1.2.516-.171 1.8-1.356.812-1.914-1.297-.736-3.626.469-4.895 1.09z" opacity=".5"/><path id="Path_3123" data-name="Path 3123" d="M7490.521 2643.133c-.059-.954-1.016-1.887-2.215-2.587l-5.022.4c.865 3.064 7.452 5.625 7.237 2.187z" opacity=".5"/><path id="Path_3124" data-name="Path 3124" d="M7516.878 2639.817a7.028 7.028 0 00-1.625-1.436l-6.529.524a13.886 13.886 0 013.613.877c.395.239 5.585 1.529 4.541.035z" opacity=".5"/><path id="Path_3125" data-name="Path 3125" d="M7514.871 2646.47c.141 2.267 6.825 4.538 8.1 2.7-.222-2.338-8.382-7.233-8.1-2.7z" opacity=".5"/><path id="Path_3126" data-name="Path 3126" d="M7497.9 2650.784c.788-2.265-4.462-3.958-4.3-1.452.129 2.137 3.219 4.568 4.3 1.452z" opacity=".5"/><path id="Path_3127" data-name="Path 3127" d="M7506.627 2642.394c-.132-2.1-9.78-3.1-9.665-1.245.172 2.765 9.961 6.008 9.665 1.245z" opacity=".5"/><path id="Path_3128" data-name="Path 3128" d="M7444.938 2644.582a1.61 1.61 0 00.141-.563l-1.65.132c.041.696 1.159 1.249 1.509.431z" opacity=".5"/><path id="Path_3129" data-name="Path 3129" d="M7431.069 2721.044a33.129 33.129 0 004.444-.326c-1.506-.548-3.413-.531-4.444.326z" opacity=".5"/><path id="Path_3130" data-name="Path 3130" d="M7402 2652.4c1.426-2.818-11.334-5.842-10.933.591.21 3.435 9.743 1.743 10.933-.591z" opacity=".5"/><path id="Path_3131" data-name="Path 3131" d="M7502.22 2650.93c.186 2.966 8.757 4.773 8.634 2.816-.148-2.403-8.898-7.072-8.634-2.816z" opacity=".5"/><path id="Path_3132" data-name="Path 3132" d="M7434.752 2703.846c.365-1.044-11.355-2.827-11.076 1.666.257 4.14 10.114 1.105 11.076-1.666z" opacity=".5"/><path id="Path_3133" data-name="Path 3133" d="M7419.419 2717.675c.107 1.724 3.338 3.535 3.168.79-.137-2.212-3.321-4.081-3.168-.79z" opacity=".5"/><path id="Path_3134" data-name="Path 3134" d="M7422 2695.525c.049.776 1.872.769 2.4.354-.4-1.5-2.612-3.792-2.4-.354z" opacity=".5"/><path id="Path_3135" data-name="Path 3135" d="M7510.787 2644.888c-.2-.972-1.375.119-1.336.773.066 1.039 1.613.527 1.336-.773z" opacity=".5"/><path id="Path_3136" data-name="Path 3136" d="M7466.268 2704.867c.382-.294.759-.587 1.137-.874a3.876 3.876 0 00-1.137.874z" opacity=".5"/><path id="Path_3137" data-name="Path 3137" d="M7471.958 2680.4c.781-1.126-2.375-2.456-3.25-1.575-1.894 1.893-4.466-.8-6.362.836.62 2.672 8.054 2.962 9.612.739z" opacity=".5"/><path id="Path_3138" data-name="Path 3138" d="M7462.011 2697.719c.4 2.284 9.416.783 10.571-.878-.411-5.811-9.13-2.851-10.571.878z" opacity=".5"/><path id="Path_3139" data-name="Path 3139" d="M7481.023 2693.814c-.316-1.622-2.524-.98-2.776.565a1.449 1.449 0 00.389 1.383 47.376 47.376 0 012.438-1.469 2.8 2.8 0 00-.051-.479z" opacity=".5"/><path id="Path_3140" data-name="Path 3140" d="M7451.083 2692.881c.32 5.16 11.494 2 11.953-1.793.142-1.988-12.253-3.042-11.953 1.793z" opacity=".5"/><path id="Path_3141" data-name="Path 3141" d="M7448.591 2710.355c.313 5.026 9.9-1.247 9.379-2.109-1.535-2.527-8.765-1.372-9.379 2.109z" opacity=".5"/><path id="Path_3142" data-name="Path 3142" d="M7421.473 2672.426c-.126-2.017-2.756-1.2-2.638.664.104 1.71 2.75 1.176 2.638-.664z" opacity=".5"/><path id="Path_3143" data-name="Path 3143" d="M7381.961 2675.109c.281 1.294.594 2.609.938 3.934.943-.9 1.531-2.242.73-3.407a1.255 1.255 0 00-1.668-.527z" opacity=".5"/><path id="Path_3144" data-name="Path 3144" d="M7383.661 2665.357c.24 3.842 5.3 2.191 5.055-1.677-.216-3.453-5.25-1.498-5.055 1.677z" opacity=".5"/><path id="Path_3145" data-name="Path 3145" d="M7391.212 2699.249a54.286 54.286 0 003.144 4.565c3.5.617 8.194-.33 8.007-3.318-.043-.718-8.798-3.855-11.151-1.247z" opacity=".5"/><path id="Path_3146" data-name="Path 3146" d="M7391.777 2673.291c.125 2.015 3.762 2.812 3.618.509-.14-2.23-3.795-3.39-3.618-.509z" opacity=".5"/><path id="Path_3147" data-name="Path 3147" d="M7386.814 2655.549c-.119-1.9-2.653-.075-2.55 1.559s2.636-.208 2.55-1.559z" opacity=".5"/><path id="Path_3148" data-name="Path 3148" d="M7402.093 2661.673c-.186-2.977-9.654-3.932-9.369.65.269 4.34 9.433.382 9.369-.65z" opacity=".5"/><path id="Path_3149" data-name="Path 3149" d="M7397.639 2691.363c-.474-.176-.756.042-.855.661.074 1.195 1.57-.196.855-.661z" opacity=".5"/><path id="Path_3150" data-name="Path 3150" d="M7410.39 2709.6c-1.7-1.444-6.5-4.3-6.1 1.286.313 5.039 8.56 4.67 11.113 1.37 2.376-3.075-4.262-2.02-5.013-2.656z" opacity=".5"/><path id="Path_3151" data-name="Path 3151" d="M7414.762 2702.59c2.144-2.749-2.022-1.921-1.961-.93.086 1.386.606 2.674 1.961.93z" opacity=".5"/><path id="Path_3152" data-name="Path 3152" d="M7409.326 2689.969c-1.655-.919-4.708-1.791-4.622 1.77.151 2.412 12.484 5.171 12.232 1.1-.11-1.739-6.207-2.089-7.61-2.87z" opacity=".5"/><path id="Path_3153" data-name="Path 3153" d="M7397.7 2680.084c-1.935.275-9.288-1.2-9.026 3.021.368 5.9 11.521 2.316 14.038-.409 2.812-3.041-4.106-2.741-5.012-2.612z" opacity=".5"/><path id="Path_3154" data-name="Path 3154" d="M7550.014 2661.682c.459.055 5.719-.91 4.152-1.841a7.041 7.041 0 00-2.073-.638l-5.732 3.171a13.859 13.859 0 013.653-.692z" opacity=".5"/><path id="Path_3155" data-name="Path 3155" d="M7490.6 2693.855a1.6 1.6 0 00-.1-.572l-1.448.8c.315.617 1.561.658 1.548-.228z" opacity=".5"/><path id="Path_3156" data-name="Path 3156" d="M7496.639 2710.965c-1.885-3.557-7.968.373-6.672 2.818 1.001 1.889 8.04-.236 6.672-2.818z" opacity=".5"/><path id="Path_3157" data-name="Path 3157" d="M7536.881 2678.112c1 1.891 4.82 2.832 4.52-.453-.216-2.388-5.701-1.765-4.52.453z" opacity=".5"/><path id="Path_3158" data-name="Path 3158" d="M7539.2 2695.233c.894 1.689 4.981-.932 5.237-2.3.663-3.588-7.477-1.933-5.237 2.3z" opacity=".5"/><path id="Path_3159" data-name="Path 3159" d="M7545.89 2666.416c-.989-1.862-10.19 1.206-9.318 2.853 1.297 2.448 11.552 1.365 9.318-2.853z" opacity=".5"/><path id="Path_3160" data-name="Path 3160" d="M7501.558 2698.733c-1.062-2-6.574-.613-5.313 1.771 1.175 2.212 6.555.571 5.313-1.771z" opacity=".5"/><path id="Path_3161" data-name="Path 3161" d="M7547.577 2687.294c.836 1.58 2.913.1 2.078-1.476s-2.914-.099-2.078 1.476z" opacity=".5"/><path id="Path_3162" data-name="Path 3162" d="M7545.4 2676.011c1.393 2.625 9.946.735 9.027-1-1.127-2.124-11.027-2.769-9.027 1z" opacity=".5"/><path id="Path_3163" data-name="Path 3163" d="M7554.276 2684.775c1.365 2.576 11.061-2.748 11.376-5.021.2-1.461-5.458.6-6.692.444-1.641-.198-6.46 1.231-4.684 4.577z" opacity=".5"/><path id="Path_3164" data-name="Path 3164" d="M7550.708 2666.973c-.585-.8-1.2.675-.9 1.255.492.915 1.692-.185.9-1.255z" opacity=".5"/><path id="Path_3165" data-name="Path 3165" d="M7516.837 2710.783c1.468 1.126 8.943-3.207 7.842-5.46-1.808-.449-8.712 1.86-7.842 5.46z" opacity=".5"/><path id="Path_3166" data-name="Path 3166" d="M7563.573 2665.849c-1.166-2.039-10.618-3.133-8.492.88 1.063 2.008 8.089 1.32 8.492-.88z" opacity=".5"/><path id="Path_3167" data-name="Path 3167" d="M7563.045 2658.415c1.35.986 4.658 4.364 5.4.619a1.173 1.173 0 00-.013-.509 26.655 26.655 0 00-6.718-2.163c-1.611.073-2.8.432-2.472 1.04 1.274 2.415 2.158-.191 3.803 1.013z" opacity=".5"/><path id="Path_3168" data-name="Path 3168" d="M7501.2 2690.1a3.264 3.264 0 00-2.7-1.244l-1.312.726a1.672 1.672 0 00.25 1.171c1.134 2.147 4.099-.018 3.762-.653z" opacity=".5"/><path id="Path_3169" data-name="Path 3169" d="M7469.341 2707.053c.725 1.376 2.658 2.419 3.953 1.976 1.163-.4.547-1.723 1.012-2.65 1.22-2.414-6.355-1.947-4.965.674z" opacity=".5"/><path id="Path_3170" data-name="Path 3170" d="M7472.522 2732.65c1.878-4.635-13.282-3.174-10.091 2.845 2.104 3.975 8.86.194 10.091-2.845z" opacity=".5"/><path id="Path_3171" data-name="Path 3171" d="M7519.6 2684.222c-1.258-2.371-6.744-.4-5.3 2.324 1.277 2.418 6.587.116 5.3-2.324z" opacity=".5"/><path id="Path_3172" data-name="Path 3172" d="M7464.212 2718.439c-.83-1.568-2.9-.1-2.067 1.471s2.898.096 2.067-1.471z" opacity=".5"/><path id="Path_3173" data-name="Path 3173" d="M7488.544 2703.689c-1.8-3.385-8.8.451-7.637 2.653 1.7 3.21 9.34.564 7.637-2.653z" opacity=".5"/><path id="Path_3174" data-name="Path 3174" d="M7528.2 2681.065c-.548.15-1.357.556-.938 1.35 1.399 2.645 1.944-1.115.938-1.35z" opacity=".5"/><path id="Path_3175" data-name="Path 3175" d="M7523.491 2692.865c1.211 2.283 6.7-.885 4.649-2.15-1.42-.879-6.501-1.345-4.649 2.15z" opacity=".5"/><path id="Path_3176" data-name="Path 3176" d="M7463.683 2708.113l-5.8 3.21c1.489.577 4.245-1.264 5.8-3.21z" opacity=".5"/><path id="Path_3177" data-name="Path 3177" d="M7541.217 2684.344c-.718-1.358-10.213-.389-8.471 3.608 1.724 3.248 9.664-1.36 8.471-3.608z" opacity=".5"/><path id="Path_3178" data-name="Path 3178" d="M7507.86 2690.569c2.231 4.207 4.116-.684 2.165-.927-1.244-.157-2.119-.314-2.165.927z" opacity=".5"/><path id="Path_3179" data-name="Path 3179" d="M7505.274 2704.809l.019 1.073a1.165 1.165 0 001.712.162c-.326-.415-1.205-2.12-1.731-1.235z" opacity=".5"/><path id="Path_3180" data-name="Path 3180" d="M7481.819 2716.648c1.435-3.749-5.508-1.827-6.3-1.453-2.2 1.04-8.486.111-6.086 4.64 1.767 3.333 11.097.191 12.386-3.187z" opacity=".5"/><path id="Path_3181" data-name="Path 3181" d="M7478.574 2730.59c.8 1.519 2.991-.062 2.13-1.693-.947-1.785-3.004.043-2.13 1.693z" opacity=".5"/><path id="Path_3182" data-name="Path 3182" d="M7473.711 2741.928c.488.926 2.52.733 1.831-.567-.701-1.323-1.698-.302-1.831.567z" opacity=".5"/><path id="Path_3183" data-name="Path 3183" d="M7572.031 2667.086q-.195-1.218-.435-2.37a1.7 1.7 0 00-.616 2.212c.162.307.612.321 1.051.158z" opacity=".5"/><path id="Path_3184" data-name="Path 3184" d="M7509.5 2769.23a33.238 33.238 0 003.914-2.13c-1.6.122-3.332.924-3.914 2.13z" opacity=".5"/><path id="Path_3185" data-name="Path 3185" d="M7511.135 2756.857c-1.339 1.168-5.921 1.37-4.07 4.863 2.027 3.823 10.954-3.493 9.352-6.513-1.751-3.307-3.903.455-5.282 1.65z" opacity=".5"/><path id="Path_3186" data-name="Path 3186" d="M7521.052 2752.265c2.358 4.45 8.5-5.22 7.674-5.789-2.44-1.669-8.551 2.365-7.674 5.789z" opacity=".5"/><path id="Path_3187" data-name="Path 3187" d="M7496.357 2758.13c1.941 3.665 9.67-3.165 9.4-6.086-.096-1.102-11.507 2.108-9.4 6.086z" opacity=".5"/><path id="Path_3188" data-name="Path 3188" d="M7487.031 2759.145c.82-3.39-2.634-.916-2.169-.039.649 1.227 1.654 2.186 2.169.039z" opacity=".5"/><path id="Path_3189" data-name="Path 3189" d="M7535.566 2738.709a3.9 3.9 0 00-.675 1.265c.227-.424.45-.847.675-1.265z" opacity=".5"/><path id="Path_3190" data-name="Path 3190" d="M7490.713 2749.722c.365.687 2.023-.071 2.327-.665-.983-1.201-3.94-2.378-2.327.665z" opacity=".5"/><path id="Path_3191" data-name="Path 3191" d="M7485.942 2767.337c-2.142-.614-7.695-1.239-5.03 3.69 2.363 4.461 9.724.723 10.689-3.336.899-3.791-4.714-.091-5.659-.354z" opacity=".5"/><path id="Path_3192" data-name="Path 3192" d="M7487.327 2735.833c-1.807-.68-5.85-.792-3.984 2.87 2.291 4.324 11.109.4 9.541-2.561-1.374-2.542-3.67.401-5.557-.309z" opacity=".5"/><path id="Path_3193" data-name="Path 3193" d="M7497.5 2770.966c.808 1.526 4.5 1.844 3.211-.588-1.041-1.957-4.711-2.347-3.211.588z" opacity=".5"/><path id="Path_3194" data-name="Path 3194" d="M7522.745 2742.435c-1.082-2.043-9.192.811-7.923 3.2 1.899 3.583 8.867-1.419 7.923-3.2z" opacity=".5"/><path id="Path_3195" data-name="Path 3195" d="M7528.066 2735.219c1.308 1.914 8.9-3.171 9.267-5.16-2.771-5.124-9.494 1.169-9.267 5.16z" opacity=".5"/><path id="Path_3196" data-name="Path 3196" d="M7563.961 2688.042c-.244.172-1.348-.827-1.9-.434-1.289.912-1.574 2.2-3.289 2.447-2.1.3-7.789.675-5.365 5.248 1.5 2.835 5.163-.356 5.933-2.141.907-2.107.758-1.966 2.718-3.3.38-.262 1.842-1.062 1.903-1.82z" opacity=".5"/><path id="Path_3197" data-name="Path 3197" d="M7565.274 2695.352c-.794 1.607-.115 2.051-1.761 2.437-.848.2-3.243.3-2.442 1.808a3.36 3.36 0 002.6 1.89 62.4 62.4 0 005.343-9.423 10.932 10.932 0 00-3.74 3.288z" opacity=".5"/><path id="Path_3198" data-name="Path 3198" d="M7561.913 2673.894c.525.989 8.187.3 7.006-1.927-.087-.167-7.719.588-7.006 1.927z" opacity=".5"/><path id="Path_3199" data-name="Path 3199" d="M7571.179 2686.162c.309-1.087.578-2.176.779-3.269-1.075 1.226-1.984 2.552-1.932 2.927.221.417.644.489 1.153.342z" opacity=".5"/><path id="Path_3200" data-name="Path 3200" d="M7557.341 2705.793c-2.886-1.4-1.554 2.853-3.122 2.721-1.664-.144-3.05 2.227-3.732 3.555 1.2 2.264 11.322-4.109 6.854-6.276z" opacity=".5"/><path id="Path_3201" data-name="Path 3201" d="M7540.376 2713.129c-1.48-.134-3.1 1.924-4 3.014-.715.868-7.016 5.425-6.548 6.3 1.226 2.317 7.219 1 8.685.041 1.62-1.058 1.266-3.633.451-5.294-.484-.985 1.12-1.668 1.465-1.985.396-.365 1.071-1.973-.053-2.076z" opacity=".5"/><path id="Path_3202" data-name="Path 3202" d="M7541.221 2705.449c1.177 2.222 3.145 2.221 4.577.573 1.12-1.291 4.908-4.391 5.008-6.356.31-5.978-11.606 1.974-9.585 5.783z" opacity=".5"/><path id="Path_3203" data-name="Path 3203" d="M7541.479 2725.479a1.446 1.446 0 00.924 1.1q.8-1.23 1.615-2.344a2.731 2.731 0 00-.244-.415c-.957-1.348-2.704.148-2.295 1.659z" opacity=".5"/><path id="Path_3204" data-name="Path 3204" d="M7543.838 2715.419c.825 1.554 2.88.095 2.056-1.465s-2.881-.094-2.056 1.465z" opacity=".5"/><path id="Path_3205" data-name="Path 3205" d="M7512.47 2728.8c1.011-3.032-3.8-1.813-2.74.19a1.49 1.49 0 002.74-.19z" opacity=".5"/><path id="Path_3206" data-name="Path 3206" d="M7517.837 2700.84c-1.174-2.213-6.837-.471-5.94 1.224 1.126 2.122 6.697.203 5.94-1.224z" opacity=".5"/><path id="Path_3207" data-name="Path 3207" d="M7484.99 2749.365c-.818-1.54-6.516.657-8.117.524-1.886-.154-5.027.31-3.48 3.519 1.133 2.135 13.507-.438 11.597-4.043z" opacity=".5"/><path id="Path_3208" data-name="Path 3208" d="M7533.046 2697.124c.416-1.817-5.057-1.531-3.9.647.733 1.39 3.577.796 3.9-.647z" opacity=".5"/><path id="Path_3209" data-name="Path 3209" d="M7513.919 2715.073c1.116-4.729-8.047-.764-6.743 1.7 1.25 2.356 6.214.527 6.743-1.7z" opacity=".5"/><path id="Path_3210" data-name="Path 3210" d="M7529.981 2715.334c.247-1.348-3.176-1.257-3.61-.093-.945 2.505-4.4 1.112-5.451 3.385 1.669 2.182 8.563-.62 9.061-3.292z" opacity=".5"/><path id="Path_3211" data-name="Path 3211" d="M7500.291 2720.807c-1.642-3.1-4.824.606-6.737.524-2.18-.092-8.29-.246-5.836 4.387 2.682 5.063 14.424-1.418 12.573-4.911z" opacity=".5"/><path id="Path_3212" data-name="Path 3212" d="M7535.24 2704.317c-1.427-2.621-5.238 2-4.294 3.788.754 1.423 5.705-1.199 4.294-3.788z" opacity=".5"/><path id="Path_3213" data-name="Path 3213" d="M7509.928 2737.869c-1.32-2.495-12.59.312-10.257 4.712 2.268 4.285 10.863-3.569 10.257-4.712z" opacity=".5"/><path id="Path_3214" data-name="Path 3214" d="M7510.838 2748.4c.243-2.193-2.7-1.064-1.937.374.399.745 1.899.608 1.937-.374z" opacity=".5"/><path id="Path_3215" data-name="Path 3215" d="M7503.5 2730.186c-.971-1.831-3.074.187-2.328 1.594.864 1.634 3.245.137 2.328-1.594z" opacity=".5"/><path id="Path_3216" data-name="Path 3216" d="M7526.264 2728.755c-.69-1.869-12.417 2.284-10.149 6.563 2.419 4.569 11.295-2.918 10.149-6.563z" opacity=".5"/><path id="Path_3217" data-name="Path 3217" d="M7457.513 2740.906c-1.046-1.974-4.857-1.522-3.505 1.028.945 1.785 4.592 1.01 3.505-1.028z" opacity=".5"/><path id="Path_3218" data-name="Path 3218" d="M7467.848 2745.993c1.308-3.932-4.87-.8-5.643-.313-1.649 1.049-8.955 2.741-6.976 6.475 2.771 5.221 11.45-2.643 12.619-6.162z" opacity=".5"/><path id="Path_3219" data-name="Path 3219" d="M7458.614 2727.1c-1.4-2.635-10.417.4-8.267 4.456 2.035 3.838 8.753-3.547 8.267-4.456z" opacity=".5"/><path id="Path_3220" data-name="Path 3220" d="M7464.2 2765.814a54.032 54.032 0 004.747 2.862c3.443-.882 7.328-3.68 5.926-6.325-.335-.636-9.605.117-10.673 3.463z" opacity=".5"/><path id="Path_3221" data-name="Path 3221" d="M7466.3 2756.934c.561 1.058 1.349-.826.506-.955-.506.035-.675.351-.506.955z" opacity=".5"/><path id="Path_3222" data-name="Path 3222" d="M7447.256 2734.441c-1.62-3.057-5.4.8-3.914 3.614 1.804 3.4 5.729-.19 3.914-3.614z" opacity=".5"/><path id="Path_3223" data-name="Path 3223" d="M7444.984 2723.735c1.613 3.041 9.6-2.431 9.717-5.048.136-3.154-12.735-.647-9.717 5.048z" opacity=".5"/><path id="Path_3224" data-name="Path 3224" d="M7440.489 2730.291c.76 1.435 2.317-1.275 1.68-2.472-.893-1.685-2.447 1.026-1.68 2.472z" opacity=".5"/><path id="Path_3225" data-name="Path 3225" d="M7447.553 2747.432a1.254 1.254 0 00-1.737.207 104.384 104.384 0 002.477 3.2c.487-1.214.47-2.677-.74-3.407z" opacity=".5"/><path id="Path_3226" data-name="Path 3226" d="M7524.029 2674.728c2.05 2.432 9.108 2.048 7.494-1-.448-.844-1.7-1.3-3.085-1.443z" opacity=".5"/></g></g></g><g id="Group_1360" data-name="Group 1360" opacity=".6" style="mix-blend-mode:multiply;isolation:isolate"><path id="Path_3228" data-name="Path 3228" d="M7519.91 2695.908a39.052 39.052 0 00-10.331-20.553c.062.289.141.567.194.861 2.407 13.306-4.745 26.722-20.047 28.008-12.779 1.116-24.326-7.047-25.943-20.4a25.118 25.118 0 01.968-10.536 37.473 37.473 0 00-13.943 34.05c2.429 20.07 19.779 32.335 38.981 30.659 22.992-1.938 33.738-22.097 30.121-42.089z" fill="#01cb2d"/></g><g id="Group_1361" data-name="Group 1361" opacity=".6" style="mix-blend-mode:multiply;isolation:isolate"><path id="Path_3229" data-name="Path 3229" d="M7519.911 2695.908c-3.6-19.876-19.8-32.987-38.889-29.832-19.031 3.147-32.647 21.189-30.215 41.259s19.78 32.333 38.983 30.658c22.992-1.934 33.738-22.093 30.121-42.085zm-31.225 30.452c-16.1 1.4-30.64-8.876-32.676-25.7s9.374-31.946 25.326-34.584c16-2.645 29.578 8.345 32.6 25.006 3.031 16.76-5.977 33.657-25.25 35.278z" fill="#01cb2d"/></g><ellipse id="Ellipse_49" data-name="Ellipse 49" cx="9.612" cy="5.997" rx="9.612" ry="5.997" transform="translate(7476.996 2670.755)" fill="#8cc63f" style="mix-blend-mode:screen;isolation:isolate"/><g id="Group_1362" data-name="Group 1362"><path id="Path_3230" data-name="Path 3230" d="M7486.646 2665.608c16.577 0 30.022 12.41 33.265 30.3 3.617 19.994-7.129 40.151-30.122 42.085q-1.753.153-3.485.153c-17.775 0-33.215-11.964-35.5-30.812-2.433-20.07 11.183-38.111 30.213-41.258a34.4 34.4 0 015.625-.468m0-9.6a44.231 44.231 0 00-7.19.6 45.58 45.58 0 00-29.311 18.049 47.147 47.147 0 00-8.868 33.837 44.123 44.123 0 0015.295 28.669 46.2 46.2 0 0029.732 10.587 50.02 50.02 0 004.32-.189c12.493-1.051 23.327-6.767 30.475-16.094 7.712-10.062 10.722-23.644 8.259-37.264-4.077-22.488-21.64-38.191-42.712-38.191z" fill="#fff"/><path id="Path_3231" data-name="Path 3231" d="M7486.646 2665.608c16.577 0 30.022 12.41 33.265 30.3 3.617 19.994-7.129 40.151-30.122 42.085q-1.753.153-3.485.153c-17.775 0-33.215-11.964-35.5-30.812-2.433-20.07 11.183-38.111 30.213-41.258a34.4 34.4 0 015.625-.468m0-8a42.588 42.588 0 00-6.93.575 43.981 43.981 0 00-28.285 17.421 45.545 45.545 0 00-8.566 32.693 42.52 42.52 0 0014.735 27.637 44.6 44.6 0 0028.7 10.212c1.385 0 2.792-.062 4.181-.183 12.218-1.028 22.374-6.379 29.344-15.473 7.439-9.705 10.338-22.829 7.954-36.006-3.936-21.713-20.852-36.876-41.136-36.876z"/></g></g></g></svg>