<svg xmlns="http://www.w3.org/2000/svg" xmlns:xlink="http://www.w3.org/1999/xlink" width="292.732" height="88.565" viewBox="0 0 292.732 88.565">
  <defs>
    <linearGradient id="linear-gradient" x1="0.5" y1="0.039" x2="0.5" y2="1.357" gradientUnits="objectBoundingBox">
      <stop offset="0.187" stop-color="#00ffd5"/>
      <stop offset="1" stop-color="#01cb2d"/>
    </linearGradient>
  </defs>
  <g id="Group_9971" data-name="Group 9971" transform="translate(-33.635 -6451.719)">
    <g id="Group_10141" data-name="Group 10141">
      <g id="Group_10140" data-name="Group 10140">
        <g id="Group_10139" data-name="Group 10139">
          <path id="Path_23594" data-name="Path 23594" d="M60.639,6537.876c-4.1,0-9.383-.177-13.81-1.555-9.144-2.843-10.469-9.622-10.615-12.4-.1-1.99-.258-49.6-.113-55.191.131-5.03,2.407-8.78,6.586-10.866a13.554,13.554,0,0,1,4.392-2.288c3.759-1.208,8.865-1.445,16.414-1.445h.379c24.007,0,234.875.069,246.214.751,4.5.271,8.007,1.833,10.418,4.645,4.584,5.345,3.272,58.578,3.241,59.094-.057.943-.116,1.916-.159,2.9-.17,3.854-1.083,9.29-6.969,12.265a13.511,13.511,0,0,1-3.555,2.007c-3.776,1.47-9.126,1.992-20.446,1.992-2.206,0-220.7,0-223.65-.013h-.285c-1.031,0-2.2.022-3.437.047C63.764,6537.846,62.236,6537.876,60.639,6537.876Z" fill="#fff"/>
          <path id="Path_23595" data-name="Path 23595" d="M63.872,6456.536c16.122,0,234.55.054,246.07.746,3.826.23,6.764,1.511,8.734,3.808,3.342,3.9,3.013,51.615,2.665,57.383-.057.955-.118,1.941-.161,2.941-.159,3.6-.981,7.981-5.873,10.332a11.037,11.037,0,0,1-3.12,1.8c-3.463,1.349-8.584,1.827-19.571,1.827-8.519,0-220.729,0-223.64-.013h-.291c-1.049,0-2.234.023-3.489.047-1.463.028-2.976.058-4.557.058-3.934,0-8.976-.164-13.094-1.445-7.422-2.308-8.778-7.4-8.926-10.231-.1-1.95-.256-49.391-.11-55,.11-4.233,1.955-7.22,5.487-8.886a11.025,11.025,0,0,1,3.821-2.037c3.458-1.112,8.367-1.329,15.676-1.329h.379m0-4.817h-.38c-7.788,0-13.091.255-17.15,1.56a16,16,0,0,0-4.959,2.542c-4.815,2.5-7.539,7.039-7.69,12.842-.146,5.6.01,53.378.115,55.38.172,3.286,1.715,11.285,12.305,14.578,4.737,1.474,10.251,1.663,14.525,1.663,1.6,0,3.123-.029,4.59-.058h.059c1.167-.023,2.373-.046,3.4-.046h.283c2.944.013,221.442.013,223.648.013,11.8,0,17.182-.544,21.319-2.156a15.985,15.985,0,0,0,3.986-2.213c7.621-3.993,7.959-11.645,8.071-14.2.041-.943.1-1.873.152-2.775l0-.088c.186-3.078.35-16.726.059-29.79-.6-27.2-2.495-29.409-3.875-31.018-1.962-2.287-5.652-5.094-12.1-5.481-11.461-.689-222.349-.75-246.358-.755Z" fill="#fff"/>
          <path id="Path_23596" data-name="Path 23596" d="M63.872,6456.536c16.122,0,234.55.054,246.07.746,3.826.23,6.764,1.511,8.734,3.808,3.342,3.9,3.013,51.615,2.665,57.383-.057.955-.118,1.941-.161,2.941-.159,3.6-.981,7.981-5.873,10.332a11.037,11.037,0,0,1-3.12,1.8c-3.463,1.349-8.584,1.827-19.571,1.827-8.519,0-220.729,0-223.64-.013h-.291c-1.049,0-2.234.023-3.489.047-1.463.028-2.976.058-4.557.058-3.934,0-8.976-.164-13.094-1.445-7.422-2.308-8.778-7.4-8.926-10.231-.1-1.95-.256-49.391-.11-55,.11-4.233,1.955-7.22,5.487-8.886a11.025,11.025,0,0,1,3.821-2.037c3.458-1.112,8.367-1.329,15.676-1.329h.379m0-3.613h-.379c-7.668,0-12.873.246-16.782,1.5a14.754,14.754,0,0,0-4.675,2.413c-4.531,2.306-7,6.4-7.138,11.856-.146,5.6.009,53.287.114,55.285.158,3.034,1.592,10.423,11.46,13.491,4.582,1.426,9.978,1.609,14.167,1.609,1.593,0,3.1-.029,4.565-.058h.061c1.175-.023,2.388-.046,3.42-.046h.285c2.945.012,221.44.013,223.646.013,11.633,0,16.9-.524,20.882-2.074a14.748,14.748,0,0,0,3.772-2.11c7.1-3.664,7.414-10.843,7.519-13.231.041-.949.1-1.885.153-2.794l.005-.089c.185-3.06.347-16.657.057-29.69-.594-26.774-2.467-28.957-3.585-30.261-2.632-3.069-6.421-4.773-11.26-5.063-11.431-.687-222.282-.748-246.287-.753Z"/>
        </g>
      </g>
    </g>
    <g id="Group_10144" data-name="Group 10144">
      <path id="Path_23597" data-name="Path 23597" d="M316.409,6493.77c-1.78-2.131-4.5-3.282-8.31-3.517-14.868-.917-217.585-.984-238.506-.988H69.1c-8.845,0-15.118.262-19.06,1.563a9.587,9.587,0,0,0-3.9,2.26c-3.411,1.443-5,3.943-5.1,7.982-.185,7.335.01,18.437.139,20.977.231,4.537,3.081,7.71,8.471,9.432,4.8,1.534,10.934,1.731,15.743,1.731,2.011,0,3.958-.039,5.839-.077,1.651-.033,3.211-.064,4.623-.064h.389c3.743.016,198.531.017,209.6.017,13.51,0,19.981-.58,23.875-2.138a9.64,9.64,0,0,0,3.237-2.032c4.371-1.907,5.4-5.253,5.6-10,.058-1.361.137-2.705.213-4C319.184,6507.919,319.539,6497.52,316.409,6493.77Z"/>
      <path id="Path_23598" data-name="Path 23598" d="M307.045,6491.886c-15.6-.963-232.757-.966-236.007-.967H70.9c-17.709,0-23.357,1.088-23.546,8.553-.18,7.111.006,17.938.135,20.465.441,8.663,11.992,9.786,22.588,9.786,3.708,0,7.3-.137,10.255-.137h.386c3.721.016,198.006.016,207.389.016,24.242,0,27.717-1.748,28.109-10.9C316.726,6506.788,318.81,6492.612,307.045,6491.886Z" fill="url(#linear-gradient)"/>
      <g id="Group_10143" data-name="Group 10143">
        <path id="Path_23599" data-name="Path 23599" d="M305.722,6509.316a8.916,8.916,0,0,0-2.266-3.115,37.7,37.7,0,0,0-3.822-3.185q-2.127-1.556-4.249-2.835t-3.469-1.982a11.875,11.875,0,0,0-2.089-.883,6.8,6.8,0,0,0-2.017-.319,5.87,5.87,0,0,0-3.93,1.417,11.547,11.547,0,0,0-1.9,2.064c-.16-.1-.32-.2-.48-.3q-2.121-1.274-3.469-1.982a11.885,11.885,0,0,0-2.09-.883,6.786,6.786,0,0,0-2.016-.319,5.87,5.87,0,0,0-3.93,1.417,11.294,11.294,0,0,0-2.655,3.254,3.159,3.159,0,0,0,.5,4.11,28.442,28.442,0,0,0,2.9,2.547q1.486,1.135,3.115,2.194-.783.213-1.417.391c-.426.12-.872.246-1.345.388a7.975,7.975,0,0,0-2.973,1.771,4,4,0,0,0-1.275,3.047,10.907,10.907,0,0,0,1.732,5.946q1.6,2.265,5.632,2.267a17.257,17.257,0,0,0,6.511-1.418c.611-.249,1.2-.517,1.779-.8q1.6,2.214,5.592,2.219a17.253,17.253,0,0,0,6.511-1.418,25.933,25.933,0,0,0,6.231-3.576,16.11,16.11,0,0,0,4.249-4.814A6.234,6.234,0,0,0,305.722,6509.316Z"/>
        <g id="Group_10142" data-name="Group 10142">
          <path id="Path_23600" data-name="Path 23600" d="M286.762,6507.642a28.546,28.546,0,0,1-2.9-2.546,3.161,3.161,0,0,1-.495-4.111,11.27,11.27,0,0,1,2.654-3.253,5.871,5.871,0,0,1,3.93-1.418,6.824,6.824,0,0,1,2.017.319,11.914,11.914,0,0,1,2.089.883q1.348.709,3.469,1.983t4.249,2.835a37.572,37.572,0,0,1,3.822,3.184,8.909,8.909,0,0,1,2.266,3.116,6.235,6.235,0,0,1-.637,5.205,16.107,16.107,0,0,1-4.249,4.813,25.917,25.917,0,0,1-6.231,3.576,17.253,17.253,0,0,1-6.511,1.418q-4.039,0-5.631-2.267a10.9,10.9,0,0,1-1.733-5.946,4,4,0,0,1,1.275-3.046,7.933,7.933,0,0,1,2.974-1.771c.472-.142.918-.269,1.344-.388s.9-.25,1.418-.392Q288.247,6508.775,286.762,6507.642Z"/>
          <path id="Path_23601" data-name="Path 23601" d="M289.275,6507.712c.591.38,1.2.779,1.84,1.206s1.2.826,1.7,1.2.722.661.676.849a.559.559,0,0,1-.569.426,3.246,3.246,0,0,1-1.168-.318,2.328,2.328,0,0,0-1.805.107,10.7,10.7,0,0,1-1.418.457,11.4,11.4,0,0,0-1.413.461,3.854,3.854,0,0,0-.673.354,3.77,3.77,0,0,1-.676.357,2.9,2.9,0,0,0-1.486,2.973q.213.991.357,1.982a8.48,8.48,0,0,0,.5,1.913,4.19,4.19,0,0,0,2.016,2.017,7.343,7.343,0,0,0,3.081.6,15.944,15.944,0,0,0,5.878-1.271,23.6,23.6,0,0,0,5.735-3.258,16.675,16.675,0,0,0,4-4.321,4.77,4.77,0,0,0,.6-4.46,7.238,7.238,0,0,0-2.163-2.831,43.311,43.311,0,0,0-3.822-3.046q-2.086-1.488-4.176-2.689t-3.223-1.841a4.851,4.851,0,0,0-1.559-.672,6.642,6.642,0,0,0-1.487-.176,4.827,4.827,0,0,0-3.219,1.167,9.547,9.547,0,0,0-2.3,2.939,1.789,1.789,0,0,0,.353,2.336q.779.777,1.594,1.452c.542.449,1.1.883,1.664,1.31C288.3,6507.078,288.683,6507.335,289.275,6507.712Z" fill="#fc3"/>
          <path id="Path_23602" data-name="Path 23602" d="M272.88,6507.642a28.543,28.543,0,0,1-2.9-2.546,3.161,3.161,0,0,1-.5-4.111,11.289,11.289,0,0,1,2.655-3.253,5.871,5.871,0,0,1,3.93-1.418,6.817,6.817,0,0,1,2.016.319,11.921,11.921,0,0,1,2.09.883q1.349.709,3.469,1.983t4.249,2.835a37.682,37.682,0,0,1,3.822,3.184,8.909,8.909,0,0,1,2.266,3.116,6.235,6.235,0,0,1-.637,5.205,16.121,16.121,0,0,1-4.249,4.813,25.917,25.917,0,0,1-6.231,3.576,17.257,17.257,0,0,1-6.511,1.418q-4.039,0-5.632-2.267a10.9,10.9,0,0,1-1.732-5.946,4,4,0,0,1,1.275-3.046,7.937,7.937,0,0,1,2.973-1.771c.473-.142.919-.269,1.345-.388s.895-.25,1.417-.392Q274.364,6508.775,272.88,6507.642Z"/>
          <path id="Path_23603" data-name="Path 23603" d="M275.392,6507.712c.592.38,1.2.779,1.84,1.206s1.2.826,1.7,1.2.723.661.676.849a.558.558,0,0,1-.568.426,3.247,3.247,0,0,1-1.168-.318,2.327,2.327,0,0,0-1.8.107,10.7,10.7,0,0,1-1.418.457,11.409,11.409,0,0,0-1.414.461,3.845,3.845,0,0,0-.672.354,3.805,3.805,0,0,1-.676.357,2.9,2.9,0,0,0-1.486,2.973q.213.991.357,1.982a8.53,8.53,0,0,0,.495,1.913,4.2,4.2,0,0,0,2.017,2.017,7.343,7.343,0,0,0,3.081.6,15.935,15.935,0,0,0,5.877-1.271,23.585,23.585,0,0,0,5.736-3.258,16.687,16.687,0,0,0,4-4.321,4.768,4.768,0,0,0,.6-4.46,7.248,7.248,0,0,0-2.163-2.831,43.32,43.32,0,0,0-3.822-3.046q-2.087-1.488-4.176-2.689t-3.223-1.841a4.855,4.855,0,0,0-1.56-.672,6.627,6.627,0,0,0-1.486-.176,4.825,4.825,0,0,0-3.219,1.167,9.547,9.547,0,0,0-2.3,2.939,1.789,1.789,0,0,0,.353,2.336q.778.777,1.594,1.452c.542.449,1.1.883,1.664,1.31C274.413,6507.078,274.8,6507.335,275.392,6507.712Z" fill="#fc3"/>
        </g>
      </g>
      <path id="Path_23604" data-name="Path 23604" d="M296.651,6494.536c8.024-2.332,20.574.363,16.878,11.163a14.693,14.693,0,0,0-1.743-5.334,7.9,7.9,0,0,0-3.949-2.987c-3.515-1.381-7.449-1.759-11.186-2.842Z" fill="#fff"/>
      <path id="Path_23605" data-name="Path 23605" d="M70.437,6525.577c-8.024,2.332-20.574-.363-16.879-11.163a14.712,14.712,0,0,0,1.744,5.334,7.9,7.9,0,0,0,3.949,2.987c3.515,1.381,7.448,1.759,11.186,2.842Z" fill="#fff"/>
    </g>
  </g>
</svg>
