<svg xmlns="http://www.w3.org/2000/svg" width="208.092" height="270.706" viewBox="0 0 208.092 270.706">
  <g id="Group_3619" data-name="Group 3619" transform="translate(-9533.655 -1409.565)">
    <g id="Group_3618" data-name="Group 3618">
      <g id="Group_3617" data-name="Group 3617">
        <g id="Group_3582" data-name="Group 3582">
          <g id="Group_3580" data-name="Group 3580">
            <path id="Path_10611" data-name="Path 10611" d="M9691.842,1447.43a.99.99,0,0,1-.354-.065,1,1,0,0,1,.354-1.939h0a1,1,0,0,1,1,1,1.018,1.018,0,0,1-.1.448A1,1,0,0,1,9691.842,1447.43Z"/>
            <path id="Path_10612" data-name="Path 10612" d="M9691.843,1446.426v0m0,0h0m0,0v0m0,0h0m0-2a2,2,0,0,0-1.97,1.667l0,.01-.008.054a2,2,0,0,0,1.646,2.244,1.939,1.939,0,0,0,.337.029,2,2,0,0,0,1.958-1.6l0-.008.011-.053c0-.03.009-.06.013-.091h0v0h0c0-.025,0-.049.007-.074,0-.057.008-.114.008-.171a2,2,0,0,0-1.833-1.993c-.057,0-.112-.007-.169-.007Z" fill="#fff"/>
          </g>
          <g id="Group_3581" data-name="Group 3581">
            <path id="Path_10613" data-name="Path 10613" d="M9637.622,1679.771a102.322,102.322,0,0,1-17.3-1.476,104.782,104.782,0,0,1-23.562-7.006,103.532,103.532,0,0,1,40.778-198.578c2.524,0,5.089.095,7.628.282l.054-.313c.156-.906.355-1.851.594-2.813-.426-.308-.853-.6-1.271-.884a74.688,74.688,0,0,1-19.777,2.806,61.769,61.769,0,0,1-10.437-.876c-22.818-3.928-41.686-21.379-50.468-46.682a8.727,8.727,0,0,1,.5-6.83,8.634,8.634,0,0,1,5.291-4.33,89,89,0,0,1,23.86-3.006c10.562,0,30.39,1.649,44.527,12.69,9.443,7.369,14.833,17.321,16.033,29.6a62.736,62.736,0,0,1,25.145-20.48l2.894-1.281a.517.517,0,0,1,.153-.041l.282-.027a4.365,4.365,0,0,1,.466-.025,3.707,3.707,0,0,1,.851.1,4.45,4.45,0,0,1,1.595.539,7.334,7.334,0,0,1,1.721,1.227,16.441,16.441,0,0,1,3.7,5.4,17.892,17.892,0,0,1,1.642,6.441,8.366,8.366,0,0,1-.185,2.315,1.74,1.74,0,0,1-.045.189,4.813,4.813,0,0,1-1.879,2.928,2.373,2.373,0,0,1-.356.235,3.522,3.522,0,0,1-.809.334l-1.568.7c-11.2,4.967-20.216,15.374-21.925,25.307l-.067.386a103.531,103.531,0,0,1-28.062,203.172Z"/>
            <path id="Path_10614" data-name="Path 10614" d="M9593.517,1410.565c15.271,0,32.386,3.342,44.221,12.584,9.685,7.558,15.047,17.851,15.958,30.617a62.6,62.6,0,0,1,25.729-21.437l2.893-1.282.282-.028a3.97,3.97,0,0,1,.416-.022,3.194,3.194,0,0,1,.737.082,4.084,4.084,0,0,1,1.472.491,6.957,6.957,0,0,1,1.619,1.157,15.931,15.931,0,0,1,3.577,5.239,17.39,17.39,0,0,1,1.6,6.257,7.871,7.871,0,0,1-.177,2.2s-.016.076-.035.148a4.339,4.339,0,0,1-1.679,2.648,2.176,2.176,0,0,1-.315.209,3.075,3.075,0,0,1-.7.291l-1.637.725c-11.343,5.031-20.478,15.591-22.214,25.679l-.144.831a103.031,103.031,0,0,1-27.494,202.312,101.514,101.514,0,0,1-17.215-1.469,104.219,104.219,0,0,1-23.449-6.973,103.033,103.033,0,0,1,40.581-197.619q4.008,0,8.044.316l.131-.761c.171-.995.4-2.035.668-3.1-.587-.431-1.178-.842-1.752-1.22a74.109,74.109,0,0,1-19.863,2.848,61.048,61.048,0,0,1-10.353-.869c-22.637-3.9-41.359-21.225-50.08-46.353a8.17,8.17,0,0,1,5.459-10.515,88.642,88.642,0,0,1,23.724-2.987m0-1a89.489,89.489,0,0,0-24,3.027,9.171,9.171,0,0,0-6.128,11.8c8.846,25.484,27.856,43.058,50.858,47.016a62.147,62.147,0,0,0,10.521.884,75.057,75.057,0,0,0,19.688-2.763c.263.178.528.362.794.551-.2.816-.362,1.615-.5,2.385-2.4-.167-4.825-.252-7.212-.252a104.013,104.013,0,0,0-40.976,199.538,105.273,105.273,0,0,0,23.674,7.04,104.007,104.007,0,0,0,58.6-198.051,104.37,104.37,0,0,0-12.586-4.5c1.707-9.76,10.591-19.984,21.625-24.878l1.574-.7a4.027,4.027,0,0,0,.86-.366,3.1,3.1,0,0,0,.41-.272,5.312,5.312,0,0,0,2.054-3.208c.015-.056.031-.119.044-.188a8.889,8.889,0,0,0,.2-2.457,18.377,18.377,0,0,0-1.686-6.619,16.91,16.91,0,0,0-3.818-5.57,7.891,7.891,0,0,0-1.855-1.316,5.045,5.045,0,0,0-1.735-.577,4.212,4.212,0,0,0-.908-.1,5.11,5.11,0,0,0-.518.027l-.279.028a.967.967,0,0,0-.307.081l-2.893,1.281a63.276,63.276,0,0,0-24.586,19.608,41.509,41.509,0,0,0-16.082-28.661c-14.256-11.133-34.21-12.8-44.835-12.8Z" fill="#fff"/>
          </g>
        </g>
        <path id="Path_10615" data-name="Path 10615" d="M9732.406,1592.537c-.126.732-.26,1.458-.4,2.183-.079.411-.158.817-.246,1.222a95.609,95.609,0,0,1-19.413,40.847q-2.054,2.525-4.27,4.9-3.173,3.41-6.657,6.493a96.822,96.822,0,0,1-7.666,6.116,96.17,96.17,0,0,1-146.382-45.232v0a95.518,95.518,0,0,1-5.342-41.884q.349-3.6.97-7.237a96.252,96.252,0,0,1,5.912-20.5q1.438-3.483,3.13-6.806.872-1.719,1.812-3.39a95.644,95.644,0,0,1,12.474-17.365q.989-1.1,2.011-2.16a96.3,96.3,0,0,1,8.837-8.118v0c.65-.529,1.31-1.048,1.97-1.557q3.363-2.583,6.94-4.86a96.907,96.907,0,0,1,14.455-7.579q3.731-1.566,7.595-2.819h0q2.18-.708,4.4-1.31c.868-.239,1.737-.464,2.613-.674.9-.219,1.819-.423,2.733-.618a94.728,94.728,0,0,1,13.433-1.846c2.59-.173,5.206-.237,7.835-.2a96.956,96.956,0,0,1,14.847,1.4,95.836,95.836,0,0,1,29.834,10.381l.024.017a96.033,96.033,0,0,1,31.845,28.175q2.6,3.61,4.861,7.455c.359.613.711,1.224,1.051,1.843q1.355,2.427,2.573,4.934A95.671,95.671,0,0,1,9732.406,1592.537Z" fill="#ff7b0f"/>
        <path id="Path_10616" data-name="Path 10616" d="M9726.991,1540.714q.412,1.035.8,2.073c.146.392.291.779.428,1.17a95.614,95.614,0,0,1,4.759,44.975q-.434,3.225-1.086,6.408-.927,4.563-2.289,9.013a97.521,97.521,0,0,1-3.347,9.218,96.168,96.168,0,0,1-148.472,37.814l0-.005a95.536,95.536,0,0,1-26.416-32.939q-1.585-3.257-2.95-6.679a96.209,96.209,0,0,1-5.656-20.571q-.589-3.723-.882-7.44-.152-1.922-.224-3.837a95.62,95.62,0,0,1,1.576-21.323q.271-1.45.589-2.891a96.153,96.153,0,0,1,3.3-11.537v0a96.753,96.753,0,0,1,12.626-24.133q2.364-3.282,5.008-6.369l0,0q1.49-1.742,3.07-3.414c-9.418,22.206-15.742,45.173-13.368,70,2.26,23.626,12.632,46.894,30.659,62.332,14.1,12.07,33.028,18.846,51.623,17.548,20.422-1.421,43.331-9.745,57.93-24.345a92.272,92.272,0,0,0,9.666-120.168c-6.374-8.86-10.648-16.4-19.5-23.114q2.424,1.363,4.771,2.867A95.663,95.663,0,0,1,9726.991,1540.714Z" fill="#ff7b0f" opacity="0.4" style="mix-blend-mode: multiply;isolation: isolate"/>
        <g id="Group_3583" data-name="Group 3583">
          <path id="Path_10617" data-name="Path 10617" d="M9732.978,1588.927a95.644,95.644,0,0,0-4.763-44.964c-.132-.4-.28-.782-.425-1.174-.259-.7-.521-1.38-.791-2.078a95.66,95.66,0,0,0-37.394-45.347c-1.557-1-3.154-1.964-4.763-2.868-.614-.354-1.231-.685-1.858-1.03q-3.939-2.08-8.043-3.823a96.1,96.1,0,0,0-41.864-7.406l-.034-.006a96.695,96.695,0,0,0-44.252,13.279q-3.4,2.007-6.58,4.254a94.422,94.422,0,0,0-10.5,8.587c-.679.641-1.359,1.293-2,1.951-.643.636-1.264,1.287-1.884,1.937q-1.586,1.681-3.074,3.413c-1.764,2.064-3.43,4.181-5,6.372a97.093,97.093,0,0,0-8.377,14.008q-1.865,3.816-3.386,7.775c-.3.777-.588,1.556-.866,2.348l0,.012a96.9,96.9,0,0,0-3.3,11.531c-.212.958-.4,1.931-.593,2.893a95.752,95.752,0,0,0-1.573,21.322q.078,1.913.227,3.839c.19,2.471.484,4.96.885,7.444a96.024,96.024,0,0,0,5.647,20.564c.909,2.288,1.9,4.506,2.959,6.677a96.124,96.124,0,0,0,178.231-14.086c.9-2.958,1.668-5.975,2.286-9.018C9732.322,1593.218,9732.691,1591.079,9732.978,1588.927Zm-35.914-61.228c-8.625,19.919-63.1,21.873-89.109,1.735-8.733-6.759-11.677-14.487-10.1-21.591,2.726-12.2,18.36-21.12,41.487-20.608a110.951,110.951,0,0,1,36.972,7.629C9695.872,1502.492,9701.794,1516.781,9697.063,1527.7Z" fill="#ff7b0f" opacity="0.25" style="mix-blend-mode: multiply;isolation: isolate"/>
        </g>
        <path id="Path_10618" data-name="Path 10618" d="M9674.429,1504.306c-1.529-5.445-12.718-10.8-24.643-12.255-12.763-1.555-22.569-.417-23.5,5.5-.548,3.487,3.29,7.774,9.9,11.058C9655.413,1518.161,9677.172,1514.073,9674.429,1504.306Z" fill="#fff" opacity="0.15"/>
        <g id="Group_3590" data-name="Group 3590">
          <path id="Path_10619" data-name="Path 10619" d="M9635.15,1635.31a2.86,2.86,0,0,0-.094,3.063,7.138,7.138,0,0,0,2.262,2.288c1.554,1.113,3.575,2.108,5.3,1.284a3.65,3.65,0,0,0,1.364-4.828C9642.741,1634.661,9637.172,1632.772,9635.15,1635.31Z" fill="#ffc101"/>
          <path id="Path_10620" data-name="Path 10620" d="M9661.134,1637.387a2.849,2.849,0,0,0-1.273,1.853,2.061,2.061,0,0,0,.513,2.141,1.873,1.873,0,0,0,2.338-.133C9665.138,1639.146,9662.875,1636.479,9661.134,1637.387Z" fill="#ffc101"/>
          <path id="Path_10621" data-name="Path 10621" d="M9637.083,1636.4a2.856,2.856,0,0,0-.093,3.063,7.113,7.113,0,0,0,2.26,2.288c1.554,1.113,3.577,2.108,5.3,1.284a3.649,3.649,0,0,0,1.364-4.827C9644.674,1635.753,9639.1,1633.864,9637.083,1636.4Z" fill="#ff4200"/>
          <path id="Path_10622" data-name="Path 10622" d="M9663.066,1638.479a2.844,2.844,0,0,0-1.273,1.853,2.064,2.064,0,0,0,.512,2.142,1.874,1.874,0,0,0,2.338-.134C9667.071,1640.238,9664.807,1637.571,9663.066,1638.479Z" fill="#ff4200"/>
          <g id="Group_3584" data-name="Group 3584">
            <path id="Path_10623" data-name="Path 10623" d="M9603.2,1652.549a2.884,2.884,0,0,0,2.358,1.361,2.074,2.074,0,0,0,1.6-1.466,4.829,4.829,0,0,0,.06-2.27,6.544,6.544,0,0,0-2.2-4.346c-1.161-.865-3.947-1.064-4.531.671C9599.942,1648.114,9602.263,1651.391,9603.2,1652.549Z" fill="#ffc101"/>
            <path id="Path_10624" data-name="Path 10624" d="M9605.127,1653.641a2.882,2.882,0,0,0,2.36,1.361,2.074,2.074,0,0,0,1.6-1.466,4.842,4.842,0,0,0,.06-2.27,6.55,6.55,0,0,0-2.2-4.346c-1.161-.864-3.948-1.064-4.532.671C9601.875,1649.207,9604.2,1652.483,9605.127,1653.641Z" fill="#ff4200"/>
            <path id="Path_10625" data-name="Path 10625" d="M9604.325,1652.993a2.876,2.876,0,0,0,2.358,1.361,2.072,2.072,0,0,0,1.6-1.466,4.828,4.828,0,0,0,.059-2.27,6.541,6.541,0,0,0-2.2-4.346c-1.161-.864-3.948-1.064-4.531.671C9601.072,1648.559,9603.393,1651.836,9604.325,1652.993Z" fill="#ff970f"/>
          </g>
          <g id="Group_3585" data-name="Group 3585">
            <path id="Path_10626" data-name="Path 10626" d="M9644.331,1654.879a9.985,9.985,0,0,0-3.9,1.033,2.944,2.944,0,0,0-1.37,3.464,2.752,2.752,0,0,0,2.161,1.473,5.784,5.784,0,0,0,2.677-.39c1.712-.6,5.211-3.446,2.628-5.227A3.716,3.716,0,0,0,9644.331,1654.879Z" fill="#ffc101"/>
            <path id="Path_10627" data-name="Path 10627" d="M9646.264,1655.971a10.026,10.026,0,0,0-3.9,1.033,2.943,2.943,0,0,0-1.37,3.464,2.752,2.752,0,0,0,2.161,1.473,5.784,5.784,0,0,0,2.677-.39c1.711-.6,5.21-3.446,2.628-5.226A3.723,3.723,0,0,0,9646.264,1655.971Z" fill="#ff4200"/>
            <path id="Path_10628" data-name="Path 10628" d="M9645.461,1655.324a10.016,10.016,0,0,0-3.9,1.032,2.941,2.941,0,0,0-1.368,3.464,2.748,2.748,0,0,0,2.16,1.473,5.784,5.784,0,0,0,2.677-.389c1.711-.6,5.211-3.447,2.628-5.227A3.717,3.717,0,0,0,9645.461,1655.324Z" fill="#ff970f"/>
          </g>
          <g id="Group_3586" data-name="Group 3586">
            <path id="Path_10629" data-name="Path 10629" d="M9652.072,1612.837a3.056,3.056,0,0,0-3.146,2.08,3.839,3.839,0,0,0,1,3,12.6,12.6,0,0,0,3.751,3.29,4.77,4.77,0,0,0,3.756.719,3.613,3.613,0,0,0,2.025-4.367C9658.674,1614.8,9654.776,1612.914,9652.072,1612.837Z" fill="#ffc101"/>
            <path id="Path_10630" data-name="Path 10630" d="M9654,1613.929a3.058,3.058,0,0,0-3.146,2.08,3.837,3.837,0,0,0,.994,3,12.638,12.638,0,0,0,3.751,3.29,4.777,4.777,0,0,0,3.757.72,3.612,3.612,0,0,0,2.024-4.368C9660.606,1615.9,9656.708,1614.007,9654,1613.929Z" fill="#ff4200"/>
            <path id="Path_10631" data-name="Path 10631" d="M9653.2,1613.282a3.055,3.055,0,0,0-3.146,2.08,3.831,3.831,0,0,0,1,3,12.6,12.6,0,0,0,3.751,3.29,4.773,4.773,0,0,0,3.755.72,3.613,3.613,0,0,0,2.026-4.368C9659.8,1615.248,9655.906,1613.359,9653.2,1613.282Z" fill="#ff970f"/>
          </g>
          <path id="Path_10632" data-name="Path 10632" d="M9636.28,1635.754a2.86,2.86,0,0,0-.094,3.064,7.132,7.132,0,0,0,2.261,2.287c1.554,1.113,3.577,2.108,5.3,1.285a3.651,3.651,0,0,0,1.364-4.828C9643.871,1635.1,9638.3,1633.216,9636.28,1635.754Z" fill="#ff970f"/>
          <g id="Group_3587" data-name="Group 3587">
            <path id="Path_10633" data-name="Path 10633" d="M9631,1604.365c2.233,1.336,3.51,4.172-.031,5.737a4.184,4.184,0,0,1-4.082-.313,3.6,3.6,0,0,1-1.214-4.054C9626.63,1603.182,9629.145,1603.256,9631,1604.365Z" fill="#ffc101"/>
            <path id="Path_10634" data-name="Path 10634" d="M9632.932,1605.458c2.233,1.335,3.512,4.172-.029,5.736a4.183,4.183,0,0,1-4.082-.313,3.6,3.6,0,0,1-1.215-4.054C9628.563,1604.274,9631.077,1604.348,9632.932,1605.458Z" fill="#ff4200"/>
            <path id="Path_10635" data-name="Path 10635" d="M9632.13,1604.81c2.232,1.335,3.51,4.172-.031,5.736a4.181,4.181,0,0,1-4.082-.312,3.6,3.6,0,0,1-1.214-4.054C9627.76,1603.627,9630.275,1603.7,9632.13,1604.81Z" fill="#ff970f"/>
          </g>
          <path id="Path_10636" data-name="Path 10636" d="M9662.264,1637.831a2.847,2.847,0,0,0-1.273,1.853,2.064,2.064,0,0,0,.513,2.142,1.872,1.872,0,0,0,2.338-.134C9666.268,1639.59,9664,1636.924,9662.264,1637.831Z" fill="#ff970f"/>
          <g id="Group_3588" data-name="Group 3588">
            <path id="Path_10637" data-name="Path 10637" d="M9620.219,1657.467c-.213,1.437,1.947,3.244,3.5,3.2a2.157,2.157,0,0,0,2.186-1.552,1.935,1.935,0,0,0-.859-1.739c-.625-.462-2.771-1.511-3.579-1.19A1.729,1.729,0,0,0,9620.219,1657.467Z" fill="#ffc101"/>
            <path id="Path_10638" data-name="Path 10638" d="M9622.152,1658.559c-.214,1.437,1.946,3.244,3.5,3.2a2.154,2.154,0,0,0,2.185-1.552,1.937,1.937,0,0,0-.858-1.739c-.626-.461-2.771-1.511-3.58-1.19A1.724,1.724,0,0,0,9622.152,1658.559Z" fill="#ff4200"/>
            <path id="Path_10639" data-name="Path 10639" d="M9621.349,1657.911c-.214,1.437,1.947,3.244,3.5,3.2a2.156,2.156,0,0,0,2.186-1.552,1.936,1.936,0,0,0-.859-1.739c-.626-.461-2.771-1.511-3.58-1.189A1.726,1.726,0,0,0,9621.349,1657.911Z" fill="#ff970f"/>
          </g>
          <g id="Group_3589" data-name="Group 3589">
            <path id="Path_10640" data-name="Path 10640" d="M9611.458,1628.981a2.93,2.93,0,0,0,.252,4.37,3.189,3.189,0,0,0,4.249-4.755A3.07,3.07,0,0,0,9611.458,1628.981Z" fill="#ffc101"/>
            <path id="Path_10641" data-name="Path 10641" d="M9613.39,1630.074a2.928,2.928,0,0,0,.252,4.369,3.189,3.189,0,0,0,4.249-4.755A3.07,3.07,0,0,0,9613.39,1630.074Z" fill="#ff4200"/>
            <path id="Path_10642" data-name="Path 10642" d="M9612.587,1629.426a2.93,2.93,0,0,0,.252,4.369,3.189,3.189,0,0,0,4.249-4.755A3.071,3.071,0,0,0,9612.587,1629.426Z" fill="#ff970f"/>
          </g>
        </g>
        <g id="Group_3593" data-name="Group 3593">
          <g id="Group_3591" data-name="Group 3591">
            <path id="Path_10643" data-name="Path 10643" d="M9607.682,1571.5a2.882,2.882,0,0,0,1.273,2.408,2.074,2.074,0,0,0,2.137-.388,4.842,4.842,0,0,0,1.259-1.891,6.54,6.54,0,0,0,.45-4.849c-.523-1.35-2.776-3-4.193-1.844C9607.287,1566.014,9607.509,1570.023,9607.682,1571.5Z" fill="#ffc101"/>
            <path id="Path_10644" data-name="Path 10644" d="M9608.737,1573.452a2.881,2.881,0,0,0,1.272,2.408,2.076,2.076,0,0,0,2.138-.388,4.842,4.842,0,0,0,1.259-1.891,6.55,6.55,0,0,0,.45-4.849c-.524-1.351-2.777-3-4.194-1.844C9608.342,1567.967,9608.564,1571.976,9608.737,1573.452Z" fill="#ff4200"/>
            <path id="Path_10645" data-name="Path 10645" d="M9608.4,1572.477a2.879,2.879,0,0,0,1.272,2.407,2.07,2.07,0,0,0,2.137-.388,4.84,4.84,0,0,0,1.26-1.89,6.553,6.553,0,0,0,.45-4.85c-.524-1.35-2.777-3-4.194-1.843C9608.007,1566.992,9608.229,1571,9608.4,1572.477Z" fill="#ff970f"/>
          </g>
          <g id="Group_3592" data-name="Group 3592">
            <path id="Path_10646" data-name="Path 10646" d="M9619.48,1584.722c-.946,1.1-.078,3.782,1.258,4.566a2.154,2.154,0,0,0,2.676-.152,1.937,1.937,0,0,0,.2-1.929c-.285-.723-1.543-2.753-2.4-2.911A1.721,1.721,0,0,0,9619.48,1584.722Z" fill="#ffc101"/>
            <path id="Path_10647" data-name="Path 10647" d="M9620.535,1586.675c-.946,1.1-.078,3.782,1.258,4.566a2.154,2.154,0,0,0,2.676-.152,1.934,1.934,0,0,0,.2-1.929c-.285-.723-1.543-2.753-2.4-2.911A1.721,1.721,0,0,0,9620.535,1586.675Z" fill="#ff4200"/>
            <path id="Path_10648" data-name="Path 10648" d="M9620.2,1585.7c-.946,1.1-.078,3.783,1.258,4.567a2.156,2.156,0,0,0,2.676-.152,1.935,1.935,0,0,0,.2-1.929c-.285-.724-1.543-2.754-2.4-2.912A1.723,1.723,0,0,0,9620.2,1585.7Z" fill="#ff970f"/>
          </g>
        </g>
        <g id="Group_3600" data-name="Group 3600">
          <path id="Path_10649" data-name="Path 10649" d="M9579.54,1607.876a2.859,2.859,0,0,0-2.35,1.967,7.123,7.123,0,0,0-.206,3.209c.2,1.9.8,4.073,2.565,4.814a3.651,3.651,0,0,0,4.514-2.191C9585.072,1613.114,9582.78,1607.7,9579.54,1607.876Z" fill="#ffc101"/>
          <path id="Path_10650" data-name="Path 10650" d="M9595.265,1628.665a2.846,2.846,0,0,0-2.229.28,2.062,2.062,0,0,0-1.259,1.807,1.869,1.869,0,0,0,1.653,1.657C9596.614,1632.825,9597.1,1629.362,9595.265,1628.665Z" fill="#ffc101"/>
          <path id="Path_10651" data-name="Path 10651" d="M9580.009,1610.045a2.862,2.862,0,0,0-2.35,1.967,7.128,7.128,0,0,0-.206,3.21c.2,1.9.8,4.073,2.565,4.814a3.651,3.651,0,0,0,4.514-2.192C9585.541,1615.283,9583.249,1609.867,9580.009,1610.045Z" fill="#ff4200"/>
          <path id="Path_10652" data-name="Path 10652" d="M9595.734,1630.834a2.846,2.846,0,0,0-2.23.281,2.061,2.061,0,0,0-1.259,1.807,1.871,1.871,0,0,0,1.654,1.657C9597.083,1634.995,9597.57,1631.531,9595.734,1630.834Z" fill="#ff4200"/>
          <g id="Group_3594" data-name="Group 3594">
            <path id="Path_10653" data-name="Path 10653" d="M9550.592,1582.118a2.88,2.88,0,0,0,.552,2.667,2.074,2.074,0,0,0,2.161.223,4.835,4.835,0,0,0,1.735-1.465,6.552,6.552,0,0,0,1.784-4.532c-.127-1.442-1.83-3.657-3.515-2.939C9551.741,1576.74,9550.837,1580.653,9550.592,1582.118Z" fill="#ffc101"/>
            <path id="Path_10654" data-name="Path 10654" d="M9551.061,1584.288a2.884,2.884,0,0,0,.553,2.667,2.074,2.074,0,0,0,2.161.223,4.851,4.851,0,0,0,1.734-1.465,6.544,6.544,0,0,0,1.784-4.532c-.127-1.443-1.83-3.657-3.514-2.939C9552.21,1578.91,9551.306,1582.822,9551.061,1584.288Z" fill="#ff4200"/>
            <path id="Path_10655" data-name="Path 10655" d="M9551.011,1583.258a2.882,2.882,0,0,0,.553,2.667,2.07,2.07,0,0,0,2.16.222,4.825,4.825,0,0,0,1.735-1.465,6.549,6.549,0,0,0,1.784-4.532c-.126-1.442-1.83-3.656-3.515-2.939C9552.161,1577.88,9551.256,1581.792,9551.011,1583.258Z" fill="#ff970f"/>
          </g>
          <g id="Group_3595" data-name="Group 3595">
            <path id="Path_10656" data-name="Path 10656" d="M9578.823,1631.731a10.013,10.013,0,0,0-3.366-2.229,2.944,2.944,0,0,0-3.5,1.281,2.751,2.751,0,0,0,.336,2.593,5.779,5.779,0,0,0,2.071,1.74c1.586.879,6.039,1.6,5.65-1.512A3.708,3.708,0,0,0,9578.823,1631.731Z" fill="#ffc101"/>
            <path id="Path_10657" data-name="Path 10657" d="M9579.292,1633.9a9.985,9.985,0,0,0-3.366-2.229,2.944,2.944,0,0,0-3.5,1.28,2.754,2.754,0,0,0,.336,2.594,5.81,5.81,0,0,0,2.071,1.74c1.586.879,6.039,1.6,5.651-1.513A3.715,3.715,0,0,0,9579.292,1633.9Z" fill="#ff4200"/>
            <path id="Path_10658" data-name="Path 10658" d="M9579.242,1632.87a10.008,10.008,0,0,0-3.366-2.228,2.942,2.942,0,0,0-3.5,1.28,2.752,2.752,0,0,0,.337,2.593,5.77,5.77,0,0,0,2.07,1.74c1.586.88,6.039,1.6,5.651-1.512A3.715,3.715,0,0,0,9579.242,1632.87Z" fill="#ff970f"/>
          </g>
          <g id="Group_3596" data-name="Group 3596">
            <path id="Path_10659" data-name="Path 10659" d="M9607.577,1605.573a3.056,3.056,0,0,0-3.646-.967,3.836,3.836,0,0,0-1.579,2.738,12.619,12.619,0,0,0,.036,4.989,4.779,4.779,0,0,0,1.96,3.284,3.613,3.613,0,0,0,4.609-1.392C9610.5,1611.811,9609.317,1607.644,9607.577,1605.573Z" fill="#ffc101"/>
            <path id="Path_10660" data-name="Path 10660" d="M9608.046,1607.743a3.053,3.053,0,0,0-3.645-.967,3.829,3.829,0,0,0-1.579,2.737,12.582,12.582,0,0,0,.036,4.989,4.77,4.77,0,0,0,1.96,3.284,3.611,3.611,0,0,0,4.608-1.391C9610.967,1613.981,9609.786,1609.814,9608.046,1607.743Z" fill="#ff4200"/>
            <path id="Path_10661" data-name="Path 10661" d="M9608,1606.713a3.056,3.056,0,0,0-3.646-.967,3.831,3.831,0,0,0-1.578,2.737,12.6,12.6,0,0,0,.036,4.989,4.772,4.772,0,0,0,1.959,3.284,3.613,3.613,0,0,0,4.609-1.391C9610.917,1612.951,9609.736,1608.784,9608,1606.713Z" fill="#ff970f"/>
          </g>
          <path id="Path_10662" data-name="Path 10662" d="M9579.959,1609.015a2.858,2.858,0,0,0-2.35,1.967,7.127,7.127,0,0,0-.206,3.21c.2,1.9.8,4.073,2.565,4.813a3.65,3.65,0,0,0,4.514-2.191C9585.492,1614.253,9583.2,1608.837,9579.959,1609.015Z" fill="#ff970f"/>
          <g id="Group_3597" data-name="Group 3597">
            <path id="Path_10663" data-name="Path 10663" d="M9599.894,1584.2c.487,2.555-.781,5.4-4.3,3.791a4.184,4.184,0,0,1-2.479-3.257,3.6,3.6,0,0,1,2.22-3.6C9597.873,1580.15,9599.49,1582.077,9599.894,1584.2Z" fill="#ffc101"/>
            <path id="Path_10664" data-name="Path 10664" d="M9600.363,1586.37c.486,2.556-.782,5.4-4.306,3.791a4.181,4.181,0,0,1-2.479-3.256,3.6,3.6,0,0,1,2.22-3.6C9598.342,1582.32,9599.959,1584.247,9600.363,1586.37Z" fill="#ff4200"/>
            <path id="Path_10665" data-name="Path 10665" d="M9600.314,1585.34c.485,2.556-.783,5.4-4.306,3.791a4.18,4.18,0,0,1-2.48-3.257,3.6,3.6,0,0,1,2.22-3.6C9598.292,1581.289,9599.909,1583.217,9600.314,1585.34Z" fill="#ff970f"/>
          </g>
          <path id="Path_10666" data-name="Path 10666" d="M9595.684,1629.8a2.844,2.844,0,0,0-2.229.281,2.061,2.061,0,0,0-1.259,1.807,1.871,1.871,0,0,0,1.653,1.657C9597.033,1633.964,9597.52,1630.5,9595.684,1629.8Z" fill="#ff970f"/>
          <g id="Group_3598" data-name="Group 3598">
            <path id="Path_10667" data-name="Path 10667" d="M9558.2,1603.511c-1.215.8-1.128,3.611-.063,4.737a2.156,2.156,0,0,0,2.612.6,1.935,1.935,0,0,0,.728-1.8c-.071-.774-.714-3.074-1.491-3.465A1.727,1.727,0,0,0,9558.2,1603.511Z" fill="#ffc101"/>
            <path id="Path_10668" data-name="Path 10668" d="M9558.669,1605.681c-1.215.795-1.128,3.611-.062,4.736a2.154,2.154,0,0,0,2.611.6,1.936,1.936,0,0,0,.729-1.8c-.072-.774-.714-3.075-1.492-3.465A1.725,1.725,0,0,0,9558.669,1605.681Z" fill="#ff4200"/>
            <path id="Path_10669" data-name="Path 10669" d="M9558.619,1604.65c-1.215.8-1.128,3.612-.063,4.737a2.156,2.156,0,0,0,2.612.6,1.937,1.937,0,0,0,.729-1.8c-.072-.774-.715-3.074-1.492-3.464A1.728,1.728,0,0,0,9558.619,1604.65Z" fill="#ff970f"/>
          </g>
          <g id="Group_3599" data-name="Group 3599">
            <path id="Path_10670" data-name="Path 10670" d="M9574.276,1582.616a2.928,2.928,0,0,0-3.827,2.122,3.189,3.189,0,0,0,6.127,1.766A3.07,3.07,0,0,0,9574.276,1582.616Z" fill="#ffc101"/>
            <path id="Path_10671" data-name="Path 10671" d="M9574.131,1584.831a2.929,2.929,0,0,0-3.828,2.122,3.189,3.189,0,0,0,6.128,1.766A3.07,3.07,0,0,0,9574.131,1584.831Z" fill="#ff4200"/>
            <path id="Path_10672" data-name="Path 10672" d="M9574.366,1583.826a2.93,2.93,0,0,0-3.828,2.123,3.189,3.189,0,0,0,6.128,1.765A3.071,3.071,0,0,0,9574.366,1583.826Z" fill="#ff970f"/>
          </g>
        </g>
        <g id="Group_3607" data-name="Group 3607">
          <path id="Path_10673" data-name="Path 10673" d="M9569.593,1535.955a2.859,2.859,0,0,0-3.038.4,7.123,7.123,0,0,0-1.9,2.6c-.851,1.711-1.51,3.867-.422,5.438a3.651,3.651,0,0,0,4.983.577C9571.445,1543.345,9572.422,1537.545,9569.593,1535.955Z" fill="#ffc101"/>
          <path id="Path_10674" data-name="Path 10674" d="M9572.381,1562.911a2.841,2.841,0,0,0-2.032-.962,2.06,2.06,0,0,0-2.031.848,1.87,1.87,0,0,0,.5,2.286C9571.284,1567.145,9573.555,1564.485,9572.381,1562.911Z" fill="#ffc101"/>
          <path id="Path_10675" data-name="Path 10675" d="M9568.823,1538.037a2.856,2.856,0,0,0-3.038.4,7.13,7.13,0,0,0-1.9,2.6c-.85,1.712-1.51,3.868-.422,5.439a3.652,3.652,0,0,0,4.984.577C9570.675,1545.427,9571.651,1539.627,9568.823,1538.037Z" fill="#ff4200"/>
          <path id="Path_10676" data-name="Path 10676" d="M9571.611,1564.993a2.845,2.845,0,0,0-2.032-.962,2.062,2.062,0,0,0-2.032.848,1.873,1.873,0,0,0,.5,2.286C9570.514,1569.226,9572.785,1566.567,9571.611,1564.993Z" fill="#ff4200"/>
          <g id="Group_3601" data-name="Group 3601">
            <path id="Path_10677" data-name="Path 10677" d="M9590.1,1510.431a2.883,2.883,0,0,0-.968,2.547,2.072,2.072,0,0,0,1.7,1.348,4.844,4.844,0,0,0,2.25-.3,6.549,6.549,0,0,0,3.94-2.864c.668-1.285.421-4.067-1.386-4.367C9593.96,1506.513,9591.1,1509.327,9590.1,1510.431Z" fill="#ffc101"/>
            <path id="Path_10678" data-name="Path 10678" d="M9589.331,1512.513a2.881,2.881,0,0,0-.967,2.546,2.072,2.072,0,0,0,1.7,1.349,4.844,4.844,0,0,0,2.25-.3,6.544,6.544,0,0,0,3.939-2.864c.668-1.285.421-4.068-1.385-4.367C9593.19,1508.595,9590.325,1511.409,9589.331,1512.513Z" fill="#ff4200"/>
            <path id="Path_10679" data-name="Path 10679" d="M9589.843,1511.618a2.882,2.882,0,0,0-.968,2.546,2.073,2.073,0,0,0,1.7,1.348,4.835,4.835,0,0,0,2.251-.3,6.541,6.541,0,0,0,3.938-2.864c.669-1.285.422-4.067-1.385-4.367C9593.7,1507.7,9590.837,1510.513,9589.843,1511.618Z" fill="#ff970f"/>
          </g>
          <g id="Group_3602" data-name="Group 3602">
            <path id="Path_10680" data-name="Path 10680" d="M9556.108,1561.917a9.99,9.99,0,0,0-.094-4.036,2.943,2.943,0,0,0-3.049-2.141,2.748,2.748,0,0,0-1.936,1.758,5.784,5.784,0,0,0-.246,2.693c.184,1.8,2.135,5.872,4.469,3.775A3.716,3.716,0,0,0,9556.108,1561.917Z" fill="#ffc101"/>
            <path id="Path_10681" data-name="Path 10681" d="M9554.595,1563.541a9.993,9.993,0,0,0-.093-4.036,2.943,2.943,0,0,0-3.049-2.141,2.751,2.751,0,0,0-1.937,1.758,5.771,5.771,0,0,0-.244,2.693c.184,1.8,2.135,5.872,4.469,3.775A3.709,3.709,0,0,0,9554.595,1563.541Z" fill="#ff4200"/>
            <path id="Path_10682" data-name="Path 10682" d="M9555.412,1562.911a10.012,10.012,0,0,0-.093-4.036,2.945,2.945,0,0,0-3.05-2.14,2.753,2.753,0,0,0-1.936,1.757,5.789,5.789,0,0,0-.246,2.694c.185,1.8,2.135,5.871,4.469,3.775A3.71,3.71,0,0,0,9555.412,1562.911Z" fill="#ff970f"/>
          </g>
          <g id="Group_3603" data-name="Group 3603">
            <path id="Path_10683" data-name="Path 10683" d="M9592.7,1554.551a3.056,3.056,0,0,0-2.556-2.774,3.833,3.833,0,0,0-2.8,1.46,12.6,12.6,0,0,0-2.648,4.228,4.766,4.766,0,0,0-.112,3.822,3.612,3.612,0,0,0,4.635,1.3C9591.809,1561.381,9593.052,1557.232,9592.7,1554.551Z" fill="#ffc101"/>
            <path id="Path_10684" data-name="Path 10684" d="M9591.927,1556.633a3.055,3.055,0,0,0-2.555-2.775,3.837,3.837,0,0,0-2.8,1.461,12.59,12.59,0,0,0-2.649,4.228,4.774,4.774,0,0,0-.112,3.822,3.614,3.614,0,0,0,4.636,1.3C9591.039,1563.463,9592.282,1559.314,9591.927,1556.633Z" fill="#ff4200"/>
            <path id="Path_10685" data-name="Path 10685" d="M9592.438,1555.737a3.057,3.057,0,0,0-2.556-2.774,3.831,3.831,0,0,0-2.8,1.46,12.623,12.623,0,0,0-2.65,4.228,4.77,4.77,0,0,0-.11,3.822,3.611,3.611,0,0,0,4.635,1.3C9591.55,1562.567,9592.793,1558.418,9592.438,1555.737Z" fill="#ff970f"/>
          </g>
          <path id="Path_10686" data-name="Path 10686" d="M9569.335,1537.141a2.86,2.86,0,0,0-3.039.4,7.109,7.109,0,0,0-1.9,2.6c-.852,1.712-1.512,3.867-.423,5.438a3.65,3.65,0,0,0,4.983.577C9571.186,1544.531,9572.163,1538.732,9569.335,1537.141Z" fill="#ff970f"/>
          <g id="Group_3604" data-name="Group 3604">
            <path id="Path_10687" data-name="Path 10687" d="M9597.7,1532.4c-.963,2.417-3.56,4.131-5.668.885a4.181,4.181,0,0,1-.343-4.08,3.6,3.6,0,0,1,3.809-1.845C9598.171,1527.9,9598.5,1530.389,9597.7,1532.4Z" fill="#ffc101"/>
            <path id="Path_10688" data-name="Path 10688" d="M9596.93,1534.479c-.963,2.417-3.559,4.131-5.668.885a4.185,4.185,0,0,1-.343-4.08,3.6,3.6,0,0,1,3.809-1.845C9597.4,1529.977,9597.729,1532.471,9596.93,1534.479Z" fill="#ff4200"/>
            <path id="Path_10689" data-name="Path 10689" d="M9597.441,1533.583c-.963,2.417-3.56,4.131-5.668.885a4.186,4.186,0,0,1-.343-4.08,3.6,3.6,0,0,1,3.809-1.845C9597.912,1529.081,9598.241,1531.575,9597.441,1533.583Z" fill="#ff970f"/>
          </g>
          <path id="Path_10690" data-name="Path 10690" d="M9572.123,1564.1a2.85,2.85,0,0,0-2.033-.962,2.064,2.064,0,0,0-2.032.848,1.873,1.873,0,0,0,.506,2.287C9571.025,1568.331,9573.3,1565.671,9572.123,1564.1Z" fill="#ff970f"/>
          <g id="Group_3605" data-name="Group 3605">
            <path id="Path_10691" data-name="Path 10691" d="M9607.1,1546.457c-1.451.019-2.891,2.44-2.6,3.961.184.955.909,1.929,1.881,1.91a1.936,1.936,0,0,0,1.58-1.125c.355-.692,1.049-2.977.6-3.724A1.728,1.728,0,0,0,9607.1,1546.457Z" fill="#ffc101"/>
            <path id="Path_10692" data-name="Path 10692" d="M9606.33,1548.539c-1.452.018-2.891,2.44-2.6,3.961.184.954.908,1.929,1.881,1.909a1.937,1.937,0,0,0,1.58-1.124c.354-.692,1.049-2.977.6-3.724A1.726,1.726,0,0,0,9606.33,1548.539Z" fill="#ff4200"/>
            <path id="Path_10693" data-name="Path 10693" d="M9606.842,1547.644c-1.453.018-2.892,2.439-2.6,3.96.184.955.91,1.929,1.881,1.91a1.938,1.938,0,0,0,1.58-1.125c.355-.691,1.049-2.977.6-3.724A1.721,1.721,0,0,0,9606.842,1547.644Z" fill="#ff970f"/>
          </g>
          <g id="Group_3606" data-name="Group 3606">
            <path id="Path_10694" data-name="Path 10694" d="M9576.944,1517.3a2.929,2.929,0,0,0-4.368-.266,3.189,3.189,0,0,0,4.219,4.781A3.07,3.07,0,0,0,9576.944,1517.3Z" fill="#ffc101"/>
            <path id="Path_10695" data-name="Path 10695" d="M9575.632,1519.087a2.93,2.93,0,0,0-4.369-.267,3.189,3.189,0,0,0,4.22,4.782A3.071,3.071,0,0,0,9575.632,1519.087Z" fill="#ff4200"/>
            <path id="Path_10696" data-name="Path 10696" d="M9576.37,1518.366a2.93,2.93,0,0,0-4.369-.266,3.189,3.189,0,0,0,4.219,4.781A3.069,3.069,0,0,0,9576.37,1518.366Z" fill="#ff970f"/>
          </g>
        </g>
        <g id="Group_3608" data-name="Group 3608" opacity="0.1" style="mix-blend-mode: multiply;isolation: isolate">
          <path id="Path_10697" data-name="Path 10697" d="M9651.743,1488.075s-42.387-25.085-81.948,18c23.538,14.446,73.175,5.3,78.029.221S9651.743,1488.075,9651.743,1488.075Z" fill="#a40900"/>
        </g>
        <g id="Group_3609" data-name="Group 3609">
          <path id="Path_10698" data-name="Path 10698" d="M9645.036,1505.728l5.529-32.129a38.181,38.181,0,0,1,1.492-5.761,49.3,49.3,0,0,0-6.717-4.735,70.586,70.586,0,0,1-20.559,3.263,56.377,56.377,0,0,1-9.535-.8c-20.844-3.587-38.137-19.7-46.259-43.109a3.245,3.245,0,0,1,2.164-4.18,84.278,84.278,0,0,1,22.593-2.855c9.749,0,28.035,1.508,40.968,11.606,9.4,7.345,14.18,17.654,14.2,30.646a52.921,52.921,0,0,1,5.783,3.969,56.7,56.7,0,0,1,26.727-24.817l.831-.369,4.063,9.125-.835.369c-12.762,5.659-23.071,17.725-25.07,29.342l-5.522,32.087Z" fill="#618a00"/>
          <path id="Path_10699" data-name="Path 10699" d="M9593.745,1416.333c14.048,0,29.675,3.033,40.407,11.413,9.314,7.273,13.959,17.521,13.847,30.459a52.72,52.72,0,0,1,7.006,4.843,55.287,55.287,0,0,1,26.784-25.39l3.321,7.461c-13.021,5.774-23.552,18.12-25.6,30.02l-5.368,31.193-8.055-1.351,5.375-31.227a37.6,37.6,0,0,1,1.663-6.215,50.59,50.59,0,0,0-7.687-5.419,69.574,69.574,0,0,1-20.655,3.336,55.222,55.222,0,0,1-9.382-.788c-23.638-4.067-38.856-23.212-45.553-42.509a2.337,2.337,0,0,1,1.558-3.008,83.584,83.584,0,0,1,22.339-2.818m0-1.821v0a85.185,85.185,0,0,0-22.844,2.89,4.156,4.156,0,0,0-2.773,5.352c8.233,23.725,25.789,40.065,46.964,43.709a57.289,57.289,0,0,0,9.691.813,71.235,71.235,0,0,0,20.45-3.189,48.218,48.218,0,0,1,5.762,4.063,38.509,38.509,0,0,0-1.327,5.295l-5.374,31.228-.31,1.8,1.8.3,8.055,1.351,1.788.3.307-1.787,5.368-31.194c1.951-11.334,12.043-23.121,24.543-28.663l1.667-.74-.74-1.665-3.321-7.462-.74-1.661-1.662.737a57.817,57.817,0,0,0-26.654,24.275,51.436,51.436,0,0,0-4.578-3.118c-.145-13.041-5.034-23.412-14.545-30.839-13.147-10.266-31.662-11.8-41.528-11.8Z"/>
        </g>
        <g id="Group_3610" data-name="Group 3610">
          <path id="Path_10700" data-name="Path 10700" d="M9633.731,1497.252a33.69,33.69,0,0,0,34.479,5.934c-9.614,9.418-28.554,6.139-34.479-5.934Z"/>
        </g>
        <ellipse id="Ellipse_465" data-name="Ellipse 465" cx="2.144" cy="4.305" rx="2.144" ry="4.305" transform="translate(9680.362 1438.145) rotate(-26.523)" fill="#615a00" stroke="#000" stroke-linecap="round" stroke-linejoin="round" stroke-width="1.093"/>
        <g id="Group_3611" data-name="Group 3611">
          <path id="Path_10701" data-name="Path 10701" d="M9680.334,1440.965c-16.568,9.979-23.2,27.074-27.482,45.042-1.48,5.932-2.759,11.98-4.567,17.924a172.868,172.868,0,0,1,1.782-18.488c2.546-18.228,11.444-38.408,30.268-44.478Z" fill="#78ad0a"/>
        </g>
        <g id="Group_3612" data-name="Group 3612">
          <path id="Path_10702" data-name="Path 10702" d="M9655.707,1466.79c-12.4-9-25.209-17.487-38.429-25.233-11.55-6.731-23.542-13.083-36.3-17.209l-5.57-1.441,5.6,1.354c20.184,6.353,38.537,17.4,56.393,28.535,6.48,4.134,12.884,8.371,19.171,12.817a.728.728,0,0,1-.857,1.177Z" fill="#78ad0a"/>
        </g>
        <path id="Path_10703" data-name="Path 10703" d="M9571.841,1420.782s37.879,7.627,74.229,38.406C9647.333,1436.668,9624.543,1409.6,9571.841,1420.782Z" fill="#78ad0a"/>
        <g id="Group_3613" data-name="Group 3613">
          <path id="Path_10704" data-name="Path 10704" d="M9576.458,1427.319c10.973,19.254,30.783,35.663,53.916,34.864a65.024,65.024,0,0,0,9.648-.853c-27.3,7.35-52.152-9.732-63.564-34.011Z" fill="#78ad0a"/>
        </g>
        <g id="Group_3614" data-name="Group 3614">
          <path id="Path_10705" data-name="Path 10705" d="M9731.889,1595.328c-.617,3.042-1.386,6.059-2.286,9.018a96.057,96.057,0,0,1-178.231,14.086c-1.06-2.171-2.05-4.389-2.959-6.677a96.024,96.024,0,0,1-5.647-20.564c-.4-2.484-.694-4.973-.885-7.444q-.148-1.926-.227-3.84a95.742,95.742,0,0,1,1.573-21.321c.189-.962.381-1.936.593-2.893a96.9,96.9,0,0,1,3.3-11.531l0-.012c.278-.792.565-1.572.866-2.349q1.516-3.965,3.386-7.775a97.136,97.136,0,0,1,8.377-14.007c1.573-2.191,3.239-4.308,5-6.372q1.488-1.733,3.074-3.413c.621-.651,1.241-1.3,1.884-1.937.646-.658,1.326-1.31,2-1.951.649-.611,1.3-1.209,1.967-1.8a78.576,78.576,0,0,0-18.877,37.19c-4.024,19.811-.231,40.553,13.871,57.588,42.011,50.783,137.8,35.767,156.438-20.548a82.473,82.473,0,0,0,3.938-32.374,95.486,95.486,0,0,1,3.929,42.524C9732.693,1591.074,9732.325,1593.213,9731.889,1595.328Z" fill="#ff7b0f" opacity="0.25" style="mix-blend-mode: multiply;isolation: isolate"/>
        </g>
        <g id="Group_3615" data-name="Group 3615" opacity="0.3" style="mix-blend-mode: screen;isolation: isolate">
          <path id="Path_10706" data-name="Path 10706" d="M9633.266,1439.083c-6.8-9.928-20.721-13.728-31.881-16.342-1.72-.356-3.448-.676-5.171-1.067,1.755.145,3.5.361,5.264.54,11.249,1.721,26.158,6.065,31.788,16.869Z" fill="#fff"/>
        </g>
        <g id="Group_3616" data-name="Group 3616" opacity="0.58" style="mix-blend-mode: screen;isolation: isolate">
          <path id="Path_10707" data-name="Path 10707" d="M9647.828,1628.121c-.4-1.578-1.7-2.76-2.909-2.629s-1.86,1.521-1.457,3.1,1.7,2.751,2.9,2.624S9648.224,1629.7,9647.828,1628.121Z" fill="#ffd101"/>
        </g>
      </g>
    </g>
  </g>
</svg>
