<svg xmlns="http://www.w3.org/2000/svg" width="251.064" height="41.757"><g id="Group_953" data-name="Group 953" transform="translate(-7205.665 -3761.763)"><g id="Group_952" data-name="Group 952"><path id="Path_2215" data-name="Path 2215" d="M7228.159 3801.5a39.824 39.824 0 01-11.5-1.314c-7.608-2.4-8.711-8.108-8.831-10.451-.089-1.707-.219-8.817-.1-13.653.109-4.231 2-7.389 5.474-9.149a11.235 11.235 0 013.66-1.933c3.133-1.022 7.384-1.221 13.667-1.221h.316c33.839.007 203.111.073 212.316.634 3.755.228 6.677 1.548 8.684 3.925 3.035 3.588 3.086 10.256 2.69 16.928-.048.8-.1 1.617-.133 2.45-.14 3.244-.9 7.82-5.793 10.329a11.2 11.2 0 01-2.963 1.695c-3.143 1.241-7.6 1.682-17.021 1.682-19.562 0-191.186 0-193.543-.011h-.234c-.852 0-1.815.02-2.834.039h-.178c-1.178.029-2.401.05-3.677.05z" fill="#e1e5eb"/><path id="Path_2216" data-name="Path 2216" d="M7230.849 3765.8c13.412 0 202.611.046 212.194.629a9.862 9.862 0 017.266 3.213c2.781 3.288 2.507 10.64 2.217 15.506-.048.806-.1 1.638-.134 2.482-.132 3.035-.816 6.733-4.885 8.716a9.166 9.166 0 01-2.6 1.52c-2.881 1.138-7.141 1.542-16.281 1.542-7.086 0-191.113 0-193.535-.011h-.241c-.874 0-1.86.019-2.9.04-1.218.023-2.476.048-3.792.048a38.062 38.062 0 01-10.892-1.219c-6.174-1.947-7.3-6.243-7.425-8.631-.085-1.645-.213-8.764-.092-13.5.092-3.571 1.627-6.091 4.565-7.5a9.152 9.152 0 013.178-1.718c2.877-.938 6.961-1.121 13.041-1.121h.315m0-4.036h-.316c-6.486 0-10.9.216-14.291 1.32a13.309 13.309 0 00-4.138 2.15 11.949 11.949 0 00-6.389 10.8c-.125 4.886.007 12.081.1 13.81.143 2.763 1.425 9.491 10.241 12.271a41.652 41.652 0 0012.106 1.407c1.346 0 2.617-.025 3.845-.049 1.042-.021 2-.04 2.85-.04h.234c2.459.011 191.632.011 193.542.011 9.83 0 14.313-.46 17.764-1.824a13.281 13.281 0 003.324-1.871c6.333-3.367 6.612-9.8 6.705-11.943.035-.81.083-1.608.129-2.382.425-7.124.333-14.254-3.162-18.387a13.9 13.9 0 00-10.1-4.634c-9.513-.58-191.7-.633-212.439-.638z" fill="#fff"/><path id="Path_2217" data-name="Path 2217" d="M7230.849 3765.8c13.412 0 202.611.046 212.194.629a9.862 9.862 0 017.266 3.213c2.781 3.288 2.507 10.64 2.217 15.506-.048.806-.1 1.638-.134 2.482-.132 3.035-.816 6.733-4.885 8.716a9.166 9.166 0 01-2.6 1.52c-2.881 1.138-7.141 1.542-16.281 1.542-7.086 0-191.113 0-193.535-.011h-.241c-.874 0-1.86.019-2.9.04-1.218.023-2.476.048-3.792.048a38.062 38.062 0 01-10.892-1.219c-6.174-1.947-7.3-6.243-7.425-8.631-.085-1.645-.213-8.764-.092-13.5.092-3.571 1.627-6.091 4.565-7.5a9.152 9.152 0 013.178-1.718c2.877-.938 6.961-1.121 13.041-1.121h.315m0-3.027h-.316c-6.385 0-10.719.208-13.979 1.271a12.239 12.239 0 00-3.9 2.04c-3.765 1.945-5.814 5.385-5.932 9.975-.125 4.862.006 12.015.095 13.732.131 2.553 1.324 8.771 9.537 11.361a40.758 40.758 0 0011.8 1.36c1.338 0 2.6-.025 3.831-.049a148.38 148.38 0 012.864-.04h.236c2.469.01 191.63.01 193.54.01 9.687 0 14.076-.442 17.393-1.753a12.251 12.251 0 003.144-1.784c5.9-3.089 6.161-9.127 6.248-11.136.036-.816.084-1.621.13-2.4.412-6.911.341-13.81-2.925-17.672-2.194-2.594-5.353-4.033-9.393-4.28-9.486-.577-191.638-.631-212.377-.635z"/></g></g></svg>