<svg xmlns="http://www.w3.org/2000/svg" xmlns:xlink="http://www.w3.org/1999/xlink" width="183.769" height="183.839"><defs><linearGradient id="linear-gradient" x1="207.698" y1="-36.664" x2="208.649" y2="-36.905" gradientUnits="objectBoundingBox"><stop offset="0" stop-color="#aaca23"/><stop offset="1" stop-color="#2e5600"/></linearGradient><linearGradient id="linear-gradient-3" x1="6048.032" y1="-754.249" x2="6049.156" y2="-754.249" xlink:href="#linear-gradient"/><linearGradient id="linear-gradient-4" x1="6511.914" y1="-767.803" x2="6512.92" y2="-767.803" xlink:href="#linear-gradient"/><linearGradient id="linear-gradient-5" x1="813.816" y1="-119.089" x2="815.031" y2="-119.089" xlink:href="#linear-gradient"/><linearGradient id="linear-gradient-6" x1="988.591" y1="-135.702" x2="989.855" y2="-135.702" xlink:href="#linear-gradient"/><linearGradient id="linear-gradient-7" x1="1116.748" y1="-153.316" x2="1118.012" y2="-153.316" xlink:href="#linear-gradient"/><linearGradient id="linear-gradient-8" x1="859.178" y1="-116.542" x2="860.357" y2="-116.019" xlink:href="#linear-gradient"/><linearGradient id="linear-gradient-9" x1="1059.657" y1="-132.603" x2="1060.55" y2="-132.188" xlink:href="#linear-gradient"/><linearGradient id="linear-gradient-10" x1="1216.981" y1="-152.245" x2="1217.874" y2="-151.83" xlink:href="#linear-gradient"/><linearGradient id="linear-gradient-11" x1="1338.516" y1="-150.034" x2="1338.081" y2="-149.837" gradientUnits="objectBoundingBox"><stop offset="0" stop-color="#aaca23"/><stop offset=".2" stop-color="#7f971a"/><stop offset=".48" stop-color="#49570f"/><stop offset=".716" stop-color="#212706"/><stop offset=".897" stop-color="#090a01"/><stop offset="1"/></linearGradient><linearGradient id="linear-gradient-12" x1="-939.981" y1="123.554" x2="-940.387" y2="123.757" xlink:href="#linear-gradient-11"/><linearGradient id="linear-gradient-13" x1="762.25" y1="-227.631" x2="762.481" y2="-228.626" xlink:href="#linear-gradient-11"/><clipPath id="clip-path"><path id="Path_5722" data-name="Path 5722" d="M111.32 39.411c1.386 2.5 3.27 3.357 3.623 3.178s.3-2.342-.853-4.549-3.112-3.721-3.519-3.365-.636 2.237.749 4.736z" fill="#fff"/></clipPath><clipPath id="clip-path-2"><path id="Path_5728" data-name="Path 5728" d="M93.51 38.415c-1.258 2.567-3.1 3.519-3.457 3.359s-.416-2.323.623-4.589 2.919-3.873 3.343-3.536.749 2.201-.509 4.766z" fill="#fff"/></clipPath></defs><g id="Component_3_4" data-name="Component 3 – 4" transform="translate(.5 .5)"><g id="Group_1945" data-name="Group 1945" transform="rotate(90 108.349 96.757)"><path id="Union_1" data-name="Union 1" d="M143.412 204.401l-.093-.028-.326-.1-.15-.049-.3-.1-.167-.06a18.417 18.417 0 01-.618-.235l-.1-.038-.191-.08-.059-.025-.222-.094-.22-.1-.253-.116-.211-.1-.306-.151-.149-.076a21.759 21.759 0 01-.364-.191l-.1-.052c-.151-.083-.3-.167-.458-.259l-.132-.077a8.583 8.583 0 01-.324-.2l-.153-.1a9.091 9.091 0 01-.308-.2l-.148-.1a14.034 14.034 0 01-.355-.241l-.092-.063c-.152-.106-.3-.214-.455-.326l-.03-.023c-.136-.1-.27-.2-.4-.3l-.118-.094a32.388 32.388 0 01-.319-.255l-.134-.11c-.105-.087-.209-.177-.339-.289l-.094-.08a19.823 19.823 0 01-.357-.318l-.064-.058q-.212-.194-.422-.4l-.08-.078c-.109-.107-.218-.214-.328-.325l-.128-.13c-.094-.1-.186-.192-.276-.287l-.134-.143c-.094-.1-.187-.2-.305-.334l-.091-.1a18.04 18.04 0 01-.385-.445 40.384 40.384 0 01-8.327-16.14 8.505 8.505 0 01-3.742 1.125h-.181c-.1 0-.2 0-.31-.008-.055 0-.126-.008-.185-.014a5.54 5.54 0 01-.507-.065 40.027 40.027 0 01-7.6 4.4c-1.311 4.831-3.355 9.26-7.538 9.8a5.826 5.826 0 01-.741.048c-4.347 0-6.929-4.419-8.949-9.665a42.952 42.952 0 01-10.2-5.27 5.76 5.76 0 01-2.408.521 6.7 6.7 0 01-2.628-.559 40.6 40.6 0 01-4.461 12c-.1.17-.194.338-.292.5l-.1.16a12.08 12.08 0 01-.208.337l-.116.183c-.067.105-.135.21-.224.344l-.1.143-.245.356-.08.115q-.162.228-.328.448l-.09.119-.248.324-.136.171-.213.263-.149.179-.233.272-.129.147-.268.3-.116.127q-.163.176-.328.346l-.178.18-.2.2-.2.192-.177.168-.211.2-.184.164-.212.186-.085.072q-.286.245-.577.475l-.075.06c-.1.075-.192.148-.31.238l-.083.062-.3.221-.084.059a9.313 9.313 0 01-.3.207l-.046.032a16.418 16.418 0 01-9.184 3 12.168 12.168 0 01-11.791-8.43c-3.681-10.247 3.871-17.026 9.386-21.976a41.912 41.912 0 005.4-5.415c.023-.034.049-.068.074-.1q.118-.158.224-.315a11.191 11.191 0 01-.7-1.087 59.256 59.256 0 01-3.871-8.528 5.27 5.27 0 01-.529-.092c-1.409-.292-3.576-1.34-4.541-4.927a44.619 44.619 0 01-1.236-8.327 5.615 5.615 0 01-2.58-2.318l-.04-.066a17.948 17.948 0 01-.129-.234c-.021-.042-.047-.088-.066-.125l-.085-.176-.079-.171a3.832 3.832 0 01-.067-.16l-.076-.186-.049-.132a8.701 8.701 0 01-.082-.23l-.027-.083a8.627 8.627 0 01-.077-.243l-.02-.072a9.832 9.832 0 01-.08-.288l-.005-.022h0l-.074-.3-.005-.026a12.004 12.004 0 01-.134-.661l-.005-.027q-.03-.172-.057-.347l-.005-.033a17.271 17.271 0 01-.047-.328l-.007-.054c-.014-.11-.029-.223-.042-.337l-.01-.094-.023-.226-.009-.079a70.225 70.225 0 01-.31-7.254 5.352 5.352 0 01-2.3-1.554c-1.794-2.055-1.679-4.862-1.375-7.094l.052-.369.012-.068c.042-.272.089-.557.145-.856a63.883 63.883 0 011.894-7.729 5.353 5.353 0 01-.529-.581 6.528 6.528 0 01-.9-5.839c.916-3.713 1.716-6.772 2.49-9.513a4.585 4.585 0 01.2-1.325c.49-1.6 1.036-3.27 1.673-5.1a4.637 4.637 0 01.339-.755l.165-.483a16.111 16.111 0 01-1.676-1.3l-.281-.248-.051.031a10.03 10.03 0 01-5.336 1.572 13.113 13.113 0 01-4.6-.963l-.286-.1a13.955 13.955 0 01-7.129 2.129 14.28 14.28 0 01-5.655-1.3l-.08-.032-.029.014-.1.047-.074.034c-.148.068-.3.133-.465.205-.116.049-.229.1-.376.155l-.138.055-.065.026-.164.062-.069.026-.3.107-.052.018-.054.018c-.164.057-.326.109-.528.172-.177.053-.351.1-.477.135l-.077.021-.12.031-.055.014c-.118.029-.235.056-.346.08l-.085.018a10.72 10.72 0 01-.366.072h-.02 0l-.044.006-.078.014-.078.012c-.156.024-.31.046-.478.065l-.069.008h-.022l-.1.009c-.132.014-.262.022-.367.029h-.142c-.112.005-.22.007-.281.007h-.346a9.018 9.018 0 01-.571-.034l-.1-.011a7.727 7.727 0 01-.384-.051l-.05-.008h-.016l-.116-.019a7.83 7.83 0 01-.252-.051c-.026 0-.069-.015-.094-.021l-.219-.053-.113-.031a6.915 6.915 0 01-.565-.184c-.035-.012-.077-.03-.117-.045a7.85 7.85 0 01-.326-.138l-.1-.047-.018-.009c-.047-.021-.1-.049-.143-.069l-.2-.1-.113-.064a4.775 4.775 0 01-.221-.132l-.072-.047a3.83 3.83 0 01-.134-.087c-.14-.1-.276-.2-.432-.321l-.012-.01-.058-.047-.005-.005-.058-.049a4.153 4.153 0 01-.221-.2l-.1-.094-.028-.027-.124-.124c-.043-.043-.086-.093-.126-.138l-.11-.124a7.551 7.551 0 01-.157-.19 2.489 2.489 0 01-.161-.205c-.076-.1-.148-.21-.211-.308-.033-.051-.066-.1-.1-.161s-.06-.1-.083-.142c-.038-.067-.077-.134-.105-.19s-.07-.135-.109-.216h0l-.04-.083-.039-.083c-.011-.025-.023-.05-.033-.076q-.04-.094-.078-.189a6.522 6.522 0 01-.157-.435c-.022-.07-.041-.13-.058-.193a7.619 7.619 0 01-.086-.318l-.029-.13-.008-.031-.03-.141a8.33 8.33 0 01-.042-.237c-.008-.047-.016-.094-.022-.143l-.01-.068-.028-.235-.014-.139c-.007-.067-.011-.133-.017-.213 0-.037 0-.082-.005-.123v-.029a7.603 7.603 0 01-.008-.4v-.126c0-.143.009-.288.015-.393v-.057c0-.031 0-.064.005-.094l.022-.234.008-.075c.009-.08.018-.161.028-.232l.006-.041.01-.068q.031-.219.075-.448l.016-.082c.048-.243.106-.491.165-.715l.017-.061c.027-.1.056-.2.094-.328a14.512 14.512 0 01.58-1.6 25.763 25.763 0 013.662-5.867C22.421 65.619 34.93 57.9 49.019 57.9a37.648 37.648 0 014.4.257 18.338 18.338 0 015.641 1.6l.052.025a12.755 12.755 0 01.614.306c.164.086.325.173.479.26l.113.063c.148.084.3.172.449.265l.12.073c.137.085.271.172.426.274l.121.079c.128.085.252.172.4.274l.125.089c.119.085.235.172.374.278l.128.1c.11.085.218.171.344.273l.135.11c.1.085.2.17.311.262l.144.125c.1.086.193.17.286.256l.151.14c.09.084.179.169.261.248l.155.151c.084.085.167.167.245.248l.147.152c.077.082.156.165.232.248l.139.152.069.076a39.491 39.491 0 013.217-2.455 4.6 4.6 0 01.512-.4 42.31 42.31 0 017.469-3.97 4.51 4.51 0 01.975-.278 52.262 52.262 0 017.564-2.2c-1.8-3.119-2.56-7.846.308-14.835a7.437 7.437 0 01.794-5.977 8.275 8.275 0 014.318-3.868 9.843 9.843 0 01.809-.6l.456-.66.4-.578c2.745-4.006 6.163-6.123 9.885-6.123 3.594 0 6.927 1.971 9.905 5.856a84.072 84.072 0 011.953 2.657l.233.161a7.573 7.573 0 014.554 3.952 8.506 8.506 0 011.121 5.226 12.093 12.093 0 01.189 2.091c2.03 6.075 1.146 10.271-.382 13.022a61.485 61.485 0 018.726 2.62 51.78 51.78 0 0110.268 5.31c.066-.1.133-.207.214-.328l.038-.058c.08-.119.161-.239.239-.349l.062-.088c.084-.121.172-.241.261-.362l.06-.08c.089-.121.181-.24.276-.363l.063-.081c.1-.12.194-.24.3-.365l.063-.076a18 18 0 01.315-.365l.068-.077c.107-.12.216-.24.333-.365l.067-.07c.115-.122.232-.241.355-.365l.068-.068c.123-.12.247-.24.376-.363l.069-.063c.13-.121.262-.24.394-.355l.072-.062q.208-.181.423-.356l.064-.051c.148-.121.3-.24.447-.351l.057-.041c.162-.121.326-.241.509-.369l.034-.022a18.24 18.24 0 015.949-2.693 38.492 38.492 0 019.42-1.151c10.822 0 22.073 4.345 29.363 11.339a27.779 27.779 0 013.776 4.374l.052.077c.152.227.294.45.425.665l.046.075c.056.093.111.185.171.29l.043.074c.054.094.105.188.157.283l.037.067c.129.239.247.473.355.7l.046.1.113.251.052.123c.034.081.067.161.1.25l.043.112c.035.093.069.184.1.275l.03.084c.042.121.08.239.115.351l.042.14c.023.08.046.159.067.238l.042.156.057.237.033.15.046.237.028.156c.02.126.038.25.053.38l.017.159.02.233c.006.072.009.137.011.19 0 .081.007.161.008.23v.208c0 .072 0 .155-.005.23s-.005.132-.01.2c-.008.13-.02.257-.034.39-.008.068-.019.135-.031.217a6.092 6.092 0 01-.085.46c-.017.073-.035.157-.058.243l-.059.218a12.285 12.285 0 01-.151.454 7.473 7.473 0 01-.387.848 8.442 8.442 0 01-.256.429c-.046.072-.094.14-.138.2s-.1.139-.157.213-.1.123-.151.19-.116.136-.185.212-.124.135-.192.2a7.126 7.126 0 01-.282.27c-.059.053-.119.1-.172.148s-.134.11-.211.169c-.059.046-.121.091-.185.136s-.135.1-.2.141-.128.084-.2.125-.14.083-.212.123-.128.072-.191.105a7.166 7.166 0 01-.998.427l-.218.072c-.065.02-.13.04-.2.058s-.15.042-.226.061-.123.031-.182.044c-.1.022-.2.044-.305.064l-.229.04a8.063 8.063 0 01-.253.037l-.182.022c-.072.008-.144.016-.22.021l-.188.015-.23.013-.166.007h-.565l-.2-.006-.19-.01h-.068l-.136-.01-.174-.013-.162-.015-.057-.006h-.016l-.162-.018-.21-.027-.09-.012-.092-.014-.355-.057-.027-.005-.139-.026-.259-.049-.079-.016-.08-.018-.231-.051-.151-.033-.069-.016-.172-.043.56-2.211-.031-.007-.59 2.2-.119-.031-.092-.024-.105-.028.6-2.2-.026-.008-.631 2.192-.141-.04-.106-.031-.1-.028-.093-.027-.113-.034-.131-.042.035-.112-.069.039-.018.058-.052-.017-.075.042a13.5 13.5 0 01-6.987 2.119 14.7 14.7 0 01-5.8-1.292c-.093.047-.185.1-.269.138a12.051 12.051 0 01-5.689 1.631 10.286 10.286 0 01-4.246-.95l-.052-.023-.245.28a15.558 15.558 0 01-2.329 2.186c.073.179.144.357.214.538a62.2 62.2 0 013.562 13.458 66.1 66.1 0 01.735 10.572v.315a7.694 7.694 0 01-2.017 5.726 40.289 40.289 0 01-1.114 11.569 5.931 5.931 0 01-2.315 3.507 54.055 54.055 0 01-2.759 16.235c-.026.08-.054.16-.082.24-.982 2.806-2.4 4.578-4.239 5.3-1.359 4.3-3.826 10.818-7.187 14.453-.393.425-.779.823-1.16 1.193a11.084 11.084 0 00.78.8l.072.068a41.767 41.767 0 006.333 4.331c6.343 3.832 15.029 9.079 13.328 19.833a12.451 12.451 0 01-12.717 10.736 16.709 16.709 0 01-4.673-.712zM22.849 84.918z" fill="#fff" stroke="rgba(0,0,0,0)" stroke-miterlimit="10" stroke-width="1"/><path id="Path_5645" data-name="Path 5645" d="M101.813 26.892c1.879 0 4.006 1.093 6.29 4.073q1.3 1.7 2.371 3.271c.1.054.2.111.3.174a7.019 7.019 0 011.442 1.115.545.545 0 01.045-.039.518.518 0 01.3-.091c.544 0 1.32.691 1.9 1.75.651 1.192.818 2.427.417 2.88a8.358 8.358 0 01.336 2.353q0 .329-.02.617c2.363 6.407.95 10.377-1.786 12.367.349.345.417.607.331.632.267.651-.29 1.282-.522 1.507a1.239 1.239 0 01.473.326c.154.187.127.354.064.354h-.01a1.124 1.124 0 01-.057.694 59.89 59.89 0 0112.79 3.3 45.358 45.358 0 0113.748 8.21 6.455 6.455 0 01.319-1.311 16.593 16.593 0 01.309-.779l.008-.018a18.1 18.1 0 01.116-.266l.011-.025a12.2 12.2 0 01.123-.269l.014-.032.13-.271.019-.04.138-.273.023-.045c.047-.091.1-.183.145-.275l.027-.05c.049-.091.1-.184.154-.277l.03-.053c.053-.093.107-.186.163-.279l.033-.057c.056-.093.114-.186.173-.28l.037-.059c.059-.093.12-.187.182-.28l.04-.062c.063-.093.127-.187.192-.28l.044-.063.2-.28.046-.063.214-.28.05-.063c.074-.093.149-.186.226-.279l.052-.061c.077-.093.157-.186.238-.278l.054-.06c.082-.093.166-.185.251-.276l.056-.058c.087-.092.175-.183.266-.274l.055-.055c.093-.091.186-.182.282-.272l.055-.05.3-.27.051-.044c.105-.09.211-.18.32-.268l.046-.037c.111-.09.225-.18.341-.267l.036-.027q.182-.136.369-.268l.02-.013a13.638 13.638 0 014.487-2.031 33.831 33.831 0 018.3-1.013c10.478 0 20.466 4.561 26.211 10.072a23.094 23.094 0 013.2 3.7c.115.171.222.339.323.506l.032.052.12.2.036.062.112.2.027.049c.088.163.168.324.242.481l.032.069.073.162.034.08.062.152.03.076c.024.061.046.121.067.181l.014.038a5.562 5.562 0 01.091.286l.038.13c.012.043.015.058.022.087l.028.119.019.085.024.123c0 .025.009.049.013.073.01.061.019.121.026.18 0 .025 0 .051.007.076s.008.072.01.108 0 .056 0 .083v.359c0 .049-.008.1-.013.144 0 .026-.008.052-.011.078s-.009.061-.015.091l-.015.074-.019.079-.02.073-.024.076a1.11 1.11 0 01-.058.153l-.044.1a1.186 1.186 0 01-.04.08l-.035.061-.04.064-.041.06-.044.06-.044.056-.054.062-.058.061c-.02.02-.055.055-.085.082l-.054.045c-.02.017-.04.034-.062.05l-.06.045-.066.045-.063.041c-.024.015-.05.029-.075.043s-.041.024-.063.035c-.044.023-.09.046-.136.067l-.068.028-.088.036-.078.027-.088.03-.082.024-.1.026-.081.02-.138.028-.11.019-.122.019-.092.011-.113.011-.1.008-.119.006h-.705l-.082-.006-.112-.009-.1-.01h-.042c-.038 0-.075-.007-.113-.012l-.145-.019-.058-.007-.06-.009a6.617 6.617 0 01-.259-.042h-.006l-.1-.018-.177-.034-.068-.014-.055-.012L185 78.1l-.12-.028-.043-.01-.153-.038-.11-.028-.071-.019-.1-.026-.133-.036-.085-.025-.054-.016-.094-.028-.087-.026-.123-.038-.147-.046-.07-.023-.121-.041-.191-.065-.086-.03-.063-.022c-.114-.04-.23-.082-.347-.126a1.583 1.583 0 00-.566-.1c-1.646 0-3.424 2.382-6.912 2.382a10.7 10.7 0 01-4.733-1.259 2.188 2.188 0 00-.987-.234c-1.743 0-3.465 1.971-6.036 1.971a5.681 5.681 0 01-2.369-.546 9.157 9.157 0 00-2.733-1.073c-.748 0-1.3.686-2.87 2.479a7.573 7.573 0 01-4.948 2.887 50.942 50.942 0 012.02 4.5 57.768 57.768 0 013.3 12.472 62.083 62.083 0 01.684 10.2c0 2.328-.783 2.825-1.451 2.825a1.964 1.964 0 01-.935-.278 33.476 33.476 0 01-.613 13.664c-.188.764-.587 1-1.016 1a3 3 0 01-1.557-.707 49.23 49.23 0 01-2.4 19.091c-.016.049-.032.1-.051.148-.712 2.054-1.4 2.64-1.958 2.64-.737 0-1.236-1.03-1.236-1.03s-2.926 11.864-7.287 16.582c-1.718 1.859-2.651 2.422-3.151 2.422-.578 0-.577-.752-.54-1.126l.006-.055a1.38 1.38 0 01.02-.147 7.213 7.213 0 01-.565 1.008c.324-.225.524-.338.524-.338q.009.132.024.264c0 .025.006.05.009.076l.022.184c0 .031.009.062.014.093l.025.162.018.1a7.996 7.996 0 00.05.257c.008.035.02.1.031.142l.026.109.033.135c.011.045.02.075.031.113l.035.125.035.119.037.115.041.124.035.1.049.135.029.075.061.158a11.54 11.54 0 002.97 4.069c6.658 6.174 20.071 9.186 18.332 20.18-.716 4.531-4.111 6.891-8.217 6.891a12.119 12.119 0 01-3.421-.514l-.082-.024q-.122-.036-.243-.075l-.112-.037-.231-.078-.124-.045q-.249-.09-.5-.189l-.046-.019c-.059-.023-.118-.049-.176-.073s-.124-.052-.186-.08l-.17-.076-.194-.089-.161-.077c-.072-.034-.143-.07-.214-.106l-.142-.071q-.147-.076-.294-.156l-.06-.032a17.826 17.826 0 01-.355-.2l-.1-.062c-.086-.05-.171-.1-.256-.154l-.12-.074-.246-.157-.114-.075a22.093 22.093 0 01-.274-.186l-.079-.054q-.18-.126-.359-.258l-.011-.008a19.942 19.942 0 01-.337-.256l-.093-.073a23.172 23.172 0 01-.257-.206l-.1-.086q-.126-.1-.252-.213a1.465 1.465 0 00-.1-.082c-.1-.088-.2-.178-.3-.269l-.038-.033q-.171-.157-.341-.321l-.066-.064q-.132-.129-.264-.261l-.1-.106c-.075-.077-.151-.155-.226-.235l-.109-.116-.228-.249-.1-.106q-.159-.179-.316-.363a34.091 34.091 0 01-7.961-17.363 10.374 10.374 0 011.048-5.205 50.784 50.784 0 01-3.861 3.237c-2.664 2.028-4.125 2.682-4.91 2.705h-.146c-.022 0-.043 0-.064-.006l-.035-.006-.059-.012-.029-.008a.618.618 0 01-.065-.021h-.014a.809.809 0 01-.072-.034l-.015-.009-.05-.032-.018-.013-.041-.034-.015-.014q-.022-.022-.042-.045l-.006-.007a.6.6 0 01-.042-.057l-.01-.015a.683.683 0 01-.026-.046l-.011-.021a.834.834 0 01-.019-.044l-.009-.022a1.123 1.123 0 01-.019-.053v-.015l-.017-.067-.005-.027-.009-.044v-.032l-.005-.041v-.372q0-.04.009-.081v-.019l.006-.041v-.023l.006-.039v-.022l.007-.037v-.016l.016-.075v-.009l.008-.032v-.017l.007-.027v-.016l.006-.024v-.013l.01-.035v-.058a34.938 34.938 0 01-11.769 7.212c-.852 3.731-2.3 8.38-4.263 8.633a1.123 1.123 0 01-.153.01c-1.973 0-4.07-4.868-5.418-8.711-10.571-3.4-14.625-8.489-14.625-8.489v.023c.008.268.04 2.762-1.518 2.762-.658 0-1.6-.445-2.948-1.691a45.131 45.131 0 01-3.658-3.849c.049.242.092.49.126.745a34.087 34.087 0 01-4.538 18.537q-.119.209-.241.413l-.079.131c-.056.093-.113.185-.17.276l-.093.146-.166.255-.1.142c-.061.091-.124.181-.186.27l-.077.111q-.13.185-.264.363l-.073.1-.2.261-.108.137-.171.211-.119.143-.169.2-.12.137c-.063.072-.127.142-.191.212l-.115.126c-.087.093-.174.185-.262.276l-.141.142-.154.154-.156.15-.142.134c-.048.044-.11.1-.166.153l-.128.115-.181.16-.067.056q-.222.19-.45.371l-.057.046-.224.172-.08.061c-.077.057-.153.113-.23.168l-.066.047c-.083.059-.166.118-.25.175a11.95 11.95 0 01-6.633 2.224 7.69 7.69 0 01-7.5-5.414c-3.762-10.475 8.85-15.941 14.238-23.251a11.045 11.045 0 002.267-5.239v-.024q.012-.1.021-.2v-.051c.006-.061.01-.122.014-.184v-.07c0-.056.005-.113.007-.169-.245.58-.574 1.033-1.007 1.033-.4 0-.894-.393-1.489-1.445a62.9 62.9 0 01-5.217-12.967c-.221.453-1.113 2.166-1.989 2.166a.685.685 0 01-.189-.027c-.407-.057-.8-.509-1.111-1.658-1.5-5.56-1.219-13.687-1.219-13.687s-1.241 2.426-2.322 2.426a.914.914 0 01-.773-.552v-.006a1.514 1.514 0 01-.049-.09l-.018-.033-.036-.076-.028-.06-.027-.064-.035-.087-.02-.054-.04-.111-.012-.038a3.455 3.455 0 01-.046-.143l-.006-.023a5.25 5.25 0 01-.049-.173v-.011a8.344 8.344 0 01-.05-.2c-.033-.146-.065-.3-.1-.47a12.841 12.841 0 01-.043-.26v-.01q-.021-.13-.039-.27v-.031a9.208 9.208 0 01-.033-.266l-.007-.067a13.76 13.76 0 01-.026-.241v-.011a68.95 68.95 0 01.053-13.172l-.015.017-.007.007-.013.014-.008.009-.017.019-.012.012-.021.023-.016.017-.023.024-.02.021-.025.027-.023.024-.028.029-.028.028-.028.03-.031.031-.032.032-.034.034-.032.032-.039.038-.032.032-.043.042-.033.031-.047.045-.033.031-.051.048-.032.03-.056.051-.031.028-.061.055-.029.026-.065.057-.028.024-.07.06-.025.022-.075.063-.022.018-.081.065-.018.015-.087.068-.013.011-.093.071-.009.006-.1.074a2.912 2.912 0 01-1.521.659c-.8 0-1.34-.876-.948-3.756v-.014c.015-.111.032-.224.05-.341v-.007c.036-.234.077-.479.124-.738 1.653-8.982 4.16-12.958 4.16-12.958a7.183 7.183 0 01-2.974 1.315c-.731 0-1.2-.525-.777-2.239.89-3.607 1.8-7.1 2.767-10.466l.127-.436-.27.3a135.966 135.966 0 011.618-4.935h.087a98.73 98.73 0 011.9-5.256 8.127 8.127 0 01-4.448-2.2c-1.668-1.468-2.333-2.1-3.017-2.1-.627 0-1.271.53-2.72 1.426a5.466 5.466 0 01-2.94.89c-2.083 0-3.764-1.236-5.259-1.236a2.215 2.215 0 00-1.27.379 9.839 9.839 0 01-5.489 1.922c-2.741 0-4.532-1.547-5.967-1.547a1.649 1.649 0 00-.786.19c-.112.06-.222.117-.332.173l-.087.044-.027.013-.07.035-.146.071-.093.045a9.284 9.284 0 01-.177.084l-.069.032-.071.032q-.174.08-.345.153l-.018.007c-.089.038-.176.075-.263.11l-.025.009-.111.044-.043.017-.12.046-.054.02-.208.075-.052.018-.033.012c-.117.04-.232.077-.344.112l-.031.009c-.121.037-.24.071-.356.1l-.022.006-.087.022-.029.007a7.19 7.19 0 01-.225.052l-.052.012c-.081.017-.16.032-.238.046l-.081.014-.04.006a6.395 6.395 0 01-.315.043h-.07a5.12 5.12 0 01-.211.016h-.376c-.089 0-.176-.007-.261-.014h-.035q-.09-.011-.177-.024l-.031-.005-.04-.006-.109-.022-.028-.006-.082-.02-.045-.013a1.956 1.956 0 01-.2-.065l-.029-.012a1.76 1.76 0 01-.126-.053l-.035-.016-.014-.007-.032-.015-.062-.033-.037-.021-.069-.042-.04-.025-.022-.014a1.63 1.63 0 01-.123-.091l-.008-.006-.031-.027c-.024-.021-.049-.042-.072-.064l-.036-.035-.016-.016-.023-.022-.028-.032-.038-.042a1.667 1.667 0 01-.053-.065L16.6 85.3l-.015-.02a.959.959 0 01-.065-.1l-.02-.04a.626.626 0 01-.025-.044l-.036-.062-.031-.064-.014-.028-.018-.04-.03-.073-.026-.069-.028-.08-.02-.066c-.011-.039-.022-.077-.031-.117 0-.019-.009-.039-.013-.058l-.006-.024-.006-.03-.019-.107-.007-.042v-.029c0-.032-.008-.064-.011-.1l-.006-.058c0-.03-.006-.059-.008-.089v-.318c0-.07 0-.142.01-.215v-.056c0-.04.008-.081.012-.122v-.041c0-.044.01-.087.016-.132v-.055c.012-.083.027-.168.043-.254l.009-.048c.03-.149.065-.3.107-.459v-.017l.056-.2v-.014a10.278 10.278 0 01.4-1.106 21.256 21.256 0 013.024-4.8c5.7-7.092 17.044-13.668 29.191-13.668a32.874 32.874 0 013.864.226 13.71 13.71 0 014.263 1.212l.017.008c.136.065.269.131.4.2l.058.029c.123.064.242.13.361.2.027.015.055.029.082.045.111.063.221.129.329.195l.1.058.3.195.106.069c.1.065.19.13.283.2l.111.078c.09.065.178.131.265.2l.114.086c.084.065.167.131.248.2l.116.094c.079.065.156.13.233.2l.116.1c.074.065.147.13.218.2l.116.107c.07.064.138.129.2.195l.115.112.193.194.112.116.181.192.11.12.17.19.107.124.16.187.1.126.149.184.1.129c.047.06.094.12.139.18l.1.13c.043.059.087.117.129.176l.1.132.12.169.091.135.111.162.089.136c.033.051.068.1.1.155s.058.091.087.137l.091.146.085.141.08.134.085.146.069.12.09.16c.017.032.036.064.053.1l.131.244c.069.131.134.274.2.423a35.549 35.549 0 016.978-6.061l-.005-.049a37.464 37.464 0 016.664-3.542l-.172.176.247-.1a47.016 47.016 0 018.023-2.383c.287-.061.579-.118.872-.173q1.784-.34 3.695-.585a.9.9 0 01-.062-.692c-.062 0-.105-.135-.03-.387a1.644 1.644 0 01.619-.786.806.806 0 01-.184-1.06c-.075-.036-.017-.212.231-.411-4.852-3.186-3.875-8.977-1.569-14.185a9.135 9.135 0 01.243-1.935c-.019-.006-.039-.009-.057-.016-.685-.258-.669-1.489.036-2.749a3.261 3.261 0 012.241-1.866.79.79 0 01.22.03 6.841 6.841 0 011.283-1.1 5.8 5.8 0 01.632-.4c.571-.843 1.057-1.531 1.387-2.012 1.419-2.07 3.538-4.142 6.127-4.142m0-1.822c-2.779 0-5.418 1.706-7.63 4.933l-.41.593c-.219.316-.472.679-.748 1.084q-.189.117-.377.251a7.755 7.755 0 00-1.045.822 5.293 5.293 0 00-3.271 2.742 4.71 4.71 0 00-.58 3.806 2.82 2.82 0 00.225.473 10.59 10.59 0 00-.086.9c-3.55 8.253-1.58 12.778 1.211 15.231a2.543 2.543 0 00.014.5 3.009 3.009 0 00-.249.566l-.015.051a59.664 59.664 0 00-3.101.556 49.575 49.575 0 00-7.811 2.273 1.822 1.822 0 00-.6.134 39.083 39.083 0 00-6.972 3.683 1.812 1.812 0 00-.306.257 37.385 37.385 0 00-5.285 4.336l-.009-.014-.1-.155-1.541.975 1.507-1.025-.084-.122-.116-.166-1.524 1 1.485-1.057-.081-.113-.136-.184-.115-.154-.154-.2-.112-.143-.165-.2-.118-.135-.177-.208-.123-.142-.19-.212-.121-.133-.2-.214-.126-.13-.214-.216-.13-.126-.227-.217-.131-.12a13.15 13.15 0 00-.245-.22l-.126-.109c-.09-.078-.177-.152-.266-.225l-.114-.093a7.88 7.88 0 00-.3-.234l-.1-.076c-.127-.1-.226-.17-.327-.243l-.1-.069c-.133-.094-.24-.168-.348-.241l-.088-.058a17.83 17.83 0 00-.376-.241l-.083-.05a17.48 17.48 0 00-.4-.237l-.073-.041c-.154-.086-.29-.161-.429-.233l-.06-.031c-.156-.08-.307-.156-.461-.229a15.609 15.609 0 00-4.846-1.382 34.707 34.707 0 00-4.079-.24c-13.185 0-24.875 7.207-30.612 14.349a23.053 23.053 0 00-3.279 5.229 12.327 12.327 0 00-.476 1.3l-.073.258c-.058.218-.1.41-.14.6l-.009.05a7.97 7.97 0 00-.058.343l1.8.318-1.806-.246-.021.177-.006.055-.016.167v.055a5.977 5.977 0 00-.015.325v.083c0 .093 0 .183.006.272v.081l.011.148.011.107.017.151.007.049.014.081c.007.044.016.1.027.155 0 .021.013.059.017.079l.025.109c.016.066.034.133.054.2l.034.114.048.138.049.129c.014.036.03.075.047.113l.025.057.049.1.054.108.06.107.053.092.055.088c.04.062.082.123.125.183l.031.042.061.078.088.107.077.087.057.062.07.07.075.073a4.29 4.29 0 00.205.178l.013.011c.076.061.155.119.237.175l.062.041.058.037.132.079.06.034.12.064.079.038.074.034c.069.032.144.064.221.093l.054.021c.109.041.225.078.345.111l.076.021.132.032.05.011.172.035.063.011.054.009c.09.014.181.026.273.035l.053.006c.124.012.251.018.382.022h.493a8.54 8.54 0 00.315-.022l.091-.009.05-.006c.085-.008.22-.027.359-.049l.054-.008.1-.017h.011c.094-.017.19-.036.288-.056l.049-.011c.1-.022.2-.044.289-.066l.055-.014.085-.021c.164-.044.305-.084.448-.127.167-.051.3-.1.436-.141l.085-.03.252-.091.062-.023.135-.051.047-.019.127-.05a16.053 16.053 0 00.724-.312l.057-.025.1-.046.195-.092.1-.049.16-.079.054-.027-.794-1.64.842 1.617.1-.05c.105-.053.209-.107.315-.163a6.392 6.392 0 011.326.452 11.744 11.744 0 004.618 1.093 11.646 11.646 0 006.5-2.227.4.4 0 01.26-.074 5.933 5.933 0 011.579.435 10.669 10.669 0 003.68.8 7.339 7.339 0 003.9-1.163c.335-.207.629-.4.889-.563.3-.19.622-.4.837-.518.335.235.941.769 1.53 1.289l.319.281a11.557 11.557 0 003.228 2.07c-.353.956-.7 1.947-1.043 2.966a1.713 1.713 0 00-.237.45c-.626 1.8-1.162 3.436-1.64 5a1.833 1.833 0 00-.056.823c-.805 2.825-1.636 5.985-2.594 9.872a4.158 4.158 0 00.4 3.5 2.594 2.594 0 001.714.968 56.694 56.694 0 00-2.543 9.522 27.96 27.96 0 00-.188 1.168c-.334 2.454-.11 3.969.726 4.926a2.651 2.651 0 002.025.913 3.275 3.275 0 001.009-.165 69.754 69.754 0 00.232 9.592l.029.275.008.076.037.295a14.88 14.88 0 00.099.648l.005.026a11.679 11.679 0 00.172.795 8.253 8.253 0 00.136.46l.016.05.054.15.033.089.047.117.047.112.044.1.062.129.042.079c.016.031.046.087.076.138l.016.027a2.716 2.716 0 002.331 1.43 2.576 2.576 0 00.522-.054 47.114 47.114 0 001.259 9.966c.469 1.745 1.306 2.742 2.489 2.967a2.49 2.49 0 00.571.067 2.64 2.64 0 001.214-.3 60.01 60.01 0 004.406 10.175 5.418 5.418 0 001.695 1.96 11.487 11.487 0 01-1.4 2.411 1.804 1.804 0 00-.05.071 43.312 43.312 0 01-5.793 5.86c-5.484 4.922-11.7 10.5-8.64 19.017a9.53 9.53 0 009.219 6.621 13.711 13.711 0 007.659-2.54c.1-.067.191-.132.284-.2l.072-.051.259-.189.067-.051c.106-.081.19-.144.273-.21l.048-.038c.184-.146.351-.284.517-.426l.074-.062.186-.165.157-.141.184-.169.156-.148.173-.167.171-.17.037-.037.119-.12c.1-.1.193-.2.289-.305l.094-.1.034-.037.209-.233.106-.121.212-.248.132-.158.187-.231.12-.151c.073-.094.147-.189.22-.286l.079-.1c.1-.131.194-.263.289-.4l.062-.088c.091-.131.159-.229.226-.329l.087-.13c.077-.117.138-.209.2-.3l.1-.161.185-.3.087-.143q.132-.221.261-.449a37.613 37.613 0 004.774-15.479q.256.246.51.48c1.6 1.484 2.935 2.175 4.185 2.175a2.962 2.962 0 002.172-.913 3.372 3.372 0 00.26-.3 38.972 38.972 0 0012.292 6.54c2.915 7.979 5.087 9.082 6.834 9.082a2.962 2.962 0 00.388-.025c2.379-.306 4.115-3.119 5.579-9.082a37.176 37.176 0 009.419-5.472c.038.025.079.05.122.075l.05.029a2.464 2.464 0 00.266.125l.076.029c.061.022.124.043.19.061l.085.023c.062.015.12.027.179.037l.1.016c.056.008.113.014.171.019.019 0 .074.006.092.006.053 0 .106.005.16.005h.141c.878-.027 2.369-.393 5.789-2.979 0 .174.009.348.019.523v.052a35.713 35.713 0 008.387 18.387l.343.4.073.081c.113.126.2.216.279.306l.12.127c.081.086.163.172.246.256l.113.115c.1.1.193.193.29.287l.071.069q.186.179.374.351l.037.034c.114.1.224.2.335.3l.074.063c.122.106.214.184.307.26l.116.1c.093.076.188.152.283.226l.1.08q.186.144.372.282c.143.106.276.2.408.294l.064.044c.124.086.226.154.327.222l.122.08.277.177.133.083.283.17.117.069c.131.076.262.151.394.223l.058.031c.119.064.228.123.338.179l.121.061.275.137.181.086.217.1.19.085.193.082.062.026.152.064.053.021c.185.074.372.145.559.213l.14.05.26.088.128.042c.09.029.182.058.274.085l.073.022a13.98 13.98 0 003.956.593 9.683 9.683 0 0010.017-8.429c1.414-8.938-5.734-13.256-12.041-17.066a43.172 43.172 0 01-6.8-4.687l-.049-.048a9.72 9.72 0 01-2.514-3.4 13.994 13.994 0 002.744-2.444c3.413-3.692 5.923-11.123 7.055-14.969h.13c2.339 0 3.349-2.909 3.68-3.865.012-.031.039-.109.064-.187a51.358 51.358 0 002.618-17.149 2.892 2.892 0 002.388-2.362 37.134 37.134 0 00.94-12.235c.975-.41 2.108-1.51 2.111-4.41v-.331a63.56 63.56 0 00-.705-10.147 59.555 59.555 0 00-3.4-12.867c-.351-.9-.727-1.782-1.124-2.653a10.86 10.86 0 003.727-2.87l.282-.323c.516-.59 1.046-1.2 1.347-1.473.229.091.578.256.9.406.28.132.6.281.955.444a7.568 7.568 0 003.12.707 9.416 9.416 0 004.44-1.329 5.023 5.023 0 011.6-.641.37.37 0 01.182.046 12.463 12.463 0 005.538 1.446 10.778 10.778 0 005.632-1.758 6.524 6.524 0 011.253-.62c.111.041.221.081.33.119l.067.024.065.023.241.082.131.043.079.026.128.041.6-1.723-.546 1.739.116.036.1.03.074.021.562-1.734-.513 1.749.582-1.729-.516 1.748.069.02.111.031.546-1.74-.483 1.757.084.023.079.021.093.023.513-1.75-.448 1.767.139.034.051.012.136.031.195.043.063.014.06.012.225.043.116.021c.11.02.212.036.312.051l.056.008.073.01.186.024.119.013h.068l.124.012.137.011.1.007h.067l.133.007h.686l.179-.01.133-.011.154-.015.13-.016.175-.026.158-.027c.068-.013.136-.027.2-.042l.111-.028.16-.042.128-.039.139-.045.126-.046c.05-.019.1-.039.147-.059l.113-.048c.08-.036.158-.074.234-.113l.1-.058c.053-.03.1-.056.142-.083l.115-.073a5.1 5.1 0 00.12-.083l.112-.082c.041-.033.081-.065.119-.1s.07-.059.1-.087a3.095 3.095 0 00.275-.275c.036-.04.074-.082.107-.122l.083-.1a3.19 3.19 0 00.172-.242l.079-.127c.026-.043.047-.081.068-.119s.052-.1.077-.149c.032-.066.059-.127.085-.188s.044-.1.064-.159l.042-.12c.018-.055.033-.1.047-.148l.036-.133.034-.143.026-.128c.011-.055.018-.1.026-.156l.018-.133c.01-.082.017-.161.022-.242l.006-.111v-.293l-.005-.149-.007-.128-.014-.157-.012-.112a5.917 5.917 0 00-.036-.258c0-.015-.013-.075-.016-.089l-.036-.187-.023-.1-.041-.172-.03-.115-.049-.173-.031-.1a5.473 5.473 0 00-.087-.266l-.02-.056a6.6 6.6 0 00-.081-.219l-.031-.078-.083-.2-.042-.1-.088-.2-.037-.091a12.236 12.236 0 00-.288-.571l-.025-.046a14.795 14.795 0 00-.137-.245l-.031-.054a13.48 13.48 0 00-.147-.25l-.038-.062q-.169-.278-.364-.569l-.03-.043a25 25 0 00-3.419-3.958c-6.7-6.426-17.482-10.578-27.472-10.578a35.711 35.711 0 00-8.75 1.068 15.52 15.52 0 00-5.081 2.3c-.165.115-.3.216-.441.319l-.044.032c-.129.1-.258.2-.384.3l-.054.043c-.122.1-.242.2-.36.3l-.058.05c-.116.1-.228.2-.339.306l-.06.055c-.11.1-.216.205-.32.308l-.062.061q-.153.155-.3.309l-.061.064c-.1.1-.191.208-.284.311l-.06.068c-.092.1-.181.208-.268.312l-.056.066c-.088.107-.172.211-.255.315l-.055.07c-.081.105-.161.208-.239.312l-.051.07c-.078.105-.153.209-.227.313l-.05.073c-.071.1-.143.205-.212.309l-.032.048a20.53 20.53 0 00-.215.331l-.03.048c-.076.122-.14.225-.2.328l-.026.043c-.072.122-.133.225-.191.327l-.033.06c-.059.1-.116.2-.171.306l-.028.054c-.055.1-.109.2-.161.3l-.025.05c-.052.1-.1.2-.151.3a27.92 27.92 0 00-.316.672l-.014.034a48.128 48.128 0 00-12.18-6.8 61.091 61.091 0 00-11.654-3.157v-.013a2.869 2.869 0 00.122-1.4v-.039c1.851-1.926 3.986-5.914 1.438-13.137v-.335a9.6 9.6 0 00-.239-2.178 5.6 5.6 0 00-.738-3.927 4.608 4.608 0 00-3.288-2.69 7.931 7.931 0 00-1.025-.714c-.682-.987-1.42-2-2.2-3.012-2.434-3.175-5.037-4.786-7.736-4.786z" fill="#231f20"/><path id="Path_5646" data-name="Path 5646" d="M109.337 178.76s-1.846 12.875-5.149 13.3-7.01-13.276-7.01-13.276z" fill="#aaca23"/><path id="Path_5647" data-name="Path 5647" d="M100.112 187.164a3.941 3.941 0 011.326-.657c.146-.041.3-.074.453-.105a5.3 5.3 0 011.109-.166 7.053 7.053 0 011.408.149 5.543 5.543 0 012.334 1.238c.13.144.259.289.385.431a55.221 55.221 0 002.21-9.294l-12.159.024a67.3 67.3 0 002.934 8.38z" fill="#729415" opacity=".4" style="mix-blend-mode:multiply;isolation:isolate"/><g id="Group_1908" data-name="Group 1908"><path id="Path_5648" data-name="Path 5648" d="M75.994 172.861a34.087 34.087 0 01-4.575 18.539c-5.49 9.71-16.571 11.066-19.533 2.819C47 180.627 69.524 174.58 68.2 162.875c0 0 6.891 3.171 7.794 9.986z" fill="#aaca23"/><g id="Group_1907" data-name="Group 1907" opacity=".6" style="mix-blend-mode:multiply;isolation:isolate" fill="#59771f"><path id="Path_5649" data-name="Path 5649" d="M62.495 178.471a1.133 1.133 0 001.015.484 1.675 1.675 0 001.371-.737 1.188 1.188 0 00.4-.631 1.8 1.8 0 00-.3-1.406 1.277 1.277 0 00-1.067-.589c-.562.007-.958.57-1.216 1.1a2.034 2.034 0 00-.203 1.779z"/><path id="Path_5650" data-name="Path 5650" d="M54.5 187.535a.1.1 0 00.007.034c.548 1.108 1.72.854 2.413-.1a1.757 1.757 0 00-.659-2.773c-1.245-.34-2.222 1.787-1.761 2.839z"/><path id="Path_5651" data-name="Path 5651" d="M58.085 184.233a.312.312 0 00.126.041.713.713 0 00.866-.171.818.818 0 00-.034-1.218.741.741 0 00-1.07.241.76.76 0 00.112 1.107z"/><path id="Path_5652" data-name="Path 5652" d="M59.639 180.486a.4.4 0 00.358.379.321.321 0 00.168.05.532.532 0 00.227-.115l.006-.007a1.114 1.114 0 00.317-.891.478.478 0 00-.72-.4 1.1 1.1 0 00-.356.984z"/><path id="Path_5653" data-name="Path 5653" d="M71.933 180.13a.277.277 0 00.143.1 1.031 1.031 0 001.6.1 1.8 1.8 0 00.081-2.32c-.984-1.158-2.398.959-1.824 2.12z"/><path id="Path_5654" data-name="Path 5654" d="M69.285 175.653c.095.015.209-.043.2-.091a.922.922 0 00.675-.525.811.811 0 00-.452-1.239c-.442-.079-.812.309-.985.764a.743.743 0 00.562 1.091z"/><path id="Path_5655" data-name="Path 5655" d="M68.246 177.582c-.632-.272-1.969 1.076-1.134 1.524 1.042.559 2.402-.977 1.134-1.524z"/></g><path id="Path_5656" data-name="Path 5656" d="M65.422 170.813c5.943.616 9.522 8 3.048 17.7-5.086 7.622-10.481 10.53-14.305 9.2 4.453 4 12.741 1.671 17.254-6.31a34.087 34.087 0 004.575-18.544c-.9-6.815-7.885-9.923-7.885-9.923.302 2.689-1.081 5.697-2.687 7.877z" fill="#729415" opacity=".4" style="mix-blend-mode:multiply;isolation:isolate"/></g><path id="Path_5657" data-name="Path 5657" d="M57.888 195.865c-2.25-4.074.821-13.6 6.291-18.126 2.823-2.336-6.956.086-10.859 8.287-4.876 10.25 6.697 13.692 4.568 9.839z" fill="#e3f441" opacity=".75" style="mix-blend-mode:screen;isolation:isolate"/><g id="Group_1911" data-name="Group 1911"><path id="Path_5658" data-name="Path 5658" d="M128.675 177.177a34.091 34.091 0 007.961 17.363c7.208 8.511 18.348 7.772 19.716-.882 2.257-14.271-21.017-15.092-21.9-26.838-.005 0-6.163 3.494-5.777 10.357z" fill="#aaca23"/><g id="Group_1910" data-name="Group 1910" opacity=".6" style="mix-blend-mode:multiply;isolation:isolate" fill="#59771f"><path id="Path_5659" data-name="Path 5659" d="M142.452 178.455c-.353-.471-.846-.951-1.4-.853a1.277 1.277 0 00-.938.78 1.8 1.8 0 00-.034 1.436 1.176 1.176 0 00.514.544 1.671 1.671 0 001.486.468 1.13 1.13 0 00.9-.664 2.033 2.033 0 00-.528-1.711z"/><path id="Path_5660" data-name="Path 5660" d="M150.274 185.115a1.756 1.756 0 00-.128 2.846c.859.809 2.057.84 2.388-.351a.066.066 0 000-.034c.256-1.12-1.101-3.028-2.26-2.461z"/><path id="Path_5661" data-name="Path 5661" d="M148.3 183.892a.742.742 0 00-1.1-.035.818.818 0 00.2 1.2.713.713 0 00.882.007.352.352 0 00.118-.064.763.763 0 00-.1-1.108z"/><path id="Path_5662" data-name="Path 5662" d="M145.632 180.712a.479.479 0 00-.635.526 1.122 1.122 0 00.476.815.014.014 0 00.008.007.568.568 0 00.245.07.3.3 0 00.156-.08.4.4 0 00.281-.44 1.1 1.1 0 00-.531-.898z"/><path id="Path_5663" data-name="Path 5663" d="M131.836 181.822a1.8 1.8 0 00.512 2.264 1.032 1.032 0 001.553-.4.288.288 0 00.124-.121c.347-1.254-1.439-3.065-2.189-1.743z"/><path id="Path_5664" data-name="Path 5664" d="M136.138 177.49a.987.987 0 00-1.109-.567.812.812 0 00-.215 1.3.932.932 0 00.764.39c0 .049.119.084.21.051a.742.742 0 00.35-1.174z"/><path id="Path_5665" data-name="Path 5665" d="M137.17 180.368c.57-.386 2.136.688 1.4 1.285-.921.747-2.543-.513-1.4-1.285z"/></g><path id="Path_5666" data-name="Path 5666" d="M138.022 173.478c-5.723 1.715-7.2 9.349.971 17.672 6.422 6.539 12.266 8.386 15.773 6.362-3.626 4.766-12.205 4.025-18.13-2.972a34.091 34.091 0 01-7.961-17.363c-.386-6.863 5.772-10.357 5.772-10.357a10 10 0 003.575 6.658z" fill="#729415" opacity=".4" style="mix-blend-mode:multiply;isolation:isolate"/></g><path id="Path_5667" data-name="Path 5667" d="M152.028 194.581c.123-4.651-6.987-11.7-13.926-13.2-3.582-.775 6.215-3.124 13.454 2.361 9.044 6.858.355 15.24.472 10.839z" fill="#e3f441" opacity=".7" style="mix-blend-mode:screen;isolation:isolate"/><g id="Group_1913" data-name="Group 1913"><path id="Path_5668" data-name="Path 5668" d="M140.542 69.071c1.02-2.735 3.7-7.985 10.132-9.611 13.232-3.347 27.257 2.1 34.514 9.059s5.8 11.983-2.381 8.914c-2.438-.914-4.769 4.687-12.211 1.021-2.611-1.286-4.828 3.254-9.392 1.191-3.248-1.468-2.794-1.8-5.6 1.406s-6.372 4.261-10.906.581-5.175-9.827-4.156-12.561z" fill="#aaca23"/><path id="Path_5669" data-name="Path 5669" d="M144.7 81.632c4.534 3.68 8.1 2.626 10.906-.581s2.355-2.874 5.6-1.406c4.564 2.063 6.781-2.477 9.392-1.191 7.442 3.666 9.773-1.935 12.211-1.021 6.636 2.488 8.846-.342 5.578-5.213.29 1.079.186 2.022-.7 2.521-2.54 1.43-3.375-2.69-10.134-2.271s-8.437-4.951-13.648-1.716-6.553-1.047-10.019-.09c-6.466 1.784-8.467-5.947-3.85-11.025-5.967 1.8-8.5 6.791-9.49 9.432-1.023 2.734-.381 8.877 4.154 12.561z" fill="#729415" opacity=".4" style="mix-blend-mode:multiply;isolation:isolate"/><path id="Path_5670" data-name="Path 5670" d="M148.79 65.376s16.584-8.894 36.023 3.714c-5.788-6.832-30.722-16.304-36.023-3.714z" fill="#e3f441" style="mix-blend-mode:screen;isolation:isolate"/></g><g id="Group_1914" data-name="Group 1914" opacity=".6" style="mix-blend-mode:multiply;isolation:isolate" fill="#59771f"><path id="Path_5671" data-name="Path 5671" d="M157.978 61.264c-.915-.591-2.055.1-2.73.76s-1.108 1.444.029 1.889a1.889 1.889 0 001.542.035 3.315 3.315 0 001.746-.788c.569-.668.029-1.498-.587-1.896z"/><path id="Path_5672" data-name="Path 5672" d="M166.165 65.976c.585-.59.086-1.937-.5-2.327-1.193-.753-5.409.817-3.549 2.16a3.125 3.125 0 002.215.44c.584-.011 1.352.201 1.834-.273z"/><path id="Path_5673" data-name="Path 5673" d="M171.358 64.369c-.129-.668.181-1.13.734-1.19a3.713 3.713 0 011.973.928c.309.244.576.51.332.875a2.59 2.59 0 01-1.112.7 3.41 3.41 0 01-1.212-.465 1.11 1.11 0 01-.715-.848z"/><path id="Path_5674" data-name="Path 5674" d="M166.194 60.5c-.345-.827-2.37.047-2.322.689.056.748 3.006.956 2.322-.689z"/><path id="Path_5675" data-name="Path 5675" d="M159.759 60.436a1.172 1.172 0 00-.723.14.447.447 0 00-.094.776c1.298 1.348 2.109-.723.817-.916z"/><path id="Path_5676" data-name="Path 5676" d="M152.959 62.963a1.092 1.092 0 00-1.48.448c-.209.511.152 1.262.79 1.022.431-.162 1.48-1.107.69-1.47z"/></g><path id="Path_5677" data-name="Path 5677" d="M144.7 81.632c4.534 3.68 8.1 2.626 10.906-.581s2.355-2.874 5.6-1.406c4.564 2.063 6.781-2.477 9.392-1.191 7.442 3.666 9.773-1.935 12.211-1.021 4.713 1.768 7.188.849 7.06-1.574-1.615 3.291-4.552-1.782-8.394.232-7.059 3.706-8.564-2.937-12.979-.669-8.038 4.13-7.722-3.466-15.58 2.412-6.115 4.571-11.868-.142-12.782-6.335a12.877 12.877 0 004.566 10.133z" fill="#63890e" opacity=".4" style="mix-blend-mode:multiply;isolation:isolate"/><g id="Group_1943" data-name="Group 1943"><g id="Group_1916" data-name="Group 1916"><path id="Path_5678" data-name="Path 5678" d="M64.2 70.9c-1.365-2.581-4.7-7.44-11.288-8.222-13.554-1.608-26.758 5.6-33.055 13.442s-4.206 12.632 3.511 8.532c2.3-1.221 5.336 4.031 12.242-.565 2.422-1.613 5.208 2.6 9.468-.033 3.03-1.873 2.539-2.144 5.738.671s6.87 3.4 10.888-.834S65.561 73.481 64.2 70.9z" fill="#aaca23"/><path id="Path_5679" data-name="Path 5679" d="M61.7 83.892c-4.018 4.237-7.691 3.652-10.888.834s-2.708-2.544-5.738-.671c-4.26 2.635-7.046-1.58-9.468.033-6.906 4.6-9.942-.656-12.242.565-6.257 3.325-8.815.8-6.2-4.449-.149 1.109.076 2.028 1.021 2.409 2.7 1.091 3-3.1 9.756-3.56s7.726-6 13.311-3.465 6.362-1.888 9.924-1.388c6.64.932 7.626-6.991 2.393-11.429 6.149 1.014 9.31 5.633 10.628 8.126 1.364 2.584 1.523 8.759-2.497 12.995z" fill="#729415" opacity=".4" style="mix-blend-mode:multiply;isolation:isolate"/><path id="Path_5680" data-name="Path 5680" d="M55.54 68.3s-17.593-6.674-35.24 8.337C25.157 69.115 48.659 56.5 55.54 68.3z" fill="#e3f441" style="mix-blend-mode:screen;isolation:isolate"/></g><g id="Group_1917" data-name="Group 1917" opacity=".6" style="mix-blend-mode:multiply;isolation:isolate" fill="#59771f"><path id="Path_5681" data-name="Path 5681" d="M57.162 66.685c-.526-.361-1.443-.015-1.9.312a1.174 1.174 0 00-.316 1.87 1.411 1.411 0 002.219-.035c.448-.468.618-1.721-.003-2.147z"/><path id="Path_5682" data-name="Path 5682" d="M47.6 66.968a1.6 1.6 0 001.225.244 10.96 10.96 0 001.417-.068c.546-.123 1.639-.569 1.722-1.2a1.8 1.8 0 00-.627-1.428c-.819-.446-2.593.389-3.363.738-.715.31-1.15 1.082-.374 1.714z"/><path id="Path_5683" data-name="Path 5683" d="M43.44 65.69a1.164 1.164 0 00-.47 1c.071.5.677.68 1.138.637 1.484-.141.272-1.992-.668-1.637z"/><path id="Path_5684" data-name="Path 5684" d="M39.486 67.9a1.4 1.4 0 00-.328-1.843c-.675-.387-1.74.072-2.365.365-.478.224-1.825 1.333-1.71 1.885a1.465 1.465 0 001.959.9c.809-.299 1.941-.531 2.444-1.307z"/><path id="Path_5685" data-name="Path 5685" d="M38.389 69.658c-.633-.271-1.97 1.076-1.134 1.524 1.045.56 2.401-.982 1.134-1.524z"/><path id="Path_5686" data-name="Path 5686" d="M32.189 70.9c-.049-.6-.532-.621-.948-.528a2.3 2.3 0 00-1.431.976c-.184.273-.885 1.159-.474 1.447.678.475 2.913-1.139 2.853-1.895z"/><path id="Path_5687" data-name="Path 5687" d="M27.118 74.593a.912.912 0 00-.564 1.25c.162.339 1.078 1.011 1.461.929.492-.106.944-1.15.912-1.608-.061-.878-1.227-.807-1.809-.571z"/></g><path id="Path_5688" data-name="Path 5688" d="M52.75 79.612c-5.643-4.027-6.458 5.975-14.364 2.476s-8.481 2.106-13.187.55-8.794 3.955-8.875-.238c-.911 3.689 1.735 5.072 7.041 2.253 2.3-1.221 5.336 4.031 12.242-.565 2.422-1.613 5.208 2.6 9.468-.033 3.03-1.873 2.539-2.144 5.738.671s6.87 3.4 10.888-.834a11.619 11.619 0 001.186-1.476c-2.928 1.048-6.745-.383-10.137-2.804z" fill="#63890e" opacity=".4" style="mix-blend-mode:multiply;isolation:isolate"/></g><g id="Group_1942" data-name="Group 1942"><g id="Group_1941" data-name="Group 1941"><path id="Path_5689" data-name="Path 5689" d="M113.289 55.446c4.254-2.967 5.478-10.575-5.186-24.481-5.43-7.084-9.969-3.5-12.417.069S82.23 49.478 91.359 55.327a.894.894 0 00-.071 1.476s-1.37 1.457-.263 2.121c0 0 9.692 5.687 22.308.576 0 0 1.125-1.386-.213-1.913 0 0 1.43-1.175.169-2.141z" fill="url(#linear-gradient)"/><g id="Group_1919" data-name="Group 1919"><path id="Path_5690" data-name="Path 5690" d="M109.6 56.13c-.061.12-.5-.024-1.466-.323a24.285 24.285 0 00-4.658-1.006 20.551 20.551 0 00-4.99.06l-1.046.181c-.32.051-.59.142-.825.194l-.741.185.72-.257c.227-.074.494-.191.808-.271l1.04-.272a17.276 17.276 0 015.087-.367 16.771 16.771 0 014.777 1.07c.962.39 1.348.693 1.294.806z" fill="#3c5108"/></g><g id="Group_1920" data-name="Group 1920"><path id="Path_5691" data-name="Path 5691" d="M95.05 53.718c-.054-.116.3-.383 1.186-.713a15.842 15.842 0 014.345-.867 16.839 16.839 0 014.6.364l.942.24c.285.071.529.172.734.236l.654.224s-.252-.058-.675-.151c-.21-.043-.458-.118-.748-.16l-.949-.148a20.889 20.889 0 00-4.516-.058 24.824 24.824 0 00-4.231.807c-.881.24-1.285.348-1.342.226z" fill="#3c5108"/></g><g id="Group_1921" data-name="Group 1921"><path id="Path_5692" data-name="Path 5692" d="M111.676 45.974c-.054.115-.442.034-1.131-.419a8.091 8.091 0 01-2.579-2.866 12.729 12.729 0 01-.41-.914 9.426 9.426 0 01-.287-1.006 8.209 8.209 0 01-.162-1.988l.073-.84c.022-.255.1-.47.131-.653l.126-.582-.053.593c-.013.185-.044.4-.052.656s.013.528.02.824a8.806 8.806 0 00.333 1.883c.08.322.232.621.337.925.139.292.283.573.424.835a10.232 10.232 0 002.4 2.722c.605.496.89.711.83.83z" fill="#3c5108"/></g><g id="Group_1922" data-name="Group 1922"><path id="Path_5693" data-name="Path 5693" d="M97.273 39.289c.126.008.2.305.095.919a5.551 5.551 0 01-1.307 2.62 7.812 7.812 0 01-.556.525 5.6 5.6 0 01-.66.445 5.4 5.4 0 01-1.4.55c-.225.046-.435.086-.625.123-.189.021-.36.024-.5.035l-.447.024.436-.1c.135-.033.3-.063.481-.111l.581-.207a5.6 5.6 0 002.277-1.646 7.279 7.279 0 001.227-2.385c.177-.547.266-.801.398-.792z" fill="#3c5108"/></g><g id="Group_1923" data-name="Group 1923" opacity=".6" style="mix-blend-mode:multiply;isolation:isolate" fill="#59771f"><path id="Path_5694" data-name="Path 5694" d="M101.294 42.826c.528-.947.264-4.243-.66-4.862-1.76-1.329-3.145 3.979-2.105 5.061a2.02 2.02 0 002.765-.199z"/><path id="Path_5695" data-name="Path 5695" d="M104.967 37.859c-.719-.807-1.622-.39-2.015.446a4.509 4.509 0 00-.245 2.609 1.935 1.935 0 001.173 1.686c.556.187 1.517.7 2.092.343.613-.38.279-1.829.194-2.4a5.241 5.241 0 00-1.199-2.684z"/><path id="Path_5696" data-name="Path 5696" d="M98.927 44.885c-.97-.239-2.61.353-2.692 1.5-.093 1.288 1.854 1.445 2.724.865.853-.567 1.332-2.029-.032-2.365z"/><path id="Path_5697" data-name="Path 5697" d="M104.607 46.8c-.6-.857-2.416.06-2.252.981.22 1.242 3.16.319 2.252-.981z"/><path id="Path_5698" data-name="Path 5698" d="M94.163 47.529c.088-1.154-1.894-1.448-2.608-1.33-.915.15-2.211.326-2.615 1.332-.319.8.337 2.429 1.285 2.443.809.012 3.875-1.631 3.938-2.445z"/><path id="Path_5699" data-name="Path 5699" d="M112.383 51.239a2.92 2.92 0 001.9-2.369 6.115 6.115 0 00-2.452-2.562c-2.982-.176-1.537 4.931.552 4.931z"/><path id="Path_5700" data-name="Path 5700" d="M108.634 49.534a2.112 2.112 0 00-2.4-1.752c-1.614.357-1.435 1.831-.56 2.879.433.518.916.97 1.572.817a2.164 2.164 0 001.388-1.944z"/><path id="Path_5701" data-name="Path 5701" d="M103.577 50.34c-.081 2.295-5.765.91-3.533-1.287.929-.917 3.585-.144 3.533 1.287z"/><path id="Path_5702" data-name="Path 5702" d="M96.174 49.3c-1.168-.739-2.622.172-3.282 1.128-.69 1-.506 1.425.445 2.112 1.114.8 1.657.562 2.613-.319.93-.86 1.659-2.093.224-2.921z"/><path id="Path_5703" data-name="Path 5703" d="M89.8 51.273c-.614-.036-1.053.3-.6 1.274.3.641 1.634 1.075 2.136.409.676-.892-.807-1.643-1.536-1.683z"/><path id="Path_5704" data-name="Path 5704" d="M112.1 53.593a.806.806 0 00.952.337.2.2 0 00.116.01c.657-.268 2.228-1.1 1.38-2a1.488 1.488 0 00-2.062-.1 1.538 1.538 0 00-.386 1.753z"/></g><path id="Path_5705" data-name="Path 5705" d="M91.04 55.679c-.124-.057.1-.487.93-.782a2.593 2.593 0 01.472-.137 2.912 2.912 0 01.476-.084l.508-.054-.48.172c-.138.042-.287.107-.438.17s-.3.119-.432.186c-.759.34-.923.602-1.036.529z" fill="#3c5108"/><path id="Path_5706" data-name="Path 5706" d="M90.636 57.913c-.063 0-.108-.134-.032-.388a1.727 1.727 0 01.794-.9 3.014 3.014 0 011.164-.367 3.377 3.377 0 01.454-.038l.18-.008-.175.045a4.434 4.434 0 00-.432.119 3.948 3.948 0 00-1.046.481 2.071 2.071 0 00-.7.767c-.102.196-.143.291-.207.289z" fill="#3c5108"/><g id="Group_1924" data-name="Group 1924" opacity=".5" style="mix-blend-mode:multiply;isolation:isolate"><path id="Path_5707" data-name="Path 5707" d="M91.359 55.327a.894.894 0 00-.071 1.476s-1.37 1.457-.263 2.121c0 0 9.692 5.687 22.308.576 0 0 1.125-1.386-.213-1.913 0 0 1.43-1.175.169-2.141 4.254-2.967 5.478-10.575-5.186-24.481-5.43-7.084-9.969-3.5-12.417.069S82.23 49.478 91.359 55.327zm16.387-.321c-4.742-1.058-8.04-1.626-11.172-.212s-2.444-2.056 5.279-1.929 10.164 3.093 5.893 2.141zM92.92 45.815c3.942-2.347 4.775-4.269 4.662-6.448-.047-.913-.375-.7-.724-.181-.483.72.784-1.991-.017-4.5s1.521-7.22 5.471-7.03 6.157 4.864 5.254 8.524c-.129.523-.365-.644-.543.878-.27 2.317-.271 6.346 2.746 8.116s5.021 1.854 5.578 5.145c.494 2.923-2.179 4.117-4.241 3.259a22.736 22.736 0 00-17.272-.613c-4.911 1.786-7.358-3.312-.914-7.15z" fill="url(#linear-gradient)"/></g><path id="Path_5708" data-name="Path 5708" d="M103.312 29.944c.624-.233-.109-1.285-.3-1.169s-.325 1.403.3 1.169z" fill="#3e5110"/><path id="Path_5709" data-name="Path 5709" d="M103.351 30.165c.869-.324-.152-1.788-.417-1.625s-.451 1.949.417 1.625z" opacity=".5" fill="url(#linear-gradient-3)" style="mix-blend-mode:multiply;isolation:isolate"/><path id="Path_5710" data-name="Path 5710" d="M101.428 30.008c.636.124.364-1.232.152-1.229s-.787 1.105-.152 1.229z" fill="#3e5110"/><path id="Path_5711" data-name="Path 5711" d="M101.406 30.212c.848.166.484-1.641.2-1.637s-1.046 1.472-.2 1.637z" opacity=".5" fill="url(#linear-gradient-4)" style="mix-blend-mode:multiply;isolation:isolate"/><path id="Path_5712" data-name="Path 5712" d="M109.118 40.576c1.882 3.329 4.93 4.2 5.565 3.879s.961-3.429-.579-6.386-4.59-4.758-5.351-4.165-1.517 3.341.365 6.672z" fill="url(#linear-gradient-5)"/><path id="Path_5713" data-name="Path 5713" d="M110.379 39.909c1.64 2.936 4.046 3.848 4.521 3.608s.553-2.863-.8-5.463-3.815-4.3-4.372-3.838-.991 2.757.651 5.693z" fill="url(#linear-gradient-6)"/><path id="Path_5714" data-name="Path 5714" d="M110.8 39.685c1.452 2.6 3.583 3.407 4 3.193s.49-2.534-.709-4.835-3.379-3.806-3.871-3.4-.874 2.443.58 5.042z" opacity=".5" fill="url(#linear-gradient-7)" style="mix-blend-mode:multiply;isolation:isolate"/><path id="Path_5715" data-name="Path 5715" d="M95.693 39.49c-1.681 3.438-4.67 4.491-5.324 4.2s-1.164-3.366.2-6.41 4.3-5.022 5.1-4.476 1.705 3.252.024 6.686z" fill="url(#linear-gradient-8)"/><path id="Path_5716" data-name="Path 5716" d="M94.395 38.9c-1.463 3.028-3.809 4.084-4.3 3.87s-.724-2.824.476-5.5 3.551-4.519 4.134-4.091 1.153 2.695-.31 5.721z" fill="url(#linear-gradient-9)"/><path id="Path_5717" data-name="Path 5717" d="M93.916 38.648c-1.273 2.637-3.318 3.555-3.741 3.37s-.63-2.46.413-4.79 3.094-3.936 3.6-3.563 1.003 2.346-.272 4.983z" opacity=".5" fill="url(#linear-gradient-10)" style="mix-blend-mode:multiply;isolation:isolate"/><g id="Group_1930" data-name="Group 1930"><g id="Group_1928" data-name="Group 1928"><path id="Path_5718" data-name="Path 5718" d="M111.32 39.411c1.386 2.5 3.27 3.357 3.623 3.178s.3-2.342-.853-4.549-3.112-3.721-3.519-3.365-.636 2.237.749 4.736z" fill="#fff"/><g id="Group_1927" data-name="Group 1927" clip-path="url(#clip-path)"><g id="Group_1926" data-name="Group 1926"><path id="Path_5719" data-name="Path 5719" d="M114.782 40.111c-.519.361-1.5-.385-2.2-1.661s-.841-2.6-.324-2.964 1.5.382 2.2 1.659.842 2.605.324 2.966z" fill="#282825"/><g id="Group_1925" data-name="Group 1925" style="mix-blend-mode:multiply;isolation:isolate"><path id="Path_5720" data-name="Path 5720" d="M114.231 38.962c-.323.225-.936-.238-1.37-1.034s-.525-1.624-.2-1.849.936.239 1.371 1.035.522 1.623.199 1.848z" fill="#111110"/></g><path id="Path_5721" data-name="Path 5721" d="M113.258 38.09c-.179.127-.522-.133-.765-.577s-.293-.907-.112-1.032.523.133.766.577.292.907.111 1.032z" fill="#fff"/></g></g></g><g id="Group_1929" data-name="Group 1929" opacity=".6" style="mix-blend-mode:multiply;isolation:isolate"><path id="Path_5723" data-name="Path 5723" d="M111.32 39.411c1.386 2.5 3.27 3.357 3.623 3.178s.3-2.342-.853-4.549v-.009c.937 1.8.98 3.561.692 3.707s-1.826-.555-2.956-2.594-.943-3.575-.612-3.866c.311-.273 1.732.791 2.684 2.407-1.167-2.012-2.938-3.347-3.322-3.01-.411.358-.641 2.237.744 4.736z" fill="#c8ccbe"/></g></g><g id="Group_1936" data-name="Group 1936"><g id="Group_1934" data-name="Group 1934"><path id="Path_5724" data-name="Path 5724" d="M93.51 38.415c-1.258 2.567-3.1 3.519-3.457 3.359s-.416-2.323.623-4.589 2.919-3.873 3.343-3.536.749 2.201-.509 4.766z" fill="#fff"/><g id="Group_1933" data-name="Group 1933" clip-path="url(#clip-path-2)"><g id="Group_1932" data-name="Group 1932"><path id="Path_5725" data-name="Path 5725" d="M89.887 39.132c.684.257 1.808-.558 2.514-1.819s.723-2.494.039-2.751-1.812.556-2.517 1.821-.723 2.491-.036 2.749z" fill="#282825"/><g id="Group_1931" data-name="Group 1931" style="mix-blend-mode:multiply;isolation:isolate"><path id="Path_5726" data-name="Path 5726" d="M90.425 38.007c.427.16 1.129-.347 1.569-1.133s.45-1.554.023-1.714-1.129.347-1.568 1.133-.449 1.554-.024 1.714z" fill="#111110"/></g><path id="Path_5727" data-name="Path 5727" d="M91.522 37.078c.237.09.63-.195.875-.633s.252-.868.013-.958-.63.194-.875.633-.251.868-.013.958z" fill="#fff"/></g></g></g><g id="Group_1935" data-name="Group 1935" opacity=".6" style="mix-blend-mode:multiply;isolation:isolate"><path id="Path_5729" data-name="Path 5729" d="M93.51 38.415c-1.258 2.567-3.1 3.519-3.457 3.359s-.416-2.323.623-4.589v-.007c-.845 1.845-.8 3.606-.5 3.737s1.795-.648 2.821-2.742.761-3.617.415-3.891c-.324-.256-1.69.878-2.559 2.541 1.065-2.069 2.765-3.492 3.166-3.174.424.336.749 2.201-.509 4.766z" fill="#c8ccbe"/></g></g><g id="Group_1937" data-name="Group 1937"><path id="Path_5730" data-name="Path 5730" d="M90.56 42.889c-.026-.063.272-.208.87-.618a8.739 8.739 0 002.391-2.4 8.6 8.6 0 00.816-1.6 6.036 6.036 0 00.285-.872 6.5 6.5 0 00.192-.843c.041-.271.078-.525.114-.754l.031-.607c.019-.341.028-.545.028-.545l.01.548c0 .171 0 .377.007.609l-.07.767a6.152 6.152 0 01-.147.866 5.917 5.917 0 01-.249.9 7.828 7.828 0 01-.787 1.675 7.709 7.709 0 01-2.482 2.47c-.643.388-.987.462-1.009.404z" fill="#3c5108" opacity=".5" style="mix-blend-mode:multiply;isolation:isolate"/></g><g id="Group_1938" data-name="Group 1938"><path id="Path_5731" data-name="Path 5731" d="M96.617 36.237c.062 0 .1.336-.015 1.04a8.794 8.794 0 01-1.207 3.133c-.138.24-.326.467-.5.712-.193.227-.4.457-.607.676-.231.2-.444.418-.68.592s-.466.342-.694.48l-.65.352a5.141 5.141 0 01-.538.228l-.489.192.474-.227a5.561 5.561 0 00.518-.26l.618-.387c.215-.149.426-.333.653-.509s.419-.406.633-.61c.195-.223.383-.452.562-.681.158-.243.333-.466.464-.7a10.469 10.469 0 001.188-3.04c.159-.679.203-.994.27-.991z" fill="#3c5108" opacity=".5" style="mix-blend-mode:multiply;isolation:isolate"/></g><g id="Group_1939" data-name="Group 1939" opacity=".5" style="mix-blend-mode:multiply;isolation:isolate"><path id="Path_5732" data-name="Path 5732" d="M107.95 36.832c.066 0 .115.279.264.888a11.175 11.175 0 001.05 2.76 9.835 9.835 0 001.9 2.439c.177.155.347.3.5.431s.305.223.421.312l.385.276-.405-.245c-.124-.081-.285-.162-.447-.282l-.533-.4a8.873 8.873 0 01-3.119-5.239c-.114-.635-.08-.937-.016-.94z" fill="#3c5108"/></g><g id="Group_1940" data-name="Group 1940"><path id="Path_5733" data-name="Path 5733" d="M113.5 43.158c-.026.057-.334-.031-.89-.419a6.435 6.435 0 01-.979-.851 8.013 8.013 0 01-1.141-1.509 9.407 9.407 0 01-1.118-3.1l-.107-.687c-.013-.209-.027-.4-.037-.552l-.032-.495s.027.185.069.492l.075.543c.047.2.1.431.151.674a10.461 10.461 0 001.234 2.987 8.678 8.678 0 001.116 1.449 8.962 8.962 0 00.921.849c.514.404.77.561.738.619z" fill="#3c5108" opacity=".5" style="mix-blend-mode:multiply;isolation:isolate"/></g></g><path id="Path_5734" data-name="Path 5734" d="M113.737 55.994c-.122.062-.3-.347-1.237-.965a5.882 5.882 0 00-.536-.339 6.271 6.271 0 00-.549-.315l-.6-.319.651.207a4.777 4.777 0 01.6.236 3.634 3.634 0 01.584.3c1.003.586 1.216 1.157 1.087 1.195z" fill="#3c5108"/><path id="Path_5735" data-name="Path 5735" d="M113.743 58.18c-.067-.009-.1-.059-.238-.174a3.01 3.01 0 00-.835-.412c-.306-.09-.681-.224-.994-.291s-.539-.141-.539-.141l.558.021a5.3 5.3 0 011.056.148 1.921 1.921 0 01.937.5c.161.191.124.369.055.349z" fill="#3c5108"/></g><path id="Path_5736" data-name="Path 5736" d="M113 43.4c-2.024-1.316-4.418-5.024-4.05-7.917S106.267 40.66 113 43.4z" fill="url(#linear-gradient-11)" style="mix-blend-mode:screen;isolation:isolate"/><path id="Path_5737" data-name="Path 5737" d="M91.378 43.022c2.085-1.218 4.649-4.81 4.416-7.718s2.436 5.296-4.416 7.718z" fill="url(#linear-gradient-12)" style="mix-blend-mode:screen;isolation:isolate"/><path id="Path_5738" data-name="Path 5738" d="M106.275 33.528s-4-2.671-7.8-.053c0 0 .058-5.277 3.407-5.48 4.012-.243 4.393 5.533 4.393 5.533z" fill="url(#linear-gradient-13)" style="mix-blend-mode:screen;isolation:isolate"/><path id="Path_5739" data-name="Path 5739" d="M50.919 125.793h0l.1-.074.009-.006.093-.071.013-.011.087-.068.018-.015.081-.065.022-.018.075-.063.025-.022.07-.06.028-.024.065-.057.029-.026.061-.055.031-.028.056-.051.032-.03.051-.048.033-.031.047-.045.033-.031.043-.042.032-.032.039-.038.032-.032.034-.034.032-.032.031-.031.028-.03.028-.028.028-.029.023-.024.026-.027.019-.021.023-.024.016-.017.021-.023.012-.012.017-.019.008-.009.013-.014.007-.007.015-.017a68.95 68.95 0 00-.053 13.172v.011h0l.026.241.007.067c.01.091.021.18.033.266v.031q.018.139.039.27v.01c.014.089.028.176.043.26v0c.03.168.062.324.1.47v0c.016.069.033.136.05.2v.011c.016.06.032.117.049.173l.006.023c.015.05.03.1.046.143l.012.038.04.111.02.054.035.087.027.064.028.06.036.076.018.033c.016.031.032.062.049.09v.006c1.141 1.946 3.1-1.874 3.1-1.874s-.279 8.127 1.219 13.687c.309 1.149.7 1.6 1.111 1.658.933.28 1.941-1.653 2.178-2.139a62.9 62.9 0 005.217 12.967c1.465 2.59 2.3 1.188 2.73-.252v-.007l.027-.094v-.015l.024-.086.006-.022.021-.079.008-.03.018-.072.009-.035.015-.066.01-.039.014-.063.009-.04.013-.058.01-.045.011-.052.01-.048.009-.046.01-.05.009-.043.01-.05.007-.039.009-.051.007-.034.009-.051v-.031l.009-.052v-.025l.009-.051v-.022l.007-.048v-.02l.008-.046v-.016l.007-.047v-.008l.007-.043v-.008l.006-.042h0v-.105s4.716 8.042 10.485 13.374c4.536 4.194 4.477-.69 4.465-1.071h0v-.023s5.277 6.63 19.49 9.806c.083.019.166.039.251.056 0 0 .194-.026.538-.1v0a34.32 34.32 0 0015.949-8.42v.058l-.01.035v.013l-.006.024v.016l-.007.027v.017l-.008.032v.009c0 .024-.01.049-.016.075v.016l-.007.037v.022l-.006.039v.023l-.006.041v.019q-.006.04-.009.081v.381l.005.041v.032l.009.044.005.027c0 .023.011.045.017.067v.015l.019.053.009.022a.834.834 0 00.019.044l.011.021.026.046.01.015a.6.6 0 00.042.057l.006.007.042.045.015.014a.672.672 0 00.041.034l.018.013a.528.528 0 00.05.032l.015.009a.809.809 0 00.072.034h.014a.618.618 0 00.065.021l.029.008.059.012.035.006c.021 0 .042 0 .064.006h.146c.785-.023 2.246-.677 4.91-2.705 7.132-5.432 8.626-9.059 8.626-9.059a1.38 1.38 0 00-.02.147l-.006.055v0c-.069.7-.012 2.712 3.691-1.3 4.361-4.718 7.287-16.582 7.287-16.582s1.537 3.169 3.194-1.61c.019-.049.035-.1.051-.148a49.23 49.23 0 002.4-19.091s2.063 1.774 2.573-.3a33.488 33.488 0 00.614-13.664s2.381 1.519 2.385-2.547a62.155 62.155 0 00-.683-10.2 57.834 57.834 0 00-3.3-12.472 47.563 47.563 0 00-8.683-14.312l-.064-.072q-.219-.245-.442-.489a44.406 44.406 0 00-17.009-11.4 65.171 65.171 0 00-20.263-4.032A80.533 80.533 0 0087 59.189c-.293.055-.585.112-.872.173a47.016 47.016 0 00-8.023 2.383l-.247.1.172-.176a37.464 37.464 0 00-6.664 3.542l.005.049C64.5 69.809 59.918 76.272 56.466 84.042c-1.142 2.576-2.162 5.3-3.1 8.138h-.087a142.09 142.09 0 00-1.618 4.935l.27-.3-.127.436c-.972 3.361-1.877 6.859-2.767 10.466-1.089 4.425 3.751.924 3.751.924s-2.507 3.976-4.16 12.958c-.047.259-.088.5-.124.738h0v.007c-.018.117-.035.23-.05.341v.014c-.622 4.542 1.078 4.095 2.465 3.094z" fill="#fff" stroke="#231f20" stroke-miterlimit="10" stroke-width=".568"/></g></g></svg>