<svg id="tw1" xmlns="http://www.w3.org/2000/svg" xmlns:xlink="http://www.w3.org/1999/xlink" width="55" height="54" viewBox="0 0 55 54">
  <defs>
    <linearGradient id="linear-gradient" x1="0.5" y1="0.016" x2="0.5" y2="1.277" gradientUnits="objectBoundingBox">
      <stop offset="0" stop-color="#00ffd5"/>
      <stop offset="1" stop-color="#01cb2d"/>
    </linearGradient>
  </defs>
  <g id="Group_472" data-name="Group 472">
    <g id="Group_471" data-name="Group 471">
      <path id="Path_777" data-name="Path 777" d="M697.529,1415.9c-13.039,0-23.648-10.832-23.648-24.147a24.131,24.131,0,0,1,20.008-23.84,23.12,23.12,0,0,1,6.182-.852c13.039,0,23.648,10.831,23.648,24.147a24.128,24.128,0,0,1-20.006,23.839A23.015,23.015,0,0,1,697.529,1415.9Z" transform="translate(-671.3 -1364.484)" fill="#a42d6b"/>
      <path id="Path_778" data-name="Path 778" d="M700.074,1369.627a21.606,21.606,0,0,1,3.123,42.914,20.7,20.7,0,0,1-5.671.8,21.606,21.606,0,0,1-3.122-42.914,20.749,20.749,0,0,1,5.67-.8m0-5.143a25.653,25.653,0,0,0-6.723.906,26.73,26.73,0,0,0-22.051,26.367c0,14.738,11.765,26.727,26.226,26.727a25.65,25.65,0,0,0,6.725-.9,26.731,26.731,0,0,0,22.049-26.367c0-14.738-11.765-26.728-26.226-26.728Z" transform="translate(-671.3 -1364.484)" fill="#fff"/>
      <path id="Path_779" data-name="Path 779" d="M700.072,1369.632a21.6,21.6,0,0,1,3.119,42.9,20.644,20.644,0,0,1-5.664.8,21.6,21.6,0,0,1-3.118-42.9,20.7,20.7,0,0,1,5.663-.8m0-3.6a24.111,24.111,0,0,0-6.4.874,25.169,25.169,0,0,0-20.824,24.851c0,13.884,11.071,25.179,24.679,25.179a24.135,24.135,0,0,0,6.4-.873,25.17,25.17,0,0,0,20.823-24.851c0-13.884-11.071-25.18-24.679-25.18Z" transform="translate(-671.3 -1364.484)"/>
    </g>
  </g>
  <path id="Path_780" data-name="Path 780" d="M700.727,1373.086a18.208,18.208,0,1,0,18.219,18.219A18.134,18.134,0,0,0,700.727,1373.086Z" transform="translate(-671.924 -1364.578)"/>
  <circle id="Ellipse_12" data-name="Ellipse 12" cx="17.359" cy="17.359" r="17.359" transform="translate(11.368 9.37)" fill="url(#linear-gradient)"/>
  <path id="Path_781" data-name="Path 781" d="M705.27,1376.744c2.2,0,6.808,2.749,8.022,5.71" transform="translate(-672.179 -1364.531)" fill="none" stroke="#fff" stroke-width="1.72"/>
  <path id="Path_17328" data-name="Path 17328" d="M22.164,2.556,20.088,3,22.11,1.264l-2.891.578c-3.4-4.112-10.263-.769-9.128,4.441C8.761,5.328,6.453,5.02,4.778,4.251,2.49,3.2,2.749,2.064,2.6,2.6A8.882,8.882,0,0,0,7.625,13.646,12.679,12.679,0,0,1,0,14.621c8.147,7.976,22.087.68,20.32-10.5Z" transform="translate(17.673 18.008)"/>
</svg>
