<svg xmlns="http://www.w3.org/2000/svg" xmlns:xlink="http://www.w3.org/1999/xlink" width="335.611" height="137.851"><defs><linearGradient id="linear-gradient" x1=".574" y1=".037" x2=".416" y2=".95" gradientUnits="objectBoundingBox"><stop offset="0" stop-color="#00ffd5"/><stop offset=".769" stop-color="#01cd33"/><stop offset="1" stop-color="#01cb2d"/></linearGradient><linearGradient id="linear-gradient-2" x1=".501" y1="-52.882" x2=".501" y2="17.391" gradientUnits="objectBoundingBox"><stop offset="0" stop-color="#00ffd5"/><stop offset="1" stop-color="#01cb2d"/></linearGradient><linearGradient id="linear-gradient-3" x1=".5" y1="-14.843" x2=".5" y2="6.21" xlink:href="#linear-gradient-2"/><linearGradient id="linear-gradient-4" x1=".489" y1="-396.374" x2=".489" y2="184.937" xlink:href="#linear-gradient-2"/><linearGradient id="linear-gradient-5" x1=".5" y1=".081" x2=".5" y2=".728" xlink:href="#linear-gradient-2"/><linearGradient id="linear-gradient-6" x1=".5" y1="-23.87" x2=".5" y2="52.389" xlink:href="#linear-gradient-2"/><linearGradient id="linear-gradient-7" x1=".5" y1=".214" x2=".5" y2=".72" xlink:href="#linear-gradient-2"/><clipPath id="clip-path"><path id="Path_566" data-name="Path 566" d="M4260.321 7446.831a63.718 63.718 0 00-.928-4.52l-.007-.03-.008-.031-.024-.089a17.56 17.56 0 00-.161-.653h-.01v-.014h.01c-.285-1.088-.477-1.82-.6-2.28a6.394 6.394 0 00-.346-1.035c-3.961-12.846-10.472-22.1-19.374-27.522a43.539 43.539 0 00-19.932-5.862 69.005 69.005 0 00-4.722-.146c-1.935 0-3.848.062-5.465.122-.965.037-1.96.052-2.923.067-.714.011-1.427.021-2.141.04a14.605 14.605 0 00-5.114.948 8.856 8.856 0 00-4.915 4.778 9.5 9.5 0 00-4.112 7.925 37.4 37.4 0 00-9.086 8.878 44.652 44.652 0 00-11.02 21.9 68.014 68.014 0 00-1 20.862c.768 7.536 2.3 13.188 4.809 17.788a29.635 29.635 0 0015.069 13.187c5.69 2.331 12.321 3.553 20.866 3.845 1.511.052 2.849.077 4.091.077 7.021 0 12.3-.824 17.124-2.671a42.01 42.01 0 0016.447-11.588 41.573 41.573 0 002.141-2.686c.375-.4.747-.8 1.109-1.214 9.029-10.307 12.756-24.919 10.222-40.076zm-63.881 22.278c.291-.363.561-.72.83-1.077.124-.134.25-.268.371-.4a61.002 61.002 0 002.049-2.42 35.838 35.838 0 003.112-4.5 14.288 14.288 0 012.036 8.418v.016a12.769 12.769 0 01-.971 4.1 7.273 7.273 0 01-3.753 1.091 6.419 6.419 0 01-1.588-.2 4.487 4.487 0 01-2.849-1.885 2.357 2.357 0 01-.06-2.142c.273-.33.548-.66.823-1.001z"/></clipPath><clipPath id="clip-path-2"><path id="Path_581" data-name="Path 581" d="M4108.5 7427.389v-.102c-.49-5.5-4.575-9.978-10.661-11.675a19.077 19.077 0 00-5.121-.719 16.057 16.057 0 00-3.5.375 9.523 9.523 0 00-3.926 1.752 15.272 15.272 0 00-3.475 4.1 20.268 20.268 0 00-4.706 6.518 60.936 60.936 0 00-3.163 7.381c-.5 1.387-.965 2.782-1.4 4.175-2.916-5.736-6.434-11.936-11.2-16.919-3.242-3.391-6.386-5.358-9.61-6.014a11.421 11.421 0 00-2.267-.228 13.818 13.818 0 00-7.569 2.444 37.25 37.25 0 00-8.328 7.968c-.318.4-.636.8-.955 1.214a60.465 60.465 0 00-2.295 2.686 73.964 73.964 0 00-1.58 2.04 7.638 7.638 0 00-.311-.95c-.029-.074-.058-.144-.078-.206a120.68 120.68 0 00-4.083-11.818 55.66 55.66 0 00-6.755-12.525 22.015 22.015 0 00-5.03-5.029 17.079 17.079 0 00-6.546-2.585 42.369 42.369 0 00-8.365-.758c-1.851 0-3.836.09-6.068.277a88.816 88.816 0 00-13.781 2.24 55.47 55.47 0 00-13.471 4.984 19.605 19.605 0 00-5.893 4.591 8.647 8.647 0 00-1.112 1.778 14.636 14.636 0 00-2.138 2.122 9.11 9.11 0 00-1.94 4.653 30.463 30.463 0 00.549 10.6c2.1 10.185 7.192 19.62 11.392 26.7a235.579 235.579 0 0016.334 23.476c3.278 4.25 6.284 7.912 9.19 11.195a57.865 57.865 0 0010.3 9.635 19.9 19.9 0 006.648 3.091 16.567 16.567 0 003.828.434 21.415 21.415 0 003.836-.365 41.824 41.824 0 0013.493-5.172 71.9 71.9 0 0013.281-10.278c.124.129.249.251.368.368.055.055.106.1.145.144.421.486.865.977 1.319 1.459a39.819 39.819 0 0014.663 10.289 27.238 27.238 0 009.251 1.72h.132a9.376 9.376 0 003.559-1 16.483 16.483 0 003.616-2.56 35.784 35.784 0 004.789-5.4 42.1 42.1 0 003.664-4.46 102.963 102.963 0 008.215-13.969 242.184 242.184 0 0012.97-30.7c1.195-3.494 2.073-6.4 2.763-9.13a26.666 26.666 0 001.022-7.847z"/></clipPath></defs><g id="who" transform="translate(-3938.921 -7381.214)"><g id="Group_341" data-name="Group 341"><g id="Group_340" data-name="Group 340"><path id="Path_556" data-name="Path 556" d="M3956.5 7461.557a245.213 245.213 0 0017.018 24.482c3.411 4.423 6.558 8.255 9.62 11.716a66.782 66.782 0 0012.129 11.254 29.637 29.637 0 009.989 4.572 28.546 28.546 0 0011.771.179 51.763 51.763 0 0016.737-6.37 70.633 70.633 0 007.821-5.322 46.354 46.354 0 0013.376 8.016 37.024 37.024 0 0012.506 2.363c.139.005.28.007.42.007a18.956 18.956 0 008.061-2.066 26.214 26.214 0 005.8-4.053 44.515 44.515 0 005.769-6.389 53.477 53.477 0 004.1-5.044 82.494 82.494 0 002.944-4.364l1.814 3.971.295.648c1.035 2.273 2.207 4.848 3.54 7.362l.149.283c1.469 2.79 4.909 9.324 12.788 11.021a21.466 21.466 0 004.584.464 40.22 40.22 0 002.851-.121c.236-.016.47-.033.688-.045l4.668-.226a107.043 107.043 0 0013.58-1.242 28.381 28.381 0 006.27-1.737 15.85 15.85 0 005.377-3.538l.518-.571a15.413 15.413 0 001.579-2.27q.215-.177.432-.37a13.793 13.793 0 003.771 1.151 33.755 33.755 0 005.129.387h.513a33.523 33.523 0 0010.619-1.756 41.511 41.511 0 0010.8 6.452c6.825 2.795 14.551 4.251 24.314 4.585 1.631.055 3.08.083 4.433.083 8.3 0 14.684-1.029 20.7-3.333a52.041 52.041 0 0020.387-14.331 47.875 47.875 0 002.306-2.856c.321-.346.639-.695.95-1.05 10.319-11.78 15.8-34.474 11.258-54.485s-15.038-30.943-24.8-36.894a53.384 53.384 0 00-24.463-7.3 79.609 79.609 0 00-5.394-.169c-2.086 0-4.122.065-5.839.129-.833.032-1.691.044-2.525.058h-.177c-.749.012-1.5.022-2.249.043a24.365 24.365 0 00-8.574 1.662 40.741 40.741 0 00-13.155 12.988 33.165 33.165 0 00-14.411-2.966 49.446 49.446 0 00-5.462.308 48.8 48.8 0 00-7.476 1.419 36.411 36.411 0 00-3.434 1.115 26.45 26.45 0 00-2.3 1 14.205 14.205 0 00-4.527 3.307c-.127-.389-.258-.779-.39-1.17-1.54-4.526-4.156-11.2-9.065-16.892a30.077 30.077 0 00-21.5-10.358 44.472 44.472 0 00-2.681-.08 74.951 74.951 0 00-16.735 2.318 138.573 138.573 0 00-17.162 4.782 45.058 45.058 0 00-9.533 4.588 22.249 22.249 0 00-6.742 6.619 20.249 20.249 0 00-3.231 3.879 23.351 23.351 0 00-3.34-.946 21.517 21.517 0 00-4.247-.426h-.008a23.62 23.62 0 00-13.02 4.064 36.506 36.506 0 00-3.984 3.009 60.229 60.229 0 00-6.972-12.253 31.565 31.565 0 00-7.33-7.231 27.05 27.05 0 00-10.258-4.155 52.124 52.124 0 00-10.327-.953c-2.125 0-4.381.1-6.9.311a98.771 98.771 0 00-15.34 2.5 65.285 65.285 0 00-15.882 5.922 29.078 29.078 0 00-8.873 7.083 19.174 19.174 0 00-1.217 1.693 23.393 23.393 0 00-2.036 2.212 19.069 19.069 0 00-4.05 9.482 40.244 40.244 0 00.65 14.068c2.405 11.631 7.985 22.02 12.585 29.777z" fill="#fff"/><path id="Path_557" data-name="Path 557" d="M3956.5 7461.557a245.213 245.213 0 0017.018 24.482c3.411 4.423 6.558 8.255 9.62 11.716a66.782 66.782 0 0012.129 11.254 29.637 29.637 0 009.989 4.572 28.546 28.546 0 0011.771.179 51.763 51.763 0 0016.737-6.37 70.633 70.633 0 007.821-5.322 46.354 46.354 0 0013.376 8.016 37.024 37.024 0 0012.506 2.363c.139.005.28.007.42.007a18.956 18.956 0 008.061-2.066 26.214 26.214 0 005.8-4.053 44.515 44.515 0 005.769-6.389 53.477 53.477 0 004.1-5.044 82.494 82.494 0 002.944-4.364l1.814 3.971.295.648c1.035 2.273 2.207 4.848 3.54 7.362l.149.283c1.469 2.79 4.909 9.324 12.788 11.021a21.466 21.466 0 004.584.464 40.22 40.22 0 002.851-.121c.236-.016.47-.033.688-.045l4.668-.226a107.043 107.043 0 0013.58-1.242 28.381 28.381 0 006.27-1.737 15.85 15.85 0 005.377-3.538l.518-.571a15.413 15.413 0 001.579-2.27q.215-.177.432-.37a13.793 13.793 0 003.771 1.151 33.755 33.755 0 005.129.387h.513a33.523 33.523 0 0010.619-1.756 41.511 41.511 0 0010.8 6.452c6.825 2.795 14.551 4.251 24.314 4.585 1.631.055 3.08.083 4.433.083 8.3 0 14.684-1.029 20.7-3.333a52.041 52.041 0 0020.387-14.331 47.875 47.875 0 002.306-2.856c.321-.346.639-.695.95-1.05 10.319-11.78 15.8-34.474 11.258-54.485s-15.038-30.943-24.8-36.894a53.384 53.384 0 00-24.463-7.3 79.609 79.609 0 00-5.394-.169c-2.086 0-4.122.065-5.839.129-.833.032-1.691.044-2.525.058h-.177c-.749.012-1.5.022-2.249.043a24.365 24.365 0 00-8.574 1.662 40.741 40.741 0 00-13.155 12.988 33.165 33.165 0 00-14.411-2.966 49.446 49.446 0 00-5.462.308 48.8 48.8 0 00-7.476 1.419 36.411 36.411 0 00-3.434 1.115 26.45 26.45 0 00-2.3 1 14.205 14.205 0 00-4.527 3.307c-.127-.389-.258-.779-.39-1.17-1.54-4.526-4.156-11.2-9.065-16.892a30.077 30.077 0 00-21.5-10.358 44.472 44.472 0 00-2.681-.08 74.951 74.951 0 00-16.735 2.318 138.573 138.573 0 00-17.162 4.782 45.058 45.058 0 00-9.533 4.588 22.249 22.249 0 00-6.742 6.619 20.249 20.249 0 00-3.231 3.879 23.351 23.351 0 00-3.34-.946 21.517 21.517 0 00-4.247-.426h-.008a23.62 23.62 0 00-13.02 4.064 36.506 36.506 0 00-3.984 3.009 60.229 60.229 0 00-6.972-12.253 31.565 31.565 0 00-7.33-7.231 27.05 27.05 0 00-10.258-4.155 52.124 52.124 0 00-10.327-.953c-2.125 0-4.381.1-6.9.311a98.771 98.771 0 00-15.34 2.5 65.285 65.285 0 00-15.882 5.922 29.078 29.078 0 00-8.873 7.083 19.174 19.174 0 00-1.217 1.693 23.393 23.393 0 00-2.036 2.212 19.069 19.069 0 00-4.05 9.482 40.244 40.244 0 00.65 14.068c2.405 11.631 7.985 22.02 12.585 29.777z" fill="none" stroke="#fff" stroke-miterlimit="10" stroke-width="8"/><path id="Path_558" data-name="Path 558" d="M3956.5 7461.557a245.213 245.213 0 0017.018 24.482c3.411 4.423 6.558 8.255 9.62 11.716a66.782 66.782 0 0012.129 11.254 29.637 29.637 0 009.989 4.572 28.546 28.546 0 0011.771.179 51.763 51.763 0 0016.737-6.37 70.633 70.633 0 007.821-5.322 46.354 46.354 0 0013.376 8.016 37.024 37.024 0 0012.506 2.363c.139.005.28.007.42.007a18.956 18.956 0 008.061-2.066 26.214 26.214 0 005.8-4.053 44.515 44.515 0 005.769-6.389 53.477 53.477 0 004.1-5.044 82.494 82.494 0 002.944-4.364l1.814 3.971.295.648c1.035 2.273 2.207 4.848 3.54 7.362l.149.283c1.469 2.79 4.909 9.324 12.788 11.021a21.466 21.466 0 004.584.464 40.22 40.22 0 002.851-.121c.236-.016.47-.033.688-.045l4.668-.226a107.043 107.043 0 0013.58-1.242 28.381 28.381 0 006.27-1.737 15.85 15.85 0 005.377-3.538l.518-.571a15.413 15.413 0 001.579-2.27q.215-.177.432-.37a13.793 13.793 0 003.771 1.151 33.755 33.755 0 005.129.387h.513a33.523 33.523 0 0010.619-1.756 41.511 41.511 0 0010.8 6.452c6.825 2.795 14.551 4.251 24.314 4.585 1.631.055 3.08.083 4.433.083 8.3 0 14.684-1.029 20.7-3.333a52.041 52.041 0 0020.387-14.331 47.875 47.875 0 002.306-2.856c.321-.346.639-.695.95-1.05 10.319-11.78 15.8-34.474 11.258-54.485s-15.038-30.943-24.8-36.894a53.384 53.384 0 00-24.463-7.3 79.609 79.609 0 00-5.394-.169c-2.086 0-4.122.065-5.839.129-.833.032-1.691.044-2.525.058h-.177c-.749.012-1.5.022-2.249.043a24.365 24.365 0 00-8.574 1.662 40.741 40.741 0 00-13.155 12.988 33.165 33.165 0 00-14.411-2.966 49.446 49.446 0 00-5.462.308 48.8 48.8 0 00-7.476 1.419 36.411 36.411 0 00-3.434 1.115 26.45 26.45 0 00-2.3 1 14.205 14.205 0 00-4.527 3.307c-.127-.389-.258-.779-.39-1.17-1.54-4.526-4.156-11.2-9.065-16.892a30.077 30.077 0 00-21.5-10.358 44.472 44.472 0 00-2.681-.08 74.951 74.951 0 00-16.735 2.318 138.573 138.573 0 00-17.162 4.782 45.058 45.058 0 00-9.533 4.588 22.249 22.249 0 00-6.742 6.619 20.249 20.249 0 00-3.231 3.879 23.351 23.351 0 00-3.34-.946 21.517 21.517 0 00-4.247-.426h-.008a23.62 23.62 0 00-13.02 4.064 36.506 36.506 0 00-3.984 3.009 60.229 60.229 0 00-6.972-12.253 31.565 31.565 0 00-7.33-7.231 27.05 27.05 0 00-10.258-4.155 52.124 52.124 0 00-10.327-.953c-2.125 0-4.381.1-6.9.311a98.771 98.771 0 00-15.34 2.5 65.285 65.285 0 00-15.882 5.922 29.078 29.078 0 00-8.873 7.083 19.174 19.174 0 00-1.217 1.693 23.393 23.393 0 00-2.036 2.212 19.069 19.069 0 00-4.05 9.482 40.244 40.244 0 00.65 14.068c2.405 11.631 7.985 22.02 12.585 29.777z" fill="none" stroke="#000" stroke-miterlimit="10" stroke-width="6"/></g></g><g id="Group_345" data-name="Group 345"><path id="Path_559" data-name="Path 559" d="M4260.321 7446.831a63.718 63.718 0 00-.928-4.52l-.007-.03-.008-.031-.024-.089a17.56 17.56 0 00-.161-.653h-.01v-.014h.01c-.285-1.088-.477-1.82-.6-2.28a6.394 6.394 0 00-.346-1.035c-3.961-12.846-10.472-22.1-19.374-27.522a43.539 43.539 0 00-19.932-5.862 69.005 69.005 0 00-4.722-.146c-1.935 0-3.848.062-5.465.122-.965.037-1.96.052-2.923.067-.714.011-1.427.021-2.141.04a14.605 14.605 0 00-5.114.948 8.856 8.856 0 00-4.915 4.778 9.5 9.5 0 00-4.112 7.925 37.4 37.4 0 00-9.086 8.878 44.652 44.652 0 00-11.02 21.9 68.014 68.014 0 00-1 20.862c.768 7.536 2.3 13.188 4.809 17.788a29.635 29.635 0 0015.069 13.187c5.69 2.331 12.321 3.553 20.866 3.845 1.511.052 2.849.077 4.091.077 7.021 0 12.3-.824 17.124-2.671a42.01 42.01 0 0016.447-11.588 41.573 41.573 0 002.141-2.686c.375-.4.747-.8 1.109-1.214 9.029-10.307 12.756-24.919 10.222-40.076zm-63.881 22.278c.291-.363.561-.72.83-1.077.124-.134.25-.268.371-.4a61.002 61.002 0 002.049-2.42 35.838 35.838 0 003.112-4.5 14.288 14.288 0 012.036 8.418v.016a12.769 12.769 0 01-.971 4.1 7.273 7.273 0 01-3.753 1.091 6.419 6.419 0 01-1.588-.2 4.487 4.487 0 01-2.849-1.885 2.357 2.357 0 01-.06-2.142c.273-.33.548-.66.823-1.001z"/><g id="Group_344" data-name="Group 344" clip-path="url(#clip-path)"><g id="Group_343" data-name="Group 343"><g id="Group_342" data-name="Group 342"><path id="Path_560" data-name="Path 560" d="M4232.719 7496.065a39.437 39.437 0 0015.421-10.873c9.077-10.362 11.85-24.569 9.616-37.932q-.364-2.183-.889-4.335c-.078-.293-.3-1.153-.516-1.969-3.087-11.066-8.756-21.94-18.832-28.079a41.1 41.1 0 00-18.755-5.488c-1.514-.1-3.031-.14-4.547-.14-1.789 0-3.579.054-5.367.121-1.7.063-3.4.062-5.093.107a12.186 12.186 0 00-4.214.762c-3.04 1.22-4.292 4.129-4.144 7.277.118 2.515.67 4.981.377 7.514a93.48 93.48 0 00-1.314-4.433c-10.526 5.471-16.844 15.971-19.226 27.341a65.708 65.708 0 00-.96 20.065c.583 5.712 1.726 11.719 4.5 16.806a27.168 27.168 0 0013.772 12.027c6.311 2.585 13.2 3.421 19.97 3.653 1.333.045 2.668.075 4 .075a44.776 44.776 0 0016.201-2.499zm-22.008-31l-.039.482.008-.111a13.783 13.783 0 01-3.175 8.133 10.041 10.041 0 01-7.392 3.363 9.027 9.027 0 01-2.23-.278 7.052 7.052 0 01-4.465-3.115 5.025 5.025 0 01.322-5.386 24.661 24.661 0 011.963-2.258 57.594 57.594 0 001.96-2.315 32.073 32.073 0 003.429-5.134 21.385 21.385 0 002.113-6.008 1.173 1.173 0 00.027-.641 3.535 3.535 0 00-.443-.672 23.076 23.076 0 00-.832-1.159 53.353 53.353 0 00-1.742-2.113 15.2 15.2 0 013.582 2.411 21.217 21.217 0 013.672 3.961 17.053 17.053 0 013.211 11.211c.02-.276.03-.371.031-.371z" fill="url(#linear-gradient)"/><path id="Path_561" data-name="Path 561" d="M4256.9 7443.029s-.061-.249-.222-.876q.1.386.193.772a.669.669 0 00.029.104z" fill="url(#linear-gradient-2)"/><path id="Path_562" data-name="Path 562" d="M4255.9 7439.229s.215.838.447 1.727c.111.4.219.8.323 1.2-.57-2.175-.764-2.927-.77-2.927z" fill="url(#linear-gradient-3)"/></g><path id="Path_563" data-name="Path 563" d="M4217.261 7410.03c14.6-1.364 29.068 9.359 32.665 23.455-7.557-12.649-18.107-20.617-32.665-23.455z" fill="#fff"/><path id="Path_564" data-name="Path 564" d="M4250.587 7467.216c-1.332 14.608-14.522 26.864-29.038 27.82a70.693 70.693 0 009.492-4.479 46.236 46.236 0 0019.546-23.341z" fill="#fff"/><path id="Path_565" data-name="Path 565" d="M4199.6 7450.474a6.206 6.206 0 01-.193 5.61 17.785 17.785 0 01-3.489 4.42 13.51 13.51 0 01-3.062 2l-.144-.216a16.367 16.367 0 003.83-5.593 17.764 17.764 0 012.8-6.229l.259.011z" fill="#fff"/></g></g></g><g id="Group_347" data-name="Group 347"><path id="Path_567" data-name="Path 567" d="M4184.184 7429.429a27.304 27.304 0 00-.431-2.68l-.015-.108a4.316 4.316 0 00-.2-.8 18.653 18.653 0 00-.059-.2c-.015-.053-.03-.1-.044-.158-1.617-5.75-7.354-8.922-16.15-8.923a39.209 39.209 0 00-4.348.247 38.756 38.756 0 00-5.944 1.125c-.929.255-1.748.52-2.5.81a15.628 15.628 0 00-1.483.647l-.05.024a3.558 3.558 0 00-1.869 1.653 3.314 3.314 0 00-.269 1.743c-.394.16-.739.316-1.062.48l-.05.024a3.56 3.56 0 00-1.869 1.653 3.658 3.658 0 00-.224 2.137l.008.063.02.609.023.692q.024.724.055 1.449c.218 5.275.467 10.5.682 14.908l.227 4.658.073 1.492-.2.013a29.69 29.69 0 00-.98.087c-.506.05-.983.1-1.409.1a4.309 4.309 0 01-.448-.021 1.48 1.48 0 01-1.092-.561 3.448 3.448 0 01-.167-.464c-.05-.156-.1-.314-.157-.473a23.15 23.15 0 01-.429-1.345c-.8-2.927-1.634-5.818-2.27-8.01-1.1-3.777-2.225-7.61-3.317-11.317l-1-3.41q-.261-.884-.518-1.769c-.77-2.64-1.566-5.369-2.475-8.041-1.271-3.737-3.4-9.21-7.168-13.579a20.293 20.293 0 00-14.537-6.911 35.258 35.258 0 00-2.075-.061 66.3 66.3 0 00-14.527 2.072 129.914 129.914 0 00-15.962 4.429 35.749 35.749 0 00-7.441 3.539 11.534 11.534 0 00-4.366 4.684c-1.554 1.185-3.776 3.362-3.875 6.623-.1 3.383 1.843 6.182 3.406 8.431l.034.049c.75 1.078 1.525 2.117 2.193 3.007 4.189 5.579 9.012 12.1 13.247 18.841a279.68 279.68 0 0115.314 28.4c2.443 5.095 4.862 10.4 7 15.078l.3.652c1.026 2.252 2.086 4.58 3.281 6.835l.156.295c1.088 2.067 2.733 5.191 6.046 5.9a11.686 11.686 0 002.478.239c.742 0 1.452-.048 2.138-.1.293-.02.584-.04.873-.055q1-.054 2-.1l.941-.046q.886-.044 1.774-.084a97.87 97.87 0 0012.331-1.1 18.834 18.834 0 004.108-1.1 6.169 6.169 0 002.113-1.312 4.09 4.09 0 00.9-1.614c.049-.308.081-.618.107-.927.043-.017.086-.029.128-.047a6.169 6.169 0 002.113-1.312 4.09 4.09 0 00.9-1.614 22.581 22.581 0 00-.093-5.914 72.123 72.123 0 01-.123-1.211l-.108-1.18c-.191-2.073-.389-4.217-.515-6.31a55.659 55.659 0 01-.052-7.458 19.452 19.452 0 01.49-3.276 3.237 3.237 0 01.547-.052 2.965 2.965 0 012.477 1.31 15.44 15.44 0 011.984 5.849c.369 1.96.656 4 .934 5.971l.251 1.763.108.758a29.989 29.989 0 001.662 7.23l.031.077a4.3 4.3 0 003.228 3 23.944 23.944 0 003.609.27h.368a22.667 22.667 0 008.287-1.513l.1-.038a3.794 3.794 0 002.069-1.616 3.569 3.569 0 00.4-1.174l.006-.031c.072-.286.139-.575.207-.863.158-.059.318-.115.472-.178l.1-.038a3.793 3.793 0 002.069-1.616 3.567 3.567 0 00.4-1.174l.006-.031c.129-.517.254-1.039.375-1.562 1.694-7.315 3.179-15.221 4.539-24.17.939-6.182 1.572-11.27 1.99-16.013a81.249 81.249 0 00.193-16.256z"/><g id="Group_346" data-name="Group 346"><path id="Path_568" data-name="Path 568" d="M4154.7 7450.119c0-.037-.007-.074-.012-.111z" fill="url(#linear-gradient-4)"/><path id="Path_569" data-name="Path 569" d="M4181.385 7445.457a78.14 78.14 0 00.216-15.731 21.956 21.956 0 00-.664-3.523c-1.589-5.648-8.069-7.037-13.65-7.038a36.818 36.818 0 00-4.06.231 35.867 35.867 0 00-5.543 1.048c-.764.21-1.523.447-2.263.731a13.18 13.18 0 00-1.238.538c-.187.094-.655.28-.746.472a2.871 2.871 0 00.031.932l.045 1.368c.016.477.035.953.054 1.429q.309 7.446.682 14.888.226 4.66.454 9.317c.17 2.082-2.241 3.027-3.919 3.285-.7.108-1.4.133-2.1.182-.852.059-1.712.19-2.569.19-.24 0-.479-.011-.718-.035a4 4 0 01-3-1.724 6.474 6.474 0 01-.6-1.492 25.53 25.53 0 01-.485-1.527c-.73-2.664-1.49-5.319-2.26-7.972-1.425-4.91-2.875-9.812-4.318-14.717-.954-3.245-1.87-6.5-2.959-9.707-1.534-4.507-3.538-9.081-6.676-12.718a17.7 17.7 0 00-12.724-6.013q-.96-.059-1.919-.057a63.831 63.831 0 00-13.953 2.007 129.737 129.737 0 00-15.649 4.338 32.8 32.8 0 00-6.9 3.267c-1.855 1.222-3.75 2.933-3.822 5.314-.078 2.545 1.588 4.919 2.976 6.917.691.993 1.411 1.963 2.137 2.931 4.658 6.2 9.242 12.443 13.37 19.019a286.969 286.969 0 0115.456 28.653c2.4 5.012 4.712 10.066 7.018 15.123 1.127 2.468 2.24 4.95 3.511 7.349.978 1.847 2.206 4.391 4.451 4.874a9.143 9.143 0 001.931.181c.96 0 1.931-.1 2.873-.148.984-.052 1.969-.1 2.953-.146a111.787 111.787 0 0013.784-1.15 16.444 16.444 0 003.546-.935 3.843 3.843 0 001.266-.735c.045-.046.156-.23.185-.23.007 0 .009.008.007.027a26.885 26.885 0 00-.237-6.482c-.23-2.522-.477-5.042-.629-7.57a57.39 57.39 0 01-.049-7.813 14.529 14.529 0 011.9-6.9 5.966 5.966 0 014.978-2.725 5.564 5.564 0 014.6 2.415 17.482 17.482 0 012.412 6.863c.489 2.6.824 5.225 1.2 7.842a31.293 31.293 0 001.6 7.374c.257.626.537 1.385 1.25 1.495a21.069 21.069 0 003.213.24h.33a20.363 20.363 0 007.336-1.319c.3-.124.734-.251.893-.532a2.137 2.137 0 00.136-.52c.13-.515.253-1.033.373-1.551 1.834-7.918 3.28-15.94 4.5-23.974.811-5.267 1.514-10.554 1.983-15.856z" fill="url(#linear-gradient-5)"/><path id="Path_570" data-name="Path 570" d="M4180.918 7426.137l.019.066.224.783z" fill="url(#linear-gradient-6)"/></g><path id="Path_571" data-name="Path 571" d="M4105.375 7401.156c8.921-3.7 20.362 1.375 20.648 11.758a28.315 28.315 0 00-3.607-5.306c-4.311-4.827-10.8-5.991-17.041-6.452z" fill="#fff"/><path id="Path_572" data-name="Path 572" d="M4168.869 7422.2a6.922 6.922 0 019.237 2.115 10.887 10.887 0 011.01 9.581c-.537-1.538-.917-3.006-1.391-4.385-1.426-4.567-3.975-6.878-8.856-7.311z" fill="#fff"/><path id="Path_573" data-name="Path 573" d="M4134 7494.993c2.463-1.144 5.038-1.449 7.326-2.649.212-.14.206-.143.3-.3.414-.983.132-2.736.056-3.942a27.635 27.635 0 01-.139-4.8c1.409 2.833 4.672 8.792 1.217 11.217a11.252 11.252 0 01-8.757.479z" fill="#fff"/><path id="Path_574" data-name="Path 574" d="M4164.771 7486.7c1.782-1.031 3.555-1.378 5.287-2.2a1.379 1.379 0 00.338-.255c1.212-1.327 1.424-3.905 2.3-5.714 1.1 2.644 1.479 6.616-1.433 8.262a8.034 8.034 0 01-6.489-.1z" fill="#fff"/></g><g id="Group_350" data-name="Group 350"><path id="Path_575" data-name="Path 575" d="M4108.5 7427.389v-.102c-.49-5.5-4.575-9.978-10.661-11.675a19.077 19.077 0 00-5.121-.719 16.057 16.057 0 00-3.5.375 9.523 9.523 0 00-3.926 1.752 15.272 15.272 0 00-3.475 4.1 20.268 20.268 0 00-4.706 6.518 60.936 60.936 0 00-3.163 7.381c-.5 1.387-.965 2.782-1.4 4.175-2.916-5.736-6.434-11.936-11.2-16.919-3.242-3.391-6.386-5.358-9.61-6.014a11.421 11.421 0 00-2.267-.228 13.818 13.818 0 00-7.569 2.444 37.25 37.25 0 00-8.328 7.968c-.318.4-.636.8-.955 1.214a60.465 60.465 0 00-2.295 2.686 73.964 73.964 0 00-1.58 2.04 7.638 7.638 0 00-.311-.95c-.029-.074-.058-.144-.078-.206a120.68 120.68 0 00-4.083-11.818 55.66 55.66 0 00-6.755-12.525 22.015 22.015 0 00-5.03-5.029 17.079 17.079 0 00-6.546-2.585 42.369 42.369 0 00-8.365-.758c-1.851 0-3.836.09-6.068.277a88.816 88.816 0 00-13.781 2.24 55.47 55.47 0 00-13.471 4.984 19.605 19.605 0 00-5.893 4.591 8.647 8.647 0 00-1.112 1.778 14.636 14.636 0 00-2.138 2.122 9.11 9.11 0 00-1.94 4.653 30.463 30.463 0 00.549 10.6c2.1 10.185 7.192 19.62 11.392 26.7a235.579 235.579 0 0016.334 23.476c3.278 4.25 6.284 7.912 9.19 11.195a57.865 57.865 0 0010.3 9.635 19.9 19.9 0 006.648 3.091 16.567 16.567 0 003.828.434 21.415 21.415 0 003.836-.365 41.824 41.824 0 0013.493-5.172 71.9 71.9 0 0013.281-10.278c.124.129.249.251.368.368.055.055.106.1.145.144.421.486.865.977 1.319 1.459a39.819 39.819 0 0014.663 10.289 27.238 27.238 0 009.251 1.72h.132a9.376 9.376 0 003.559-1 16.483 16.483 0 003.616-2.56 35.784 35.784 0 004.789-5.4 42.1 42.1 0 003.664-4.46 102.963 102.963 0 008.215-13.969 242.184 242.184 0 0012.97-30.7c1.195-3.494 2.073-6.4 2.763-9.13a26.666 26.666 0 001.022-7.847z"/><g id="Group_349" data-name="Group 349" clip-path="url(#clip-path-2)"><g id="Group_348" data-name="Group 348"><path id="Path_576" data-name="Path 576" d="M4048.122 7480.16q-.338.483-.683.96c-.128.177-.758.794-.745 1.01.018.307.8.976 1.026 1.231q.618.713 1.265 1.4a37.56 37.56 0 0013.692 9.64 24.737 24.737 0 008.4 1.552h.058a6.757 6.757 0 002.389-.718 14.2 14.2 0 003.048-2.172 34.89 34.89 0 004.835-5.55 99.874 99.874 0 008-13.617 239.17 239.17 0 0012.831-30.368c1-2.941 1.941-5.911 2.7-8.925a24.1 24.1 0 00.957-7.087c-.434-4.878-4.265-8.144-8.769-9.4a16.6 16.6 0 00-4.423-.623 13.473 13.473 0 00-2.931.312 7.04 7.04 0 00-2.88 1.254 17.643 17.643 0 00-4.235 5.87 59.276 59.276 0 00-3.028 7.072q-1.181 3.256-2.136 6.592-.456 1.594-.871 3.2a13.673 13.673 0 00-.642 2.627 8.656 8.656 0 00.52 2.1q.242.952.463 1.911c.317 1.369.595 2.747.843 4.13a58.88 58.88 0 01.867 6.2c-2.329-5.411-4.687-10.808-7.3-16.088-3.24-6.539-6.835-13.292-11.918-18.607-2.238-2.341-5-4.6-8.249-5.263a8.783 8.783 0 00-1.749-.176 11.368 11.368 0 00-6.151 2.023 34.52 34.52 0 00-7.723 7.423 92.949 92.949 0 00-6.425 9.177c-3.582 5.728-6.776 11.683-9.941 17.648a69.276 69.276 0 012.747-10.74q1.021-3.137 2.258-6.2.645-1.587 1.35-3.147a5.921 5.921 0 00.675-1.457 4.829 4.829 0 00-.4-1.387 118.5 118.5 0 00-4-11.578 52.626 52.626 0 00-6.421-11.941 19.767 19.767 0 00-4.433-4.457 14.785 14.785 0 00-5.58-2.176 40.027 40.027 0 00-7.855-.708c-1.96 0-3.919.106-5.851.268a85.978 85.978 0 00-13.376 2.174 53.156 53.156 0 00-12.845 4.74 16.833 16.833 0 00-5.116 3.941 6.6 6.6 0 00-1.392 3.4 28.131 28.131 0 00.522 9.7c1.9 9.221 6.315 17.862 11.082 25.9a232.405 232.405 0 0016.156 23.214c2.912 3.774 5.92 7.49 9.079 11.06a55.211 55.211 0 009.82 9.213 17.536 17.536 0 005.78 2.706 13.861 13.861 0 003.226.364 18.816 18.816 0 003.37-.322 39.377 39.377 0 0012.65-4.861c7.184-4.188 13.233-10.055 18.857-16.113a95.565 95.565 0 002.531-2.828 43.753 43.753 0 01-2.859 4.906q-.52.804-1.07 1.591z" fill="url(#linear-gradient-7)"/><path id="Path_577" data-name="Path 577" d="M3991.631 7405.263c8.157-4.476 19.042-1.948 23.776 6.3a21.387 21.387 0 012.9 8.293 40.986 40.986 0 00-5.914-8.662c-5.305-5.774-13.2-7.031-20.762-5.929z" fill="#fff"/><path id="Path_578" data-name="Path 578" d="M4091.141 7419.862c11.417-1.274 16.628 9.233 9.7 18.1a45.025 45.025 0 00.814-6.173c.48-6.906-4.645-9.907-10.512-11.925z" fill="#fff"/><path id="Path_579" data-name="Path 579" d="M4089.336 7466.881a76.493 76.493 0 01-7.4 14.337c-2.822 4.64-6.611 8.986-11.791 11.026l-.152-.211c.824-1.129 1.737-2.068 2.561-3.11 2.481-3.065 5.14-5.924 7.7-8.923a107.509 107.509 0 008.844-13.225l.237.106z" fill="#fff"/><path id="Path_580" data-name="Path 580" d="M4052.865 7423.112a6.211 6.211 0 014.946 2.656 17.791 17.791 0 012.42 5.085 13.55 13.55 0 01.436 3.629l-.258.034a16.329 16.329 0 00-3.321-5.909 17.774 17.774 0 01-4.347-5.267l.124-.228z" fill="#fff"/></g></g></g></g></svg>