<svg xmlns="http://www.w3.org/2000/svg" xmlns:xlink="http://www.w3.org/1999/xlink" width="25.79" height="25.791" viewBox="0 0 25.79 25.791">
  <defs>
    <clipPath id="clip-path">
      <path id="Path_2882" data-name="Path 2882" d="M6729.914,2759.348c.1.2.19.4.276.6q.041.1.081.194c.04.1.077.2.113.293a11.375,11.375,0,0,1,.709,3.6q.011.324,0,.648c0,.146-.01.293-.019.439h0a11.551,11.551,0,0,1-2.142,6.009h0a11.407,11.407,0,0,1-1.928,2.077h0a11.517,11.517,0,0,1-2.308,1.5q-.323.159-.651.3h-.006a11.392,11.392,0,0,1-5.21.859h0a11.52,11.52,0,0,1-4.064-1.052q-.5-.235-.982-.518-.335-.2-.655-.416l-.069-.048q-.231-.16-.455-.333a11.391,11.391,0,0,1-2.665-2.924c-.054-.085-.107-.17-.159-.257q-.135-.224-.26-.457c-.024-.043-.047-.087-.07-.132-.041-.078-.081-.157-.12-.237a11.53,11.53,0,0,1-.465-1.078c-.032-.085-.062-.169-.092-.254a11.4,11.4,0,0,1-.571-4.884c.009-.093.019-.185.031-.277.018-.15.04-.3.065-.448.036-.219.079-.437.127-.652.018-.082.038-.164.058-.247q.128-.516.3-1.018a11.527,11.527,0,0,1,.9-1.96,11.354,11.354,0,0,1,1.225-1.729c.18-.212.37-.417.567-.615l0,0a11.435,11.435,0,0,1,3.064-2.2,11.6,11.6,0,0,1,1.652-.663c.3-.094.6-.176.9-.243a11.274,11.274,0,0,1,1.6-.244c.111-.009.223-.017.334-.022l.178-.007.144,0c.184,0,.366,0,.548,0h0q.486.013.965.065.423.047.842.126.541.1,1.07.252.486.139.959.321c.093.036.186.073.278.112h0a11.423,11.423,0,0,1,1.04.493c.082.044.165.09.247.136l.1.06c.067.039.134.079.2.119a11.42,11.42,0,0,1,2.016,1.565c.109.107.216.215.322.327q.307.323.59.673.2.242.38.5.256.352.485.729Q6729.679,2758.872,6729.914,2759.348Z" transform="translate(-6708.149 -2752.948)" fill="#618400"/>
    </clipPath>
  </defs>
  <g id="Group_7366" data-name="Group 7366" transform="translate(-6703.649 -2748.45)">
    <g id="Group_1295" data-name="Group 1295" transform="translate(6703.649 2748.45)">
      <g id="Group_1283" data-name="Group 1283">
        <circle id="Ellipse_44" data-name="Ellipse 44" cx="12.734" cy="12.734" r="12.734" transform="translate(0.161 0.161)"/>
        <path id="Path_2839" data-name="Path 2839" d="M6716.545,2748.772a12.573,12.573,0,1,1-12.574,12.573,12.573,12.573,0,0,1,12.574-12.573m0-.322a12.9,12.9,0,1,0,12.895,12.9,12.909,12.909,0,0,0-12.895-12.9Z" transform="translate(-6703.649 -2748.45)" fill="#fff"/>
      </g>
      <g id="Group_1294" data-name="Group 1294" transform="translate(1.419 1.419)">
        <g id="Group_1293" data-name="Group 1293" transform="translate(0 0)">
          <path id="Path_2840" data-name="Path 2840" d="M6729.914,2759.348c.1.2.19.4.276.6q.041.1.081.194c.04.1.077.2.113.293a11.375,11.375,0,0,1,.709,3.6q.011.324,0,.648c0,.146-.01.293-.019.439h0a11.551,11.551,0,0,1-2.142,6.009h0a11.407,11.407,0,0,1-1.928,2.077h0a11.517,11.517,0,0,1-2.308,1.5q-.323.159-.651.3h-.006a11.392,11.392,0,0,1-5.21.859h0a11.52,11.52,0,0,1-4.064-1.052q-.5-.235-.982-.518-.335-.2-.655-.416l-.069-.048q-.231-.16-.455-.333a11.391,11.391,0,0,1-2.665-2.924c-.054-.085-.107-.17-.159-.257q-.135-.224-.26-.457c-.024-.043-.047-.087-.07-.132-.041-.078-.081-.157-.12-.237a11.53,11.53,0,0,1-.465-1.078c-.032-.085-.062-.169-.092-.254a11.4,11.4,0,0,1-.571-4.884c.009-.093.019-.185.031-.277.018-.15.04-.3.065-.448.036-.219.079-.437.127-.652.018-.082.038-.164.058-.247q.128-.516.3-1.018a11.527,11.527,0,0,1,.9-1.96,11.354,11.354,0,0,1,1.225-1.729c.18-.212.37-.417.567-.615l0,0a11.435,11.435,0,0,1,3.064-2.2,11.6,11.6,0,0,1,1.652-.663c.3-.094.6-.176.9-.243a11.274,11.274,0,0,1,1.6-.244c.111-.009.223-.017.334-.022l.178-.007.144,0c.184,0,.366,0,.548,0h0q.486.013.965.065.423.047.842.126.541.1,1.07.252.486.139.959.321c.093.036.186.073.278.112h0a11.423,11.423,0,0,1,1.04.493c.082.044.165.09.247.136l.1.06c.067.039.134.079.2.119a11.42,11.42,0,0,1,2.016,1.565c.109.107.216.215.322.327q.307.323.59.673.2.242.38.5.256.352.485.729Q6729.679,2758.872,6729.914,2759.348Z" transform="translate(-6708.149 -2752.948)" fill="#618400"/>
          <g id="Group_1292" data-name="Group 1292" clip-path="url(#clip-path)">
            <g id="Group_1287" data-name="Group 1287" transform="translate(-417.769 -0.173)">
              <g id="Group_1284" data-name="Group 1284" transform="translate(0.1 0.299)">
                <path id="Path_2841" data-name="Path 2841" d="M5450.769,2768.87l.029.043.055-.054Z" transform="translate(-5429.871 -2763.964)" fill="#f14617"/>
                <path id="Path_2842" data-name="Path 2842" d="M5424.109,2806.1c-1,.655-2.1,1.323-3.3,1.991-.6.333-1.217.669-1.86,1s-1.309.649-2,.942a18.946,18.946,0,0,1-2.157.772,14.09,14.09,0,0,1-1.717.382q.544.117,1.1.181c.242-.046.483-.1.722-.148.771-.17,1.529-.365,2.268-.58s1.459-.458,2.153-.725a21.754,21.754,0,0,0,1.991-.882,20.274,20.274,0,0,0,1.795-1.023,17.613,17.613,0,0,0,1.461-1.038,11.514,11.514,0,0,0,1.281-2.1c-.109.084-.22.168-.333.251C5425.08,2805.444,5424.607,2805.767,5424.109,2806.1Z" transform="translate(-5404.073 -2788.61)" fill="#f14617"/>
                <path id="Path_2843" data-name="Path 2843" d="M5411.857,2789.348c-.471.3-.973.594-1.5.9s-1.077.62-1.648.944-1.165.652-1.778.986-1.246.676-1.9,1.018-1.323.682-2.017,1.007a21.412,21.412,0,0,1-4.444,1.564q-.587.13-1.186.212c-.2.025-.4.047-.6.063l-.145.009c-.151.008-.3.014-.454.014-.168,0-.336-.006-.5-.021-.085-.007-.169-.016-.252-.028.065.063.131.126.2.188.12.11.242.218.366.322l.2-.011.215-.016c.347-.029.688-.077,1.025-.134.408-.067.81-.152,1.208-.241.8-.182,1.575-.4,2.343-.619s1.521-.458,2.26-.7,1.459-.508,2.156-.785,1.368-.577,2.009-.894a24.862,24.862,0,0,0,3.462-2.062c.509-.364.981-.736,1.418-1.1s.836-.734,1.2-1.088a17.712,17.712,0,0,0,1.368-1.477c0-.118-.009-.237-.017-.356a11.432,11.432,0,0,1-1.685,1.436C5412.769,2788.762,5412.33,2789.055,5411.857,2789.348Z" transform="translate(-5391.999 -2776.405)" fill="#f14617"/>
                <path id="Path_2844" data-name="Path 2844" d="M5409.174,2775.419q-.284.24-.63.491c-.16.116-.329.235-.506.353-.317.213-.663.43-1.034.648-.438.26-.911.526-1.414.8s-1.033.552-1.585.845l-1.411.747q-1.038.551-2.156,1.149l-1.946,1.045c-.665.357-1.347.717-2.049,1.07-.405.2-.818.4-1.238.595a27.689,27.689,0,0,1-3.228,1.257c-.163.051-.326.1-.49.149a16.708,16.708,0,0,1-1.748.421l-.162.028a8.2,8.2,0,0,1-1,.108c.009.018.02.036.029.054q.12.223.249.439l.179-.029c.111-.019.221-.041.331-.063s.2-.043.3-.065c.4-.093.794-.2,1.184-.311.418-.12.831-.249,1.241-.381.66-.214,1.311-.438,1.954-.662l.383-.134q1.153-.4,2.271-.813c.744-.274,1.473-.555,2.179-.845l.145-.06q.982-.41,1.9-.854.759-.368,1.466-.754c.749-.408,1.454-.829,2.108-1.255.408-.265.8-.533,1.166-.8l.335-.244c.467-.346.9-.683,1.3-1.008.509-.415.969-.805,1.372-1.168.1-.088.193-.175.284-.26q.188-.173.355-.338l.064-.064-.021-.055c-.019-.046-.038-.093-.058-.139C5409.257,2775.349,5409.216,2775.384,5409.174,2775.419Z" transform="translate(-5387.305 -2768.382)" fill="#f14617"/>
                <path id="Path_2845" data-name="Path 2845" d="M5386.842,2779.29a17.308,17.308,0,0,0,2.47-.524q.275-.078.547-.16c.613-.184,1.216-.386,1.81-.6q1.153-.409,2.253-.863c.191-.078.381-.158.568-.239,1.257-.535,2.451-1.107,3.567-1.7.321-.168.635-.341.943-.511.292-.161.577-.321.855-.484l.05-.03c.59-.343,1.148-.7,1.674-1.046s1.019-.7,1.479-1.047l.069-.052c.433-.328.836-.647,1.21-.955a23.2,23.2,0,0,0,1.938-1.769l.119-.126.006-.008-.01,0c-.034-.052-.067-.1-.1-.155q-.082.08-.172.162l-.085.076a15.144,15.144,0,0,1-2,1.448c-.853.533-1.851,1.081-2.943,1.663q-.405.217-.829.439l-.879.459-.9.466c-.306.157-.62.312-.937.47-1.271.627-2.619,1.271-4.03,1.9q-.254.113-.512.224c-1.254.543-2.558,1.064-3.9,1.5-.292.094-.585.187-.879.273-.471.138-.944.263-1.415.362-.234.049-.469.091-.7.118-.124.015-.248.026-.367.03.026.09.053.179.081.268q.075.236.16.471c.212,0,.421-.019.629-.04C5386.689,2779.308,5386.766,2779.3,5386.842,2779.29Z" transform="translate(-5385.363 -2764.082)" fill="#f14617"/>
                <path id="Path_2846" data-name="Path 2846" d="M5390.965,2757.787c1.167-.655,2.322-1.247,3.427-1.788.277-.134.549-.267.82-.393s.538-.248.8-.369c.528-.238,1.038-.468,1.531-.681s.967-.415,1.423-.6c.359-.143.707-.275,1.041-.391q-.547-.138-1.105-.221c-.5.125-1.036.275-1.585.451-.526.17-1.071.363-1.626.584-.278.109-.559.227-.843.349s-.572.246-.861.38a36.711,36.711,0,0,0-3.546,1.86c-.6.355-1.192.734-1.783,1.135-.512.349-1.021.715-1.518,1.1a11.545,11.545,0,0,0-.739,1.66c.351-.309.729-.6,1.113-.889A32.593,32.593,0,0,1,5390.965,2757.787Z" transform="translate(-5385.814 -2753.347)" fill="#f14617"/>
                <path id="Path_2847" data-name="Path 2847" d="M5385.384,2766.819a15.969,15.969,0,0,0,2.112-.435c.692-.184,1.371-.393,2.042-.606l.071-.023c.645-.207,1.282-.423,1.907-.645.647-.231,1.282-.473,1.9-.725l.142-.059q.846-.356,1.637-.745l.033-.016q.836-.414,1.6-.855t1.462-.919c.457-.31.882-.624,1.275-.932l.09-.072q.537-.428,1-.835a15.637,15.637,0,0,0,1.478-1.482l-.152-.095a10.819,10.819,0,0,1-1.617,1.292c-.36.245-.753.493-1.174.745s-.866.509-1.333.775q-.642.364-1.336.746l-.126.07q-.76.42-1.577.859c-.543.291-1.1.591-1.679.891s-1.146.589-1.745.874l-.038.019a22.032,22.032,0,0,1-3.888,1.455,10.955,10.955,0,0,1-2.032.353,4.106,4.106,0,0,1-.83-.024c-.022.145-.042.291-.057.436q.151.005.3,0C5385.023,2766.857,5385.2,2766.841,5385.384,2766.819Z" transform="translate(-5384.542 -2756.788)" fill="#f14617"/>
              </g>
              <g id="Group_1285" data-name="Group 1285">
                <path id="Path_2848" data-name="Path 2848" d="M5428.006,2810.024a11.38,11.38,0,0,1-1.928,2.077h0q-.724.506-1.459.957t-1.5.844h-.006a11.4,11.4,0,0,1-5.21.859l.351-.12c1.207-.421,2.5-.924,3.843-1.5.673-.292,1.363-.6,2.061-.931s1.405-.69,2.106-1.087C5426.854,2810.788,5427.438,2810.424,5428.006,2810.024Z" transform="translate(-5407.276 -2791.841)" fill="#ff6229"/>
                <path id="Path_2849" data-name="Path 2849" d="M5416.66,2787.531q.011.325,0,.648c-.1.1-.2.189-.3.282-.323.3-.657.589-.993.87-.674.557-1.365,1.08-2.054,1.588s-1.382.994-2.072,1.462-1.383.909-2.074,1.321-1.382.786-2.07,1.125a26.631,26.631,0,0,1-4.011,1.6c-.642.195-1.266.354-1.863.485s-1.169.232-1.708.313q-.464.067-.894.112-.231-.16-.454-.333c.389-.083.8-.19,1.228-.322.51-.152,1.045-.335,1.6-.546s1.14-.439,1.744-.686,1.229-.512,1.877-.785,1.314-.566,2-.869,1.387-.618,2.1-.949,1.443-.679,2.172-1.058a22.939,22.939,0,0,0,4.228-2.759q.494-.414.954-.87c.151-.153.3-.309.443-.468.035-.039.069-.078.1-.118Z" transform="translate(-5393.772 -2776.446)" fill="#ff6229"/>
                <path id="Path_2850" data-name="Path 2850" d="M5409.63,2774.592c.027.064.054.129.081.194.04.1.078.2.113.293l-.022.018c-.34.279-.686.545-1.036.8-.375.277-.753.544-1.133.806-.612.422-1.228.828-1.837,1.229l-.364.239q-1.1.717-2.173,1.4c-.718.454-1.432.89-2.139,1.3l-.146.083c-.659.379-1.314.733-1.964,1.058q-.808.405-1.6.754c-.836.371-1.653.7-2.442.974-.492.174-.972.329-1.439.47l-.426.126c-.6.171-1.169.321-1.708.451-.685.163-1.317.3-1.889.4l-.126.023c-.054-.085-.107-.17-.159-.257l.149-.043c.2-.061.414-.127.631-.2.387-.131.8-.283,1.225-.456.507-.2,1.041-.431,1.6-.682s1.144-.518,1.753-.8l1.556-.713q1.146-.523,2.383-1.084l2.158-.973c.737-.333,1.488-.678,2.245-1.045q.657-.317,1.314-.664a29.71,29.71,0,0,0,3.173-1.924q.223-.157.445-.319a18,18,0,0,0,1.5-1.212l.13-.119Z" transform="translate(-5387.647 -2767.589)" fill="#ff6229"/>
                <path id="Path_2851" data-name="Path 2851" d="M5406.666,2768.19l-.058.059a18.4,18.4,0,0,1-2.057,1.759c-.164.123-.328.242-.493.361-.557.4-1.121.782-1.686,1.15q-1.1.713-2.2,1.353-.286.167-.573.328c-1.274.719-2.539,1.361-3.769,1.926-.353.164-.7.318-1.05.469-.326.143-.648.281-.969.411l-.058.023c-.677.278-1.34.522-1.981.741s-1.262.407-1.855.574l-.089.024c-.562.155-1.1.289-1.6.406-.772.177-1.474.313-2.1.406-.032-.084-.062-.169-.092-.254a17.918,17.918,0,0,0,2.074-.657c1.01-.377,2.126-.868,3.333-1.417q.449-.2.914-.419l.964-.448.985-.463c.333-.158.669-.324,1.011-.49,1.361-.671,2.787-1.4,4.239-2.19q.261-.142.525-.289c1.279-.712,2.572-1.481,3.814-2.335q.407-.279.807-.57c.425-.31.839-.631,1.229-.967.084-.073.168-.147.25-.222Q5406.437,2767.814,5406.666,2768.19Z" transform="translate(-5385.464 -2762.709)" fill="#ff6229"/>
                <path id="Path_2852" data-name="Path 2852" d="M5400.954,2752.6a35.576,35.576,0,0,0-3.917,1.446c-1.318.565-2.575,1.16-3.755,1.747-.295.148-.585.294-.869.441s-.563.3-.837.44c-.546.293-1.074.578-1.577.858q-.556.309-1.071.606a11.435,11.435,0,0,1,1.225-1.729c.292-.19.595-.38.908-.566.274-.166.559-.327.847-.489s.583-.326.885-.484a39.346,39.346,0,0,1,3.893-1.8c.577-.23,1.167-.449,1.77-.654l.144,0c.183,0,.366,0,.548,0h0q.485.012.965.065Q5400.535,2752.516,5400.954,2752.6Z" transform="translate(-5387.443 -2752.401)" fill="#ff6229"/>
                <path id="Path_2853" data-name="Path 2853" d="M5401.435,2756.949l-.052.054a17.134,17.134,0,0,1-1.747,1.512c-.608.468-1.229.909-1.847,1.34l-.066.046c-.6.414-1.2.814-1.792,1.2q-.928.6-1.854,1.14l-.143.082q-.854.488-1.7.906l-.035.017q-.9.442-1.77.8-.889.364-1.734.643c-.562.186-1.106.343-1.625.476l-.12.03c-.476.118-.93.219-1.359.3-.489.092-.945.165-1.363.215.009-.093.019-.185.031-.277.4-.094.826-.218,1.279-.37s.91-.319,1.4-.512,1-.4,1.529-.628c.485-.2.988-.423,1.505-.65l.143-.062q.853-.373,1.758-.78c.6-.272,1.221-.552,1.853-.846s1.248-.589,1.879-.913l.042-.021a23.518,23.518,0,0,0,3.772-2.356,11.747,11.747,0,0,0,1.626-1.5l.042-.049c.083.044.165.09.247.136Z" transform="translate(-5384.226 -2755.38)" fill="#ff6229"/>
              </g>
              <g id="Group_1286" data-name="Group 1286" transform="translate(0.1 0.299)">
                <path id="Path_2854" data-name="Path 2854" d="M5450.769,2768.87l.029.043.055-.054Z" transform="translate(-5429.871 -2763.964)" fill="#f14617"/>
                <path id="Path_2855" data-name="Path 2855" d="M5424.109,2806.1c-1,.655-2.1,1.323-3.3,1.991-.6.333-1.217.669-1.86,1s-1.309.649-2,.942a18.946,18.946,0,0,1-2.157.772,14.09,14.09,0,0,1-1.717.382q.544.117,1.1.181c.242-.046.483-.1.722-.148.771-.17,1.529-.365,2.268-.58s1.459-.458,2.153-.725a21.754,21.754,0,0,0,1.991-.882,20.274,20.274,0,0,0,1.795-1.023,17.613,17.613,0,0,0,1.461-1.038,11.514,11.514,0,0,0,1.281-2.1c-.109.084-.22.168-.333.251C5425.08,2805.444,5424.607,2805.767,5424.109,2806.1Z" transform="translate(-5404.073 -2788.61)" fill="#f14617"/>
                <path id="Path_2856" data-name="Path 2856" d="M5411.857,2789.348c-.471.3-.973.594-1.5.9s-1.077.62-1.648.944-1.165.652-1.778.986-1.246.676-1.9,1.018-1.323.682-2.017,1.007a21.412,21.412,0,0,1-4.444,1.564q-.587.13-1.186.212c-.2.025-.4.047-.6.063l-.145.009c-.151.008-.3.014-.454.014-.168,0-.336-.006-.5-.021-.085-.007-.169-.016-.252-.028.065.063.131.126.2.188.12.11.242.218.366.322l.2-.011.215-.016c.347-.029.688-.077,1.025-.134.408-.067.81-.152,1.208-.241.8-.182,1.575-.4,2.343-.619s1.521-.458,2.26-.7,1.459-.508,2.156-.785,1.368-.577,2.009-.894a24.862,24.862,0,0,0,3.462-2.062c.509-.364.981-.736,1.418-1.1s.836-.734,1.2-1.088a17.712,17.712,0,0,0,1.368-1.477c0-.118-.009-.237-.017-.356a11.432,11.432,0,0,1-1.685,1.436C5412.769,2788.762,5412.33,2789.055,5411.857,2789.348Z" transform="translate(-5391.999 -2776.405)" fill="#f14617"/>
                <path id="Path_2857" data-name="Path 2857" d="M5409.174,2775.419q-.284.24-.63.491c-.16.116-.329.235-.506.353-.317.213-.663.43-1.034.648-.438.26-.911.526-1.414.8s-1.033.552-1.585.845l-1.411.747q-1.038.551-2.156,1.149l-1.946,1.045c-.665.357-1.347.717-2.049,1.07-.405.2-.818.4-1.238.595a27.689,27.689,0,0,1-3.228,1.257c-.163.051-.326.1-.49.149a16.708,16.708,0,0,1-1.748.421l-.162.028a8.2,8.2,0,0,1-1,.108c.009.018.02.036.029.054q.12.223.249.439l.179-.029c.111-.019.221-.041.331-.063s.2-.043.3-.065c.4-.093.794-.2,1.184-.311.418-.12.831-.249,1.241-.381.66-.214,1.311-.438,1.954-.662l.383-.134q1.153-.4,2.271-.813c.744-.274,1.473-.555,2.179-.845l.145-.06q.982-.41,1.9-.854.759-.368,1.466-.754c.749-.408,1.454-.829,2.108-1.255.408-.265.8-.533,1.166-.8l.335-.244c.467-.346.9-.683,1.3-1.008.509-.415.969-.805,1.372-1.168.1-.088.193-.175.284-.26q.188-.173.355-.338l.064-.064-.021-.055c-.019-.046-.038-.093-.058-.139C5409.257,2775.349,5409.216,2775.384,5409.174,2775.419Z" transform="translate(-5387.305 -2768.382)" fill="#f14617"/>
                <path id="Path_2858" data-name="Path 2858" d="M5386.842,2779.29a17.308,17.308,0,0,0,2.47-.524q.275-.078.547-.16c.613-.184,1.216-.386,1.81-.6q1.153-.409,2.253-.863c.191-.078.381-.158.568-.239,1.257-.535,2.451-1.107,3.567-1.7.321-.168.635-.341.943-.511.292-.161.577-.321.855-.484l.05-.03c.59-.343,1.148-.7,1.674-1.046s1.019-.7,1.479-1.047l.069-.052c.433-.328.836-.647,1.21-.955a23.2,23.2,0,0,0,1.938-1.769l.119-.126.006-.008-.01,0c-.034-.052-.067-.1-.1-.155q-.082.08-.172.162l-.085.076a15.144,15.144,0,0,1-2,1.448c-.853.533-1.851,1.081-2.943,1.663q-.405.217-.829.439l-.879.459-.9.466c-.306.157-.62.312-.937.47-1.271.627-2.619,1.271-4.03,1.9q-.254.113-.512.224c-1.254.543-2.558,1.064-3.9,1.5-.292.094-.585.187-.879.273-.471.138-.944.263-1.415.362-.234.049-.469.091-.7.118-.124.015-.248.026-.367.03.026.09.053.179.081.268q.075.236.16.471c.212,0,.421-.019.629-.04C5386.689,2779.308,5386.766,2779.3,5386.842,2779.29Z" transform="translate(-5385.363 -2764.082)" fill="#f14617"/>
                <path id="Path_2859" data-name="Path 2859" d="M5390.965,2757.787c1.167-.655,2.322-1.247,3.427-1.788.277-.134.549-.267.82-.393s.538-.248.8-.369c.528-.238,1.038-.468,1.531-.681s.967-.415,1.423-.6c.359-.143.707-.275,1.041-.391q-.547-.138-1.105-.221c-.5.125-1.036.275-1.585.451-.526.17-1.071.363-1.626.584-.278.109-.559.227-.843.349s-.572.246-.861.38a36.711,36.711,0,0,0-3.546,1.86c-.6.355-1.192.734-1.783,1.135-.512.349-1.021.715-1.518,1.1a11.545,11.545,0,0,0-.739,1.66c.351-.309.729-.6,1.113-.889A32.593,32.593,0,0,1,5390.965,2757.787Z" transform="translate(-5385.814 -2753.347)" fill="#f14617"/>
                <path id="Path_2860" data-name="Path 2860" d="M5385.384,2766.819a15.969,15.969,0,0,0,2.112-.435c.692-.184,1.371-.393,2.042-.606l.071-.023c.645-.207,1.282-.423,1.907-.645.647-.231,1.282-.473,1.9-.725l.142-.059q.846-.356,1.637-.745l.033-.016q.836-.414,1.6-.855t1.462-.919c.457-.31.882-.624,1.275-.932l.09-.072q.537-.428,1-.835a15.637,15.637,0,0,0,1.478-1.482l-.152-.095a10.819,10.819,0,0,1-1.617,1.292c-.36.245-.753.493-1.174.745s-.866.509-1.333.775q-.642.364-1.336.746l-.126.07q-.76.42-1.577.859c-.543.291-1.1.591-1.679.891s-1.146.589-1.745.874l-.038.019a22.032,22.032,0,0,1-3.888,1.455,10.955,10.955,0,0,1-2.032.353,4.106,4.106,0,0,1-.83-.024c-.022.145-.042.291-.057.436q.151.005.3,0C5385.023,2766.857,5385.2,2766.841,5385.384,2766.819Z" transform="translate(-5384.542 -2756.788)" fill="#f14617"/>
              </g>
            </g>
            <g id="Group_1291" data-name="Group 1291" transform="translate(-0.027 -0.173)">
              <g id="Group_1288" data-name="Group 1288" transform="translate(0.1 0.299)">
                <path id="Path_2861" data-name="Path 2861" d="M6774.6,2768.87l.029.043.055-.054Z" transform="translate(-6753.707 -2763.964)" fill="#f14617"/>
                <path id="Path_2862" data-name="Path 2862" d="M6747.945,2806.1c-1,.655-2.1,1.323-3.3,1.991-.6.333-1.217.669-1.86,1s-1.31.649-2,.942a18.9,18.9,0,0,1-2.157.772,14.09,14.09,0,0,1-1.717.382q.545.117,1.1.181c.242-.046.482-.1.722-.148.771-.17,1.528-.365,2.268-.58s1.458-.458,2.153-.725,1.359-.562,1.991-.882a20.274,20.274,0,0,0,1.795-1.023,17.778,17.778,0,0,0,1.461-1.038,11.514,11.514,0,0,0,1.281-2.1c-.109.084-.22.168-.333.251C6748.916,2805.444,6748.443,2805.767,6747.945,2806.1Z" transform="translate(-6727.909 -2788.61)" fill="#f14617"/>
                <path id="Path_2863" data-name="Path 2863" d="M6735.693,2789.348c-.47.3-.973.594-1.5.9s-1.077.62-1.648.944-1.165.652-1.778.986-1.246.676-1.9,1.018-1.323.682-2.017,1.007a21.406,21.406,0,0,1-4.445,1.564q-.587.13-1.186.212c-.2.025-.4.047-.6.063l-.146.009c-.151.008-.3.014-.453.014-.169,0-.337-.006-.5-.021-.085-.007-.168-.016-.251-.028.064.063.131.126.2.188.12.11.242.218.366.322l.205-.011.215-.016c.347-.029.688-.077,1.025-.134.408-.067.81-.152,1.208-.241.8-.182,1.575-.4,2.342-.619s1.521-.458,2.26-.7,1.459-.508,2.156-.785,1.368-.577,2.009-.894a24.862,24.862,0,0,0,3.462-2.062c.509-.364.981-.736,1.417-1.1s.836-.734,1.2-1.088a17.966,17.966,0,0,0,1.368-1.477c0-.118-.009-.237-.017-.356a11.413,11.413,0,0,1-1.685,1.436C6736.605,2788.762,6736.166,2789.055,6735.693,2789.348Z" transform="translate(-6715.835 -2776.405)" fill="#f14617"/>
                <path id="Path_2864" data-name="Path 2864" d="M6733.01,2775.419q-.284.24-.63.491c-.159.116-.328.235-.506.353-.317.213-.663.43-1.034.648-.437.26-.91.526-1.413.8s-1.033.552-1.585.845l-1.411.747q-1.038.551-2.156,1.149l-1.946,1.045c-.665.357-1.347.717-2.049,1.07-.406.2-.818.4-1.238.595a27.656,27.656,0,0,1-3.228,1.257c-.162.051-.325.1-.489.149a16.746,16.746,0,0,1-1.749.421l-.162.028a8.209,8.209,0,0,1-1,.108c.009.018.019.036.029.054.081.149.163.3.249.439l.178-.029c.111-.019.222-.041.331-.063l.3-.065c.4-.093.794-.2,1.184-.311.418-.12.831-.249,1.241-.381.66-.214,1.31-.438,1.955-.662l.383-.134q1.153-.4,2.271-.813c.744-.274,1.473-.555,2.179-.845l.144-.06c.655-.273,1.29-.557,1.9-.854q.759-.368,1.466-.754c.75-.408,1.455-.829,2.108-1.255.408-.265.8-.533,1.166-.8.114-.082.225-.163.335-.244.467-.346.9-.683,1.3-1.008.51-.415.969-.805,1.373-1.168.1-.088.194-.175.285-.26q.188-.173.355-.338l.064-.064-.022-.055c-.019-.046-.038-.093-.058-.139C6733.093,2775.349,6733.052,2775.384,6733.01,2775.419Z" transform="translate(-6711.141 -2768.382)" fill="#f14617"/>
                <path id="Path_2865" data-name="Path 2865" d="M6710.678,2779.29a17.287,17.287,0,0,0,2.47-.524q.275-.078.548-.16c.613-.184,1.216-.386,1.81-.6q1.154-.409,2.254-.863c.191-.078.381-.158.568-.239,1.256-.535,2.45-1.107,3.566-1.7.321-.168.635-.341.944-.511.292-.161.577-.321.855-.484l.05-.03c.59-.343,1.147-.7,1.674-1.046s1.019-.7,1.479-1.047l.069-.052c.433-.328.836-.647,1.21-.955a23.108,23.108,0,0,0,1.937-1.769c.041-.042.08-.085.119-.126l.007-.008-.01,0c-.034-.052-.067-.1-.1-.155-.055.053-.112.107-.172.162l-.085.076a15.136,15.136,0,0,1-2,1.448c-.853.533-1.851,1.081-2.943,1.663q-.405.217-.829.439l-.879.459-.9.466c-.306.157-.62.312-.937.47-1.271.627-2.619,1.271-4.03,1.9q-.254.113-.512.224c-1.254.543-2.558,1.064-3.9,1.5-.292.094-.585.187-.879.273-.471.138-.944.263-1.414.362-.234.049-.47.091-.7.118-.124.015-.248.026-.367.03.026.09.053.179.081.268q.075.236.16.471c.212,0,.422-.019.629-.04C6710.525,2779.308,6710.6,2779.3,6710.678,2779.29Z" transform="translate(-6709.199 -2764.082)" fill="#f14617"/>
                <path id="Path_2866" data-name="Path 2866" d="M6714.8,2757.787c1.167-.655,2.322-1.247,3.427-1.788.276-.134.55-.267.82-.393s.538-.248.8-.369c.527-.238,1.038-.468,1.53-.681s.968-.415,1.423-.6c.359-.143.706-.275,1.04-.391a11.242,11.242,0,0,0-1.1-.221c-.5.125-1.035.275-1.585.451-.526.17-1.071.363-1.626.584-.278.109-.559.227-.843.349s-.572.246-.861.38a36.654,36.654,0,0,0-3.546,1.86c-.6.355-1.192.734-1.783,1.135-.512.349-1.021.715-1.518,1.1a11.491,11.491,0,0,0-.739,1.66c.351-.309.729-.6,1.113-.889A32.593,32.593,0,0,1,6714.8,2757.787Z" transform="translate(-6709.65 -2753.347)" fill="#f14617"/>
                <path id="Path_2867" data-name="Path 2867" d="M6709.22,2766.819a15.969,15.969,0,0,0,2.112-.435c.692-.184,1.371-.393,2.042-.606l.071-.023c.645-.207,1.282-.423,1.907-.645.648-.231,1.282-.473,1.9-.725l.142-.059q.846-.356,1.637-.745l.033-.016q.837-.414,1.6-.855t1.462-.919c.456-.31.882-.624,1.275-.932l.09-.072q.537-.428,1-.835a15.579,15.579,0,0,0,1.478-1.482l-.151-.095a10.844,10.844,0,0,1-1.617,1.292c-.36.245-.753.493-1.174.745s-.867.509-1.333.775q-.642.364-1.337.746l-.126.07q-.76.42-1.577.859c-.543.291-1.1.591-1.679.891s-1.146.589-1.744.874l-.038.019a22.047,22.047,0,0,1-3.888,1.455,10.967,10.967,0,0,1-2.032.353,4.107,4.107,0,0,1-.83-.024c-.022.145-.042.291-.057.436.1,0,.2,0,.3,0C6708.859,2766.857,6709.04,2766.841,6709.22,2766.819Z" transform="translate(-6708.378 -2756.788)" fill="#f14617"/>
              </g>
              <g id="Group_1289" data-name="Group 1289">
                <path id="Path_2868" data-name="Path 2868" d="M6751.842,2810.024a11.38,11.38,0,0,1-1.928,2.077h0q-.724.506-1.459.957t-1.5.844h-.007a11.394,11.394,0,0,1-5.209.859l.35-.12c1.207-.421,2.5-.924,3.843-1.5.673-.292,1.364-.6,2.061-.931s1.405-.69,2.106-1.087C6750.689,2810.788,6751.273,2810.424,6751.842,2810.024Z" transform="translate(-6731.112 -2791.841)" fill="#1e6e12"/>
                <path id="Path_2869" data-name="Path 2869" d="M6740.5,2787.531q.011.325,0,.648c-.1.1-.2.189-.295.282-.323.3-.657.589-.993.87-.674.557-1.365,1.08-2.055,1.588s-1.382.994-2.072,1.462-1.383.909-2.074,1.321-1.382.786-2.07,1.125a26.606,26.606,0,0,1-4.011,1.6c-.642.195-1.266.354-1.863.485s-1.169.232-1.708.313q-.464.067-.895.112c-.154-.107-.306-.218-.454-.333.389-.083.8-.19,1.228-.322.51-.152,1.044-.335,1.6-.546s1.139-.439,1.744-.686,1.229-.512,1.876-.785,1.314-.566,2-.869,1.387-.618,2.1-.949,1.443-.679,2.172-1.058a22.935,22.935,0,0,0,4.227-2.759q.5-.414.955-.87c.151-.153.3-.309.443-.468.035-.039.069-.078.1-.118Z" transform="translate(-6717.608 -2776.446)" fill="#1e6e12"/>
                <path id="Path_2870" data-name="Path 2870" d="M6733.467,2774.592c.027.064.054.129.08.194q.06.146.113.293l-.021.018c-.34.279-.687.545-1.036.8-.375.277-.754.544-1.134.806-.612.422-1.228.828-1.837,1.229l-.364.239q-1.1.717-2.173,1.4c-.718.454-1.432.89-2.14,1.3l-.146.083c-.659.379-1.314.733-1.964,1.058q-.808.405-1.6.754c-.836.371-1.653.7-2.442.974-.492.174-.972.329-1.439.47l-.425.126c-.6.171-1.169.321-1.708.451-.686.163-1.317.3-1.889.4l-.127.023c-.054-.085-.107-.17-.158-.257l.149-.043c.2-.061.414-.127.631-.2.387-.131.8-.283,1.225-.456.506-.2,1.041-.431,1.6-.682s1.144-.518,1.753-.8l1.555-.713q1.146-.523,2.383-1.084l2.158-.973c.737-.333,1.489-.678,2.246-1.045.438-.211.876-.433,1.313-.664a29.813,29.813,0,0,0,3.174-1.924c.148-.1.3-.211.445-.319a18.159,18.159,0,0,0,1.5-1.212l.129-.119C6733.369,2774.687,6733.418,2774.64,6733.467,2774.592Z" transform="translate(-6711.483 -2767.589)" fill="#1e6e12"/>
                <path id="Path_2871" data-name="Path 2871" d="M6730.5,2768.19l-.058.059a18.446,18.446,0,0,1-2.058,1.759c-.164.123-.327.242-.492.361-.557.4-1.121.782-1.687,1.15q-1.1.713-2.2,1.353-.286.167-.574.328c-1.274.719-2.539,1.361-3.768,1.926-.353.164-.7.318-1.05.469-.327.143-.649.281-.969.411l-.059.023c-.676.278-1.339.522-1.981.741s-1.262.407-1.854.574l-.089.024c-.561.155-1.1.289-1.6.406-.772.177-1.474.313-2.1.406-.032-.084-.062-.169-.092-.254a17.953,17.953,0,0,0,2.075-.657c1.009-.377,2.126-.868,3.333-1.417q.449-.2.914-.419l.964-.448.985-.463c.333-.158.669-.324,1.011-.49,1.361-.671,2.787-1.4,4.239-2.19.174-.095.35-.191.525-.289,1.279-.712,2.572-1.481,3.815-2.335.271-.186.54-.376.806-.57.425-.31.839-.631,1.229-.967.085-.073.169-.147.25-.222Q6730.273,2767.814,6730.5,2768.19Z" transform="translate(-6709.3 -2762.709)" fill="#1e6e12"/>
                <path id="Path_2872" data-name="Path 2872" d="M6724.79,2752.6a35.576,35.576,0,0,0-3.917,1.446c-1.318.565-2.575,1.16-3.755,1.747-.295.148-.586.294-.869.441s-.563.3-.837.44c-.546.293-1.074.578-1.577.858q-.556.309-1.071.606a11.435,11.435,0,0,1,1.225-1.729c.292-.19.595-.38.908-.566.274-.166.559-.327.847-.489s.583-.326.885-.484a39.3,39.3,0,0,1,3.894-1.8c.576-.23,1.167-.449,1.77-.654l.144,0c.184,0,.366,0,.549,0h0q.486.012.966.065Q6724.372,2752.516,6724.79,2752.6Z" transform="translate(-6711.279 -2752.401)" fill="#1e6e12"/>
                <path id="Path_2873" data-name="Path 2873" d="M6725.271,2756.949l-.052.054a17.082,17.082,0,0,1-1.747,1.512c-.607.468-1.229.909-1.847,1.34l-.066.046q-.9.621-1.792,1.2-.927.6-1.854,1.14l-.143.082q-.854.488-1.7.906l-.035.017c-.6.294-1.19.562-1.771.8s-1.172.457-1.734.643-1.106.343-1.625.476l-.12.03c-.476.118-.93.219-1.358.3-.489.092-.945.165-1.363.215.009-.093.019-.185.031-.277.4-.094.825-.218,1.279-.37s.91-.319,1.4-.512,1-.4,1.529-.628c.485-.2.988-.423,1.506-.65l.142-.062q.854-.373,1.759-.78c.6-.272,1.222-.552,1.854-.846s1.248-.589,1.879-.913l.042-.021a23.54,23.54,0,0,0,3.772-2.356,11.743,11.743,0,0,0,1.625-1.5c.015-.016.028-.033.042-.049.083.044.165.09.247.136Z" transform="translate(-6708.063 -2755.38)" fill="#1e6e12"/>
              </g>
              <g id="Group_1290" data-name="Group 1290" transform="translate(0.1 0.299)">
                <path id="Path_2874" data-name="Path 2874" d="M6774.6,2768.87l.029.043.055-.054Z" transform="translate(-6753.707 -2763.964)" fill="#bbd25f"/>
                <path id="Path_2875" data-name="Path 2875" d="M6747.945,2806.1c-1,.655-2.1,1.323-3.3,1.991-.6.333-1.217.669-1.86,1s-1.31.649-2,.942a18.9,18.9,0,0,1-2.157.772,14.09,14.09,0,0,1-1.717.382q.545.117,1.1.181c.242-.046.482-.1.722-.148.771-.17,1.528-.365,2.268-.58s1.458-.458,2.153-.725,1.359-.562,1.991-.882a20.274,20.274,0,0,0,1.795-1.023,17.778,17.778,0,0,0,1.461-1.038,11.514,11.514,0,0,0,1.281-2.1c-.109.084-.22.168-.333.251C6748.916,2805.444,6748.443,2805.767,6747.945,2806.1Z" transform="translate(-6727.909 -2788.61)" fill="#bbd25f"/>
                <path id="Path_2876" data-name="Path 2876" d="M6735.693,2789.348c-.47.3-.973.594-1.5.9s-1.077.62-1.648.944-1.165.652-1.778.986-1.246.676-1.9,1.018-1.323.682-2.017,1.007a21.406,21.406,0,0,1-4.445,1.564q-.587.13-1.186.212c-.2.025-.4.047-.6.063l-.146.009c-.151.008-.3.014-.453.014-.169,0-.337-.006-.5-.021-.085-.007-.168-.016-.251-.028.064.063.131.126.2.188.12.11.242.218.366.322l.205-.011.215-.016c.347-.029.688-.077,1.025-.134.408-.067.81-.152,1.208-.241.8-.182,1.575-.4,2.342-.619s1.521-.458,2.26-.7,1.459-.508,2.156-.785,1.368-.577,2.009-.894a24.862,24.862,0,0,0,3.462-2.062c.509-.364.981-.736,1.417-1.1s.836-.734,1.2-1.088a17.966,17.966,0,0,0,1.368-1.477c0-.118-.009-.237-.017-.356a11.413,11.413,0,0,1-1.685,1.436C6736.605,2788.762,6736.166,2789.055,6735.693,2789.348Z" transform="translate(-6715.835 -2776.405)" fill="#bbd25f"/>
                <path id="Path_2877" data-name="Path 2877" d="M6733.01,2775.419q-.284.24-.63.491c-.159.116-.328.235-.506.353-.317.213-.663.43-1.034.648-.437.26-.91.526-1.413.8s-1.033.552-1.585.845l-1.411.747q-1.038.551-2.156,1.149l-1.946,1.045c-.665.357-1.347.717-2.049,1.07-.406.2-.818.4-1.238.595a27.656,27.656,0,0,1-3.228,1.257c-.162.051-.325.1-.489.149a16.746,16.746,0,0,1-1.749.421l-.162.028a8.209,8.209,0,0,1-1,.108c.009.018.019.036.029.054.081.149.163.3.249.439l.178-.029c.111-.019.222-.041.331-.063l.3-.065c.4-.093.794-.2,1.184-.311.418-.12.831-.249,1.241-.381.66-.214,1.31-.438,1.955-.662l.383-.134q1.153-.4,2.271-.813c.744-.274,1.473-.555,2.179-.845l.144-.06c.655-.273,1.29-.557,1.9-.854q.759-.368,1.466-.754c.75-.408,1.455-.829,2.108-1.255.408-.265.8-.533,1.166-.8.114-.082.225-.163.335-.244.467-.346.9-.683,1.3-1.008.51-.415.969-.805,1.373-1.168.1-.088.194-.175.285-.26q.188-.173.355-.338l.064-.064-.022-.055c-.019-.046-.038-.093-.058-.139C6733.093,2775.349,6733.052,2775.384,6733.01,2775.419Z" transform="translate(-6711.141 -2768.382)" fill="#bbd25f"/>
                <path id="Path_2878" data-name="Path 2878" d="M6710.678,2779.29a17.287,17.287,0,0,0,2.47-.524q.275-.078.548-.16c.613-.184,1.216-.386,1.81-.6q1.154-.409,2.254-.863c.191-.078.381-.158.568-.239,1.256-.535,2.45-1.107,3.566-1.7.321-.168.635-.341.944-.511.292-.161.577-.321.855-.484l.05-.03c.59-.343,1.147-.7,1.674-1.046s1.019-.7,1.479-1.047l.069-.052c.433-.328.836-.647,1.21-.955a23.108,23.108,0,0,0,1.937-1.769c.041-.042.08-.085.119-.126l.007-.008-.01,0c-.034-.052-.067-.1-.1-.155-.055.053-.112.107-.172.162l-.085.076a15.136,15.136,0,0,1-2,1.448c-.853.533-1.851,1.081-2.943,1.663q-.405.217-.829.439l-.879.459-.9.466c-.306.157-.62.312-.937.47-1.271.627-2.619,1.271-4.03,1.9q-.254.113-.512.224c-1.254.543-2.558,1.064-3.9,1.5-.292.094-.585.187-.879.273-.471.138-.944.263-1.414.362-.234.049-.47.091-.7.118-.124.015-.248.026-.367.03.026.09.053.179.081.268q.075.236.16.471c.212,0,.422-.019.629-.04C6710.525,2779.308,6710.6,2779.3,6710.678,2779.29Z" transform="translate(-6709.199 -2764.082)" fill="#bbd25f"/>
                <path id="Path_2879" data-name="Path 2879" d="M6714.8,2757.787c1.167-.655,2.322-1.247,3.427-1.788.276-.134.55-.267.82-.393s.538-.248.8-.369c.527-.238,1.038-.468,1.53-.681s.968-.415,1.423-.6c.359-.143.706-.275,1.04-.391a11.242,11.242,0,0,0-1.1-.221c-.5.125-1.035.275-1.585.451-.526.17-1.071.363-1.626.584-.278.109-.559.227-.843.349s-.572.246-.861.38a36.654,36.654,0,0,0-3.546,1.86c-.6.355-1.192.734-1.783,1.135-.512.349-1.021.715-1.518,1.1a11.491,11.491,0,0,0-.739,1.66c.351-.309.729-.6,1.113-.889A32.593,32.593,0,0,1,6714.8,2757.787Z" transform="translate(-6709.65 -2753.347)" fill="#bbd25f"/>
                <path id="Path_2880" data-name="Path 2880" d="M6709.22,2766.819a15.969,15.969,0,0,0,2.112-.435c.692-.184,1.371-.393,2.042-.606l.071-.023c.645-.207,1.282-.423,1.907-.645.648-.231,1.282-.473,1.9-.725l.142-.059q.846-.356,1.637-.745l.033-.016q.837-.414,1.6-.855t1.462-.919c.456-.31.882-.624,1.275-.932l.09-.072q.537-.428,1-.835a15.579,15.579,0,0,0,1.478-1.482l-.151-.095a10.844,10.844,0,0,1-1.617,1.292c-.36.245-.753.493-1.174.745s-.867.509-1.333.775q-.642.364-1.337.746l-.126.07q-.76.42-1.577.859c-.543.291-1.1.591-1.679.891s-1.146.589-1.744.874l-.038.019a22.047,22.047,0,0,1-3.888,1.455,10.967,10.967,0,0,1-2.032.353,4.107,4.107,0,0,1-.83-.024c-.022.145-.042.291-.057.436.1,0,.2,0,.3,0C6708.859,2766.857,6709.04,2766.841,6709.22,2766.819Z" transform="translate(-6708.378 -2756.788)" fill="#bbd25f"/>
              </g>
            </g>
            <path id="Path_2881" data-name="Path 2881" d="M6721.014,2777.89c-5.782,2.95-10.83,4.636-11.273,3.767l1.9,3.719c.443.869,5.49-.817,11.273-3.767s10.11-6.047,9.667-6.916l-1.9-3.719C6731.124,2771.844,6726.8,2774.94,6721.014,2777.89Z" transform="translate(-6709.239 -2765.286)" fill="#1e5412" opacity="0.8" style="mix-blend-mode: multiply;isolation: isolate"/>
          </g>
        </g>
        <path id="Path_2883" data-name="Path 2883" d="M6709.334,2769.5c.039.08.079.158.12.236l.069.131a11.416,11.416,0,0,0,3.607,4.019q.32.219.654.416.479.282.982.517a11.572,11.572,0,0,0,1.085.441,11.482,11.482,0,0,0,15.226-10.14h0a11.4,11.4,0,0,0-.808-4.976q-.162-.4-.356-.8a11.465,11.465,0,0,0-1.372-2.146q-.283-.35-.589-.673-.158-.167-.322-.327a11.427,11.427,0,0,0-2.017-1.565q-.15-.092-.3-.179a11.61,11.61,0,0,0-1.287-.63h0a11.384,11.384,0,0,0-1.237-.433,11.55,11.55,0,0,0-1.912-.378q-.48-.053-.965-.065h0c-.183,0-.365-.005-.549,0a17.011,17.011,0,0,1,7.275,4.413,11.209,11.209,0,0,1,3.075,7.7,8.7,8.7,0,0,1-2.573,5.98,11.467,11.467,0,0,1-18.708-9.141c-.049.216-.092.434-.127.652A11.424,11.424,0,0,0,6709.334,2769.5Z" transform="translate(-6708.147 -2752.947)" opacity="0.1"/>
        <path id="Path_2884" data-name="Path 2884" d="M6709.333,2769.5q.059.119.12.236c.023.044.046.088.069.132a11.415,11.415,0,0,0,3.607,4.018q.32.22.655.416.478.283.982.518a11.639,11.639,0,0,0,1.085.441,11.482,11.482,0,0,0,15.226-10.14h0a11.407,11.407,0,0,0-.808-4.976c-.108-.267-.227-.533-.356-.8a11.465,11.465,0,0,0-1.372-2.146q-.282-.35-.589-.673c-.1-.112-.213-.22-.322-.327a11.407,11.407,0,0,0-2.017-1.565c-.1-.062-.2-.121-.3-.179a11.441,11.441,0,0,0-1.287-.63h0q-.138-.058-.278-.112-.472-.182-.959-.321a11.57,11.57,0,0,0-1.912-.378q-.48-.052-.966-.065h0c-.183,0-.365-.005-.548,0-.107,0-.215.006-.322.011s-.223.013-.334.022a11.253,11.253,0,0,0-1.6.244q-.454.1-.9.243a11.559,11.559,0,0,0-4.716,2.863l0,0a11.464,11.464,0,0,0-2.691,4.305q-.176.5-.3,1.018c-.021.082-.04.164-.058.247q-.073.324-.127.652A11.419,11.419,0,0,0,6709.333,2769.5Zm1.946-11.764a9.729,9.729,0,0,1,5.248-2.851,8.375,8.375,0,0,1,8.788,4.692,7.492,7.492,0,0,1,.5,6.052c-2.226,6-11.269,6.629-14.649,1.427C6709.315,2764.2,6708.859,2760.211,6711.279,2757.734Z" transform="translate(-6708.147 -2752.947)" opacity="0.1"/>
        <path id="Path_2885" data-name="Path 2885" d="M6723.387,2772.978a2.706,2.706,0,0,1-1.94,3.241c-1.5.418-2.894.127-3.626-1.428a3.153,3.153,0,0,1,.146-2.914C6719.481,2769.352,6722.734,2770.409,6723.387,2772.978Z" transform="translate(-6714.571 -2764.916)" fill="#fff" opacity="0.34"/>
      </g>
    </g>
  </g>
</svg>
