<svg xmlns="http://www.w3.org/2000/svg" xmlns:xlink="http://www.w3.org/1999/xlink" width="360" height="2251" viewBox="0 0 360 2251">
  <defs>
    <clipPath id="clip-path">
      <rect id="Rectangle_427" data-name="Rectangle 427" width="360" height="2251" fill="#fff" stroke="#707070" stroke-width="1"/>
    </clipPath>
  </defs>
  <g id="Mask_Group_1" data-name="Mask Group 1" clip-path="url(#clip-path)">
    <g id="Group_9955" data-name="Group 9955" transform="translate(0 -4668)">
      <path id="Path_23311" data-name="Path 23311" d="M200.293,4692.549a12.022,12.022,0,0,1,2.123.181l6.523,1.163,1.683.3a9.408,9.408,0,0,1,7.808,8.3l.447.466,1.485-1.38a9.023,9.023,0,0,1,6.132-2.441,8.6,8.6,0,0,1,5.912,2.332l.344,0a12.965,12.965,0,0,1,7.283,2.255l5.064,3.682a21.865,21.865,0,0,1,3.085,2.768l1.43,1.586c.3.336.722.8,1.1,1.224l.887.986a15.927,15.927,0,0,1,2.513,3.769l4.858,10.769.662.211,1.483.47a9.9,9.9,0,0,1,4.28,2.266l9.422,7.336a13.7,13.7,0,0,1,3.788,4.691l1.366,2.946,5.3,1.371a11.24,11.24,0,0,0,1.52.223l18.284.916a22.507,22.507,0,0,1,3.381.566l3.815.882a7.059,7.059,0,0,0,.92.071h.038l1.464-.089a5.888,5.888,0,0,0,.614-.134l5.46-2.271.823-.344a24.653,24.653,0,0,1,4.751-1.364l1.635-.278a26.352,26.352,0,0,1,4.089-.323c.281,0,.548.006.8.017l7.046.306,2.179.094.375.017a9.249,9.249,0,0,1,5.64-1.939,8.821,8.821,0,0,1,6.129,2.433l1.24-.4a9.263,9.263,0,0,1,8.944-6.148c.382,0,2.721.022,3.1.065l9.867,1.119V6919.107H-17.381V4791.689l.078-7.8h7.959l3.249.165h.065a9.639,9.639,0,0,0,1.277-.1l2.8-.539c.421-.081,3.366-.359,3.75-.5l7.992-3.025a10.136,10.136,0,0,0,1.2-.594l1.49-.967a20.759,20.759,0,0,1,4.739-2.178l3.8-1.149a8.817,8.817,0,0,0,1.016-.439l3.244-1.972a16.3,16.3,0,0,0,1.386-.987l.071-.059a16.759,16.759,0,0,1,5.1-2.812,32.052,32.052,0,0,1,4.242-1.036l9.149-1.517a15.241,15.241,0,0,0,1.736-.446l1.756-.636a29.177,29.177,0,0,1,4.45-1.163l14.262-2.416c.091-.025.282-.09.4-.134l4.515-2.682,4.826-2.871.3-.562a15.984,15.984,0,0,1,3.3-4.177l5.471-4.869,2.42-6.643a12.066,12.066,0,0,1,5.029-5.9l3.73-2.213a20.22,20.22,0,0,1,4.983-2.015l6.073-1.487a10.087,10.087,0,0,1,3.089-3.084,17.7,17.7,0,0,1,4.856-1.941l8.221-1.954a8.234,8.234,0,0,1,7.808-4.932,10.176,10.176,0,0,1,2.982.456l1.354.418.754-.275a9.751,9.751,0,0,1,3.414-.658c.482-.033,1.6-.111,2.512-.176l4.669-.322c.806-.056,1.731-.121,2.359-.163l7.079-.491c.041-.009.092-.023.138-.035l.255-.138a10.378,10.378,0,0,1,4.93-1.227,10.268,10.268,0,0,1,3.874.753l4.033-1.009a9.65,9.65,0,0,1,1.012-1.645l2.8-3.666.447-.587,0,0,1.181-1.539.363-.469.428-.408a8.136,8.136,0,0,1,1.974-1.379l1.048-.565,4.533-2.435,1.72-1.846a15.672,15.672,0,0,1,4.93-3.428l3.726-1.62A13.885,13.885,0,0,1,200.293,4692.549Z" fill="none" stroke="#e1e5eb" stroke-width="0.5"/>
      <path id="Path_23312" data-name="Path 23312" d="M200.293,4694.5a11.863,11.863,0,0,0-4.554.886l-3.727,1.62a13.82,13.82,0,0,0-4.277,2.966h0c-.1.106-.258.274-.526.561l-1.417,1.522-4.814,2.586-1.051.566a6.236,6.236,0,0,0-1.552,1.074l-.32.3-.272.351,0,0c-.046.053-.092.109-.138.169l-.316.412v0c-.147.186-.453.589-1.2,1.567l-2.775,3.631a7.854,7.854,0,0,0-1.146,2.118l-5.639,1.411a8.228,8.228,0,0,0-3.688-.859,8.417,8.417,0,0,0-4,.993l-.414.223a4.323,4.323,0,0,1-.658.172l-7.2.5-2.356.163-4.663.322c-.91.065-2.035.143-2.519.176a7.933,7.933,0,0,0-2.827.526l-1.172.426-.251.091c-.676-.207-1.474-.453-1.978-.609a8.215,8.215,0,0,0-2.409-.37,6.323,6.323,0,0,0-6.3,4.547l-.025.088-9.247,2.2a15.818,15.818,0,0,0-4.275,1.7,8.18,8.18,0,0,0-2.855,3.128l-6.875,1.683a18.313,18.313,0,0,0-4.452,1.8l-3.727,2.211a10.076,10.076,0,0,0-4.192,4.893l-2.589,7.107-5.837,5.2a14.062,14.062,0,0,0-2.874,3.629l-.553,1.05-5.3,3.153-4.625,2.747a5.563,5.563,0,0,1-.908.307l-14.31,2.424a27.462,27.462,0,0,0-4.112,1.074l-1.762.638a16.6,16.6,0,0,1-2.075.534l-9.149,1.517a30.4,30.4,0,0,0-3.947.964,14.875,14.875,0,0,0-4.465,2.459l-.066.056a17.969,17.969,0,0,1-1.624,1.157l-3.256,1.979a9.681,9.681,0,0,1-1.453.632l-3.8,1.15a18.888,18.888,0,0,0-4.241,1.946l-1.489.967a11.638,11.638,0,0,1-1.577.783l-8,3.027a17.8,17.8,0,0,1-2.114.592l-4.757.539a11.153,11.153,0,0,1-1.648.132c-.059,0-.114,0-.164,0l-3.2-.162h-5.974l-.058,5.845V6917.152H375.426V4742.959l-8.134-.923c-.3-.034-2.568-.052-2.876-.052a7.254,7.254,0,0,0-7.3,5.56l-.192.145a5.717,5.717,0,0,1-.737.31l-1.65.531c-.2.064-.4.118-.558.157l-.49-.025a6.83,6.83,0,0,0-5.391-2.563,7.3,7.3,0,0,0-4.7,1.738l-.273.232-1.124-.05-2.18-.094-7.047-.306c-.219-.01-.458-.015-.709-.015a24.282,24.282,0,0,0-3.762.295l-1.634.278a22.8,22.8,0,0,0-4.326,1.241l-.825.345-5.514,2.294a6.38,6.38,0,0,1-1.167.255l-1.517.093c-.031,0-.078,0-.129,0a8.27,8.27,0,0,1-1.331-.113l-3.85-.891a21.279,21.279,0,0,0-3.041-.517l-18.277-.916a12.966,12.966,0,0,1-1.911-.282l-6.2-1.6-1.754-3.78a11.781,11.781,0,0,0-3.217-3.976l-9.421-7.336a8,8,0,0,0-3.563-1.91c-.363-.116-.99-.315-1.593-.5l-1.492-.476-5.215-11.559a14.036,14.036,0,0,0-2.185-3.269l-.889-.987c-.379-.421-.8-.891-1.1-1.222l-1.436-1.592a19.979,19.979,0,0,0-2.778-2.49l-5.066-3.683a10.938,10.938,0,0,0-6.113-1.88l-1.191.01a6.6,6.6,0,0,0-5.083-2.339,7.075,7.075,0,0,0-4.8,1.918l-2.339,2.173H218.3l-1.8-1.876a7.335,7.335,0,0,0-6.226-7.187c-.446-.081-1.069-.192-1.679-.3l-6.526-1.164A10.156,10.156,0,0,0,200.293,4694.5Z" fill="none" stroke="#e1e5eb" stroke-width="0.5"/>
      <path id="Path_23313" data-name="Path 23313" d="M200.293,4696.459a9.849,9.849,0,0,0-3.776.724l-3.726,1.619a11.89,11.89,0,0,0-3.624,2.505s-1.565,1.68-2.163,2.322l-5.1,2.739-1.05.566a4.353,4.353,0,0,0-1.129.766l-.214.2-.181.234s-.2.259-.442.575l-1.193,1.567-2.778,3.634a6.014,6.014,0,0,0-1.118,2.551l-7.516,1.88a6.064,6.064,0,0,0-3.392-.993,6.464,6.464,0,0,0-3.072.757l-.471.253a5.167,5.167,0,0,1-1.378.371l-7.215.5c-.629.042-1.55.106-2.355.162l-4.665.322c-.906.065-2.035.143-2.519.176a6.168,6.168,0,0,0-2.23.39l-1.237.45-.582.211a1.88,1.88,0,0,1-.406.042l-.083,0c-.737-.226-1.787-.549-2.4-.74a6.253,6.253,0,0,0-1.831-.283,4.408,4.408,0,0,0-4.425,3.13c-.067.241-.2.715-.336,1.187l-10.363,2.464a13.869,13.869,0,0,0-3.69,1.453,6.311,6.311,0,0,0-2.5,3.142l-7.8,1.91a16.411,16.411,0,0,0-3.918,1.579l-3.729,2.213a8.147,8.147,0,0,0-3.35,3.875l-2.675,7.341a3.023,3.023,0,0,1-.378.5l-5.912,5.262a12.092,12.092,0,0,0-2.442,3.076l-.713,1.352a2.474,2.474,0,0,1-.417.378l-5.457,3.246-4.651,2.763a6.724,6.724,0,0,1-1.55.538l-14.315,2.424a25.669,25.669,0,0,0-3.775.986l-1.76.637a18.276,18.276,0,0,1-2.418.624l-9.152,1.518a28.489,28.489,0,0,0-3.655.892,12.908,12.908,0,0,0-3.816,2.1l-.077.064a19.87,19.87,0,0,1-1.855,1.323l-3.259,1.981a11.284,11.284,0,0,1-1.9.831l-3.8,1.151a16.952,16.952,0,0,0-3.747,1.717l-1.485.964a13.469,13.469,0,0,1-1.951.973l-8,3.026a19.529,19.529,0,0,1-2.435.684l-4.759.539a12.993,12.993,0,0,1-2.017.167c-.095,0-.184,0-.265-.006l-3.148-.159h-3.989l-.039,3.89V6915.2H373.471V4744.7l-6.4-.725c-.231-.027-2.422-.04-2.656-.04a5.318,5.318,0,0,0-5.386,4.02l-.155.707-.884.671a7.453,7.453,0,0,1-1.2.523l-1.65.531a9.521,9.521,0,0,1-.993.262l-1.662-.085-.413-.549a4.9,4.9,0,0,0-3.97-1.965,5.345,5.345,0,0,0-3.44,1.276l-.822.7c-.028.01-.059.019-.085.026l-.058,0-1.789-.08-2.167-.093-7.05-.307c-.191-.008-.4-.012-.624-.012a22.578,22.578,0,0,0-3.434.267L327,4750.1a21,21,0,0,0-3.9,1.119l-.823.343-5.516,2.295a7.663,7.663,0,0,1-1.8.4l-1.513.092c-.066,0-.152.006-.248.006a9.9,9.9,0,0,1-1.772-.164l-3.849-.89a20.562,20.562,0,0,0-2.706-.47l-18.27-.916a14.663,14.663,0,0,1-2.307-.343l-7.086-1.832-2.143-4.62a9.821,9.821,0,0,0-2.644-3.255l-9.422-7.336a6.01,6.01,0,0,0-2.824-1.549c-.322-.1-1.036-.329-1.72-.545l-2.327-.742-5.573-12.353a12.075,12.075,0,0,0-1.855-2.764l-.89-.988c-.38-.423-.8-.9-1.1-1.227l-1.431-1.586a18.1,18.1,0,0,0-2.476-2.219l-5.065-3.682a9.036,9.036,0,0,0-4.964-1.506l-2.19.019a4.662,4.662,0,0,0-4.084-2.348,5.123,5.123,0,0,0-3.474,1.4l-2.845,2.642a1.4,1.4,0,0,1-.188.052l-2.518,0-2.99-3.113.035-.294a5.328,5.328,0,0,0-4.582-5.685l-1.679-.3-6.526-1.164A8.163,8.163,0,0,0,200.293,4696.459Z" fill="none" stroke="#e1e5eb" stroke-width="0.5"/>
      <path id="Path_23314" data-name="Path 23314" d="M200.293,4698.414a7.953,7.953,0,0,0-3,.562l-3.724,1.619a10.04,10.04,0,0,0-2.973,2.043s-2.222,2.385-2.385,2.561c-.09.047-5.383,2.891-5.383,2.891l-1.049.565a2.565,2.565,0,0,0-.706.46l-.107.1-.091.117s-.2.255-.433.565c0,0-.864,1.132-1.192,1.564l-2.781,3.638a4.206,4.206,0,0,0-.8,2.91l-9.059,2.267a1.67,1.67,0,0,1-.369.037,1.941,1.941,0,0,1-.728-.124l-.31-.214a4.093,4.093,0,0,0-2.315-.67,4.5,4.5,0,0,0-2.141.521l-.475.255a6.766,6.766,0,0,1-2.17.6l-7.214.5c-.637.042-1.564.107-2.371.164l-4.65.32c-.9.065-2.035.143-2.521.176a4.455,4.455,0,0,0-1.612.247c-.253.092-.754.275-1.322.481l-.6.219a3.386,3.386,0,0,1-1.049.151,2.18,2.18,0,0,1-.54-.053c-.738-.226-1.873-.575-2.523-.776a4.259,4.259,0,0,0-1.253-.2,2.462,2.462,0,0,0-2.545,1.712c-.087.31-.294,1.043-.465,1.638l-.14.492a1.32,1.32,0,0,1-.512.268l-11.01,2.617a12.092,12.092,0,0,0-3.105,1.209,4.391,4.391,0,0,0-1.923,3.069.782.782,0,0,1-.2.083l-8.75,2.142a14.385,14.385,0,0,0-3.383,1.36l-3.732,2.214a6.238,6.238,0,0,0-2.508,2.857L91.466,4749a4.263,4.263,0,0,1-.882,1.205l-5.917,5.266a10.312,10.312,0,0,0-2.01,2.522l-.771,1.466a3.919,3.919,0,0,1-1.1,1.041l-5.452,3.243-4.651,2.763a8.261,8.261,0,0,1-2.219.784l-14.319,2.425a23.866,23.866,0,0,0-3.438.9l-1.758.636a20.1,20.1,0,0,1-2.76.714l-9.155,1.518a26.69,26.69,0,0,0-3.364.82,11.068,11.068,0,0,0-3.168,1.736l-.086.072a21.486,21.486,0,0,1-2.087,1.489l-3.261,1.982a12.916,12.916,0,0,1-2.347,1.032l-3.8,1.15a15.008,15.008,0,0,0-3.253,1.488l-1.481.963a15.12,15.12,0,0,1-2.324,1.161l-8,3.026a21.187,21.187,0,0,1-2.757.775l-4.76.539a14.737,14.737,0,0,1-2.386.2c-.131,0-.254,0-.366-.009l-3.1-.157h-2l-.02,1.955V6913.243H371.517V4746.45l-4.665-.529c-.159-.018-2.276-.027-2.436-.027a3.384,3.384,0,0,0-3.474,2.475l-.225,1.025a1.674,1.674,0,0,1-.223.5c-.177.133-1.365,1.035-1.365,1.035a8.164,8.164,0,0,1-1.739.793l-1.651.532a9.815,9.815,0,0,1-1.484.364c-.37-.02-1.288-.067-2.112-.108a1.934,1.934,0,0,1-.868-.3l-.765-1.015a2.97,2.97,0,0,0-2.408-1.186,3.388,3.388,0,0,0-2.178.814l-.966.819a2.442,2.442,0,0,1-1.154.369h-.021l-1.969-.087-2.155-.093-7.053-.307c-.164-.007-.346-.01-.539-.01a20.8,20.8,0,0,0-3.107.239l-1.635.278a19.054,19.054,0,0,0-3.477,1l-.822.343-5.518,2.3a9.462,9.462,0,0,1-2.44.549l-1.508.093c-.1.006-.229.009-.367.009a11.563,11.563,0,0,1-2.214-.215l-3.847-.89a19.126,19.126,0,0,0-2.371-.422c-.156-.009-18.262-.915-18.262-.915a16.722,16.722,0,0,1-2.7-.4l-7.39-1.911a1.8,1.8,0,0,1-.706-.41l-2.412-5.2a7.9,7.9,0,0,0-2.071-2.534l-9.423-7.338c-1.051-.817-1.44-1.121-2.043-1.173l-.05-.015c-.208-.068-1.044-.333-1.838-.584l-2.56-.816a1.94,1.94,0,0,1-.731-.477l-5.8-12.862a10.27,10.27,0,0,0-1.526-2.259l-.89-.989c-.383-.425-.809-.9-1.106-1.232l-1.425-1.579a16.144,16.144,0,0,0-2.176-1.949l-5.064-3.681a7.147,7.147,0,0,0-3.814-1.133l-2.879.026a1.3,1.3,0,0,1-.535-.129l-.425-.775a2.738,2.738,0,0,0-2.435-1.451,3.176,3.176,0,0,0-2.147.879l-3.027,2.812a2.764,2.764,0,0,1-1.3.4l-2.583,0a2.426,2.426,0,0,1-1.1-.311l-3.7-3.854a1.115,1.115,0,0,1-.182-.435l.12-1a3.379,3.379,0,0,0-2.983-3.525c-.453-.082-1.073-.192-1.68-.3l-6.526-1.164A6.21,6.21,0,0,0,200.293,4698.414Z" fill="none" stroke="#e1e5eb" stroke-width="0.5"/>
      <path id="Path_23315" data-name="Path 23315" d="M-9.562,6911.288V4791.708h.02l3.047.155a16.178,16.178,0,0,0,3.22-.227l4.761-.54a22.92,22.92,0,0,0,3.079-.866l8-3.025a17,17,0,0,0,2.7-1.351l1.477-.96a13.138,13.138,0,0,1,2.759-1.259l3.8-1.151a14.6,14.6,0,0,0,2.793-1.232l3.264-1.984a23.333,23.333,0,0,0,2.321-1.655l.093-.079a9.13,9.13,0,0,1,2.52-1.374,24.822,24.822,0,0,1,3.073-.748l9.158-1.519a21.9,21.9,0,0,0,3.1-.8l1.756-.635a21.746,21.746,0,0,1,3.1-.809l14.322-2.426a10.1,10.1,0,0,0,2.887-1.03l.352-.209,2.15-1.279,2.151-1.276,5.446-3.239a5.655,5.655,0,0,0,1.831-1.814l.774-1.47a8.481,8.481,0,0,1,1.578-1.969l5.921-5.27a6.005,6.005,0,0,0,1.415-1.992l2.707-7.43a4.355,4.355,0,0,1,1.668-1.839l3.733-2.215a12.541,12.541,0,0,1,2.848-1.141l8.752-2.143c.868-.213,1.61-.877,1.655-1.481l.018-.231a2.451,2.451,0,0,1,1.022-1.681,10.276,10.276,0,0,1,2.52-.964l11.011-2.617a2.7,2.7,0,0,0,1.89-1.464l.188-.659c.172-.6.381-1.339.465-1.64s.69-.385,1.341-.186l2.528.778a5.233,5.233,0,0,0,2.828-.129l.6-.219c.815-.295,1.492-.543,1.5-.547s.413-.035.9-.069,1.62-.111,2.521-.176l3.749-.258c.9-.062,2.372-.166,3.273-.226l7.215-.5a8.652,8.652,0,0,0,2.961-.829l.479-.258a2.539,2.539,0,0,1,2.414.04l.329.226a3.755,3.755,0,0,0,2.664.362l9.609-2.4c.862-.215,1.349-.849,1.077-1.408l-.027-.053a2.142,2.142,0,0,1,.276-2.021l2.783-3.642,1.191-1.561c.232-.305.426-.556.426-.556s.6-.322,1.331-.717l4.328-2.324c.731-.393,1.331-.718,1.335-.718s.412-.439.9-.969l1.707-1.832a8.235,8.235,0,0,1,2.32-1.581l3.724-1.619a6.089,6.089,0,0,1,2.967-.342l5.145.917c.848.153,2.226.4,3.061.547s1.458.765,1.386,1.367l-.125,1.036a2.8,2.8,0,0,0,.717,1.984l3.728,3.88a3.936,3.936,0,0,0,2.484.886l2.586,0a4.455,4.455,0,0,0,2.628-.924l3.024-2.809c.547-.506,1.241-.473,1.54.076l.512.935a2.641,2.641,0,0,0,2.18.985l2.83-.026a5.287,5.287,0,0,1,2.7.759l5.063,3.681a14.324,14.324,0,0,1,1.874,1.677l1.419,1.573c.446.5,1.177,1.31,1.625,1.808l.377.419a8.392,8.392,0,0,1,1.2,1.755l.845,1.873,4.984,11.048a3.437,3.437,0,0,0,1.893,1.476l2.564.817c.786.248,1.613.51,1.834.582a1.545,1.545,0,0,0,.434.1,11.167,11.167,0,0,1,1.051.768l9.424,7.338a6,6,0,0,1,1.5,1.814l2.447,5.276a3.29,3.29,0,0,0,1.955,1.4l7.385,1.91a18.446,18.446,0,0,0,3.1.465l16.105.807c.89.045,1.857.092,2.15.108a17.387,17.387,0,0,1,2.035.375l3.847.889a13.3,13.3,0,0,0,3.141.253l1.5-.092a11.41,11.41,0,0,0,3.076-.7l2.639-1.1c.792-.328,2.09-.87,2.882-1.2l.819-.342a17.024,17.024,0,0,1,3.053-.874l1.636-.277a18.411,18.411,0,0,1,3.233-.2l7.057.307c.891.037,1.855.08,2.142.092s1.177.053,1.982.088a4.232,4.232,0,0,0,2.52-.831l.964-.817a1.207,1.207,0,0,1,1.763.055l.8,1.061a3.437,3.437,0,0,0,2.3,1.029c.874.043,1.855.093,2.18.111a8.855,8.855,0,0,0,2.111-.459l1.652-.532a9.6,9.6,0,0,0,2.318-1.1c.442-.334,1.089-.827,1.441-1.092a3.106,3.106,0,0,0,.877-1.582l.227-1.034c.129-.6,2.9-1.014,3.779-.915l2.93.333V6911.288Z" fill="#fc3" stroke="#ccd3de" stroke-miterlimit="10" stroke-width="1"/>
    </g>
  </g>
</svg>
