<svg xmlns="http://www.w3.org/2000/svg" xmlns:xlink="http://www.w3.org/1999/xlink" width="1834.609" height="888.239" viewBox="0 0 1834.609 888.239">
  <defs>
    <clipPath id="clip-path">
      <path id="Path_15635" data-name="Path 15635" d="M1343.378,1300.31c-4.674,1.925-9.925,6.061-11.671,9.192l-13.624,24.39c-1.746,3.131-.206,7.777,3.451,10.329l2.447,1.716c3.643,2.551,3.093,6.447-1.21,8.65l-3.519,1.833c-4.3,2.2-8.688,6.64-9.719,9.864l-1.856,5.69a22.736,22.736,0,0,0-.083,11.719l7.7,24.615c1.017,3.231.206,8.38-1.8,11.456l-29.584,45.317c-2.007,3.077-7.932,6.757-13.17,8.195l-12.922,3.548c-5.238,1.431-13.391,1.044-18.106-.873l-19.095-7.762c-4.729-1.925-9.073-6.153-9.65-9.416l-.77-4.352c-.577-3.262-5.7-5.342-11.4-4.631l-13.582,1.693a59.71,59.71,0,0,1-19.782-1.4l-52.35-14.851a75.054,75.054,0,0,1-16.442-7.143l-7.285-4.661a95.545,95.545,0,0,0-15.934-7.646l-14.063-5.017c-4.908-1.755-7.768-5.783-6.338-8.96l11.081-24.769c1.429-3.177,5.677-7.816,9.472-10.3l6.832-4.522c3.781-2.49,9.334-2.729,12.359-.526,3.01,2.211,8.688,3.046,12.592,1.855s7.492-4.816,7.974-8.078l1.457-9.826c.467-3.262-3.011-7.475-7.767-9.369l-8.469-3.379c-4.742-1.894-9.884-1.291-11.41,1.338s-7.52,4.522-13.321,4.19l-67.54-3.788c-5.8-.333-13.005-2.891-16.03-5.7l-.343-.317c-3.038-2.806-9.321-4.306-13.995-3.339s-11.575-.279-15.37-2.768l-11.822-7.738c-3.794-2.482-11.438-5.319-16.978-6.316L920,1306.364c-5.54-1-13.266.193-17.143,2.628l-5.622,3.525c-3.877,2.435-2.365,4.9,3.381,5.473l4.812.48c5.746.564,13.018,3.285,16.194,6.03l5.21,4.538c3.176,2.744,1,4.816-4.8,4.6l-37.022-1.391a132.819,132.819,0,0,0-17.28.471,22.29,22.29,0,0,0-11.562,6.169l-19.466,21.376c-2.653,2.914-9.444,5.968-15.08,6.779l-.757.109c-5.636.811-11.176,4.1-12.317,7.313l-3.959,11.178a19.258,19.258,0,0,0,.247,11.65l5.334,13.575c1.265,3.2-1.911,4.546-7.039,3l-22.215-6.71c-5.114-1.546-13.266-1.322-18.1.494l-20.154,7.607c-4.825,1.817-8.152.658-7.382-2.582l2.241-9.485c.769-3.239-1.98-7.777-6.145-10.073l-15.37-8.488c-4.151-2.3-12.3-4.275-18.132-4.415l-38.4-.85c-5.815-.131-12.5,2.219-14.833,5.226l-16.387,21.074c-2.337,3-9.018,5.527-14.833,5.628h-.4c-5.815.092-10.6,2.852-10.626,6.122l-.028,3.425c-.027,3.278-4.413,7.027-9.746,8.334l-35.606,8.751c-5.334,1.3-7.437,4.739-4.688,7.622l3.341,3.487c2.75,2.875,4.344,7.893,3.505,11.132l-4.523,17.734c-.838,3.239-4.921,4.028-9.1,1.739l-16.813-9.184c-4.179-2.288-8.015-6.818-8.523-10.08l-1.389-8.721c-.508-3.262-4.11-3.935-8-1.507l-18.724,11.712c-3.89,2.427-6.09,7.042-4.907,10.243l4.152,11.117c1.195,3.2-1.9,7.228-6.861,8.944l-6.048,2.095c-4.949,1.708-11.507,5.388-14.573,8.179l-21.541,19.651c-3.038,2.791-9.912,6.131-15.232,7.437l-18.243,4.461a117.964,117.964,0,0,1-20.277,2.682l-22.106.681a101.151,101.151,0,0,0-20.057,2.96l-58.357,16.32a41.827,41.827,0,0,1-18.971,0l-2.3-.642c-5.21-1.453-13.445-1.144-18.27.68l-22.161,8.357a92.275,92.275,0,0,0-15.589,7.886l-3.4,2.257c-3.739,2.512-9.678,6.695-13.2,9.315l-24.264,18.005a11.5,11.5,0,0,1-12.826.031l-6.984-5.079c-3.547-2.59-7.478-2.1-8.729,1.1l-11.63,29.964a60.436,60.436,0,0,1-6.269,11.325L113.6,1653.33c-2.2,3.023-1.292,7.7,2.049,10.39l29.377,23.734c3.327,2.682,5.376,7.537,4.578,10.776l-.77,2.969c-.8,3.247-5.32,4.321-10.035,2.381l-28.993-11.913c-4.7-1.941-9.664-1.593-11.053.757-1.361,2.35-.976,6.819.866,9.927l2.461,4.143a50.212,50.212,0,0,0,9.238,10.591l20.2,16.923c3.244,2.721,6.6,7.591,7.451,10.83l2.557,9.609c.852,3.24,3.918,8.2,6.832,11.047l20.662,20.17c2.9,2.837,5.8,7.823,6.448,11.078l4.8,24.792a33.985,33.985,0,0,0,5.21,11.418l21.652,29.253c2.241,3.03,4.028,8.171,3.986,11.449l-.577,47.358c-.041,3.278-4.069,4.932-8.963,3.672-4.867-1.252-7.327.255-5.444,3.347l6.489,10.73c1.883,3.1,7.877,6.556,13.348,7.692l5.623,1.16c5.471,1.136,12.4,4.128,15.411,6.664,2.983,2.543,10.186,4.87,15.988,5.179l42.039,2.258c5.787.309,14.407-1,19.136-2.907l63.4-25.511,26.808,14.881,58.645,72.56a49.062,49.062,0,0,1,12.455,2.691l70.744,28.464a63.7,63.7,0,0,0,19.177,3.595l106.555,1.19a164.843,164.843,0,0,0,20.841-1.337,21.616,21.616,0,0,1,2.956-.2c4.935,0,10.173,1.553,12.578,3.911l17.143,16.845c2.9,2.838,9.568,6.332,14.793,7.77l58.975,16.118a95.4,95.4,0,0,0,20.1,2.714l33.5.3a112.5,112.5,0,0,1,20.359,2.381l59.168,13.853a114.454,114.454,0,0,0,20.36,2.436l51.91.672a88.687,88.687,0,0,1,18.38,2.312c4.289,1.2,11.782.7,16.634-1.114l22.752-8.434a89.876,89.876,0,0,1,19.274-4.236l48.651-4.414c5.747-.518,12.95-3.224,15.988-6.015l54.714-49.94c3.066-2.791,3.355-7.166.66-9.717s-.715-5.937,4.386-7.507l17.637-5.427c5.128-1.569,11.053-.355,13.211,2.691l12.016,17.054c2.144,3.045,8,6.9,13,8.58l2.144.719c5,1.67,11.452,5.366,14.325,8.218l26.7,26.5c2.86,2.845,5.9,2.528,6.736-.711l4.729-18.3c.839-3.239-1.278-8.047-4.7-10.691l-9.527-7.368a65.507,65.507,0,0,1-10.352-10.289l-17.294-22.976c-2.255-3.015.646-5.311,6.447-5.086l22.477.842c5.8.217,12.716,2.776,15.342,5.7l12.084,13.49c2.626,2.922,7.85,3.262,11.6.757l5.4-3.587c3.753-2.5,4.949-7.019,2.695-10.042l-11.094-14.719c-2.255-3.015.536-4.886,6.2-4.159l7.63.966c5.664.727,13.816-.494,18.132-2.7l13.72-7.1c4.289-2.2,7.7-6.7,7.561-9.973l-.8-19.234c-.138-3.27,3.34-7.715,7.725-9.864l54.99-27.065c4.385-2.157,12.73-3.92,18.558-3.92h27.784a82.2,82.2,0,0,0,19.919-2.829l26.079-7.947a35.416,35.416,0,0,1,18.394.224l27.962,9.408c4.99,1.678,13.527,2.111,18.985.951l44.005-9.346c5.444-1.152,12.139-4.4,14.874-7.205s8.015-3.038,11.713-.51l7.822,5.357a135.042,135.042,0,0,0,14.792,8.45l14.49,6.926.385-.471c2.447-2.977,3.959-7.259,3.395-9.517s2.337-6.014,6.461-8.326l15.6-8.728c4.124-2.319,7.148-6.88,6.749-10.142l-.274-2.064-.179-1.407c-.4-3.255,3.973-5.59,9.733-5.157l5,.379c5.76.433,11.905-1.77,13.637-4.9l16.359-29.384c1.733-3.123,2.668-8.079,2.076-11.009s.165-7.916,1.677-11.085l20.03-41.862a15.916,15.916,0,0,0,.248-11.534l-4.606-10.738c-1.388-3.185-2.735-6.3-3.01-6.927a57.83,57.83,0,0,0-5.568-6.37l-4.811-4.978c-2.777-2.884-4.523-7.909-3.9-11.163l4.839-25.009c.619-3.254-.467-8.442-2.378-11.534l-4.358-6.973c-1.924-3.1-7.025-6.447-11.3-7.437a34.554,34.554,0,0,1-13.28-6.911l-17.431-16.2c-3.011-2.806-9.5-6.532-14.435-8.272l-34.547-12.291c-4.921-1.74-8.317-5.829-7.533-9.076l3.588-15.044c.783-3.239-2.64-7.29-7.6-9.006l-2.777-.936c-4.949-1.716-13.582-2.334-19.163-1.376l-.055.008c-5.554.951-11.947-.75-14.146-3.772l-18.93-25.8c-2.213-3.023-7.685-7.236-12.112-9.347l-5.87-2.783c-4.454-2.11-7.121-6.408-5.925-9.539s-2.144-6.834-7.4-8.264l-21.982-5.961c-5.251-1.422-11.094-5.117-12.991-8.21l-1.182-1.963c-1.9-3.092-8.152-5.2-13.9-4.67l-.233.016c-5.747.518-14.38-.572-19.164-2.427l-18.682-7.244c-4.8-1.855-9.458-6.015-10.393-9.246l-11.6-40.818c-.907-3.231-5.21-7.661-9.554-9.833l-6.929-3.464c-4.344-2.18-7.987-6.64-8.111-9.91l-.949-27.081c-.109-3.27-3.519-7.877-7.574-10.227l-21.46-12.462c-4.041-2.342-12.125-4.345-17.94-4.43l-11.135-.154c-5.815-.078-11.369-2.783-12.345-6.015l-5.32-17.61c-.963-3.224-4.729-6.378-8.331-7a15.1,15.1,0,0,1-9.582-6.842l-24.14-45.843C1353.221,1299.391,1348.052,1298.393,1343.378,1300.31Z" fill="#9e1f63" stroke="#e1e5ed" stroke-miterlimit="10" stroke-width="1.031"/>
    </clipPath>
  </defs>
  <g id="Group_6536" data-name="Group 6536" transform="translate(-42.695 -1267.974)">
    <path id="Path_15626" data-name="Path 15626" d="M42.953,1696.073a26.061,26.061,0,0,1,3.5-13.195c2.971-5.028,7.828-9.545,14.171-13.216a27.033,27.033,0,0,1-3.21-12.495,26.418,26.418,0,0,1,5.3-15.555l9.892-13.54a39.935,39.935,0,0,0,3.4-6.138l11.641-29.992c7.854-20.111,36.586-25.216,45.206-26.3a105.661,105.661,0,0,1,18.527-.6c3.889-2.855,9.8-7.018,13.814-9.714l3.589-2.386a148.738,148.738,0,0,1,26.888-13.575l22.214-8.378c16.781-6.344,38.531-8.427,58.686-5.682l45.352-12.683a190.391,190.391,0,0,1,41.687-6.153l21.441-.66c.574-.065,1.881-.239,2.516-.336l11.446-2.8,18.049-16.464a82.638,82.638,0,0,1,15.448-10.64,23.479,23.479,0,0,1-.623-5.347c0-10.473,7.423-21.611,19.373-29.066l18.67-11.681c15.012-9.367,31.766-11.639,44.16-11.713a79.5,79.5,0,0,1,21.072-8.213l15.721-3.864c5.726-9.434,18.237-17.374,34.221-21.7l9.158-11.781c11.174-14.381,39.527-24.365,67.418-23.736l38.361.85c19.387.461,40.778,5.667,54.518,13.263l2.227,1.23c5.951-10.169,19.085-18.749,36.452-23.656l13.993-15.363c3.05-3.326,14.311-14.178,35.63-19.77,2.674-4.767,7.268-9.273,13.411-13.131l5.656-3.546c18.135-11.4,48.913-16.1,74.844-11.429l11.543,2.052c15.253,2.745,31.77,8.883,42.1,15.642l.013.008c13.056,1.31,25.353,4.818,35.1,10.014l33.785,1.9a89.16,89.16,0,0,1,14.415-3.927c19.067-3.539,39.718-1.688,56.66,5.077l8.446,3.371c18.529,7.376,30.982,21.036,30.982,33.988a21.629,21.629,0,0,1-.224,3.116l-1.469,9.882c-1.992,13.533-16.737,26.688-36.692,32.732a97.406,97.406,0,0,1-17.3,3.486,135.3,135.3,0,0,1,16.5,8.75l6.656,4.258c.4.181,1.02.447,1.423.614l43.435,12.32,4.749-.591c18.032-2.254,36.9-.08,51.756,5.965a66.558,66.558,0,0,1,9.415,4.684l12.342-18.9-6.975-22.3a38.238,38.238,0,0,1-1.56-11.031,38.7,38.7,0,0,1,1.7-11.6l1.866-5.719c1.457-4.553,4.533-9.366,8.937-14a26.631,26.631,0,0,1-2.007-9.911,24.735,24.735,0,0,1,3.244-12.162l13.624-24.4c5.209-9.339,17.631-19.1,31.646-24.875,16.9-6.928,37.636-8.8,56.916-5.145s33.787,12.2,39.766,23.448l20.868,39.631c17.077,8.724,21.7,20.357,22.726,23.794l.176.578c12.225,2.416,23.4,6.346,31.8,11.219l21.495,12.481c13.63,7.9,22.68,20.13,23.051,31.154l.687,19.6c12.349,6.958,21.523,16.941,24.192,26.454l9.533,33.524c24.713.351,47.242,8.365,58.483,20.8l11.683,3.168c19.852,5.41,34.168,16.279,37.815,28.58,8.568,5.1,16.131,11.534,20.451,17.437l8.3,11.32a116.326,116.326,0,0,1,22,5.076l2.141.718c20.973,7.248,34.476,20.815,34.476,34.59a21.755,21.755,0,0,1-.626,5.168l-.283,1.192,13.7,4.872c11.865,4.179,24.787,11.591,32.126,18.435l14.336,13.319c14.626,5.141,26.705,13.666,32.5,23l4.324,6.917a39.706,39.706,0,0,1,5.665,19.741,28.66,28.66,0,0,1-.486,5.334l-4.138,21.388,1.65,1.707c7.208,7.484,9.262,10.777,10.41,13.222l3.266,7.484,4.649,10.85a32.174,32.174,0,0,1,2.5,12.629,33.53,33.53,0,0,1-3.089,14.168l-19.874,41.535c-.046.2-.109.53-.141.8a28.352,28.352,0,0,1,.365,4.6,39.849,39.849,0,0,1-4.745,18.2l-16.381,29.422c-5.048,9.122-16.527,16.975-31.694,21.745a52.362,52.362,0,0,1-16.573,14.174l-7,3.916a39.122,39.122,0,0,1-7.432,13.768l-30.64,37.475-69.008-32.992-38.913,8.264c-20.781,4.416-47.558,3.075-66.63-3.338l-10.186-3.427-7.837,2.388c-13.091,3.988-31.191,6.565-46.114,6.565h-17.718l-36.009,17.724.446,10.714.013.587c0,12.076-9.991,24.984-25.456,32.933l-13.592,7.031q-.972.5-1.968.97c0,.121,0,.242,0,.363,0,9.715-6.11,19.367-16.764,26.48l-5.5,3.652a66.346,66.346,0,0,1-13.883,6.954,26.616,26.616,0,0,1,1.016,7.154,23.963,23.963,0,0,1-.753,5.972l-4.73,18.3c-4.641,17.924-27.276,26.518-46.911,28.585s-46.278-1.346-62.116-17.106l-24.7-24.519q-.634-.223-1.267-.455l-38.135,34.807c-11.151,10.245-32.9,18.418-54.106,20.329l-47.095,4.272-.434.1-21.582,8c-19.676,7.334-46.848,8.872-67.912,3.88l-50.544-.655a208.824,208.824,0,0,1-40.313-4.821l-58.281-13.646c-.515-.064-1.321-.155-1.834-.207l-32.573-.291a186.461,186.461,0,0,1-43.343-5.845l-58.889-16.094c-15.054-4.142-30.129-12.055-38.422-20.164l-3.778-3.711c-1.113.006-2.2,0-3.243-.009L564.3,2086.4c-16.941-.225-36.641-3.921-50.214-9.416l-65.216-26.242-23.859-2.3-58.683-72.6-20.169,8.116c-15.345,6.2-37.464,9.551-56.34,8.541l-42.061-2.258c-19.382-1.033-38.35-6.554-51.122-14.837-20.535-4.353-39-15.033-46.056-26.651l-6.509-10.764a22.55,22.55,0,0,1-3.564-11.813c0-8.317,5.525-16.366,15.249-22.342l.363-29.8c-.057-.167-.126-.365-.19-.529l-21.222-28.67A54.843,54.843,0,0,1,125.6,1824.9l-4.642-24.01c-.085-.149-.181-.311-.271-.457l-19.976-19.5c-6.275-6.124-11.734-14.945-13.582-21.95l-2.287-8.6-19.179-16.07a80.138,80.138,0,0,1-15.742-18.033l-2.459-4.142A32.5,32.5,0,0,1,42.953,1696.073Z" fill="none" stroke="#35508a" stroke-miterlimit="10" stroke-width="0.515"/>
    <path id="Path_15627" data-name="Path 15627" d="M49.826,1696.073a23.7,23.7,0,0,1,3.165-12c3.1-5.25,8.415-9.787,15.511-13.293a25.167,25.167,0,0,1-4.214-13.611,23.926,23.926,0,0,1,4.79-14.091l9.889-13.535a42.532,42.532,0,0,0,3.759-6.786l11.639-29.989c6.982-17.875,32.376-22.394,39.994-23.354a93.089,93.089,0,0,1,20.081-.245l1.384-1.027c3.752-2.793,10.325-7.432,14.645-10.336l3.565-2.37a140.842,140.842,0,0,1,25.475-12.863l22.208-8.376c15.8-5.973,36.856-7.754,55.612-4.786l47.658-13.328a178.055,178.055,0,0,1,38.983-5.754l21.844-.673c.693-.053,3.276-.391,4.115-.545l13.806-3.376,19.181-17.5a81.755,81.755,0,0,1,16.951-11.262,21.42,21.42,0,0,1-1.1-6.753c0-9.558,6.746-19.7,17.6-26.479l18.677-11.684c14.241-8.886,30.113-10.7,42.029-10.405a68.324,68.324,0,0,1,20.823-8.558l18.61-4.574c4.872-9.62,17.473-17.683,33.843-21.634l10.213-13.136c10.085-12.98,35.674-21.99,60.845-21.423l38.365.85c17.77.423,37.376,5.2,49.969,12.157l10.862,6,.766-2.158c4.023-11.329,18.07-21.208,36.936-26.1l15.045-16.519c3.029-3.3,14.141-13.934,35.234-18.718,2.185-4.863,6.567-9.445,12.811-13.367l5.652-3.543c16.388-10.3,44.2-14.548,67.63-10.328l11.568,2.056c14.114,2.54,29.4,8.22,38.962,14.476l1.656,1.084c13.315,1.026,26.024,4.644,35.576,10.129l38.7,2.17a77.076,77.076,0,0,1,14.748-4.243c16.971-3.149,35.385-1.488,50.526,4.559l8.448,3.371c16.8,6.687,28.087,19.08,28.087,30.836a19.347,19.347,0,0,1-.2,2.8l-1.467,9.876c-1.808,12.285-15.111,24.2-33.1,29.651a89.921,89.921,0,0,1-20.669,3.554l-2,4.469a137.5,137.5,0,0,1,19.969,10.169l7.011,4.486c.549.267,2.053.918,2.678,1.155l46.079,13.07,7.141-.889c16.119-2.015,32.974-.075,46.241,5.322a50.259,50.259,0,0,1,15.545,9.549l17.33-26.544-7.293-23.322a35.873,35.873,0,0,1-1.457-10.361,36.434,36.434,0,0,1,1.589-10.9l1.865-5.715c1.459-4.562,4.8-9.531,9.493-14.149a24.623,24.623,0,0,1-2.45-10.457,22.372,22.372,0,0,1,2.928-11.005l13.624-24.4c4.8-8.6,16.24-17.6,29.15-22.914,15.06-6.177,33.521-7.852,50.658-4.6s30.045,10.865,35.376,20.892l21.426,40.69c16.56,7.929,21,18.983,21.976,22.268l.875,2.893c12.6,2.1,24.418,6.009,32.949,10.955l21.491,12.479c12.486,7.236,20.777,18.439,21.117,28.538l.743,21.2c12.192,6.336,21.648,16.22,24.219,25.383l10.007,35.194,4.081,1.582c23.752-.12,45.572,7.674,55.579,19.838l13.836,3.752c18.652,5.083,31.618,15.3,34.327,26.894,8.54,4.849,16.305,11.288,20.569,17.112l9.675,13.189a108.977,108.977,0,0,1,23.38,5.026l2.227.747c18.936,6.544,31.125,18.809,31.125,31.271a19.533,19.533,0,0,1-.561,4.641l-.873,3.661,17.421,6.2c11.048,3.891,23.081,10.793,29.915,17.165l15.212,14.134c13.986,4.635,25.506,12.582,31.02,21.459l4.329,6.925a37.123,37.123,0,0,1,5.275,18.459,26.369,26.369,0,0,1-.447,4.922l-4.369,22.584,2.677,2.77c6.855,7.118,8.763,10.147,9.8,12.361l3.237,7.419,4.643,10.835a29.917,29.917,0,0,1,2.306,11.723,31.154,31.154,0,0,1-2.855,13.166l-19.982,41.758a9.512,9.512,0,0,0-.283,1.677,26.011,26.011,0,0,1,.38,4.507A37.33,37.33,0,0,1,1843,1857.2l-16.378,29.417c-4.8,8.67-15.869,15.938-30.6,20.159a46.592,46.592,0,0,1-15.973,14.182l-8.6,4.809a36.081,36.081,0,0,1-7.213,13.985l-26.858,32.85-62.85-30.048q-1.113-.532-2.3-1.127l-42.748,9.079c-18.924,4.022-43.308,2.8-60.674-3.039l-13.543-4.557L1544,1946.347c-12.16,3.7-28.974,6.1-42.84,6.1h-20.3l-40.372,19.872.519,12.522.013.544c0,11.013-9.113,22.781-23.22,30.032l-13.608,7.039q-2.075,1.059-4.3,2.013a21.485,21.485,0,0,1,.111,2.165c0,8.819-5.522,17.563-15.147,23.99l-5.489,3.644a61.716,61.716,0,0,1-16.263,7.517,25.713,25.713,0,0,1,1.768,9.089,21.673,21.673,0,0,1-.682,5.417l-4.729,18.3c-4.119,15.907-24.073,23.519-41.374,25.341s-40.811-1.222-54.867-15.209l-25.589-25.4-.325-.109c-2.731-.916-5.409-1.964-8.013-3.135l-42.015,38.35c-10.17,9.343-30,16.8-49.342,18.539l-47.767,4.334c-.529.106-1.39.3-1.9.418l-22.136,8.207c-18.144,6.763-43.045,8.1-62.194,3.367-.394-.048-.79-.091-1.032-.115l-51.289-.664a195.874,195.874,0,0,1-37.818-4.523l-58.807-13.769c-.634-.094-2.6-.318-3.355-.378l-33.07-.3a173.958,173.958,0,0,1-40.436-5.453l-58.9-16.1c-13.9-3.823-27.813-11.128-35.469-18.614l-5.815-5.713c-2.476.063-4.826.081-7.019.055l-106.489-1.189c-15.633-.208-33.811-3.619-46.336-8.689l-66.514-26.764-21.825-2.108-60.635-75.017-26.968,10.851c-14.079,5.686-34.372,8.764-51.689,7.837l-42.058-2.258c-18.36-.978-36.038-6.283-47.7-14.263l-1.314-.271c-18.85-3.916-35.85-13.7-42.316-24.355l-6.5-10.759a20.18,20.18,0,0,1-3.2-10.569c0-7.931,5.514-15.4,15.231-20.772l.385-31.689a13.765,13.765,0,0,0-.5-1.388l-21.448-28.975a51.9,51.9,0,0,1-8.62-18.872l-4.712-24.372c-.182-.35-.548-.972-.77-1.3L106.664,1779c-5.885-5.744-11-14.017-12.739-20.587l-2.406-9.046c-.146-.226-.362-.541-.525-.762l-19.626-16.445a76.054,76.054,0,0,1-14.93-17.1l-2.458-4.142A30.013,30.013,0,0,1,49.826,1696.073Z" fill="none" stroke="#35508a" stroke-miterlimit="10" stroke-width="0.515"/>
    <path id="Path_15628" data-name="Path 15628" d="M56.7,1696.073a21.344,21.344,0,0,1,2.829-10.809c3.235-5.474,9.259-10.063,17.276-13.255a23.705,23.705,0,0,1-5.643-14.842,21.419,21.419,0,0,1,4.277-12.626l9.886-13.531a44.661,44.661,0,0,0,4.117-7.434l11.639-29.986c6.108-15.639,28.165-19.573,34.78-20.406a80.07,80.07,0,0,1,21.408.285l4.034-2.995c3.7-2.754,10.18-7.327,14.438-10.19l3.541-2.354a133.057,133.057,0,0,1,24.063-12.152l22.2-8.373c14.861-5.618,35.1-7.064,52.394-3.85l50.107-14.013a165.678,165.678,0,0,1,36.28-5.355l21.993-.677c1.127-.049,5.1-.571,6.154-.809l15.98-3.908,20.312-18.528c4.373-3.985,11.3-8.378,18.638-11.876l-.569-1.52a19.227,19.227,0,0,1-1.2-6.648c0-8.642,6.068-17.8,15.836-23.891l18.683-11.688c13.993-8.731,29.694-9.639,39.978-8.977,5.28-3.931,12.288-7.025,20.494-9.024l21.718-5.337c3.814-9.811,16.373-17.931,33.172-21.417L606.86,1375.3c9-11.578,31.822-19.615,54.273-19.109l38.368.851c16.153.384,33.975,4.721,45.423,11.051l15.351,8.478a49.01,49.01,0,0,1,4.492,2.8l3.343-9.434c3.739-10.525,17.413-19.737,35.2-23.873l16.161-17.744c6.141-6.695,18.392-14.549,35.046-17.58,1.521-4.993,5.616-9.679,12-13.688l5.648-3.54c14.641-9.2,39.488-13,60.417-9.229l11.594,2.06c12.975,2.335,27.027,7.558,35.82,13.31l3.414,2.236c13.526.658,26.543,4.353,35.781,10.161l43.961,2.465a64.979,64.979,0,0,1,14.892-4.571c14.87-2.76,31.049-1.287,44.388,4.04l8.451,3.372c15.064,6,25.191,17.124,25.191,27.684a17.252,17.252,0,0,1-.179,2.485l-1.466,9.87c-1.624,11.036-13.484,21.714-29.512,26.568a82.032,82.032,0,0,1-22.849,3.272l-4.373,9.775a135.947,135.947,0,0,1,22.624,11.1l7.238,4.631a42.943,42.943,0,0,0,4.23,1.827l48.553,13.772,9.534-1.188c14.2-1.776,29.049-.07,40.725,4.68,10.21,4.157,17.242,10.336,19.812,17.268l23.973-36.718a4.221,4.221,0,0,0,.1-.667l-7.508-24a33.624,33.624,0,0,1-1.351-9.692,34.108,34.108,0,0,1,1.478-10.21l1.863-5.71c1.473-4.6,5.127-9.73,10.161-14.312a22.624,22.624,0,0,1-3.005-10.992,20.016,20.016,0,0,1,2.612-9.848l13.624-24.394c4.387-7.867,14.848-16.093,26.653-20.954,13.226-5.424,29.405-6.9,44.4-4.057,15.01,2.845,26.3,9.528,30.987,18.337l22.021,41.819c16.019,7.093,20.254,17.543,21.189,20.672l1.619,5.354c12.909,1.681,25.362,5.509,34.05,10.545l21.486,12.477c11.342,6.572,18.873,16.748,19.182,25.922l.8,22.886,1.349.675c11.508,5.753,20.494,15,22.893,23.553l10.474,36.835,8.352,3.239c22.475-.616,43.784,7.045,52.351,18.8l16.13,4.374c17.234,4.7,29.054,14.466,30.751,25.208,8.537,4.558,16.528,10.985,20.776,16.788l11.125,15.166a102.771,102.771,0,0,1,24.678,4.867l2.309.776c16.9,5.841,27.776,16.8,27.776,27.952a17.287,17.287,0,0,1-.5,4.113l-1.462,6.132,21.144,7.521c10.235,3.6,21.378,10,27.7,15.894l16.142,15c13.133,4.052,24.327,11.566,29.487,19.873l4.334,6.932a34.542,34.542,0,0,1,4.885,17.177,24.194,24.194,0,0,1-.408,4.51l-4.6,23.78,3.7,3.831c6.506,6.755,8.265,9.52,9.2,11.5l3.2,7.353,4.637,10.819a27.619,27.619,0,0,1,2.115,10.818,28.781,28.781,0,0,1-2.619,12.163l-20.039,41.877a10.3,10.3,0,0,0-.465,2.728v0a23.769,23.769,0,0,1,.384,4.336,34.8,34.8,0,0,1-4.122,15.9l-16.376,29.413c-4.495,8.123-15.417,14.928-29.554,18.518a41.411,41.411,0,0,1-15.314,14.245l-10.266,5.743a32.811,32.811,0,0,1-6.922,14.162l-23.076,28.224-55.941-26.745c-1.626-.778-3.409-1.681-5.269-2.67q-1.35.33-2.694.614l-43.961,9.338c-17.066,3.626-39.056,2.524-54.718-2.742l-16.9-5.687-14.725,4.486a148.1,148.1,0,0,1-39.565,5.631h-22.884l-44.737,22.02.595,14.33.012.505c0,9.947-8.237,20.576-20.984,27.128l-13.624,7.047a66.222,66.222,0,0,1-6.836,3,19.091,19.091,0,0,1,.429,4.024c0,7.923-4.932,15.759-13.531,21.5l-5.476,3.636a57.8,57.8,0,0,1-19.05,7.889,24.8,24.8,0,0,1,2.927,11.215,19.472,19.472,0,0,1-.611,4.861l-4.73,18.3c-3.6,13.89-20.869,20.522-35.835,22.1s-35.344-1.1-47.619-13.31l-26.2-26c-.238-.143-.567-.331-.822-.47l-1.365-.457a78.644,78.644,0,0,1-13.085-5.762l-46.311,42.27c-9.189,8.441-27.106,15.176-44.577,16.75l-48.314,4.384c-.807.135-2.865.587-3.606.793l-22.582,8.372c-16.523,6.158-39.03,7.314-56.215,2.912-.873-.121-2.222-.27-2.684-.292l-51.674-.669a183.02,183.02,0,0,1-35.326-4.225l-59.1-13.84c-.824-.161-4.307-.566-5.291-.6l-33.378-.3a161.447,161.447,0,0,1-37.53-5.062l-58.911-16.1c-12.739-3.5-25.495-10.2-32.515-17.065l-7.929-7.79c-3.85.166-7.494.233-10.717.2l-106.5-1.19c-14.326-.19-30.981-3.315-42.457-7.961L454.3,2043.426l-19.791-1.911-62.586-77.432-33.767,13.586c-12.813,5.174-31.281,7.976-47.039,7.132l-42.055-2.258c-17.063-.909-33.819-6.116-44.174-13.671l-3.124-.644c-17.008-3.533-32.344-12.363-38.178-21.975l-6.5-10.755a17.83,17.83,0,0,1-2.833-9.324c0-7.515,5.5-14.357,15.211-19.069l.408-33.61a11.825,11.825,0,0,0-.868-2.441l-21.606-29.19a49.007,49.007,0,0,1-8.134-17.808L134.5,1799.4a15.693,15.693,0,0,0-1.352-2.294l-20.523-20.033c-5.5-5.363-10.277-13.089-11.9-19.225l-2.5-9.386a14.549,14.549,0,0,0-1.192-1.728l-19.961-16.725a71.855,71.855,0,0,1-14.116-16.173l-2.458-4.142A27.518,27.518,0,0,1,56.7,1696.073Z" fill="none" stroke="#35508a" stroke-miterlimit="10" stroke-width="0.515"/>
    <path id="Path_15629" data-name="Path 15629" d="M63.574,1696.073a18.988,18.988,0,0,1,2.493-9.617c3.433-5.807,10.51-10.4,19.841-13.018-5.025-4.632-7.873-10.471-7.873-16.271a18.916,18.916,0,0,1,3.765-11.161l9.883-13.527a46.767,46.767,0,0,0,4.476-8.083l11.637-29.982c5.236-13.4,23.956-16.751,29.567-17.458A67.733,67.733,0,0,1,159.78,1578l7-5.2c3.655-2.721,10.043-7.229,14.232-10.045l3.516-2.337a125.37,125.37,0,0,1,22.65-11.442l22.2-8.37c13.974-5.282,33.24-6.355,49-2.863L331.108,1523a155.683,155.683,0,0,1,33.576-4.956l22.012-.678a68.625,68.625,0,0,0,8.482-1.114l17.34-4.241c.3-.136.726-.345,1.034-.505l21.065-19.216c4.7-4.277,12.539-9.009,20.379-12.383l-1.434-3.836a16.919,16.919,0,0,1-1.051-5.853c0-7.726,5.39-15.889,14.068-21.3l18.691-11.693c14.048-8.764,30.007-8.334,38.06-7.35,4.7-4.264,11.641-7.643,20.031-9.687l25.1-6.167c2.45-9.791,15.22-18.165,32.137-21.014l12.563-16.16c7.908-10.176,27.969-17.239,47.7-16.794l38.373.85c14.537.346,30.573,4.249,40.874,9.945l15.356,8.48a38.913,38.913,0,0,1,9.988,7.735q2.127-.16,4.273-.228a25.172,25.172,0,0,1,1.157-4.938l3.973-11.21c3.465-9.754,16.693-18.215,33.379-21.553l17.357-19.058c5.908-6.442,18.051-14.071,34.438-16.193.252-.032.51-.063.771-.094.561-5.173,4.279-10.045,10.84-14.165l5.644-3.537c12.895-8.1,34.775-11.448,53.2-8.129l11.619,2.065c11.837,2.13,24.655,6.9,32.679,12.144l5.319,3.482c13.679.185,26.864,3.913,35.643,10.086l49.668,2.785a52.963,52.963,0,0,1,14.785-4.911,70.965,70.965,0,0,1,38.254,3.521l8.453,3.372c13.334,5.308,22.295,15.168,22.295,24.532a15.126,15.126,0,0,1-.155,2.169l-1.465,9.864c-1.441,9.788-11.858,19.228-25.922,23.487a73.126,73.126,0,0,1-24.892,2.683l-6.938,15.511,2.006.715a128.478,128.478,0,0,1,23.326,11.2l7.3,4.669a42.507,42.507,0,0,0,6.138,2.657l50.84,14.422,11.928-1.487c12.289-1.536,25.123-.064,35.208,4.039s16.578,10.5,17.826,17.543l.286,1.62,7.046,2.865,1.039-.286,28.3-43.339a6.148,6.148,0,0,0,.3-1.822c0-.063,0-.116,0-.16l-7.615-24.341a31.353,31.353,0,0,1-1.247-9.022,31.832,31.832,0,0,1,1.367-9.517l1.862-5.706c1.5-4.694,5.532-9.973,10.988-14.487A20.684,20.684,0,0,1,1283,1336.8a17.667,17.667,0,0,1,2.3-8.691l13.624-24.393c3.977-7.132,13.459-14.588,24.156-18.993a69.131,69.131,0,0,1,38.143-3.513c12.867,2.438,22.562,8.191,26.6,15.781l22.66,43.035c12.253,4.92,18.543,12.913,20.356,18.989l2.418,8c12.978,1.12,26.285,4.843,35.1,9.951l21.483,12.474c10.2,5.909,16.969,15.059,17.247,23.307l.862,24.577,3.595,1.8c10.391,5.2,18.5,13.543,20.669,21.267l10.942,38.476,12.763,4.95c21.069-1.174,41.783,6.239,48.8,17.656l18.6,5.043c15.749,4.292,26.467,13.669,27.048,23.527,8.494,4.171,16.907,10.722,21.108,16.46l12.671,17.273a95.663,95.663,0,0,1,25.881,4.578l2.389.8c14.869,5.139,24.43,14.8,24.43,24.635a15.049,15.049,0,0,1-.432,3.584l-2.052,8.6,24.869,8.845c9.417,3.318,19.673,9.2,25.491,14.624l17.125,15.911.033.02c12.215,3.427,23.077,10.506,27.87,18.219l4.338,6.94a31.95,31.95,0,0,1,4.5,15.9,21.992,21.992,0,0,1-.37,4.1c-.024.124-4.038,20.876-4.74,24.507a4.925,4.925,0,0,0,.307.88l4.333,4.482c6.171,6.407,7.8,8.975,8.589,10.644l3.175,7.285,4.632,10.805a25.346,25.346,0,0,1,1.922,9.912,26.422,26.422,0,0,1-2.384,11.161l-20.037,41.875a11.63,11.63,0,0,0-.7,3.732c0,.1,0,.182.005.239a21.431,21.431,0,0,1,.379,4.1,32.279,32.279,0,0,1-3.81,14.75l-16.373,29.409c-4.223,7.631-15,13.9-28.6,16.8-2.813,5.543-8,10.7-14.568,14.386l-12.027,6.728a29.263,29.263,0,0,1-6.539,14.288l-19.3,23.6-49.032-23.441c-2.5-1.2-5.424-2.726-8.382-4.379-2.15.644-4.308,1.2-6.454,1.65l-43.969,9.339c-15.208,3.231-34.8,2.249-48.761-2.444l-20.262-6.816-18.167,5.535a135.879,135.879,0,0,1-36.291,5.164h-25.467l-49.1,24.168.67,16.137.011.465c0,8.881-7.36,18.371-18.748,24.225l-13.64,7.055a62.076,62.076,0,0,1-9.708,3.9,17.1,17.1,0,0,1,1.081,5.967c0,7.026-4.343,13.955-11.915,19.01l-5.464,3.628c-6.065,4.048-13.962,6.783-22.573,7.921a24.014,24.014,0,0,1,4.821,13.681,17.211,17.211,0,0,1-.54,4.306l-4.729,18.3c-3.075,11.872-17.666,17.523-30.3,18.853s-29.877-.973-40.37-11.413l-26.534-26.337a21.545,21.545,0,0,0-2.373-1.359l-1.94-.65a69.913,69.913,0,0,1-17.643-8.862l-51.124,46.664c-8.207,7.539-24.211,13.555-39.812,14.961l-48.613,4.41a50.887,50.887,0,0,0-5.768,1.268l-22.818,8.46c-14.838,5.531-34.9,6.521-50.08,2.492-1.089-.178-3.7-.491-4.741-.506l-51.81-.672a170.021,170.021,0,0,1-32.831-3.927l-59.116-13.842a64.752,64.752,0,0,0-7.719-.9l-33.482-.3a151.226,151.226,0,0,1-34.625-4.67l-58.921-16.1c-11.581-3.186-23.178-9.274-29.562-15.515l-10.117-9.941c-5.127.312-10.174.458-14.341.408l-106.508-1.19c-13.018-.173-28.151-3.012-38.576-7.233l-69.113-27.809-17.757-1.715-63.553-78.628-1.689-.937-39.861,16.038c-11.547,4.663-28.189,7.188-42.389,6.428l-42.052-2.258c-15.619-.832-31.339-5.875-40.339-12.9-.176-.075-.369-.155-.537-.221l-4.711-.971c-15.162-3.15-28.835-11.023-34.037-19.594l-6.5-10.751a15.474,15.474,0,0,1-2.466-8.08c0-7.021,5.5-13.217,15.187-17.2l.433-35.54a11.5,11.5,0,0,0-1.355-3.811l-21.648-29.246a46.081,46.081,0,0,1-7.647-16.744l-4.8-24.8a14.88,14.88,0,0,0-2.084-3.544l-20.639-20.144c-5.107-4.984-9.548-12.163-11.051-17.863l-2.55-9.581a13.494,13.494,0,0,0-2.043-2.961l-20.15-16.884a67.715,67.715,0,0,1-13.3-15.243l-2.458-4.141A25.036,25.036,0,0,1,63.574,1696.073Z" fill="none" stroke="#35508a" stroke-miterlimit="10" stroke-width="0.515"/>
    <path id="Path_15630" data-name="Path 15630" d="M70.447,1696.073a16.634,16.634,0,0,1,2.158-8.425c3.387-5.728,11.054-10.025,21.053-11.817q1.448-.26,2.936-.443l-3.508-2.835c-5.194-4.182-8.177-9.792-8.177-15.386a16.426,16.426,0,0,1,3.251-9.7l9.881-13.523a49.68,49.68,0,0,0,4.835-8.731l11.635-29.978c4.363-11.167,19.746-13.93,24.356-14.511a54.5,54.5,0,0,1,22.969,2.151l10.424-7.736c3.61-2.687,9.9-7.129,14.026-9.9l3.491-2.321a117.558,117.558,0,0,1,21.239-10.73l22.187-8.368c12.828-4.849,31.407-5.581,45.362-1.811l55.6-15.55a145.428,145.428,0,0,1,30.873-4.557l22.03-.678a76.932,76.932,0,0,0,10.839-1.428l18.024-4.407A22.048,22.048,0,0,0,419,1513.9l21.467-19.582c5.017-4.571,13.963-9.687,22.178-12.736l-2.356-6.307a14.6,14.6,0,0,1-.9-5.058c0-6.81,4.713-13.982,12.3-18.715l18.7-11.7c13.928-8.69,29.888-6.563,34.447-5.7.525.1,1.175.232,1.916.407,3.709-4.77,10.519-8.626,19.348-10.776l28.84-7.088c.675-9.872,13.622-18.348,30.617-20.365l13.906-17.887c6.818-8.775,24.115-14.865,41.126-14.481l38.378.85c12.721.3,27.311,3.855,36.326,8.839l15.358,8.482a31.993,31.993,0,0,1,10.774,9.332,85.071,85.071,0,0,1,14.9-.692,25.693,25.693,0,0,1,1.3-8.08l3.97-11.2c3.151-8.867,16.008-16.647,31.456-19.118l18.657-20.486c5.2-5.667,15.765-12.362,29.862-14.188,1.782-.227,3.884-.419,6.206-.57a10.3,10.3,0,0,1-.178-1.913c0-4.718,3.169-9.2,9.162-12.964l5.639-3.535c11.149-7.006,30.063-9.9,45.991-7.029l11.645,2.07c10.532,1.9,22.394,6.305,29.537,10.978l7.414,4.852c13.539-.419,27.019,3.351,35.067,9.873l55.956,3.138a41.089,41.089,0,0,1,14.346-5.271,59.581,59.581,0,0,1,32.118,3l8.458,3.374c11.6,4.618,19.4,13.211,19.4,21.379a12.907,12.907,0,0,1-.133,1.852l-1.463,9.86c-1.257,8.539-10.232,16.74-22.333,20.405a62.941,62.941,0,0,1-26.166,1.732,10.061,10.061,0,0,0-1.474,1.946l-8.808,19.686,6.2,2.212A122.159,122.159,0,0,1,1110,1413.215l7.295,4.667a47.125,47.125,0,0,0,8.2,3.554l51.876,14.715c.623.079,1.813.161,2.444.17l13.039-1.625c10.377-1.3,21.2-.059,29.692,3.4s13.961,8.85,15.015,14.795l.592,3.351,12.892,5.241,6.762-1.857c.207-.118.452-.27.641-.4l29.207-44.736a7.733,7.733,0,0,0,.588-2.947,3.414,3.414,0,0,0-.043-.624l-7.679-24.547a29.071,29.071,0,0,1-1.142-8.352,29.542,29.542,0,0,1,1.255-8.823l1.861-5.7c1.542-4.819,6.12-10.334,12.051-14.677a19.036,19.036,0,0,1-4.67-12.022,15.3,15.3,0,0,1,1.981-7.534l13.624-24.392c3.512-6.3,12.217-13.144,21.659-17.033a57.8,57.8,0,0,1,31.886-2.969c10.725,2.033,18.82,6.854,22.209,13.226l23.359,44.364c11.749,4.109,17.815,11.671,19.463,17.192l3.3,10.9c12.822.347,27.2,3.961,36.063,9.1l21.479,12.472c8.913,5.165,15.07,13.481,15.313,20.691l.921,26.271,5.842,2.92c9.129,4.564,16.543,12.192,18.446,18.98l11.393,40.067c.029.026.057.053.087.079l16.828,6.525c.316.047.717.1,1.026.128,18.56-1.559,37.275,4.856,43.476,14.955l.825,1.371c.1.065.21.134.313.2l20.969,5.685c13.872,3.78,23.185,12.173,23.185,20.888q0,.472-.036.943l1.819.862c7.812,3.725,15.954,10.006,19.816,15.283l14.338,19.545c9.688.053,19.472,1.528,26.962,4.125l2.471.831c12.835,4.436,21.083,12.794,21.083,21.317a12.79,12.79,0,0,1-.368,3.055l-2.639,11.074,28.591,10.17c8.469,2.983,18.052,8.478,23.281,13.354l17.408,16.175a12.853,12.853,0,0,0,1.677.976c10.913,2.855,21.019,9.326,25.34,16.278l4.341,6.946a29.359,29.359,0,0,1,4.107,14.613,19.86,19.86,0,0,1-.33,3.689c0,.007-4.342,22.441-4.8,24.833a6.291,6.291,0,0,0,.834,2.466l4.665,4.826c5.855,6.079,7.342,8.423,7.984,9.787l3.143,7.215,4.626,10.792a23.071,23.071,0,0,1,1.731,9.006,24.038,24.038,0,0,1-2.15,10.158l-20.035,41.873a13.612,13.612,0,0,0-.939,4.737,3.94,3.94,0,0,0,.03.576,19.231,19.231,0,0,1,.354,3.764,29.771,29.771,0,0,1-3.5,13.6l-16.371,29.4c-3.952,7.144-14.789,12.877-27.784,14.953-2.151,5.558-7.169,10.99-13.685,14.653l-13.9,7.778c-.184,4.559-2.462,10-6.041,14.349l-15.513,18.973-42.124-20.138c-3.465-1.659-7.774-3.99-11.691-6.3a73.383,73.383,0,0,1-10.018,2.9l-43.975,9.34c-13.35,2.836-30.553,1.974-42.806-2.145l-23.62-7.947-21.611,6.584a125.491,125.491,0,0,1-33.016,4.7h-27.137c-.467.078-1.182.231-1.613.344l-52.764,25.971.744,17.945.009.423c0,7.7-6.636,16.248-16.511,21.324l-13.656,7.063a59.307,59.307,0,0,1-13.172,4.673,15.5,15.5,0,0,1,2.324,8.04c0,6.129-3.754,12.151-10.3,16.52l-5.452,3.619c-7.262,4.847-17.351,7.4-27.971,7.131,5.339,4.739,8.59,11.092,8.59,16.97a15.04,15.04,0,0,1-.468,3.751l-4.73,18.3c-2.552,9.856-14.464,14.526-24.76,15.61s-24.41-.849-33.122-9.516l-26.684-26.487a21.834,21.834,0,0,0-4.445-2.546l-2.183-.732c-8.379-2.81-16.481-7.661-21.559-12.741a23.818,23.818,0,0,1-1.881,1.911l-54.7,49.926c-7.226,6.637-21.314,11.934-35.048,13.171l-48.619,4.411a53.844,53.844,0,0,0-8.431,1.848l-22.844,8.468c-13.068,4.872-30.616,5.718-43.751,2.12a56.034,56.034,0,0,0-7.11-.77l-51.828-.673a159.59,159.59,0,0,1-30.337-3.628l-59.127-13.844a71.084,71.084,0,0,0-10.247-1.195l-33.486-.3a140.7,140.7,0,0,1-31.72-4.279l-58.932-16.106c-10.263-2.824-20.949-8.435-26.608-13.967l-12.385-12.168c-6.222.5-12.744.76-17.884.7l-106.518-1.19c-11.53-.153-25.464-2.768-34.7-6.506l-70.1-28.208a16.36,16.36,0,0,0-1.681-.256l-14.35-1.386-62.571-77.415-6.713-3.726-44.57,17.933c-10.122,4.088-25.293,6.39-37.738,5.724l-42.05-2.258c-13.873-.738-28.218-5.426-35.9-11.705a21.785,21.785,0,0,0-2.57-1.059l-5.4-1.113c-13.32-2.767-25.329-9.683-29.9-17.214l-6.5-10.747a13.119,13.119,0,0,1-2.1-6.835c0-6.133,5.087-11.486,13.954-14.688.4-.143.8-.281,1.209-.414l.457-37.61a13,13,0,0,0-1.881-5.321l-21.649-29.247a43.79,43.79,0,0,1-7.159-15.679l-4.8-24.8a15.669,15.669,0,0,0-2.95-5.042l-20.651-20.158c-4.644-4.532-8.841-11.317-10.207-16.5l-2.551-9.586a14.566,14.566,0,0,0-3.093-4.507L88.489,1725.7A63.555,63.555,0,0,1,76,1711.387l-2.458-4.141A22.55,22.55,0,0,1,70.447,1696.073Z" fill="none" stroke="#35508a" stroke-miterlimit="10" stroke-width="0.515"/>
    <path id="Path_15631" data-name="Path 15631" d="M77.321,1696.073a14.28,14.28,0,0,1,1.822-7.232c2.675-4.525,8.721-7.915,16.6-9.327a47.628,47.628,0,0,1,13.878-.365l-10.9-8.8c-4.411-3.552-6.945-8.357-6.945-13.178a13.932,13.932,0,0,1,2.739-8.232l9.878-13.518a52.374,52.374,0,0,0,5.193-9.38l11.634-29.974c3.491-8.933,15.537-11.109,19.144-11.564,3.224-.405,13.561-1.178,22.79,3.8l14.579-10.82c3.547-2.64,9.748-7.017,13.819-9.752l3.467-2.306a111.49,111.49,0,0,1,19.826-10.019l22.181-8.365c11.017-4.164,27.025-4.756,38.922-1.436l1.818.508a15.433,15.433,0,0,0,1.6,0l57.862-16.181a134.728,134.728,0,0,1,28.169-4.158l22.049-.678a86.68,86.68,0,0,0,13.2-1.742l18.23-4.457a22.8,22.8,0,0,0,5.864-2.856l21.578-19.684c4.723-4.3,13.694-9.337,21.334-11.975l2.709-.938-3.344-8.952a12.293,12.293,0,0,1-.759-4.264c0-5.895,4.036-12.074,10.532-16.127l18.7-11.7c11.124-6.94,23.6-5.293,27.152-4.623a32.743,32.743,0,0,1,8.171,2.685c1.493-5.774,8.231-10.791,18.008-13.172l32.944-8.1.011-1.818c.078-9.077,12.7-16.73,28.558-17.594l15.416-19.83c5.729-7.372,20.261-12.489,34.553-12.167l38.382.851c10.955.26,24.015,3.44,31.779,7.732l15.359,8.483c5.274,2.907,9.246,7.074,11.167,11.459a70.834,70.834,0,0,1,26.53-.971,27.8,27.8,0,0,1-.332-4.314,23.692,23.692,0,0,1,1.173-7.622l3.967-11.2c2.72-7.653,14-14.347,27.425-16.281l.478-.069a12.1,12.1,0,0,0,2.253-1.016l19.335-21.231c4.282-4.669,13.466-10.652,25.287-12.183,3.39-.433,8.25-.718,13.285-.815a9.008,9.008,0,0,1-1.926-5.435c0-3.751,2.561-7.342,7.408-10.385l5.636-3.533c9.4-5.908,25.35-8.347,38.778-5.929l11.669,2.074c9.266,1.668,20.111,5.7,26.4,9.813l9.765,6.391c12.688-1.179,26.225,2.357,33.4,8.985l.068.064a10.843,10.843,0,0,0,1.32.474l62.156,3.485c3.254-2.658,7.893-4.626,13.441-5.656a48.2,48.2,0,0,1,25.984,2.483l8.46,3.375c9.868,3.928,16.5,11.254,16.5,18.226a10.64,10.64,0,0,1-.11,1.535l-1.462,9.856c-1.057,7.176-8.764,14.3-18.743,17.323a51.922,51.922,0,0,1-25.894.524,19.212,19.212,0,0,0-5.15,5.611l-10.022,22.4,10.4,3.709a115.613,115.613,0,0,1,20.369,9.778l7.292,4.665a53.16,53.16,0,0,0,10.257,4.451l52.335,14.846a29.812,29.812,0,0,0,6.093.424l13.521-1.685c8.46-1.058,17.274-.054,24.176,2.754s11.344,7.2,12.2,12.047l.74,4.184a6.7,6.7,0,0,0,1.479,1.433l17.419,7.082,11.236-3.087a12.214,12.214,0,0,0,3-1.859l29.546-45.256a9.336,9.336,0,0,0,.975-4.226,4.559,4.559,0,0,0-.126-1.228l-7.7-24.612a26.787,26.787,0,0,1-1.038-7.683,27.241,27.241,0,0,1,1.144-8.13l1.86-5.7c1.611-5.036,6.986-10.883,13.516-14.884-3.815-3.572-6.023-8.076-6.023-12.513a12.934,12.934,0,0,1,1.667-6.376l13.623-24.392c3.06-5.487,10.939-11.686,19.162-15.072a46.446,46.446,0,0,1,25.628-2.425c8.584,1.627,15.079,5.516,17.821,10.671l24.143,45.853c10.495,2.97,16.817,9.642,18.485,15.235l4.244,14.042,4.73.065c11.191.165,24.441,3.432,32.231,7.947l21.474,12.47c7.666,4.442,13.169,11.876,13.378,18.076l.944,26.925a6.142,6.142,0,0,0,1.414,1.726l6.712,3.355c7.9,3.952,14.575,10.817,16.223,16.693l11.565,40.674a8.005,8.005,0,0,0,1.921,1.71l18.428,7.146a23.6,23.6,0,0,0,4.416.553l.607-.047c15.425-1.325,31.015,3.992,36.164,12.377l1.148,1.907a11.41,11.41,0,0,0,2.631,1.644l21.84,5.921c11.547,3.146,19.3,10.14,19.3,17.406a10.325,10.325,0,0,1-.333,2.6l4.561,2.161c6.939,3.31,14.456,9.11,17.889,13.8l16.162,22.033c9.633-.462,20.238.8,27.887,3.456l2.548.858c10.8,3.733,17.74,10.79,17.74,18a10.6,10.6,0,0,1-.3,2.528l-3.227,13.543,32.314,11.495c7.542,2.657,16.413,7.742,21.068,12.083l17.415,16.18a17.2,17.2,0,0,0,3.962,2.3c9.459,2.3,18.644,8.1,22.446,14.224l4.345,6.952a26.77,26.77,0,0,1,3.718,13.332,17.664,17.664,0,0,1-.291,3.278l-4.842,25.034c0,.01,0,.075,0,.161a8.136,8.136,0,0,0,1.539,4.224l4.8,4.963c6.2,6.439,7.087,8.314,7.377,8.93l3.112,7.146,4.62,10.778a20.8,20.8,0,0,1,1.539,8.1,21.7,21.7,0,0,1-1.914,9.156l-20.035,41.871a15.689,15.689,0,0,0-1.174,5.741,5.3,5.3,0,0,0,.069.994,16.925,16.925,0,0,1,.315,3.346,27.263,27.263,0,0,1-3.187,12.451l-16.368,29.4c-3.77,6.813-14.814,11.856-27.224,12.889-1.169,5.582-5.917,11.412-12.545,15.138l-15.641,8.75a2.024,2.024,0,0,0-.3.244c.025.306.037.615.037.929,0,4.15-2.077,9.252-5.419,13.315l-11.731,14.348-35.215-16.835a159.169,159.169,0,0,1-15.229-8.513,65.457,65.457,0,0,1-13.354,4.439l-43.982,9.342c-11.313,2.4-26.467,1.644-36.85-1.847l-26.979-9.077-25.053,7.634a114.852,114.852,0,0,1-29.742,4.23h-27.784a23.1,23.1,0,0,0-5.032,1.075l-54.672,26.91a4.638,4.638,0,0,0-.943,1.211l.788,19.021.008.378c0,6.547-5.87,14.106-14.274,18.425l-13.673,7.071a58.042,58.042,0,0,1-17.632,5.173l1.791,2.377a13.361,13.361,0,0,1,2.773,8.008c0,5.233-3.164,10.346-8.681,14.03l-5.44,3.611c-6.306,4.208-15.185,6.281-24.352,5.679s-16.96-3.772-21.39-8.7l-2.3-2.571.642.852a53.265,53.265,0,0,0,8.031,7.984l9.535,7.374c5.444,4.205,8.829,10.33,8.829,15.982a12.811,12.811,0,0,1-.4,3.2l-4.729,18.3c-2.03,7.839-11.26,11.528-19.222,12.367s-18.944-.725-25.873-7.619l-26.688-26.49a25.8,25.8,0,0,0-6.9-3.96l-2.185-.733c-8.913-2.988-17.8-8.857-21.615-14.271l-5.679-8.058a12.714,12.714,0,0,1,.066,1.313c0,4.123-1.981,8.2-5.581,11.475l-54.7,49.929c-6.146,5.646-18.6,10.33-30.283,11.383l-48.627,4.411a61.222,61.222,0,0,0-11.142,2.445l-22.821,8.46c-11.007,4.1-26.293,4.852-37.158,1.816a62.909,62.909,0,0,0-9.741-1.1l-51.849-.673a148.918,148.918,0,0,1-27.844-3.33l-59.136-13.846a80.112,80.112,0,0,0-12.775-1.492l-33.49-.3a129.821,129.821,0,0,1-28.814-3.887l-58.943-16.11c-8.983-2.472-18.7-7.576-23.655-12.417l-14.743-14.487a202.2,202.2,0,0,1-21.338,1.08l-106.527-1.19c-10.082-.134-22.744-2.509-30.817-5.778l-70.691-28.444a24.146,24.146,0,0,0-3.947-.693l-10.763-1.039-61.59-76.2-11.736-6.515-49.278,19.828c-8.737,3.528-22.347,5.594-33.088,5.019L251.025,1971c-11.962-.636-24.766-4.862-31.178-10.284a23.423,23.423,0,0,0-5.4-2.224l-5.58-1.15c-11.3-2.347-21.884-8.445-25.761-14.833l-6.5-10.743a10.757,10.757,0,0,1-1.733-5.591c0-4.791,3.935-8.959,10.794-11.435a32.742,32.742,0,0,1,4.339-1.228l.487-40.022a15.107,15.107,0,0,0-2.409-6.832l-21.649-29.249a41.44,41.44,0,0,1-6.672-14.614l-4.8-24.8a17.891,17.891,0,0,0-3.823-6.551l-20.656-20.162c-4.193-4.093-8.129-10.458-9.363-15.137l-2.552-9.591a16.961,16.961,0,0,0-4.184-6.089L94.2,1723.547a60.333,60.333,0,0,1-11.677-13.383l-2.459-4.142A20.076,20.076,0,0,1,77.321,1696.073Z" fill="none" stroke="#35508a" stroke-miterlimit="10" stroke-width="0.515"/>
    <path id="Path_15632" data-name="Path 15632" d="M84.195,1696.073a11.916,11.916,0,0,1,1.486-6.039c1.964-3.322,6.387-5.805,12.152-6.838a37.017,37.017,0,0,1,20.108,2.239l15.937,6.547c-.043-.037-.084-.073-.126-.107l-29.384-23.738a14.321,14.321,0,0,1-5.712-10.97,11.426,11.426,0,0,1,2.226-6.766l9.875-13.515a55.028,55.028,0,0,0,5.552-10.028l11.633-29.971c2.617-6.7,11.325-8.287,13.931-8.615s11.69-.976,19.12,4.448l2.439,1.775,19.786-14.683c3.5-2.6,9.606-6.915,13.612-9.607l3.443-2.289a105.179,105.179,0,0,1,18.414-9.308l22.174-8.362c8.925-3.374,22.4-3.874,32.038-1.185l2.3.643a19.814,19.814,0,0,0,6.745,0l58.345-16.317a123.858,123.858,0,0,1,25.465-3.759l22.068-.679a96.553,96.553,0,0,0,15.557-2.055l18.235-4.458c2.737-.673,7.447-2.968,8.987-4.384l21.566-19.672c4.155-3.785,12.356-8.389,19.08-10.71l5.89-2.04a1.837,1.837,0,0,0,.717-.931l-4.112-11.008a9.989,9.989,0,0,1-.612-3.469c0-4.978,3.358-10.166,8.764-13.539l18.71-11.7c8.319-5.19,17.3-4.024,19.857-3.543s10.978,2.591,12.062,9.543l1.389,8.7c.223,1.441,2.578,4.224,4.42,5.232l5.045,2.756,2.193-8.6a3.26,3.26,0,0,0,.084-.811,9.52,9.52,0,0,0-2.089-5.562l-3.335-3.481a9.245,9.245,0,0,1-2.854-6.323c0-5.229,5.566-9.963,14.179-12.06l35.484-8.721a3.509,3.509,0,0,0,1.594-1.382l.018-3.347c.064-7.409,10.822-13.606,23.986-13.816l.377,0a7.232,7.232,0,0,0,2.7-1.054l16.337-21.015c4.64-5.971,16.408-10.115,27.981-9.854l38.386.851c9.239.22,20.683,3.007,27.23,6.627l15.364,8.484c6.21,3.424,10.387,9.229,10.387,14.443,0,.205-.007.41-.019.613l3.775-1.425c9.106-3.419,22.675-3.789,32.278-.885l5.143,1.553-1.154-2.941a22.016,22.016,0,0,1-1.356-7.942,21.439,21.439,0,0,1,1.043-6.873l3.964-11.191c2.186-6.15,11.6-11.739,22.389-13.292l.773-.111c1.817-.261,5.376-1.864,6.236-2.81l19.469-21.378c3.888-4.239,11.794-9.023,20.713-10.178a155.086,155.086,0,0,1,21.274-.652l7.387.277c-7.325-1.688-11.971-5.308-11.971-9.642,0-2.784,1.954-5.483,5.654-7.806l5.632-3.531c7.533-4.733,20.81-6.766,31.566-4.829l11.694,2.079c8.032,1.445,17.8,5.08,23.256,8.647l11.827,7.74a3.9,3.9,0,0,0,1.17.363c10.662-1.9,23.2.935,29.508,6.763l.337.31a14.1,14.1,0,0,0,5.687,2.033l67.167,3.766c2.285-2.909,6.5-5.094,11.822-6.082a36.836,36.836,0,0,1,19.849,1.964l8.463,3.376c8.008,3.189,13.6,9.388,13.6,15.074a8.565,8.565,0,0,1-.087,1.224l-1.46,9.845c-.862,5.853-7.235,11.844-15.153,14.242a40.164,40.164,0,0,1-24.3-.943l-3.528,2.336c-2.433,1.595-5.7,5.153-6.623,7.2l-11.025,24.644a1.469,1.469,0,0,0,.516.73l13.868,4.947a109.039,109.039,0,0,1,18.889,9.067l7.291,4.664a60.276,60.276,0,0,0,12.318,5.348l52.34,14.848a37.761,37.761,0,0,0,10.639.751l13.558-1.69a38.467,38.467,0,0,1,18.66,2.113c5.3,2.16,8.727,5.549,9.392,9.3l.771,4.354c.186,1.056,2.483,3.29,4.03,3.919l19.086,7.758a12.487,12.487,0,0,0,4.1.173l12.848-3.529c2.048-.562,5.519-2.718,6.3-3.91l29.587-45.319a11.407,11.407,0,0,0,1.4-5.558,6.479,6.479,0,0,0-.229-1.891l-7.7-24.619a24.518,24.518,0,0,1-.934-7.013,24.958,24.958,0,0,1,1.032-7.435l1.858-5.695c1.555-4.861,7.439-10.833,13.987-14.186l1.813-.944-1-.7c-4.5-3.138-7.193-7.725-7.193-12.262a10.571,10.571,0,0,1,1.351-5.218l13.623-24.392c2.62-4.7,9.629-10.214,16.665-13.111a35.1,35.1,0,0,1,19.371-1.881c6.443,1.221,11.337,4.179,13.43,8.115l24.149,45.861a6.28,6.28,0,0,0,1.907,1.938c9.227,2.052,14.934,7.974,16.381,12.822l5.194,17.188,10.389.144c9.385.137,20.932,2.987,27.467,6.774l21.47,12.467c6.453,3.74,11.267,10.243,11.443,15.46l.949,27.074c.042,1.106,2.048,3.558,3.518,4.3l6.909,3.453c6.713,3.357,12.6,9.415,14,14.407l11.6,40.8c.329,1.139,2.913,3.441,4.606,4.1l18.7,7.249a29.693,29.693,0,0,0,9.186,1.159l.572-.044c12.243-1.052,24.65,3.161,28.731,9.809l1.209,2.007c.676,1.1,4.011,3.2,5.933,3.723l21.989,5.962c9.222,2.512,15.41,8.107,15.41,13.924a8.215,8.215,0,0,1-.539,2.912,3.107,3.107,0,0,0,1.359,2.031l5.85,2.773c6.093,2.905,12.949,8.2,15.964,12.315l18.222,24.842c9.078-1.2,20.842-.216,28.575,2.465l2.624.884c8.64,2.986,14.4,8.878,14.4,14.684a8.445,8.445,0,0,1-.239,2l-3.58,15.024a2.806,2.806,0,0,0,1.308,1.538l34.493,12.269c6.645,2.341,14.761,6.993,18.857,10.813l17.421,16.185a22.142,22.142,0,0,0,6.793,3.775c7.792,1.8,15.8,6.864,19.007,12.027l4.348,6.959a24.547,24.547,0,0,1,3.33,12.05,15.422,15.422,0,0,1-.253,2.868l-4.841,25.024a3.41,3.41,0,0,0-.044.581,10.376,10.376,0,0,0,2.369,6.065l4.8,4.968c2.654,2.755,5.976,6.387,6.774,8.076l3.078,7.073,4.616,10.765a18.536,18.536,0,0,1,1.346,7.194,19.361,19.361,0,0,1-1.679,8.155l-20.033,41.867a17.8,17.8,0,0,0-1.411,6.746,7.365,7.365,0,0,0,.115,1.439,14.709,14.709,0,0,1,.269,2.9,24.716,24.716,0,0,1-2.876,11.3l-16.365,29.394c-3.567,6.447-15.4,10.873-27.324,10.329a9.333,9.333,0,0,1,.066,1.106c0,5.26-4.445,11.434-10.811,15.014l-15.628,8.742a6.9,6.9,0,0,0-2.428,2.3,9.477,9.477,0,0,1,.136,1.615c0,3.569-1.877,8.159-4.783,11.693l-7.949,9.722L1696.8,1927.83a148.037,148.037,0,0,1-16.5-9.428l-2.54-1.739a56.216,56.216,0,0,1-16.412,6.42l-43.99,9.344c-9.334,1.983-22.328,1.332-30.895-1.548l-27.967-9.41a14.588,14.588,0,0,0-4.811-.053l-26.054,7.939a103.9,103.9,0,0,1-26.468,3.763h-27.784a30.247,30.247,0,0,0-9.511,2.008l-54.983,27.063c-1.325.65-3,2.772-3.036,3.825l.8,19.276.007.332c0,5.43-5.063,11.943-12.038,15.528l-13.689,7.079c-5.806,2.964-14.538,4.776-22.771,4.931l5.254,6.972a10.827,10.827,0,0,1,2.229,6.5c0,4.335-2.575,8.542-7.066,11.539l-5.428,3.6c-4.8,3.2-11.475,4.787-18.309,4.338s-12.682-2.856-16.053-6.606l-12.092-13.5a10.352,10.352,0,0,0-4-1.464l-10.753-.4,12.719,16.9a57.376,57.376,0,0,0,8.805,8.753l9.532,7.371c4.563,3.525,7.514,8.906,7.514,13.709a10.6,10.6,0,0,1-.326,2.643l-4.73,18.3c-1.9,7.328-10.953,8.836-13.684,9.123s-12.147.724-18.623-5.721l-26.692-26.494a31.23,31.23,0,0,0-9.377-5.379l-2.171-.728c-7.608-2.55-15.493-7.755-18.745-12.374l-10.2-14.471-10.467,3.221a10.753,10.753,0,0,1,1.787,5.928,12.884,12.884,0,0,1-4.556,9.444l-54.7,49.933c-5.1,4.682-15.834,8.72-25.519,9.593l-48.635,4.413a70.283,70.283,0,0,0-13.852,3.042l-22.8,8.451c-8.925,3.327-21.682,4-30.317,1.582a69.578,69.578,0,0,0-12.62-1.507l-51.87-.672a137.806,137.806,0,0,1-25.349-3.032l-59.147-13.849a90.707,90.707,0,0,0-15.3-1.788l-33.494-.3a118.692,118.692,0,0,1-25.909-3.5l-58.953-16.112c-7.736-2.129-16.435-6.7-20.7-10.868l-17-16.705a3.419,3.419,0,0,0-.7-.167,187.475,187.475,0,0,1-24.2,1.528l-106.536-1.19c-8.675-.115-19.994-2.239-26.937-5.051l-70.709-28.45a29.784,29.784,0,0,0-6.783-1.359l-7.175-.693-60.608-74.987-16.76-9.3-53.986,21.722c-7.392,2.985-19.355,4.8-28.437,4.315l-42.045-2.257c-9.916-.528-20.918-4.153-26.156-8.618a28.016,28.016,0,0,0-8.7-3.669l-5.593-1.154c-9.332-1.938-18.419-7.173-21.624-12.452l-6.495-10.739a8.4,8.4,0,0,1-1.366-4.346c0-3.449,2.783-6.431,7.633-8.182a26.041,26.041,0,0,1,7.462-1.426l.525-43.051a17.479,17.479,0,0,0-2.935-8.342l-21.651-29.25a39.038,39.038,0,0,1-6.185-13.549l-4.8-24.8a20.407,20.407,0,0,0-4.7-8.06l-20.659-20.164c-3.753-3.665-7.414-9.587-8.518-13.775l-2.553-9.6c-.555-2.106-3.166-5.9-5.274-7.67L99.9,1721.393a57.089,57.089,0,0,1-10.864-12.452l-2.458-4.142A17.6,17.6,0,0,1,84.195,1696.073Z" fill="none" stroke="#35508a" stroke-miterlimit="10" stroke-width="0.515"/>
    <path id="Path_15633" data-name="Path 15633" d="M91.068,1696.073a9.575,9.575,0,0,1,1.151-4.845c1.252-2.119,4.054-3.7,7.7-4.349a25.751,25.751,0,0,1,13.956,1.672l28.282,11.621.647-2.5a4.07,4.07,0,0,0,.1-.953,10.207,10.207,0,0,0-3.515-7.056l-29.38-23.735a11.379,11.379,0,0,1-4.48-8.762,8.941,8.941,0,0,1,1.713-5.3l9.873-13.511a57.636,57.636,0,0,0,5.909-10.676l11.632-29.968c1.7-4.34,6.661-5.409,8.717-5.667a17.331,17.331,0,0,1,12.174,3.035l6.975,5.074a2.046,2.046,0,0,0,.961.437,1.958,1.958,0,0,0,.933-.426l24.28-18.017c3.445-2.565,9.462-6.812,13.4-9.462l3.419-2.273a98.673,98.673,0,0,1,17-8.6l22.168-8.36c6.9-2.607,17.712-3.009,25.154-.932l2.3.642a30.292,30.292,0,0,0,12.857,0l58.352-16.318a112.555,112.555,0,0,1,22.761-3.36l22.087-.679a107.492,107.492,0,0,0,17.917-2.369l18.239-4.46c4.049-.994,9.827-3.813,12.11-5.91l21.554-19.661c3.605-3.285,11-7.432,16.825-9.445l6.041-2.092c2.124-.734,3.848-2.625,3.848-4.216a1.809,1.809,0,0,0-.11-.643l-4.152-11.117a7.663,7.663,0,0,1-.466-2.674c0-4,2.745-8.3,7-10.951l18.717-11.708a17.8,17.8,0,0,1,12.563-2.461c1.991.374,6.7,1.73,7.4,6.215l1.389,8.713c.367,2.356,3.451,6,6.471,7.656l14.729,8.045,4.109-16.114a5.49,5.49,0,0,0,.153-1.36,11.922,11.922,0,0,0-2.909-7.393l-3.337-3.483a6.568,6.568,0,0,1-2.032-4.49c0-3.687,3.941-7.028,10.038-8.513l35.586-8.746c2.827-.693,5.61-3.075,5.625-4.811l.027-3.423c.046-5.346,7.809-9.818,17.306-9.969l.466,0c3.147-.081,7.415-1.709,8.665-3.314l16.385-21.071c3.493-4.494,12.7-7.736,21.408-7.539l38.39.85c7.573.181,17.316,2.554,22.682,5.521l15.366,8.486c4.9,2.7,8.33,7.509,8.33,11.685a7.181,7.181,0,0,1-.189,1.658l-1.626,6.883,16.277-6.144c6.993-2.625,17.817-2.919,25.192-.69l18.341,5.54-4.387-11.166a19.763,19.763,0,0,1-1.194-7.108,19.2,19.2,0,0,1,.913-6.125l3.962-11.184c1.667-4.691,9.128-9.118,17.353-10.3l.767-.11c3.717-.535,8.9-2.866,10.656-4.8l19.468-21.376a29.226,29.226,0,0,1,16.137-8.173,143.45,143.45,0,0,1,19.277-.562l33.9,1.274-3.521-3.067c-2.128-1.838-7.772-3.942-11.6-4.318l-4.828-.482c-6.806-.677-11.206-3.279-11.206-6.629,0-1.817,1.349-3.625,3.9-5.228l5.627-3.528c5.719-3.594,16.192-5.2,24.355-3.729l11.717,2.084c6.836,1.23,15.474,4.444,20.116,7.481l11.826,7.739a13.335,13.335,0,0,0,7.8,1.655c7.713-1.594,17.481.583,22.22,4.961l.342.316c1.919,1.78,7.191,3.653,10.857,3.863l67.526,3.787c2.885.166,5.687-.82,6.1-1.54,1.329-2.29,4.322-4.015,8.211-4.738a25.474,25.474,0,0,1,13.714,1.446l8.465,3.377c6.2,2.47,10.707,7.484,10.707,11.921a6.415,6.415,0,0,1-.065.912l-1.459,9.836c-.672,4.569-5.644,9.368-11.563,11.16-6.859,2.092-16.215.822-21.293-2.9a4.037,4.037,0,0,0-1.692.675l-6.82,4.515c-3.114,2.043-6.865,6.126-8.047,8.75l-11.078,24.764a1.877,1.877,0,0,0-.161.782c0,1.522,1.548,3.267,3.521,3.973l14.057,5.015a102.164,102.164,0,0,1,17.411,8.356l7.29,4.663a67.811,67.811,0,0,0,14.378,6.246l52.346,14.849a48.247,48.247,0,0,0,15.211,1.075l13.57-1.691a27.1,27.1,0,0,1,13.142,1.47c3.713,1.512,6.112,3.9,6.582,6.551l.77,4.353c.38,2.15,3.7,5.391,6.841,6.667l19.09,7.76a22.024,22.024,0,0,0,11.078.529l12.907-3.545c3.624-.994,8.353-3.935,9.733-6.052l29.587-45.318a13.721,13.721,0,0,0,1.817-6.89,8.785,8.785,0,0,0-.333-2.561l-7.7-24.618a22.2,22.2,0,0,1-.831-6.344,22.632,22.632,0,0,1,.921-6.74l1.856-5.692c1.3-4.055,6.4-9.23,11.853-12.026l3.479-1.81a2.22,2.22,0,0,0,1.416-1.879,1.874,1.874,0,0,0-.9-1.515l-2.45-1.718c-3.5-2.442-5.681-6.217-5.681-9.844a8.214,8.214,0,0,1,1.035-4.059l13.624-24.392c2.192-3.934,8.283-8.729,14.167-11.152a23.772,23.772,0,0,1,13.114-1.337c4.3.816,7.6,2.842,9.04,5.56l24.145,45.852a10.385,10.385,0,0,0,5.087,4.26c6.911,1.2,11.8,5.963,13.013,10.043l5.319,17.6c.424,1.4,3.208,2.764,5.731,2.8l11.141.155c7.631.112,17.387,2.52,22.705,5.6l21.464,12.464c5.276,3.058,9.365,8.58,9.509,12.844l.949,27.078c.083,2.19,2.908,5.644,5.814,7.1l6.92,3.458c5.554,2.777,10.616,7.987,11.776,12.119l11.6,40.811c.63,2.177,4.276,5.424,7.5,6.671l18.689,7.246a40.042,40.042,0,0,0,14.176,1.793l.392-.029c9.007-.773,18.349,2.391,21.326,7.239l1.194,1.985c1.281,2.088,5.886,5,9.462,5.967l21.987,5.961c6.787,1.849,11.521,6.142,11.521,10.442a5.939,5.939,0,0,1-.388,2.108,2.2,2.2,0,0,0-.136.793c0,1.8,1.654,3.986,3.766,4.987l5.872,2.783c5.27,2.513,11.429,7.267,14.037,10.831l18.927,25.8c.863,1.187,3.621,1.921,5.79,1.549l.253-.041c7.476-1.238,18-.464,24.576,1.817l2.7.91c6.538,2.26,11.055,6.925,11.055,11.368a6.23,6.23,0,0,1-.174,1.476l-3.585,15.036a1.889,1.889,0,0,0-.052.449c0,1.775,2.028,3.991,4.429,4.84l34.564,12.3c5.77,2.033,13.092,6.228,16.646,9.542l17.425,16.191a28,28,0,0,0,10.026,5.34c6.067,1.4,12.59,5.589,15.165,9.734l4.353,6.966a22.267,22.267,0,0,1,2.941,10.769,13.279,13.279,0,0,1-.213,2.458l-4.84,25.016a5.454,5.454,0,0,0-.085,1,12.931,12.931,0,0,0,3.2,7.9l4.807,4.974c.909.944,5.452,5.7,6.17,7.222l3.045,7,4.61,10.753a16.276,16.276,0,0,1,1.155,6.288,17,17,0,0,1-1.445,7.153l-20.031,41.865a20.074,20.074,0,0,0-1.648,7.75,9.555,9.555,0,0,0,.162,1.886,12.462,12.462,0,0,1,.222,2.454,22.533,22.533,0,0,1-2.564,10.15l-16.362,29.389c-2.728,4.931-12,8.262-21.107,7.578l-5.012-.38a3.174,3.174,0,0,0-1.511.161.806.806,0,0,0-.456.755c0,.047.005.1.01.144l.177,1.4.273,2.051a7.384,7.384,0,0,1,.053.883c0,4.249-3.7,9.414-8.8,12.281l-15.616,8.735c-2.79,1.563-4.506,3.96-4.506,4.988a7.4,7.4,0,0,1,.188,1.666c0,3.006-1.667,7.053-4.148,10.07l-4.167,5.1-21.4-10.229a142.639,142.639,0,0,1-15.649-8.939l-7.825-5.36c-.1-.069-.2-.127-.282-.175-.028.026-.058.055-.089.086-3.542,3.634-11.487,7.488-18.483,8.969l-44,9.344c-7.413,1.576-18.136,1.038-24.94-1.249l-27.964-9.409a24.254,24.254,0,0,0-11.59-.142l-26.08,7.946a92.473,92.473,0,0,1-23.193,3.3h-27.784c-4.192,0-10.88,1.412-14.035,2.963l-54.986,27.064c-2.822,1.384-5.382,4.606-5.382,6.766l.8,19.334.005.282c0,4.331-4.214,9.763-9.8,12.634l-13.7,7.088c-6.03,3.079-16.47,4.628-24.315,3.622l-4.866-.616,9.989,13.251a8.287,8.287,0,0,1,1.683,4.991c0,3.389-2.038,6.772-5.449,9.05l-5.416,3.595a20.116,20.116,0,0,1-12.267,3c-4.5-.3-8.4-1.939-10.715-4.51l-12.088-13.494c-1.508-1.679-6.294-3.454-9.658-3.58l-21.915-.821,17.07,22.677a61.255,61.255,0,0,0,9.579,9.521l9.529,7.369c3.706,2.863,6.2,7.46,6.2,11.436a8.306,8.306,0,0,1-.256,2.086l-4.729,18.3c-1.163,4.493-5.6,5.613-8.148,5.881a13.86,13.86,0,0,1-11.374-3.823l-26.694-26.5c-2.3-2.282-7.836-5.458-11.852-6.8l-2.156-.723c-6.342-2.126-13.167-6.631-15.876-10.478l-12.016-17.054a2.271,2.271,0,0,0-1.448-.866,4.29,4.29,0,0,0-2.085.147l-17.624,5.423c-1.485.457-2.012,1.166-2.012,1.634a.705.705,0,0,0,.247.52,8.533,8.533,0,0,1,2.8,6.3,10.076,10.076,0,0,1-3.53,7.413l-54.709,49.936c-4.079,3.747-13,7.106-20.754,7.8l-48.643,4.414a79.636,79.636,0,0,0-16.563,3.639l-22.775,8.443c-6.9,2.573-17,3.156-23.475,1.347a78.7,78.7,0,0,0-15.5-1.909l-51.889-.672a126.21,126.21,0,0,1-22.855-2.734l-59.157-13.851a101.922,101.922,0,0,0-17.832-2.085l-33.5-.3a107.071,107.071,0,0,1-23-3.106l-58.964-16.115c-6.527-1.8-14.149-5.8-17.748-9.319l-17.149-16.852c-1.124-1.1-4.029-1.966-6.612-1.966a9.621,9.621,0,0,0-1.307.088,175.734,175.734,0,0,1-22.636,1.449l-106.546-1.19c-7.31-.1-17.211-1.955-23.057-4.322l-70.726-28.458a39.011,39.011,0,0,0-9.619-2.024l-3.587-.347-59.628-73.773-21.783-12.093-58.695,23.617c-6.084,2.456-16.314,4.01-23.786,3.611l-42.042-2.258c-7.891-.42-16.952-3.386-21.072-6.9-2.187-1.841-7.942-4.312-12.055-5.166l-5.607-1.157c-7.424-1.542-14.936-5.87-17.486-10.072l-6.493-10.734a6.044,6.044,0,0,1-1-3.1c0-2.107,1.63-3.9,4.473-4.93a18.839,18.839,0,0,1,10.569-.261l.578-47.441a19.888,19.888,0,0,0-3.462-9.853l-21.651-29.251a36.519,36.519,0,0,1-5.7-12.484l-4.8-24.794c-.541-2.718-3.146-7.2-5.574-9.57l-20.66-20.166c-3.327-3.248-6.7-8.7-7.675-12.411l-2.556-9.6c-.705-2.68-3.677-7-6.362-9.251l-20.193-16.921a53.652,53.652,0,0,1-10.051-11.522l-2.46-4.143A15.118,15.118,0,0,1,91.068,1696.073Z" fill="none" stroke="#35508a" stroke-miterlimit="10" stroke-width="0.515"/>
    <g id="Group_6535" data-name="Group 6535">
      <path id="Path_15634" data-name="Path 15634" d="M1343.378,1300.31c-4.674,1.925-9.925,6.061-11.671,9.192l-13.624,24.39c-1.746,3.131-.206,7.777,3.451,10.329l2.447,1.716c3.643,2.551,3.093,6.447-1.21,8.65l-3.519,1.833c-4.3,2.2-8.688,6.64-9.719,9.864l-1.856,5.69a22.736,22.736,0,0,0-.083,11.719l7.7,24.615c1.017,3.231.206,8.38-1.8,11.456l-29.584,45.317c-2.007,3.077-7.932,6.757-13.17,8.195l-12.922,3.548c-5.238,1.431-13.391,1.044-18.106-.873l-19.095-7.762c-4.729-1.925-9.073-6.153-9.65-9.416l-.77-4.352c-.577-3.262-5.7-5.342-11.4-4.631l-13.582,1.693a59.71,59.71,0,0,1-19.782-1.4l-52.35-14.851a75.054,75.054,0,0,1-16.442-7.143l-7.285-4.661a95.545,95.545,0,0,0-15.934-7.646l-14.063-5.017c-4.908-1.755-7.768-5.783-6.338-8.96l11.081-24.769c1.429-3.177,5.677-7.816,9.472-10.3l6.832-4.522c3.781-2.49,9.334-2.729,12.359-.526,3.01,2.211,8.688,3.046,12.592,1.855s7.492-4.816,7.974-8.078l1.457-9.826c.467-3.262-3.011-7.475-7.767-9.369l-8.469-3.379c-4.742-1.894-9.884-1.291-11.41,1.338s-7.52,4.522-13.321,4.19l-67.54-3.788c-5.8-.333-13.005-2.891-16.03-5.7l-.343-.317c-3.038-2.806-9.321-4.306-13.995-3.339s-11.575-.279-15.37-2.768l-11.822-7.738c-3.794-2.482-11.438-5.319-16.978-6.316L920,1306.364c-5.54-1-13.266.193-17.143,2.628l-5.622,3.525c-3.877,2.435-2.365,4.9,3.381,5.473l4.812.48c5.746.564,13.018,3.285,16.194,6.03l5.21,4.538c3.176,2.744,1,4.816-4.8,4.6l-37.022-1.391a132.819,132.819,0,0,0-17.28.471,22.29,22.29,0,0,0-11.562,6.169l-19.466,21.376c-2.653,2.914-9.444,5.968-15.08,6.779l-.757.109c-5.636.811-11.176,4.1-12.317,7.313l-3.959,11.178a19.258,19.258,0,0,0,.247,11.65l5.334,13.575c1.265,3.2-1.911,4.546-7.039,3l-22.215-6.71c-5.114-1.546-13.266-1.322-18.1.494l-20.154,7.607c-4.825,1.817-8.152.658-7.382-2.582l2.241-9.485c.769-3.239-1.98-7.777-6.145-10.073l-15.37-8.488c-4.151-2.3-12.3-4.275-18.132-4.415l-38.4-.85c-5.815-.131-12.5,2.219-14.833,5.226l-16.387,21.074c-2.337,3-9.018,5.527-14.833,5.628h-.4c-5.815.092-10.6,2.852-10.626,6.122l-.028,3.425c-.027,3.278-4.413,7.027-9.746,8.334l-35.606,8.751c-5.334,1.3-7.437,4.739-4.688,7.622l3.341,3.487c2.75,2.875,4.344,7.893,3.505,11.132l-4.523,17.734c-.838,3.239-4.921,4.028-9.1,1.739l-16.813-9.184c-4.179-2.288-8.015-6.818-8.523-10.08l-1.389-8.721c-.508-3.262-4.11-3.935-8-1.507l-18.724,11.712c-3.89,2.427-6.09,7.042-4.907,10.243l4.152,11.117c1.195,3.2-1.9,7.228-6.861,8.944l-6.048,2.095c-4.949,1.708-11.507,5.388-14.573,8.179l-21.541,19.651c-3.038,2.791-9.912,6.131-15.232,7.437l-18.243,4.461a117.964,117.964,0,0,1-20.277,2.682l-22.106.681a101.151,101.151,0,0,0-20.057,2.96l-58.357,16.32a41.827,41.827,0,0,1-18.971,0l-2.3-.642c-5.21-1.453-13.445-1.144-18.27.68l-22.161,8.357a92.275,92.275,0,0,0-15.589,7.886l-3.4,2.257c-3.739,2.512-9.678,6.695-13.2,9.315l-24.264,18.005a11.5,11.5,0,0,1-12.826.031l-6.984-5.079c-3.547-2.59-7.478-2.1-8.729,1.1l-11.63,29.964a60.436,60.436,0,0,1-6.269,11.325L113.6,1653.33c-2.2,3.023-1.292,7.7,2.049,10.39l29.377,23.734c3.327,2.682,5.376,7.537,4.578,10.776l-.77,2.969c-.8,3.247-5.32,4.321-10.035,2.381l-28.993-11.913c-4.7-1.941-9.664-1.593-11.053.757-1.361,2.35-.976,6.819.866,9.927l2.461,4.143a50.212,50.212,0,0,0,9.238,10.591l20.2,16.923c3.244,2.721,6.6,7.591,7.451,10.83l2.557,9.609c.852,3.24,3.918,8.2,6.832,11.047l20.662,20.17c2.9,2.837,5.8,7.823,6.448,11.078l4.8,24.792a33.985,33.985,0,0,0,5.21,11.418l21.652,29.253c2.241,3.03,4.028,8.171,3.986,11.449l-.577,47.358c-.041,3.278-4.069,4.932-8.963,3.672-4.867-1.252-7.327.255-5.444,3.347l6.489,10.73c1.883,3.1,7.877,6.556,13.348,7.692l5.623,1.16c5.471,1.136,12.4,4.128,15.411,6.664,2.983,2.543,10.186,4.87,15.988,5.179l42.039,2.258c5.787.309,14.407-1,19.136-2.907l63.4-25.511,26.808,14.881,58.645,72.56a49.062,49.062,0,0,1,12.455,2.691l70.744,28.464a63.7,63.7,0,0,0,19.177,3.595l106.555,1.19a164.843,164.843,0,0,0,20.841-1.337,21.616,21.616,0,0,1,2.956-.2c4.935,0,10.173,1.553,12.578,3.911l17.143,16.845c2.9,2.838,9.568,6.332,14.793,7.77l58.975,16.118a95.4,95.4,0,0,0,20.1,2.714l33.5.3a112.5,112.5,0,0,1,20.359,2.381l59.168,13.853a114.454,114.454,0,0,0,20.36,2.436l51.91.672a88.687,88.687,0,0,1,18.38,2.312c4.289,1.2,11.782.7,16.634-1.114l22.752-8.434a89.876,89.876,0,0,1,19.274-4.236l48.651-4.414c5.747-.518,12.95-3.224,15.988-6.015l54.714-49.94c3.066-2.791,3.355-7.166.66-9.717s-.715-5.937,4.386-7.507l17.637-5.427c5.128-1.569,11.053-.355,13.211,2.691l12.016,17.054c2.144,3.045,8,6.9,13,8.58l2.144.719c5,1.67,11.452,5.366,14.325,8.218l26.7,26.5c2.86,2.845,5.9,2.528,6.736-.711l4.729-18.3c.839-3.239-1.278-8.047-4.7-10.691l-9.527-7.368a65.507,65.507,0,0,1-10.352-10.289l-17.294-22.976c-2.255-3.015.646-5.311,6.447-5.086l22.477.842c5.8.217,12.716,2.776,15.342,5.7l12.084,13.49c2.626,2.922,7.85,3.262,11.6.757l5.4-3.587c3.753-2.5,4.949-7.019,2.695-10.042l-11.094-14.719c-2.255-3.015.536-4.886,6.2-4.159l7.63.966c5.664.727,13.816-.494,18.132-2.7l13.72-7.1c4.289-2.2,7.7-6.7,7.561-9.973l-.8-19.234c-.138-3.27,3.34-7.715,7.725-9.864l54.99-27.065c4.385-2.157,12.73-3.92,18.558-3.92h27.784a82.2,82.2,0,0,0,19.919-2.829l26.079-7.947a35.416,35.416,0,0,1,18.394.224l27.962,9.408c4.99,1.678,13.527,2.111,18.985.951l44.005-9.346c5.444-1.152,12.139-4.4,14.874-7.205s8.015-3.038,11.713-.51l7.822,5.357a135.042,135.042,0,0,0,14.792,8.45l14.49,6.926.385-.471c2.447-2.977,3.959-7.259,3.395-9.517s2.337-6.014,6.461-8.326l15.6-8.728c4.124-2.319,7.148-6.88,6.749-10.142l-.274-2.064-.179-1.407c-.4-3.255,3.973-5.59,9.733-5.157l5,.379c5.76.433,11.905-1.77,13.637-4.9l16.359-29.384c1.733-3.123,2.668-8.079,2.076-11.009s.165-7.916,1.677-11.085l20.03-41.862a15.916,15.916,0,0,0,.248-11.534l-4.606-10.738c-1.388-3.185-2.735-6.3-3.01-6.927a57.83,57.83,0,0,0-5.568-6.37l-4.811-4.978c-2.777-2.884-4.523-7.909-3.9-11.163l4.839-25.009c.619-3.254-.467-8.442-2.378-11.534l-4.358-6.973c-1.924-3.1-7.025-6.447-11.3-7.437a34.554,34.554,0,0,1-13.28-6.911l-17.431-16.2c-3.011-2.806-9.5-6.532-14.435-8.272l-34.547-12.291c-4.921-1.74-8.317-5.829-7.533-9.076l3.588-15.044c.783-3.239-2.64-7.29-7.6-9.006l-2.777-.936c-4.949-1.716-13.582-2.334-19.163-1.376l-.055.008c-5.554.951-11.947-.75-14.146-3.772l-18.93-25.8c-2.213-3.023-7.685-7.236-12.112-9.347l-5.87-2.783c-4.454-2.11-7.121-6.408-5.925-9.539s-2.144-6.834-7.4-8.264l-21.982-5.961c-5.251-1.422-11.094-5.117-12.991-8.21l-1.182-1.963c-1.9-3.092-8.152-5.2-13.9-4.67l-.233.016c-5.747.518-14.38-.572-19.164-2.427l-18.682-7.244c-4.8-1.855-9.458-6.015-10.393-9.246l-11.6-40.818c-.907-3.231-5.21-7.661-9.554-9.833l-6.929-3.464c-4.344-2.18-7.987-6.64-8.111-9.91l-.949-27.081c-.109-3.27-3.519-7.877-7.574-10.227l-21.46-12.462c-4.041-2.342-12.125-4.345-17.94-4.43l-11.135-.154c-5.815-.078-11.369-2.783-12.345-6.015l-5.32-17.61c-.963-3.224-4.729-6.378-8.331-7a15.1,15.1,0,0,1-9.582-6.842l-24.14-45.843C1353.221,1299.391,1348.052,1298.393,1343.378,1300.31Z" fill="#9e1f63"/>
      <g id="Group_6534" data-name="Group 6534" clip-path="url(#clip-path)">
        <rect id="Rectangle_1398" data-name="Rectangle 1398" width="2856.039" height="1989.518" transform="translate(0 3237.536) rotate(-90)" fill="none" opacity="0.1" style="mix-blend-mode: hard-light;isolation: isolate"/>
      </g>
      <path id="Path_15636" data-name="Path 15636" d="M1343.378,1300.31c-4.674,1.925-9.925,6.061-11.671,9.192l-13.624,24.39c-1.746,3.131-.206,7.777,3.451,10.329l2.447,1.716c3.643,2.551,3.093,6.447-1.21,8.65l-3.519,1.833c-4.3,2.2-8.688,6.64-9.719,9.864l-1.856,5.69a22.736,22.736,0,0,0-.083,11.719l7.7,24.615c1.017,3.231.206,8.38-1.8,11.456l-29.584,45.317c-2.007,3.077-7.932,6.757-13.17,8.195l-12.922,3.548c-5.238,1.431-13.391,1.044-18.106-.873l-19.095-7.762c-4.729-1.925-9.073-6.153-9.65-9.416l-.77-4.352c-.577-3.262-5.7-5.342-11.4-4.631l-13.582,1.693a59.71,59.71,0,0,1-19.782-1.4l-52.35-14.851a75.054,75.054,0,0,1-16.442-7.143l-7.285-4.661a95.545,95.545,0,0,0-15.934-7.646l-14.063-5.017c-4.908-1.755-7.768-5.783-6.338-8.96l11.081-24.769c1.429-3.177,5.677-7.816,9.472-10.3l6.832-4.522c3.781-2.49,9.334-2.729,12.359-.526,3.01,2.211,8.688,3.046,12.592,1.855s7.492-4.816,7.974-8.078l1.457-9.826c.467-3.262-3.011-7.475-7.767-9.369l-8.469-3.379c-4.742-1.894-9.884-1.291-11.41,1.338s-7.52,4.522-13.321,4.19l-67.54-3.788c-5.8-.333-13.005-2.891-16.03-5.7l-.343-.317c-3.038-2.806-9.321-4.306-13.995-3.339s-11.575-.279-15.37-2.768l-11.822-7.738c-3.794-2.482-11.438-5.319-16.978-6.316L920,1306.364c-5.54-1-13.266.193-17.143,2.628l-5.622,3.525c-3.877,2.435-2.365,4.9,3.381,5.473l4.812.48c5.746.564,13.018,3.285,16.194,6.03l5.21,4.538c3.176,2.744,1,4.816-4.8,4.6l-37.022-1.391a132.819,132.819,0,0,0-17.28.471,22.29,22.29,0,0,0-11.562,6.169l-19.466,21.376c-2.653,2.914-9.444,5.968-15.08,6.779l-.757.109c-5.636.811-11.176,4.1-12.317,7.313l-3.959,11.178a19.258,19.258,0,0,0,.247,11.65l5.334,13.575c1.265,3.2-1.911,4.546-7.039,3l-22.215-6.71c-5.114-1.546-13.266-1.322-18.1.494l-20.154,7.607c-4.825,1.817-8.152.658-7.382-2.582l2.241-9.485c.769-3.239-1.98-7.777-6.145-10.073l-15.37-8.488c-4.151-2.3-12.3-4.275-18.132-4.415l-38.4-.85c-5.815-.131-12.5,2.219-14.833,5.226l-16.387,21.074c-2.337,3-9.018,5.527-14.833,5.628h-.4c-5.815.092-10.6,2.852-10.626,6.122l-.028,3.425c-.027,3.278-4.413,7.027-9.746,8.334l-35.606,8.751c-5.334,1.3-7.437,4.739-4.688,7.622l3.341,3.487c2.75,2.875,4.344,7.893,3.505,11.132l-4.523,17.734c-.838,3.239-4.921,4.028-9.1,1.739l-16.813-9.184c-4.179-2.288-8.015-6.818-8.523-10.08l-1.389-8.721c-.508-3.262-4.11-3.935-8-1.507l-18.724,11.712c-3.89,2.427-6.09,7.042-4.907,10.243l4.152,11.117c1.195,3.2-1.9,7.228-6.861,8.944l-6.048,2.095c-4.949,1.708-11.507,5.388-14.573,8.179l-21.541,19.651c-3.038,2.791-9.912,6.131-15.232,7.437l-18.243,4.461a117.964,117.964,0,0,1-20.277,2.682l-22.106.681a101.151,101.151,0,0,0-20.057,2.96l-58.357,16.32a41.827,41.827,0,0,1-18.971,0l-2.3-.642c-5.21-1.453-13.445-1.144-18.27.68l-22.161,8.357a92.275,92.275,0,0,0-15.589,7.886l-3.4,2.257c-3.739,2.512-9.678,6.695-13.2,9.315l-24.264,18.005a11.5,11.5,0,0,1-12.826.031l-6.984-5.079c-3.547-2.59-7.478-2.1-8.729,1.1l-11.63,29.964a60.436,60.436,0,0,1-6.269,11.325L113.6,1653.33c-2.2,3.023-1.292,7.7,2.049,10.39l29.377,23.734c3.327,2.682,5.376,7.537,4.578,10.776l-.77,2.969c-.8,3.247-5.32,4.321-10.035,2.381l-28.993-11.913c-4.7-1.941-9.664-1.593-11.053.757-1.361,2.35-.976,6.819.866,9.927l2.461,4.143a50.212,50.212,0,0,0,9.238,10.591l20.2,16.923c3.244,2.721,6.6,7.591,7.451,10.83l2.557,9.609c.852,3.24,3.918,8.2,6.832,11.047l20.662,20.17c2.9,2.837,5.8,7.823,6.448,11.078l4.8,24.792a33.985,33.985,0,0,0,5.21,11.418l21.652,29.253c2.241,3.03,4.028,8.171,3.986,11.449l-.577,47.358c-.041,3.278-4.069,4.932-8.963,3.672-4.867-1.252-7.327.255-5.444,3.347l6.489,10.73c1.883,3.1,7.877,6.556,13.348,7.692l5.623,1.16c5.471,1.136,12.4,4.128,15.411,6.664,2.983,2.543,10.186,4.87,15.988,5.179l42.039,2.258c5.787.309,14.407-1,19.136-2.907l63.4-25.511,26.808,14.881,58.645,72.56a49.062,49.062,0,0,1,12.455,2.691l70.744,28.464a63.7,63.7,0,0,0,19.177,3.595l106.555,1.19a164.843,164.843,0,0,0,20.841-1.337,21.616,21.616,0,0,1,2.956-.2c4.935,0,10.173,1.553,12.578,3.911l17.143,16.845c2.9,2.838,9.568,6.332,14.793,7.77l58.975,16.118a95.4,95.4,0,0,0,20.1,2.714l33.5.3a112.5,112.5,0,0,1,20.359,2.381l59.168,13.853a114.454,114.454,0,0,0,20.36,2.436l51.91.672a88.687,88.687,0,0,1,18.38,2.312c4.289,1.2,11.782.7,16.634-1.114l22.752-8.434a89.876,89.876,0,0,1,19.274-4.236l48.651-4.414c5.747-.518,12.95-3.224,15.988-6.015l54.714-49.94c3.066-2.791,3.355-7.166.66-9.717s-.715-5.937,4.386-7.507l17.637-5.427c5.128-1.569,11.053-.355,13.211,2.691l12.016,17.054c2.144,3.045,8,6.9,13,8.58l2.144.719c5,1.67,11.452,5.366,14.325,8.218l26.7,26.5c2.86,2.845,5.9,2.528,6.736-.711l4.729-18.3c.839-3.239-1.278-8.047-4.7-10.691l-9.527-7.368a65.507,65.507,0,0,1-10.352-10.289l-17.294-22.976c-2.255-3.015.646-5.311,6.447-5.086l22.477.842c5.8.217,12.716,2.776,15.342,5.7l12.084,13.49c2.626,2.922,7.85,3.262,11.6.757l5.4-3.587c3.753-2.5,4.949-7.019,2.695-10.042l-11.094-14.719c-2.255-3.015.536-4.886,6.2-4.159l7.63.966c5.664.727,13.816-.494,18.132-2.7l13.72-7.1c4.289-2.2,7.7-6.7,7.561-9.973l-.8-19.234c-.138-3.27,3.34-7.715,7.725-9.864l54.99-27.065c4.385-2.157,12.73-3.92,18.558-3.92h27.784a82.2,82.2,0,0,0,19.919-2.829l26.079-7.947a35.416,35.416,0,0,1,18.394.224l27.962,9.408c4.99,1.678,13.527,2.111,18.985.951l44.005-9.346c5.444-1.152,12.139-4.4,14.874-7.205s8.015-3.038,11.713-.51l7.822,5.357a135.042,135.042,0,0,0,14.792,8.45l14.49,6.926.385-.471c2.447-2.977,3.959-7.259,3.395-9.517s2.337-6.014,6.461-8.326l15.6-8.728c4.124-2.319,7.148-6.88,6.749-10.142l-.274-2.064-.179-1.407c-.4-3.255,3.973-5.59,9.733-5.157l5,.379c5.76.433,11.905-1.77,13.637-4.9l16.359-29.384c1.733-3.123,2.668-8.079,2.076-11.009s.165-7.916,1.677-11.085l20.03-41.862a15.916,15.916,0,0,0,.248-11.534l-4.606-10.738c-1.388-3.185-2.735-6.3-3.01-6.927a57.83,57.83,0,0,0-5.568-6.37l-4.811-4.978c-2.777-2.884-4.523-7.909-3.9-11.163l4.839-25.009c.619-3.254-.467-8.442-2.378-11.534l-4.358-6.973c-1.924-3.1-7.025-6.447-11.3-7.437a34.554,34.554,0,0,1-13.28-6.911l-17.431-16.2c-3.011-2.806-9.5-6.532-14.435-8.272l-34.547-12.291c-4.921-1.74-8.317-5.829-7.533-9.076l3.588-15.044c.783-3.239-2.64-7.29-7.6-9.006l-2.777-.936c-4.949-1.716-13.582-2.334-19.163-1.376l-.055.008c-5.554.951-11.947-.75-14.146-3.772l-18.93-25.8c-2.213-3.023-7.685-7.236-12.112-9.347l-5.87-2.783c-4.454-2.11-7.121-6.408-5.925-9.539s-2.144-6.834-7.4-8.264l-21.982-5.961c-5.251-1.422-11.094-5.117-12.991-8.21l-1.182-1.963c-1.9-3.092-8.152-5.2-13.9-4.67l-.233.016c-5.747.518-14.38-.572-19.164-2.427l-18.682-7.244c-4.8-1.855-9.458-6.015-10.393-9.246l-11.6-40.818c-.907-3.231-5.21-7.661-9.554-9.833l-6.929-3.464c-4.344-2.18-7.987-6.64-8.111-9.91l-.949-27.081c-.109-3.27-3.519-7.877-7.574-10.227l-21.46-12.462c-4.041-2.342-12.125-4.345-17.94-4.43l-11.135-.154c-5.815-.078-11.369-2.783-12.345-6.015l-5.32-17.61c-.963-3.224-4.729-6.378-8.331-7a15.1,15.1,0,0,1-9.582-6.842l-24.14-45.843C1353.221,1299.391,1348.052,1298.393,1343.378,1300.31Z" fill="none" stroke="#e1e5ed" stroke-miterlimit="10" stroke-width="1.031"/>
    </g>
  </g>
</svg>
