<svg xmlns="http://www.w3.org/2000/svg" xmlns:xlink="http://www.w3.org/1999/xlink" width="363.404" height="71.41" viewBox="0 0 363.404 71.41">
  <defs>
    <linearGradient id="linear-gradient" x1="0.5" y1="-0.408" x2="0.5" y2="1.023" gradientUnits="objectBoundingBox">
      <stop offset="0" stop-color="#fd222a"/>
      <stop offset="1" stop-color="#f5262c"/>
    </linearGradient>
  </defs>
  <g id="bg-input2" transform="translate(-400.074 -687.624)">
    <g id="Group_423" data-name="Group 423">
      <g id="Group_422" data-name="Group 422">
        <path id="Path_694" data-name="Path 694" d="M438.985,755.563c-5.913,0-13.518-.254-19.9-2.239-13.175-4.1-15.084-13.864-15.294-17.872-.153-2.915-.378-15.062-.163-23.325.188-7.246,3.467-12.649,9.489-15.655a19.457,19.457,0,0,1,6.329-3.3c5.414-1.741,12.771-2.082,23.649-2.082h.545c28.584.006,279.741.082,296.388,1.081,6.486.39,11.536,2.641,15.01,6.692,5.27,6.145,5.359,17.546,4.67,28.95-.085,1.394-.168,2.778-.23,4.182-.244,5.553-1.558,13.385-10.041,17.671a19.447,19.447,0,0,1-5.122,2.891c-5.438,2.119-13.147,2.87-29.458,2.87-2.6,0-259.559,0-263.878-.018h-.408c-1.488,0-3.173.032-4.956.067C443.482,755.521,441.283,755.563,438.985,755.563Z" fill="url(#linear-gradient)"/>
        <path id="Path_695" data-name="Path 695" d="M443.644,694.564c23.229,0,279.583.078,296.18,1.075,5.512.331,9.746,2.178,12.584,5.487,4.816,5.616,4.342,18.172,3.84,26.482-.083,1.376-.169,2.8-.233,4.238-.228,5.184-1.413,11.5-8.461,14.886a15.9,15.9,0,0,1-4.5,2.6c-4.989,1.944-12.367,2.633-28.2,2.633-12.273,0-259.67,0-263.863-.019h-.419c-1.512,0-3.22.032-5.028.068-2.108.041-4.288.083-6.566.083-5.667,0-12.932-.236-18.865-2.082-10.693-3.326-12.646-10.663-12.86-14.74-.147-2.81-.369-14.969-.159-23.053.159-6.1,2.817-10.4,7.9-12.8a15.938,15.938,0,0,1,5.506-2.934c4.983-1.6,12.055-1.915,22.587-1.915h.545m0-6.94H443.1c-11.491,0-18.832.358-24.711,2.248a23.04,23.04,0,0,0-7.145,3.662c-6.937,3.6-10.862,10.142-11.08,18.5s.012,20.642.167,23.6c.247,4.734,2.47,16.258,17.729,21,6.824,2.123,14.768,2.4,20.926,2.4,2.317,0,4.507-.043,6.624-.084h.076c1.68-.033,3.416-.067,4.894-.067h.409c4.286.018,261.277.018,263.873.018,17.005,0,24.756-.784,30.717-3.106a23.009,23.009,0,0,0,5.742-3.189c10.982-5.752,11.467-16.777,11.629-20.455.06-1.37.143-2.75.224-4.085.735-12.172.576-24.376-5.5-31.458-2.825-3.294-8.143-7.338-17.436-7.9-16.7-1-267.995-1.082-296.6-1.088Z" fill="#fff"/>
        <path id="Path_696" data-name="Path 696" d="M443.644,694.564c23.229,0,279.583.078,296.18,1.075,5.512.331,9.746,2.178,12.584,5.487,4.816,5.616,4.342,18.172,3.84,26.482-.083,1.376-.169,2.8-.233,4.238-.228,5.184-1.413,11.5-8.461,14.886a15.9,15.9,0,0,1-4.5,2.6c-4.989,1.944-12.367,2.633-28.2,2.633-12.273,0-259.67,0-263.863-.019h-.419c-1.512,0-3.22.032-5.028.068-2.108.041-4.288.083-6.566.083-5.667,0-12.932-.236-18.865-2.082-10.693-3.326-12.646-10.663-12.86-14.74-.147-2.81-.369-14.969-.159-23.053.159-6.1,2.817-10.4,7.9-12.8a15.923,15.923,0,0,1,5.506-2.935c4.983-1.6,12.055-1.915,22.587-1.915h.545m0-5.205H443.1c-11.049,0-18.548.354-24.18,2.165A21.27,21.27,0,0,0,412.183,695c-6.528,3.323-10.081,9.214-10.285,17.081-.217,8.305.011,20.526.164,23.461.229,4.371,2.295,15.017,16.512,19.438,6.6,2.054,14.376,2.318,20.411,2.318,2.294,0,4.47-.042,6.574-.083l.093,0c1.687-.033,3.43-.067,4.927-.067h.411c4.3.019,261.275.019,263.871.019,16.761,0,24.354-.754,30.087-2.988a21.263,21.263,0,0,0,5.435-3.04c10.225-5.279,10.681-15.622,10.833-19.063.06-1.387.145-2.777.226-4.121.713-11.8.589-23.6-5.083-30.216-3.791-4.422-9.249-6.876-16.223-7.294-16.64-1-267.9-1.079-296.491-1.085Z"/>
      </g>
    </g>
    <path id="Path_697" data-name="Path 697" d="M748.945,703.921c-1.977-2.368-5-3.647-9.233-3.908-16.52-1.019-272.956-1.093-296.2-1.1h-.547c-9.828,0-16.8.291-21.178,1.737a10.629,10.629,0,0,0-4.332,2.511c-3.791,1.6-5.556,4.381-5.67,8.869-.207,8.15.011,20.486.154,23.308.257,5.04,3.423,8.566,9.412,10.48,5.332,1.7,12.149,1.922,17.493,1.922,2.233,0,4.4-.043,6.487-.085,1.835-.036,3.568-.071,5.136-.071h.433c4.159.018,251.784.019,264.083.019,15.011,0,22.2-.644,26.527-2.376a10.7,10.7,0,0,0,3.6-2.257c4.856-2.119,6-5.837,6.226-11.114.065-1.512.152-3.005.237-4.449C752.028,719.641,752.423,708.087,748.945,703.921Z"/>
    <path id="Path_698" data-name="Path 698" d="M738.54,701.827c-17.332-1.07-289.813-1.073-293.424-1.074h-.153c-19.676,0-25.952,1.209-26.162,9.5-.2,7.9.007,19.932.15,22.739.49,9.626,13.325,10.874,25.1,10.874,4.119,0,8.109-.153,11.395-.153h.428c4.134.018,251.2.018,261.627.018,26.935,0,30.8-1.943,31.232-12.1C749.3,718.384,751.613,702.634,738.54,701.827Z" fill="#fff"/>
  </g>
</svg>
