<svg xmlns="http://www.w3.org/2000/svg" xmlns:xlink="http://www.w3.org/1999/xlink" width="363.405" height="71.41" viewBox="0 0 363.405 71.41">
  <defs>
    <linearGradient id="linear-gradient" x1="0.5" y1="-0.408" x2="0.5" y2="1.023" gradientUnits="objectBoundingBox">
      <stop offset="0" stop-color="#00ffd5"/>
      <stop offset="1" stop-color="#01cb2d"/>
    </linearGradient>
  </defs>
  <g id="bg-input1" transform="translate(-789.26 -687.624)">
    <g id="Group_426" data-name="Group 426">
      <g id="Group_425" data-name="Group 425">
        <path id="Path_699" data-name="Path 699" d="M828.171,755.563c-5.913,0-13.518-.254-19.9-2.239-13.174-4.1-15.084-13.864-15.294-17.872-.152-2.914-.378-15.06-.163-23.325.189-7.246,3.467-12.649,9.489-15.655a19.457,19.457,0,0,1,6.329-3.3c5.415-1.741,12.771-2.082,23.649-2.082h.545c28.584.006,279.741.082,296.388,1.081,6.487.39,11.537,2.641,15.01,6.692,5.269,6.144,5.359,17.545,4.67,28.95-.084,1.383-.168,2.772-.23,4.182-.244,5.553-1.559,13.385-10.04,17.671a19.456,19.456,0,0,1-5.123,2.891c-5.438,2.119-13.147,2.87-29.458,2.87-2.595,0-259.559,0-263.878-.018h-.408c-1.488,0-3.173.032-4.956.067C832.668,755.521,830.469,755.563,828.171,755.563Z" fill="url(#linear-gradient)"/>
        <path id="Path_700" data-name="Path 700" d="M832.83,694.564c23.229,0,279.583.078,296.18,1.075,5.512.331,9.747,2.178,12.584,5.487,4.816,5.616,4.342,18.172,3.84,26.482-.083,1.376-.169,2.8-.232,4.238-.228,5.184-1.414,11.5-8.462,14.886a15.9,15.9,0,0,1-4.5,2.6c-4.988,1.944-12.367,2.633-28.2,2.633-12.273,0-259.67,0-263.863-.019h-.419c-1.512,0-3.22.032-5.028.068-2.108.041-4.288.083-6.566.083-5.666,0-12.932-.236-18.865-2.082-10.693-3.326-12.646-10.663-12.859-14.74-.148-2.81-.37-14.969-.16-23.053.159-6.1,2.817-10.4,7.906-12.8a15.924,15.924,0,0,1,5.505-2.934c4.983-1.6,12.055-1.915,22.587-1.915h.545m0-6.94h-.547c-11.491,0-18.832.358-24.711,2.248a23.04,23.04,0,0,0-7.145,3.662c-6.937,3.6-10.862,10.142-11.08,18.5s.012,20.642.167,23.6c.247,4.734,2.47,16.258,17.729,21,6.824,2.123,14.768,2.4,20.926,2.4,2.318,0,4.507-.043,6.624-.084h.077c1.68-.033,3.415-.067,4.893-.067h.409c4.287.018,261.277.018,263.873.018,17.005,0,24.757-.784,30.717-3.106a23.016,23.016,0,0,0,5.743-3.189c10.981-5.752,11.466-16.777,11.628-20.455.06-1.37.144-2.75.225-4.085.734-12.173.575-24.377-5.5-31.458-2.825-3.294-8.144-7.338-17.437-7.9-16.7-1-267.995-1.082-296.594-1.088Z" fill="#fff"/>
        <path id="Path_701" data-name="Path 701" d="M832.83,694.564c23.229,0,279.583.078,296.18,1.075,5.512.331,9.747,2.178,12.584,5.487,4.816,5.616,4.342,18.172,3.84,26.482-.083,1.376-.169,2.8-.232,4.238-.228,5.184-1.414,11.5-8.462,14.886a15.9,15.9,0,0,1-4.5,2.6c-4.988,1.944-12.367,2.633-28.2,2.633-12.273,0-259.67,0-263.863-.019h-.419c-1.512,0-3.22.032-5.028.068-2.108.041-4.288.083-6.566.083-5.666,0-12.932-.236-18.865-2.082-10.693-3.326-12.646-10.663-12.859-14.74-.148-2.81-.37-14.969-.16-23.053.159-6.1,2.817-10.4,7.906-12.8a15.909,15.909,0,0,1,5.505-2.935c4.983-1.6,12.055-1.915,22.587-1.915h.545m0-5.205h-.546c-11.049,0-18.547.354-24.18,2.165A21.281,21.281,0,0,0,801.369,695c-6.528,3.323-10.08,9.214-10.285,17.081-.216,8.307.011,20.527.165,23.461.228,4.371,2.295,15.017,16.511,19.438,6.6,2.054,14.376,2.318,20.411,2.318,2.295,0,4.47-.042,6.574-.083l.093,0c1.687-.033,3.43-.067,4.927-.067h.411c4.3.019,261.276.019,263.871.019,16.762,0,24.354-.754,30.087-2.988a21.263,21.263,0,0,0,5.435-3.04c10.226-5.279,10.681-15.622,10.833-19.063.06-1.381.144-2.765.225-4.1l0-.05c.711-11.769.586-23.572-5.084-30.184-3.792-4.422-9.25-6.876-16.224-7.294-16.64-1-267.9-1.079-296.491-1.085Z"/>
      </g>
    </g>
    <path id="Path_702" data-name="Path 702" d="M1138.131,703.921c-1.977-2.368-5-3.647-9.233-3.908-16.52-1.019-272.955-1.093-296.2-1.1h-.547c-9.828,0-16.8.291-21.178,1.737a10.629,10.629,0,0,0-4.332,2.511c-3.791,1.6-5.556,4.381-5.67,8.869-.206,8.15.011,20.486.155,23.308.256,5.04,3.422,8.566,9.411,10.48,5.332,1.7,12.15,1.922,17.493,1.922,2.234,0,4.4-.043,6.487-.085,1.835-.036,3.568-.071,5.137-.071h.432c4.159.018,251.784.019,264.083.019,15.012,0,22.2-.644,26.528-2.376a10.7,10.7,0,0,0,3.6-2.257c4.856-2.119,6-5.837,6.226-11.114.065-1.512.153-3.005.238-4.449C1141.214,719.641,1141.609,708.087,1138.131,703.921Z"/>
    <path id="Path_703" data-name="Path 703" d="M1127.727,701.827c-17.333-1.07-289.813-1.073-293.425-1.074h-.152c-19.677,0-25.953,1.209-26.163,9.5-.2,7.9.007,19.932.15,22.739.49,9.626,13.325,10.874,25.1,10.874,4.12,0,8.11-.153,11.4-.153h.429c4.134.018,251.2.018,261.626.018,26.935,0,30.8-1.943,31.232-12.1C1138.484,718.384,1140.8,702.634,1127.727,701.827Z" fill="#fff"/>
  </g>
</svg>
