<svg xmlns="http://www.w3.org/2000/svg" width="93.758" height="90.452" viewBox="0 0 93.758 90.452">
  <g id="bt2" transform="translate(0 -433.177)">
    <g id="Group_1114" data-name="Group 1114" transform="translate(-7358.539 -1887.708)">
      <path id="Path_2410" data-name="Path 2410" d="M7405.854,2410.337c-18.054,0-34.06-9.65-41.771-25.187a43.059,43.059,0,0,1,6.943-48.534,47.067,47.067,0,0,1,69.4,1.088,43.294,43.294,0,0,1,.394,56.927A45.766,45.766,0,0,1,7405.854,2410.337Z"/>
      <path id="Path_2411" data-name="Path 2411" d="M7405.185,2322.885a45.6,45.6,0,0,1,34.485,15.476,42.307,42.307,0,0,1,.389,55.619,44.769,44.769,0,0,1-34.2,15.357c-17.672,0-33.33-9.429-40.877-24.631a42.065,42.065,0,0,1,6.785-47.413,45.363,45.363,0,0,1,33.422-14.408m0-2a47.371,47.371,0,0,0-34.9,15.055,44.049,44.049,0,0,0-7.1,49.652c7.883,15.881,24.232,25.745,42.669,25.745a46.765,46.765,0,0,0,35.724-16.057,44.289,44.289,0,0,0-.4-58.231,47.619,47.619,0,0,0-36-16.164Z" fill="#fff"/>
    </g>
    <g id="Group_1175" data-name="Group 1175" transform="translate(-7358.539 -1887.708)">
      <g id="Group_1173" data-name="Group 1173">
        <path id="Path_2525" data-name="Path 2525" d="M7405.855,2393.338c-11.552,0-21.719-6.025-26.533-15.722a26.174,26.174,0,0,1,4.225-29.5,30.074,30.074,0,0,1,44.042.736,26.417,26.417,0,0,1,.309,34.732,28.8,28.8,0,0,1-22.043,9.755Z" fill="#ac1aff"/>
        <g id="Group_1172" data-name="Group 1172">
          <path id="Path_2526" data-name="Path 2526" d="M7405.185,2340.885a27.586,27.586,0,0,1,20.9,9.279,24.305,24.305,0,0,1,.3,32.117,26.771,26.771,0,0,1-20.524,9.056c-9.964,0-19.971-5-24.741-14.61a24.255,24.255,0,0,1,3.905-27.258,27.284,27.284,0,0,1,20.166-8.584m0-4a31.338,31.338,0,0,0-23.112,9.878,28.158,28.158,0,0,0-4.545,31.737c5.156,10.388,16.01,16.837,28.327,16.837a30.8,30.8,0,0,0,23.564-10.456,28.4,28.4,0,0,0-.318-37.34,31.6,31.6,0,0,0-23.916-10.656Z"/>
        </g>
      </g>
      <g id="Group_1174" data-name="Group 1174" opacity="0.4" style="mix-blend-mode: multiply;isolation: isolate">
        <path id="Path_2527" data-name="Path 2527" d="M7426.081,2350.164a26.522,26.522,0,0,0-2.133-2.177,24.205,24.205,0,0,1-5.748,18.5c-9.878,11.549-28.454,11.816-39.419,2.05a24.337,24.337,0,0,0,2.332,8.187c8.442,17.007,33.277,19.573,45.266,5.554A24.305,24.305,0,0,0,7426.081,2350.164Z" fill="#ff7b0f"/>
      </g>
      <ellipse id="Ellipse_37" data-name="Ellipse 37" cx="10.641" cy="8.505" rx="10.641" ry="8.505" transform="translate(7385.995 2353.712) rotate(-30)" fill="#ff521b" opacity="0.7" style="mix-blend-mode: screen;isolation: isolate"/>
    </g>
  </g>
</svg>
