<svg xmlns="http://www.w3.org/2000/svg" width="52" height="40.889" viewBox="0 0 52 40.889">
  <g id="Group_600" data-name="Group 600" transform="translate(0.5 0.5)">
    <path id="Path_994" data-name="Path 994" d="M7859.271,53.795a8.551,8.551,0,0,0,2.147-5.661,8.659,8.659,0,0,0-8.675-8.623h-33.65a8.659,8.659,0,0,0-8.675,8.623,8.547,8.547,0,0,0,2.148,5.661,8.532,8.532,0,0,0,0,11.322,8.545,8.545,0,0,0-2.148,5.661,8.659,8.659,0,0,0,8.675,8.622h33.65a8.659,8.659,0,0,0,8.675-8.622,8.549,8.549,0,0,0-2.147-5.661,8.537,8.537,0,0,0,0-11.322Z" transform="translate(-7810.418 -39.511)" fill="#fff"/>
    <path id="Path_995" data-name="Path 995" d="M7859.271,53.795a8.551,8.551,0,0,0,2.147-5.661,8.659,8.659,0,0,0-8.675-8.623h-33.65a8.659,8.659,0,0,0-8.675,8.623,8.547,8.547,0,0,0,2.148,5.661,8.532,8.532,0,0,0,0,11.322,8.545,8.545,0,0,0-2.148,5.661,8.659,8.659,0,0,0,8.675,8.622h33.65a8.659,8.659,0,0,0,8.675-8.622,8.549,8.549,0,0,0-2.147-5.661,8.537,8.537,0,0,0,0-11.322Z" transform="translate(-7810.418 -39.511)" fill="none"/>
    <path id="Path_996" data-name="Path 996" d="M7859.271,53.795a8.551,8.551,0,0,0,2.147-5.661,8.659,8.659,0,0,0-8.675-8.623h-33.65a8.659,8.659,0,0,0-8.675,8.623,8.547,8.547,0,0,0,2.148,5.661,8.532,8.532,0,0,0,0,11.322,8.545,8.545,0,0,0-2.148,5.661,8.659,8.659,0,0,0,8.675,8.622h33.65a8.659,8.659,0,0,0,8.675-8.622,8.549,8.549,0,0,0-2.147-5.661,8.537,8.537,0,0,0,0-11.322Z" transform="translate(-7810.418 -39.511)" fill="none" stroke="#000" stroke-miterlimit="10" stroke-width="1"/>
  </g>
</svg>
