<svg xmlns="http://www.w3.org/2000/svg" xmlns:xlink="http://www.w3.org/1999/xlink" width="595.632" height="93.377" viewBox="0 0 595.632 93.377">
  <defs>
    <clipPath id="clip-path">
      <path id="Path_14093" data-name="Path 14093" d="M4920.629,1543.77a7.353,7.353,0,0,0-.716-.976,8.09,8.09,0,0,0-.733-.847,17.449,17.449,0,0,0-12.779-5.374h-.184a13.557,13.557,0,0,0-4.31.682,18.208,18.208,0,0,0-3.672,1.783,32.82,32.82,0,0,0-6.029,4.9,45.9,45.9,0,0,0-3.757,4.291,48.549,48.549,0,0,0-6.892,10.031,37.682,37.682,0,0,0-4.61,15.144,24.788,24.788,0,0,0,4.193,15.244,34.5,34.5,0,0,0,11.239,10.412c3.638,2.147,9.228,4.722,15.2,4.8l.254,0c3.046,0,5.29-.726,6.858-2.22a7.22,7.22,0,0,0,1.461-1.99,6.942,6.942,0,0,0,.651-.545c1.907-1.816,2.765-4.769,2.354-8.1-.188-1.529-.929-5.3-3.733-7.247a4.4,4.4,0,0,0-2.5-.836h-.082a5.964,5.964,0,0,0-1.9.432c-.176.063-.343.123-.487.164-.612.177-1.25.324-1.907.446a21.785,21.785,0,0,0,2.2-1.64,24.965,24.965,0,0,0,3.941-4.28,29.359,29.359,0,0,0,5.162-7.7,40.151,40.151,0,0,0,3.664-12.871C4923.91,1553.632,4923.691,1548.259,4920.629,1543.77Zm-28.245,30.646c-.012-.122-.022-.247-.03-.373a10.474,10.474,0,0,1,1.353-5.765,4.494,4.494,0,0,1,2.651-1.19c.068,0,.137,0,.205.009a1.891,1.891,0,0,1,1.587,2.166h0v.011h0a4.847,4.847,0,0,1-.756,2.184A13.824,13.824,0,0,1,4892.384,1574.416Z"/>
    </clipPath>
    <linearGradient id="linear-gradient" x1="0.5" y1="-5.185" x2="0.5" y2="27.059" gradientUnits="objectBoundingBox">
      <stop offset="0" stop-color="#00ffd5"/>
      <stop offset="1" stop-color="#01cb2d"/>
    </linearGradient>
    <linearGradient id="linear-gradient-2" x1="0.5" y1="-0.025" x2="0.5" y2="0.635" xlink:href="#linear-gradient"/>
    <clipPath id="clip-path-2">
      <path id="Path_14102" data-name="Path 14102" d="M4880.5,1574.632a12.55,12.55,0,0,0,5.3-4.684c3.212-2.979,4.958-7.727,4.726-13.066a25.92,25.92,0,0,0-5.55-14.618,3.752,3.752,0,0,0-.463-.6l-.535-.607-.536-.607a3.8,3.8,0,0,0-.525-.518,28.652,28.652,0,0,0-20.14-8.253c-.175,0-.349,0-.524.005a25.374,25.374,0,0,0-11.792,3.213,30.322,30.322,0,0,0-8.834,7.622c-.218.27-.427.548-.637.825-.5.55-1,1.114-1.476,1.71a43.267,43.267,0,0,0-8.927,22.436c-.974,8.766.43,16.288,4.173,22.358A29.9,29.9,0,0,0,4853.347,1603a32.55,32.55,0,0,0,7.446.855,30.776,30.776,0,0,0,17.223-5.078,15.144,15.144,0,0,0,4.271-4.273,11.479,11.479,0,0,0,3.883-8.7C4886.027,1580.637,4882.565,1576.593,4880.5,1574.632Zm-31.534,1.981a10.54,10.54,0,0,1-.244-4.97,16.967,16.967,0,0,1,2-5.936,9.09,9.09,0,0,1,2.48-1.474l.276-.111c.61.776,1.238,1.543,1.89,2.288a36.624,36.624,0,0,0,4.224,4.137,30.317,30.317,0,0,0-3.061,1.032A18.747,18.747,0,0,0,4848.966,1576.613Z"/>
    </clipPath>
    <linearGradient id="linear-gradient-3" x1="0.5" y1="-5.23" x2="0.5" y2="17.816" xlink:href="#linear-gradient"/>
    <linearGradient id="linear-gradient-4" x1="0.5" y1="-0.019" x2="0.5" y2="0.593" xlink:href="#linear-gradient"/>
    <clipPath id="clip-path-3">
      <path id="Path_14110" data-name="Path 14110" d="M4839.642,1554.5c-.109-.492-.226-.98-.35-1.459a7.7,7.7,0,0,0-.22-.825c-.02-.069-.04-.14-.062-.213l-.028-.1a25.577,25.577,0,0,0-8.012-12.679,16.861,16.861,0,0,0-7.665-3.8,11.872,11.872,0,0,0-2.124-.193,11.243,11.243,0,0,0-6.6,2.1,14.725,14.725,0,0,0-3.617,3.794,15.629,15.629,0,0,0-2.165,2.62c-.113-.09-.22-.165-.3-.221l-.044-.03q-.313-.247-.633-.488a37.42,37.42,0,0,0-3.16-2.148,20.07,20.07,0,0,0-10.179-3.3,11.078,11.078,0,0,0-5.835,1.585,13.43,13.43,0,0,0-4.192,4.143c-3.489,3.312-4.964,8.364-5.784,12.121a64.578,64.578,0,0,0-1.136,17.383c.173,3.158.538,6.215.873,8.789a69.792,69.792,0,0,0,1.568,8.583,22.14,22.14,0,0,0,3.276,7.761,9.383,9.383,0,0,0,3.246,2.838,10.562,10.562,0,0,0,2.116.762,11.8,11.8,0,0,0,3.058.5,5.994,5.994,0,0,0,1.471-.174,3.506,3.506,0,0,0,2.6-2.7c.985-.4,2.223-1.4,2.3-3.908a15.221,15.221,0,0,0-.342-3.3c3.731,5.047,7.913,8.555,12.471,10.443a19.109,19.109,0,0,0,10.91,1.131,16.546,16.546,0,0,0,9.129-5.013,22.754,22.754,0,0,0,1.913-2.338c.066-.068.135-.128.2-.2,4.085-4.342,6.694-10.667,7.976-19.339A61.72,61.72,0,0,0,4839.642,1554.5Z"/>
    </clipPath>
    <linearGradient id="linear-gradient-5" x1="0.5" y1="-6.764" x2="0.5" y2="29.942" xlink:href="#linear-gradient"/>
    <linearGradient id="linear-gradient-6" x1="0.5" y1="0.119" x2="0.5" y2="0.789" xlink:href="#linear-gradient"/>
    <clipPath id="clip-path-4">
      <path id="Path_14116" data-name="Path 14116" d="M4508.065,1543.77a7.353,7.353,0,0,0-.716-.976,8.09,8.09,0,0,0-.733-.847,17.449,17.449,0,0,0-12.779-5.374h-.184a13.562,13.562,0,0,0-4.31.682,18.217,18.217,0,0,0-3.672,1.783,32.82,32.82,0,0,0-6.029,4.9,45.972,45.972,0,0,0-3.757,4.291,48.566,48.566,0,0,0-6.892,10.031,37.682,37.682,0,0,0-4.61,15.144,24.8,24.8,0,0,0,4.193,15.244,34.5,34.5,0,0,0,11.239,10.412c3.638,2.147,9.228,4.722,15.2,4.8l.254,0c3.046,0,5.29-.726,6.858-2.22a7.22,7.22,0,0,0,1.461-1.99,6.942,6.942,0,0,0,.651-.545c1.907-1.816,2.765-4.769,2.354-8.1-.188-1.529-.929-5.3-3.733-7.247a4.4,4.4,0,0,0-2.5-.836h-.082a5.964,5.964,0,0,0-1.9.432c-.176.063-.343.123-.487.164-.611.177-1.25.324-1.907.446a21.785,21.785,0,0,0,2.2-1.64,24.965,24.965,0,0,0,3.941-4.28,29.371,29.371,0,0,0,5.162-7.7,40.126,40.126,0,0,0,3.664-12.871C4511.346,1553.632,4511.127,1548.259,4508.065,1543.77Zm-28.245,30.646c-.012-.122-.022-.247-.03-.373a10.474,10.474,0,0,1,1.353-5.765,4.494,4.494,0,0,1,2.651-1.19c.068,0,.137,0,.205.009a1.891,1.891,0,0,1,1.587,2.166h0v.011h0a4.847,4.847,0,0,1-.756,2.184A13.824,13.824,0,0,1,4479.82,1574.416Z"/>
    </clipPath>
    <linearGradient id="linear-gradient-7" x1="0.5" y1="-5.185" x2="0.5" y2="27.059" xlink:href="#linear-gradient"/>
    <linearGradient id="linear-gradient-9" x1="0.476" y1="-398.257" x2="0.476" y2="185.813" xlink:href="#linear-gradient"/>
    <linearGradient id="linear-gradient-10" x1="0.5" y1="0.081" x2="0.5" y2="0.728" xlink:href="#linear-gradient"/>
    <linearGradient id="linear-gradient-11" x1="0.501" y1="-23.896" x2="0.501" y2="52.445" xlink:href="#linear-gradient"/>
    <clipPath id="clip-path-5">
      <path id="Path_14130" data-name="Path 14130" d="M4419.274,1539.943a8.572,8.572,0,0,0-1.993-2.2,4.336,4.336,0,0,0-.645-.46,3.911,3.911,0,0,0-.8-.428,9.194,9.194,0,0,0-4.017-.847,12.522,12.522,0,0,0-1.368.077,20.7,20.7,0,0,0-2.356.441c-.415.094-.807.184-1.2.257a62.134,62.134,0,0,1-10.423.949q-.822.013-1.645.013c-3.044,0-6.273-.129-10.163-.405-2.45-.175-4.945-.429-7.358-.676-1.523-.156-3.1-.316-4.653-.456-.767-.07-1.536-.1-2.285-.1a19.243,19.243,0,0,0-9.778,2.435,17.136,17.136,0,0,0-5.461,5.123,19.01,19.01,0,0,0-4.247,6.566,24.125,24.125,0,0,0-1.48,6,15.724,15.724,0,0,0,.32,6.448,6.623,6.623,0,0,0,3.96,4.481,7.177,7.177,0,0,0,2.493.429,10.373,10.373,0,0,0,4.067-.9,14.615,14.615,0,0,0,2.713-1.537c.442-.316.847-.647,1.238-.968.346-.284.673-.552,1-.793a15.345,15.345,0,0,1,4.276-2.184,16.865,16.865,0,0,1,5.12-.841c.159,0,.317,0,.474.008l.017.066c2.067,7.873-.632,16-3.241,23.864q-.45,1.354-.885,2.688l-.087.266a9.885,9.885,0,0,0-.683,3.89,7.376,7.376,0,0,0,1.76,4.116,17.165,17.165,0,0,0,6.441,4.482,50.046,50.046,0,0,0,15.6,3.836,48.359,48.359,0,0,0,4.864.282c.829,0,1.631-.032,2.385-.095a4.236,4.236,0,0,0,3.714-2.977c2.549-1.306,2.748-5.048,2.831-6.6a42.188,42.188,0,0,0-.536-8.186c-.362-2.51-.875-5.18-1.566-8.163-.641-2.764-1.344-5.476-2.091-8.059-.175-.606-.365-1.217-.548-1.808a29.07,29.07,0,0,1-1.338-5.541c-.019-.178-.028-.343-.034-.5.07,0,.139-.007.206-.008h.092a15.484,15.484,0,0,1,2.058.2c.217.031.432.06.647.088a31.947,31.947,0,0,0,4.006.308,14.841,14.841,0,0,0,3.416-.364,7.973,7.973,0,0,0,5.361-4.069,8.3,8.3,0,0,0,2.511-3.364,18.126,18.126,0,0,0,1.223-6.7A14.184,14.184,0,0,0,4419.274,1539.943Z"/>
    </clipPath>
    <linearGradient id="linear-gradient-12" x1="0.5" y1="2.115" x2="0.5" y2="83.109" xlink:href="#linear-gradient"/>
    <linearGradient id="linear-gradient-13" x1="0.5" y1="0.029" x2="0.5" y2="0.675" xlink:href="#linear-gradient"/>
    <clipPath id="clip-path-6">
      <path id="Path_14136" data-name="Path 14136" d="M4789.737,1543.77a7.353,7.353,0,0,0-.716-.976,8.081,8.081,0,0,0-.734-.847,17.445,17.445,0,0,0-12.779-5.374h-.184a13.558,13.558,0,0,0-4.309.682,18.2,18.2,0,0,0-3.672,1.783,32.836,32.836,0,0,0-6.029,4.9,45.9,45.9,0,0,0-3.757,4.291,48.549,48.549,0,0,0-6.892,10.031,37.673,37.673,0,0,0-4.61,15.144,24.782,24.782,0,0,0,4.193,15.244,34.5,34.5,0,0,0,11.239,10.412c3.638,2.147,9.228,4.722,15.2,4.8l.254,0c3.046,0,5.29-.726,6.857-2.22a7.234,7.234,0,0,0,1.462-1.99,6.936,6.936,0,0,0,.651-.545c1.907-1.816,2.765-4.769,2.354-8.1-.188-1.529-.93-5.3-3.733-7.247a4.4,4.4,0,0,0-2.5-.836h-.082a5.964,5.964,0,0,0-1.9.432c-.176.063-.343.123-.487.164-.612.177-1.251.324-1.907.446a21.73,21.73,0,0,0,2.2-1.64,24.965,24.965,0,0,0,3.941-4.28,29.359,29.359,0,0,0,5.162-7.7,40.151,40.151,0,0,0,3.664-12.871C4793.017,1553.632,4792.8,1548.259,4789.737,1543.77Zm-28.245,30.646c-.012-.122-.022-.247-.03-.373a10.488,10.488,0,0,1,1.353-5.765,4.494,4.494,0,0,1,2.651-1.19c.068,0,.137,0,.205.009a1.891,1.891,0,0,1,1.587,2.166h0v.011h0a4.847,4.847,0,0,1-.756,2.184A13.822,13.822,0,0,1,4761.492,1574.416Z"/>
    </clipPath>
    <clipPath id="clip-path-7">
      <path id="Path_14143" data-name="Path 14143" d="M4761.037,1572.746a9.523,9.523,0,0,0-2.922-3.611l-.016-.012-.016-.012-.021-.016c-.047-.038-.089-.069-.123-.095v0l-.006-.005v0a7.493,7.493,0,0,0-1.158-.8,23.517,23.517,0,0,0-7.391-2.9,29.489,29.489,0,0,0-4.954-.638c-.521-.028-.99-.042-1.435-.042a15.071,15.071,0,0,0-3.434.356,12.853,12.853,0,0,0-7.6,5.617l-.029.043a17.016,17.016,0,0,0-2.084,2.492c-.357.516-.7,1.04-1.028,1.546-.4.616-.787,1.2-1.19,1.764a26.058,26.058,0,0,1,.02-5.188c.5-5.588,2.08-11.183,3.611-16.593l.2-.7c.173-.613.351-1.227.529-1.841a69.678,69.678,0,0,0,1.947-7.84l0-.035a8.7,8.7,0,0,0,.1-3.451c-.379-1.563-1.592-2.732-3.6-3.475a15.554,15.554,0,0,0-5.379-.871,27.345,27.345,0,0,0-5.045.512,21.607,21.607,0,0,0-8.46,3.237,7.2,7.2,0,0,0-2.173,2.583,8.512,8.512,0,0,0-2.74,3.922,23.184,23.184,0,0,0-1.249,4.987,54.717,54.717,0,0,0-.463,10.119,95.912,95.912,0,0,0,2.864,20.26c1.448,5.746,3.612,12.223,8.684,16.7a20.107,20.107,0,0,0,8.3,4.351,23,23,0,0,0,5.69.742,18.642,18.642,0,0,0,4.253-.477c5.454-1.282,10.926-4.728,16.265-10.243a48.082,48.082,0,0,0,3.5-4.028,40.871,40.871,0,0,0,4.595-6.149C4760.911,1579.891,4762.584,1576.28,4761.037,1572.746Z"/>
    </clipPath>
    <linearGradient id="linear-gradient-16" x1="0.5" y1="-145.296" x2="0.5" y2="106.605" xlink:href="#linear-gradient"/>
    <linearGradient id="linear-gradient-17" x1="0.5" y1="-42.257" x2="0.5" y2="32.738" xlink:href="#linear-gradient"/>
    <linearGradient id="linear-gradient-18" x1="0.5" y1="0.129" x2="0.5" y2="0.813" xlink:href="#linear-gradient"/>
    <clipPath id="clip-path-8">
      <path id="Path_14150" data-name="Path 14150" d="M4729.885,1572.746a9.509,9.509,0,0,0-2.922-3.611l-.016-.012-.015-.012-.022-.016c-.047-.038-.088-.069-.122-.095l0,0-.006-.005,0,0a7.566,7.566,0,0,0-1.158-.8,23.528,23.528,0,0,0-7.392-2.9,29.5,29.5,0,0,0-4.954-.638c-.52-.028-.989-.042-1.435-.042a15.075,15.075,0,0,0-3.434.356,12.856,12.856,0,0,0-7.6,5.617l-.028.043a16.955,16.955,0,0,0-2.084,2.492c-.357.516-.7,1.04-1.029,1.546-.4.616-.786,1.2-1.19,1.764a26.132,26.132,0,0,1,.02-5.188c.5-5.588,2.08-11.183,3.612-16.593l.2-.7q.259-.92.53-1.841a69.675,69.675,0,0,0,1.946-7.84l.006-.035a8.725,8.725,0,0,0,.1-3.451c-.38-1.563-1.593-2.732-3.6-3.475a15.549,15.549,0,0,0-5.379-.871,27.345,27.345,0,0,0-5.045.512,21.6,21.6,0,0,0-8.461,3.237,7.2,7.2,0,0,0-2.173,2.583,8.508,8.508,0,0,0-2.74,3.922,23.184,23.184,0,0,0-1.249,4.987,54.888,54.888,0,0,0-.463,10.119,95.945,95.945,0,0,0,2.865,20.26c1.448,5.746,3.612,12.223,8.683,16.7a20.1,20.1,0,0,0,8.3,4.351,23.008,23.008,0,0,0,5.691.742,18.643,18.643,0,0,0,4.252-.477c5.454-1.282,10.927-4.728,16.266-10.243a47.976,47.976,0,0,0,3.5-4.028,40.946,40.946,0,0,0,4.6-6.149C4729.76,1579.891,4731.433,1576.28,4729.885,1572.746Z"/>
    </clipPath>
    <linearGradient id="linear-gradient-19" x1="0.501" y1="-145.296" x2="0.501" y2="106.605" xlink:href="#linear-gradient"/>
    <linearGradient id="linear-gradient-20" x1="0.5" y1="-42.257" x2="0.5" y2="32.738" xlink:href="#linear-gradient"/>
    <clipPath id="clip-path-9">
      <path id="Path_14158" data-name="Path 14158" d="M4683.466,1561.555c-.443-1.366-.967-2.777-1.561-4.2-.088-.219-.2-.473-.329-.777-.449-1.041-.472-1.092-.519-1.174-3.177-7.03-6.854-12.213-11.217-15.82a19.994,19.994,0,0,0-9.934-4.6,16.973,16.973,0,0,0-2.252-.15,20.907,20.907,0,0,0-8.9,2.138,22.656,22.656,0,0,0-6.741,4.511,17.659,17.659,0,0,0-1.908,2.336c-.067.067-.139.131-.205.2a20.2,20.2,0,0,0-5.025,9.425c-1.491,6.147-1.007,13.3,1.48,21.871a66.131,66.131,0,0,0,9.019,19.583,22.682,22.682,0,0,0,7.818,7.287,14.14,14.14,0,0,0,6.513,1.679,11.384,11.384,0,0,0,4.647-.968,11.14,11.14,0,0,0,4.965-4.383,10.6,10.6,0,0,0,3.494-6.177,4.364,4.364,0,0,0,5.351,1.292,5.3,5.3,0,0,0,2.189-2.309c.073-.127.144-.258.214-.388a5.631,5.631,0,0,0,1.9-2.147,20.77,20.77,0,0,0,2.025-5.127A39.032,39.032,0,0,0,4683.466,1561.555Zm-14.543,8.735a3.346,3.346,0,0,1-2.374-.952,4.847,4.847,0,0,1-.92-3.546c0-.108.012-.219.019-.329a11.051,11.051,0,0,1,2.987,3.19,4.284,4.284,0,0,1,.588,1.623C4669.108,1570.286,4669,1570.29,4668.923,1570.29Z"/>
    </clipPath>
    <linearGradient id="linear-gradient-22" x1="0.5" y1="-9.274" x2="0.5" y2="10.985" xlink:href="#linear-gradient"/>
    <linearGradient id="linear-gradient-23" x1="0.5" y1="0.018" x2="0.5" y2="0.661" xlink:href="#linear-gradient"/>
    <linearGradient id="linear-gradient-24" x1="0.514" y1="-398.257" x2="0.514" y2="185.813" xlink:href="#linear-gradient"/>
    <linearGradient id="linear-gradient-26" x1="0.498" y1="-23.896" x2="0.498" y2="52.445" xlink:href="#linear-gradient"/>
    <clipPath id="clip-path-10">
      <path id="Path_14173" data-name="Path 14173" d="M4600.391,1587.916a9.068,9.068,0,0,0-1.36-4.1,4.347,4.347,0,0,0-.551-.718l-.014-.016,0,0a11.563,11.563,0,0,0-2.322-1.856,7.76,7.76,0,0,0-3.828-1.39c-.066,0-.133,0-.2,0a7.906,7.906,0,0,0-3.539,1.025c-.306.152-.609.309-.913.466-.642.332-1.248.646-1.867.908a7.408,7.408,0,0,1-2.946.617,8.282,8.282,0,0,1-2.3-.343,15.672,15.672,0,0,1-5.023-2.636,20.3,20.3,0,0,1-7.02-9.291,11.1,11.1,0,0,1-.638-4.361h0a16.667,16.667,0,0,0,11.2,4.666,12.039,12.039,0,0,0,5.9-1.477,19.056,19.056,0,0,0,7.33-11.115,15.4,15.4,0,0,0-3.461-9.569,32.574,32.574,0,0,0-16.117-11.024,28.538,28.538,0,0,0-8.38-1.341,17.261,17.261,0,0,0-10.9,3.413,14.059,14.059,0,0,0-3.113,3.406,15.043,15.043,0,0,0-4.03,6.717,17.373,17.373,0,0,0,0,8.474,41.593,41.593,0,0,0,3.455,9.662,75.016,75.016,0,0,0,5.065,8.782,93.9,93.9,0,0,0,13.03,15.609c2.675,2.571,5.475,4.417,7.838,6.548,2.893,2.61,6.316,5.293,9.495,4.627.836-.175,1.676.262,2.5.262a9.856,9.856,0,0,0,7.465-3.23,11.51,11.51,0,0,0,1.247-1.687,9.43,9.43,0,0,0,.865-.848A13.483,13.483,0,0,0,4600.391,1587.916Z"/>
    </clipPath>
    <linearGradient id="linear-gradient-27" x1="0.501" y1="-130.535" x2="0.501" y2="-26.799" xlink:href="#linear-gradient"/>
    <linearGradient id="linear-gradient-28" x1="0.5" y1="-0.079" x2="0.5" y2="0.58" xlink:href="#linear-gradient"/>
  </defs>
  <g id="Group_5631" data-name="Group 5631" transform="translate(-4338.643 -1521.078)">
    <g id="Group_5584" data-name="Group 5584">
      <g id="Group_5583" data-name="Group 5583">
        <g id="Group_5579" data-name="Group 5579">
          <path id="Path_14080" data-name="Path 14080" d="M4931.473,1558.286c.737-7.166-.668-13.647-4.063-18.767a15.845,15.845,0,0,0-1.245-1.716,16.118,16.118,0,0,0-1.276-1.463,25.4,25.4,0,0,0-18.488-7.767h-.228a21.472,21.472,0,0,0-6.855,1.113,25.99,25.99,0,0,0-5.281,2.542,36.71,36.71,0,0,0-4.376,3.178l-.226-.256a12.239,12.239,0,0,0-1.11-1.124,36.554,36.554,0,0,0-25.549-10.349c-.227,0-.453,0-.68.006a33.4,33.4,0,0,0-15.524,4.22,36.99,36.99,0,0,0-8.708,6.782q-.849-.829-1.761-1.591a24.835,24.835,0,0,0-11.365-5.534,19.926,19.926,0,0,0-3.557-.322h0a19.189,19.189,0,0,0-11.253,3.6,21.489,21.489,0,0,0-2.687,2.285,26.811,26.811,0,0,0-12.752-3.56,19.173,19.173,0,0,0-7.692,1.559,26.077,26.077,0,0,0-11.284-2.549h-.228a21.478,21.478,0,0,0-6.856,1.113,26.033,26.033,0,0,0-5.28,2.542,40.63,40.63,0,0,0-7.5,6.066,54.264,54.264,0,0,0-4.237,4.811,56.756,56.756,0,0,0-7.841,11.468q-.531,1.024-1.014,2.049a23.481,23.481,0,0,0-3.626.323l.032-.112.2-.7c.168-.6.341-1.193.514-1.79a76.565,76.565,0,0,0,2.153-8.744l0-.009.007-.044a15.987,15.987,0,0,0-.022-6.646c-.589-2.426-2.492-6.833-8.609-9.091a23.479,23.479,0,0,0-8.149-1.366,35.239,35.239,0,0,0-6.512.648,30.041,30.041,0,0,0-11.017,4.165,14.509,14.509,0,0,0-5.473-3.446,23.463,23.463,0,0,0-8.15-1.367,35.239,35.239,0,0,0-6.512.648,29.434,29.434,0,0,0-11.587,4.552c-.108.075-.214.152-.319.23q-.27-.233-.543-.457a27.964,27.964,0,0,0-13.962-6.366,24.9,24.9,0,0,0-3.321-.222,28.8,28.8,0,0,0-12.309,2.9,30.3,30.3,0,0,0-9.049,6.15,25.216,25.216,0,0,0-2.323,2.754c-.075.078-.15.158-.224.238q-.7-.035-1.425-.034a34,34,0,0,0-8.807,1.177c-.866.238-1.643.491-2.379.773-.569.218-1.088.443-1.576.685a11.758,11.758,0,0,0-1.622.928,32.675,32.675,0,0,0-5.7-10.136,21.3,21.3,0,0,0-15.024-7.251c-.6-.036-1.218-.054-1.83-.054a49.966,49.966,0,0,0-11.209,1.544,93.665,93.665,0,0,0-10.954,3.023,36,36,0,0,0-8.883-1.169,25.054,25.054,0,0,0-15.825,5.106,21.953,21.953,0,0,0-4.368,4.573,23.24,23.24,0,0,0-5.528,9.6,25.055,25.055,0,0,0-.156,12.363,49.431,49.431,0,0,0,4.091,11.526,83.114,83.114,0,0,0,5.6,9.724,101.931,101.931,0,0,0,14.143,16.939,66.607,66.607,0,0,0,5.167,4.38c1.047.823,2.035,1.6,2.858,2.343,3.722,3.357,8.278,6.789,13.844,6.789.435,0,.869-.022,1.3-.065a11.429,11.429,0,0,0,2.205.224,18.46,18.46,0,0,0,6.585-1.191,12.134,12.134,0,0,0,2.563.856,15.45,15.45,0,0,0,3.294.335c.759,0,1.414-.045,1.94-.082l.432-.028c.371-.02.724-.037,1.077-.054l.2-.009.614-.03.846-.041.293-.013a70.855,70.855,0,0,0,9.018-.827,19.839,19.839,0,0,0,4.4-1.224,11.76,11.76,0,0,0,3.982-2.628l.221-.225.2-.242c.241-.289.459-.577.654-.861a10.581,10.581,0,0,0,1.724.416,23.4,23.4,0,0,0,3.561.269l.339,0a22.7,22.7,0,0,0,8.265-1.559l.01,0a10.8,10.8,0,0,0,3.4-2.07,28.43,28.43,0,0,0,8.188,6.619,22.148,22.148,0,0,0,10.227,2.594,27.68,27.68,0,0,0,17.244-9.828c.118-.007.237-.015.355-.025a27.734,27.734,0,0,0,14.331,8.861,31,31,0,0,0,7.675.992,26.63,26.63,0,0,0,6.083-.689,34.064,34.064,0,0,0,9.3-3.778,28.478,28.478,0,0,0,8.1,3.475,30.993,30.993,0,0,0,7.675.992,26.618,26.618,0,0,0,6.082-.689,38.5,38.5,0,0,0,16-8.534,46.04,46.04,0,0,0,4.878,3.314c4.476,2.642,11.435,5.811,19.172,5.907l.352,0a18.581,18.581,0,0,0,9.9-2.52,18.817,18.817,0,0,0,4.83.692,14.011,14.011,0,0,0,3.436-.42,11.4,11.4,0,0,0,5.653-3.364,32.147,32.147,0,0,0,6.345,3.535,27.1,27.1,0,0,0,15.473,1.6,24.384,24.384,0,0,0,13.455-7.39c.136-.144.271-.291.406-.439a38.513,38.513,0,0,0,15.072,7.24,40.589,40.589,0,0,0,9.278,1.067,38.842,38.842,0,0,0,21.734-6.471,25.654,25.654,0,0,0,2.268-1.737q1.692,1.221,3.517,2.3c4.476,2.642,11.435,5.811,19.172,5.907l.352,0c5.127,0,9.291-1.49,12.375-4.426a15.089,15.089,0,0,0,2.156-2.577c3.729-3.578,5.454-8.982,4.733-14.834a19.929,19.929,0,0,0-3.858-9.771,39.341,39.341,0,0,0,3.841-6.49A48.191,48.191,0,0,0,4931.473,1558.286Z" fill="#fff"/>
          <path id="Path_14081" data-name="Path 14081" d="M4513.6,1537.8a16.114,16.114,0,0,0-1.272-1.458,25.4,25.4,0,0,0-18.49-7.769h-.226a21.471,21.471,0,0,0-6.857,1.113,25.99,25.99,0,0,0-5.281,2.542,40.63,40.63,0,0,0-7.5,6.066q-1.169,1.174-2.289,2.456a23.325,23.325,0,0,0-9.659-1.916,34.01,34.01,0,0,0-8.808,1.177c-.866.238-1.644.491-2.38.773-.568.218-1.087.443-1.575.685a11.781,11.781,0,0,0-1.622.928,32.735,32.735,0,0,0-5.7-10.137,21.3,21.3,0,0,0-15.023-7.25c-.6-.036-1.22-.054-1.831-.054a49.942,49.942,0,0,0-11.208,1.544,101.146,101.146,0,0,0-9.83,2.64,57.512,57.512,0,0,1-7.693.593c-.507.008-1.01.012-1.514.012-2.848,0-5.9-.122-9.6-.385-2.328-.166-4.76-.414-7.111-.654-1.553-.159-3.16-.323-4.749-.466-1-.09-2.01-.136-3-.136a27.12,27.12,0,0,0-13.789,3.512,25.2,25.2,0,0,0-7.611,6.906,27.3,27.3,0,0,0-5.54,8.8,32.149,32.149,0,0,0-1.973,7.982,23.441,23.441,0,0,0,.617,9.711,14.633,14.633,0,0,0,8.838,9.643,15.133,15.133,0,0,0,5.265.926,18.306,18.306,0,0,0,7.213-1.55,22.387,22.387,0,0,0,3.752-2.058,97.191,97.191,0,0,1-2.889,9.8c-.3.92-.609,1.835-.9,2.742l-.081.248a17.447,17.447,0,0,0-1.056,6.976,15.417,15.417,0,0,0,3.539,8.572,25,25,0,0,0,9.37,6.726,57.869,57.869,0,0,0,18.066,4.494,55.86,55.86,0,0,0,5.664.322c1.045,0,2.07-.041,3.047-.122a11.9,11.9,0,0,0,9.278-5.6,13.537,13.537,0,0,0,3.909-6.848c.6,1.3,1.261,2.725,2.008,4.134l.094.178c.96,1.823,3.516,6.676,9.322,7.926a15.443,15.443,0,0,0,3.294.335c.76,0,1.415-.046,1.941-.082.158-.011.295-.021.432-.028.374-.02.732-.037,1.091-.054l.182-.009.613-.03.851-.041.289-.013a70.862,70.862,0,0,0,9.018-.827,19.843,19.843,0,0,0,4.4-1.224,11.755,11.755,0,0,0,3.983-2.628l.221-.225.2-.243c.241-.289.458-.576.653-.86a10.59,10.59,0,0,0,1.725.416,23.379,23.379,0,0,0,3.56.269l.34,0a22.742,22.742,0,0,0,8.259-1.556l.013-.005a10.841,10.841,0,0,0,3.363-2.034,45.367,45.367,0,0,0,4.8,3.267c4.476,2.642,11.435,5.811,19.172,5.907l.352,0c5.127,0,9.291-1.49,12.375-4.426a15.036,15.036,0,0,0,2.155-2.577c3.73-3.58,5.455-8.984,4.734-14.834a19.929,19.929,0,0,0-3.858-9.771,39.341,39.341,0,0,0,3.841-6.49,48.191,48.191,0,0,0,4.39-15.471c.737-7.166-.668-13.647-4.063-18.768A16.057,16.057,0,0,0,4513.6,1537.8Z" fill="#fff"/>
        </g>
        <g id="Group_5580" data-name="Group 5580">
          <path id="Path_14082" data-name="Path 14082" d="M4931.473,1558.286c.737-7.166-.668-13.647-4.063-18.767a15.845,15.845,0,0,0-1.245-1.716,16.118,16.118,0,0,0-1.276-1.463,25.4,25.4,0,0,0-18.488-7.767h-.228a21.472,21.472,0,0,0-6.855,1.113,25.99,25.99,0,0,0-5.281,2.542,36.71,36.71,0,0,0-4.376,3.178l-.226-.256a12.239,12.239,0,0,0-1.11-1.124,36.554,36.554,0,0,0-25.549-10.349c-.227,0-.453,0-.68.006a33.4,33.4,0,0,0-15.524,4.22,36.99,36.99,0,0,0-8.708,6.782q-.849-.829-1.761-1.591a24.835,24.835,0,0,0-11.365-5.534,19.926,19.926,0,0,0-3.557-.322h0a19.189,19.189,0,0,0-11.253,3.6,21.489,21.489,0,0,0-2.687,2.285,26.811,26.811,0,0,0-12.752-3.56,19.173,19.173,0,0,0-7.692,1.559,26.077,26.077,0,0,0-11.284-2.549h-.228a21.478,21.478,0,0,0-6.856,1.113,26.033,26.033,0,0,0-5.28,2.542,40.63,40.63,0,0,0-7.5,6.066,54.264,54.264,0,0,0-4.237,4.811,56.756,56.756,0,0,0-7.841,11.468q-.531,1.024-1.014,2.049a23.481,23.481,0,0,0-3.626.323l.032-.112.2-.7c.168-.6.341-1.193.514-1.79a76.565,76.565,0,0,0,2.153-8.744l0-.009.007-.044a15.987,15.987,0,0,0-.022-6.646c-.589-2.426-2.492-6.833-8.609-9.091a23.479,23.479,0,0,0-8.149-1.366,35.239,35.239,0,0,0-6.512.648,30.041,30.041,0,0,0-11.017,4.165,14.509,14.509,0,0,0-5.473-3.446,23.463,23.463,0,0,0-8.15-1.367,35.239,35.239,0,0,0-6.512.648,29.434,29.434,0,0,0-11.587,4.552c-.108.075-.214.152-.319.23q-.27-.233-.543-.457a27.964,27.964,0,0,0-13.962-6.366,24.9,24.9,0,0,0-3.321-.222,28.8,28.8,0,0,0-12.309,2.9,30.3,30.3,0,0,0-9.049,6.15,25.216,25.216,0,0,0-2.323,2.754c-.075.078-.15.158-.224.238q-.7-.035-1.425-.034a34,34,0,0,0-8.807,1.177c-.866.238-1.643.491-2.379.773-.569.218-1.088.443-1.576.685a11.758,11.758,0,0,0-1.622.928,32.675,32.675,0,0,0-5.7-10.136,21.3,21.3,0,0,0-15.024-7.251c-.6-.036-1.218-.054-1.83-.054a49.966,49.966,0,0,0-11.209,1.544,93.665,93.665,0,0,0-10.954,3.023,36,36,0,0,0-8.883-1.169,25.054,25.054,0,0,0-15.825,5.106,21.953,21.953,0,0,0-4.368,4.573,23.24,23.24,0,0,0-5.528,9.6,25.055,25.055,0,0,0-.156,12.363,49.431,49.431,0,0,0,4.091,11.526,83.114,83.114,0,0,0,5.6,9.724,101.931,101.931,0,0,0,14.143,16.939,66.607,66.607,0,0,0,5.167,4.38c1.047.823,2.035,1.6,2.858,2.343,3.722,3.357,8.278,6.789,13.844,6.789.435,0,.869-.022,1.3-.065a11.429,11.429,0,0,0,2.205.224,18.46,18.46,0,0,0,6.585-1.191,12.134,12.134,0,0,0,2.563.856,15.45,15.45,0,0,0,3.294.335c.759,0,1.414-.045,1.94-.082l.432-.028c.371-.02.724-.037,1.077-.054l.2-.009.614-.03.846-.041.293-.013a70.855,70.855,0,0,0,9.018-.827,19.839,19.839,0,0,0,4.4-1.224,11.76,11.76,0,0,0,3.982-2.628l.221-.225.2-.242c.241-.289.459-.577.654-.861a10.581,10.581,0,0,0,1.724.416,23.4,23.4,0,0,0,3.561.269l.339,0a22.7,22.7,0,0,0,8.265-1.559l.01,0a10.8,10.8,0,0,0,3.4-2.07,28.43,28.43,0,0,0,8.188,6.619,22.148,22.148,0,0,0,10.227,2.594,27.68,27.68,0,0,0,17.244-9.828c.118-.007.237-.015.355-.025a27.734,27.734,0,0,0,14.331,8.861,31,31,0,0,0,7.675.992,26.63,26.63,0,0,0,6.083-.689,34.064,34.064,0,0,0,9.3-3.778,28.478,28.478,0,0,0,8.1,3.475,30.993,30.993,0,0,0,7.675.992,26.618,26.618,0,0,0,6.082-.689,38.5,38.5,0,0,0,16-8.534,46.04,46.04,0,0,0,4.878,3.314c4.476,2.642,11.435,5.811,19.172,5.907l.352,0a18.581,18.581,0,0,0,9.9-2.52,18.817,18.817,0,0,0,4.83.692,14.011,14.011,0,0,0,3.436-.42,11.4,11.4,0,0,0,5.653-3.364,32.147,32.147,0,0,0,6.345,3.535,27.1,27.1,0,0,0,15.473,1.6,24.384,24.384,0,0,0,13.455-7.39c.136-.144.271-.291.406-.439a38.513,38.513,0,0,0,15.072,7.24,40.589,40.589,0,0,0,9.278,1.067,38.842,38.842,0,0,0,21.734-6.471,25.654,25.654,0,0,0,2.268-1.737q1.692,1.221,3.517,2.3c4.476,2.642,11.435,5.811,19.172,5.907l.352,0c5.127,0,9.291-1.49,12.375-4.426a15.089,15.089,0,0,0,2.156-2.577c3.729-3.578,5.454-8.982,4.733-14.834a19.929,19.929,0,0,0-3.858-9.771,39.341,39.341,0,0,0,3.841-6.49A48.191,48.191,0,0,0,4931.473,1558.286Z" fill="#fff"/>
          <path id="Path_14083" data-name="Path 14083" d="M4513.6,1537.8a16.114,16.114,0,0,0-1.272-1.458,25.4,25.4,0,0,0-18.49-7.769h-.226a21.471,21.471,0,0,0-6.857,1.113,25.99,25.99,0,0,0-5.281,2.542,40.63,40.63,0,0,0-7.5,6.066q-1.169,1.174-2.289,2.456a23.325,23.325,0,0,0-9.659-1.916,34.01,34.01,0,0,0-8.808,1.177c-.866.238-1.644.491-2.38.773-.568.218-1.087.443-1.575.685a11.781,11.781,0,0,0-1.622.928,32.735,32.735,0,0,0-5.7-10.137,21.3,21.3,0,0,0-15.023-7.25c-.6-.036-1.22-.054-1.831-.054a49.942,49.942,0,0,0-11.208,1.544,101.146,101.146,0,0,0-9.83,2.64,57.512,57.512,0,0,1-7.693.593c-.507.008-1.01.012-1.514.012-2.848,0-5.9-.122-9.6-.385-2.328-.166-4.76-.414-7.111-.654-1.553-.159-3.16-.323-4.749-.466-1-.09-2.01-.136-3-.136a27.12,27.12,0,0,0-13.789,3.512,25.2,25.2,0,0,0-7.611,6.906,27.3,27.3,0,0,0-5.54,8.8,32.149,32.149,0,0,0-1.973,7.982,23.441,23.441,0,0,0,.617,9.711,14.633,14.633,0,0,0,8.838,9.643,15.133,15.133,0,0,0,5.265.926,18.306,18.306,0,0,0,7.213-1.55,22.387,22.387,0,0,0,3.752-2.058,97.191,97.191,0,0,1-2.889,9.8c-.3.92-.609,1.835-.9,2.742l-.081.248a17.447,17.447,0,0,0-1.056,6.976,15.417,15.417,0,0,0,3.539,8.572,25,25,0,0,0,9.37,6.726,57.869,57.869,0,0,0,18.066,4.494,55.86,55.86,0,0,0,5.664.322c1.045,0,2.07-.041,3.047-.122a11.9,11.9,0,0,0,9.278-5.6,13.537,13.537,0,0,0,3.909-6.848c.6,1.3,1.261,2.725,2.008,4.134l.094.178c.96,1.823,3.516,6.676,9.322,7.926a15.443,15.443,0,0,0,3.294.335c.76,0,1.415-.046,1.941-.082.158-.011.295-.021.432-.028.374-.02.732-.037,1.091-.054l.182-.009.613-.03.851-.041.289-.013a70.862,70.862,0,0,0,9.018-.827,19.843,19.843,0,0,0,4.4-1.224,11.755,11.755,0,0,0,3.983-2.628l.221-.225.2-.243c.241-.289.458-.576.653-.86a10.59,10.59,0,0,0,1.725.416,23.379,23.379,0,0,0,3.56.269l.34,0a22.742,22.742,0,0,0,8.259-1.556l.013-.005a10.841,10.841,0,0,0,3.363-2.034,45.367,45.367,0,0,0,4.8,3.267c4.476,2.642,11.435,5.811,19.172,5.907l.352,0c5.127,0,9.291-1.49,12.375-4.426a15.036,15.036,0,0,0,2.155-2.577c3.73-3.58,5.455-8.984,4.734-14.834a19.929,19.929,0,0,0-3.858-9.771,39.341,39.341,0,0,0,3.841-6.49,48.191,48.191,0,0,0,4.39-15.471c.737-7.166-.668-13.647-4.063-18.768A16.057,16.057,0,0,0,4513.6,1537.8Z" fill="#fff"/>
        </g>
        <g id="Group_5581" data-name="Group 5581">
          <path id="Path_14084" data-name="Path 14084" d="M4931.473,1558.286c.737-7.166-.668-13.647-4.063-18.767a15.845,15.845,0,0,0-1.245-1.716,16.118,16.118,0,0,0-1.276-1.463,25.4,25.4,0,0,0-18.488-7.767h-.228a21.472,21.472,0,0,0-6.855,1.113,25.99,25.99,0,0,0-5.281,2.542,36.71,36.71,0,0,0-4.376,3.178l-.226-.256a12.239,12.239,0,0,0-1.11-1.124,36.554,36.554,0,0,0-25.549-10.349c-.227,0-.453,0-.68.006a33.4,33.4,0,0,0-15.524,4.22,36.99,36.99,0,0,0-8.708,6.782q-.849-.829-1.761-1.591a24.835,24.835,0,0,0-11.365-5.534,19.926,19.926,0,0,0-3.557-.322h0a19.189,19.189,0,0,0-11.253,3.6,21.489,21.489,0,0,0-2.687,2.285,26.811,26.811,0,0,0-12.752-3.56,19.173,19.173,0,0,0-7.692,1.559,26.077,26.077,0,0,0-11.284-2.549h-.228a21.478,21.478,0,0,0-6.856,1.113,26.033,26.033,0,0,0-5.28,2.542,40.63,40.63,0,0,0-7.5,6.066,54.264,54.264,0,0,0-4.237,4.811,56.756,56.756,0,0,0-7.841,11.468q-.531,1.024-1.014,2.049a23.481,23.481,0,0,0-3.626.323l.032-.112.2-.7c.168-.6.341-1.193.514-1.79a76.565,76.565,0,0,0,2.153-8.744l0-.009.007-.044a15.987,15.987,0,0,0-.022-6.646c-.589-2.426-2.492-6.833-8.609-9.091a23.479,23.479,0,0,0-8.149-1.366,35.239,35.239,0,0,0-6.512.648,30.041,30.041,0,0,0-11.017,4.165,14.509,14.509,0,0,0-5.473-3.446,23.463,23.463,0,0,0-8.15-1.367,35.239,35.239,0,0,0-6.512.648,29.434,29.434,0,0,0-11.587,4.552c-.108.075-.214.152-.319.23q-.27-.233-.543-.457a27.964,27.964,0,0,0-13.962-6.366,24.9,24.9,0,0,0-3.321-.222,28.8,28.8,0,0,0-12.309,2.9,30.3,30.3,0,0,0-9.049,6.15,25.216,25.216,0,0,0-2.323,2.754c-.075.078-.15.158-.224.238q-.7-.035-1.425-.034a34,34,0,0,0-8.807,1.177c-.866.238-1.643.491-2.379.773-.569.218-1.088.443-1.576.685a11.758,11.758,0,0,0-1.622.928,32.675,32.675,0,0,0-5.7-10.136,21.3,21.3,0,0,0-15.024-7.251c-.6-.036-1.218-.054-1.83-.054a49.966,49.966,0,0,0-11.209,1.544,93.665,93.665,0,0,0-10.954,3.023,36,36,0,0,0-8.883-1.169,25.054,25.054,0,0,0-15.825,5.106,21.953,21.953,0,0,0-4.368,4.573,23.24,23.24,0,0,0-5.528,9.6,25.055,25.055,0,0,0-.156,12.363,49.431,49.431,0,0,0,4.091,11.526,83.114,83.114,0,0,0,5.6,9.724,101.931,101.931,0,0,0,14.143,16.939,66.607,66.607,0,0,0,5.167,4.38c1.047.823,2.035,1.6,2.858,2.343,3.722,3.357,8.278,6.789,13.844,6.789.435,0,.869-.022,1.3-.065a11.429,11.429,0,0,0,2.205.224,18.46,18.46,0,0,0,6.585-1.191,12.134,12.134,0,0,0,2.563.856,15.45,15.45,0,0,0,3.294.335c.759,0,1.414-.045,1.94-.082l.432-.028c.371-.02.724-.037,1.077-.054l.2-.009.614-.03.846-.041.293-.013a70.855,70.855,0,0,0,9.018-.827,19.839,19.839,0,0,0,4.4-1.224,11.76,11.76,0,0,0,3.982-2.628l.221-.225.2-.242c.241-.289.459-.577.654-.861a10.581,10.581,0,0,0,1.724.416,23.4,23.4,0,0,0,3.561.269l.339,0a22.7,22.7,0,0,0,8.265-1.559l.01,0a10.8,10.8,0,0,0,3.4-2.07,28.43,28.43,0,0,0,8.188,6.619,22.148,22.148,0,0,0,10.227,2.594,27.68,27.68,0,0,0,17.244-9.828c.118-.007.237-.015.355-.025a27.734,27.734,0,0,0,14.331,8.861,31,31,0,0,0,7.675.992,26.63,26.63,0,0,0,6.083-.689,34.064,34.064,0,0,0,9.3-3.778,28.478,28.478,0,0,0,8.1,3.475,30.993,30.993,0,0,0,7.675.992,26.618,26.618,0,0,0,6.082-.689,38.5,38.5,0,0,0,16-8.534,46.04,46.04,0,0,0,4.878,3.314c4.476,2.642,11.435,5.811,19.172,5.907l.352,0a18.581,18.581,0,0,0,9.9-2.52,18.817,18.817,0,0,0,4.83.692,14.011,14.011,0,0,0,3.436-.42,11.4,11.4,0,0,0,5.653-3.364,32.147,32.147,0,0,0,6.345,3.535,27.1,27.1,0,0,0,15.473,1.6,24.384,24.384,0,0,0,13.455-7.39c.136-.144.271-.291.406-.439a38.513,38.513,0,0,0,15.072,7.24,40.589,40.589,0,0,0,9.278,1.067,38.842,38.842,0,0,0,21.734-6.471,25.654,25.654,0,0,0,2.268-1.737q1.692,1.221,3.517,2.3c4.476,2.642,11.435,5.811,19.172,5.907l.352,0c5.127,0,9.291-1.49,12.375-4.426a15.089,15.089,0,0,0,2.156-2.577c3.729-3.578,5.454-8.982,4.733-14.834a19.929,19.929,0,0,0-3.858-9.771,39.341,39.341,0,0,0,3.841-6.49A48.191,48.191,0,0,0,4931.473,1558.286Z" fill="none" stroke="#fff" stroke-linecap="round" stroke-linejoin="round" stroke-width="5.2"/>
          <path id="Path_14085" data-name="Path 14085" d="M4513.6,1537.8a16.114,16.114,0,0,0-1.272-1.458,25.4,25.4,0,0,0-18.49-7.769h-.226a21.471,21.471,0,0,0-6.857,1.113,25.99,25.99,0,0,0-5.281,2.542,40.63,40.63,0,0,0-7.5,6.066q-1.169,1.174-2.289,2.456a23.325,23.325,0,0,0-9.659-1.916,34.01,34.01,0,0,0-8.808,1.177c-.866.238-1.644.491-2.38.773-.568.218-1.087.443-1.575.685a11.781,11.781,0,0,0-1.622.928,32.735,32.735,0,0,0-5.7-10.137,21.3,21.3,0,0,0-15.023-7.25c-.6-.036-1.22-.054-1.831-.054a49.942,49.942,0,0,0-11.208,1.544,101.146,101.146,0,0,0-9.83,2.64,57.512,57.512,0,0,1-7.693.593c-.507.008-1.01.012-1.514.012-2.848,0-5.9-.122-9.6-.385-2.328-.166-4.76-.414-7.111-.654-1.553-.159-3.16-.323-4.749-.466-1-.09-2.01-.136-3-.136a27.12,27.12,0,0,0-13.789,3.512,25.2,25.2,0,0,0-7.611,6.906,27.3,27.3,0,0,0-5.54,8.8,32.149,32.149,0,0,0-1.973,7.982,23.441,23.441,0,0,0,.617,9.711,14.633,14.633,0,0,0,8.838,9.643,15.133,15.133,0,0,0,5.265.926,18.306,18.306,0,0,0,7.213-1.55,22.387,22.387,0,0,0,3.752-2.058,97.191,97.191,0,0,1-2.889,9.8c-.3.92-.609,1.835-.9,2.742l-.081.248a17.447,17.447,0,0,0-1.056,6.976,15.417,15.417,0,0,0,3.539,8.572,25,25,0,0,0,9.37,6.726,57.869,57.869,0,0,0,18.066,4.494,55.86,55.86,0,0,0,5.664.322c1.045,0,2.07-.041,3.047-.122a11.9,11.9,0,0,0,9.278-5.6,13.537,13.537,0,0,0,3.909-6.848c.6,1.3,1.261,2.725,2.008,4.134l.094.178c.96,1.823,3.516,6.676,9.322,7.926a15.443,15.443,0,0,0,3.294.335c.76,0,1.415-.046,1.941-.082.158-.011.295-.021.432-.028.374-.02.732-.037,1.091-.054l.182-.009.613-.03.851-.041.289-.013a70.862,70.862,0,0,0,9.018-.827,19.843,19.843,0,0,0,4.4-1.224,11.755,11.755,0,0,0,3.983-2.628l.221-.225.2-.243c.241-.289.458-.576.653-.86a10.59,10.59,0,0,0,1.725.416,23.379,23.379,0,0,0,3.56.269l.34,0a22.742,22.742,0,0,0,8.259-1.556l.013-.005a10.841,10.841,0,0,0,3.363-2.034,45.367,45.367,0,0,0,4.8,3.267c4.476,2.642,11.435,5.811,19.172,5.907l.352,0c5.127,0,9.291-1.49,12.375-4.426a15.036,15.036,0,0,0,2.155-2.577c3.73-3.58,5.455-8.984,4.734-14.834a19.929,19.929,0,0,0-3.858-9.771,39.341,39.341,0,0,0,3.841-6.49,48.191,48.191,0,0,0,4.39-15.471c.737-7.166-.668-13.647-4.063-18.768A16.057,16.057,0,0,0,4513.6,1537.8Z" fill="none" stroke="#fff" stroke-linecap="round" stroke-linejoin="round" stroke-width="5.2"/>
        </g>
        <g id="Group_5582" data-name="Group 5582">
          <path id="Path_14086" data-name="Path 14086" d="M4931.473,1558.286c.737-7.166-.668-13.647-4.063-18.767a15.845,15.845,0,0,0-1.245-1.716,16.118,16.118,0,0,0-1.276-1.463,25.4,25.4,0,0,0-18.488-7.767h-.228a21.472,21.472,0,0,0-6.855,1.113,25.99,25.99,0,0,0-5.281,2.542,36.71,36.71,0,0,0-4.376,3.178l-.226-.256a12.239,12.239,0,0,0-1.11-1.124,36.554,36.554,0,0,0-25.549-10.349c-.227,0-.453,0-.68.006a33.4,33.4,0,0,0-15.524,4.22,36.99,36.99,0,0,0-8.708,6.782q-.849-.829-1.761-1.591a24.835,24.835,0,0,0-11.365-5.534,19.926,19.926,0,0,0-3.557-.322h0a19.189,19.189,0,0,0-11.253,3.6,21.489,21.489,0,0,0-2.687,2.285,26.811,26.811,0,0,0-12.752-3.56,19.173,19.173,0,0,0-7.692,1.559,26.077,26.077,0,0,0-11.284-2.549h-.228a21.478,21.478,0,0,0-6.856,1.113,26.033,26.033,0,0,0-5.28,2.542,40.63,40.63,0,0,0-7.5,6.066,54.264,54.264,0,0,0-4.237,4.811,56.756,56.756,0,0,0-7.841,11.468q-.531,1.024-1.014,2.049a23.481,23.481,0,0,0-3.626.323l.032-.112.2-.7c.168-.6.341-1.193.514-1.79a76.565,76.565,0,0,0,2.153-8.744l0-.009.007-.044a15.987,15.987,0,0,0-.022-6.646c-.589-2.426-2.492-6.833-8.609-9.091a23.479,23.479,0,0,0-8.149-1.366,35.239,35.239,0,0,0-6.512.648,30.041,30.041,0,0,0-11.017,4.165,14.509,14.509,0,0,0-5.473-3.446,23.463,23.463,0,0,0-8.15-1.367,35.239,35.239,0,0,0-6.512.648,29.434,29.434,0,0,0-11.587,4.552c-.108.075-.214.152-.319.23q-.27-.233-.543-.457a27.964,27.964,0,0,0-13.962-6.366,24.9,24.9,0,0,0-3.321-.222,28.8,28.8,0,0,0-12.309,2.9,30.3,30.3,0,0,0-9.049,6.15,25.216,25.216,0,0,0-2.323,2.754c-.075.078-.15.158-.224.238q-.7-.035-1.425-.034a34,34,0,0,0-8.807,1.177c-.866.238-1.643.491-2.379.773-.569.218-1.088.443-1.576.685a11.758,11.758,0,0,0-1.622.928,32.675,32.675,0,0,0-5.7-10.136,21.3,21.3,0,0,0-15.024-7.251c-.6-.036-1.218-.054-1.83-.054a49.966,49.966,0,0,0-11.209,1.544,93.665,93.665,0,0,0-10.954,3.023,36,36,0,0,0-8.883-1.169,25.054,25.054,0,0,0-15.825,5.106,21.953,21.953,0,0,0-4.368,4.573,23.24,23.24,0,0,0-5.528,9.6,25.055,25.055,0,0,0-.156,12.363,49.431,49.431,0,0,0,4.091,11.526,83.114,83.114,0,0,0,5.6,9.724,101.931,101.931,0,0,0,14.143,16.939,66.607,66.607,0,0,0,5.167,4.38c1.047.823,2.035,1.6,2.858,2.343,3.722,3.357,8.278,6.789,13.844,6.789.435,0,.869-.022,1.3-.065a11.429,11.429,0,0,0,2.205.224,18.46,18.46,0,0,0,6.585-1.191,12.134,12.134,0,0,0,2.563.856,15.45,15.45,0,0,0,3.294.335c.759,0,1.414-.045,1.94-.082l.432-.028c.371-.02.724-.037,1.077-.054l.2-.009.614-.03.846-.041.293-.013a70.855,70.855,0,0,0,9.018-.827,19.839,19.839,0,0,0,4.4-1.224,11.76,11.76,0,0,0,3.982-2.628l.221-.225.2-.242c.241-.289.459-.577.654-.861a10.581,10.581,0,0,0,1.724.416,23.4,23.4,0,0,0,3.561.269l.339,0a22.7,22.7,0,0,0,8.265-1.559l.01,0a10.8,10.8,0,0,0,3.4-2.07,28.43,28.43,0,0,0,8.188,6.619,22.148,22.148,0,0,0,10.227,2.594,27.68,27.68,0,0,0,17.244-9.828c.118-.007.237-.015.355-.025a27.734,27.734,0,0,0,14.331,8.861,31,31,0,0,0,7.675.992,26.63,26.63,0,0,0,6.083-.689,34.064,34.064,0,0,0,9.3-3.778,28.478,28.478,0,0,0,8.1,3.475,30.993,30.993,0,0,0,7.675.992,26.618,26.618,0,0,0,6.082-.689,38.5,38.5,0,0,0,16-8.534,46.04,46.04,0,0,0,4.878,3.314c4.476,2.642,11.435,5.811,19.172,5.907l.352,0a18.581,18.581,0,0,0,9.9-2.52,18.817,18.817,0,0,0,4.83.692,14.011,14.011,0,0,0,3.436-.42,11.4,11.4,0,0,0,5.653-3.364,32.147,32.147,0,0,0,6.345,3.535,27.1,27.1,0,0,0,15.473,1.6,24.384,24.384,0,0,0,13.455-7.39c.136-.144.271-.291.406-.439a38.513,38.513,0,0,0,15.072,7.24,40.589,40.589,0,0,0,9.278,1.067,38.842,38.842,0,0,0,21.734-6.471,25.654,25.654,0,0,0,2.268-1.737q1.692,1.221,3.517,2.3c4.476,2.642,11.435,5.811,19.172,5.907l.352,0c5.127,0,9.291-1.49,12.375-4.426a15.089,15.089,0,0,0,2.156-2.577c3.729-3.578,5.454-8.982,4.733-14.834a19.929,19.929,0,0,0-3.858-9.771,39.341,39.341,0,0,0,3.841-6.49A48.191,48.191,0,0,0,4931.473,1558.286Z" fill="none" stroke="#000" stroke-linecap="round" stroke-linejoin="round" stroke-width="3.9"/>
          <path id="Path_14087" data-name="Path 14087" d="M4513.6,1537.8a16.114,16.114,0,0,0-1.272-1.458,25.4,25.4,0,0,0-18.49-7.769h-.226a21.471,21.471,0,0,0-6.857,1.113,25.99,25.99,0,0,0-5.281,2.542,40.63,40.63,0,0,0-7.5,6.066q-1.169,1.174-2.289,2.456a23.325,23.325,0,0,0-9.659-1.916,34.01,34.01,0,0,0-8.808,1.177c-.866.238-1.644.491-2.38.773-.568.218-1.087.443-1.575.685a11.781,11.781,0,0,0-1.622.928,32.735,32.735,0,0,0-5.7-10.137,21.3,21.3,0,0,0-15.023-7.25c-.6-.036-1.22-.054-1.831-.054a49.942,49.942,0,0,0-11.208,1.544,101.146,101.146,0,0,0-9.83,2.64,57.512,57.512,0,0,1-7.693.593c-.507.008-1.01.012-1.514.012-2.848,0-5.9-.122-9.6-.385-2.328-.166-4.76-.414-7.111-.654-1.553-.159-3.16-.323-4.749-.466-1-.09-2.01-.136-3-.136a27.12,27.12,0,0,0-13.789,3.512,25.2,25.2,0,0,0-7.611,6.906,27.3,27.3,0,0,0-5.54,8.8,32.149,32.149,0,0,0-1.973,7.982,23.441,23.441,0,0,0,.617,9.711,14.633,14.633,0,0,0,8.838,9.643,15.133,15.133,0,0,0,5.265.926,18.306,18.306,0,0,0,7.213-1.55,22.387,22.387,0,0,0,3.752-2.058,97.191,97.191,0,0,1-2.889,9.8c-.3.92-.609,1.835-.9,2.742l-.081.248a17.447,17.447,0,0,0-1.056,6.976,15.417,15.417,0,0,0,3.539,8.572,25,25,0,0,0,9.37,6.726,57.869,57.869,0,0,0,18.066,4.494,55.86,55.86,0,0,0,5.664.322c1.045,0,2.07-.041,3.047-.122a11.9,11.9,0,0,0,9.278-5.6,13.537,13.537,0,0,0,3.909-6.848c.6,1.3,1.261,2.725,2.008,4.134l.094.178c.96,1.823,3.516,6.676,9.322,7.926a15.443,15.443,0,0,0,3.294.335c.76,0,1.415-.046,1.941-.082.158-.011.295-.021.432-.028.374-.02.732-.037,1.091-.054l.182-.009.613-.03.851-.041.289-.013a70.862,70.862,0,0,0,9.018-.827,19.843,19.843,0,0,0,4.4-1.224,11.755,11.755,0,0,0,3.983-2.628l.221-.225.2-.243c.241-.289.458-.576.653-.86a10.59,10.59,0,0,0,1.725.416,23.379,23.379,0,0,0,3.56.269l.34,0a22.742,22.742,0,0,0,8.259-1.556l.013-.005a10.841,10.841,0,0,0,3.363-2.034,45.367,45.367,0,0,0,4.8,3.267c4.476,2.642,11.435,5.811,19.172,5.907l.352,0c5.127,0,9.291-1.49,12.375-4.426a15.036,15.036,0,0,0,2.155-2.577c3.73-3.58,5.455-8.984,4.734-14.834a19.929,19.929,0,0,0-3.858-9.771,39.341,39.341,0,0,0,3.841-6.49,48.191,48.191,0,0,0,4.39-15.471c.737-7.166-.668-13.647-4.063-18.768A16.057,16.057,0,0,0,4513.6,1537.8Z" fill="none" stroke="#000" stroke-linecap="round" stroke-linejoin="round" stroke-width="3.9"/>
        </g>
      </g>
    </g>
    <g id="Group_5630" data-name="Group 5630">
      <g id="Group_5588" data-name="Group 5588">
        <path id="Path_14088" data-name="Path 14088" d="M4920.629,1543.77a7.353,7.353,0,0,0-.716-.976,8.09,8.09,0,0,0-.733-.847,17.449,17.449,0,0,0-12.779-5.374h-.184a13.557,13.557,0,0,0-4.31.682,18.208,18.208,0,0,0-3.672,1.783,32.82,32.82,0,0,0-6.029,4.9,45.9,45.9,0,0,0-3.757,4.291,48.549,48.549,0,0,0-6.892,10.031,37.682,37.682,0,0,0-4.61,15.144,24.788,24.788,0,0,0,4.193,15.244,34.5,34.5,0,0,0,11.239,10.412c3.638,2.147,9.228,4.722,15.2,4.8l.254,0c3.046,0,5.29-.726,6.858-2.22a7.22,7.22,0,0,0,1.461-1.99,6.942,6.942,0,0,0,.651-.545c1.907-1.816,2.765-4.769,2.354-8.1-.188-1.529-.929-5.3-3.733-7.247a4.4,4.4,0,0,0-2.5-.836h-.082a5.964,5.964,0,0,0-1.9.432c-.176.063-.343.123-.487.164-.612.177-1.25.324-1.907.446a21.785,21.785,0,0,0,2.2-1.64,24.965,24.965,0,0,0,3.941-4.28,29.359,29.359,0,0,0,5.162-7.7,40.151,40.151,0,0,0,3.664-12.871C4923.91,1553.632,4923.691,1548.259,4920.629,1543.77Zm-28.245,30.646c-.012-.122-.022-.247-.03-.373a10.474,10.474,0,0,1,1.353-5.765,4.494,4.494,0,0,1,2.651-1.19c.068,0,.137,0,.205.009a1.891,1.891,0,0,1,1.587,2.166h0v.011h0a4.847,4.847,0,0,1-.756,2.184A13.824,13.824,0,0,1,4892.384,1574.416Z"/>
        <g id="Group_5587" data-name="Group 5587" clip-path="url(#clip-path)">
          <g id="Group_5586" data-name="Group 5586">
            <g id="Group_5585" data-name="Group 5585">
              <path id="Path_14089" data-name="Path 14089" d="M4918.089,1543.222s.132.169.5.63.506.628.507.628Z" fill="url(#linear-gradient)"/>
              <path id="Path_14090" data-name="Path 14090" d="M4918.587,1543.852a15.6,15.6,0,0,0-12.187-5.589h-.166a11.959,11.959,0,0,0-3.78.591,16.662,16.662,0,0,0-3.332,1.622,31.4,31.4,0,0,0-5.718,4.65,46.447,46.447,0,0,0-8.234,11.373,36.365,36.365,0,0,0-4.423,14.465,23.14,23.14,0,0,0,3.914,14.211,32.7,32.7,0,0,0,10.69,9.89c4.284,2.529,9.333,4.5,14.365,4.562l.232,0c2,0,4.2-.329,5.692-1.753,1.771-1.687,2.129-4.351,1.843-6.672-.266-2.159-1.154-4.767-3.021-6.067a2.736,2.736,0,0,0-1.537-.533h-.046a8,8,0,0,0-1.955.53,22.592,22.592,0,0,1-3.7.731,27.132,27.132,0,0,1-3.109.181,25.153,25.153,0,0,1-4.218-.351,16.22,16.22,0,0,1-5.711-1.907,7.467,7.467,0,0,1-1.959-1.681c.705.235,1.385.558,2.08.822a7.9,7.9,0,0,0,2.11.381q.906.079,1.819.079a21.7,21.7,0,0,0,3.191-.237,20.613,20.613,0,0,0,10.337-4.657,26.305,26.305,0,0,0,6.558-8.88,38.4,38.4,0,0,0,3.511-12.322C4922.315,1552.62,4921.61,1547.611,4918.587,1543.852Zm-16.649,23.2s0-.057.011-.213a8.62,8.62,0,0,1-2.657,5.118,15.478,15.478,0,0,1-6.4,4.074,9.2,9.2,0,0,1-2.86.591,4.241,4.241,0,0,1-.658-.049,8.912,8.912,0,0,0,1.4-.57c.192-.122.148-.069.1-.3-.036-.17-.069-.342-.1-.514-.054-.342-.091-.688-.113-1.034a12.116,12.116,0,0,1,.757-4.969,11.257,11.257,0,0,1,2.912-4.39,6.447,6.447,0,0,1,4.135-1.928c.118,0,.236.005.355.016a3.557,3.557,0,0,1,3.123,3.957c.01-.153.014-.209.014-.209Z" fill="url(#linear-gradient-2)"/>
            </g>
            <path id="Path_14091" data-name="Path 14091" d="M4906.861,1540.948a9.52,9.52,0,0,1,12.233,10.48,25.419,25.419,0,0,0-1.693-4.108c-2.043-3.987-6.261-5.756-10.54-6.372Z" fill="#fff"/>
            <path id="Path_14092" data-name="Path 14092" d="M4906.174,1587.933c.92-.258,1.723-.475,2.511-.758a12.336,12.336,0,0,1,3.961-1.066,3.382,3.382,0,0,1,3.1,2.979c-1.252-.89-2.169-1.7-3.6-1.281-.145.027-.433.1-.573.145-1.635.506-3.777.879-5.409-.019Z" fill="#fff"/>
          </g>
        </g>
      </g>
      <g id="Group_5592" data-name="Group 5592">
        <path id="Path_14094" data-name="Path 14094" d="M4880.5,1574.632a12.55,12.55,0,0,0,5.3-4.684c3.212-2.979,4.958-7.727,4.726-13.066a25.92,25.92,0,0,0-5.55-14.618,3.752,3.752,0,0,0-.463-.6l-.535-.607-.536-.607a3.8,3.8,0,0,0-.525-.518,28.652,28.652,0,0,0-20.14-8.253c-.175,0-.349,0-.524.005a25.374,25.374,0,0,0-11.792,3.213,30.322,30.322,0,0,0-8.834,7.622c-.218.27-.427.548-.637.825-.5.55-1,1.114-1.476,1.71a43.267,43.267,0,0,0-8.927,22.436c-.974,8.766.43,16.288,4.173,22.358A29.9,29.9,0,0,0,4853.347,1603a32.55,32.55,0,0,0,7.446.855,30.776,30.776,0,0,0,17.223-5.078,15.144,15.144,0,0,0,4.271-4.273,11.479,11.479,0,0,0,3.883-8.7C4886.027,1580.637,4882.565,1576.593,4880.5,1574.632Zm-31.534,1.981a10.54,10.54,0,0,1-.244-4.97,16.967,16.967,0,0,1,2-5.936,9.09,9.09,0,0,1,2.48-1.474l.276-.111c.61.776,1.238,1.543,1.89,2.288a36.624,36.624,0,0,0,4.224,4.137,30.317,30.317,0,0,0-3.061,1.032A18.747,18.747,0,0,0,4848.966,1576.613Z"/>
        <g id="Group_5591" data-name="Group 5591" clip-path="url(#clip-path-2)">
          <g id="Group_5590" data-name="Group 5590">
            <g id="Group_5589" data-name="Group 5589">
              <path id="Path_14095" data-name="Path 14095" d="M4881.931,1541.3s.205.237.774.884.778.876.78.876S4881.936,1541.3,4881.931,1541.3Z" fill="url(#linear-gradient-3)"/>
              <path id="Path_14096" data-name="Path 14096" d="M4842.943,1543.576a41.946,41.946,0,0,0-8.565,21.565c-.815,7.33,0,14.9,3.932,21.284a28.191,28.191,0,0,0,17.536,12.395,30.9,30.9,0,0,0,7.059.81,29.02,29.02,0,0,0,16.271-4.784c3.034-2.071,5.411-5.169,5.305-8.995-.107-3.86-2.438-7.429-5.162-10.01a19.952,19.952,0,0,0-2.22-1.828.718.718,0,0,0-.491-.163c-.052,0-.109,0-.176,0-.227.007-.455.012-.682.012h-.066c-.548,0-1.1-.035-1.641-.091a19.806,19.806,0,0,1-5.7-1.48q-.618-.262-1.22-.561a4.1,4.1,0,0,0-1.314-.6l-.124,0a10.156,10.156,0,0,0-1.284.156q-.773.1-1.542.241a29.678,29.678,0,0,0-5.7,1.623c-3.349,1.336-6.99,3.52-8.4,7.021-1.378,3.415-.1,8.174,3.436,9.713a9.946,9.946,0,0,0,3.987.728c.606,0,1.211-.036,1.8-.094a30.651,30.651,0,0,0,5.676-1.17,97.116,97.116,0,0,0,10.607-4.054l2.709-1.157a39.639,39.639,0,0,1-8.81,4.881c-3.754,1.566-7.943,2.959-12.069,2.959-.247,0-.493-.005-.74-.015a9.046,9.046,0,0,1-6.2-2.411,9.708,9.708,0,0,1-2.49-5.723,9.294,9.294,0,0,1,.246-3.3,9.174,9.174,0,0,1,.536-1.5c.1-.214.254-.432.329-.654.065-.191.057-.144-.037-.326-.057-.11-.109-.222-.158-.335a11.492,11.492,0,0,1-.528-6.336,18.385,18.385,0,0,1,2.443-6.91,10.9,10.9,0,0,1,5.192-4.336,20.225,20.225,0,0,1-3-6.554c2.359,3.053,4.518,6.282,7.06,9.188,3.154,3.606,7.053,6.8,11.678,8.269a17.824,17.824,0,0,0,5.347.832,13.487,13.487,0,0,0,7.7-2.211c4.058-2.81,5.559-7.965,5.354-12.7a24.174,24.174,0,0,0-6.132-14.775,26.919,26.919,0,0,0-19.929-8.812c-.165,0-.328,0-.492,0a23.624,23.624,0,0,0-11,3A28.78,28.78,0,0,0,4842.943,1543.576Z" fill="url(#linear-gradient-4)"/>
            </g>
            <path id="Path_14097" data-name="Path 14097" d="M4863.761,1534.65c9.494-.887,18.895,6.083,21.233,15.246-4.912-8.223-11.77-13.4-21.233-15.246Z" fill="#fff"/>
            <path id="Path_14098" data-name="Path 14098" d="M4878.733,1570.154l-.029.015-.008,0,0,0c0-.011,0,.027-.009-.024.04-.026.138-.083.181-.109,3.213-1.912,6.089-4.6,7.123-8.293a25.507,25.507,0,0,0,.782-3.891,9.209,9.209,0,0,1-6.067,11.96,7.709,7.709,0,0,1-2,.358h-.016c-.009-.049.007-.013.009-.024l.033,0Z" fill="#fff"/>
            <path id="Path_14099" data-name="Path 14099" d="M4876.482,1593.562l-.028.014a.027.027,0,0,1-.023,0c-.01-.038.007-.025.007-.035.073-.076.236-.212.317-.284,4.553-3.733,5.621-6.031,2.821-11.494,5.743,4.051,3.087,10.645-3.094,11.8Z" fill="#fff"/>
            <path id="Path_14100" data-name="Path 14100" d="M4852.85,1558.7a11.133,11.133,0,0,1-3.365,2.925,9.354,9.354,0,0,0-2.69,3.471l-.164-.041a7.947,7.947,0,0,1,1.516-3.9,7.258,7.258,0,0,1,2.178-2.16,4.134,4.134,0,0,1,2.467-.45l.058.158Z" fill="#fff"/>
            <path id="Path_14101" data-name="Path 14101" d="M4851.988,1579.361a9.822,9.822,0,0,1-1.01,2.905,4.537,4.537,0,0,0,.144,3l-.109.066a4.317,4.317,0,0,1-1.032-3.247,3.378,3.378,0,0,1,.474-1.729,2.627,2.627,0,0,1,1.443-1.081l.09.089Z" fill="#fff"/>
          </g>
        </g>
      </g>
      <g id="Group_5596" data-name="Group 5596">
        <path id="Path_14103" data-name="Path 14103" d="M4839.642,1554.5c-.109-.492-.226-.98-.35-1.459a7.7,7.7,0,0,0-.22-.825c-.02-.069-.04-.14-.062-.213l-.028-.1a25.577,25.577,0,0,0-8.012-12.679,16.861,16.861,0,0,0-7.665-3.8,11.872,11.872,0,0,0-2.124-.193,11.243,11.243,0,0,0-6.6,2.1,14.725,14.725,0,0,0-3.617,3.794,15.629,15.629,0,0,0-2.165,2.62c-.113-.09-.22-.165-.3-.221l-.044-.03q-.313-.247-.633-.488a37.42,37.42,0,0,0-3.16-2.148,20.07,20.07,0,0,0-10.179-3.3,11.078,11.078,0,0,0-5.835,1.585,13.43,13.43,0,0,0-4.192,4.143c-3.489,3.312-4.964,8.364-5.784,12.121a64.578,64.578,0,0,0-1.136,17.383c.173,3.158.538,6.215.873,8.789a69.792,69.792,0,0,0,1.568,8.583,22.14,22.14,0,0,0,3.276,7.761,9.383,9.383,0,0,0,3.246,2.838,10.562,10.562,0,0,0,2.116.762,11.8,11.8,0,0,0,3.058.5,5.994,5.994,0,0,0,1.471-.174,3.506,3.506,0,0,0,2.6-2.7c.985-.4,2.223-1.4,2.3-3.908a15.221,15.221,0,0,0-.342-3.3c3.731,5.047,7.913,8.555,12.471,10.443a19.109,19.109,0,0,0,10.91,1.131,16.546,16.546,0,0,0,9.129-5.013,22.754,22.754,0,0,0,1.913-2.338c.066-.068.135-.128.2-.2,4.085-4.342,6.694-10.667,7.976-19.339A61.72,61.72,0,0,0,4839.642,1554.5Z"/>
        <g id="Group_5595" data-name="Group 5595" clip-path="url(#clip-path-3)">
          <g id="Group_5594" data-name="Group 5594">
            <g id="Group_5593" data-name="Group 5593">
              <path id="Path_14104" data-name="Path 14104" d="M4837.283,1552.115s.021.075.076.264c.189.655.255.882.255.882Z" fill="url(#linear-gradient-5)"/>
              <path id="Path_14105" data-name="Path 14105" d="M4838.627,1576.385a59.92,59.92,0,0,0-.635-21.517q-.279-1.254-.633-2.489a23.91,23.91,0,0,0-7.474-11.853,15.162,15.162,0,0,0-6.882-3.432,10.206,10.206,0,0,0-1.823-.165,9.579,9.579,0,0,0-5.608,1.783c-4.011,2.876-5.822,8.106-6.819,12.734a55.823,55.823,0,0,0-1.369,15.621,31.292,31.292,0,0,0,1.337,7.364,17.938,17.938,0,0,0,3.05,5.961,5.839,5.839,0,0,0,.467.515,12.8,12.8,0,0,1-3.153-4.077,26.141,26.141,0,0,1-2.474-6.781,48.331,48.331,0,0,1-.457-16.395,45.412,45.412,0,0,1,1.168-6.421q.141-.518.3-1.03c.078-.252.362-.809.246-1.007a1.943,1.943,0,0,0-.439-.356c-.2-.162-.411-.321-.619-.478a35.375,35.375,0,0,0-3.016-2.049,18.855,18.855,0,0,0-9.306-3.06,9.393,9.393,0,0,0-4.958,1.34c-4.288,2.6-6.078,8.014-7.09,12.645a63.675,63.675,0,0,0-1.1,16.93c.158,2.9.487,5.786.861,8.663a69.129,69.129,0,0,0,1.529,8.379,20.673,20.673,0,0,0,3,7.18,7.732,7.732,0,0,0,2.657,2.337,9.022,9.022,0,0,0,1.784.635,10.356,10.356,0,0,0,2.619.439,4.328,4.328,0,0,0,1.056-.122c1.172-.3,1.475-1.386,1.509-2.482a19.883,19.883,0,0,0-.531-4.089c-.256-1.42-.47-2.849-.655-4.28a73.519,73.519,0,0,1-.625-7.989,34.98,34.98,0,0,1,.5-7.325,19.933,19.933,0,0,1,.678-2.552,28.544,28.544,0,0,0-.257,8.336,6.52,6.52,0,0,0,.143,1.21,9.978,9.978,0,0,0,.41,1.041c.225.536.467,1.065.722,1.587a44.8,44.8,0,0,0,2.2,3.962c3.361,5.417,7.987,10.7,14,13.193a17.414,17.414,0,0,0,9.947,1.033,14.936,14.936,0,0,0,8.215-4.511C4835.711,1589.9,4837.665,1582.893,4838.627,1576.385Z" fill="url(#linear-gradient-6)"/>
            </g>
            <path id="Path_14106" data-name="Path 14106" d="M4818.832,1539.178c3.593-1.479,7.886.071,10.662,2.572a18.714,18.714,0,0,1,4.829,6.927c1.1,3.187,1.2,3.254-.728.4-3.477-4.983-8.2-10.038-14.763-9.9Z" fill="#fff"/>
            <path id="Path_14107" data-name="Path 14107" d="M4818.276,1597.8c6.564.139,11.285-4.915,14.763-9.9,1.9-2.8,1.856-2.846.728.4a18.712,18.712,0,0,1-4.829,6.928c-2.775,2.5-7.07,4.05-10.662,2.572Z" fill="#fff"/>
            <path id="Path_14108" data-name="Path 14108" d="M4787.225,1547.309a7.77,7.77,0,0,1,1.822-4.3c3.336-4.03,9.444-2.833,13.042.15-1.488-.4-2.919-.829-4.356-1.069-4.79-.918-8.254.907-10.508,5.216Z" fill="#fff"/>
            <path id="Path_14109" data-name="Path 14109" d="M4794.894,1596.375a4.377,4.377,0,0,1-1.442-2.291,16.724,16.724,0,0,1-.187-3.831c.038-1.267.13-2.531.283-3.788l.169-.005.893,4.924a11.118,11.118,0,0,1,.427,4.9l-.143.091Z" fill="#fff"/>
          </g>
        </g>
      </g>
      <g id="Group_5607" data-name="Group 5607">
        <g id="Group_5600" data-name="Group 5600">
          <path id="Path_14111" data-name="Path 14111" d="M4508.065,1543.77a7.353,7.353,0,0,0-.716-.976,8.09,8.09,0,0,0-.733-.847,17.449,17.449,0,0,0-12.779-5.374h-.184a13.562,13.562,0,0,0-4.31.682,18.217,18.217,0,0,0-3.672,1.783,32.82,32.82,0,0,0-6.029,4.9,45.972,45.972,0,0,0-3.757,4.291,48.566,48.566,0,0,0-6.892,10.031,37.682,37.682,0,0,0-4.61,15.144,24.8,24.8,0,0,0,4.193,15.244,34.5,34.5,0,0,0,11.239,10.412c3.638,2.147,9.228,4.722,15.2,4.8l.254,0c3.046,0,5.29-.726,6.858-2.22a7.22,7.22,0,0,0,1.461-1.99,6.942,6.942,0,0,0,.651-.545c1.907-1.816,2.765-4.769,2.354-8.1-.188-1.529-.929-5.3-3.733-7.247a4.4,4.4,0,0,0-2.5-.836h-.082a5.964,5.964,0,0,0-1.9.432c-.176.063-.343.123-.487.164-.611.177-1.25.324-1.907.446a21.785,21.785,0,0,0,2.2-1.64,24.965,24.965,0,0,0,3.941-4.28,29.371,29.371,0,0,0,5.162-7.7,40.126,40.126,0,0,0,3.664-12.871C4511.346,1553.632,4511.127,1548.259,4508.065,1543.77Zm-28.245,30.646c-.012-.122-.022-.247-.03-.373a10.474,10.474,0,0,1,1.353-5.765,4.494,4.494,0,0,1,2.651-1.19c.068,0,.137,0,.205.009a1.891,1.891,0,0,1,1.587,2.166h0v.011h0a4.847,4.847,0,0,1-.756,2.184A13.824,13.824,0,0,1,4479.82,1574.416Z"/>
          <g id="Group_5599" data-name="Group 5599" clip-path="url(#clip-path-4)">
            <g id="Group_5598" data-name="Group 5598">
              <g id="Group_5597" data-name="Group 5597">
                <path id="Path_14112" data-name="Path 14112" d="M4505.525,1543.222s.132.169.5.63.506.628.507.628Z" fill="url(#linear-gradient-7)"/>
                <path id="Path_14113" data-name="Path 14113" d="M4506.023,1543.852a15.6,15.6,0,0,0-12.187-5.589h-.166a11.959,11.959,0,0,0-3.78.591,16.649,16.649,0,0,0-3.332,1.622,31.4,31.4,0,0,0-5.718,4.65,46.447,46.447,0,0,0-8.234,11.373,36.365,36.365,0,0,0-4.423,14.465,23.14,23.14,0,0,0,3.914,14.211,32.7,32.7,0,0,0,10.69,9.89c4.284,2.529,9.333,4.5,14.365,4.562l.232,0c2,0,4.2-.329,5.692-1.753,1.771-1.687,2.129-4.351,1.843-6.672-.266-2.159-1.154-4.767-3.021-6.067a2.737,2.737,0,0,0-1.537-.533h-.046a7.983,7.983,0,0,0-1.954.53,22.624,22.624,0,0,1-3.7.731,27.134,27.134,0,0,1-3.109.181,25.151,25.151,0,0,1-4.218-.351,16.22,16.22,0,0,1-5.711-1.907,7.467,7.467,0,0,1-1.959-1.681c.705.235,1.385.558,2.08.822a7.9,7.9,0,0,0,2.11.381q.906.079,1.819.079a21.689,21.689,0,0,0,3.191-.237,20.613,20.613,0,0,0,10.337-4.657,26.3,26.3,0,0,0,6.558-8.88,38.392,38.392,0,0,0,3.511-12.322C4509.751,1552.62,4509.046,1547.611,4506.023,1543.852Zm-16.649,23.2s0-.057.011-.213a8.617,8.617,0,0,1-2.657,5.118,15.478,15.478,0,0,1-6.4,4.074,9.2,9.2,0,0,1-2.86.591,4.241,4.241,0,0,1-.658-.049,8.931,8.931,0,0,0,1.4-.57c.192-.122.148-.069.1-.3-.036-.17-.069-.342-.1-.514-.054-.342-.091-.688-.113-1.034a12.116,12.116,0,0,1,.757-4.969,11.257,11.257,0,0,1,2.912-4.39,6.447,6.447,0,0,1,4.135-1.928c.118,0,.236.005.356.016a3.556,3.556,0,0,1,3.122,3.957c.01-.153.014-.209.014-.209Z" fill="url(#linear-gradient-2)"/>
              </g>
              <path id="Path_14114" data-name="Path 14114" d="M4494.3,1540.948a9.519,9.519,0,0,1,12.232,10.48,25.286,25.286,0,0,0-1.693-4.108c-2.043-3.987-6.261-5.756-10.539-6.372Z" fill="#fff"/>
              <path id="Path_14115" data-name="Path 14115" d="M4493.61,1587.933c.92-.258,1.723-.475,2.511-.758a12.333,12.333,0,0,1,3.961-1.066,3.382,3.382,0,0,1,3.1,2.979c-1.252-.89-2.169-1.7-3.6-1.281-.145.027-.433.1-.573.145-1.635.506-3.777.879-5.409-.019Z" fill="#fff"/>
            </g>
          </g>
        </g>
        <g id="Group_5602" data-name="Group 5602">
          <path id="Path_14117" data-name="Path 14117" d="M4473,1555.2c-.074-.643-.165-1.213-.28-1.743l-.01-.07a2.774,2.774,0,0,0-.129-.517c-.01-.036-.023-.08-.038-.129l-.029-.1c-1.051-3.737-4.779-5.8-10.5-5.8a25.671,25.671,0,0,0-2.827.16,25.1,25.1,0,0,0-3.863.732c-.6.166-1.136.338-1.628.526a10.08,10.08,0,0,0-.964.421l-.033.015a2.314,2.314,0,0,0-1.215,1.075,2.163,2.163,0,0,0-.175,1.133c-.256.1-.48.206-.689.312l-.033.015a2.314,2.314,0,0,0-1.215,1.075,2.385,2.385,0,0,0-.146,1.389l0,.041.013.4.016.45c.01.314.022.628.035.942.142,3.428.3,6.822.444,9.69l.147,3.027.047.97-.131.009c-.212.014-.425.035-.638.056-.328.032-.638.063-.915.063a2.577,2.577,0,0,1-.291-.014.959.959,0,0,1-.71-.364,2.292,2.292,0,0,1-.109-.3c-.032-.1-.065-.2-.1-.307-.084-.237-.207-.612-.278-.875-.521-1.9-1.063-3.781-1.476-5.206-.713-2.455-1.446-4.947-2.156-7.356l-.652-2.216q-.169-.575-.337-1.15c-.5-1.716-1.018-3.49-1.608-5.227a26.734,26.734,0,0,0-4.66-8.826,13.189,13.189,0,0,0-9.449-4.492c-.439-.027-.893-.04-1.349-.04a43.152,43.152,0,0,0-9.442,1.346,84.591,84.591,0,0,0-10.375,2.879,23.219,23.219,0,0,0-4.837,2.3,7.489,7.489,0,0,0-2.838,3.045,5.761,5.761,0,0,0-2.519,4.305c-.067,2.2,1.2,4.018,2.214,5.48l.022.031c.487.7.991,1.377,1.426,1.955,2.722,3.626,5.858,7.862,8.61,12.247a181.632,181.632,0,0,1,9.954,18.456c1.588,3.312,3.161,6.76,4.548,9.8l.194.424c.666,1.464,1.355,2.977,2.132,4.443l.1.191c.708,1.344,1.777,3.374,3.93,3.838a7.576,7.576,0,0,0,1.611.156c.482,0,.944-.032,1.39-.063.19-.013.38-.026.567-.036q.651-.034,1.3-.065l.611-.03c.384-.019.768-.036,1.153-.054a63.546,63.546,0,0,0,8.015-.717,12.186,12.186,0,0,0,2.67-.715,4.009,4.009,0,0,0,1.374-.853,2.644,2.644,0,0,0,.586-1.049c.032-.2.053-.4.07-.6.028-.011.056-.019.083-.03a4,4,0,0,0,1.374-.853,2.66,2.66,0,0,0,.586-1.049,14.628,14.628,0,0,0-.061-3.844c-.028-.266-.056-.529-.08-.787l-.07-.767c-.124-1.348-.252-2.741-.334-4.1a36,36,0,0,1-.034-4.848,12.673,12.673,0,0,1,.318-2.129,2.108,2.108,0,0,1,.356-.034,1.928,1.928,0,0,1,1.61.852,10.025,10.025,0,0,1,1.289,3.8c.24,1.275.427,2.6.608,3.882q.08.573.163,1.146l.07.492a19.53,19.53,0,0,0,1.08,4.7l.02.05a2.793,2.793,0,0,0,2.1,1.95,15.433,15.433,0,0,0,2.345.176l.239,0a14.742,14.742,0,0,0,5.387-.983l.063-.025a2.461,2.461,0,0,0,1.345-1.051,2.339,2.339,0,0,0,.26-.763l0-.02c.047-.185.09-.373.135-.561.1-.038.207-.074.306-.115l.064-.025a2.465,2.465,0,0,0,1.344-1.051,2.312,2.312,0,0,0,.26-.763l0-.02q.126-.5.244-1.015c1.1-4.754,2.066-9.893,2.95-15.711.61-4.018,1.021-7.325,1.294-10.408A52.891,52.891,0,0,0,4473,1555.2Z"/>
          <g id="Group_5601" data-name="Group 5601">
            <path id="Path_14118" data-name="Path 14118" d="M4453.84,1568.645h0c0-.024,0-.048-.007-.072Z" fill="url(#linear-gradient-9)"/>
            <path id="Path_14119" data-name="Path 14119" d="M4471.183,1565.615a50.833,50.833,0,0,0,.141-10.225,14.3,14.3,0,0,0-.432-2.29c-1.032-3.672-5.245-4.575-8.872-4.575a24,24,0,0,0-2.639.15,23.459,23.459,0,0,0-3.6.681c-.5.137-.99.291-1.471.475a8.708,8.708,0,0,0-.805.35c-.121.062-.426.182-.485.307a1.906,1.906,0,0,0,.02.606c.01.3.02.593.03.889s.022.619.035.929q.2,4.839.443,9.677.147,3.029.295,6.056c.111,1.354-1.456,1.968-2.547,2.136-.453.069-.912.086-1.369.118-.553.038-1.112.123-1.669.123a4.548,4.548,0,0,1-.467-.023,2.6,2.6,0,0,1-1.949-1.12,4.2,4.2,0,0,1-.389-.97c-.086-.244-.227-.668-.315-.992-.475-1.732-.969-3.458-1.469-5.182q-1.391-4.788-2.807-9.567c-.62-2.108-1.215-4.228-1.923-6.309a24.714,24.714,0,0,0-4.339-8.266,11.5,11.5,0,0,0-8.272-3.909q-.623-.037-1.247-.037a41.5,41.5,0,0,0-9.069,1.305,84.189,84.189,0,0,0-10.172,2.819,21.378,21.378,0,0,0-4.484,2.124c-1.205.794-2.437,1.906-2.484,3.454-.05,1.654,1.032,3.2,1.934,4.5.45.646.918,1.276,1.39,1.905,3.028,4.032,6.007,8.088,8.69,12.362a186.684,186.684,0,0,1,10.047,18.625c1.562,3.257,3.062,6.543,4.561,9.83.732,1.6,1.456,3.217,2.282,4.776.636,1.2,1.434,2.855,2.893,3.169a5.985,5.985,0,0,0,1.255.118c.625,0,1.255-.064,1.868-.1.64-.034,1.28-.063,1.92-.095a72.531,72.531,0,0,0,8.959-.748,10.581,10.581,0,0,0,2.305-.607,2.513,2.513,0,0,0,.823-.478c.029-.03.1-.149.12-.149,0,0,.006.005,0,.018a17.442,17.442,0,0,0-.155-4.214c-.149-1.639-.309-3.277-.408-4.92a37.2,37.2,0,0,1-.032-5.079,9.447,9.447,0,0,1,1.236-4.488A3.879,3.879,0,0,1,4451.8,1577a3.616,3.616,0,0,1,2.993,1.57,11.374,11.374,0,0,1,1.568,4.461c.318,1.69.535,3.4.782,5.1a20.253,20.253,0,0,0,1.041,4.793c.167.407.349.9.812.972a13.781,13.781,0,0,0,2.089.156h.215a13.229,13.229,0,0,0,4.768-.857c.2-.081.477-.164.58-.346a1.419,1.419,0,0,0,.089-.338c.084-.335.164-.672.242-1.008,1.192-5.147,2.132-10.362,2.926-15.583C4470.421,1572.5,4470.879,1569.061,4471.183,1565.615Z" fill="url(#linear-gradient-10)"/>
            <path id="Path_14120" data-name="Path 14120" d="M4470.88,1553.057l.012.043c.109.38.146.509.146.508Z" fill="url(#linear-gradient-11)"/>
          </g>
          <path id="Path_14121" data-name="Path 14121" d="M4421.777,1536.819c5.8-2.4,13.235.894,13.421,7.643a18.392,18.392,0,0,0-2.345-3.449c-2.8-3.138-7.022-3.894-11.076-4.194Z" fill="#fff"/>
          <path id="Path_14122" data-name="Path 14122" d="M4463.048,1550.5a4.5,4.5,0,0,1,6,1.374,7.07,7.07,0,0,1,.656,6.228c-.348-1-.6-1.954-.9-2.85-.928-2.969-2.584-4.471-5.757-4.752Z" fill="#fff"/>
          <path id="Path_14123" data-name="Path 14123" d="M4440.385,1597.813c1.6-.743,3.274-.942,4.761-1.722.138-.091.134-.092.194-.2a6.911,6.911,0,0,0,.036-2.562,17.905,17.905,0,0,1-.09-3.121c.915,1.842,3.036,5.714.791,7.291a7.312,7.312,0,0,1-5.692.311Z" fill="#fff"/>
          <path id="Path_14124" data-name="Path 14124" d="M4460.384,1592.42c1.159-.67,2.311-.9,3.437-1.428a.879.879,0,0,0,.22-.166c.787-.862.925-2.538,1.493-3.713.715,1.718.961,4.3-.932,5.37a5.225,5.225,0,0,1-4.218-.063Z" fill="#fff"/>
        </g>
        <g id="Group_5606" data-name="Group 5606">
          <path id="Path_14125" data-name="Path 14125" d="M4419.274,1539.943a8.572,8.572,0,0,0-1.993-2.2,4.336,4.336,0,0,0-.645-.46,3.911,3.911,0,0,0-.8-.428,9.194,9.194,0,0,0-4.017-.847,12.522,12.522,0,0,0-1.368.077,20.7,20.7,0,0,0-2.356.441c-.415.094-.807.184-1.2.257a62.134,62.134,0,0,1-10.423.949q-.822.013-1.645.013c-3.044,0-6.273-.129-10.163-.405-2.45-.175-4.945-.429-7.358-.676-1.523-.156-3.1-.316-4.653-.456-.767-.07-1.536-.1-2.285-.1a19.243,19.243,0,0,0-9.778,2.435,17.136,17.136,0,0,0-5.461,5.123,19.01,19.01,0,0,0-4.247,6.566,24.125,24.125,0,0,0-1.48,6,15.724,15.724,0,0,0,.32,6.448,6.623,6.623,0,0,0,3.96,4.481,7.177,7.177,0,0,0,2.493.429,10.373,10.373,0,0,0,4.067-.9,14.615,14.615,0,0,0,2.713-1.537c.442-.316.847-.647,1.238-.968.346-.284.673-.552,1-.793a15.345,15.345,0,0,1,4.276-2.184,16.865,16.865,0,0,1,5.12-.841c.159,0,.317,0,.474.008l.017.066c2.067,7.873-.632,16-3.241,23.864q-.45,1.354-.885,2.688l-.087.266a9.885,9.885,0,0,0-.683,3.89,7.376,7.376,0,0,0,1.76,4.116,17.165,17.165,0,0,0,6.441,4.482,50.046,50.046,0,0,0,15.6,3.836,48.359,48.359,0,0,0,4.864.282c.829,0,1.631-.032,2.385-.095a4.236,4.236,0,0,0,3.714-2.977c2.549-1.306,2.748-5.048,2.831-6.6a42.188,42.188,0,0,0-.536-8.186c-.362-2.51-.875-5.18-1.566-8.163-.641-2.764-1.344-5.476-2.091-8.059-.175-.606-.365-1.217-.548-1.808a29.07,29.07,0,0,1-1.338-5.541c-.019-.178-.028-.343-.034-.5.07,0,.139-.007.206-.008h.092a15.484,15.484,0,0,1,2.058.2c.217.031.432.06.647.088a31.947,31.947,0,0,0,4.006.308,14.841,14.841,0,0,0,3.416-.364,7.973,7.973,0,0,0,5.361-4.069,8.3,8.3,0,0,0,2.511-3.364,18.126,18.126,0,0,0,1.223-6.7A14.184,14.184,0,0,0,4419.274,1539.943Z"/>
          <g id="Group_5605" data-name="Group 5605" clip-path="url(#clip-path-5)">
            <g id="Group_5604" data-name="Group 5604">
              <g id="Group_5603" data-name="Group 5603">
                <path id="Path_14126" data-name="Path 14126" d="M4415.341,1538.473s.1.068.39.255.4.239.4.239S4415.352,1538.473,4415.341,1538.473Z" fill="url(#linear-gradient-12)"/>
                <path id="Path_14127" data-name="Path 14127" d="M4418.414,1554.048a16.808,16.808,0,0,0,1.092-6.084,12.676,12.676,0,0,0-1.655-7.108,6.687,6.687,0,0,0-2.12-2.128,7.193,7.193,0,0,0-3.91-1.029,10.788,10.788,0,0,0-1.182.067c-1.16.129-2.283.464-3.427.679a63.689,63.689,0,0,1-10.706.978q-.835.014-1.673.013c-3.431,0-6.861-.166-10.283-.41-4.025-.286-8.026-.773-12.043-1.134-.707-.064-1.42-.1-2.133-.1a17.732,17.732,0,0,0-8.931,2.208,16.306,16.306,0,0,0-6.868,8.3,22.6,22.6,0,0,0-1.376,5.579,14.113,14.113,0,0,0,.258,5.759,5,5,0,0,0,2.929,3.39,5.459,5.459,0,0,0,1.907.325,8.811,8.811,0,0,0,3.4-.768,12.8,12.8,0,0,0,2.4-1.358c.772-.551,1.467-1.2,2.234-1.754a17.108,17.108,0,0,1,4.747-2.424,18.515,18.515,0,0,1,5.64-.923,13.193,13.193,0,0,1,4.7.81,6.862,6.862,0,0,1,1.423.7c-1.332-.071-2.663-.14-4-.171,2.441,9.3-1.317,18.747-4.153,27.5a9.15,9.15,0,0,0-.692,3.508,5.774,5.774,0,0,0,1.384,3.175,15.568,15.568,0,0,0,5.823,4.008,49.119,49.119,0,0,0,15.075,3.7c1.551.156,3.126.273,4.7.273.751,0,1.5-.027,2.245-.089,2.512-.21,2.782-3.5,2.885-5.452a40.4,40.4,0,0,0-.52-7.855c-.39-2.7-.925-5.37-1.54-8.024q-.93-4.009-2.069-7.971a44.651,44.651,0,0,1-1.944-7.645,4.968,4.968,0,0,1,.708-3.542,3.976,3.976,0,0,1,3.234-1.368h.117a23.106,23.106,0,0,1,2.92.3,30.014,30.014,0,0,0,3.791.294,13.227,13.227,0,0,0,3.03-.32A6.372,6.372,0,0,0,4418.414,1554.048Z" fill="url(#linear-gradient-13)"/>
              </g>
              <path id="Path_14128" data-name="Path 14128" d="M4396.9,1596.875c4.4.241,7.082.271,7.013-5.029a25.666,25.666,0,0,0-.34-3.885l.164-.042a21.763,21.763,0,0,1,1.019,3.864c.573,2.9-.44,6.767-4,6.758a6.027,6.027,0,0,1-3.924-1.512l.069-.154Z" fill="#fff"/>
              <path id="Path_14129" data-name="Path 14129" d="M4407.158,1540.85c3.966-3.265,9.335-2.519,10.66,2.917a13.505,13.505,0,0,1,.06,5.788c-.316-1.507-.568-2.981-.98-4.375-1.447-5.344-4.856-5.848-9.74-4.33Z" fill="#fff"/>
            </g>
          </g>
        </g>
      </g>
      <g id="Group_5611" data-name="Group 5611">
        <path id="Path_14131" data-name="Path 14131" d="M4789.737,1543.77a7.353,7.353,0,0,0-.716-.976,8.081,8.081,0,0,0-.734-.847,17.445,17.445,0,0,0-12.779-5.374h-.184a13.558,13.558,0,0,0-4.309.682,18.2,18.2,0,0,0-3.672,1.783,32.836,32.836,0,0,0-6.029,4.9,45.9,45.9,0,0,0-3.757,4.291,48.549,48.549,0,0,0-6.892,10.031,37.673,37.673,0,0,0-4.61,15.144,24.782,24.782,0,0,0,4.193,15.244,34.5,34.5,0,0,0,11.239,10.412c3.638,2.147,9.228,4.722,15.2,4.8l.254,0c3.046,0,5.29-.726,6.857-2.22a7.234,7.234,0,0,0,1.462-1.99,6.936,6.936,0,0,0,.651-.545c1.907-1.816,2.765-4.769,2.354-8.1-.188-1.529-.93-5.3-3.733-7.247a4.4,4.4,0,0,0-2.5-.836h-.082a5.964,5.964,0,0,0-1.9.432c-.176.063-.343.123-.487.164-.612.177-1.251.324-1.907.446a21.73,21.73,0,0,0,2.2-1.64,24.965,24.965,0,0,0,3.941-4.28,29.359,29.359,0,0,0,5.162-7.7,40.151,40.151,0,0,0,3.664-12.871C4793.017,1553.632,4792.8,1548.259,4789.737,1543.77Zm-28.245,30.646c-.012-.122-.022-.247-.03-.373a10.488,10.488,0,0,1,1.353-5.765,4.494,4.494,0,0,1,2.651-1.19c.068,0,.137,0,.205.009a1.891,1.891,0,0,1,1.587,2.166h0v.011h0a4.847,4.847,0,0,1-.756,2.184A13.822,13.822,0,0,1,4761.492,1574.416Z"/>
        <g id="Group_5610" data-name="Group 5610" clip-path="url(#clip-path-6)">
          <g id="Group_5609" data-name="Group 5609">
            <g id="Group_5608" data-name="Group 5608">
              <path id="Path_14132" data-name="Path 14132" d="M4787.2,1543.222s.132.169.5.63.506.628.507.628Z" fill="url(#linear-gradient)"/>
              <path id="Path_14133" data-name="Path 14133" d="M4787.695,1543.852a15.6,15.6,0,0,0-12.187-5.589h-.166a11.964,11.964,0,0,0-3.78.591,16.675,16.675,0,0,0-3.332,1.622,31.375,31.375,0,0,0-5.718,4.65,46.449,46.449,0,0,0-8.234,11.373,36.349,36.349,0,0,0-4.423,14.465,23.14,23.14,0,0,0,3.914,14.211,32.7,32.7,0,0,0,10.69,9.89c4.284,2.529,9.333,4.5,14.365,4.562l.232,0c2,0,4.2-.329,5.692-1.753,1.771-1.687,2.129-4.351,1.843-6.672-.266-2.159-1.154-4.767-3.021-6.067a2.736,2.736,0,0,0-1.537-.533h-.046a7.992,7.992,0,0,0-1.955.53,22.6,22.6,0,0,1-3.7.731,27.126,27.126,0,0,1-3.109.181,25.144,25.144,0,0,1-4.218-.351,16.22,16.22,0,0,1-5.711-1.907,7.467,7.467,0,0,1-1.959-1.681c.705.235,1.385.558,2.08.822a7.9,7.9,0,0,0,2.109.381q.907.079,1.82.079a21.7,21.7,0,0,0,3.191-.237,20.613,20.613,0,0,0,10.337-4.657,26.305,26.305,0,0,0,6.558-8.88,38.428,38.428,0,0,0,3.511-12.322C4791.423,1552.62,4790.718,1547.611,4787.695,1543.852Zm-16.649,23.2s0-.057.011-.213a8.62,8.62,0,0,1-2.657,5.118,15.475,15.475,0,0,1-6.4,4.074,9.2,9.2,0,0,1-2.86.591,4.237,4.237,0,0,1-.658-.049,8.936,8.936,0,0,0,1.4-.57c.192-.122.148-.069.1-.3-.036-.17-.069-.342-.1-.514-.054-.342-.091-.688-.113-1.034a12.108,12.108,0,0,1,.757-4.969,11.251,11.251,0,0,1,2.912-4.39,6.447,6.447,0,0,1,4.135-1.928c.118,0,.236.005.355.016a3.557,3.557,0,0,1,3.123,3.957c.01-.153.014-.209.014-.209Z" fill="url(#linear-gradient-2)"/>
            </g>
            <path id="Path_14134" data-name="Path 14134" d="M4775.969,1540.948a9.52,9.52,0,0,1,12.233,10.48,25.419,25.419,0,0,0-1.693-4.108c-2.043-3.987-6.261-5.756-10.54-6.372Z" fill="#fff"/>
            <path id="Path_14135" data-name="Path 14135" d="M4775.282,1587.933c.92-.258,1.723-.475,2.511-.758a12.336,12.336,0,0,1,3.961-1.066,3.383,3.383,0,0,1,3.1,2.979c-1.252-.89-2.169-1.7-3.6-1.281-.144.027-.432.1-.572.145-1.635.506-3.777.879-5.409-.019Z" fill="#fff"/>
          </g>
        </g>
      </g>
      <g id="Group_5615" data-name="Group 5615">
        <path id="Path_14137" data-name="Path 14137" d="M4761.037,1572.746a9.523,9.523,0,0,0-2.922-3.611l-.016-.012-.016-.012-.021-.016c-.047-.038-.089-.069-.123-.095v0l-.006-.005v0a7.493,7.493,0,0,0-1.158-.8,23.517,23.517,0,0,0-7.391-2.9,29.489,29.489,0,0,0-4.954-.638c-.521-.028-.99-.042-1.435-.042a15.071,15.071,0,0,0-3.434.356,12.853,12.853,0,0,0-7.6,5.617l-.029.043a17.016,17.016,0,0,0-2.084,2.492c-.357.516-.7,1.04-1.028,1.546-.4.616-.787,1.2-1.19,1.764a26.058,26.058,0,0,1,.02-5.188c.5-5.588,2.08-11.183,3.611-16.593l.2-.7c.173-.613.351-1.227.529-1.841a69.678,69.678,0,0,0,1.947-7.84l0-.035a8.7,8.7,0,0,0,.1-3.451c-.379-1.563-1.592-2.732-3.6-3.475a15.554,15.554,0,0,0-5.379-.871,27.345,27.345,0,0,0-5.045.512,21.607,21.607,0,0,0-8.46,3.237,7.2,7.2,0,0,0-2.173,2.583,8.512,8.512,0,0,0-2.74,3.922,23.184,23.184,0,0,0-1.249,4.987,54.717,54.717,0,0,0-.463,10.119,95.912,95.912,0,0,0,2.864,20.26c1.448,5.746,3.612,12.223,8.684,16.7a20.107,20.107,0,0,0,8.3,4.351,23,23,0,0,0,5.69.742,18.642,18.642,0,0,0,4.253-.477c5.454-1.282,10.926-4.728,16.265-10.243a48.082,48.082,0,0,0,3.5-4.028,40.871,40.871,0,0,0,4.595-6.149C4760.911,1579.891,4762.584,1576.28,4761.037,1572.746Z"/>
        <g id="Group_5614" data-name="Group 5614" clip-path="url(#clip-path-7)">
          <g id="Group_5613" data-name="Group 5613">
            <g id="Group_5612" data-name="Group 5612">
              <path id="Path_14138" data-name="Path 14138" d="M4757.135,1570.512s-.062-.048-.219-.167l.153.118Z" fill="url(#linear-gradient-16)"/>
              <path id="Path_14139" data-name="Path 14139" d="M4756.17,1569.784l.529.4c.073.053.145.106.217.161C4756.363,1569.928,4756.171,1569.784,4756.17,1569.784Z" fill="url(#linear-gradient-17)"/>
              <path id="Path_14140" data-name="Path 14140" d="M4751.877,1589.424a40.99,40.99,0,0,0,5.745-7.336c1.5-2.5,3.145-5.746,1.867-8.664a7.9,7.9,0,0,0-2.42-2.961l-.37-.279a20.838,20.838,0,0,0-7.685-3.236,28.29,28.29,0,0,0-4.675-.6c-.447-.024-.9-.039-1.344-.039a13.433,13.433,0,0,0-3.052.312,11.321,11.321,0,0,0-6.6,4.933c-.833,1.2-1.582,2.458-2.45,3.639s-1.782,2.292-2.722,3.4a40.823,40.823,0,0,1-5.295,5.448q.7-1.042,1.4-2.084.537-.8,1.071-1.6.315-.469.628-.941a2.5,2.5,0,0,0,.312-.473.686.686,0,0,0-.031-.4,24.015,24.015,0,0,1-.3-7.438c.533-5.99,2.239-11.843,3.867-17.606a90.018,90.018,0,0,0,2.436-9.5,7.528,7.528,0,0,0,.127-2.808,3.67,3.67,0,0,0-2.548-2.288,13.868,13.868,0,0,0-4.794-.767,26.012,26.012,0,0,0-4.734.483,20.114,20.114,0,0,0-7.8,2.96,6.792,6.792,0,0,0-2.2,3.2,21.821,21.821,0,0,0-1.153,4.629,53.612,53.612,0,0,0-.444,9.81,94.343,94.343,0,0,0,2.813,19.9c1.467,5.819,3.539,11.764,8.164,15.848a18.322,18.322,0,0,0,7.6,3.98,21.372,21.372,0,0,0,5.272.689,16.941,16.941,0,0,0,3.866-.432C4742.406,1597.8,4747.686,1593.753,4751.877,1589.424Z" fill="url(#linear-gradient-18)"/>
            </g>
            <path id="Path_14141" data-name="Path 14141" d="M4723.635,1539.593c2.187-.517,5.248-.514,6.863,1.4a2.607,2.607,0,0,1,.522,1.4,12.016,12.016,0,0,1-.954,5.688c-.5,1.394-1.008,2.777-1.54,4.157l-.163-.046c.264-1.455.589-2.9.87-4.341.364-1.932.857-3.765.125-5.534a3.685,3.685,0,0,0-1.655-1.145c-1.226-.538-2.637-.91-4.071-1.405l0-.169Z" fill="#fff"/>
            <path id="Path_14142" data-name="Path 14142" d="M4756.14,1571.608a7.39,7.39,0,0,1,1.46,5.445,11.38,11.38,0,0,1-.946,3.717,10.233,10.233,0,0,1-.873,1.687,32.686,32.686,0,0,1-6.019,7.042c-.381.364-.96.9-1.378,1.211-.842.643-2.017,1.662-2.891,2.246q-1.5,1.05-3,2.075l-.1-.137c1.822-1.539,3.732-3.117,5.422-4.81a17.164,17.164,0,0,0,1.267-1.28,38.751,38.751,0,0,0,3.447-4.11c.178-.277,1.039-1.616,1.194-1.863.288-.565.689-1.387.985-1.951l.326-.8a17.857,17.857,0,0,0,1.192-3.654c.04-.406.123-.863.158-1.27a8.838,8.838,0,0,0-.384-3.454l.139-.1Z" fill="#fff"/>
          </g>
        </g>
      </g>
      <g id="Group_5619" data-name="Group 5619">
        <path id="Path_14144" data-name="Path 14144" d="M4729.885,1572.746a9.509,9.509,0,0,0-2.922-3.611l-.016-.012-.015-.012-.022-.016c-.047-.038-.088-.069-.122-.095l0,0-.006-.005,0,0a7.566,7.566,0,0,0-1.158-.8,23.528,23.528,0,0,0-7.392-2.9,29.5,29.5,0,0,0-4.954-.638c-.52-.028-.989-.042-1.435-.042a15.075,15.075,0,0,0-3.434.356,12.856,12.856,0,0,0-7.6,5.617l-.028.043a16.955,16.955,0,0,0-2.084,2.492c-.357.516-.7,1.04-1.029,1.546-.4.616-.786,1.2-1.19,1.764a26.132,26.132,0,0,1,.02-5.188c.5-5.588,2.08-11.183,3.612-16.593l.2-.7q.259-.92.53-1.841a69.675,69.675,0,0,0,1.946-7.84l.006-.035a8.725,8.725,0,0,0,.1-3.451c-.38-1.563-1.593-2.732-3.6-3.475a15.549,15.549,0,0,0-5.379-.871,27.345,27.345,0,0,0-5.045.512,21.6,21.6,0,0,0-8.461,3.237,7.2,7.2,0,0,0-2.173,2.583,8.508,8.508,0,0,0-2.74,3.922,23.184,23.184,0,0,0-1.249,4.987,54.888,54.888,0,0,0-.463,10.119,95.945,95.945,0,0,0,2.865,20.26c1.448,5.746,3.612,12.223,8.683,16.7a20.1,20.1,0,0,0,8.3,4.351,23.008,23.008,0,0,0,5.691.742,18.643,18.643,0,0,0,4.252-.477c5.454-1.282,10.927-4.728,16.266-10.243a47.976,47.976,0,0,0,3.5-4.028,40.946,40.946,0,0,0,4.6-6.149C4729.76,1579.891,4731.433,1576.28,4729.885,1572.746Z"/>
        <g id="Group_5618" data-name="Group 5618" clip-path="url(#clip-path-8)">
          <g id="Group_5617" data-name="Group 5617">
            <g id="Group_5616" data-name="Group 5616">
              <path id="Path_14145" data-name="Path 14145" d="M4725.983,1570.512s-.061-.048-.219-.167c.052.039.1.078.153.118Z" fill="url(#linear-gradient-19)"/>
              <path id="Path_14146" data-name="Path 14146" d="M4725.019,1569.784l.528.4c.073.053.145.106.217.161C4725.212,1569.928,4725.02,1569.784,4725.019,1569.784Z" fill="url(#linear-gradient-20)"/>
              <path id="Path_14147" data-name="Path 14147" d="M4720.725,1589.424a41.018,41.018,0,0,0,5.746-7.336c1.5-2.5,3.144-5.746,1.866-8.664a7.9,7.9,0,0,0-2.42-2.961l-.37-.279a20.828,20.828,0,0,0-7.685-3.236,28.264,28.264,0,0,0-4.675-.6c-.446-.024-.9-.039-1.344-.039a13.42,13.42,0,0,0-3.051.312,11.327,11.327,0,0,0-6.6,4.933c-.833,1.2-1.582,2.458-2.45,3.639s-1.781,2.292-2.721,3.4a40.891,40.891,0,0,1-5.3,5.448q.7-1.042,1.4-2.084.536-.8,1.071-1.6c.209-.313.419-.626.627-.941a2.5,2.5,0,0,0,.312-.473.682.682,0,0,0-.03-.4,23.985,23.985,0,0,1-.3-7.438c.533-5.99,2.238-11.843,3.867-17.606a90.13,90.13,0,0,0,2.435-9.5,7.508,7.508,0,0,0,.127-2.808,3.672,3.672,0,0,0-2.548-2.288,13.859,13.859,0,0,0-4.793-.767,26.018,26.018,0,0,0-4.735.483,20.125,20.125,0,0,0-7.8,2.96,6.79,6.79,0,0,0-2.195,3.2,21.733,21.733,0,0,0-1.153,4.629,53.613,53.613,0,0,0-.445,9.81,94.408,94.408,0,0,0,2.814,19.9c1.466,5.819,3.539,11.764,8.163,15.848a18.334,18.334,0,0,0,7.6,3.98,21.369,21.369,0,0,0,5.271.689,16.942,16.942,0,0,0,3.866-.432C4711.254,1597.8,4716.534,1593.753,4720.725,1589.424Z" fill="url(#linear-gradient-18)"/>
            </g>
            <path id="Path_14148" data-name="Path 14148" d="M4692.483,1539.593c2.188-.517,5.248-.514,6.863,1.4a2.6,2.6,0,0,1,.523,1.4,12.034,12.034,0,0,1-.954,5.688c-.506,1.394-1.009,2.777-1.541,4.157l-.162-.046c.264-1.455.588-2.9.869-4.341.364-1.932.857-3.765.126-5.534a3.687,3.687,0,0,0-1.656-1.145c-1.225-.538-2.637-.91-4.071-1.405l0-.169Z" fill="#fff"/>
            <path id="Path_14149" data-name="Path 14149" d="M4724.988,1571.608a7.39,7.39,0,0,1,1.46,5.445,11.391,11.391,0,0,1-.945,3.717,10.237,10.237,0,0,1-.874,1.687,32.67,32.67,0,0,1-6.018,7.042c-.382.364-.96.9-1.379,1.211-.842.643-2.017,1.662-2.89,2.246q-1.5,1.05-3,2.075l-.1-.137c1.822-1.539,3.732-3.117,5.422-4.81a17.259,17.259,0,0,0,1.267-1.28,38.878,38.878,0,0,0,3.448-4.11c.177-.277,1.039-1.616,1.193-1.863.289-.565.69-1.387.985-1.951l.327-.8a17.949,17.949,0,0,0,1.192-3.654c.039-.406.123-.863.157-1.27a8.82,8.82,0,0,0-.384-3.454l.139-.1Z" fill="#fff"/>
          </g>
        </g>
      </g>
      <g id="Group_5623" data-name="Group 5623">
        <path id="Path_14151" data-name="Path 14151" d="M4683.466,1561.555c-.443-1.366-.967-2.777-1.561-4.2-.088-.219-.2-.473-.329-.777-.449-1.041-.472-1.092-.519-1.174-3.177-7.03-6.854-12.213-11.217-15.82a19.994,19.994,0,0,0-9.934-4.6,16.973,16.973,0,0,0-2.252-.15,20.907,20.907,0,0,0-8.9,2.138,22.656,22.656,0,0,0-6.741,4.511,17.659,17.659,0,0,0-1.908,2.336c-.067.067-.139.131-.205.2a20.2,20.2,0,0,0-5.025,9.425c-1.491,6.147-1.007,13.3,1.48,21.871a66.131,66.131,0,0,0,9.019,19.583,22.682,22.682,0,0,0,7.818,7.287,14.14,14.14,0,0,0,6.513,1.679,11.384,11.384,0,0,0,4.647-.968,11.14,11.14,0,0,0,4.965-4.383,10.6,10.6,0,0,0,3.494-6.177,4.364,4.364,0,0,0,5.351,1.292,5.3,5.3,0,0,0,2.189-2.309c.073-.127.144-.258.214-.388a5.631,5.631,0,0,0,1.9-2.147,20.77,20.77,0,0,0,2.025-5.127A39.032,39.032,0,0,0,4683.466,1561.555Zm-14.543,8.735a3.346,3.346,0,0,1-2.374-.952,4.847,4.847,0,0,1-.92-3.546c0-.108.012-.219.019-.329a11.051,11.051,0,0,1,2.987,3.19,4.284,4.284,0,0,1,.588,1.623C4669.108,1570.286,4669,1570.29,4668.923,1570.29Z"/>
        <g id="Group_5622" data-name="Group 5622" clip-path="url(#clip-path-9)">
          <g id="Group_5621" data-name="Group 5621">
            <g id="Group_5620" data-name="Group 5620">
              <path id="Path_14152" data-name="Path 14152" d="M4679.592,1556.242l.431,1,.433,1Z" fill="url(#linear-gradient-22)"/>
              <path id="Path_14153" data-name="Path 14153" d="M4675.2,1581.744c.151,1.461.207,2.927.249,4.394a3.7,3.7,0,0,0,1.778,3.418,2.684,2.684,0,0,0,1.165.264,2.622,2.622,0,0,0,1.144-.258,3.834,3.834,0,0,0,1.462-1.632,19.488,19.488,0,0,0,1.856-4.719,37.623,37.623,0,0,0-1-21.135c-.532-1.64-1.151-3.252-1.835-4.834-2.611-6.049-6.118-12.11-11.26-16.359a18.251,18.251,0,0,0-9.083-4.232,15.2,15.2,0,0,0-2.026-.135,19.319,19.319,0,0,0-8.181,1.977,21.37,21.37,0,0,0-6.254,4.164,18.5,18.5,0,0,0-4.59,8.641c-1.667,6.874-.48,14.313,1.461,21a64.839,64.839,0,0,0,8.779,19.084,21.219,21.219,0,0,0,7.219,6.76,12.447,12.447,0,0,0,5.728,1.486,9.7,9.7,0,0,0,3.963-.823,9.386,9.386,0,0,0,5.133-5.779c.964-3.208.063-6.733-1.006-9.788-.288-.822-.5-1.665-.736-2.5a14.134,14.134,0,0,1-.5-2.155c-.186-1.575.5-3.107,2.222-3.336a3.438,3.438,0,0,1,.455-.031C4674.334,1575.215,4674.964,1579.443,4675.2,1581.744Zm-2.383-12.263-.171.384s.022-.052.084-.193a3.987,3.987,0,0,1-3.808,2.308,5.007,5.007,0,0,1-3.6-1.482,6.493,6.493,0,0,1-1.38-4.765,16.175,16.175,0,0,1,.323-2.6c.081-.4.175-.8.278-1.2a8.184,8.184,0,0,0,.345-1.2c.013-.137.056-.077-.021-.184s-.306-.179-.418-.242c-.22-.124-.443-.243-.667-.358-.389-.2-.785-.383-1.187-.552a13.307,13.307,0,0,0-1.709-.6c.1,0,.205-.006.307-.006a12.909,12.909,0,0,1,6.112,1.839,13.465,13.465,0,0,1,4.9,4.634,4.882,4.882,0,0,1,.531,4.417C4672.794,1569.532,4672.818,1569.481,4672.818,1569.481Z" fill="url(#linear-gradient-23)"/>
            </g>
            <path id="Path_14154" data-name="Path 14154" d="M4658.1,1538.354c6.186-1.145,12.14,4.427,14.913,9.457.393.792.787,1.576,1.11,2.394-1.229-1.24-2.351-2.532-3.54-3.784-3.5-3.547-7.44-7.107-12.483-8.067Z" fill="#fff"/>
            <path id="Path_14155" data-name="Path 14155" d="M4667.423,1576.76c-.563,1.518.039,3,.442,4.473.455,1.479.974,2.972,1.368,4.533.752,2.916,1.364,7.4-1.81,9.146a5.812,5.812,0,0,0,1.057-4.259c-.1-3.545-3.751-11.148-1.057-13.893Z" fill="#fff"/>
            <path id="Path_14156" data-name="Path 14156" d="M4678.529,1588.3a50.925,50.925,0,0,0,2.442-14.05c.052-.7.02-1.387.1-2.112,2.263,5.146,1.341,12.026-2.545,16.162Z" fill="#fff"/>
            <path id="Path_14157" data-name="Path 14157" d="M4663.185,1560.492a11.153,11.153,0,0,1-.434,4.437,9.343,9.343,0,0,0,.432,4.37l-.148.083a7.938,7.938,0,0,1-1.581-3.877,7.261,7.261,0,0,1,.1-3.066,4.146,4.146,0,0,1,1.482-2.022l.152.075Z" fill="#fff"/>
          </g>
        </g>
      </g>
      <g id="Group_5625" data-name="Group 5625">
        <path id="Path_14159" data-name="Path 14159" d="M4643.307,1555.2c-.074-.643-.165-1.213-.28-1.743l-.01-.07a2.816,2.816,0,0,0-.128-.517c-.011-.036-.023-.08-.039-.129l-.029-.1c-1.05-3.737-4.779-5.8-10.5-5.8a25.66,25.66,0,0,0-2.826.16,25.087,25.087,0,0,0-3.863.732c-.6.166-1.137.338-1.629.526a10.15,10.15,0,0,0-.963.421l-.033.015a2.315,2.315,0,0,0-1.215,1.075,2.152,2.152,0,0,0-.175,1.133c-.256.1-.48.206-.69.312l-.033.015a2.314,2.314,0,0,0-1.215,1.075,2.379,2.379,0,0,0-.145,1.389l0,.041.013.4.015.45q.015.471.035.942c.143,3.428.3,6.822.444,9.69l.147,3.027.048.97-.132.009c-.212.014-.424.035-.637.056-.329.032-.639.063-.916.063a2.6,2.6,0,0,1-.291-.014.958.958,0,0,1-.71-.364,2.249,2.249,0,0,1-.108-.3c-.033-.1-.065-.2-.1-.307-.084-.237-.207-.612-.279-.875-.521-1.9-1.062-3.781-1.476-5.206-.712-2.455-1.446-4.947-2.156-7.356l-.652-2.216c-.113-.383-.224-.767-.336-1.15-.5-1.716-1.018-3.49-1.609-5.227a26.728,26.728,0,0,0-4.659-8.826,13.191,13.191,0,0,0-9.449-4.492c-.439-.027-.893-.04-1.349-.04a43.161,43.161,0,0,0-9.443,1.346,84.64,84.64,0,0,0-10.375,2.879,23.251,23.251,0,0,0-4.837,2.3,7.491,7.491,0,0,0-2.837,3.045,5.757,5.757,0,0,0-2.519,4.305c-.067,2.2,1.2,4.018,2.214,5.48l.022.031c.487.7.991,1.377,1.425,1.955,2.723,3.626,5.858,7.862,8.611,12.247A181.729,181.729,0,0,1,4587.6,1585c1.588,3.312,3.16,6.76,4.548,9.8l.193.424c.667,1.464,1.356,2.977,2.133,4.443l.1.191c.707,1.344,1.776,3.374,3.93,3.838a7.576,7.576,0,0,0,1.61.156c.483,0,.944-.032,1.391-.063.19-.013.379-.026.567-.036q.65-.034,1.3-.065l.612-.03c.384-.019.768-.036,1.152-.054a63.562,63.562,0,0,0,8.016-.717,12.2,12.2,0,0,0,2.67-.715,4,4,0,0,0,1.374-.853,2.666,2.666,0,0,0,.586-1.049c.032-.2.053-.4.07-.6.027-.011.055-.019.082-.03a4.009,4.009,0,0,0,1.374-.853,2.644,2.644,0,0,0,.586-1.049,14.671,14.671,0,0,0-.06-3.844c-.028-.266-.057-.529-.08-.787l-.071-.767c-.124-1.348-.252-2.741-.334-4.1a36.237,36.237,0,0,1-.034-4.848,12.78,12.78,0,0,1,.319-2.129,2.106,2.106,0,0,1,.355-.034,1.928,1.928,0,0,1,1.61.852,10.026,10.026,0,0,1,1.29,3.8c.24,1.275.427,2.6.607,3.882q.081.573.163,1.146l.07.492a19.507,19.507,0,0,0,1.08,4.7l.021.05a2.79,2.79,0,0,0,2.1,1.95,15.435,15.435,0,0,0,2.346.176l.239,0a14.732,14.732,0,0,0,5.386-.983l.064-.025a2.465,2.465,0,0,0,1.344-1.051,2.312,2.312,0,0,0,.26-.763l0-.02c.046-.185.09-.373.135-.561.1-.038.206-.074.306-.115l.063-.025a2.461,2.461,0,0,0,1.345-1.051,2.34,2.34,0,0,0,.26-.763l0-.02q.126-.5.244-1.015c1.1-4.754,2.066-9.893,2.95-15.711.611-4.018,1.022-7.325,1.294-10.408A52.853,52.853,0,0,0,4643.307,1555.2Z"/>
        <g id="Group_5624" data-name="Group 5624">
          <path id="Path_14160" data-name="Path 14160" d="M4624.144,1568.645h0c0-.024,0-.048-.007-.072Z" fill="url(#linear-gradient-24)"/>
          <path id="Path_14161" data-name="Path 14161" d="M4641.488,1565.615a50.761,50.761,0,0,0,.14-10.225,14.087,14.087,0,0,0-.431-2.29c-1.033-3.672-5.245-4.575-8.873-4.575a23.981,23.981,0,0,0-2.639.15,23.482,23.482,0,0,0-3.6.681c-.5.137-.989.291-1.471.475a8.513,8.513,0,0,0-.8.35c-.122.062-.426.182-.485.307a1.851,1.851,0,0,0,.02.606c.01.3.02.593.029.889s.023.619.036.929q.2,4.839.442,9.677.149,3.029.295,6.056c.111,1.354-1.456,1.968-2.547,2.136-.453.069-.912.086-1.368.118-.554.038-1.113.123-1.67.123a4.571,4.571,0,0,1-.467-.023,2.6,2.6,0,0,1-1.948-1.12,4.206,4.206,0,0,1-.389-.97c-.087-.244-.227-.668-.316-.992-.474-1.732-.969-3.458-1.469-5.182-.926-3.192-1.869-6.378-2.806-9.567-.62-2.108-1.216-4.228-1.924-6.309a24.7,24.7,0,0,0-4.339-8.266,11.5,11.5,0,0,0-8.271-3.909q-.624-.037-1.247-.037a41.478,41.478,0,0,0-9.069,1.305,84.065,84.065,0,0,0-10.172,2.819,21.321,21.321,0,0,0-4.484,2.124c-1.206.794-2.438,1.906-2.485,3.454-.05,1.654,1.033,3.2,1.935,4.5.449.646.917,1.276,1.389,1.905,3.028,4.032,6.008,8.088,8.69,12.362a186.48,186.48,0,0,1,10.047,18.625c1.562,3.257,3.063,6.543,4.562,9.83.732,1.6,1.456,3.217,2.282,4.776.636,1.2,1.434,2.855,2.893,3.169a5.967,5.967,0,0,0,1.255.118c.624,0,1.255-.064,1.867-.1.64-.034,1.28-.063,1.92-.095a72.562,72.562,0,0,0,8.96-.748,10.613,10.613,0,0,0,2.3-.607,2.52,2.52,0,0,0,.822-.478c.03-.03.1-.149.121-.149,0,0,.006.005,0,.018a17.516,17.516,0,0,0-.154-4.214c-.149-1.639-.31-3.277-.409-4.92a37.434,37.434,0,0,1-.032-5.079,9.458,9.458,0,0,1,1.236-4.488A3.88,3.88,0,0,1,4622.1,1577a3.615,3.615,0,0,1,2.992,1.57,11.374,11.374,0,0,1,1.568,4.461c.318,1.69.536,3.4.782,5.1a20.326,20.326,0,0,0,1.041,4.793c.167.407.35.9.813.972a13.775,13.775,0,0,0,2.088.156h.215a13.231,13.231,0,0,0,4.768-.857c.2-.081.477-.164.581-.346a1.442,1.442,0,0,0,.088-.338c.084-.335.165-.672.243-1.008,1.192-5.147,2.132-10.362,2.925-15.583C4640.726,1572.5,4641.183,1569.061,4641.488,1565.615Z" fill="url(#linear-gradient-10)"/>
          <path id="Path_14162" data-name="Path 14162" d="M4641.185,1553.057l.012.043c.108.38.145.509.146.508Z" fill="url(#linear-gradient-26)"/>
        </g>
        <path id="Path_14163" data-name="Path 14163" d="M4592.081,1536.819c5.8-2.4,13.236.894,13.421,7.643a18.317,18.317,0,0,0-2.344-3.449c-2.8-3.138-7.022-3.894-11.077-4.194Z" fill="#fff"/>
        <path id="Path_14164" data-name="Path 14164" d="M4633.352,1550.5a4.5,4.5,0,0,1,6,1.374,7.075,7.075,0,0,1,.657,6.228c-.349-1-.6-1.954-.9-2.85-.927-2.969-2.584-4.471-5.757-4.752Z" fill="#fff"/>
        <path id="Path_14165" data-name="Path 14165" d="M4610.689,1597.813c1.6-.743,3.275-.942,4.762-1.722.138-.091.134-.092.193-.2a6.869,6.869,0,0,0,.036-2.562,18,18,0,0,1-.09-3.121c.916,1.842,3.037,5.714.791,7.291a7.31,7.31,0,0,1-5.692.311Z" fill="#fff"/>
        <path id="Path_14166" data-name="Path 14166" d="M4630.689,1592.42c1.158-.67,2.311-.9,3.437-1.428a.884.884,0,0,0,.219-.166c.788-.862.926-2.538,1.493-3.713.715,1.718.962,4.3-.931,5.37a5.225,5.225,0,0,1-4.218-.063Z" fill="#fff"/>
      </g>
      <g id="Group_5629" data-name="Group 5629">
        <path id="Path_14167" data-name="Path 14167" d="M4600.391,1587.916a9.068,9.068,0,0,0-1.36-4.1,4.347,4.347,0,0,0-.551-.718l-.014-.016,0,0a11.563,11.563,0,0,0-2.322-1.856,7.76,7.76,0,0,0-3.828-1.39c-.066,0-.133,0-.2,0a7.906,7.906,0,0,0-3.539,1.025c-.306.152-.609.309-.913.466-.642.332-1.248.646-1.867.908a7.408,7.408,0,0,1-2.946.617,8.282,8.282,0,0,1-2.3-.343,15.672,15.672,0,0,1-5.023-2.636,20.3,20.3,0,0,1-7.02-9.291,11.1,11.1,0,0,1-.638-4.361h0a16.667,16.667,0,0,0,11.2,4.666,12.039,12.039,0,0,0,5.9-1.477,19.056,19.056,0,0,0,7.33-11.115,15.4,15.4,0,0,0-3.461-9.569,32.574,32.574,0,0,0-16.117-11.024,28.538,28.538,0,0,0-8.38-1.341,17.261,17.261,0,0,0-10.9,3.413,14.059,14.059,0,0,0-3.113,3.406,15.043,15.043,0,0,0-4.03,6.717,17.373,17.373,0,0,0,0,8.474,41.593,41.593,0,0,0,3.455,9.662,75.016,75.016,0,0,0,5.065,8.782,93.9,93.9,0,0,0,13.03,15.609c2.675,2.571,5.475,4.417,7.838,6.548,2.893,2.61,6.316,5.293,9.495,4.627.836-.175,1.676.262,2.5.262a9.856,9.856,0,0,0,7.465-3.23,11.51,11.51,0,0,0,1.247-1.687,9.43,9.43,0,0,0,.865-.848A13.483,13.483,0,0,0,4600.391,1587.916Z"/>
        <g id="Group_5628" data-name="Group 5628" clip-path="url(#clip-path-10)">
          <g id="Group_5627" data-name="Group 5627">
            <g id="Group_5626" data-name="Group 5626">
              <path id="Path_14168" data-name="Path 14168" d="M4597.214,1584.218l.061.071.283.32S4597.473,1584.511,4597.214,1584.218Z" fill="url(#linear-gradient-27)"/>
              <path id="Path_14169" data-name="Path 14169" d="M4598.711,1588.1a7.025,7.025,0,0,0-1.436-3.807l-.066-.076a9.971,9.971,0,0,0-1.984-1.569,6.087,6.087,0,0,0-2.977-1.123l-.135,0a6.36,6.36,0,0,0-2.786.848c-.957.476-1.888,1-2.873,1.417a9.144,9.144,0,0,1-3.606.751,9.912,9.912,0,0,1-2.771-.41,17.405,17.405,0,0,1-5.572-2.911,22.047,22.047,0,0,1-7.6-10.087,12.184,12.184,0,0,1-.583-6.209,9.572,9.572,0,0,1,.885-2.6q.123-.24.261-.471c.057-.1.282-.351.286-.458.006-.136-.288-.44-.366-.568-.164-.267-.321-.539-.473-.813a23.117,23.117,0,0,1-2.452-6.941,18.851,18.851,0,0,1-.385-4.743,33.816,33.816,0,0,0,1.873,6.032,23.166,23.166,0,0,0,5.195,8.1,15.038,15.038,0,0,0,10.031,4.2,10.4,10.4,0,0,0,5.078-1.266,8.412,8.412,0,0,0,4.347-7.15,13.805,13.805,0,0,0-3.123-8.505,30.751,30.751,0,0,0-15.27-10.426,26.768,26.768,0,0,0-7.877-1.264,15.766,15.766,0,0,0-9.862,3.056,13.116,13.116,0,0,0-4.449,6.732,16,16,0,0,0,.035,7.653,40.061,40.061,0,0,0,3.321,9.268,73.169,73.169,0,0,0,4.95,8.583,92.311,92.311,0,0,0,12.8,15.328,65.915,65.915,0,0,0,7.641,6.386,24.571,24.571,0,0,0,8.864,4.352,10.619,10.619,0,0,0,2.152.227,8.132,8.132,0,0,0,6.207-2.667A11.732,11.732,0,0,0,4598.711,1588.1Z" fill="url(#linear-gradient-28)"/>
            </g>
            <path id="Path_14170" data-name="Path 14170" d="M4565.306,1539.536c6.6-.571,13.765,2.268,17.6,7.8,1.2,2.107,1.321,2.2-.5.428-4.841-4.287-10.915-6.569-17.1-8.228Z" fill="#fff"/>
            <path id="Path_14171" data-name="Path 14171" d="M4566.52,1560.682a11.133,11.133,0,0,1-1.4,4.231,9.37,9.37,0,0,0-.545,4.358l-.161.048a7.928,7.928,0,0,1-.686-4.13,7.245,7.245,0,0,1,.772-2.969,4.136,4.136,0,0,1,1.893-1.645l.131.107Z" fill="#fff"/>
            <path id="Path_14172" data-name="Path 14172" d="M4586.851,1585.818c2.232-3.557,7.277-4.66,9.32-.318.669,1.361-.364.153-.938-.076-3.051-2.109-5.269-.583-8.382.394Z" fill="#fff"/>
          </g>
        </g>
      </g>
    </g>
  </g>
</svg>
