<svg xmlns="http://www.w3.org/2000/svg" xmlns:xlink="http://www.w3.org/1999/xlink" width="270.029" height="128.624" viewBox="0 0 270.029 128.624">
  <defs>
    <clipPath id="clip-path">
      <path id="Path_19560" data-name="Path 19560" d="M2047.407,2168.025a4.9,4.9,0,0,0-.484-.661,5.547,5.547,0,0,0-.5-.573,11.8,11.8,0,0,0-8.646-3.636h-.124a9.205,9.205,0,0,0-2.916.461,12.333,12.333,0,0,0-2.484,1.206,22.252,22.252,0,0,0-4.08,3.313,31.251,31.251,0,0,0-2.542,2.9,32.843,32.843,0,0,0-4.663,6.786,25.514,25.514,0,0,0-3.119,10.247,16.772,16.772,0,0,0,2.837,10.314,23.333,23.333,0,0,0,7.6,7.044,21.6,21.6,0,0,0,10.286,3.246h.171a6.429,6.429,0,0,0,4.64-1.5,4.9,4.9,0,0,0,.989-1.347,4.566,4.566,0,0,0,.441-.368,6.37,6.37,0,0,0,1.592-5.482c-.127-1.035-.629-3.583-2.525-4.9a2.98,2.98,0,0,0-1.693-.566h-.056a4.023,4.023,0,0,0-1.286.292c-.119.043-.232.083-.329.111-.414.12-.847.219-1.291.3a14.576,14.576,0,0,0,1.489-1.109,16.9,16.9,0,0,0,2.666-2.9,19.849,19.849,0,0,0,3.492-5.209,27.155,27.155,0,0,0,2.48-8.708A13.952,13.952,0,0,0,2047.407,2168.025Zm-19.11,20.735c-.009-.083-.015-.167-.021-.253a7.1,7.1,0,0,1,.916-3.9,3.045,3.045,0,0,1,1.793-.8,1.251,1.251,0,0,1,.139.007,1.279,1.279,0,0,1,1.074,1.465h0v.007h0a3.265,3.265,0,0,1-.512,1.478A9.353,9.353,0,0,1,2028.3,2188.76Z"/>
    </clipPath>
    <linearGradient id="linear-gradient" x1="0.5" y1="-5.187" x2="0.5" y2="27.067" gradientUnits="objectBoundingBox">
      <stop offset="0" stop-color="#00ffd5"/>
      <stop offset="1" stop-color="#01cb2d"/>
    </linearGradient>
    <linearGradient id="linear-gradient-2" x1="0.5" y1="-0.025" x2="0.5" y2="0.635" xlink:href="#linear-gradient"/>
    <clipPath id="clip-path-2">
      <path id="Path_19569" data-name="Path 19569" d="M2020.256,2188.906a8.51,8.51,0,0,0,3.585-3.169,11.258,11.258,0,0,0,3.2-8.841,17.533,17.533,0,0,0-3.755-9.89,2.555,2.555,0,0,0-.313-.407l-.363-.411-.362-.41a2.56,2.56,0,0,0-.355-.351,19.39,19.39,0,0,0-13.627-5.584l-.355,0a17.163,17.163,0,0,0-7.978,2.175,20.508,20.508,0,0,0-5.977,5.156c-.147.183-.289.371-.431.559-.34.372-.675.753-1,1.157a29.275,29.275,0,0,0-6.04,15.18c-.659,5.931.291,11.02,2.823,15.127a20.233,20.233,0,0,0,12.577,8.9,22.076,22.076,0,0,0,5.038.578,20.814,20.814,0,0,0,11.653-3.436,10.252,10.252,0,0,0,2.89-2.891,7.768,7.768,0,0,0,2.627-5.886C2024,2192.969,2021.653,2190.233,2020.256,2188.906Zm-21.336,1.34a7.141,7.141,0,0,1-.165-3.363,11.481,11.481,0,0,1,1.355-4.016,6.19,6.19,0,0,1,1.677-1l.187-.074c.413.525.838,1.043,1.279,1.548a24.76,24.76,0,0,0,2.858,2.8,20.6,20.6,0,0,0-2.071.7A12.683,12.683,0,0,0,1998.92,2190.246Z"/>
    </clipPath>
    <linearGradient id="linear-gradient-3" x1="0.5" y1="-5.234" x2="0.5" y2="17.828" xlink:href="#linear-gradient"/>
    <linearGradient id="linear-gradient-4" x1="0.5" y1="-0.019" x2="0.5" y2="0.593" xlink:href="#linear-gradient"/>
    <clipPath id="clip-path-3">
      <path id="Path_19577" data-name="Path 19577" d="M1992.611,2175.286c-.073-.332-.153-.662-.236-.987a5.5,5.5,0,0,0-.149-.558q-.019-.07-.042-.144l-.019-.065a17.305,17.305,0,0,0-5.421-8.579,11.406,11.406,0,0,0-5.186-2.57,7.986,7.986,0,0,0-1.437-.13,7.6,7.6,0,0,0-4.462,1.42,9.918,9.918,0,0,0-2.447,2.567,10.537,10.537,0,0,0-1.466,1.773c-.076-.062-.148-.112-.2-.15l-.029-.02c-.142-.112-.284-.222-.428-.331a25.2,25.2,0,0,0-2.139-1.453,13.58,13.58,0,0,0-6.887-2.234,7.507,7.507,0,0,0-3.948,1.072,9.1,9.1,0,0,0-2.836,2.8c-2.36,2.241-3.358,5.66-3.913,8.2a43.676,43.676,0,0,0-.769,11.761c.117,2.137.364,4.2.59,5.946a47.2,47.2,0,0,0,1.062,5.808,14.98,14.98,0,0,0,2.216,5.251,6.348,6.348,0,0,0,2.2,1.92,7.145,7.145,0,0,0,1.432.516,8,8,0,0,0,2.069.337,4.079,4.079,0,0,0,.995-.118,2.375,2.375,0,0,0,1.757-1.824,2.631,2.631,0,0,0,1.556-2.644,10.193,10.193,0,0,0-.232-2.235,20.515,20.515,0,0,0,8.438,7.065,12.932,12.932,0,0,0,7.382.766,11.2,11.2,0,0,0,6.177-3.392,15.492,15.492,0,0,0,1.294-1.582c.045-.046.092-.087.135-.133,2.764-2.938,4.53-7.218,5.4-13.085A41.753,41.753,0,0,0,1992.611,2175.286Z"/>
    </clipPath>
    <linearGradient id="linear-gradient-5" x1="0.501" y1="-6.767" x2="0.501" y2="29.951" xlink:href="#linear-gradient"/>
    <linearGradient id="linear-gradient-6" x1="0.5" y1="0.119" x2="0.5" y2="0.789" xlink:href="#linear-gradient"/>
    <clipPath id="clip-path-4">
      <path id="Path_19583" data-name="Path 19583" d="M1960.433,2101.714a5.014,5.014,0,0,0-.484-.661,5.418,5.418,0,0,0-.5-.572,11.8,11.8,0,0,0-8.646-3.637h-.124a9.205,9.205,0,0,0-2.916.461,12.364,12.364,0,0,0-2.485,1.206,22.28,22.28,0,0,0-4.079,3.313,31.251,31.251,0,0,0-2.542,2.9,32.851,32.851,0,0,0-4.663,6.787,25.508,25.508,0,0,0-3.119,10.246,16.772,16.772,0,0,0,2.837,10.314,23.345,23.345,0,0,0,7.6,7.045,21.609,21.609,0,0,0,10.287,3.245h.171a6.424,6.424,0,0,0,4.64-1.5,4.9,4.9,0,0,0,.989-1.346,4.693,4.693,0,0,0,.44-.369,6.366,6.366,0,0,0,1.593-5.482c-.127-1.035-.629-3.583-2.526-4.9a2.975,2.975,0,0,0-1.692-.566h-.056a4.023,4.023,0,0,0-1.286.292c-.119.043-.232.083-.33.111-.413.12-.846.219-1.29.3a14.871,14.871,0,0,0,1.489-1.109,16.946,16.946,0,0,0,2.666-2.9,19.813,19.813,0,0,0,3.492-5.209,27.154,27.154,0,0,0,2.48-8.708A13.951,13.951,0,0,0,1960.433,2101.714Zm-19.11,20.735q-.014-.125-.021-.252a7.086,7.086,0,0,1,.916-3.9,3.04,3.04,0,0,1,1.793-.8c.047,0,.093,0,.139.006a1.279,1.279,0,0,1,1.074,1.465h0v.008h0a3.261,3.261,0,0,1-.512,1.477A9.358,9.358,0,0,1,1941.323,2122.449Z"/>
    </clipPath>
    <linearGradient id="linear-gradient-7" x1="0.499" y1="-5.185" x2="0.499" y2="27.06" xlink:href="#linear-gradient"/>
    <linearGradient id="linear-gradient-9" x1="0.59" y1="-397.448" x2="0.59" y2="185.444" xlink:href="#linear-gradient"/>
    <linearGradient id="linear-gradient-10" x1="0.5" y1="0.081" x2="0.5" y2="0.728" xlink:href="#linear-gradient"/>
    <linearGradient id="linear-gradient-11" x1="0.497" y1="-23.881" x2="0.497" y2="52.414" xlink:href="#linear-gradient"/>
    <clipPath id="clip-path-5">
      <path id="Path_19597" data-name="Path 19597" d="M1900.357,2099.125a5.78,5.78,0,0,0-1.348-1.488,2.89,2.89,0,0,0-.437-.312,2.618,2.618,0,0,0-.539-.289,6.214,6.214,0,0,0-2.719-.573,8.373,8.373,0,0,0-.925.052,14.046,14.046,0,0,0-1.594.3c-.281.064-.546.124-.81.174a42,42,0,0,1-7.051.642q-.556.009-1.113.009c-2.06,0-4.245-.087-6.877-.274-1.658-.118-3.346-.291-4.978-.458-1.031-.1-2.1-.214-3.149-.308-.519-.047-1.039-.071-1.545-.071a13.007,13.007,0,0,0-6.616,1.648,11.585,11.585,0,0,0-3.695,3.465,12.86,12.86,0,0,0-2.874,4.443,16.367,16.367,0,0,0-1,4.058,10.634,10.634,0,0,0,.217,4.363,4.478,4.478,0,0,0,2.679,3.032,4.847,4.847,0,0,0,1.687.291,7.018,7.018,0,0,0,2.751-.612,9.865,9.865,0,0,0,1.836-1.04c.3-.214.573-.438.838-.655.234-.192.455-.374.68-.537a10.4,10.4,0,0,1,2.893-1.478,11.42,11.42,0,0,1,3.464-.569c.108,0,.214,0,.32.006l.012.045c1.4,5.326-.427,10.827-2.193,16.146-.2.611-.4,1.217-.6,1.818l-.058.18a6.662,6.662,0,0,0-.462,2.632,4.977,4.977,0,0,0,1.19,2.785,11.624,11.624,0,0,0,4.358,3.033,33.885,33.885,0,0,0,10.554,2.595,32.734,32.734,0,0,0,3.29.191c.561,0,1.1-.022,1.615-.064a2.867,2.867,0,0,0,2.512-2.014c1.725-.884,1.86-3.416,1.916-4.469a28.582,28.582,0,0,0-.363-5.539c-.245-1.7-.592-3.505-1.06-5.523-.433-1.87-.909-3.705-1.414-5.453-.119-.41-.247-.823-.371-1.223a19.726,19.726,0,0,1-.906-3.749c-.012-.12-.019-.232-.023-.341l.14-.006h.062a10.278,10.278,0,0,1,1.393.133l.438.059a21.556,21.556,0,0,0,2.71.209,10.018,10.018,0,0,0,2.311-.247,5.392,5.392,0,0,0,3.627-2.753,5.605,5.605,0,0,0,1.7-2.276,12.26,12.26,0,0,0,.828-4.536A9.593,9.593,0,0,0,1900.357,2099.125Z"/>
    </clipPath>
    <linearGradient id="linear-gradient-12" x1="0.5" y1="2.115" x2="0.5" y2="83.115" xlink:href="#linear-gradient"/>
    <linearGradient id="linear-gradient-13" x1="0.5" y1="0.029" x2="0.5" y2="0.675" xlink:href="#linear-gradient"/>
    <clipPath id="clip-path-6">
      <path id="Path_19603" data-name="Path 19603" d="M1958.846,2168.025a4.923,4.923,0,0,0-.485-.661,5.439,5.439,0,0,0-.5-.573,11.8,11.8,0,0,0-8.646-3.636h-.125a9.2,9.2,0,0,0-2.915.461,12.339,12.339,0,0,0-2.485,1.206,22.248,22.248,0,0,0-4.079,3.313,30.966,30.966,0,0,0-2.542,2.9,32.8,32.8,0,0,0-4.663,6.786,25.5,25.5,0,0,0-3.119,10.247,16.765,16.765,0,0,0,2.837,10.314,23.33,23.33,0,0,0,7.6,7.044,21.6,21.6,0,0,0,10.286,3.246h.172a6.43,6.43,0,0,0,4.64-1.5,4.894,4.894,0,0,0,.989-1.347,4.554,4.554,0,0,0,.44-.368,6.37,6.37,0,0,0,1.593-5.482c-.128-1.035-.629-3.583-2.526-4.9a2.975,2.975,0,0,0-1.693-.566h-.055a4.023,4.023,0,0,0-1.286.292c-.12.043-.233.083-.33.111-.414.12-.846.219-1.29.3a14.564,14.564,0,0,0,1.488-1.109,16.874,16.874,0,0,0,2.667-2.9,19.875,19.875,0,0,0,3.492-5.209,27.151,27.151,0,0,0,2.48-8.708A13.957,13.957,0,0,0,1958.846,2168.025Zm-19.11,20.735c-.009-.083-.016-.167-.021-.253a7.115,7.115,0,0,1,.915-3.9,3.045,3.045,0,0,1,1.794-.8,1.233,1.233,0,0,1,.138.007,1.279,1.279,0,0,1,1.075,1.465h0v.007h0a3.262,3.262,0,0,1-.511,1.478A9.361,9.361,0,0,1,1939.736,2188.76Z"/>
    </clipPath>
    <linearGradient id="linear-gradient-14" x1="0.5" y1="-5.187" x2="0.5" y2="27.067" xlink:href="#linear-gradient"/>
    <clipPath id="clip-path-7">
      <path id="Path_19610" data-name="Path 19610" d="M1939.427,2187.63a6.422,6.422,0,0,0-1.977-2.443l-.01-.009-.011-.008-.014-.01-.083-.065h0l-.005,0h0a5.084,5.084,0,0,0-.783-.54,15.915,15.915,0,0,0-5-1.961,20,20,0,0,0-3.352-.432c-.352-.019-.67-.028-.971-.028a10.188,10.188,0,0,0-2.324.241,8.7,8.7,0,0,0-5.144,3.8l-.019.029a11.427,11.427,0,0,0-1.41,1.687c-.242.349-.473.7-.7,1.046-.272.416-.533.81-.806,1.193a17.672,17.672,0,0,1,.014-3.51,62.143,62.143,0,0,1,2.443-11.227l.135-.475q.176-.623.358-1.246a47.124,47.124,0,0,0,1.317-5.3l0-.024a5.884,5.884,0,0,0,.065-2.335,3.474,3.474,0,0,0-2.439-2.351,10.515,10.515,0,0,0-3.639-.589,18.51,18.51,0,0,0-3.413.346,14.614,14.614,0,0,0-5.725,2.19,4.868,4.868,0,0,0-1.47,1.748,5.753,5.753,0,0,0-1.854,2.653,15.662,15.662,0,0,0-.845,3.375,36.978,36.978,0,0,0-.313,6.846,64.828,64.828,0,0,0,1.938,13.708c.979,3.888,2.444,8.27,5.875,11.3a13.614,13.614,0,0,0,5.617,2.944,15.557,15.557,0,0,0,3.85.5,12.582,12.582,0,0,0,2.877-.323c3.691-.867,7.393-3.2,11.006-6.93a32.638,32.638,0,0,0,2.366-2.726,27.664,27.664,0,0,0,3.109-4.16C1939.342,2192.464,1940.474,2190.02,1939.427,2187.63Z"/>
    </clipPath>
    <linearGradient id="linear-gradient-16" x1="0.501" y1="-145.23" x2="0.501" y2="106.559" xlink:href="#linear-gradient"/>
    <linearGradient id="linear-gradient-17" x1="0.5" y1="-42.214" x2="0.5" y2="32.708" xlink:href="#linear-gradient"/>
    <linearGradient id="linear-gradient-18" x1="0.5" y1="0.129" x2="0.5" y2="0.813" xlink:href="#linear-gradient"/>
    <clipPath id="clip-path-8">
      <path id="Path_19617" data-name="Path 19617" d="M1918.35,2187.63a6.423,6.423,0,0,0-1.977-2.443l-.011-.009-.01-.008-.015-.01c-.031-.026-.06-.048-.083-.065h0l0,0h0a5.092,5.092,0,0,0-.783-.54,15.916,15.916,0,0,0-5-1.961,19.994,19.994,0,0,0-3.352-.432c-.352-.019-.67-.028-.971-.028a10.188,10.188,0,0,0-2.324.241,8.7,8.7,0,0,0-5.144,3.8l-.019.029a11.427,11.427,0,0,0-1.41,1.687c-.242.349-.473.7-.7,1.046-.272.416-.533.81-.806,1.193a17.664,17.664,0,0,1,.014-3.51,62.133,62.133,0,0,1,2.443-11.227l.135-.475q.175-.623.358-1.246a47.1,47.1,0,0,0,1.317-5.3l0-.024a5.9,5.9,0,0,0,.065-2.335,3.476,3.476,0,0,0-2.439-2.351,10.519,10.519,0,0,0-3.639-.589,18.529,18.529,0,0,0-3.414.346,14.616,14.616,0,0,0-5.724,2.19,4.866,4.866,0,0,0-1.47,1.748,5.752,5.752,0,0,0-1.854,2.653,15.654,15.654,0,0,0-.845,3.375,36.978,36.978,0,0,0-.313,6.846,64.828,64.828,0,0,0,1.938,13.708c.979,3.888,2.444,8.27,5.875,11.3a13.614,13.614,0,0,0,5.617,2.944,15.558,15.558,0,0,0,3.85.5,12.582,12.582,0,0,0,2.877-.323c3.691-.867,7.393-3.2,11.006-6.93a32.659,32.659,0,0,0,2.366-2.726,27.664,27.664,0,0,0,3.109-4.16C1918.265,2192.464,1919.4,2190.02,1918.35,2187.63Z"/>
    </clipPath>
    <linearGradient id="linear-gradient-19" x1="0.501" y1="-145.23" x2="0.501" y2="106.559" xlink:href="#linear-gradient"/>
    <linearGradient id="linear-gradient-20" x1="0.5" y1="-42.214" x2="0.5" y2="32.708" xlink:href="#linear-gradient"/>
    <clipPath id="clip-path-9">
      <path id="Path_19625" data-name="Path 19625" d="M1886.943,2180.058c-.3-.924-.654-1.879-1.056-2.844-.059-.149-.134-.321-.223-.527-.3-.7-.319-.738-.351-.793-2.149-4.757-4.637-8.264-7.589-10.705a13.528,13.528,0,0,0-6.722-3.114,11.335,11.335,0,0,0-1.523-.1,14.139,14.139,0,0,0-6.023,1.447,15.336,15.336,0,0,0-4.561,3.051,11.917,11.917,0,0,0-1.29,1.582c-.046.045-.094.088-.139.134a13.662,13.662,0,0,0-3.4,6.377c-1.009,4.159-.681,9,1,14.8a44.773,44.773,0,0,0,6.1,13.25,15.352,15.352,0,0,0,5.29,4.93,9.569,9.569,0,0,0,4.407,1.136,7.706,7.706,0,0,0,3.144-.655,7.536,7.536,0,0,0,3.359-2.966,7.169,7.169,0,0,0,2.364-4.179,2.95,2.95,0,0,0,3.621.874,3.58,3.58,0,0,0,1.481-1.562c.049-.086.1-.174.145-.263a3.818,3.818,0,0,0,1.284-1.452,14.059,14.059,0,0,0,1.37-3.469A26.414,26.414,0,0,0,1886.943,2180.058Zm-9.84,5.91a2.263,2.263,0,0,1-1.606-.645,3.277,3.277,0,0,1-.622-2.4c0-.073.008-.148.013-.223a7.476,7.476,0,0,1,2.02,2.158,2.92,2.92,0,0,1,.4,1.1C1877.229,2185.965,1877.159,2185.968,1877.1,2185.968Z"/>
    </clipPath>
    <linearGradient id="linear-gradient-22" x1="0.499" y1="-9.278" x2="0.499" y2="10.99" xlink:href="#linear-gradient"/>
    <linearGradient id="linear-gradient-23" x1="0.5" y1="0.018" x2="0.5" y2="0.661" xlink:href="#linear-gradient"/>
    <linearGradient id="linear-gradient-24" x1="0.525" y1="-395.47" x2="0.525" y2="184.521" xlink:href="#linear-gradient"/>
    <linearGradient id="linear-gradient-26" x1="0.504" y1="-23.897" x2="0.504" y2="52.448" xlink:href="#linear-gradient"/>
    <clipPath id="clip-path-10">
      <path id="Path_19640" data-name="Path 19640" d="M1830.735,2197.894a6.132,6.132,0,0,0-.921-2.774,2.992,2.992,0,0,0-.372-.486l-.01-.01,0,0a7.855,7.855,0,0,0-1.571-1.256,5.272,5.272,0,0,0-2.59-.941l-.135,0a5.347,5.347,0,0,0-2.4.694c-.207.1-.412.209-.617.315-.435.225-.845.437-1.263.614a5.014,5.014,0,0,1-1.994.417,5.59,5.59,0,0,1-1.556-.232,10.58,10.58,0,0,1-3.4-1.783,13.732,13.732,0,0,1-4.749-6.286,7.5,7.5,0,0,1-.432-2.951h0a11.276,11.276,0,0,0,7.578,3.157,8.13,8.13,0,0,0,3.989-1,12.88,12.88,0,0,0,4.96-7.52,10.419,10.419,0,0,0-2.342-6.475,22.041,22.041,0,0,0-10.9-7.458,19.329,19.329,0,0,0-5.67-.908,11.677,11.677,0,0,0-7.377,2.31,9.5,9.5,0,0,0-2.107,2.305,10.188,10.188,0,0,0-2.726,4.544,11.741,11.741,0,0,0,0,5.734,28.138,28.138,0,0,0,2.337,6.537,50.729,50.729,0,0,0,3.427,5.942,63.564,63.564,0,0,0,8.816,10.561c1.81,1.74,3.7,2.988,5.3,4.43,1.958,1.766,4.273,3.581,6.424,3.131.566-.119,1.134.177,1.689.177a6.667,6.667,0,0,0,5.051-2.185,7.942,7.942,0,0,0,.844-1.142,6.605,6.605,0,0,0,.585-.573A9.127,9.127,0,0,0,1830.735,2197.894Z"/>
    </clipPath>
    <linearGradient id="linear-gradient-27" x1="0.501" y1="-130.847" x2="0.501" y2="-26.864" xlink:href="#linear-gradient"/>
    <linearGradient id="linear-gradient-28" x1="0.5" y1="-0.079" x2="0.5" y2="0.58" xlink:href="#linear-gradient"/>
  </defs>
  <g id="Group_8383" data-name="Group 8383" transform="translate(-1786.61 -2087.226)">
    <g id="Group_8336" data-name="Group 8336">
      <g id="Group_8335" data-name="Group 8335">
        <g id="Group_8331" data-name="Group 8331">
          <path id="Path_19547" data-name="Path 19547" d="M2054.744,2177.846a19.131,19.131,0,0,0-2.749-12.7,10.644,10.644,0,0,0-.842-1.16,10.869,10.869,0,0,0-.864-.991,17.187,17.187,0,0,0-12.508-5.255h-.155a14.524,14.524,0,0,0-4.638.753,17.55,17.55,0,0,0-3.573,1.72,24.85,24.85,0,0,0-2.961,2.15l-.153-.173a8.438,8.438,0,0,0-.75-.761,24.738,24.738,0,0,0-17.287-7c-.154,0-.307,0-.46.005a22.579,22.579,0,0,0-10.5,2.855,25.062,25.062,0,0,0-5.892,4.588q-.574-.561-1.191-1.076a16.8,16.8,0,0,0-7.69-3.744,13.4,13.4,0,0,0-2.406-.218h0a12.983,12.983,0,0,0-7.614,2.435,14.556,14.556,0,0,0-1.818,1.546,18.144,18.144,0,0,0-8.628-2.409,12.97,12.97,0,0,0-5.2,1.055,17.65,17.65,0,0,0-7.635-1.725h-.154a14.535,14.535,0,0,0-4.639.753,17.571,17.571,0,0,0-3.572,1.72,27.477,27.477,0,0,0-5.078,4.1,36.678,36.678,0,0,0-2.866,3.255,38.334,38.334,0,0,0-5.305,7.76q-.36.693-.687,1.386a15.857,15.857,0,0,0-2.453.218l.022-.076.134-.475c.114-.4.231-.807.348-1.211a51.916,51.916,0,0,0,1.457-5.916v-.006l.005-.03a10.815,10.815,0,0,0-.015-4.5,8.722,8.722,0,0,0-5.825-6.151,15.889,15.889,0,0,0-5.513-.924,23.822,23.822,0,0,0-4.406.438,20.331,20.331,0,0,0-7.454,2.818,9.822,9.822,0,0,0-3.7-2.331,15.866,15.866,0,0,0-5.513-.925,23.823,23.823,0,0,0-4.406.438,19.933,19.933,0,0,0-7.841,3.08l-.216.156c-.121-.1-.244-.208-.367-.31a18.924,18.924,0,0,0-9.446-4.307,16.957,16.957,0,0,0-2.247-.15,19.5,19.5,0,0,0-8.329,1.963,20.5,20.5,0,0,0-6.122,4.161,17.076,17.076,0,0,0-1.572,1.863l-.152.161c-.316-.015-.638-.022-.963-.022a22.891,22.891,0,0,0-5.96.8c-.585.161-1.111.332-1.609.523-.385.147-.736.3-1.066.463a8.008,8.008,0,0,0-1.1.628,22.111,22.111,0,0,0-3.858-6.858,14.412,14.412,0,0,0-10.165-4.906c-.408-.024-.825-.037-1.239-.037a33.867,33.867,0,0,0-7.584,1.045,63.383,63.383,0,0,0-7.411,2.046,24.356,24.356,0,0,0-6.01-.791,16.95,16.95,0,0,0-10.708,3.455,14.864,14.864,0,0,0-2.955,3.093,15.734,15.734,0,0,0-3.74,6.495,16.955,16.955,0,0,0-.106,8.365,33.442,33.442,0,0,0,2.768,7.8,56.221,56.221,0,0,0,3.791,6.579,68.963,68.963,0,0,0,9.569,11.461,45.434,45.434,0,0,0,3.5,2.964c.708.557,1.377,1.082,1.934,1.585,2.519,2.271,5.6,4.593,9.367,4.593.294,0,.588-.015.879-.044a7.776,7.776,0,0,0,1.492.151,12.493,12.493,0,0,0,4.456-.805,8.177,8.177,0,0,0,1.734.579,10.462,10.462,0,0,0,2.229.226c.513,0,.956-.03,1.312-.055.1-.007.2-.014.293-.019l.728-.036.133-.006.416-.021.572-.027.2-.009a47.937,47.937,0,0,0,6.1-.56,13.409,13.409,0,0,0,2.977-.828,7.943,7.943,0,0,0,2.7-1.778l.149-.153.136-.163c.164-.2.311-.391.443-.582a7.142,7.142,0,0,0,1.167.281,15.868,15.868,0,0,0,2.409.182h.229a15.387,15.387,0,0,0,5.593-1.055l.006,0a7.28,7.28,0,0,0,2.3-1.4,19.227,19.227,0,0,0,5.54,4.479,14.986,14.986,0,0,0,6.92,1.754,18.7,18.7,0,0,0,11.667-6.649c.08,0,.16-.01.24-.017a18.753,18.753,0,0,0,9.7,5.995,20.918,20.918,0,0,0,5.192.671,17.967,17.967,0,0,0,4.116-.466,23.025,23.025,0,0,0,6.291-2.556,19.243,19.243,0,0,0,5.478,2.351,20.918,20.918,0,0,0,5.192.671,17.968,17.968,0,0,0,4.116-.466,26.048,26.048,0,0,0,10.825-5.773,31.235,31.235,0,0,0,3.3,2.242,26.986,26.986,0,0,0,12.972,4h.238a12.574,12.574,0,0,0,6.7-1.7,12.756,12.756,0,0,0,3.268.468,9.486,9.486,0,0,0,2.325-.284,7.72,7.72,0,0,0,3.825-2.276,21.8,21.8,0,0,0,4.292,2.392,18.355,18.355,0,0,0,10.469,1.081,16.5,16.5,0,0,0,9.1-5c.092-.1.184-.2.275-.3a26.055,26.055,0,0,0,10.2,4.9,27.472,27.472,0,0,0,6.277.721,26.274,26.274,0,0,0,14.7-4.378,17.2,17.2,0,0,0,1.535-1.175q1.145.826,2.38,1.556a26.981,26.981,0,0,0,12.971,4h.238a11.687,11.687,0,0,0,8.373-2.994,10.15,10.15,0,0,0,1.459-1.743,11.7,11.7,0,0,0,3.2-10.037,13.475,13.475,0,0,0-2.61-6.611,26.609,26.609,0,0,0,2.6-4.391A32.585,32.585,0,0,0,2054.744,2177.846Z" fill="#fff"/>
          <path id="Path_19548" data-name="Path 19548" d="M1964.178,2097.675a11.076,11.076,0,0,0-.862-.987,17.185,17.185,0,0,0-12.509-5.257h-.154a14.526,14.526,0,0,0-4.639.753,17.68,17.68,0,0,0-3.573,1.72,27.477,27.477,0,0,0-5.077,4.1q-.79.8-1.549,1.662a15.756,15.756,0,0,0-6.535-1.3,22.92,22.92,0,0,0-5.96.8c-.586.161-1.112.332-1.61.523-.384.148-.735.3-1.066.463a8.055,8.055,0,0,0-1.1.628,22.146,22.146,0,0,0-3.859-6.858,14.407,14.407,0,0,0-10.165-4.905c-.409-.025-.825-.037-1.239-.037a33.849,33.849,0,0,0-7.583,1.044,68.666,68.666,0,0,0-6.651,1.787,39.017,39.017,0,0,1-5.205.4q-.515.009-1.024.008c-1.928,0-3.991-.083-6.494-.26-1.575-.112-3.22-.281-4.811-.443-1.051-.108-2.138-.218-3.213-.315-.676-.061-1.36-.092-2.031-.092a18.352,18.352,0,0,0-9.33,2.376,17.052,17.052,0,0,0-5.15,4.673,18.466,18.466,0,0,0-3.748,5.954,21.764,21.764,0,0,0-1.335,5.4,15.855,15.855,0,0,0,.418,6.571,9.9,9.9,0,0,0,5.979,6.524,10.246,10.246,0,0,0,3.563.626,12.376,12.376,0,0,0,4.88-1.048,15.189,15.189,0,0,0,2.539-1.393,66.007,66.007,0,0,1-1.955,6.63c-.207.623-.412,1.241-.611,1.855l-.055.168a11.825,11.825,0,0,0-.714,4.72,10.418,10.418,0,0,0,2.395,5.8,16.9,16.9,0,0,0,6.34,4.551,39.139,39.139,0,0,0,12.223,3.041,37.789,37.789,0,0,0,3.832.218c.707,0,1.4-.028,2.062-.083a8.043,8.043,0,0,0,6.277-3.791,9.152,9.152,0,0,0,2.645-4.633c.4.882.853,1.844,1.358,2.8l.064.12c.649,1.234,2.379,4.518,6.308,5.363a10.445,10.445,0,0,0,2.228.227c.514,0,.957-.031,1.313-.056.107-.007.2-.014.293-.018.253-.014.5-.026.738-.037l.123-.006.415-.02.575-.028.2-.009a47.711,47.711,0,0,0,6.1-.56,13.389,13.389,0,0,0,2.976-.828,7.95,7.95,0,0,0,2.7-1.778l.149-.152.137-.164q.244-.294.442-.582a7.142,7.142,0,0,0,1.167.281,15.837,15.837,0,0,0,2.409.182h.23a15.374,15.374,0,0,0,5.588-1.053l.008,0a7.37,7.37,0,0,0,2.276-1.376,30.816,30.816,0,0,0,3.251,2.21,26.965,26.965,0,0,0,12.971,4l.238,0a11.689,11.689,0,0,0,8.373-3,10.145,10.145,0,0,0,1.459-1.743,11.7,11.7,0,0,0,3.2-10.037,13.484,13.484,0,0,0-2.61-6.611,26.626,26.626,0,0,0,2.6-4.391,32.588,32.588,0,0,0,2.97-10.468,19.132,19.132,0,0,0-2.749-12.7A11.036,11.036,0,0,0,1964.178,2097.675Z" fill="#fff"/>
        </g>
        <g id="Group_8332" data-name="Group 8332">
          <path id="Path_19549" data-name="Path 19549" d="M2054.744,2177.846a19.131,19.131,0,0,0-2.749-12.7,10.644,10.644,0,0,0-.842-1.16,10.869,10.869,0,0,0-.864-.991,17.187,17.187,0,0,0-12.508-5.255h-.155a14.524,14.524,0,0,0-4.638.753,17.55,17.55,0,0,0-3.573,1.72,24.85,24.85,0,0,0-2.961,2.15l-.153-.173a8.438,8.438,0,0,0-.75-.761,24.738,24.738,0,0,0-17.287-7c-.154,0-.307,0-.46.005a22.579,22.579,0,0,0-10.5,2.855,25.062,25.062,0,0,0-5.892,4.588q-.574-.561-1.191-1.076a16.8,16.8,0,0,0-7.69-3.744,13.4,13.4,0,0,0-2.406-.218h0a12.983,12.983,0,0,0-7.614,2.435,14.556,14.556,0,0,0-1.818,1.546,18.144,18.144,0,0,0-8.628-2.409,12.97,12.97,0,0,0-5.2,1.055,17.65,17.65,0,0,0-7.635-1.725h-.154a14.535,14.535,0,0,0-4.639.753,17.571,17.571,0,0,0-3.572,1.72,27.477,27.477,0,0,0-5.078,4.1,36.678,36.678,0,0,0-2.866,3.255,38.334,38.334,0,0,0-5.305,7.76q-.36.693-.687,1.386a15.857,15.857,0,0,0-2.453.218l.022-.076.134-.475c.114-.4.231-.807.348-1.211a51.916,51.916,0,0,0,1.457-5.916v-.006l.005-.03a10.815,10.815,0,0,0-.015-4.5,8.722,8.722,0,0,0-5.825-6.151,15.889,15.889,0,0,0-5.513-.924,23.822,23.822,0,0,0-4.406.438,20.331,20.331,0,0,0-7.454,2.818,9.822,9.822,0,0,0-3.7-2.331,15.866,15.866,0,0,0-5.513-.925,23.823,23.823,0,0,0-4.406.438,19.933,19.933,0,0,0-7.841,3.08l-.216.156c-.121-.1-.244-.208-.367-.31a18.924,18.924,0,0,0-9.446-4.307,16.957,16.957,0,0,0-2.247-.15,19.5,19.5,0,0,0-8.329,1.963,20.5,20.5,0,0,0-6.122,4.161,17.076,17.076,0,0,0-1.572,1.863l-.152.161c-.316-.015-.638-.022-.963-.022a22.891,22.891,0,0,0-5.96.8c-.585.161-1.111.332-1.609.523-.385.147-.736.3-1.066.463a8.008,8.008,0,0,0-1.1.628,22.111,22.111,0,0,0-3.858-6.858,14.412,14.412,0,0,0-10.165-4.906c-.408-.024-.825-.037-1.239-.037a33.867,33.867,0,0,0-7.584,1.045,63.383,63.383,0,0,0-7.411,2.046,24.356,24.356,0,0,0-6.01-.791,16.95,16.95,0,0,0-10.708,3.455,14.864,14.864,0,0,0-2.955,3.093,15.734,15.734,0,0,0-3.74,6.495,16.955,16.955,0,0,0-.106,8.365,33.442,33.442,0,0,0,2.768,7.8,56.221,56.221,0,0,0,3.791,6.579,68.963,68.963,0,0,0,9.569,11.461,45.434,45.434,0,0,0,3.5,2.964c.708.557,1.377,1.082,1.934,1.585,2.519,2.271,5.6,4.593,9.367,4.593.294,0,.588-.015.879-.044a7.776,7.776,0,0,0,1.492.151,12.493,12.493,0,0,0,4.456-.805,8.177,8.177,0,0,0,1.734.579,10.462,10.462,0,0,0,2.229.226c.513,0,.956-.03,1.312-.055.1-.007.2-.014.293-.019l.728-.036.133-.006.416-.021.572-.027.2-.009a47.937,47.937,0,0,0,6.1-.56,13.409,13.409,0,0,0,2.977-.828,7.943,7.943,0,0,0,2.7-1.778l.149-.153.136-.163c.164-.2.311-.391.443-.582a7.142,7.142,0,0,0,1.167.281,15.868,15.868,0,0,0,2.409.182h.229a15.387,15.387,0,0,0,5.593-1.055l.006,0a7.28,7.28,0,0,0,2.3-1.4,19.227,19.227,0,0,0,5.54,4.479,14.986,14.986,0,0,0,6.92,1.754,18.7,18.7,0,0,0,11.667-6.649c.08,0,.16-.01.24-.017a18.753,18.753,0,0,0,9.7,5.995,20.918,20.918,0,0,0,5.192.671,17.967,17.967,0,0,0,4.116-.466,23.025,23.025,0,0,0,6.291-2.556,19.243,19.243,0,0,0,5.478,2.351,20.918,20.918,0,0,0,5.192.671,17.968,17.968,0,0,0,4.116-.466,26.048,26.048,0,0,0,10.825-5.773,31.235,31.235,0,0,0,3.3,2.242,26.986,26.986,0,0,0,12.972,4h.238a12.574,12.574,0,0,0,6.7-1.7,12.756,12.756,0,0,0,3.268.468,9.486,9.486,0,0,0,2.325-.284,7.72,7.72,0,0,0,3.825-2.276,21.8,21.8,0,0,0,4.292,2.392,18.355,18.355,0,0,0,10.469,1.081,16.5,16.5,0,0,0,9.1-5c.092-.1.184-.2.275-.3a26.055,26.055,0,0,0,10.2,4.9,27.472,27.472,0,0,0,6.277.721,26.274,26.274,0,0,0,14.7-4.378,17.2,17.2,0,0,0,1.535-1.175q1.145.826,2.38,1.556a26.981,26.981,0,0,0,12.971,4h.238a11.687,11.687,0,0,0,8.373-2.994,10.15,10.15,0,0,0,1.459-1.743,11.7,11.7,0,0,0,3.2-10.037,13.475,13.475,0,0,0-2.61-6.611,26.609,26.609,0,0,0,2.6-4.391A32.585,32.585,0,0,0,2054.744,2177.846Z" fill="#fff"/>
          <path id="Path_19550" data-name="Path 19550" d="M1964.178,2097.675a11.076,11.076,0,0,0-.862-.987,17.185,17.185,0,0,0-12.509-5.257h-.154a14.526,14.526,0,0,0-4.639.753,17.68,17.68,0,0,0-3.573,1.72,27.477,27.477,0,0,0-5.077,4.1q-.79.8-1.549,1.662a15.756,15.756,0,0,0-6.535-1.3,22.92,22.92,0,0,0-5.96.8c-.586.161-1.112.332-1.61.523-.384.148-.735.3-1.066.463a8.055,8.055,0,0,0-1.1.628,22.146,22.146,0,0,0-3.859-6.858,14.407,14.407,0,0,0-10.165-4.905c-.409-.025-.825-.037-1.239-.037a33.849,33.849,0,0,0-7.583,1.044,68.666,68.666,0,0,0-6.651,1.787,39.017,39.017,0,0,1-5.205.4q-.515.009-1.024.008c-1.928,0-3.991-.083-6.494-.26-1.575-.112-3.22-.281-4.811-.443-1.051-.108-2.138-.218-3.213-.315-.676-.061-1.36-.092-2.031-.092a18.352,18.352,0,0,0-9.33,2.376,17.052,17.052,0,0,0-5.15,4.673,18.466,18.466,0,0,0-3.748,5.954,21.764,21.764,0,0,0-1.335,5.4,15.855,15.855,0,0,0,.418,6.571,9.9,9.9,0,0,0,5.979,6.524,10.246,10.246,0,0,0,3.563.626,12.376,12.376,0,0,0,4.88-1.048,15.189,15.189,0,0,0,2.539-1.393,66.007,66.007,0,0,1-1.955,6.63c-.207.623-.412,1.241-.611,1.855l-.055.168a11.825,11.825,0,0,0-.714,4.72,10.418,10.418,0,0,0,2.395,5.8,16.9,16.9,0,0,0,6.34,4.551,39.139,39.139,0,0,0,12.223,3.041,37.789,37.789,0,0,0,3.832.218c.707,0,1.4-.028,2.062-.083a8.043,8.043,0,0,0,6.277-3.791,9.152,9.152,0,0,0,2.645-4.633c.4.882.853,1.844,1.358,2.8l.064.12c.649,1.234,2.379,4.518,6.308,5.363a10.445,10.445,0,0,0,2.228.227c.514,0,.957-.031,1.313-.056.107-.007.2-.014.293-.018.253-.014.5-.026.738-.037l.123-.006.415-.02.575-.028.2-.009a47.711,47.711,0,0,0,6.1-.56,13.389,13.389,0,0,0,2.976-.828,7.95,7.95,0,0,0,2.7-1.778l.149-.152.137-.164q.244-.294.442-.582a7.142,7.142,0,0,0,1.167.281,15.837,15.837,0,0,0,2.409.182h.23a15.374,15.374,0,0,0,5.588-1.053l.008,0a7.37,7.37,0,0,0,2.276-1.376,30.816,30.816,0,0,0,3.251,2.21,26.965,26.965,0,0,0,12.971,4l.238,0a11.689,11.689,0,0,0,8.373-3,10.145,10.145,0,0,0,1.459-1.743,11.7,11.7,0,0,0,3.2-10.037,13.484,13.484,0,0,0-2.61-6.611,26.626,26.626,0,0,0,2.6-4.391,32.588,32.588,0,0,0,2.97-10.468,19.132,19.132,0,0,0-2.749-12.7A11.036,11.036,0,0,0,1964.178,2097.675Z" fill="#fff"/>
        </g>
        <g id="Group_8333" data-name="Group 8333">
          <path id="Path_19551" data-name="Path 19551" d="M2054.744,2177.846a19.131,19.131,0,0,0-2.749-12.7,10.644,10.644,0,0,0-.842-1.16,10.869,10.869,0,0,0-.864-.991,17.187,17.187,0,0,0-12.508-5.255h-.155a14.524,14.524,0,0,0-4.638.753,17.55,17.55,0,0,0-3.573,1.72,24.85,24.85,0,0,0-2.961,2.15l-.153-.173a8.438,8.438,0,0,0-.75-.761,24.738,24.738,0,0,0-17.287-7c-.154,0-.307,0-.46.005a22.579,22.579,0,0,0-10.5,2.855,25.062,25.062,0,0,0-5.892,4.588q-.574-.561-1.191-1.076a16.8,16.8,0,0,0-7.69-3.744,13.4,13.4,0,0,0-2.406-.218h0a12.983,12.983,0,0,0-7.614,2.435,14.556,14.556,0,0,0-1.818,1.546,18.144,18.144,0,0,0-8.628-2.409,12.97,12.97,0,0,0-5.2,1.055,17.65,17.65,0,0,0-7.635-1.725h-.154a14.535,14.535,0,0,0-4.639.753,17.571,17.571,0,0,0-3.572,1.72,27.477,27.477,0,0,0-5.078,4.1,36.678,36.678,0,0,0-2.866,3.255,38.334,38.334,0,0,0-5.305,7.76q-.36.693-.687,1.386a15.857,15.857,0,0,0-2.453.218l.022-.076.134-.475c.114-.4.231-.807.348-1.211a51.916,51.916,0,0,0,1.457-5.916v-.006l.005-.03a10.815,10.815,0,0,0-.015-4.5,8.722,8.722,0,0,0-5.825-6.151,15.889,15.889,0,0,0-5.513-.924,23.822,23.822,0,0,0-4.406.438,20.331,20.331,0,0,0-7.454,2.818,9.822,9.822,0,0,0-3.7-2.331,15.866,15.866,0,0,0-5.513-.925,23.823,23.823,0,0,0-4.406.438,19.933,19.933,0,0,0-7.841,3.08l-.216.156c-.121-.1-.244-.208-.367-.31a18.924,18.924,0,0,0-9.446-4.307,16.957,16.957,0,0,0-2.247-.15,19.5,19.5,0,0,0-8.329,1.963,20.5,20.5,0,0,0-6.122,4.161,17.076,17.076,0,0,0-1.572,1.863l-.152.161c-.316-.015-.638-.022-.963-.022a22.891,22.891,0,0,0-5.96.8c-.585.161-1.111.332-1.609.523-.385.147-.736.3-1.066.463a8.008,8.008,0,0,0-1.1.628,22.111,22.111,0,0,0-3.858-6.858,14.412,14.412,0,0,0-10.165-4.906c-.408-.024-.825-.037-1.239-.037a33.867,33.867,0,0,0-7.584,1.045,63.383,63.383,0,0,0-7.411,2.046,24.356,24.356,0,0,0-6.01-.791,16.95,16.95,0,0,0-10.708,3.455,14.864,14.864,0,0,0-2.955,3.093,15.734,15.734,0,0,0-3.74,6.495,16.955,16.955,0,0,0-.106,8.365,33.442,33.442,0,0,0,2.768,7.8,56.221,56.221,0,0,0,3.791,6.579,68.963,68.963,0,0,0,9.569,11.461,45.434,45.434,0,0,0,3.5,2.964c.708.557,1.377,1.082,1.934,1.585,2.519,2.271,5.6,4.593,9.367,4.593.294,0,.588-.015.879-.044a7.776,7.776,0,0,0,1.492.151,12.493,12.493,0,0,0,4.456-.805,8.177,8.177,0,0,0,1.734.579,10.462,10.462,0,0,0,2.229.226c.513,0,.956-.03,1.312-.055.1-.007.2-.014.293-.019l.728-.036.133-.006.416-.021.572-.027.2-.009a47.937,47.937,0,0,0,6.1-.56,13.409,13.409,0,0,0,2.977-.828,7.943,7.943,0,0,0,2.7-1.778l.149-.153.136-.163c.164-.2.311-.391.443-.582a7.142,7.142,0,0,0,1.167.281,15.868,15.868,0,0,0,2.409.182h.229a15.387,15.387,0,0,0,5.593-1.055l.006,0a7.28,7.28,0,0,0,2.3-1.4,19.227,19.227,0,0,0,5.54,4.479,14.986,14.986,0,0,0,6.92,1.754,18.7,18.7,0,0,0,11.667-6.649c.08,0,.16-.01.24-.017a18.753,18.753,0,0,0,9.7,5.995,20.918,20.918,0,0,0,5.192.671,17.967,17.967,0,0,0,4.116-.466,23.025,23.025,0,0,0,6.291-2.556,19.243,19.243,0,0,0,5.478,2.351,20.918,20.918,0,0,0,5.192.671,17.968,17.968,0,0,0,4.116-.466,26.048,26.048,0,0,0,10.825-5.773,31.235,31.235,0,0,0,3.3,2.242,26.986,26.986,0,0,0,12.972,4h.238a12.574,12.574,0,0,0,6.7-1.7,12.756,12.756,0,0,0,3.268.468,9.486,9.486,0,0,0,2.325-.284,7.72,7.72,0,0,0,3.825-2.276,21.8,21.8,0,0,0,4.292,2.392,18.355,18.355,0,0,0,10.469,1.081,16.5,16.5,0,0,0,9.1-5c.092-.1.184-.2.275-.3a26.055,26.055,0,0,0,10.2,4.9,27.472,27.472,0,0,0,6.277.721,26.274,26.274,0,0,0,14.7-4.378,17.2,17.2,0,0,0,1.535-1.175q1.145.826,2.38,1.556a26.981,26.981,0,0,0,12.971,4h.238a11.687,11.687,0,0,0,8.373-2.994,10.15,10.15,0,0,0,1.459-1.743,11.7,11.7,0,0,0,3.2-10.037,13.475,13.475,0,0,0-2.61-6.611,26.609,26.609,0,0,0,2.6-4.391A32.585,32.585,0,0,0,2054.744,2177.846Z" fill="none" stroke="#fff" stroke-linecap="round" stroke-linejoin="round" stroke-width="3.518"/>
          <path id="Path_19552" data-name="Path 19552" d="M1964.178,2097.675a11.076,11.076,0,0,0-.862-.987,17.185,17.185,0,0,0-12.509-5.257h-.154a14.526,14.526,0,0,0-4.639.753,17.68,17.68,0,0,0-3.573,1.72,27.477,27.477,0,0,0-5.077,4.1q-.79.8-1.549,1.662a15.756,15.756,0,0,0-6.535-1.3,22.92,22.92,0,0,0-5.96.8c-.586.161-1.112.332-1.61.523-.384.148-.735.3-1.066.463a8.055,8.055,0,0,0-1.1.628,22.146,22.146,0,0,0-3.859-6.858,14.407,14.407,0,0,0-10.165-4.905c-.409-.025-.825-.037-1.239-.037a33.849,33.849,0,0,0-7.583,1.044,68.666,68.666,0,0,0-6.651,1.787,39.017,39.017,0,0,1-5.205.4q-.515.009-1.024.008c-1.928,0-3.991-.083-6.494-.26-1.575-.112-3.22-.281-4.811-.443-1.051-.108-2.138-.218-3.213-.315-.676-.061-1.36-.092-2.031-.092a18.352,18.352,0,0,0-9.33,2.376,17.052,17.052,0,0,0-5.15,4.673,18.466,18.466,0,0,0-3.748,5.954,21.764,21.764,0,0,0-1.335,5.4,15.855,15.855,0,0,0,.418,6.571,9.9,9.9,0,0,0,5.979,6.524,10.246,10.246,0,0,0,3.563.626,12.376,12.376,0,0,0,4.88-1.048,15.189,15.189,0,0,0,2.539-1.393,66.007,66.007,0,0,1-1.955,6.63c-.207.623-.412,1.241-.611,1.855l-.055.168a11.825,11.825,0,0,0-.714,4.72,10.418,10.418,0,0,0,2.395,5.8,16.9,16.9,0,0,0,6.34,4.551,39.139,39.139,0,0,0,12.223,3.041,37.789,37.789,0,0,0,3.832.218c.707,0,1.4-.028,2.062-.083a8.043,8.043,0,0,0,6.277-3.791,9.152,9.152,0,0,0,2.645-4.633c.4.882.853,1.844,1.358,2.8l.064.12c.649,1.234,2.379,4.518,6.308,5.363a10.445,10.445,0,0,0,2.228.227c.514,0,.957-.031,1.313-.056.107-.007.2-.014.293-.018.253-.014.5-.026.738-.037l.123-.006.415-.02.575-.028.2-.009a47.711,47.711,0,0,0,6.1-.56,13.389,13.389,0,0,0,2.976-.828,7.95,7.95,0,0,0,2.7-1.778l.149-.152.137-.164q.244-.294.442-.582a7.142,7.142,0,0,0,1.167.281,15.837,15.837,0,0,0,2.409.182h.23a15.374,15.374,0,0,0,5.588-1.053l.008,0a7.37,7.37,0,0,0,2.276-1.376,30.816,30.816,0,0,0,3.251,2.21,26.965,26.965,0,0,0,12.971,4l.238,0a11.689,11.689,0,0,0,8.373-3,10.145,10.145,0,0,0,1.459-1.743,11.7,11.7,0,0,0,3.2-10.037,13.484,13.484,0,0,0-2.61-6.611,26.626,26.626,0,0,0,2.6-4.391,32.588,32.588,0,0,0,2.97-10.468,19.132,19.132,0,0,0-2.749-12.7A11.036,11.036,0,0,0,1964.178,2097.675Z" fill="none" stroke="#fff" stroke-linecap="round" stroke-linejoin="round" stroke-width="3.518"/>
        </g>
        <g id="Group_8334" data-name="Group 8334">
          <path id="Path_19553" data-name="Path 19553" d="M2054.744,2177.846a19.131,19.131,0,0,0-2.749-12.7,10.644,10.644,0,0,0-.842-1.16,10.869,10.869,0,0,0-.864-.991,17.187,17.187,0,0,0-12.508-5.255h-.155a14.524,14.524,0,0,0-4.638.753,17.55,17.55,0,0,0-3.573,1.72,24.85,24.85,0,0,0-2.961,2.15l-.153-.173a8.438,8.438,0,0,0-.75-.761,24.738,24.738,0,0,0-17.287-7c-.154,0-.307,0-.46.005a22.579,22.579,0,0,0-10.5,2.855,25.062,25.062,0,0,0-5.892,4.588q-.574-.561-1.191-1.076a16.8,16.8,0,0,0-7.69-3.744,13.4,13.4,0,0,0-2.406-.218h0a12.983,12.983,0,0,0-7.614,2.435,14.556,14.556,0,0,0-1.818,1.546,18.144,18.144,0,0,0-8.628-2.409,12.97,12.97,0,0,0-5.2,1.055,17.65,17.65,0,0,0-7.635-1.725h-.154a14.535,14.535,0,0,0-4.639.753,17.571,17.571,0,0,0-3.572,1.72,27.477,27.477,0,0,0-5.078,4.1,36.678,36.678,0,0,0-2.866,3.255,38.334,38.334,0,0,0-5.305,7.76q-.36.693-.687,1.386a15.857,15.857,0,0,0-2.453.218l.022-.076.134-.475c.114-.4.231-.807.348-1.211a51.916,51.916,0,0,0,1.457-5.916v-.006l.005-.03a10.815,10.815,0,0,0-.015-4.5,8.722,8.722,0,0,0-5.825-6.151,15.889,15.889,0,0,0-5.513-.924,23.822,23.822,0,0,0-4.406.438,20.331,20.331,0,0,0-7.454,2.818,9.822,9.822,0,0,0-3.7-2.331,15.866,15.866,0,0,0-5.513-.925,23.823,23.823,0,0,0-4.406.438,19.933,19.933,0,0,0-7.841,3.08l-.216.156c-.121-.1-.244-.208-.367-.31a18.924,18.924,0,0,0-9.446-4.307,16.957,16.957,0,0,0-2.247-.15,19.5,19.5,0,0,0-8.329,1.963,20.5,20.5,0,0,0-6.122,4.161,17.076,17.076,0,0,0-1.572,1.863l-.152.161c-.316-.015-.638-.022-.963-.022a22.891,22.891,0,0,0-5.96.8c-.585.161-1.111.332-1.609.523-.385.147-.736.3-1.066.463a8.008,8.008,0,0,0-1.1.628,22.111,22.111,0,0,0-3.858-6.858,14.412,14.412,0,0,0-10.165-4.906c-.408-.024-.825-.037-1.239-.037a33.867,33.867,0,0,0-7.584,1.045,63.383,63.383,0,0,0-7.411,2.046,24.356,24.356,0,0,0-6.01-.791,16.95,16.95,0,0,0-10.708,3.455,14.864,14.864,0,0,0-2.955,3.093,15.734,15.734,0,0,0-3.74,6.495,16.955,16.955,0,0,0-.106,8.365,33.442,33.442,0,0,0,2.768,7.8,56.221,56.221,0,0,0,3.791,6.579,68.963,68.963,0,0,0,9.569,11.461,45.434,45.434,0,0,0,3.5,2.964c.708.557,1.377,1.082,1.934,1.585,2.519,2.271,5.6,4.593,9.367,4.593.294,0,.588-.015.879-.044a7.776,7.776,0,0,0,1.492.151,12.493,12.493,0,0,0,4.456-.805,8.177,8.177,0,0,0,1.734.579,10.462,10.462,0,0,0,2.229.226c.513,0,.956-.03,1.312-.055.1-.007.2-.014.293-.019l.728-.036.133-.006.416-.021.572-.027.2-.009a47.937,47.937,0,0,0,6.1-.56,13.409,13.409,0,0,0,2.977-.828,7.943,7.943,0,0,0,2.7-1.778l.149-.153.136-.163c.164-.2.311-.391.443-.582a7.142,7.142,0,0,0,1.167.281,15.868,15.868,0,0,0,2.409.182h.229a15.387,15.387,0,0,0,5.593-1.055l.006,0a7.28,7.28,0,0,0,2.3-1.4,19.227,19.227,0,0,0,5.54,4.479,14.986,14.986,0,0,0,6.92,1.754,18.7,18.7,0,0,0,11.667-6.649c.08,0,.16-.01.24-.017a18.753,18.753,0,0,0,9.7,5.995,20.918,20.918,0,0,0,5.192.671,17.967,17.967,0,0,0,4.116-.466,23.025,23.025,0,0,0,6.291-2.556,19.243,19.243,0,0,0,5.478,2.351,20.918,20.918,0,0,0,5.192.671,17.968,17.968,0,0,0,4.116-.466,26.048,26.048,0,0,0,10.825-5.773,31.235,31.235,0,0,0,3.3,2.242,26.986,26.986,0,0,0,12.972,4h.238a12.574,12.574,0,0,0,6.7-1.7,12.756,12.756,0,0,0,3.268.468,9.486,9.486,0,0,0,2.325-.284,7.72,7.72,0,0,0,3.825-2.276,21.8,21.8,0,0,0,4.292,2.392,18.355,18.355,0,0,0,10.469,1.081,16.5,16.5,0,0,0,9.1-5c.092-.1.184-.2.275-.3a26.055,26.055,0,0,0,10.2,4.9,27.472,27.472,0,0,0,6.277.721,26.274,26.274,0,0,0,14.7-4.378,17.2,17.2,0,0,0,1.535-1.175q1.145.826,2.38,1.556a26.981,26.981,0,0,0,12.971,4h.238a11.687,11.687,0,0,0,8.373-2.994,10.15,10.15,0,0,0,1.459-1.743,11.7,11.7,0,0,0,3.2-10.037,13.475,13.475,0,0,0-2.61-6.611,26.609,26.609,0,0,0,2.6-4.391A32.585,32.585,0,0,0,2054.744,2177.846Z" fill="none" stroke="#000" stroke-linecap="round" stroke-linejoin="round" stroke-width="2.639"/>
          <path id="Path_19554" data-name="Path 19554" d="M1964.178,2097.675a11.076,11.076,0,0,0-.862-.987,17.185,17.185,0,0,0-12.509-5.257h-.154a14.526,14.526,0,0,0-4.639.753,17.68,17.68,0,0,0-3.573,1.72,27.477,27.477,0,0,0-5.077,4.1q-.79.8-1.549,1.662a15.756,15.756,0,0,0-6.535-1.3,22.92,22.92,0,0,0-5.96.8c-.586.161-1.112.332-1.61.523-.384.148-.735.3-1.066.463a8.055,8.055,0,0,0-1.1.628,22.146,22.146,0,0,0-3.859-6.858,14.407,14.407,0,0,0-10.165-4.905c-.409-.025-.825-.037-1.239-.037a33.849,33.849,0,0,0-7.583,1.044,68.666,68.666,0,0,0-6.651,1.787,39.017,39.017,0,0,1-5.205.4q-.515.009-1.024.008c-1.928,0-3.991-.083-6.494-.26-1.575-.112-3.22-.281-4.811-.443-1.051-.108-2.138-.218-3.213-.315-.676-.061-1.36-.092-2.031-.092a18.352,18.352,0,0,0-9.33,2.376,17.052,17.052,0,0,0-5.15,4.673,18.466,18.466,0,0,0-3.748,5.954,21.764,21.764,0,0,0-1.335,5.4,15.855,15.855,0,0,0,.418,6.571,9.9,9.9,0,0,0,5.979,6.524,10.246,10.246,0,0,0,3.563.626,12.376,12.376,0,0,0,4.88-1.048,15.189,15.189,0,0,0,2.539-1.393,66.007,66.007,0,0,1-1.955,6.63c-.207.623-.412,1.241-.611,1.855l-.055.168a11.825,11.825,0,0,0-.714,4.72,10.418,10.418,0,0,0,2.395,5.8,16.9,16.9,0,0,0,6.34,4.551,39.139,39.139,0,0,0,12.223,3.041,37.789,37.789,0,0,0,3.832.218c.707,0,1.4-.028,2.062-.083a8.043,8.043,0,0,0,6.277-3.791,9.152,9.152,0,0,0,2.645-4.633c.4.882.853,1.844,1.358,2.8l.064.12c.649,1.234,2.379,4.518,6.308,5.363a10.445,10.445,0,0,0,2.228.227c.514,0,.957-.031,1.313-.056.107-.007.2-.014.293-.018.253-.014.5-.026.738-.037l.123-.006.415-.02.575-.028.2-.009a47.711,47.711,0,0,0,6.1-.56,13.389,13.389,0,0,0,2.976-.828,7.95,7.95,0,0,0,2.7-1.778l.149-.152.137-.164q.244-.294.442-.582a7.142,7.142,0,0,0,1.167.281,15.837,15.837,0,0,0,2.409.182h.23a15.374,15.374,0,0,0,5.588-1.053l.008,0a7.37,7.37,0,0,0,2.276-1.376,30.816,30.816,0,0,0,3.251,2.21,26.965,26.965,0,0,0,12.971,4l.238,0a11.689,11.689,0,0,0,8.373-3,10.145,10.145,0,0,0,1.459-1.743,11.7,11.7,0,0,0,3.2-10.037,13.484,13.484,0,0,0-2.61-6.611,26.626,26.626,0,0,0,2.6-4.391,32.588,32.588,0,0,0,2.97-10.468,19.132,19.132,0,0,0-2.749-12.7A11.036,11.036,0,0,0,1964.178,2097.675Z" fill="none" stroke="#000" stroke-linecap="round" stroke-linejoin="round" stroke-width="2.639"/>
        </g>
      </g>
    </g>
    <g id="Group_8382" data-name="Group 8382">
      <g id="Group_8340" data-name="Group 8340">
        <path id="Path_19555" data-name="Path 19555" d="M2047.407,2168.025a4.9,4.9,0,0,0-.484-.661,5.547,5.547,0,0,0-.5-.573,11.8,11.8,0,0,0-8.646-3.636h-.124a9.205,9.205,0,0,0-2.916.461,12.333,12.333,0,0,0-2.484,1.206,22.252,22.252,0,0,0-4.08,3.313,31.251,31.251,0,0,0-2.542,2.9,32.843,32.843,0,0,0-4.663,6.786,25.514,25.514,0,0,0-3.119,10.247,16.772,16.772,0,0,0,2.837,10.314,23.333,23.333,0,0,0,7.6,7.044,21.6,21.6,0,0,0,10.286,3.246h.171a6.429,6.429,0,0,0,4.64-1.5,4.9,4.9,0,0,0,.989-1.347,4.566,4.566,0,0,0,.441-.368,6.37,6.37,0,0,0,1.592-5.482c-.127-1.035-.629-3.583-2.525-4.9a2.98,2.98,0,0,0-1.693-.566h-.056a4.023,4.023,0,0,0-1.286.292c-.119.043-.232.083-.329.111-.414.12-.847.219-1.291.3a14.576,14.576,0,0,0,1.489-1.109,16.9,16.9,0,0,0,2.666-2.9,19.849,19.849,0,0,0,3.492-5.209,27.155,27.155,0,0,0,2.48-8.708A13.952,13.952,0,0,0,2047.407,2168.025Zm-19.11,20.735c-.009-.083-.015-.167-.021-.253a7.1,7.1,0,0,1,.916-3.9,3.045,3.045,0,0,1,1.793-.8,1.251,1.251,0,0,1,.139.007,1.279,1.279,0,0,1,1.074,1.465h0v.007h0a3.265,3.265,0,0,1-.512,1.478A9.353,9.353,0,0,1,2028.3,2188.76Z"/>
        <g id="Group_8339" data-name="Group 8339" clip-path="url(#clip-path)">
          <g id="Group_8338" data-name="Group 8338">
            <g id="Group_8337" data-name="Group 8337">
              <path id="Path_19556" data-name="Path 19556" d="M2045.689,2167.654s.089.114.337.426.342.425.343.425Z" fill="url(#linear-gradient)"/>
              <path id="Path_19557" data-name="Path 19557" d="M2046.026,2168.08a10.56,10.56,0,0,0-8.246-3.782h-.113a8.1,8.1,0,0,0-2.557.4,11.235,11.235,0,0,0-2.254,1.1,21.14,21.14,0,0,0-3.869,3.145,31.451,31.451,0,0,0-5.571,7.7,24.572,24.572,0,0,0-2.993,9.786,15.664,15.664,0,0,0,2.648,9.616,22.134,22.134,0,0,0,7.233,6.692,20.207,20.207,0,0,0,9.719,3.086h.158a5.492,5.492,0,0,0,3.851-1.186,5.293,5.293,0,0,0,1.246-4.514,5.932,5.932,0,0,0-2.044-4.1,1.845,1.845,0,0,0-1.039-.36h-.031a5.377,5.377,0,0,0-1.323.359,15.444,15.444,0,0,1-2.5.5,18.5,18.5,0,0,1-2.1.122,16.959,16.959,0,0,1-2.854-.238,10.976,10.976,0,0,1-3.863-1.29,5.059,5.059,0,0,1-1.326-1.137c.477.159.937.377,1.407.556a5.337,5.337,0,0,0,1.428.258q.614.054,1.231.053a14.723,14.723,0,0,0,2.159-.16,13.952,13.952,0,0,0,6.994-3.151,17.814,17.814,0,0,0,4.437-6.009,26.017,26.017,0,0,0,2.376-8.336C2048.548,2174.012,2048.071,2170.624,2046.026,2168.08Zm-11.265,15.695s0-.039.008-.144a5.834,5.834,0,0,1-1.8,3.463,10.458,10.458,0,0,1-4.328,2.756,6.225,6.225,0,0,1-1.935.4,2.889,2.889,0,0,1-.446-.033,6.1,6.1,0,0,0,.949-.386c.13-.082.1-.046.067-.2-.024-.115-.047-.231-.065-.348-.037-.231-.062-.465-.077-.7a8.2,8.2,0,0,1,.512-3.362,7.612,7.612,0,0,1,1.97-2.971,4.363,4.363,0,0,1,2.8-1.3c.08,0,.16,0,.241.011a2.407,2.407,0,0,1,2.113,2.677c.006-.1.009-.141.009-.141Z" fill="url(#linear-gradient-2)"/>
            </g>
            <path id="Path_19558" data-name="Path 19558" d="M2038.092,2166.115a6.441,6.441,0,0,1,8.277,7.091,17.146,17.146,0,0,0-1.146-2.779c-1.382-2.7-4.236-3.9-7.131-4.312Z" fill="#fff"/>
            <path id="Path_19559" data-name="Path 19559" d="M2037.627,2197.905c.622-.174,1.166-.321,1.7-.512a8.312,8.312,0,0,1,2.68-.722,2.29,2.29,0,0,1,2.1,2.015c-.847-.6-1.468-1.152-2.433-.866-.1.018-.292.068-.387.1a4.879,4.879,0,0,1-3.66-.013Z" fill="#fff"/>
          </g>
        </g>
      </g>
      <g id="Group_8344" data-name="Group 8344">
        <path id="Path_19561" data-name="Path 19561" d="M2020.256,2188.906a8.51,8.51,0,0,0,3.585-3.169,11.258,11.258,0,0,0,3.2-8.841,17.533,17.533,0,0,0-3.755-9.89,2.555,2.555,0,0,0-.313-.407l-.363-.411-.362-.41a2.56,2.56,0,0,0-.355-.351,19.39,19.39,0,0,0-13.627-5.584l-.355,0a17.163,17.163,0,0,0-7.978,2.175,20.508,20.508,0,0,0-5.977,5.156c-.147.183-.289.371-.431.559-.34.372-.675.753-1,1.157a29.275,29.275,0,0,0-6.04,15.18c-.659,5.931.291,11.02,2.823,15.127a20.233,20.233,0,0,0,12.577,8.9,22.076,22.076,0,0,0,5.038.578,20.814,20.814,0,0,0,11.653-3.436,10.252,10.252,0,0,0,2.89-2.891,7.768,7.768,0,0,0,2.627-5.886C2024,2192.969,2021.653,2190.233,2020.256,2188.906Zm-21.336,1.34a7.141,7.141,0,0,1-.165-3.363,11.481,11.481,0,0,1,1.355-4.016,6.19,6.19,0,0,1,1.677-1l.187-.074c.413.525.838,1.043,1.279,1.548a24.76,24.76,0,0,0,2.858,2.8,20.6,20.6,0,0,0-2.071.7A12.683,12.683,0,0,0,1998.92,2190.246Z"/>
        <g id="Group_8343" data-name="Group 8343" clip-path="url(#clip-path-2)">
          <g id="Group_8342" data-name="Group 8342">
            <g id="Group_8341" data-name="Group 8341">
              <path id="Path_19562" data-name="Path 19562" d="M2021.224,2166.351s.139.16.523.6.527.592.529.592Z" fill="url(#linear-gradient-3)"/>
              <path id="Path_19563" data-name="Path 19563" d="M1994.845,2167.893a28.389,28.389,0,0,0-5.795,14.591c-.551,4.96,0,10.081,2.66,14.4a19.073,19.073,0,0,0,11.865,8.386,20.9,20.9,0,0,0,4.776.548,19.632,19.632,0,0,0,11.009-3.237c2.053-1.4,3.661-3.5,3.589-6.085a10.189,10.189,0,0,0-3.492-6.773,13.578,13.578,0,0,0-1.5-1.237.485.485,0,0,0-.333-.11l-.118,0c-.154,0-.308.007-.462.007H2017a11.1,11.1,0,0,1-1.111-.062,13.413,13.413,0,0,1-3.856-1q-.419-.177-.825-.38a2.776,2.776,0,0,0-.889-.407l-.084,0a7.008,7.008,0,0,0-.869.1q-.523.069-1.044.163a20.085,20.085,0,0,0-3.856,1.1c-2.266.9-4.729,2.382-5.685,4.75-.933,2.31-.067,5.53,2.325,6.572a6.729,6.729,0,0,0,2.7.493c.41,0,.819-.025,1.22-.064a20.735,20.735,0,0,0,3.839-.792,65.663,65.663,0,0,0,7.178-2.743l1.832-.782a26.836,26.836,0,0,1-5.961,3.3,21.845,21.845,0,0,1-8.165,2c-.167,0-.334,0-.5-.01a6.118,6.118,0,0,1-4.2-1.632,6.565,6.565,0,0,1-1.684-3.872,6.173,6.173,0,0,1,.529-3.248c.066-.145.172-.292.223-.442.043-.13.038-.1-.025-.221-.039-.074-.074-.15-.107-.227a7.778,7.778,0,0,1-.358-4.287,12.45,12.45,0,0,1,1.653-4.675,7.366,7.366,0,0,1,3.513-2.933,13.705,13.705,0,0,1-2.026-4.435c1.6,2.066,3.057,4.25,4.777,6.217a18.12,18.12,0,0,0,7.9,5.594,12.068,12.068,0,0,0,3.618.563,9.12,9.12,0,0,0,5.212-1.5c2.746-1.9,3.762-5.389,3.623-8.59a16.354,16.354,0,0,0-4.15-10,18.215,18.215,0,0,0-13.483-5.963c-.111,0-.222,0-.333,0a15.959,15.959,0,0,0-7.444,2.03A19.459,19.459,0,0,0,1994.845,2167.893Z" fill="url(#linear-gradient-4)"/>
            </g>
            <path id="Path_19564" data-name="Path 19564" d="M2008.931,2161.854c6.423-.6,12.783,4.116,14.365,10.315a20.661,20.661,0,0,0-14.365-10.315Z" fill="#fff"/>
            <path id="Path_19565" data-name="Path 19565" d="M2019.06,2185.876l-.019.01-.005,0h0c0-.007,0,.018-.006-.016.028-.018.093-.056.122-.074a9.938,9.938,0,0,0,4.82-5.611,17.306,17.306,0,0,0,.53-2.632,6.23,6.23,0,0,1-4.106,8.091,5.184,5.184,0,0,1-1.35.243h-.011c-.006-.033.005-.009.006-.016Z" fill="#fff"/>
            <path id="Path_19566" data-name="Path 19566" d="M2017.537,2201.714l-.018.009a.018.018,0,0,1-.016,0c-.007-.026.005-.017,0-.024.05-.051.16-.143.215-.192,3.08-2.526,3.8-4.081,1.909-7.777,3.885,2.741,2.088,7.2-2.094,7.983Z" fill="#fff"/>
            <path id="Path_19567" data-name="Path 19567" d="M2001.548,2178.128a7.539,7.539,0,0,1-2.277,1.978,6.349,6.349,0,0,0-1.82,2.349l-.111-.028a5.375,5.375,0,0,1,1.026-2.641,4.9,4.9,0,0,1,1.474-1.461,2.8,2.8,0,0,1,1.669-.3l.039.108Z" fill="#fff"/>
            <path id="Path_19568" data-name="Path 19568" d="M2000.965,2192.1a6.625,6.625,0,0,1-.684,1.966,3.07,3.07,0,0,0,.1,2.028l-.074.044a2.919,2.919,0,0,1-.7-2.2,2.279,2.279,0,0,1,.321-1.17,1.778,1.778,0,0,1,.976-.731l.061.06Z" fill="#fff"/>
          </g>
        </g>
      </g>
      <g id="Group_8348" data-name="Group 8348">
        <path id="Path_19570" data-name="Path 19570" d="M1992.611,2175.286c-.073-.332-.153-.662-.236-.987a5.5,5.5,0,0,0-.149-.558q-.019-.07-.042-.144l-.019-.065a17.305,17.305,0,0,0-5.421-8.579,11.406,11.406,0,0,0-5.186-2.57,7.986,7.986,0,0,0-1.437-.13,7.6,7.6,0,0,0-4.462,1.42,9.918,9.918,0,0,0-2.447,2.567,10.537,10.537,0,0,0-1.466,1.773c-.076-.062-.148-.112-.2-.15l-.029-.02c-.142-.112-.284-.222-.428-.331a25.2,25.2,0,0,0-2.139-1.453,13.58,13.58,0,0,0-6.887-2.234,7.507,7.507,0,0,0-3.948,1.072,9.1,9.1,0,0,0-2.836,2.8c-2.36,2.241-3.358,5.66-3.913,8.2a43.676,43.676,0,0,0-.769,11.761c.117,2.137.364,4.2.59,5.946a47.2,47.2,0,0,0,1.062,5.808,14.98,14.98,0,0,0,2.216,5.251,6.348,6.348,0,0,0,2.2,1.92,7.145,7.145,0,0,0,1.432.516,8,8,0,0,0,2.069.337,4.079,4.079,0,0,0,.995-.118,2.375,2.375,0,0,0,1.757-1.824,2.631,2.631,0,0,0,1.556-2.644,10.193,10.193,0,0,0-.232-2.235,20.515,20.515,0,0,0,8.438,7.065,12.932,12.932,0,0,0,7.382.766,11.2,11.2,0,0,0,6.177-3.392,15.492,15.492,0,0,0,1.294-1.582c.045-.046.092-.087.135-.133,2.764-2.938,4.53-7.218,5.4-13.085A41.753,41.753,0,0,0,1992.611,2175.286Z"/>
        <g id="Group_8347" data-name="Group 8347" clip-path="url(#clip-path-3)">
          <g id="Group_8346" data-name="Group 8346">
            <g id="Group_8345" data-name="Group 8345">
              <path id="Path_19571" data-name="Path 19571" d="M1991.015,2173.671s.015.051.051.178c.129.444.173.6.173.6Z" fill="url(#linear-gradient-5)"/>
              <path id="Path_19572" data-name="Path 19572" d="M1991.925,2190.092a40.529,40.529,0,0,0-.43-14.558q-.187-.849-.429-1.685a16.173,16.173,0,0,0-5.056-8.019,10.248,10.248,0,0,0-4.657-2.322,6.843,6.843,0,0,0-1.233-.112,6.483,6.483,0,0,0-3.8,1.206c-2.713,1.946-3.939,5.485-4.613,8.616a37.737,37.737,0,0,0-.926,10.569,21.141,21.141,0,0,0,.9,4.982,12.137,12.137,0,0,0,2.064,4.034,3.845,3.845,0,0,0,.316.348,8.633,8.633,0,0,1-2.133-2.758,17.686,17.686,0,0,1-1.674-4.588,32.671,32.671,0,0,1-.309-11.093,30.65,30.65,0,0,1,.79-4.345q.094-.349.2-.7c.052-.171.245-.548.166-.682a1.292,1.292,0,0,0-.3-.24q-.207-.165-.419-.324a23.613,23.613,0,0,0-2.04-1.386,12.754,12.754,0,0,0-6.3-2.071,6.35,6.35,0,0,0-3.354.907c-2.9,1.76-4.113,5.422-4.8,8.555a43.075,43.075,0,0,0-.744,11.455c.107,1.96.33,3.915.583,5.862a46.788,46.788,0,0,0,1.034,5.669,13.985,13.985,0,0,0,2.03,4.858,5.226,5.226,0,0,0,1.8,1.581,6.06,6.06,0,0,0,1.208.43,6.985,6.985,0,0,0,1.772.3,2.879,2.879,0,0,0,.714-.083c.793-.2,1-.938,1.021-1.679a13.492,13.492,0,0,0-.359-2.767c-.174-.96-.318-1.927-.444-2.9a49.882,49.882,0,0,1-.422-5.406,23.7,23.7,0,0,1,.336-4.956,13.51,13.51,0,0,1,.459-1.726,19.312,19.312,0,0,0-.174,5.64,4.363,4.363,0,0,0,.1.818,6.868,6.868,0,0,0,.277.7c.152.362.316.72.489,1.073a30.153,30.153,0,0,0,1.485,2.681c2.274,3.665,5.4,7.241,9.472,8.927a11.874,11.874,0,0,0,4.537.905,11.664,11.664,0,0,0,2.193-.207,10.109,10.109,0,0,0,5.559-3.052C1989.952,2199.239,1991.274,2194.5,1991.925,2190.092Z" fill="url(#linear-gradient-6)"/>
            </g>
            <path id="Path_19573" data-name="Path 19573" d="M1978.532,2164.917c2.43-1,5.335.049,7.213,1.741a12.66,12.66,0,0,1,3.268,4.687c.747,2.156.812,2.2-.493.269-2.353-3.371-5.548-6.791-9.988-6.7Z" fill="#fff"/>
            <path id="Path_19574" data-name="Path 19574" d="M1978.155,2204.579c4.442.094,7.636-3.325,9.989-6.7,1.283-1.9,1.256-1.926.492.269a12.642,12.642,0,0,1-3.267,4.688c-1.878,1.691-4.783,2.74-7.214,1.74Z" fill="#fff"/>
            <path id="Path_19575" data-name="Path 19575" d="M1957.146,2170.419a5.255,5.255,0,0,1,1.233-2.907c2.257-2.727,6.39-1.917,8.824.1-1.006-.272-1.975-.561-2.947-.723-3.241-.622-5.584.613-7.11,3.529Z" fill="#fff"/>
            <path id="Path_19576" data-name="Path 19576" d="M1962.335,2203.617a2.958,2.958,0,0,1-.975-1.55,11.27,11.27,0,0,1-.127-2.592c.026-.857.088-1.713.192-2.563l.114,0,.6,3.331a7.517,7.517,0,0,1,.289,3.316l-.1.061Z" fill="#fff"/>
          </g>
        </g>
      </g>
      <g id="Group_8359" data-name="Group 8359">
        <g id="Group_8352" data-name="Group 8352">
          <path id="Path_19578" data-name="Path 19578" d="M1960.433,2101.714a5.014,5.014,0,0,0-.484-.661,5.418,5.418,0,0,0-.5-.572,11.8,11.8,0,0,0-8.646-3.637h-.124a9.205,9.205,0,0,0-2.916.461,12.364,12.364,0,0,0-2.485,1.206,22.28,22.28,0,0,0-4.079,3.313,31.251,31.251,0,0,0-2.542,2.9,32.851,32.851,0,0,0-4.663,6.787,25.508,25.508,0,0,0-3.119,10.246,16.772,16.772,0,0,0,2.837,10.314,23.345,23.345,0,0,0,7.6,7.045,21.609,21.609,0,0,0,10.287,3.245h.171a6.424,6.424,0,0,0,4.64-1.5,4.9,4.9,0,0,0,.989-1.346,4.693,4.693,0,0,0,.44-.369,6.366,6.366,0,0,0,1.593-5.482c-.127-1.035-.629-3.583-2.526-4.9a2.975,2.975,0,0,0-1.692-.566h-.056a4.023,4.023,0,0,0-1.286.292c-.119.043-.232.083-.33.111-.413.12-.846.219-1.29.3a14.871,14.871,0,0,0,1.489-1.109,16.946,16.946,0,0,0,2.666-2.9,19.813,19.813,0,0,0,3.492-5.209,27.154,27.154,0,0,0,2.48-8.708A13.951,13.951,0,0,0,1960.433,2101.714Zm-19.11,20.735q-.014-.125-.021-.252a7.086,7.086,0,0,1,.916-3.9,3.04,3.04,0,0,1,1.793-.8c.047,0,.093,0,.139.006a1.279,1.279,0,0,1,1.074,1.465h0v.008h0a3.261,3.261,0,0,1-.512,1.477A9.358,9.358,0,0,1,1941.323,2122.449Z"/>
          <g id="Group_8351" data-name="Group 8351" clip-path="url(#clip-path-4)">
            <g id="Group_8350" data-name="Group 8350">
              <g id="Group_8349" data-name="Group 8349">
                <path id="Path_19579" data-name="Path 19579" d="M1958.715,2101.343s.089.114.337.426.342.425.343.425Z" fill="url(#linear-gradient-7)"/>
                <path id="Path_19580" data-name="Path 19580" d="M1959.052,2101.769a10.556,10.556,0,0,0-8.246-3.781h-.113a8.124,8.124,0,0,0-2.557.4,11.248,11.248,0,0,0-2.254,1.1,21.151,21.151,0,0,0-3.869,3.146,31.4,31.4,0,0,0-5.571,7.695,24.578,24.578,0,0,0-2.993,9.786,15.66,15.66,0,0,0,2.648,9.616,22.124,22.124,0,0,0,7.233,6.692,20.2,20.2,0,0,0,9.719,3.086h.157a5.493,5.493,0,0,0,3.852-1.186,5.293,5.293,0,0,0,1.246-4.514,5.927,5.927,0,0,0-2.044-4.1,1.838,1.838,0,0,0-1.039-.361h-.031a5.421,5.421,0,0,0-1.323.359,15.418,15.418,0,0,1-2.5.5,18.455,18.455,0,0,1-2.1.122,16.959,16.959,0,0,1-2.854-.238,10.976,10.976,0,0,1-3.863-1.29,5.023,5.023,0,0,1-1.326-1.137c.477.159.937.378,1.407.556a5.337,5.337,0,0,0,1.428.258c.408.036.82.053,1.231.053a14.723,14.723,0,0,0,2.159-.16,13.952,13.952,0,0,0,6.994-3.151,17.81,17.81,0,0,0,4.437-6.008,26,26,0,0,0,2.375-8.337C1961.574,2107.7,1961.1,2104.313,1959.052,2101.769Zm-11.265,15.7s0-.038.008-.144a5.832,5.832,0,0,1-1.8,3.463,10.458,10.458,0,0,1-4.328,2.756,6.225,6.225,0,0,1-1.935.4,2.889,2.889,0,0,1-.446-.033,5.892,5.892,0,0,0,.949-.386c.13-.082.1-.046.067-.2-.024-.115-.047-.231-.065-.347-.037-.232-.062-.466-.077-.7a8.2,8.2,0,0,1,.512-3.362,7.6,7.6,0,0,1,1.97-2.97,4.359,4.359,0,0,1,2.8-1.3c.08,0,.16,0,.241.011a2.407,2.407,0,0,1,2.113,2.677c.006-.1.009-.141.009-.141Z" fill="url(#linear-gradient-2)"/>
              </g>
              <path id="Path_19581" data-name="Path 19581" d="M1951.118,2099.8a6.441,6.441,0,0,1,8.277,7.09,17.243,17.243,0,0,0-1.146-2.779c-1.382-2.7-4.236-3.9-7.131-4.311Z" fill="#fff"/>
              <path id="Path_19582" data-name="Path 19582" d="M1950.653,2131.595c.622-.175,1.166-.322,1.7-.513a8.33,8.33,0,0,1,2.68-.722,2.29,2.29,0,0,1,2.1,2.016c-.847-.6-1.468-1.153-2.433-.867-.1.018-.292.068-.388.1a4.881,4.881,0,0,1-3.659-.012Z" fill="#fff"/>
            </g>
          </g>
        </g>
        <g id="Group_8354" data-name="Group 8354">
          <path id="Path_19584" data-name="Path 19584" d="M1936.71,2109.445a11.917,11.917,0,0,0-.19-1.179l-.006-.047a1.9,1.9,0,0,0-.087-.35c-.007-.025-.016-.054-.026-.088l-.02-.069c-.711-2.529-3.233-3.924-7.1-3.924a17.272,17.272,0,0,0-1.912.108,17.062,17.062,0,0,0-2.614.5c-.409.112-.769.229-1.1.356a6.685,6.685,0,0,0-.652.285l-.022.01a1.562,1.562,0,0,0-.822.727,1.465,1.465,0,0,0-.119.767c-.173.07-.324.139-.466.211l-.023.01a1.57,1.57,0,0,0-.822.727,1.624,1.624,0,0,0-.1.94l0,.028.009.268.01.3c.007.213.016.425.024.637.1,2.32.206,4.616.3,6.557l.1,2.048.032.656-.089.006c-.143.01-.287.024-.431.038-.222.022-.432.043-.62.043a1.911,1.911,0,0,1-.2-.009.656.656,0,0,1-.481-.247,1.634,1.634,0,0,1-.073-.2c-.022-.068-.044-.138-.069-.208-.057-.16-.14-.414-.189-.592-.352-1.287-.718-2.558-1-3.522-.482-1.661-.979-3.347-1.459-4.977l-.441-1.5c-.077-.259-.152-.519-.228-.778-.338-1.161-.689-2.361-1.088-3.536a18.074,18.074,0,0,0-3.153-5.972,8.917,8.917,0,0,0-6.393-3.039c-.3-.018-.6-.027-.913-.027a29.173,29.173,0,0,0-6.388.911,56.979,56.979,0,0,0-7.02,1.948,15.7,15.7,0,0,0-3.273,1.556,5.069,5.069,0,0,0-1.92,2.06,3.9,3.9,0,0,0-1.7,2.913,6.306,6.306,0,0,0,1.5,3.708l.015.021c.329.474.67.931.964,1.323,1.842,2.453,3.964,5.319,5.826,8.286a122.81,122.81,0,0,1,6.735,12.488c1.074,2.24,2.138,4.573,3.077,6.631l.131.287c.451.99.917,2.013,1.443,3l.068.13c.479.909,1.2,2.283,2.659,2.6a5.2,5.2,0,0,0,1.09.1c.327,0,.639-.022.941-.042.128-.009.257-.018.383-.025.294-.016.587-.03.881-.044l.414-.02.78-.037a43.033,43.033,0,0,0,5.423-.485,8.25,8.25,0,0,0,1.806-.484,2.7,2.7,0,0,0,.93-.577,1.791,1.791,0,0,0,.4-.71c.021-.135.035-.271.047-.407.018-.008.037-.013.056-.021a2.706,2.706,0,0,0,.929-.577,1.791,1.791,0,0,0,.4-.71,9.958,9.958,0,0,0-.041-2.6c-.019-.179-.038-.357-.054-.532l-.048-.519c-.084-.912-.171-1.855-.226-2.775a24.393,24.393,0,0,1-.023-3.28,8.515,8.515,0,0,1,.216-1.441,1.458,1.458,0,0,1,.24-.023,1.3,1.3,0,0,1,1.089.576,6.792,6.792,0,0,1,.873,2.572c.162.863.289,1.759.411,2.627.036.258.073.517.11.775l.048.333a13.163,13.163,0,0,0,.73,3.18l.014.034a1.891,1.891,0,0,0,1.42,1.32,10.619,10.619,0,0,0,1.587.118h.162a9.986,9.986,0,0,0,3.644-.665l.043-.017a1.67,1.67,0,0,0,.91-.711,1.589,1.589,0,0,0,.176-.516l0-.014c.032-.125.061-.253.091-.379.069-.026.14-.051.208-.079l.043-.016a1.67,1.67,0,0,0,.909-.711,1.59,1.59,0,0,0,.176-.516l0-.014c.057-.227.112-.457.165-.687.745-3.217,1.4-6.694,2-10.63.413-2.718.692-4.956.876-7.042A35.743,35.743,0,0,0,1936.71,2109.445Z"/>
          <g id="Group_8353" data-name="Group 8353">
            <path id="Path_19585" data-name="Path 19585" d="M1923.744,2118.544h0l-.005-.049Z" fill="url(#linear-gradient-9)"/>
            <path id="Path_19586" data-name="Path 19586" d="M1935.479,2116.494a34.4,34.4,0,0,0,.095-6.919,9.586,9.586,0,0,0-.292-1.549c-.7-2.484-3.549-3.095-6-3.095a16.284,16.284,0,0,0-1.786.1,15.894,15.894,0,0,0-2.437.461c-.337.093-.67.2-1,.322a5.682,5.682,0,0,0-.544.237c-.082.041-.288.123-.328.207a1.231,1.231,0,0,0,.014.41c.006.2.013.4.019.6s.016.419.024.628q.137,3.275.3,6.548.1,2.049.2,4.1c.076.916-.985,1.331-1.723,1.445-.306.047-.617.058-.926.08-.374.026-.753.083-1.13.083a3.022,3.022,0,0,1-.315-.015,1.757,1.757,0,0,1-1.319-.758,2.812,2.812,0,0,1-.263-.656c-.058-.165-.154-.452-.214-.672-.32-1.171-.655-2.339-.993-3.506-.627-2.159-1.265-4.315-1.9-6.472-.42-1.427-.823-2.861-1.3-4.269a16.7,16.7,0,0,0-2.936-5.593,7.785,7.785,0,0,0-5.6-2.645q-.422-.025-.844-.025a28.03,28.03,0,0,0-6.136.883,57.044,57.044,0,0,0-6.882,1.907,14.475,14.475,0,0,0-3.034,1.437,3.133,3.133,0,0,0-1.681,2.337,5.447,5.447,0,0,0,1.309,3.042c.3.437.621.864.94,1.289,2.049,2.728,4.065,5.473,5.88,8.365a126.224,126.224,0,0,1,6.8,12.6c1.057,2.2,2.072,4.427,3.087,6.651.495,1.085.985,2.177,1.544,3.232.43.812.97,1.931,1.957,2.144a4.081,4.081,0,0,0,.849.079c.423,0,.85-.043,1.264-.065.433-.023.866-.043,1.3-.064a49.352,49.352,0,0,0,6.062-.506,7.225,7.225,0,0,0,1.559-.411,1.693,1.693,0,0,0,.557-.323c.02-.021.069-.1.082-.1s0,0,0,.011a11.8,11.8,0,0,0-.1-2.851c-.1-1.109-.209-2.217-.276-3.329a25.252,25.252,0,0,1-.022-3.436,6.393,6.393,0,0,1,.836-3.036,2.626,2.626,0,0,1,2.189-1.2,2.448,2.448,0,0,1,2.025,1.063,7.677,7.677,0,0,1,1.061,3.018c.215,1.143.362,2.3.529,3.449a13.738,13.738,0,0,0,.7,3.243c.112.275.236.609.549.657a9.285,9.285,0,0,0,1.413.106h.146a8.961,8.961,0,0,0,3.226-.58c.133-.055.323-.111.393-.234a.953.953,0,0,0,.059-.229c.057-.226.112-.454.164-.682.807-3.482,1.443-7.01,1.98-10.543C1934.963,2121.151,1935.273,2118.826,1935.479,2116.494Z" fill="url(#linear-gradient-10)"/>
            <path id="Path_19587" data-name="Path 19587" d="M1935.274,2108l.008.029.1.344Z" fill="url(#linear-gradient-11)"/>
          </g>
          <path id="Path_19588" data-name="Path 19588" d="M1902.051,2097.011c3.923-1.627,8.955.6,9.08,5.171a12.425,12.425,0,0,0-1.586-2.334c-1.9-2.123-4.751-2.634-7.494-2.837Z" fill="#fff"/>
          <path id="Path_19589" data-name="Path 19589" d="M1929.975,2106.266a3.043,3.043,0,0,1,4.062.93,4.786,4.786,0,0,1,.444,4.214c-.236-.677-.4-1.323-.611-1.929a4.033,4.033,0,0,0-3.9-3.215Z" fill="#fff"/>
          <path id="Path_19590" data-name="Path 19590" d="M1914.641,2138.279c1.083-.5,2.215-.637,3.221-1.165.094-.061.091-.062.131-.133a4.663,4.663,0,0,0,.025-1.734,12.1,12.1,0,0,1-.061-2.111c.619,1.246,2.054,3.866.535,4.933a4.947,4.947,0,0,1-3.851.21Z" fill="#fff"/>
          <path id="Path_19591" data-name="Path 19591" d="M1928.172,2134.63c.784-.453,1.564-.606,2.326-.966a.592.592,0,0,0,.148-.112c.533-.584.627-1.718,1.01-2.513.484,1.163.651,2.91-.63,3.634a3.537,3.537,0,0,1-2.854-.043Z" fill="#fff"/>
        </g>
        <g id="Group_8358" data-name="Group 8358">
          <path id="Path_19592" data-name="Path 19592" d="M1900.357,2099.125a5.78,5.78,0,0,0-1.348-1.488,2.89,2.89,0,0,0-.437-.312,2.618,2.618,0,0,0-.539-.289,6.214,6.214,0,0,0-2.719-.573,8.373,8.373,0,0,0-.925.052,14.046,14.046,0,0,0-1.594.3c-.281.064-.546.124-.81.174a42,42,0,0,1-7.051.642q-.556.009-1.113.009c-2.06,0-4.245-.087-6.877-.274-1.658-.118-3.346-.291-4.978-.458-1.031-.1-2.1-.214-3.149-.308-.519-.047-1.039-.071-1.545-.071a13.007,13.007,0,0,0-6.616,1.648,11.585,11.585,0,0,0-3.695,3.465,12.86,12.86,0,0,0-2.874,4.443,16.367,16.367,0,0,0-1,4.058,10.634,10.634,0,0,0,.217,4.363,4.478,4.478,0,0,0,2.679,3.032,4.847,4.847,0,0,0,1.687.291,7.018,7.018,0,0,0,2.751-.612,9.865,9.865,0,0,0,1.836-1.04c.3-.214.573-.438.838-.655.234-.192.455-.374.68-.537a10.4,10.4,0,0,1,2.893-1.478,11.42,11.42,0,0,1,3.464-.569c.108,0,.214,0,.32.006l.012.045c1.4,5.326-.427,10.827-2.193,16.146-.2.611-.4,1.217-.6,1.818l-.058.18a6.662,6.662,0,0,0-.462,2.632,4.977,4.977,0,0,0,1.19,2.785,11.624,11.624,0,0,0,4.358,3.033,33.885,33.885,0,0,0,10.554,2.595,32.734,32.734,0,0,0,3.29.191c.561,0,1.1-.022,1.615-.064a2.867,2.867,0,0,0,2.512-2.014c1.725-.884,1.86-3.416,1.916-4.469a28.582,28.582,0,0,0-.363-5.539c-.245-1.7-.592-3.505-1.06-5.523-.433-1.87-.909-3.705-1.414-5.453-.119-.41-.247-.823-.371-1.223a19.726,19.726,0,0,1-.906-3.749c-.012-.12-.019-.232-.023-.341l.14-.006h.062a10.278,10.278,0,0,1,1.393.133l.438.059a21.556,21.556,0,0,0,2.71.209,10.018,10.018,0,0,0,2.311-.247,5.392,5.392,0,0,0,3.627-2.753,5.605,5.605,0,0,0,1.7-2.276,12.26,12.26,0,0,0,.828-4.536A9.593,9.593,0,0,0,1900.357,2099.125Z"/>
          <g id="Group_8357" data-name="Group 8357" clip-path="url(#clip-path-5)">
            <g id="Group_8356" data-name="Group 8356">
              <g id="Group_8355" data-name="Group 8355">
                <path id="Path_19593" data-name="Path 19593" d="M1897.7,2098.13s.067.046.264.172.268.162.271.162S1897.7,2098.13,1897.7,2098.13Z" fill="url(#linear-gradient-12)"/>
                <path id="Path_19594" data-name="Path 19594" d="M1899.775,2108.668a11.358,11.358,0,0,0,.739-4.117,8.571,8.571,0,0,0-1.12-4.809,4.523,4.523,0,0,0-1.434-1.44,4.87,4.87,0,0,0-2.646-.7,7.354,7.354,0,0,0-.8.045c-.785.087-1.545.315-2.319.46a43.206,43.206,0,0,1-7.243.661q-.567.009-1.132.009c-2.322,0-4.643-.112-6.958-.277-2.723-.193-5.43-.523-8.148-.768-.479-.043-.961-.065-1.443-.065a11.99,11.99,0,0,0-6.043,1.493,11.035,11.035,0,0,0-4.647,5.619,15.3,15.3,0,0,0-.931,3.774,9.548,9.548,0,0,0,.174,3.9,3.385,3.385,0,0,0,1.982,2.294,3.7,3.7,0,0,0,1.291.22,5.972,5.972,0,0,0,2.3-.52,8.711,8.711,0,0,0,1.621-.919c.522-.373.992-.811,1.511-1.187a11.6,11.6,0,0,1,3.212-1.64,12.54,12.54,0,0,1,3.816-.624,8.932,8.932,0,0,1,3.18.548,4.6,4.6,0,0,1,.963.471c-.9-.048-1.8-.095-2.7-.116,1.652,6.291-.891,12.684-2.809,18.608a6.183,6.183,0,0,0-.469,2.373,3.906,3.906,0,0,0,.937,2.148,10.53,10.53,0,0,0,3.939,2.712,33.241,33.241,0,0,0,10.2,2.5c1.05.1,2.115.184,3.177.184.508,0,1.015-.018,1.519-.06,1.7-.142,1.882-2.37,1.952-3.688a27.353,27.353,0,0,0-.352-5.315c-.264-1.825-.626-3.634-1.042-5.429s-.884-3.61-1.4-5.393a30.164,30.164,0,0,1-1.315-5.173,3.358,3.358,0,0,1,.479-2.4,2.688,2.688,0,0,1,2.188-.925h.079a15.59,15.59,0,0,1,1.975.2,20.46,20.46,0,0,0,2.565.2,8.931,8.931,0,0,0,2.051-.217A4.309,4.309,0,0,0,1899.775,2108.668Z" fill="url(#linear-gradient-13)"/>
              </g>
              <path id="Path_19595" data-name="Path 19595" d="M1885.222,2137.644c2.974.164,4.792.184,4.745-3.4a17.555,17.555,0,0,0-.229-2.629l.11-.028a14.636,14.636,0,0,1,.689,2.615c.388,1.958-.3,4.578-2.706,4.572a4.082,4.082,0,0,1-2.656-1.023l.047-.1Z" fill="#fff"/>
              <path id="Path_19596" data-name="Path 19596" d="M1892.16,2099.738c2.683-2.209,6.316-1.7,7.212,1.974a9.123,9.123,0,0,1,.04,3.916c-.213-1.019-.384-2.017-.663-2.961-.978-3.615-3.285-3.956-6.589-2.929Z" fill="#fff"/>
            </g>
          </g>
        </g>
      </g>
      <g id="Group_8363" data-name="Group 8363">
        <path id="Path_19598" data-name="Path 19598" d="M1958.846,2168.025a4.923,4.923,0,0,0-.485-.661,5.439,5.439,0,0,0-.5-.573,11.8,11.8,0,0,0-8.646-3.636h-.125a9.2,9.2,0,0,0-2.915.461,12.339,12.339,0,0,0-2.485,1.206,22.248,22.248,0,0,0-4.079,3.313,30.966,30.966,0,0,0-2.542,2.9,32.8,32.8,0,0,0-4.663,6.786,25.5,25.5,0,0,0-3.119,10.247,16.765,16.765,0,0,0,2.837,10.314,23.33,23.33,0,0,0,7.6,7.044,21.6,21.6,0,0,0,10.286,3.246h.172a6.43,6.43,0,0,0,4.64-1.5,4.894,4.894,0,0,0,.989-1.347,4.554,4.554,0,0,0,.44-.368,6.37,6.37,0,0,0,1.593-5.482c-.128-1.035-.629-3.583-2.526-4.9a2.975,2.975,0,0,0-1.693-.566h-.055a4.023,4.023,0,0,0-1.286.292c-.12.043-.233.083-.33.111-.414.12-.846.219-1.29.3a14.564,14.564,0,0,0,1.488-1.109,16.874,16.874,0,0,0,2.667-2.9,19.875,19.875,0,0,0,3.492-5.209,27.151,27.151,0,0,0,2.48-8.708A13.957,13.957,0,0,0,1958.846,2168.025Zm-19.11,20.735c-.009-.083-.016-.167-.021-.253a7.115,7.115,0,0,1,.915-3.9,3.045,3.045,0,0,1,1.794-.8,1.233,1.233,0,0,1,.138.007,1.279,1.279,0,0,1,1.075,1.465h0v.007h0a3.262,3.262,0,0,1-.511,1.478A9.361,9.361,0,0,1,1939.736,2188.76Z"/>
        <g id="Group_8362" data-name="Group 8362" clip-path="url(#clip-path-6)">
          <g id="Group_8361" data-name="Group 8361">
            <g id="Group_8360" data-name="Group 8360">
              <path id="Path_19599" data-name="Path 19599" d="M1957.127,2167.654l.337.426c.25.311.342.425.343.425Z" fill="url(#linear-gradient-14)"/>
              <path id="Path_19600" data-name="Path 19600" d="M1957.464,2168.08a10.556,10.556,0,0,0-8.245-3.782h-.113a8.106,8.106,0,0,0-2.558.4,11.287,11.287,0,0,0-2.254,1.1,21.166,21.166,0,0,0-3.868,3.145,31.458,31.458,0,0,0-5.572,7.7,24.6,24.6,0,0,0-2.993,9.786,15.671,15.671,0,0,0,2.649,9.616,22.124,22.124,0,0,0,7.233,6.692,20.2,20.2,0,0,0,9.719,3.086h.157a5.5,5.5,0,0,0,3.852-1.186,5.294,5.294,0,0,0,1.246-4.514,5.933,5.933,0,0,0-2.044-4.1,1.848,1.848,0,0,0-1.04-.36h-.031a5.367,5.367,0,0,0-1.322.359,15.464,15.464,0,0,1-2.5.5,18.524,18.524,0,0,1-2.1.122,16.96,16.96,0,0,1-2.854-.238,10.982,10.982,0,0,1-3.864-1.29,5.074,5.074,0,0,1-1.326-1.137c.478.159.938.377,1.408.556a5.337,5.337,0,0,0,1.427.258q.614.054,1.231.053a14.7,14.7,0,0,0,2.159-.16,13.945,13.945,0,0,0,6.994-3.151,17.8,17.8,0,0,0,4.437-6.009,25.967,25.967,0,0,0,2.376-8.336C1959.986,2174.012,1959.509,2170.624,1957.464,2168.08Zm-11.265,15.695s0-.039.008-.144a5.833,5.833,0,0,1-1.8,3.463,10.462,10.462,0,0,1-4.329,2.756,6.219,6.219,0,0,1-1.935.4,2.878,2.878,0,0,1-.445-.033,6.141,6.141,0,0,0,.949-.386c.13-.082.1-.046.067-.2q-.037-.172-.066-.348c-.037-.231-.062-.465-.076-.7a8.179,8.179,0,0,1,.512-3.362,7.61,7.61,0,0,1,1.97-2.971,4.36,4.36,0,0,1,2.8-1.3,2.363,2.363,0,0,1,2.354,2.688c.007-.1.009-.141.01-.141Z" fill="url(#linear-gradient-2)"/>
            </g>
            <path id="Path_19601" data-name="Path 19601" d="M1949.531,2166.115a6.441,6.441,0,0,1,8.276,7.091,17.059,17.059,0,0,0-1.146-2.779c-1.382-2.7-4.235-3.9-7.13-4.312Z" fill="#fff"/>
            <path id="Path_19602" data-name="Path 19602" d="M1949.066,2197.905c.622-.174,1.166-.321,1.7-.512a8.319,8.319,0,0,1,2.68-.722,2.289,2.289,0,0,1,2.1,2.015c-.847-.6-1.467-1.152-2.432-.866-.1.018-.293.068-.388.1a4.876,4.876,0,0,1-3.659-.013Z" fill="#fff"/>
          </g>
        </g>
      </g>
      <g id="Group_8367" data-name="Group 8367">
        <path id="Path_19604" data-name="Path 19604" d="M1939.427,2187.63a6.422,6.422,0,0,0-1.977-2.443l-.01-.009-.011-.008-.014-.01-.083-.065h0l-.005,0h0a5.084,5.084,0,0,0-.783-.54,15.915,15.915,0,0,0-5-1.961,20,20,0,0,0-3.352-.432c-.352-.019-.67-.028-.971-.028a10.188,10.188,0,0,0-2.324.241,8.7,8.7,0,0,0-5.144,3.8l-.019.029a11.427,11.427,0,0,0-1.41,1.687c-.242.349-.473.7-.7,1.046-.272.416-.533.81-.806,1.193a17.672,17.672,0,0,1,.014-3.51,62.143,62.143,0,0,1,2.443-11.227l.135-.475q.176-.623.358-1.246a47.124,47.124,0,0,0,1.317-5.3l0-.024a5.884,5.884,0,0,0,.065-2.335,3.474,3.474,0,0,0-2.439-2.351,10.515,10.515,0,0,0-3.639-.589,18.51,18.51,0,0,0-3.413.346,14.614,14.614,0,0,0-5.725,2.19,4.868,4.868,0,0,0-1.47,1.748,5.753,5.753,0,0,0-1.854,2.653,15.662,15.662,0,0,0-.845,3.375,36.978,36.978,0,0,0-.313,6.846,64.828,64.828,0,0,0,1.938,13.708c.979,3.888,2.444,8.27,5.875,11.3a13.614,13.614,0,0,0,5.617,2.944,15.557,15.557,0,0,0,3.85.5,12.582,12.582,0,0,0,2.877-.323c3.691-.867,7.393-3.2,11.006-6.93a32.638,32.638,0,0,0,2.366-2.726,27.664,27.664,0,0,0,3.109-4.16C1939.342,2192.464,1940.474,2190.02,1939.427,2187.63Z"/>
        <g id="Group_8366" data-name="Group 8366" clip-path="url(#clip-path-7)">
          <g id="Group_8365" data-name="Group 8365">
            <g id="Group_8364" data-name="Group 8364">
              <path id="Path_19605" data-name="Path 19605" d="M1936.787,2186.118l-.148-.113c.035.026.069.053.1.08Z" fill="url(#linear-gradient-16)"/>
              <path id="Path_19606" data-name="Path 19606" d="M1936.135,2185.625l.357.271.147.109Z" fill="url(#linear-gradient-17)"/>
              <path id="Path_19607" data-name="Path 19607" d="M1933.229,2198.914a27.758,27.758,0,0,0,3.888-4.963c1.015-1.691,2.127-3.888,1.263-5.863a5.353,5.353,0,0,0-1.638-2l-.25-.189a14.1,14.1,0,0,0-5.2-2.189,19.114,19.114,0,0,0-3.164-.406c-.3-.016-.6-.026-.909-.026a9.111,9.111,0,0,0-2.065.21,7.667,7.667,0,0,0-4.463,3.338c-.563.815-1.07,1.663-1.657,2.462s-1.206,1.551-1.842,2.3a27.626,27.626,0,0,1-3.583,3.686q.476-.7.951-1.41.361-.541.724-1.082.213-.318.425-.637a1.7,1.7,0,0,0,.211-.32.468.468,0,0,0-.021-.272,16.242,16.242,0,0,1-.2-5.032,65.644,65.644,0,0,1,2.616-11.912,60.823,60.823,0,0,0,1.648-6.428,5.076,5.076,0,0,0,.086-1.9,2.483,2.483,0,0,0-1.724-1.548,9.388,9.388,0,0,0-3.243-.519,17.687,17.687,0,0,0-3.2.327,13.637,13.637,0,0,0-5.278,2,4.6,4.6,0,0,0-1.485,2.165,14.673,14.673,0,0,0-.78,3.131,36.282,36.282,0,0,0-.3,6.638,63.836,63.836,0,0,0,1.9,13.466c.992,3.937,2.394,7.959,5.523,10.722a12.393,12.393,0,0,0,5.144,2.693,14.445,14.445,0,0,0,3.567.466,11.419,11.419,0,0,0,2.615-.292C1926.821,2204.578,1930.394,2201.843,1933.229,2198.914Z" fill="url(#linear-gradient-18)"/>
            </g>
            <path id="Path_19608" data-name="Path 19608" d="M1914.121,2165.2c1.48-.35,3.551-.347,4.644.946a1.756,1.756,0,0,1,.353.946,8.136,8.136,0,0,1-.645,3.848c-.342.943-.683,1.879-1.043,2.812l-.11-.031c.179-.984.4-1.96.589-2.937.246-1.307.58-2.547.085-3.744a2.5,2.5,0,0,0-1.121-.775c-.829-.364-1.784-.616-2.754-.95l0-.115Z" fill="#fff"/>
            <path id="Path_19609" data-name="Path 19609" d="M1936.114,2186.86a5,5,0,0,1,.988,3.684,7.74,7.74,0,0,1-.64,2.515,6.921,6.921,0,0,1-.591,1.141,22.113,22.113,0,0,1-4.072,4.765c-.258.246-.649.6-.933.819-.569.435-1.365,1.125-1.955,1.519q-1.013.711-2.031,1.405l-.066-.093c1.232-1.041,2.525-2.109,3.668-3.254a11.686,11.686,0,0,0,.857-.867,26.1,26.1,0,0,0,2.333-2.781c.12-.186.7-1.093.807-1.26.2-.382.467-.938.667-1.32l.221-.54a12.136,12.136,0,0,0,.806-2.472c.027-.275.084-.584.107-.86a5.982,5.982,0,0,0-.26-2.336l.094-.065Z" fill="#fff"/>
          </g>
        </g>
      </g>
      <g id="Group_8371" data-name="Group 8371">
        <path id="Path_19611" data-name="Path 19611" d="M1918.35,2187.63a6.423,6.423,0,0,0-1.977-2.443l-.011-.009-.01-.008-.015-.01c-.031-.026-.06-.048-.083-.065h0l0,0h0a5.092,5.092,0,0,0-.783-.54,15.916,15.916,0,0,0-5-1.961,19.994,19.994,0,0,0-3.352-.432c-.352-.019-.67-.028-.971-.028a10.188,10.188,0,0,0-2.324.241,8.7,8.7,0,0,0-5.144,3.8l-.019.029a11.427,11.427,0,0,0-1.41,1.687c-.242.349-.473.7-.7,1.046-.272.416-.533.81-.806,1.193a17.664,17.664,0,0,1,.014-3.51,62.133,62.133,0,0,1,2.443-11.227l.135-.475q.175-.623.358-1.246a47.1,47.1,0,0,0,1.317-5.3l0-.024a5.9,5.9,0,0,0,.065-2.335,3.476,3.476,0,0,0-2.439-2.351,10.519,10.519,0,0,0-3.639-.589,18.529,18.529,0,0,0-3.414.346,14.616,14.616,0,0,0-5.724,2.19,4.866,4.866,0,0,0-1.47,1.748,5.752,5.752,0,0,0-1.854,2.653,15.654,15.654,0,0,0-.845,3.375,36.978,36.978,0,0,0-.313,6.846,64.828,64.828,0,0,0,1.938,13.708c.979,3.888,2.444,8.27,5.875,11.3a13.614,13.614,0,0,0,5.617,2.944,15.558,15.558,0,0,0,3.85.5,12.582,12.582,0,0,0,2.877-.323c3.691-.867,7.393-3.2,11.006-6.93a32.659,32.659,0,0,0,2.366-2.726,27.664,27.664,0,0,0,3.109-4.16C1918.265,2192.464,1919.4,2190.02,1918.35,2187.63Z"/>
        <g id="Group_8370" data-name="Group 8370" clip-path="url(#clip-path-8)">
          <g id="Group_8369" data-name="Group 8369">
            <g id="Group_8368" data-name="Group 8368">
              <path id="Path_19612" data-name="Path 19612" d="M1915.71,2186.118l-.148-.113c.035.026.069.053.1.08Z" fill="url(#linear-gradient-19)"/>
              <path id="Path_19613" data-name="Path 19613" d="M1915.058,2185.625l.357.271.147.109Z" fill="url(#linear-gradient-20)"/>
              <path id="Path_19614" data-name="Path 19614" d="M1912.152,2198.914a27.758,27.758,0,0,0,3.888-4.963c1.014-1.691,2.127-3.888,1.263-5.863a5.352,5.352,0,0,0-1.638-2l-.25-.189a14.1,14.1,0,0,0-5.2-2.189,19.089,19.089,0,0,0-3.163-.406c-.3-.016-.6-.026-.909-.026a9.111,9.111,0,0,0-2.065.21,7.667,7.667,0,0,0-4.463,3.338c-.564.815-1.07,1.663-1.657,2.462s-1.206,1.551-1.842,2.3a27.626,27.626,0,0,1-3.583,3.686q.476-.7.951-1.41.361-.541.724-1.082.213-.318.425-.637a1.75,1.75,0,0,0,.211-.32.467.467,0,0,0-.021-.272,16.242,16.242,0,0,1-.2-5.032,65.572,65.572,0,0,1,2.616-11.912,60.853,60.853,0,0,0,1.648-6.428,5.078,5.078,0,0,0,.086-1.9,2.484,2.484,0,0,0-1.724-1.548,9.388,9.388,0,0,0-3.243-.519,17.687,17.687,0,0,0-3.2.327,13.637,13.637,0,0,0-5.278,2,4.6,4.6,0,0,0-1.485,2.165,14.68,14.68,0,0,0-.78,3.131,36.282,36.282,0,0,0-.3,6.638,63.844,63.844,0,0,0,1.9,13.466c.992,3.937,2.394,7.959,5.523,10.722a12.393,12.393,0,0,0,5.144,2.693,14.446,14.446,0,0,0,3.567.466,11.418,11.418,0,0,0,2.615-.292C1905.744,2204.578,1909.317,2201.843,1912.152,2198.914Z" fill="url(#linear-gradient-18)"/>
            </g>
            <path id="Path_19615" data-name="Path 19615" d="M1893.044,2165.2c1.48-.35,3.551-.347,4.644.946a1.763,1.763,0,0,1,.353.946,8.135,8.135,0,0,1-.645,3.848c-.342.943-.683,1.879-1.043,2.812l-.11-.031c.179-.984.4-1.96.589-2.937.246-1.307.58-2.547.085-3.744a2.5,2.5,0,0,0-1.121-.775c-.829-.364-1.784-.616-2.754-.95l0-.115Z" fill="#fff"/>
            <path id="Path_19616" data-name="Path 19616" d="M1915.037,2186.86a5,5,0,0,1,.988,3.684,7.74,7.74,0,0,1-.64,2.515,6.921,6.921,0,0,1-.591,1.141,22.116,22.116,0,0,1-4.072,4.765c-.258.246-.65.6-.933.819-.569.435-1.365,1.125-1.955,1.519q-1.012.711-2.031,1.405l-.067-.093c1.233-1.041,2.526-2.109,3.669-3.254a11.662,11.662,0,0,0,.857-.867,26.217,26.217,0,0,0,2.333-2.781c.12-.186.7-1.093.807-1.26.2-.382.467-.938.667-1.32l.221-.54a12.128,12.128,0,0,0,.806-2.472c.027-.275.083-.584.107-.86a5.977,5.977,0,0,0-.26-2.336l.094-.065Z" fill="#fff"/>
          </g>
        </g>
      </g>
      <g id="Group_8375" data-name="Group 8375">
        <path id="Path_19618" data-name="Path 19618" d="M1886.943,2180.058c-.3-.924-.654-1.879-1.056-2.844-.059-.149-.134-.321-.223-.527-.3-.7-.319-.738-.351-.793-2.149-4.757-4.637-8.264-7.589-10.705a13.528,13.528,0,0,0-6.722-3.114,11.335,11.335,0,0,0-1.523-.1,14.139,14.139,0,0,0-6.023,1.447,15.336,15.336,0,0,0-4.561,3.051,11.917,11.917,0,0,0-1.29,1.582c-.046.045-.094.088-.139.134a13.662,13.662,0,0,0-3.4,6.377c-1.009,4.159-.681,9,1,14.8a44.773,44.773,0,0,0,6.1,13.25,15.352,15.352,0,0,0,5.29,4.93,9.569,9.569,0,0,0,4.407,1.136,7.706,7.706,0,0,0,3.144-.655,7.536,7.536,0,0,0,3.359-2.966,7.169,7.169,0,0,0,2.364-4.179,2.95,2.95,0,0,0,3.621.874,3.58,3.58,0,0,0,1.481-1.562c.049-.086.1-.174.145-.263a3.818,3.818,0,0,0,1.284-1.452,14.059,14.059,0,0,0,1.37-3.469A26.414,26.414,0,0,0,1886.943,2180.058Zm-9.84,5.91a2.263,2.263,0,0,1-1.606-.645,3.277,3.277,0,0,1-.622-2.4c0-.073.008-.148.013-.223a7.476,7.476,0,0,1,2.02,2.158,2.92,2.92,0,0,1,.4,1.1C1877.229,2185.965,1877.159,2185.968,1877.1,2185.968Z"/>
        <g id="Group_8374" data-name="Group 8374" clip-path="url(#clip-path-9)">
          <g id="Group_8373" data-name="Group 8373">
            <g id="Group_8372" data-name="Group 8372">
              <path id="Path_19619" data-name="Path 19619" d="M1884.322,2176.463l.291.677.294.677Z" fill="url(#linear-gradient-22)"/>
              <path id="Path_19620" data-name="Path 19620" d="M1881.351,2193.717c.1.989.14,1.981.168,2.974a2.5,2.5,0,0,0,1.2,2.312,1.8,1.8,0,0,0,.788.179,1.778,1.778,0,0,0,.774-.175,2.6,2.6,0,0,0,.989-1.1,13.2,13.2,0,0,0,1.256-3.193,25.463,25.463,0,0,0-.675-14.3c-.36-1.11-.779-2.2-1.242-3.27-1.766-4.093-4.139-8.194-7.618-11.069a12.355,12.355,0,0,0-6.146-2.863,10.19,10.19,0,0,0-1.37-.091,13.062,13.062,0,0,0-5.535,1.337,14.448,14.448,0,0,0-4.232,2.818,12.511,12.511,0,0,0-3.106,5.846c-1.128,4.651-.325,9.684.989,14.21a43.874,43.874,0,0,0,5.94,12.912,14.359,14.359,0,0,0,4.884,4.574,8.423,8.423,0,0,0,3.876,1.005,6.575,6.575,0,0,0,2.681-.556,6.354,6.354,0,0,0,3.473-3.911c.653-2.17.043-4.555-.681-6.622-.194-.557-.339-1.127-.5-1.694a9.579,9.579,0,0,1-.335-1.458,1.849,1.849,0,0,1,1.5-2.257,2.341,2.341,0,0,1,.308-.021C1880.765,2189.3,1881.19,2192.161,1881.351,2193.717Zm-1.612-8.3-.116.26.057-.13a2.7,2.7,0,0,1-2.577,1.562,3.382,3.382,0,0,1-2.437-1,4.385,4.385,0,0,1-.934-3.223,10.994,10.994,0,0,1,.218-1.762q.083-.409.188-.813a5.467,5.467,0,0,0,.234-.813c.008-.093.037-.052-.014-.125s-.208-.121-.283-.163c-.149-.084-.3-.165-.452-.242-.263-.134-.531-.26-.8-.374a8.955,8.955,0,0,0-1.156-.407c.069,0,.139,0,.208,0a8.729,8.729,0,0,1,4.135,1.244,9.108,9.108,0,0,1,3.314,3.135,3.305,3.305,0,0,1,.359,2.989C1879.722,2185.455,1879.738,2185.42,1879.739,2185.42Z" fill="url(#linear-gradient-23)"/>
            </g>
            <path id="Path_19621" data-name="Path 19621" d="M1869.782,2164.36c4.185-.775,8.214,2.995,10.09,6.4.266.535.532,1.066.751,1.619-.832-.839-1.591-1.712-2.4-2.56-2.371-2.4-5.034-4.809-8.446-5.458Z" fill="#fff"/>
            <path id="Path_19622" data-name="Path 19622" d="M1876.088,2190.345a4.846,4.846,0,0,0,.3,3.027c.308,1,.659,2.01.926,3.067.509,1.973.923,5-1.225,6.188a3.93,3.93,0,0,0,.716-2.882c-.07-2.4-2.539-7.542-.716-9.4Z" fill="#fff"/>
            <path id="Path_19623" data-name="Path 19623" d="M1883.6,2198.152a34.454,34.454,0,0,0,1.652-9.506c.035-.47.013-.938.07-1.429a10.479,10.479,0,0,1-1.722,10.935Z" fill="#fff"/>
            <path id="Path_19624" data-name="Path 19624" d="M1873.221,2179.339a7.527,7.527,0,0,1-.294,3,6.334,6.334,0,0,0,.292,2.956l-.1.057a5.364,5.364,0,0,1-1.07-2.623,4.914,4.914,0,0,1,.065-2.075,2.8,2.8,0,0,1,1-1.368l.1.051Z" fill="#fff"/>
          </g>
        </g>
      </g>
      <g id="Group_8377" data-name="Group 8377">
        <path id="Path_19626" data-name="Path 19626" d="M1859.772,2175.756a11.934,11.934,0,0,0-.19-1.179l-.006-.048a2.117,2.117,0,0,0-.088-.349c-.007-.025-.015-.055-.025-.088l-.02-.069c-.711-2.529-3.234-3.924-7.1-3.925a17.292,17.292,0,0,0-1.913.109,16.988,16.988,0,0,0-2.613.495,11.452,11.452,0,0,0-1.1.356,6.945,6.945,0,0,0-.652.284l-.023.011a1.566,1.566,0,0,0-.822.727,1.46,1.46,0,0,0-.118.766c-.173.071-.325.14-.467.212l-.022.01a1.566,1.566,0,0,0-.822.727,1.618,1.618,0,0,0-.1.94l0,.028.009.268.01.3c.007.212.015.425.024.637.1,2.32.206,4.616.3,6.556l.1,2.049.032.656-.089.006c-.143.01-.287.024-.431.038-.222.022-.432.043-.62.043a1.743,1.743,0,0,1-.2-.01.649.649,0,0,1-.48-.246,1.463,1.463,0,0,1-.074-.2c-.021-.069-.044-.138-.068-.208-.057-.161-.14-.414-.189-.592-.353-1.287-.719-2.558-1-3.522-.483-1.662-.979-3.347-1.459-4.978l-.442-1.5c-.076-.259-.151-.519-.227-.778-.339-1.161-.689-2.361-1.089-3.537a18.089,18.089,0,0,0-3.152-5.972,8.927,8.927,0,0,0-6.393-3.039c-.3-.018-.6-.027-.913-.027a29.2,29.2,0,0,0-6.389.911,57.445,57.445,0,0,0-7.019,1.948,15.758,15.758,0,0,0-3.273,1.557,5.069,5.069,0,0,0-1.92,2.06,3.9,3.9,0,0,0-1.7,2.913,6.3,6.3,0,0,0,1.5,3.707l.014.022c.33.474.671.931.965,1.323,1.842,2.453,3.963,5.319,5.826,8.286a122.889,122.889,0,0,1,6.735,12.487c1.074,2.241,2.138,4.574,3.077,6.631l.131.287c.451.99.917,2.014,1.443,3.006l.068.13c.479.909,1.2,2.283,2.659,2.6a5.124,5.124,0,0,0,1.09.106c.326,0,.638-.022.94-.043.129-.008.257-.017.384-.024.293-.016.587-.03.881-.044l.414-.02.779-.037a42.974,42.974,0,0,0,5.423-.485,8.243,8.243,0,0,0,1.807-.484,2.7,2.7,0,0,0,.93-.577,1.8,1.8,0,0,0,.4-.71c.022-.135.036-.271.048-.407.018-.008.037-.013.055-.021a2.7,2.7,0,0,0,.93-.577,1.8,1.8,0,0,0,.4-.71,9.958,9.958,0,0,0-.041-2.6c-.02-.18-.039-.358-.055-.532l-.047-.519c-.084-.912-.171-1.855-.226-2.776a24.41,24.41,0,0,1-.023-3.28,8.627,8.627,0,0,1,.215-1.44,1.36,1.36,0,0,1,.241-.023,1.3,1.3,0,0,1,1.089.576,6.8,6.8,0,0,1,.873,2.572c.162.863.288,1.759.41,2.626.037.259.073.517.111.776l.047.333a13.229,13.229,0,0,0,.731,3.18l.014.034a1.888,1.888,0,0,0,1.42,1.319,10.452,10.452,0,0,0,1.587.119h.161a9.971,9.971,0,0,0,3.645-.666l.043-.016a1.666,1.666,0,0,0,.909-.711,1.542,1.542,0,0,0,.176-.516l0-.014c.031-.125.061-.253.091-.379.069-.026.14-.051.207-.079l.043-.017a1.662,1.662,0,0,0,.91-.71,1.586,1.586,0,0,0,.176-.517l0-.013c.057-.227.112-.457.165-.687.745-3.217,1.4-6.694,2-10.63.413-2.719.691-4.956.876-7.042A35.825,35.825,0,0,0,1859.772,2175.756Z"/>
        <g id="Group_8376" data-name="Group 8376">
          <path id="Path_19627" data-name="Path 19627" d="M1846.806,2184.855h0l-.005-.049Z" fill="url(#linear-gradient-24)"/>
          <path id="Path_19628" data-name="Path 19628" d="M1858.541,2182.8a34.4,34.4,0,0,0,.095-6.919,9.693,9.693,0,0,0-.292-1.549c-.7-2.484-3.549-3.095-6-3.095a16.269,16.269,0,0,0-1.786.1,15.91,15.91,0,0,0-2.438.461c-.336.093-.669.2-.995.322a5.581,5.581,0,0,0-.544.236c-.082.042-.288.124-.328.208a1.261,1.261,0,0,0,.013.41c.007.2.013.4.02.6s.015.418.024.628q.135,3.275.3,6.548.1,2.047.2,4.1c.075.916-.985,1.331-1.723,1.445-.307.047-.617.058-.926.08-.375.026-.753.083-1.13.083a3.053,3.053,0,0,1-.316-.015,1.763,1.763,0,0,1-1.318-.758,2.824,2.824,0,0,1-.263-.657c-.059-.165-.154-.452-.214-.671-.321-1.171-.655-2.339-.994-3.506-.626-2.159-1.264-4.315-1.9-6.472-.419-1.427-.822-2.861-1.3-4.269a16.723,16.723,0,0,0-2.936-5.593,7.78,7.78,0,0,0-5.6-2.645c-.281-.017-.563-.025-.844-.025a28.021,28.021,0,0,0-6.136.883,56.994,56.994,0,0,0-6.882,1.907,14.418,14.418,0,0,0-3.034,1.437,3.131,3.131,0,0,0-1.681,2.337,5.441,5.441,0,0,0,1.309,3.042c.3.437.62.864.94,1.289,2.048,2.728,4.064,5.473,5.88,8.365a126.171,126.171,0,0,1,6.8,12.6c1.057,2.2,2.072,4.427,3.087,6.651.495,1.085.984,2.177,1.543,3.232.431.812.971,1.931,1.958,2.143a4.009,4.009,0,0,0,.849.08c.423,0,.849-.043,1.264-.065.433-.023.866-.043,1.3-.064a49.37,49.37,0,0,0,6.062-.506,7.173,7.173,0,0,0,1.559-.412,1.681,1.681,0,0,0,.557-.323c.02-.02.068-.1.081-.1s0,0,0,.012a11.85,11.85,0,0,0-.1-2.851c-.1-1.109-.21-2.217-.277-3.329a25.256,25.256,0,0,1-.021-3.436,6.393,6.393,0,0,1,.836-3.036,2.623,2.623,0,0,1,2.189-1.2,2.447,2.447,0,0,1,2.025,1.062,7.685,7.685,0,0,1,1.061,3.019c.215,1.143.362,2.3.529,3.449a13.739,13.739,0,0,0,.7,3.243c.113.275.237.609.55.657a9.285,9.285,0,0,0,1.413.106h.145a8.962,8.962,0,0,0,3.226-.58c.133-.055.323-.111.393-.234a.954.954,0,0,0,.06-.229c.057-.227.111-.454.164-.682.807-3.482,1.443-7.01,1.98-10.544C1858.025,2187.461,1858.335,2185.136,1858.541,2182.8Z" fill="url(#linear-gradient-10)"/>
          <path id="Path_19629" data-name="Path 19629" d="M1858.335,2174.308l.009.029.1.344Z" fill="url(#linear-gradient-26)"/>
        </g>
        <path id="Path_19630" data-name="Path 19630" d="M1825.112,2163.321c3.924-1.626,8.955.606,9.081,5.172a12.432,12.432,0,0,0-1.586-2.334c-1.9-2.123-4.752-2.634-7.495-2.838Z" fill="#fff"/>
        <path id="Path_19631" data-name="Path 19631" d="M1853.036,2172.577a3.044,3.044,0,0,1,4.063.93,4.785,4.785,0,0,1,.444,4.213c-.236-.676-.4-1.322-.612-1.928a4.032,4.032,0,0,0-3.9-3.215Z" fill="#fff"/>
        <path id="Path_19632" data-name="Path 19632" d="M1837.7,2204.59c1.083-.5,2.216-.637,3.222-1.165.093-.062.091-.063.131-.133a4.644,4.644,0,0,0,.024-1.734,12.221,12.221,0,0,1-.061-2.112c.62,1.246,2.055,3.867.536,4.933a4.945,4.945,0,0,1-3.852.211Z" fill="#fff"/>
        <path id="Path_19633" data-name="Path 19633" d="M1851.234,2200.941c.784-.453,1.564-.606,2.325-.966a.6.6,0,0,0,.149-.112c.533-.584.626-1.718,1.01-2.513.484,1.163.651,2.909-.63,3.634a3.536,3.536,0,0,1-2.854-.043Z" fill="#fff"/>
      </g>
      <g id="Group_8381" data-name="Group 8381">
        <path id="Path_19634" data-name="Path 19634" d="M1830.735,2197.894a6.132,6.132,0,0,0-.921-2.774,2.992,2.992,0,0,0-.372-.486l-.01-.01,0,0a7.855,7.855,0,0,0-1.571-1.256,5.272,5.272,0,0,0-2.59-.941l-.135,0a5.347,5.347,0,0,0-2.4.694c-.207.1-.412.209-.617.315-.435.225-.845.437-1.263.614a5.014,5.014,0,0,1-1.994.417,5.59,5.59,0,0,1-1.556-.232,10.58,10.58,0,0,1-3.4-1.783,13.732,13.732,0,0,1-4.749-6.286,7.5,7.5,0,0,1-.432-2.951h0a11.276,11.276,0,0,0,7.578,3.157,8.13,8.13,0,0,0,3.989-1,12.88,12.88,0,0,0,4.96-7.52,10.419,10.419,0,0,0-2.342-6.475,22.041,22.041,0,0,0-10.9-7.458,19.329,19.329,0,0,0-5.67-.908,11.677,11.677,0,0,0-7.377,2.31,9.5,9.5,0,0,0-2.107,2.305,10.188,10.188,0,0,0-2.726,4.544,11.741,11.741,0,0,0,0,5.734,28.138,28.138,0,0,0,2.337,6.537,50.729,50.729,0,0,0,3.427,5.942,63.564,63.564,0,0,0,8.816,10.561c1.81,1.74,3.7,2.988,5.3,4.43,1.958,1.766,4.273,3.581,6.424,3.131.566-.119,1.134.177,1.689.177a6.667,6.667,0,0,0,5.051-2.185,7.942,7.942,0,0,0,.844-1.142,6.605,6.605,0,0,0,.585-.573A9.127,9.127,0,0,0,1830.735,2197.894Z"/>
        <g id="Group_8380" data-name="Group 8380" clip-path="url(#clip-path-10)">
          <g id="Group_8379" data-name="Group 8379">
            <g id="Group_8378" data-name="Group 8378">
              <path id="Path_19635" data-name="Path 19635" d="M1828.585,2195.392l.042.048.191.216Z" fill="url(#linear-gradient-27)"/>
              <path id="Path_19636" data-name="Path 19636" d="M1829.6,2198.016a4.761,4.761,0,0,0-.971-2.576l-.046-.052a6.815,6.815,0,0,0-1.341-1.062,4.132,4.132,0,0,0-2.015-.759l-.091,0a4.307,4.307,0,0,0-1.885.574c-.648.322-1.277.676-1.944.959a6.179,6.179,0,0,1-2.44.508,6.721,6.721,0,0,1-1.875-.277,11.784,11.784,0,0,1-3.77-1.97,14.916,14.916,0,0,1-5.14-6.825,8.237,8.237,0,0,1-.394-4.2,6.471,6.471,0,0,1,.6-1.757c.056-.108.115-.214.177-.319.039-.065.191-.237.194-.31,0-.092-.2-.3-.248-.384-.111-.181-.217-.364-.32-.55a15.65,15.65,0,0,1-1.659-4.7,12.77,12.77,0,0,1-.261-3.209,22.866,22.866,0,0,0,1.268,4.081,15.678,15.678,0,0,0,3.514,5.481,10.177,10.177,0,0,0,6.787,2.839,7.036,7.036,0,0,0,3.436-.856,5.69,5.69,0,0,0,2.941-4.838,9.339,9.339,0,0,0-2.113-5.755,20.8,20.8,0,0,0-10.332-7.054,18.124,18.124,0,0,0-5.328-.855,10.677,10.677,0,0,0-6.674,2.067,8.886,8.886,0,0,0-3.01,4.556,10.835,10.835,0,0,0,.024,5.178,27.168,27.168,0,0,0,2.247,6.27,49.52,49.52,0,0,0,3.349,5.808,62.449,62.449,0,0,0,8.658,10.37,44.525,44.525,0,0,0,5.17,4.321,16.628,16.628,0,0,0,6,2.945,7.172,7.172,0,0,0,1.456.153,5.5,5.5,0,0,0,4.2-1.8A7.939,7.939,0,0,0,1829.6,2198.016Z" fill="url(#linear-gradient-28)"/>
            </g>
            <path id="Path_19637" data-name="Path 19637" d="M1807,2165.16a13.325,13.325,0,0,1,11.908,5.277c.813,1.426.893,1.491-.336.29-3.275-2.9-7.385-4.445-11.572-5.567Z" fill="#fff"/>
            <path id="Path_19638" data-name="Path 19638" d="M1807.818,2179.467a7.542,7.542,0,0,1-.95,2.863,6.331,6.331,0,0,0-.369,2.948l-.109.033a5.366,5.366,0,0,1-.464-2.795,4.9,4.9,0,0,1,.522-2.008,2.8,2.8,0,0,1,1.281-1.113l.089.072Z" fill="#fff"/>
            <path id="Path_19639" data-name="Path 19639" d="M1821.574,2196.474c1.509-2.407,4.923-3.153,6.305-.215.453.921-.246.1-.635-.051-2.063-1.428-3.564-.4-5.67.266Z" fill="#fff"/>
          </g>
        </g>
      </g>
    </g>
  </g>
</svg>
