<svg xmlns="http://www.w3.org/2000/svg" xmlns:xlink="http://www.w3.org/1999/xlink" width="50.924" height="45.507" viewBox="0 0 50.924 45.507">
  <defs>
    <clipPath id="clip-path">
      <path id="Path_794" data-name="Path 794" d="M420.447,1045.313a6.815,6.815,0,0,0-2.013,2.5l-.2.424a9.941,9.941,0,0,0-.486,1.468,19.125,19.125,0,0,0,.013,7.89,24.764,24.764,0,0,0,2.853,8.06,18.851,18.851,0,0,0,4.393,5.276,9.176,9.176,0,0,0,2.125,1.336,8.611,8.611,0,0,0,3.983.6,19.471,19.471,0,0,0,7.842-2.646,49.76,49.76,0,0,0,7.337-4.973l.918-.733c4.262-3.4,8.668-6.917,11.964-11.264a22.362,22.362,0,0,0,3.876-7.155c.507-1.715,1.865-7.621-1.949-11.6a11.938,11.938,0,0,0-6.48-3.214,21.991,21.991,0,0,0-8.321,0,20.172,20.172,0,0,0-3.194.938,9.064,9.064,0,0,0-3.152,1.81c-1.781,1.725-2.288,4.487-2.622,6.939a45.628,45.628,0,0,1-1.843,8.6,17.484,17.484,0,0,1-1.724,3.771,4.993,4.993,0,0,1-3.273,2.573c-1.927.295-2.89-1.384-3.406-2.25a33.462,33.462,0,0,1-1.9-3.94c-.454-1.061-.869-2.113-1.232-3.128-.065-.18-.122-.378-.182-.583-.165-.573-.336-1.165-.7-1.353a1.328,1.328,0,0,0-.619-.138A3.676,3.676,0,0,0,420.447,1045.313Z" fill="#a42d6b"/>
    </clipPath>
  </defs>
  <g id="checkicon" transform="translate(-414.177 -1029.493)">
    <path id="Path_789" data-name="Path 789" d="M462.114,1033.532a13.312,13.312,0,0,0-7.216-3.617,23.4,23.4,0,0,0-8.859,0,21.486,21.486,0,0,0-3.416,1,10.355,10.355,0,0,0-3.633,2.114,7.411,7.411,0,0,0-.888,1.06,7.008,7.008,0,0,0-1.1.849c-1.95,1.889-2.477,4.77-2.828,7.345a45.025,45.025,0,0,1-1.812,8.465,17,17,0,0,1-1.654,3.624c-.01.017-.022.033-.033.049a2,2,0,0,1-.39.11c-.807.13-1.342-.5-1.992-1.587a31.929,31.929,0,0,1-1.82-3.775c-.444-1.034-.848-2.06-1.2-3.048-.055-.154-.1-.324-.155-.5a3.214,3.214,0,0,0-1.409-2.208,2.739,2.739,0,0,0-1.253-.29,5.183,5.183,0,0,0-2.831,1.066,7.524,7.524,0,0,0-1.617,1.674c-.158.095-.309.194-.447.3a7.54,7.54,0,0,0-2.223,2.754c-.054.119-.147.319-.2.44a10.67,10.67,0,0,0-.531,1.6,20.167,20.167,0,0,0,0,8.178,25.63,25.63,0,0,0,2.935,8.286,19.515,19.515,0,0,0,4.556,5.469,9.891,9.891,0,0,0,2.29,1.437,8.855,8.855,0,0,0,3.517.681c.265,0,.531-.009.794-.028a15.831,15.831,0,0,0,4.229-.944,23.493,23.493,0,0,0,6.705-2.58,51.1,51.1,0,0,0,7.543-5.109l.917-.733c4.328-3.454,8.8-7.025,12.2-11.511a23.7,23.7,0,0,0,4.1-7.6C464.954,1044.595,466.447,1038.053,462.114,1033.532Zm-39.044,11.124c.367.188.538.78.7,1.353.06.2.117.4.182.583.363,1.015.778,2.067,1.232,3.128a33.462,33.462,0,0,0,1.9,3.94,4.224,4.224,0,0,0,2.361,2.209,3.161,3.161,0,0,1-1.543.76,1.972,1.972,0,0,1-.318.026c-1.131,0-1.828-1.019-2.379-1.944a32.524,32.524,0,0,1-1.862-3.858q-.654-1.525-1.217-3.088c-.275-.769-.411-1.906-1.224-2.321a1.891,1.891,0,0,0-.428-.154,3.649,3.649,0,0,1,1.969-.772A1.328,1.328,0,0,1,423.07,1044.656Zm39.986,1.441a22.362,22.362,0,0,1-3.876,7.155,43.474,43.474,0,0,1-5.455,5.833,39.471,39.471,0,0,0,3.533-4,23.367,23.367,0,0,0,3.989-7.378c.6-2.041,1.911-8.082-2.114-12.28a12.788,12.788,0,0,0-6.848-3.415,22.12,22.12,0,0,0-4.279-.412,22.58,22.58,0,0,0-4.275.406,18.891,18.891,0,0,1,2.575-.718,21.991,21.991,0,0,1,8.321,0,11.938,11.938,0,0,1,6.48,3.214C464.921,1038.476,463.563,1044.382,463.056,1046.1Z"/>
    <g id="Group_479" data-name="Group 479">
      <path id="Path_790" data-name="Path 790" d="M420.447,1045.313a6.815,6.815,0,0,0-2.013,2.5l-.2.424a9.941,9.941,0,0,0-.486,1.468,19.125,19.125,0,0,0,.013,7.89,24.764,24.764,0,0,0,2.853,8.06,18.851,18.851,0,0,0,4.393,5.276,9.176,9.176,0,0,0,2.125,1.336,8.611,8.611,0,0,0,3.983.6,19.471,19.471,0,0,0,7.842-2.646,49.76,49.76,0,0,0,7.337-4.973l.918-.733c4.262-3.4,8.668-6.917,11.964-11.264a22.362,22.362,0,0,0,3.876-7.155c.507-1.715,1.865-7.621-1.949-11.6a11.938,11.938,0,0,0-6.48-3.214,21.991,21.991,0,0,0-8.321,0,20.172,20.172,0,0,0-3.194.938,9.064,9.064,0,0,0-3.152,1.81c-1.781,1.725-2.288,4.487-2.622,6.939a45.628,45.628,0,0,1-1.843,8.6,17.484,17.484,0,0,1-1.724,3.771,4.993,4.993,0,0,1-3.273,2.573c-1.927.295-2.89-1.384-3.406-2.25a33.462,33.462,0,0,1-1.9-3.94c-.454-1.061-.869-2.113-1.232-3.128-.065-.18-.122-.378-.182-.583-.165-.573-.336-1.165-.7-1.353a1.328,1.328,0,0,0-.619-.138A3.676,3.676,0,0,0,420.447,1045.313Z" fill="#a42d6b"/>
      <g id="Group_478" data-name="Group 478" clip-path="url(#clip-path)">
        <path id="Path_791" data-name="Path 791" d="M453.72,1032.681c4.962.005,9.216,4.749,8.6,10.216a13.8,13.8,0,0,0-8.6-10.216Z" fill="#fff"/>
        <path id="Path_792" data-name="Path 792" d="M442.79,1063.248c-2.61,5.355-9.079,9.177-15.032,7.6,6.05-.321,10.9-3.342,15.032-7.6Z" fill="#fff"/>
        <path id="Path_793" data-name="Path 793" d="M422.757,1045.413a2.937,2.937,0,0,0-.461,2.616,8.436,8.436,0,0,0,1.18,2.388,6.405,6.405,0,0,0,1.221,1.224l.088-.086a7.732,7.732,0,0,1-1.223-2.964,8.4,8.4,0,0,0-.684-3.157l-.121-.021Z" fill="#fff"/>
      </g>
    </g>
  </g>
</svg>
