<svg xmlns="http://www.w3.org/2000/svg" xmlns:xlink="http://www.w3.org/1999/xlink" width="363.404" height="71.41" viewBox="0 0 363.404 71.41">
  <defs>
    <linearGradient id="linear-gradient" x1="0.5" x2="0.481" y2="1" gradientUnits="objectBoundingBox">
      <stop offset="0" stop-color="#00ffd5"/>
      <stop offset="1" stop-color="#01cb2d"/>
    </linearGradient>
  </defs>
  <g id="checkbg1" transform="translate(-400.074 -1021.844)">
    <g id="Group_433" data-name="Group 433">
      <g id="Group_432" data-name="Group 432">
        <g id="Group_431" data-name="Group 431">
          <path id="Path_709" data-name="Path 709" d="M438.985,1089.783c-5.913,0-13.517-.254-19.9-2.238-13.175-4.1-15.084-13.864-15.294-17.873-.153-2.915-.378-15.062-.163-23.324.188-7.247,3.467-12.65,9.489-15.657a19.5,19.5,0,0,1,6.329-3.3c5.414-1.741,12.771-2.082,23.649-2.082h.545c28.584.006,279.742.082,296.388,1.082,6.486.389,11.536,2.64,15.01,6.692,5.27,6.144,5.359,17.545,4.67,28.95-.084,1.393-.168,2.777-.23,4.181-.244,5.553-1.558,13.386-10.041,17.672a19.461,19.461,0,0,1-5.123,2.89c-5.436,2.118-13.145,2.869-29.457,2.869-26.58,0-259.8,0-263.878-.017h-.412c-1.483,0-3.168.032-4.95.068l-.212,0C443.344,1089.743,441.211,1089.783,438.985,1089.783Z" fill="url(#linear-gradient)"/>
          <path id="Path_710" data-name="Path 710" d="M443.644,1028.785c23.229,0,279.583.078,296.18,1.075,5.512.331,9.746,2.177,12.584,5.487,4.816,5.615,4.342,18.172,3.84,26.481-.083,1.376-.169,2.8-.233,4.238-.228,5.184-1.413,11.5-8.461,14.886a15.9,15.9,0,0,1-4.5,2.6c-4.989,1.944-12.367,2.633-28.2,2.633-12.273,0-259.67,0-263.863-.018h-.419c-1.512,0-3.22.033-5.028.068-2.108.041-4.288.084-6.566.084-5.667,0-12.932-.237-18.865-2.083-10.693-3.325-12.646-10.662-12.86-14.74-.147-2.81-.369-14.968-.159-23.053.159-6.1,2.817-10.4,7.9-12.8a15.9,15.9,0,0,1,5.506-2.934c4.983-1.6,12.055-1.915,22.587-1.915h.545m0-6.941H443.1c-11.491,0-18.833.359-24.711,2.248a23.051,23.051,0,0,0-7.145,3.662c-6.937,3.6-10.862,10.142-11.08,18.5s.012,20.642.167,23.6c.247,4.734,2.47,16.259,17.729,21,6.824,2.124,14.768,2.4,20.926,2.4,2.327,0,4.525-.043,6.65-.084h.05c1.682-.033,3.418-.067,4.894-.067h.41c4.3.018,261.276.018,263.872.018,17.005,0,24.756-.784,30.717-3.106a23.013,23.013,0,0,0,5.742-3.189c10.982-5.752,11.467-16.777,11.629-20.455.06-1.37.143-2.75.224-4.085.735-12.172.576-24.376-5.5-31.457-2.825-3.295-8.143-7.339-17.436-7.9-16.7-1-267.995-1.082-296.6-1.088Z" fill="#fff"/>
          <path id="Path_711" data-name="Path 711" d="M443.644,1028.785c23.229,0,279.583.078,296.18,1.075,5.512.331,9.746,2.177,12.584,5.487,4.816,5.615,4.342,18.172,3.84,26.481-.083,1.376-.169,2.8-.233,4.238-.228,5.184-1.413,11.5-8.461,14.886a15.9,15.9,0,0,1-4.5,2.6c-4.989,1.944-12.367,2.633-28.2,2.633-12.273,0-259.67,0-263.863-.018h-.419c-1.512,0-3.22.033-5.028.068-2.108.041-4.288.084-6.566.084-5.667,0-12.932-.237-18.865-2.083-10.693-3.325-12.646-10.662-12.86-14.74-.147-2.81-.369-14.968-.159-23.053.159-6.1,2.817-10.4,7.9-12.8a15.9,15.9,0,0,1,5.506-2.934c4.983-1.6,12.055-1.915,22.587-1.915h.545m0-5.206H443.1c-11.05,0-18.548.355-24.18,2.165a21.26,21.26,0,0,0-6.736,3.478c-6.528,3.322-10.081,9.214-10.285,17.08-.217,8.305.011,20.526.164,23.462.229,4.371,2.295,15.016,16.512,19.438,6.6,2.053,14.376,2.317,20.411,2.317,2.309,0,4.5-.043,6.613-.083l.054,0c1.691-.033,3.438-.067,4.927-.067h.411c4.311.018,261.275.018,263.871.018,16.761,0,24.353-.754,30.087-2.988a21.234,21.234,0,0,0,5.435-3.04c10.227-5.278,10.681-15.622,10.833-19.063.06-1.387.145-2.777.226-4.122.713-11.8.589-23.6-5.083-30.215-3.791-4.421-9.249-6.875-16.223-7.294-16.651-1-267.9-1.079-296.491-1.085Z"/>
        </g>
      </g>
    </g>
    <path id="Path_712" data-name="Path 712" d="M463.526,1038.141c-1.977-2.368-5.032-3.3-9.233-3.908a89.553,89.553,0,0,0-11.172-1.1h-.156c-9.828,0-16.8.291-21.178,1.737a10.642,10.642,0,0,0-4.332,2.511c-3.791,1.6-5.556,4.381-5.67,8.869-.207,8.15.011,20.486.154,23.308.257,5.04,3.423,8.566,9.412,10.48a38.135,38.135,0,0,0,11.684,1.786c15.011,0,18.73-.644,23.057-2.376a10.687,10.687,0,0,0,3.6-2.257c4.856-2.119,6-5.836,6.226-11.113.065-1.512.153-3.006.238-4.45C466.61,1053.862,467,1042.308,463.526,1038.141Z"/>
    <path id="Path_713" data-name="Path 713" d="M453.122,1036.047c-8.414-1.074-8.108-1.074-8.159-1.074-19.676,0-25.952,1.209-26.162,9.5-.2,7.9.007,19.932.15,22.739.49,9.626,6.173,10.741,16.6,10.741,26.936,0,27.327-1.943,27.762-12.106C463.88,1052.6,466.114,1037.7,453.122,1036.047Z" fill="#fff"/>
  </g>
</svg>
