<svg xmlns="http://www.w3.org/2000/svg" xmlns:xlink="http://www.w3.org/1999/xlink" width="489.793" height="89.098" viewBox="0 0 489.793 89.098">
  <defs>
    <clipPath id="clip-path">
      <path id="Path_13622" data-name="Path 13622" d="M4870.323,4670.024a8.59,8.59,0,0,0-1.993-2.2,4.339,4.339,0,0,0-.645-.46,3.9,3.9,0,0,0-.8-.428,9.2,9.2,0,0,0-4.018-.847,12.6,12.6,0,0,0-1.368.077,20.645,20.645,0,0,0-2.355.441c-.415.094-.807.184-1.2.257a62.142,62.142,0,0,1-10.422.949q-.823.014-1.645.013c-3.044,0-6.274-.129-10.164-.405-2.45-.175-4.945-.429-7.358-.676-1.522-.156-3.1-.316-4.653-.456-.767-.07-1.536-.1-2.285-.1a19.248,19.248,0,0,0-9.778,2.435,17.129,17.129,0,0,0-5.461,5.123,18.991,18.991,0,0,0-4.247,6.566,24.233,24.233,0,0,0-1.48,6,15.752,15.752,0,0,0,.32,6.449,6.623,6.623,0,0,0,3.96,4.481,7.173,7.173,0,0,0,2.493.429,10.38,10.38,0,0,0,4.067-.9,14.573,14.573,0,0,0,2.713-1.537c.443-.316.847-.647,1.238-.968.347-.284.674-.552,1.006-.793a15.36,15.36,0,0,1,4.275-2.184,16.877,16.877,0,0,1,5.12-.841c.159,0,.317,0,.474.008l.017.066c2.067,7.873-.631,16-3.241,23.864-.3.9-.6,1.8-.885,2.688l-.086.266a9.84,9.84,0,0,0-.683,3.89,7.358,7.358,0,0,0,1.76,4.116,17.155,17.155,0,0,0,6.441,4.482,50.016,50.016,0,0,0,15.6,3.836,48.283,48.283,0,0,0,4.864.282c.829,0,1.632-.032,2.385-.1a4.236,4.236,0,0,0,3.714-2.977c2.55-1.306,2.749-5.048,2.831-6.6a42.148,42.148,0,0,0-.535-8.186c-.363-2.51-.875-5.18-1.567-8.163-.64-2.765-1.344-5.476-2.091-8.059-.175-.606-.364-1.217-.547-1.808a29.111,29.111,0,0,1-1.339-5.541c-.018-.178-.028-.343-.034-.5.07,0,.14-.007.206-.008h.092a15.319,15.319,0,0,1,2.058.2c.217.03.433.06.648.088a31.96,31.96,0,0,0,4,.308,14.834,14.834,0,0,0,3.416-.364,7.97,7.97,0,0,0,5.361-4.069,8.3,8.3,0,0,0,2.511-3.364,18.138,18.138,0,0,0,1.223-6.7A14.185,14.185,0,0,0,4870.323,4670.024Z"/>
    </clipPath>
    <linearGradient id="linear-gradient" x1="0.5" y1="2.116" x2="0.5" y2="83.171" gradientUnits="objectBoundingBox">
      <stop offset="0" stop-color="#00ffd5"/>
      <stop offset="1" stop-color="#01cb2d"/>
    </linearGradient>
    <linearGradient id="linear-gradient-2" x1="0.5" y1="0.029" x2="0.5" y2="0.675" xlink:href="#linear-gradient"/>
    <clipPath id="clip-path-2">
      <path id="Path_13630" data-name="Path 13630" d="M4823.855,4683.184l0-.013,0-.012,0-.013c-.015-.061-.031-.119-.045-.175h0l0-.013h0l-.02-.072h0a19.012,19.012,0,0,0-7.03-10.657,19.47,19.47,0,0,0-11.41-3.445,24.735,24.735,0,0,0-2.631.143,34.361,34.361,0,0,0-11.34,3.363,30.138,30.138,0,0,0-10.559,8.458c-.158.2-.307.416-.46.624-.508.543-1,1.1-1.462,1.682-.1-.1-.2-.21-.3-.307a7.554,7.554,0,0,0-2.545-1.715,4.172,4.172,0,0,0-1.448-.268,4.014,4.014,0,0,0-3.4,2.009,8.368,8.368,0,0,0-.53,1,4.4,4.4,0,0,0-1.583,1.53,13.159,13.159,0,0,0-1.614,5.145,37.148,37.148,0,0,0-.337,5.151,83.366,83.366,0,0,0,.723,10.759c.427,3.465,1,7.031,1.709,10.6a36.12,36.12,0,0,0,3.285,10.014c2.068,3.873,4.8,6.23,7.909,6.818a8.137,8.137,0,0,0,1.509.142,9.021,9.021,0,0,0,7.607-4.534c.023-.039.046-.081.069-.121a9.649,9.649,0,0,0,2.043-2.414,6.732,6.732,0,0,1,6.331-11.5,21.97,21.97,0,0,0,7.548-1.3,24.709,24.709,0,0,0,11.224-8.677,28.173,28.173,0,0,0,5.736-9.13A21.577,21.577,0,0,0,4823.855,4683.184ZM4794.609,4704a2.757,2.757,0,0,1-.656.077,5.143,5.143,0,0,1-3.384-1.571,2.666,2.666,0,0,1-.986-1.714h0a1.611,1.611,0,0,1,.106-.153q.261-.349.539-.706c.373-.408.76-.811,1.168-1.184a4.563,4.563,0,0,1,2.54-1.426h.052a1.249,1.249,0,0,1,.988.421,5.382,5.382,0,0,1,.928,3.434,2.988,2.988,0,0,0-.1.654,9.545,9.545,0,0,1-.719,1.98A2.045,2.045,0,0,1,4794.609,4704Z"/>
    </clipPath>
    <linearGradient id="linear-gradient-3" x1="0.5" y1="0.017" x2="0.5" y2="0.692" xlink:href="#linear-gradient"/>
    <linearGradient id="linear-gradient-4" x1="0.496" y1="-42.424" x2="0.496" y2="99.843" xlink:href="#linear-gradient"/>
    <linearGradient id="linear-gradient-5" x1="0.501" y1="-54.707" x2="0.501" y2="24.852" xlink:href="#linear-gradient"/>
    <clipPath id="clip-path-3">
      <path id="Path_13636" data-name="Path 13636" d="M4779.991,4673.851a7.344,7.344,0,0,0-.716-.976,8.088,8.088,0,0,0-.734-.847,17.442,17.442,0,0,0-12.779-5.374h-.184a13.565,13.565,0,0,0-4.309.682,18.156,18.156,0,0,0-3.672,1.783,32.755,32.755,0,0,0-6.029,4.9,45.867,45.867,0,0,0-3.757,4.291,48.55,48.55,0,0,0-6.892,10.031,37.683,37.683,0,0,0-4.61,15.144,24.781,24.781,0,0,0,4.193,15.244,34.5,34.5,0,0,0,11.239,10.412c3.638,2.147,9.228,4.722,15.2,4.8l.254,0c3.046,0,5.29-.726,6.857-2.22a7.263,7.263,0,0,0,1.462-1.99,6.954,6.954,0,0,0,.651-.545c1.907-1.816,2.765-4.769,2.354-8.1-.189-1.529-.93-5.3-3.733-7.247a4.4,4.4,0,0,0-2.5-.836h-.082a5.961,5.961,0,0,0-1.9.432c-.176.063-.343.123-.487.164-.612.177-1.251.324-1.907.446a21.743,21.743,0,0,0,2.2-1.64,24.968,24.968,0,0,0,3.941-4.28,29.336,29.336,0,0,0,5.161-7.7,40.127,40.127,0,0,0,3.665-12.871C4783.271,4683.713,4783.053,4678.34,4779.991,4673.851Zm-28.245,30.646c-.012-.122-.022-.247-.03-.373a10.448,10.448,0,0,1,.653-4.271,10.294,10.294,0,0,1,.7-1.494,4.5,4.5,0,0,1,2.651-1.19c.068,0,.137,0,.2.009a1.891,1.891,0,0,1,1.588,2.166h0v.011h0a4.852,4.852,0,0,1-.756,2.184A13.824,13.824,0,0,1,4751.746,4704.5Z"/>
    </clipPath>
    <linearGradient id="linear-gradient-6" x1="0.5" y1="-5.185" x2="0.5" y2="27.061" xlink:href="#linear-gradient"/>
    <linearGradient id="linear-gradient-7" x1="0.5" y1="-0.025" x2="0.5" y2="0.635" xlink:href="#linear-gradient"/>
    <clipPath id="clip-path-4">
      <path id="Path_13643" data-name="Path 13643" d="M4755.374,4718a9.076,9.076,0,0,0-1.361-4.1,4.418,4.418,0,0,0-.55-.718l-.014-.016,0,0a11.581,11.581,0,0,0-2.322-1.856,7.759,7.759,0,0,0-3.828-1.39c-.067,0-.134,0-.2,0a7.9,7.9,0,0,0-3.539,1.025c-.306.152-.609.309-.912.466-.642.332-1.248.646-1.867.908a7.407,7.407,0,0,1-2.947.617,8.28,8.28,0,0,1-2.3-.343,15.677,15.677,0,0,1-5.024-2.636,20.288,20.288,0,0,1-7.019-9.291,11.1,11.1,0,0,1-.639-4.361h0a16.664,16.664,0,0,0,11.2,4.666,12.033,12.033,0,0,0,5.9-1.477,19.059,19.059,0,0,0,7.331-11.115,15.4,15.4,0,0,0-3.462-9.57,32.578,32.578,0,0,0-16.117-11.023,28.542,28.542,0,0,0-8.38-1.341,17.26,17.26,0,0,0-10.9,3.413,14.08,14.08,0,0,0-3.113,3.406,15.045,15.045,0,0,0-4.029,6.717,17.348,17.348,0,0,0,0,8.474,41.547,41.547,0,0,0,3.455,9.662,74.859,74.859,0,0,0,5.064,8.782,93.893,93.893,0,0,0,13.031,15.609c2.674,2.571,5.475,4.417,7.837,6.548,2.894,2.61,6.316,5.293,9.5,4.627.836-.175,1.676.262,2.5.262a9.855,9.855,0,0,0,7.465-3.23,11.555,11.555,0,0,0,1.247-1.687,9.515,9.515,0,0,0,.866-.848A13.488,13.488,0,0,0,4755.374,4718Z"/>
    </clipPath>
    <linearGradient id="linear-gradient-8" x1="0.501" y1="-130.82" x2="0.501" y2="-26.857" xlink:href="#linear-gradient"/>
    <linearGradient id="linear-gradient-9" x1="0.5" y1="-0.079" x2="0.5" y2="0.58" xlink:href="#linear-gradient"/>
    <clipPath id="clip-path-5">
      <path id="Path_13649" data-name="Path 13649" d="M4553.29,4673.851a7.374,7.374,0,0,0-.716-.976,8.092,8.092,0,0,0-.733-.847,17.445,17.445,0,0,0-12.779-5.374h-.184a13.566,13.566,0,0,0-4.31.682,18.193,18.193,0,0,0-3.672,1.783,32.737,32.737,0,0,0-6.029,4.9,45.943,45.943,0,0,0-3.757,4.291,48.569,48.569,0,0,0-6.892,10.031,37.683,37.683,0,0,0-4.61,15.144,24.8,24.8,0,0,0,4.193,15.244,34.5,34.5,0,0,0,11.239,10.412c3.638,2.147,9.228,4.722,15.2,4.8l.254,0c3.046,0,5.29-.726,6.858-2.22a7.23,7.23,0,0,0,1.461-1.99,6.891,6.891,0,0,0,.651-.545c1.907-1.816,2.765-4.769,2.354-8.1-.188-1.529-.929-5.3-3.733-7.247a4.4,4.4,0,0,0-2.5-.836h-.082a5.967,5.967,0,0,0-1.9.432c-.176.063-.343.123-.487.164-.612.177-1.25.324-1.907.446a21.749,21.749,0,0,0,2.2-1.64,24.968,24.968,0,0,0,3.941-4.28,29.386,29.386,0,0,0,5.162-7.7,40.149,40.149,0,0,0,3.664-12.871C4556.571,4683.713,4556.352,4678.34,4553.29,4673.851Zm-28.245,30.646c-.012-.122-.022-.247-.03-.373a10.475,10.475,0,0,1,1.353-5.765,4.494,4.494,0,0,1,2.651-1.19c.068,0,.137,0,.205.009a1.891,1.891,0,0,1,1.587,2.166h0v.011h0a4.851,4.851,0,0,1-.756,2.184A13.83,13.83,0,0,1,4525.045,4704.5Z"/>
    </clipPath>
    <linearGradient id="linear-gradient-10" x1="0.5" y1="-5.185" x2="0.5" y2="27.061" xlink:href="#linear-gradient"/>
    <linearGradient id="linear-gradient-12" x1="0.507" y1="-396.909" x2="0.507" y2="185.188" xlink:href="#linear-gradient"/>
    <linearGradient id="linear-gradient-13" x1="0.5" y1="0.081" x2="0.5" y2="0.728" xlink:href="#linear-gradient"/>
    <linearGradient id="linear-gradient-14" x1="0.503" y1="-23.906" x2="0.503" y2="52.468" xlink:href="#linear-gradient"/>
    <clipPath id="clip-path-6">
      <path id="Path_13663" data-name="Path 13663" d="M4470.688,4670.024a8.573,8.573,0,0,0-1.993-2.2,4.3,4.3,0,0,0-.646-.46,3.9,3.9,0,0,0-.8-.428,9.194,9.194,0,0,0-4.017-.847,12.584,12.584,0,0,0-1.368.077,20.663,20.663,0,0,0-2.356.441c-.415.094-.807.184-1.2.257a62.126,62.126,0,0,1-10.422.949c-.548.009-1.1.013-1.645.013-3.044,0-6.273-.129-10.164-.405-2.449-.175-4.945-.429-7.357-.676-1.523-.156-3.1-.316-4.654-.456-.767-.07-1.535-.1-2.284-.1a19.244,19.244,0,0,0-9.778,2.435,17.124,17.124,0,0,0-5.461,5.123,19.005,19.005,0,0,0-4.247,6.566,24.168,24.168,0,0,0-1.48,6,15.735,15.735,0,0,0,.32,6.449,6.623,6.623,0,0,0,3.959,4.481,7.181,7.181,0,0,0,2.494.429,10.381,10.381,0,0,0,4.067-.9,14.636,14.636,0,0,0,2.713-1.537c.442-.316.847-.647,1.238-.968.346-.284.673-.552,1.005-.793a15.352,15.352,0,0,1,4.276-2.184,16.868,16.868,0,0,1,5.12-.841c.159,0,.317,0,.473.008l.018.066c2.066,7.873-.632,16-3.241,23.864q-.45,1.354-.885,2.688l-.087.266a9.866,9.866,0,0,0-.683,3.89,7.359,7.359,0,0,0,1.76,4.116,17.166,17.166,0,0,0,6.441,4.482,50.03,50.03,0,0,0,15.6,3.836,48.282,48.282,0,0,0,4.864.282c.83,0,1.632-.032,2.386-.1a4.237,4.237,0,0,0,3.714-2.977c2.549-1.306,2.748-5.048,2.831-6.6a42.183,42.183,0,0,0-.536-8.186c-.363-2.51-.875-5.18-1.566-8.163-.641-2.765-1.344-5.476-2.091-8.059-.176-.606-.365-1.217-.548-1.808a29.146,29.146,0,0,1-1.339-5.541c-.018-.178-.028-.343-.034-.5.071,0,.14-.007.207-.008h.092a15.3,15.3,0,0,1,2.058.2c.217.03.432.06.647.088a31.97,31.97,0,0,0,4.006.308,14.837,14.837,0,0,0,3.416-.364,7.972,7.972,0,0,0,5.361-4.069,8.309,8.309,0,0,0,2.511-3.364,18.138,18.138,0,0,0,1.223-6.7A14.193,14.193,0,0,0,4470.688,4670.024Z"/>
    </clipPath>
    <linearGradient id="linear-gradient-15" x1="0.5" y1="2.116" x2="0.5" y2="83.171" xlink:href="#linear-gradient"/>
    <clipPath id="clip-path-7">
      <path id="Path_13671" data-name="Path 13671" d="M4667.351,4696.084c-.163-.971-.366-1.96-.6-2.938l0-.02-.005-.019-.016-.058c-.03-.134-.066-.275-.1-.425l-.007,0,0-.01h.006c-.185-.707-.31-1.183-.389-1.482a4.117,4.117,0,0,0-.225-.673c-2.574-8.349-6.807-14.364-12.592-17.889a28.292,28.292,0,0,0-12.957-3.81c-.951-.064-1.955-.1-3.069-.1-1.258,0-2.5.04-3.552.079-.627.024-1.274.034-1.9.043q-.7.01-1.392.027a9.484,9.484,0,0,0-3.323.616,5.752,5.752,0,0,0-3.195,3.1,6.179,6.179,0,0,0-2.674,5.152,24.31,24.31,0,0,0-5.905,5.77,29.032,29.032,0,0,0-7.163,14.234,44.19,44.19,0,0,0-.651,13.56,30.049,30.049,0,0,0,3.126,11.563,19.271,19.271,0,0,0,9.795,8.571,38.694,38.694,0,0,0,13.563,2.5c.982.033,1.852.05,2.659.05a30.166,30.166,0,0,0,11.131-1.736,27.316,27.316,0,0,0,10.69-7.533c.491-.56.949-1.147,1.391-1.746q.368-.387.721-.789C4666.575,4715.431,4669,4705.936,4667.351,4696.084Zm-41.523,14.481c.189-.236.365-.468.539-.7.081-.088.163-.175.242-.262.438-.49.886-1.02,1.332-1.573a23.374,23.374,0,0,0,2.022-2.924,9.281,9.281,0,0,1,1.324,5.471h0v.011h0a8.306,8.306,0,0,1-.631,2.662,4.726,4.726,0,0,1-2.44.71,4.2,4.2,0,0,1-1.032-.129,2.91,2.91,0,0,1-1.851-1.225,1.531,1.531,0,0,1-.04-1.392C4625.471,4711,4625.65,4710.787,4625.828,4710.565Z"/>
    </clipPath>
    <linearGradient id="linear-gradient-17" x1="0.5" y1="-0.125" x2="0.5" y2="0.549" xlink:href="#linear-gradient"/>
    <linearGradient id="linear-gradient-18" x1="0.503" y1="-52.841" x2="0.503" y2="17.378" xlink:href="#linear-gradient"/>
    <linearGradient id="linear-gradient-19" x1="0.5" y1="-14.848" x2="0.5" y2="6.212" xlink:href="#linear-gradient"/>
    <clipPath id="clip-path-8">
      <path id="Path_13678" data-name="Path 13678" d="M4627.574,4718a9.07,9.07,0,0,0-1.36-4.1,4.389,4.389,0,0,0-.55-.718l-.015-.016,0,0a11.6,11.6,0,0,0-2.322-1.856,7.761,7.761,0,0,0-3.828-1.39c-.067,0-.134,0-.2,0a7.908,7.908,0,0,0-3.539,1.025c-.306.152-.609.309-.912.466-.642.332-1.249.646-1.867.908a7.407,7.407,0,0,1-2.947.617,8.279,8.279,0,0,1-2.3-.343,15.672,15.672,0,0,1-5.024-2.636,20.294,20.294,0,0,1-7.02-9.291,11.126,11.126,0,0,1-.638-4.361h0a16.666,16.666,0,0,0,11.2,4.666,12.036,12.036,0,0,0,5.9-1.477,19.059,19.059,0,0,0,7.33-11.115,15.4,15.4,0,0,0-3.461-9.57,32.577,32.577,0,0,0-16.117-11.023,28.542,28.542,0,0,0-8.38-1.341,17.26,17.26,0,0,0-10.9,3.413,14.041,14.041,0,0,0-3.113,3.406,15.042,15.042,0,0,0-4.03,6.717,17.349,17.349,0,0,0,0,8.474,41.5,41.5,0,0,0,3.455,9.662,74.859,74.859,0,0,0,5.064,8.782,93.89,93.89,0,0,0,13.031,15.609c2.674,2.571,5.474,4.417,7.837,6.548,2.894,2.61,6.316,5.293,9.5,4.627.836-.175,1.676.262,2.5.262a9.855,9.855,0,0,0,7.465-3.23,11.555,11.555,0,0,0,1.247-1.687,9.457,9.457,0,0,0,.866-.848A13.489,13.489,0,0,0,4627.574,4718Z"/>
    </clipPath>
    <linearGradient id="linear-gradient-20" x1="0.5" y1="-130.82" x2="0.5" y2="-26.857" xlink:href="#linear-gradient"/>
    <clipPath id="clip-path-9">
      <path id="Path_13686" data-name="Path 13686" d="M4711.379,4684.584c-.109-.492-.226-.98-.35-1.459a7.475,7.475,0,0,0-.219-.825c-.02-.069-.041-.14-.063-.213l-.027-.1a25.578,25.578,0,0,0-8.013-12.679,16.849,16.849,0,0,0-7.664-3.8,11.842,11.842,0,0,0-2.125-.193,11.24,11.24,0,0,0-6.594,2.1,14.694,14.694,0,0,0-3.617,3.794,15.726,15.726,0,0,0-2.166,2.62c-.112-.09-.219-.165-.3-.221l-.044-.03c-.208-.165-.42-.328-.632-.488a37.2,37.2,0,0,0-3.161-2.148,20.066,20.066,0,0,0-10.179-3.3,11.071,11.071,0,0,0-5.834,1.585,13.435,13.435,0,0,0-4.193,4.143c-3.488,3.312-4.963,8.364-5.784,12.121a64.576,64.576,0,0,0-1.135,17.383c.172,3.158.537,6.215.872,8.789a69.58,69.58,0,0,0,1.569,8.583,22.1,22.1,0,0,0,3.276,7.761,9.367,9.367,0,0,0,3.245,2.838,10.574,10.574,0,0,0,2.116.762,11.794,11.794,0,0,0,3.059.5,5.994,5.994,0,0,0,1.47-.174,3.51,3.51,0,0,0,2.6-2.7c.984-.4,2.223-1.4,2.3-3.908a15.066,15.066,0,0,0-.342-3.3c3.732,5.047,7.914,8.555,12.471,10.443a19.11,19.11,0,0,0,10.91,1.131,16.551,16.551,0,0,0,9.13-5.013,22.981,22.981,0,0,0,1.913-2.338c.065-.068.135-.128.2-.2,4.086-4.342,6.694-10.667,7.976-19.339A61.686,61.686,0,0,0,4711.379,4684.584Z"/>
    </clipPath>
    <linearGradient id="linear-gradient-22" x1="0.501" y1="-6.764" x2="0.501" y2="29.942" xlink:href="#linear-gradient"/>
    <linearGradient id="linear-gradient-23" x1="0.5" y1="0.119" x2="0.5" y2="0.789" xlink:href="#linear-gradient"/>
  </defs>
  <g id="Group_5328" data-name="Group 5328" transform="translate(-4391.556 -4653.938)">
    <g id="Group_5290" data-name="Group 5290">
      <g id="Group_5289" data-name="Group 5289">
        <g id="Group_5285" data-name="Group 5285">
          <path id="Path_13609" data-name="Path 13609" d="M4875.795,4666.515a15.108,15.108,0,0,0-3.331-3.709,10.822,10.822,0,0,0-1.337-.955,10.575,10.575,0,0,0-1.711-.907,16.392,16.392,0,0,0-8.631-1.237,26.737,26.737,0,0,0-3.087.564c-.328.075-.637.147-.946.205a55.755,55.755,0,0,1-9.33.839q-.769.012-1.539.012c-2.886,0-5.969-.123-9.7-.389-2.376-.169-4.807-.418-7.159-.659-1.548-.158-3.149-.321-4.73-.463-.959-.087-1.924-.131-2.869-.131a25.91,25.91,0,0,0-12.225,2.862,29.506,29.506,0,0,0-7.19-.083,40.9,40.9,0,0,0-13.515,3.994,38.737,38.737,0,0,0-4.139,2.36l0,0a14.769,14.769,0,0,0-1.174-1.346,23.913,23.913,0,0,0-17.449-7.316h-.217a20,20,0,0,0-6.346,1.031,24.673,24.673,0,0,0-4.979,2.4,39.182,39.182,0,0,0-7.23,5.848q-.729.733-1.441,1.512a40.363,40.363,0,0,0-15.879-9.373,35.087,35.087,0,0,0-10.318-1.637h0a24.076,24.076,0,0,0-13.332,3.673,22.955,22.955,0,0,0-9.777-4.491,18.342,18.342,0,0,0-3.289-.3,17.7,17.7,0,0,0-10.382,3.317,20.452,20.452,0,0,0-3.278,2.947,26.022,26.022,0,0,0-13.036-3.94,17.491,17.491,0,0,0-9.206,2.528,18.543,18.543,0,0,0-2.7,2,36.036,36.036,0,0,0-13.429-3.394c-1.1-.073-2.244-.109-3.5-.109-1.363,0-2.683.042-3.795.084-.579.021-1.176.03-1.76.039h-.077q-.693.01-1.383.027a15.889,15.889,0,0,0-5.574,1.081,12.286,12.286,0,0,0-5.86,4.885,12.154,12.154,0,0,0-1.821,2.09,40.489,40.489,0,0,0-15.275-8.8,35.083,35.083,0,0,0-10.319-1.637h0a23.588,23.588,0,0,0-14.9,4.789,20.455,20.455,0,0,0-4.133,4.352,21.744,21.744,0,0,0-5.246,9.06,23.605,23.605,0,0,0-.126,11.634,47.922,47.922,0,0,0,3.971,11.176,81.636,81.636,0,0,0,5.5,9.547,100.431,100.431,0,0,0,13.936,16.691,65.029,65.029,0,0,0,5.054,4.282c1.067.839,2.075,1.631,2.935,2.407,2.6,2.342,7.868,7.1,14.211,6.322a10.286,10.286,0,0,0,2.133.24,16.659,16.659,0,0,0,7.338-1.656,50.727,50.727,0,0,0,11.7,1.6c1.06.036,2,.054,2.882.054a36.275,36.275,0,0,0,13.456-2.166,32.424,32.424,0,0,0,4.322-2.036q.356.209.723.4a16.81,16.81,0,0,0,3.392,1.256,17.966,17.966,0,0,0,4.749.721,12.5,12.5,0,0,0,3.062-.372,9.9,9.9,0,0,0,5.758-3.98,31.223,31.223,0,0,0,7.187,4.219,25.609,25.609,0,0,0,14.616,1.511,22.912,22.912,0,0,0,12.645-6.944,29.039,29.039,0,0,0,2.139-2.562,31.235,31.235,0,0,0,5.237-7.659q2.071,2.258,4.263,4.365a65.121,65.121,0,0,0,5.054,4.282c1.067.839,2.075,1.631,2.935,2.407,2.6,2.342,7.87,7.094,14.211,6.322a10.291,10.291,0,0,0,2.133.24,16.436,16.436,0,0,0,10.177-3.405,35.292,35.292,0,0,0,14.041,3.4l.327,0a17.813,17.813,0,0,0,8.118-1.743,15.031,15.031,0,0,0,4.225,1.487,14.62,14.62,0,0,0,2.718.256,15.5,15.5,0,0,0,12.717-6.959,16.194,16.194,0,0,0,2.583-3.278,31.825,31.825,0,0,0,3.482-8.452,28.045,28.045,0,0,0,7.041-1.57,29.036,29.036,0,0,0,7.393-4.009,14.768,14.768,0,0,0-.712,5.542,13.92,13.92,0,0,0,3.2,7.735,23.574,23.574,0,0,0,8.821,6.306,56.421,56.421,0,0,0,17.6,4.371,54.727,54.727,0,0,0,5.514.314c1.009,0,1.994-.04,2.926-.118a10.45,10.45,0,0,0,8.234-5.08c3.876-3.359,4.159-8.7,4.261-10.636a48.129,48.129,0,0,0-.593-9.458c-.389-2.693-.935-5.54-1.668-8.7-.585-2.525-1.221-5.009-1.9-7.4a20.162,20.162,0,0,0,3.461-.5,14.513,14.513,0,0,0,8.915-6.17,14.855,14.855,0,0,0,3.464-5.07,24.44,24.44,0,0,0,1.731-9.092A20.5,20.5,0,0,0,4875.795,4666.515Z" fill="#fff"/>
          <path id="Path_13610" data-name="Path 13610" d="M4557.652,4668.818v0a14.772,14.772,0,0,0-1.175-1.347,23.908,23.908,0,0,0-17.448-7.315h-.217a19.992,19.992,0,0,0-6.345,1.031,24.667,24.667,0,0,0-4.98,2.4,39.193,39.193,0,0,0-7.229,5.848c-.9.906-1.782,1.864-2.636,2.863a21.326,21.326,0,0,0-9.337-1.881,32.516,32.516,0,0,0-8.412,1.124c-.811.223-1.541.46-2.235.726-.549.21-1.02.416-1.475.642a9.211,9.211,0,0,0-2.954,2.156q-.125-.379-.254-.762a32.884,32.884,0,0,0-5.893-10.979,19.54,19.54,0,0,0-13.975-6.733c-.568-.035-1.154-.052-1.743-.052a48.656,48.656,0,0,0-10.878,1.507,90.27,90.27,0,0,0-11.156,3.108l-.362.133c-.381.012-.767.022-1.16.029q-.77.012-1.54.012c-2.885,0-5.969-.123-9.7-.389-2.375-.169-4.806-.418-7.159-.659-1.547-.158-3.148-.321-4.73-.463-.959-.087-1.924-.131-2.868-.131a25.64,25.64,0,0,0-13.037,3.311,23.688,23.688,0,0,0-7.209,6.57,25.744,25.744,0,0,0-5.3,8.382,30.653,30.653,0,0,0-1.881,7.611,22.017,22.017,0,0,0,.562,9.1,13.142,13.142,0,0,0,7.922,8.677,15.324,15.324,0,0,0,11.37-.6,21.014,21.014,0,0,0,3.933-2.222c.612-.437,1.14-.869,1.584-1.233.24-.2.465-.387.7-.554.067-.048.134-.1.2-.141-.41,4.321-1.95,8.959-3.556,13.8-.3.9-.594,1.791-.875,2.66l-.089.271a15.918,15.918,0,0,0-.985,6.4,13.919,13.919,0,0,0,3.206,7.735,23.561,23.561,0,0,0,8.821,6.306,56.438,56.438,0,0,0,17.6,4.371,54.743,54.743,0,0,0,5.514.314c1.01,0,2-.04,2.927-.118a10.452,10.452,0,0,0,8.234-5.08,10.95,10.95,0,0,0,2.682-3.56q.276.552.57,1.108l.1.184c.955,1.814,3.191,6.062,8.316,7.165a14.026,14.026,0,0,0,2.976.3c.708,0,1.335-.043,1.845-.079.155-.011.31-.022.455-.029l3.025-.147a69.438,69.438,0,0,0,8.834-.807,18.4,18.4,0,0,0,4.075-1.129,10.31,10.31,0,0,0,3.495-2.3c.119-.121.233-.248.342-.378a10.063,10.063,0,0,0,1.024-1.472q.14-.116.281-.24a8.93,8.93,0,0,0,2.45.747,22,22,0,0,0,3.335.252l.332,0a21.215,21.215,0,0,0,7.7-1.447h0a9.271,9.271,0,0,0,3.37-2.187,43.815,43.815,0,0,0,5.095,3.514c4.319,2.549,11.021,5.607,18.434,5.7l.327,0c4.729,0,8.545-1.35,11.341-4.014a13.475,13.475,0,0,0,2.03-2.457c.028-.025.055-.051.082-.077,3.412-3.25,4.988-8.209,4.322-13.6a17.893,17.893,0,0,0-4.3-9.9,37.193,37.193,0,0,0,4.413-7.185,46.7,46.7,0,0,0,4.254-14.985c.491-4.775.216-11.717-3.838-17.81A14.375,14.375,0,0,0,4557.652,4668.818Z" fill="#fff"/>
        </g>
        <g id="Group_5286" data-name="Group 5286">
          <path id="Path_13611" data-name="Path 13611" d="M4875.795,4666.515a15.108,15.108,0,0,0-3.331-3.709,10.822,10.822,0,0,0-1.337-.955,10.575,10.575,0,0,0-1.711-.907,16.392,16.392,0,0,0-8.631-1.237,26.737,26.737,0,0,0-3.087.564c-.328.075-.637.147-.946.205a55.755,55.755,0,0,1-9.33.839q-.769.012-1.539.012c-2.886,0-5.969-.123-9.7-.389-2.376-.169-4.807-.418-7.159-.659-1.548-.158-3.149-.321-4.73-.463-.959-.087-1.924-.131-2.869-.131a25.91,25.91,0,0,0-12.225,2.862,29.506,29.506,0,0,0-7.19-.083,40.9,40.9,0,0,0-13.515,3.994,38.737,38.737,0,0,0-4.139,2.36l0,0a14.769,14.769,0,0,0-1.174-1.346,23.913,23.913,0,0,0-17.449-7.316h-.217a20,20,0,0,0-6.346,1.031,24.673,24.673,0,0,0-4.979,2.4,39.182,39.182,0,0,0-7.23,5.848q-.729.733-1.441,1.512a40.363,40.363,0,0,0-15.879-9.373,35.087,35.087,0,0,0-10.318-1.637h0a24.076,24.076,0,0,0-13.332,3.673,22.955,22.955,0,0,0-9.777-4.491,18.342,18.342,0,0,0-3.289-.3,17.7,17.7,0,0,0-10.382,3.317,20.452,20.452,0,0,0-3.278,2.947,26.022,26.022,0,0,0-13.036-3.94,17.491,17.491,0,0,0-9.206,2.528,18.543,18.543,0,0,0-2.7,2,36.036,36.036,0,0,0-13.429-3.394c-1.1-.073-2.244-.109-3.5-.109-1.363,0-2.683.042-3.795.084-.579.021-1.176.03-1.76.039h-.077q-.693.01-1.383.027a15.889,15.889,0,0,0-5.574,1.081,12.286,12.286,0,0,0-5.86,4.885,12.154,12.154,0,0,0-1.821,2.09,40.489,40.489,0,0,0-15.275-8.8,35.083,35.083,0,0,0-10.319-1.637h0a23.588,23.588,0,0,0-14.9,4.789,20.455,20.455,0,0,0-4.133,4.352,21.744,21.744,0,0,0-5.246,9.06,23.605,23.605,0,0,0-.126,11.634,47.922,47.922,0,0,0,3.971,11.176,81.636,81.636,0,0,0,5.5,9.547,100.431,100.431,0,0,0,13.936,16.691,65.029,65.029,0,0,0,5.054,4.282c1.067.839,2.075,1.631,2.935,2.407,2.6,2.342,7.868,7.1,14.211,6.322a10.286,10.286,0,0,0,2.133.24,16.659,16.659,0,0,0,7.338-1.656,50.727,50.727,0,0,0,11.7,1.6c1.06.036,2,.054,2.882.054a36.275,36.275,0,0,0,13.456-2.166,32.424,32.424,0,0,0,4.322-2.036q.356.209.723.4a16.81,16.81,0,0,0,3.392,1.256,17.966,17.966,0,0,0,4.749.721,12.5,12.5,0,0,0,3.062-.372,9.9,9.9,0,0,0,5.758-3.98,31.223,31.223,0,0,0,7.187,4.219,25.609,25.609,0,0,0,14.616,1.511,22.912,22.912,0,0,0,12.645-6.944,29.039,29.039,0,0,0,2.139-2.562,31.235,31.235,0,0,0,5.237-7.659q2.071,2.258,4.263,4.365a65.121,65.121,0,0,0,5.054,4.282c1.067.839,2.075,1.631,2.935,2.407,2.6,2.342,7.87,7.094,14.211,6.322a10.291,10.291,0,0,0,2.133.24,16.436,16.436,0,0,0,10.177-3.405,35.292,35.292,0,0,0,14.041,3.4l.327,0a17.813,17.813,0,0,0,8.118-1.743,15.031,15.031,0,0,0,4.225,1.487,14.62,14.62,0,0,0,2.718.256,15.5,15.5,0,0,0,12.717-6.959,16.194,16.194,0,0,0,2.583-3.278,31.825,31.825,0,0,0,3.482-8.452,28.045,28.045,0,0,0,7.041-1.57,29.036,29.036,0,0,0,7.393-4.009,14.768,14.768,0,0,0-.712,5.542,13.92,13.92,0,0,0,3.2,7.735,23.574,23.574,0,0,0,8.821,6.306,56.421,56.421,0,0,0,17.6,4.371,54.727,54.727,0,0,0,5.514.314c1.009,0,1.994-.04,2.926-.118a10.45,10.45,0,0,0,8.234-5.08c3.876-3.359,4.159-8.7,4.261-10.636a48.129,48.129,0,0,0-.593-9.458c-.389-2.693-.935-5.54-1.668-8.7-.585-2.525-1.221-5.009-1.9-7.4a20.162,20.162,0,0,0,3.461-.5,14.513,14.513,0,0,0,8.915-6.17,14.855,14.855,0,0,0,3.464-5.07,24.44,24.44,0,0,0,1.731-9.092A20.5,20.5,0,0,0,4875.795,4666.515Z" fill="#fff"/>
          <path id="Path_13612" data-name="Path 13612" d="M4557.652,4668.818v0a14.772,14.772,0,0,0-1.175-1.347,23.908,23.908,0,0,0-17.448-7.315h-.217a19.992,19.992,0,0,0-6.345,1.031,24.667,24.667,0,0,0-4.98,2.4,39.193,39.193,0,0,0-7.229,5.848c-.9.906-1.782,1.864-2.636,2.863a21.326,21.326,0,0,0-9.337-1.881,32.516,32.516,0,0,0-8.412,1.124c-.811.223-1.541.46-2.235.726-.549.21-1.02.416-1.475.642a9.211,9.211,0,0,0-2.954,2.156q-.125-.379-.254-.762a32.884,32.884,0,0,0-5.893-10.979,19.54,19.54,0,0,0-13.975-6.733c-.568-.035-1.154-.052-1.743-.052a48.656,48.656,0,0,0-10.878,1.507,90.27,90.27,0,0,0-11.156,3.108l-.362.133c-.381.012-.767.022-1.16.029q-.77.012-1.54.012c-2.885,0-5.969-.123-9.7-.389-2.375-.169-4.806-.418-7.159-.659-1.547-.158-3.148-.321-4.73-.463-.959-.087-1.924-.131-2.868-.131a25.64,25.64,0,0,0-13.037,3.311,23.688,23.688,0,0,0-7.209,6.57,25.744,25.744,0,0,0-5.3,8.382,30.653,30.653,0,0,0-1.881,7.611,22.017,22.017,0,0,0,.562,9.1,13.142,13.142,0,0,0,7.922,8.677,15.324,15.324,0,0,0,11.37-.6,21.014,21.014,0,0,0,3.933-2.222c.612-.437,1.14-.869,1.584-1.233.24-.2.465-.387.7-.554.067-.048.134-.1.2-.141-.41,4.321-1.95,8.959-3.556,13.8-.3.9-.594,1.791-.875,2.66l-.089.271a15.918,15.918,0,0,0-.985,6.4,13.919,13.919,0,0,0,3.206,7.735,23.561,23.561,0,0,0,8.821,6.306,56.438,56.438,0,0,0,17.6,4.371,54.743,54.743,0,0,0,5.514.314c1.01,0,2-.04,2.927-.118a10.452,10.452,0,0,0,8.234-5.08,10.95,10.95,0,0,0,2.682-3.56q.276.552.57,1.108l.1.184c.955,1.814,3.191,6.062,8.316,7.165a14.026,14.026,0,0,0,2.976.3c.708,0,1.335-.043,1.845-.079.155-.011.31-.022.455-.029l3.025-.147a69.438,69.438,0,0,0,8.834-.807,18.4,18.4,0,0,0,4.075-1.129,10.31,10.31,0,0,0,3.495-2.3c.119-.121.233-.248.342-.378a10.063,10.063,0,0,0,1.024-1.472q.14-.116.281-.24a8.93,8.93,0,0,0,2.45.747,22,22,0,0,0,3.335.252l.332,0a21.215,21.215,0,0,0,7.7-1.447h0a9.271,9.271,0,0,0,3.37-2.187,43.815,43.815,0,0,0,5.095,3.514c4.319,2.549,11.021,5.607,18.434,5.7l.327,0c4.729,0,8.545-1.35,11.341-4.014a13.475,13.475,0,0,0,2.03-2.457c.028-.025.055-.051.082-.077,3.412-3.25,4.988-8.209,4.322-13.6a17.893,17.893,0,0,0-4.3-9.9,37.193,37.193,0,0,0,4.413-7.185,46.7,46.7,0,0,0,4.254-14.985c.491-4.775.216-11.717-3.838-17.81A14.375,14.375,0,0,0,4557.652,4668.818Z" fill="#fff"/>
        </g>
        <g id="Group_5287" data-name="Group 5287">
          <path id="Path_13613" data-name="Path 13613" d="M4875.795,4666.515a15.108,15.108,0,0,0-3.331-3.709,10.822,10.822,0,0,0-1.337-.955,10.575,10.575,0,0,0-1.711-.907,16.392,16.392,0,0,0-8.631-1.237,26.737,26.737,0,0,0-3.087.564c-.328.075-.637.147-.946.205a55.755,55.755,0,0,1-9.33.839q-.769.012-1.539.012c-2.886,0-5.969-.123-9.7-.389-2.376-.169-4.807-.418-7.159-.659-1.548-.158-3.149-.321-4.73-.463-.959-.087-1.924-.131-2.869-.131a25.91,25.91,0,0,0-12.225,2.862,29.506,29.506,0,0,0-7.19-.083,40.9,40.9,0,0,0-13.515,3.994,38.737,38.737,0,0,0-4.139,2.36l0,0a14.769,14.769,0,0,0-1.174-1.346,23.913,23.913,0,0,0-17.449-7.316h-.217a20,20,0,0,0-6.346,1.031,24.673,24.673,0,0,0-4.979,2.4,39.182,39.182,0,0,0-7.23,5.848q-.729.733-1.441,1.512a40.363,40.363,0,0,0-15.879-9.373,35.087,35.087,0,0,0-10.318-1.637h0a24.076,24.076,0,0,0-13.332,3.673,22.955,22.955,0,0,0-9.777-4.491,18.342,18.342,0,0,0-3.289-.3,17.7,17.7,0,0,0-10.382,3.317,20.452,20.452,0,0,0-3.278,2.947,26.022,26.022,0,0,0-13.036-3.94,17.491,17.491,0,0,0-9.206,2.528,18.543,18.543,0,0,0-2.7,2,36.036,36.036,0,0,0-13.429-3.394c-1.1-.073-2.244-.109-3.5-.109-1.363,0-2.683.042-3.795.084-.579.021-1.176.03-1.76.039h-.077q-.693.01-1.383.027a15.889,15.889,0,0,0-5.574,1.081,12.286,12.286,0,0,0-5.86,4.885,12.154,12.154,0,0,0-1.821,2.09,40.489,40.489,0,0,0-15.275-8.8,35.083,35.083,0,0,0-10.319-1.637h0a23.588,23.588,0,0,0-14.9,4.789,20.455,20.455,0,0,0-4.133,4.352,21.744,21.744,0,0,0-5.246,9.06,23.605,23.605,0,0,0-.126,11.634,47.922,47.922,0,0,0,3.971,11.176,81.636,81.636,0,0,0,5.5,9.547,100.431,100.431,0,0,0,13.936,16.691,65.029,65.029,0,0,0,5.054,4.282c1.067.839,2.075,1.631,2.935,2.407,2.6,2.342,7.868,7.1,14.211,6.322a10.286,10.286,0,0,0,2.133.24,16.659,16.659,0,0,0,7.338-1.656,50.727,50.727,0,0,0,11.7,1.6c1.06.036,2,.054,2.882.054a36.275,36.275,0,0,0,13.456-2.166,32.424,32.424,0,0,0,4.322-2.036q.356.209.723.4a16.81,16.81,0,0,0,3.392,1.256,17.966,17.966,0,0,0,4.749.721,12.5,12.5,0,0,0,3.062-.372,9.9,9.9,0,0,0,5.758-3.98,31.223,31.223,0,0,0,7.187,4.219,25.609,25.609,0,0,0,14.616,1.511,22.912,22.912,0,0,0,12.645-6.944,29.039,29.039,0,0,0,2.139-2.562,31.235,31.235,0,0,0,5.237-7.659q2.071,2.258,4.263,4.365a65.121,65.121,0,0,0,5.054,4.282c1.067.839,2.075,1.631,2.935,2.407,2.6,2.342,7.87,7.094,14.211,6.322a10.291,10.291,0,0,0,2.133.24,16.436,16.436,0,0,0,10.177-3.405,35.292,35.292,0,0,0,14.041,3.4l.327,0a17.813,17.813,0,0,0,8.118-1.743,15.031,15.031,0,0,0,4.225,1.487,14.62,14.62,0,0,0,2.718.256,15.5,15.5,0,0,0,12.717-6.959,16.194,16.194,0,0,0,2.583-3.278,31.825,31.825,0,0,0,3.482-8.452,28.045,28.045,0,0,0,7.041-1.57,29.036,29.036,0,0,0,7.393-4.009,14.768,14.768,0,0,0-.712,5.542,13.92,13.92,0,0,0,3.2,7.735,23.574,23.574,0,0,0,8.821,6.306,56.421,56.421,0,0,0,17.6,4.371,54.727,54.727,0,0,0,5.514.314c1.009,0,1.994-.04,2.926-.118a10.45,10.45,0,0,0,8.234-5.08c3.876-3.359,4.159-8.7,4.261-10.636a48.129,48.129,0,0,0-.593-9.458c-.389-2.693-.935-5.54-1.668-8.7-.585-2.525-1.221-5.009-1.9-7.4a20.162,20.162,0,0,0,3.461-.5,14.513,14.513,0,0,0,8.915-6.17,14.855,14.855,0,0,0,3.464-5.07,24.44,24.44,0,0,0,1.731-9.092A20.5,20.5,0,0,0,4875.795,4666.515Z" fill="none" stroke="#fff" stroke-miterlimit="10" stroke-width="5.2"/>
          <path id="Path_13614" data-name="Path 13614" d="M4557.652,4668.818v0a14.772,14.772,0,0,0-1.175-1.347,23.908,23.908,0,0,0-17.448-7.315h-.217a19.992,19.992,0,0,0-6.345,1.031,24.667,24.667,0,0,0-4.98,2.4,39.193,39.193,0,0,0-7.229,5.848c-.9.906-1.782,1.864-2.636,2.863a21.326,21.326,0,0,0-9.337-1.881,32.516,32.516,0,0,0-8.412,1.124c-.811.223-1.541.46-2.235.726-.549.21-1.02.416-1.475.642a9.211,9.211,0,0,0-2.954,2.156q-.125-.379-.254-.762a32.884,32.884,0,0,0-5.893-10.979,19.54,19.54,0,0,0-13.975-6.733c-.568-.035-1.154-.052-1.743-.052a48.656,48.656,0,0,0-10.878,1.507,90.27,90.27,0,0,0-11.156,3.108l-.362.133c-.381.012-.767.022-1.16.029q-.77.012-1.54.012c-2.885,0-5.969-.123-9.7-.389-2.375-.169-4.806-.418-7.159-.659-1.547-.158-3.148-.321-4.73-.463-.959-.087-1.924-.131-2.868-.131a25.64,25.64,0,0,0-13.037,3.311,23.688,23.688,0,0,0-7.209,6.57,25.744,25.744,0,0,0-5.3,8.382,30.653,30.653,0,0,0-1.881,7.611,22.017,22.017,0,0,0,.562,9.1,13.142,13.142,0,0,0,7.922,8.677,15.324,15.324,0,0,0,11.37-.6,21.014,21.014,0,0,0,3.933-2.222c.612-.437,1.14-.869,1.584-1.233.24-.2.465-.387.7-.554.067-.048.134-.1.2-.141-.41,4.321-1.95,8.959-3.556,13.8-.3.9-.594,1.791-.875,2.66l-.089.271a15.918,15.918,0,0,0-.985,6.4,13.919,13.919,0,0,0,3.206,7.735,23.561,23.561,0,0,0,8.821,6.306,56.438,56.438,0,0,0,17.6,4.371,54.743,54.743,0,0,0,5.514.314c1.01,0,2-.04,2.927-.118a10.452,10.452,0,0,0,8.234-5.08,10.95,10.95,0,0,0,2.682-3.56q.276.552.57,1.108l.1.184c.955,1.814,3.191,6.062,8.316,7.165a14.026,14.026,0,0,0,2.976.3c.708,0,1.335-.043,1.845-.079.155-.011.31-.022.455-.029l3.025-.147a69.438,69.438,0,0,0,8.834-.807,18.4,18.4,0,0,0,4.075-1.129,10.31,10.31,0,0,0,3.495-2.3c.119-.121.233-.248.342-.378a10.063,10.063,0,0,0,1.024-1.472q.14-.116.281-.24a8.93,8.93,0,0,0,2.45.747,22,22,0,0,0,3.335.252l.332,0a21.215,21.215,0,0,0,7.7-1.447h0a9.271,9.271,0,0,0,3.37-2.187,43.815,43.815,0,0,0,5.095,3.514c4.319,2.549,11.021,5.607,18.434,5.7l.327,0c4.729,0,8.545-1.35,11.341-4.014a13.475,13.475,0,0,0,2.03-2.457c.028-.025.055-.051.082-.077,3.412-3.25,4.988-8.209,4.322-13.6a17.893,17.893,0,0,0-4.3-9.9,37.193,37.193,0,0,0,4.413-7.185,46.7,46.7,0,0,0,4.254-14.985c.491-4.775.216-11.717-3.838-17.81A14.375,14.375,0,0,0,4557.652,4668.818Z" fill="none" stroke="#fff" stroke-miterlimit="10" stroke-width="5.2"/>
        </g>
        <g id="Group_5288" data-name="Group 5288">
          <path id="Path_13615" data-name="Path 13615" d="M4875.795,4666.515a15.108,15.108,0,0,0-3.331-3.709,10.822,10.822,0,0,0-1.337-.955,10.575,10.575,0,0,0-1.711-.907,16.392,16.392,0,0,0-8.631-1.237,26.737,26.737,0,0,0-3.087.564c-.328.075-.637.147-.946.205a55.755,55.755,0,0,1-9.33.839q-.769.012-1.539.012c-2.886,0-5.969-.123-9.7-.389-2.376-.169-4.807-.418-7.159-.659-1.548-.158-3.149-.321-4.73-.463-.959-.087-1.924-.131-2.869-.131a25.91,25.91,0,0,0-12.225,2.862,29.506,29.506,0,0,0-7.19-.083,40.9,40.9,0,0,0-13.515,3.994,38.737,38.737,0,0,0-4.139,2.36l0,0a14.769,14.769,0,0,0-1.174-1.346,23.913,23.913,0,0,0-17.449-7.316h-.217a20,20,0,0,0-6.346,1.031,24.673,24.673,0,0,0-4.979,2.4,39.182,39.182,0,0,0-7.23,5.848q-.729.733-1.441,1.512a40.363,40.363,0,0,0-15.879-9.373,35.087,35.087,0,0,0-10.318-1.637h0a24.076,24.076,0,0,0-13.332,3.673,22.955,22.955,0,0,0-9.777-4.491,18.342,18.342,0,0,0-3.289-.3,17.7,17.7,0,0,0-10.382,3.317,20.452,20.452,0,0,0-3.278,2.947,26.022,26.022,0,0,0-13.036-3.94,17.491,17.491,0,0,0-9.206,2.528,18.543,18.543,0,0,0-2.7,2,36.036,36.036,0,0,0-13.429-3.394c-1.1-.073-2.244-.109-3.5-.109-1.363,0-2.683.042-3.795.084-.579.021-1.176.03-1.76.039h-.077q-.693.01-1.383.027a15.889,15.889,0,0,0-5.574,1.081,12.286,12.286,0,0,0-5.86,4.885,12.154,12.154,0,0,0-1.821,2.09,40.489,40.489,0,0,0-15.275-8.8,35.083,35.083,0,0,0-10.319-1.637h0a23.588,23.588,0,0,0-14.9,4.789,20.455,20.455,0,0,0-4.133,4.352,21.744,21.744,0,0,0-5.246,9.06,23.605,23.605,0,0,0-.126,11.634,47.922,47.922,0,0,0,3.971,11.176,81.636,81.636,0,0,0,5.5,9.547,100.431,100.431,0,0,0,13.936,16.691,65.029,65.029,0,0,0,5.054,4.282c1.067.839,2.075,1.631,2.935,2.407,2.6,2.342,7.868,7.1,14.211,6.322a10.286,10.286,0,0,0,2.133.24,16.659,16.659,0,0,0,7.338-1.656,50.727,50.727,0,0,0,11.7,1.6c1.06.036,2,.054,2.882.054a36.275,36.275,0,0,0,13.456-2.166,32.424,32.424,0,0,0,4.322-2.036q.356.209.723.4a16.81,16.81,0,0,0,3.392,1.256,17.966,17.966,0,0,0,4.749.721,12.5,12.5,0,0,0,3.062-.372,9.9,9.9,0,0,0,5.758-3.98,31.223,31.223,0,0,0,7.187,4.219,25.609,25.609,0,0,0,14.616,1.511,22.912,22.912,0,0,0,12.645-6.944,29.039,29.039,0,0,0,2.139-2.562,31.235,31.235,0,0,0,5.237-7.659q2.071,2.258,4.263,4.365a65.121,65.121,0,0,0,5.054,4.282c1.067.839,2.075,1.631,2.935,2.407,2.6,2.342,7.87,7.094,14.211,6.322a10.291,10.291,0,0,0,2.133.24,16.436,16.436,0,0,0,10.177-3.405,35.292,35.292,0,0,0,14.041,3.4l.327,0a17.813,17.813,0,0,0,8.118-1.743,15.031,15.031,0,0,0,4.225,1.487,14.62,14.62,0,0,0,2.718.256,15.5,15.5,0,0,0,12.717-6.959,16.194,16.194,0,0,0,2.583-3.278,31.825,31.825,0,0,0,3.482-8.452,28.045,28.045,0,0,0,7.041-1.57,29.036,29.036,0,0,0,7.393-4.009,14.768,14.768,0,0,0-.712,5.542,13.92,13.92,0,0,0,3.2,7.735,23.574,23.574,0,0,0,8.821,6.306,56.421,56.421,0,0,0,17.6,4.371,54.727,54.727,0,0,0,5.514.314c1.009,0,1.994-.04,2.926-.118a10.45,10.45,0,0,0,8.234-5.08c3.876-3.359,4.159-8.7,4.261-10.636a48.129,48.129,0,0,0-.593-9.458c-.389-2.693-.935-5.54-1.668-8.7-.585-2.525-1.221-5.009-1.9-7.4a20.162,20.162,0,0,0,3.461-.5,14.513,14.513,0,0,0,8.915-6.17,14.855,14.855,0,0,0,3.464-5.07,24.44,24.44,0,0,0,1.731-9.092A20.5,20.5,0,0,0,4875.795,4666.515Z" fill="none" stroke="#000" stroke-miterlimit="10" stroke-width="3.9"/>
          <path id="Path_13616" data-name="Path 13616" d="M4557.652,4668.818v0a14.772,14.772,0,0,0-1.175-1.347,23.908,23.908,0,0,0-17.448-7.315h-.217a19.992,19.992,0,0,0-6.345,1.031,24.667,24.667,0,0,0-4.98,2.4,39.193,39.193,0,0,0-7.229,5.848c-.9.906-1.782,1.864-2.636,2.863a21.326,21.326,0,0,0-9.337-1.881,32.516,32.516,0,0,0-8.412,1.124c-.811.223-1.541.46-2.235.726-.549.21-1.02.416-1.475.642a9.211,9.211,0,0,0-2.954,2.156q-.125-.379-.254-.762a32.884,32.884,0,0,0-5.893-10.979,19.54,19.54,0,0,0-13.975-6.733c-.568-.035-1.154-.052-1.743-.052a48.656,48.656,0,0,0-10.878,1.507,90.27,90.27,0,0,0-11.156,3.108l-.362.133c-.381.012-.767.022-1.16.029q-.77.012-1.54.012c-2.885,0-5.969-.123-9.7-.389-2.375-.169-4.806-.418-7.159-.659-1.547-.158-3.148-.321-4.73-.463-.959-.087-1.924-.131-2.868-.131a25.64,25.64,0,0,0-13.037,3.311,23.688,23.688,0,0,0-7.209,6.57,25.744,25.744,0,0,0-5.3,8.382,30.653,30.653,0,0,0-1.881,7.611,22.017,22.017,0,0,0,.562,9.1,13.142,13.142,0,0,0,7.922,8.677,15.324,15.324,0,0,0,11.37-.6,21.014,21.014,0,0,0,3.933-2.222c.612-.437,1.14-.869,1.584-1.233.24-.2.465-.387.7-.554.067-.048.134-.1.2-.141-.41,4.321-1.95,8.959-3.556,13.8-.3.9-.594,1.791-.875,2.66l-.089.271a15.918,15.918,0,0,0-.985,6.4,13.919,13.919,0,0,0,3.206,7.735,23.561,23.561,0,0,0,8.821,6.306,56.438,56.438,0,0,0,17.6,4.371,54.743,54.743,0,0,0,5.514.314c1.01,0,2-.04,2.927-.118a10.452,10.452,0,0,0,8.234-5.08,10.95,10.95,0,0,0,2.682-3.56q.276.552.57,1.108l.1.184c.955,1.814,3.191,6.062,8.316,7.165a14.026,14.026,0,0,0,2.976.3c.708,0,1.335-.043,1.845-.079.155-.011.31-.022.455-.029l3.025-.147a69.438,69.438,0,0,0,8.834-.807,18.4,18.4,0,0,0,4.075-1.129,10.31,10.31,0,0,0,3.495-2.3c.119-.121.233-.248.342-.378a10.063,10.063,0,0,0,1.024-1.472q.14-.116.281-.24a8.93,8.93,0,0,0,2.45.747,22,22,0,0,0,3.335.252l.332,0a21.215,21.215,0,0,0,7.7-1.447h0a9.271,9.271,0,0,0,3.37-2.187,43.815,43.815,0,0,0,5.095,3.514c4.319,2.549,11.021,5.607,18.434,5.7l.327,0c4.729,0,8.545-1.35,11.341-4.014a13.475,13.475,0,0,0,2.03-2.457c.028-.025.055-.051.082-.077,3.412-3.25,4.988-8.209,4.322-13.6a17.893,17.893,0,0,0-4.3-9.9,37.193,37.193,0,0,0,4.413-7.185,46.7,46.7,0,0,0,4.254-14.985c.491-4.775.216-11.717-3.838-17.81A14.375,14.375,0,0,0,4557.652,4668.818Z" fill="none" stroke="#000" stroke-miterlimit="10" stroke-width="3.9"/>
        </g>
      </g>
    </g>
    <g id="Group_5294" data-name="Group 5294">
      <path id="Path_13617" data-name="Path 13617" d="M4870.323,4670.024a8.59,8.59,0,0,0-1.993-2.2,4.339,4.339,0,0,0-.645-.46,3.9,3.9,0,0,0-.8-.428,9.2,9.2,0,0,0-4.018-.847,12.6,12.6,0,0,0-1.368.077,20.645,20.645,0,0,0-2.355.441c-.415.094-.807.184-1.2.257a62.142,62.142,0,0,1-10.422.949q-.823.014-1.645.013c-3.044,0-6.274-.129-10.164-.405-2.45-.175-4.945-.429-7.358-.676-1.522-.156-3.1-.316-4.653-.456-.767-.07-1.536-.1-2.285-.1a19.248,19.248,0,0,0-9.778,2.435,17.129,17.129,0,0,0-5.461,5.123,18.991,18.991,0,0,0-4.247,6.566,24.233,24.233,0,0,0-1.48,6,15.752,15.752,0,0,0,.32,6.449,6.623,6.623,0,0,0,3.96,4.481,7.173,7.173,0,0,0,2.493.429,10.38,10.38,0,0,0,4.067-.9,14.573,14.573,0,0,0,2.713-1.537c.443-.316.847-.647,1.238-.968.347-.284.674-.552,1.006-.793a15.36,15.36,0,0,1,4.275-2.184,16.877,16.877,0,0,1,5.12-.841c.159,0,.317,0,.474.008l.017.066c2.067,7.873-.631,16-3.241,23.864-.3.9-.6,1.8-.885,2.688l-.086.266a9.84,9.84,0,0,0-.683,3.89,7.358,7.358,0,0,0,1.76,4.116,17.155,17.155,0,0,0,6.441,4.482,50.016,50.016,0,0,0,15.6,3.836,48.283,48.283,0,0,0,4.864.282c.829,0,1.632-.032,2.385-.1a4.236,4.236,0,0,0,3.714-2.977c2.55-1.306,2.749-5.048,2.831-6.6a42.148,42.148,0,0,0-.535-8.186c-.363-2.51-.875-5.18-1.567-8.163-.64-2.765-1.344-5.476-2.091-8.059-.175-.606-.364-1.217-.547-1.808a29.111,29.111,0,0,1-1.339-5.541c-.018-.178-.028-.343-.034-.5.07,0,.14-.007.206-.008h.092a15.319,15.319,0,0,1,2.058.2c.217.03.433.06.648.088a31.96,31.96,0,0,0,4,.308,14.834,14.834,0,0,0,3.416-.364,7.97,7.97,0,0,0,5.361-4.069,8.3,8.3,0,0,0,2.511-3.364,18.138,18.138,0,0,0,1.223-6.7A14.185,14.185,0,0,0,4870.323,4670.024Z"/>
      <g id="Group_5293" data-name="Group 5293" clip-path="url(#clip-path)">
        <g id="Group_5292" data-name="Group 5292">
          <g id="Group_5291" data-name="Group 5291">
            <path id="Path_13618" data-name="Path 13618" d="M4866.39,4668.554s.1.068.391.255.4.239.4.239S4866.4,4668.554,4866.39,4668.554Z" fill="url(#linear-gradient)"/>
            <path id="Path_13619" data-name="Path 13619" d="M4869.463,4684.129a16.808,16.808,0,0,0,1.092-6.084,12.671,12.671,0,0,0-1.655-7.108,6.682,6.682,0,0,0-2.119-2.128,7.2,7.2,0,0,0-3.911-1.029,10.818,10.818,0,0,0-1.182.067c-1.159.128-2.283.464-3.427.679a63.813,63.813,0,0,1-10.706.978q-.836.014-1.672.013c-3.432,0-6.862-.166-10.284-.41-4.025-.286-8.025-.773-12.043-1.134-.707-.064-1.42-.1-2.133-.1a17.734,17.734,0,0,0-8.931,2.208,16.309,16.309,0,0,0-6.867,8.3,22.527,22.527,0,0,0-1.376,5.579,14.1,14.1,0,0,0,.257,5.759,5,5,0,0,0,2.929,3.39,5.492,5.492,0,0,0,1.908.325,8.817,8.817,0,0,0,3.4-.768,12.83,12.83,0,0,0,2.4-1.358c.771-.551,1.466-1.2,2.234-1.755a17.122,17.122,0,0,1,4.746-2.423,18.51,18.51,0,0,1,5.641-.923,13.186,13.186,0,0,1,4.7.81,6.816,6.816,0,0,1,1.423.7c-1.332-.071-2.663-.14-4-.171,2.441,9.3-1.317,18.747-4.152,27.5a9.151,9.151,0,0,0-.693,3.509,5.777,5.777,0,0,0,1.385,3.175,15.57,15.57,0,0,0,5.822,4.008,49.124,49.124,0,0,0,15.076,3.7,46.938,46.938,0,0,0,4.694.273c.751,0,1.5-.027,2.245-.089,2.513-.21,2.782-3.5,2.885-5.452a40.285,40.285,0,0,0-.52-7.855c-.39-2.7-.925-5.37-1.54-8.024q-.929-4.009-2.068-7.971a44.466,44.466,0,0,1-1.944-7.645,4.956,4.956,0,0,1,.708-3.542,3.972,3.972,0,0,1,3.233-1.368h.117a23.1,23.1,0,0,1,2.92.3,30,30,0,0,0,3.791.294,13.224,13.224,0,0,0,3.03-.32A6.371,6.371,0,0,0,4869.463,4684.129Z" fill="url(#linear-gradient-2)"/>
          </g>
          <path id="Path_13620" data-name="Path 13620" d="M4847.954,4726.956c4.4.241,7.083.271,7.013-5.029a25.8,25.8,0,0,0-.339-3.885l.163-.042a21.764,21.764,0,0,1,1.019,3.864c.573,2.9-.44,6.767-4,6.758a6.027,6.027,0,0,1-3.924-1.512l.069-.154Z" fill="#fff"/>
          <path id="Path_13621" data-name="Path 13621" d="M4858.207,4670.931c3.966-3.265,9.335-2.519,10.66,2.917a13.482,13.482,0,0,1,.06,5.788c-.316-1.507-.568-2.981-.98-4.375-1.446-5.344-4.855-5.848-9.74-4.33Z" fill="#fff"/>
        </g>
      </g>
    </g>
    <g id="Group_5297" data-name="Group 5297">
      <path id="Path_13623" data-name="Path 13623" d="M4823.855,4683.184l0-.013,0-.012,0-.013c-.015-.061-.031-.119-.045-.175h0l0-.013h0l-.02-.072h0a19.012,19.012,0,0,0-7.03-10.657,19.47,19.47,0,0,0-11.41-3.445,24.735,24.735,0,0,0-2.631.143,34.361,34.361,0,0,0-11.34,3.363,30.138,30.138,0,0,0-10.559,8.458c-.158.2-.307.416-.46.624-.508.543-1,1.1-1.462,1.682-.1-.1-.2-.21-.3-.307a7.554,7.554,0,0,0-2.545-1.715,4.172,4.172,0,0,0-1.448-.268,4.014,4.014,0,0,0-3.4,2.009,8.368,8.368,0,0,0-.53,1,4.4,4.4,0,0,0-1.583,1.53,13.159,13.159,0,0,0-1.614,5.145,37.148,37.148,0,0,0-.337,5.151,83.366,83.366,0,0,0,.723,10.759c.427,3.465,1,7.031,1.709,10.6a36.12,36.12,0,0,0,3.285,10.014c2.068,3.873,4.8,6.23,7.909,6.818a8.137,8.137,0,0,0,1.509.142,9.021,9.021,0,0,0,7.607-4.534c.023-.039.046-.081.069-.121a9.649,9.649,0,0,0,2.043-2.414,6.732,6.732,0,0,1,6.331-11.5,21.97,21.97,0,0,0,7.548-1.3,24.709,24.709,0,0,0,11.224-8.677,28.173,28.173,0,0,0,5.736-9.13A21.577,21.577,0,0,0,4823.855,4683.184ZM4794.609,4704a2.757,2.757,0,0,1-.656.077,5.143,5.143,0,0,1-3.384-1.571,2.666,2.666,0,0,1-.986-1.714h0a1.611,1.611,0,0,1,.106-.153q.261-.349.539-.706c.373-.408.76-.811,1.168-1.184a4.563,4.563,0,0,1,2.54-1.426h.052a1.249,1.249,0,0,1,.988.421,5.382,5.382,0,0,1,.928,3.434,2.988,2.988,0,0,0-.1.654,9.545,9.545,0,0,1-.719,1.98A2.045,2.045,0,0,1,4794.609,4704Z"/>
      <g id="Group_5296" data-name="Group 5296" clip-path="url(#clip-path-2)">
        <g id="Group_5295" data-name="Group 5295">
          <path id="Path_13624" data-name="Path 13624" d="M4797.361,4710.938a22.718,22.718,0,0,0,3.06.209,20.32,20.32,0,0,0,6.97-1.2c6.485-2.364,11.4-7.947,13.85-14.294a19.843,19.843,0,0,0,.975-12.056c-.029-.107-.073-.273-.073-.277a17.472,17.472,0,0,0-6.379-9.716,17.748,17.748,0,0,0-10.428-3.131,22.878,22.878,0,0,0-2.45.134,32.532,32.532,0,0,0-10.775,3.2,28.549,28.549,0,0,0-9.974,7.983,26.839,26.839,0,0,0-3.585,6.16,21.953,21.953,0,0,0-1.577,5.35,16.174,16.174,0,0,1,.288-3.213,23.361,23.361,0,0,1,.515-2.305c.214-.777.563-1.534.753-2.313.055-.226-.014-.254-.162-.441q-.134-.169-.273-.333c-.217-.254-.444-.5-.685-.731a5.854,5.854,0,0,0-1.957-1.346,2.471,2.471,0,0,0-.862-.163,2.327,2.327,0,0,0-1.972,1.217,11.562,11.562,0,0,0-1.373,4.487,36.178,36.178,0,0,0-.321,4.919,82.684,82.684,0,0,0,.711,10.544c.432,3.51,1,7.01,1.689,10.479a34.271,34.271,0,0,0,3.118,9.546c1.42,2.659,3.61,5.363,6.732,5.953a6.467,6.467,0,0,0,1.2.113,7.319,7.319,0,0,0,6.155-3.71c3.138-5.256,4.673-12.662,1.373-18.207-.281-.472-.613-.9-.931-1.348a10.548,10.548,0,0,1,2.589,3.236c.068.127.155.437.262.52a1.428,1.428,0,0,0,.372.1c.34.089.681.176,1.025.254C4795.925,4710.714,4796.641,4710.84,4797.361,4710.938Zm-3.408-5.173a6.853,6.853,0,0,1-4.571-2.058,4.1,4.1,0,0,1-1.477-3.121,1.881,1.881,0,0,1,.431-.963q.575-.767,1.174-1.512a27.765,27.765,0,0,1,2.859-3.147A5.929,5.929,0,0,1,4796,4693.1h.1c2.934,0,3.742,3.547,3.589,5.915,0,.018,0,.047,0,.094-.042.222-.065.332-.076.37a11.1,11.1,0,0,1-1.527,3.67,5.522,5.522,0,0,1-3.069,2.5A4.426,4.426,0,0,1,4793.953,4705.765Z" fill="url(#linear-gradient-3)"/>
          <path id="Path_13625" data-name="Path 13625" d="M4822.166,4683.4c.017.065.034.129.05.194.013.05.024.087.024.087Z" fill="url(#linear-gradient-4)"/>
          <path id="Path_13626" data-name="Path 13626" d="M4799.6,4699.488s0,0,.006-.015c.027-.123.052-.246.076-.37,0-.03,0-.063,0-.094,0-.015,0-.024,0-.024A3,3,0,0,0,4799.6,4699.488Z" fill="url(#linear-gradient-5)"/>
        </g>
        <path id="Path_13627" data-name="Path 13627" d="M4800.307,4673.877c6.581-3.506,15.67-.9,18.828,6.009-5.42-5.269-11.4-6.885-18.828-6.009Z" fill="#fff"/>
        <path id="Path_13628" data-name="Path 13628" d="M4774.419,4683.438a1.608,1.608,0,0,1,1.238.253c.315.194.342.607.468.927a6.227,6.227,0,0,1,.451,2.018l-.154.069-.726-.686-.694-.649c-.218-.207-.57-.308-.665-.624a2.152,2.152,0,0,1-.035-1.186l.117-.122Z" fill="#fff"/>
        <path id="Path_13629" data-name="Path 13629" d="M4789.341,4706.928a4.032,4.032,0,0,1,2.537,2.623,11.557,11.557,0,0,1,.492,3.627,8.771,8.771,0,0,1-.448,2.333l-.166-.03a10.62,10.62,0,0,0-.887-4.316,11.518,11.518,0,0,1-1.65-4.12l.122-.117Z" fill="#fff"/>
      </g>
    </g>
    <g id="Group_5301" data-name="Group 5301">
      <path id="Path_13631" data-name="Path 13631" d="M4779.991,4673.851a7.344,7.344,0,0,0-.716-.976,8.088,8.088,0,0,0-.734-.847,17.442,17.442,0,0,0-12.779-5.374h-.184a13.565,13.565,0,0,0-4.309.682,18.156,18.156,0,0,0-3.672,1.783,32.755,32.755,0,0,0-6.029,4.9,45.867,45.867,0,0,0-3.757,4.291,48.55,48.55,0,0,0-6.892,10.031,37.683,37.683,0,0,0-4.61,15.144,24.781,24.781,0,0,0,4.193,15.244,34.5,34.5,0,0,0,11.239,10.412c3.638,2.147,9.228,4.722,15.2,4.8l.254,0c3.046,0,5.29-.726,6.857-2.22a7.263,7.263,0,0,0,1.462-1.99,6.954,6.954,0,0,0,.651-.545c1.907-1.816,2.765-4.769,2.354-8.1-.189-1.529-.93-5.3-3.733-7.247a4.4,4.4,0,0,0-2.5-.836h-.082a5.961,5.961,0,0,0-1.9.432c-.176.063-.343.123-.487.164-.612.177-1.251.324-1.907.446a21.743,21.743,0,0,0,2.2-1.64,24.968,24.968,0,0,0,3.941-4.28,29.336,29.336,0,0,0,5.161-7.7,40.127,40.127,0,0,0,3.665-12.871C4783.271,4683.713,4783.053,4678.34,4779.991,4673.851Zm-28.245,30.646c-.012-.122-.022-.247-.03-.373a10.448,10.448,0,0,1,.653-4.271,10.294,10.294,0,0,1,.7-1.494,4.5,4.5,0,0,1,2.651-1.19c.068,0,.137,0,.2.009a1.891,1.891,0,0,1,1.588,2.166h0v.011h0a4.852,4.852,0,0,1-.756,2.184A13.824,13.824,0,0,1,4751.746,4704.5Z"/>
      <g id="Group_5300" data-name="Group 5300" clip-path="url(#clip-path-3)">
        <g id="Group_5299" data-name="Group 5299">
          <g id="Group_5298" data-name="Group 5298">
            <path id="Path_13632" data-name="Path 13632" d="M4777.451,4673.3s.132.169.5.63.506.628.507.628Z" fill="url(#linear-gradient-6)"/>
            <path id="Path_13633" data-name="Path 13633" d="M4777.949,4673.933a15.6,15.6,0,0,0-12.187-5.589h-.166a11.958,11.958,0,0,0-3.78.591,16.675,16.675,0,0,0-3.332,1.622,31.381,31.381,0,0,0-5.718,4.65,46.434,46.434,0,0,0-8.234,11.373,36.359,36.359,0,0,0-4.423,14.464,23.143,23.143,0,0,0,3.914,14.212,32.694,32.694,0,0,0,10.69,9.89c4.284,2.529,9.333,4.5,14.365,4.562l.232,0c2,0,4.2-.329,5.692-1.754,1.771-1.686,2.129-4.35,1.843-6.672-.267-2.158-1.154-4.766-3.021-6.066a2.735,2.735,0,0,0-1.537-.533h-.046a8.011,8.011,0,0,0-1.955.53,22.6,22.6,0,0,1-3.7.731,27.2,27.2,0,0,1-3.109.181,25.106,25.106,0,0,1-4.218-.351,16.24,16.24,0,0,1-5.711-1.907,7.494,7.494,0,0,1-1.96-1.681c.706.235,1.386.558,2.081.822a7.887,7.887,0,0,0,2.109.381q.907.079,1.82.079a21.666,21.666,0,0,0,3.191-.237,20.615,20.615,0,0,0,10.337-4.657,26.323,26.323,0,0,0,6.558-8.88,38.421,38.421,0,0,0,3.511-12.322C4781.677,4682.7,4780.972,4677.692,4777.949,4673.933Zm-16.649,23.2s0-.057.011-.213a8.617,8.617,0,0,1-2.657,5.118,15.474,15.474,0,0,1-6.4,4.074,9.2,9.2,0,0,1-2.86.591,4.222,4.222,0,0,1-.658-.049,8.875,8.875,0,0,0,1.4-.57c.192-.122.149-.069.1-.3-.036-.17-.069-.342-.1-.514-.054-.342-.091-.688-.113-1.034a12.106,12.106,0,0,1,.757-4.969,11.243,11.243,0,0,1,2.912-4.39,6.445,6.445,0,0,1,4.134-1.928q.177,0,.356.016a3.556,3.556,0,0,1,3.123,3.957c.01-.153.014-.209.014-.209Z" fill="url(#linear-gradient-7)"/>
          </g>
          <path id="Path_13634" data-name="Path 13634" d="M4766.223,4671.029a9.52,9.52,0,0,1,12.233,10.48,25.418,25.418,0,0,0-1.694-4.108c-2.042-3.987-6.26-5.756-10.539-6.372Z" fill="#fff"/>
          <path id="Path_13635" data-name="Path 13635" d="M4765.536,4718.014c.92-.258,1.723-.475,2.511-.758a12.342,12.342,0,0,1,3.961-1.066,3.383,3.383,0,0,1,3.1,2.979c-1.252-.89-2.169-1.7-3.6-1.281-.144.027-.432.1-.572.145-1.635.506-3.777.879-5.409-.019Z" fill="#fff"/>
        </g>
      </g>
    </g>
    <g id="Group_5305" data-name="Group 5305">
      <path id="Path_13637" data-name="Path 13637" d="M4755.374,4718a9.076,9.076,0,0,0-1.361-4.1,4.418,4.418,0,0,0-.55-.718l-.014-.016,0,0a11.581,11.581,0,0,0-2.322-1.856,7.759,7.759,0,0,0-3.828-1.39c-.067,0-.134,0-.2,0a7.9,7.9,0,0,0-3.539,1.025c-.306.152-.609.309-.912.466-.642.332-1.248.646-1.867.908a7.407,7.407,0,0,1-2.947.617,8.28,8.28,0,0,1-2.3-.343,15.677,15.677,0,0,1-5.024-2.636,20.288,20.288,0,0,1-7.019-9.291,11.1,11.1,0,0,1-.639-4.361h0a16.664,16.664,0,0,0,11.2,4.666,12.033,12.033,0,0,0,5.9-1.477,19.059,19.059,0,0,0,7.331-11.115,15.4,15.4,0,0,0-3.462-9.57,32.578,32.578,0,0,0-16.117-11.023,28.542,28.542,0,0,0-8.38-1.341,17.26,17.26,0,0,0-10.9,3.413,14.08,14.08,0,0,0-3.113,3.406,15.045,15.045,0,0,0-4.029,6.717,17.348,17.348,0,0,0,0,8.474,41.547,41.547,0,0,0,3.455,9.662,74.859,74.859,0,0,0,5.064,8.782,93.893,93.893,0,0,0,13.031,15.609c2.674,2.571,5.475,4.417,7.837,6.548,2.894,2.61,6.316,5.293,9.5,4.627.836-.175,1.676.262,2.5.262a9.855,9.855,0,0,0,7.465-3.23,11.555,11.555,0,0,0,1.247-1.687,9.515,9.515,0,0,0,.866-.848A13.488,13.488,0,0,0,4755.374,4718Z"/>
      <g id="Group_5304" data-name="Group 5304" clip-path="url(#clip-path-4)">
        <g id="Group_5303" data-name="Group 5303">
          <g id="Group_5302" data-name="Group 5302">
            <path id="Path_13638" data-name="Path 13638" d="M4752.2,4714.3c.021.023.042.047.062.071.1.117.282.319.283.319Z" fill="url(#linear-gradient-8)"/>
            <path id="Path_13639" data-name="Path 13639" d="M4753.693,4718.177a7.023,7.023,0,0,0-1.435-3.807l-.067-.076a9.964,9.964,0,0,0-1.983-1.569,6.089,6.089,0,0,0-2.978-1.123l-.135,0a6.363,6.363,0,0,0-2.786.848c-.956.476-1.887,1-2.872,1.417a9.152,9.152,0,0,1-3.607.751,9.9,9.9,0,0,1-2.77-.41,17.4,17.4,0,0,1-5.573-2.911,22.046,22.046,0,0,1-7.6-10.087,12.183,12.183,0,0,1-.582-6.209,9.591,9.591,0,0,1,.884-2.6c.083-.159.17-.316.261-.47.058-.1.283-.351.287-.458,0-.136-.288-.441-.366-.568-.164-.267-.322-.539-.473-.813a23.073,23.073,0,0,1-2.453-6.941,18.9,18.9,0,0,1-.385-4.743,33.785,33.785,0,0,0,1.873,6.031,23.159,23.159,0,0,0,5.195,8.1,15.039,15.039,0,0,0,10.031,4.2,10.4,10.4,0,0,0,5.078-1.266,8.408,8.408,0,0,0,4.347-7.15,13.807,13.807,0,0,0-3.123-8.506,30.754,30.754,0,0,0-15.27-10.425,26.767,26.767,0,0,0-7.876-1.264,15.769,15.769,0,0,0-9.863,3.056,13.122,13.122,0,0,0-4.449,6.732,15.993,15.993,0,0,0,.036,7.653,40.084,40.084,0,0,0,3.321,9.268,72.884,72.884,0,0,0,4.95,8.583,92.222,92.222,0,0,0,12.8,15.328,65.979,65.979,0,0,0,7.641,6.386,24.548,24.548,0,0,0,8.864,4.352,10.615,10.615,0,0,0,2.151.227,8.132,8.132,0,0,0,6.207-2.667A11.732,11.732,0,0,0,4753.693,4718.177Z" fill="url(#linear-gradient-9)"/>
          </g>
          <path id="Path_13640" data-name="Path 13640" d="M4720.288,4669.617c6.6-.571,13.765,2.268,17.6,7.8,1.2,2.107,1.321,2.2-.5.427-4.841-4.286-10.914-6.568-17.1-8.227Z" fill="#fff"/>
          <path id="Path_13641" data-name="Path 13641" d="M4721.5,4690.763a11.118,11.118,0,0,1-1.4,4.231,9.368,9.368,0,0,0-.544,4.358l-.162.048a7.938,7.938,0,0,1-.686-4.13,7.255,7.255,0,0,1,.773-2.969,4.137,4.137,0,0,1,1.892-1.645l.131.107Z" fill="#fff"/>
          <path id="Path_13642" data-name="Path 13642" d="M4741.834,4715.9c2.231-3.557,7.276-4.66,9.319-.318.669,1.361-.363.153-.938-.076-3.05-2.11-5.269-.583-8.381.394Z" fill="#fff"/>
        </g>
      </g>
    </g>
    <g id="Group_5309" data-name="Group 5309">
      <path id="Path_13644" data-name="Path 13644" d="M4553.29,4673.851a7.374,7.374,0,0,0-.716-.976,8.092,8.092,0,0,0-.733-.847,17.445,17.445,0,0,0-12.779-5.374h-.184a13.566,13.566,0,0,0-4.31.682,18.193,18.193,0,0,0-3.672,1.783,32.737,32.737,0,0,0-6.029,4.9,45.943,45.943,0,0,0-3.757,4.291,48.569,48.569,0,0,0-6.892,10.031,37.683,37.683,0,0,0-4.61,15.144,24.8,24.8,0,0,0,4.193,15.244,34.5,34.5,0,0,0,11.239,10.412c3.638,2.147,9.228,4.722,15.2,4.8l.254,0c3.046,0,5.29-.726,6.858-2.22a7.23,7.23,0,0,0,1.461-1.99,6.891,6.891,0,0,0,.651-.545c1.907-1.816,2.765-4.769,2.354-8.1-.188-1.529-.929-5.3-3.733-7.247a4.4,4.4,0,0,0-2.5-.836h-.082a5.967,5.967,0,0,0-1.9.432c-.176.063-.343.123-.487.164-.612.177-1.25.324-1.907.446a21.749,21.749,0,0,0,2.2-1.64,24.968,24.968,0,0,0,3.941-4.28,29.386,29.386,0,0,0,5.162-7.7,40.149,40.149,0,0,0,3.664-12.871C4556.571,4683.713,4556.352,4678.34,4553.29,4673.851Zm-28.245,30.646c-.012-.122-.022-.247-.03-.373a10.475,10.475,0,0,1,1.353-5.765,4.494,4.494,0,0,1,2.651-1.19c.068,0,.137,0,.205.009a1.891,1.891,0,0,1,1.587,2.166h0v.011h0a4.851,4.851,0,0,1-.756,2.184A13.83,13.83,0,0,1,4525.045,4704.5Z"/>
      <g id="Group_5308" data-name="Group 5308" clip-path="url(#clip-path-5)">
        <g id="Group_5307" data-name="Group 5307">
          <g id="Group_5306" data-name="Group 5306">
            <path id="Path_13645" data-name="Path 13645" d="M4550.75,4673.3s.132.169.5.63.506.628.507.628Z" fill="url(#linear-gradient-10)"/>
            <path id="Path_13646" data-name="Path 13646" d="M4551.248,4673.933a15.6,15.6,0,0,0-12.187-5.589h-.166a11.952,11.952,0,0,0-3.78.591,16.649,16.649,0,0,0-3.332,1.622,31.368,31.368,0,0,0-5.718,4.65,46.447,46.447,0,0,0-8.234,11.373,36.366,36.366,0,0,0-4.423,14.464,23.14,23.14,0,0,0,3.914,14.212,32.71,32.71,0,0,0,10.69,9.89c4.284,2.529,9.333,4.5,14.365,4.562l.232,0c2,0,4.2-.329,5.692-1.754,1.771-1.686,2.129-4.35,1.843-6.672-.266-2.158-1.154-4.766-3.021-6.066a2.734,2.734,0,0,0-1.537-.533h-.046a8.023,8.023,0,0,0-1.955.53,22.593,22.593,0,0,1-3.7.731,27.217,27.217,0,0,1-3.109.181,25.109,25.109,0,0,1-4.218-.351,16.233,16.233,0,0,1-5.711-1.907,7.466,7.466,0,0,1-1.959-1.681c.705.235,1.385.558,2.08.822a7.888,7.888,0,0,0,2.11.381q.906.079,1.819.079a21.661,21.661,0,0,0,3.191-.237,20.608,20.608,0,0,0,10.337-4.657,26.31,26.31,0,0,0,6.558-8.88,38.409,38.409,0,0,0,3.511-12.322C4554.976,4682.7,4554.271,4677.692,4551.248,4673.933Zm-16.649,23.2s0-.057.011-.213a8.617,8.617,0,0,1-2.657,5.118,15.477,15.477,0,0,1-6.4,4.074,9.2,9.2,0,0,1-2.86.591,4.225,4.225,0,0,1-.658-.049,8.919,8.919,0,0,0,1.4-.57c.192-.122.148-.069.1-.3-.036-.17-.069-.342-.1-.514-.054-.342-.091-.688-.113-1.034a12.113,12.113,0,0,1,.757-4.969,11.248,11.248,0,0,1,2.912-4.39,6.446,6.446,0,0,1,4.135-1.928c.118,0,.236.005.356.016a3.556,3.556,0,0,1,3.122,3.957c.01-.153.014-.209.014-.209Z" fill="url(#linear-gradient-7)"/>
          </g>
          <path id="Path_13647" data-name="Path 13647" d="M4539.522,4671.029a9.52,9.52,0,0,1,12.233,10.48,25.285,25.285,0,0,0-1.693-4.108c-2.043-3.987-6.261-5.756-10.54-6.372Z" fill="#fff"/>
          <path id="Path_13648" data-name="Path 13648" d="M4538.835,4718.014c.92-.258,1.723-.475,2.511-.758a12.339,12.339,0,0,1,3.961-1.066,3.382,3.382,0,0,1,3.1,2.979c-1.252-.89-2.169-1.7-3.6-1.281-.145.027-.433.1-.573.145-1.635.506-3.777.879-5.409-.019Z" fill="#fff"/>
        </g>
      </g>
    </g>
    <g id="Group_5311" data-name="Group 5311">
      <path id="Path_13650" data-name="Path 13650" d="M4519.267,4685.278c-.074-.643-.165-1.213-.28-1.743l-.01-.07a2.765,2.765,0,0,0-.129-.517c-.01-.036-.022-.08-.038-.129l-.029-.1c-1.05-3.737-4.779-5.8-10.5-5.8a25.634,25.634,0,0,0-2.826.16,25.081,25.081,0,0,0-3.863.732c-.6.166-1.137.338-1.629.526a10.15,10.15,0,0,0-.963.421l-.034.015a2.311,2.311,0,0,0-1.214,1.075,2.156,2.156,0,0,0-.175,1.133c-.256.1-.48.206-.69.312l-.033.015a2.314,2.314,0,0,0-1.215,1.075,2.389,2.389,0,0,0-.146,1.389l.006.041.013.4.015.45q.015.472.035.942c.142,3.428.3,6.822.444,9.689l.147,3.028.048.97-.132.008c-.212.015-.424.036-.637.057-.329.032-.639.063-.916.063a2.53,2.53,0,0,1-.291-.014.958.958,0,0,1-.71-.364,2.248,2.248,0,0,1-.108-.3c-.033-.1-.065-.2-.1-.307-.084-.237-.207-.612-.279-.875-.521-1.9-1.062-3.781-1.476-5.206-.712-2.455-1.446-4.947-2.156-7.356l-.652-2.216c-.113-.383-.225-.767-.336-1.15-.5-1.716-1.018-3.49-1.609-5.227a26.738,26.738,0,0,0-4.66-8.827,13.189,13.189,0,0,0-9.448-4.491c-.439-.027-.893-.04-1.349-.04a43.183,43.183,0,0,0-9.443,1.346,84.681,84.681,0,0,0-10.375,2.879,23.248,23.248,0,0,0-4.837,2.3,7.49,7.49,0,0,0-2.837,3.045,5.76,5.76,0,0,0-2.52,4.3c-.066,2.2,1.2,4.019,2.215,5.481l.022.031c.487.7.991,1.377,1.425,1.955,2.723,3.626,5.858,7.862,8.611,12.247a181.552,181.552,0,0,1,9.953,18.456c1.589,3.312,3.161,6.76,4.549,9.8l.193.424c.667,1.463,1.356,2.977,2.133,4.443l.1.191c.707,1.344,1.776,3.374,3.93,3.838a7.58,7.58,0,0,0,1.61.156c.483,0,.944-.032,1.39-.063.191-.013.38-.026.568-.036q.65-.034,1.3-.065l.612-.03,1.152-.054a63.607,63.607,0,0,0,8.016-.717,12.281,12.281,0,0,0,2.67-.715,4,4,0,0,0,1.374-.853,2.664,2.664,0,0,0,.586-1.049c.031-.2.053-.4.07-.6l.082-.03a4.015,4.015,0,0,0,1.374-.853,2.645,2.645,0,0,0,.586-1.049,14.669,14.669,0,0,0-.06-3.844c-.029-.266-.057-.529-.08-.787l-.071-.767c-.124-1.348-.252-2.741-.334-4.1a36.232,36.232,0,0,1-.034-4.848,12.636,12.636,0,0,1,.319-2.129,2.1,2.1,0,0,1,.355-.034,1.927,1.927,0,0,1,1.61.852,10.024,10.024,0,0,1,1.29,3.8c.24,1.275.426,2.6.607,3.882q.081.573.163,1.146l.07.492a19.532,19.532,0,0,0,1.08,4.7l.021.05a2.791,2.791,0,0,0,2.1,1.95,15.482,15.482,0,0,0,2.346.176l.239,0a14.72,14.72,0,0,0,5.386-.983l.064-.025a2.466,2.466,0,0,0,1.344-1.051,2.313,2.313,0,0,0,.26-.763l0-.02c.046-.185.09-.373.134-.561.1-.038.207-.074.307-.115l.063-.025a2.463,2.463,0,0,0,1.345-1.051,2.342,2.342,0,0,0,.26-.763l0-.02q.126-.5.244-1.015c1.1-4.755,2.066-9.893,2.95-15.711.611-4.018,1.022-7.325,1.294-10.408A52.859,52.859,0,0,0,4519.267,4685.278Z"/>
      <g id="Group_5310" data-name="Group 5310">
        <path id="Path_13651" data-name="Path 13651" d="M4500.1,4698.726h0c0-.024,0-.048-.007-.072Z" fill="url(#linear-gradient-12)"/>
        <path id="Path_13652" data-name="Path 13652" d="M4517.448,4695.7a50.794,50.794,0,0,0,.14-10.225,14.245,14.245,0,0,0-.431-2.29c-1.033-3.672-5.245-4.575-8.873-4.575a24.013,24.013,0,0,0-2.639.15,23.482,23.482,0,0,0-3.6.681c-.5.137-.99.291-1.471.475a8.578,8.578,0,0,0-.8.35c-.121.062-.425.182-.484.307a1.85,1.85,0,0,0,.02.606c.01.3.019.593.029.889s.023.619.035.929q.2,4.839.443,9.677.149,3.029.295,6.056c.111,1.354-1.456,1.968-2.547,2.136-.453.069-.912.086-1.368.117-.554.039-1.113.124-1.67.124a4.536,4.536,0,0,1-.467-.023,2.6,2.6,0,0,1-1.948-1.12,4.163,4.163,0,0,1-.389-.97c-.087-.244-.227-.668-.316-.992-.474-1.732-.969-3.458-1.469-5.182-.926-3.192-1.869-6.378-2.806-9.567-.621-2.108-1.216-4.228-1.924-6.309a24.7,24.7,0,0,0-4.339-8.266,11.5,11.5,0,0,0-8.271-3.909q-.624-.037-1.247-.037a41.414,41.414,0,0,0-9.07,1.305,84.079,84.079,0,0,0-10.171,2.819,21.315,21.315,0,0,0-4.484,2.124c-1.206.794-2.438,1.906-2.485,3.454-.05,1.654,1.032,3.2,1.935,4.5.449.646.917,1.276,1.389,1.905,3.028,4.032,6.007,8.088,8.69,12.362a186.52,186.52,0,0,1,10.047,18.625c1.562,3.257,3.062,6.543,4.562,9.83.732,1.6,1.455,3.217,2.281,4.776.637,1.2,1.435,2.855,2.894,3.169a5.946,5.946,0,0,0,1.255.118c.624,0,1.255-.064,1.867-.1.64-.034,1.28-.063,1.92-.095a72.562,72.562,0,0,0,8.96-.748,10.6,10.6,0,0,0,2.3-.607,2.515,2.515,0,0,0,.823-.478c.03-.03.1-.149.121-.149,0,0,0,0,0,.017a17.513,17.513,0,0,0-.154-4.213c-.149-1.639-.31-3.277-.409-4.92a37.436,37.436,0,0,1-.032-5.079,9.458,9.458,0,0,1,1.236-4.488,3.88,3.88,0,0,1,3.236-1.771,3.614,3.614,0,0,1,2.992,1.57,11.369,11.369,0,0,1,1.568,4.461c.318,1.69.536,3.4.782,5.1a20.324,20.324,0,0,0,1.041,4.793c.167.407.35.9.812.972a13.8,13.8,0,0,0,2.089.156h.215a13.231,13.231,0,0,0,4.768-.857c.2-.081.477-.164.581-.346a1.448,1.448,0,0,0,.088-.338c.084-.335.165-.672.243-1.008,1.192-5.147,2.132-10.362,2.925-15.583C4516.686,4702.578,4517.143,4699.142,4517.448,4695.7Z" fill="url(#linear-gradient-13)"/>
        <path id="Path_13653" data-name="Path 13653" d="M4517.144,4683.138l.013.043.145.508Z" fill="url(#linear-gradient-14)"/>
      </g>
      <path id="Path_13654" data-name="Path 13654" d="M4468.041,4666.9c5.8-2.4,13.236.894,13.421,7.643a18.317,18.317,0,0,0-2.344-3.449c-2.8-3.138-7.023-3.894-11.077-4.194Z" fill="#fff"/>
      <path id="Path_13655" data-name="Path 13655" d="M4509.312,4680.579a4.5,4.5,0,0,1,6,1.374,7.074,7.074,0,0,1,.657,6.228c-.349-1-.6-1.954-.9-2.85-.927-2.969-2.584-4.471-5.757-4.752Z" fill="#fff"/>
      <path id="Path_13656" data-name="Path 13656" d="M4486.649,4727.894c1.6-.743,3.275-.942,4.762-1.722.137-.091.134-.092.193-.2a6.869,6.869,0,0,0,.036-2.562,18,18,0,0,1-.09-3.121c.916,1.842,3.037,5.714.791,7.291a7.31,7.31,0,0,1-5.692.311Z" fill="#fff"/>
      <path id="Path_13657" data-name="Path 13657" d="M4506.649,4722.5c1.158-.67,2.311-.9,3.436-1.428a.88.88,0,0,0,.22-.166c.788-.862.926-2.538,1.493-3.714.715,1.719.962,4.3-.931,5.371a5.225,5.225,0,0,1-4.218-.063Z" fill="#fff"/>
    </g>
    <g id="Group_5315" data-name="Group 5315">
      <path id="Path_13658" data-name="Path 13658" d="M4470.688,4670.024a8.573,8.573,0,0,0-1.993-2.2,4.3,4.3,0,0,0-.646-.46,3.9,3.9,0,0,0-.8-.428,9.194,9.194,0,0,0-4.017-.847,12.584,12.584,0,0,0-1.368.077,20.663,20.663,0,0,0-2.356.441c-.415.094-.807.184-1.2.257a62.126,62.126,0,0,1-10.422.949c-.548.009-1.1.013-1.645.013-3.044,0-6.273-.129-10.164-.405-2.449-.175-4.945-.429-7.357-.676-1.523-.156-3.1-.316-4.654-.456-.767-.07-1.535-.1-2.284-.1a19.244,19.244,0,0,0-9.778,2.435,17.124,17.124,0,0,0-5.461,5.123,19.005,19.005,0,0,0-4.247,6.566,24.168,24.168,0,0,0-1.48,6,15.735,15.735,0,0,0,.32,6.449,6.623,6.623,0,0,0,3.959,4.481,7.181,7.181,0,0,0,2.494.429,10.381,10.381,0,0,0,4.067-.9,14.636,14.636,0,0,0,2.713-1.537c.442-.316.847-.647,1.238-.968.346-.284.673-.552,1.005-.793a15.352,15.352,0,0,1,4.276-2.184,16.868,16.868,0,0,1,5.12-.841c.159,0,.317,0,.473.008l.018.066c2.066,7.873-.632,16-3.241,23.864q-.45,1.354-.885,2.688l-.087.266a9.866,9.866,0,0,0-.683,3.89,7.359,7.359,0,0,0,1.76,4.116,17.166,17.166,0,0,0,6.441,4.482,50.03,50.03,0,0,0,15.6,3.836,48.282,48.282,0,0,0,4.864.282c.83,0,1.632-.032,2.386-.1a4.237,4.237,0,0,0,3.714-2.977c2.549-1.306,2.748-5.048,2.831-6.6a42.183,42.183,0,0,0-.536-8.186c-.363-2.51-.875-5.18-1.566-8.163-.641-2.765-1.344-5.476-2.091-8.059-.176-.606-.365-1.217-.548-1.808a29.146,29.146,0,0,1-1.339-5.541c-.018-.178-.028-.343-.034-.5.071,0,.14-.007.207-.008h.092a15.3,15.3,0,0,1,2.058.2c.217.03.432.06.647.088a31.97,31.97,0,0,0,4.006.308,14.837,14.837,0,0,0,3.416-.364,7.972,7.972,0,0,0,5.361-4.069,8.309,8.309,0,0,0,2.511-3.364,18.138,18.138,0,0,0,1.223-6.7A14.193,14.193,0,0,0,4470.688,4670.024Z"/>
      <g id="Group_5314" data-name="Group 5314" clip-path="url(#clip-path-6)">
        <g id="Group_5313" data-name="Group 5313">
          <g id="Group_5312" data-name="Group 5312">
            <path id="Path_13659" data-name="Path 13659" d="M4466.755,4668.554s.1.068.39.255.4.239.4.239S4466.766,4668.554,4466.755,4668.554Z" fill="url(#linear-gradient-15)"/>
            <path id="Path_13660" data-name="Path 13660" d="M4469.828,4684.129a16.806,16.806,0,0,0,1.091-6.084,12.674,12.674,0,0,0-1.654-7.108,6.7,6.7,0,0,0-2.12-2.128,7.2,7.2,0,0,0-3.91-1.029,10.788,10.788,0,0,0-1.182.067c-1.16.128-2.283.464-3.427.679a63.818,63.818,0,0,1-10.706.978c-.558.009-1.115.013-1.673.013-3.431,0-6.861-.166-10.283-.41-4.025-.286-8.026-.773-12.043-1.134-.707-.064-1.42-.1-2.133-.1a17.73,17.73,0,0,0-8.931,2.208,16.308,16.308,0,0,0-6.868,8.3,22.635,22.635,0,0,0-1.376,5.579,14.131,14.131,0,0,0,.257,5.759,5,5,0,0,0,2.929,3.39,5.5,5.5,0,0,0,1.908.325,8.809,8.809,0,0,0,3.4-.768,12.784,12.784,0,0,0,2.4-1.358c.772-.551,1.467-1.2,2.234-1.755a17.141,17.141,0,0,1,4.747-2.423,18.511,18.511,0,0,1,5.64-.923,13.2,13.2,0,0,1,4.7.81,6.863,6.863,0,0,1,1.423.7c-1.332-.071-2.663-.14-4-.171,2.441,9.3-1.317,18.747-4.153,27.5a9.141,9.141,0,0,0-.692,3.509,5.765,5.765,0,0,0,1.384,3.175,15.568,15.568,0,0,0,5.822,4.008,49.145,49.145,0,0,0,15.076,3.7,46.982,46.982,0,0,0,4.695.273c.751,0,1.5-.027,2.245-.089,2.512-.21,2.782-3.5,2.885-5.452a40.4,40.4,0,0,0-.521-7.855c-.389-2.7-.925-5.37-1.54-8.024q-.929-4.009-2.068-7.971a44.511,44.511,0,0,1-1.944-7.645,4.968,4.968,0,0,1,.708-3.542,3.974,3.974,0,0,1,3.233-1.368h.117a23.081,23.081,0,0,1,2.921.3,29.991,29.991,0,0,0,3.791.294,13.234,13.234,0,0,0,3.03-.32A6.374,6.374,0,0,0,4469.828,4684.129Z" fill="url(#linear-gradient-2)"/>
          </g>
          <path id="Path_13661" data-name="Path 13661" d="M4448.319,4726.956c4.394.241,7.082.271,7.013-5.029a25.735,25.735,0,0,0-.34-3.885l.164-.042a21.761,21.761,0,0,1,1.018,3.864c.574,2.9-.439,6.767-4,6.758a6.027,6.027,0,0,1-3.924-1.512l.069-.154Z" fill="#fff"/>
          <path id="Path_13662" data-name="Path 13662" d="M4458.572,4670.931c3.965-3.265,9.335-2.519,10.66,2.917a13.521,13.521,0,0,1,.06,5.788c-.317-1.507-.568-2.981-.981-4.375-1.446-5.344-4.855-5.848-9.739-4.33Z" fill="#fff"/>
        </g>
      </g>
    </g>
    <g id="Group_5319" data-name="Group 5319">
      <path id="Path_13664" data-name="Path 13664" d="M4667.351,4696.084c-.163-.971-.366-1.96-.6-2.938l0-.02-.005-.019-.016-.058c-.03-.134-.066-.275-.1-.425l-.007,0,0-.01h.006c-.185-.707-.31-1.183-.389-1.482a4.117,4.117,0,0,0-.225-.673c-2.574-8.349-6.807-14.364-12.592-17.889a28.292,28.292,0,0,0-12.957-3.81c-.951-.064-1.955-.1-3.069-.1-1.258,0-2.5.04-3.552.079-.627.024-1.274.034-1.9.043q-.7.01-1.392.027a9.484,9.484,0,0,0-3.323.616,5.752,5.752,0,0,0-3.195,3.1,6.179,6.179,0,0,0-2.674,5.152,24.31,24.31,0,0,0-5.905,5.77,29.032,29.032,0,0,0-7.163,14.234,44.19,44.19,0,0,0-.651,13.56,30.049,30.049,0,0,0,3.126,11.563,19.271,19.271,0,0,0,9.795,8.571,38.694,38.694,0,0,0,13.563,2.5c.982.033,1.852.05,2.659.05a30.166,30.166,0,0,0,11.131-1.736,27.316,27.316,0,0,0,10.69-7.533c.491-.56.949-1.147,1.391-1.746q.368-.387.721-.789C4666.575,4715.431,4669,4705.936,4667.351,4696.084Zm-41.523,14.481c.189-.236.365-.468.539-.7.081-.088.163-.175.242-.262.438-.49.886-1.02,1.332-1.573a23.374,23.374,0,0,0,2.022-2.924,9.281,9.281,0,0,1,1.324,5.471h0v.011h0a8.306,8.306,0,0,1-.631,2.662,4.726,4.726,0,0,1-2.44.71,4.2,4.2,0,0,1-1.032-.129,2.91,2.91,0,0,1-1.851-1.225,1.531,1.531,0,0,1-.04-1.392C4625.471,4711,4625.65,4710.787,4625.828,4710.565Z"/>
      <g id="Group_5318" data-name="Group 5318" clip-path="url(#clip-path-7)">
        <g id="Group_5317" data-name="Group 5317">
          <g id="Group_5316" data-name="Group 5316">
            <path id="Path_13665" data-name="Path 13665" d="M4649.41,4728.086a25.641,25.641,0,0,0,10.023-7.067c5.9-6.735,7.7-15.97,6.251-24.656q-.237-1.419-.578-2.818c-.051-.19-.2-.749-.336-1.28-2.006-7.193-5.691-14.261-12.241-18.251a26.714,26.714,0,0,0-12.19-3.567c-.984-.066-1.97-.091-2.956-.091-1.163,0-2.326.035-3.488.078-1.1.042-2.207.041-3.311.07a7.934,7.934,0,0,0-2.739.5,4.535,4.535,0,0,0-2.694,4.73,29.759,29.759,0,0,1,.245,4.884c-.26-.966-.546-1.929-.853-2.881-6.843,3.556-10.949,10.381-12.5,17.772a42.674,42.674,0,0,0-.623,13.042,29,29,0,0,0,2.928,10.924,17.663,17.663,0,0,0,8.952,7.818,37.562,37.562,0,0,0,12.98,2.374c.866.029,1.734.049,2.6.049A29.112,29.112,0,0,0,4649.41,4728.086Zm-14.306-20.15-.025.313,0-.072a8.961,8.961,0,0,1-2.063,5.286,6.527,6.527,0,0,1-4.806,2.187,5.894,5.894,0,0,1-1.449-.181,4.587,4.587,0,0,1-2.9-2.025,3.268,3.268,0,0,1,.209-3.5,15.94,15.94,0,0,1,1.276-1.467q.657-.735,1.274-1.5a20.892,20.892,0,0,0,2.229-3.337,13.91,13.91,0,0,0,1.374-3.906.774.774,0,0,0,.017-.416,2.308,2.308,0,0,0-.288-.437c-.173-.256-.352-.508-.541-.753-.363-.472-.745-.922-1.132-1.373a9.829,9.829,0,0,1,2.328,1.566,13.839,13.839,0,0,1,2.387,2.575,11.082,11.082,0,0,1,2.087,7.287C4635.1,4708,4635.1,4707.936,4635.1,4707.936Z" fill="url(#linear-gradient-17)"/>
            <path id="Path_13666" data-name="Path 13666" d="M4665.124,4693.613s-.039-.162-.144-.57q.064.25.126.5C4665.117,4693.589,4665.124,4693.613,4665.124,4693.613Z" fill="url(#linear-gradient-18)"/>
            <path id="Path_13667" data-name="Path 13667" d="M4664.48,4691.143s.139.544.29,1.122c.072.259.142.519.21.778C4664.61,4691.631,4664.481,4691.143,4664.48,4691.143Z" fill="url(#linear-gradient-19)"/>
          </g>
          <path id="Path_13668" data-name="Path 13668" d="M4639.362,4672.164c9.493-.888,18.894,6.083,21.232,15.245-4.912-8.222-11.769-13.4-21.232-15.245Z" fill="#fff"/>
          <path id="Path_13669" data-name="Path 13669" d="M4661.024,4709.335c-.866,9.5-9.439,17.461-18.875,18.082a46,46,0,0,0,6.17-2.911,30.054,30.054,0,0,0,12.705-15.171Z" fill="#fff"/>
          <path id="Path_13670" data-name="Path 13670" d="M4627.882,4698.452a4.036,4.036,0,0,1-.126,3.647,11.586,11.586,0,0,1-2.268,2.873,8.8,8.8,0,0,1-1.99,1.3l-.094-.14a10.628,10.628,0,0,0,2.49-3.635,11.542,11.542,0,0,1,1.819-4.049l.169.007Z" fill="#fff"/>
        </g>
      </g>
    </g>
    <g id="Group_5323" data-name="Group 5323">
      <path id="Path_13672" data-name="Path 13672" d="M4627.574,4718a9.07,9.07,0,0,0-1.36-4.1,4.389,4.389,0,0,0-.55-.718l-.015-.016,0,0a11.6,11.6,0,0,0-2.322-1.856,7.761,7.761,0,0,0-3.828-1.39c-.067,0-.134,0-.2,0a7.908,7.908,0,0,0-3.539,1.025c-.306.152-.609.309-.912.466-.642.332-1.249.646-1.867.908a7.407,7.407,0,0,1-2.947.617,8.279,8.279,0,0,1-2.3-.343,15.672,15.672,0,0,1-5.024-2.636,20.294,20.294,0,0,1-7.02-9.291,11.126,11.126,0,0,1-.638-4.361h0a16.666,16.666,0,0,0,11.2,4.666,12.036,12.036,0,0,0,5.9-1.477,19.059,19.059,0,0,0,7.33-11.115,15.4,15.4,0,0,0-3.461-9.57,32.577,32.577,0,0,0-16.117-11.023,28.542,28.542,0,0,0-8.38-1.341,17.26,17.26,0,0,0-10.9,3.413,14.041,14.041,0,0,0-3.113,3.406,15.042,15.042,0,0,0-4.03,6.717,17.349,17.349,0,0,0,0,8.474,41.5,41.5,0,0,0,3.455,9.662,74.859,74.859,0,0,0,5.064,8.782,93.89,93.89,0,0,0,13.031,15.609c2.674,2.571,5.474,4.417,7.837,6.548,2.894,2.61,6.316,5.293,9.5,4.627.836-.175,1.676.262,2.5.262a9.855,9.855,0,0,0,7.465-3.23,11.555,11.555,0,0,0,1.247-1.687,9.457,9.457,0,0,0,.866-.848A13.489,13.489,0,0,0,4627.574,4718Z"/>
      <g id="Group_5322" data-name="Group 5322" clip-path="url(#clip-path-8)">
        <g id="Group_5321" data-name="Group 5321">
          <g id="Group_5320" data-name="Group 5320">
            <path id="Path_13673" data-name="Path 13673" d="M4624.4,4714.3c.021.023.042.047.062.071.1.117.282.319.283.319Z" fill="url(#linear-gradient-20)"/>
            <path id="Path_13674" data-name="Path 13674" d="M4625.894,4718.177a7.023,7.023,0,0,0-1.435-3.807l-.067-.076a9.964,9.964,0,0,0-1.983-1.569,6.091,6.091,0,0,0-2.978-1.123l-.135,0a6.365,6.365,0,0,0-2.786.848c-.957.476-1.887,1-2.872,1.417a9.155,9.155,0,0,1-3.607.751,9.914,9.914,0,0,1-2.771-.41,17.393,17.393,0,0,1-5.572-2.911,22.05,22.05,0,0,1-7.6-10.087,12.189,12.189,0,0,1-.582-6.209,9.608,9.608,0,0,1,.884-2.6c.083-.159.17-.316.261-.47.058-.1.283-.351.287-.458,0-.136-.289-.441-.367-.568-.163-.267-.321-.539-.472-.813a23.087,23.087,0,0,1-2.453-6.941,18.873,18.873,0,0,1-.385-4.743,33.745,33.745,0,0,0,1.873,6.031,23.159,23.159,0,0,0,5.195,8.1,15.038,15.038,0,0,0,10.031,4.2,10.4,10.4,0,0,0,5.078-1.266,8.408,8.408,0,0,0,4.347-7.15,13.81,13.81,0,0,0-3.123-8.506,30.756,30.756,0,0,0-15.27-10.425,26.767,26.767,0,0,0-7.876-1.264,15.771,15.771,0,0,0-9.863,3.056,13.113,13.113,0,0,0-4.449,6.732,15.987,15.987,0,0,0,.036,7.653,40.1,40.1,0,0,0,3.32,9.268,72.96,72.96,0,0,0,4.951,8.583,92.2,92.2,0,0,0,12.8,15.328,65.928,65.928,0,0,0,7.64,6.386,24.563,24.563,0,0,0,8.864,4.352,10.627,10.627,0,0,0,2.152.227,8.132,8.132,0,0,0,6.207-2.667A11.731,11.731,0,0,0,4625.894,4718.177Z" fill="url(#linear-gradient-9)"/>
          </g>
          <path id="Path_13675" data-name="Path 13675" d="M4592.489,4669.617c6.605-.571,13.765,2.268,17.6,7.8,1.2,2.107,1.321,2.2-.5.427-4.841-4.286-10.915-6.568-17.1-8.227Z" fill="#fff"/>
          <path id="Path_13676" data-name="Path 13676" d="M4593.7,4690.763a11.119,11.119,0,0,1-1.4,4.231,9.368,9.368,0,0,0-.544,4.358l-.162.048a7.942,7.942,0,0,1-.686-4.13,7.232,7.232,0,0,1,.773-2.969,4.134,4.134,0,0,1,1.892-1.645l.131.107Z" fill="#fff"/>
          <path id="Path_13677" data-name="Path 13677" d="M4614.035,4715.9c2.231-3.557,7.276-4.66,9.319-.318.669,1.361-.363.153-.938-.076-3.051-2.11-5.269-.583-8.381.394Z" fill="#fff"/>
        </g>
      </g>
    </g>
    <g id="Group_5327" data-name="Group 5327">
      <path id="Path_13679" data-name="Path 13679" d="M4711.379,4684.584c-.109-.492-.226-.98-.35-1.459a7.475,7.475,0,0,0-.219-.825c-.02-.069-.041-.14-.063-.213l-.027-.1a25.578,25.578,0,0,0-8.013-12.679,16.849,16.849,0,0,0-7.664-3.8,11.842,11.842,0,0,0-2.125-.193,11.24,11.24,0,0,0-6.594,2.1,14.694,14.694,0,0,0-3.617,3.794,15.726,15.726,0,0,0-2.166,2.62c-.112-.09-.219-.165-.3-.221l-.044-.03c-.208-.165-.42-.328-.632-.488a37.2,37.2,0,0,0-3.161-2.148,20.066,20.066,0,0,0-10.179-3.3,11.071,11.071,0,0,0-5.834,1.585,13.435,13.435,0,0,0-4.193,4.143c-3.488,3.312-4.963,8.364-5.784,12.121a64.576,64.576,0,0,0-1.135,17.383c.172,3.158.537,6.215.872,8.789a69.58,69.58,0,0,0,1.569,8.583,22.1,22.1,0,0,0,3.276,7.761,9.367,9.367,0,0,0,3.245,2.838,10.574,10.574,0,0,0,2.116.762,11.794,11.794,0,0,0,3.059.5,5.994,5.994,0,0,0,1.47-.174,3.51,3.51,0,0,0,2.6-2.7c.984-.4,2.223-1.4,2.3-3.908a15.066,15.066,0,0,0-.342-3.3c3.732,5.047,7.914,8.555,12.471,10.443a19.11,19.11,0,0,0,10.91,1.131,16.551,16.551,0,0,0,9.13-5.013,22.981,22.981,0,0,0,1.913-2.338c.065-.068.135-.128.2-.2,4.086-4.342,6.694-10.667,7.976-19.339A61.686,61.686,0,0,0,4711.379,4684.584Z"/>
      <g id="Group_5326" data-name="Group 5326" clip-path="url(#clip-path-9)">
        <g id="Group_5325" data-name="Group 5325">
          <g id="Group_5324" data-name="Group 5324">
            <path id="Path_13680" data-name="Path 13680" d="M4709.02,4682.2s.022.075.076.264c.19.655.255.882.255.882Z" fill="url(#linear-gradient-22)"/>
            <path id="Path_13681" data-name="Path 13681" d="M4710.364,4706.466a59.885,59.885,0,0,0-.635-21.517q-.278-1.255-.633-2.489a23.911,23.911,0,0,0-7.473-11.853,15.175,15.175,0,0,0-6.883-3.432,10.216,10.216,0,0,0-1.822-.165,9.577,9.577,0,0,0-5.609,1.783c-4.01,2.876-5.822,8.106-6.819,12.734a55.8,55.8,0,0,0-1.369,15.62,31.22,31.22,0,0,0,1.338,7.365,17.948,17.948,0,0,0,3.049,5.961,5.978,5.978,0,0,0,.467.515,12.776,12.776,0,0,1-3.152-4.077,26.128,26.128,0,0,1-2.475-6.781,48.294,48.294,0,0,1-.456-16.4,45.078,45.078,0,0,1,1.168-6.421c.093-.345.192-.689.3-1.03.077-.252.362-.809.245-1.007a1.907,1.907,0,0,0-.439-.356c-.2-.162-.411-.321-.619-.478a35.017,35.017,0,0,0-3.016-2.049,18.856,18.856,0,0,0-9.306-3.06,9.4,9.4,0,0,0-4.958,1.34c-4.288,2.6-6.078,8.014-7.089,12.645a63.633,63.633,0,0,0-1.1,16.93c.158,2.9.486,5.786.86,8.663a69.319,69.319,0,0,0,1.529,8.379,20.7,20.7,0,0,0,3,7.18,7.75,7.75,0,0,0,2.657,2.337,9.022,9.022,0,0,0,1.785.635,10.338,10.338,0,0,0,2.618.439,4.3,4.3,0,0,0,1.056-.122c1.173-.3,1.476-1.386,1.509-2.482a19.85,19.85,0,0,0-.531-4.089c-.256-1.42-.47-2.849-.655-4.28a73.772,73.772,0,0,1-.625-7.989,35.044,35.044,0,0,1,.5-7.325,19.847,19.847,0,0,1,.678-2.552,28.528,28.528,0,0,0-.257,8.336,6.4,6.4,0,0,0,.143,1.21,9.758,9.758,0,0,0,.41,1.041c.224.536.466,1.065.721,1.587a45.249,45.249,0,0,0,2.195,3.962c3.362,5.417,7.988,10.7,14,13.193a17.535,17.535,0,0,0,6.706,1.339,17.338,17.338,0,0,0,3.241-.306,14.939,14.939,0,0,0,8.215-4.511C4707.449,4719.985,4709.4,4712.974,4710.364,4706.466Z" fill="url(#linear-gradient-23)"/>
          </g>
          <path id="Path_13682" data-name="Path 13682" d="M4690.57,4669.259c3.592-1.479,7.885.071,10.661,2.572a18.7,18.7,0,0,1,4.829,6.927c1.1,3.187,1.2,3.254-.728.4-3.477-4.983-8.2-10.038-14.762-9.9Z" fill="#fff"/>
          <path id="Path_13683" data-name="Path 13683" d="M4690.014,4727.878c6.564.139,11.284-4.915,14.762-9.9,1.9-2.8,1.857-2.846.728.4a18.7,18.7,0,0,1-4.829,6.928c-2.775,2.5-7.07,4.05-10.661,2.572Z" fill="#fff"/>
          <path id="Path_13684" data-name="Path 13684" d="M4658.962,4677.39a7.779,7.779,0,0,1,1.822-4.3c3.337-4.03,9.445-2.833,13.043.15-1.488-.4-2.92-.829-4.357-1.069-4.789-.918-8.253.906-10.508,5.216Z" fill="#fff"/>
          <path id="Path_13685" data-name="Path 13685" d="M4666.632,4726.456a4.379,4.379,0,0,1-1.442-2.291,16.726,16.726,0,0,1-.188-3.831c.039-1.267.131-2.531.284-3.788l.169,0,.892,4.924a11.112,11.112,0,0,1,.427,4.9l-.142.091Z" fill="#fff"/>
        </g>
      </g>
    </g>
  </g>
</svg>
