<svg xmlns="http://www.w3.org/2000/svg" xmlns:xlink="http://www.w3.org/1999/xlink" width="631.987" height="440.259" viewBox="0 0 631.987 440.259">
  <defs>
    <clipPath id="clip-path">
      <path id="Path_5368" data-name="Path 5368" d="M553.5,74.54s.274.242,1.029.9,1.04.9,1.042.9-2.064-1.8-2.071-1.8" fill="none"/>
    </clipPath>
    <linearGradient id="linear-gradient" x1="-233.597" y1="170.484" x2="-233.175" y2="170.484" gradientUnits="objectBoundingBox">
      <stop offset="0" stop-color="#00ffd5"/>
      <stop offset="1" stop-color="#01cb2d"/>
    </linearGradient>
    <linearGradient id="linear-gradient-2" x1="0.826" y1="0" x2="0.406" y2="1" xlink:href="#linear-gradient"/>
    <clipPath id="clip-path-2">
      <path id="Path_5372" data-name="Path 5372" d="M519.763,134.137a17.9,17.9,0,0,1,.5-10.089,7.662,7.662,0,0,1,4.084-2.808c.114-.021.231-.037.345-.048,1.922-.175,3.13,1.452,3.329,3.148h0l0,.019h0a8.253,8.253,0,0,1-.6,3.9,23.589,23.589,0,0,1-7.5,6.5c-.058-.2-.114-.407-.166-.615M531.85,66.965l-.308.058a23.163,23.163,0,0,0-7.021,2.464,31.057,31.057,0,0,0-5.614,4.117,55.963,55.963,0,0,0-8.617,10.062,78.658,78.658,0,0,0-4.989,8.351,82.779,82.779,0,0,0-8.489,18.941c-3.07,10.007-4.083,18.78-3.1,26.821a42.274,42.274,0,0,0,11.706,24.292A58.825,58.825,0,0,0,527.47,176.1c6.761,2.488,16.929,5.1,26.977,3.389.141-.023.283-.049.425-.075,5.112-.933,8.653-2.838,10.827-5.825a12.378,12.378,0,0,0,1.842-3.787,11.542,11.542,0,0,0,.925-1.113c2.643-3.632,3.178-8.85,1.467-14.315-.785-2.508-3.182-8.6-8.483-11.015a7.5,7.5,0,0,0-4.454-.636l-.137.027a10.138,10.138,0,0,0-3.058,1.306c-.276.16-.538.311-.766.426-.972.484-2,.926-3.063,1.331a37.188,37.188,0,0,0,3.189-3.425,42.6,42.6,0,0,0,5.3-8.39,50.082,50.082,0,0,0,6.3-14.5,68.446,68.446,0,0,0,2.205-22.718c-.514-6.558-2.527-15.5-9.04-22.1a12.521,12.521,0,0,0-1.5-1.419,13.961,13.961,0,0,0-1.49-1.2A29.086,29.086,0,0,0,537.5,66.452a31.5,31.5,0,0,0-5.653.513" fill="none"/>
    </clipPath>
    <clipPath id="clip-path-3">
      <rect id="Rectangle_116" data-name="Rectangle 116" width="631.987" height="440.259" fill="none"/>
    </clipPath>
    <linearGradient id="linear-gradient-3" x1="0.378" y1="0.162" x2="0.451" y2="0.959" xlink:href="#linear-gradient"/>
    <clipPath id="clip-path-4">
      <path id="Path_5380" data-name="Path 5380" d="M427.865,28.444c-7.541.879-13.669,3.375-18.213,7.422a25.134,25.134,0,0,0-3.176,3.41c-.251.206-.516.4-.758.614C394.257,50.1,396.61,66.233,397.6,70.936c1.272,6.013,3.924,12.028,8.345,18.932,7.2,11.243,17.055,20.471,26.585,29.394l2,1.877a120.911,120.911,0,0,0,16.85,13.469c7.324,4.753,13.556,7.394,19.611,8.311.686.1,1.376.183,2.053.237a23.5,23.5,0,0,0,9.5-1.087,26.084,26.084,0,0,0,6.333-3.294,46.983,46.983,0,0,0,8.584-7.752,50.5,50.5,0,0,0,7.74-8.952,62.57,62.57,0,0,0,8.8-19.717c2.023-7.862,2.537-14.5,1.572-20.3a27.748,27.748,0,0,0-1.049-4.242c-.067-.21-.142-.418-.218-.625l-.01,0-.009-.027.009,0c-.063-.167-.129-.346-.205-.526l-.011-.031-.018-.044a20.417,20.417,0,0,0-5.471-7.946,13.141,13.141,0,0,0-7.133-3.316,7.615,7.615,0,0,0-3.562.541,7.28,7.28,0,0,0-3.711,3.948c-.074.028-.15.047-.223.077-2.7,1.122-3.714,3.822-4.387,5.609-.148.4-.29.771-.423,1.068-1,2.219-2.121,4.517-3.337,6.827-1.273,2.421-2.6,4.9-4.105,7.2a1.164,1.164,0,0,1-.165.015,1.861,1.861,0,0,1-.287-.047c-1.493-.362-2.918-1.818-4.237-4.327a36.659,36.659,0,0,1-2.949-8.142A102.9,102.9,0,0,1,471.494,58.5c-.371-6.544-1.167-13.982-5.963-19.425a25.36,25.36,0,0,0-8.5-5.916,51.412,51.412,0,0,0-7.989-3.043,55.814,55.814,0,0,0-10.54-1.857q-2.215-.176-4.421-.175a53.883,53.883,0,0,0-6.212.356" fill="none"/>
    </clipPath>
    <clipPath id="clip-path-6">
      <path id="Path_5382" data-name="Path 5382" d="M303.742,104.66s.073.492.273,1.836.274,1.841.274,1.841l-.547-3.677" fill="none"/>
    </clipPath>
    <linearGradient id="linear-gradient-4" x1="-81.793" y1="226.767" x2="-81.522" y2="226.767" xlink:href="#linear-gradient"/>
    <linearGradient id="linear-gradient-5" x1="0.755" y1="0.041" x2="0.401" y2="1" xlink:href="#linear-gradient"/>
    <clipPath id="clip-path-7">
      <path id="Path_5388" data-name="Path 5388" d="M280,123.135a5.7,5.7,0,0,1-3.493-2.612c-.792-1.46-.778-3.561.037-6.247.054-.176.117-.355.177-.533a18.868,18.868,0,0,1,3.523,6.566,7.332,7.332,0,0,1,.259,2.933c-.2-.032-.367-.071-.5-.107M261.369,59.361a38.674,38.674,0,0,0-13.09,4.477,30.155,30.155,0,0,0-4.168,3.016c-.141.08-.287.154-.425.236a34.445,34.445,0,0,0-12.417,13.331c-5.153,9.479-7.492,21.482-7.151,36.7.3,13.511,2.415,25.7,6.276,36.233,2.4,6.54,5.658,11.735,9.69,15.438a24.128,24.128,0,0,0,10,5.624,19.434,19.434,0,0,0,8.084.443,19.01,19.01,0,0,0,10.106-5.048,18.7,18.7,0,0,0,7.486-6.813,18.5,18.5,0,0,0,.981-1.834,7.42,7.42,0,0,0,4.966,4.353,7.415,7.415,0,0,0,3.287.122,9.038,9.038,0,0,0,4.621-2.845c.176-.177.35-.362.523-.546a9.623,9.623,0,0,0,4.07-2.706,35.44,35.44,0,0,0,5.586-7.562c5.97-10.378,8.738-23.125,8.005-36.862-.13-2.445-.375-5-.729-7.613-.048-.4-.118-.868-.2-1.426-.285-1.911-.3-2.007-.342-2.161-2.152-12.981-5.94-23.137-11.549-31a34.107,34.107,0,0,0-14.354-11.944,28.939,28.939,0,0,0-3.646-1.235,32.465,32.465,0,0,0-8.369-1.058,40.435,40.435,0,0,0-7.239.678" fill="none"/>
    </clipPath>
    <clipPath id="clip-path-9">
      <path id="Path_5390" data-name="Path 5390" d="M222.925,88.447s.273.243,1.029.9,1.041.9,1.042.9-2.065-1.8-2.07-1.8h0" fill="none"/>
    </clipPath>
    <linearGradient id="linear-gradient-6" x1="-94.036" y1="163.932" x2="-93.614" y2="163.932" xlink:href="#linear-gradient"/>
    <linearGradient id="linear-gradient-7" x1="0.5" y1="-0.1" x2="0.906" y2="1.086" xlink:href="#linear-gradient"/>
    <clipPath id="clip-path-10">
      <path id="Path_5394" data-name="Path 5394" d="M189.19,148.044a17.9,17.9,0,0,1,.5-10.088,7.664,7.664,0,0,1,4.084-2.809c.114-.02.231-.037.346-.046,1.921-.176,3.128,1.45,3.327,3.147h0l0,.018h0a8.257,8.257,0,0,1-.6,3.9,23.589,23.589,0,0,1-7.5,6.5c-.058-.2-.114-.407-.165-.616m12.087-67.171-.309.057a23.155,23.155,0,0,0-7.021,2.466,31.126,31.126,0,0,0-5.615,4.115,56.039,56.039,0,0,0-8.616,10.063,78.585,78.585,0,0,0-4.988,8.351,82.758,82.758,0,0,0-8.49,18.941c-3.07,10.007-4.082,18.78-3.1,26.821a42.283,42.283,0,0,0,11.706,24.292A58.825,58.825,0,0,0,196.9,190c6.761,2.489,16.93,5.1,26.977,3.39l.426-.075c5.111-.934,8.652-2.84,10.826-5.825a12.378,12.378,0,0,0,1.842-3.787,12.11,12.11,0,0,0,.926-1.113c2.643-3.633,3.177-8.85,1.466-14.317-.784-2.507-3.182-8.6-8.483-11.014a7.5,7.5,0,0,0-4.454-.635l-.138.026a10.112,10.112,0,0,0-3.056,1.307c-.276.16-.538.311-.767.424-.972.485-2,.926-3.063,1.332a37.153,37.153,0,0,0,3.188-3.424,42.617,42.617,0,0,0,5.3-8.39,50.085,50.085,0,0,0,6.3-14.5,68.446,68.446,0,0,0,2.205-22.718c-.514-6.557-2.526-15.5-9.04-22.1a12.615,12.615,0,0,0-1.5-1.418,13.6,13.6,0,0,0-1.49-1.2,29.077,29.077,0,0,0-17.437-5.614,31.46,31.46,0,0,0-5.65.512" fill="none"/>
    </clipPath>
    <clipPath id="clip-path-12">
      <path id="Path_5396" data-name="Path 5396" d="M171.593,130.377s.415.2,1.635.768c.285.13.4.183.4.182s-2.03-.95-2.037-.95" fill="none"/>
    </clipPath>
    <linearGradient id="linear-gradient-8" x1="-78.516" y1="237.908" x2="-78.058" y2="237.908" xlink:href="#linear-gradient"/>
    <linearGradient id="linear-gradient-9" x1="0.5" y1="0" x2="0.88" y2="1" xlink:href="#linear-gradient"/>
    <clipPath id="clip-path-13">
      <path id="Path_5400" data-name="Path 5400" d="M118.616,110.205a3.621,3.621,0,0,1-1.629-2.248c.046-.108.154-.305.228-.441s.159-.293.232-.438c.15-.292.291-.564.434-.84a27.327,27.327,0,0,1,1.622-2.324,6.151,6.151,0,0,1,3.26-2.488c.082-.014.164-.025.246-.031,2.307-.178,3.66,3.03,4.053,4.751a10.333,10.333,0,0,1-.314,5.145,3.659,3.659,0,0,1-.822.519,5.316,5.316,0,0,1-.926.257,6.041,6.041,0,0,1-1.085.1,8.835,8.835,0,0,1-5.3-1.957m8.609-62.314a30.57,30.57,0,0,0-9.172,3.366,38.006,38.006,0,0,0-13.4,11.965,37.416,37.416,0,0,0-2.858,5.044c-5.263,7.845-7.676,18.142-6.956,29.4-1.784.553-4.125,2.083-5.16,6.225-1.452,1.247-2.778,3.435-3.178,7.271a30.946,30.946,0,0,0,.926,10.006,71.219,71.219,0,0,0,3.16,10,117.753,117.753,0,0,0,9.292,18.568,81.45,81.45,0,0,0,6.022,8.647c2.137,2.643,4.695,5.608,8.016,7.325a7.186,7.186,0,0,0,4.6.9,5.552,5.552,0,0,0,.7-.176,6.906,6.906,0,0,0,4.035-3.535,10.5,10.5,0,0,0,.848-2.519,7.018,7.018,0,0,0,1.919-2.381c1.645-3.349,1.138-7.216.73-10.323l-.079-.607c-.092-.718-.212-1.451-.329-2.159-.075-.458-.149-.92-.217-1.379a17.082,17.082,0,0,1,2.783,3.684l.333.531.2.317a81.688,81.688,0,0,0,5.616,8.123c4.588,5.624,9.429,8.66,14.388,9.022a13.417,13.417,0,0,0,3.383-.2,21.927,21.927,0,0,0,7-2.772,38.52,38.52,0,0,0,8.17-6.5,34.971,34.971,0,0,0,6.058-8.167c.268-.514.545-1.075.808-1.671a30.22,30.22,0,0,0,1.96-3.23c1.414-2.716,3.111-6.751,1.526-10.416a7.341,7.341,0,0,0-3.774-3.67c-.229-.115-.478-.232-.748-.357a8.247,8.247,0,0,0-1.83-.723,65.178,65.178,0,0,0-12.053-2.8c-1.5-.25-3.05-.507-4.534-.8a69.1,69.1,0,0,1-7.7-1.939,31.957,31.957,0,0,0,8.408-11.175,35.713,35.713,0,0,0,2.941-5.266,38.893,38.893,0,0,0,3.543-14.905,49.655,49.655,0,0,0-3.291-19.051A46.317,46.317,0,0,0,149.739,55.9c-4.928-5.118-10.781-8.012-16.925-8.37q-.646-.038-1.3-.038a23.878,23.878,0,0,0-4.289.4" fill="none"/>
    </clipPath>
    <clipPath id="clip-path-15">
      <path id="Path_5402" data-name="Path 5402" d="M366.846,36.056c-.006,0,.188.084.734.308.534.205.736.28.743.278s-1.449-.586-1.477-.586" fill="none"/>
    </clipPath>
    <linearGradient id="linear-gradient-10" x1="-231.684" y1="476.656" x2="-231.052" y2="476.656" xlink:href="#linear-gradient"/>
    <linearGradient id="linear-gradient-11" x1="0.643" y1="0.059" x2="0.625" y2="1.116" xlink:href="#linear-gradient"/>
    <clipPath id="clip-path-16">
      <path id="Path_5406" data-name="Path 5406" d="M360.185,33a21.321,21.321,0,0,0-2.271.549,35.257,35.257,0,0,0-3.817,1.46c-.667.286-1.3.556-1.93.8a105.67,105.67,0,0,1-17.2,4.785q-1.375.276-2.756.527c-5.107.932-10.565,1.706-17.177,2.433-4.164.459-8.428.8-12.552,1.121-2.6.206-5.293.418-7.947.66-1.307.119-2.608.3-3.864.525a32.823,32.823,0,0,0-15.66,7.081,29.24,29.24,0,0,0-7.594,10.268,32.431,32.431,0,0,0-5.113,12.317,41.213,41.213,0,0,0-.646,10.517,26.836,26.836,0,0,0,2.513,10.721,11.3,11.3,0,0,0,8.015,6.305,12.244,12.244,0,0,0,4.316-.043,17.7,17.7,0,0,0,6.546-2.763,24.833,24.833,0,0,0,4.081-3.41c.645-.666,1.223-1.346,1.781-2,.494-.582.961-1.133,1.444-1.639a26.2,26.2,0,0,1,6.505-4.974,28.732,28.732,0,0,1,8.332-2.98q.4-.073.8-.131l.049.1c5.88,12.576,3.843,27.042,1.874,41.033-.226,1.6-.45,3.2-.661,4.78l-.064.473a16.808,16.808,0,0,0,.046,6.736,12.563,12.563,0,0,0,4.214,6.367c3.738,3.186,8.473,4.638,12.18,5.547,7.976,1.955,16.92,2.5,27.345,1.657a82.569,82.569,0,0,0,8.246-1.018c1.391-.254,2.728-.554,3.974-.89,3.378-.914,4.8-3.444,5.319-6.132,3.877-2.973,3.064-9.312,2.726-11.949a71.949,71.949,0,0,0-3.406-13.571c-1.378-4.1-3.056-8.424-5.131-13.216-1.921-4.442-3.932-8.776-5.976-12.881-.48-.963-.985-1.93-1.473-2.866a49.679,49.679,0,0,1-3.944-8.886c-.085-.293-.152-.568-.211-.835.117-.028.232-.055.344-.077l.154-.03a26.139,26.139,0,0,1,3.513-.3c.373-.015.744-.031,1.113-.051a54.33,54.33,0,0,0,6.815-.71,25.246,25.246,0,0,0,5.62-1.659,13.591,13.591,0,0,0,7.747-8.469,14.139,14.139,0,0,0,3.183-6.412,30.956,30.956,0,0,0,0-11.624c-.886-5.478-2.8-9.827-5.693-12.927a14.608,14.608,0,0,0-4.017-3.079,7.378,7.378,0,0,0-1.224-.574,6.612,6.612,0,0,0-1.468-.474A14.288,14.288,0,0,0,363.4,32.7a17.888,17.888,0,0,0-3.215.3" fill="none"/>
    </clipPath>
    <clipPath id="clip-path-18">
      <path id="Path_5410" data-name="Path 5410" d="M382.139,41.8l-.291.052a31.677,31.677,0,0,0-12.317,4.807,22.008,22.008,0,0,0-7.793,9.786,24.391,24.391,0,0,0-3.081,5.631c-2.856,7.321-3.174,17.538,4.5,24.255a27.494,27.494,0,0,0,11.924,5.75,47.94,47.94,0,0,0,13.14,1.306,35.855,35.855,0,0,0,5.052-.543,30.273,30.273,0,0,0,4.127-1.052l.255.151a10.166,10.166,0,0,0,3.128,1.21,18.692,18.692,0,0,1-9.369,4.256l-.161.028c-.417.074-.851.134-1.309.2-.534.075-1.084.151-1.65.255a13.064,13.064,0,0,0-2.881.832,8.319,8.319,0,0,0-4.909,5.733c-.055.2-.1.4-.148.6a8.527,8.527,0,0,0-2.62,4.3,30.77,30.77,0,0,0-.841,6.487l-.036.637c-.159,2.7-.328,4.906-.532,6.957a124.081,124.081,0,0,0-.578,14.5,66.141,66.141,0,0,0,1.627,15.112l.061.239c.475,1.88,1.194,4.722,3.371,6.3a9.3,9.3,0,0,0,3.892,1.4l.037.007a47.533,47.533,0,0,0,14.918.145c.745-.1,1.434-.212,2.1-.335a32.033,32.033,0,0,0,5.419-1.444l.146-.054c1.469-.542,4.2-1.551,4.824-4.5.1-.487.183-.976.251-1.464a5.255,5.255,0,0,0,2.516-3.437,35.469,35.469,0,0,0,.6-6.363c.065-2.4.04-4.859-.078-7.52-.21-4.769-.662-9.618-1.342-14.414-.093-.665-.2-1.367-.332-2.168-.01-.1-.024-.206-.043-.314l-.147-.861c-.11-.611-.168-.931-.192-1.063a122.127,122.127,0,0,0-2.787-12.556,32.609,32.609,0,0,0-5.53-11.217l-.219-.278c5.124-1.027,9-5.514,10.442-7.415a26.892,26.892,0,0,0,3.463-5.851,23.949,23.949,0,0,0,3.319-6.362,23.36,23.36,0,0,0,.946-9.924,24.288,24.288,0,0,0-4.294-11.222c-2.99-4.316-7.547-7.437-13.547-9.279l-.232-.117-.369-.047a61.17,61.17,0,0,0-14.36-1.816,46.75,46.75,0,0,0-8.073.681" fill="none"/>
    </clipPath>
    <linearGradient id="linear-gradient-12" x1="0.5" y1="0" x2="0.5" y2="1" xlink:href="#linear-gradient"/>
    <linearGradient id="linear-gradient-13" x1="0.666" y1="0.12" x2="0.666" y2="2.017" xlink:href="#linear-gradient"/>
    <clipPath id="clip-path-21">
      <path id="Path_5419" data-name="Path 5419" d="M418.069,225.066s.342,1.033,1.278,3.852,1.286,3.861,1.286,3.86l-2.564-7.712" fill="none"/>
    </clipPath>
    <linearGradient id="linear-gradient-14" x1="-52.539" y1="66.041" x2="-52.413" y2="66.041" xlink:href="#linear-gradient"/>
    <linearGradient id="linear-gradient-15" x1="0.54" y1="-0.036" x2="0.816" y2="1.116" xlink:href="#linear-gradient"/>
    <clipPath id="clip-path-22">
      <path id="Path_5425" data-name="Path 5425" d="M373.9,273.786a12.466,12.466,0,0,1-8.506-4.306c-2.252-2.845-3.016-7.375-2.27-13.464.049-.4.116-.81.178-1.215a41.188,41.188,0,0,1,10.058,12.809,16,16,0,0,1,1.662,6.218h-.059c-.406,0-.77-.017-1.063-.042M309.782,143.5c-11.374,4.194-19.793,8.824-26.494,14.569a65.983,65.983,0,0,0-7.839,8.061c-.272.225-.558.441-.826.67-9.63,8.258-17.137,19.8-21.71,33.376-7.524,22.348-8.04,49.072-1.575,81.7,5.742,28.974,14.879,54.424,27.158,75.641,7.626,13.179,16.6,23.134,26.676,29.589a52.692,52.692,0,0,0,23.644,8.339,42.461,42.461,0,0,0,17.571-2.089,41.543,41.543,0,0,0,19.856-14.674,39.5,39.5,0,0,0,14.972-21.806,16.205,16.205,0,0,0,12.332,7.5,16.171,16.171,0,0,0,7.121-.977c4.039-1.536,6.652-4.688,8.876-7.864.313-.449.617-.912.922-1.373,3.4-1.658,5.736-4.491,7.742-7.358a77.529,77.529,0,0,0,9.179-18.384c8.943-24.593,10.1-53.078,3.35-82.376-1.2-5.216-2.691-10.624-4.435-16.116-.255-.843-.581-1.823-.97-2.994-1.333-4.008-1.4-4.207-1.549-4.525-9.523-27.135-21.5-47.573-36.54-62.378-10.639-10.475-22.881-17.5-35.4-20.31a63.325,63.325,0,0,0-8.314-1.285q-2.862-.249-5.78-.249a80.852,80.852,0,0,0-27.965,5.311" fill="none"/>
    </clipPath>
    <clipPath id="clip-path-24">
      <path id="Path_5427" data-name="Path 5427" d="M590.258,247.862s.133.437.471,1.532c1.184,3.787,1.594,5.1,1.6,5.1s-2.061-6.63-2.067-6.631" fill="none"/>
    </clipPath>
    <linearGradient id="linear-gradient-16" x1="-86.637" y1="72.138" x2="-86.49" y2="72.138" xlink:href="#linear-gradient"/>
    <linearGradient id="linear-gradient-17" x1="0.351" y1="-0.117" x2="0.743" y2="1.039" xlink:href="#linear-gradient"/>
    <clipPath id="clip-path-25">
      <path id="Path_5432" data-name="Path 5432" d="M426.058,120.351a70.726,70.726,0,0,0-26.215,14.224c-1.3,1.145-2.536,2.368-3.732,3.626a63.669,63.669,0,0,0-6.5,4.968,59.858,59.858,0,0,0-17.5,27.1c-8.487,26.967,1.989,53.178,8.988,66.4,10.975,20.734,27.069,36.761,45.318,45.13a71.6,71.6,0,0,0,24.007,6.027q.955.082,1.918.148a179.2,179.2,0,0,0,32.89-.8,165.049,165.049,0,0,0,43.093-10.61c.363,1.374.686,2.737.963,4.067a35.6,35.6,0,0,1,.841,8.08A16.352,16.352,0,0,1,528.8,294.9a44.25,44.25,0,0,1-7.394,2.066c-10.116,1.99-21.075,1.39-31.675.81-3.24-.178-6.591-.361-9.891-.47l-1.03-.035c-6.938-.236-14.8-.5-22.19,1.659a14.853,14.853,0,0,0-10.508,8.68,15.994,15.994,0,0,0-7.9,4.815c-3.536,4.233-4.207,9.525-4.148,13.216.234,14.341,9.662,29.4,23.458,37.462,9.391,5.491,21.52,9.257,36.05,11.192,2.11.282,4.252.518,6.366.7,18.434,1.606,52.071.781,73.917-21.929a63.5,63.5,0,0,0,12.1-10.614c8.746-9.927,14.778-23.887,16.987-39.31,1.942-13.565.907-28.208-3.165-44.765q-.546-2.219-1.17-4.494a37.559,37.559,0,0,0-1.3-4.582l-.712-2.283c-.064-.207-.141-.452-.234-.721-2.8-8.795-6.3-17.353-9.392-24.619l-.476-1.124c-3.447-8.153-7.736-18.3-17.913-22.735a19.622,19.622,0,0,0-6.149-1.563,20.272,20.272,0,0,0-14.273,4.286,21.536,21.536,0,0,0-4.917,5.591,20.7,20.7,0,0,0-5.317,3,24.97,24.97,0,0,0-6.285,7.878c-.757,1.331-1.45,2.661-2.121,3.983-5.613-1.253-9.791-8.292-11.889-14.75-2.5-7.7-3.135-15.932-3.806-24.653-.181-2.35-.368-4.781-.593-7.178-1.019-10.823-2.464-22.24-7.836-32.408a41.424,41.424,0,0,0-18.5-17.9c-7.662-3.846-16.778-6.25-27.093-7.149l-.217-.018c-2.552-.217-5.119-.325-7.686-.325a90.4,90.4,0,0,0-25.844,3.737" fill="none"/>
    </clipPath>
    <linearGradient id="linear-gradient-18" x1="0.728" y1="0" x2="0.681" y2="1.056" xlink:href="#linear-gradient"/>
    <clipPath id="clip-path-27">
      <path id="Path_5439" data-name="Path 5439" d="M46.1,54.208a23.974,23.974,0,0,0-6.32,4.69,25.66,25.66,0,0,0-8.93,9.936c-1.93,3.725-2.83,8.366-2.752,14.189a70.945,70.945,0,0,0,2.643,17.3,128.129,128.129,0,0,0,5.623,16.35A160.144,160.144,0,0,0,53.1,147.044c3.641,5.174,7.73,9.175,10.993,13.511,4,5.31,8.853,10.915,14.392,10.834,1.457-.022,2.721.983,4.093,1.25a16.817,16.817,0,0,0,13.55-2.98,19.629,19.629,0,0,0,2.635-2.42,16.359,16.359,0,0,0,1.726-1.137,23,23,0,0,0,8.57-16.013,15.468,15.468,0,0,0-.945-7.305,7.581,7.581,0,0,0-.688-1.382l-.018-.03-.006-.008a19.734,19.734,0,0,0-3.284-3.863,13.232,13.232,0,0,0-5.957-3.572c-.111-.026-.222-.051-.333-.071a13.47,13.47,0,0,0-6.259.565c-.561.156-1.12.319-1.679.483-1.183.348-2.3.676-3.421.914a12.613,12.613,0,0,1-5.133.073,14.062,14.062,0,0,1-3.739-1.321,26.735,26.735,0,0,1-7.554-6.046,34.615,34.615,0,0,1-8.731-17.838,18.948,18.948,0,0,1,.35-7.509h0A28.424,28.424,0,0,0,78.9,114.635a20.506,20.506,0,0,0,10.352-.557,17.187,17.187,0,0,0,7.648-5.012,17.126,17.126,0,0,0,8.24-11.213c1.168-5.2.24-11.132-2.684-17.148-4.636-9.537-13.164-18.173-23.4-23.7a48.663,48.663,0,0,0-13.594-4.969,36.314,36.314,0,0,0-6.929-.7A27.082,27.082,0,0,0,46.1,54.208" fill="none"/>
    </clipPath>
    <clipPath id="clip-path-29">
      <path id="Path_5441" data-name="Path 5441" d="M277.674,256.367c1.744,1.669,2.349,2.247,2.35,2.247s-3.044-2.921-3.048-2.921.2.192.7.674" fill="none"/>
    </clipPath>
    <linearGradient id="linear-gradient-19" x1="-87.224" y1="56.09" x2="-86.909" y2="56.09" xlink:href="#linear-gradient"/>
    <linearGradient id="linear-gradient-20" x1="0.349" y1="0" x2="0.417" y2="0.983" xlink:href="#linear-gradient"/>
    <clipPath id="clip-path-30">
      <path id="Path_5448" data-name="Path 5448" d="M166.723,330.259c-.161-.014-.32-.031-.48-.051-4.109-.514-7.965-3.429-10.315-7.8a13.32,13.32,0,0,1-1.69-6.174,20.88,20.88,0,0,1,7.28-.723,14.6,14.6,0,0,1,2.89.532,8.608,8.608,0,0,1,5.734,5,17.05,17.05,0,0,1,.971,8.855,14.157,14.157,0,0,1-3.33.409q-.539,0-1.06-.045m-49.47-90.982a23.644,23.644,0,0,1,.937-4.907,2.959,2.959,0,0,1,.508.267c3.257,2.2,2.11,8.226,1.81,9.549a36.212,36.212,0,0,1-1.973,5.71,26.326,26.326,0,0,1-1.282-10.619m-6.884-85.4a22.829,22.829,0,0,0-15.738,6.806,36.33,36.33,0,0,0-4.654,5.552,26.306,26.306,0,0,0-4.011,3.179c-8.084,7.82-11.456,18.9-13.49,27.673-2.159,9.318-3.353,19.631-3.757,32.456-.636,20.126,1.567,41.733,6.549,64.219a317.081,317.081,0,0,0,19.805,59.98,219.739,219.739,0,0,0,15.02,28.808,52.268,52.268,0,0,0,4.769,6.589,18.96,18.96,0,0,0,3.335,3.13,7.712,7.712,0,0,0,3.855,1.517,7.561,7.561,0,0,0,5.009-1.475,41.519,41.519,0,0,0,6.686-6.1c1.142-1.213,2.221-2.359,3.3-3.291a27.887,27.887,0,0,1,8.533-5.271,14.266,14.266,0,0,1,6.254-.89,15.68,15.68,0,0,1,3.532.748c6.37,2.116,12.492,6.422,18.415,10.587,1.826,1.284,3.714,2.612,5.6,3.869,8.12,5.42,17.911,11.5,28.957,15.471a79.711,79.711,0,0,0,20.058,4.458,73.38,73.38,0,0,0,13.284-.042,74.249,74.249,0,0,0,22.086-5.442,56.725,56.725,0,0,0,21.54-16.593,61.344,61.344,0,0,0,10.193-10.64c11.718-15.58,17.427-36.935,16.074-60.132-1.2-20.62-8.207-40.532-19.719-56.068a89.22,89.22,0,0,0-6.852-8.176,25.8,25.8,0,0,0-2.134-2.194c-.356-.341-.678-.649-.975-.926-15.084-14.438-36.741-24.133-59.441-26.6q-.986-.106-1.972-.193a96.222,96.222,0,0,0-25.962,1.3c.818-1.727,1.552-3.469,2.194-5.205,5.4-14.61,3.928-29.353-4.137-41.512a50.3,50.3,0,0,0-22.381-18.816,57.391,57.391,0,0,0-17.233-4.114,85.735,85.735,0,0,0-25.88,2.015l-1.8.4a25.765,25.765,0,0,0-12.775-5c-.627-.055-1.261-.083-1.888-.083l-.239,0" fill="none"/>
    </clipPath>
    <clipPath id="clip-path-31">
      <path id="Path_5374" data-name="Path 5374" d="M511.394,77.64c.071.178.142.356.209.536-.211-.561-.29-.767-.291-.767s.031.092.082.231" fill="none"/>
    </clipPath>
    <linearGradient id="linear-gradient-21" x1="-648.737" y1="1028.304" x2="-647.468" y2="1028.304" xlink:href="#linear-gradient"/>
    <clipPath id="clip-path-32">
      <path id="Path_5375" data-name="Path 5375" d="M511.789,78.706c.055.147.091.245.093.245s-.073-.207-.279-.775c.064.176.125.352.186.53" fill="none"/>
    </clipPath>
    <linearGradient id="linear-gradient-22" x1="-643.414" y1="1060.184" x2="-642.156" y2="1060.184" xlink:href="#linear-gradient"/>
    <clipPath id="clip-path-33">
      <path id="Path_5413" data-name="Path 5413" d="M393.026,41.2c.339.018.684.054,1.025.079l-.074-.023q-.48-.033-.956-.059Z" fill="none"/>
    </clipPath>
    <linearGradient id="linear-gradient-23" x1="-382.334" y1="1502.361" x2="-381.361" y2="1502.361" xlink:href="#linear-gradient"/>
    <clipPath id="clip-path-34">
      <path id="Path_5434" data-name="Path 5434" d="M105.023,143c.134.229.369.627.37.628s-.112-.192-.45-.766l.08.138" fill="none"/>
    </clipPath>
    <linearGradient id="linear-gradient-24" x1="-125.031" y1="505.807" x2="-123.838" y2="505.807" xlink:href="#linear-gradient"/>
    <clipPath id="clip-path-35">
      <path id="Path_5442" data-name="Path 5442" d="M185.314,325.027c.063-.182.12-.366.176-.552.058-.2.113-.411.165-.618-.1.335-.242.824-.341,1.17" fill="none"/>
    </clipPath>
    <linearGradient id="linear-gradient-25" x1="-154.696" y1="262.991" x2="-153.86" y2="262.991" xlink:href="#linear-gradient"/>
  </defs>
  <g id="Group_1815" data-name="Group 1815" transform="translate(-234 -613)">
    <path id="Path_5364" data-name="Path 5364" d="M234.817,435.259c-2.807,0-5.645-.124-8.434-.367a102.885,102.885,0,0,1-25.867-5.736c-13.393-4.819-24.678-11.8-33.951-17.988-2.072-1.381-4.139-2.831-6.078-4.2-3.088-2.172-6.257-4.4-8.977-5.939-.31.324-.649.683-.848.894a62.851,62.851,0,0,1-10.575,9.446,30.5,30.5,0,0,1-17.447,5.525c-.847,0-1.716-.037-2.579-.111a30.675,30.675,0,0,1-15.111-5.609l-.088-.063A41.457,41.457,0,0,1,97.5,404.35a73.448,73.448,0,0,1-6.9-9.445,241.663,241.663,0,0,1-16.618-31.8,340.152,340.152,0,0,1-21.248-64.357c-5.4-24.362-7.779-47.893-7.084-69.939.452-14.371,1.832-26.11,4.343-36.942.544-2.347,1.35-5.648,2.5-9.313a75.54,75.54,0,0,1-6.831-8.116c-.935-1.241-2.22-2.729-3.579-4.3l-.08-.092a122.43,122.43,0,0,1-7.774-9.718,183.414,183.414,0,0,1-19.163-34.753A151.454,151.454,0,0,1,8.426,106.26a93.675,93.675,0,0,1-3.42-22.929c-.126-9.722,1.621-17.938,5.341-25.12A49.374,49.374,0,0,1,25.116,40.959a46.836,46.836,0,0,1,10.5-7.324,49.9,49.9,0,0,1,22.875-5.388,59.76,59.76,0,0,1,11.371,1.128,72.055,72.055,0,0,1,20.152,7.314q2.479,1.338,4.874,2.852a63.91,63.91,0,0,1,12.06-8.527,53.58,53.58,0,0,1,16.12-5.834,46.964,46.964,0,0,1,8.433-.774c.889,0,1.783.027,2.657.079,12.034.7,23.174,6.026,32.208,15.4a69.618,69.618,0,0,1,14.566,23.588c.081.216.16.431.239.647q.746-.453,1.5-.877a46.012,46.012,0,0,1,13.932-4.986l.456-.086a55.181,55.181,0,0,1,9.9-.9A53.67,53.67,0,0,1,218.5,58.52a54.843,54.843,0,0,1,12.338-10.632,51.886,51.886,0,0,1,5.667-3.9,60.716,60.716,0,0,1,20.733-7.335q.837-.151,1.674-.282.564-.513,1.136-1A55.563,55.563,0,0,1,286.53,23.148c1.944-.355,3.935-.626,5.918-.805,2.762-.252,5.551-.474,7.986-.667l.227-.018c3.941-.309,8-.628,11.852-1.052,6.035-.664,10.971-1.361,15.535-2.193.783-.144,1.586-.3,2.4-.46a83.148,83.148,0,0,0,13.448-3.7c.3-.116.692-.285,1.112-.466a56.873,56.873,0,0,1,6.286-2.357,45.121,45.121,0,0,1,4.739-1.143A41.223,41.223,0,0,1,363.4,9.61a37.635,37.635,0,0,1,8.882,1.053,29.991,29.991,0,0,1,4.852,1.528,30.4,30.4,0,0,1,3.95,1.857A37.241,37.241,0,0,1,387.1,18.1c1.015-.042,2.037-.064,3.057-.064,1.523,0,3.078.048,4.643.144,8.079-7,18.3-11.262,30.39-12.671A77.074,77.074,0,0,1,434.073,5c2.063,0,4.166.083,6.248.247a78.9,78.9,0,0,1,14.9,2.631,73.932,73.932,0,0,1,11.586,4.371A47.8,47.8,0,0,1,482.859,23.82a45.262,45.262,0,0,1,9.828,19.45,30.677,30.677,0,0,1,8.12-1.083c.809,0,1.639.032,2.468.1a34.564,34.564,0,0,1,14.708,4.772,47.918,47.918,0,0,1,9.179-2.7l.508-.1a54.93,54.93,0,0,1,9.872-.9,52.408,52.408,0,0,1,30.735,9.857,48.461,48.461,0,0,1,6.643,5.822c11.027,11.533,14.28,25.9,15.065,35.936a91.778,91.778,0,0,1-2.916,30.477,79.658,79.658,0,0,1-2.5,7.769,46.411,46.411,0,0,1,7.4,14.25c3.782,12.074,2.265,24.374-4.153,33.831-.144.313-.295.624-.448.931,11.741,8.857,17.072,21.471,20.39,29.322l.468,1.106c3.245,7.632,6.983,16.748,10.072,26.424.119.347.243.739.34,1.057l.713,2.283c.9,2.9,1.414,4.534,1.784,6.288.37,1.373.729,2.766,1.07,4.151,4.793,19.487,5.969,37,3.6,53.549-2.837,19.822-10.834,38.042-22.517,51.3a86.85,86.85,0,0,1-14.5,13.083c-23.37,22.963-54.795,27.8-77.086,27.8-4.553,0-9.183-.2-13.763-.6-2.482-.217-4.975-.492-7.413-.817-17.585-2.345-32.608-7.1-44.654-14.147A72.239,72.239,0,0,1,429.023,369.3c-.753.656-1.522,1.279-2.314,1.871a40.162,40.162,0,0,1-17.827,13.807,39.01,39.01,0,0,1-13.925,2.548c-1.136,0-2.285-.05-3.413-.148-.3-.027-.6-.057-.906-.091a64.893,64.893,0,0,1-7.9,7.78,64.321,64.321,0,0,1-50.027,23.635c-1.943,0-3.927-.086-5.9-.256a74.909,74.909,0,0,1-28.454-8.6,78.916,78.916,0,0,1-25.559,17.8,97.308,97.308,0,0,1-28.941,7.182c-2.979.283-6.021.427-9.044.427" transform="translate(234 613)" fill="#fff"/>
    <path id="Path_5365" data-name="Path 5365" d="M434.072,10c1.934,0,3.9.078,5.857.231a73.976,73.976,0,0,1,13.952,2.463,69.13,69.13,0,0,1,10.809,4.084,42.993,42.993,0,0,1,14.415,10.346c6.53,7.413,8.859,16.185,9.795,22.983q1-.529,2.062-.972a25.569,25.569,0,0,1,9.844-1.948c.681,0,1.373.027,2.087.081a30.2,30.2,0,0,1,14.675,5.451,41.748,41.748,0,0,1,10.542-3.455l.039-.008.039-.007.393-.073a49.837,49.837,0,0,1,8.968-.816,47.34,47.34,0,0,1,27.827,8.929,43.375,43.375,0,0,1,5.88,5.153C581.3,72.914,584.276,86.112,585,95.365a86.717,86.717,0,0,1-2.762,28.8,72.836,72.836,0,0,1-3.435,9.973,40.51,40.51,0,0,1,8.392,14.831c3.376,10.781,2,21.64-3.749,29.863a30.212,30.212,0,0,1-2.775,4.913c13.267,7.961,18.944,21.4,22.482,29.768l.464,1.1c3.208,7.545,6.892,16.531,9.914,26,.128.376.236.72.322,1l.722,2.314c.882,2.828,1.369,4.388,1.692,5.959.373,1.382.735,2.788,1.079,4.184,4.637,18.852,5.783,35.746,3.505,51.645-2.7,18.869-10.272,36.166-21.321,48.707a81.727,81.727,0,0,1-13.975,12.55C563.39,388.949,533.219,393.6,511.7,393.6c-4.409,0-8.891-.2-13.331-.58-2.4-.209-4.817-.476-7.184-.791-16.924-2.257-31.32-6.8-42.791-13.508a67.388,67.388,0,0,1-19.049-16.793,36.79,36.79,0,0,1-6.185,5.654c-3.437,4.61-8.332,9.792-16.055,12.731a34.008,34.008,0,0,1-12.148,2.221c-.991,0-1.993-.043-2.979-.129a34.083,34.083,0,0,1-3.416-.475,59.387,59.387,0,0,1-9.385,9.6,59.327,59.327,0,0,1-46.463,22.178c-1.8,0-3.641-.08-5.469-.238a70.426,70.426,0,0,1-29.875-9.919,74.5,74.5,0,0,1-26.525,19.5,92.3,92.3,0,0,1-27.457,6.8c-2.822.269-5.706.4-8.57.4-2.664,0-5.355-.117-8-.348a97.965,97.965,0,0,1-24.61-5.459c-12.884-4.637-23.848-11.422-32.867-17.443-2.044-1.362-4.077-2.789-5.973-4.126-4.367-3.072-8.868-6.238-12.522-7.766a15.141,15.141,0,0,0-1.954,1.466c-.356.309-1.228,1.233-1.865,1.907l-.045.048a58.309,58.309,0,0,1-9.719,8.705,25.576,25.576,0,0,1-14.623,4.652c-.705,0-1.421-.03-2.155-.093a25.737,25.737,0,0,1-12.664-4.721l-.024-.016-.017-.013a36.8,36.8,0,0,1-6.523-6,68.732,68.732,0,0,1-6.441-8.827,236.86,236.86,0,0,1-16.272-31.147,335.143,335.143,0,0,1-20.935-63.41c-5.307-23.954-7.651-47.068-6.969-68.7.442-14.036,1.782-25.466,4.216-35.97a111.2,111.2,0,0,1,3.373-11.884,63.209,63.209,0,0,1-8.584-9.685c-1.035-1.374-2.375-2.926-3.793-4.568l-.07-.081a118.586,118.586,0,0,1-7.473-9.332,178.382,178.382,0,0,1-18.639-33.8,146.39,146.39,0,0,1-6.412-18.672,88.713,88.713,0,0,1-3.252-21.713c-.117-8.876,1.447-16.317,4.781-22.751a44.241,44.241,0,0,1,13.5-15.675,41.82,41.82,0,0,1,9.6-6.745,44.95,44.95,0,0,1,20.608-4.844,54.72,54.72,0,0,1,10.415,1.036A66.987,66.987,0,0,1,87.643,41.09a76.815,76.815,0,0,1,7.823,4.847,57.683,57.683,0,0,1,13.89-10.54,48.621,48.621,0,0,1,14.612-5.3,41.872,41.872,0,0,1,7.537-.693c.792,0,1.591.024,2.358.07,10.764.626,20.758,5.425,28.9,13.88a64.611,64.611,0,0,1,13.486,21.875q1.292,3.447,2.212,6.923a46.735,46.735,0,0,1,6.653-4.547,41.053,41.053,0,0,1,12.44-4.439l.331-.063.045-.009.045-.008a50.165,50.165,0,0,1,8.988-.816,48.522,48.522,0,0,1,13.384,1.873,50.677,50.677,0,0,1,13.366-12.163,47.057,47.057,0,0,1,5.331-3.7,55.921,55.921,0,0,1,19.081-6.718q1.525-.278,3.053-.476,1.029-1,2.1-1.919a50.636,50.636,0,0,1,24.142-11.106c1.8-.328,3.643-.579,5.47-.744,2.746-.251,5.514-.47,7.93-.661l.239-.02c3.965-.311,8.065-.633,11.993-1.066,6.164-.678,11.22-1.392,15.885-2.243.818-.152,1.648-.309,2.486-.477a87.915,87.915,0,0,0,14.254-3.933c.354-.136.806-.33,1.293-.539a51.843,51.843,0,0,1,5.75-2.162,39.68,39.68,0,0,1,4.207-1.015,36.112,36.112,0,0,1,6.465-.6,32.548,32.548,0,0,1,7.76.926,25.145,25.145,0,0,1,4.135,1.3,25.4,25.4,0,0,1,3.37,1.584,32.363,32.363,0,0,1,6.68,4.787q2.382-.172,4.81-.172c2.1,0,4.244.1,6.414.289q.519-.495,1.053-.971c7.373-6.565,16.845-10.561,28.146-11.878a71.738,71.738,0,0,1,8.3-.479m0-10a81.936,81.936,0,0,0-9.464.546C412.265,1.984,401.678,6.2,393.1,13.093c-.988-.036-1.97-.054-2.94-.054q-.695,0-1.391.012a42.012,42.012,0,0,0-5.262-3.38,35.446,35.446,0,0,0-4.549-2.138A34.654,34.654,0,0,0,373.4,5.79a42.605,42.605,0,0,0-10-1.18,46.134,46.134,0,0,0-8.261.759,49.851,49.851,0,0,0-5.275,1.27,61.445,61.445,0,0,0-6.828,2.554c-.355.152-.683.3-.94.4a78.1,78.1,0,0,1-12.621,3.46c-.8.161-1.579.308-2.348.45-4.412.805-9.236,1.486-15.16,2.137-3.781.417-7.8.732-11.682,1.037l-.275.022c-2.422.192-5.2.412-8.023.67-2.12.191-4.261.482-6.354.864A60.514,60.514,0,0,0,256.8,31.56l-.127.109-.333.059a65.558,65.558,0,0,0-22.4,7.958,56.9,56.9,0,0,0-5.994,4.109,59.366,59.366,0,0,0-11.266,9.282,58.878,58.878,0,0,0-9.716-.805,60.268,60.268,0,0,0-10.783.978l-.022,0-.067.013-.021,0-.065.012-.331.063a52.383,52.383,0,0,0-11.957,3.766,72.943,72.943,0,0,0-13.75-20.692c-9.925-10.3-22.21-16.152-35.528-16.927-.954-.057-1.948-.087-2.939-.087a51.981,51.981,0,0,0-9.34.857,58.557,58.557,0,0,0-17.617,6.366A69.723,69.723,0,0,0,94.391,33.4q-.991-.57-2-1.113a77.147,77.147,0,0,0-21.578-7.824,64.707,64.707,0,0,0-12.322-1.219,54.842,54.842,0,0,0-25.147,5.934,51.748,51.748,0,0,0-11.4,7.9A54.418,54.418,0,0,0,5.908,55.91C1.8,63.842-.132,72.832.007,83.394a98.519,98.519,0,0,0,3.587,24.153A156.425,156.425,0,0,0,10.443,127.5a188.409,188.409,0,0,0,19.687,35.7,126.9,126.9,0,0,0,8.08,10.11l.083.1c1.3,1.5,2.53,2.93,3.363,4.036,1.225,1.628,2.961,3.936,5.211,6.437-.736,2.586-1.3,4.913-1.753,6.859-2.585,11.157-4.006,23.205-4.469,37.914-.708,22.463,1.714,46.411,7.2,71.177A345.157,345.157,0,0,0,69.4,365.141,246.627,246.627,0,0,0,86.368,397.58a78.17,78.17,0,0,0,7.369,10.067,47.017,47.017,0,0,0,8.234,7.545l.064.047.09.061a35.611,35.611,0,0,0,17.493,6.465q1.541.13,3.022.13A35.406,35.406,0,0,0,142.9,415.5a61.861,61.861,0,0,0,9.433-8.082c1.729,1.142,3.557,2.428,5.279,3.639,1.951,1.376,4.042,2.844,6.183,4.27,9.519,6.355,21.13,13.53,35.027,18.531a107.965,107.965,0,0,0,27.127,6.012c2.93.256,5.914.386,8.868.386,3.182,0,6.384-.152,9.518-.45a102.3,102.3,0,0,0,30.426-7.559,83.225,83.225,0,0,0,24.564-16.318,79.216,79.216,0,0,0,27.05,7.5c2.118.183,4.248.276,6.338.276A69.314,69.314,0,0,0,386.3,398.613a70.29,70.29,0,0,0,6.426-6.14c.745.037,1.492.056,2.232.056a43.511,43.511,0,0,0,33.976-16.144,76.46,76.46,0,0,0,14.413,10.963c12.622,7.38,28.272,12.355,46.518,14.788,2.518.336,5.087.619,7.636.841,4.73.41,9.506.618,14.2.618,23.139,0,55.771-5.045,80.314-28.959a91.652,91.652,0,0,0,15.018-13.612c12.323-13.986,20.746-33.129,23.719-53.9,2.463-17.193,1.255-35.331-3.694-55.45-.338-1.378-.7-2.765-1.061-4.13-.416-1.93-.975-3.721-1.869-6.59l-.727-2.329c-.094-.3-.221-.7-.369-1.143-3.141-9.825-6.923-19.051-10.209-26.783l-.458-1.082c-3.193-7.557-8.138-19.259-18.541-28.549,5.68-10.236,6.765-22.794,2.916-35.088a52.083,52.083,0,0,0-6.569-13.55q.957-2.792,1.731-5.688a96.806,96.806,0,0,0,3.069-32.156c-.847-10.827-4.381-26.36-16.388-38.95a41.963,41.963,0,0,0-3.7-3.548,41.7,41.7,0,0,0-3.7-2.94A57.44,57.44,0,0,0,537.55,38.36a59.819,59.819,0,0,0-10.77.98l-.415.077h-.007l-.046.009-.026,0-.026.005a54.748,54.748,0,0,0-7.9,2.122A38.972,38.972,0,0,0,503.683,37.3q-1.476-.113-2.877-.112a36.219,36.219,0,0,0-4.588.29,48.7,48.7,0,0,0-9.609-16.963A52.6,52.6,0,0,0,468.926,7.72a78.949,78.949,0,0,0-12.371-4.662,83.934,83.934,0,0,0-15.833-2.8C438.5.088,436.267,0,434.072,0" transform="translate(234 613)" fill="#fff"/>
    <path id="Path_5366" data-name="Path 5366" d="M434.072,10c1.934,0,3.9.078,5.857.231a73.976,73.976,0,0,1,13.952,2.463,69.13,69.13,0,0,1,10.809,4.084,42.993,42.993,0,0,1,14.415,10.346c6.53,7.413,8.859,16.185,9.795,22.983q1-.529,2.062-.972a25.569,25.569,0,0,1,9.844-1.948c.681,0,1.373.027,2.087.081a30.2,30.2,0,0,1,14.675,5.451,41.748,41.748,0,0,1,10.542-3.455l.039-.008.039-.007.393-.073a49.837,49.837,0,0,1,8.968-.816,47.34,47.34,0,0,1,27.827,8.929,43.375,43.375,0,0,1,5.88,5.153C581.3,72.914,584.276,86.112,585,95.365a86.717,86.717,0,0,1-2.762,28.8,72.836,72.836,0,0,1-3.435,9.973,40.51,40.51,0,0,1,8.392,14.831c3.376,10.781,2,21.64-3.749,29.863a30.212,30.212,0,0,1-2.775,4.913c13.267,7.961,18.944,21.4,22.482,29.768l.464,1.1c3.208,7.545,6.892,16.531,9.914,26,.128.376.236.72.322,1l.722,2.314c.882,2.828,1.369,4.388,1.692,5.959.373,1.382.735,2.788,1.079,4.184,4.637,18.852,5.783,35.746,3.505,51.645-2.7,18.869-10.272,36.166-21.321,48.707a81.727,81.727,0,0,1-13.975,12.55C563.39,388.949,533.219,393.6,511.7,393.6c-4.409,0-8.891-.2-13.331-.58-2.4-.209-4.817-.476-7.184-.791-16.924-2.257-31.32-6.8-42.791-13.508a67.388,67.388,0,0,1-19.049-16.793,36.79,36.79,0,0,1-6.185,5.654c-3.437,4.61-8.332,9.792-16.055,12.731a34.008,34.008,0,0,1-12.148,2.221c-.991,0-1.993-.043-2.979-.129a34.083,34.083,0,0,1-3.416-.475,59.387,59.387,0,0,1-9.385,9.6,59.327,59.327,0,0,1-46.463,22.178c-1.8,0-3.641-.08-5.469-.238a70.426,70.426,0,0,1-29.875-9.919,74.5,74.5,0,0,1-26.525,19.5,92.3,92.3,0,0,1-27.457,6.8c-2.822.269-5.706.4-8.57.4-2.664,0-5.355-.117-8-.348a97.965,97.965,0,0,1-24.61-5.459c-12.884-4.637-23.848-11.422-32.867-17.443-2.044-1.362-4.077-2.789-5.973-4.126-4.367-3.072-8.868-6.238-12.522-7.766a15.141,15.141,0,0,0-1.954,1.466c-.356.309-1.228,1.233-1.865,1.907l-.045.048a58.309,58.309,0,0,1-9.719,8.705,25.576,25.576,0,0,1-14.623,4.652c-.705,0-1.421-.03-2.155-.093a25.737,25.737,0,0,1-12.664-4.721l-.024-.016-.017-.013a36.8,36.8,0,0,1-6.523-6,68.732,68.732,0,0,1-6.441-8.827,236.86,236.86,0,0,1-16.272-31.147,335.143,335.143,0,0,1-20.935-63.41c-5.307-23.954-7.651-47.068-6.969-68.7.442-14.036,1.782-25.466,4.216-35.97a111.2,111.2,0,0,1,3.373-11.884,63.209,63.209,0,0,1-8.584-9.685c-1.035-1.374-2.375-2.926-3.793-4.568l-.07-.081a118.586,118.586,0,0,1-7.473-9.332,178.382,178.382,0,0,1-18.639-33.8,146.39,146.39,0,0,1-6.412-18.672,88.713,88.713,0,0,1-3.252-21.713c-.117-8.876,1.447-16.317,4.781-22.751a44.241,44.241,0,0,1,13.5-15.675,41.82,41.82,0,0,1,9.6-6.745,44.95,44.95,0,0,1,20.608-4.844,54.72,54.72,0,0,1,10.415,1.036A66.987,66.987,0,0,1,87.643,41.09a76.815,76.815,0,0,1,7.823,4.847,57.683,57.683,0,0,1,13.89-10.54,48.621,48.621,0,0,1,14.612-5.3,41.872,41.872,0,0,1,7.537-.693c.792,0,1.591.024,2.358.07,10.764.626,20.758,5.425,28.9,13.88a64.611,64.611,0,0,1,13.486,21.875q1.292,3.447,2.212,6.923a46.735,46.735,0,0,1,6.653-4.547,41.053,41.053,0,0,1,12.44-4.439l.331-.063.045-.009.045-.008a50.165,50.165,0,0,1,8.988-.816,48.522,48.522,0,0,1,13.384,1.873,50.677,50.677,0,0,1,13.366-12.163,47.057,47.057,0,0,1,5.331-3.7,55.921,55.921,0,0,1,19.081-6.718q1.525-.278,3.053-.476,1.029-1,2.1-1.919a50.636,50.636,0,0,1,24.142-11.106c1.8-.328,3.643-.579,5.47-.744,2.746-.251,5.514-.47,7.93-.661l.239-.02c3.965-.311,8.065-.633,11.993-1.066,6.164-.678,11.22-1.392,15.885-2.243.818-.152,1.648-.309,2.486-.477a87.915,87.915,0,0,0,14.254-3.933c.354-.136.806-.33,1.293-.539a51.843,51.843,0,0,1,5.75-2.162,39.68,39.68,0,0,1,4.207-1.015,36.112,36.112,0,0,1,6.465-.6,32.548,32.548,0,0,1,7.76.926,25.145,25.145,0,0,1,4.135,1.3,25.4,25.4,0,0,1,3.37,1.584,32.363,32.363,0,0,1,6.68,4.787q2.382-.172,4.81-.172c2.1,0,4.244.1,6.414.289q.519-.495,1.053-.971c7.373-6.565,16.845-10.561,28.146-11.878a71.738,71.738,0,0,1,8.3-.479m0-8a79.708,79.708,0,0,0-9.232.533c-12.241,1.426-22.684,5.66-31.07,12.59-1.217-.056-2.425-.084-3.615-.084q-1.023,0-2.049.028a39.889,39.889,0,0,0-5.574-3.646A33.311,33.311,0,0,0,378.221,9.4a32.727,32.727,0,0,0-5.269-1.656A40.546,40.546,0,0,0,363.4,6.61a44.142,44.142,0,0,0-7.9.726,47.92,47.92,0,0,0-5.062,1.22,59.624,59.624,0,0,0-6.612,2.475c-.382.164-.734.318-1.011.424a80.187,80.187,0,0,1-12.948,3.555c-.807.162-1.6.311-2.376.455-4.463.815-9.333,1.5-15.3,2.158-3.811.42-7.844.737-11.744,1.043l-.267.021c-2.422.192-5.2.412-8.005.668-2.062.187-4.143.47-6.177.841A58.531,58.531,0,0,0,258.1,33.082c-.179.152-.357.307-.535.463-.289.048-.577.1-.865.151a63.61,63.61,0,0,0-21.733,7.71,54.983,54.983,0,0,0-5.861,4.025,57.556,57.556,0,0,0-11.7,9.805,56.759,56.759,0,0,0-10.437-.964,58.213,58.213,0,0,0-10.424.946l-.018,0-.062.012-.017,0-.062.011-.33.064a49.522,49.522,0,0,0-13.34,4.511,71.716,71.716,0,0,0-14.184-22.015c-9.569-9.931-21.4-15.572-34.2-16.317-.917-.055-1.871-.084-2.822-.084a49.994,49.994,0,0,0-8.979.824,56.54,56.54,0,0,0-17.017,6.153,67.386,67.386,0,0,0-10.925,7.45q-1.552-.926-3.14-1.783a75.123,75.123,0,0,0-21.009-7.621,62.764,62.764,0,0,0-11.941-1.182,52.875,52.875,0,0,0-24.239,5.715,49.771,49.771,0,0,0-11.042,7.671A52.406,52.406,0,0,0,7.684,56.83C3.729,64.462,1.872,73.143,2.007,83.367a96.586,96.586,0,0,0,3.52,23.666,154.534,154.534,0,0,0,6.761,19.7,186.4,186.4,0,0,0,19.478,35.323,124.929,124.929,0,0,0,7.958,9.954l.081.094c1.322,1.531,2.576,2.983,3.449,4.142a84.753,84.753,0,0,0,5.847,7.118c-.88,2.977-1.531,5.647-2.038,7.833-2.556,11.026-3.96,22.95-4.419,37.525-.7,22.3,1.7,46.078,7.154,70.681a343.106,343.106,0,0,0,21.435,64.928,244.454,244.454,0,0,0,16.825,32.18,76.115,76.115,0,0,0,7.183,9.819,44.391,44.391,0,0,0,7.884,7.23l.059.043.076.053a33.632,33.632,0,0,0,16.532,6.118c.966.082,1.918.123,2.848.123a33.437,33.437,0,0,0,19.132-6.044,63.092,63.092,0,0,0,10.259-9.006c2.159,1.363,4.53,3.03,6.731,4.579,1.943,1.37,4.021,2.829,6.142,4.242,9.42,6.289,20.9,13.385,34.595,18.313a105.911,105.911,0,0,0,26.624,5.9c2.872.251,5.8.379,8.694.379,3.119,0,6.258-.149,9.329-.441a100.309,100.309,0,0,0,29.832-7.408,81.484,81.484,0,0,0,24.964-16.889,77.477,77.477,0,0,0,27.607,7.917c2.059.178,4.131.268,6.164.268A67.324,67.324,0,0,0,384.875,397.2a68.114,68.114,0,0,0,7.013-6.779c1.022.074,2.05.111,3.068.111a41.972,41.972,0,0,0,14.995-2.745c7.266-2.765,13.435-7.474,18.821-14.375a74.861,74.861,0,0,0,15.583,12.213c12.391,7.245,27.791,12.134,45.772,14.532,2.488.331,5.027.611,7.546.831,4.671.405,9.389.61,14.026.61,22.8,0,54.949-4.96,79.022-28.493a89.725,89.725,0,0,0,14.809-13.4c12.069-13.7,20.321-32.471,23.24-52.865,2.426-16.934,1.23-34.823-3.656-54.689-.339-1.379-.7-2.769-1.063-4.136-.4-1.863-.949-3.626-1.834-6.466l-.728-2.328c-.092-.3-.215-.688-.359-1.116-3.117-9.752-6.879-18.929-10.15-26.624l-.459-1.085c-3.244-7.677-8.34-19.737-19.263-28.9,6.118-10,7.433-22.586,3.572-34.92a49.905,49.905,0,0,0-6.887-13.841c.756-2.12,1.434-4.3,2.024-6.509a94.78,94.78,0,0,0,3.008-31.484c-.822-10.509-4.242-25.575-15.857-37.743a39.3,39.3,0,0,0-3.553-3.4,39.994,39.994,0,0,0-3.549-2.821A55.42,55.42,0,0,0,537.55,40.36a57.835,57.835,0,0,0-10.41.947l-.41.076h-.006l-.045.009h0l-.084.016a51.8,51.8,0,0,0-8.376,2.331,37.165,37.165,0,0,0-14.691-4.447q-1.392-.106-2.719-.106a33.959,33.959,0,0,0-5.978.526,47.247,47.247,0,0,0-9.719-17.877,50.683,50.683,0,0,0-17.03-12.3A76.951,76.951,0,0,0,456.02,4.985a82.055,82.055,0,0,0-15.457-2.729C438.4,2.086,436.215,2,434.072,2" transform="translate(234 613)"/>
    <path id="Path_5367" data-name="Path 5367" d="M557.929,74.681a12.567,12.567,0,0,0-1.5-1.418,13.59,13.59,0,0,0-1.49-1.2,29.747,29.747,0,0,0-23.087-5.1l-.308.058a23.16,23.16,0,0,0-7.022,2.464,31.1,31.1,0,0,0-5.614,4.116,55.965,55.965,0,0,0-8.616,10.063,78.594,78.594,0,0,0-4.989,8.351,82.781,82.781,0,0,0-8.49,18.941c-3.07,10.007-4.082,18.78-3.1,26.821a42.277,42.277,0,0,0,11.706,24.292A58.825,58.825,0,0,0,527.47,176.1c6.761,2.488,16.93,5.1,26.977,3.389.141-.024.284-.049.426-.075,5.111-.933,8.653-2.839,10.826-5.825a12.333,12.333,0,0,0,1.842-3.787,11.542,11.542,0,0,0,.925-1.113c2.644-3.632,3.178-8.85,1.467-14.316-.784-2.507-3.182-8.6-8.483-11.014a7.5,7.5,0,0,0-4.454-.636l-.137.027a10.107,10.107,0,0,0-3.057,1.306c-.277.16-.538.312-.767.425-.972.484-2,.926-3.063,1.332a37.3,37.3,0,0,0,3.189-3.424,42.592,42.592,0,0,0,5.3-8.391,50.065,50.065,0,0,0,6.3-14.5,68.449,68.449,0,0,0,2.205-22.718c-.514-6.558-2.527-15.5-9.039-22.1m-38,60.071c-.058-.2-.114-.407-.165-.616a17.923,17.923,0,0,1,.5-10.088,7.669,7.669,0,0,1,4.084-2.808c.115-.021.231-.037.346-.048,1.921-.175,3.129,1.451,3.328,3.148h0l0,.019h0a8.253,8.253,0,0,1-.6,3.9,23.6,23.6,0,0,1-7.5,6.5" transform="translate(234 613)"/>
    <rect id="Rectangle_113" data-name="Rectangle 113" width="631.987" height="440.259" transform="translate(234 613)" fill="none"/>
    <g id="Group_1721" data-name="Group 1721" transform="translate(234 613)" clip-path="url(#clip-path)">
      <rect id="Rectangle_114" data-name="Rectangle 114" width="2.369" height="2.146" transform="translate(553.179 74.598) rotate(-10.349)" fill="url(#linear-gradient)"/>
    </g>
    <path id="Path_5369" data-name="Path 5369" d="M517.72,137.9c.285-.262.227-.161.073-.536-.113-.275-.221-.552-.32-.833-.2-.557-.365-1.126-.507-1.7a20.646,20.646,0,0,1-.252-8.569,19.158,19.158,0,0,1,3.541-8.257c1.569-2.06,3.729-4.025,6.346-4.5.2-.037.4-.064.6-.083,3.462-.315,6.062,2.36,6.451,5.683-.03-.26-.04-.355-.04-.355l.086.716s-.013-.1-.046-.361c.414,3.342-1.123,6.652-2.89,9.4a26.377,26.377,0,0,1-9.487,8.794,15.684,15.684,0,0,1-4.617,1.869,7.289,7.289,0,0,1-1.119.119,15.31,15.31,0,0,0,2.179-1.387m14.648-68.1-.279.053A20.444,20.444,0,0,0,525.928,72a28.412,28.412,0,0,0-5.093,3.744,53.428,53.428,0,0,0-8.169,9.552A79.226,79.226,0,0,0,502.335,106.9c-2.535,8.262-4.051,16.979-2.99,25.624a39.488,39.488,0,0,0,10.922,22.644,55.765,55.765,0,0,0,20.966,13.32c7.962,2.93,17.038,4.689,25.5,3.252l.39-.068c3.353-.613,6.94-1.837,9.014-4.686,2.454-3.372,2.238-7.952,1.047-11.759-1.108-3.541-3.4-7.644-6.928-9.252a4.656,4.656,0,0,0-2.741-.423l-.077.014a13.614,13.614,0,0,0-3.117,1.489,38.807,38.807,0,0,1-5.983,2.361,46.529,46.529,0,0,1-5.161,1.254,42.8,42.8,0,0,1-7.185.705,27.69,27.69,0,0,1-10.165-1.45,12.758,12.758,0,0,1-3.8-2.219c1.257.177,2.5.511,3.743.739a13.442,13.442,0,0,0,3.656-.005c1.03-.1,2.058-.239,3.077-.426a36.918,36.918,0,0,0,5.281-1.375A35.134,35.134,0,0,0,553.7,135.661a44.878,44.878,0,0,0,8.283-16.908A65.509,65.509,0,0,0,564.094,97c-.627-7.992-3.344-16.179-9.566-21.56a25.844,25.844,0,0,0-17.04-6.106,28.418,28.418,0,0,0-5.12.462" transform="translate(234 613)" fill="url(#linear-gradient-2)"/>
    <g id="Group_1725" data-name="Group 1725" transform="translate(234 613)" clip-path="url(#clip-path-2)">
      <path id="Path_5370" data-name="Path 5370" d="M533.964,74.165C544.8,68.9,557.1,75.838,557.7,88a43.235,43.235,0,0,0-4.1-6.373c-4.649-6.065-12.268-7.74-19.635-7.462" fill="#fff"/>
      <path id="Path_5371" data-name="Path 5371" d="M547.207,153.206c1.464-.714,2.745-1.326,3.98-2.041,1.96-1.068,3.906-2.584,6.319-3,2.769-.5,5.2,1.561,6.122,4.046-2.373-1.11-4.161-2.194-6.424-1.047-.235.089-.7.3-.917.418-2.588,1.35-6.068,2.633-9.08,1.626" fill="#fff"/>
    </g>
    <g id="Group_1727" data-name="Group 1727" transform="translate(234 613)" clip-path="url(#clip-path-3)">
      <path id="Path_5373" data-name="Path 5373" d="M515.577,82.057a27.788,27.788,0,0,0-1.048-4.243c-.067-.21-.142-.417-.218-.624l-.01,0c0-.008-.006-.018-.01-.026l.01,0c-.063-.168-.13-.346-.205-.527l-.011-.03-.018-.044a20.448,20.448,0,0,0-5.471-7.947,13.155,13.155,0,0,0-7.134-3.316,7.643,7.643,0,0,0-3.562.541,7.283,7.283,0,0,0-3.71,3.949c-.074.028-.15.047-.223.077-2.7,1.121-3.714,3.822-4.387,5.609-.149.4-.29.771-.423,1.068-1,2.219-2.122,4.516-3.337,6.827-1.273,2.421-2.6,4.9-4.105,7.2a1.331,1.331,0,0,1-.165.015,1.754,1.754,0,0,1-.287-.048c-1.493-.362-2.919-1.817-4.237-4.327a36.637,36.637,0,0,1-2.95-8.142A102.878,102.878,0,0,1,471.494,58.5c-.371-6.544-1.168-13.983-5.963-19.426a25.37,25.37,0,0,0-8.5-5.916,51.54,51.54,0,0,0-7.989-3.042,55.908,55.908,0,0,0-10.54-1.857,54.693,54.693,0,0,0-10.633.181c-7.541.878-13.669,3.375-18.214,7.421a25.12,25.12,0,0,0-3.175,3.41c-.251.207-.516.4-.758.615C394.256,50.1,396.61,66.233,397.6,70.935c1.272,6.013,3.923,12.029,8.345,18.933,7.2,11.243,17.055,20.47,26.584,29.394l2,1.876a120.85,120.85,0,0,0,16.85,13.47c7.324,4.753,13.555,7.394,19.611,8.31.686.1,1.376.184,2.053.238a23.522,23.522,0,0,0,9.5-1.087,26.1,26.1,0,0,0,6.333-3.294,47.051,47.051,0,0,0,8.584-7.752,50.5,50.5,0,0,0,7.74-8.952,62.59,62.59,0,0,0,8.8-19.717c2.023-7.863,2.537-14.5,1.571-20.3"/>
    </g>
    <path id="Path_5376" data-name="Path 5376" d="M428.2,31.307c-5.986.7-12.052,2.635-16.63,6.711-10.179,9.063-8.242,23.418-7.211,28.3,1.371,6.48,4.4,12.431,7.953,17.974,7.5,11.716,18.063,21.272,28.132,30.724a118.515,118.515,0,0,0,16.447,13.153c5.592,3.63,11.809,6.87,18.473,7.879.612.092,1.23.164,1.849.213a20.72,20.72,0,0,0,8.342-.941,23.271,23.271,0,0,0,5.618-2.932,45.745,45.745,0,0,0,11.655-11.935,60.014,60.014,0,0,0,8.388-18.813c1.57-6.1,2.565-12.839,1.52-19.105a24.909,24.909,0,0,0-.945-3.825c-.11-.293-.29-.779-.395-1.066a17.658,17.658,0,0,0-4.684-6.845,10.272,10.272,0,0,0-5.476-2.622,4.76,4.76,0,0,0-2.227.329c-1.975.821-2.5,3.452-3.288,5.2-1.064,2.364-2.208,4.692-3.414,6.987a76.043,76.043,0,0,1-5.065,8.668c-1.46,2.059-3.276,4.312-5.917,4.1a4.769,4.769,0,0,1-.739-.12c-2.86-.693-4.812-3.319-6.109-5.788a39.847,39.847,0,0,1-3.193-8.772,105.354,105.354,0,0,1-2.666-20.111c-.344-6.082-1.042-12.909-5.247-17.683a22.46,22.46,0,0,0-7.562-5.21,48.882,48.882,0,0,0-7.541-2.877,53.075,53.075,0,0,0-10-1.761c-1.4-.11-2.8-.166-4.194-.166a50.816,50.816,0,0,0-5.878.337" transform="translate(234 613)" fill="url(#linear-gradient-3)"/>
    <g id="Group_1735" data-name="Group 1735" transform="translate(234 613)" clip-path="url(#clip-path-4)">
      <path id="Path_5377" data-name="Path 5377" d="M436.633,34.628c12.414-2.763,26.163,5.665,28.2,18.461-6.505-11.132-15.594-16.513-28.2-18.461" fill="#fff"/>
      <path id="Path_5378" data-name="Path 5378" d="M506.513,103.992c-1.447,13.885-12.621,27.494-26.994,28.8,13.062-5.564,21.309-16.107,26.994-28.8" fill="#fff"/>
      <path id="Path_5379" data-name="Path 5379" d="M502.491,72.05a6.883,6.883,0,0,1,5.233,3.368,19.725,19.725,0,0,1,2.23,5.831,15.041,15.041,0,0,1,.163,4.049l-.287.015a18.125,18.125,0,0,0-3.153-6.821,19.722,19.722,0,0,1-4.344-6.2l.158-.241" fill="#fff"/>
    </g>
    <g id="Group_1737" data-name="Group 1737" transform="translate(234 613)" clip-path="url(#clip-path-3)">
      <path id="Path_5381" data-name="Path 5381" d="M307.8,115.115c-.131-2.445-.376-5-.729-7.613-.048-.4-.118-.867-.2-1.426-.284-1.911-.3-2.006-.341-2.161-2.153-12.981-5.94-23.136-11.55-31a34.1,34.1,0,0,0-14.354-11.944,28.886,28.886,0,0,0-3.646-1.235,35.633,35.633,0,0,0-15.608-.379,38.646,38.646,0,0,0-13.089,4.477,30.133,30.133,0,0,0-4.169,3.015c-.14.08-.286.155-.425.237a34.441,34.441,0,0,0-12.416,13.33c-5.153,9.479-7.492,21.483-7.151,36.7.3,13.511,2.415,25.7,6.276,36.232,2.4,6.541,5.658,11.735,9.689,15.439a24.115,24.115,0,0,0,10,5.622,19.417,19.417,0,0,0,8.084.444,19.007,19.007,0,0,0,10.106-5.048,18.7,18.7,0,0,0,7.486-6.813,18.5,18.5,0,0,0,.981-1.834,7.408,7.408,0,0,0,4.966,4.353,7.4,7.4,0,0,0,3.287.122,9.028,9.028,0,0,0,4.62-2.845c.177-.177.35-.362.524-.546a9.629,9.629,0,0,0,4.07-2.706,35.507,35.507,0,0,0,5.586-7.562c5.969-10.379,8.737-23.125,8.005-36.862m-27.8,8.02a5.7,5.7,0,0,1-3.494-2.611c-.791-1.46-.778-3.562.038-6.247.054-.177.117-.356.176-.534a18.854,18.854,0,0,1,3.524,6.566,7.315,7.315,0,0,1,.258,2.934c-.194-.033-.366-.072-.5-.108"/>
    </g>
    <g id="Group_1739" data-name="Group 1739" transform="translate(234 613)" clip-path="url(#clip-path-6)">
      <rect id="Rectangle_121" data-name="Rectangle 121" width="3.694" height="1.475" transform="translate(302.828 108.094) rotate(-75.1)" fill="url(#linear-gradient-4)"/>
    </g>
    <path id="Path_5383" data-name="Path 5383" d="M279.256,125.92a8.539,8.539,0,0,1-5.288-4.023c-1.411-2.606-1.012-5.735-.185-8.459a27.393,27.393,0,0,1,1.674-4.151c.31-.628.641-1.248.985-1.858a13.856,13.856,0,0,0,1.1-1.828c.08-.22.125-.1.045-.314s-.425-.429-.582-.581q-.464-.452-.943-.882-.833-.747-1.715-1.431a22.607,22.607,0,0,0-2.552-1.742c.17.039.34.08.509.125a22.022,22.022,0,0,1,9.268,5.712,22.982,22.982,0,0,1,6.04,9.785c.7,2.488.639,5.427-1.064,7.512.166-.2.227-.276.228-.276l-.45.558s.058-.076.222-.282a6.432,6.432,0,0,1-5.169,2.419,8.228,8.228,0,0,1-2.119-.284M261.885,62.2a36.439,36.439,0,0,0-12.134,4.12A31.546,31.546,0,0,0,238.4,78.546c-5.763,10.6-7.069,23.381-6.8,35.256s2,24.122,6.1,35.3c1.929,5.263,4.767,10.482,8.933,14.309a21.222,21.222,0,0,0,8.79,4.96,16.6,16.6,0,0,0,6.892.383,16.013,16.013,0,0,0,10.995-7.275c3-4.864,3.057-11.07,2.634-16.574-.114-1.482-.1-2.964-.115-4.448a24.185,24.185,0,0,1,.128-3.768c.384-2.68,2.191-4.9,5.125-4.525a5.994,5.994,0,0,1,.763.149c4.917,1.308,4.1,8.553,3.483,12.449-.392,2.474-.943,4.915-1.518,7.352-.525,2.222-.425,4.808,1.433,6.412a4.561,4.561,0,0,0,1.8.947,4.479,4.479,0,0,0,2,.076,6.533,6.533,0,0,0,3.125-2.049,33.186,33.186,0,0,0,5.129-6.964c6.092-10.589,8.271-23.172,7.626-35.272-.157-2.937-.471-5.863-.9-8.772-1.652-11.114-4.774-22.642-11.385-31.9a31.135,31.135,0,0,0-13.114-10.958,26.011,26.011,0,0,0-3.281-1.111,29.608,29.608,0,0,0-7.629-.959,37.62,37.62,0,0,0-6.721.63" transform="translate(234 613)" fill="url(#linear-gradient-5)"/>
    <g id="Group_1743" data-name="Group 1743" transform="translate(234 613)" clip-path="url(#clip-path-7)">
      <path id="Path_5384" data-name="Path 5384" d="M276.167,65.751c10.7.826,18.069,12.621,20.432,22.128.3,1.477.606,2.942.781,4.432-1.483-2.582-2.766-5.2-4.175-7.788-4.219-7.383-9.146-14.978-17.038-18.772" fill="#fff"/>
      <path id="Path_5385" data-name="Path 5385" d="M274.687,133.14c-1.594,2.256-1.252,4.965-1.234,7.567.1,2.637.3,5.325.268,8.07-.04,5.138-1,12.788-6.995,14.281a9.912,9.912,0,0,0,3.611-6.556c1.385-5.888-1.3-20.018,4.35-23.362" fill="#fff"/>
      <path id="Path_5386" data-name="Path 5386" d="M287.932,157.028a86.88,86.88,0,0,0,10.188-22.087c.389-1.122.639-2.277,1.1-3.435,1.473,9.473-3.065,20.409-11.284,25.522" fill="#fff"/>
      <path id="Path_5387" data-name="Path 5387" d="M274.836,104.469a19.013,19.013,0,0,1-2.661,7.123,15.975,15.975,0,0,0-1.2,7.392l-.279.072a13.552,13.552,0,0,1-.907-7.083c.325-1.705.477-3.555,1.505-5.011a7.057,7.057,0,0,1,3.331-2.683Z" fill="#fff"/>
    </g>
    <g id="Group_1745" data-name="Group 1745" transform="translate(234 613)" clip-path="url(#clip-path-3)">
      <path id="Path_5389" data-name="Path 5389" d="M227.354,88.589a12.453,12.453,0,0,0-1.5-1.418,13.6,13.6,0,0,0-1.49-1.2,29.747,29.747,0,0,0-23.087-5.1l-.309.058a23.163,23.163,0,0,0-7.021,2.464,31.1,31.1,0,0,0-5.614,4.116,55.965,55.965,0,0,0-8.616,10.063,78.593,78.593,0,0,0-4.989,8.351,82.781,82.781,0,0,0-8.49,18.941c-3.07,10.007-4.082,18.78-3.1,26.821a42.277,42.277,0,0,0,11.706,24.292A58.825,58.825,0,0,0,196.9,190c6.761,2.488,16.93,5.1,26.977,3.389l.426-.075c5.111-.933,8.653-2.839,10.826-5.825a12.355,12.355,0,0,0,1.842-3.787,11.537,11.537,0,0,0,.925-1.113c2.644-3.632,3.178-8.85,1.467-14.316-.784-2.507-3.182-8.6-8.483-11.014a7.5,7.5,0,0,0-4.454-.636l-.137.027a10.107,10.107,0,0,0-3.057,1.306c-.277.16-.538.312-.767.425-.972.484-2,.926-3.063,1.332a37.3,37.3,0,0,0,3.189-3.424,42.592,42.592,0,0,0,5.3-8.391,50.066,50.066,0,0,0,6.3-14.5,68.448,68.448,0,0,0,2.205-22.718c-.514-6.558-2.527-15.5-9.04-22.1m-38,60.071c-.058-.2-.114-.407-.165-.616a17.923,17.923,0,0,1,.5-10.088,7.669,7.669,0,0,1,4.084-2.808c.115-.021.231-.037.346-.048,1.921-.175,3.129,1.451,3.327,3.148h0l0,.019h0a8.254,8.254,0,0,1-.6,3.9,23.6,23.6,0,0,1-7.5,6.5"/>
    </g>
    <g id="Group_1747" data-name="Group 1747" transform="translate(234 613)" clip-path="url(#clip-path-9)">
      <rect id="Rectangle_124" data-name="Rectangle 124" width="2.369" height="2.147" transform="translate(222.604 88.505) rotate(-10.348)" fill="url(#linear-gradient-6)"/>
    </g>
    <path id="Path_5391" data-name="Path 5391" d="M187.146,151.81c.285-.263.228-.161.073-.537-.113-.275-.222-.552-.32-.832-.2-.558-.364-1.128-.507-1.7a20.663,20.663,0,0,1-.252-8.569,19.18,19.18,0,0,1,3.54-8.257c1.569-2.06,3.731-4.024,6.346-4.5q.3-.054.6-.083c3.464-.315,6.063,2.36,6.452,5.683-.03-.26-.041-.355-.04-.355l.086.715s-.013-.1-.046-.36c.414,3.341-1.124,6.652-2.89,9.4a26.382,26.382,0,0,1-9.486,8.794,15.717,15.717,0,0,1-4.617,1.869,7.318,7.318,0,0,1-1.12.12,15.343,15.343,0,0,0,2.179-1.387m14.648-68.1-.28.052a20.449,20.449,0,0,0-6.16,2.15,28.436,28.436,0,0,0-5.093,3.742,53.506,53.506,0,0,0-8.169,9.553,79.255,79.255,0,0,0-10.331,21.6c-2.535,8.262-4.051,16.98-2.989,25.624a39.475,39.475,0,0,0,10.921,22.644A55.753,55.753,0,0,0,200.66,182.4c7.962,2.931,17.037,4.691,25.5,3.253.13-.022.26-.044.391-.069,3.351-.612,6.94-1.836,9.012-4.685,2.455-3.372,2.239-7.951,1.047-11.758-1.108-3.541-3.4-7.645-6.926-9.252a4.661,4.661,0,0,0-2.742-.424c-.026,0-.051.01-.077.015a13.6,13.6,0,0,0-3.118,1.488,38.51,38.51,0,0,1-5.982,2.36,46.313,46.313,0,0,1-5.161,1.256,42.921,42.921,0,0,1-7.185.7,27.7,27.7,0,0,1-10.166-1.45,12.742,12.742,0,0,1-3.8-2.22c1.255.179,2.495.511,3.742.741a13.443,13.443,0,0,0,3.656-.006q1.545-.146,3.077-.425a37.183,37.183,0,0,0,5.281-1.375,35.171,35.171,0,0,0,15.917-10.981,44.872,44.872,0,0,0,8.282-16.909,65.533,65.533,0,0,0,2.116-21.749c-.626-7.992-3.343-16.178-9.566-21.56a25.85,25.85,0,0,0-17.04-6.106,28.51,28.51,0,0,0-5.12.463" transform="translate(234 613)" fill="url(#linear-gradient-7)"/>
    <g id="Group_1751" data-name="Group 1751" transform="translate(234 613)" clip-path="url(#clip-path-10)">
      <path id="Path_5392" data-name="Path 5392" d="M203.391,88.073c10.84-5.268,23.133,1.673,23.735,13.835a43.238,43.238,0,0,0-4.1-6.373c-4.649-6.065-12.268-7.74-19.635-7.462" fill="#fff"/>
      <path id="Path_5393" data-name="Path 5393" d="M216.633,167.115c1.464-.714,2.745-1.326,3.98-2.041,1.96-1.068,3.906-2.584,6.319-3,2.769-.5,5.2,1.561,6.122,4.046-2.373-1.11-4.161-2.194-6.424-1.047-.235.089-.7.3-.917.418-2.588,1.35-6.068,2.633-9.08,1.626" fill="#fff"/>
    </g>
    <g id="Group_1753" data-name="Group 1753" transform="translate(234 613)" clip-path="url(#clip-path-3)">
      <path id="Path_5395" data-name="Path 5395" d="M178.352,132.264a7.343,7.343,0,0,0-3.774-3.669c-.23-.116-.479-.232-.748-.357a8.234,8.234,0,0,0-1.831-.724,65.32,65.32,0,0,0-12.053-2.8c-1.5-.249-3.049-.506-4.534-.8a69.021,69.021,0,0,1-7.7-1.939,31.943,31.943,0,0,0,8.407-11.175,35.86,35.86,0,0,0,2.942-5.266A38.919,38.919,0,0,0,162.6,90.63a49.641,49.641,0,0,0-3.29-19.051A46.346,46.346,0,0,0,149.739,55.9c-4.929-5.118-10.782-8.013-16.926-8.371a23.552,23.552,0,0,0-5.589.358,30.6,30.6,0,0,0-9.171,3.367,37.97,37.97,0,0,0-13.4,11.965,37.472,37.472,0,0,0-2.859,5.043c-5.263,7.846-7.675,18.143-6.955,29.4-1.785.552-4.126,2.082-5.161,6.225-1.451,1.247-2.777,3.435-3.177,7.27a30.952,30.952,0,0,0,.926,10.007,71.29,71.29,0,0,0,3.159,10,117.75,117.75,0,0,0,9.293,18.567,81.323,81.323,0,0,0,6.022,8.648c2.136,2.643,4.694,5.607,8.016,7.324a7.183,7.183,0,0,0,4.6.9,5.4,5.4,0,0,0,.7-.176,6.9,6.9,0,0,0,4.034-3.534,10.529,10.529,0,0,0,.849-2.52,7.008,7.008,0,0,0,1.919-2.381c1.644-3.349,1.137-7.215.73-10.322l-.079-.608c-.092-.718-.212-1.45-.329-2.159-.075-.458-.149-.919-.218-1.378a17.042,17.042,0,0,1,2.783,3.683l.334.531.2.318a81.791,81.791,0,0,0,5.616,8.122c4.589,5.625,9.43,8.66,14.388,9.023a13.46,13.46,0,0,0,3.383-.2,21.909,21.909,0,0,0,7-2.772,38.549,38.549,0,0,0,8.171-6.5,34.97,34.97,0,0,0,6.057-8.168c.268-.513.545-1.074.808-1.67a30.153,30.153,0,0,0,1.96-3.23c1.415-2.716,3.113-6.751,1.527-10.417m-52.426-20.453a5.341,5.341,0,0,1-.926.257,8.368,8.368,0,0,1-6.384-1.862,3.622,3.622,0,0,1-1.629-2.249c.046-.107.154-.3.228-.441s.158-.292.232-.437c.149-.293.29-.564.434-.84a27.334,27.334,0,0,1,1.621-2.325,6.155,6.155,0,0,1,3.261-2.487,2.269,2.269,0,0,1,.246-.032c2.307-.177,3.659,3.031,4.052,4.751a10.333,10.333,0,0,1-.314,5.145,3.635,3.635,0,0,1-.821.52"/>
    </g>
    <g id="Group_1755" data-name="Group 1755" transform="translate(234 613)" clip-path="url(#clip-path-12)">
      <rect id="Rectangle_127" data-name="Rectangle 127" width="2.185" height="1.303" transform="translate(171.422 130.408) rotate(-10.349)" fill="url(#linear-gradient-8)"/>
    </g>
    <path id="Path_5397" data-name="Path 5397" d="M116.833,112.469c-1.483-1.168-2.953-2.929-2.7-4.939a5.626,5.626,0,0,1,.745-1.757q.645-1.271,1.325-2.523a41.79,41.79,0,0,1,3.807-6.024,8.84,8.84,0,0,1,5-3.535,5.132,5.132,0,0,1,.543-.071c3.944-.3,6.311,3.6,7.083,6.984a14.21,14.21,0,0,1-.833,8.055c-.878,2.353-2.386,4.806-4.794,5.823a8.264,8.264,0,0,1-1.493.421,8.968,8.968,0,0,1-1.6.142,11.768,11.768,0,0,1-7.084-2.576m10.909-61.743a27.756,27.756,0,0,0-8.3,3.059,35.383,35.383,0,0,0-12.4,11.054c-6.326,9.335-7.622,21.374-6.092,32.332.074.529.362,2.1.362,2.1l2.82,2.987s-4.676-2.024-7.165-2.022a4.528,4.528,0,0,0-.809.071c-2.786.509-3.748,3.646-4.02,6.256A27.908,27.908,0,0,0,93,115.625a68.749,68.749,0,0,0,3.035,9.6,114.431,114.431,0,0,0,9.065,18.111,78.711,78.711,0,0,0,5.807,8.343c1.979,2.449,4.256,5.107,7.1,6.575a4.433,4.433,0,0,0,2.759.63,2.461,2.461,0,0,0,.328-.082,4,4,0,0,0,2.334-2.062c1.354-2.76.752-6.377.38-9.295-.382-2.985-1.326-6.418-.495-9.395a4.111,4.111,0,0,1,3.219-3,4.223,4.223,0,0,1,1.821.073c2.847.738,4.631,3.887,6.086,6.188a82.736,82.736,0,0,0,5.615,8.159c3.043,3.729,7.317,7.6,12.365,7.97a10.508,10.508,0,0,0,2.655-.16,19.362,19.362,0,0,0,6.077-2.43,35.59,35.59,0,0,0,7.553-6.015,32.086,32.086,0,0,0,5.564-7.487c1.162-2.23,2.523-5.431,1.438-7.94a4.661,4.661,0,0,0-2.479-2.263c-5.758-2.693-12.209-3.191-18.371-4.4a70.291,70.291,0,0,1-8.748-2.251q-1.891-.633-3.734-1.4c-.5-.211-1-.433-1.494-.66a6.01,6.01,0,0,0-1.934-.78,21.488,21.488,0,0,1-4.817-.449,11.237,11.237,0,0,1-3.464-1.709,19.463,19.463,0,0,0,6.973.321q.349-.052.7-.116a22.232,22.232,0,0,0,7.118-2.611,27.673,27.673,0,0,0,10.985-12.742,36.021,36.021,0,0,0,3.286-13.805,47.147,47.147,0,0,0-3.109-17.947c-3.856-10.291-12.028-21.485-23.97-22.18-.379-.023-.757-.033-1.135-.033a20.989,20.989,0,0,0-3.769.348" transform="translate(234 613)" fill="url(#linear-gradient-9)"/>
    <g id="Group_1759" data-name="Group 1759" transform="translate(234 613)" clip-path="url(#clip-path-13)">
      <path id="Path_5398" data-name="Path 5398" d="M170.986,138.471a13.113,13.113,0,0,0,1.131-2.55c.026-.2-.011-.324-.058-.343s-.036.02-.1-.065c0-.033-.084-.094-.11-.158a7.158,7.158,0,0,0-3.364-1.844c-1.888-.663-3.83-1.107-5.791-1.6l.022-.288c3.163-.186,9.474-.512,11.689,2.149,1.7,2.306-.84,5.016-3.274,4.949l-.146-.249" fill="#fff"/>
      <path id="Path_5399" data-name="Path 5399" d="M118.142,57.261c12.238-8.047,28.641-3.9,32.935,10.819a41.328,41.328,0,0,0-6.433-7c-7.351-6.258-17.522-6.075-26.5-3.815" fill="#fff"/>
    </g>
    <g id="Group_1761" data-name="Group 1761" transform="translate(234 613)" clip-path="url(#clip-path-3)">
      <path id="Path_5401" data-name="Path 5401" d="M373.895,37.319a14.647,14.647,0,0,0-4.017-3.08,7.582,7.582,0,0,0-1.224-.574,6.606,6.606,0,0,0-1.469-.473,15.669,15.669,0,0,0-7-.191,21.4,21.4,0,0,0-2.272.549,35.529,35.529,0,0,0-3.816,1.46c-.668.286-1.3.556-1.93.8a105.767,105.767,0,0,1-17.2,4.786q-1.375.274-2.756.526c-5.107.933-10.566,1.706-17.177,2.434-4.164.458-8.428.795-12.552,1.121-2.6.205-5.293.418-7.947.659-1.308.119-2.609.3-3.865.526a32.817,32.817,0,0,0-15.66,7.081,29.246,29.246,0,0,0-7.593,10.267,32.413,32.413,0,0,0-5.113,12.318,41.205,41.205,0,0,0-.646,10.516,26.851,26.851,0,0,0,2.512,10.721,11.292,11.292,0,0,0,8.017,6.305,12.215,12.215,0,0,0,4.315-.043,17.684,17.684,0,0,0,6.546-2.763,24.833,24.833,0,0,0,4.081-3.41c.645-.665,1.223-1.346,1.781-2,.494-.582.96-1.132,1.444-1.638a26.176,26.176,0,0,1,6.5-4.975,28.764,28.764,0,0,1,8.333-2.979q.4-.073.8-.132l.049.106c5.88,12.575,3.843,27.042,1.874,41.032-.226,1.606-.45,3.2-.661,4.78l-.064.473a16.825,16.825,0,0,0,.045,6.736,12.561,12.561,0,0,0,4.215,6.367c3.738,3.187,8.472,4.638,12.18,5.547,7.975,1.955,16.92,2.5,27.344,1.657a82.3,82.3,0,0,0,8.247-1.018c1.391-.254,2.728-.553,3.973-.89,3.379-.913,4.8-3.444,5.319-6.132,3.878-2.973,3.065-9.312,2.726-11.949a71.938,71.938,0,0,0-3.406-13.57c-1.378-4.1-3.055-8.424-5.129-13.217-1.922-4.442-3.933-8.776-5.978-12.881-.479-.963-.984-1.93-1.472-2.865a49.67,49.67,0,0,1-3.944-8.886c-.085-.293-.152-.568-.212-.836.117-.028.233-.054.344-.077l.155-.029a26.139,26.139,0,0,1,3.513-.3c.372-.016.744-.032,1.113-.052a54.33,54.33,0,0,0,6.815-.71,25.274,25.274,0,0,0,5.619-1.658,13.594,13.594,0,0,0,7.748-8.47,14.148,14.148,0,0,0,3.182-6.412,30.931,30.931,0,0,0,0-11.623c-.885-5.479-2.8-9.828-5.692-12.927"/>
    </g>
    <g id="Group_1763" data-name="Group 1763" transform="translate(161 662)" clip-path="url(#clip-path-15)">
      <rect id="Rectangle_130" data-name="Rectangle 130" width="1.583" height="0.848" transform="translate(366.736 36.075) rotate(-10.348)" fill="url(#linear-gradient-10)"/>
    </g>
    <path id="Path_5403" data-name="Path 5403" d="M360.7,35.837a17.761,17.761,0,0,0-1.963.474c-1.906.571-3.688,1.479-5.542,2.189a108.884,108.884,0,0,1-17.663,4.92q-1.4.281-2.8.536c-5.757,1.051-11.564,1.822-17.379,2.463-6.84.752-13.7,1.161-20.553,1.786-1.206.109-2.413.271-3.609.49a30.218,30.218,0,0,0-14.308,6.44,27.806,27.806,0,0,0-8.978,16.037,38.51,38.51,0,0,0-.6,9.781,24.072,24.072,0,0,0,2.2,9.584,8.528,8.528,0,0,0,5.953,4.791,9.361,9.361,0,0,0,3.3-.039,15.028,15.028,0,0,0,5.472-2.331,21.883,21.883,0,0,0,3.6-3.013c1.125-1.161,2.093-2.46,3.211-3.628a29.175,29.175,0,0,1,7.22-5.521,31.682,31.682,0,0,1,9.181-3.277,22.5,22.5,0,0,1,8.134-.08,11.642,11.642,0,0,1,2.6.732c-2.257.288-4.511.58-6.758.937,6.943,14.853,3.533,31.857,1.458,47.415a15.593,15.593,0,0,0-.087,6.1,9.857,9.857,0,0,0,3.3,4.9c3.073,2.618,7.134,3.994,11,4.94,8.553,2.1,17.685,2.288,26.427,1.584a80.029,80.029,0,0,0,7.96-.98c1.26-.23,2.509-.5,3.739-.838,4.152-1.121,3.6-6.729,3.171-10.029a68.863,68.863,0,0,0-3.28-13.021c-1.48-4.4-3.2-8.726-5.043-12.989q-2.787-6.444-5.912-12.742c-1.981-3.977-4.355-7.94-5.6-12.231a8.456,8.456,0,0,1,.1-6.159,6.772,6.772,0,0,1,5.005-3.286l.2-.037a39.482,39.482,0,0,1,4.99-.4,51.062,51.062,0,0,0,6.451-.667,22.548,22.548,0,0,0,4.986-1.466,10.867,10.867,0,0,0,6.5-7.96,28.653,28.653,0,0,0-.032-10.542c-.663-4.1-2.069-8.328-4.954-11.42a11.427,11.427,0,0,0-4.208-2.921,11,11,0,0,0-4.191-.781,14.959,14.959,0,0,0-2.685.254" transform="translate(234 613)" fill="url(#linear-gradient-11)"/>
    <g id="Group_1767" data-name="Group 1767" transform="translate(234 613)" clip-path="url(#clip-path-16)">
      <path id="Path_5404" data-name="Path 5404" d="M353.808,139.691c7.447-.94,11.966-1.714,10.225-10.586a43.913,43.913,0,0,0-1.76-6.414l.262-.12a37.027,37.027,0,0,1,2.893,6.172c1.849,4.68,1.335,11.487-4.642,12.563a10.284,10.284,0,0,1-7.047-1.334l.069-.281" fill="#fff"/>
      <path id="Path_5405" data-name="Path 5405" d="M353.846,42.551c5.653-6.692,14.891-7.086,18.779,1.628a23.026,23.026,0,0,1,1.873,9.693c-.992-2.431-1.865-4.828-2.985-7.041-4.063-8.523-9.937-8.323-17.667-4.28" fill="#fff"/>
    </g>
    <g id="Group_1769" data-name="Group 1769" transform="translate(234 613)" clip-path="url(#clip-path-3)">
      <path id="Path_5407" data-name="Path 5407" d="M418.72,52.378c-2.991-4.316-7.548-7.437-13.548-9.279l-.232-.117-.368-.047A55.04,55.04,0,0,0,382.138,41.8l-.291.052a31.657,31.657,0,0,0-12.316,4.807,22,22,0,0,0-7.793,9.786,24.363,24.363,0,0,0-3.081,5.63c-2.856,7.321-3.174,17.538,4.5,24.255a27.471,27.471,0,0,0,11.924,5.749,47.859,47.859,0,0,0,13.139,1.307,35.853,35.853,0,0,0,5.053-.543,30.151,30.151,0,0,0,4.126-1.053l.257.152a10.136,10.136,0,0,0,3.127,1.21,18.683,18.683,0,0,1-9.37,4.256l-.161.029c-.416.073-.85.134-1.308.2-.533.074-1.084.151-1.651.254a13.11,13.11,0,0,0-2.88.831,8.325,8.325,0,0,0-4.909,5.734c-.055.2-.1.4-.148.6a8.522,8.522,0,0,0-2.62,4.3,30.771,30.771,0,0,0-.841,6.488l-.036.636c-.159,2.7-.328,4.906-.532,6.957a123.876,123.876,0,0,0-.578,14.5,66.138,66.138,0,0,0,1.627,15.111l.06.239c.476,1.88,1.2,4.722,3.372,6.3a9.329,9.329,0,0,0,3.891,1.4l.038.006a47.531,47.531,0,0,0,14.918.146c.745-.1,1.434-.213,2.1-.336a31.964,31.964,0,0,0,5.419-1.444l.146-.054c1.468-.542,4.2-1.55,4.824-4.5.1-.486.182-.975.251-1.464a5.258,5.258,0,0,0,2.517-3.436,35.483,35.483,0,0,0,.6-6.364c.066-2.4.041-4.859-.077-7.52-.211-4.769-.662-9.618-1.341-14.413-.094-.667-.2-1.368-.333-2.168-.01-.1-.024-.206-.043-.314l-.148-.862c-.109-.611-.167-.93-.192-1.063a121.869,121.869,0,0,0-2.787-12.556,32.572,32.572,0,0,0-5.529-11.217l-.219-.277c5.123-1.028,9-5.514,10.442-7.416a26.911,26.911,0,0,0,3.463-5.85,23.936,23.936,0,0,0,3.319-6.362,23.364,23.364,0,0,0,.946-9.925,24.3,24.3,0,0,0-4.294-11.222"/>
    </g>
    <g id="Group_1771" data-name="Group 1771" transform="translate(234 613)" clip-path="url(#clip-path-18)">
      <path id="Path_5408" data-name="Path 5408" d="M416.361,54.034c.686.963-.673-.973,0,0" fill="#5b2743"/>
      <path id="Path_5409" data-name="Path 5409" d="M416.168,53.752s.39.552.392.559-.389-.559-.392-.559m.392.559h0"/>
    </g>
    <path id="Path_5411" data-name="Path 5411" d="M391.929,100.244l-.179.032c-.974.172-1.967.272-2.941.45a10.378,10.378,0,0,0-2.26.643,5.485,5.485,0,0,0-3.267,3.845,32.011,32.011,0,0,0-.78,6.534c-.14,2.364-.306,4.716-.54,7.072a120.445,120.445,0,0,0-.565,14.162,63.391,63.391,0,0,0,1.538,14.453c.4,1.572.928,3.9,2.33,4.915a7.038,7.038,0,0,0,2.762.912,44.587,44.587,0,0,0,14,.124c.662-.092,1.323-.2,1.982-.316a29.378,29.378,0,0,0,4.936-1.311c1.266-.47,2.846-1,3.151-2.447a32.741,32.741,0,0,0,.538-5.849c.067-2.437.032-4.877-.076-7.313-.208-4.725-.652-9.453-1.315-14.136-.134-.944-.285-1.888-.443-2.828.066.377.12.676.121.675s-.048-.3-.188-1.105c-.1-.584-.161-.9-.185-1.027a118.088,118.088,0,0,0-2.72-12.271A29.711,29.711,0,0,0,402.8,95.213c-2.85,2.745-7.032,4.33-10.87,5.031" transform="translate(234 613)" fill="url(#linear-gradient-12)"/>
    <path id="Path_5412" data-name="Path 5412" d="M382.637,44.64q-.137.022-.273.048a28.987,28.987,0,0,0-11.2,4.349,19.4,19.4,0,0,0-7.051,9.186c-2.782,7.13-2.369,15.714,3.712,21.039a24.894,24.894,0,0,0,10.705,5.117,45.345,45.345,0,0,0,12.349,1.227,32.816,32.816,0,0,0,4.645-.5,24.826,24.826,0,0,0,7.686-2.684c2.791-1.558,5.733-4,7.072-6.99-1.239,3.962-4.89,7.18-8.388,9.13a7.073,7.073,0,0,0,5.014.9c3.516-.642,6.771-3.618,8.851-6.364a22.326,22.326,0,0,0,3.572-6.467,20.359,20.359,0,0,0,.824-8.692,21.4,21.4,0,0,0-3.791-9.9c-2.951-4.268-7.391-6.791-12.263-8.249l.005,0a58.486,58.486,0,0,0-13.862-1.792,43.926,43.926,0,0,0-7.6.645" transform="translate(234 613)" fill="url(#linear-gradient-13)"/>
    <g id="Group_1779" data-name="Group 1779" transform="translate(234 613)" clip-path="url(#clip-path-18)">
      <path id="Path_5414" data-name="Path 5414" d="M399.163,149.95a18.981,18.981,0,0,1,5.289-1.651c1.122-.209,2.429-.089,3.365-.622a1.521,1.521,0,0,0,.479-.666c1.107-3.307.576-7.1.469-10.575l.284-.045a41.625,41.625,0,0,1,1.473,8.273c.14,2.27-.3,4.714-2.749,5.669a9.414,9.414,0,0,1-8.616-.095l.006-.288" fill="#fff"/>
      <path id="Path_5415" data-name="Path 5415" d="M402.275,99.336c2.34,1.118,3.148,3.024,3.43,5.375a21.678,21.678,0,0,1,.508,6.375l-.286.035a50.5,50.5,0,0,0-2.4-5.656,7.71,7.71,0,0,1-1.5-5.989l.252-.14" fill="#fff"/>
      <path id="Path_5416" data-name="Path 5416" d="M403.663,48.087c13.987,2.685,18.809,17.062,10.13,28.136,3.827-12.943,1.535-20.829-10.13-28.136" fill="#fff"/>
    </g>
    <g id="Group_1781" data-name="Group 1781" transform="translate(234 613)" clip-path="url(#clip-path-3)">
      <path id="Path_5418" data-name="Path 5418" d="M430.737,246.049c-1.2-5.216-2.691-10.624-4.435-16.115-.256-.843-.582-1.824-.971-3-1.332-4.008-1.4-4.207-1.548-4.525-9.524-27.135-21.5-47.573-36.54-62.378-10.639-10.475-22.881-17.5-35.4-20.309a62.99,62.99,0,0,0-8.314-1.285c-10.745-.936-22.1.767-33.745,5.061-11.375,4.194-19.794,8.824-26.494,14.569a65.847,65.847,0,0,0-7.839,8.062c-.272.225-.559.441-.826.669-9.63,8.257-17.137,19.8-21.71,33.376-7.525,22.348-8.04,49.072-1.575,81.7,5.741,28.974,14.879,54.424,27.158,75.641,7.626,13.179,16.6,23.134,26.676,29.589a52.705,52.705,0,0,0,23.644,8.34,42.446,42.446,0,0,0,17.571-2.09,41.552,41.552,0,0,0,19.856-14.673,39.512,39.512,0,0,0,14.972-21.806,16.2,16.2,0,0,0,12.332,7.5,16.183,16.183,0,0,0,7.121-.976c4.038-1.537,6.652-4.688,8.876-7.865.313-.448.617-.911.921-1.373,3.4-1.657,5.737-4.491,7.743-7.357a77.593,77.593,0,0,0,9.179-18.385c8.943-24.593,10.1-53.078,3.35-82.376M373.9,273.786a12.462,12.462,0,0,1-8.506-4.306c-2.252-2.845-3.016-7.375-2.27-13.464.048-.4.117-.809.177-1.216a41.2,41.2,0,0,1,10.059,12.811,15.991,15.991,0,0,1,1.662,6.218c-.43,0-.816-.016-1.122-.043"/>
    </g>
    <g id="Group_1783" data-name="Group 1783" transform="translate(234 613)" clip-path="url(#clip-path-21)">
      <rect id="Rectangle_137" data-name="Rectangle 137" width="7.906" height="3.224" transform="translate(417.402 232.721) rotate(-85.023)" fill="url(#linear-gradient-14)"/>
    </g>
    <path id="Path_5420" data-name="Path 5420" d="M373.359,280.062a18.659,18.659,0,0,1-12.9-6.672c-4.02-5.077-4.34-11.966-3.584-18.139a60.124,60.124,0,0,1,2.04-9.568c.432-1.471.91-2.928,1.422-4.372a30.579,30.579,0,0,0,1.672-4.348c.089-.5.229-.268-.021-.693-.239-.406-1.079-.764-1.473-1.033q-1.167-.795-2.364-1.542-2.068-1.295-4.229-2.437a49.78,49.78,0,0,0-6.151-2.787c.38.018.763.044,1.145.077,7.829.682,15.772,4.435,22.1,8.8,6.824,4.714,13.059,11.256,16.688,18.793,2.452,5.091,3.422,11.441.54,16.574.281-.5.385-.682.387-.682s-.751,1.373-.758,1.372.1-.185.371-.69c-2.784,5.114-7.939,7.413-13.256,7.413q-.814,0-1.631-.071m-61.4-130.648c-8.758,3.229-17.447,7.331-24.572,13.441-9.4,8.055-15.917,18.952-19.841,30.6-8.414,24.989-6.412,53-1.366,78.465,5.044,25.449,13.392,51.179,26.431,73.711,6.135,10.6,14.211,20.769,24.622,27.439a46.391,46.391,0,0,0,20.792,7.368,36.215,36.215,0,0,0,14.981-1.772,35.006,35.006,0,0,0,20.933-19.8c4.617-11.6,2.411-24.985-.572-36.675-.8-3.147-1.322-6.346-1.924-9.534A53.048,53.048,0,0,1,370.3,304.5c-.181-5.912,2.873-11.377,9.331-11.671a12.842,12.842,0,0,1,1.7.032c11.08.966,12.05,16.869,12.188,25.49.087,5.474-.178,10.936-.5,16.4-.292,4.982.9,10.514,5.5,13.266a9.959,9.959,0,0,0,4.239,1.359,9.839,9.839,0,0,0,4.334-.587c2.566-.977,4.435-3.418,5.955-5.59a72.607,72.607,0,0,0,8.419-16.925c9.125-25.093,9.079-53,3.132-78.808-1.443-6.264-3.222-12.447-5.251-18.546-7.74-23.306-18.8-46.949-36.523-64.393-8.995-8.855-19.941-15.863-32.363-18.652a56.593,56.593,0,0,0-7.48-1.155q-2.605-.227-5.214-.224a74.915,74.915,0,0,0-25.806,4.92" transform="translate(234 613)" fill="url(#linear-gradient-15)"/>
    <g id="Group_1787" data-name="Group 1787" transform="translate(234 613)" clip-path="url(#clip-path-22)">
      <path id="Path_5421" data-name="Path 5421" d="M344.049,151.686c23.344-2.251,43.655,20.367,52.324,39.944,1.2,3.067,2.412,6.107,3.349,9.248-4.166-5-7.914-10.161-11.922-15.2-11.864-14.306-25.331-28.8-43.751-34" fill="#fff"/>
      <path id="Path_5422" data-name="Path 5422" d="M366.243,297.325c-2.582,5.458-.826,11.16.194,16.755,1.213,5.639,2.656,11.35,3.616,17.275,1.848,11.075,2.672,27.9-9.68,33.379,4.188-4.5,5.3-9.99,5.3-15.473.764-13.2-10.327-42.611.566-51.936" fill="#fff"/>
      <path id="Path_5423" data-name="Path 5423" d="M403.755,343.767A189.945,189.945,0,0,0,417.37,292.38c.415-2.564.519-5.144,1.065-7.809,6.739,19.84,1.089,45.092-14.68,59.2" fill="#fff"/>
      <path id="Path_5424" data-name="Path 5424" d="M355.766,235.542c.326,6.222-1.223,10.8-3.047,16.337a34.927,34.927,0,0,0,.191,16.368l-.573.261a29.6,29.6,0,0,1-4.621-14.908c.057-3.793-.313-7.833,1.353-11.354a15.426,15.426,0,0,1,6.159-7.032Z" fill="#fff"/>
    </g>
    <g id="Group_1789" data-name="Group 1789" transform="translate(234 613)" clip-path="url(#clip-path-3)">
      <path id="Path_5426" data-name="Path 5426" d="M599.782,258.377q-.546-2.219-1.17-4.5a37.572,37.572,0,0,0-1.3-4.582l-.712-2.282c-.065-.207-.142-.452-.236-.721-2.8-8.795-6.3-17.353-9.39-24.619l-.477-1.124c-3.446-8.153-7.736-18.3-17.912-22.735a19.628,19.628,0,0,0-6.15-1.563,20.265,20.265,0,0,0-14.272,4.286,21.523,21.523,0,0,0-4.918,5.591,20.689,20.689,0,0,0-5.316,3,24.982,24.982,0,0,0-6.286,7.877c-.756,1.332-1.45,2.662-2.121,3.983-5.613-1.253-9.79-8.292-11.889-14.749-2.5-7.7-3.135-15.933-3.806-24.654-.18-2.35-.368-4.78-.593-7.178-1.019-10.822-2.464-22.239-7.835-32.407a41.429,41.429,0,0,0-18.5-17.9c-7.663-3.846-16.78-6.251-27.094-7.149l-.217-.019a90.983,90.983,0,0,0-33.53,3.413,70.738,70.738,0,0,0-26.215,14.223c-1.3,1.145-2.536,2.369-3.732,3.627a63.777,63.777,0,0,0-6.5,4.968,59.851,59.851,0,0,0-17.5,27.1c-8.487,26.968,1.988,53.179,8.987,66.4,10.975,20.734,27.069,36.761,45.318,45.13a71.58,71.58,0,0,0,24.007,6.026c.638.056,1.276.105,1.919.149a179.29,179.29,0,0,0,32.89-.8,165.109,165.109,0,0,0,43.093-10.61c.363,1.373.685,2.737.962,4.067a35.54,35.54,0,0,1,.841,8.079A16.338,16.338,0,0,1,528.8,294.9a44.356,44.356,0,0,1-7.395,2.068c-10.115,1.989-21.075,1.389-31.674.809-3.241-.178-6.592-.361-9.892-.471l-1.03-.034c-6.938-.236-14.8-.5-22.19,1.659a14.855,14.855,0,0,0-10.508,8.679,16,16,0,0,0-7.9,4.816c-3.535,4.233-4.207,9.524-4.147,13.216.234,14.341,9.661,29.4,23.458,37.462,9.39,5.491,21.519,9.256,36.049,11.192,2.11.281,4.252.517,6.366.7,18.435,1.605,52.072.78,73.917-21.93a63.476,63.476,0,0,0,12.1-10.615c8.745-9.926,14.777-23.886,16.986-39.309,1.942-13.566.907-28.208-3.165-44.765"/>
    </g>
    <g id="Group_1791" data-name="Group 1791" transform="translate(234 613)" clip-path="url(#clip-path-24)">
      <rect id="Rectangle_140" data-name="Rectangle 140" width="6.786" height="2.639" transform="translate(589.684 254.443) rotate(-85.023)" fill="url(#linear-gradient-16)"/>
    </g>
    <path id="Path_5428" data-name="Path 5428" d="M427.87,126.385A64.124,64.124,0,0,0,404,139.31a53.525,53.525,0,0,0-15.644,24.258c-6.444,20.478-1.259,43.041,8.546,61.565,9.344,17.654,24,33.925,42.376,42.35A65.189,65.189,0,0,0,461.2,272.96c.6.052,1.2.1,1.8.14a172.718,172.718,0,0,0,31.732-.777c17.469-2.037,35.436-6.548,51.135-14.631a57.852,57.852,0,0,0,9.761-6.248,35.874,35.874,0,0,1-4.625,5.293c-1.11,1.034-2.274,2.008-3.474,2.935-.871.673-3.77,2.143-3.919,3.033-.127.76.67,2.305.876,3.064q.672,2.475,1.2,4.986a42.019,42.019,0,0,1,.972,9.5,20.556,20.556,0,0,1-8.293,16.606c-4.572,3.366-10.225,5.2-15.745,6.282-14.092,2.772-28.773.926-42.991.454-6.952-.231-14.491-.6-21.24,1.375a10.15,10.15,0,0,0-5.107,2.892c-2.071,2.48-2.734,5.923-2.684,9.077.213,13.013,9.38,25.717,20.34,32.124,10.03,5.865,22.179,8.852,33.7,10.387,1.995.266,4.028.491,6.08.67,24.932,2.17,53.4-2.419,70.513-21.84,8.711-9.885,13.628-23.124,15.478-36.037,2.021-14.122.342-28.592-3.047-42.367-.866-3.526-1.852-7.023-2.935-10.488a264.777,264.777,0,0,0-9.557-25.251c-3.282-7.722-6.835-16.944-15.107-20.549a13.345,13.345,0,0,0-4.18-1.062,14.051,14.051,0,0,0-9.846,2.974,19.249,19.249,0,0,0-4.689,6.027c-1.7,2.987-3.138,6.08-4.708,9.13a12.7,12.7,0,0,1-11.485,6.836c-.378,0-.751-.025-1.117-.057-9.728-.847-15.664-10.823-18.4-19.248-3.468-10.668-3.638-22.114-4.68-33.188-.959-10.184-2.288-20.884-7.134-30.055a35.321,35.321,0,0,0-15.752-15.214c-7.654-3.841-16.322-5.764-24.815-6.5l-.2-.018q-3.6-.3-7.221-.3a83.531,83.531,0,0,0-23.962,3.475" transform="translate(234 613)" fill="url(#linear-gradient-17)"/>
    <g id="Group_1795" data-name="Group 1795" transform="translate(234 613)" clip-path="url(#clip-path-25)">
      <path id="Path_5429" data-name="Path 5429" d="M531.005,349.675c11.327-4.465,22.527-7.111,33.572-11.767,10.619-4.963,19.676-13.839,22.392-25.539l.622.1c-.947,12.768-9.775,23.617-20.6,29.86-5.379,3.269-11.085,6.244-17.257,7.476a47.57,47.57,0,0,1-18.691.5l-.038-.629" fill="#fff"/>
      <path id="Path_5430" data-name="Path 5430" d="M453.053,132.565c25.46-4.986,47.221,17.14,44.264,42.436a116.513,116.513,0,0,0-6.436-15.38c-7.29-14.811-21.9-23.552-37.828-27.056" fill="#fff"/>
      <path id="Path_5431" data-name="Path 5431" d="M550.211,213.754c8.6-15.021,27.144-6.951,23.54,9.634-1.85-2.445-3.244-4.808-4.78-6.774-4.688-7.027-11.487-4.717-18.76-2.86" fill="#fff"/>
    </g>
    <g id="Group_1797" data-name="Group 1797" transform="translate(234 613)" clip-path="url(#clip-path-3)">
      <path id="Path_5433" data-name="Path 5433" d="M109.06,150.089a15.481,15.481,0,0,0-.944-7.305,7.649,7.649,0,0,0-.689-1.382l-.018-.03-.006-.009a19.727,19.727,0,0,0-3.284-3.862,13.242,13.242,0,0,0-5.957-3.573c-.11-.026-.222-.05-.332-.071a13.487,13.487,0,0,0-6.26.566c-.561.155-1.12.319-1.678.483-1.183.348-2.3.676-3.422.914a12.613,12.613,0,0,1-5.133.073,14.074,14.074,0,0,1-3.739-1.321,26.7,26.7,0,0,1-7.553-6.046,34.6,34.6,0,0,1-8.732-17.839,18.962,18.962,0,0,1,.349-7.508h0A28.428,28.428,0,0,0,78.9,114.635a20.523,20.523,0,0,0,10.353-.557,17.19,17.19,0,0,0,7.647-5.012,17.129,17.129,0,0,0,8.24-11.213c1.168-5.2.241-11.132-2.683-17.148-4.636-9.537-13.165-18.174-23.4-23.7a48.715,48.715,0,0,0-13.6-4.97c-7.252-1.409-13.767-.679-19.363,2.17a23.962,23.962,0,0,0-6.321,4.69,25.66,25.66,0,0,0-8.93,9.936c-1.93,3.724-2.829,8.365-2.752,14.189a70.959,70.959,0,0,0,2.643,17.3,128.182,128.182,0,0,0,5.623,16.35A160.16,160.16,0,0,0,53.1,147.043c3.641,5.175,7.73,9.175,10.993,13.512,3.995,5.31,8.853,10.915,14.393,10.833,1.456-.021,2.72.984,4.093,1.25a16.81,16.81,0,0,0,13.549-2.979,19.826,19.826,0,0,0,2.636-2.42,16.353,16.353,0,0,0,1.725-1.138,23,23,0,0,0,8.57-16.012"/>
    </g>
    <path id="Path_5435" data-name="Path 5435" d="M47.4,56.777A22.385,22.385,0,0,0,37.765,66.6c-2.012,3.885-2.486,8.516-2.429,12.825a68.37,68.37,0,0,0,2.547,16.6,124.679,124.679,0,0,0,5.5,15.98,157.409,157.409,0,0,0,16.44,29.823A112.343,112.343,0,0,0,70.536,155c3.855,4.021,8.227,7.993,13.425,10.17a18.079,18.079,0,0,0,3.53,1.078A13.862,13.862,0,0,0,98.749,163.8a20,20,0,0,0,7.439-13.959A11.985,11.985,0,0,0,105.023,143c-.05-.084-.083-.14-.087-.149a17.032,17.032,0,0,0-2.81-3.271,10.371,10.371,0,0,0-4.621-2.848c-.075-.018-.15-.033-.225-.049a10.847,10.847,0,0,0-4.941.515c-1.756.486-3.485,1.059-5.269,1.439a15.6,15.6,0,0,1-6.283.083,16.884,16.884,0,0,1-4.506-1.587,29.647,29.647,0,0,1-8.382-6.685,37.6,37.6,0,0,1-9.439-19.359A20.772,20.772,0,0,1,59.5,100.507a16.363,16.363,0,0,1,2.325-4.061q.285-.36.591-.7c.127-.143.586-.494.628-.674.053-.225-.339-.83-.429-1.069q-.281-.751-.527-1.515a39.41,39.41,0,0,1-1.849-12.419A32.144,32.144,0,0,1,61.14,72a57.78,57.78,0,0,0,1.174,10.707,39.509,39.509,0,0,0,6.064,15.252,25.651,25.651,0,0,0,15.43,10.289,17.729,17.729,0,0,0,8.914-.469,14.342,14.342,0,0,0,9.6-10.558c1.163-5.181-.188-10.571-2.464-15.256-4.627-9.517-12.925-17.428-22.176-22.42a45.642,45.642,0,0,0-12.776-4.677,33.3,33.3,0,0,0-6.337-.635A24.388,24.388,0,0,0,47.4,56.777" transform="translate(234 613)" fill="url(#linear-gradient-18)"/>
    <g id="Group_1803" data-name="Group 1803" transform="translate(234 613)" clip-path="url(#clip-path-27)">
      <path id="Path_5436" data-name="Path 5436" d="M66.049,57.68c11.244,1.193,22.308,8.274,26.93,18.782,1.326,3.919,1.494,4.118-.97.555C85.3,68.266,75.871,62.471,66.049,57.68" fill="#fff"/>
      <path id="Path_5437" data-name="Path 5437" d="M61.206,93.478a18.981,18.981,0,0,1-3.726,6.628,15.97,15.97,0,0,0-2.329,7.118l-.287.029a13.54,13.54,0,0,1,.195-7.139c.583-1.634,1.018-3.439,2.259-4.718a7.049,7.049,0,0,1,3.7-2.139Z" fill="#fff"/>
      <path id="Path_5438" data-name="Path 5438" d="M87.073,142.174c4.892-5.231,13.7-5.436,15.707,2.5.677,2.5-.658.138-1.546-.433-4.422-4.523-8.632-2.689-14.161-2.065" fill="#fff"/>
    </g>
    <g id="Group_1805" data-name="Group 1805" transform="translate(234 613)" clip-path="url(#clip-path-3)">
      <path id="Path_5440" data-name="Path 5440" d="M311.567,319.041c-1.2-20.62-8.207-40.531-19.72-56.067a89.233,89.233,0,0,0-6.852-8.177,25.794,25.794,0,0,0-2.134-2.194c-.356-.341-.677-.649-.974-.926-15.084-14.437-36.742-24.133-59.442-26.6q-.986-.108-1.972-.193a96.265,96.265,0,0,0-25.962,1.3c.818-1.727,1.553-3.469,2.194-5.2,5.4-14.611,3.929-29.354-4.136-41.513a50.309,50.309,0,0,0-22.382-18.815,57.384,57.384,0,0,0-17.233-4.114,85.708,85.708,0,0,0-25.88,2.015l-1.8.4a25.781,25.781,0,0,0-12.774-5c-.707-.061-1.423-.088-2.128-.08a22.821,22.821,0,0,0-15.737,6.806,36.329,36.329,0,0,0-4.655,5.551,26.294,26.294,0,0,0-4.01,3.18c-8.084,7.82-11.456,18.9-13.49,27.672-2.159,9.319-3.354,19.632-3.758,32.457-.635,20.126,1.568,41.733,6.549,64.219a317.131,317.131,0,0,0,19.806,59.98,219.656,219.656,0,0,0,15.02,28.807,52.165,52.165,0,0,0,4.768,6.59,18.928,18.928,0,0,0,3.336,3.129,7.706,7.706,0,0,0,3.854,1.518,7.561,7.561,0,0,0,5.009-1.475,41.566,41.566,0,0,0,6.686-6.1c1.143-1.213,2.221-2.359,3.3-3.291a27.911,27.911,0,0,1,8.533-5.272,14.281,14.281,0,0,1,6.254-.889,15.547,15.547,0,0,1,3.532.748c6.37,2.115,12.493,6.422,18.415,10.587,1.826,1.284,3.714,2.612,5.6,3.869,8.12,5.42,17.91,11.5,28.957,15.471a79.7,79.7,0,0,0,20.057,4.458,73.376,73.376,0,0,0,13.284-.043,74.262,74.262,0,0,0,22.087-5.441A56.721,56.721,0,0,0,285.3,389.814a61.35,61.35,0,0,0,10.194-10.64c11.718-15.58,17.427-36.935,16.074-60.133M166.723,330.258c-.16-.014-.319-.03-.479-.051-4.109-.513-7.966-3.429-10.316-7.8a13.325,13.325,0,0,1-1.689-6.175,20.9,20.9,0,0,1,7.28-.722,14.534,14.534,0,0,1,2.89.532,8.61,8.61,0,0,1,5.734,5,17.046,17.046,0,0,1,.97,8.854,13.673,13.673,0,0,1-4.39.364M118.7,234.637c3.256,2.2,2.109,8.226,1.81,9.548a36.261,36.261,0,0,1-1.974,5.711,26.326,26.326,0,0,1-1.281-10.619,23.631,23.631,0,0,1,.936-4.907,2.866,2.866,0,0,1,.509.267"/>
    </g>
    <g id="Group_1807" data-name="Group 1807" transform="translate(234 613)" clip-path="url(#clip-path-29)">
      <rect id="Rectangle_146" data-name="Rectangle 146" width="3.175" height="3.294" transform="matrix(0.087, -0.996, 0.996, 0.087, 276.723, 258.592)" fill="url(#linear-gradient-19)"/>
    </g>
    <path id="Path_5443" data-name="Path 5443" d="M166.176,336.535c-.239-.021-.476-.046-.714-.076-6.564-.82-12.017-5.366-15.083-11.066-2.027-3.77-3.1-8.225-2.055-12.457a14.822,14.822,0,0,1,6.938-9A26.829,26.829,0,0,1,170.73,300.5a20.8,20.8,0,0,1,4.144.772,14.856,14.856,0,0,1,9.779,8.684,23.1,23.1,0,0,1,1,13.9c.066-.224.113-.38.115-.38s-.072.267-.28,1c-.212.713-.292.974-.293.974s.047-.176.117-.422c-2.467,7.309-9.948,11.581-17.446,11.581q-.848,0-1.692-.073m-51.324-74.606c.432-.467.952-.918,1.34-1.42.491-.64.552-.395.114-1.1a38.056,38.056,0,0,1-3.012-5.542,32.684,32.684,0,0,1-2.318-15.121,26.811,26.811,0,0,1,6.007-15.16c2.461-2.86,6.077-4.737,9.661-4.425a8.883,8.883,0,0,1,4.247,1.527c5.274,3.565,5.714,10.562,4.41,16.231a40.368,40.368,0,0,1-7.26,15.164,42.273,42.273,0,0,1-7.011,7.055c-2.043,1.621-4.494,3.429-7.143,3.85q.477-.534.965-1.058m-4.414-101.755a16.729,16.729,0,0,0-11.426,5.034c-6.583,6.369-9.717,15.867-11.734,24.567a160.959,160.959,0,0,0-3.6,31.232c-.664,21.016,1.862,42.161,6.4,62.658A310.193,310.193,0,0,0,109.5,342.452a215.546,215.546,0,0,0,14.584,27.992,46.332,46.332,0,0,0,4.183,5.809,13.284,13.284,0,0,0,2.234,2.136,1.714,1.714,0,0,0,.766.387c.248.022.486-.111.907-.4,3.532-2.416,6.179-6.145,9.41-8.948a34.027,34.027,0,0,1,10.5-6.429,20.588,20.588,0,0,1,8.964-1.249,21.7,21.7,0,0,1,4.97,1.046c9.352,3.1,17.427,9.79,25.525,15.2,8.691,5.8,17.723,11.231,27.593,14.783a73.33,73.33,0,0,0,18.471,4.109,66.817,66.817,0,0,0,12.141-.037,68.458,68.458,0,0,0,20.215-4.967,51.165,51.165,0,0,0,20.5-16.493c11.83-15.728,15.947-36.638,14.819-55.979-1.094-18.759-7.261-37.527-18.493-52.683a81.368,81.368,0,0,0-9.11-10.358c-14.817-14.252-35.6-22.819-55.91-25.026q-.918-.1-1.838-.18c-18.323-1.6-36.646,2.694-52.84,11.322a96.09,96.09,0,0,0-20.38,14.335c5.683-6.809,13.023-12.48,20.508-17.163,2.686-1.68,5.445-3.24,8.283-4.65,2.764-1.372,5.734-2.344,8.482-3.717,1.689-.845,2.8-3.8,3.667-5.457a59.019,59.019,0,0,0,3.15-7.032c4.466-12.093,3.743-24.963-3.477-35.847a44.226,44.226,0,0,0-19.568-16.487,50.988,50.988,0,0,0-15.343-3.649,80,80,0,0,0-23.971,1.889c4.508,6.551,5.981,13.884,5.873,21.695-1.434-8.055-4.957-15.99-11.38-21.3a20.324,20.324,0,0,0-10.98-4.874q-.66-.057-1.327-.058l-.185,0" transform="translate(234 613)" fill="url(#linear-gradient-20)"/>
    <g id="Group_1813" data-name="Group 1813" transform="translate(234 613)" clip-path="url(#clip-path-30)">
      <path id="Path_5444" data-name="Path 5444" d="M143.8,166.661c25.893-4.843,47.8,16.891,42.038,42.874a94.538,94.538,0,0,0-4.961-15.8c-6.3-15.469-21.387-23.4-37.077-27.071" fill="#fff"/>
      <path id="Path_5445" data-name="Path 5445" d="M108.8,165.194c5.645-5.088,16.244,1.749,12.55,8.88-4.9-3.227-8.4-4.648-12.55-8.88" fill="#fff"/>
      <path id="Path_5446" data-name="Path 5446" d="M178.686,243.425c26.887-15.886,65.285-10.205,85.574,13.816-26.729-16.475-55.078-20.567-85.574-13.816" fill="#fff"/>
      <path id="Path_5447" data-name="Path 5447" d="M262.056,387.386c13.139-8.861,24.724-20.078,29.841-35.255a100.556,100.556,0,0,0,3.709-15.678c7.284,22.724-10.542,47.653-33.55,50.933" fill="#fff"/>
    </g>
    <g id="Group_1729" data-name="Group 1729" transform="translate(234 613)" clip-path="url(#clip-path-31)">
      <rect id="Rectangle_117" data-name="Rectangle 117" width="0.788" height="0.353" transform="translate(511.25 78.171) rotate(-85.47)" fill="url(#linear-gradient-21)"/>
    </g>
    <g id="Group_1731" data-name="Group 1731" transform="translate(234 613)" clip-path="url(#clip-path-32)">
      <rect id="Rectangle_118" data-name="Rectangle 118" width="0.795" height="0.341" transform="translate(511.542 78.946) rotate(-85.47)" fill="url(#linear-gradient-22)"/>
    </g>
    <g id="Group_1777" data-name="Group 1777" transform="translate(161 662)" clip-path="url(#clip-path-33)">
      <rect id="Rectangle_135" data-name="Rectangle 135" width="1.028" height="0.266" transform="translate(393.007 41.197) rotate(-10.348)" fill="url(#linear-gradient-23)"/>
    </g>
    <g id="Group_1799" data-name="Group 1799" transform="translate(234 613)" clip-path="url(#clip-path-34)">
      <rect id="Rectangle_143" data-name="Rectangle 143" width="0.838" height="0.588" transform="translate(104.8 143.603) rotate(-79.009)" fill="url(#linear-gradient-24)"/>
    </g>
    <g id="Group_1809" data-name="Group 1809" transform="translate(234 613)" clip-path="url(#clip-path-35)">
      <rect id="Rectangle_147" data-name="Rectangle 147" width="1.195" height="0.441" transform="translate(185.213 325.018) rotate(-85.022)" fill="url(#linear-gradient-25)"/>
    </g>
  </g>
</svg>
