<svg xmlns="http://www.w3.org/2000/svg" width="98.549" height="99.17" viewBox="0 0 98.549 99.17">
  <g id="cs1" transform="translate(-6842.494 -3892.648)">
    <g id="Group_643" data-name="Group 643">
      <g id="Group_642" data-name="Group 642">
        <g id="Group_634" data-name="Group 634">
          <path id="Path_1612" data-name="Path 1612" d="M6890.607,3987.018a43.357,43.357,0,0,1-32.869-14.978c-15.794-18.514-13.4-46.85,5.314-63.186a45.379,45.379,0,0,1,29.922-11.406,43.214,43.214,0,0,1,32.831,15.021c15.789,18.414,13.4,46.75-5.311,63.17a45.322,45.322,0,0,1-29.885,11.379Z" fill="#ffd101"/>
          <path id="Path_1613" data-name="Path 1613" d="M6892.973,3902.248a38.255,38.255,0,0,1,29.191,13.349c14.073,16.412,11.88,41.768-4.836,56.433a40.413,40.413,0,0,1-26.72,10.188,38.413,38.413,0,0,1-29.236-13.315c-14.084-16.508-11.974-41.76,4.836-56.433a40.484,40.484,0,0,1,26.765-10.222m0-9.6a50.186,50.186,0,0,0-33.1,12.611c-20.663,18.036-23.276,49.392-5.8,69.875l.018.021.019.022a48.155,48.155,0,0,0,36.5,16.641,50.12,50.12,0,0,0,33.056-12.576c20.678-18.141,23.277-49.5,5.787-69.894a48.009,48.009,0,0,0-36.478-16.7Z" fill="#fff"/>
          <path id="Path_1614" data-name="Path 1614" d="M6892.973,3902.248a38.255,38.255,0,0,1,29.191,13.349c14.073,16.412,11.88,41.768-4.836,56.433a40.413,40.413,0,0,1-26.72,10.188,38.413,38.413,0,0,1-29.236-13.315c-14.084-16.508-11.974-41.76,4.836-56.433a40.484,40.484,0,0,1,26.765-10.222m0-8a48.587,48.587,0,0,0-32.047,12.213c-20.009,17.466-22.549,47.815-5.641,67.634a46.579,46.579,0,0,0,35.323,16.123,48.518,48.518,0,0,0,32-12.178c20.023-17.567,22.55-47.916,5.629-67.651a46.412,46.412,0,0,0-35.264-16.141Z"/>
        </g>
        <g id="Group_638" data-name="Group 638">
          <g id="Group_635" data-name="Group 635">
            <path id="Path_1615" data-name="Path 1615" d="M6881.368,3973.386a2.659,2.659,0,0,0,2.439-.614,1.914,1.914,0,0,0,.121-2,4.453,4.453,0,0,0-1.419-1.543,6.039,6.039,0,0,0-4.251-1.469c-1.326.173-3.3,1.831-2.574,3.357C6876.362,3972.535,6880.006,3973.217,6881.368,3973.386Z" fill="#ffd101" opacity="0.7" style="mix-blend-mode: screen;isolation: isolate"/>
            <path id="Path_1616" data-name="Path 1616" d="M6910.145,3948.5a9.231,9.231,0,0,0-1.925,3.193,2.716,2.716,0,0,0,1.318,3.177,2.538,2.538,0,0,0,2.379-.412,5.34,5.34,0,0,0,1.525-1.978c.749-1.5,1.241-5.633-1.616-5.154A3.429,3.429,0,0,0,6910.145,3948.5Z" fill="#ffd101" opacity="0.7" style="mix-blend-mode: screen;isolation: isolate"/>
            <path id="Path_1617" data-name="Path 1617" d="M6888.263,3915.645a2.822,2.822,0,0,0-.75,3.4,3.544,3.544,0,0,0,2.588,1.35,11.641,11.641,0,0,0,4.6-.229,4.412,4.412,0,0,0,2.953-1.936,3.335,3.335,0,0,0-1.464-4.2C6893.9,3912.706,6890.106,3913.959,6888.263,3915.645Z" fill="#ffd101" opacity="0.7" style="mix-blend-mode: screen;isolation: isolate"/>
            <path id="Path_1618" data-name="Path 1618" d="M6891.482,3941.421a2.641,2.641,0,0,0,1.906,2.091,6.589,6.589,0,0,0,2.969.065c1.746-.261,3.727-.9,4.341-2.555a3.369,3.369,0,0,0-2.2-4.078C6896.1,3936.112,6891.191,3938.439,6891.482,3941.421Z" fill="#ffd101" opacity="0.7" style="mix-blend-mode: screen;isolation: isolate"/>
            <path id="Path_1619" data-name="Path 1619" d="M6868.846,3923.567c2.338-.549,5.008.511,3.665,3.824a3.863,3.863,0,0,1-2.907,2.416,3.327,3.327,0,0,1-3.411-1.908C6865.188,3925.59,6866.9,3924.023,6868.846,3923.567Z" fill="#ffd101" opacity="0.7" style="mix-blend-mode: screen;isolation: isolate"/>
            <path id="Path_1620" data-name="Path 1620" d="M6910.047,3926.1a2.63,2.63,0,0,0,.346,2.047,1.906,1.906,0,0,0,1.716,1.091,1.73,1.73,0,0,0,1.465-1.591C6913.833,3924.7,6910.619,3924.381,6910.047,3926.1Z" fill="#ffd101" opacity="0.7" style="mix-blend-mode: screen;isolation: isolate"/>
            <path id="Path_1621" data-name="Path 1621" d="M6895.818,3965.708c.781,1.09,3.376.9,4.372-.126a1.991,1.991,0,0,0,.452-2.434,1.789,1.789,0,0,0-1.687-.6c-.711.1-2.808.779-3.138,1.512A1.593,1.593,0,0,0,6895.818,3965.708Z" fill="#ffd101" opacity="0.7" style="mix-blend-mode: screen;isolation: isolate"/>
            <path id="Path_1622" data-name="Path 1622" d="M6871.7,3952.448a2.705,2.705,0,0,0,2.975,2.736,2.945,2.945,0,0,0-.238-5.884A2.835,2.835,0,0,0,6871.7,3952.448Z" fill="#ffd101" opacity="0.7" style="mix-blend-mode: screen;isolation: isolate"/>
          </g>
          <g id="Group_636" data-name="Group 636">
            <path id="Path_1623" data-name="Path 1623" d="M6883.351,3972.868a2.661,2.661,0,0,0,2.44-.613,1.915,1.915,0,0,0,.121-2,4.473,4.473,0,0,0-1.42-1.544,6.042,6.042,0,0,0-4.25-1.469c-1.326.174-3.3,1.832-2.575,3.357C6878.345,3972.018,6881.99,3972.7,6883.351,3972.868Z" fill="#ff650f"/>
            <path id="Path_1624" data-name="Path 1624" d="M6912.128,3947.981a9.254,9.254,0,0,0-1.925,3.192,2.719,2.719,0,0,0,1.318,3.178,2.54,2.54,0,0,0,2.38-.412,5.326,5.326,0,0,0,1.524-1.978c.749-1.5,1.241-5.634-1.616-5.155A3.44,3.44,0,0,0,6912.128,3947.981Z" fill="#ff650f"/>
            <path id="Path_1625" data-name="Path 1625" d="M6890.247,3915.127a2.82,2.82,0,0,0-.75,3.4,3.533,3.533,0,0,0,2.587,1.35,11.641,11.641,0,0,0,4.6-.229,4.4,4.4,0,0,0,2.953-1.935,3.336,3.336,0,0,0-1.463-4.2C6895.887,3912.189,6892.089,3913.441,6890.247,3915.127Z" fill="#ff650f"/>
            <path id="Path_1626" data-name="Path 1626" d="M6893.465,3940.9a2.638,2.638,0,0,0,1.907,2.091,6.561,6.561,0,0,0,2.969.065c1.745-.26,3.726-.9,4.341-2.555a3.372,3.372,0,0,0-2.2-4.078C6898.082,3935.595,6893.175,3937.921,6893.465,3940.9Z" fill="#ff650f"/>
            <path id="Path_1627" data-name="Path 1627" d="M6870.829,3923.05c2.339-.549,5.008.511,3.666,3.823a3.866,3.866,0,0,1-2.908,2.416,3.323,3.323,0,0,1-3.41-1.908C6867.171,3925.073,6868.886,3923.506,6870.829,3923.05Z" fill="#ff650f"/>
            <path id="Path_1628" data-name="Path 1628" d="M6912.031,3925.584a2.625,2.625,0,0,0,.345,2.047,1.9,1.9,0,0,0,1.717,1.091,1.729,1.729,0,0,0,1.464-1.591C6915.816,3924.178,6912.6,3923.864,6912.031,3925.584Z" fill="#ff650f"/>
            <path id="Path_1629" data-name="Path 1629" d="M6897.8,3965.191c.782,1.09,3.376.9,4.373-.127a1.99,1.99,0,0,0,.451-2.433,1.786,1.786,0,0,0-1.687-.6c-.711.1-2.808.778-3.138,1.511A1.6,1.6,0,0,0,6897.8,3965.191Z" fill="#ff650f"/>
            <path id="Path_1630" data-name="Path 1630" d="M6873.687,3951.931a2.7,2.7,0,0,0,2.975,2.735,2.944,2.944,0,0,0-.238-5.883A2.835,2.835,0,0,0,6873.687,3951.931Z" fill="#ff650f"/>
          </g>
          <g id="Group_637" data-name="Group 637">
            <path id="Path_1631" data-name="Path 1631" d="M6882.4,3972.955a2.661,2.661,0,0,0,2.439-.614,1.914,1.914,0,0,0,.121-2,4.468,4.468,0,0,0-1.419-1.543,6.041,6.041,0,0,0-4.251-1.469c-1.326.173-3.3,1.831-2.574,3.356C6877.4,3972.1,6881.041,3972.786,6882.4,3972.955Z" fill="#ff970f"/>
            <path id="Path_1632" data-name="Path 1632" d="M6911.179,3948.067a9.238,9.238,0,0,0-1.924,3.193,2.717,2.717,0,0,0,1.318,3.177,2.538,2.538,0,0,0,2.379-.412,5.33,5.33,0,0,0,1.524-1.978c.75-1.5,1.242-5.634-1.615-5.155A3.438,3.438,0,0,0,6911.179,3948.067Z" fill="#ff970f"/>
            <path id="Path_1633" data-name="Path 1633" d="M6889.3,3915.213a2.824,2.824,0,0,0-.75,3.4,3.54,3.54,0,0,0,2.587,1.349,11.649,11.649,0,0,0,4.6-.228,4.411,4.411,0,0,0,2.953-1.936,3.336,3.336,0,0,0-1.464-4.2C6894.939,3912.275,6891.141,3913.527,6889.3,3915.213Z" fill="#ff970f"/>
            <path id="Path_1634" data-name="Path 1634" d="M6892.517,3940.99a2.641,2.641,0,0,0,1.906,2.091,6.581,6.581,0,0,0,2.969.064c1.746-.26,3.726-.9,4.341-2.555a3.371,3.371,0,0,0-2.2-4.078C6897.133,3935.681,6892.226,3938.008,6892.517,3940.99Z" fill="#ff970f"/>
            <path id="Path_1635" data-name="Path 1635" d="M6869.88,3923.136c2.339-.549,5.009.511,3.666,3.824a3.863,3.863,0,0,1-2.908,2.415,3.323,3.323,0,0,1-3.41-1.908C6866.222,3925.159,6867.937,3923.592,6869.88,3923.136Z" fill="#ff970f"/>
            <path id="Path_1636" data-name="Path 1636" d="M6911.082,3925.671a2.626,2.626,0,0,0,.346,2.047,1.9,1.9,0,0,0,1.716,1.09,1.727,1.727,0,0,0,1.464-1.59C6914.867,3924.264,6911.653,3923.95,6911.082,3925.671Z" fill="#ff970f"/>
            <path id="Path_1637" data-name="Path 1637" d="M6896.853,3965.277c.781,1.09,3.375.9,4.372-.126a1.989,1.989,0,0,0,.451-2.434,1.786,1.786,0,0,0-1.686-.6c-.712.1-2.809.779-3.138,1.511A1.592,1.592,0,0,0,6896.853,3965.277Z" fill="#ff970f"/>
            <path id="Path_1638" data-name="Path 1638" d="M6872.739,3952.017a2.705,2.705,0,0,0,2.974,2.736,2.945,2.945,0,0,0-.237-5.884A2.836,2.836,0,0,0,6872.739,3952.017Z" fill="#ff970f"/>
          </g>
        </g>
        <g id="Group_639" data-name="Group 639" opacity="0.6" style="mix-blend-mode: multiply;isolation: isolate">
          <path id="Path_1639" data-name="Path 1639" d="M6922.164,3915.6a38.262,38.262,0,0,0-30.246-13.312,29.493,29.493,0,0,1,5.833,5.168c10.864,12.669,9.171,32.243-3.733,43.563-12.247,10.762-30.125,10.324-41.284-.418a38.748,38.748,0,0,0,8.638,18.305c14.16,16.4,39.154,17.89,55.956,3.127C6934.044,3957.365,6936.236,3932.009,6922.164,3915.6Z" fill="#ffd101"/>
        </g>
        <g id="Group_641" data-name="Group 641">
          <g id="Group_640" data-name="Group 640" style="mix-blend-mode: multiply;isolation: isolate">
            <path id="Path_1640" data-name="Path 1640" d="M6927.552,3923.863a41.239,41.239,0,0,1-13.724,36.368c-16.8,14.763-41.8,13.276-55.956-3.127-.694-.813-1.261-1.689-1.874-2.542-.025-.028-.052-.051-.076-.079a32.212,32.212,0,0,1-3.273-4.659,38.759,38.759,0,0,0,8.757,19.079c14.16,16.4,39.154,17.89,55.956,3.127C6931.473,3959.65,6935.188,3939.669,6927.552,3923.863Z" fill="#ffd101"/>
          </g>
        </g>
        <ellipse id="Ellipse_25" data-name="Ellipse 25" cx="18.149" cy="9.638" rx="18.149" ry="9.638" transform="matrix(0.595, -0.804, 0.804, 0.595, 6853.936, 3936.922)" fill="#ffd101" opacity="0.7" style="mix-blend-mode: screen;isolation: isolate"/>
      </g>
    </g>
  </g>
</svg>
