<svg xmlns="http://www.w3.org/2000/svg" xmlns:xlink="http://www.w3.org/1999/xlink" width="89.273" height="91.738" viewBox="0 0 89.273 91.738">
  <defs>
    <clipPath id="clip-path">
      <path id="Path_1603" data-name="Path 1603" d="M6578.214,3645.164c-3.6-19.876-19.8-32.987-38.89-29.832-19.03,3.147-32.647,21.189-30.214,41.259s19.78,32.334,38.982,30.658C6571.085,3685.315,6581.83,3665.158,6578.214,3645.164Z" fill="#01cb2d"/>
    </clipPath>
  </defs>
  <g id="cs3" transform="translate(-6499.228 -3605.264)">
    <g id="Group_627" data-name="Group 627">
      <g id="Group_625" data-name="Group 625">
        <g id="Group_621" data-name="Group 621">
          <path id="Path_17466" data-name="Path 17466" d="M6544.949,3606.864a42.585,42.585,0,0,0-6.929.575,43.981,43.981,0,0,0-28.285,17.421,45.55,45.55,0,0,0-8.567,32.693,42.53,42.53,0,0,0,14.736,27.637,44.6,44.6,0,0,0,28.7,10.212c1.385,0,2.792-.062,4.181-.183,12.218-1.028,22.374-6.379,29.344-15.473,7.438-9.705,10.338-22.829,7.954-36.006-3.936-21.713-20.852-36.876-41.137-36.876Z" transform="translate(1.4 0)"/>
          <path id="Path_1456" data-name="Path 1456" d="M6578.214,3645.164c-3.6-19.876-19.8-32.987-38.89-29.832-19.03,3.147-32.647,21.189-30.214,41.259s19.78,32.334,38.982,30.658C6571.085,3685.315,6581.83,3665.158,6578.214,3645.164Z" fill="#01cb2d"/>
          <g id="Group_620" data-name="Group 620" clip-path="url(#clip-path)">
            <g id="Group_619" data-name="Group 619" opacity="0.4" style="mix-blend-mode: multiply;isolation: isolate">
              <path id="Path_1457" data-name="Path 1457" d="M6520.164,3620.083c.873,1.631,9.469.767,9.4-1.739C6528.1,3617.19,6520.857,3616.446,6520.164,3620.083Z" fill="#1e5412" opacity="0.5"/>
              <path id="Path_1458" data-name="Path 1458" d="M6499.185,3651.875c1.126-1.9-2.021-2.083-1.919-.459C6497.318,3652.261,6498.744,3652.757,6499.185,3651.875Z" fill="#1e5412" opacity="0.5"/>
              <path id="Path_1459" data-name="Path 1459" d="M6512.491,3651.354c-.144-2.307-8.708-3.052-8.54-.348C6504.206,3655.049,6512.616,3653.366,6512.491,3651.354Z" fill="#1e5412" opacity="0.5"/>
              <path id="Path_1460" data-name="Path 1460" d="M6490.253,3662.455c.269,4.319,11.419,1.336,11.206-2.076-.232-3.734-3.744-1.195-5.494-.675C6494.264,3660.216,6490.007,3658.51,6490.253,3662.455Z" fill="#1e5412" opacity="0.5"/>
              <path id="Path_1461" data-name="Path 1461" d="M6570.654,3626c-1.387,1.135-.951,1.82-2.61,1.493-.855-.166-3.077-1.068-2.97.64a3.352,3.352,0,0,0,1.586,2.792,62.391,62.391,0,0,0,8.753-6.38A10.931,10.931,0,0,0,6570.654,3626Z" fill="#1e5412" opacity="0.5"/>
              <path id="Path_1462" data-name="Path 1462" d="M6514.451,3594.79a3.257,3.257,0,0,0-1.949-2.248l-1.5.119a1.679,1.679,0,0,0-.255,1.17C6510.9,3596.254,6514.5,3595.51,6514.451,3594.79Z" fill="#1e5412" opacity="0.5"/>
              <path id="Path_1463" data-name="Path 1463" d="M6525.176,3611.438c-.157-2.5-6.034-3.249-5.916-1.335C6519.41,3612.5,6525.277,3613.05,6525.176,3611.438Z" fill="#1e5412" opacity="0.5"/>
              <path id="Path_1464" data-name="Path 1464" d="M6522.678,3598.015c-1.068-.656-1.8-1.16-2.355-.048C6520.62,3602.719,6524.356,3599.041,6522.678,3598.015Z" fill="#1e5412" opacity="0.5"/>
              <path id="Path_1465" data-name="Path 1465" d="M6508.894,3621.552c.165,2.665,5.441,3.047,6.843,1.236C6518.7,3618.94,6508.721,3618.773,6508.894,3621.552Z" fill="#1e5412" opacity="0.5"/>
              <path id="Path_1466" data-name="Path 1466" d="M6513.162,3611.711c-.126-.513-.222-2.428-1.067-1.839-.142.326-.284.657-.426.985C6511.715,3611.583,6512.637,3611.876,6513.162,3611.711Z" fill="#1e5412" opacity="0.5"/>
              <path id="Path_1467" data-name="Path 1467" d="M6506.182,3633.735a1.489,1.489,0,0,0,2.574.957C6510.927,3632.347,6506.04,3631.473,6506.182,3633.735Z" fill="#1e5412" opacity="0.5"/>
              <path id="Path_1468" data-name="Path 1468" d="M6511.216,3602.8c-.142-2.262-5.737-3.27-5.571-.578C6505.8,3604.726,6511.379,3605.449,6511.216,3602.8Z" fill="#1e5412" opacity="0.5"/>
              <path id="Path_1469" data-name="Path 1469" d="M6472.844,3595.727l-6.609.531C6467.355,3597.4,6470.624,3596.859,6472.844,3595.727Z" fill="#1e5412" opacity="0.5"/>
              <path id="Path_1470" data-name="Path 1470" d="M6502.7,3641.909c-.173-2.818-11.6-4.91-11.287.062C6491.709,3646.809,6502.779,3643.2,6502.7,3641.909Z" fill="#1e5412" opacity="0.5"/>
              <path id="Path_1471" data-name="Path 1471" d="M6481.221,3600.526c1.222.12,1.209-1.345,2.014-2,2.107-1.7-4.986-4.4-4.8-1.433C6478.528,3598.647,6479.858,3600.4,6481.221,3600.526Z" fill="#1e5412" opacity="0.5"/>
              <path id="Path_1472" data-name="Path 1472" d="M6470.775,3621.725c3.622-3.447-10.791-8.369-10.366-1.57C6460.686,3624.644,6468.4,3623.986,6470.775,3621.725Z" fill="#1e5412" opacity="0.5"/>
              <path id="Path_1473" data-name="Path 1473" d="M6466.577,3605.84c.109,1.766,2.6,1.282,2.489-.488S6466.465,3604.068,6466.577,3605.84Z" fill="#1e5412" opacity="0.5"/>
              <path id="Path_1474" data-name="Path 1474" d="M6485.844,3610.983c2.854-2.823-4.264-3.937-5.141-3.923-2.433.04-7.776-3.4-7.458,1.717C6473.48,3612.542,6483.277,3613.528,6485.844,3610.983Z" fill="#1e5412" opacity="0.5"/>
              <path id="Path_1475" data-name="Path 1475" d="M6500.01,3632.258c-.129-2.069-2.878-1.1-2.778.492C6497.346,3634.595,6500.133,3634.213,6500.01,3632.258Z" fill="#1e5412" opacity="0.5"/>
              <path id="Path_1476" data-name="Path 1476" d="M6494.449,3611.734c.132,2.134,7.421,3.1,7.24.185C6501.439,3607.9,6494.276,3608.971,6494.449,3611.734Z" fill="#1e5412" opacity="0.5"/>
              <path id="Path_1477" data-name="Path 1477" d="M6500.957,3622.391c-.217-3.5-4.645-1.438-6.353-2.3-1.949-.982-7.451-3.643-7.127,1.59C6487.835,3627.4,6501.2,3626.336,6500.957,3622.391Z" fill="#1e5412" opacity="0.5"/>
              <path id="Path_1478" data-name="Path 1478" d="M6497.316,3601.951c-.24-3.824-8.207-3.22-8.052-.733C6489.489,3604.843,6497.541,3605.585,6497.316,3601.951Z" fill="#1e5412" opacity="0.5"/>
              <path id="Path_1479" data-name="Path 1479" d="M6478.136,3631.7c.3,4.884,9.956,4.946,9.747,1.6-.2-2.88-3.507-1.148-4.934-2.573C6481.583,3629.367,6477.946,3627.6,6478.136,3631.7Z" fill="#1e5412" opacity="0.5"/>
              <path id="Path_1480" data-name="Path 1480" d="M6566.15,3621.561c1.694-1.545,1.5-1.478,3.835-1.883.456-.079,2.117-.205,2.487-.874-.293.056-.886-1.31-1.554-1.18-1.549.3-2.341,1.354-4,.872-2.034-.59-7.374-2.6-7.051,2.568C6560.061,3624.267,6564.712,3622.87,6566.15,3621.561Z" fill="#1e5412" opacity="0.5"/>
              <path id="Path_1481" data-name="Path 1481" d="M6565,3611.833c.181,2.91,11.21,2.059,12.434.118.784-1.249-5.218-1.707-6.279-2.355C6569.74,3608.736,6564.762,3608.054,6565,3611.833Z" fill="#1e5412" opacity="0.5"/>
              <path id="Path_1482" data-name="Path 1482" d="M6468.031,3630.668c.063,1.045,1.993,1.707,1.9.239C6469.84,3629.412,6468.511,3629.931,6468.031,3630.668Z" fill="#1e5412" opacity="0.5"/>
              <path id="Path_1483" data-name="Path 1483" d="M6542.849,3635.443c.111,1.757,2.585,1.275,2.477-.486S6542.74,3633.683,6542.849,3635.443Z" fill="#1e5412" opacity="0.5"/>
              <path id="Path_1484" data-name="Path 1484" d="M6583.62,3606.205c-.012-.185-7.271-2.647-7.178-1.135C6576.513,3606.188,6583.776,3608.723,6583.62,3606.205Z" fill="#1e5412" opacity="0.5"/>
              <path id="Path_1485" data-name="Path 1485" d="M6581.881,3617.411c-1.484.674-2.86,1.507-2.967,1.871.03.47.385.71.91.786C6580.554,3619.205,6581.247,3618.325,6581.881,3617.411Z" fill="#1e5412" opacity="0.5"/>
              <path id="Path_1486" data-name="Path 1486" d="M6557.855,3611.365c.11,1.784,2.613,1.292,2.5-.488S6557.744,3609.585,6557.855,3611.365Z" fill="#1e5412" opacity="0.5"/>
              <path id="Path_1487" data-name="Path 1487" d="M6587.575,3602.464c.021.347.425.546.893.578q.324-1.189.581-2.338A1.7,1.7,0,0,0,6587.575,3602.464Z" fill="#1e5412" opacity="0.5"/>
              <path id="Path_1488" data-name="Path 1488" d="M6555.154,3633.435c-1.457-.817-3.7.771-4.866,1.7.159,2.557,12.009.926,8.832-2.891C6557.067,3629.78,6556.527,3634.2,6555.154,3633.435Z" fill="#1e5412" opacity="0.5"/>
              <path id="Path_1489" data-name="Path 1489" d="M6552.674,3615.205c2.082-2.992-6.019-4.844-5.72-.062C6547.071,3617.05,6551.875,3616.348,6552.674,3615.205Z" fill="#1e5412" opacity="0.5"/>
              <path id="Path_1490" data-name="Path 1490" d="M6544.577,3625.281c.156,2.511,1.949,3.321,3.934,2.411,1.552-.715,6.281-1.976,7.183-3.725C6558.443,3618.649,6544.31,3620.98,6544.577,3625.281Z" fill="#1e5412" opacity="0.5"/>
              <path id="Path_1491" data-name="Path 1491" d="M6544.074,3605.847c.229,3.673,9.364,2.747,9.2.207C6553.185,3604.52,6544.135,3601.487,6544.074,3605.847Z" fill="#1e5412" opacity="0.5"/>
              <path id="Path_1492" data-name="Path 1492" d="M6542.77,3597.7c-.562-.089-1.467-.054-1.412.843C6541.545,3601.527,6543.591,3598.33,6542.77,3597.7Z" fill="#1e5412" opacity="0.5"/>
              <path id="Path_1493" data-name="Path 1493" d="M6539.6,3621.783c-.22-2.976-5.6-.334-5.475,1.68C6534.221,3625.07,6539.813,3624.724,6539.6,3621.783Z" fill="#1e5412" opacity="0.5"/>
              <path id="Path_1494" data-name="Path 1494" d="M6533.632,3597.025c-.168-2.679-5.978-3.147-5.786-.069C6528.016,3599.688,6533.8,3599.78,6533.632,3597.025Z" fill="#1e5412" opacity="0.5"/>
              <path id="Path_1495" data-name="Path 1495" d="M6583.858,3591.437c.823,1.454,2.444,5.9,4.659,2.789a1.153,1.153,0,0,0,.2-.469,26.6,26.6,0,0,0-5.228-4.742c-1.5-.6-2.725-.759-2.68-.071C6580.976,3591.671,6582.858,3589.662,6583.858,3591.437Z" fill="#1e5412" opacity="0.5"/>
              <path id="Path_1496" data-name="Path 1496" d="M6536.742,3613.3c.1,1.571,2.933,2.2,3.822,1.021C6541.692,3612.842,6536.589,3610.846,6536.742,3613.3Z" fill="#1e5412" opacity="0.5"/>
              <path id="Path_1497" data-name="Path 1497" d="M6538.738,3606.464c-.931-1.387-5.367-3.907-5.122.041C6533.778,3609.084,6540.085,3608.463,6538.738,3606.464Z" fill="#1e5412" opacity="0.5"/>
              <path id="Path_1498" data-name="Path 1498" d="M6535.749,3633.023c-1.01.5-8.629,2.048-8.565,3.042.161,2.616,6.163,3.889,7.9,3.619,1.913-.3,2.652-2.788,2.595-4.637-.035-1.1,1.708-1.057,2.153-1.2.516-.171,1.8-1.356.812-1.914C6539.347,3631.2,6537.018,3632.4,6535.749,3633.023Z" fill="#1e5412" opacity="0.5"/>
              <path id="Path_1499" data-name="Path 1499" d="M6548.824,3592.39c-.06-.955-1.016-1.888-2.215-2.588l-5.022.4C6542.451,3593.266,6549.039,3595.827,6548.824,3592.39Z" fill="#1e5412" opacity="0.5"/>
              <path id="Path_1500" data-name="Path 1500" d="M6575.181,3589.073a7.028,7.028,0,0,0-1.625-1.436l-6.53.524a13.922,13.922,0,0,1,3.614.877C6571.035,3589.277,6576.225,3590.567,6575.181,3589.073Z" fill="#1e5412" opacity="0.5"/>
              <path id="Path_1501" data-name="Path 1501" d="M6573.174,3595.726c.14,2.267,6.824,4.538,8.1,2.7C6581.052,3596.088,6572.892,3591.193,6573.174,3595.726Z" fill="#1e5412" opacity="0.5"/>
              <path id="Path_1502" data-name="Path 1502" d="M6556.2,3600.04c.788-2.265-4.462-3.958-4.305-1.452C6552.032,3600.725,6555.121,3603.156,6556.2,3600.04Z" fill="#1e5412" opacity="0.5"/>
              <path id="Path_1503" data-name="Path 1503" d="M6564.93,3591.65c-.132-2.1-9.78-3.1-9.665-1.245C6555.437,3593.17,6565.225,3596.413,6564.93,3591.65Z" fill="#1e5412" opacity="0.5"/>
              <path id="Path_1504" data-name="Path 1504" d="M6503.241,3593.838a1.593,1.593,0,0,0,.141-.563l-1.65.132C6501.773,3594.1,6502.891,3594.653,6503.241,3593.838Z" fill="#1e5412" opacity="0.5"/>
              <path id="Path_1505" data-name="Path 1505" d="M6489.372,3670.3a33.153,33.153,0,0,0,4.443-.326C6492.31,3669.426,6490.4,3669.443,6489.372,3670.3Z" fill="#1e5412" opacity="0.5"/>
              <path id="Path_1506" data-name="Path 1506" d="M6460.3,3601.655c1.426-2.817-11.334-5.842-10.934.591C6449.58,3605.682,6459.113,3603.991,6460.3,3601.655Z" fill="#1e5412" opacity="0.5"/>
              <path id="Path_1507" data-name="Path 1507" d="M6560.523,3600.186c.186,2.966,8.757,4.773,8.634,2.817C6569.009,3600.6,6560.259,3595.93,6560.523,3600.186Z" fill="#1e5412" opacity="0.5"/>
              <path id="Path_1508" data-name="Path 1508" d="M6493.055,3653.1c.364-1.044-11.355-2.827-11.076,1.666C6482.236,3658.908,6492.093,3655.873,6493.055,3653.1Z" fill="#1e5412" opacity="0.5"/>
              <path id="Path_1509" data-name="Path 1509" d="M6477.722,3666.932c.107,1.723,3.338,3.534,3.168.789C6480.753,3665.509,6477.569,3663.641,6477.722,3666.932Z" fill="#1e5412" opacity="0.5"/>
              <path id="Path_1510" data-name="Path 1510" d="M6480.305,3644.781c.049.776,1.872.769,2.4.354C6482.3,3643.635,6480.091,3641.343,6480.305,3644.781Z" fill="#1e5412" opacity="0.5"/>
              <path id="Path_1511" data-name="Path 1511" d="M6569.09,3594.144c-.2-.972-1.375.119-1.336.773C6567.82,3595.951,6569.367,3595.444,6569.09,3594.144Z" fill="#1e5412" opacity="0.5"/>
              <path id="Path_1512" data-name="Path 1512" d="M6524.571,3654.123c.382-.293.759-.587,1.136-.874A3.88,3.88,0,0,0,6524.571,3654.123Z" fill="#1e5412" opacity="0.5"/>
              <path id="Path_1513" data-name="Path 1513" d="M6530.261,3629.651c.781-1.126-2.375-2.455-3.251-1.575-1.893,1.893-4.465-.8-6.361.836C6521.269,3631.589,6528.705,3631.879,6530.261,3629.651Z" fill="#1e5412" opacity="0.5"/>
              <path id="Path_1514" data-name="Path 1514" d="M6520.314,3646.975c.4,2.284,9.416.783,10.571-.878C6530.474,3640.286,6521.754,3643.246,6520.314,3646.975Z" fill="#1e5412" opacity="0.5"/>
              <path id="Path_1515" data-name="Path 1515" d="M6539.326,3643.07c-.316-1.622-2.524-.98-2.776.565a1.448,1.448,0,0,0,.389,1.383c.822-.527,1.635-1.019,2.438-1.469A2.79,2.79,0,0,0,6539.326,3643.07Z" fill="#1e5412" opacity="0.5"/>
              <path id="Path_1516" data-name="Path 1516" d="M6509.386,3642.137c.32,5.16,11.494,2,11.953-1.793C6521.481,3638.357,6509.086,3637.3,6509.386,3642.137Z" fill="#1e5412" opacity="0.5"/>
              <path id="Path_1517" data-name="Path 1517" d="M6506.894,3659.611c.313,5.026,9.9-1.247,9.379-2.109C6514.738,3654.975,6507.507,3656.13,6506.894,3659.611Z" fill="#1e5412" opacity="0.5"/>
              <path id="Path_1518" data-name="Path 1518" d="M6479.776,3621.682c-.126-2.017-2.756-1.2-2.639.664C6477.242,3624.059,6479.888,3623.522,6479.776,3621.682Z" fill="#1e5412" opacity="0.5"/>
              <path id="Path_1519" data-name="Path 1519" d="M6440.264,3624.365c.281,1.294.594,2.609.938,3.934.943-.9,1.531-2.242.73-3.406A1.254,1.254,0,0,0,6440.264,3624.365Z" fill="#1e5412" opacity="0.5"/>
              <path id="Path_1520" data-name="Path 1520" d="M6441.964,3614.613c.24,3.842,5.3,2.191,5.055-1.677C6446.805,3609.483,6441.768,3611.438,6441.964,3614.613Z" fill="#1e5412" opacity="0.5"/>
              <path id="Path_1521" data-name="Path 1521" d="M6449.515,3648.5a54.1,54.1,0,0,0,3.144,4.565c3.5.617,8.193-.33,8.007-3.318C6460.623,3649.035,6451.868,3645.9,6449.515,3648.5Z" fill="#1e5412" opacity="0.5"/>
              <path id="Path_1522" data-name="Path 1522" d="M6450.08,3622.547c.125,2.016,3.762,2.812,3.617.509C6453.558,3620.826,6449.9,3619.666,6450.08,3622.547Z" fill="#1e5412" opacity="0.5"/>
              <path id="Path_1523" data-name="Path 1523" d="M6445.117,3604.8c-.119-1.9-2.653-.074-2.55,1.559S6445.2,3606.158,6445.117,3604.8Z" fill="#1e5412" opacity="0.5"/>
              <path id="Path_1524" data-name="Path 1524" d="M6460.4,3610.929c-.186-2.976-9.654-3.932-9.369.65C6451.3,3615.919,6460.459,3611.961,6460.4,3610.929Z" fill="#1e5412" opacity="0.5"/>
              <path id="Path_1525" data-name="Path 1525" d="M6455.942,3640.619c-.474-.176-.756.042-.855.661C6455.161,3642.475,6456.656,3641.084,6455.942,3640.619Z" fill="#1e5412" opacity="0.5"/>
              <path id="Path_1526" data-name="Path 1526" d="M6468.693,3658.86c-1.7-1.443-6.5-4.3-6.1,1.287.312,5.038,8.56,4.669,11.113,1.37C6476.082,3658.437,6469.444,3659.493,6468.693,3658.86Z" fill="#1e5412" opacity="0.5"/>
              <path id="Path_1527" data-name="Path 1527" d="M6473.065,3651.846c2.144-2.749-2.022-1.921-1.961-.93C6471.19,3652.3,6471.71,3653.59,6473.065,3651.846Z" fill="#1e5412" opacity="0.5"/>
              <path id="Path_1528" data-name="Path 1528" d="M6467.628,3639.225c-1.655-.919-4.707-1.791-4.621,1.77.151,2.412,12.484,5.171,12.232,1.1C6475.129,3640.355,6469.032,3640.006,6467.628,3639.225Z" fill="#1e5412" opacity="0.5"/>
              <path id="Path_1529" data-name="Path 1529" d="M6456,3629.341c-1.935.274-9.288-1.2-9.026,3.02.368,5.9,11.521,2.316,14.037-.409C6463.827,3628.911,6456.909,3629.211,6456,3629.341Z" fill="#1e5412" opacity="0.5"/>
              <path id="Path_1530" data-name="Path 1530" d="M6608.317,3610.938c.458.056,5.719-.91,4.152-1.841a7.064,7.064,0,0,0-2.073-.638l-5.732,3.171A13.864,13.864,0,0,1,6608.317,3610.938Z" fill="#1e5412" opacity="0.5"/>
              <path id="Path_1531" data-name="Path 1531" d="M6548.9,3643.111a1.573,1.573,0,0,0-.1-.572l-1.448.8C6547.67,3643.958,6548.916,3644,6548.9,3643.111Z" fill="#1e5412" opacity="0.5"/>
              <path id="Path_1532" data-name="Path 1532" d="M6554.942,3660.221c-1.885-3.557-7.968.373-6.672,2.818C6549.271,3664.929,6556.31,3662.8,6554.942,3660.221Z" fill="#1e5412" opacity="0.5"/>
              <path id="Path_1533" data-name="Path 1533" d="M6595.184,3627.368c1,1.892,4.819,2.832,4.52-.453C6599.487,3624.527,6594.007,3625.15,6595.184,3627.368Z" fill="#1e5412" opacity="0.5"/>
              <path id="Path_1534" data-name="Path 1534" d="M6597.507,3644.489c.893,1.689,4.98-.932,5.237-2.3C6603.406,3638.6,6595.263,3640.256,6597.507,3644.489Z" fill="#1e5412" opacity="0.5"/>
              <path id="Path_1535" data-name="Path 1535" d="M6604.193,3615.672c-.989-1.862-10.19,1.206-9.318,2.853C6596.172,3620.973,6606.427,3619.89,6604.193,3615.672Z" fill="#1e5412" opacity="0.5"/>
              <path id="Path_1536" data-name="Path 1536" d="M6559.861,3647.989c-1.062-2-6.575-.613-5.313,1.771C6555.723,3651.973,6561.1,3650.331,6559.861,3647.989Z" fill="#1e5412" opacity="0.5"/>
              <path id="Path_1537" data-name="Path 1537" d="M6605.88,3636.55c.835,1.58,2.913.1,2.077-1.476S6605.043,3634.975,6605.88,3636.55Z" fill="#1e5412" opacity="0.5"/>
              <path id="Path_1538" data-name="Path 1538" d="M6603.7,3625.267c1.393,2.625,9.946.736,9.027-1C6611.6,3622.143,6601.7,3621.5,6603.7,3625.267Z" fill="#1e5412" opacity="0.5"/>
              <path id="Path_1539" data-name="Path 1539" d="M6612.579,3634.031c1.365,2.577,11.061-2.748,11.375-5.021.2-1.461-5.457.6-6.691.445C6615.622,3629.254,6610.806,3630.686,6612.579,3634.031Z" fill="#1e5412" opacity="0.5"/>
              <path id="Path_1540" data-name="Path 1540" d="M6609.011,3616.229c-.585-.8-1.2.675-.9,1.255C6608.6,3618.4,6609.8,3617.3,6609.011,3616.229Z" fill="#1e5412" opacity="0.5"/>
              <path id="Path_1541" data-name="Path 1541" d="M6575.14,3660.039c1.467,1.126,8.942-3.207,7.842-5.46C6581.174,3654.13,6574.27,3656.44,6575.14,3660.039Z" fill="#1e5412" opacity="0.5"/>
              <path id="Path_1542" data-name="Path 1542" d="M6621.876,3615.1c-1.166-2.039-10.619-3.132-8.492.88C6614.447,3617.993,6621.473,3617.3,6621.876,3615.1Z" fill="#1e5412" opacity="0.5"/>
              <path id="Path_1543" data-name="Path 1543" d="M6621.348,3607.671c1.35.986,4.658,4.365,5.4.619a1.181,1.181,0,0,0-.013-.509,26.661,26.661,0,0,0-6.718-2.163c-1.611.073-2.8.432-2.472,1.041C6618.819,3609.073,6619.705,3606.467,6621.348,3607.671Z" fill="#1e5412" opacity="0.5"/>
              <path id="Path_1544" data-name="Path 1544" d="M6559.5,3639.353a3.263,3.263,0,0,0-2.7-1.244l-1.312.726a1.676,1.676,0,0,0,.249,1.171C6556.875,3642.151,6559.84,3639.991,6559.5,3639.353Z" fill="#1e5412" opacity="0.5"/>
              <path id="Path_1545" data-name="Path 1545" d="M6527.644,3656.309c.725,1.376,2.657,2.419,3.953,1.976,1.163-.4.547-1.723,1.011-2.65C6533.828,3653.221,6526.254,3653.688,6527.644,3656.309Z" fill="#1e5412" opacity="0.5"/>
              <path id="Path_1546" data-name="Path 1546" d="M6530.825,3681.906c1.877-4.634-13.282-3.173-10.091,2.845C6522.838,3688.726,6529.594,3684.945,6530.825,3681.906Z" fill="#1e5412" opacity="0.5"/>
              <path id="Path_1547" data-name="Path 1547" d="M6577.9,3633.479c-1.258-2.372-6.744-.4-5.3,2.323C6573.88,3638.221,6579.19,3635.919,6577.9,3633.479Z" fill="#1e5412" opacity="0.5"/>
              <path id="Path_1548" data-name="Path 1548" d="M6522.515,3667.7c-.83-1.567-2.9-.1-2.067,1.471S6523.346,3669.262,6522.515,3667.7Z" fill="#1e5412" opacity="0.5"/>
              <path id="Path_1549" data-name="Path 1549" d="M6546.847,3652.945c-1.8-3.385-8.8.451-7.638,2.653C6540.91,3658.808,6548.55,3656.162,6546.847,3652.945Z" fill="#1e5412" opacity="0.5"/>
              <path id="Path_1550" data-name="Path 1550" d="M6586.5,3630.321c-.548.151-1.358.556-.938,1.35C6586.963,3634.316,6587.509,3630.56,6586.5,3630.321Z" fill="#1e5412" opacity="0.5"/>
              <path id="Path_1551" data-name="Path 1551" d="M6581.794,3642.121c1.211,2.283,6.7-.885,4.649-2.15C6585.022,3639.092,6579.942,3638.626,6581.794,3642.121Z" fill="#1e5412" opacity="0.5"/>
              <path id="Path_1552" data-name="Path 1552" d="M6521.986,3657.369l-5.8,3.21C6517.675,3661.154,6520.431,3659.315,6521.986,3657.369Z" fill="#1e5412" opacity="0.5"/>
              <path id="Path_1553" data-name="Path 1553" d="M6599.52,3633.6c-.718-1.358-10.213-.388-8.471,3.608C6592.773,3640.46,6600.713,3635.848,6599.52,3633.6Z" fill="#1e5412" opacity="0.5"/>
              <path id="Path_1554" data-name="Path 1554" d="M6566.162,3639.826c2.232,4.206,4.117-.685,2.166-.928C6567.084,3638.742,6566.209,3638.584,6566.162,3639.826Z" fill="#1e5412" opacity="0.5"/>
              <path id="Path_1555" data-name="Path 1555" d="M6563.577,3654.065c0,.355.012.715.019,1.073a1.164,1.164,0,0,0,1.712.162C6564.981,3654.885,6564.1,3653.18,6563.577,3654.065Z" fill="#1e5412" opacity="0.5"/>
              <path id="Path_1556" data-name="Path 1556" d="M6540.122,3665.9c1.435-3.749-5.508-1.827-6.3-1.453-2.2,1.04-8.487.111-6.086,4.64C6529.5,3672.424,6538.833,3669.282,6540.122,3665.9Z" fill="#1e5412" opacity="0.5"/>
              <path id="Path_1557" data-name="Path 1557" d="M6536.877,3679.847c.8,1.518,2.991-.063,2.13-1.693C6538.059,3676.368,6536,3678.2,6536.877,3679.847Z" fill="#1e5412" opacity="0.5"/>
              <path id="Path_1558" data-name="Path 1558" d="M6532.014,3691.184c.487.926,2.52.733,1.831-.567C6533.143,3689.294,6532.147,3690.315,6532.014,3691.184Z" fill="#1e5412" opacity="0.5"/>
              <path id="Path_1559" data-name="Path 1559" d="M6630.334,3616.342q-.195-1.218-.435-2.37a1.7,1.7,0,0,0-.616,2.212C6629.445,3616.491,6629.9,3616.5,6630.334,3616.342Z" fill="#1e5412" opacity="0.5"/>
              <path id="Path_1560" data-name="Path 1560" d="M6567.8,3718.486a33.2,33.2,0,0,0,3.914-2.13C6570.117,3716.478,6568.385,3717.281,6567.8,3718.486Z" fill="#1e5412" opacity="0.5"/>
              <path id="Path_1561" data-name="Path 1561" d="M6569.437,3706.113c-1.338,1.168-5.92,1.37-4.069,4.863,2.027,3.823,10.953-3.493,9.352-6.513C6572.969,3701.157,6570.817,3704.918,6569.437,3706.113Z" fill="#1e5412" opacity="0.5"/>
              <path id="Path_1562" data-name="Path 1562" d="M6579.355,3701.521c2.357,4.45,8.5-5.219,7.674-5.789C6584.588,3694.063,6578.477,3698.1,6579.355,3701.521Z" fill="#1e5412" opacity="0.5"/>
              <path id="Path_1563" data-name="Path 1563" d="M6554.66,3707.386c1.941,3.665,9.67-3.165,9.4-6.086C6563.964,3700.2,6552.553,3703.408,6554.66,3707.386Z" fill="#1e5412" opacity="0.5"/>
              <path id="Path_1564" data-name="Path 1564" d="M6545.334,3708.4c.82-3.389-2.634-.916-2.169-.039C6543.814,3709.589,6544.819,3710.548,6545.334,3708.4Z" fill="#1e5412" opacity="0.5"/>
              <path id="Path_1565" data-name="Path 1565" d="M6593.869,3687.965a3.894,3.894,0,0,0-.675,1.265C6593.421,3688.806,6593.644,3688.383,6593.869,3687.965Z" fill="#1e5412" opacity="0.5"/>
              <path id="Path_1566" data-name="Path 1566" d="M6549.016,3698.978c.365.687,2.023-.071,2.327-.665C6550.36,3697.112,6547.4,3695.935,6549.016,3698.978Z" fill="#1e5412" opacity="0.5"/>
              <path id="Path_1567" data-name="Path 1567" d="M6544.245,3716.593c-2.142-.614-7.7-1.239-5.031,3.69,2.364,4.461,9.725.723,10.689-3.336C6550.8,3713.16,6545.19,3716.86,6544.245,3716.593Z" fill="#1e5412" opacity="0.5"/>
              <path id="Path_1568" data-name="Path 1568" d="M6545.63,3685.089c-1.807-.68-5.851-.792-3.984,2.87,2.29,4.324,11.109.4,9.54-2.561C6549.812,3682.858,6547.517,3685.8,6545.63,3685.089Z" fill="#1e5412" opacity="0.5"/>
              <path id="Path_1569" data-name="Path 1569" d="M6555.8,3720.222c.808,1.526,4.5,1.844,3.212-.587C6557.973,3717.677,6554.3,3717.287,6555.8,3720.222Z" fill="#1e5412" opacity="0.5"/>
              <path id="Path_1570" data-name="Path 1570" d="M6581.048,3691.691c-1.083-2.042-9.192.811-7.923,3.205C6575.024,3698.474,6581.991,3693.472,6581.048,3691.691Z" fill="#1e5412" opacity="0.5"/>
              <path id="Path_1571" data-name="Path 1571" d="M6586.369,3684.475c1.308,1.914,8.9-3.171,9.267-5.16C6592.865,3674.191,6586.142,3680.484,6586.369,3684.475Z" fill="#1e5412" opacity="0.5"/>
              <path id="Path_1572" data-name="Path 1572" d="M6622.264,3637.3c-.244.172-1.348-.827-1.9-.434-1.288.912-1.574,2.2-3.288,2.447-2.1.3-7.789.675-5.365,5.248,1.5,2.835,5.163-.356,5.933-2.141.907-2.107.758-1.965,2.718-3.3C6620.741,3638.86,6622.2,3638.061,6622.264,3637.3Z" fill="#1e5412" opacity="0.5"/>
              <path id="Path_1573" data-name="Path 1573" d="M6623.577,3644.608c-.794,1.607-.115,2.051-1.762,2.437-.847.2-3.243.3-2.441,1.808a3.359,3.359,0,0,0,2.6,1.89,62.435,62.435,0,0,0,5.342-9.423A10.935,10.935,0,0,0,6623.577,3644.608Z" fill="#1e5412" opacity="0.5"/>
              <path id="Path_1574" data-name="Path 1574" d="M6620.215,3623.15c.526.989,8.188.3,7.007-1.927C6627.135,3621.06,6619.507,3621.811,6620.215,3623.15Z" fill="#1e5412" opacity="0.5"/>
              <path id="Path_1575" data-name="Path 1575" d="M6629.482,3635.418c.309-1.087.578-2.176.779-3.269-1.075,1.226-1.984,2.552-1.932,2.928C6628.55,3635.493,6628.973,3635.565,6629.482,3635.418Z" fill="#1e5412" opacity="0.5"/>
              <path id="Path_1576" data-name="Path 1576" d="M6615.643,3655.049c-2.886-1.4-1.554,2.853-3.121,2.721-1.665-.144-3.05,2.227-3.732,3.556C6609.989,3663.589,6620.112,3657.216,6615.643,3655.049Z" fill="#1e5412" opacity="0.5"/>
              <path id="Path_1577" data-name="Path 1577" d="M6598.679,3662.385c-1.48-.134-3.1,1.924-4.005,3.014-.715.868-7.015,5.425-6.548,6.3,1.226,2.316,7.219,1,8.686.04,1.62-1.058,1.266-3.633.451-5.294-.484-.985,1.12-1.668,1.465-1.985C6599.128,3664.1,6599.806,3662.488,6598.679,3662.385Z" fill="#1e5412" opacity="0.5"/>
              <path id="Path_1578" data-name="Path 1578" d="M6599.524,3654.705c1.177,2.222,3.144,2.221,4.577.573,1.119-1.291,4.908-4.391,5.008-6.356C6609.419,3642.944,6597.506,3650.9,6599.524,3654.705Z" fill="#1e5412" opacity="0.5"/>
              <path id="Path_1579" data-name="Path 1579" d="M6599.781,3674.735a1.45,1.45,0,0,0,.924,1.1q.8-1.23,1.616-2.344a2.867,2.867,0,0,0-.244-.415C6601.12,3671.728,6599.373,3673.225,6599.781,3674.735Z" fill="#1e5412" opacity="0.5"/>
              <path id="Path_1580" data-name="Path 1580" d="M6602.141,3664.675c.825,1.554,2.88.095,2.056-1.465S6601.316,3663.116,6602.141,3664.675Z" fill="#1e5412" opacity="0.5"/>
              <path id="Path_1581" data-name="Path 1581" d="M6570.773,3678.053c1.01-3.032-3.8-1.813-2.74.19A1.49,1.49,0,0,0,6570.773,3678.053Z" fill="#1e5412" opacity="0.5"/>
              <path id="Path_1582" data-name="Path 1582" d="M6576.14,3650.1c-1.174-2.213-6.837-.471-5.94,1.224C6571.325,3653.442,6576.9,3651.523,6576.14,3650.1Z" fill="#1e5412" opacity="0.5"/>
              <path id="Path_1583" data-name="Path 1583" d="M6543.293,3698.621c-.818-1.54-6.516.657-8.117.524-1.887-.154-5.027.31-3.48,3.519C6532.829,3704.8,6545.2,3702.226,6543.293,3698.621Z" fill="#1e5412" opacity="0.5"/>
              <path id="Path_1584" data-name="Path 1584" d="M6591.349,3646.38c.416-1.817-5.057-1.531-3.9.647C6588.182,3648.417,6591.026,3647.823,6591.349,3646.38Z" fill="#1e5412" opacity="0.5"/>
              <path id="Path_1585" data-name="Path 1585" d="M6572.222,3664.329c1.115-4.729-8.047-.764-6.743,1.7C6566.729,3668.385,6571.692,3666.557,6572.222,3664.329Z" fill="#1e5412" opacity="0.5"/>
              <path id="Path_1586" data-name="Path 1586" d="M6588.284,3664.59c.247-1.348-3.176-1.257-3.611-.093-.944,2.5-4.4,1.112-5.45,3.385C6580.892,3670.064,6587.786,3667.262,6588.284,3664.59Z" fill="#1e5412" opacity="0.5"/>
              <path id="Path_1587" data-name="Path 1587" d="M6558.594,3670.063c-1.642-3.1-4.824.606-6.737.524-2.18-.091-8.29-.246-5.836,4.388C6548.706,3680.037,6560.445,3673.556,6558.594,3670.063Z" fill="#1e5412" opacity="0.5"/>
              <path id="Path_1588" data-name="Path 1588" d="M6593.543,3653.573c-1.428-2.621-5.238,2-4.295,3.788C6590,3658.784,6594.953,3656.162,6593.543,3653.573Z" fill="#1e5412" opacity="0.5"/>
              <path id="Path_1589" data-name="Path 1589" d="M6568.23,3687.125c-1.319-2.5-12.589.312-10.256,4.712C6560.241,3696.122,6568.837,3688.268,6568.23,3687.125Z" fill="#1e5412" opacity="0.5"/>
              <path id="Path_1590" data-name="Path 1590" d="M6569.141,3697.653c.243-2.193-2.7-1.064-1.937.374C6567.6,3698.775,6569.1,3698.639,6569.141,3697.653Z" fill="#1e5412" opacity="0.5"/>
              <path id="Path_1591" data-name="Path 1591" d="M6561.8,3679.443c-.971-1.832-3.075.186-2.328,1.593C6560.339,3682.67,6562.72,3681.173,6561.8,3679.443Z" fill="#1e5412" opacity="0.5"/>
              <path id="Path_1592" data-name="Path 1592" d="M6584.567,3678.011c-.691-1.868-12.417,2.284-10.149,6.564C6576.837,3689.143,6585.713,3681.656,6584.567,3678.011Z" fill="#1e5412" opacity="0.5"/>
              <path id="Path_1593" data-name="Path 1593" d="M6515.816,3690.162c-1.046-1.974-4.857-1.522-3.5,1.028C6513.256,3692.975,6516.9,3692.2,6515.816,3690.162Z" fill="#1e5412" opacity="0.5"/>
              <path id="Path_1594" data-name="Path 1594" d="M6526.15,3695.249c1.309-3.932-4.869-.8-5.642-.313-1.649,1.049-8.955,2.741-6.977,6.475C6516.3,3706.632,6524.982,3698.768,6526.15,3695.249Z" fill="#1e5412" opacity="0.5"/>
              <path id="Path_1595" data-name="Path 1595" d="M6516.917,3676.352c-1.4-2.635-10.417.4-8.267,4.456C6510.685,3684.65,6517.4,3677.265,6516.917,3676.352Z" fill="#1e5412" opacity="0.5"/>
              <path id="Path_1596" data-name="Path 1596" d="M6522.5,3715.07a54,54,0,0,0,4.748,2.862c3.443-.881,7.328-3.68,5.925-6.325C6532.84,3710.971,6523.571,3711.724,6522.5,3715.07Z" fill="#1e5412" opacity="0.5"/>
              <path id="Path_1597" data-name="Path 1597" d="M6524.6,3706.19c.561,1.058,1.349-.826.506-.955C6524.6,3705.27,6524.434,3705.586,6524.6,3706.19Z" fill="#1e5412" opacity="0.5"/>
              <path id="Path_1598" data-name="Path 1598" d="M6505.558,3683.7c-1.619-3.058-5.4.8-3.913,3.613C6503.449,3690.711,6507.373,3687.121,6505.558,3683.7Z" fill="#1e5412" opacity="0.5"/>
              <path id="Path_1599" data-name="Path 1599" d="M6503.287,3672.991c1.613,3.042,9.6-2.431,9.716-5.048C6513.14,3664.789,6500.268,3667.3,6503.287,3672.991Z" fill="#1e5412" opacity="0.5"/>
              <path id="Path_1600" data-name="Path 1600" d="M6498.792,3679.547c.76,1.435,2.317-1.275,1.68-2.472C6499.579,3675.39,6498.024,3678.1,6498.792,3679.547Z" fill="#1e5412" opacity="0.5"/>
              <path id="Path_1601" data-name="Path 1601" d="M6505.856,3696.688a1.253,1.253,0,0,0-1.737.207c.789,1.063,1.617,2.132,2.477,3.2C6507.083,3698.881,6507.066,3697.418,6505.856,3696.688Z" fill="#1e5412" opacity="0.5"/>
              <path id="Path_1602" data-name="Path 1602" d="M6582.332,3623.984c2.05,2.433,9.107,2.048,7.494-.994-.448-.845-1.705-1.3-3.085-1.444Z" fill="#1e5412" opacity="0.5"/>
            </g>
          </g>
        </g>
        <g id="Group_622" data-name="Group 622" opacity="0.6" style="mix-blend-mode: multiply;isolation: isolate">
          <path id="Path_1604" data-name="Path 1604" d="M6578.213,3645.164a39.058,39.058,0,0,0-10.331-20.553c.061.289.14.567.194.861,2.407,13.306-4.745,26.722-20.047,28.009-12.78,1.115-24.327-7.048-25.944-20.405a25.127,25.127,0,0,1,.969-10.535,37.474,37.474,0,0,0-13.944,34.049c2.43,20.07,19.78,32.335,38.982,30.659C6571.084,3685.315,6581.83,3665.158,6578.213,3645.164Z" fill="#01cb2d"/>
        </g>
        <g id="Group_623" data-name="Group 623" opacity="0.6" style="mix-blend-mode: multiply;isolation: isolate">
          <path id="Path_1605" data-name="Path 1605" d="M6578.214,3645.164c-3.6-19.876-19.8-32.987-38.89-29.832-19.031,3.147-32.647,21.189-30.214,41.259s19.78,32.334,38.982,30.658C6571.085,3685.315,6581.831,3665.158,6578.214,3645.164Zm-31.225,30.452c-16.1,1.4-30.64-8.876-32.676-25.7s9.374-31.947,25.326-34.585c16-2.645,29.578,8.345,32.6,25.006C6575.269,3657.1,6566.262,3674,6546.989,3675.616Z" fill="#01cb2d"/>
        </g>
        <ellipse id="Ellipse_23" data-name="Ellipse 23" cx="9.612" cy="5.997" rx="9.612" ry="5.997" transform="translate(6535.299 3620.011)" fill="#8cc63f" style="mix-blend-mode: screen;isolation: isolate"/>
        <g id="Group_624" data-name="Group 624">
          <path id="Path_1606" data-name="Path 1606" d="M6544.949,3614.864c16.577,0,30.022,12.41,33.265,30.3,3.617,19.994-7.129,40.151-30.122,42.085q-1.753.153-3.485.153c-17.775,0-33.215-11.964-35.5-30.811-2.433-20.07,11.184-38.112,30.214-41.259a34.5,34.5,0,0,1,5.625-.468m0-9.6a44.328,44.328,0,0,0-7.19.6,45.579,45.579,0,0,0-29.311,18.049,47.141,47.141,0,0,0-8.868,33.837,44.121,44.121,0,0,0,15.295,28.669A46.2,46.2,0,0,0,6544.607,3697c1.431,0,2.884-.064,4.319-.189,12.494-1.051,23.327-6.767,30.476-16.093,7.712-10.063,10.722-23.645,8.258-37.265-4.076-22.488-21.639-38.191-42.711-38.191Z" fill="#fff"/>
          <path id="Path_1607" data-name="Path 1607" d="M6544.949,3614.864c16.577,0,30.021,12.41,33.265,30.3,3.617,19.994-7.129,40.151-30.122,42.085q-1.753.153-3.485.153c-17.775,0-33.215-11.964-35.5-30.811-2.433-20.07,11.184-38.112,30.214-41.259a34.5,34.5,0,0,1,5.625-.468m0-8a42.585,42.585,0,0,0-6.929.575,43.981,43.981,0,0,0-28.285,17.421,45.55,45.55,0,0,0-8.567,32.693,42.53,42.53,0,0,0,14.736,27.637,44.6,44.6,0,0,0,28.7,10.212c1.385,0,2.792-.062,4.181-.183,12.218-1.028,22.374-6.379,29.344-15.473,7.438-9.705,10.338-22.829,7.954-36.006-3.936-21.713-20.852-36.876-41.137-36.876Z"/>
        </g>
      </g>
    </g>
  </g>
</svg>
