<svg id="fb2" xmlns="http://www.w3.org/2000/svg" xmlns:xlink="http://www.w3.org/1999/xlink" width="56.248" height="54.188" viewBox="0 0 56.248 54.188">
  <defs>
    <linearGradient id="linear-gradient" x1="0.5" y1="0.016" x2="0.5" y2="1.277" gradientUnits="objectBoundingBox">
      <stop offset="0" stop-color="#00ffd5"/>
      <stop offset="1" stop-color="#01cb2d"/>
    </linearGradient>
  </defs>
  <g id="Group_472" data-name="Group 472" transform="translate(-671.3 -1364.484)">
    <g id="Group_471" data-name="Group 471">
      <path id="Path_777" data-name="Path 777" d="M698.121,1416.092a27.456,27.456,0,1,1,6.339-.856A24.267,24.267,0,0,1,698.121,1416.092Z" fill="#ff0085"/>
      <path id="Path_778" data-name="Path 778" d="M700.727,1369.645a24.9,24.9,0,1,1-5.8.8,21.683,21.683,0,0,1,5.8-.8m0-5.161a26.81,26.81,0,1,0,26.821,26.821,26.707,26.707,0,0,0-26.821-26.821Z" fill="#fff"/>
      <path id="Path_779" data-name="Path 779" d="M700.727,1369.645a24.9,24.9,0,1,1-5.8.8,21.683,21.683,0,0,1,5.8-.8m0-3.613a25.158,25.158,0,0,0-6.553.877,25.23,25.23,0,1,0,6.553-.877Z"/>
    </g>
  </g>
  <path id="Path_780" data-name="Path 780" d="M700.727,1373.086a18.208,18.208,0,1,0,18.219,18.219A18.134,18.134,0,0,0,700.727,1373.086Z" transform="translate(-671.3 -1364.484)"/>
  <circle id="Ellipse_12" data-name="Ellipse 12" cx="17.359" cy="17.359" r="17.359" transform="translate(12.068 9.462)" fill="url(#linear-gradient)"/>
  <path id="Path_60" data-name="Path 60" d="M707.531,1380.006v2.863a.386.386,0,0,1-.01.147.239.239,0,0,1-.14.014q-.809,0-1.624,0c-.136,0-.275,0-.411.007a3.167,3.167,0,0,0-.835.156,1.894,1.894,0,0,0-1.247,1.262,2.509,2.509,0,0,0-.119.762q0,1.336,0,2.675a.172.172,0,0,0,.009.092c.023.024.052.016.08.016h3.96a.424.424,0,0,1,.159.015c-.01.071-.017.137-.029.2-.211,1.314-.424,2.633-.637,3.942a.175.175,0,0,1-.132.024h-3.377c-.04.026-.033.054-.033.08v11.924h-4.758V1392.2a.353.353,0,0,0-.161-.017h-3.667c-.033-.026-.023-.056-.025-.082v-4.08a.306.306,0,0,1,.147-.019h3.679a.1.1,0,0,0,.027-.094v-3.095c0-.281.018-.56.045-.836a6.264,6.264,0,0,1,.208-1.094,5.031,5.031,0,0,1,.805-1.665c.025-.033.05-.067.078-.1a4.693,4.693,0,0,1,1.86-1.415,6.039,6.039,0,0,1,1.425-.413,8.744,8.744,0,0,1,1.473-.107c.314,0,.627.017.94.035.369.022.739.055,1.105.1.251.026.5.057.746.089l.228.029c.07.009.139.023.2.032.033.026.025.055.027.08Z" transform="translate(-672.3 -1364.484)" fill="#ff0085"/>
  <path id="Path_781" data-name="Path 781" d="M705.27,1376.744c2.2,0,6.808,2.749,8.022,5.71" transform="translate(-671.3 -1364.484)" fill="none" stroke="#fff" stroke-width="1.72"/>
</svg>
