<svg xmlns="http://www.w3.org/2000/svg" xmlns:xlink="http://www.w3.org/1999/xlink" width="360" height="1011.556" viewBox="0 0 360 1011.556">
  <defs>
    <clipPath id="clip-path">
      <rect id="Rectangle_415" data-name="Rectangle 415" width="360" height="1011.556" transform="translate(0 6294.522)" fill="none"/>
    </clipPath>
    <linearGradient id="linear-gradient" x1="0.497" y1="-0.092" x2="0.497" y2="1.204" gradientUnits="objectBoundingBox">
      <stop offset="0" stop-color="#00ffd5"/>
      <stop offset="0.92" stop-color="#01cf3b"/>
      <stop offset="1" stop-color="#01cb2d"/>
    </linearGradient>
  </defs>
  <g id="Group_9994" data-name="Group 9994" transform="translate(0 -6294.522)" clip-path="url(#clip-path)">
    <g id="Group_9993" data-name="Group 9993">
      <g id="Group_9992" data-name="Group 9992">
        <path id="Path_23364" data-name="Path 23364" d="M125.834,7780.7c-58.532,0-133.2-4.506-191.557-39.642a186.993,186.993,0,0,1-69.172-72.872c-18.247-34.035-28.671-76.842-30.98-127.228-1.6-34.829-.866-308.17-.159-572.511.516-193.2,1-375.689.524-447.621-.521-77.96,12.717-126.286,42.922-156.693,42.24-42.523,117.528-50.842,233.3-50.842q7.41,0,15.073.046c3.185.02,7.244.034,12.075.051,58.4.207,213.544.755,315.738,13.056,9.316,1.122,20.361,13.69,33.556,149.489,7.909,81.386,15.212,194.261,21.707,335.488,11.947,259.754,18.049,549.275,17.725,689.809-.242,104.9-9.763,173.425-57.715,213.225-23.229,19.279-55.067,31.859-100.2,39.589-36.843,6.309-82.494,9.513-145.871,10.15,8.99.825,17.345,1.6,23.528,2.23,3.729.381,6.459.688,8.346.939,2.828.376,7.562,1.006,7.343,5.789-.229,4.994-5.078,4.994-8.619,4.994-.729,0-1.577-.007-2.538-.019q-3.966-.057-8.062-.054c-16.1,0-33.638.586-52.211,1.207C169.7,7779.981,148.109,7780.7,125.834,7780.7Z" fill="url(#linear-gradient)"/>
        <path id="Path_23365" data-name="Path 23365" d="M110.71,6318.294q7.4,0,15.044.047c39.835.238,216.476-.263,327.246,13.07,43.539,5.241,69.24,885.47,68.585,1169.81-.494,214.239-40.75,258.095-323.558,258.095-5.185,0-10.492-.015-15.842-.043q-3.465-.02-6.517-.019c-97.311,0,110.917,13.9,77.729,13.9q-1.063,0-2.467-.019-4-.056-8.13-.054c-34.157,0-74.8,2.627-116.966,2.627-131.257,0-277.113-25.476-286.714-234.972-2.763-60.272,1.5-850.291.37-1019.935-1.164-174.347,64.7-202.5,271.22-202.5m0-10c-66.045,0-111.063,3.018-145.968,9.787-41.093,7.969-69.97,21.483-90.877,42.53-16.264,16.372-27.64,37.411-34.779,64.318-6.719,25.325-9.858,56.7-9.6,95.933.48,71.91-.008,254.388-.524,447.582-.707,264.4-1.437,537.8.164,572.745,2.344,51.14,12.965,94.664,31.568,129.363a191.92,191.92,0,0,0,71,74.793c59.41,35.771,134.957,40.358,194.136,40.358,22.359,0,44-.724,64.922-1.423,18.529-.619,36.031-1.2,52.044-1.2,2.759,0,5.448.018,7.991.053q1.483.02,2.606.02c1.47,0,2.541-.024,3.372-.077,7.757-.49,10.088-6.32,10.242-9.688a10.446,10.446,0,0,0-1.15-5.108c42.236-1.455,75.473-4.477,103.65-9.3,46.031-7.884,78.617-20.807,102.549-40.67,49.461-41.05,59.279-110.673,59.525-217.058.324-140.594-5.78-430.219-17.73-690.05-6.5-141.313-13.809-254.272-21.725-335.742-4.452-45.813-9.108-81.422-13.838-105.836-2.614-13.49-5.227-23.589-7.989-30.873-1.665-4.391-6.087-16.055-16.108-17.261-102.483-12.336-257.835-12.885-316.318-13.092-4.826-.017-8.882-.031-12.063-.05-5.2-.031-10.285-.047-15.1-.047Z" fill="#fff"/>
        <path id="Path_23366" data-name="Path 23366" d="M110.71,6318.294q7.4,0,15.044.047c39.835.238,216.476-.263,327.246,13.07,43.539,5.241,69.24,885.47,68.585,1169.81-.494,214.239-40.75,258.095-323.558,258.095-5.185,0-10.492-.015-15.842-.043q-3.465-.02-6.517-.019c-97.311,0,110.917,13.9,77.729,13.9q-1.063,0-2.467-.019-4-.056-8.13-.054c-34.157,0-74.8,2.627-116.966,2.627-131.257,0-277.113-25.476-286.714-234.972-2.763-60.272,1.5-850.291.37-1019.935-1.164-174.347,64.7-202.5,271.22-202.5m0-8c-65.912,0-110.813,3.007-145.588,9.75-40.68,7.889-69.227,21.227-89.838,41.976-16.01,16.117-27.218,36.863-34.265,63.422-6.673,25.151-9.79,56.359-9.529,95.407.48,71.918-.008,254.4-.524,447.6-.707,264.373-1.437,537.747.162,572.648,2.33,50.839,12.872,94.076,31.333,128.509a189.934,189.934,0,0,0,70.268,74.025c58.989,35.517,134.185,40.072,193.105,40.072,22.326,0,43.946-.723,64.855-1.422,18.547-.62,36.065-1.2,52.111-1.2,2.769,0,5.467.018,8.019.053q1.467.02,2.578.02c1.427,0,2.458-.023,3.246-.073,7.811-.493,8.336-7.038,8.37-7.783a8.241,8.241,0,0,0-3.316-6.88c44.1-1.4,78.483-4.446,107.477-9.412,45.671-7.822,77.958-20.607,101.609-40.237,48.858-40.55,58.558-109.731,58.8-215.524.324-140.57-5.779-430.154-17.728-689.954-6.5-141.278-13.8-254.2-21.718-335.64-4.445-45.75-9.092-81.3-13.811-105.649-6.339-32.718-12.4-45.328-22.372-46.528-102.368-12.322-257.634-12.871-316.086-13.078-4.828-.017-8.885-.031-12.068-.05-5.2-.031-10.277-.047-15.092-.047Z"/>
      </g>
    </g>
  </g>
</svg>
