<svg id="Group_7336" data-name="Group 7336" xmlns="http://www.w3.org/2000/svg" xmlns:xlink="http://www.w3.org/1999/xlink" width="249" height="142.474" viewBox="0 0 249 142.474">
  <defs>
    <clipPath id="clip-path">
      <rect id="Rectangle_1468" data-name="Rectangle 1468" width="249" height="142.474" fill="none"/>
    </clipPath>
  </defs>
  <g id="Group_7335" data-name="Group 7335" clip-path="url(#clip-path)">
    <path id="Path_17377" data-name="Path 17377" d="M643.7,108.269q.165-1.555.33-3.111,3.041-28.521,6.05-57.041c1.32.66,2.624,1.3,3.928,1.964q-1.956-3.559-3.928-7.119c.016-2.8.031-5.594.031-8.375,1.3.817,2.609,1.65,3.9,2.483-1.383-3.441-2.781-6.883-4.164-10.308C649.391,24.53,646.437,8.8,655,1.713,656.133.77,657.123-.016,658.443,0c5.311.031,10.167,13.011,12.9,25.221a105.992,105.992,0,0,1,2.074,12.823c2.75,30.783-17.458,57.01-29.715,70.225" transform="translate(-476.205 0)" fill="#e8402e"/>
    <path id="Path_17378" data-name="Path 17378" d="M662.949,26.814c.162-.03,1.971,7.006,3.072,15.8a129.032,129.032,0,0,1-2.254,44.878c-.9,3.957-1.819,7.118-2.4,9.022a127.866,127.866,0,0,1-12.78,28.689c-.248.413-.457.755-.6.988a159.883,159.883,0,0,0,6.734-14.56,157.956,157.956,0,0,0,5.338-15.5c1.228-4.29,1.985-7.636,2.276-8.956A146.542,146.542,0,0,0,665.145,42.7c-.843-9.329-2.352-15.862-2.2-15.89" transform="translate(-479.374 -19.836)" fill="#ff5450"/>
    <path id="Path_17379" data-name="Path 17379" d="M698.718,84.592c-5.562,12.54-9.617,19.784-12.131,23.728a31.366,31.366,0,0,1-2.954,4.148c-14.189,15.07-31.318,26.588-38.059,30.925q2.475-5.445,4.95-10.905Q663.771,103.331,677,74.158c1.147,1.729,2.294,3.442,3.441,5.17-.566-4.18-1.147-8.36-1.713-12.524a39.37,39.37,0,0,1,6.128-16.452c1.769-2.647,2.588-3.1,3.035-3.174,0,0,.084-.012.155-.016,2.231-.131,8.094,10.735,8.777,23.242a39.121,39.121,0,0,1-.548,9.285,38.147,38.147,0,0,1-2.084,7.244l4.526-2.341" transform="translate(-477.589 -34.889)" fill="#87c1ba"/>
    <path id="Path_17380" data-name="Path 17380" d="M694.678,75.724c.073,2.332.093,5.491-.122,9.224a102.846,102.846,0,0,1-6.547,30.738,102.593,102.593,0,0,1-13.232,24.379,107.357,107.357,0,0,1-10.561,12.095,97.253,97.253,0,0,1-8.555,7.438c-2.165,1.67-3.458,2.546-3.458,2.546s1.21-.989,3.263-2.783,4.9-4.448,8.12-7.822a111.563,111.563,0,0,0,23.056-36.377,118.372,118.372,0,0,0,4.056-12.593,125.006,125.006,0,0,0,3.278-17.67c.418-3.706.608-6.851.7-9.175" transform="translate(-482.494 -56.02)" fill="#b3e0da"/>
    <path id="Path_17381" data-name="Path 17381" d="M767.138,230.96a18.862,18.862,0,0,1,3.633-4.717c1.052-.989,3.753-3.527,5.11-2.776.771.427.8,1.745.809,2.334.078,4.006-3.671,7.1-4.927,8.061q3.12-1.039,3.394-.533.4.744-5.362,4.834c.59-.031,2.725-.094,3.28.995.229.45.378,1.466-2.1,4.266a32.081,32.081,0,0,1-10.639,7.708c2.421-.034,4.235.567,4.537,1.6.352,1.208-1.442,2.673-2.291,3.367-4.957,4.051-14.693,4.6-20.444,4.592,2.825,1.458,3.33,2.308,3.23,2.821-.413,2.108-11.759,2.192-21.3.264a61.582,61.582,0,0,1-10.768-3.225c7.688-11.128,13.5-14.923,16.436-16.391,1.224-.613,3.868-1.935,4.794-1.018,1.131,1.12-1.017,4.87-1.212,5.2q9.466-13.225,11.644-12.117,1.4.71-.2,7.308a51.98,51.98,0,0,1,5.6-8.453c2.848-3.491,3.714-3.585,4.153-3.45,1.618.5,1.365,5.325,1.341,5.728q3.8-12.062,5.892-11.773,1.246.173,1.882,4.736a13.268,13.268,0,0,1,2.09-3.137c.74-.819,1.087-.982,1.371-.918.638.145.816,1.409.849,1.636a4.512,4.512,0,0,1-.793,3.049" transform="translate(-527.691 -165.218)" fill="#8977aa"/>
    <path id="Path_17382" data-name="Path 17382" d="M783.619,244.776a61.13,61.13,0,0,1-5.871,8.248,62.016,62.016,0,0,1-12.07,10.932A62.836,62.836,0,0,1,729.307,275.1a78.316,78.316,0,0,0,14.645-2.752,76.727,76.727,0,0,0,10.479-3.864,74.464,74.464,0,0,0,10.4-5.778,65.35,65.35,0,0,0,12.269-10.269s.392-.424,6.525-7.657" transform="translate(-539.534 -181.083)" fill="#a797c9"/>
    <path id="Path_17383" data-name="Path 17383" d="M240.646,178.1c-.424.361-.88.738-1.383,1.116-7.024,5.421-21.371,12.1-34.932,15.792A140.334,140.334,0,0,1,187.14,199a42.706,42.706,0,0,1-18.165-1.037c-8.737-2.5-9.774-5.8-21.607-9.083a87.353,87.353,0,0,0-25.048-2.954A101.338,101.338,0,0,0,96.3,189.366c-12.178,3.379-12.9,6.3-21.607,8.6a43.839,43.839,0,0,1-13.074,1.4c-7.527-.267-14.677-2.278-22.282-4.353C19.819,189.68-1.347,178.194.067,173.165c.5-1.823,3.787-2.263,6.128-2.7,29.856-5.7,52.641-38.341,54.778-41.406,9.68-13.954,10.544-15.148,12.115-17.332,2.844-3.96,4.6-6.412,7.275-9.743,2.451-3.08,6.176-7.558,10.528-12.052,1.226-1.257,15.18-15.022,18.668-12.524,2.593,1.87-3.944,10.2,0,17.191,2.4,4.243,7.841,6.521,12.759,6.38,4.793-.125,10.057-2.546,12.288-6.867,3.614-7.024-2.907-14.912-.5-16.7,3.379-2.5,17.819,11.66,18.668,12.524,4.353,4.494,8.077,8.957,10.544,12.052,2.656,3.331,4.416,5.783,7.276,9.743,1.556,2.168,2.42,3.379,12.1,17.332,2.137,3.064,24.922,35.7,54.778,41.406,2.357.44,5.625.88,6.144,2.7.361,1.289-.77,3-2.97,4.934" transform="translate(0 -57.04)" fill="#232023"/>
    <path id="Path_17384" data-name="Path 17384" d="M912.027,462.561c-.424.361-.88.738-1.383,1.116-.77-.141-1.6-.3-2.5-.5a.791.791,0,0,1-.6-.943.8.8,0,0,1,.943-.6c1.115.251,2.137.456,3.033.613a.741.741,0,0,1,.5.314" transform="translate(-671.381 -341.502)" fill="#8977aa"/>
    <path id="Path_17385" data-name="Path 17385" d="M269.885,203.231a.788.788,0,0,1-.232-.035c-1.667-.514-3.327-1.088-4.936-1.7q-.548-.208-1.088-.426a.785.785,0,1,1,.585-1.458q.528.211,1.065.416c1.577.6,3.205,1.166,4.838,1.671a.786.786,0,0,1-.232,1.536m-216.293-.469a.785.785,0,0,1-.264-1.525c1.024-.366,2.088-.767,3.182-1.208q1.348-.541,2.64-1.115a.786.786,0,1,1,.637,1.436q-1.318.585-2.69,1.136-1.671.673-3.24,1.229a.783.783,0,0,1-.264.046m204.559-4.227a.774.774,0,0,1-.35-.083c-1.89-.943-3.773-1.979-5.6-3.081a.785.785,0,1,1,.812-1.344c1.788,1.079,3.633,2.1,5.485,3.02a.786.786,0,0,1-.351,1.488m-193-.893a.786.786,0,0,1-.372-1.479c1.825-.977,3.645-2.041,5.412-3.162a.786.786,0,0,1,.843,1.327c-1.8,1.141-3.654,2.224-5.512,3.22a.783.783,0,0,1-.371.093M247.328,192a.779.779,0,0,1-.456-.147c-1.7-1.211-3.4-2.521-5.055-3.9a.786.786,0,0,1,1-1.211c1.631,1.351,3.3,2.639,4.966,3.828a.786.786,0,0,1-.457,1.425m-171.5-1.131a.786.786,0,0,1-.467-1.418c1.651-1.218,3.307-2.528,4.921-3.892a.786.786,0,1,1,1.014,1.2c-1.64,1.386-3.322,2.718-5,3.957a.781.781,0,0,1-.466.154m161.742-6.916a.784.784,0,0,1-.537-.212c-1.449-1.356-2.892-2.772-4.541-4.457a.786.786,0,0,1,1.123-1.1c1.632,1.667,3.059,3.068,4.491,4.408a.785.785,0,0,1-.537,1.359M85.5,182.72a.786.786,0,0,1-.542-1.355c1.419-1.349,2.836-2.761,4.459-4.443a.786.786,0,0,1,1.131,1.091c-1.64,1.7-3.072,3.126-4.507,4.49a.786.786,0,0,1-.542.216m143.191-7.772a.783.783,0,0,1-.579-.254c-1.423-1.547-2.831-3.159-4.188-4.794a.786.786,0,0,1,1.209-1c1.34,1.614,2.731,3.206,4.136,4.734a.786.786,0,0,1-.578,1.318M94.3,173.631a.786.786,0,0,1-.586-1.309c1.382-1.549,2.751-3.162,4.068-4.793a.786.786,0,0,1,1.223.988c-1.333,1.651-2.719,3.283-4.119,4.852a.786.786,0,0,1-.586.263m126.3-8.411a.785.785,0,0,1-.628-.313c-1.207-1.6-2.424-3.287-3.723-5.152a.785.785,0,0,1,1.289-.9c1.288,1.847,2.494,3.517,3.689,5.1a.786.786,0,0,1-.627,1.258M102.252,163.8a.786.786,0,0,1-.632-1.251c1.32-1.793,2.524-3.51,3.643-5.141a.785.785,0,1,1,1.3.888c-1.129,1.645-2.342,3.376-3.672,5.184a.785.785,0,0,1-.634.32m111.084-8.93a.786.786,0,0,1-.654-.348c-1.3-1.934-2.422-3.689-3.446-5.328a.786.786,0,0,1,1.332-.833c1.017,1.627,2.134,3.367,3.42,5.286a.785.785,0,0,1-.652,1.223M109.444,153.39a.786.786,0,0,1-.656-1.217c1.266-1.926,2.364-3.674,3.375-5.318a.786.786,0,0,1,1.338.824c-1.019,1.656-2.125,3.416-3.4,5.356a.784.784,0,0,1-.658.354m97.161-9.224a.786.786,0,0,1-.673-.379c-1.091-1.8-2.153-3.543-3.321-5.349a.786.786,0,1,1,1.32-.853c1.176,1.82,2.247,3.575,3.346,5.389a.786.786,0,0,1-.672,1.192m-90.489-1.513a.785.785,0,0,1-.67-1.2c.933-1.528,2.066-3.359,3.4-5.362a.786.786,0,1,1,1.307.872c-1.321,1.979-2.444,3.795-3.369,5.309a.785.785,0,0,1-.671.376m42.5-8.121a19.6,19.6,0,0,1-6.455-1.362.786.786,0,0,1,.588-1.458,17.984,17.984,0,0,0,5.907,1.249.786.786,0,0,1-.039,1.57m6.317-.226a.786.786,0,0,1-.1-1.565A16.711,16.711,0,0,0,170.589,131a.786.786,0,0,1,.726,1.393,18.225,18.225,0,0,1-6.287,1.91.69.69,0,0,1-.1.006m34.77-.724a.783.783,0,0,1-.637-.325c-1-1.381-2.043-2.753-3.18-4.195l-.635-.8a.786.786,0,0,1,1.226-.982l.643.808c1.151,1.458,2.2,2.846,3.219,4.245a.786.786,0,0,1-.635,1.247m-76.549-1.426a.785.785,0,0,1-.628-1.256c.672-.9,1.389-1.832,2.162-2.812q.882-1.116,1.766-2.192a.786.786,0,1,1,1.214,1q-.872,1.062-1.746,2.169c-.764.968-1.473,1.891-2.137,2.778a.784.784,0,0,1-.63.315m23.927-2.222a.783.783,0,0,1-.515-.192,14.794,14.794,0,0,1-3.971-5.3.786.786,0,1,1,1.442-.623,13.243,13.243,0,0,0,3.558,4.737.786.786,0,0,1-.515,1.38m28.916-1.231a.785.785,0,0,1-.578-1.317,12.691,12.691,0,0,0,2.435-3.773,11.561,11.561,0,0,0,.462-1.361.785.785,0,1,1,1.516.411,12.979,12.979,0,0,1-.525,1.547,14.269,14.269,0,0,1-2.731,4.239.783.783,0,0,1-.578.254m15.8-4.994a.783.783,0,0,1-.589-.266c-1.512-1.715-2.957-3.252-4.3-4.57a.786.786,0,1,1,1.1-1.12c1.367,1.343,2.837,2.909,4.374,4.651a.786.786,0,0,1-.589,1.3m-60.6-1.32a.786.786,0,0,1-.581-1.314c1.6-1.756,3.106-3.291,4.482-4.563a.786.786,0,0,1,1.066,1.154c-1.343,1.241-2.818,2.744-4.386,4.467a.784.784,0,0,1-.581.257m11.167-3.664a.8.8,0,0,1-.784-.844c.05-.671.131-1.285.2-1.836a13.018,13.018,0,0,0,.147-1.505c0-.339-.052-.491-.1-.52-.086-.054-.277-.092-.823.111a.786.786,0,0,1-.552-1.472,2.45,2.45,0,0,1,2.209.029,2.08,2.08,0,0,1,.835,1.851,13.852,13.852,0,0,1-.16,1.71c-.069.525-.147,1.11-.194,1.748a.785.785,0,0,1-.782.727m36.117-2.442a14.11,14.11,0,0,1-.166-1.747,2.075,2.075,0,0,1,.834-1.847c.892-.553,2.15-.281,3.925.879a.786.786,0,0,1-.859,1.315,4.266,4.266,0,0,0-2.049-.9.382.382,0,0,0-.186.037c-.044.028-.093.2-.093.513a12.376,12.376,0,0,0,.146,1.491Z" transform="translate(-39.066 -83.163)" fill="#8977aa"/>
    <path id="Path_17386" data-name="Path 17386" d="M18.129,463.382a.786.786,0,0,1-.177-1.551c.9-.209,1.907-.461,3.015-.763a.786.786,0,0,1,.413,1.517c-1.128.307-2.157.564-3.072.776a.754.754,0,0,1-.179.021" transform="translate(-12.831 -341.073)" fill="#8977aa"/>
    <path id="Path_17387" data-name="Path 17387" d="M397.149,318.087c3.394.848,4.773-1.7,15.228-6.994,0,0,7.245-3.668,11.26-7.639a4.681,4.681,0,0,0,1.042-1.488,7.735,7.735,0,0,0,.4-2.084,4.46,4.46,0,0,1,3.274-3.274c.989-.193,2.43-.007,2.976.893a2.16,2.16,0,0,1,.248,1.24c-.064.739-.473.947-.645,1.934a1.663,1.663,0,0,0,0,.992c.233.561.765.509,1.066,1a1.815,1.815,0,0,1-.223,1.9c-.512.658-1.394.709-2.43.769a7.1,7.1,0,0,1-1.389-.05c-2.375-.359-11.03,5.178-14.931,7.391-1.507.855-9.892,5.52-12.7,7.838a5.247,5.247,0,0,0-1.339,1.488c-.892,1.568-.218,2.592-1.091,3.72a2.743,2.743,0,0,1-2.48,1.091,2.713,2.713,0,0,1-2.083-2.331c-.109-1.121.769-1.462.546-2.381-.262-1.08-1.588-1.08-1.835-2.183a2.112,2.112,0,0,1,.645-1.885c1.148-1.054,3.418-.212,4.464.05" transform="translate(-290 -219.377)" fill="#fff"/>
    <path id="Path_17388" data-name="Path 17388" d="M403.816,332.105c-1.068-3.331-3.96-3.161-13.969-9.258,0,0-6.935-4.224-12.426-5.545a4.673,4.673,0,0,0-1.814-.1,7.73,7.73,0,0,0-1.98.761,4.665,4.665,0,0,1-4.508-1.058,2.727,2.727,0,0,1-1.037-2.158,2.1,2.1,0,0,1,.744-1.265c1.264-1.018,3.057.022,3.571-.744.38-.565-.478-1.308-.046-2.126a1.814,1.814,0,0,1,1.73-.81c.829.089,1.337.811,1.934,1.661a7.128,7.128,0,0,1,.69,1.207c.946,2.208,10.212,6.646,14.149,8.8,1.521.83,9.9,5.5,13.352,6.663a5.248,5.248,0,0,0,1.971.354c1.8-.068,2.318-1.181,3.737-1.033a2.742,2.742,0,0,1,2.234,1.533,2.713,2.713,0,0,1-.884,3c-.9.683-1.647.117-2.311.791-.78.792-.081,1.919-.888,2.71a2.114,2.114,0,0,1-1.942.445c-1.5-.42-1.981-2.793-2.31-3.82" transform="translate(-272.293 -229.18)" fill="#fff"/>
    <path id="Path_17389" data-name="Path 17389" d="M434.839,247.081c-.428-1.512-1.137-1.8-2.155-3.792-1.06-2.083-.571-2.327-1.339-3.571-1.488-2.4-4.351-3.155-5.655-3.5a12.174,12.174,0,0,0-6.1,0c-1.339.351-5.137,1.6-6.845,4.839-.548,1.036-.435,1.429-1.339,3.125-1.06,1.976-1.631,2.208-1.935,3.494a6.478,6.478,0,0,0,2.976,6.774,5.939,5.939,0,0,0,3.2.744,11.472,11.472,0,0,0-.667,1.488,5.624,5.624,0,0,0-.524,2.006c.06.494.518.958,1.238,1.357a10.916,10.916,0,0,1,.744-1.78,6.97,6.97,0,0,1,1.369-2.447.336.336,0,0,1,.571.232,6.854,6.854,0,0,1-.851,2.679,10.744,10.744,0,0,1-.792,1.78,14.1,14.1,0,0,0,2.851.684,8.933,8.933,0,0,1,.25-2.172,10.766,10.766,0,0,1,.7-2.845.321.321,0,0,1,.584.071,10.726,10.726,0,0,1-.173,2.923,8.9,8.9,0,0,1-.387,2.131c.542.048,1.089.072,1.637.066.429-.006.857-.024,1.286-.066a14.723,14.723,0,0,1-.232-2.226,9.212,9.212,0,0,1,.053-2.97.342.342,0,0,1,.619-.078,9.074,9.074,0,0,1,.589,2.827,15.86,15.86,0,0,1,.179,2.3,16.138,16.138,0,0,0,2.518-.6,15.5,15.5,0,0,1-.637-1.994,7.979,7.979,0,0,1-.553-2.917c.03-.274.375-.494.6-.25a7.778,7.778,0,0,1,1.244,2.6,16.148,16.148,0,0,1,.679,2.03c1.03-.494,1.685-1.078,1.7-1.643a7.3,7.3,0,0,0-.744-1.709c-.351-.72-.667-1.3-.893-1.714,3.024-.381,5.512-2.018,6.25-4.316a6.556,6.556,0,0,0,0-3.572m-15.326,2.68c-.965.979-5.459-.576-6.1-3.348-.22-.951-.048-2.3.744-2.753,1.119-.639,2.94.82,3.72,1.637,1.308,1.369,2.359,3.731,1.637,4.464m3.274,3.274a1.453,1.453,0,0,1-1.934-.074c-.11-.135-.242-.39.223-2.232.338-1.339.512-2.009.744-2.009s.409.67.744,2.009c.486,1.939.325,2.193.223,2.307m3.348-3.2a2.267,2.267,0,0,1-1.562-.744c-.349-.386-.7-1.073-.521-2.753.139-1.293.58-5.4,3.125-6.027a2.983,2.983,0,0,1,2.9.818c1.886,2.311-1.431,8.715-3.943,8.706" transform="translate(-302.815 -174.464)" fill="#fff"/>
    <path id="Path_17390" data-name="Path 17390" d="M362.324,476.615a42.71,42.71,0,0,1-18.165-1.037c-8.737-2.5-9.774-5.8-21.607-9.083a87.343,87.343,0,0,0-25.048-2.954,101.341,101.341,0,0,0-26.022,3.441c-12.178,3.379-12.9,6.3-21.607,8.6a43.839,43.839,0,0,1-13.074,1.4c3.756-3.928,9.051-7.731,13.247-10.748,38.185-27.5,86.127-5.83,89.035-4.463,9.1,4.29,20.1,9.476,23.241,14.85" transform="translate(-175.184 -334.656)" fill="#161416"/>
    <path id="Path_17391" data-name="Path 17391" d="M271.529,485.879l-4.5-2.023,2.024-4.5a.786.786,0,0,0-1.433-.645l-2.024,4.5-4.5-2.024a.786.786,0,1,0-.644,1.433l4.5,2.024-2.024,4.5a.786.786,0,0,0,1.433.645l2.024-4.5,4.5,2.024a.786.786,0,1,0,.645-1.433" transform="translate(-192.342 -353.806)" fill="#8977aa"/>
    <path id="Path_17392" data-name="Path 17392" d="M362.5,456.811l-4.437-2.151,2.15-4.437a.785.785,0,1,0-1.413-.686l-2.151,4.437-4.437-2.15a.785.785,0,0,0-.686,1.413l4.437,2.151-2.15,4.437a.786.786,0,0,0,1.413.686l2.15-4.438,4.437,2.15a.785.785,0,1,0,.686-1.413" transform="translate(-259.725 -332.235)" fill="#8977aa"/>
    <path id="Path_17393" data-name="Path 17393" d="M458.945,446.107l-3.55-3.422,3.422-3.55a.786.786,0,1,0-1.131-1.091l-3.422,3.55-3.55-3.422a.786.786,0,0,0-1.091,1.131l3.55,3.422-3.421,3.55a.786.786,0,1,0,1.131,1.091l3.422-3.55,3.55,3.422a.786.786,0,1,0,1.091-1.131" transform="translate(-332.449 -323.884)" fill="#8977aa"/>
    <path id="Path_17394" data-name="Path 17394" d="M647.479,481.243a.785.785,0,0,0-1.039-.395l-4.5,2.024-2.024-4.5a.786.786,0,1,0-1.433.645l2.024,4.5-4.5,2.024a.786.786,0,0,0,.644,1.433l4.5-2.024,2.023,4.5a.786.786,0,0,0,1.433-.645l-2.024-4.5,4.5-2.023a.786.786,0,0,0,.394-1.039" transform="translate(-470.175 -353.554)" fill="#8977aa"/>
    <path id="Path_17395" data-name="Path 17395" d="M556.78,451.863a.789.789,0,0,0-1.051-.365l-4.437,2.15-2.15-4.437a.785.785,0,0,0-1.413.686l2.15,4.437-4.437,2.151a.786.786,0,0,0,.686,1.413l4.436-2.15,2.15,4.437a.786.786,0,1,0,1.415-.686l-2.15-4.436,4.437-2.15a.788.788,0,0,0,.365-1.05" transform="translate(-403.185 -331.996)" fill="#8977aa"/>
  </g>
</svg>
