<svg xmlns="http://www.w3.org/2000/svg" xmlns:xlink="http://www.w3.org/1999/xlink" width="181.284" height="124.386" viewBox="0 0 181.284 124.386">
  <defs>
    <clipPath id="clip-path">
      <rect id="Rectangle_1470" data-name="Rectangle 1470" width="181.284" height="124.386" fill="none"/>
    </clipPath>
    <clipPath id="clip-path-2">
      <path id="Path_17419" data-name="Path 17419" d="M553.625,232.936c4.609,1.533,13.529,2.818,14.6.417.764-1.7-2.985-4.023-6.676-8.763-7.262-9.323-5.234-16.37-9.389-23.576-2.99-5.186-9.559-11.106-25.454-13.771,2.262,12.008,8.967,39.724,26.914,45.693" transform="translate(-526.711 -187.243)" fill="none"/>
    </clipPath>
    <clipPath id="clip-path-3">
      <path id="Path_17429" data-name="Path 17429" d="M510.321,187.5c-2.086,9.156-5.9,29.622-1.879,48.743,1.621,7.656,4.379,14.6,10.017,19.828,3.345,3.1,8.449,6.293,9.6,5.207.845-.793-.965-3.466-2.086-6.673-2.552-7.259-.259-13.587,1.035-19.191.862-3.673,6-27.484-4.587-40.691a24.762,24.762,0,0,0-9.07-6.948c-.483-.242-1-.466-1.534-.69-.311-.121-.655-.259-.983-.379-.1-.035-.207-.086-.311-.121-.069.293-.138.586-.207.914" transform="translate(-506.677 -186.587)" fill="none"/>
    </clipPath>
    <clipPath id="clip-path-5">
      <path id="Path_17457" data-name="Path 17457" d="M10.51,33.62C7.376,38.583,8.1,37.939,7.6,38.19c-2.607,1.348-4.924,3.843-4.414,6.776.2,1.557.674.357-1.138,1.414A4.065,4.065,0,0,0,.889,52.449c.728.937-1.866,8.06,10.294,10.087C46.634,68.453,156.107,77.814,140.19,41.264a6.126,6.126,0,0,0-1.244-6.368c-2.941-2.87-1.6.649-5.069-3.931A75.489,75.489,0,0,0,72.847,0,73.9,73.9,0,0,0,10.51,33.62" transform="translate(0)" fill="none"/>
    </clipPath>
  </defs>
  <g id="Group_7351" data-name="Group 7351" transform="translate(0)">
    <g id="Group_7340" data-name="Group 7340" transform="translate(0)">
      <g id="Group_7339" data-name="Group 7339" clip-path="url(#clip-path)">
        <path id="Path_17411" data-name="Path 17411" d="M526.711,186.616c15.9,2.664,22.464,8.584,25.454,13.77,4.155,7.206,2.127,14.253,9.389,23.576,3.692,4.74,7.44,7.058,6.676,8.763-1.076,2.4-10,1.116-14.6-.417-17.947-5.969-24.652-33.685-26.914-45.692" transform="translate(-387.046 -137.132)" fill="#bc2820"/>
        <path id="Path_17412" data-name="Path 17412" d="M525.977,254.607c1.121,3.207,2.931,5.879,2.086,6.673-1.155,1.086-6.259-2.1-9.6-5.207-5.638-5.225-8.4-12.173-10.018-19.828-4.018-19.122-.207-39.588,1.879-48.743.069-.327.138-.62.207-.914.1.034.207.086.31.121.328.121.672.259.983.379.534.225,1.052.449,1.535.69a24.763,24.763,0,0,1,9.069,6.949c10.587,13.207,5.449,37.019,4.587,40.691-1.293,5.6-3.586,11.932-1.035,19.191" transform="translate(-372.324 -137.111)" fill="#e8402e"/>
      </g>
    </g>
    <g id="Group_7342" data-name="Group 7342" transform="translate(139.665 49.65)">
      <g id="Group_7341" data-name="Group 7341" clip-path="url(#clip-path-2)">
        <path id="Path_17413" data-name="Path 17413" d="M614.459,241.794c1.069-.565.836-1.538,2.305-5.312a18.806,18.806,0,0,0,1.135-4.563,1.613,1.613,0,0,0-.075-.623,2.679,2.679,0,0,0-.378-.628,1.541,1.541,0,0,1,.087-1.6,1.023,1.023,0,0,1,.972-.457.746.746,0,0,1,.35.262c.154.2.1.353.28.646.082.132.13.208.229.256.189.09.314-.046.506.012a.627.627,0,0,1,.38.54c.02.287-.2.5-.448.758a2.547,2.547,0,0,1-.369.308c-.694.455-1.644,3.876-2.137,5.345a45.37,45.37,0,0,0-1.46,4.946,1.814,1.814,0,0,0,0,.692c.132.609.542.718.577,1.209a.949.949,0,0,1-.387.853.937.937,0,0,1-1.074-.12c-.287-.263-.139-.553-.409-.738-.317-.217-.658.089-.976-.138a.731.731,0,0,1-.269-.634c.052-.536.83-.843,1.16-1.017" transform="translate(-590.337 -217.628)" fill="#fff"/>
        <path id="Path_17414" data-name="Path 17414" d="M608.121,253.51c-1.043-.611-1.748.1-5.729.84a18.812,18.812,0,0,0-4.476,1.439,1.611,1.611,0,0,0-.49.392,2.681,2.681,0,0,0-.334.652,1.612,1.612,0,0,1-1.4.768.943.943,0,0,1-.765-.317.725.725,0,0,1-.1-.5c.091-.553.792-.7.748-1.015-.033-.233-.425-.226-.5-.536a.627.627,0,0,1,.259-.607c.234-.168.531-.1.881-.019a2.554,2.554,0,0,1,.456.151c.753.35,4.161-.645,5.669-1A45.267,45.267,0,0,0,607.3,252.4a1.815,1.815,0,0,0,.589-.364c.448-.433.324-.838.723-1.127a.947.947,0,0,1,.929-.121.938.938,0,0,1,.464.976c-.073.382-.4.41-.412.737-.018.384.422.512.4.9a.73.73,0,0,1-.4.562c-.483.238-1.154-.262-1.476-.45" transform="translate(-576.755 -233.881)" fill="#fff"/>
        <path id="Path_17415" data-name="Path 17415" d="M599.3,228.172c-.459-.29-.707-.2-1.429-.479-.753-.291-.684-.467-1.168-.61a3.129,3.129,0,0,0-2.262.4,4.211,4.211,0,0,0-1.57,1.407,3.806,3.806,0,0,0-.645,2.825c.1.393.217.468.376,1.113.183.753.09.945.308,1.345a2.239,2.239,0,0,0,2.328,1.057,2.058,2.058,0,0,0,.994-.546,3.977,3.977,0,0,0,.172.537,1.95,1.95,0,0,0,.328.637.726.726,0,0,0,.632.064,3.769,3.769,0,0,1-.219-.63,2.4,2.4,0,0,1-.212-.945.116.116,0,0,1,.2-.072,2.367,2.367,0,0,1,.4.885,3.721,3.721,0,0,1,.207.641,4.862,4.862,0,0,0,.891-.482,3.081,3.081,0,0,1-.437-.617,3.729,3.729,0,0,1-.477-.893c-.026-.087.1-.177.167-.116a3.709,3.709,0,0,1,.63.792,3.089,3.089,0,0,1,.392.638c.15-.113.3-.233.436-.361.109-.1.215-.2.316-.313a5.061,5.061,0,0,1-.573-.519,3.18,3.18,0,0,1-.671-.776c-.044-.083.046-.2.141-.163a3.146,3.146,0,0,1,.8.592,5.44,5.44,0,0,1,.577.551,5.569,5.569,0,0,0,.511-.734,5.392,5.392,0,0,1-.624-.366,2.759,2.759,0,0,1-.815-.623c-.056-.077-.018-.213.1-.2a2.684,2.684,0,0,1,.92.382,5.647,5.647,0,0,1,.643.365c.151-.365.185-.665.058-.814a2.539,2.539,0,0,0-.586-.268c-.256-.1-.472-.182-.625-.235a2.485,2.485,0,0,0,.613-2.552,2.267,2.267,0,0,0-.824-.919m-3.325,4.224c-.023.475-1.537,1.111-2.342.546-.276-.194-.543-.581-.444-.88.141-.422.946-.467,1.335-.437.652.051,1.468.416,1.451.771m1.6.087a.5.5,0,0,1-.515.427c-.06-.01-.153-.045-.457-.626-.222-.423-.332-.635-.272-.688s.26.078.655.345c.573.387.59.489.59.542m.124-1.6a.784.784,0,0,1-.574.169c-.179-.019-.428-.114-.769-.588-.262-.365-1.1-1.524-.586-2.271a1.029,1.029,0,0,1,.935-.459c1.018.16,1.642,2.573.993,3.149" transform="translate(-574.798 -216.457)" fill="#fff"/>
        <path id="Path_17416" data-name="Path 17416" d="M627.94,354.394c1.083-.536.876-1.516,2.445-5.249a18.813,18.813,0,0,0,1.256-4.531,1.614,1.614,0,0,0-.059-.625,2.678,2.678,0,0,0-.362-.637,1.541,1.541,0,0,1,.13-1.594,1.022,1.022,0,0,1,.983-.431.745.745,0,0,1,.343.271c.148.209.087.355.263.654a.573.573,0,0,0,.222.261c.187.1.315-.037.506.026a.627.627,0,0,1,.366.549c.012.288-.209.5-.468.746a2.539,2.539,0,0,1-.377.3c-.706.437-1.746,3.832-2.278,5.287a45.319,45.319,0,0,0-1.59,4.905,1.818,1.818,0,0,0-.02.692c.116.612.523.732.545,1.224a.948.948,0,0,1-.409.842.937.937,0,0,1-1.07-.148c-.279-.271-.125-.557-.389-.749-.311-.226-.66.071-.972-.164a.731.731,0,0,1-.252-.641c.067-.535.853-.821,1.187-.986" transform="translate(-600.222 -300.448)" fill="#fff"/>
        <path id="Path_17417" data-name="Path 17417" d="M621.888,366.624c-1.026-.639-1.75.054-5.75.688a18.811,18.811,0,0,0-4.513,1.32,1.61,1.61,0,0,0-.5.379,2.653,2.653,0,0,0-.351.643,1.612,1.612,0,0,1-1.423.73.943.943,0,0,1-.756-.336.725.725,0,0,1-.087-.5c.105-.551.81-.678.774-1-.026-.234-.418-.238-.488-.55a.627.627,0,0,1,.275-.6c.238-.162.533-.085.881,0a2.524,2.524,0,0,1,.452.163c.743.37,4.176-.535,5.694-.85a45.291,45.291,0,0,0,5.007-1.233,1.807,1.807,0,0,0,.6-.348c.459-.421.346-.83.753-1.108a.948.948,0,0,1,.932-.1.937.937,0,0,1,.438.987c-.083.38-.408.4-.431.725-.028.383.408.523.372.912a.729.729,0,0,1-.412.552c-.489.225-1.147-.292-1.463-.489" transform="translate(-586.809 -317.022)" fill="#fff"/>
        <path id="Path_17418" data-name="Path 17418" d="M613.9,340.292c-.451-.3-.7-.219-1.416-.516-.745-.312-.671-.485-1.152-.641a3.129,3.129,0,0,0-2.272.344,4.206,4.206,0,0,0-1.607,1.365,3.806,3.806,0,0,0-.72,2.806c.087.4.205.473.347,1.123.163.758.065.946.272,1.353a2.238,2.238,0,0,0,2.3,1.118,2.053,2.053,0,0,0,1.008-.519,3.944,3.944,0,0,0,.157.541,1.946,1.946,0,0,0,.311.645.726.726,0,0,0,.63.081,3.763,3.763,0,0,1-.2-.635,2.406,2.406,0,0,1-.187-.951.116.116,0,0,1,.2-.067,2.372,2.372,0,0,1,.375.9,3.722,3.722,0,0,1,.19.646,4.865,4.865,0,0,0,.9-.458,3.091,3.091,0,0,1-.42-.628,3.719,3.719,0,0,1-.453-.905c-.023-.088.1-.174.17-.112a3.716,3.716,0,0,1,.609.808,3.072,3.072,0,0,1,.375.648c.154-.109.3-.225.446-.349.112-.1.22-.2.324-.3a5.089,5.089,0,0,1-.559-.534,3.176,3.176,0,0,1-.65-.794c-.041-.083.051-.2.146-.159a3.133,3.133,0,0,1,.788.612,5.523,5.523,0,0,1,.563.567,5.618,5.618,0,0,0,.53-.72,5.325,5.325,0,0,1-.614-.383,2.756,2.756,0,0,1-.8-.644c-.053-.079-.012-.214.1-.2a2.689,2.689,0,0,1,.909.406,5.585,5.585,0,0,1,.633.383c.161-.361.2-.661.079-.812a2.522,2.522,0,0,0-.578-.283c-.254-.111-.467-.194-.619-.251a2.485,2.485,0,0,0,.68-2.535,2.268,2.268,0,0,0-.8-.941m-3.436,4.135c-.035.474-1.566,1.07-2.356.483-.27-.2-.527-.6-.42-.891.151-.419.958-.442,1.346-.4.651.068,1.456.455,1.43.81m1.595.13a.5.5,0,0,1-.526.413c-.059-.011-.151-.048-.44-.638-.211-.428-.315-.644-.254-.7s.257.085.645.363c.562.4.576.5.575.557m.166-1.592a.783.783,0,0,1-.578.154c-.178-.023-.425-.125-.753-.608-.253-.372-1.055-1.552-.526-2.286a1.031,1.031,0,0,1,.947-.434c1.013.186,1.573,2.615.909,3.175" transform="translate(-585.468 -298.784)" fill="#fff"/>
      </g>
    </g>
    <g id="Group_7344" data-name="Group 7344" transform="translate(134.353 49.476)">
      <g id="Group_7343" data-name="Group 7343" clip-path="url(#clip-path-3)">
        <path id="Path_17420" data-name="Path 17420" d="M488.207,265.176c1.173.293,1.649-.587,5.262-2.417a18.819,18.819,0,0,0,3.891-2.64,1.621,1.621,0,0,0,.36-.514,2.678,2.678,0,0,0,.137-.72,1.541,1.541,0,0,1,1.131-1.131,1.023,1.023,0,0,1,1.029.309.744.744,0,0,1,.086.428c-.022.256-.163.327-.223.669a.578.578,0,0,0,0,.343c.081.194.265.176.369.347a.628.628,0,0,1-.077.656c-.177.227-.482.245-.84.266a2.546,2.546,0,0,1-.48-.017c-.821-.124-3.812,1.789-5.16,2.554a45.317,45.317,0,0,0-4.388,2.708,1.822,1.822,0,0,0-.463.514c-.308.542-.075.9-.377,1.285a.948.948,0,0,1-.857.377.938.938,0,0,1-.72-.806c-.037-.387.266-.505.189-.823-.09-.373-.549-.373-.634-.754a.729.729,0,0,1,.223-.651c.4-.364,1.181-.073,1.543.017" transform="translate(-491.798 -238.865)" fill="#fff"/>
        <path id="Path_17421" data-name="Path 17421" d="M490.665,269.934c-.369-1.151-1.368-1.092-4.827-3.2a18.812,18.812,0,0,0-4.294-1.916,1.619,1.619,0,0,0-.627-.035,2.684,2.684,0,0,0-.684.263,1.613,1.613,0,0,1-1.558-.365.944.944,0,0,1-.358-.746.726.726,0,0,1,.257-.437c.437-.351,1.056.008,1.234-.257.131-.2-.165-.452-.016-.735a.627.627,0,0,1,.6-.28c.287.031.462.281.669.574a2.537,2.537,0,0,1,.238.417c.327.763,3.529,2.3,4.889,3.039a45.165,45.165,0,0,0,4.614,2.3,1.811,1.811,0,0,0,.681.122c.623-.024.8-.408,1.291-.357a.948.948,0,0,1,.772.53.937.937,0,0,1-.305,1.037c-.309.236-.569.04-.8.273-.269.274-.028.663-.307.937a.731.731,0,0,1-.671.154c-.519-.145-.685-.965-.8-1.32" transform="translate(-485.833 -242.167)" fill="#fff"/>
        <path id="Path_17422" data-name="Path 17422" d="M501.119,241.031c-.148-.523-.393-.621-.745-1.31-.366-.72-.2-.8-.463-1.234a3.131,3.131,0,0,0-1.954-1.209,4.209,4.209,0,0,0-2.109,0,3.806,3.806,0,0,0-2.365,1.672c-.189.358-.15.494-.463,1.08-.366.683-.564.763-.669,1.207a2.239,2.239,0,0,0,1.029,2.341,2.055,2.055,0,0,0,1.1.257,3.915,3.915,0,0,0-.23.514,1.945,1.945,0,0,0-.181.693c.021.171.179.331.428.469a3.769,3.769,0,0,1,.257-.615,2.415,2.415,0,0,1,.473-.845.116.116,0,0,1,.2.08,2.365,2.365,0,0,1-.294.925,3.734,3.734,0,0,1-.273.615,4.879,4.879,0,0,0,.985.237,3.074,3.074,0,0,1,.087-.751,3.714,3.714,0,0,1,.24-.983.111.111,0,0,1,.2.025,3.716,3.716,0,0,1-.06,1.01,3.08,3.08,0,0,1-.134.736c.187.016.377.025.566.023.148,0,.3-.008.444-.023a5.062,5.062,0,0,1-.08-.769,3.171,3.171,0,0,1,.018-1.026.118.118,0,0,1,.214-.027,3.134,3.134,0,0,1,.2.977,5.507,5.507,0,0,1,.062.8,5.624,5.624,0,0,0,.87-.206,5.317,5.317,0,0,1-.22-.689,2.754,2.754,0,0,1-.191-1.008c.01-.095.129-.171.206-.086a2.691,2.691,0,0,1,.43.9,5.632,5.632,0,0,1,.234.7c.356-.171.582-.373.586-.568a2.51,2.51,0,0,0-.257-.59c-.121-.249-.23-.451-.308-.593a2.484,2.484,0,0,0,2.16-1.491,2.265,2.265,0,0,0,0-1.234m-5.3.926c-.333.338-1.886-.2-2.108-1.157a.916.916,0,0,1,.257-.951c.387-.221,1.016.283,1.286.566.452.473.815,1.289.566,1.543m1.131,1.131a.5.5,0,0,1-.669-.026c-.038-.047-.083-.134.077-.771.117-.463.177-.694.257-.694s.141.231.257.694c.168.67.112.758.077.8m1.157-1.105a.782.782,0,0,1-.54-.257c-.121-.133-.243-.371-.18-.951.048-.447.2-1.866,1.08-2.082a1.03,1.03,0,0,1,1,.283c.652.8-.494,3.011-1.363,3.008" transform="translate(-496.114 -223.737)" fill="#fff"/>
        <path id="Path_17423" data-name="Path 17423" d="M535.421,326.107c.731.963,1.654.575,5.616,1.412a18.819,18.819,0,0,0,4.687.379,1.619,1.619,0,0,0,.6-.176,2.674,2.674,0,0,0,.558-.475,1.542,1.542,0,0,1,1.59-.173c.308.162.656.524.609.885a.747.747,0,0,1-.2.388c-.177.185-.332.152-.593.381a.576.576,0,0,0-.215.268c-.058.2.1.3.07.5a.627.627,0,0,1-.471.463c-.28.066-.529-.11-.821-.319a2.546,2.546,0,0,1-.364-.314c-.562-.61-4.092-.993-5.622-1.241a45.388,45.388,0,0,0-5.117-.637,1.812,1.812,0,0,0-.683.111c-.58.23-.62.652-1.1.766a.859.859,0,0,1-.961-1.321c.214-.326.523-.228.662-.523.163-.348-.194-.634-.022-.985a.731.731,0,0,1,.582-.368c.537-.036.967.682,1.192.979" transform="translate(-525.92 -288.39)" fill="#fff"/>
        <path id="Path_17424" data-name="Path 17424" d="M547,317.985c.433-1.128-.383-1.708-1.759-5.517a18.815,18.815,0,0,0-2.147-4.183,1.612,1.612,0,0,0-.467-.42,2.668,2.668,0,0,0-.7-.224,1.612,1.612,0,0,1-.985-1.26.944.944,0,0,1,.188-.806.724.724,0,0,1,.474-.18c.561,0,.819.667,1.123.572.225-.07.155-.456.448-.583a.626.626,0,0,1,.641.156c.2.2.185.508.161.866a2.529,2.529,0,0,1-.075.474c-.223.8,1.312,4,1.908,5.432A45.248,45.248,0,0,0,547.962,317a1.813,1.813,0,0,0,.454.522c.5.372.88.184,1.23.531a.948.948,0,0,1,.27.9.938.938,0,0,1-.887.617c-.389-.01-.469-.325-.794-.287-.381.045-.437.5-.826.538a.73.73,0,0,1-.619-.3c-.313-.438.071-1.181.2-1.529" transform="translate(-531.841 -273.857)" fill="#fff"/>
        <path id="Path_17425" data-name="Path 17425" d="M566.739,304.259a7.874,7.874,0,0,0,.24-1.488c.166-.791.35-.75.412-1.252a3.128,3.128,0,0,0-.766-2.166,4.2,4.2,0,0,0-1.643-1.321,3.807,3.807,0,0,0-2.892-.178c-.372.16-.426.291-1.037.552-.713.3-.917.242-1.278.523a2.238,2.238,0,0,0-.664,2.469,2.052,2.052,0,0,0,.7.893,3.928,3.928,0,0,0-.5.256,1.944,1.944,0,0,0-.575.427.726.726,0,0,0,.04.633,3.77,3.77,0,0,1,.586-.318,2.407,2.407,0,0,1,.9-.363.116.116,0,0,1,.1.186,2.374,2.374,0,0,1-.809.538,3.705,3.705,0,0,1-.6.308,4.9,4.9,0,0,0,.62.8,3.08,3.08,0,0,1,.537-.531,3.72,3.72,0,0,1,.8-.616c.082-.039.19.066.142.146a3.714,3.714,0,0,1-.679.75,3.07,3.07,0,0,1-.566.49c.136.13.278.255.427.372.117.091.236.179.361.261a5.054,5.054,0,0,1,.419-.65,3.176,3.176,0,0,1,.657-.788c.074-.056.209.012.183.113a3.131,3.131,0,0,1-.453.889,5.525,5.525,0,0,1-.45.659,5.6,5.6,0,0,0,.807.385,5.366,5.366,0,0,1,.26-.675,2.766,2.766,0,0,1,.482-.906c.067-.067.208-.052.215.062a2.693,2.693,0,0,1-.228.97,5.593,5.593,0,0,1-.257.694c.384.09.687.074.812-.076a2.5,2.5,0,0,0,.169-.621c.061-.27.1-.5.13-.655a2.485,2.485,0,0,0,2.618.19,2.268,2.268,0,0,0,.773-.962m-4.709-2.6c-.472.055-1.346-1.337-.919-2.223.147-.3.485-.63.8-.58.44.07.614.857.648,1.246.056.652-.172,1.516-.526,1.557m.173,1.59a.5.5,0,0,1-.505-.439c0-.06.019-.157.543-.553.381-.287.573-.43.635-.38s-.035.269-.234.7c-.289.628-.387.661-.439.67m1.594-.137a.784.784,0,0,1-.26-.539c-.011-.18.044-.441.456-.855.317-.318,1.325-1.329,2.147-.947a1.031,1.031,0,0,1,.6.849c.008,1.031-2.272,2.038-2.947,1.492" transform="translate(-544.889 -268.188)" fill="#fff"/>
        <path id="Path_17426" data-name="Path 17426" d="M527.244,399.222c1.069-.565.836-1.538,2.305-5.312a18.819,18.819,0,0,0,1.135-4.563,1.614,1.614,0,0,0-.075-.623,2.668,2.668,0,0,0-.378-.628,1.542,1.542,0,0,1,.087-1.6,1.023,1.023,0,0,1,.972-.457.743.743,0,0,1,.35.262c.154.205.1.352.28.646.082.132.13.208.229.255.19.091.314-.045.506.013a.627.627,0,0,1,.38.54c.02.287-.2.5-.448.758a2.531,2.531,0,0,1-.369.308c-.694.456-1.644,3.876-2.137,5.346a45.277,45.277,0,0,0-1.46,4.946,1.813,1.813,0,0,0,0,.692c.132.609.542.717.577,1.209a.948.948,0,0,1-.387.853.937.937,0,0,1-1.074-.119c-.287-.264-.139-.553-.409-.738-.317-.217-.658.089-.976-.138a.73.73,0,0,1-.269-.634c.052-.536.831-.843,1.16-1.017" transform="translate(-520.936 -333.137)" fill="#fff"/>
        <path id="Path_17427" data-name="Path 17427" d="M520.906,410.939c-1.043-.611-1.748.1-5.729.84a18.809,18.809,0,0,0-4.476,1.439,1.615,1.615,0,0,0-.49.392,2.685,2.685,0,0,0-.334.652,1.611,1.611,0,0,1-1.4.768.943.943,0,0,1-.765-.316.724.724,0,0,1-.1-.5c.09-.553.792-.7.747-1.015-.033-.233-.425-.227-.5-.537a.626.626,0,0,1,.258-.607c.234-.168.531-.1.881-.019a2.553,2.553,0,0,1,.456.151c.753.35,4.16-.645,5.669-1a45.249,45.249,0,0,0,4.973-1.365,1.813,1.813,0,0,0,.589-.363c.448-.433.325-.838.724-1.128a.947.947,0,0,1,.928-.121.937.937,0,0,1,.464.975c-.073.383-.4.41-.412.737-.018.384.422.512.4.9a.731.731,0,0,1-.4.563c-.483.238-1.154-.262-1.476-.451" transform="translate(-507.354 -349.391)" fill="#fff"/>
        <path id="Path_17428" data-name="Path 17428" d="M512.087,385.6c-.459-.29-.707-.2-1.429-.479-.753-.292-.684-.467-1.168-.61a3.132,3.132,0,0,0-2.263.4,4.207,4.207,0,0,0-1.57,1.407,3.806,3.806,0,0,0-.645,2.824c.1.393.218.468.376,1.113.183.753.09.944.308,1.345a2.238,2.238,0,0,0,2.328,1.056,2.05,2.05,0,0,0,.994-.546,3.946,3.946,0,0,0,.172.537,1.945,1.945,0,0,0,.328.637.725.725,0,0,0,.632.064,3.765,3.765,0,0,1-.219-.63,2.4,2.4,0,0,1-.212-.945.116.116,0,0,1,.2-.072,2.371,2.371,0,0,1,.4.885,3.719,3.719,0,0,1,.207.641,4.877,4.877,0,0,0,.892-.482,3.086,3.086,0,0,1-.437-.616,3.733,3.733,0,0,1-.477-.893c-.026-.087.1-.177.167-.116a3.7,3.7,0,0,1,.63.792,3.087,3.087,0,0,1,.392.637c.15-.113.3-.233.436-.361.109-.1.215-.2.316-.313a5.107,5.107,0,0,1-.573-.519,3.181,3.181,0,0,1-.671-.777c-.044-.082.046-.2.141-.163a3.138,3.138,0,0,1,.8.592,5.447,5.447,0,0,1,.577.552,5.512,5.512,0,0,0,.511-.734,5.369,5.369,0,0,1-.624-.366,2.757,2.757,0,0,1-.815-.623c-.056-.077-.018-.214.1-.2a2.69,2.69,0,0,1,.92.383,5.6,5.6,0,0,1,.643.366c.151-.365.185-.666.058-.814a2.516,2.516,0,0,0-.586-.268c-.257-.1-.472-.182-.625-.235a2.484,2.484,0,0,0,.613-2.552,2.268,2.268,0,0,0-.824-.919m-3.325,4.225c-.023.474-1.537,1.111-2.342.546-.276-.194-.543-.581-.443-.88.14-.422.946-.467,1.335-.437.652.051,1.467.416,1.451.771m1.6.087a.5.5,0,0,1-.515.427c-.059-.009-.152-.044-.458-.626-.222-.423-.331-.635-.272-.689s.259.078.655.345c.572.387.589.489.589.542m.124-1.6a.785.785,0,0,1-.574.169c-.179-.019-.428-.115-.769-.588-.263-.365-1.1-1.523-.586-2.272a1.032,1.032,0,0,1,.936-.459c1.018.16,1.642,2.573.993,3.15" transform="translate(-505.396 -331.966)" fill="#fff"/>
      </g>
    </g>
    <g id="Group_7346" data-name="Group 7346" transform="translate(0)">
      <g id="Group_7345" data-name="Group 7345" clip-path="url(#clip-path)">
        <path id="Path_17430" data-name="Path 17430" d="M531.941,231.2a.41.41,0,0,1-.793-.207c2.707-16.346-.035-30.519-8.776-43.95a26.184,26.184,0,0,1,2.517,1.069c8.4,12.362,11.328,28.794,7.052,43.088" transform="translate(-383.857 -137.445)" fill="#bc2820"/>
        <path id="Path_17431" data-name="Path 17431" d="M526.49,223.175a.483.483,0,0,1-.965,0c-.155-12.569-2.121-23.759-5.1-35.674.069-.328.138-.621.207-.914.1.034.207.086.31.121.328.12.672.259.983.379,4.621,11.1,6.017,24.415,4.569,36.088" transform="translate(-382.424 -137.111)" fill="#bc2820"/>
        <path id="Path_17432" data-name="Path 17432" d="M11.183,62.535C-.977,60.508,1.618,53.385.89,52.449a4.065,4.065,0,0,1,1.155-6.069c1.812-1.057,1.333.143,1.138-1.414-.51-2.933,1.807-5.428,4.414-6.776.5-.251-.22.393,2.914-4.569,28.272-43.314,91.7-45.391,123.367-2.655,3.47,4.58,2.128,1.061,5.069,3.931a6.11,6.11,0,0,1,1.242,6.362C156.121,77.816,46.637,68.453,11.183,62.535" transform="translate(0 0)" fill="#e8402e"/>
      </g>
    </g>
    <g id="Group_7348" data-name="Group 7348" transform="translate(0)">
      <g id="Group_7347" data-name="Group 7347" clip-path="url(#clip-path-5)">
        <path id="Path_17433" data-name="Path 17433" d="M182.18,58.814c1.555-.349,1.6-1.669,4.771-5.964a24.823,24.823,0,0,0,3.023-5.414,2.133,2.133,0,0,0,.12-.819,3.517,3.517,0,0,0-.265-.93,2.033,2.033,0,0,1,.664-2,1.349,1.349,0,0,1,1.395-.245.983.983,0,0,1,.355.454c.125.314,0,.482.133.92a.758.758,0,0,0,.2.4c.209.181.415.051.64.191a.827.827,0,0,1,.3.818c-.074.373-.423.574-.832.81a3.361,3.361,0,0,1-.576.264c-1.041.34-3.433,4.365-4.569,6.064a59.674,59.674,0,0,0-3.568,5.79,2.388,2.388,0,0,0-.241.88c-.042.821.442,1.1.317,1.738a1.25,1.25,0,0,1-.787.952,1.237,1.237,0,0,1-1.325-.523c-.274-.435.014-.753-.265-1.081-.328-.386-.868-.115-1.194-.513a.963.963,0,0,1-.123-.9c.252-.664,1.348-.785,1.828-.893" transform="translate(-132.486 -31.838)" fill="#fff"/>
        <path id="Path_17434" data-name="Path 17434" d="M177.807,80.447c-1.116-1.138-2.259-.477-7.582-.912a24.815,24.815,0,0,0-6.195.284,2.127,2.127,0,0,0-.759.33c-.359.252-.423.475-.651.715a2.125,2.125,0,0,1-2.052.491,1.243,1.243,0,0,1-.864-.667.956.956,0,0,1,.045-.667c.306-.673,1.249-.616,1.3-1.034.039-.308-.462-.435-.454-.857a.827.827,0,0,1,.539-.684c.356-.133.711.057,1.127.281a3.354,3.354,0,0,1,.528.35c.837.706,5.518.618,7.561.687a59.667,59.667,0,0,0,6.8-.018,2.4,2.4,0,0,0,.875-.259c.72-.4.7-.955,1.31-1.185a1.25,1.25,0,0,1,1.223.167,1.236,1.236,0,0,1,.253,1.4c-.225.461-.647.385-.779.795-.155.482.36.8.193,1.285a.963.963,0,0,1-.7.579c-.7.136-1.378-.732-1.722-1.083" transform="translate(-117.325 -56.741)" fill="#fff"/>
        <path id="Path_17435" data-name="Path 17435" d="M177.045,34.935c-.484-.528-.831-.5-1.653-1.1-.858-.632-.709-.831-1.276-1.181a4.13,4.13,0,0,0-3.019-.269,5.547,5.547,0,0,0-2.485,1.248,5.017,5.017,0,0,0-1.8,3.371c-.011.534.115.671.094,1.546-.027,1.022-.212,1.233-.073,1.819a2.952,2.952,0,0,0,2.6,2.15,2.708,2.708,0,0,0,1.454-.351,5.208,5.208,0,0,0,.033.742,2.565,2.565,0,0,0,.2.924.955.955,0,0,0,.782.3,4.985,4.985,0,0,1-.061-.877,3.173,3.173,0,0,1,.057-1.276.153.153,0,0,1,.28-.023,3.122,3.122,0,0,1,.2,1.265,4.906,4.906,0,0,1,.042.887,6.435,6.435,0,0,0,1.3-.3,4.043,4.043,0,0,1-.343-.936,4.892,4.892,0,0,1-.3-1.3c0-.12.183-.192.252-.09a4.883,4.883,0,0,1,.528,1.225,4.07,4.07,0,0,1,.278.947c.23-.091.458-.194.68-.308.173-.09.344-.185.51-.29a6.707,6.707,0,0,1-.55-.859,4.192,4.192,0,0,1-.586-1.221c-.027-.12.129-.244.237-.158a4.143,4.143,0,0,1,.818,1.031,7.21,7.21,0,0,1,.544.9,7.35,7.35,0,0,0,.9-.758,6.993,6.993,0,0,1-.667-.682,3.631,3.631,0,0,1-.822-1.074c-.044-.118.051-.278.191-.224a3.545,3.545,0,0,1,1.039.8,7.387,7.387,0,0,1,.692.688c.318-.412.466-.783.355-1.016a3.331,3.331,0,0,0-.653-.544c-.29-.221-.538-.395-.714-.515a3.277,3.277,0,0,0,1.663-3.036,2.987,2.987,0,0,0-.731-1.454m-5.693,4.226c-.193.6-2.341.882-3.17-.115a1.207,1.207,0,0,1-.26-1.273c.325-.489,1.365-.268,1.85-.095.812.29,1.724,1.037,1.58,1.483m2,.664a.662.662,0,0,1-.8.365c-.072-.032-.178-.109-.365-.955-.136-.615-.2-.923-.108-.971s.3.189.714.666c.594.69.581.826.563.894m.709-1.988a1.033,1.033,0,0,1-.789.017c-.221-.086-.505-.294-.775-1.015-.208-.555-.869-2.318.04-3.094a1.359,1.359,0,0,1,1.349-.26c1.241.555,1.2,3.842.175,4.352" transform="translate(-122.559 -23.674)" fill="#fff"/>
        <path id="Path_17436" data-name="Path 17436" d="M263.151,170.044c1.261.976,2.3.165,7.636-.13a24.817,24.817,0,0,0,6.1-1.125,2.134,2.134,0,0,0,.707-.43,3.533,3.533,0,0,0,.547-.8,2.032,2.032,0,0,1,1.966-.767c.448.1,1.015.442,1.078.918a.981.981,0,0,1-.124.563c-.162.3-.371.309-.623.689a.758.758,0,0,0-.182.414c-.006.277.226.353.261.615a.827.827,0,0,1-.44.751c-.334.181-.712.04-1.155-.124a3.376,3.376,0,0,1-.571-.275c-.925-.585-5.551.14-7.584.349a59.711,59.711,0,0,0-6.735.945,2.393,2.393,0,0,0-.831.376c-.659.491-.566,1.042-1.137,1.353a1.25,1.25,0,0,1-1.235,0,1.237,1.237,0,0,1-.443-1.355c.16-.488.589-.469.664-.894.089-.5-.465-.741-.366-1.247a.964.964,0,0,1,.614-.669c.672-.229,1.465.537,1.854.838" transform="translate(-191.301 -122.539)" fill="#fff"/>
        <path id="Path_17437" data-name="Path 17437" d="M273.573,161.421c.165-1.586-1.074-2.044-4.133-6.421a24.81,24.81,0,0,0-4.17-4.59,2.128,2.128,0,0,0-.738-.374,3.523,3.523,0,0,0-.966-.045,2.126,2.126,0,0,1-1.687-1.267,1.243,1.243,0,0,1-.037-1.091.958.958,0,0,1,.542-.392c.714-.193,1.271.569,1.627.344.262-.166.041-.633.37-.9a.826.826,0,0,1,.871-.021c.33.189.409.583.5,1.047a3.378,3.378,0,0,1,.067.63c-.01,1.095,3.044,4.644,4.293,6.262a59.682,59.682,0,0,0,4.352,5.226,2.39,2.39,0,0,0,.758.509c.764.3,1.184-.068,1.748.254a1.249,1.249,0,0,1,.652,1.049,1.236,1.236,0,0,1-.918,1.09c-.5.121-.709-.253-1.109-.093-.471.188-.385.786-.867.968a.964.964,0,0,1-.892-.17c-.549-.45-.315-1.528-.264-2.017" transform="translate(-192.324 -107.693)" fill="#fff"/>
        <path id="Path_17438" data-name="Path 17438" d="M297.029,134.755a10.412,10.412,0,0,0-.2-1.977c-.06-1.063.188-1.076.1-1.736a4.129,4.129,0,0,0-1.719-2.5,5.548,5.548,0,0,0-2.546-1.117,5.017,5.017,0,0,0-3.743.766c-.418.332-.443.517-1.131,1.059-.8.631-1.085.623-1.448,1.1a2.952,2.952,0,0,0,0,3.372,2.709,2.709,0,0,0,1.2.9,5.24,5.24,0,0,0-.551.5,2.569,2.569,0,0,0-.586.741.956.956,0,0,0,.268.793,4.956,4.956,0,0,1,.636-.606,3.173,3.173,0,0,1,1.02-.77.153.153,0,0,1,.2.2,3.13,3.13,0,0,1-.846.962,4.893,4.893,0,0,1-.656.6,6.43,6.43,0,0,0,1.064.808,4.067,4.067,0,0,1,.5-.861,4.9,4.9,0,0,1,.812-1.06c.091-.079.264.018.23.137a4.893,4.893,0,0,1-.608,1.188,4.075,4.075,0,0,1-.552.819c.217.119.441.229.671.327.18.076.362.147.549.208a6.676,6.676,0,0,1,.311-.972,4.2,4.2,0,0,1,.566-1.23.156.156,0,0,1,.273.081,4.137,4.137,0,0,1-.272,1.288,7.221,7.221,0,0,1-.347.994,7.357,7.357,0,0,0,1.16.213,7.062,7.062,0,0,1,.1-.949,3.634,3.634,0,0,1,.3-1.319c.063-.109.247-.138.294,0a3.559,3.559,0,0,1,.043,1.313,7.456,7.456,0,0,1-.089.971c.52-.018.9-.141,1.009-.375a3.325,3.325,0,0,0,0-.849c-.015-.365-.04-.666-.059-.879a3.277,3.277,0,0,0,3.4-.656,2.991,2.991,0,0,0,.654-1.49m-6.886-1.689c-.582.232-2.173-1.24-1.933-2.515.082-.437.4-.969.815-1.013.584-.062,1.077.881,1.253,1.365.295.811.3,1.989-.134,2.163m.767,1.966a.662.662,0,0,1-.794-.386c-.021-.076-.03-.207.5-.89.386-.5.581-.745.678-.7s.048.354-.057.975c-.153.9-.266.974-.329,1m1.983-.722a1.032,1.032,0,0,1-.516-.6c-.075-.225-.1-.576.287-1.244.3-.514,1.231-2.147,2.408-1.943a1.359,1.359,0,0,1,1.061.873c.364,1.309-2.193,3.375-3.24,2.91" transform="translate(-210.019 -93.583)" fill="#fff"/>
        <path id="Path_17439" data-name="Path 17439" d="M462.505,124.124c1.452-.658,1.223-1.959,3.456-6.81a24.814,24.814,0,0,0,1.857-5.917,2.124,2.124,0,0,0-.05-.826,3.511,3.511,0,0,0-.448-.856,2.032,2.032,0,0,1,.242-2.1,1.349,1.349,0,0,1,1.315-.524.982.982,0,0,1,.44.373c.187.282.1.471.318.873a.762.762,0,0,0,.281.354c.242.134.417-.035.665.056a.828.828,0,0,1,.458.741c0,.38-.3.648-.65.963a3.339,3.339,0,0,1-.51.375c-.95.545-2.472,4.973-3.237,6.868a59.664,59.664,0,0,0-2.314,6.395,2.39,2.39,0,0,0-.057.911c.126.812.656.987.664,1.637a1.25,1.25,0,0,1-.576,1.092,1.236,1.236,0,0,1-1.4-.242c-.356-.37-.139-.74-.48-1-.4-.312-.873.064-1.273-.26a.963.963,0,0,1-.3-.856c.111-.7,1.16-1.043,1.608-1.247" transform="translate(-338.676 -78.665)" fill="#fff"/>
        <path id="Path_17440" data-name="Path 17440" d="M455.01,141.1c-1.324-.887-2.309-.007-7.609.651a24.807,24.807,0,0,0-6.007,1.539,2.128,2.128,0,0,0-.676.477,3.521,3.521,0,0,0-.492.832,2.126,2.126,0,0,1-1.909.9,1.245,1.245,0,0,1-.982-.477.957.957,0,0,1-.093-.662c.163-.721,1.1-.858,1.064-1.277-.024-.309-.541-.332-.618-.746a.826.826,0,0,1,.388-.779c.321-.2.707-.089,1.161.045a3.371,3.371,0,0,1,.588.235c.963.521,5.528-.519,7.543-.867a59.677,59.677,0,0,0,6.655-1.4,2.4,2.4,0,0,0,.8-.431c.624-.535.493-1.078,1.042-1.427a1.249,1.249,0,0,1,1.232-.085,1.236,1.236,0,0,1,.534,1.321c-.126.5-.555.508-.6.937-.054.5.514.708.45,1.219a.963.963,0,0,1-.567.709c-.655.275-1.5-.436-1.907-.71" transform="translate(-321.285 -101.035)" fill="#fff"/>
        <path id="Path_17441" data-name="Path 17441" d="M445.863,104.733c-.581-.418-.915-.32-1.843-.744-.968-.444-.863-.669-1.49-.9a4.126,4.126,0,0,0-3.01.352,5.547,5.547,0,0,0-2.179,1.728,5.02,5.02,0,0,0-1.073,3.667c.1.525.249.633.407,1.495.181,1.006.043,1.251.3,1.8a2.952,2.952,0,0,0,2.981,1.576,2.709,2.709,0,0,0,1.352-.64,5.2,5.2,0,0,0,.183.72,2.574,2.574,0,0,0,.381.864.956.956,0,0,0,.827.134,4.983,4.983,0,0,1-.238-.846,3.174,3.174,0,0,1-.2-1.261.153.153,0,0,1,.27-.079,3.124,3.124,0,0,1,.455,1.2,4.915,4.915,0,0,1,.221.86,6.424,6.424,0,0,0,1.212-.563,4.051,4.051,0,0,1-.526-.847,4.905,4.905,0,0,1-.557-1.213c-.027-.117.14-.225.228-.14a4.887,4.887,0,0,1,.766,1.092,4.068,4.068,0,0,1,.465.871c.207-.136.409-.283.6-.44.151-.123.3-.251.44-.387a6.663,6.663,0,0,1-.713-.729,4.179,4.179,0,0,1-.822-1.076c-.051-.112.077-.265.2-.2a4.151,4.151,0,0,1,1.011.843,7.275,7.275,0,0,1,.716.772,7.351,7.351,0,0,0,.73-.925,7.1,7.1,0,0,1-.792-.532,3.635,3.635,0,0,1-1.024-.885c-.067-.106-.006-.282.142-.258a3.548,3.548,0,0,1,1.181.576,7.411,7.411,0,0,1,.817.532c.228-.468.3-.862.141-1.067a3.338,3.338,0,0,0-.75-.4c-.329-.158-.607-.277-.8-.359a3.277,3.277,0,0,0,1.009-3.311,2.99,2.99,0,0,0-1.012-1.275m-4.713,5.3c-.067.623-2.112,1.341-3.127.533-.348-.277-.668-.808-.514-1.194.218-.545,1.282-.54,1.792-.469.855.119,1.9.664,1.849,1.13m2.1.242a.662.662,0,0,1-.712.521c-.077-.017-.2-.07-.553-.86-.259-.574-.386-.863-.3-.928s.336.123.835.506c.722.555.737.691.733.76m.289-2.091a1.033,1.033,0,0,1-.768.177c-.234-.039-.554-.184-.966-.835-.317-.5-1.322-2.093-.591-3.037a1.359,1.359,0,0,1,1.268-.53c1.328.291,1.957,3.517,1.057,4.225" transform="translate(-320.543 -75.636)" fill="#fff"/>
        <path id="Path_17442" data-name="Path 17442" d="M50.134,199.72c1.261.975,2.3.165,7.636-.129a24.829,24.829,0,0,0,6.1-1.126,2.139,2.139,0,0,0,.707-.43,3.519,3.519,0,0,0,.547-.8,2.033,2.033,0,0,1,1.966-.767c.448.1,1.015.442,1.078.918a.982.982,0,0,1-.124.563c-.162.3-.37.308-.623.689a.756.756,0,0,0-.182.414c-.006.276.226.352.261.614a.828.828,0,0,1-.44.751c-.334.181-.712.04-1.155-.124a3.342,3.342,0,0,1-.571-.275c-.925-.585-5.551.141-7.584.349a59.782,59.782,0,0,0-6.735.945,2.394,2.394,0,0,0-.831.375c-.659.491-.566,1.042-1.137,1.353a1.25,1.25,0,0,1-1.235,0,1.236,1.236,0,0,1-.443-1.354c.16-.488.589-.469.664-.894.088-.5-.465-.741-.366-1.247a.963.963,0,0,1,.615-.668c.672-.23,1.465.537,1.854.838" transform="translate(-34.768 -144.346)" fill="#fff"/>
        <path id="Path_17443" data-name="Path 17443" d="M60.557,191.1c.164-1.586-1.074-2.044-4.133-6.421a24.8,24.8,0,0,0-4.17-4.59,2.126,2.126,0,0,0-.738-.375,3.531,3.531,0,0,0-.965-.045,2.125,2.125,0,0,1-1.687-1.267,1.244,1.244,0,0,1-.037-1.091.958.958,0,0,1,.542-.392c.714-.193,1.271.569,1.627.344.262-.166.04-.633.37-.9a.826.826,0,0,1,.87-.021c.33.189.409.584.5,1.047a3.366,3.366,0,0,1,.067.63c-.01,1.095,3.044,4.644,4.293,6.262a59.718,59.718,0,0,0,4.352,5.226,2.388,2.388,0,0,0,.757.509c.765.3,1.184-.068,1.749.254a1.249,1.249,0,0,1,.652,1.049,1.236,1.236,0,0,1-.918,1.09c-.5.121-.709-.253-1.109-.093-.471.188-.385.786-.867.968a.962.962,0,0,1-.892-.17c-.549-.45-.315-1.528-.264-2.017" transform="translate(-35.793 -129.5)" fill="#fff"/>
        <path id="Path_17444" data-name="Path 17444" d="M84.013,164.431a10.418,10.418,0,0,0-.2-1.977c-.061-1.063.188-1.076.1-1.736a4.13,4.13,0,0,0-1.719-2.5,5.549,5.549,0,0,0-2.546-1.117,5.019,5.019,0,0,0-3.743.766c-.418.332-.443.517-1.131,1.059-.8.631-1.085.623-1.448,1.1a2.953,2.953,0,0,0,0,3.372,2.707,2.707,0,0,0,1.2.9,5.23,5.23,0,0,0-.551.5,2.572,2.572,0,0,0-.586.741.957.957,0,0,0,.268.793,4.958,4.958,0,0,1,.637-.606,3.17,3.17,0,0,1,1.019-.77.153.153,0,0,1,.2.2,3.121,3.121,0,0,1-.846.962,4.893,4.893,0,0,1-.656.6,6.441,6.441,0,0,0,1.064.808,4.073,4.073,0,0,1,.5-.861,4.9,4.9,0,0,1,.812-1.06c.091-.078.264.019.23.137A4.9,4.9,0,0,1,76,166.93a4.065,4.065,0,0,1-.552.818c.217.119.441.229.671.327.18.076.362.147.549.208a6.679,6.679,0,0,1,.311-.972,4.2,4.2,0,0,1,.566-1.23.156.156,0,0,1,.273.081,4.133,4.133,0,0,1-.272,1.288,7.206,7.206,0,0,1-.347.994,7.3,7.3,0,0,0,1.16.213,7.062,7.062,0,0,1,.1-.949,3.642,3.642,0,0,1,.3-1.319c.063-.109.247-.137.294,0a3.546,3.546,0,0,1,.043,1.313,7.4,7.4,0,0,1-.089.971c.52-.017.9-.141,1.009-.375a3.321,3.321,0,0,0,0-.849c-.015-.365-.04-.666-.059-.879a3.277,3.277,0,0,0,3.4-.656,2.989,2.989,0,0,0,.654-1.491m-6.886-1.688c-.582.232-2.173-1.24-1.933-2.515.082-.437.4-.969.815-1.012.584-.062,1.077.881,1.253,1.364.3.811.3,1.989-.134,2.163m.767,1.966a.662.662,0,0,1-.794-.385c-.021-.077-.03-.207.5-.891.386-.5.582-.744.678-.7s.048.354-.057.975c-.153.9-.266.974-.329,1m1.983-.722a1.033,1.033,0,0,1-.516-.6c-.075-.225-.1-.576.287-1.244.295-.514,1.231-2.147,2.408-1.943a1.359,1.359,0,0,1,1.061.873c.364,1.31-2.193,3.375-3.24,2.91" transform="translate(-53.488 -115.39)" fill="#fff"/>
        <path id="Path_17445" data-name="Path 17445" d="M323.916,43.48c1.261.975,2.3.165,7.636-.13a24.82,24.82,0,0,0,6.1-1.125,2.133,2.133,0,0,0,.707-.43,3.533,3.533,0,0,0,.547-.8,2.033,2.033,0,0,1,1.966-.767c.448.1,1.015.442,1.078.918a.983.983,0,0,1-.123.563c-.162.3-.371.308-.624.689a.758.758,0,0,0-.182.414c-.005.277.226.353.261.614a.828.828,0,0,1-.441.751c-.334.181-.712.04-1.155-.124a3.332,3.332,0,0,1-.57-.275c-.925-.585-5.551.141-7.584.35a59.705,59.705,0,0,0-6.735.945,2.4,2.4,0,0,0-.832.376c-.659.491-.566,1.042-1.136,1.353a1.25,1.25,0,0,1-1.235,0,1.236,1.236,0,0,1-.443-1.354c.16-.488.589-.469.664-.894.088-.5-.465-.741-.366-1.247a.963.963,0,0,1,.614-.668c.672-.23,1.465.537,1.854.838" transform="translate(-235.953 -29.536)" fill="#fff"/>
        <path id="Path_17446" data-name="Path 17446" d="M334.339,34.857c.165-1.585-1.074-2.044-4.134-6.421a24.817,24.817,0,0,0-4.17-4.59,2.122,2.122,0,0,0-.738-.374,3.522,3.522,0,0,0-.965-.045,2.126,2.126,0,0,1-1.687-1.267,1.242,1.242,0,0,1-.037-1.091.952.952,0,0,1,.542-.392c.714-.193,1.271.569,1.626.344.262-.167.041-.633.37-.9a.826.826,0,0,1,.87-.021c.329.189.409.583.5,1.047a3.35,3.35,0,0,1,.067.63c-.01,1.095,3.044,4.644,4.294,6.262a59.672,59.672,0,0,0,4.352,5.226,2.386,2.386,0,0,0,.757.509c.765.3,1.184-.068,1.749.253a1.25,1.25,0,0,1,.652,1.049,1.236,1.236,0,0,1-.918,1.089c-.5.121-.709-.253-1.109-.093-.47.188-.385.786-.867.968a.962.962,0,0,1-.892-.17c-.549-.45-.315-1.528-.264-2.017" transform="translate(-236.977 -14.69)" fill="#fff"/>
        <path id="Path_17447" data-name="Path 17447" d="M357.8,8.191a10.394,10.394,0,0,0-.2-1.977c-.06-1.064.188-1.076.1-1.736a4.128,4.128,0,0,0-1.719-2.5A5.55,5.55,0,0,0,353.421.865a5.018,5.018,0,0,0-3.743.766c-.418.332-.443.517-1.131,1.059-.8.631-1.085.623-1.447,1.1a2.8,2.8,0,0,0-.527,1.62,2.78,2.78,0,0,0,.529,1.752,2.709,2.709,0,0,0,1.2.9,5.214,5.214,0,0,0-.55.5,2.559,2.559,0,0,0-.586.741.955.955,0,0,0,.268.793,4.939,4.939,0,0,1,.636-.606,3.177,3.177,0,0,1,1.019-.77.153.153,0,0,1,.2.2,3.121,3.121,0,0,1-.846.962,4.9,4.9,0,0,1-.657.6,6.418,6.418,0,0,0,1.065.808,4.061,4.061,0,0,1,.5-.861,4.9,4.9,0,0,1,.812-1.06c.091-.079.264.018.23.137a4.9,4.9,0,0,1-.607,1.188,4.053,4.053,0,0,1-.552.818c.217.119.442.229.671.327.18.076.362.147.549.208a6.713,6.713,0,0,1,.311-.972,4.2,4.2,0,0,1,.566-1.23.156.156,0,0,1,.273.081,4.125,4.125,0,0,1-.272,1.288,7.153,7.153,0,0,1-.347.994,7.364,7.364,0,0,0,1.16.213,7.066,7.066,0,0,1,.1-.949,3.639,3.639,0,0,1,.3-1.318c.063-.109.247-.138.294,0a3.545,3.545,0,0,1,.043,1.313,7.4,7.4,0,0,1-.089.971c.52-.018.9-.141,1.009-.375a3.332,3.332,0,0,0,0-.849c-.015-.365-.039-.666-.058-.879a3.276,3.276,0,0,0,3.4-.656,2.987,2.987,0,0,0,.654-1.49M350.909,6.5c-.582.232-2.172-1.24-1.933-2.515.082-.437.4-.969.815-1.013.584-.062,1.077.881,1.253,1.365.3.811.3,1.989-.134,2.163m.767,1.966a.662.662,0,0,1-.794-.385c-.021-.076-.03-.207.5-.891.386-.5.582-.744.678-.7s.048.355-.057.975c-.152.9-.266.974-.329,1m1.983-.722a1.034,1.034,0,0,1-.516-.6c-.075-.225-.1-.576.287-1.244.295-.514,1.231-2.147,2.408-1.943a1.359,1.359,0,0,1,1.061.873c.364,1.309-2.193,3.375-3.24,2.91" transform="translate(-254.673 -0.579)" fill="#fff"/>
        <path id="Path_17448" data-name="Path 17448" d="M40.183,87.473c1.592.089,1.991-1.17,6.217-4.435a24.808,24.808,0,0,0,4.386-4.384,2.125,2.125,0,0,0,.339-.755,3.52,3.52,0,0,0,0-.967,2.033,2.033,0,0,1,1.185-1.746,1.349,1.349,0,0,1,1.409.145.984.984,0,0,1,.217.534c.035.336-.13.464-.123.921a.757.757,0,0,0,.085.444c.152.231.386.162.563.358a.827.827,0,0,1,.063.868c-.173.338-.563.436-1.022.552a3.372,3.372,0,0,1-.626.1c-1.094.042-4.494,3.262-6.05,4.587a59.672,59.672,0,0,0-5.013,4.6,2.385,2.385,0,0,0-.472.781c-.265.778.124,1.179-.17,1.759a1.249,1.249,0,0,1-1.017.7,1.236,1.236,0,0,1-1.132-.865c-.145-.493.219-.72.04-1.113-.21-.461-.8-.347-1.008-.82a.962.962,0,0,1,.127-.9c.423-.57,1.511-.387,2-.36" transform="translate(-27.918 -55.156)" fill="#fff"/>
        <path id="Path_17449" data-name="Path 17449" d="M40.312,100.5c-.763-1.4-2.043-1.076-7.045-2.948a24.807,24.807,0,0,0-6.037-1.418,2.13,2.13,0,0,0-.82.11,3.532,3.532,0,0,0-.821.51,2.125,2.125,0,0,1-2.108-.087,1.244,1.244,0,0,1-.649-.878.954.954,0,0,1,.225-.63c.478-.564,1.37-.252,1.535-.639.122-.286-.326-.545-.2-.948a.826.826,0,0,1,.705-.511c.379-.031.668.248,1.008.578a3.358,3.358,0,0,1,.412.481c.613.907,5.14,2.1,7.087,2.725a59.628,59.628,0,0,0,6.547,1.839,2.4,2.4,0,0,0,.912-.01c.8-.185.937-.727,1.584-.783a1.25,1.25,0,0,1,1.131.495,1.236,1.236,0,0,1-.139,1.418c-.342.383-.727.194-.967.552-.281.421.128.866-.165,1.289a.962.962,0,0,1-.831.366c-.708-.06-1.126-1.081-1.361-1.512" transform="translate(-16.776 -68.384)" fill="#fff"/>
        <path id="Path_17450" data-name="Path 17450" d="M48.483,58.456c-.321-.64-.663-.707-1.289-1.513-.653-.842-.455-.993-.906-1.484a4.128,4.128,0,0,0-2.831-1.082,5.553,5.553,0,0,0-2.731.523,5.018,5.018,0,0,0-2.649,2.752c-.156.51-.072.677-.332,1.513-.3.976-.541,1.129-.567,1.73a2.952,2.952,0,0,0,1.912,2.777,2.707,2.707,0,0,0,1.494.059,5.257,5.257,0,0,0-.171.723,2.564,2.564,0,0,0-.063.943c.069.216.314.385.67.5a5,5,0,0,1,.181-.86,3.178,3.178,0,0,1,.4-1.212.153.153,0,0,1,.276.055,3.124,3.124,0,0,1-.152,1.272,4.891,4.891,0,0,1-.2.864,6.416,6.416,0,0,0,1.335.062,4.066,4.066,0,0,1-.074-.994,4.9,4.9,0,0,1,.068-1.333.146.146,0,0,1,.267-.018,4.877,4.877,0,0,1,.173,1.323,4.057,4.057,0,0,1,.009.987c.247-.025.494-.061.738-.111.191-.04.382-.084.57-.139a6.7,6.7,0,0,1-.295-.977,4.186,4.186,0,0,1-.23-1.334.156.156,0,0,1,.27-.088,4.13,4.13,0,0,1,.506,1.215,7.229,7.229,0,0,1,.277,1.016,7.312,7.312,0,0,0,1.076-.482,6.98,6.98,0,0,1-.456-.838,3.639,3.639,0,0,1-.5-1.258c-.01-.125.125-.253.245-.163a3.549,3.549,0,0,1,.78,1.058,7.355,7.355,0,0,1,.478.85c.419-.309.662-.627.619-.881a3.323,3.323,0,0,0-.479-.7c-.219-.292-.41-.527-.546-.691a3.276,3.276,0,0,0,2.428-2.467,2.993,2.993,0,0,0-.306-1.6m-6.63,2.512c-.348.521-2.493.21-3.018-.976a1.209,1.209,0,0,1,.1-1.3c.446-.382,1.387.116,1.806.414.7.5,1.376,1.468,1.115,1.858M43.6,62.153a.662.662,0,0,1-.872.133c-.061-.051-.142-.154-.091-1.018.037-.629.057-.943.161-.963s.24.265.5.836c.384.827.333.954.3,1.013m1.225-1.719a1.034,1.034,0,0,1-.763-.2c-.189-.143-.406-.42-.469-1.188-.049-.591-.2-2.467.883-2.965a1.36,1.36,0,0,1,1.369.118c1.042.873.106,4.024-1.02,4.234" transform="translate(-27.318 -39.949)" fill="#fff"/>
        <path id="Path_17451" data-name="Path 17451" d="M200.064,248.444c1.582.2,2.065-1.033,6.5-4.006a24.82,24.82,0,0,0,4.671-4.078,2.133,2.133,0,0,0,.389-.731,3.533,3.533,0,0,0,.064-.964,2.032,2.032,0,0,1,1.3-1.662,1.35,1.35,0,0,1,1.4.239.982.982,0,0,1,.181.547c.012.338-.161.454-.185.911a.76.76,0,0,0,.055.449c.137.241.374.188.538.4a.828.828,0,0,1,0,.871c-.2.326-.592.4-1.057.482a3.355,3.355,0,0,1-.631.054c-1.095-.031-4.7,2.952-6.346,4.169a59.7,59.7,0,0,0-5.311,4.247,2.39,2.39,0,0,0-.524.747c-.317.759.045,1.185-.288,1.743a1.25,1.25,0,0,1-1.061.631,1.236,1.236,0,0,1-1.072-.94c-.111-.5.267-.7.115-1.107-.178-.474-.778-.4-.951-.886a.963.963,0,0,1,.187-.888c.461-.54,1.534-.285,2.022-.224" transform="translate(-145.359 -174.095)" fill="#fff"/>
        <path id="Path_17452" data-name="Path 17452" d="M201.308,259.09c-.667-1.448-1.966-1.211-6.831-3.416a24.8,24.8,0,0,0-5.927-1.821,2.119,2.119,0,0,0-.826.054,3.533,3.533,0,0,0-.854.453,2.127,2.127,0,0,1-2.1-.229,1.244,1.244,0,0,1-.588-.919.956.956,0,0,1,.267-.613c.515-.53,1.384-.159,1.575-.534.141-.277-.288-.565-.138-.959a.826.826,0,0,1,.738-.462c.379-.006.649.293.967.644a3.354,3.354,0,0,1,.379.508c.55.947,4.987,2.442,6.887,3.2a59.705,59.705,0,0,0,6.408,2.276,2.394,2.394,0,0,0,.911.051c.812-.13.983-.662,1.633-.674a1.25,1.25,0,0,1,1.1.57,1.236,1.236,0,0,1-.234,1.406c-.367.359-.739.144-1,.486-.309.4.07.872-.252,1.275a.964.964,0,0,1-.854.309c-.7-.107-1.051-1.154-1.256-1.6" transform="translate(-135.345 -184.182)" fill="#fff"/>
        <path id="Path_17453" data-name="Path 17453" d="M211.547,218.337c-.277-.66-.614-.75-1.185-1.6-.594-.884-.387-1.021-.8-1.542a4.129,4.129,0,0,0-2.751-1.271,5.548,5.548,0,0,0-2.76.337,5.019,5.019,0,0,0-2.829,2.568c-.191.5-.118.67-.433,1.488-.37.953-.616,1.089-.682,1.688a2.951,2.951,0,0,0,1.721,2.9,2.71,2.71,0,0,0,1.487.16,5.187,5.187,0,0,0-.219.71,2.559,2.559,0,0,0-.126.936c.054.22.287.4.635.546a4.96,4.96,0,0,1,.238-.846,3.172,3.172,0,0,1,.484-1.182.153.153,0,0,1,.272.073,3.13,3.13,0,0,1-.237,1.259,4.912,4.912,0,0,1-.26.849,6.415,6.415,0,0,0,1.328.152,4.053,4.053,0,0,1-.007-1,4.9,4.9,0,0,1,.158-1.326.146.146,0,0,1,.268,0,4.889,4.889,0,0,1,.084,1.332,4.071,4.071,0,0,1-.057.985c.248-.008.5-.028.744-.061.193-.027.386-.058.578-.1a6.718,6.718,0,0,1-.228-.994,4.2,4.2,0,0,1-.14-1.346.156.156,0,0,1,.276-.069,4.129,4.129,0,0,1,.423,1.247,7.233,7.233,0,0,1,.208,1.032,7.329,7.329,0,0,0,1.106-.408,7.072,7.072,0,0,1-.4-.867,3.646,3.646,0,0,1-.412-1.289c0-.125.142-.244.256-.146a3.559,3.559,0,0,1,.707,1.108,7.438,7.438,0,0,1,.419.881c.438-.281.7-.58.676-.837a3.321,3.321,0,0,0-.431-.732c-.2-.307-.374-.553-.5-.726a3.278,3.278,0,0,0,2.589-2.3,2.992,2.992,0,0,0-.2-1.616m-6.785,2.06c-.382.5-2.5.041-2.945-1.177a1.208,1.208,0,0,1,.184-1.287c.471-.351,1.375.208,1.773.535.667.547,1.274,1.558.987,1.929m1.662,1.3a.663.663,0,0,1-.879.073c-.057-.055-.131-.163-.022-1.022.079-.625.121-.937.226-.95s.222.28.448.868c.327.85.268.974.228,1.031m1.338-1.632a1.034,1.034,0,0,1-.748-.25c-.18-.155-.377-.447-.388-1.217-.008-.593-.036-2.475,1.081-2.9a1.359,1.359,0,0,1,1.358.209c.981.941-.165,4.022-1.3,4.156" transform="translate(-147.032 -157.166)" fill="#fff"/>
        <path id="Path_17454" data-name="Path 17454" d="M381.239,258.035c1.261.976,2.3.165,7.636-.129a24.815,24.815,0,0,0,6.1-1.126,2.126,2.126,0,0,0,.707-.43,3.522,3.522,0,0,0,.547-.8,2.033,2.033,0,0,1,1.966-.767c.448.1,1.015.442,1.078.918a.982.982,0,0,1-.124.563c-.162.3-.371.308-.623.689a.756.756,0,0,0-.182.414c-.006.277.226.353.261.615a.827.827,0,0,1-.44.751c-.334.181-.712.04-1.155-.124a3.34,3.34,0,0,1-.571-.275c-.925-.585-5.551.141-7.584.35a59.719,59.719,0,0,0-6.735.945,2.393,2.393,0,0,0-.831.376c-.66.491-.566,1.042-1.137,1.353a1.25,1.25,0,0,1-1.235,0,1.237,1.237,0,0,1-.443-1.355c.16-.488.589-.469.664-.894.088-.5-.465-.741-.366-1.247a.963.963,0,0,1,.615-.668c.672-.23,1.465.537,1.854.838" transform="translate(-278.076 -187.198)" fill="#fff"/>
        <path id="Path_17455" data-name="Path 17455" d="M391.661,249.413c.165-1.586-1.073-2.044-4.133-6.421a24.816,24.816,0,0,0-4.17-4.59,2.129,2.129,0,0,0-.738-.374,3.512,3.512,0,0,0-.965-.045,2.126,2.126,0,0,1-1.687-1.267,1.243,1.243,0,0,1-.037-1.091.955.955,0,0,1,.542-.391c.714-.193,1.271.569,1.627.344.262-.167.04-.633.37-.9a.827.827,0,0,1,.87-.021c.33.189.409.584.5,1.047a3.352,3.352,0,0,1,.067.63c-.01,1.095,3.044,4.644,4.293,6.262a59.722,59.722,0,0,0,4.352,5.226,2.4,2.4,0,0,0,.757.509c.765.3,1.184-.068,1.749.254a1.248,1.248,0,0,1,.652,1.049,1.235,1.235,0,0,1-.918,1.09c-.5.121-.709-.253-1.109-.093-.471.188-.385.786-.867.968a.963.963,0,0,1-.892-.17c-.549-.45-.315-1.528-.264-2.017" transform="translate(-279.1 -172.353)" fill="#fff"/>
        <path id="Path_17456" data-name="Path 17456" d="M415.117,222.746a10.391,10.391,0,0,0-.2-1.977c-.061-1.064.188-1.076.1-1.736a4.129,4.129,0,0,0-1.719-2.5,5.548,5.548,0,0,0-2.546-1.117,5.019,5.019,0,0,0-3.743.766c-.418.332-.443.517-1.131,1.059-.8.631-1.085.623-1.448,1.1a2.952,2.952,0,0,0,0,3.372,2.712,2.712,0,0,0,1.2.9,5.2,5.2,0,0,0-.551.5,2.562,2.562,0,0,0-.586.741.955.955,0,0,0,.268.793,4.941,4.941,0,0,1,.637-.606,3.177,3.177,0,0,1,1.019-.77.153.153,0,0,1,.2.2,3.122,3.122,0,0,1-.846.962,4.892,4.892,0,0,1-.656.6,6.439,6.439,0,0,0,1.064.808,4.069,4.069,0,0,1,.5-.861,4.9,4.9,0,0,1,.812-1.06c.091-.079.264.018.23.137a4.9,4.9,0,0,1-.607,1.188,4.064,4.064,0,0,1-.552.819c.217.119.441.229.671.327.18.076.362.147.549.208a6.687,6.687,0,0,1,.311-.972,4.2,4.2,0,0,1,.566-1.23.156.156,0,0,1,.273.081,4.137,4.137,0,0,1-.272,1.288,7.238,7.238,0,0,1-.347.994,7.36,7.36,0,0,0,1.16.213,7.068,7.068,0,0,1,.1-.949,3.636,3.636,0,0,1,.3-1.319c.063-.109.247-.137.294,0a3.547,3.547,0,0,1,.043,1.313,7.4,7.4,0,0,1-.089.971c.52-.018.9-.141,1.009-.375a3.323,3.323,0,0,0,0-.849c-.015-.365-.039-.666-.058-.879a3.276,3.276,0,0,0,3.4-.656,2.985,2.985,0,0,0,.654-1.491m-6.886-1.688c-.582.232-2.173-1.24-1.933-2.515.082-.437.4-.969.815-1.013.584-.062,1.077.881,1.253,1.365.3.811.3,1.989-.134,2.163m.767,1.966a.663.663,0,0,1-.794-.386c-.021-.076-.03-.207.5-.89.386-.5.582-.745.678-.7s.048.354-.057.975c-.153.9-.266.974-.329,1m1.983-.722a1.033,1.033,0,0,1-.516-.6c-.075-.225-.1-.576.287-1.244.295-.514,1.231-2.147,2.408-1.943a1.359,1.359,0,0,1,1.061.873c.364,1.309-2.193,3.375-3.24,2.91" transform="translate(-296.795 -158.242)" fill="#fff"/>
      </g>
    </g>
    <g id="Group_7350" data-name="Group 7350" transform="translate(0)">
      <g id="Group_7349" data-name="Group 7349" clip-path="url(#clip-path)">
        <path id="Path_17458" data-name="Path 17458" d="M383.437,135.017a1.739,1.739,0,0,1,0-1.437c.847-1.934,4.787-1.444,9.411-1.724,4.313-.261,9.125-1.611,18.751-4.311,2.344-.657,4.266-1.245,5.56-1.652-.736.458-1.857,1.13-3.261,1.868-4.245,2.23-7.413,3.134-17.961,5.747-8.363,2.072-11.719,2.828-12.5,1.509" transform="translate(-281.642 -92.511)" fill="#bc2820"/>
        <path id="Path_17459" data-name="Path 17459" d="M451.8,156.065a71.51,71.51,0,0,1-7.934,5.434c-2.751,1.628-15.784,9.343-19.146,6.071a1.936,1.936,0,0,1-.646-1.509c.318-1.683,4.8-2.117,6.035-2.263,3.895-.46,10.375-2.173,21.692-7.733" transform="translate(-311.613 -114.682)" fill="#bc2820"/>
        <path id="Path_17460" data-name="Path 17460" d="M327.537,207.466c-.162-.612-7.234,2.042-24.857,3.879-17.037,1.776-29.554,1.29-29.6,2.3-.027.6,4.445,1.346,7.759,1.724,24.008,2.738,46.991-6.794,46.7-7.9" transform="translate(-200.669 -152.388)" fill="#bc2820"/>
        <path id="Path_17461" data-name="Path 17461" d="M56.251,147.313c-2.076,2.993-14.643-1.787-14.643-1.787-5.026-1.722-9.082-3.221-11.979-4.321q.207-.388.466-.828c16.016,3.852,22.535,5,24.289,4.853.281-.023,1.665-.18,2.083.5a1.607,1.607,0,0,1-.215,1.58" transform="translate(-21.772 -103.154)" fill="#bc2820"/>
        <path id="Path_17462" data-name="Path 17462" d="M36.073,200.411c.079.413-1.586,1.052-2.119,1.257-2.9,1.112-5.753,1.38-12,.862-9.127-.757-13.724-2.218-15.626-2.874-.858-.3-1.565-.565-2.059-.758a78.553,78.553,0,0,0,10.572,1.4c2.354.15,4.106.158,6.25.162,9.37.018,14.838-.786,14.979-.054" transform="translate(-3.138 -146.157)" fill="#bc2820"/>
        <path id="Path_17463" data-name="Path 17463" d="M32.559,176.374c0,.324-.638.562-.862.646-2.881,1.082-8.95-1.107-12.86-2.371-4.01-1.3-6.125-1.741-6.087-1.908.07-.3,6.97.763,11.475,1.693,2.276.47,3.477.236,5.783.79,2.02.485,2.552.852,2.55,1.149" transform="translate(-9.369 -126.898)" fill="#bc2820"/>
      </g>
    </g>
  </g>
</svg>
