<svg id="Group_7338" data-name="Group 7338" xmlns="http://www.w3.org/2000/svg" xmlns:xlink="http://www.w3.org/1999/xlink" width="254" height="165.129" viewBox="0 0 254 165.129">
  <defs>
    <clipPath id="clip-path">
      <rect id="Rectangle_1469" data-name="Rectangle 1469" width="254" height="165.129" fill="none"/>
    </clipPath>
  </defs>
  <g id="Group_7337" data-name="Group 7337" clip-path="url(#clip-path)">
    <path id="Path_17396" data-name="Path 17396" d="M924.105,227.987l-1.486-.452a14.385,14.385,0,0,0,.555-6.079,15.555,15.555,0,0,0-1.705-5.042,41.118,41.118,0,0,1-1.75-4.113,47.458,47.458,0,0,1-1.783-7.708c-.8-5.016.1-8.511,1.154-12.556a63.529,63.529,0,0,0,1.563-7.28c1.672-11.641-1.41-22.571-2.891-27.822-.146-.518-.3-1.063-.476-1.645-.7-2.379-1.568-5.34-2.448-9.669-.431-2.118-.8-4.256-1.108-6.395-.5,5.111.115,8.905,1.019,14.472.506,3.113,1.079,6.642,1.622,11.283.616,5.274.923,7.911.779,10.611a46.875,46.875,0,0,1-.722,5.857,51.054,51.054,0,0,0-.829,7.332,44.672,44.672,0,0,0,.073,4.95c.044.756.089,1.566.121,2.565a80.644,80.644,0,0,1-1.568,18.03l-1.522-.3a79.061,79.061,0,0,0,1.537-17.682c-.03-.983-.076-1.78-.118-2.526a46.142,46.142,0,0,1-.076-5.1,52.7,52.7,0,0,1,.85-7.531,45.363,45.363,0,0,0,.7-5.678c.136-2.57-.167-5.162-.77-10.329-.541-4.627-1.111-8.137-1.615-11.234-.985-6.069-1.636-10.079-.911-15.95a46,46,0,0,1,.791-4.541l1.082-4.768.447,4.868a108.814,108.814,0,0,0,1.734,11.755c.867,4.265,1.725,7.191,2.415,9.542.173.588.335,1.137.482,1.66,1.51,5.355,4.651,16.5,2.934,28.465a65.383,65.383,0,0,1-1.6,7.448c-1,3.877-1.874,7.226-1.122,11.921a46.939,46.939,0,0,0,1.712,7.433,39.886,39.886,0,0,0,1.689,3.968,17.027,17.027,0,0,1,1.844,5.508,15.967,15.967,0,0,1-.609,6.731" transform="translate(-672.204 -94.852)" fill="#232023"/>
    <path id="Path_17397" data-name="Path 17397" d="M894.727,445.7a25.947,25.947,0,0,0-2.911,3.494,28.537,28.537,0,0,0-4.852,15.721l3.882-.776-4.27,6.6q.194,2.135.388,4.27l3.882-.97-3.494,6.987a36.189,36.189,0,0,0,2.911,12.616,25.391,25.391,0,0,0,6.6-6.4c11.292-16.009-1.19-39.793-2.135-41.536" transform="translate(-653.468 -328.513)" fill="#e8402e"/>
    <path id="Path_17398" data-name="Path 17398" d="M906.034,450.014s-.034.742-.093,2.041-.059,3.148.013,5.354a59.82,59.82,0,0,0,.788,7.479c.863,5.2,1.487,4.892,1.908,8.471a28.358,28.358,0,0,1-.309,8.946,35.982,35.982,0,0,1-2.537,7.281,43.489,43.489,0,0,1-2.6,4.749l-1.129,1.709.863-1.853c.145-.311,1.273-2.823,2.058-4.942a36,36,0,0,0,2-7.207,32.3,32.3,0,0,0,.128-8.389c-.444-4.019-1.078-3.9-1.734-8.569a42.312,42.312,0,0,1-.309-7.676,43.3,43.3,0,0,1,.558-5.385c.215-1.287.392-2.01.392-2.01" transform="translate(-664.894 -331.692)" fill="#ff5043"/>
    <path id="Path_17399" data-name="Path 17399" d="M917.562,328.487a3.265,3.265,0,1,1-3.265-3.265,3.265,3.265,0,0,1,3.265,3.265" transform="translate(-671.493 -239.711)" fill="#f9c646"/>
    <path id="Path_17400" data-name="Path 17400" d="M952.9,499.266a2.342,2.342,0,1,1-2.342-2.342,2.342,2.342,0,0,1,2.342,2.342" transform="translate(-698.904 -366.268)" fill="#24844b"/>
    <path id="Path_17401" data-name="Path 17401" d="M901.275,411.267c-3.551,0-6.43-1.059-6.43-2.364s2.879-2.364,6.43-2.364,6.43,1.059,6.43,2.364-2.879,2.364-6.43,2.364" transform="translate(-659.563 -299.647)" fill="#f9c646"/>
    <path id="Path_17402" data-name="Path 17402" d="M915.075,435.629a2.342,2.342,0,1,1-2.342-2.342,2.342,2.342,0,0,1,2.342,2.342" transform="translate(-671.021 -319.363)" fill="#24844b"/>
    <path id="Path_17403" data-name="Path 17403" d="M919.227,380.673a2.342,2.342,0,1,1-2.342-2.342,2.342,2.342,0,0,1,2.342,2.342" transform="translate(-674.081 -278.856)" fill="#24844b"/>
    <path id="Path_17404" data-name="Path 17404" d="M376.126,41.543c0,22.945-21.7,41.543-48.467,41.543s-48.467-18.6-48.467-41.543A37.837,37.837,0,0,1,289.9,15.509C298.784,6.054,312.4,0,327.66,0a52.642,52.642,0,0,1,33.455,11.5c9.253,7.56,15.012,18.226,15.012,30.04" transform="translate(-205.785)" fill="#161416"/>
    <path id="Path_17405" data-name="Path 17405" d="M376.126,73.791c0,22.945-21.7,41.543-48.467,41.543s-48.467-18.6-48.467-41.543A37.837,37.837,0,0,1,289.9,47.756a32.171,32.171,0,0,1,11.027,8.6c6.374,7.869,4.63,14.012,11.126,19.664A22.644,22.644,0,0,0,326.288,81.2c6.418.1,14.27-2.517,18.37-8.538,3.6-5.283,1.33-8.812,4.4-15.783,2.855-6.486,7.972-10.6,12.057-13.123,3.537,3.195,15.012,14.434,15.012,30.04" transform="translate(-205.785 -32.248)" fill="#0f0d0f"/>
    <path id="Path_17406" data-name="Path 17406" d="M243.7,56.938c-.2,1.553-1.4,2.715-3.775,4.951-.155.14-.277.26-.432.4-5.185,4.89-7.8,7.377-8.293,7.734-5.728,4.331-9.687,9.563-22.665,22.976-15.711,16.207-23.566,24.311-27.059,25.289-.528.155-1.025.28-1.521.4-9.485,2.173-13.227-2.267-36.855-4.751a208.441,208.441,0,0,0-42.443,0c-23.814,2.515-27.462,7-37.1,4.688-.419-.093-.839-.217-1.289-.342C58.77,117.309,50.93,109.205,35.219,93,22.225,79.585,18.283,74.353,12.539,70.022c-.5-.373-3.17-2.905-8.526-7.966a1.867,1.867,0,0,1-.184-.168C1.438,59.653.239,58.49.038,56.938c-.528-3.928,4.769-7.655,6.694-9.006C48.74,18.343,73.315,32.224,73.315,32.224c20.042,11.317,18.7,39.369,40.422,44.2a28.477,28.477,0,0,0,8.126.584,28.58,28.58,0,0,0,8.15-.584c21.7-4.828,20.38-32.88,40.422-44.2,0,0,24.575-13.881,66.583,15.708,1.91,1.351,7.222,5.078,6.678,9.006" transform="translate(-0.001 -21.354)" fill="#232023"/>
    <path id="Path_17407" data-name="Path 17407" d="M243.7,56.93c-.215,1.551-1.4,2.707-3.775,4.951-.149.132-.283.268-.432.4A163.909,163.909,0,0,0,225.536,51.62c-10-6.714-19.516-12.951-32.17-14.023-5.114-.429-12.158-1.023-19.252,2.475-15.706,7.754-10.938,25.307-27.765,37.663A42.958,42.958,0,0,1,122.2,85.721c-2.821.033-14.782-.066-25.571-7.985C79.782,65.379,84.665,47.826,68.861,40.072c-7.127-3.5-14.188-2.9-19.253-2.475-12.7,1.072-22.288,7.374-32.17,14.023A128.839,128.839,0,0,0,4.012,62.049c-.049-.05-.118-.1-.184-.168C1.436,59.637.252,58.481.038,56.93-.491,53,4.8,49.277,6.732,47.924c42-29.6,66.583-15.708,66.583-15.708,20.045,11.317,18.711,39.363,40.422,44.2a28.24,28.24,0,0,0,8.126.584,28.368,28.368,0,0,0,8.15-.584c21.694-4.834,20.377-32.88,40.422-44.2,0,0,24.581-13.888,66.583,15.708,1.914,1.353,7.223,5.08,6.678,9.006" transform="translate(0 -21.346)" fill="#e8402e"/>
    <path id="Path_17408" data-name="Path 17408" d="M232.219,103.719a.774.774,0,0,0-1.026-.39l-5.315,2.392-2.392-5.314a.776.776,0,1,0-1.416.637l2.392,5.314-5.314,2.392a.776.776,0,0,0,.319,1.484.763.763,0,0,0,.318-.068l5.314-2.392,2.392,5.314a.776.776,0,0,0,.709.458.762.762,0,0,0,.318-.068.776.776,0,0,0,.39-1.026l-2.392-5.314,5.314-2.392a.776.776,0,0,0,.39-1.026" transform="translate(-161.19 -73.668)" fill="#e8402e"/>
    <path id="Path_17409" data-name="Path 17409" d="M661.969,108.756l-5.314-2.392,2.392-5.314a.776.776,0,1,0-1.416-.637l-2.392,5.314-5.314-2.392a.776.776,0,0,0-.637,1.416l5.313,2.392-2.392,5.314a.776.776,0,0,0,.39,1.026.76.76,0,0,0,.318.068.775.775,0,0,0,.708-.458l2.392-5.314,5.314,2.392a.766.766,0,0,0,.318.068.776.776,0,0,0,.318-1.485" transform="translate(-478.233 -73.673)" fill="#e8402e"/>
    <path id="Path_17410" data-name="Path 17410" d="M358.1,327.377c-9.485,2.173-13.227-2.267-36.855-4.751a208.441,208.441,0,0,0-42.443,0c-23.814,2.515-27.462,7-37.1,4.688,10.929-7.4,35.287-15.276,58.511-15.214,22.743.078,45.889,7.778,57.89,15.276" transform="translate(-178.15 -230.04)" fill="#161416"/>
  </g>
</svg>
