<svg xmlns="http://www.w3.org/2000/svg" width="395.262" height="616.956" viewBox="0 0 395.262 616.956">
  <g id="Group_114" data-name="Group 114" transform="translate(16.344 16.734)">
    <path id="Path_209" data-name="Path 209" d="M160.994,599.972a12.034,12.034,0,0,1-2.123-.181l-6.523-1.163c-.612-.108-1.236-.22-1.683-.3a9.408,9.408,0,0,1-7.808-8.3l-.447-.465-1.485,1.38a9.024,9.024,0,0,1-6.132,2.44,8.6,8.6,0,0,1-5.913-2.332l-.344,0a12.96,12.96,0,0,1-7.282-2.254l-5.064-3.682a21.747,21.747,0,0,1-3.085-2.769l-1.431-1.586c-.3-.335-.721-.8-1.1-1.223l-.888-.987a15.9,15.9,0,0,1-2.512-3.769l-4.859-10.769-.662-.211-1.482-.469a9.918,9.918,0,0,1-4.281-2.266l-9.421-7.336a13.707,13.707,0,0,1-3.788-4.691L81.316,546.1l-5.3-1.371a11.488,11.488,0,0,0-1.52-.222l-18.284-.916a22.623,22.623,0,0,1-3.381-.566l-3.815-.883a7.132,7.132,0,0,0-.921-.07h-.037l-1.464.09a6.011,6.011,0,0,0-.615.133l-5.459,2.272-.823.343a24.689,24.689,0,0,1-4.752,1.365l-1.634.277a26.256,26.256,0,0,1-4.089.323c-.281,0-.548-.005-.8-.016l-7.046-.306-2.179-.094-.376-.017a9.248,9.248,0,0,1-5.639,1.938,8.82,8.82,0,0,1-6.129-2.432l-1.241.4a9.258,9.258,0,0,1-8.944,6.148c-.381,0-2.721-.022-3.1-.065l-9.867-1.118V-16.484H378.668V500.833l-.078,7.8h-7.959l-3.249-.164h-.065a9.641,9.641,0,0,0-1.277.1l-2.805.539c-.421.081-3.366.358-3.75.5l-7.992,3.025a10.34,10.34,0,0,0-1.2.593l-1.49.968a20.761,20.761,0,0,1-4.738,2.177l-3.8,1.15a8.859,8.859,0,0,0-1.016.438l-3.245,1.973a16.128,16.128,0,0,0-1.385.987l-.071.059a16.785,16.785,0,0,1-5.1,2.811,32.011,32.011,0,0,1-4.241,1.037l-9.149,1.517a14.987,14.987,0,0,0-1.736.446l-1.756.636a29.3,29.3,0,0,1-4.45,1.163L293.855,531c-.092.025-.282.09-.4.133l-4.515,2.683-4.826,2.87-.3.562a15.926,15.926,0,0,1-3.3,4.177l-5.47,4.869-2.42,6.644a12.083,12.083,0,0,1-5.029,5.9l-3.73,2.212a20.171,20.171,0,0,1-4.983,2.015l-6.073,1.487a10.089,10.089,0,0,1-3.089,3.085,17.646,17.646,0,0,1-4.856,1.94l-8.221,1.955a8.236,8.236,0,0,1-7.808,4.932,10.165,10.165,0,0,1-2.982-.457l-1.354-.417-.754.275a9.746,9.746,0,0,1-3.414.658c-.483.033-1.605.11-2.512.175l-4.669.322-2.359.164-7.08.49-.137.036-.256.138a10.382,10.382,0,0,1-4.929,1.226,10.27,10.27,0,0,1-3.875-.752l-4.032,1.009a9.7,9.7,0,0,1-1.012,1.645l-2.8,3.666-.447.587,0,0-1.182,1.539-.362.469-.428.407a8.156,8.156,0,0,1-1.974,1.38l-1.049.565L176.7,592.03l-1.72,1.847a15.683,15.683,0,0,1-4.93,3.428l-3.726,1.619A13.888,13.888,0,0,1,160.994,599.972Z" fill="none" stroke="#e1e5eb" stroke-width="0.5"/>
    <path id="Path_210" data-name="Path 210" d="M160.994,598.017a11.867,11.867,0,0,0,4.554-.886l3.727-1.619a13.827,13.827,0,0,0,4.277-2.966l0,0c.1-.1.258-.273.525-.56l1.418-1.523,4.814-2.585,1.051-.567a6.261,6.261,0,0,0,1.552-1.073l.32-.3.272-.352-.005,0q.069-.08.138-.168c.082-.106.194-.252.316-.413h0c.147-.187.454-.589,1.2-1.568l2.775-3.63a7.849,7.849,0,0,0,1.146-2.119l5.639-1.411a8.224,8.224,0,0,0,3.688.859,8.426,8.426,0,0,0,4-.992l.415-.224a4.3,4.3,0,0,1,.658-.171l7.2-.5c.626-.042,1.549-.106,2.356-.163l4.663-.322c.91-.065,2.035-.142,2.518-.175a7.956,7.956,0,0,0,2.828-.526l1.172-.427.251-.091,1.978.61a8.217,8.217,0,0,0,2.409.37,6.324,6.324,0,0,0,6.3-4.547l.025-.088,9.247-2.2a15.839,15.839,0,0,0,4.275-1.7,8.188,8.188,0,0,0,2.855-3.128l6.875-1.683a18.332,18.332,0,0,0,4.452-1.8l3.727-2.211a10.068,10.068,0,0,0,4.192-4.892l2.589-7.107,5.837-5.2a14.074,14.074,0,0,0,2.874-3.63l.553-1.049,5.3-3.153,4.625-2.748a5.644,5.644,0,0,1,.908-.306l14.31-2.424a27.5,27.5,0,0,0,4.111-1.074l1.763-.638a16.433,16.433,0,0,1,2.075-.534l9.149-1.518a30.368,30.368,0,0,0,3.947-.963,14.881,14.881,0,0,0,4.464-2.46l.067-.055a17.989,17.989,0,0,1,1.624-1.158l3.256-1.978a9.747,9.747,0,0,1,1.453-.633l3.795-1.149a18.9,18.9,0,0,0,4.241-1.946l1.488-.967a11.77,11.77,0,0,1,1.578-.784l8-3.026a17.922,17.922,0,0,1,2.114-.593l4.758-.539a11.291,11.291,0,0,1,1.648-.131c.058,0,.114,0,.164,0l3.2.163h5.973l.059-5.845V-14.529H-14.139V549.563l8.133.922c.3.035,2.569.052,2.877.052a7.255,7.255,0,0,0,7.3-5.559l.192-.146a5.887,5.887,0,0,1,.737-.31l1.65-.531c.2-.063.395-.117.557-.156l.49.025a6.832,6.832,0,0,0,5.392,2.563,7.3,7.3,0,0,0,4.7-1.739l.274-.231,1.124.05,2.18.094,7.047.306c.219.01.458.015.709.015a24.3,24.3,0,0,0,3.762-.3l1.634-.277a22.944,22.944,0,0,0,4.326-1.241l.825-.345,5.513-2.294a6.314,6.314,0,0,1,1.168-.256l1.517-.093.128,0a8.275,8.275,0,0,1,1.332.114l3.849.89a21.155,21.155,0,0,0,3.042.518l18.277.916a12.893,12.893,0,0,1,1.911.282l6.2,1.6,1.754,3.781a11.781,11.781,0,0,0,3.217,3.975l9.421,7.336a7.994,7.994,0,0,0,3.563,1.911l1.593.5,1.492.475,5.215,11.559a14.017,14.017,0,0,0,2.185,3.269l.889.987,1.1,1.222,1.436,1.592a19.962,19.962,0,0,0,2.777,2.491l5.067,3.683a10.944,10.944,0,0,0,6.113,1.88l1.191-.011a6.6,6.6,0,0,0,5.083,2.34,7.071,7.071,0,0,0,4.8-1.919l2.34-2.173,1.05,0,1.8,1.876a7.336,7.336,0,0,0,6.226,7.187l1.679.3,6.526,1.164A10.123,10.123,0,0,0,160.994,598.017Z" fill="none" stroke="#e1e5eb" stroke-width="0.5"/>
    <path id="Path_211" data-name="Path 211" d="M160.994,596.063a9.834,9.834,0,0,0,3.776-.725l3.725-1.619a11.868,11.868,0,0,0,3.625-2.5s1.565-1.68,2.163-2.323c1.058-.567,4.633-2.488,5.1-2.738.43-.233.807-.436,1.05-.566a4.378,4.378,0,0,0,1.129-.767l.214-.2.181-.234s.2-.26.441-.576c0,0,.865-1.133,1.194-1.566l2.778-3.634a6,6,0,0,0,1.117-2.551L195,574.176a6.066,6.066,0,0,0,3.392.994,6.462,6.462,0,0,0,3.071-.757l.472-.254a5.2,5.2,0,0,1,1.378-.371l7.214-.5c.63-.042,1.551-.107,2.355-.163l4.665-.322c.907-.065,2.036-.142,2.52-.176a6.135,6.135,0,0,0,2.23-.39l1.237-.45.582-.211a1.982,1.982,0,0,1,.406-.041l.083,0,2.4.739a6.219,6.219,0,0,0,1.831.283,4.408,4.408,0,0,0,4.425-3.129c.067-.242.2-.716.335-1.188l10.364-2.463a13.866,13.866,0,0,0,3.69-1.453,6.317,6.317,0,0,0,2.5-3.143l7.8-1.91a16.354,16.354,0,0,0,3.917-1.579l3.73-2.212a8.151,8.151,0,0,0,3.35-3.875l2.675-7.341a2.938,2.938,0,0,1,.378-.495l5.912-5.262a12.128,12.128,0,0,0,2.442-3.076l.713-1.353a2.478,2.478,0,0,1,.417-.378l5.457-3.245,4.651-2.763a6.626,6.626,0,0,1,1.55-.538l14.315-2.425a25.562,25.562,0,0,0,3.775-.985l1.76-.637a18.161,18.161,0,0,1,2.417-.624l9.152-1.518a28.616,28.616,0,0,0,3.656-.892,12.9,12.9,0,0,0,3.816-2.1l.077-.064a19.83,19.83,0,0,1,1.855-1.322l3.258-1.981a11.282,11.282,0,0,1,1.9-.832l3.8-1.15a16.949,16.949,0,0,0,3.747-1.717l1.485-.965a13.338,13.338,0,0,1,1.951-.972l8-3.026a19.532,19.532,0,0,1,2.436-.684l4.759-.539a13.028,13.028,0,0,1,2.017-.167c.1,0,.184,0,.265,0l3.148.16h3.989l.039-3.89V-12.574H-12.185V547.817l6.4.726c.231.026,2.422.04,2.656.04a5.317,5.317,0,0,0,5.385-4.02l.155-.707.884-.671a7.392,7.392,0,0,1,1.2-.523l1.65-.532a9.6,9.6,0,0,1,.993-.261l1.661.085.414.549a4.9,4.9,0,0,0,3.97,1.965,5.348,5.348,0,0,0,3.44-1.277l.821-.7c.029-.01.06-.02.086-.026l.057,0c.746.033,1.527.067,1.79.08l2.167.093,7.05.306c.191.009.4.013.624.013a22.474,22.474,0,0,0,3.434-.268l1.635-.277a20.985,20.985,0,0,0,3.9-1.119l.823-.344,5.516-2.3a7.673,7.673,0,0,1,1.8-.4l1.513-.093c.066,0,.152-.006.247-.006a9.76,9.76,0,0,1,1.773.165l3.849.89a20.64,20.64,0,0,0,2.706.47l18.269.915a14.82,14.82,0,0,1,2.308.343l7.086,1.833,2.143,4.619a9.8,9.8,0,0,0,2.644,3.255l9.422,7.337a6,6,0,0,0,2.824,1.548c.322.1,1.036.33,1.719.546l2.328.741,5.572,12.353a12.061,12.061,0,0,0,1.856,2.765l.889.987c.381.424.806.9,1.1,1.227l1.431,1.586a18.09,18.09,0,0,0,2.476,2.219l5.065,3.683a9.035,9.035,0,0,0,4.964,1.506l2.19-.02a4.661,4.661,0,0,0,4.084,2.349,5.127,5.127,0,0,0,3.474-1.4l2.845-2.643a1.444,1.444,0,0,1,.188-.051l2.518,0,2.99,3.112-.035.295a5.326,5.326,0,0,0,4.582,5.684l1.679.3,6.526,1.163A8.172,8.172,0,0,0,160.994,596.063Z" fill="none" stroke="#e1e5eb" stroke-width="0.5"/>
    <path id="Path_212" data-name="Path 212" d="M160.994,594.108a7.928,7.928,0,0,0,3-.563l3.725-1.619a10.027,10.027,0,0,0,2.973-2.043l2.385-2.56,5.383-2.891,1.049-.566a2.57,2.57,0,0,0,.706-.459l.107-.1.09-.117s.2-.255.434-.565l1.192-1.564,2.781-3.639a4.21,4.21,0,0,0,.8-2.91l9.058-2.266a1.617,1.617,0,0,1,.37-.038,1.934,1.934,0,0,1,.728.125l.31.213a4.087,4.087,0,0,0,2.315.671,4.5,4.5,0,0,0,2.141-.521l.475-.256a6.8,6.8,0,0,1,2.17-.6l7.214-.5c.637-.043,1.564-.108,2.371-.164l4.65-.321,2.521-.176a4.454,4.454,0,0,0,1.612-.246c.253-.093.754-.276,1.322-.482l.6-.219a3.424,3.424,0,0,1,1.049-.15,2.2,2.2,0,0,1,.54.052l2.523.777a4.281,4.281,0,0,0,1.253.2,2.463,2.463,0,0,0,2.545-1.711c.087-.311.294-1.044.465-1.639l.14-.491a1.341,1.341,0,0,1,.512-.269l11.01-2.617a12.09,12.09,0,0,0,3.1-1.208,4.4,4.4,0,0,0,1.923-3.069.753.753,0,0,1,.2-.083l8.75-2.142a14.4,14.4,0,0,0,3.383-1.361l3.731-2.213a6.241,6.241,0,0,0,2.509-2.857l2.705-7.425a4.3,4.3,0,0,1,.883-1.2l5.917-5.267a10.247,10.247,0,0,0,2.009-2.522l.772-1.465a3.909,3.909,0,0,1,1.1-1.042l5.451-3.242,4.652-2.764a8.335,8.335,0,0,1,2.219-.784l14.318-2.425a23.668,23.668,0,0,0,3.439-.9l1.758-.637a20.1,20.1,0,0,1,2.76-.713l9.155-1.519a26.658,26.658,0,0,0,3.364-.82,11.041,11.041,0,0,0,3.168-1.736l.086-.071a21.514,21.514,0,0,1,2.087-1.489l3.261-1.982a12.918,12.918,0,0,1,2.347-1.032l3.8-1.151a14.914,14.914,0,0,0,3.253-1.488l1.481-.962a15.086,15.086,0,0,1,2.324-1.162l8-3.026a21.055,21.055,0,0,1,2.757-.774l4.76-.54a14.863,14.863,0,0,1,2.386-.2c.13,0,.254,0,.366.008l3.1.157h2l.019-1.955V-10.62H-10.23V546.072l4.665.529c.158.018,2.276.027,2.436.027a3.386,3.386,0,0,0,3.474-2.475l.225-1.025a1.673,1.673,0,0,1,.223-.5l1.365-1.036A8.185,8.185,0,0,1,3.9,540.8l1.651-.531a9.623,9.623,0,0,1,1.484-.364c.37.02,1.288.067,2.111.107a1.93,1.93,0,0,1,.869.3l.765,1.015a2.969,2.969,0,0,0,2.408,1.186,3.386,3.386,0,0,0,2.178-.815l.966-.819a2.443,2.443,0,0,1,1.154-.369H17.5c.8.035,1.684.073,1.969.087l2.155.093,7.053.306c.164.007.346.011.539.011a20.65,20.65,0,0,0,3.106-.24l1.636-.277a18.963,18.963,0,0,0,3.477-1l.822-.343,5.518-2.3a9.462,9.462,0,0,1,2.44-.549l1.508-.092c.1-.006.228-.009.366-.009a11.663,11.663,0,0,1,2.215.214l3.847.89a18.972,18.972,0,0,0,2.371.423l18.262.915a16.69,16.69,0,0,1,2.7.4l7.39,1.911a1.818,1.818,0,0,1,.706.41l2.412,5.2a7.911,7.911,0,0,0,2.071,2.534l9.423,7.338c1.05.817,1.44,1.12,2.043,1.172l.05.016c.208.068,1.044.333,1.838.584l2.56.815a1.945,1.945,0,0,1,.731.478l5.8,12.862a10.228,10.228,0,0,0,1.526,2.259l.89.989c.383.425.808.9,1.106,1.231l1.425,1.58a16.119,16.119,0,0,0,2.176,1.948l5.064,3.682a7.153,7.153,0,0,0,3.814,1.132l2.879-.025a1.3,1.3,0,0,1,.535.129l.425.775a2.738,2.738,0,0,0,2.435,1.45,3.177,3.177,0,0,0,2.146-.878l3.027-2.812a2.77,2.77,0,0,1,1.3-.4l2.583,0a2.43,2.43,0,0,1,1.1.311l3.7,3.854a1.119,1.119,0,0,1,.182.434l-.121,1a3.381,3.381,0,0,0,2.984,3.526l1.68.3,6.526,1.164A6.215,6.215,0,0,0,160.994,594.108Z" fill="none" stroke="#e1e5eb" stroke-width="0.5"/>
    <path id="Path_213" data-name="Path 213" d="M370.849-8.665V500.813h-.02l-3.047-.154a16.206,16.206,0,0,0-3.22.227l-4.762.539a22.917,22.917,0,0,0-3.078.866l-7.995,3.026a16.992,16.992,0,0,0-2.7,1.351l-1.478.96a13.137,13.137,0,0,1-2.758,1.258l-3.8,1.152a14.655,14.655,0,0,0-2.793,1.231l-3.265,1.984a23.4,23.4,0,0,0-2.32,1.656l-.094.078A9.073,9.073,0,0,1,327,516.361a25.032,25.032,0,0,1-3.073.749l-9.158,1.519a21.724,21.724,0,0,0-3.1.8l-1.756.636a21.884,21.884,0,0,1-3.1.809L292.489,523.3a10.083,10.083,0,0,0-2.888,1.03l-.351.209L287.1,525.82l-2.15,1.277-5.446,3.239a5.616,5.616,0,0,0-1.831,1.814l-.774,1.47a8.48,8.48,0,0,1-1.578,1.968l-5.921,5.27a6.028,6.028,0,0,0-1.415,1.992l-2.707,7.43a4.363,4.363,0,0,1-1.668,1.84l-3.733,2.214a12.513,12.513,0,0,1-2.849,1.142l-8.751,2.142c-.868.213-1.611.878-1.656,1.482l-.017.231a2.454,2.454,0,0,1-1.023,1.681,10.3,10.3,0,0,1-2.519.963l-11.011,2.618a2.7,2.7,0,0,0-1.891,1.464l-.187.659c-.172.6-.381,1.339-.465,1.64s-.69.385-1.341.185-1.789-.551-2.528-.777a5.222,5.222,0,0,0-2.828.129l-.6.218c-.816.3-1.492.544-1.5.548s-.412.035-.9.068-1.62.112-2.521.176l-3.75.258c-.9.063-2.371.166-3.272.227l-7.215.5a8.675,8.675,0,0,0-2.961.829l-.479.258a2.54,2.54,0,0,1-2.414-.039l-.329-.227a3.761,3.761,0,0,0-2.664-.361l-9.61,2.4c-.862.215-1.348.848-1.077,1.407l.028.053a2.145,2.145,0,0,1-.276,2.021l-2.783,3.642-1.191,1.562c-.233.3-.426.555-.426.555l-1.331.718-4.328,2.324c-.731.393-1.331.717-1.335.717s-.413.44-.9.97l-1.707,1.831a8.226,8.226,0,0,1-2.32,1.582l-3.724,1.618a6.075,6.075,0,0,1-2.967.342l-5.145-.917c-.848-.152-2.226-.4-3.061-.547s-1.458-.764-1.386-1.366l.125-1.036a2.8,2.8,0,0,0-.717-1.984l-3.728-3.88a3.936,3.936,0,0,0-2.485-.886l-2.586,0a4.445,4.445,0,0,0-2.627.925l-3.024,2.809c-.547.506-1.241.473-1.54-.077l-.512-.934a2.639,2.639,0,0,0-2.18-.985l-2.83.025a5.284,5.284,0,0,1-2.7-.758l-5.063-3.681a14.406,14.406,0,0,1-1.874-1.677l-1.42-1.574c-.445-.5-1.176-1.309-1.624-1.808l-.377-.418a8.414,8.414,0,0,1-1.2-1.756c-.212-.467-.591-1.309-.845-1.872l-4.985-11.048a3.434,3.434,0,0,0-1.892-1.476l-2.564-.817c-.786-.249-1.613-.511-1.834-.583a1.648,1.648,0,0,0-.434-.1,10.969,10.969,0,0,1-1.052-.768l-9.423-7.338a6,6,0,0,1-1.5-1.814l-2.447-5.276a3.287,3.287,0,0,0-1.955-1.4l-7.385-1.91a18.5,18.5,0,0,0-3.1-.465l-16.105-.808c-.89-.045-1.857-.091-2.151-.107a17.774,17.774,0,0,1-2.034-.375l-3.847-.89a13.333,13.333,0,0,0-3.142-.252l-1.5.092a11.367,11.367,0,0,0-3.077.7l-2.639,1.1-2.881,1.2-.819.342a16.975,16.975,0,0,1-3.053.873L32,538.841a18.451,18.451,0,0,1-3.233.2l-7.057-.307c-.891-.037-1.855-.08-2.143-.091s-1.176-.053-1.982-.088a4.233,4.233,0,0,0-2.519.83l-.964.817a1.206,1.206,0,0,1-1.763-.054l-.8-1.062a3.435,3.435,0,0,0-2.3-1.028c-.874-.043-1.856-.094-2.18-.111a8.8,8.8,0,0,0-2.111.459l-1.652.532a9.551,9.551,0,0,0-2.318,1.094c-.442.335-1.089.827-1.441,1.093a3.1,3.1,0,0,0-.878,1.581l-.226,1.035c-.129.6-2.905,1.014-3.779.914l-2.93-.332V-8.665Z" fill="#fff" stroke="#ccd3de" stroke-miterlimit="10" stroke-width="1"/>
  </g>
</svg>
