<svg id="lin2" xmlns="http://www.w3.org/2000/svg" xmlns:xlink="http://www.w3.org/1999/xlink" width="56.247" height="54.188" viewBox="0 0 56.247 54.188">
  <defs>
    <linearGradient id="linear-gradient" x1="0.5" y1="0.016" x2="0.5" y2="1.277" gradientUnits="objectBoundingBox">
      <stop offset="0" stop-color="#00ffd5"/>
      <stop offset="1" stop-color="#01cb2d"/>
    </linearGradient>
  </defs>
  <g id="Group_475" data-name="Group 475" transform="translate(-740.18 -1364.484)">
    <g id="Group_474" data-name="Group 474">
      <path id="Path_782" data-name="Path 782" d="M767,1416.092a27.456,27.456,0,1,1,6.339-.856A24.268,24.268,0,0,1,767,1416.092Z" fill="#ff0085"/>
      <path id="Path_783" data-name="Path 783" d="M769.606,1369.645a24.9,24.9,0,1,1-5.8.8,21.684,21.684,0,0,1,5.8-.8m0-5.161a26.811,26.811,0,1,0,26.821,26.821,26.719,26.719,0,0,0-26.821-26.821Z" fill="#fff"/>
      <path id="Path_784" data-name="Path 784" d="M769.606,1369.645a24.9,24.9,0,1,1-5.8.8,21.684,21.684,0,0,1,5.8-.8m0-3.613a25.262,25.262,0,1,0,25.273,25.273,25.164,25.164,0,0,0-25.273-25.273Z"/>
    </g>
  </g>
  <path id="Path_785" data-name="Path 785" d="M769.606,1373.086a18.208,18.208,0,1,0,18.22,18.219A18.144,18.144,0,0,0,769.606,1373.086Z" transform="translate(-740.18 -1364.484)"/>
  <circle id="Ellipse_13" data-name="Ellipse 13" cx="17.359" cy="17.359" r="17.359" transform="translate(12.068 9.462)" fill="url(#linear-gradient)"/>
  <path id="Path_786" data-name="Path 786" d="M774.149,1376.744c2.2,0,6.809,2.749,8.023,5.71" transform="translate(-740.18 -1364.484)" fill="none" stroke="#fff" stroke-width="1.72"/>
  <g id="Group_476" data-name="Group 476" transform="translate(-740.18 -1364.484)">
    <path id="Path_787" data-name="Path 787" d="M763.991,1380.357a2.357,2.357,0,0,1,.952.864,2.326,2.326,0,0,1,.345,1.256,2.389,2.389,0,0,1-.338,1.269,2.307,2.307,0,0,1-.952.864,3.259,3.259,0,0,1-2.775,0,2.314,2.314,0,0,1-1.3-2.133,2.334,2.334,0,0,1,.344-1.256,2.359,2.359,0,0,1,.953-.864,3.235,3.235,0,0,1,2.768,0Zm-3.781,20.486v-14.612h4.861v14.612Z" fill="#ff0085"/>
    <path id="Path_788" data-name="Path 788" d="M779.8,1387.311q1.2,1.352,1.2,4.457v9.075h-4.862v-9.088a2.618,2.618,0,0,0-.222-1.2,1.123,1.123,0,0,0-.635-.561,3.438,3.438,0,0,0-1.087-.142,1.994,1.994,0,0,0-1.756.811v10.182H767.6v-14.612h4.538l.162,1.689a4.908,4.908,0,0,1,1.8-1.459,5.413,5.413,0,0,1,2.35-.5A4.267,4.267,0,0,1,779.8,1387.311Z" fill="#ff0085"/>
  </g>
</svg>
