<svg xmlns="http://www.w3.org/2000/svg" xmlns:xlink="http://www.w3.org/1999/xlink" width="1847.438" height="876.894" viewBox="0 0 1847.438 876.894">
  <defs>
    <clipPath id="clip-path">
      <path id="Path_605" data-name="Path 605" d="M3353.387,5956.4s22.042,393.547,22.042,453.948-18.171,118.8-18.171,118.8,29.443,17.5,32.474,31.156-18.173,23.5-18.173,23.5.149,241.5.149,241.872c0,.022,56.4.122,59.36.128,23.688.05,47.4.284,71.079.226,23.766-.06,48.968-7.1,71.233-12.677-1.643,3.393-3.6,6.793-4.61,10.246,16.263,7.434,47.99,2.606,67.865,2.648l61.59.132,135.9.293q153.366.333,306.737.663,161.476.345,322.954.694l302.72.653,246.053.531q76.464.163,152.928.329c1.583,0,32.222.058,32.222.068s-18.172-407.6-15.146-434.834c4.733-25.1,14.168-48.853,12.852-73.988a2.424,2.424,0,0,0-1.164-2.306c-1.437-.765-3.929-.261-5.2-1.142-1.421-.99.109-2.574,1.788-3.382s3.8-1.74,3.582-3.081c-.416-2.567-7.654-1.671-9.631-3.916,3.675,1.4,9.041.4,10.975-2.05,7.113-8.986,1.943-28.32,1.943-38.457,0-27.167.111-54.333.049-81.5-.053-23.659,3.563-46.429,2.973-70.2a1.121,1.121,0,0,0-.378-.98,3.1,3.1,0,0,0-1.44-.4l-21.471-2.538c2.182-2.2,7.5-1.141,11.328-2.009a7.363,7.363,0,0,0,6.061-7.5c-.223-9.34,1.331-18.4.953-27.951-.109-2.645-.748-5.839-4.507-6.921-2.084-.6-5.023-.519-5.986-1.854-.85-1.188.658-2.488,2.057-3.437q6.206-4.2,12.421-8.4a46.32,46.32,0,0,0-14.223-2.623c1.775-2.163,5.261-3.705,9.037-4,2.223-29.97,3.126-59.741,3.126-89.744,0,0-902.491,12.606-950.943,6.423-7.911-1.009-21.958-2.318-29.785-1.539a12.06,12.06,0,0,0-4.634,1.189,6.909,6.909,0,0,0-2.616,3.065c-3.9,7.259-16.151,24.3-11.424,31.95-.068-.1-21.213-34.324-30.285-34.665s-87.827,4.047-96.911,7.694-12.114,35.177-27.253,29.15-12.116-32.063-30.291-34.625-499.7-18.619-533.011-8.642S3353.387,5956.4,3353.387,5956.4Z" fill="#eecc8d" stroke="rgba(0,0,0,0)" stroke-width="1"/>
    </clipPath>
  </defs>
  <g id="Group_7392" data-name="Group 7392" transform="translate(-36.281 -36.328)">
    <g id="map_BG" data-name="map BG" transform="translate(-3317.106 -5916.392)">
      <g id="Group_379" data-name="Group 379">
        <path id="Path_582" data-name="Path 582" d="M3353.387,5956.4s22.042,393.547,22.042,453.948-18.171,118.8-18.171,118.8,29.443,17.5,32.474,31.156-18.173,23.5-18.173,23.5.149,241.5.149,241.872c0,.022,56.4.122,59.36.128,23.688.05,47.4.284,71.079.226,23.766-.06,48.968-7.1,71.233-12.677-1.643,3.393-3.6,6.793-4.61,10.246,16.263,7.434,47.99,2.606,67.865,2.648l61.59.132,135.9.293q153.366.333,306.737.663,161.476.345,322.954.694l302.72.653,246.053.531q76.464.163,152.928.329c1.583,0,32.222.058,32.222.068s-18.172-407.6-15.146-434.834c4.733-25.1,14.168-48.853,12.852-73.988a2.424,2.424,0,0,0-1.164-2.306c-1.437-.765-3.929-.261-5.2-1.142-1.421-.99.109-2.574,1.788-3.382s3.8-1.74,3.582-3.081c-.416-2.567-7.654-1.671-9.631-3.916,3.675,1.4,9.041.4,10.975-2.05,7.113-8.986,1.943-28.32,1.943-38.457,0-27.167.111-54.333.049-81.5-.053-23.659,3.563-46.429,2.973-70.2a1.121,1.121,0,0,0-.378-.98,3.1,3.1,0,0,0-1.44-.4l-21.471-2.538c2.182-2.2,7.5-1.141,11.328-2.009a7.363,7.363,0,0,0,6.061-7.5c-.223-9.34,1.331-18.4.953-27.951-.109-2.645-.748-5.839-4.507-6.921-2.084-.6-5.023-.519-5.986-1.854-.85-1.188.658-2.488,2.057-3.437q6.206-4.2,12.421-8.4a46.32,46.32,0,0,0-14.223-2.623c1.775-2.163,5.261-3.705,9.037-4,2.223-29.97,3.126-59.741,3.126-89.744,0,0-902.491,12.606-950.943,6.423-7.911-1.009-21.958-2.318-29.785-1.539a12.06,12.06,0,0,0-4.634,1.189,6.909,6.909,0,0,0-2.616,3.065c-3.9,7.259-16.151,24.3-11.424,31.95-.068-.1-21.213-34.324-30.285-34.665s-87.827,4.047-96.911,7.694-12.114,35.177-27.253,29.15-12.116-32.063-30.291-34.625-499.7-18.619-533.011-8.642S3353.387,5956.4,3353.387,5956.4Z" fill="#eecc8d"/>
        <g id="Group_378" data-name="Group 378" clip-path="url(#clip-path)">
          <g id="Group_377" data-name="Group 377" opacity="0.35" style="mix-blend-mode: multiply;isolation: isolate">
            <g id="Group_375" data-name="Group 375">
              <g id="Group_353" data-name="Group 353">
                <path id="Path_583" data-name="Path 583" d="M5096.1,5974.476a72.121,72.121,0,1,1-44.838,15.67,71.787,71.787,0,0,1,44.838-15.67h0m0-.217a72.338,72.338,0,1,0,56.668,27.322,72.038,72.038,0,0,0-56.668-27.322Z" fill="#b3b3b3" stroke="rgba(0,0,0,0)" stroke-width="1"/>
              </g>
              <g id="Group_354" data-name="Group 354">
                <path id="Path_584" data-name="Path 584" d="M5074.931,5936.084v.214a133.979,133.979,0,1,1-100.2,44.982,133.781,133.781,0,0,1,100.2-44.982v-.214m0,0a134.194,134.194,0,1,0,89.092,33.886,133.862,133.862,0,0,0-89.092-33.886Z" fill="#b4b4b4" stroke="rgba(0,0,0,0)" stroke-width="1"/>
              </g>
              <g id="Group_355" data-name="Group 355">
                <path id="Path_585" data-name="Path 585" d="M5053.767,5896.647a197.35,197.35,0,0,1,84.9,375.393,199.2,199.2,0,0,1-85.178,19.23,197.349,197.349,0,0,1-84.906-375.392,199.212,199.212,0,0,1,85.183-19.231h0m-.007-.212a197.191,197.191,0,0,0-155.735,75.864c-67.191,85.935-52,210.068,33.94,277.259a197.494,197.494,0,0,0,277.258-33.94c67.191-85.935,51.995-210.068-33.94-277.259a196.65,196.65,0,0,0-121.523-41.924Z" fill="#b5b5b5" stroke="rgba(0,0,0,0)" stroke-width="1"/>
              </g>
              <g id="Group_356" data-name="Group 356">
                <path id="Path_586" data-name="Path 586" d="M5032.6,5856.592a260.944,260.944,0,0,1,210.488,415.1,260.689,260.689,0,0,1-210.934,106.993,260.945,260.945,0,0,1-210.509-415.1A260.713,260.713,0,0,1,5032.6,5856.592h0m-.021-.21a260.919,260.919,0,0,0-211.1,107.079c-85.15,116.472-59.759,279.918,56.712,365.069a261.193,261.193,0,0,0,365.069-56.713c85.151-116.471,59.76-279.918-56.712-365.068a260,260,0,0,0-153.966-50.367Z" fill="#b7b7b7" stroke="rgba(0,0,0,0)" stroke-width="1"/>
              </g>
              <g id="Group_357" data-name="Group 357">
                <path id="Path_587" data-name="Path 587" d="M5011.4,5816.371A324.816,324.816,0,0,1,5277.12,6327.9a324.551,324.551,0,0,1-266.3,138.371A324.815,324.815,0,0,1,4745.1,5954.742a324.554,324.554,0,0,1,266.3-138.371h0m-.011-.207c-102.4,0-203.2,48.256-266.465,138.459-103.11,147.008-67.523,349.769,79.485,452.879a323.615,323.615,0,0,0,186.414,58.974c102.4,0,203.2-48.257,266.465-138.459,103.11-147.008,67.524-349.769-79.484-452.879a323.6,323.6,0,0,0-186.415-58.974Z" fill="#b8b8b8" stroke="rgba(0,0,0,0)" stroke-width="1"/>
              </g>
              <g id="Group_358" data-name="Group 358">
                <path id="Path_588" data-name="Path 588" d="M4990.231,5776.065a388.929,388.929,0,0,1,178.458,734.353,392.05,392.05,0,0,1-179.191,43.518,388.925,388.925,0,0,1-178.489-734.349,392.173,392.173,0,0,1,179.216-43.522h.006m-.031-.205c-124.315.01-246.5,59.468-321.824,169.924-121.07,177.545-75.288,419.62,102.257,540.69a387.243,387.243,0,0,0,218.865,67.667c124.315,0,246.5-59.468,321.824-169.924,121.07-177.545,75.288-419.62-102.257-540.69A387.2,387.2,0,0,0,4990.2,5775.86Z" fill="#b9b9b9" stroke="rgba(0,0,0,0)" stroke-width="1"/>
              </g>
              <g id="Group_359" data-name="Group 359">
                <path id="Path_589" data-name="Path 589" d="M4969.031,5735.71a453.411,453.411,0,1,1-377.037,201.348,450.767,450.767,0,0,1,377.037-201.348h0m-.024-.2c-146.256.008-289.829,70.7-377.181,201.438-139.03,208.081-83.052,489.471,125.029,628.5a450.972,450.972,0,0,0,251.319,76.408c146.256,0,289.83-70.7,377.182-201.437,139.029-208.082,83.052-489.471-125.03-628.5a450.933,450.933,0,0,0-251.319-76.409Z" fill="#bababa" stroke="rgba(0,0,0,0)" stroke-width="1"/>
              </g>
              <g id="Group_360" data-name="Group 360">
                <path id="Path_590" data-name="Path 590" d="M4947.827,5695.326a517.021,517.021,0,0,1,241.017,974.241,520.952,520.952,0,0,1-241.992,59.831,517.019,517.019,0,0,1-241.031-974.239,520.978,520.978,0,0,1,242-59.833h.005m-.014-.2c-168.209,0-333.173,81.952-432.537,232.981-156.989,238.619-90.816,559.322,147.8,716.311a514.733,514.733,0,0,0,283.774,85.18c168.209,0,333.172-81.952,432.536-232.981,156.99-238.618,90.817-559.322-147.8-716.311a514.711,514.711,0,0,0-283.774-85.18Z" fill="#bbb" stroke="rgba(0,0,0,0)" stroke-width="1"/>
              </g>
              <g id="Group_361" data-name="Group 361">
                <path id="Path_591" data-name="Path 591" d="M4926.634,5654.92a580.3,580.3,0,0,1,534.413,354.2,582.756,582.756,0,0,1,37.185,329.075,580.913,580.913,0,0,1-299.3,410.973,585.419,585.419,0,0,1-273.405,68A580.286,580.286,0,0,1,4391.1,6462.971a582.753,582.753,0,0,1-37.186-329.076,580.9,580.9,0,0,1,299.3-410.97,585.467,585.467,0,0,1,273.415-68h.006m-.016-.2c-190.167.006-376.53,93.219-487.892,264.546-174.949,269.155-98.58,629.172,170.574,804.122a578.509,578.509,0,0,0,316.23,93.971c190.167,0,376.53-93.219,487.892-264.546,174.949-269.154,98.58-629.171-170.574-804.121a578.483,578.483,0,0,0-316.23-93.972Z" fill="#bdbdbd" stroke="rgba(0,0,0,0)" stroke-width="1"/>
              </g>
              <g id="Group_362" data-name="Group 362">
                <path id="Path_592" data-name="Path 592" d="M4905.456,5614.5a644.293,644.293,0,0,1,592.214,390.627,647.045,647.045,0,0,1,42.91,365.186,644.964,644.964,0,0,1-331.548,458.451,649.889,649.889,0,0,1-304.823,76.181,644.3,644.3,0,0,1-592.248-390.628,647.024,647.024,0,0,1-42.909-365.185A644.936,644.936,0,0,1,4600.6,5690.686a650.009,650.009,0,0,1,304.854-76.185h0m-.033-.195c-212.125.011-419.9,104.5-543.246,296.125-192.909,299.691-106.345,699.023,193.346,891.931a642.264,642.264,0,0,0,348.686,102.779c212.125,0,419.9-104.5,543.246-296.125,192.909-299.691,106.345-699.023-193.347-891.932a642.206,642.206,0,0,0-348.685-102.778Z" fill="#bebebe" stroke="rgba(0,0,0,0)" stroke-width="1"/>
              </g>
              <g id="Group_363" data-name="Group 363">
                <path id="Path_593" data-name="Path 593" d="M4884.245,5574.071a708.307,708.307,0,0,1,650.048,427.071,711.314,711.314,0,0,1,48.635,401.3,709.042,709.042,0,0,1-363.794,505.941,709.171,709.171,0,0,1-717.285-27.207,705.944,705.944,0,0,1-269.028-315.5,711.314,711.314,0,0,1-48.634-401.3,709.026,709.026,0,0,1,363.794-505.939,712.825,712.825,0,0,1,336.257-84.361h.007m-.018-.193c-234.1.007-463.268,115.779-598.6,327.714-210.869,330.228-114.109,768.874,216.119,979.742a706.079,706.079,0,0,0,381.142,111.6c234.1,0,463.268-115.779,598.6-327.714,210.869-330.228,114.109-768.874-216.119-979.742a706.065,706.065,0,0,0-381.142-111.6Z" fill="#bfbfbf" stroke="rgba(0,0,0,0)" stroke-width="1"/>
              </g>
              <g id="Group_364" data-name="Group 364">
                <path id="Path_594" data-name="Path 594" d="M4863.073,5533.633a769.635,769.635,0,0,1,413.455,120.39,779.053,779.053,0,0,1,123.2,96.75,769.131,769.131,0,0,1,171.19,246.382,775.618,775.618,0,0,1,54.359,437.406,769.383,769.383,0,0,1-39.7,146.722,779.864,779.864,0,0,1-198.5,294.111,772.2,772.2,0,0,1-336.064,181.664,777.47,777.47,0,0,1-189.445,23.478,769.664,769.664,0,0,1-413.5-120.39,779.031,779.031,0,0,1-123.2-96.75,769.082,769.082,0,0,1-171.19-246.382,775.611,775.611,0,0,1-54.359-437.405,769.47,769.47,0,0,1,39.7-146.723,779.808,779.808,0,0,1,198.5-294.108,772.246,772.246,0,0,1,336.064-181.661,777.76,777.76,0,0,1,189.483-23.484h0m-.042-.19c-256.062.014-506.648,127.074-653.954,359.311-228.829,360.765-121.873,838.724,238.891,1067.553a769.854,769.854,0,0,0,413.6,120.42c256.062,0,506.648-127.074,653.954-359.311,228.829-360.765,121.874-838.725-238.891-1067.553a769.792,769.792,0,0,0-413.6-120.42Z" fill="silver" stroke="rgba(0,0,0,0)" stroke-width="1"/>
              </g>
              <g id="Group_365" data-name="Group 365">
                <path id="Path_595" data-name="Path 595" d="M4841.9,5493.189a833.354,833.354,0,0,1,445.886,129.222,843.662,843.662,0,0,1,133.681,104.427,832.888,832.888,0,0,1,186.068,266.331,839.91,839.91,0,0,1,60.084,473.515,833.187,833.187,0,0,1-42.584,159A844.437,844.437,0,0,1,5410.5,6945.1a836.3,836.3,0,0,1-364.577,197.682,841.757,841.757,0,0,1-205.677,25.562,833.415,833.415,0,0,1-445.956-129.222,843.66,843.66,0,0,1-133.682-104.427,832.894,832.894,0,0,1-186.068-266.331,839.909,839.909,0,0,1-60.084-473.515,833.252,833.252,0,0,1,42.585-159,844.369,844.369,0,0,1,214.539-319.415,836.331,836.331,0,0,1,364.576-197.675,842.054,842.054,0,0,1,205.678-25.572h.07m-.07-.188c-278.026.024-550.034,138.374-709.308,390.915-246.788,391.3-129.637,908.575,261.664,1155.363,138.761,87.514,293.292,129.25,446.056,129.25,278.025,0,550.033-138.374,709.307-390.914,246.788-391.3,129.638-908.574-261.663-1155.363C5149.13,5534.737,4994.6,5492.989,4841.835,5493Z" fill="#c1c1c1" stroke="rgba(0,0,0,0)" stroke-width="1"/>
              </g>
              <g id="Group_366" data-name="Group 366">
                <path id="Path_596" data-name="Path 596" d="M4820.667,5452.741A897.266,897.266,0,0,1,5299.053,5590.8a908.281,908.281,0,0,1,144.164,112.1,896.661,896.661,0,0,1,200.947,286.279,904.223,904.223,0,0,1,65.809,509.625,897.121,897.121,0,0,1-45.468,171.271,909.129,909.129,0,0,1-230.58,344.736,900.287,900.287,0,0,1-393.079,213.7,906.271,906.271,0,0,1-221.919,27.641,897.3,897.3,0,0,1-478.415-138.057,908.243,908.243,0,0,1-144.165-112.1A896.66,896.66,0,0,1,3995.4,6719.71a904.225,904.225,0,0,1-65.809-509.625,897.118,897.118,0,0,1,45.467-171.271A909.123,909.123,0,0,1,4205.64,5694.08a900.3,900.3,0,0,1,393.078-213.693,906.41,906.41,0,0,1,221.939-27.646h.01m-.029-.185c-300.016.009-593.408,149.655-764.66,422.521-264.749,421.838-137.4,978.426,284.435,1243.174,148.972,93.5,314.72,138.086,478.514,138.086,300.015,0,593.408-149.656,764.66-422.522,264.749-421.837,137.4-978.425-284.436-1243.173-148.971-93.5-314.719-138.092-478.513-138.086Z" fill="#c2c2c2" stroke="rgba(0,0,0,0)" stroke-width="1"/>
              </g>
              <g id="Group_367" data-name="Group 367">
                <path id="Path_597" data-name="Path 597" d="M4799.5,5412.289a960.982,960.982,0,0,1,510.812,146.9,972.918,972.918,0,0,1,154.648,119.782,960.4,960.4,0,0,1,215.824,306.227,968.534,968.534,0,0,1,71.534,545.735,960.876,960.876,0,0,1-48.35,183.545,973.748,973.748,0,0,1-246.618,370.046,964.419,964.419,0,0,1-421.592,229.719,970.708,970.708,0,0,1-238.154,29.725,961.069,961.069,0,0,1-510.874-146.9,972.888,972.888,0,0,1-154.647-119.782,960.4,960.4,0,0,1-215.825-306.227,968.537,968.537,0,0,1-71.534-545.735,960.907,960.907,0,0,1,48.35-183.545,973.707,973.707,0,0,1,246.618-370.043,964.462,964.462,0,0,1,421.593-229.714,970.8,970.8,0,0,1,238.153-29.733h.062m-.062-.184c-321.981.021-636.8,160.963-820.013,454.134-282.708,452.374-145.166,1048.276,307.208,1330.984,159.2,99.493,336.122,146.925,510.971,146.925,321.982,0,636.8-160.962,820.014-454.133,282.707-452.374,145.165-1048.276-307.209-1330.984-159.2-99.493-336.122-146.937-510.971-146.926Z" fill="#c4c4c4" stroke="rgba(0,0,0,0)" stroke-width="1"/>
              </g>
              <g id="Group_368" data-name="Group 368">
                <path id="Path_598" data-name="Path 598" d="M4778.292,5371.833a1024.914,1024.914,0,0,1,543.286,155.74,1037.461,1037.461,0,0,1,165.13,127.46,1024.2,1024.2,0,0,1,230.7,326.175,1032.854,1032.854,0,0,1,77.259,581.845,1024.656,1024.656,0,0,1-51.232,195.819,1038.4,1038.4,0,0,1-262.656,395.363,1028.476,1028.476,0,0,1-450.1,245.74,1035.1,1035.1,0,0,1-254.394,31.807,1024.948,1024.948,0,0,1-543.333-155.74,1037.5,1037.5,0,0,1-165.13-127.459,1024.215,1024.215,0,0,1-230.7-326.176,1032.831,1032.831,0,0,1-77.258-581.844,1024.574,1024.574,0,0,1,51.232-195.819,1038.365,1038.365,0,0,1,262.656-395.362,1028.486,1028.486,0,0,1,450.1-245.735,1035.347,1035.347,0,0,1,254.423-31.814h.019m-.047-.181c-343.966.015-680.182,172.258-875.367,485.749-300.667,482.911-152.93,1118.127,329.981,1418.794,169.419,105.484,357.539,155.768,543.428,155.768,343.966,0,680.182-172.257,875.367-485.748,300.667-482.911,152.93-1118.127-329.981-1418.795-169.42-105.483-357.54-155.776-543.428-155.768Z" fill="#c5c5c5" stroke="rgba(0,0,0,0)" stroke-width="1"/>
              </g>
              <g id="Group_369" data-name="Group 369">
                <path id="Path_599" data-name="Path 599" d="M4757.065,5331.375a1088.826,1088.826,0,0,1,575.774,164.585A1102.025,1102.025,0,0,1,5508.453,5631.1a1088,1088,0,0,1,245.58,346.124,1097.167,1097.167,0,0,1,82.985,617.955,1088.491,1088.491,0,0,1-54.115,208.093,1103.13,1103.13,0,0,1-278.694,420.683,1092.474,1092.474,0,0,1-478.6,261.76,1099.534,1099.534,0,0,1-270.637,33.89,1088.832,1088.832,0,0,1-575.793-164.586,1102.079,1102.079,0,0,1-175.613-135.137,1087.992,1087.992,0,0,1-245.581-346.124A1097.168,1097.168,0,0,1,3675,6255.8a1088.415,1088.415,0,0,1,54.116-208.093,1103.077,1103.077,0,0,1,278.693-420.682,1092.469,1092.469,0,0,1,478.605-261.758,1099.54,1099.54,0,0,1,270.646-33.893h.008m-.018-.179c-365.954.007-723.564,183.55-930.719,517.367-318.627,513.447-160.694,1187.977,352.753,1506.6,179.632,111.473,378.961,164.613,575.887,164.613,365.954,0,723.564-183.55,930.719-517.365,318.627-513.448,160.694-1187.978-352.754-1506.606-179.631-111.473-378.96-164.616-575.886-164.613Z" fill="#c6c6c6" stroke="rgba(0,0,0,0)" stroke-width="1"/>
              </g>
              <g id="Group_370" data-name="Group 370">
                <path id="Path_600" data-name="Path 600" d="M4735.865,5290.914A1152.677,1152.677,0,0,1,5344.1,5464.348a1166.615,1166.615,0,0,1,186.1,142.814,1151.77,1151.77,0,0,1,260.459,366.072,1161.489,1161.489,0,0,1,88.709,654.065,1152.268,1152.268,0,0,1-57,220.367,1167.773,1167.773,0,0,1-294.73,446,1156.54,1156.54,0,0,1-507.112,277.785,1164,1164,0,0,1-286.878,35.973A1152.658,1152.658,0,0,1,4125.4,7433.99a1166.692,1166.692,0,0,1-186.1-142.814A1151.744,1151.744,0,0,1,3678.842,6925.1a1161.464,1161.464,0,0,1-88.709-654.065,1152.274,1152.274,0,0,1,57-220.367,1167.739,1167.739,0,0,1,294.73-446,1156.525,1156.525,0,0,1,507.113-277.784,1164.08,1164.08,0,0,1,286.885-35.976h.007m-.015-.175c-387.936.005-766.953,194.851-986.071,548.985C3413.192,6383.708,3581.32,7097.552,4125.3,7434.14c189.85,117.468,400.373,173.46,608.344,173.46,387.936,0,766.953-194.851,986.072-548.986,336.587-543.984,168.459-1257.828-375.526-1594.415-189.85-117.469-400.373-173.463-608.344-173.46Z" fill="#c7c7c7" stroke="rgba(0,0,0,0)" stroke-width="1"/>
              </g>
              <g id="Group_371" data-name="Group 371">
                <path id="Path_601" data-name="Path 601" d="M4714.729,5250.453a1216.251,1216.251,0,0,1,640.635,182.282,1231.242,1231.242,0,0,1,196.579,150.492,1215.481,1215.481,0,0,1,275.337,386.021,1225.773,1225.773,0,0,1,94.434,690.174,1216.126,1216.126,0,0,1-59.88,232.641,1232.352,1232.352,0,0,1-310.764,471.309,1220.7,1220.7,0,0,1-535.631,293.816,1224.51,1224.51,0,0,1-1140.4-294.715A1215.541,1215.541,0,0,1,3599.7,6976.452a1225.784,1225.784,0,0,1-94.434-690.174,1216.022,1216.022,0,0,1,59.88-232.641,1232.3,1232.3,0,0,1,310.763-471.306,1220.768,1220.768,0,0,1,535.631-293.809,1228.494,1228.494,0,0,1,303.111-38.069h.076m-.076-.174c-409.9.025-810.354,206.172-1041.424,580.607-354.547,574.52-176.223,1327.679,398.3,1682.226,200.086,123.476,421.765,182.308,640.8,182.308,409.9,0,810.354-206.171,1041.424-580.606,354.547-574.521,176.223-1327.679-398.3-1682.226-200.086-123.477-421.766-182.322-640.8-182.309Z" fill="#c8c8c8" stroke="rgba(0,0,0,0)" stroke-width="1"/>
              </g>
              <g id="Group_372" data-name="Group 372">
                <path id="Path_602" data-name="Path 602" d="M4693.564,5209.988a1280.018,1280.018,0,0,1,673.062,191.135,1295.786,1295.786,0,0,1,207.062,158.169A1279.269,1279.269,0,0,1,5863.9,5965.261a1290.1,1290.1,0,0,1,100.159,726.284A1279.824,1279.824,0,0,1,5901.3,6936.46a1296.975,1296.975,0,0,1-326.8,496.623,1284.849,1284.849,0,0,1-564.146,309.844A1286.814,1286.814,0,0,1,3809.963,5559.984a1284.908,1284.908,0,0,1,564.146-309.835,1293.086,1293.086,0,0,1,319.347-40.161h.108m-.108-.17c-431.867.036-853.752,217.487-1096.777,612.229-372.507,605.057-183.987,1397.53,421.07,1770.037,210.315,129.481,443.166,191.159,673.261,191.159,431.866,0,853.751-217.487,1096.776-612.229,372.507-605.057,183.987-1397.53-421.07-1770.037C5156.4,5271.5,4923.551,5209.8,4693.456,5209.818Z" fill="#cacaca" stroke="rgba(0,0,0,0)" stroke-width="1"/>
              </g>
              <g id="Group_373" data-name="Group 373">
                <path id="Path_603" data-name="Path 603" d="M4672.269,5169.524a1344.21,1344.21,0,0,1,705.619,199.986,1360.432,1360.432,0,0,1,217.545,165.846,1343.133,1343.133,0,0,1,305.094,425.918,1354.432,1354.432,0,0,1,105.884,762.394,1343.689,1343.689,0,0,1-65.646,257.189,1361.756,1361.756,0,0,1-342.834,521.953,1348.753,1348.753,0,0,1-592.641,325.864,1353.031,1353.031,0,0,1-1258.775-323.607,1343.109,1343.109,0,0,1-305.093-425.919,1354.425,1354.425,0,0,1-105.884-762.393,1343.778,1343.778,0,0,1,65.645-257.19,1361.749,1361.749,0,0,1,342.835-521.952,1348.724,1348.724,0,0,1,592.64-325.863,1357.275,1357.275,0,0,1,335.6-42.226h.011m-.01-.169c-453.884,0-897.125,228.763-1152.129,643.854-390.467,635.594-191.752,1467.38,443.842,1857.847,220.5,135.463,464.608,200.011,705.718,200.011,453.883,0,897.125-228.762,1152.129-643.854,390.467-635.593,191.751-1467.38-443.842-1857.847-220.5-135.462-464.609-200.012-705.718-200.011Z" fill="#cbcbcb" stroke="rgba(0,0,0,0)" stroke-width="1"/>
              </g>
              <g id="Group_374" data-name="Group 374">
                <path id="Path_604" data-name="Path 604" d="M4651.108,5129.058A1407.929,1407.929,0,0,1,5389.15,5337.9a1425.116,1425.116,0,0,1,228.028,173.524,1406.882,1406.882,0,0,1,319.972,445.866,1418.78,1418.78,0,0,1,111.609,798.5,1407.542,1407.542,0,0,1-68.528,269.463,1426.35,1426.35,0,0,1-358.868,547.267,1412.883,1412.883,0,0,1-621.155,341.9,1415.147,1415.147,0,0,1-1322.14-2399.151,1412.889,1412.889,0,0,1,621.155-341.89,1421.793,1421.793,0,0,1,351.863-44.317h.022m-.047-.166c-475.854.015-940.524,240.079-1207.481,675.479C3035.153,6470.5,3244.064,7341.6,3910.2,7750.028c230.73,141.469,486.007,208.864,738.176,208.864,475.854,0,940.523-240.079,1207.481-675.479,408.426-666.13,199.516-1537.231-466.615-1945.657-230.73-141.469-486.008-208.872-738.176-208.864Z" fill="#ccc" stroke="rgba(0,0,0,0)" stroke-width="1"/>
              </g>
            </g>
            <g id="Group_376" data-name="Group 376">
              <line id="Line_25" data-name="Line 25" x1="2228.637" transform="translate(3162.79 5384.532)" fill="none" stroke="#666" stroke-miterlimit="10" stroke-width="0.357"/>
              <line id="Line_26" data-name="Line 26" x1="2228.637" transform="translate(3162.79 5476.913)" fill="none" stroke="#666" stroke-miterlimit="10" stroke-width="0.357"/>
              <line id="Line_27" data-name="Line 27" x1="2228.637" transform="translate(3162.79 5569.294)" fill="none" stroke="#666" stroke-miterlimit="10" stroke-width="0.357"/>
              <line id="Line_28" data-name="Line 28" x1="2228.637" transform="translate(3162.79 5661.675)" fill="none" stroke="#666" stroke-miterlimit="10" stroke-width="0.357"/>
              <line id="Line_29" data-name="Line 29" x1="2228.637" transform="translate(3162.79 5754.056)" fill="none" stroke="#666" stroke-miterlimit="10" stroke-width="0.357"/>
              <line id="Line_30" data-name="Line 30" x1="2228.637" transform="translate(3162.79 5846.437)" fill="none" stroke="#666" stroke-miterlimit="10" stroke-width="0.357"/>
              <line id="Line_31" data-name="Line 31" x1="2228.637" transform="translate(3162.79 5938.818)" fill="none" stroke="#666" stroke-miterlimit="10" stroke-width="0.357"/>
              <line id="Line_32" data-name="Line 32" x1="2228.637" transform="translate(3162.79 6031.199)" fill="none" stroke="#666" stroke-miterlimit="10" stroke-width="0.357"/>
              <line id="Line_33" data-name="Line 33" x1="2228.637" transform="translate(3162.79 6123.58)" fill="none" stroke="#666" stroke-miterlimit="10" stroke-width="0.357"/>
              <line id="Line_34" data-name="Line 34" x1="2228.637" transform="translate(3162.79 6215.96)" fill="none" stroke="#666" stroke-miterlimit="10" stroke-width="0.357"/>
              <line id="Line_35" data-name="Line 35" x1="2228.637" transform="translate(3162.79 6308.342)" fill="none" stroke="#666" stroke-miterlimit="10" stroke-width="0.357"/>
              <line id="Line_36" data-name="Line 36" x1="2228.637" transform="translate(3162.79 6400.723)" fill="none" stroke="#666" stroke-miterlimit="10" stroke-width="0.357"/>
              <line id="Line_37" data-name="Line 37" x1="2228.637" transform="translate(3162.79 6493.104)" fill="none" stroke="#666" stroke-miterlimit="10" stroke-width="0.357"/>
              <line id="Line_38" data-name="Line 38" x1="2228.637" transform="translate(3162.79 6585.484)" fill="none" stroke="#666" stroke-miterlimit="10" stroke-width="0.357"/>
              <line id="Line_39" data-name="Line 39" x1="2228.637" transform="translate(3162.79 6677.865)" fill="none" stroke="#666" stroke-miterlimit="10" stroke-width="0.357"/>
              <line id="Line_40" data-name="Line 40" x1="2228.637" transform="translate(3162.79 6770.247)" fill="none" stroke="#666" stroke-miterlimit="10" stroke-width="0.357"/>
              <line id="Line_41" data-name="Line 41" x1="2228.637" transform="translate(3162.79 6862.627)" fill="none" stroke="#666" stroke-miterlimit="10" stroke-width="0.357"/>
              <line id="Line_42" data-name="Line 42" x1="2228.637" transform="translate(3162.79 6955.008)" fill="none" stroke="#666" stroke-miterlimit="10" stroke-width="0.357"/>
              <line id="Line_43" data-name="Line 43" x1="2228.637" transform="translate(3162.79 7047.389)" fill="none" stroke="#666" stroke-miterlimit="10" stroke-width="0.357"/>
              <line id="Line_44" data-name="Line 44" x1="2228.637" transform="translate(3162.79 7139.77)" fill="none" stroke="#666" stroke-miterlimit="10" stroke-width="0.357"/>
              <line id="Line_45" data-name="Line 45" x1="2228.637" transform="translate(3162.79 7232.151)" fill="none" stroke="#666" stroke-miterlimit="10" stroke-width="0.357"/>
              <line id="Line_46" data-name="Line 46" x1="2228.637" transform="translate(3162.79 7324.532)" fill="none" stroke="#666" stroke-miterlimit="10" stroke-width="0.357"/>
            </g>
          </g>
        </g>
      </g>
    </g>
    <g id="ISlands">
      <g id="island_1" data-name="island 1" transform="translate(-3317.106 -5916.392)">
        <path id="Path_606" data-name="Path 606" d="M5029.647,6257.994a64.839,64.839,0,0,1,2.648,31.781l-2.933,15.983a70.149,70.149,0,0,1-2.046,8.21l5.863,7.951a51.563,51.563,0,0,1,8.692,42.29c.1.28.2.561.3.842a48.144,48.144,0,0,1,2.634,15.216,53.733,53.733,0,0,1,3.766,3.9l24.276,27.732a52.514,52.514,0,0,1,10.149,17.584,53.951,53.951,0,0,1-5.742,46.969l-22.419,34.082c-9.7,14.768-25.766,23.132-42.976,22.371a47.768,47.768,0,0,1-12.47-2.242c-.092.037-.184.073-.277.108-14.511,5.591-35.937,5.055-52.551-13.216l-1.053-1.161a50.322,50.322,0,0,1-63.495-31.5,51.349,51.349,0,0,1-1.65-5.941l-3.986-18.6-32.538-44.475a58.917,58.917,0,0,1-8.1-15.686,62.454,62.454,0,0,1-2.839-29.335l5.726-36.682-4.24-21.259a57.271,57.271,0,0,1,8.318-41.685,49.428,49.428,0,0,1,12.412-36.129,48.826,48.826,0,0,1,16.475-30.249,49.318,49.318,0,0,1,28.668-11.81,50.771,50.771,0,0,1,50.143.28l14.721,8.434h.108c18.871.015,38.194,10.823,48.089,26.9l10.865,17.678A58.95,58.95,0,0,1,5029.647,6257.994Z" fill="none" stroke="#666" stroke-width="0.5"/>
        <path id="Path_607" data-name="Path 607" d="M5024.919,6259.619a59.684,59.684,0,0,1,2.458,29.252l-2.933,15.985a68.039,68.039,0,0,1-2.685,10l7.4,10.03a46.564,46.564,0,0,1,7.483,39.64q.43,1.065.8,2.149a43.3,43.3,0,0,1,2.331,15.793,49.121,49.121,0,0,1,5.031,4.981l24.281,27.737a47.537,47.537,0,0,1,9.183,15.917,48.923,48.923,0,0,1-5.188,42.59l-22.422,34.087a43.66,43.66,0,0,1-38.579,20.124,43.156,43.156,0,0,1-12.866-2.592q-.94.418-1.9.787c-12.967,5-32.14,4.49-47.056-11.914l-3.3-3.638-1.131.426a45.337,45.337,0,0,1-59.087-27.709,46.446,46.446,0,0,1-1.488-5.36l-4.21-19.652-33.168-45.337a53.865,53.865,0,0,1-7.41-14.358,57.364,57.364,0,0,1-2.627-26.94l5.833-37.373c0-.117,0-.249-.008-.374l-4.377-21.942a52.153,52.153,0,0,1,8.547-39.374,44.509,44.509,0,0,1,12.047-35.262,43.553,43.553,0,0,1,14.98-28.668,44.036,44.036,0,0,1,26.87-10.669,45.767,45.767,0,0,1,46.186-.3l15.874,9.094h1.439c17.2.014,34.81,9.866,43.83,24.517l10.863,17.675A53.9,53.9,0,0,1,5024.919,6259.619Z" fill="none" stroke="#666" stroke-width="0.5"/>
        <path id="Path_608" data-name="Path 608" d="M5020.19,6261.244a54.539,54.539,0,0,1,2.27,26.722l-2.933,15.988a65.737,65.737,0,0,1-3.389,11.706l8.993,12.194a41.563,41.563,0,0,1,6.208,37c.513,1.125.972,2.278,1.373,3.445a38.136,38.136,0,0,1,1.885,16.4,44.791,44.791,0,0,1,6.438,6.033l24.286,27.742a42.573,42.573,0,0,1,8.217,14.25,43.889,43.889,0,0,1-4.634,38.211l-22.425,34.092a38.7,38.7,0,0,1-34.181,17.876,38.171,38.171,0,0,1-13.277-3.048,35.578,35.578,0,0,1-3.5,1.573c-11.424,4.4-28.341,3.925-41.56-10.611l-5.644-6.222q-1.228.555-2.477,1.026l-1.773.668a40.336,40.336,0,0,1-52.6-24.654,41.309,41.309,0,0,1-1.327-4.779l-4.435-20.7-33.8-46.2a48.94,48.94,0,0,1-6.717-13.031,52.288,52.288,0,0,1-2.415-24.546l5.893-37.748c0-.367-.008-1-.029-1.364l-4.453-22.324a47.069,47.069,0,0,1,8.856-37.055,39.511,39.511,0,0,1,11.664-34.373,39,39,0,0,1,38.5-36.609,40.578,40.578,0,0,1,9.42-4.416,41,41,0,0,1,32.8,3.5l17.027,9.755h2.771c15.526.012,31.427,8.909,39.571,22.139l10.862,17.671A48.87,48.87,0,0,1,5020.19,6261.244Z" fill="none" stroke="#666" stroke-width="0.5"/>
        <path id="Path_609" data-name="Path 609" d="M5015.462,6262.869a43.925,43.925,0,0,0-4.061-8.693l-10.859-17.668a42.932,42.932,0,0,0-35.313-19.76h-4.1l-18.18-10.416a35.979,35.979,0,0,0-28.789-3.073,35.446,35.446,0,0,0-9.448,4.662,88.737,88.737,0,0,0-46.333,67.328,41.864,41.864,0,0,0-9.286,34.723l4.511,22.615a22.925,22.925,0,0,1,.052,2.531l-5.938,38.038a47.2,47.2,0,0,0,2.2,22.151,43.974,43.974,0,0,0,6.023,11.7l34.086,46.591c.136.268.325.676.468,1.052l4.534,21.164a36.241,36.241,0,0,0,1.166,4.2,35.337,35.337,0,0,0,46.1,21.6l1.774-.668a37.646,37.646,0,0,0,5.378-2.534l8.205,9.045c11.522,12.671,26.183,13.116,36.063,9.309a31.041,31.041,0,0,0,5.1-2.527,33.04,33.04,0,0,0,13.7,3.673,33.752,33.752,0,0,0,29.783-15.628l22.428-34.1a38.866,38.866,0,0,0,4.08-33.831,37.586,37.586,0,0,0-7.251-12.582l-24.291-27.748a40.668,40.668,0,0,0-8.068-7.043,32.715,32.715,0,0,0-1.217-17.057,33.446,33.446,0,0,0-2.041-4.727,36.569,36.569,0,0,0-4.835-34.377l-10.659-14.454a63.716,63.716,0,0,0,4.16-13.317l2.934-15.989A49.406,49.406,0,0,0,5015.462,6262.869Z" fill="none" stroke="#666" stroke-width="0.5"/>
        <path id="Path_610" data-name="Path 610" d="M5010.733,6264.493a44.262,44.262,0,0,1,1.891,21.669l-2.934,15.993a60.57,60.57,0,0,1-5.01,14.815l12.4,16.814a31.565,31.565,0,0,1,3.3,31.783,28.5,28.5,0,0,1,2.87,5.984,27.615,27.615,0,0,1,.165,17.771,36.781,36.781,0,0,1,10.092,8l24.281,27.737a32.6,32.6,0,0,1,6.289,10.918,33.838,33.838,0,0,1-3.532,29.465l-22.428,34.1a28.8,28.8,0,0,1-25.382,13.376,28.164,28.164,0,0,1-14.153-4.593,26.36,26.36,0,0,1-6.664,3.777c-8.336,3.211-20.741,2.8-30.558-8l-11.063-12.195a33.431,33.431,0,0,1-7.989,4.36l-1.779.67a30.337,30.337,0,0,1-39.608-18.548,31.229,31.229,0,0,1-1-3.624l-4.607-21.5-.022-.056a16.026,16.026,0,0,0-1.016-2.274l-34.3-46.878a39,39,0,0,1-5.331-10.377,42.115,42.115,0,0,1-1.992-19.753l5.969-38.236a24.02,24.02,0,0,0-.085-3.909l-4.547-22.794c-2.258-11.3,1.779-24.13,9.914-32.354a29.5,29.5,0,0,1,10.776-32.488,29.074,29.074,0,0,1,31.549-31.139,30.421,30.421,0,0,1,9.453-4.989,30.962,30.962,0,0,1,24.774,2.649l18.987,10.878c.217.066.525.148.757.2h5.017c12,.009,24.767,7.154,31.06,17.375l10.859,17.668A38.875,38.875,0,0,1,5010.733,6264.493Z" fill="none" stroke="#666" stroke-width="0.5"/>
        <path id="Path_611" data-name="Path 611" d="M5006,6266.118a33.825,33.825,0,0,0-3.125-6.709l-10.857-17.665a33.036,33.036,0,0,0-26.8-15h-5.466a13.107,13.107,0,0,1-2.413-.644l-19.366-11.1a25.949,25.949,0,0,0-20.764-2.228,25.672,25.672,0,0,0-9.422,5.447,24.13,24.13,0,0,0-28.026,26.719l.173,1.7-.169.1a24.625,24.625,0,0,0-10.831,29.188q.371,1.08.844,2.126l-.267.219a31.859,31.859,0,0,0-10.617,29.731l4.55,22.814a25.7,25.7,0,0,1,.118,5.639L4857.6,6374.7a37.05,37.05,0,0,0,1.781,17.36,33.99,33.99,0,0,0,4.637,9.049l34.419,47.046a19.188,19.188,0,0,1,1.587,3.433c.072.209.12.363.146.467l4.643,21.67a26.522,26.522,0,0,0,.845,3.042,25.336,25.336,0,0,0,33.116,15.494l1.779-.67a28.784,28.784,0,0,0,10.26-6.705c.551.7,1.108,1.365,1.667,1.979l12.588,13.876c8.12,8.931,18.269,9.314,25.061,6.7a21.741,21.741,0,0,0,8.182-5.638,23.149,23.149,0,0,0,14.653,6.125,23.839,23.839,0,0,0,20.983-11.128l22.433-34.1a28.817,28.817,0,0,0,2.977-25.086,27.625,27.625,0,0,0-5.323-9.251l-24.286-27.742a33.364,33.364,0,0,0-12.844-8.83,22.766,22.766,0,0,0,1.626-18.608,23.689,23.689,0,0,0-3.986-7.2,26.564,26.564,0,0,0-1.485-29.228l-14.245-19.317a56.833,56.833,0,0,0,5.962-16.182l2.934-16A39.124,39.124,0,0,0,5006,6266.118Z" fill="none" stroke="#666" stroke-width="0.5"/>
        <path id="Path_612" data-name="Path 612" d="M5001.276,6267.743a34,34,0,0,1,1.512,16.615l-2.935,16a51.458,51.458,0,0,1-7.014,17.288l-.041.061,16.229,22.009a21.56,21.56,0,0,1-.958,26.759,19.131,19.131,0,0,1,5.728,8.327,18.16,18.16,0,0,1-5.575,19.806,29.454,29.454,0,0,1,17.765,9.306l24.276,27.731a22.633,22.633,0,0,1,4.36,7.586,23.793,23.793,0,0,1-2.428,20.721l-22.433,34.1a18.4,18.4,0,0,1-31.953-.779,16.882,16.882,0,0,1-9.482,9.5c-5.248,2.022-13.141,1.669-19.556-5.386l-12.6-13.889a41.286,41.286,0,0,1-5.053-7.106,24.517,24.517,0,0,1-12.331,10.521l-1.785.672a20.337,20.337,0,0,1-26.62-12.442,21.31,21.31,0,0,1-.686-2.47l-4.658-21.739a9.39,9.39,0,0,0-.29-.969,22.664,22.664,0,0,0-2.281-4.762l-34.418-47.044a29.053,29.053,0,0,1-3.944-7.723,32.411,32.411,0,0,1-1.57-14.962l5.97-38.239a29.764,29.764,0,0,0-.155-7.383l-4.552-22.819a26.67,26.67,0,0,1,8.9-24.891l3.5-2.872a20.215,20.215,0,0,1-2.524-4.956,19.664,19.664,0,0,1,8.7-23.293l2.86-1.736-.492-4.844a19.176,19.176,0,0,1,24.149-20.886l.543.137a20.729,20.729,0,0,1,26.058-4.343l19.538,11.194a15.673,15.673,0,0,0,4.529,1.209l5.656,0a27.794,27.794,0,0,1,22.549,12.611l10.857,17.663A28.977,28.977,0,0,1,5001.276,6267.743Z" fill="none" stroke="#666" stroke-width="0.5"/>
        <path id="Path_613" data-name="Path 613" d="M4997.87,6283.453l-2.935,16a46.586,46.586,0,0,1-6.253,15.412l-2,2.977L5005,6342.681a16.56,16.56,0,0,1-3.259,22.94l-1.739,1.331,3.133,2.058a14.6,14.6,0,0,1,5.931,7.415c2.133,6.208-.695,12.916-6.894,16.323l-4.9,2.682a2.925,2.925,0,0,0-.547.934l.048,3.476,6.641-.44a24.41,24.41,0,0,1,18.808,7.8l24.28,27.736a17.661,17.661,0,0,1,3.4,5.919h0a18.769,18.769,0,0,1-1.874,16.342l-22.436,34.109a13.434,13.434,0,0,1-23.728-1.035l-6.037-11.2a22.434,22.434,0,0,1-1.419-3.281q-.075-.219-.147-.44l-.041,10.309c-.021,8.808-5.886,11.751-7.683,12.443s-8.123,2.445-14.06-4.084l-12.6-13.884a41.675,41.675,0,0,1-7.638-13.223c-.225-.654-.421-1.3-.582-1.911l-2.109-8-.019,7.232a19.94,19.94,0,0,1-12.5,18l-1.784.672a15.472,15.472,0,0,1-12.14-.411,15.307,15.307,0,0,1-7.989-8.977,16.717,16.717,0,0,1-.524-1.887l-4.66-21.745a13.6,13.6,0,0,0-.45-1.546,26.761,26.761,0,0,0-2.973-6.088l-34.418-47.045a24.042,24.042,0,0,1-3.252-6.4,27.266,27.266,0,0,1-1.357-12.567l5.969-38.238a34.088,34.088,0,0,0-.192-9.133l-4.551-22.818a21.784,21.784,0,0,1,7.16-20.045l7.529-6.187-1.045-1a15.633,15.633,0,0,1-3.953-6.133,14.707,14.707,0,0,1,6.564-17.39l5.229-3.174a2.353,2.353,0,0,0,.3-.593l-.771-7.6a14.181,14.181,0,0,1,17.957-15.531l3.811.958a15.749,15.749,0,0,1,21.524-5.674l19.536,11.192a19.27,19.27,0,0,0,7.011,1.87h5.661a22.863,22.863,0,0,1,18.289,10.232l10.855,17.66a23.966,23.966,0,0,1,2.19,4.728A29.28,29.28,0,0,1,4997.87,6283.453Z" fill="none" stroke="#666" stroke-width="0.5"/>
        <path id="Path_614" data-name="Path 614" d="M4991.818,6270.993a24.433,24.433,0,0,1,1.135,11.555l-2.936,16a41.588,41.588,0,0,1-5.492,13.535l-3.95,5.893,20.4,27.669a11.4,11.4,0,0,1,1.606,3.063,11.561,11.561,0,0,1-3.885,12.943l-7.329,5.609,9.022,5.925a9.648,9.648,0,0,1,3.947,4.861c1.349,3.926-.489,8.072-4.574,10.316l-5.585,3.055-.541.57a7.887,7.887,0,0,0-1.691,2.887l-.236.759.129,9.541,11.9-.788a19.362,19.362,0,0,1,14.711,6.1l24.285,27.743a12.679,12.679,0,0,1,2.429,4.251,13.736,13.736,0,0,1-1.319,11.962l-22.44,34.115a8.453,8.453,0,0,1-15.146-.653l-6.041-11.2a17.307,17.307,0,0,1-1.092-2.533l-.116-.349-9.759,1.514-.041,10.309c-.013,5.486-3.138,7.281-4.481,7.8s-4.867,1.282-8.562-2.782l-12.592-13.88a36.77,36.77,0,0,1-6.612-11.488c-.185-.537-.345-1.062-.476-1.561l-2.109-8-9.834,1.261-.019,7.232a14.983,14.983,0,0,1-9.267,13.331l-1.783.671a10.512,10.512,0,0,1-8.251-.256,10.342,10.342,0,0,1-5.387-6.076,11.213,11.213,0,0,1-.363-1.306l-4.661-21.75a18.49,18.49,0,0,0-.61-2.123,31.631,31.631,0,0,0-3.666-7.414l-34.419-47.046a19.058,19.058,0,0,1-2.558-5.069,22.479,22.479,0,0,1-1.146-10.172l5.969-38.236a38.553,38.553,0,0,0-.229-10.884l-4.551-22.817a16.748,16.748,0,0,1,5.425-15.2l11.886-9.767-5.11-4.9a10.594,10.594,0,0,1-2.684-4.148,9.738,9.738,0,0,1,4.422-11.486l6.089-3.7.589-.8a7.352,7.352,0,0,0,1.04-2.074l.3-.968-.873-8.6a9.19,9.19,0,0,1,11.766-10.177l7.432,1.869,1.9-3.217a10.749,10.749,0,0,1,14.736-3.877l19.535,11.191a23.811,23.811,0,0,0,9.494,2.532l5.664,0a17.808,17.808,0,0,1,14.031,7.853l10.852,17.658A18.859,18.859,0,0,1,4991.818,6270.993Z" fill="none" stroke="#666" stroke-width="0.5"/>
        <path id="Path_615" data-name="Path 615" d="M5010.659,6485.525l-6.028-11.18a18.7,18.7,0,0,1-1.376-11.844l1.212-4.5a23.511,23.511,0,0,0-.577-12.206l-3.64-9.775a5.721,5.721,0,0,0-8-3.2l-2.071,1.015a11.3,11.3,0,0,0-5.791,9.229l-.17,42.576c-.008,3.531-1.959,4.278-4.336,1.664l-12.6-13.892a31.147,31.147,0,0,1-5.949-10.955l-6.115-23.2a6.163,6.163,0,0,0-7.776-4.351l-1.689.51a9.226,9.226,0,0,0-6.164,8.264l-.054,20.521a10.041,10.041,0,0,1-6.027,8.679l-1.789.673a5.368,5.368,0,0,1-7.346-4.014l-4.657-21.735a35.858,35.858,0,0,0-5.133-11.453l-34.418-47.044a17.831,17.831,0,0,1-2.8-11.517l5.97-38.241a43.323,43.323,0,0,0-.266-12.629l-4.552-22.821a11.793,11.793,0,0,1,3.7-10.358l11.268-9.259a5.584,5.584,0,0,0,.334-8.517l-4.531-4.344a4.691,4.691,0,0,1,.865-7.77l5.477-3.325a11.117,11.117,0,0,0,4.838-9.708l-.8-7.892c-.357-3.5,2.151-5.677,5.572-4.819l5.576,1.4a8.033,8.033,0,0,0,8.89-4.275l.1-.221a5.767,5.767,0,0,1,8.236-2.643l19.539,11.194a28.623,28.623,0,0,0,11.982,3.191h5.65a12.809,12.809,0,0,1,9.778,5.468l10.851,17.656a19.41,19.41,0,0,1,2.2,11.777l-2.937,16.007a37.044,37.044,0,0,1-4.723,11.642l-2.34,3.492a9.829,9.829,0,0,0,.242,10.5l18.676,25.326a6.585,6.585,0,0,1-1.285,9.065l-7.832,5.992c-2.8,2.148-2.679,5.485.267,7.428l9.537,6.264c2.952,1.943,2.827,4.912-.264,6.611l-5.115,2.8a11.781,11.781,0,0,0-5.54,9.5l.106,7.827a6.032,6.032,0,0,0,6.483,5.993l10.763-.712a14.666,14.666,0,0,1,10.623,4.407l24.275,27.731a8.929,8.929,0,0,1,.7,10.184l-22.44,34.115C5015.289,6488.765,5012.33,6488.637,5010.659,6485.525Z" fill="#eecc8d" stroke="#666" stroke-miterlimit="10" stroke-width="1"/>
      </g>
      <g id="island_2" data-name="island 2" transform="translate(-3317.106 -5916.392)">
        <path id="Path_616" data-name="Path 616" d="M4725.729,6739.871a46.1,46.1,0,0,1-4.377-17.646l-1.909-34c-.757-13.811,4.143-29.818,12.483-40.789l14.65-19.265c7.695-10.133,20.016-18.192,32.758-21.568l8.756-46.182c3.239-17.091,14.724-30.092,30.724-34.776s32.7.07,44.647,12.727l48.376,51.189,12.847,4.316a95.918,95.918,0,0,1,25.66,13.749l20.875,16.178a46.2,46.2,0,0,1,13.565,16.737c10.578,22.218,1.7,47.595-20.649,59.03l-13.622,6.992a82.541,82.541,0,0,1-31.866,8.322l-4.121.151-11.231,16.564A47.664,47.664,0,0,1,4835.6,6743.3l-24.024-17.575-12.23,18.083c-13.254,19.586-31.828,20.406-39.2,19.851A41.262,41.262,0,0,1,4725.729,6739.871Z" fill="none" stroke="#666" stroke-miterlimit="10" stroke-width="0.5"/>
        <path id="Path_617" data-name="Path 617" d="M4730.243,6737.722a41.211,41.211,0,0,1-3.9-15.769l-1.909-34.013a60.141,60.141,0,0,1,11.471-37.483l14.65-19.264c7.688-10.124,20.431-17.947,33.084-20.465l9.363-49.38c2.882-15.208,13.056-26.763,27.216-30.909s28.975.1,39.607,11.36l49.065,51.918c.13.085.274.177.41.261l13.791,4.633a90.493,90.493,0,0,1,24.187,12.961l20.877,16.18a41.209,41.209,0,0,1,12.113,14.934c9.388,19.716,1.473,42.256-18.411,52.428l-13.629,7a77.133,77.133,0,0,1-29.77,7.774l-6.648.243-12.654,18.662a42.667,42.667,0,0,1-60.6,10.48l-28.216-20.642-15.136,22.381c-11.786,17.417-28.18,18.156-34.682,17.666A36.314,36.314,0,0,1,4730.243,6737.722Z" fill="none" stroke="#666" stroke-miterlimit="10" stroke-width="0.5"/>
        <path id="Path_618" data-name="Path 618" d="M4734.757,6735.572a36.3,36.3,0,0,1-3.42-13.892l-1.909-34.02a54.814,54.814,0,0,1,10.459-34.177l14.649-19.263a51.7,51.7,0,0,1,32.579-19.007l.784-.107,10.017-52.827c2.524-13.325,11.388-23.435,23.708-27.042s25.25.126,34.565,10l49.445,52.319c.357.256,1.138.754,1.563,1l14.3,4.805a84.923,84.923,0,0,1,22.715,12.171l20.88,16.181a36.289,36.289,0,0,1,10.661,13.132c8.2,17.216,1.243,36.917-16.175,45.828l-13.634,7a71.7,71.7,0,0,1-27.675,7.226l-9.176.335-14.077,20.76a37.664,37.664,0,0,1-53.5,9.254l-30.291-22.161-3.11-.077-17.048,25.208c-10.32,15.249-24.533,15.906-30.165,15.481A31.368,31.368,0,0,1,4734.757,6735.572Z" fill="none" stroke="#666" stroke-miterlimit="10" stroke-width="0.5"/>
        <path id="Path_619" data-name="Path 619" d="M4739.272,6733.423a31.388,31.388,0,0,1-2.942-12.016l-1.91-34.028a49.523,49.523,0,0,1,9.447-30.87l14.649-19.263a46.459,46.459,0,0,1,29.274-17.079l4.351-.592,10.687-56.365c2.168-11.442,9.72-20.1,20.2-23.175s21.524.155,29.523,8.629l49.694,52.582a20.441,20.441,0,0,0,3,1.92l14.658,4.925a79.445,79.445,0,0,1,21.244,11.381l20.88,16.184a31.318,31.318,0,0,1,9.211,11.329c7.006,14.714,1.014,31.578-13.938,39.227l-13.64,7a67.3,67.3,0,0,1-25.579,6.677l-11.705.428-15.5,22.858a32.667,32.667,0,0,1-46.409,8.028l-30.967-22.657c-.356-.144-.946-.345-1.318-.45l-6.681-.166-18.581,27.473c-8.852,13.08-20.884,13.657-25.646,13.3A26.419,26.419,0,0,1,4739.272,6733.423Z" fill="none" stroke="#666" stroke-miterlimit="10" stroke-width="0.5"/>
        <path id="Path_620" data-name="Path 620" d="M4743.786,6731.273a26.5,26.5,0,0,1-2.464-10.139l-1.91-34.035a44.866,44.866,0,0,1,8.435-27.564l14.648-19.262a41.82,41.82,0,0,1,25.97-15.152l7.917-1.076,11.359-59.9c1.811-9.559,8.051-16.777,16.694-19.308s17.8.182,24.481,7.262l49.76,52.651a20.751,20.751,0,0,0,4.891,3.129l14.747,4.955a75.1,75.1,0,0,1,19.771,10.592l20.882,16.185a26.348,26.348,0,0,1,7.759,9.526c5.815,12.213.785,26.239-11.7,32.626l-13.647,7.006a62.747,62.747,0,0,1-23.483,6.129l-14.233.52-16.922,24.956a27.667,27.667,0,0,1-39.313,6.8l-31.349-22.936a14.613,14.613,0,0,0-3.3-1.125l-9.887-.247-20.113,29.739c-7.384,10.911-17.236,11.406-21.129,11.112A21.474,21.474,0,0,1,4743.786,6731.273Z" fill="none" stroke="#666" stroke-miterlimit="10" stroke-width="0.5"/>
        <path id="Path_621" data-name="Path 621" d="M4748.3,6729.124a21.589,21.589,0,0,1-1.986-8.262l-1.911-34.043a40.081,40.081,0,0,1,7.424-24.258l14.647-19.261a37.034,37.034,0,0,1,22.665-13.224l11.484-1.562,12.03-63.441c1.453-7.676,6.383-13.449,13.186-15.441s14.074.211,19.441,5.9l49.76,52.654a24.1,24.1,0,0,0,6.934,4.434l14.746,4.954a70.677,70.677,0,0,1,18.3,9.8l20.883,16.186a21.391,21.391,0,0,1,6.308,7.724c4.624,9.712.555,20.9-9.464,26.025l-13.652,7.009a58.032,58.032,0,0,1-21.387,5.58l-16.016.586a6.486,6.486,0,0,0-1.166.647l-17.924,26.434a22.665,22.665,0,0,1-32.217,5.576l-31.424-22.991a16.444,16.444,0,0,0-5.961-2.035l-12.372-.308a5.213,5.213,0,0,0-.533.273l-21.455,31.723c-5.916,8.742-13.587,9.155-16.61,8.927A16.528,16.528,0,0,1,4748.3,6729.124Z" fill="none" stroke="#666" stroke-miterlimit="10" stroke-width="0.5"/>
        <path id="Path_622" data-name="Path 622" d="M4752.815,6726.974a16.718,16.718,0,0,1-1.507-6.385l-1.911-34.051a35.139,35.139,0,0,1,6.411-20.951l14.647-19.26a32.112,32.112,0,0,1,19.36-11.3l14.173-1.928a2.678,2.678,0,0,0,1.04-.982L4817.567,6566c1.1-5.793,4.714-10.121,9.679-11.574s10.349.238,14.4,4.529l49.762,52.656a28.375,28.375,0,0,0,8.977,5.739l14.744,4.955a66.038,66.038,0,0,1,16.829,9.015l20.883,16.187a16.406,16.406,0,0,1,4.857,5.921c3.433,7.211.326,15.562-7.226,19.425l-13.658,7.012a53.2,53.2,0,0,1-19.292,5.032l-16.382.6a8.486,8.486,0,0,0-4.545,2.521l-18.13,26.737a17.665,17.665,0,0,1-25.122,4.35l-31.428-22.994a20.558,20.558,0,0,0-8.789-3l-12.918-.322a7.047,7.047,0,0,0-3.94,2.022L4774.5,6727c-4.288,6.338-9.416,6.944-12.092,6.742A11.581,11.581,0,0,1,4752.815,6726.974Z" fill="none" stroke="#666" stroke-miterlimit="10" stroke-width="0.5"/>
        <path id="Path_623" data-name="Path 623" d="M4757.329,6724.824a11.868,11.868,0,0,1-1.029-4.507l-1.911-34.059a30.048,30.048,0,0,1,5.4-17.645l14.645-19.26a27.048,27.048,0,0,1,16.055-9.369l14.264-1.94a6.917,6.917,0,0,0,5.171-4.9l12.555-66.2c.751-3.968,3-6.778,6.172-7.707s6.583.224,9.359,3.163l49.763,52.659a33.044,33.044,0,0,0,11.018,7.044l14.745,4.955a61.235,61.235,0,0,1,15.357,8.226l20.884,16.188a11.49,11.49,0,0,1,3.406,4.119c2.279,4.786.181,10.179-4.989,12.823l-13.665,7.017a48.218,48.218,0,0,1-17.2,4.483l-16.376.6a12.885,12.885,0,0,0-8.5,4.716l-18.127,26.733a12.667,12.667,0,0,1-18.027,3.123l-31.432-23a25.3,25.3,0,0,0-11.617-3.962l-12.919-.321a11.422,11.422,0,0,0-8.205,4.217l-21.768,32.187c-2.73,4.033-5.625,4.7-7.574,4.557a6.557,6.557,0,0,1-5.455-3.933Z" fill="none" stroke="#666" stroke-miterlimit="10" stroke-width="0.5"/>
        <path id="Path_624" data-name="Path 624" d="M4752.815,6726.974a16.718,16.718,0,0,1-1.507-6.385l-1.911-34.051a35.139,35.139,0,0,1,6.411-20.951l14.647-19.26a32.112,32.112,0,0,1,19.36-11.3l14.173-1.928a2.678,2.678,0,0,0,1.04-.982L4817.567,6566c1.1-5.793,4.714-10.121,9.679-11.574s10.349.238,14.4,4.529l49.762,52.656a28.375,28.375,0,0,0,8.977,5.739l14.744,4.955a66.038,66.038,0,0,1,16.829,9.015l20.883,16.187a16.406,16.406,0,0,1,4.857,5.921c3.433,7.211.326,15.562-7.226,19.425l-13.658,7.012a53.2,53.2,0,0,1-19.292,5.032l-16.382.6a8.486,8.486,0,0,0-4.545,2.521l-18.13,26.737a17.665,17.665,0,0,1-25.122,4.35l-31.428-22.994a20.558,20.558,0,0,0-8.789-3l-12.918-.322a7.047,7.047,0,0,0-3.94,2.022L4774.5,6727c-4.288,6.338-9.416,6.944-12.092,6.742A11.581,11.581,0,0,1,4752.815,6726.974Z" fill="none" stroke="#666" stroke-miterlimit="10" stroke-width="0.5"/>
        <path id="Path_625" data-name="Path 625" d="M4757.329,6724.824a11.868,11.868,0,0,1-1.029-4.507l-1.911-34.059a30.048,30.048,0,0,1,5.4-17.645l14.645-19.26a27.048,27.048,0,0,1,16.055-9.369l14.264-1.94a6.917,6.917,0,0,0,5.171-4.9l12.555-66.2c.751-3.968,3-6.778,6.172-7.707s6.583.224,9.359,3.163l49.763,52.659a33.044,33.044,0,0,0,11.018,7.044l14.745,4.955a61.235,61.235,0,0,1,15.357,8.226l20.884,16.188a11.49,11.49,0,0,1,3.406,4.119c2.279,4.786.181,10.179-4.989,12.823l-13.665,7.017a48.218,48.218,0,0,1-17.2,4.483l-16.376.6a12.885,12.885,0,0,0-8.5,4.716l-18.127,26.733a12.667,12.667,0,0,1-18.027,3.123l-31.432-23a25.3,25.3,0,0,0-11.617-3.962l-12.919-.321a11.422,11.422,0,0,0-8.205,4.217l-21.768,32.187c-2.73,4.033-5.625,4.7-7.574,4.557a6.557,6.557,0,0,1-5.455-3.933Z" fill="none" stroke="#666" stroke-miterlimit="10" stroke-width="0.5"/>
        <path id="Path_626" data-name="Path 626" d="M4787.986,6689.211a16.322,16.322,0,0,1,12.469-6.412l12.921.321a30,30,0,0,1,14.444,4.925l31.436,23a7.664,7.664,0,0,0,10.931-1.9l18.125-26.731a17.764,17.764,0,0,1,12.463-6.91l16.371-.6a43.15,43.15,0,0,0,15.1-3.934l13.672-7.02c3.916-2,4.269-5.848.8-8.539l-20.885-16.189a56.483,56.483,0,0,0-13.886-7.437l-14.745-4.955a37.969,37.969,0,0,1-13.059-8.35l-49.764-52.66c-3.02-3.2-6.166-2.277-6.983,2.043l-12.554,66.2a11.889,11.889,0,0,1-9.412,8.93l-14.261,1.94a22.19,22.19,0,0,0-12.751,7.442l-14.645,19.259a25.266,25.266,0,0,0-4.387,14.339l1.911,34.064c.24,4.386,2.459,5,4.923,1.358Z" fill="#eecc8d" stroke="#666" stroke-miterlimit="10" stroke-width="1"/>
      </g>
      <g id="island_3" data-name="island 3" transform="translate(-3317.106 -5916.392)">
        <path id="Path_627" data-name="Path 627" d="M3552.452,6733.669c-23.358,0-42.3-17.092-45.046-40.64l-8.334-72a47.684,47.684,0,0,1,11.533-37.177,46.408,46.408,0,0,1,13.358-10.363l12.792-27.073-9.885-30.587-1.278-.849c-16.114-10.651-25.657-31.518-23.2-50.739l.794-6.242c1.8-14.19,10.036-29.335,20.982-38.581l3.132-2.633-3.087-11.5-23.664-24.568a40.753,40.753,0,0,0-4.436-3.584l-.626-.392a58.649,58.649,0,0,0-6.5-3.06l-16.9-6.021c-19.08-6.86-33.267-25.717-34.515-45.864l-2.86-46.05c-1.022-16.459,5.89-27.493,11.869-33.851a42.772,42.772,0,0,1,31.492-13.57,45.628,45.628,0,0,1,22.826,6.173l14.929,8.512c.206.068.448.145.655.207l30.251,2.989c17.643,1.744,35,13.48,43.184,29.2l4.96,9.525,5.506,3.472c11.645,7.33,20.85,20.231,24.449,34.085l1.368.685a97.017,97.017,0,0,1,23.317,16.893l46.293,46.729c10.575,10.681,17.4,27.937,16.972,42.939l-.582,22.26a47.086,47.086,0,0,1-15.1,33.526,57.59,57.59,0,0,1-15.84,38l-3.932,4.017,13.623,29.3c9.5,20.429,1.577,36.658-2.268,42.688-8,12.538-21.3,19.727-36.478,19.727a47.728,47.728,0,0,1-11.755-1.5l-12.41-3.135-3.893,26.82a71.842,71.842,0,0,1-4.058,15.117,46.188,46.188,0,0,1-23.017,61.3l-25.1,11.5A46.3,46.3,0,0,1,3552.452,6733.669Z" fill="none" stroke="#666" stroke-miterlimit="10" stroke-width="0.5"/>
        <path id="Path_628" data-name="Path 628" d="M3552.452,6728.669c-20.778,0-37.635-15.232-40.08-36.219l-8.334-72a42.68,42.68,0,0,1,10.306-33.281,41.154,41.154,0,0,1,13.392-9.965l14.386-30.444-11.031-34.133-2.733-1.815c-14.589-9.643-23.231-28.536-21-45.94l.795-6.245a58.513,58.513,0,0,1,19.249-35.392l5.559-4.674-4.226-15.742-.075-.133-24.5-25.44a43.223,43.223,0,0,0-5.424-4.378l-.591-.369a61.3,61.3,0,0,0-7.468-3.53l-16.9-6.021c-17.249-6.2-30.075-23.25-31.2-41.462l-2.86-46.051c-.912-14.675,5.218-24.478,10.52-30.117a37.822,37.822,0,0,1,27.85-12,40.689,40.689,0,0,1,20.35,5.517l15.329,8.74c.423.157,1.33.445,1.791.567l30.7,3.033c16.031,1.585,31.8,12.249,39.241,26.535l5.584,10.724,6.649,4.192c11.23,7.068,19.967,19.922,22.787,33.282l3.46,1.731a91.5,91.5,0,0,1,22,15.936l46.3,46.733c9.675,9.771,15.914,25.556,15.527,39.279l-.582,22.27a41.684,41.684,0,0,1-15.08,31.359c.187,13.495-5.21,27.383-14.432,36.8l-6.351,6.488,15.081,32.43c8.453,18.185,1.452,32.556-1.95,37.891a37.485,37.485,0,0,1-32.262,17.416,42.754,42.754,0,0,1-10.523-1.342l-16.867-4.26-.55.965c-.209.477-.806,2.217-.962,2.831l-4.1,28.277a68.916,68.916,0,0,1-4.569,16.035,41.026,41.026,0,0,1,3.34,29.263,41.447,41.447,0,0,1-22.989,27.3l-25.093,11.5A41.377,41.377,0,0,1,3552.452,6728.669Z" fill="none" stroke="#666" stroke-miterlimit="10" stroke-width="0.5"/>
        <path id="Path_629" data-name="Path 629" d="M3552.452,6723.669c-18.2,0-32.967-13.373-35.114-31.8l-8.333-72a37.681,37.681,0,0,1,9.077-29.386,35.911,35.911,0,0,1,13.371-9.449l16.036-33.933-12.177-37.679-4.188-2.781c-13.065-8.635-20.8-25.556-18.811-41.141l.795-6.248a53.242,53.242,0,0,1,17.515-32.2l7.987-6.715-5.2-19.378c-.173-.341-.526-.968-.749-1.325l-24.905-25.858a46.828,46.828,0,0,0-6.412-5.172l-.551-.345a64.969,64.969,0,0,0-8.443-4l-16.9-6.02c-15.419-5.544-26.882-20.783-27.89-37.062l-2.86-46.052c-.8-12.89,4.546-21.462,9.173-26.383a32.874,32.874,0,0,1,24.207-10.419,35.738,35.738,0,0,1,17.874,4.861l15.608,8.9a23.772,23.772,0,0,0,3.176,1.008l31.02,3.064c14.421,1.426,28.606,11.019,35.3,23.87l5.941,11.409c.207.239.522.583.753.819l7.308,4.608c10.854,6.832,19.033,19.589,20.983,32.407l5.694,2.847a86.081,86.081,0,0,1,20.679,14.981l46.3,46.735c8.774,8.863,14.432,23.177,14.081,35.62l-.582,22.281a36.721,36.721,0,0,1-15.186,29.1,47.568,47.568,0,0,1-12.9,35.693l-8.768,8.959,16.539,35.566c7.409,15.94,1.326,28.454-1.633,33.094a32.569,32.569,0,0,1-28.046,15.1,37.764,37.764,0,0,1-9.291-1.187l-20.559-5.194-2.507,4.4a28.35,28.35,0,0,0-1.468,4.285l-4.13,28.451a65.723,65.723,0,0,1-5.186,17.028,36.211,36.211,0,0,1-16.176,51.744l-25.084,11.5A36.435,36.435,0,0,1,3552.452,6723.669Z" fill="none" stroke="#666" stroke-miterlimit="10" stroke-width="0.5"/>
        <path id="Path_630" data-name="Path 630" d="M3552.452,6718.669c-15.62,0-28.3-11.514-30.147-27.377l-8.333-71.994a32.682,32.682,0,0,1,7.849-25.492,30.671,30.671,0,0,1,13.28-8.784l17.754-37.571-13.266-41.05c-.067-.09-.14-.187-.211-.277l-5.488-3.644c-11.541-7.628-18.378-22.576-16.618-36.342l.8-6.251a47.966,47.966,0,0,1,15.781-29.015l10.415-8.757-6.13-22.836a18.848,18.848,0,0,0-1.583-2.811l-25.2-26.161a51.029,51.029,0,0,0-7.4-5.966l-.512-.32a69.615,69.615,0,0,0-9.417-4.474l-16.9-6.02a38.138,38.138,0,0,1-24.579-32.661l-2.86-46.052c-.689-11.106,3.875-18.447,7.826-22.649a27.923,27.923,0,0,1,20.564-8.844,30.8,30.8,0,0,1,15.4,4.205l15.7,8.95a23.112,23.112,0,0,0,4.974,1.579l31.116,3.074a41.273,41.273,0,0,1,31.355,21.2l6.164,11.836a18.331,18.331,0,0,0,1.877,2.047l7.729,4.873a42.849,42.849,0,0,1,18.991,31.368l.006.072,8.11,4.057a80.573,80.573,0,0,1,19.361,14.025l46.3,46.738c7.872,7.952,12.95,20.8,12.635,31.961l-.582,22.29a31.537,31.537,0,0,1-15.493,26.716c1.826,12.1-2.634,25.993-11.17,34.713l-11.186,11.431,18,38.7c6.366,13.7,1.2,24.352-1.315,28.3a27.654,27.654,0,0,1-23.83,12.793,32.793,32.793,0,0,1-8.059-1.033l-24.252-6.127-4.39,7.7a29.168,29.168,0,0,0-2.067,6.012l-4.135,28.482a61.846,61.846,0,0,1-5.958,18.123,31.237,31.237,0,0,1-12.547,46.826l-25.076,11.492A31.509,31.509,0,0,1,3552.452,6718.669Z" fill="none" stroke="#666" stroke-miterlimit="10" stroke-width="0.5"/>
        <path id="Path_631" data-name="Path 631" d="M3552.452,6713.669c-13.041,0-23.631-9.654-25.181-22.956l-8.332-71.99a27.678,27.678,0,0,1,6.621-21.6,25.767,25.767,0,0,1,13.1-7.93l19.313-40.869a9.986,9.986,0,0,0,.065-1.1l-13.9-43.017a12.868,12.868,0,0,0-1.418-1.87l-6.061-4.024a33.923,33.923,0,0,1-14.424-31.543l.8-6.254a43.321,43.321,0,0,1,14.047-25.825l12.844-10.8-6.985-26.018a19.229,19.229,0,0,0-2.7-4.787l-25.282-26.251a55.758,55.758,0,0,0-8.389-6.76l-.463-.291a73.916,73.916,0,0,0-10.4-4.95l-16.9-6.02a33,33,0,0,1-21.266-28.259l-2.861-46.054a24.537,24.537,0,0,1,6.479-18.914,22.976,22.976,0,0,1,16.921-7.269,25.861,25.861,0,0,1,12.921,3.548l15.7,8.951a26.1,26.1,0,0,0,6.958,2.21l31.118,3.075a36.082,36.082,0,0,1,27.412,18.537l6.254,12.01a18.108,18.108,0,0,0,3.376,3.68l7.908,4.986a37.62,37.62,0,0,1,16.673,27.539l.238,2.885,10.625,5.315a76.233,76.233,0,0,1,18.042,13.068l46.306,46.741a41.1,41.1,0,0,1,11.189,28.3l-.583,22.3A26.483,26.483,0,0,1,3676.2,6475.5l.526,3.216a37.444,37.444,0,0,1-9.745,30.815l-13.6,13.9,19.454,41.835c5.324,11.453,1.076,20.25-1,23.5a22.741,22.741,0,0,1-19.614,10.481,27.778,27.778,0,0,1-6.828-.879l-27.944-7.059-6.272,11a32.233,32.233,0,0,0-2.673,7.778l-4.134,28.474a58.527,58.527,0,0,1-6.9,19.254l1.545,2.106a26.243,26.243,0,0,1-10.29,39.766l-25.067,11.488A26.58,26.58,0,0,1,3552.452,6713.669Z" fill="none" stroke="#666" stroke-miterlimit="10" stroke-width="0.5"/>
        <path id="Path_632" data-name="Path 632" d="M3552.452,6708.669c-10.461,0-18.963-7.795-20.215-18.535l-8.331-71.986a22.681,22.681,0,0,1,5.393-17.7,20.525,20.525,0,0,1,12.793-6.812l20.624-43.644a10.353,10.353,0,0,0,.231-3.833l-14.133-43.729a13.5,13.5,0,0,0-3.115-4.109l-6.277-4.168a28.767,28.767,0,0,1-12.231-26.745l.8-6.255a38.536,38.536,0,0,1,12.314-22.637l15.271-12.841-7.81-29.092a22.7,22.7,0,0,0-3.924-6.961l-25.281-26.25a60.045,60.045,0,0,0-9.378-7.554l-.413-.26a77.859,77.859,0,0,0-11.384-5.428l-16.9-6.02a27.857,27.857,0,0,1-17.954-23.858l-2.86-46.054a19.649,19.649,0,0,1,5.131-15.18,18.021,18.021,0,0,1,13.278-5.694,20.921,20.921,0,0,1,10.444,2.892l15.7,8.95a30.36,30.36,0,0,0,8.941,2.843l31.119,3.074a31.332,31.332,0,0,1,23.469,15.871l6.255,12.011a21.022,21.022,0,0,0,5.136,5.6l7.916,4.99a32.859,32.859,0,0,1,14.355,23.71l.456,5.533c.048.079.1.162.158.238l13,6.5a71.865,71.865,0,0,1,16.723,12.113l46.308,46.744a36.314,36.314,0,0,1,9.744,24.642l-.583,22.31a21.445,21.445,0,0,1-16.646,20.743l1.218,7.443a32.679,32.679,0,0,1-8.384,26.51l-16.024,16.373,20.913,44.97c4.28,9.208.95,16.148-.679,18.7a17.828,17.828,0,0,1-15.4,8.17,22.8,22.8,0,0,1-5.6-.724l-31.636-7.993-8.155,14.3a36.6,36.6,0,0,0-3.278,9.544l-4.134,28.466a53.715,53.715,0,0,1-7.986,20.2l3.544,4.832a21.244,21.244,0,0,1-8.35,32.268l-25.058,11.484A21.637,21.637,0,0,1,3552.452,6708.669Z" fill="none" stroke="#666" stroke-miterlimit="10" stroke-width="0.5"/>
        <path id="Path_633" data-name="Path 633" d="M3552.452,6703.669c-7.883,0-14.295-5.936-15.249-14.114l-8.331-71.983a17.681,17.681,0,0,1,4.166-13.808,15.545,15.545,0,0,1,11.332-5.3,4.383,4.383,0,0,0,1.693-1.532l21.174-44.807a13.715,13.715,0,0,0,.481-7.463l-14.146-43.773a17.148,17.148,0,0,0-5.115-6.742l-6.269-4.163a23.935,23.935,0,0,1-10.037-21.946l.8-6.258a33.613,33.613,0,0,1,10.58-19.448l16.455-13.837a4.461,4.461,0,0,0,.813-2.654l-8.2-30.558a27.092,27.092,0,0,0-5.154-9.134L3522.16,6359.9a65.319,65.319,0,0,0-10.368-8.35l-.365-.23a83.133,83.133,0,0,0-12.367-5.9l-16.9-6.02a23.03,23.03,0,0,1-14.642-19.457l-2.86-46.055a14.775,14.775,0,0,1,3.784-11.446,13.074,13.074,0,0,1,9.635-4.118,15.992,15.992,0,0,1,7.968,2.236l15.7,8.95a35.157,35.157,0,0,0,10.925,3.475l31.12,3.074a26.441,26.441,0,0,1,19.527,13.205l6.254,12.011a25.186,25.186,0,0,0,6.906,7.515l7.914,4.99a27.954,27.954,0,0,1,12.038,19.88l.506,6.148a6.387,6.387,0,0,0,2.276,3.4l13.576,6.79a67.277,67.277,0,0,1,15.405,11.156L3674.5,6407.9a31.392,31.392,0,0,1,8.3,20.984l-.584,22.319a16.535,16.535,0,0,1-16.715,16.438c-.242,0-.485,0-.728-.016l2.079,12.7a27.767,27.767,0,0,1-7.023,22.206l-17.685,18.071a3.3,3.3,0,0,0-.267,1.826l21.881,47.051c3.237,6.965.826,12.045-.361,13.907a12.919,12.919,0,0,1-11.183,5.858,17.767,17.767,0,0,1-4.365-.57l-34.809-8.794a1.935,1.935,0,0,0-.791.344l-9.767,17.13a41.03,41.03,0,0,0-3.884,11.309l-4.132,28.458a48.382,48.382,0,0,1-7.666,18.814l-1.1,1.511a2.4,2.4,0,0,0,0,1.243l5.24,7.144a16.249,16.249,0,0,1-6.41,24.77l-25.05,11.48A16.706,16.706,0,0,1,3552.452,6703.669Z" fill="none" stroke="#666" stroke-miterlimit="10" stroke-width="0.5"/>
        <path id="Path_634" data-name="Path 634" d="M3552.452,6698.669c-5.389,0-9.617-3.986-10.282-9.693L3533.839,6617a12.68,12.68,0,0,1,2.938-9.913,10.613,10.613,0,0,1,8-3.625c1.681,0,4.691-2.03,5.806-4.39l21.174-44.806a18.355,18.355,0,0,0,.716-11.144l-14.144-43.766a21.8,21.8,0,0,0-7.114-9.376l-6.261-4.157a18.966,18.966,0,0,1-7.844-17.147l.8-6.26a28.547,28.547,0,0,1,8.847-16.26l16.446-13.83a8.8,8.8,0,0,0,2.432-7.749l-8.21-30.586a31.81,31.81,0,0,0-6.383-11.308l-25.278-26.248a70.3,70.3,0,0,0-11.356-9.145l-.319-.2a88.04,88.04,0,0,0-13.348-6.38l-16.9-6.02a18.068,18.068,0,0,1-11.33-15.057l-2.86-46.055a9.912,9.912,0,0,1,2.438-7.713,8.125,8.125,0,0,1,5.991-2.541,11.075,11.075,0,0,1,5.491,1.58l15.7,8.95a40.1,40.1,0,0,0,12.908,4.106l31.121,3.074a21.417,21.417,0,0,1,15.584,10.539l6.254,12.011a30.01,30.01,0,0,0,8.676,9.437l7.913,4.988a22.911,22.911,0,0,1,9.72,16.052l.507,6.157a10.821,10.821,0,0,0,5.03,7.471l13.569,6.786a62.489,62.489,0,0,1,14.085,10.2l46.315,46.75a26.309,26.309,0,0,1,6.852,17.324l-.584,22.329a11.613,11.613,0,0,1-11.717,11.569,12.784,12.784,0,0,1-2.243-.2l-3.641-.661a2.684,2.684,0,0,0-.464-.044,1.373,1.373,0,0,0-.288.027,1.971,1.971,0,0,0,.007.764l3.046,18.609a22.722,22.722,0,0,1-5.662,17.9l-17.685,18.071a7.5,7.5,0,0,0-1.258,7.356l21.911,47.127c2.115,4.551.881,7.66-.043,9.108a8.011,8.011,0,0,1-6.967,3.548,12.762,12.762,0,0,1-3.131-.416L3614.124,6575a4.136,4.136,0,0,0-1.02-.12,6.317,6.317,0,0,0-5.119,2.736l-9.844,17.265a45.83,45.83,0,0,0-4.489,13.074l-4.131,28.451a43.372,43.372,0,0,1-6.759,16.588l-1.161,1.591a6.672,6.672,0,0,0,.013,6.986l5.3,7.223a11.253,11.253,0,0,1-4.47,17.272l-25.041,11.476A11.784,11.784,0,0,1,3552.452,6698.669Z" fill="none" stroke="#666" stroke-miterlimit="10" stroke-width="0.5"/>
        <path id="Path_635" data-name="Path 635" d="M3552.452,6703.669c-7.883,0-14.295-5.936-15.249-14.114l-8.331-71.983a17.681,17.681,0,0,1,4.166-13.808,15.545,15.545,0,0,1,11.332-5.3,4.383,4.383,0,0,0,1.693-1.532l21.174-44.807a13.715,13.715,0,0,0,.481-7.463l-14.146-43.773a17.148,17.148,0,0,0-5.115-6.742l-6.269-4.163a23.935,23.935,0,0,1-10.037-21.946l.8-6.258a33.613,33.613,0,0,1,10.58-19.448l16.455-13.837a4.461,4.461,0,0,0,.813-2.654l-8.2-30.558a27.092,27.092,0,0,0-5.154-9.134L3522.16,6359.9a65.319,65.319,0,0,0-10.368-8.35l-.365-.23a83.133,83.133,0,0,0-12.367-5.9l-16.9-6.02a23.03,23.03,0,0,1-14.642-19.457l-2.86-46.055a14.775,14.775,0,0,1,3.784-11.446,13.074,13.074,0,0,1,9.635-4.118,15.992,15.992,0,0,1,7.968,2.236l15.7,8.95a35.157,35.157,0,0,0,10.925,3.475l31.12,3.074a26.441,26.441,0,0,1,19.527,13.205l6.254,12.011a25.186,25.186,0,0,0,6.906,7.515l7.914,4.99a27.954,27.954,0,0,1,12.038,19.88l.506,6.148a6.387,6.387,0,0,0,2.276,3.4l13.576,6.79a67.277,67.277,0,0,1,15.405,11.156L3674.5,6407.9a31.392,31.392,0,0,1,8.3,20.984l-.584,22.319a16.535,16.535,0,0,1-16.715,16.438c-.242,0-.485,0-.728-.016l2.079,12.7a27.767,27.767,0,0,1-7.023,22.206l-17.685,18.071a3.3,3.3,0,0,0-.267,1.826l21.881,47.051c3.237,6.965.826,12.045-.361,13.907a12.919,12.919,0,0,1-11.183,5.858,17.767,17.767,0,0,1-4.365-.57l-34.809-8.794a1.935,1.935,0,0,0-.791.344l-9.767,17.13a41.03,41.03,0,0,0-3.884,11.309l-4.132,28.458a48.382,48.382,0,0,1-7.666,18.814l-1.1,1.511a2.4,2.4,0,0,0,0,1.243l5.24,7.144a16.249,16.249,0,0,1-6.41,24.77l-25.05,11.48A16.706,16.706,0,0,1,3552.452,6703.669Z" fill="none" stroke="#666" stroke-miterlimit="10" stroke-width="0.5"/>
        <path id="Path_636" data-name="Path 636" d="M3552.452,6698.669c-5.389,0-9.617-3.986-10.282-9.693L3533.839,6617a12.68,12.68,0,0,1,2.938-9.913,10.613,10.613,0,0,1,8-3.625c1.681,0,4.691-2.03,5.806-4.39l21.174-44.806a18.355,18.355,0,0,0,.716-11.144l-14.144-43.766a21.8,21.8,0,0,0-7.114-9.376l-6.261-4.157a18.966,18.966,0,0,1-7.844-17.147l.8-6.26a28.547,28.547,0,0,1,8.847-16.26l16.446-13.83a8.8,8.8,0,0,0,2.432-7.749l-8.21-30.586a31.81,31.81,0,0,0-6.383-11.308l-25.278-26.248a70.3,70.3,0,0,0-11.356-9.145l-.319-.2a88.04,88.04,0,0,0-13.348-6.38l-16.9-6.02a18.068,18.068,0,0,1-11.33-15.057l-2.86-46.055a9.912,9.912,0,0,1,2.438-7.713,8.125,8.125,0,0,1,5.991-2.541,11.075,11.075,0,0,1,5.491,1.58l15.7,8.95a40.1,40.1,0,0,0,12.908,4.106l31.121,3.074a21.417,21.417,0,0,1,15.584,10.539l6.254,12.011a30.01,30.01,0,0,0,8.676,9.437l7.913,4.988a22.911,22.911,0,0,1,9.72,16.052l.507,6.157a10.821,10.821,0,0,0,5.03,7.471l13.569,6.786a62.489,62.489,0,0,1,14.085,10.2l46.315,46.75a26.309,26.309,0,0,1,6.852,17.324l-.584,22.329a11.613,11.613,0,0,1-11.717,11.569,12.784,12.784,0,0,1-2.243-.2l-3.641-.661a2.684,2.684,0,0,0-.464-.044,1.373,1.373,0,0,0-.288.027,1.971,1.971,0,0,0,.007.764l3.046,18.609a22.722,22.722,0,0,1-5.662,17.9l-17.685,18.071a7.5,7.5,0,0,0-1.258,7.356l21.911,47.127c2.115,4.551.881,7.66-.043,9.108a8.011,8.011,0,0,1-6.967,3.548,12.762,12.762,0,0,1-3.131-.416L3614.124,6575a4.136,4.136,0,0,0-1.02-.12,6.317,6.317,0,0,0-5.119,2.736l-9.844,17.265a45.83,45.83,0,0,0-4.489,13.074l-4.131,28.451a43.372,43.372,0,0,1-6.759,16.588l-1.161,1.591a6.672,6.672,0,0,0,.013,6.986l5.3,7.223a11.253,11.253,0,0,1-4.47,17.272l-25.041,11.476A11.784,11.784,0,0,1,3552.452,6698.669Z" fill="none" stroke="#666" stroke-miterlimit="10" stroke-width="0.5"/>
        <path id="Path_637" data-name="Path 637" d="M3667.4,6414.94l-46.319-46.753a57.779,57.779,0,0,0-12.767-9.244l-13.56-6.781a15.744,15.744,0,0,1-7.785-11.537l-.507-6.167a18.02,18.02,0,0,0-7.4-12.222l-7.912-4.988a35,35,0,0,1-10.446-11.358l-6.254-12.01a16.515,16.515,0,0,0-11.64-7.873l-31.122-3.074a44.826,44.826,0,0,1-14.893-4.738l-15.7-8.951c-3.821-2.179-6.724-.364-6.453,4.022l2.861,46.055a13.174,13.174,0,0,0,8.018,10.655l16.893,6.021a92.714,92.714,0,0,1,14.334,6.858l.269.169a75.4,75.4,0,0,1,12.346,9.939l25.277,26.248a36.776,36.776,0,0,1,7.611,13.481l8.21,30.586a13.758,13.758,0,0,1-4.043,12.872l-16.438,13.823a23.719,23.719,0,0,0-7.113,13.072l-.8,6.261a14.083,14.083,0,0,0,5.65,12.348l6.252,4.152a26.629,26.629,0,0,1,9.115,12.01l14.142,43.759a23.319,23.319,0,0,1-.951,14.825l-21.174,44.806c-1.882,3.98-6.524,7.244-10.315,7.253s-6.49,3.6-5.983,7.963l8.33,71.975c.508,4.362,4.186,6.443,8.182,4.6l25.031-11.473a6.262,6.262,0,0,0,2.531-9.774l-5.295-7.219a11.638,11.638,0,0,1-.023-12.894l1.158-1.589a38.243,38.243,0,0,0,5.853-14.361l4.13-28.444a50.358,50.358,0,0,1,5.1-14.84l9.844-17.265a11.125,11.125,0,0,1,11.707-4.987l34.969,8.834c4.261,1.083,6.228-1.3,4.375-5.286l-21.911-47.127a12.463,12.463,0,0,1,2.219-12.961l17.685-18.071a17.843,17.843,0,0,0,4.3-13.6l-3.045-18.611c-.707-4.331,2.243-7.244,6.573-6.471l3.625.658a6.682,6.682,0,0,0,8.083-6.577l.585-22.339A21.466,21.466,0,0,0,3667.4,6414.94Z" fill="#eecc8d" stroke="#666" stroke-miterlimit="10" stroke-width="1"/>
      </g>
    </g>
    <path id="Path_641" data-name="Path 641" d="M3958.574,6268.321c24.511-1.108,37.659,144.107,88.086,145.19" transform="translate(-3317.106 -5916.392)" fill="none" stroke="#666" stroke-miterlimit="10" stroke-width="2" stroke-dasharray="12 12"/>
    <path id="Path_642" data-name="Path 642" d="M4405,6147.723c86.682,0,62.52,154.5,143.363,154.5" transform="translate(-3317.106 -5916.392)" fill="none" stroke="#666" stroke-miterlimit="10" stroke-width="2" stroke-dasharray="12 12"/>
    <path id="Path_643" data-name="Path 643" d="M4706.963,6302.222c51.271,0,119.577,399.052-304.448,406.447" transform="translate(-3317.106 -5916.392)" fill="none" stroke="#666" stroke-miterlimit="10" stroke-width="2" stroke-dasharray="12 12"/>
    <path id="Path_644" data-name="Path 644" d="M4162.565,6713.669c-47.012,0-97.321,50.261-97.321,115.945" transform="translate(-3317.106 -5916.392)" fill="none" stroke="#666" stroke-miterlimit="10" stroke-width="2" stroke-dasharray="12 12"/>
    <path id="Path_645" data-name="Path 645" d="M4182.125,6413.511c108.875,0-49.678-276.511,67.513-276.511" transform="translate(-3317.106 -5916.392)" fill="none" stroke="#666" stroke-miterlimit="10" stroke-width="2" stroke-dasharray="12 12"/>
    <path id="Path_646" data-name="Path 646" d="M3672.811,5953.17s-160.225,317.959,95.295,315.151" transform="translate(-3317.106 -5916.392)" fill="none" stroke="#666" stroke-miterlimit="10" stroke-width="2" stroke-dasharray="12 12"/>
  </g>
</svg>
