<svg xmlns="http://www.w3.org/2000/svg" width="1920.001" height="950.234" viewBox="0 0 1920.001 950.234">
  <g id="mask-test3312" transform="translate(0 265)">
    <path id="Exclusion_1" data-name="Exclusion 1" d="M14200,2290H12280V1950.491a85.323,85.323,0,0,1,14.846,5.162,72.762,72.762,0,0,1,11.542,6.627c6.843,4.8,12.3,10.339,17.583,15.695,5.767,5.849,11.729,11.9,19.5,16.995a73.487,73.487,0,0,0,13.327,6.908,102.944,102.944,0,0,0,35.543,6.8,74.3,74.3,0,0,0,11.55-.878,75.3,75.3,0,0,0,10.131-2.315,150.437,150.437,0,0,0,17.894-7.02l.008,0,.013-.006a150.585,150.585,0,0,1,17.911-7.026,75.224,75.224,0,0,1,10.136-2.316,74.263,74.263,0,0,1,11.554-.878,102.935,102.935,0,0,1,35.547,6.8,73.613,73.613,0,0,1,13.328,6.909c7.772,5.1,13.734,11.148,19.5,17l.009.009c5.762,5.844,11.72,11.887,19.486,16.984a73.464,73.464,0,0,0,13.326,6.908,102.739,102.739,0,0,0,35.518,6.793,74.31,74.31,0,0,0,11.558-.879,75.3,75.3,0,0,0,10.139-2.316,150.255,150.255,0,0,0,17.911-7.031,150.4,150.4,0,0,1,17.909-7.029,75.216,75.216,0,0,1,10.135-2.316,74.235,74.235,0,0,1,11.553-.878,102.975,102.975,0,0,1,35.559,6.8,73.59,73.59,0,0,1,13.329,6.909c7.776,5.1,13.736,11.147,19.5,16.994s11.727,11.893,19.5,16.991a73.45,73.45,0,0,0,13.325,6.909,102.784,102.784,0,0,0,35.529,6.8,74.236,74.236,0,0,0,11.555-.879,75.2,75.2,0,0,0,10.138-2.317,150.415,150.415,0,0,0,17.908-7.031l.007,0a150.455,150.455,0,0,1,17.9-7.027,75.253,75.253,0,0,1,10.136-2.317,74.321,74.321,0,0,1,11.555-.879,102.941,102.941,0,0,1,35.55,6.8,73.605,73.605,0,0,1,13.327,6.908c7.772,5.1,13.732,11.146,19.5,16.992s11.721,11.889,19.494,16.991a73.637,73.637,0,0,0,13.327,6.908,102.887,102.887,0,0,0,35.54,6.8,74.234,74.234,0,0,0,11.551-.878,75.182,75.182,0,0,0,10.134-2.315,150.435,150.435,0,0,0,17.9-7.026l.018-.008a150.35,150.35,0,0,1,17.91-7.03,75.218,75.218,0,0,1,10.137-2.316,74.213,74.213,0,0,1,11.555-.879,95.439,95.439,0,0,1,17.925,1.8,80.142,80.142,0,0,1,16.905,5.077,71.15,71.15,0,0,1,13.163,7.391c7.791,5.51,13.893,12.023,19.794,18.321,13.185,14.072,25.638,27.364,54.576,27.364,28.833,0,41.235-13.289,54.366-27.358,5.875-6.3,11.95-12.806,19.713-18.317a70.78,70.78,0,0,1,13.111-7.39,79.657,79.657,0,0,1,16.843-5.076,94.736,94.736,0,0,1,17.859-1.8,73.732,73.732,0,0,1,11.512.878,74.816,74.816,0,0,1,10.1,2.314,149.8,149.8,0,0,1,17.854,7.023l.014.007.012.005.009,0a150.071,150.071,0,0,0,17.847,7.02,74.911,74.911,0,0,0,10.1,2.315,73.818,73.818,0,0,0,11.515.878,102.16,102.16,0,0,0,35.416-6.8,73.088,73.088,0,0,0,13.272-6.908c7.737-5.1,13.67-11.144,19.406-16.99l0,0c5.737-5.847,11.67-11.893,19.41-16.992a73.1,73.1,0,0,1,13.273-6.908,102.257,102.257,0,0,1,35.414-6.8,73.807,73.807,0,0,1,11.518.878,74.83,74.83,0,0,1,10.105,2.316,149.852,149.852,0,0,1,17.856,7.026l0,0a149.878,149.878,0,0,0,17.865,7.031,74.856,74.856,0,0,0,10.109,2.317,73.812,73.812,0,0,0,11.52.879,102.108,102.108,0,0,0,35.415-6.8,73.155,73.155,0,0,0,13.276-6.91c7.739-5.1,13.674-11.146,19.413-16.993s11.675-11.9,19.414-16.994a73.108,73.108,0,0,1,13.274-6.908,102.225,102.225,0,0,1,35.406-6.8,73.78,73.78,0,0,1,11.517.878,74.891,74.891,0,0,1,10.105,2.316,149.979,149.979,0,0,1,17.856,7.024l0,0,.008,0a149.843,149.843,0,0,0,17.863,7.031,74.847,74.847,0,0,0,10.108,2.317,73.815,73.815,0,0,0,11.521.879,102.09,102.09,0,0,0,35.408-6.8,73.145,73.145,0,0,0,13.272-6.909c7.738-5.1,13.671-11.145,19.407-16.991s11.672-11.893,19.412-16.993a73.161,73.161,0,0,1,13.275-6.909,102.2,102.2,0,0,1,35.422-6.8,73.8,73.8,0,0,1,11.516.878,74.9,74.9,0,0,1,10.1,2.314,149.964,149.964,0,0,1,17.854,7.023l.012.006.014.005a149.9,149.9,0,0,0,17.856,7.024,74.9,74.9,0,0,0,10.1,2.315,73.8,73.8,0,0,0,11.514.878,102.316,102.316,0,0,0,35.425-6.8,73.111,73.111,0,0,0,13.277-6.907c7.741-5.1,13.676-11.145,19.416-16.992,5.257-5.355,10.692-10.892,17.508-15.691a72.337,72.337,0,0,1,11.5-6.626A84.741,84.741,0,0,1,14200,1950.5V2290Z" transform="translate(-12280 -1604.767)" fill="#08f"/>
    <g id="Rectangle_1482" data-name="Rectangle 1482" transform="translate(0 -265)" fill="#fff" stroke="#707070" stroke-width="1" opacity="0">
      <rect width="1920" height="950" stroke="none"/>
      <rect x="0.5" y="0.5" width="1919" height="949" fill="none"/>
    </g>
  </g>
</svg>
