<svg xmlns="http://www.w3.org/2000/svg" xmlns:xlink="http://www.w3.org/1999/xlink" width="906.548" height="139.552" viewBox="0 0 906.548 139.552">
  <defs>
    <clipPath id="clip-path">
      <path id="Path_15333" data-name="Path 15333" d="M839.843,5168.987l0-.051,0-.05c-.49-5.5-4.575-9.978-10.661-11.676a19.074,19.074,0,0,0-5.121-.718,16.124,16.124,0,0,0-3.5.374,9.522,9.522,0,0,0-3.926,1.752,15.3,15.3,0,0,0-3.475,4.1,20.265,20.265,0,0,0-4.706,6.517,61.112,61.112,0,0,0-3.163,7.382c-.5,1.387-.965,2.782-1.4,4.175-2.916-5.736-6.433-11.936-11.2-16.92-3.243-3.39-6.387-5.357-9.611-6.013a11.418,11.418,0,0,0-2.267-.228,13.825,13.825,0,0,0-7.569,2.444,37.242,37.242,0,0,0-8.328,7.968c-.318.394-.636.8-.954,1.214-.848.931-1.618,1.847-2.3,2.686-.527.652-1.053,1.337-1.58,2.039a7.645,7.645,0,0,0-.311-.95c-.029-.074-.057-.144-.078-.206A120.618,120.618,0,0,0,755.607,5161a55.628,55.628,0,0,0-6.755-12.526,22.041,22.041,0,0,0-5.03-5.029,17.055,17.055,0,0,0-6.546-2.584,42.293,42.293,0,0,0-8.365-.759c-1.851,0-3.836.091-6.068.277a88.76,88.76,0,0,0-13.781,2.241,55.471,55.471,0,0,0-13.471,4.984,19.56,19.56,0,0,0-5.893,4.591,8.736,8.736,0,0,0-1.112,1.777,14.625,14.625,0,0,0-2.138,2.123,9.1,9.1,0,0,0-1.94,4.652,30.467,30.467,0,0,0,.549,10.6c2.1,10.184,7.193,19.619,11.392,26.7a235.762,235.762,0,0,0,16.334,23.477c3.278,4.249,6.285,7.911,9.19,11.2a57.834,57.834,0,0,0,10.3,9.634,19.873,19.873,0,0,0,6.648,3.091,16.514,16.514,0,0,0,3.828.435,21.5,21.5,0,0,0,3.836-.365,41.862,41.862,0,0,0,13.493-5.173,71.89,71.89,0,0,0,13.281-10.278c.124.129.249.252.368.369.055.054.106.1.145.143.421.487.865.978,1.319,1.46a39.834,39.834,0,0,0,14.663,10.288,27.248,27.248,0,0,0,9.251,1.721l.132,0a9.376,9.376,0,0,0,3.559-1,16.489,16.489,0,0,0,3.616-2.561,35.718,35.718,0,0,0,4.789-5.4,41.985,41.985,0,0,0,3.664-4.461,102.778,102.778,0,0,0,8.215-13.968,242.242,242.242,0,0,0,12.97-30.7c1.2-3.494,2.073-6.4,2.763-9.131A26.623,26.623,0,0,0,839.843,5168.987Z"/>
    </clipPath>
    <linearGradient id="linear-gradient" x1="0.5" y1="0.214" x2="0.5" y2="0.72" gradientUnits="objectBoundingBox">
      <stop offset="0" stop-color="#00ffd5"/>
      <stop offset="1" stop-color="#01cb2d"/>
    </linearGradient>
    <clipPath id="clip-path-2">
      <path id="Path_15339" data-name="Path 15339" d="M705.121,5153.448a11.365,11.365,0,0,0-1.1-1.5,12.481,12.481,0,0,0-1.129-1.3,26.836,26.836,0,0,0-19.66-8.268h-.283a20.9,20.9,0,0,0-6.63,1.049,28.065,28.065,0,0,0-5.649,2.743,50.507,50.507,0,0,0-9.276,7.533,70.936,70.936,0,0,0-5.78,6.6,74.728,74.728,0,0,0-10.6,15.432c-4.345,8.382-6.665,16-7.092,23.3a38.141,38.141,0,0,0,6.451,23.453A53.074,53.074,0,0,0,661.66,5238.5c5.6,3.3,14.2,7.265,23.39,7.379l.389,0c4.687,0,8.139-1.117,10.551-3.414a11.152,11.152,0,0,0,2.248-3.063,10.428,10.428,0,0,0,1-.837c2.934-2.795,4.254-7.338,3.621-12.466-.29-2.352-1.43-8.147-5.743-11.148a6.762,6.762,0,0,0-3.849-1.286h-.126a9.127,9.127,0,0,0-2.924.664c-.272.1-.529.189-.75.253-.941.272-1.924.5-2.933.685a33.652,33.652,0,0,0,3.384-2.522,38.412,38.412,0,0,0,6.063-6.586,45.184,45.184,0,0,0,7.941-11.843,61.754,61.754,0,0,0,5.638-19.8C710.168,5168.62,709.832,5160.355,705.121,5153.448ZM661.668,5200.6q-.029-.283-.047-.573a16.143,16.143,0,0,1,2.082-8.871,6.914,6.914,0,0,1,4.078-1.83c.1,0,.211,0,.315.014a2.911,2.911,0,0,1,2.443,3.332h0v.017h0a7.442,7.442,0,0,1-1.163,3.36A21.283,21.283,0,0,1,661.668,5200.6Z"/>
    </clipPath>
    <linearGradient id="linear-gradient-2" x1="0.5" y1="-5.185" x2="0.5" y2="27.062" xlink:href="#linear-gradient"/>
    <linearGradient id="linear-gradient-3" x1="0.5" y1="-0.025" x2="0.5" y2="0.635" xlink:href="#linear-gradient"/>
    <clipPath id="clip-path-3">
      <path id="Path_15346" data-name="Path 15346" d="M1394.834,5192.519a28.123,28.123,0,0,0-1.9-2.854,12.969,12.969,0,0,0-.927-1.171c-.351-.416-.636-.753-.908-1.016-4.751-5.108-11.536-8.357-19.9-9.568a29.257,29.257,0,0,0,3.818-4.351,28.85,28.85,0,0,0,8.668-22.04,19.7,19.7,0,0,0-3.646-10.625,16.473,16.473,0,0,0-9.98-6.142,19.673,19.673,0,0,0-3.674-.4,22.508,22.508,0,0,0-16.15,7.045,30.28,30.28,0,0,0-2.879,3.436c-.143.138-.288.273-.428.416a29.9,29.9,0,0,0-2.445,2.852c-1.734-.165-3.43-.266-5.04-.289a48.248,48.248,0,0,0-7.677.472c-5.8.85-10.419,2.787-13.737,5.755a18.63,18.63,0,0,0-3.181,3.749c-.04.035-.086.067-.126.1a21.865,21.865,0,0,0-6.657,13.285,23.19,23.19,0,0,0,2.843,15.013,24.642,24.642,0,0,0,10.888,9.525c.968.46,2,.891,3.057,1.28l.142.067a6.714,6.714,0,0,0,.954.386c-.032.047-.062.1-.094.142l-.262.237a19.071,19.071,0,0,0-5.481,9,22.016,22.016,0,0,0,.175,11.271c2.022,7.67,6.9,13.378,10.638,16.816a42.357,42.357,0,0,0,17.058,9.6,37.2,37.2,0,0,0,9.551,1.374,40.835,40.835,0,0,0,28.484-11.009,33.567,33.567,0,0,0,3.973-4.507,31.25,31.25,0,0,0,8.879-16.8A32.259,32.259,0,0,0,1394.834,5192.519Z"/>
    </clipPath>
    <linearGradient id="linear-gradient-4" x1="0.5" y1="-23.694" x2="0.5" y2="14.188" xlink:href="#linear-gradient"/>
    <linearGradient id="linear-gradient-5" x1="0.5" y1="0.132" x2="0.5" y2="0.732" xlink:href="#linear-gradient"/>
    <clipPath id="clip-path-4">
      <path id="Path_15355" data-name="Path 15355" d="M1233,5204.732a43.454,43.454,0,0,0-10.115-22.347,36.85,36.85,0,0,0-3.11-3.116,10.66,10.66,0,0,0-.956-.826c-.159-.128-.3-.243-.434-.346a42.624,42.624,0,0,0-25.392-8.808q-.409-.009-.818-.009a39.687,39.687,0,0,0-10.628,1.465c.275-.74.514-1.482.716-2.219a18.605,18.605,0,0,0-3.187-16.92,20.76,20.76,0,0,0-9.876-6.934,23.691,23.691,0,0,0-7.233-1.075,35.366,35.366,0,0,0-10.569,1.755l-.727.229a10.636,10.636,0,0,0-5.431-1.6c-.293,0-.589.014-.878.043a9.421,9.421,0,0,0-6.227,3.361,15.034,15.034,0,0,0-1.715,2.45,10.852,10.852,0,0,0-1.535,1.45c-3.044,3.506-4.033,8.18-4.556,11.861a68.141,68.141,0,0,0-.382,13.48,107.46,107.46,0,0,0,4.992,26.169,130.876,130.876,0,0,0,10.291,23.953,90.672,90.672,0,0,0,7.207,11.306,21.564,21.564,0,0,0,2.2,2.539,7.855,7.855,0,0,0,1.484,1.167,3.182,3.182,0,0,0,1.639.486,3.124,3.124,0,0,0,2.007-.786,17.138,17.138,0,0,0,2.53-2.746c.427-.54.829-1.05,1.238-1.472a11.508,11.508,0,0,1,3.319-2.472,5.894,5.894,0,0,1,2.54-.59,6.447,6.447,0,0,1,1.479.181,31.185,31.185,0,0,1,7.951,3.694c.8.462,1.62.94,2.44,1.39a55.95,55.95,0,0,0,12.459,5.324,32.9,32.9,0,0,0,8.407,1.115,30.308,30.308,0,0,0,5.46-.493,30.688,30.688,0,0,0,8.886-3.028,23.405,23.405,0,0,0,8.262-7.594,25.305,25.305,0,0,0,3.811-4.74C1232.8,5223.206,1234.384,5214.221,1233,5204.732Zm-59.152,9.8c-.066,0-.132,0-.2,0a5.865,5.865,0,0,1-4.52-2.837,5.5,5.5,0,0,1-.916-2.479,8.635,8.635,0,0,1,2.967-.557,5.973,5.973,0,0,1,1.208.115,3.554,3.554,0,0,1,2.536,1.849,7.036,7.036,0,0,1,.716,3.606A5.671,5.671,0,0,1,1173.845,5214.53Zm-23.169-37.6c1.418.788,1.161,3.306,1.086,3.861a14.883,14.883,0,0,1-.607,2.418,10.85,10.85,0,0,1-.907-4.32,9.743,9.743,0,0,1,.209-2.051A1.3,1.3,0,0,1,1150.676,5176.934Z"/>
    </clipPath>
    <linearGradient id="linear-gradient-6" x1="0.5" y1="-33.65" x2="0.5" y2="23.529" xlink:href="#linear-gradient"/>
    <linearGradient id="linear-gradient-7" x1="0.5" y1="-137.787" x2="0.5" y2="-11.382" xlink:href="#linear-gradient"/>
    <linearGradient id="linear-gradient-8" x1="0.5" y1="-0.032" x2="0.5" y2="0.921" xlink:href="#linear-gradient"/>
    <clipPath id="clip-path-5">
      <path id="Path_15361" data-name="Path 15361" d="M1336.9,5220.959a6.626,6.626,0,0,0-2.755-3.868c-.185-.139-.387-.283-.606-.438a7.478,7.478,0,0,0-1.507-.939,58.979,58.979,0,0,0-10.241-4.438c-1.291-.463-2.625-.943-3.9-1.442a61.974,61.974,0,0,1-6.516-2.969,28.828,28.828,0,0,0,9.271-8.553,32.317,32.317,0,0,0,3.463-4.2,35.093,35.093,0,0,0,5.559-12.652,44.76,44.76,0,0,0,.167-17.438,41.79,41.79,0,0,0-5.957-15.462c-3.544-5.34-8.269-8.857-13.663-10.17a21.241,21.241,0,0,0-5.017-.588,27.6,27.6,0,0,0-8.684,1.5,33.11,33.11,0,0,0-17.184,12.458c-5.941,6.109-9.75,14.855-10.936,24.966-1.673.2-4,1.179-5.588,4.687-1.49.871-3.021,2.6-4,5.937a27.932,27.932,0,0,0-.8,9.029,64.158,64.158,0,0,0,1.184,9.386,106.142,106.142,0,0,0,5.237,17.982,73.5,73.5,0,0,0,3.942,8.649c1.468,2.692,3.257,5.737,5.927,7.8a6.482,6.482,0,0,0,3.934,1.549,5.043,5.043,0,0,0,.648-.043,6.237,6.237,0,0,0,4.153-2.483,9.548,9.548,0,0,0,1.161-2.1,6.344,6.344,0,0,0,2.089-1.8c2-2.706,2.178-6.219,2.32-9.041l.028-.553c.035-.651.047-1.321.058-1.969.008-.418.016-.84.03-1.258a15.38,15.38,0,0,1,1.873,3.72l.21.525.127.314a73.976,73.976,0,0,0,3.667,8.118c3.161,5.734,6.965,9.212,11.306,10.337a12.093,12.093,0,0,0,3.034.372,19.773,19.773,0,0,0,6.664-1.324,34.766,34.766,0,0,0,8.3-4.441,31.585,31.585,0,0,0,6.7-6.266c.32-.412.657-.865.988-1.352a27.377,27.377,0,0,0,2.262-2.548C1335.552,5227.774,1337.712,5224.469,1336.9,5220.959Zm-43.207-26.645a4.714,4.714,0,0,1-.863.078,7.541,7.541,0,0,1-5.363-2.687,3.265,3.265,0,0,1-1.082-2.259c.059-.087.186-.245.274-.355s.188-.233.277-.349c.18-.237.349-.454.521-.676a24.7,24.7,0,0,1,1.816-1.8,5.551,5.551,0,0,1,3.3-1.679,2,2,0,0,1,.223.012c2.076.217,2.756,3.282,2.826,4.873a9.312,9.312,0,0,1-1.112,4.514A3.269,3.269,0,0,1,1293.693,5194.314Z"/>
    </clipPath>
    <linearGradient id="linear-gradient-9" x1="0.5" y1="-56.3" x2="0.5" y2="-3.814" xlink:href="#linear-gradient"/>
    <linearGradient id="linear-gradient-10" x1="0.5" y1="0.119" x2="0.5" y2="0.741" xlink:href="#linear-gradient"/>
    <clipPath id="clip-path-6">
      <path id="Path_15367" data-name="Path 15367" d="M1272.523,5153.448a11.365,11.365,0,0,0-1.1-1.5,12.351,12.351,0,0,0-1.129-1.3,26.834,26.834,0,0,0-19.66-8.268h-.283a20.885,20.885,0,0,0-6.629,1.049,28.047,28.047,0,0,0-5.65,2.743,50.5,50.5,0,0,0-9.276,7.533,71.053,71.053,0,0,0-5.78,6.6,74.686,74.686,0,0,0-10.6,15.432c-4.346,8.382-6.666,16-7.093,23.3a38.136,38.136,0,0,0,6.452,23.453,53.054,53.054,0,0,0,17.291,16.018c5.6,3.3,14.2,7.265,23.389,7.379l.389,0c4.688,0,8.139-1.117,10.551-3.414a11.155,11.155,0,0,0,2.249-3.063,10.415,10.415,0,0,0,1-.837c2.934-2.795,4.254-7.338,3.621-12.466-.29-2.352-1.43-8.147-5.742-11.148a6.763,6.763,0,0,0-3.85-1.286h-.126a9.127,9.127,0,0,0-2.924.664c-.272.1-.529.189-.75.253-.941.272-1.924.5-2.933.685a33.528,33.528,0,0,0,3.384-2.522,38.419,38.419,0,0,0,6.064-6.586,45.158,45.158,0,0,0,7.94-11.843,61.754,61.754,0,0,0,5.638-19.8C1277.57,5168.62,1277.234,5160.355,1272.523,5153.448ZM1229.07,5200.6q-.028-.283-.047-.573a16.173,16.173,0,0,1,2.082-8.871,6.914,6.914,0,0,1,4.079-1.83c.1,0,.211,0,.314.014a2.91,2.91,0,0,1,2.443,3.332h0v.017h0a7.44,7.44,0,0,1-1.163,3.36A21.283,21.283,0,0,1,1229.07,5200.6Z"/>
    </clipPath>
    <linearGradient id="linear-gradient-11" x1="0.5" y1="-5.185" x2="0.5" y2="27.062" xlink:href="#linear-gradient"/>
    <linearGradient id="linear-gradient-12" x1="0.5" y1="-0.025" x2="0.5" y2="0.948" xlink:href="#linear-gradient"/>
    <clipPath id="clip-path-7">
      <path id="Path_15377" data-name="Path 15377" d="M1148.5,5221.705a101.27,101.27,0,0,0-4.7-24.449c-.062-.217-.131-.435-.2-.652l-.359-1.13-.584-1.8h-.011c-1-2.963-2.116-5.883-3.322-8.708l-.124-.291c-1.436-3.364-2.793-6.542-3.867-9.9-.5-1.573-.911-3.168-1.34-4.855-.495-1.943-1.006-3.951-1.682-5.928a10.565,10.565,0,0,0-3.293-5.215,12.06,12.06,0,0,0-6.076-2.088,32.08,32.08,0,0,0-3.826-.232,26.15,26.15,0,0,0-17.558,6.331,28.986,28.986,0,0,0-4.652,5.226q-.786.793-1.515,1.652a52.974,52.974,0,0,0-7.869-10.575,51.445,51.445,0,0,0-21.6-13.682,36.308,36.308,0,0,0-10.867-1.742A24.034,24.034,0,0,0,1040,5148.5a22.807,22.807,0,0,0-4.82,5.282,27.943,27.943,0,0,0-6.138,9.228,47.1,47.1,0,0,0-3.425,12.607,68.045,68.045,0,0,0,2.081,26.125,101.43,101.43,0,0,0,9.495,23.455,86.007,86.007,0,0,0,6.591,10.23,55.68,55.68,0,0,0,4.277,5.035,22.126,22.126,0,0,0,5.365,4.36,10.67,10.67,0,0,0,5.179,1.069c.266,0,.533,0,.8-.008a14.559,14.559,0,0,0,6.518-1.8,16.863,16.863,0,0,0,5.056-4.212c.323-.39.636-.8.931-1.223l.022-.027a4.243,4.243,0,0,0,.463-.724q.643-.584,1.247-1.249.57.524,1.141,1.018a27.716,27.716,0,0,0,11.82,6.479,18.725,18.725,0,0,0,4.182.477,21.233,21.233,0,0,0,12.045-4.013,30.061,30.061,0,0,0,7.113-7.213q.522-.537,1.012-1.092c0,.023,0,.045,0,.068a3.673,3.673,0,0,0,.726,1.824l.038.056c.246.431.505.855.768,1.262a24.472,24.472,0,0,0,3.144,3.94,21.7,21.7,0,0,0,15.272,6.428,18.96,18.96,0,0,0,6.4-1.094,10.883,10.883,0,0,0,4.9-3.217,9.9,9.9,0,0,0,1.32-2.161,8.928,8.928,0,0,0,1.93-1.739,11.858,11.858,0,0,0,2.14-4.447A36.213,36.213,0,0,0,1148.5,5221.705Z"/>
    </clipPath>
    <linearGradient id="linear-gradient-13" x1="0.5" y1="0.209" x2="0.5" y2="0.904" xlink:href="#linear-gradient"/>
    <linearGradient id="linear-gradient-14" x1="0.5" y1="-14.2" x2="0.5" y2="15.889" xlink:href="#linear-gradient"/>
    <clipPath id="clip-path-8">
      <path id="Path_15383" data-name="Path 15383" d="M660.71,5220.959a6.623,6.623,0,0,0-2.754-3.868c-.185-.139-.388-.283-.606-.438a7.534,7.534,0,0,0-1.507-.939,59.024,59.024,0,0,0-10.242-4.438c-1.29-.463-2.624-.943-3.894-1.442a62.087,62.087,0,0,1-6.517-2.969,28.817,28.817,0,0,0,9.271-8.553,32.4,32.4,0,0,0,3.464-4.2,35.109,35.109,0,0,0,5.558-12.652,44.76,44.76,0,0,0,.168-17.438,41.812,41.812,0,0,0-5.958-15.462c-3.544-5.34-8.268-8.857-13.662-10.17a21.243,21.243,0,0,0-5.018-.588,27.608,27.608,0,0,0-8.684,1.5,34.262,34.262,0,0,0-13.829,8.446,33.78,33.78,0,0,0-3.354,4.012c-5.941,6.109-9.751,14.855-10.937,24.966-1.673.2-4,1.179-5.588,4.687-1.49.871-3.021,2.6-4,5.937a27.9,27.9,0,0,0-.8,9.029,64.281,64.281,0,0,0,1.183,9.386,106.322,106.322,0,0,0,5.237,17.982,73.485,73.485,0,0,0,3.943,8.649c1.467,2.692,3.256,5.737,5.926,7.8a6.484,6.484,0,0,0,3.934,1.549,5.02,5.02,0,0,0,.648-.043,6.235,6.235,0,0,0,4.153-2.483,9.555,9.555,0,0,0,1.162-2.1,6.332,6.332,0,0,0,2.088-1.8c2-2.706,2.178-6.219,2.32-9.041l.029-.553c.034-.651.046-1.321.058-1.969.007-.418.016-.84.03-1.258a15.415,15.415,0,0,1,1.873,3.72l.209.525.128.314a73.577,73.577,0,0,0,3.667,8.118c3.161,5.734,6.964,9.212,11.306,10.337a12.086,12.086,0,0,0,3.034.372,19.773,19.773,0,0,0,6.664-1.324,34.768,34.768,0,0,0,8.3-4.441,31.584,31.584,0,0,0,6.7-6.266c.32-.412.657-.865.987-1.352a27.249,27.249,0,0,0,2.263-2.548C659.363,5227.774,661.522,5224.469,660.71,5220.959ZM617.5,5194.314a4.717,4.717,0,0,1-.864.078,7.545,7.545,0,0,1-5.363-2.687,3.267,3.267,0,0,1-1.081-2.259c.058-.087.186-.245.274-.355s.188-.233.276-.349c.18-.237.35-.454.521-.676a24.891,24.891,0,0,1,1.816-1.8,5.551,5.551,0,0,1,3.3-1.679,2.013,2.013,0,0,1,.224.012c2.076.217,2.756,3.282,2.826,4.873a9.325,9.325,0,0,1-1.112,4.514A3.285,3.285,0,0,1,617.5,5194.314Z"/>
    </clipPath>
    <linearGradient id="linear-gradient-15" x1="0.5" y1="-56.3" x2="0.5" y2="-3.814" xlink:href="#linear-gradient"/>
    <clipPath id="clip-path-9">
      <path id="Path_15390" data-name="Path 15390" d="M604.787,5221.365a13.944,13.944,0,0,0-2.093-6.306,6.819,6.819,0,0,0-.847-1.1l-.022-.024-.006-.007a17.809,17.809,0,0,0-3.572-2.855,11.959,11.959,0,0,0-5.889-2.139c-.1,0-.2-.006-.307-.006a12.165,12.165,0,0,0-5.445,1.577c-.47.235-.937.476-1.4.717-.987.511-1.92.994-2.872,1.4a11.406,11.406,0,0,1-4.533.948,12.767,12.767,0,0,1-3.538-.527,24.115,24.115,0,0,1-7.728-4.055,31.212,31.212,0,0,1-10.8-14.294,17.078,17.078,0,0,1-.982-6.709h0a25.643,25.643,0,0,0,17.231,7.179,18.511,18.511,0,0,0,9.071-2.273,29.319,29.319,0,0,0,11.278-17.1c.14-4.807-1.7-9.9-5.325-14.722-5.745-7.648-14.783-13.83-24.8-16.96a43.908,43.908,0,0,0-12.892-2.063c-6.664,0-12.308,1.767-16.773,5.251a21.623,21.623,0,0,0-4.79,5.241,23.141,23.141,0,0,0-6.2,10.333c-1.068,3.63-1.066,7.894,0,13.038a63.969,63.969,0,0,0,5.315,14.864,115.673,115.673,0,0,0,7.791,13.511,144.4,144.4,0,0,0,20.048,24.013c4.114,3.956,8.423,6.8,12.058,10.075,4.451,4.014,9.716,8.142,14.607,7.117,1.286-.269,2.578.4,3.84.4a15.168,15.168,0,0,0,11.485-4.968,17.852,17.852,0,0,0,1.918-2.6,14.755,14.755,0,0,0,1.332-1.3A20.751,20.751,0,0,0,604.787,5221.365Z"/>
    </clipPath>
    <linearGradient id="linear-gradient-17" x1="0.5" y1="-130.633" x2="0.5" y2="-26.819" xlink:href="#linear-gradient"/>
    <linearGradient id="linear-gradient-18" x1="0.5" y1="-0.079" x2="0.5" y2="0.58" xlink:href="#linear-gradient"/>
    <clipPath id="clip-path-10">
      <path id="Path_15396" data-name="Path 15396" d="M1047.515,5153.448a11.357,11.357,0,0,0-1.1-1.5,12.467,12.467,0,0,0-1.129-1.3,26.836,26.836,0,0,0-19.66-8.268h-.283a20.891,20.891,0,0,0-6.63,1.049,28.065,28.065,0,0,0-5.649,2.743,50.507,50.507,0,0,0-9.276,7.533,70.926,70.926,0,0,0-5.78,6.6,74.728,74.728,0,0,0-10.6,15.432c-4.345,8.382-6.665,16-7.092,23.3a38.135,38.135,0,0,0,6.451,23.453,53.074,53.074,0,0,0,17.291,16.018c5.6,3.3,14.2,7.265,23.389,7.379l.39,0c4.687,0,8.138-1.117,10.551-3.414a11.173,11.173,0,0,0,2.248-3.063,10.549,10.549,0,0,0,1-.837c2.933-2.795,4.253-7.338,3.621-12.466-.29-2.352-1.43-8.147-5.743-11.148a6.762,6.762,0,0,0-3.849-1.286h-.126a9.127,9.127,0,0,0-2.924.664c-.272.1-.529.189-.75.253-.941.272-1.924.5-2.934.685a33.54,33.54,0,0,0,3.385-2.522,38.414,38.414,0,0,0,6.063-6.586,45.158,45.158,0,0,0,7.94-11.843,61.726,61.726,0,0,0,5.638-19.8C1052.562,5168.62,1052.226,5160.355,1047.515,5153.448Zm-43.453,47.148c-.019-.189-.035-.38-.047-.573a16.144,16.144,0,0,1,2.082-8.871,6.914,6.914,0,0,1,4.078-1.83c.105,0,.211,0,.315.014a2.911,2.911,0,0,1,2.443,3.332h0v.017h0a7.442,7.442,0,0,1-1.163,3.36A21.291,21.291,0,0,1,1004.062,5200.6Z"/>
    </clipPath>
    <linearGradient id="linear-gradient-19" x1="0.5" y1="-5.185" x2="0.5" y2="27.062" xlink:href="#linear-gradient"/>
    <linearGradient id="linear-gradient-20" x1="0.5" y1="-0.025" x2="0.5" y2="0.959" xlink:href="#linear-gradient"/>
    <clipPath id="clip-path-11">
      <path id="Path_15406" data-name="Path 15406" d="M994.86,5221.705a101.273,101.273,0,0,0-4.7-24.449c-.062-.217-.131-.435-.2-.652-.169-.531-.342-1.076-.36-1.13l-.583-1.8H989c-1-2.963-2.116-5.883-3.322-8.708l-.125-.291c-1.436-3.364-2.792-6.542-3.867-9.9-.5-1.573-.91-3.168-1.34-4.855-.494-1.943-1.006-3.951-1.681-5.928a10.565,10.565,0,0,0-3.293-5.215,12.063,12.063,0,0,0-6.076-2.088,32.091,32.091,0,0,0-3.826-.232,26.148,26.148,0,0,0-17.558,6.331,28.91,28.91,0,0,0-4.652,5.226q-.787.793-1.515,1.652a52.979,52.979,0,0,0-7.869-10.575,51.451,51.451,0,0,0-21.6-13.682,36.309,36.309,0,0,0-10.867-1.742,24.032,24.032,0,0,0-15.045,4.819,22.806,22.806,0,0,0-4.82,5.282,27.943,27.943,0,0,0-6.138,9.228,47.066,47.066,0,0,0-3.425,12.607,68.006,68.006,0,0,0,2.081,26.125,101.421,101.421,0,0,0,9.494,23.455,86.252,86.252,0,0,0,6.591,10.23,56.018,56.018,0,0,0,4.277,5.035,22.15,22.15,0,0,0,5.366,4.36,10.668,10.668,0,0,0,5.179,1.069c.266,0,.533,0,.8-.008a14.559,14.559,0,0,0,6.518-1.8,16.877,16.877,0,0,0,5.056-4.212c.322-.39.636-.8.931-1.223l.022-.027a4.248,4.248,0,0,0,.463-.724q.642-.584,1.247-1.249.57.524,1.141,1.018a27.705,27.705,0,0,0,11.82,6.479,18.719,18.719,0,0,0,4.182.477,21.23,21.23,0,0,0,12.044-4.013,30.065,30.065,0,0,0,7.114-7.213q.52-.537,1.012-1.092c0,.023,0,.045,0,.068a3.655,3.655,0,0,0,.726,1.824l.038.056c.246.431.505.855.768,1.262a24.468,24.468,0,0,0,3.143,3.94,21.7,21.7,0,0,0,15.273,6.428,18.96,18.96,0,0,0,6.4-1.094,10.888,10.888,0,0,0,4.9-3.217,9.893,9.893,0,0,0,1.32-2.161,8.974,8.974,0,0,0,1.93-1.739,11.858,11.858,0,0,0,2.14-4.447A36.245,36.245,0,0,0,994.86,5221.705Z"/>
    </clipPath>
    <linearGradient id="linear-gradient-22" x1="0.5" y1="-14.2" x2="0.5" y2="15.889" xlink:href="#linear-gradient"/>
  </defs>
  <g id="Group_6404" data-name="Group 6404" transform="translate(-506.763 -5120.345)">
    <g id="Group_6403" data-name="Group 6403">
      <g id="Group_6400" data-name="Group 6400">
        <g id="Group_6355" data-name="Group 6355">
          <g id="Group_6353" data-name="Group 6353">
            <path id="Path_15321" data-name="Path 15321" d="M849.8,5168c-.855-9.6-7.9-17.621-17.933-20.42a27.93,27.93,0,0,0-13.485-.473,19.556,19.556,0,0,0-7.951,3.669,24.1,24.1,0,0,0-4.956,5.413,24.962,24.962,0,0,0-3.038,3.6q-1.2-1.446-2.522-2.832c-4.7-4.914-9.554-7.826-14.842-8.9a21.473,21.473,0,0,0-4.263-.43,23.635,23.635,0,0,0-13.025,4.064,36.627,36.627,0,0,0-3.983,3.01,60.257,60.257,0,0,0-6.972-12.255,31.624,31.624,0,0,0-7.33-7.229,27.031,27.031,0,0,0-10.26-4.156,52.169,52.169,0,0,0-10.325-.953c-2.134,0-4.392.1-6.9.312a98.682,98.682,0,0,0-15.339,2.5,77.086,77.086,0,0,0-8.393,2.545,38.023,38.023,0,0,0-15.1-3.085l-.335,0a30.739,30.739,0,0,0-9.759,1.586,37.977,37.977,0,0,0-7.663,3.693,56.774,56.774,0,0,0-8.621,6.591q-.379-.615-.777-1.214c-4.96-7.473-11.748-12.438-19.627-14.356a34.722,34.722,0,0,0-19.224,1.14,61.623,61.623,0,0,0-25.949,20.782,61.717,61.717,0,0,0-26.032-16.04,54.062,54.062,0,0,0-15.876-2.519h0c-8.945,0-16.658,2.479-22.922,7.368a31.431,31.431,0,0,0-6.359,6.695,33.438,33.438,0,0,0-8.072,13.939c-1.544,5.248-1.607,11.1-.193,17.9a73.668,73.668,0,0,0,6.11,17.194,125.583,125.583,0,0,0,8.464,14.688,154.382,154.382,0,0,0,21.439,25.678,100.387,100.387,0,0,0,7.776,6.586c1.641,1.291,3.191,2.511,4.515,3.706,4,3.6,12.1,10.916,21.864,9.726a15.913,15.913,0,0,0,3.281.368,25.419,25.419,0,0,0,14.412-4.333,15.076,15.076,0,0,0,4.383.064,16.267,16.267,0,0,0,9.91-5.266,25.46,25.46,0,0,0,13.289,8.844,22.1,22.1,0,0,0,5.541.691,29.513,29.513,0,0,0,10.042-1.912,44.8,44.8,0,0,0,10.713-5.7q1.147-.816,2.217-1.672.426.259.853.512c6.643,3.922,16.954,8.626,28.359,8.767l.5,0c7.276,0,13.147-2.077,17.449-6.174a20.832,20.832,0,0,0,3.123-3.78l.126-.119a21.776,21.776,0,0,0,5.75-9.461q1.314,1.549,2.6,3a66.783,66.783,0,0,0,12.13,11.255,29.68,29.68,0,0,0,9.985,4.571,26.58,26.58,0,0,0,6.146.707,31.6,31.6,0,0,0,5.63-.527,51.816,51.816,0,0,0,16.735-6.371,70.623,70.623,0,0,0,7.821-5.321,46.3,46.3,0,0,0,13.374,8.014,37.024,37.024,0,0,0,12.518,2.365c.136,0,.272.007.41.007a18.675,18.675,0,0,0,8.062-2.067,26.165,26.165,0,0,0,5.8-4.052,44.442,44.442,0,0,0,5.769-6.389,53.082,53.082,0,0,0,4.1-5.045A111.91,111.91,0,0,0,832,5221.178a252.146,252.146,0,0,0,13.507-31.973c1.286-3.761,2.238-6.913,3-9.918a36.227,36.227,0,0,0,1.324-10.828Z" fill="#fff"/>
            <path id="Path_15322" data-name="Path 15322" d="M849.8,5168c-.855-9.6-7.9-17.621-17.933-20.42a27.93,27.93,0,0,0-13.485-.473,19.556,19.556,0,0,0-7.951,3.669,24.1,24.1,0,0,0-4.956,5.413,24.962,24.962,0,0,0-3.038,3.6q-1.2-1.446-2.522-2.832c-4.7-4.914-9.554-7.826-14.842-8.9a21.473,21.473,0,0,0-4.263-.43,23.635,23.635,0,0,0-13.025,4.064,36.627,36.627,0,0,0-3.983,3.01,60.257,60.257,0,0,0-6.972-12.255,31.624,31.624,0,0,0-7.33-7.229,27.031,27.031,0,0,0-10.26-4.156,52.169,52.169,0,0,0-10.325-.953c-2.134,0-4.392.1-6.9.312a98.682,98.682,0,0,0-15.339,2.5,77.086,77.086,0,0,0-8.393,2.545,38.023,38.023,0,0,0-15.1-3.085l-.335,0a30.739,30.739,0,0,0-9.759,1.586,37.977,37.977,0,0,0-7.663,3.693,56.774,56.774,0,0,0-8.621,6.591q-.379-.615-.777-1.214c-4.96-7.473-11.748-12.438-19.627-14.356a34.722,34.722,0,0,0-19.224,1.14,61.623,61.623,0,0,0-25.949,20.782,61.717,61.717,0,0,0-26.032-16.04,54.062,54.062,0,0,0-15.876-2.519h0c-8.945,0-16.658,2.479-22.922,7.368a31.431,31.431,0,0,0-6.359,6.695,33.438,33.438,0,0,0-8.072,13.939c-1.544,5.248-1.607,11.1-.193,17.9a73.668,73.668,0,0,0,6.11,17.194,125.583,125.583,0,0,0,8.464,14.688,154.382,154.382,0,0,0,21.439,25.678,100.387,100.387,0,0,0,7.776,6.586c1.641,1.291,3.191,2.511,4.515,3.706,4,3.6,12.1,10.916,21.864,9.726a15.913,15.913,0,0,0,3.281.368,25.419,25.419,0,0,0,14.412-4.333,15.076,15.076,0,0,0,4.383.064,16.267,16.267,0,0,0,9.91-5.266,25.46,25.46,0,0,0,13.289,8.844,22.1,22.1,0,0,0,5.541.691,29.513,29.513,0,0,0,10.042-1.912,44.8,44.8,0,0,0,10.713-5.7q1.147-.816,2.217-1.672.426.259.853.512c6.643,3.922,16.954,8.626,28.359,8.767l.5,0c7.276,0,13.147-2.077,17.449-6.174a20.832,20.832,0,0,0,3.123-3.78l.126-.119a21.776,21.776,0,0,0,5.75-9.461q1.314,1.549,2.6,3a66.783,66.783,0,0,0,12.13,11.255,29.68,29.68,0,0,0,9.985,4.571,26.58,26.58,0,0,0,6.146.707,31.6,31.6,0,0,0,5.63-.527,51.816,51.816,0,0,0,16.735-6.371,70.623,70.623,0,0,0,7.821-5.321,46.3,46.3,0,0,0,13.374,8.014,37.024,37.024,0,0,0,12.518,2.365c.136,0,.272.007.41.007a18.675,18.675,0,0,0,8.062-2.067,26.165,26.165,0,0,0,5.8-4.052,44.442,44.442,0,0,0,5.769-6.389,53.082,53.082,0,0,0,4.1-5.045A111.91,111.91,0,0,0,832,5221.178a252.146,252.146,0,0,0,13.507-31.973c1.286-3.761,2.238-6.913,3-9.918a36.227,36.227,0,0,0,1.324-10.828Z" fill="none" stroke="#fff" stroke-miterlimit="10" stroke-width="8"/>
            <path id="Path_15323" data-name="Path 15323" d="M849.8,5168c-.855-9.6-7.9-17.621-17.933-20.42a27.93,27.93,0,0,0-13.485-.473,19.556,19.556,0,0,0-7.951,3.669,24.1,24.1,0,0,0-4.956,5.413,24.962,24.962,0,0,0-3.038,3.6q-1.2-1.446-2.522-2.832c-4.7-4.914-9.554-7.826-14.842-8.9a21.473,21.473,0,0,0-4.263-.43,23.635,23.635,0,0,0-13.025,4.064,36.627,36.627,0,0,0-3.983,3.01,60.257,60.257,0,0,0-6.972-12.255,31.624,31.624,0,0,0-7.33-7.229,27.031,27.031,0,0,0-10.26-4.156,52.169,52.169,0,0,0-10.325-.953c-2.134,0-4.392.1-6.9.312a98.682,98.682,0,0,0-15.339,2.5,77.086,77.086,0,0,0-8.393,2.545,38.023,38.023,0,0,0-15.1-3.085l-.335,0a30.739,30.739,0,0,0-9.759,1.586,37.977,37.977,0,0,0-7.663,3.693,56.774,56.774,0,0,0-8.621,6.591q-.379-.615-.777-1.214c-4.96-7.473-11.748-12.438-19.627-14.356a34.722,34.722,0,0,0-19.224,1.14,61.623,61.623,0,0,0-25.949,20.782,61.717,61.717,0,0,0-26.032-16.04,54.062,54.062,0,0,0-15.876-2.519h0c-8.945,0-16.658,2.479-22.922,7.368a31.431,31.431,0,0,0-6.359,6.695,33.438,33.438,0,0,0-8.072,13.939c-1.544,5.248-1.607,11.1-.193,17.9a73.668,73.668,0,0,0,6.11,17.194,125.583,125.583,0,0,0,8.464,14.688,154.382,154.382,0,0,0,21.439,25.678,100.387,100.387,0,0,0,7.776,6.586c1.641,1.291,3.191,2.511,4.515,3.706,4,3.6,12.1,10.916,21.864,9.726a15.913,15.913,0,0,0,3.281.368,25.419,25.419,0,0,0,14.412-4.333,15.076,15.076,0,0,0,4.383.064,16.267,16.267,0,0,0,9.91-5.266,25.46,25.46,0,0,0,13.289,8.844,22.1,22.1,0,0,0,5.541.691,29.513,29.513,0,0,0,10.042-1.912,44.8,44.8,0,0,0,10.713-5.7q1.147-.816,2.217-1.672.426.259.853.512c6.643,3.922,16.954,8.626,28.359,8.767l.5,0c7.276,0,13.147-2.077,17.449-6.174a20.832,20.832,0,0,0,3.123-3.78l.126-.119a21.776,21.776,0,0,0,5.75-9.461q1.314,1.549,2.6,3a66.783,66.783,0,0,0,12.13,11.255,29.68,29.68,0,0,0,9.985,4.571,26.58,26.58,0,0,0,6.146.707,31.6,31.6,0,0,0,5.63-.527,51.816,51.816,0,0,0,16.735-6.371,70.623,70.623,0,0,0,7.821-5.321,46.3,46.3,0,0,0,13.374,8.014,37.024,37.024,0,0,0,12.518,2.365c.136,0,.272.007.41.007a18.675,18.675,0,0,0,8.062-2.067,26.165,26.165,0,0,0,5.8-4.052,44.442,44.442,0,0,0,5.769-6.389,53.082,53.082,0,0,0,4.1-5.045A111.91,111.91,0,0,0,832,5221.178a252.146,252.146,0,0,0,13.507-31.973c1.286-3.761,2.238-6.913,3-9.918a36.227,36.227,0,0,0,1.324-10.828Z" fill="none" stroke="#000" stroke-miterlimit="10" stroke-width="6"/>
          </g>
          <g id="Group_6354" data-name="Group 6354">
            <path id="Path_15324" data-name="Path 15324" d="M1403.483,5187.5l0,0a38.234,38.234,0,0,0-2.4-3.647c-.471-.677-.956-1.25-1.421-1.8-.4-.472-.843-1-1.386-1.546a38.1,38.1,0,0,0-10.093-7.595c.028-.049.058-.1.087-.146a38.827,38.827,0,0,0,5.4-21.85,29.647,29.647,0,0,0-5.6-15.986,26.445,26.445,0,0,0-15.983-9.968,29.705,29.705,0,0,0-5.547-.609,32.523,32.523,0,0,0-23.436,10.042,39.154,39.154,0,0,0-2.981,3.428c-.176,0-.351-.008-.524-.01a57.989,57.989,0,0,0-9.275.577c-.5.073-1,.155-1.491.242a31.724,31.724,0,0,0-16.237-9.951,34.725,34.725,0,0,0-19.225,1.14,44.145,44.145,0,0,0-17.809,10.93q-.273.276-.541.56a37.143,37.143,0,0,0-24.431-8.932l-.335,0a30.738,30.738,0,0,0-9.758,1.586,37.936,37.936,0,0,0-7.665,3.693,60.357,60.357,0,0,0-11.121,9,81,81,0,0,0-6.379,7.253,82.418,82.418,0,0,0-6.295,8.068,54.75,54.75,0,0,0-15.825-2.682l-.429-.007a27.992,27.992,0,0,0-5.88-13.908,30.733,30.733,0,0,0-14.647-10.228c-6.244-2-13.4-2.057-20.887-.175a19.744,19.744,0,0,0-7.98-.9,19.5,19.5,0,0,0-12.8,6.755,24.317,24.317,0,0,0-1.871,2.461c-.485.459-.946.941-1.38,1.441a24.348,24.348,0,0,0-1.732,2.244c-.52-.085-1.012-.151-1.469-.206a42.206,42.206,0,0,0-5.019-.3h0a36.177,36.177,0,0,0-22.661,7.576q-.829-.937-1.7-1.847a61.471,61.471,0,0,0-25.839-16.317c-9.4-2.953-18.994-2.922-26.983.164a38.252,38.252,0,0,0-16.355-3.667l-.334,0a30.74,30.74,0,0,0-9.759,1.586,37.925,37.925,0,0,0-7.663,3.693,60.282,60.282,0,0,0-11.121,9,80.834,80.834,0,0,0-6.38,7.254q-1.72,1.942-3.324,4a18.706,18.706,0,0,0-5.513-7.04,21.855,21.855,0,0,0-10.985-4.1,42.208,42.208,0,0,0-5.019-.3h0a36.177,36.177,0,0,0-22.661,7.576q-.829-.937-1.7-1.847a61.47,61.47,0,0,0-25.839-16.317,46.288,46.288,0,0,0-13.865-2.2,33.921,33.921,0,0,0-21.222,6.955,32.584,32.584,0,0,0-6.337,6.7,38.216,38.216,0,0,0-7.616,11.7,57.022,57.022,0,0,0-4.167,15.285,77.924,77.924,0,0,0,2.323,29.973,111.479,111.479,0,0,0,10.426,25.771,96.217,96.217,0,0,0,7.357,11.406,66.035,66.035,0,0,0,5.05,5.938,31.662,31.662,0,0,0,7.847,6.238,20.5,20.5,0,0,0,9.9,2.253c.315,0,.631,0,.957-.009a24.6,24.6,0,0,0,11.052-2.965,25.489,25.489,0,0,0,4.272-2.862,33.21,33.21,0,0,0,9.476,3.838,30.364,30.364,0,0,0,24.164-5.064q.7-.486,1.39-1.018a31.742,31.742,0,0,0,20.987,8.072,28.944,28.944,0,0,0,9.77-1.677,20.679,20.679,0,0,0,9.29-6.32,18.837,18.837,0,0,0,1.2-1.644q.717.449,1.447.879c6.643,3.922,16.954,8.626,28.36,8.767l.5,0c6.722,0,12.244-1.772,16.438-5.273a26.361,26.361,0,0,0,4.435,3.02,20.5,20.5,0,0,0,9.9,2.253c.315,0,.631,0,.957-.009a24.609,24.609,0,0,0,11.054-2.966,25.681,25.681,0,0,0,4.271-2.861,33.166,33.166,0,0,0,9.475,3.838,30.366,30.366,0,0,0,24.165-5.064q.7-.486,1.389-1.018a31.744,31.744,0,0,0,20.987,8.072,28.959,28.959,0,0,0,9.772-1.677,21.223,21.223,0,0,0,8.331-5.234,16.2,16.2,0,0,0,2.064,1.43,12.959,12.959,0,0,0,15.031-1.2,26.525,26.525,0,0,0,4.041-4.287l.117-.149c1.1.531,2.372,1.271,3.56,1.961.857.5,1.744,1.011,2.629,1.5a65.171,65.171,0,0,0,14.709,6.223,41.866,41.866,0,0,0,18.232.79,40.635,40.635,0,0,0,11.779-4.037,31.142,31.142,0,0,0,4.63-3.034c6.631,3.667,16.13,7.6,26.539,7.726l.5,0c7.276,0,13.146-2.077,17.447-6.174l.117-.112a15.378,15.378,0,0,0,9.8,2.017,16.275,16.275,0,0,0,9.911-5.265,25.457,25.457,0,0,0,13.288,8.843,22.11,22.11,0,0,0,5.541.691,29.508,29.508,0,0,0,10.042-1.912,44.719,44.719,0,0,0,10.712-5.7c.375-.266.743-.535,1.106-.809a51.755,51.755,0,0,0,14.466,6.665,47.121,47.121,0,0,0,12.12,1.748,51.017,51.017,0,0,0,35.507-13.746,43.686,43.686,0,0,0,4.7-5.241,41.334,41.334,0,0,0,11.141-21.7A42.421,42.421,0,0,0,1403.483,5187.5Z" fill="#fff"/>
            <path id="Path_15325" data-name="Path 15325" d="M1403.483,5187.5l0,0a38.234,38.234,0,0,0-2.4-3.647c-.471-.677-.956-1.25-1.421-1.8-.4-.472-.843-1-1.386-1.546a38.1,38.1,0,0,0-10.093-7.595c.028-.049.058-.1.087-.146a38.827,38.827,0,0,0,5.4-21.85,29.647,29.647,0,0,0-5.6-15.986,26.445,26.445,0,0,0-15.983-9.968,29.705,29.705,0,0,0-5.547-.609,32.523,32.523,0,0,0-23.436,10.042,39.154,39.154,0,0,0-2.981,3.428c-.176,0-.351-.008-.524-.01a57.989,57.989,0,0,0-9.275.577c-.5.073-1,.155-1.491.242a31.724,31.724,0,0,0-16.237-9.951,34.725,34.725,0,0,0-19.225,1.14,44.145,44.145,0,0,0-17.809,10.93q-.273.276-.541.56a37.143,37.143,0,0,0-24.431-8.932l-.335,0a30.738,30.738,0,0,0-9.758,1.586,37.936,37.936,0,0,0-7.665,3.693,60.357,60.357,0,0,0-11.121,9,81,81,0,0,0-6.379,7.253,82.418,82.418,0,0,0-6.295,8.068,54.75,54.75,0,0,0-15.825-2.682l-.429-.007a27.992,27.992,0,0,0-5.88-13.908,30.733,30.733,0,0,0-14.647-10.228c-6.244-2-13.4-2.057-20.887-.175a19.744,19.744,0,0,0-7.98-.9,19.5,19.5,0,0,0-12.8,6.755,24.317,24.317,0,0,0-1.871,2.461c-.485.459-.946.941-1.38,1.441a24.348,24.348,0,0,0-1.732,2.244c-.52-.085-1.012-.151-1.469-.206a42.206,42.206,0,0,0-5.019-.3h0a36.177,36.177,0,0,0-22.661,7.576q-.829-.937-1.7-1.847a61.471,61.471,0,0,0-25.839-16.317c-9.4-2.953-18.994-2.922-26.983.164a38.252,38.252,0,0,0-16.355-3.667l-.334,0a30.74,30.74,0,0,0-9.759,1.586,37.925,37.925,0,0,0-7.663,3.693,60.282,60.282,0,0,0-11.121,9,80.834,80.834,0,0,0-6.38,7.254q-1.72,1.942-3.324,4a18.706,18.706,0,0,0-5.513-7.04,21.855,21.855,0,0,0-10.985-4.1,42.208,42.208,0,0,0-5.019-.3h0a36.177,36.177,0,0,0-22.661,7.576q-.829-.937-1.7-1.847a61.47,61.47,0,0,0-25.839-16.317,46.288,46.288,0,0,0-13.865-2.2,33.921,33.921,0,0,0-21.222,6.955,32.584,32.584,0,0,0-6.337,6.7,38.216,38.216,0,0,0-7.616,11.7,57.022,57.022,0,0,0-4.167,15.285,77.924,77.924,0,0,0,2.323,29.973,111.479,111.479,0,0,0,10.426,25.771,96.217,96.217,0,0,0,7.357,11.406,66.035,66.035,0,0,0,5.05,5.938,31.662,31.662,0,0,0,7.847,6.238,20.5,20.5,0,0,0,9.9,2.253c.315,0,.631,0,.957-.009a24.6,24.6,0,0,0,11.052-2.965,25.489,25.489,0,0,0,4.272-2.862,33.21,33.21,0,0,0,9.476,3.838,30.364,30.364,0,0,0,24.164-5.064q.7-.486,1.39-1.018a31.742,31.742,0,0,0,20.987,8.072,28.944,28.944,0,0,0,9.77-1.677,20.679,20.679,0,0,0,9.29-6.32,18.837,18.837,0,0,0,1.2-1.644q.717.449,1.447.879c6.643,3.922,16.954,8.626,28.36,8.767l.5,0c6.722,0,12.244-1.772,16.438-5.273a26.361,26.361,0,0,0,4.435,3.02,20.5,20.5,0,0,0,9.9,2.253c.315,0,.631,0,.957-.009a24.609,24.609,0,0,0,11.054-2.966,25.681,25.681,0,0,0,4.271-2.861,33.166,33.166,0,0,0,9.475,3.838,30.366,30.366,0,0,0,24.165-5.064q.7-.486,1.389-1.018a31.744,31.744,0,0,0,20.987,8.072,28.959,28.959,0,0,0,9.772-1.677,21.223,21.223,0,0,0,8.331-5.234,16.2,16.2,0,0,0,2.064,1.43,12.959,12.959,0,0,0,15.031-1.2,26.525,26.525,0,0,0,4.041-4.287l.117-.149c1.1.531,2.372,1.271,3.56,1.961.857.5,1.744,1.011,2.629,1.5a65.171,65.171,0,0,0,14.709,6.223,41.866,41.866,0,0,0,18.232.79,40.635,40.635,0,0,0,11.779-4.037,31.142,31.142,0,0,0,4.63-3.034c6.631,3.667,16.13,7.6,26.539,7.726l.5,0c7.276,0,13.146-2.077,17.447-6.174l.117-.112a15.378,15.378,0,0,0,9.8,2.017,16.275,16.275,0,0,0,9.911-5.265,25.457,25.457,0,0,0,13.288,8.843,22.11,22.11,0,0,0,5.541.691,29.508,29.508,0,0,0,10.042-1.912,44.719,44.719,0,0,0,10.712-5.7c.375-.266.743-.535,1.106-.809a51.755,51.755,0,0,0,14.466,6.665,47.121,47.121,0,0,0,12.12,1.748,51.017,51.017,0,0,0,35.507-13.746,43.686,43.686,0,0,0,4.7-5.241,41.334,41.334,0,0,0,11.141-21.7A42.421,42.421,0,0,0,1403.483,5187.5Z" fill="none" stroke="#fff" stroke-miterlimit="10" stroke-width="8"/>
            <path id="Path_15326" data-name="Path 15326" d="M1403.483,5187.5l0,0a38.234,38.234,0,0,0-2.4-3.647c-.471-.677-.956-1.25-1.421-1.8-.4-.472-.843-1-1.386-1.546a38.1,38.1,0,0,0-10.093-7.595c.028-.049.058-.1.087-.146a38.827,38.827,0,0,0,5.4-21.85,29.647,29.647,0,0,0-5.6-15.986,26.445,26.445,0,0,0-15.983-9.968,29.705,29.705,0,0,0-5.547-.609,32.523,32.523,0,0,0-23.436,10.042,39.154,39.154,0,0,0-2.981,3.428c-.176,0-.351-.008-.524-.01a57.989,57.989,0,0,0-9.275.577c-.5.073-1,.155-1.491.242a31.724,31.724,0,0,0-16.237-9.951,34.725,34.725,0,0,0-19.225,1.14,44.145,44.145,0,0,0-17.809,10.93q-.273.276-.541.56a37.143,37.143,0,0,0-24.431-8.932l-.335,0a30.738,30.738,0,0,0-9.758,1.586,37.936,37.936,0,0,0-7.665,3.693,60.357,60.357,0,0,0-11.121,9,81,81,0,0,0-6.379,7.253,82.418,82.418,0,0,0-6.295,8.068,54.75,54.75,0,0,0-15.825-2.682l-.429-.007a27.992,27.992,0,0,0-5.88-13.908,30.733,30.733,0,0,0-14.647-10.228c-6.244-2-13.4-2.057-20.887-.175a19.744,19.744,0,0,0-7.98-.9,19.5,19.5,0,0,0-12.8,6.755,24.317,24.317,0,0,0-1.871,2.461c-.485.459-.946.941-1.38,1.441a24.348,24.348,0,0,0-1.732,2.244c-.52-.085-1.012-.151-1.469-.206a42.206,42.206,0,0,0-5.019-.3h0a36.177,36.177,0,0,0-22.661,7.576q-.829-.937-1.7-1.847a61.471,61.471,0,0,0-25.839-16.317c-9.4-2.953-18.994-2.922-26.983.164a38.252,38.252,0,0,0-16.355-3.667l-.334,0a30.74,30.74,0,0,0-9.759,1.586,37.925,37.925,0,0,0-7.663,3.693,60.282,60.282,0,0,0-11.121,9,80.834,80.834,0,0,0-6.38,7.254q-1.72,1.942-3.324,4a18.706,18.706,0,0,0-5.513-7.04,21.855,21.855,0,0,0-10.985-4.1,42.208,42.208,0,0,0-5.019-.3h0a36.177,36.177,0,0,0-22.661,7.576q-.829-.937-1.7-1.847a61.47,61.47,0,0,0-25.839-16.317,46.288,46.288,0,0,0-13.865-2.2,33.921,33.921,0,0,0-21.222,6.955,32.584,32.584,0,0,0-6.337,6.7,38.216,38.216,0,0,0-7.616,11.7,57.022,57.022,0,0,0-4.167,15.285,77.924,77.924,0,0,0,2.323,29.973,111.479,111.479,0,0,0,10.426,25.771,96.217,96.217,0,0,0,7.357,11.406,66.035,66.035,0,0,0,5.05,5.938,31.662,31.662,0,0,0,7.847,6.238,20.5,20.5,0,0,0,9.9,2.253c.315,0,.631,0,.957-.009a24.6,24.6,0,0,0,11.052-2.965,25.489,25.489,0,0,0,4.272-2.862,33.21,33.21,0,0,0,9.476,3.838,30.364,30.364,0,0,0,24.164-5.064q.7-.486,1.39-1.018a31.742,31.742,0,0,0,20.987,8.072,28.944,28.944,0,0,0,9.77-1.677,20.679,20.679,0,0,0,9.29-6.32,18.837,18.837,0,0,0,1.2-1.644q.717.449,1.447.879c6.643,3.922,16.954,8.626,28.36,8.767l.5,0c6.722,0,12.244-1.772,16.438-5.273a26.361,26.361,0,0,0,4.435,3.02,20.5,20.5,0,0,0,9.9,2.253c.315,0,.631,0,.957-.009a24.609,24.609,0,0,0,11.054-2.966,25.681,25.681,0,0,0,4.271-2.861,33.166,33.166,0,0,0,9.475,3.838,30.366,30.366,0,0,0,24.165-5.064q.7-.486,1.389-1.018a31.744,31.744,0,0,0,20.987,8.072,28.959,28.959,0,0,0,9.772-1.677,21.223,21.223,0,0,0,8.331-5.234,16.2,16.2,0,0,0,2.064,1.43,12.959,12.959,0,0,0,15.031-1.2,26.525,26.525,0,0,0,4.041-4.287l.117-.149c1.1.531,2.372,1.271,3.56,1.961.857.5,1.744,1.011,2.629,1.5a65.171,65.171,0,0,0,14.709,6.223,41.866,41.866,0,0,0,18.232.79,40.635,40.635,0,0,0,11.779-4.037,31.142,31.142,0,0,0,4.63-3.034c6.631,3.667,16.13,7.6,26.539,7.726l.5,0c7.276,0,13.146-2.077,17.447-6.174l.117-.112a15.378,15.378,0,0,0,9.8,2.017,16.275,16.275,0,0,0,9.911-5.265,25.457,25.457,0,0,0,13.288,8.843,22.11,22.11,0,0,0,5.541.691,29.508,29.508,0,0,0,10.042-1.912,44.719,44.719,0,0,0,10.712-5.7c.375-.266.743-.535,1.106-.809a51.755,51.755,0,0,0,14.466,6.665,47.121,47.121,0,0,0,12.12,1.748,51.017,51.017,0,0,0,35.507-13.746,43.686,43.686,0,0,0,4.7-5.241,41.334,41.334,0,0,0,11.141-21.7A42.421,42.421,0,0,0,1403.483,5187.5Z" fill="none" stroke="#000" stroke-miterlimit="10" stroke-width="6"/>
          </g>
        </g>
        <g id="Group_6399" data-name="Group 6399">
          <g id="Group_6358" data-name="Group 6358">
            <path id="Path_15327" data-name="Path 15327" d="M839.843,5168.987l0-.051,0-.05c-.49-5.5-4.575-9.978-10.661-11.676a19.074,19.074,0,0,0-5.121-.718,16.124,16.124,0,0,0-3.5.374,9.522,9.522,0,0,0-3.926,1.752,15.3,15.3,0,0,0-3.475,4.1,20.265,20.265,0,0,0-4.706,6.517,61.112,61.112,0,0,0-3.163,7.382c-.5,1.387-.965,2.782-1.4,4.175-2.916-5.736-6.433-11.936-11.2-16.92-3.243-3.39-6.387-5.357-9.611-6.013a11.418,11.418,0,0,0-2.267-.228,13.825,13.825,0,0,0-7.569,2.444,37.242,37.242,0,0,0-8.328,7.968c-.318.394-.636.8-.954,1.214-.848.931-1.618,1.847-2.3,2.686-.527.652-1.053,1.337-1.58,2.039a7.645,7.645,0,0,0-.311-.95c-.029-.074-.057-.144-.078-.206A120.618,120.618,0,0,0,755.607,5161a55.628,55.628,0,0,0-6.755-12.526,22.041,22.041,0,0,0-5.03-5.029,17.055,17.055,0,0,0-6.546-2.584,42.293,42.293,0,0,0-8.365-.759c-1.851,0-3.836.091-6.068.277a88.76,88.76,0,0,0-13.781,2.241,55.471,55.471,0,0,0-13.471,4.984,19.56,19.56,0,0,0-5.893,4.591,8.736,8.736,0,0,0-1.112,1.777,14.625,14.625,0,0,0-2.138,2.123,9.1,9.1,0,0,0-1.94,4.652,30.467,30.467,0,0,0,.549,10.6c2.1,10.184,7.193,19.619,11.392,26.7a235.762,235.762,0,0,0,16.334,23.477c3.278,4.249,6.285,7.911,9.19,11.2a57.834,57.834,0,0,0,10.3,9.634,19.873,19.873,0,0,0,6.648,3.091,16.514,16.514,0,0,0,3.828.435,21.5,21.5,0,0,0,3.836-.365,41.862,41.862,0,0,0,13.493-5.173,71.89,71.89,0,0,0,13.281-10.278c.124.129.249.252.368.369.055.054.106.1.145.143.421.487.865.978,1.319,1.46a39.834,39.834,0,0,0,14.663,10.288,27.248,27.248,0,0,0,9.251,1.721l.132,0a9.376,9.376,0,0,0,3.559-1,16.489,16.489,0,0,0,3.616-2.561,35.718,35.718,0,0,0,4.789-5.4,41.985,41.985,0,0,0,3.664-4.461,102.778,102.778,0,0,0,8.215-13.968,242.242,242.242,0,0,0,12.97-30.7c1.2-3.494,2.073-6.4,2.763-9.131A26.623,26.623,0,0,0,839.843,5168.987Z"/>
            <g id="Group_6357" data-name="Group 6357" clip-path="url(#clip-path)">
              <g id="Group_6356" data-name="Group 6356">
                <path id="Path_15328" data-name="Path 15328" d="M779.469,5221.759q-.337.483-.683.959c-.129.178-.759.8-.746,1.01.018.308.8.977,1.026,1.232q.618.713,1.265,1.4A37.551,37.551,0,0,0,794.023,5236a24.737,24.737,0,0,0,8.4,1.552l.058,0a6.766,6.766,0,0,0,2.389-.718,14.228,14.228,0,0,0,3.048-2.172,34.912,34.912,0,0,0,4.835-5.55,99.923,99.923,0,0,0,8-13.617,239.018,239.018,0,0,0,12.831-30.368c1.006-2.942,1.941-5.911,2.7-8.926a24.087,24.087,0,0,0,.957-7.086c-.434-4.879-4.264-8.145-8.769-9.4a16.56,16.56,0,0,0-4.423-.623,13.452,13.452,0,0,0-2.931.312,7.03,7.03,0,0,0-2.879,1.254,17.641,17.641,0,0,0-4.236,5.87,59.036,59.036,0,0,0-3.027,7.072q-1.182,3.256-2.137,6.591-.456,1.6-.871,3.2a13.642,13.642,0,0,0-.642,2.626,8.657,8.657,0,0,0,.52,2.1q.242.954.464,1.911.474,2.055.842,4.131a58.6,58.6,0,0,1,.867,6.2c-2.329-5.411-4.686-10.808-7.3-16.088-3.24-6.539-6.835-13.293-11.917-18.608-2.239-2.341-5-4.6-8.25-5.262a8.747,8.747,0,0,0-1.749-.176,11.359,11.359,0,0,0-6.15,2.023,34.488,34.488,0,0,0-7.724,7.423,92.937,92.937,0,0,0-6.425,9.176c-3.582,5.729-6.776,11.683-9.941,17.648a69.366,69.366,0,0,1,2.747-10.74q1.022-3.136,2.258-6.2.645-1.587,1.35-3.148a5.869,5.869,0,0,0,.675-1.457,4.846,4.846,0,0,0-.4-1.387,118.56,118.56,0,0,0-4-11.578,52.625,52.625,0,0,0-6.421-11.941,19.821,19.821,0,0,0-4.432-4.457,14.828,14.828,0,0,0-5.581-2.176,40.1,40.1,0,0,0-7.855-.708c-1.96,0-3.919.107-5.851.268a86.052,86.052,0,0,0-13.376,2.174,53.153,53.153,0,0,0-12.845,4.74,16.825,16.825,0,0,0-5.116,3.942,6.611,6.611,0,0,0-1.392,3.4,28.155,28.155,0,0,0,.522,9.7c1.9,9.222,6.315,17.862,11.083,25.9a232.154,232.154,0,0,0,16.156,23.215c2.911,3.774,5.919,7.49,9.078,11.06a55.3,55.3,0,0,0,9.82,9.213,17.531,17.531,0,0,0,5.781,2.706,13.906,13.906,0,0,0,3.225.364,18.809,18.809,0,0,0,3.37-.323,39.333,39.333,0,0,0,12.65-4.861c7.184-4.188,13.233-10.054,18.857-16.113.86-.927,1.709-1.866,2.531-2.827a43.864,43.864,0,0,1-2.859,4.906Q780.018,5220.971,779.469,5221.759Z" fill="url(#linear-gradient)"/>
                <path id="Path_15329" data-name="Path 15329" d="M722.977,5146.861c8.158-4.475,19.042-1.948,23.776,6.3a21.384,21.384,0,0,1,2.9,8.292,41.021,41.021,0,0,0-5.914-8.662c-5.3-5.774-13.2-7.03-20.762-5.929Z" fill="#fff"/>
                <path id="Path_15330" data-name="Path 15330" d="M822.487,5161.461c11.417-1.274,16.628,9.233,9.7,18.1a45.046,45.046,0,0,0,.814-6.173c.48-6.906-4.645-9.907-10.512-11.925Z" fill="#fff"/>
                <path id="Path_15331" data-name="Path 15331" d="M820.682,5208.48a76.53,76.53,0,0,1-7.4,14.337c-2.822,4.639-6.611,8.985-11.791,11.026l-.152-.211c.824-1.13,1.737-2.069,2.561-3.111,2.481-3.064,5.14-5.924,7.7-8.923a107.366,107.366,0,0,0,8.844-13.225l.237.107Z" fill="#fff"/>
                <path id="Path_15332" data-name="Path 15332" d="M784.211,5164.711a6.206,6.206,0,0,1,4.946,2.656,17.789,17.789,0,0,1,2.42,5.085,13.518,13.518,0,0,1,.436,3.628l-.258.034a16.341,16.341,0,0,0-3.321-5.909,17.788,17.788,0,0,1-4.347-5.266l.124-.228Z" fill="#fff"/>
              </g>
            </g>
          </g>
          <g id="Group_6362" data-name="Group 6362">
            <path id="Path_15334" data-name="Path 15334" d="M705.121,5153.448a11.365,11.365,0,0,0-1.1-1.5,12.481,12.481,0,0,0-1.129-1.3,26.836,26.836,0,0,0-19.66-8.268h-.283a20.9,20.9,0,0,0-6.63,1.049,28.065,28.065,0,0,0-5.649,2.743,50.507,50.507,0,0,0-9.276,7.533,70.936,70.936,0,0,0-5.78,6.6,74.728,74.728,0,0,0-10.6,15.432c-4.345,8.382-6.665,16-7.092,23.3a38.141,38.141,0,0,0,6.451,23.453A53.074,53.074,0,0,0,661.66,5238.5c5.6,3.3,14.2,7.265,23.39,7.379l.389,0c4.687,0,8.139-1.117,10.551-3.414a11.152,11.152,0,0,0,2.248-3.063,10.428,10.428,0,0,0,1-.837c2.934-2.795,4.254-7.338,3.621-12.466-.29-2.352-1.43-8.147-5.743-11.148a6.762,6.762,0,0,0-3.849-1.286h-.126a9.127,9.127,0,0,0-2.924.664c-.272.1-.529.189-.75.253-.941.272-1.924.5-2.933.685a33.652,33.652,0,0,0,3.384-2.522,38.412,38.412,0,0,0,6.063-6.586,45.184,45.184,0,0,0,7.941-11.843,61.754,61.754,0,0,0,5.638-19.8C710.168,5168.62,709.832,5160.355,705.121,5153.448ZM661.668,5200.6q-.029-.283-.047-.573a16.143,16.143,0,0,1,2.082-8.871,6.914,6.914,0,0,1,4.078-1.83c.1,0,.211,0,.315.014a2.911,2.911,0,0,1,2.443,3.332h0v.017h0a7.442,7.442,0,0,1-1.163,3.36A21.283,21.283,0,0,1,661.668,5200.6Z"/>
            <g id="Group_6361" data-name="Group 6361" clip-path="url(#clip-path-2)">
              <g id="Group_6360" data-name="Group 6360">
                <g id="Group_6359" data-name="Group 6359">
                  <path id="Path_15335" data-name="Path 15335" d="M701.214,5152.6s.2.26.766.969.778.966.78.966S701.219,5152.6,701.214,5152.6Z" fill="url(#linear-gradient-2)"/>
                  <path id="Path_15336" data-name="Path 15336" d="M701.98,5153.574c-4.469-5.625-11.648-8.6-18.749-8.6h-.256a18.447,18.447,0,0,0-5.816.909,25.66,25.66,0,0,0-5.125,2.5,48.228,48.228,0,0,0-8.8,7.153,71.477,71.477,0,0,0-12.668,17.5c-3.589,6.922-6.347,14.411-6.8,22.254a35.607,35.607,0,0,0,6.022,21.863,50.3,50.3,0,0,0,16.446,15.217c6.591,3.89,14.359,6.922,22.1,7.018l.357,0c3.074,0,6.456-.505,8.758-2.7,2.724-2.595,3.274-6.694,2.834-10.265-.41-3.321-1.775-7.333-4.648-9.332a4.2,4.2,0,0,0-2.364-.82h-.07a12.243,12.243,0,0,0-3.008.815,34.749,34.749,0,0,1-5.691,1.125,41.734,41.734,0,0,1-4.783.278,38.662,38.662,0,0,1-6.49-.54,24.992,24.992,0,0,1-8.785-2.933,11.507,11.507,0,0,1-3.015-2.586c1.085.361,2.131.858,3.2,1.263a12.115,12.115,0,0,0,3.245.587c.929.082,1.864.122,2.8.122a33.475,33.475,0,0,0,4.909-.365,31.706,31.706,0,0,0,15.9-7.165,40.459,40.459,0,0,0,10.089-13.662,59.066,59.066,0,0,0,5.4-18.956C707.715,5167.063,706.63,5159.358,701.98,5153.574Zm-25.615,35.688s0-.088.018-.328c-.174,3.032-2.075,5.721-4.088,7.875a23.8,23.8,0,0,1-9.843,6.266,14.167,14.167,0,0,1-4.4.91,6.607,6.607,0,0,1-1.013-.075,13.879,13.879,0,0,0,2.158-.877c.3-.187.229-.107.153-.465-.056-.262-.107-.525-.15-.79-.083-.527-.14-1.059-.174-1.591a18.627,18.627,0,0,1,1.165-7.645,17.289,17.289,0,0,1,4.48-6.754c1.726-1.573,3.962-2.966,6.36-2.966.182,0,.364.008.548.024a5.472,5.472,0,0,1,4.8,6.088c.015-.235.021-.321.022-.321Z" fill="url(#linear-gradient-3)"/>
                </g>
                <path id="Path_15337" data-name="Path 15337" d="M683.94,5149.107c10.473-2.918,20.257,5.234,18.82,16.123a39.013,39.013,0,0,0-2.606-6.32c-3.142-6.135-9.631-8.856-16.214-9.8Z" fill="#fff"/>
                <path id="Path_15338" data-name="Path 15338" d="M682.883,5221.392c1.415-.4,2.651-.732,3.863-1.166,1.912-.631,3.885-1.66,6.093-1.641,2.539,0,4.363,2.228,4.778,4.582-1.926-1.369-3.338-2.621-5.532-1.969-.222.04-.665.154-.881.222-2.515.778-5.811,1.353-8.321-.028Z" fill="#fff"/>
              </g>
            </g>
          </g>
          <g id="Group_6366" data-name="Group 6366">
            <path id="Path_15340" data-name="Path 15340" d="M1394.834,5192.519a28.123,28.123,0,0,0-1.9-2.854,12.969,12.969,0,0,0-.927-1.171c-.351-.416-.636-.753-.908-1.016-4.751-5.108-11.536-8.357-19.9-9.568a29.257,29.257,0,0,0,3.818-4.351,28.85,28.85,0,0,0,8.668-22.04,19.7,19.7,0,0,0-3.646-10.625,16.473,16.473,0,0,0-9.98-6.142,19.673,19.673,0,0,0-3.674-.4,22.508,22.508,0,0,0-16.15,7.045,30.28,30.28,0,0,0-2.879,3.436c-.143.138-.288.273-.428.416a29.9,29.9,0,0,0-2.445,2.852c-1.734-.165-3.43-.266-5.04-.289a48.248,48.248,0,0,0-7.677.472c-5.8.85-10.419,2.787-13.737,5.755a18.63,18.63,0,0,0-3.181,3.749c-.04.035-.086.067-.126.1a21.865,21.865,0,0,0-6.657,13.285,23.19,23.19,0,0,0,2.843,15.013,24.642,24.642,0,0,0,10.888,9.525c.968.46,2,.891,3.057,1.28l.142.067a6.714,6.714,0,0,0,.954.386c-.032.047-.062.1-.094.142l-.262.237a19.071,19.071,0,0,0-5.481,9,22.016,22.016,0,0,0,.175,11.271c2.022,7.67,6.9,13.378,10.638,16.816a42.357,42.357,0,0,0,17.058,9.6,37.2,37.2,0,0,0,9.551,1.374,40.835,40.835,0,0,0,28.484-11.009,33.567,33.567,0,0,0,3.973-4.507,31.25,31.25,0,0,0,8.879-16.8A32.259,32.259,0,0,0,1394.834,5192.519Z"/>
            <g id="Group_6365" data-name="Group 6365" clip-path="url(#clip-path-3)">
              <g id="Group_6364" data-name="Group 6364">
                <g id="Group_6363" data-name="Group 6363">
                  <path id="Path_15341" data-name="Path 15341" d="M1389.313,5188.823s.186.218.7.814.711.811.713.811S1389.318,5188.823,1389.313,5188.823Z" fill="url(#linear-gradient-4)"/>
                  <path id="Path_15342" data-name="Path 15342" d="M1392.637,5193.248a25.107,25.107,0,0,0-2.623-3.611c-6.4-7.405-16.186-9.816-25.86-9.816a69.988,69.988,0,0,0-12.458,1.188c-3.525.644-6.969,1.66-10.509,2.234a27.131,27.131,0,0,1-4.314.423q-.344,0-.684-.015c-1.531-.069-3.285-.39-4.247-1.714a4.233,4.233,0,0,1,.028-4.353,6.413,6.413,0,0,1,2.939-3.254,3.872,3.872,0,0,1,1.567-.338c2.409,0,4.5,2.318,6.011,4.016.249.279.5.559.754.833.117.126.343.463.5.512a.307.307,0,0,0,.078.009,5.967,5.967,0,0,0,1.045-.281q.687-.17,1.372-.349c1.7-.447,3.411-.856,5.137-1.194a73.163,73.163,0,0,1,10.3-1.292q1.293-.066,2.587-.081h.042c.423,0,.975.067,1.5.067a2.384,2.384,0,0,0,1.155-.22,28.021,28.021,0,0,0,3.578-2.437,26.894,26.894,0,0,0,6.527-7.572,26.094,26.094,0,0,0,3.457-14.727,17.246,17.246,0,0,0-3.273-9.184,13.89,13.89,0,0,0-8.495-5.023,16.956,16.956,0,0,0-3.192-.3,19.8,19.8,0,0,0-14.16,6.476c-4.657,4.89-7.3,11.43-8.559,17.986-.223,1.158-.4,2.321-.557,3.489a38.492,38.492,0,0,1,1.583-13.876c-1.675-.14-3.361-.219-5.046-.219a45.531,45.531,0,0,0-7.255.552c-4.431.717-8.945,2.206-12.3,5.3a19.288,19.288,0,0,0-5.645,11.8,20.6,20.6,0,0,0,2.709,13.287,22.1,22.1,0,0,0,9.886,8.348c.943.431,1.9.813,2.881,1.156a4.758,4.758,0,0,0,1.191.428.479.479,0,0,0,.067,0c.173-.027.451-.307.6-.405.267-.174.537-.344.812-.5a20.83,20.83,0,0,1,6.347-2.386,25.063,25.063,0,0,1,5.02-.5,33.659,33.659,0,0,1,19.9,7.111c6.126,4.688,12.094,13.026,8.229,20.974a12.506,12.506,0,0,1-1.008,1.692,16.861,16.861,0,0,0,.134-7.515,20.092,20.092,0,0,0-4.555-8.5,30.761,30.761,0,0,0-16.931-9.575,25.935,25.935,0,0,0-5.077-.514,18.517,18.517,0,0,0-13.062,4.837,16.516,16.516,0,0,0-4.627,7.834,19.385,19.385,0,0,0,.325,9.931,33.174,33.174,0,0,0,10.112,15.418,39.775,39.775,0,0,0,16.136,8.778,34.591,34.591,0,0,0,8.9,1.145,38.5,38.5,0,0,0,26.5-10.688,28.64,28.64,0,0,0,8.531-16.115A29.693,29.693,0,0,0,1392.637,5193.248Z" fill="url(#linear-gradient-5)"/>
                </g>
                <path id="Path_15343" data-name="Path 15343" d="M1356.508,5142c7.24-4.966,18.625-4.739,21.144,5.21a17.881,17.881,0,0,1,.135,8.183,37.239,37.239,0,0,0-2.069-7.523c-3.19-8.219-11.96-7.356-19.21-5.87Z" fill="#fff"/>
                <path id="Path_15344" data-name="Path 15344" d="M1350.63,5195.811a6.211,6.211,0,0,1,5.6.32,17.8,17.8,0,0,1,4.341,3.587,13.567,13.567,0,0,1,1.927,3.105l-.219.14a16.356,16.356,0,0,0-5.506-3.954,17.781,17.781,0,0,1-6.164-2.938l.016-.26Z" fill="#fff"/>
                <path id="Path_15345" data-name="Path 15345" d="M1371.432,5184.212c17.922-1.774,27.836,19.766,20.811,34.582a22.323,22.323,0,0,1-10.989,11.062,26.032,26.032,0,0,0,9.116-11.842c5.308-14.2-2.738-32.523-18.938-33.8Z" fill="#fff"/>
              </g>
            </g>
          </g>
          <g id="Group_6370" data-name="Group 6370">
            <path id="Path_15347" data-name="Path 15347" d="M1233,5204.732a43.454,43.454,0,0,0-10.115-22.347,36.85,36.85,0,0,0-3.11-3.116,10.66,10.66,0,0,0-.956-.826c-.159-.128-.3-.243-.434-.346a42.624,42.624,0,0,0-25.392-8.808q-.409-.009-.818-.009a39.687,39.687,0,0,0-10.628,1.465c.275-.74.514-1.482.716-2.219a18.605,18.605,0,0,0-3.187-16.92,20.76,20.76,0,0,0-9.876-6.934,23.691,23.691,0,0,0-7.233-1.075,35.366,35.366,0,0,0-10.569,1.755l-.727.229a10.636,10.636,0,0,0-5.431-1.6c-.293,0-.589.014-.878.043a9.421,9.421,0,0,0-6.227,3.361,15.034,15.034,0,0,0-1.715,2.45,10.852,10.852,0,0,0-1.535,1.45c-3.044,3.506-4.033,8.18-4.556,11.861a68.141,68.141,0,0,0-.382,13.48,107.46,107.46,0,0,0,4.992,26.169,130.876,130.876,0,0,0,10.291,23.953,90.672,90.672,0,0,0,7.207,11.306,21.564,21.564,0,0,0,2.2,2.539,7.855,7.855,0,0,0,1.484,1.167,3.182,3.182,0,0,0,1.639.486,3.124,3.124,0,0,0,2.007-.786,17.138,17.138,0,0,0,2.53-2.746c.427-.54.829-1.05,1.238-1.472a11.508,11.508,0,0,1,3.319-2.472,5.894,5.894,0,0,1,2.54-.59,6.447,6.447,0,0,1,1.479.181,31.185,31.185,0,0,1,7.951,3.694c.8.462,1.62.94,2.44,1.39a55.95,55.95,0,0,0,12.459,5.324,32.9,32.9,0,0,0,8.407,1.115,30.308,30.308,0,0,0,5.46-.493,30.688,30.688,0,0,0,8.886-3.028,23.405,23.405,0,0,0,8.262-7.594,25.305,25.305,0,0,0,3.811-4.74C1232.8,5223.206,1234.384,5214.221,1233,5204.732Zm-59.152,9.8c-.066,0-.132,0-.2,0a5.865,5.865,0,0,1-4.52-2.837,5.5,5.5,0,0,1-.916-2.479,8.635,8.635,0,0,1,2.967-.557,5.973,5.973,0,0,1,1.208.115,3.554,3.554,0,0,1,2.536,1.849,7.036,7.036,0,0,1,.716,3.606A5.671,5.671,0,0,1,1173.845,5214.53Zm-23.169-37.6c1.418.788,1.161,3.306,1.086,3.861a14.883,14.883,0,0,1-.607,2.418,10.85,10.85,0,0,1-.907-4.32,9.743,9.743,0,0,1,.209-2.051A1.3,1.3,0,0,1,1150.676,5176.934Z"/>
            <g id="Group_6369" data-name="Group 6369" clip-path="url(#clip-path-4)">
              <g id="Group_6368" data-name="Group 6368">
                <g id="Group_6367" data-name="Group 6367">
                  <path id="Path_15348" data-name="Path 15348" d="M1216.507,5179.924l.311.252c.777.624,1.046.839,1.047.839Z" fill="url(#linear-gradient-6)"/>
                  <path id="Path_15349" data-name="Path 15349" d="M1181.354,5211.48c.017-.086.032-.173.046-.26-.029.141-.069.347-.1.494C1181.321,5211.636,1181.338,5211.558,1181.354,5211.48Z" fill="url(#linear-gradient-7)"/>
                  <path id="Path_15350" data-name="Path 15350" d="M1226.336,5228.654c4.3-6.89,5.245-15.635,4.089-23.546a40.705,40.705,0,0,0-9.49-21,33.679,33.679,0,0,0-4.117-3.933c-6.6-5.329-15.453-8.108-23.884-8.288q-.381-.008-.762-.008a39.286,39.286,0,0,0-21.321,6.547,39.73,39.73,0,0,0-7.866,6.624,35.521,35.521,0,0,1,7.818-7.791c1.044-.787,2.123-1.527,3.239-2.208,1.087-.664,2.274-1.17,3.355-1.833.664-.408,1.013-1.664,1.312-2.375a24.241,24.241,0,0,0,1.043-3,16.1,16.1,0,0,0-2.713-14.614,18.249,18.249,0,0,0-8.636-6.078,21.04,21.04,0,0,0-6.439-.951,32.994,32.994,0,0,0-9.788,1.635,14.891,14.891,0,0,1,3.191,8.71,14.522,14.522,0,0,0-5.441-8.349,8.388,8.388,0,0,0-4.689-1.61q-.311,0-.624.03a6.914,6.914,0,0,0-4.518,2.479c-2.478,2.854-3.427,6.872-3.944,10.522a66.374,66.374,0,0,0-.361,12.97,104.72,104.72,0,0,0,4.876,25.533,127.975,127.975,0,0,0,10.086,23.475,88.848,88.848,0,0,0,7,10.987,19.139,19.139,0,0,0,1.928,2.239,5.521,5.521,0,0,0,.995.8.719.719,0,0,0,.329.131c.1,0,.2-.063.359-.2,1.365-1.119,2.32-2.747,3.548-4.015a14.027,14.027,0,0,1,4.086-3.019,8.481,8.481,0,0,1,3.641-.835,8.955,8.955,0,0,1,2.081.252c3.956.941,7.515,3.4,11.039,5.333a53.3,53.3,0,0,0,11.874,5.091,30.292,30.292,0,0,0,7.742,1.028,27.5,27.5,0,0,0,4.99-.451,28.248,28.248,0,0,0,8.134-2.765A21.11,21.11,0,0,0,1226.336,5228.654Zm-68.752-51.377a16.663,16.663,0,0,1-2.442,6.5,17.479,17.479,0,0,1-2.63,3.152,6.84,6.84,0,0,1-2.8,1.838c.117-.157.237-.314.358-.469.161-.208.359-.411.5-.632.18-.28.214-.182.008-.457a15.766,15.766,0,0,1-1.437-2.17,13.486,13.486,0,0,1-1.494-6.135,11.063,11.063,0,0,1,1.926-6.448,4.893,4.893,0,0,1,3.814-2.165,3.665,3.665,0,0,1,1.8.475C1157.486,5172.038,1157.917,5174.9,1157.584,5177.277Zm23.85,33.782s-.02.113-.08.421-.084.411-.085.411.013-.074.033-.177c-.809,3.326-4.128,5.416-7.457,5.416-.1,0-.2,0-.3-.006a8.486,8.486,0,0,1-6.6-4.009,7.315,7.315,0,0,1-1.291-5.049,6.12,6.12,0,0,1,2.53-3.949,11.072,11.072,0,0,1,6.237-1.964,8.641,8.641,0,0,1,1.732.168,6.129,6.129,0,0,1,4.331,3.221,9.53,9.53,0,0,1,.91,5.678C1181.419,5211.125,1181.433,5211.059,1181.434,5211.059Z" fill="url(#linear-gradient-8)"/>
                </g>
                <path id="Path_15351" data-name="Path 15351" d="M1158.564,5148.086c10.472-2.918,20.256,5.233,18.819,16.123a38.986,38.986,0,0,0-2.605-6.32c-3.143-6.135-9.632-8.856-16.214-9.8Z" fill="#fff"/>
                <path id="Path_15352" data-name="Path 15352" d="M1144.12,5148.736c2.138-2.294,6.741.137,5.478,3.2-2.132-1.152-3.619-1.611-5.478-3.2Z" fill="#fff"/>
                <path id="Path_15353" data-name="Path 15353" d="M1175.655,5178.4c10.486-7.494,26.477-6.533,35.679,2.616-11.58-5.816-23.382-6.483-35.679-2.616Z" fill="#fff"/>
                <path id="Path_15354" data-name="Path 15354" d="M1215.088,5234.6c5.085-4.114,9.446-9.141,11.007-15.564a41.489,41.489,0,0,0,.963-6.579c3.809,9.082-2.628,19.97-11.97,22.143Z" fill="#fff"/>
              </g>
            </g>
          </g>
          <g id="Group_6374" data-name="Group 6374">
            <path id="Path_15356" data-name="Path 15356" d="M1336.9,5220.959a6.626,6.626,0,0,0-2.755-3.868c-.185-.139-.387-.283-.606-.438a7.478,7.478,0,0,0-1.507-.939,58.979,58.979,0,0,0-10.241-4.438c-1.291-.463-2.625-.943-3.9-1.442a61.974,61.974,0,0,1-6.516-2.969,28.828,28.828,0,0,0,9.271-8.553,32.317,32.317,0,0,0,3.463-4.2,35.093,35.093,0,0,0,5.559-12.652,44.76,44.76,0,0,0,.167-17.438,41.79,41.79,0,0,0-5.957-15.462c-3.544-5.34-8.269-8.857-13.663-10.17a21.241,21.241,0,0,0-5.017-.588,27.6,27.6,0,0,0-8.684,1.5,33.11,33.11,0,0,0-17.184,12.458c-5.941,6.109-9.75,14.855-10.936,24.966-1.673.2-4,1.179-5.588,4.687-1.49.871-3.021,2.6-4,5.937a27.932,27.932,0,0,0-.8,9.029,64.158,64.158,0,0,0,1.184,9.386,106.142,106.142,0,0,0,5.237,17.982,73.5,73.5,0,0,0,3.942,8.649c1.468,2.692,3.257,5.737,5.927,7.8a6.482,6.482,0,0,0,3.934,1.549,5.043,5.043,0,0,0,.648-.043,6.237,6.237,0,0,0,4.153-2.483,9.548,9.548,0,0,0,1.161-2.1,6.344,6.344,0,0,0,2.089-1.8c2-2.706,2.178-6.219,2.32-9.041l.028-.553c.035-.651.047-1.321.058-1.969.008-.418.016-.84.03-1.258a15.38,15.38,0,0,1,1.873,3.72l.21.525.127.314a73.976,73.976,0,0,0,3.667,8.118c3.161,5.734,6.965,9.212,11.306,10.337a12.093,12.093,0,0,0,3.034.372,19.773,19.773,0,0,0,6.664-1.324,34.766,34.766,0,0,0,8.3-4.441,31.585,31.585,0,0,0,6.7-6.266c.32-.412.657-.865.988-1.352a27.377,27.377,0,0,0,2.262-2.548C1335.552,5227.774,1337.712,5224.469,1336.9,5220.959Zm-43.207-26.645a4.714,4.714,0,0,1-.863.078,7.541,7.541,0,0,1-5.363-2.687,3.265,3.265,0,0,1-1.082-2.259c.059-.087.186-.245.274-.355s.188-.233.277-.349c.18-.237.349-.454.521-.676a24.7,24.7,0,0,1,1.816-1.8,5.551,5.551,0,0,1,3.3-1.679,2,2,0,0,1,.223.012c2.076.217,2.756,3.282,2.826,4.873a9.312,9.312,0,0,1-1.112,4.514A3.269,3.269,0,0,1,1293.693,5194.314Z"/>
            <g id="Group_6373" data-name="Group 6373" clip-path="url(#clip-path-5)">
              <g id="Group_6372" data-name="Group 6372">
                <g id="Group_6371" data-name="Group 6371">
                  <path id="Path_15357" data-name="Path 15357" d="M1331.207,5218.19s.337.242,1.327.946c.231.161.325.227.327.227S1331.211,5218.19,1331.207,5218.19Z" fill="url(#linear-gradient-9)"/>
                  <path id="Path_15358" data-name="Path 15358" d="M1331.8,5228.359c1.392-1.791,3.119-4.411,2.563-6.814a4.2,4.2,0,0,0-1.833-2.409c-4.673-3.322-10.317-4.81-15.589-6.882a63.346,63.346,0,0,1-7.4-3.415q-1.577-.869-3.085-1.851c-.411-.269-.817-.546-1.22-.827a5.413,5.413,0,0,0-1.589-1.007,19.365,19.365,0,0,1-4.2-1.178,10.143,10.143,0,0,1-2.8-2.078,17.591,17.591,0,0,0,6.136,1.415c.212.006.425.01.637.01a20.089,20.089,0,0,0,6.74-1.163,24.972,24.972,0,0,0,11.812-9.528,32.477,32.477,0,0,0,5.152-11.718,42.523,42.523,0,0,0,.15-16.429c-1.755-9.756-7.192-21.013-17.676-23.566a18.582,18.582,0,0,0-4.4-.514,25.054,25.054,0,0,0-7.864,1.368,31.94,31.94,0,0,0-12.8,7.8c-7.125,7.259-10.226,17.732-10.644,27.7-.02.482-.019,1.923-.019,1.923l2.019,3.108s-3.822-2.553-6.031-2.955a4.1,4.1,0,0,0-.73-.068c-2.554,0-3.916,2.628-4.581,4.9a25.186,25.186,0,0,0-.7,8.181,61.918,61.918,0,0,0,1.138,9.007,103.408,103.408,0,0,0,5.109,17.539,71.116,71.116,0,0,0,3.8,8.345c1.359,2.493,2.949,5.221,5.233,6.985a4.005,4.005,0,0,0,2.345,1.006,2.229,2.229,0,0,0,.3-.021,3.606,3.606,0,0,0,2.405-1.451c1.649-2.229,1.7-5.536,1.843-8.187.145-2.71-.136-5.91,1.084-8.416a3.707,3.707,0,0,1,3.342-2.137,3.806,3.806,0,0,1,1.6.359c2.408,1.116,3.48,4.2,4.4,6.478a74.56,74.56,0,0,0,3.66,8.15c2.1,3.8,5.261,7.93,9.681,9.075a9.472,9.472,0,0,0,2.382.289,17.5,17.5,0,0,0,5.786-1.172,32.084,32.084,0,0,0,7.676-4.113A28.961,28.961,0,0,0,1331.8,5228.359Zm-37.581-31.5a7.268,7.268,0,0,1-1.393.132,10.156,10.156,0,0,1-7.313-3.567c-1.126-1.277-2.146-3.078-1.6-4.82a5.112,5.112,0,0,1,.946-1.438q.779-1.023,1.585-2.025a37.7,37.7,0,0,1,4.353-4.728,7.987,7.987,0,0,1,5.014-2.327,4.935,4.935,0,0,1,.493.026c3.548.371,5.017,4.219,5.154,7.345a12.814,12.814,0,0,1-2.045,7.012C1298.261,5194.416,1296.525,5196.349,1294.223,5196.86Z" fill="url(#linear-gradient-10)"/>
                </g>
                <path id="Path_15359" data-name="Path 15359" d="M1329.357,5225.273a11.647,11.647,0,0,0,1.416-2.079c.057-.173.044-.29.005-.314s-.035.012-.078-.074c.005-.029-.059-.1-.072-.157a6.453,6.453,0,0,0-2.685-2.182c-1.569-.894-3.22-1.6-4.88-2.359l.067-.251c2.837.347,8.49,1.08,10.023,3.8,1.136,2.322-1.558,4.315-3.707,3.861l-.089-.245Z" fill="#fff"/>
                <path id="Path_15360" data-name="Path 15360" d="M1295.625,5144.648c12.163-5.157,26.045,1.185,27.472,14.938a37.209,37.209,0,0,0-4.574-7.258c-5.509-6.744-14.564-8.23-22.9-7.68Z" fill="#fff"/>
              </g>
            </g>
          </g>
          <g id="Group_6378" data-name="Group 6378">
            <path id="Path_15362" data-name="Path 15362" d="M1272.523,5153.448a11.365,11.365,0,0,0-1.1-1.5,12.351,12.351,0,0,0-1.129-1.3,26.834,26.834,0,0,0-19.66-8.268h-.283a20.885,20.885,0,0,0-6.629,1.049,28.047,28.047,0,0,0-5.65,2.743,50.5,50.5,0,0,0-9.276,7.533,71.053,71.053,0,0,0-5.78,6.6,74.686,74.686,0,0,0-10.6,15.432c-4.346,8.382-6.666,16-7.093,23.3a38.136,38.136,0,0,0,6.452,23.453,53.054,53.054,0,0,0,17.291,16.018c5.6,3.3,14.2,7.265,23.389,7.379l.389,0c4.688,0,8.139-1.117,10.551-3.414a11.155,11.155,0,0,0,2.249-3.063,10.415,10.415,0,0,0,1-.837c2.934-2.795,4.254-7.338,3.621-12.466-.29-2.352-1.43-8.147-5.742-11.148a6.763,6.763,0,0,0-3.85-1.286h-.126a9.127,9.127,0,0,0-2.924.664c-.272.1-.529.189-.75.253-.941.272-1.924.5-2.933.685a33.528,33.528,0,0,0,3.384-2.522,38.419,38.419,0,0,0,6.064-6.586,45.158,45.158,0,0,0,7.94-11.843,61.754,61.754,0,0,0,5.638-19.8C1277.57,5168.62,1277.234,5160.355,1272.523,5153.448ZM1229.07,5200.6q-.028-.283-.047-.573a16.173,16.173,0,0,1,2.082-8.871,6.914,6.914,0,0,1,4.079-1.83c.1,0,.211,0,.314.014a2.91,2.91,0,0,1,2.443,3.332h0v.017h0a7.44,7.44,0,0,1-1.163,3.36A21.283,21.283,0,0,1,1229.07,5200.6Z"/>
            <g id="Group_6377" data-name="Group 6377" clip-path="url(#clip-path-6)">
              <g id="Group_6376" data-name="Group 6376">
                <g id="Group_6375" data-name="Group 6375">
                  <path id="Path_15363" data-name="Path 15363" d="M1268.616,5152.6s.2.26.767.969.777.966.779.966S1268.621,5152.6,1268.616,5152.6Z" fill="url(#linear-gradient-11)"/>
                  <path id="Path_15364" data-name="Path 15364" d="M1269.383,5153.574c-4.47-5.625-11.648-8.6-18.75-8.6h-.256a18.436,18.436,0,0,0-5.815.909,25.64,25.64,0,0,0-5.126,2.5,48.259,48.259,0,0,0-8.8,7.153,71.476,71.476,0,0,0-12.668,17.5c-3.588,6.922-6.346,14.411-6.8,22.254a35.606,35.606,0,0,0,6.022,21.863,50.3,50.3,0,0,0,16.446,15.217c6.591,3.89,14.359,6.922,22.1,7.018l.357,0c3.074,0,6.456-.505,8.758-2.7,2.724-2.595,3.274-6.694,2.834-10.265-.409-3.321-1.775-7.333-4.648-9.332a4.2,4.2,0,0,0-2.364-.82h-.07a12.255,12.255,0,0,0-3.008.815,34.729,34.729,0,0,1-5.691,1.125,41.732,41.732,0,0,1-4.783.278,38.662,38.662,0,0,1-6.49-.54,24.992,24.992,0,0,1-8.785-2.933,11.507,11.507,0,0,1-3.015-2.586c1.085.361,2.131.858,3.2,1.263a12.115,12.115,0,0,0,3.245.587q1.395.122,2.8.122a33.476,33.476,0,0,0,4.909-.365,31.706,31.706,0,0,0,15.9-7.165,40.445,40.445,0,0,0,10.089-13.662,59.067,59.067,0,0,0,5.4-18.956C1275.117,5167.063,1274.032,5159.358,1269.383,5153.574Zm-25.616,35.688s.005-.088.019-.328c-.175,3.032-2.076,5.721-4.089,7.875a23.8,23.8,0,0,1-9.843,6.266,14.166,14.166,0,0,1-4.4.91,6.619,6.619,0,0,1-1.014-.075,13.928,13.928,0,0,0,2.159-.877c.3-.187.228-.107.152-.465-.056-.262-.107-.525-.15-.79-.083-.527-.14-1.059-.174-1.591a18.644,18.644,0,0,1,1.165-7.645,17.3,17.3,0,0,1,4.48-6.754c1.726-1.573,3.962-2.966,6.361-2.966.181,0,.364.008.547.024a5.473,5.473,0,0,1,4.805,6.088c.015-.235.021-.321.021-.321Z" fill="url(#linear-gradient-12)"/>
                </g>
                <path id="Path_15365" data-name="Path 15365" d="M1251.343,5149.107c10.472-2.918,20.256,5.234,18.819,16.123a39.1,39.1,0,0,0-2.6-6.32c-3.143-6.135-9.632-8.856-16.214-9.8Z" fill="#fff"/>
                <path id="Path_15366" data-name="Path 15366" d="M1250.286,5221.392c1.414-.4,2.65-.732,3.862-1.166,1.912-.631,3.885-1.66,6.093-1.641,2.539,0,4.363,2.228,4.778,4.582-1.926-1.369-3.337-2.621-5.532-1.969-.222.04-.665.154-.881.222-2.515.778-5.811,1.353-8.32-.028Z" fill="#fff"/>
              </g>
            </g>
          </g>
          <g id="Group_6382" data-name="Group 6382">
            <path id="Path_15368" data-name="Path 15368" d="M1148.5,5221.705a101.27,101.27,0,0,0-4.7-24.449c-.062-.217-.131-.435-.2-.652l-.359-1.13-.584-1.8h-.011c-1-2.963-2.116-5.883-3.322-8.708l-.124-.291c-1.436-3.364-2.793-6.542-3.867-9.9-.5-1.573-.911-3.168-1.34-4.855-.495-1.943-1.006-3.951-1.682-5.928a10.565,10.565,0,0,0-3.293-5.215,12.06,12.06,0,0,0-6.076-2.088,32.08,32.08,0,0,0-3.826-.232,26.15,26.15,0,0,0-17.558,6.331,28.986,28.986,0,0,0-4.652,5.226q-.786.793-1.515,1.652a52.974,52.974,0,0,0-7.869-10.575,51.445,51.445,0,0,0-21.6-13.682,36.308,36.308,0,0,0-10.867-1.742A24.034,24.034,0,0,0,1040,5148.5a22.807,22.807,0,0,0-4.82,5.282,27.943,27.943,0,0,0-6.138,9.228,47.1,47.1,0,0,0-3.425,12.607,68.045,68.045,0,0,0,2.081,26.125,101.43,101.43,0,0,0,9.495,23.455,86.007,86.007,0,0,0,6.591,10.23,55.68,55.68,0,0,0,4.277,5.035,22.126,22.126,0,0,0,5.365,4.36,10.67,10.67,0,0,0,5.179,1.069c.266,0,.533,0,.8-.008a14.559,14.559,0,0,0,6.518-1.8,16.863,16.863,0,0,0,5.056-4.212c.323-.39.636-.8.931-1.223l.022-.027a4.243,4.243,0,0,0,.463-.724q.643-.584,1.247-1.249.57.524,1.141,1.018a27.716,27.716,0,0,0,11.82,6.479,18.725,18.725,0,0,0,4.182.477,21.233,21.233,0,0,0,12.045-4.013,30.061,30.061,0,0,0,7.113-7.213q.522-.537,1.012-1.092c0,.023,0,.045,0,.068a3.673,3.673,0,0,0,.726,1.824l.038.056c.246.431.505.855.768,1.262a24.472,24.472,0,0,0,3.144,3.94,21.7,21.7,0,0,0,15.272,6.428,18.96,18.96,0,0,0,6.4-1.094,10.883,10.883,0,0,0,4.9-3.217,9.9,9.9,0,0,0,1.32-2.161,8.928,8.928,0,0,0,1.93-1.739,11.858,11.858,0,0,0,2.14-4.447A36.213,36.213,0,0,0,1148.5,5221.705Z"/>
            <g id="Group_6381" data-name="Group 6381" clip-path="url(#clip-path-7)">
              <g id="Group_6380" data-name="Group 6380">
                <g id="Group_6379" data-name="Group 6379">
                  <path id="Path_15369" data-name="Path 15369" d="M1143.443,5236.027a9.568,9.568,0,0,0,1.652-3.5,33.422,33.422,0,0,0,.806-10.679,101.374,101.374,0,0,0-4.983-25.075c-1.156-3.65-2.487-7.256-3.99-10.778-1.469-3.441-2.933-6.843-4.076-10.413-1.134-3.539-1.805-7.219-3.006-10.735a8.173,8.173,0,0,0-2.419-4,9.713,9.713,0,0,0-4.8-1.567,29.611,29.611,0,0,0-3.517-.213,23.634,23.634,0,0,0-15.844,5.685,26.3,26.3,0,0,0-5.643,7.027,3.591,3.591,0,0,0-.487.921c-.034.349.4,1.053.525,1.394.334.936.629,1.885.892,2.843a44.071,44.071,0,0,1,1.117,5.381,42.221,42.221,0,0,1-2.429,20.7,44.79,44.79,0,0,0,.275-21.054,46.841,46.841,0,0,0-11.881-21.067,49.173,49.173,0,0,0-20.5-13,33.985,33.985,0,0,0-10.087-1.622,21.387,21.387,0,0,0-13.439,4.264,23.937,23.937,0,0,0-6.929,9.6,44.541,44.541,0,0,0-3.232,11.91,65.874,65.874,0,0,0,2.017,25.125,98.868,98.868,0,0,0,9.253,22.853,84.176,84.176,0,0,0,6.392,9.925,53.1,53.1,0,0,0,4.076,4.8,19.847,19.847,0,0,0,4.721,3.872,8.136,8.136,0,0,0,3.951.761c.253,0,.506,0,.759-.007a11.968,11.968,0,0,0,5.34-1.5,14.433,14.433,0,0,0,4.272-3.573c.283-.342.55-.694.8-1.058a2.667,2.667,0,0,0,.3-.447c.121-.292.023-.311-.2-.574q-1.014-1.217-1.954-2.492a75.733,75.733,0,0,1-10.809-21.581c-.434-1.333-.841-2.694-1.144-4.063a147.517,147.517,0,0,0,12,18.53,63.37,63.37,0,0,0,8.5,9.169,25.544,25.544,0,0,0,10.7,5.913,16.065,16.065,0,0,0,3.6.411,18.564,18.564,0,0,0,10.563-3.55c4.923-3.413,8.3-8.843,10.9-14.113a109.655,109.655,0,0,0,7.76-22.252c.137-.551.266-1.1.4-1.657a53.352,53.352,0,0,1-.294,8.43,73.792,73.792,0,0,1-1.777,10.452,58.408,58.408,0,0,1-3.56,10.364q-.314.683-.648,1.356c-.132.265-.6.857-.582,1.13.016.219.3.547.407.742q.34.6.715,1.176a21.709,21.709,0,0,0,2.8,3.522,19.249,19.249,0,0,0,13.428,5.66,16.387,16.387,0,0,0,5.529-.942A8.444,8.444,0,0,0,1143.443,5236.027Z" fill="url(#linear-gradient-13)"/>
                  <path id="Path_15370" data-name="Path 15370" d="M1140.762,5196.273s.044.141.156.5c.391,1.231.527,1.656.527,1.656Z" fill="url(#linear-gradient-14)"/>
                </g>
                <path id="Path_15371" data-name="Path 15371" d="M1116.2,5161.527c3.646-.918,10.171-.726,11.3,3.805a38.943,38.943,0,0,0,3.567,12.257l-.221.137a32.9,32.9,0,0,1-5.5-11.11,2.583,2.583,0,0,0-1.156-1.727c-2.334-1.537-5.2-2.1-7.987-3.1l0-.26Z" fill="#fff"/>
                <path id="Path_15372" data-name="Path 15372" d="M1040.526,5160c1.149-5.8,6.718-10.211,12.486-11.017a22.2,22.2,0,0,1,8.707.416,27.215,27.215,0,0,1,7.86,3.291c-5.381-.957-10.793-2.019-16.146-1.142a18.638,18.638,0,0,0-12.907,8.452Z" fill="#fff"/>
                <path id="Path_15373" data-name="Path 15373" d="M1088.6,5169.58c4.209,3.736,6.254,9.286,6.976,14.739a43.752,43.752,0,0,1,.649,8.2,49.233,49.233,0,0,1-.8,8.112l-.259-.031.026-2.02a50.69,50.69,0,0,0-2.2-15.718c-1.061-2.864-2.284-6.388-3.256-9.305l-1.344-3.818.21-.154Z" fill="#fff"/>
                <path id="Path_15374" data-name="Path 15374" d="M1104.532,5227.861c.47,6.893-7.778,9.978-13.064,6.479,1.379-.289,2.695-.376,4.019-.628a12.926,12.926,0,0,0,9.045-5.851Z" fill="#fff"/>
                <path id="Path_15375" data-name="Path 15375" d="M1142.64,5224.106c2.024,4.134.254,9.789-4.172,11.553-2.55.906-5.365.042-7.561-1.162l.1-.241c2.821.786,6.467,1.035,8.284-1.531.848-1.167,1.051-2.647,1.544-4.009.465-1.4.986-3.2,1.548-4.593l.26-.017Z" fill="#fff"/>
                <path id="Path_15376" data-name="Path 15376" d="M1070.653,5234.484a6.714,6.714,0,0,1-3.46-2.316c-1.253-1.472-1.8-3.567-2.662-5.266q-1.109-2.708-1.972-5.5l.234-.112,4.336,6.362a17,17,0,0,1,3.668,6.619l-.144.216Z" fill="#fff"/>
              </g>
            </g>
          </g>
          <g id="Group_6386" data-name="Group 6386">
            <path id="Path_15378" data-name="Path 15378" d="M660.71,5220.959a6.623,6.623,0,0,0-2.754-3.868c-.185-.139-.388-.283-.606-.438a7.534,7.534,0,0,0-1.507-.939,59.024,59.024,0,0,0-10.242-4.438c-1.29-.463-2.624-.943-3.894-1.442a62.087,62.087,0,0,1-6.517-2.969,28.817,28.817,0,0,0,9.271-8.553,32.4,32.4,0,0,0,3.464-4.2,35.109,35.109,0,0,0,5.558-12.652,44.76,44.76,0,0,0,.168-17.438,41.812,41.812,0,0,0-5.958-15.462c-3.544-5.34-8.268-8.857-13.662-10.17a21.243,21.243,0,0,0-5.018-.588,27.608,27.608,0,0,0-8.684,1.5,34.262,34.262,0,0,0-13.829,8.446,33.78,33.78,0,0,0-3.354,4.012c-5.941,6.109-9.751,14.855-10.937,24.966-1.673.2-4,1.179-5.588,4.687-1.49.871-3.021,2.6-4,5.937a27.9,27.9,0,0,0-.8,9.029,64.281,64.281,0,0,0,1.183,9.386,106.322,106.322,0,0,0,5.237,17.982,73.485,73.485,0,0,0,3.943,8.649c1.467,2.692,3.256,5.737,5.926,7.8a6.484,6.484,0,0,0,3.934,1.549,5.02,5.02,0,0,0,.648-.043,6.235,6.235,0,0,0,4.153-2.483,9.555,9.555,0,0,0,1.162-2.1,6.332,6.332,0,0,0,2.088-1.8c2-2.706,2.178-6.219,2.32-9.041l.029-.553c.034-.651.046-1.321.058-1.969.007-.418.016-.84.03-1.258a15.415,15.415,0,0,1,1.873,3.72l.209.525.128.314a73.577,73.577,0,0,0,3.667,8.118c3.161,5.734,6.964,9.212,11.306,10.337a12.086,12.086,0,0,0,3.034.372,19.773,19.773,0,0,0,6.664-1.324,34.768,34.768,0,0,0,8.3-4.441,31.584,31.584,0,0,0,6.7-6.266c.32-.412.657-.865.987-1.352a27.249,27.249,0,0,0,2.263-2.548C659.363,5227.774,661.522,5224.469,660.71,5220.959ZM617.5,5194.314a4.717,4.717,0,0,1-.864.078,7.545,7.545,0,0,1-5.363-2.687,3.267,3.267,0,0,1-1.081-2.259c.058-.087.186-.245.274-.355s.188-.233.276-.349c.18-.237.35-.454.521-.676a24.891,24.891,0,0,1,1.816-1.8,5.551,5.551,0,0,1,3.3-1.679,2.013,2.013,0,0,1,.224.012c2.076.217,2.756,3.282,2.826,4.873a9.325,9.325,0,0,1-1.112,4.514A3.285,3.285,0,0,1,617.5,5194.314Z"/>
            <g id="Group_6385" data-name="Group 6385" clip-path="url(#clip-path-8)">
              <g id="Group_6384" data-name="Group 6384">
                <g id="Group_6383" data-name="Group 6383">
                  <path id="Path_15379" data-name="Path 15379" d="M655.018,5218.19s.336.242,1.327.946c.231.161.325.227.327.227S655.022,5218.19,655.018,5218.19Z" fill="url(#linear-gradient-15)"/>
                  <path id="Path_15380" data-name="Path 15380" d="M655.615,5228.359c1.392-1.791,3.118-4.411,2.562-6.814a4.2,4.2,0,0,0-1.832-2.409c-4.674-3.322-10.317-4.81-15.59-6.882a63.407,63.407,0,0,1-7.4-3.415q-1.576-.869-3.085-1.851c-.412-.269-.818-.546-1.22-.827a5.418,5.418,0,0,0-1.59-1.007,19.4,19.4,0,0,1-4.2-1.178,10.138,10.138,0,0,1-2.8-2.078,17.58,17.58,0,0,0,6.135,1.415c.213.006.425.01.638.01a20.079,20.079,0,0,0,6.739-1.163,24.967,24.967,0,0,0,11.812-9.528,32.461,32.461,0,0,0,5.153-11.718,42.523,42.523,0,0,0,.15-16.429c-1.755-9.756-7.192-21.013-17.676-23.566a18.591,18.591,0,0,0-4.4-.514,25.047,25.047,0,0,0-7.863,1.368,31.933,31.933,0,0,0-12.8,7.8c-7.126,7.259-10.227,17.732-10.644,27.7-.02.482-.019,1.923-.019,1.923l2.018,3.108s-3.822-2.553-6.031-2.955a4.081,4.081,0,0,0-.729-.068c-2.554,0-3.916,2.628-4.581,4.9a25.183,25.183,0,0,0-.7,8.181,62.044,62.044,0,0,0,1.138,9.007,103.316,103.316,0,0,0,5.11,17.539,71.126,71.126,0,0,0,3.8,8.345c1.359,2.493,2.949,5.221,5.232,6.985a4.008,4.008,0,0,0,2.345,1.006,2.245,2.245,0,0,0,.306-.021,3.608,3.608,0,0,0,2.4-1.451c1.649-2.229,1.7-5.536,1.842-8.187.146-2.71-.136-5.91,1.084-8.416a3.709,3.709,0,0,1,3.342-2.137,3.811,3.811,0,0,1,1.6.359c2.407,1.116,3.479,4.2,4.4,6.478a74.375,74.375,0,0,0,3.66,8.15c2.095,3.8,5.261,7.93,9.681,9.075a9.466,9.466,0,0,0,2.382.289,17.5,17.5,0,0,0,5.786-1.172,32.1,32.1,0,0,0,7.676-4.113A28.984,28.984,0,0,0,655.615,5228.359Zm-37.581-31.5a7.27,7.27,0,0,1-1.394.132,10.157,10.157,0,0,1-7.313-3.567c-1.125-1.277-2.145-3.078-1.6-4.82a5.093,5.093,0,0,1,.947-1.438q.779-1.023,1.584-2.025a37.716,37.716,0,0,1,4.354-4.728,7.985,7.985,0,0,1,5.013-2.327c.164,0,.328.009.494.026,3.548.371,5.016,4.219,5.153,7.345a12.813,12.813,0,0,1-2.044,7.012C622.072,5194.416,620.335,5196.349,618.034,5196.86Z" fill="url(#linear-gradient-10)"/>
                </g>
                <path id="Path_15381" data-name="Path 15381" d="M653.167,5225.273a11.653,11.653,0,0,0,1.417-2.079c.056-.173.043-.29.005-.314s-.035.012-.078-.074c.005-.029-.059-.1-.072-.157a6.46,6.46,0,0,0-2.685-2.182c-1.57-.894-3.22-1.6-4.88-2.359l.067-.251c2.837.347,8.489,1.08,10.023,3.8,1.135,2.322-1.558,4.315-3.708,3.861l-.089-.245Z" fill="#fff"/>
                <path id="Path_15382" data-name="Path 15382" d="M619.435,5144.648c12.164-5.157,26.046,1.185,27.472,14.938a37.251,37.251,0,0,0-4.573-7.258c-5.509-6.744-14.564-8.23-22.9-7.68Z" fill="#fff"/>
              </g>
            </g>
          </g>
          <g id="Group_6390" data-name="Group 6390">
            <path id="Path_15384" data-name="Path 15384" d="M604.787,5221.365a13.944,13.944,0,0,0-2.093-6.306,6.819,6.819,0,0,0-.847-1.1l-.022-.024-.006-.007a17.809,17.809,0,0,0-3.572-2.855,11.959,11.959,0,0,0-5.889-2.139c-.1,0-.2-.006-.307-.006a12.165,12.165,0,0,0-5.445,1.577c-.47.235-.937.476-1.4.717-.987.511-1.92.994-2.872,1.4a11.406,11.406,0,0,1-4.533.948,12.767,12.767,0,0,1-3.538-.527,24.115,24.115,0,0,1-7.728-4.055,31.212,31.212,0,0,1-10.8-14.294,17.078,17.078,0,0,1-.982-6.709h0a25.643,25.643,0,0,0,17.231,7.179,18.511,18.511,0,0,0,9.071-2.273,29.319,29.319,0,0,0,11.278-17.1c.14-4.807-1.7-9.9-5.325-14.722-5.745-7.648-14.783-13.83-24.8-16.96a43.908,43.908,0,0,0-12.892-2.063c-6.664,0-12.308,1.767-16.773,5.251a21.623,21.623,0,0,0-4.79,5.241,23.141,23.141,0,0,0-6.2,10.333c-1.068,3.63-1.066,7.894,0,13.038a63.969,63.969,0,0,0,5.315,14.864,115.673,115.673,0,0,0,7.791,13.511,144.4,144.4,0,0,0,20.048,24.013c4.114,3.956,8.423,6.8,12.058,10.075,4.451,4.014,9.716,8.142,14.607,7.117,1.286-.269,2.578.4,3.84.4a15.168,15.168,0,0,0,11.485-4.968,17.852,17.852,0,0,0,1.918-2.6,14.755,14.755,0,0,0,1.332-1.3A20.751,20.751,0,0,0,604.787,5221.365Z"/>
            <g id="Group_6389" data-name="Group 6389" clip-path="url(#clip-path-9)">
              <g id="Group_6388" data-name="Group 6388">
                <g id="Group_6387" data-name="Group 6387">
                  <path id="Path_15385" data-name="Path 15385" d="M599.9,5215.676c.032.036.063.073.094.109.158.179.435.492.436.492S600.3,5216.126,599.9,5215.676Z" fill="url(#linear-gradient-17)"/>
                  <path id="Path_15386" data-name="Path 15386" d="M602.2,5221.643a10.808,10.808,0,0,0-2.209-5.858c-.058-.066-.1-.11-.1-.117a15.353,15.353,0,0,0-3.051-2.414,9.379,9.379,0,0,0-4.582-1.727c-.069,0-.138,0-.207,0a9.79,9.79,0,0,0-4.286,1.305c-1.472.733-2.9,1.538-4.419,2.18a14.067,14.067,0,0,1-5.549,1.155,15.245,15.245,0,0,1-4.263-.63,26.79,26.79,0,0,1-8.572-4.479,33.927,33.927,0,0,1-11.688-15.518,18.743,18.743,0,0,1-.9-9.553,14.726,14.726,0,0,1,1.361-4c.127-.245.261-.487.4-.724.089-.149.435-.539.441-.705.008-.209-.443-.677-.563-.873q-.378-.617-.728-1.251a35.568,35.568,0,0,1-3.773-10.678,29.044,29.044,0,0,1-.592-7.3,52.065,52.065,0,0,0,2.881,9.28A35.66,35.66,0,0,0,559.8,5182.2a23.14,23.14,0,0,0,15.433,6.457,16.007,16.007,0,0,0,7.813-1.948,12.937,12.937,0,0,0,6.687-11c.139-4.789-1.983-9.33-4.8-13.086-5.733-7.632-14.443-13.21-23.492-16.039a41.183,41.183,0,0,0-12.117-1.945c-5.453,0-10.835,1.315-15.174,4.7A20.187,20.187,0,0,0,527.3,5159.7c-1.114,3.786-.738,7.968.054,11.774a61.708,61.708,0,0,0,5.109,14.259,112.519,112.519,0,0,0,7.616,13.2,141.968,141.968,0,0,0,19.686,23.581,101.469,101.469,0,0,0,11.755,9.824c4.106,2.9,8.659,5.663,13.637,6.7a16.346,16.346,0,0,0,3.311.348,12.507,12.507,0,0,0,9.548-4.1A18.044,18.044,0,0,0,602.2,5221.643Z" fill="url(#linear-gradient-18)"/>
                </g>
                <path id="Path_15387" data-name="Path 15387" d="M550.809,5146.934c10.162-.878,21.177,3.49,27.076,12,1.849,3.242,2.032,3.39-.763.658-7.448-6.595-16.792-10.1-26.313-12.658Z" fill="#fff"/>
                <path id="Path_15388" data-name="Path 15388" d="M552.677,5179.466a17.11,17.11,0,0,1-2.16,6.51,14.4,14.4,0,0,0-.837,6.7l-.25.074a12.219,12.219,0,0,1-1.055-6.354c.236-1.548.31-3.221,1.189-4.567a6.364,6.364,0,0,1,2.912-2.531l.2.164Z" fill="#fff"/>
                <path id="Path_15389" data-name="Path 15389" d="M583.956,5218.138c3.433-5.473,11.2-7.17,14.338-.489,1.029,2.092-.559.235-1.443-.118-4.693-3.245-8.106-.9-12.9.607Z" fill="#fff"/>
              </g>
            </g>
          </g>
          <g id="Group_6394" data-name="Group 6394">
            <path id="Path_15391" data-name="Path 15391" d="M1047.515,5153.448a11.357,11.357,0,0,0-1.1-1.5,12.467,12.467,0,0,0-1.129-1.3,26.836,26.836,0,0,0-19.66-8.268h-.283a20.891,20.891,0,0,0-6.63,1.049,28.065,28.065,0,0,0-5.649,2.743,50.507,50.507,0,0,0-9.276,7.533,70.926,70.926,0,0,0-5.78,6.6,74.728,74.728,0,0,0-10.6,15.432c-4.345,8.382-6.665,16-7.092,23.3a38.135,38.135,0,0,0,6.451,23.453,53.074,53.074,0,0,0,17.291,16.018c5.6,3.3,14.2,7.265,23.389,7.379l.39,0c4.687,0,8.138-1.117,10.551-3.414a11.173,11.173,0,0,0,2.248-3.063,10.549,10.549,0,0,0,1-.837c2.933-2.795,4.253-7.338,3.621-12.466-.29-2.352-1.43-8.147-5.743-11.148a6.762,6.762,0,0,0-3.849-1.286h-.126a9.127,9.127,0,0,0-2.924.664c-.272.1-.529.189-.75.253-.941.272-1.924.5-2.934.685a33.54,33.54,0,0,0,3.385-2.522,38.414,38.414,0,0,0,6.063-6.586,45.158,45.158,0,0,0,7.94-11.843,61.726,61.726,0,0,0,5.638-19.8C1052.562,5168.62,1052.226,5160.355,1047.515,5153.448Zm-43.453,47.148c-.019-.189-.035-.38-.047-.573a16.144,16.144,0,0,1,2.082-8.871,6.914,6.914,0,0,1,4.078-1.83c.105,0,.211,0,.315.014a2.911,2.911,0,0,1,2.443,3.332h0v.017h0a7.442,7.442,0,0,1-1.163,3.36A21.291,21.291,0,0,1,1004.062,5200.6Z"/>
            <g id="Group_6393" data-name="Group 6393" clip-path="url(#clip-path-10)">
              <g id="Group_6392" data-name="Group 6392">
                <g id="Group_6391" data-name="Group 6391">
                  <path id="Path_15392" data-name="Path 15392" d="M1043.608,5152.6s.2.26.766.969.778.966.78.966S1043.612,5152.6,1043.608,5152.6Z" fill="url(#linear-gradient-19)"/>
                  <path id="Path_15393" data-name="Path 15393" d="M1044.374,5153.574c-4.47-5.625-11.648-8.6-18.749-8.6h-.257a18.441,18.441,0,0,0-5.815.909,25.7,25.7,0,0,0-5.126,2.5,48.254,48.254,0,0,0-8.8,7.153,71.448,71.448,0,0,0-12.668,17.5c-3.589,6.922-6.347,14.411-6.8,22.254a35.607,35.607,0,0,0,6.022,21.863,50.3,50.3,0,0,0,16.446,15.217c6.591,3.89,14.358,6.922,22.1,7.018l.358,0c3.074,0,6.456-.505,8.757-2.7,2.725-2.595,3.275-6.694,2.835-10.265-.41-3.321-1.775-7.333-4.648-9.332a4.2,4.2,0,0,0-2.364-.82h-.071a12.247,12.247,0,0,0-3.007.815,34.738,34.738,0,0,1-5.692,1.125,41.706,41.706,0,0,1-4.783.278,38.66,38.66,0,0,1-6.489-.54,25,25,0,0,1-8.786-2.933,11.518,11.518,0,0,1-3.014-2.586c1.085.361,2.13.858,3.2,1.263a12.129,12.129,0,0,0,3.246.587c.929.082,1.864.122,2.8.122a33.485,33.485,0,0,0,4.909-.365,31.71,31.71,0,0,0,15.9-7.165,40.474,40.474,0,0,0,10.089-13.662,59.1,59.1,0,0,0,5.4-18.956C1050.108,5167.063,1049.024,5159.358,1044.374,5153.574Zm-25.615,35.688s0-.088.018-.328c-.174,3.032-2.075,5.721-4.088,7.875a23.8,23.8,0,0,1-9.843,6.266,14.167,14.167,0,0,1-4.4.91,6.607,6.607,0,0,1-1.013-.075,13.918,13.918,0,0,0,2.158-.877c.3-.187.228-.107.152-.465-.056-.262-.107-.525-.149-.79-.084-.527-.14-1.059-.174-1.591a18.627,18.627,0,0,1,1.165-7.645,17.277,17.277,0,0,1,4.48-6.754c1.725-1.573,3.961-2.966,6.36-2.966.182,0,.364.008.548.024a5.472,5.472,0,0,1,4.8,6.088c.015-.235.021-.321.021-.321Z" fill="url(#linear-gradient-20)"/>
                </g>
                <path id="Path_15394" data-name="Path 15394" d="M1026.334,5149.107c10.473-2.918,20.257,5.234,18.82,16.123a39.024,39.024,0,0,0-2.606-6.32c-3.142-6.135-9.631-8.856-16.214-9.8Z" fill="#fff"/>
                <path id="Path_15395" data-name="Path 15395" d="M1025.277,5221.392c1.415-.4,2.651-.732,3.862-1.166,1.913-.631,3.885-1.66,6.094-1.641,2.539,0,4.363,2.228,4.777,4.582-1.926-1.369-3.337-2.621-5.531-1.969-.222.04-.665.154-.881.222-2.515.778-5.811,1.353-8.321-.028Z" fill="#fff"/>
              </g>
            </g>
          </g>
          <g id="Group_6398" data-name="Group 6398">
            <path id="Path_15397" data-name="Path 15397" d="M994.86,5221.705a101.273,101.273,0,0,0-4.7-24.449c-.062-.217-.131-.435-.2-.652-.169-.531-.342-1.076-.36-1.13l-.583-1.8H989c-1-2.963-2.116-5.883-3.322-8.708l-.125-.291c-1.436-3.364-2.792-6.542-3.867-9.9-.5-1.573-.91-3.168-1.34-4.855-.494-1.943-1.006-3.951-1.681-5.928a10.565,10.565,0,0,0-3.293-5.215,12.063,12.063,0,0,0-6.076-2.088,32.091,32.091,0,0,0-3.826-.232,26.148,26.148,0,0,0-17.558,6.331,28.91,28.91,0,0,0-4.652,5.226q-.787.793-1.515,1.652a52.979,52.979,0,0,0-7.869-10.575,51.451,51.451,0,0,0-21.6-13.682,36.309,36.309,0,0,0-10.867-1.742,24.032,24.032,0,0,0-15.045,4.819,22.806,22.806,0,0,0-4.82,5.282,27.943,27.943,0,0,0-6.138,9.228,47.066,47.066,0,0,0-3.425,12.607,68.006,68.006,0,0,0,2.081,26.125,101.421,101.421,0,0,0,9.494,23.455,86.252,86.252,0,0,0,6.591,10.23,56.018,56.018,0,0,0,4.277,5.035,22.15,22.15,0,0,0,5.366,4.36,10.668,10.668,0,0,0,5.179,1.069c.266,0,.533,0,.8-.008a14.559,14.559,0,0,0,6.518-1.8,16.877,16.877,0,0,0,5.056-4.212c.322-.39.636-.8.931-1.223l.022-.027a4.248,4.248,0,0,0,.463-.724q.642-.584,1.247-1.249.57.524,1.141,1.018a27.705,27.705,0,0,0,11.82,6.479,18.719,18.719,0,0,0,4.182.477,21.23,21.23,0,0,0,12.044-4.013,30.065,30.065,0,0,0,7.114-7.213q.52-.537,1.012-1.092c0,.023,0,.045,0,.068a3.655,3.655,0,0,0,.726,1.824l.038.056c.246.431.505.855.768,1.262a24.468,24.468,0,0,0,3.143,3.94,21.7,21.7,0,0,0,15.273,6.428,18.96,18.96,0,0,0,6.4-1.094,10.888,10.888,0,0,0,4.9-3.217,9.893,9.893,0,0,0,1.32-2.161,8.974,8.974,0,0,0,1.93-1.739,11.858,11.858,0,0,0,2.14-4.447A36.245,36.245,0,0,0,994.86,5221.705Z"/>
            <g id="Group_6397" data-name="Group 6397" clip-path="url(#clip-path-11)">
              <g id="Group_6396" data-name="Group 6396">
                <g id="Group_6395" data-name="Group 6395">
                  <path id="Path_15398" data-name="Path 15398" d="M989.806,5236.027a9.6,9.6,0,0,0,1.652-3.5,33.392,33.392,0,0,0,.8-10.679,101.372,101.372,0,0,0-4.982-25.075c-1.156-3.65-2.487-7.256-3.991-10.778-1.468-3.441-2.932-6.843-4.075-10.413-1.134-3.539-1.805-7.219-3.006-10.735a8.181,8.181,0,0,0-2.419-4,9.713,9.713,0,0,0-4.8-1.567,29.58,29.58,0,0,0-3.516-.213,23.633,23.633,0,0,0-15.844,5.685,26.3,26.3,0,0,0-5.643,7.027,3.591,3.591,0,0,0-.487.921c-.034.349.4,1.053.524,1.394.335.936.63,1.885.893,2.843a43.885,43.885,0,0,1,1.116,5.381,42.233,42.233,0,0,1-2.428,20.7,44.792,44.792,0,0,0,.275-21.054A46.842,46.842,0,0,0,932,5160.9a49.173,49.173,0,0,0-20.5-13,33.989,33.989,0,0,0-10.087-1.622,21.385,21.385,0,0,0-13.439,4.264,23.936,23.936,0,0,0-6.929,9.6,44.464,44.464,0,0,0-3.232,11.91,65.875,65.875,0,0,0,2.017,25.125,98.868,98.868,0,0,0,9.253,22.853,84.16,84.16,0,0,0,6.392,9.925,53.088,53.088,0,0,0,4.076,4.8,19.827,19.827,0,0,0,4.721,3.872,8.134,8.134,0,0,0,3.951.761c.253,0,.506,0,.759-.007a11.961,11.961,0,0,0,5.339-1.5,14.407,14.407,0,0,0,4.272-3.573q.425-.513.806-1.058a2.666,2.666,0,0,0,.3-.447c.121-.292.022-.311-.2-.574q-1.014-1.217-1.954-2.492a75.706,75.706,0,0,1-10.809-21.581c-.434-1.333-.841-2.694-1.145-4.063a147.647,147.647,0,0,0,12,18.53,63.422,63.422,0,0,0,8.5,9.169,25.547,25.547,0,0,0,10.7,5.913,16.066,16.066,0,0,0,3.6.411,18.564,18.564,0,0,0,10.563-3.55c4.922-3.413,8.3-8.843,10.9-14.113a109.662,109.662,0,0,0,7.76-22.252c.136-.551.266-1.1.4-1.657a53.243,53.243,0,0,1-.295,8.43,73.956,73.956,0,0,1-1.776,10.452,58.413,58.413,0,0,1-3.56,10.364q-.314.683-.648,1.356c-.132.265-.6.857-.582,1.13.016.219.295.547.407.742q.341.6.714,1.176a21.765,21.765,0,0,0,2.806,3.522,19.249,19.249,0,0,0,13.428,5.66,16.392,16.392,0,0,0,5.529-.942A8.444,8.444,0,0,0,989.806,5236.027Z" fill="url(#linear-gradient-13)"/>
                  <path id="Path_15399" data-name="Path 15399" d="M987.124,5196.273l.157.5c.391,1.231.526,1.656.527,1.656Z" fill="url(#linear-gradient-22)"/>
                </g>
                <path id="Path_15400" data-name="Path 15400" d="M962.564,5161.527c3.647-.918,10.172-.726,11.3,3.805a38.92,38.92,0,0,0,3.567,12.257l-.221.137a32.877,32.877,0,0,1-5.5-11.11,2.583,2.583,0,0,0-1.156-1.727c-2.334-1.537-5.2-2.1-7.987-3.1l0-.26Z" fill="#fff"/>
                <path id="Path_15401" data-name="Path 15401" d="M886.889,5160c1.149-5.8,6.718-10.211,12.486-11.017a22.2,22.2,0,0,1,8.707.416,27.226,27.226,0,0,1,7.86,3.291c-5.381-.957-10.793-2.019-16.146-1.142A18.636,18.636,0,0,0,886.889,5160Z" fill="#fff"/>
                <path id="Path_15402" data-name="Path 15402" d="M934.959,5169.58c4.209,3.736,6.254,9.286,6.976,14.739a43.747,43.747,0,0,1,.649,8.2,49.122,49.122,0,0,1-.8,8.112l-.258-.031.026-2.02a50.688,50.688,0,0,0-2.2-15.718c-1.061-2.864-2.284-6.388-3.256-9.305l-1.344-3.818.21-.154Z" fill="#fff"/>
                <path id="Path_15403" data-name="Path 15403" d="M950.9,5227.861c.47,6.893-7.778,9.978-13.064,6.479,1.379-.289,2.694-.376,4.019-.628a12.926,12.926,0,0,0,9.045-5.851Z" fill="#fff"/>
                <path id="Path_15404" data-name="Path 15404" d="M989,5224.106c2.025,4.134.255,9.789-4.171,11.553-2.55.906-5.365.042-7.561-1.162l.1-.241c2.821.786,6.467,1.035,8.284-1.531.848-1.167,1.051-2.647,1.544-4.009.465-1.4.986-3.2,1.548-4.593l.259-.017Z" fill="#fff"/>
                <path id="Path_15405" data-name="Path 15405" d="M917.015,5234.484a6.716,6.716,0,0,1-3.459-2.316c-1.253-1.472-1.8-3.567-2.662-5.266-.739-1.806-1.4-3.64-1.972-5.5l.234-.112,4.336,6.362a17,17,0,0,1,3.667,6.619l-.144.216Z" fill="#fff"/>
              </g>
            </g>
          </g>
        </g>
      </g>
    </g>
  </g>
</svg>
