<svg xmlns="http://www.w3.org/2000/svg" xmlns:xlink="http://www.w3.org/1999/xlink" width="233.496" height="114.81" viewBox="0 0 233.496 114.81">
  <defs>
    <clipPath id="clip-path">
      <path id="Path_21130" data-name="Path 21130" d="M1075.347,4053.124v-.021l0-.022a5.758,5.758,0,0,0-4.489-4.917,8.044,8.044,0,0,0-2.156-.3,6.8,6.8,0,0,0-1.473.157,4.007,4.007,0,0,0-1.653.738,6.459,6.459,0,0,0-1.464,1.726,8.552,8.552,0,0,0-1.982,2.744,25.833,25.833,0,0,0-1.332,3.108c-.212.585-.406,1.172-.591,1.759a29.669,29.669,0,0,0-4.717-7.125,7.923,7.923,0,0,0-4.048-2.533,4.792,4.792,0,0,0-.954-.1,5.822,5.822,0,0,0-3.187,1.03,15.638,15.638,0,0,0-3.507,3.356q-.2.249-.4.511c-.357.391-.681.777-.967,1.131-.221.274-.443.563-.665.857a3.28,3.28,0,0,0-.13-.4c-.013-.031-.025-.06-.034-.086a50.553,50.553,0,0,0-1.719-4.977,23.366,23.366,0,0,0-2.844-5.274,9.259,9.259,0,0,0-2.119-2.118,7.171,7.171,0,0,0-2.756-1.089,17.8,17.8,0,0,0-3.522-.319c-.78,0-1.616.037-2.556.117a37.179,37.179,0,0,0-5.8.943,23.358,23.358,0,0,0-5.674,2.1,8.255,8.255,0,0,0-2.481,1.934,3.678,3.678,0,0,0-.468.748,6.157,6.157,0,0,0-.9.894,3.83,3.83,0,0,0-.817,1.959,12.819,12.819,0,0,0,.231,4.465,37.754,37.754,0,0,0,4.8,11.244,99.117,99.117,0,0,0,6.879,9.887c1.38,1.789,2.646,3.332,3.87,4.714a24.373,24.373,0,0,0,4.336,4.057,8.36,8.36,0,0,0,2.8,1.3,6.952,6.952,0,0,0,1.612.183,9.039,9.039,0,0,0,1.615-.154,17.586,17.586,0,0,0,5.683-2.178,30.292,30.292,0,0,0,5.592-4.328c.053.054.1.106.155.155l.061.06c.177.2.365.412.555.615a16.8,16.8,0,0,0,6.176,4.333,11.463,11.463,0,0,0,3.895.725h.057a3.935,3.935,0,0,0,1.5-.419,6.954,6.954,0,0,0,1.523-1.078,15.109,15.109,0,0,0,2.017-2.274,17.7,17.7,0,0,0,1.544-1.879,43.3,43.3,0,0,0,3.459-5.882,101.917,101.917,0,0,0,5.461-12.928c.5-1.471.874-2.693,1.164-3.845A11.2,11.2,0,0,0,1075.347,4053.124Z" transform="translate(-1009.829 -4040.962)"/>
    </clipPath>
    <linearGradient id="linear-gradient" x1="0.5" y1="0.214" x2="0.5" y2="0.72" gradientUnits="objectBoundingBox">
      <stop offset="0" stop-color="#00ffd5"/>
      <stop offset="1" stop-color="#01cb2d"/>
    </linearGradient>
    <clipPath id="clip-path-2">
      <path id="Path_21136" data-name="Path 21136" d="M1021.913,4046.419a4.844,4.844,0,0,0-.463-.633,5.348,5.348,0,0,0-.475-.549,11.3,11.3,0,0,0-8.279-3.481h-.119a8.8,8.8,0,0,0-2.793.442,11.859,11.859,0,0,0-2.379,1.155,21.253,21.253,0,0,0-3.907,3.173,30,30,0,0,0-2.434,2.78,31.545,31.545,0,0,0-4.465,6.5,24.408,24.408,0,0,0-2.986,9.811,16.061,16.061,0,0,0,2.717,9.877,22.35,22.35,0,0,0,7.282,6.745,20.681,20.681,0,0,0,9.849,3.107h.164a6.155,6.155,0,0,0,4.443-1.437,4.687,4.687,0,0,0,.947-1.29,4.518,4.518,0,0,0,.422-.353,6.1,6.1,0,0,0,1.524-5.25c-.121-.99-.6-3.43-2.418-4.695a2.851,2.851,0,0,0-1.621-.542h-.053a3.809,3.809,0,0,0-1.232.279c-.114.041-.223.079-.315.107-.4.114-.81.209-1.236.287a14.049,14.049,0,0,0,1.426-1.061,16.271,16.271,0,0,0,2.553-2.774,19.032,19.032,0,0,0,3.344-4.988,26.01,26.01,0,0,0,2.374-8.338A13.353,13.353,0,0,0,1021.913,4046.419Zm-18.3,19.855c-.008-.08-.016-.16-.021-.242a6.763,6.763,0,0,1,.424-2.767,6.615,6.615,0,0,1,.454-.969,2.914,2.914,0,0,1,1.717-.77,1.317,1.317,0,0,1,.132.006,1.224,1.224,0,0,1,1.029,1.4h0v.007h0a3.132,3.132,0,0,1-.49,1.415A8.969,8.969,0,0,1,1003.615,4066.274Z" transform="translate(-993.585 -4041.756)"/>
    </clipPath>
    <linearGradient id="linear-gradient-2" x1="0.499" y1="-5.188" x2="0.499" y2="27.072" xlink:href="#linear-gradient"/>
    <linearGradient id="linear-gradient-3" x1="0.5" y1="-0.025" x2="0.5" y2="0.635" xlink:href="#linear-gradient"/>
    <clipPath id="clip-path-3">
      <path id="Path_21142" data-name="Path 21142" d="M1007.2,4075.174a2.786,2.786,0,0,0-1.16-1.629c-.078-.059-.162-.119-.255-.184a3.1,3.1,0,0,0-.634-.4,24.742,24.742,0,0,0-4.313-1.869c-.543-.2-1.1-.4-1.64-.608a26.133,26.133,0,0,1-2.744-1.25,12.146,12.146,0,0,0,3.9-3.6,13.506,13.506,0,0,0,1.458-1.768,14.785,14.785,0,0,0,2.341-5.328,18.837,18.837,0,0,0,.07-7.343,17.58,17.58,0,0,0-2.509-6.512,9.715,9.715,0,0,0-5.754-4.282,8.913,8.913,0,0,0-2.113-.248,11.618,11.618,0,0,0-3.656.632,13.948,13.948,0,0,0-7.236,5.246,17.925,17.925,0,0,0-4.606,10.513,2.981,2.981,0,0,0-2.353,1.974,4.007,4.007,0,0,0-1.683,2.5,11.777,11.777,0,0,0-.337,3.8,27.18,27.18,0,0,0,.5,3.952,44.77,44.77,0,0,0,2.205,7.573,31.021,31.021,0,0,0,1.66,3.642,10.169,10.169,0,0,0,2.5,3.283,2.726,2.726,0,0,0,1.657.652,2,2,0,0,0,.273-.018,2.624,2.624,0,0,0,1.749-1.046,4.026,4.026,0,0,0,.489-.883,2.659,2.659,0,0,0,.879-.76,6.814,6.814,0,0,0,.977-3.806l.012-.233c.015-.274.019-.557.024-.83,0-.175.007-.354.013-.529a6.472,6.472,0,0,1,.788,1.567l.089.221.053.132a31.173,31.173,0,0,0,1.545,3.418c1.331,2.415,2.932,3.879,4.761,4.353a5.112,5.112,0,0,0,1.278.156,8.354,8.354,0,0,0,2.806-.557,14.623,14.623,0,0,0,3.5-1.871,13.293,13.293,0,0,0,2.821-2.639c.135-.173.277-.365.416-.569a11.145,11.145,0,0,0,.952-1.073C1006.633,4078.044,1007.542,4076.652,1007.2,4075.174ZM989,4063.953a2.027,2.027,0,0,1-.363.032,3.176,3.176,0,0,1-2.258-1.131,1.376,1.376,0,0,1-.456-.952c.025-.036.078-.1.115-.149s.079-.1.117-.147c.076-.1.147-.191.219-.285a10.371,10.371,0,0,1,.765-.758,2.339,2.339,0,0,1,1.387-.706.812.812,0,0,1,.1,0c.874.092,1.16,1.381,1.19,2.052a3.935,3.935,0,0,1-.468,1.9A1.453,1.453,0,0,1,989,4063.953Z" transform="translate(-973.956 -4040.156)"/>
    </clipPath>
    <linearGradient id="linear-gradient-4" x1="0.5" y1="-56.245" x2="0.5" y2="-3.809" xlink:href="#linear-gradient"/>
    <linearGradient id="linear-gradient-5" x1="0.5" y1="0.119" x2="0.5" y2="0.741" xlink:href="#linear-gradient"/>
    <clipPath id="clip-path-4">
      <path id="Path_21149" data-name="Path 21149" d="M987.988,4075.044a5.879,5.879,0,0,0-.881-2.656,2.87,2.87,0,0,0-.357-.466l-.008-.01,0,0a7.48,7.48,0,0,0-1.5-1.2,5.034,5.034,0,0,0-2.48-.9l-.129,0a5.12,5.12,0,0,0-2.293.664c-.2.1-.395.2-.591.3-.416.216-.809.419-1.21.588a4.785,4.785,0,0,1-1.908.4,5.352,5.352,0,0,1-1.49-.222,10.117,10.117,0,0,1-3.255-1.708,13.13,13.13,0,0,1-4.548-6.019,7.2,7.2,0,0,1-.414-2.825h0a10.8,10.8,0,0,0,7.257,3.022,7.8,7.8,0,0,0,3.82-.956,12.354,12.354,0,0,0,4.749-7.2,9.973,9.973,0,0,0-2.243-6.2,21.1,21.1,0,0,0-10.441-7.142,18.491,18.491,0,0,0-5.429-.869,11.179,11.179,0,0,0-7.064,2.211,9.156,9.156,0,0,0-2.018,2.207,9.743,9.743,0,0,0-2.61,4.352,11.237,11.237,0,0,0,0,5.49,26.925,26.925,0,0,0,2.238,6.259,48.728,48.728,0,0,0,3.281,5.69,60.8,60.8,0,0,0,8.443,10.113c1.733,1.666,3.547,2.861,5.078,4.242,1.875,1.69,4.092,3.429,6.152,3,.542-.113,1.085.169,1.617.169a6.381,6.381,0,0,0,4.836-2.092,7.446,7.446,0,0,0,.809-1.093,6.3,6.3,0,0,0,.561-.55A8.736,8.736,0,0,0,987.988,4075.044Z" transform="translate(-952.601 -4041.638)"/>
    </clipPath>
    <linearGradient id="linear-gradient-6" x1="0.5" y1="-130.741" x2="0.5" y2="-26.842" xlink:href="#linear-gradient"/>
    <linearGradient id="linear-gradient-7" x1="0.5" y1="-0.079" x2="0.5" y2="0.58" xlink:href="#linear-gradient"/>
    <clipPath id="clip-path-5">
      <path id="Path_21159" data-name="Path 21159" d="M1105.444,4111.7a11.668,11.668,0,0,0-.8-1.2,5.379,5.379,0,0,0-.39-.493c-.148-.176-.268-.317-.383-.428a13.842,13.842,0,0,0-8.381-4.029,12.251,12.251,0,0,0,1.608-1.833,12.139,12.139,0,0,0,3.651-9.282,8.3,8.3,0,0,0-1.535-4.474,6.938,6.938,0,0,0-4.2-2.585,8.253,8.253,0,0,0-1.547-.171,9.484,9.484,0,0,0-6.8,2.967,12.705,12.705,0,0,0-1.213,1.448c-.06.058-.121.114-.18.174a12.912,12.912,0,0,0-1.03,1.2c-.729-.07-1.444-.112-2.122-.123a20.323,20.323,0,0,0-3.233.2,10.854,10.854,0,0,0-5.784,2.423,7.819,7.819,0,0,0-1.34,1.579c-.017.014-.036.027-.053.043a9.213,9.213,0,0,0-2.8,5.6,9.763,9.763,0,0,0,1.2,6.322,10.382,10.382,0,0,0,4.585,4.012c.408.193.841.375,1.287.539.018.007.038.018.06.028a2.877,2.877,0,0,0,.4.163l-.04.059c-.037.034-.075.066-.111.1a8.041,8.041,0,0,0-2.309,3.789,9.264,9.264,0,0,0,.074,4.745,15.126,15.126,0,0,0,4.479,7.083,17.821,17.821,0,0,0,7.184,4.043,15.571,15.571,0,0,0,4.021.579,17.193,17.193,0,0,0,12-4.636,14.129,14.129,0,0,0,1.672-1.9,13.16,13.16,0,0,0,3.739-7.074A13.587,13.587,0,0,0,1105.444,4111.7Z" transform="translate(-1068.8 -4087.2)"/>
    </clipPath>
    <linearGradient id="linear-gradient-8" x1="0.5" y1="-23.69" x2="0.5" y2="14.185" xlink:href="#linear-gradient"/>
    <linearGradient id="linear-gradient-9" x1="0.5" y1="0.132" x2="0.5" y2="0.732" xlink:href="#linear-gradient"/>
    <clipPath id="clip-path-6">
      <path id="Path_21168" data-name="Path 21168" d="M1049.952,4116.184a18.3,18.3,0,0,0-4.259-9.412,15.645,15.645,0,0,0-1.309-1.311,4.445,4.445,0,0,0-.4-.348l-.183-.146a17.95,17.95,0,0,0-10.693-3.709c-.115,0-.23,0-.344,0a16.688,16.688,0,0,0-4.476.616c.116-.311.217-.624.3-.934a7.833,7.833,0,0,0-1.342-7.125,8.738,8.738,0,0,0-4.16-2.92,9.942,9.942,0,0,0-3.045-.452,14.878,14.878,0,0,0-4.451.739l-.307.1a4.477,4.477,0,0,0-2.287-.673c-.123,0-.248.006-.369.018a3.965,3.965,0,0,0-2.622,1.415,6.335,6.335,0,0,0-.723,1.032,4.671,4.671,0,0,0-.646.611,9.544,9.544,0,0,0-1.918,5,28.656,28.656,0,0,0-.161,5.675,45.2,45.2,0,0,0,2.1,11.022,55.125,55.125,0,0,0,4.334,10.085,38.171,38.171,0,0,0,3.034,4.762,9.117,9.117,0,0,0,.925,1.069,3.248,3.248,0,0,0,.624.491,1.343,1.343,0,0,0,.691.2,1.307,1.307,0,0,0,.845-.331,7.192,7.192,0,0,0,1.066-1.157c.179-.227.349-.441.521-.62a4.848,4.848,0,0,1,1.4-1.04,2.477,2.477,0,0,1,1.07-.249,2.712,2.712,0,0,1,.622.077,13.115,13.115,0,0,1,3.348,1.555c.336.195.682.4,1.028.586a23.611,23.611,0,0,0,5.247,2.243,13.926,13.926,0,0,0,3.54.47,12.718,12.718,0,0,0,2.3-.209,12.858,12.858,0,0,0,3.743-1.275,9.842,9.842,0,0,0,3.478-3.2,10.642,10.642,0,0,0,1.605-2A15.82,15.82,0,0,0,1049.952,4116.184Zm-24.91,4.126c-.028,0-.055,0-.083,0a2.474,2.474,0,0,1-1.9-1.2,2.306,2.306,0,0,1-.385-1.043,3.617,3.617,0,0,1,1.249-.235,2.607,2.607,0,0,1,.509.048,1.5,1.5,0,0,1,1.068.78,2.948,2.948,0,0,1,.3,1.518A2.383,2.383,0,0,1,1025.042,4120.311Zm-9.757-15.833c.6.332.489,1.394.457,1.626a6.4,6.4,0,0,1-.255,1.018,4.566,4.566,0,0,1-.383-1.819,4.21,4.21,0,0,1,.088-.864A.573.573,0,0,1,1015.285,4104.477Z" transform="translate(-1006.49 -4090.439)"/>
    </clipPath>
    <linearGradient id="linear-gradient-10" x1="0.5" y1="-33.617" x2="0.5" y2="23.507" xlink:href="#linear-gradient"/>
    <linearGradient id="linear-gradient-11" x1="0.506" y1="-138.512" x2="0.506" y2="-11.443" xlink:href="#linear-gradient"/>
    <linearGradient id="linear-gradient-12" x1="0.5" y1="-0.032" x2="0.5" y2="0.637" xlink:href="#linear-gradient"/>
    <clipPath id="clip-path-7">
      <path id="Path_21174" data-name="Path 21174" d="M1084.592,4123.43a2.784,2.784,0,0,0-1.16-1.628c-.078-.059-.163-.12-.255-.185a3.129,3.129,0,0,0-.634-.395,24.784,24.784,0,0,0-4.314-1.87c-.542-.2-1.1-.4-1.64-.607a26.281,26.281,0,0,1-2.745-1.249,12.142,12.142,0,0,0,3.9-3.6,13.564,13.564,0,0,0,1.458-1.767,14.787,14.787,0,0,0,2.341-5.328,18.862,18.862,0,0,0,.07-7.344,17.577,17.577,0,0,0-2.509-6.51,9.722,9.722,0,0,0-5.754-4.283,8.971,8.971,0,0,0-2.113-.248,11.608,11.608,0,0,0-3.657.633,14.412,14.412,0,0,0-5.823,3.557,14.221,14.221,0,0,0-1.413,1.689,17.916,17.916,0,0,0-4.606,10.513,2.98,2.98,0,0,0-2.354,1.975,4.006,4.006,0,0,0-1.683,2.5,11.787,11.787,0,0,0-.337,3.8,27.171,27.171,0,0,0,.5,3.952,44.775,44.775,0,0,0,2.205,7.572,31.124,31.124,0,0,0,1.66,3.643,10.194,10.194,0,0,0,2.5,3.283,2.729,2.729,0,0,0,1.657.652,1.962,1.962,0,0,0,.273-.019,2.629,2.629,0,0,0,1.749-1.045,4.053,4.053,0,0,0,.489-.884,2.667,2.667,0,0,0,.88-.759,6.83,6.83,0,0,0,.977-3.807l.012-.233c.014-.274.019-.556.024-.829,0-.177.007-.354.013-.529a6.5,6.5,0,0,1,.788,1.565l.089.222.053.132a31.1,31.1,0,0,0,1.545,3.419c1.331,2.415,2.932,3.879,4.761,4.353a5.112,5.112,0,0,0,1.278.157,8.335,8.335,0,0,0,2.806-.558,14.637,14.637,0,0,0,3.5-1.87,13.312,13.312,0,0,0,2.821-2.639c.135-.174.277-.364.415-.568a11.662,11.662,0,0,0,.953-1.074C1084.026,4126.3,1084.934,4124.908,1084.592,4123.43Zm-18.195-11.22a2.023,2.023,0,0,1-.363.032,3.172,3.172,0,0,1-2.258-1.131,1.38,1.38,0,0,1-.456-.952c.025-.037.078-.1.116-.149s.079-.1.117-.148l.219-.284a10.43,10.43,0,0,1,.765-.757,2.335,2.335,0,0,1,1.387-.708c.032,0,.064,0,.1,0,.873.092,1.16,1.383,1.19,2.053a3.937,3.937,0,0,1-.468,1.9A1.485,1.485,0,0,1,1066.4,4112.209Z" transform="translate(-1051.349 -4088.411)"/>
    </clipPath>
    <linearGradient id="linear-gradient-13" x1="0.5" y1="-56.212" x2="0.5" y2="-3.808" xlink:href="#linear-gradient"/>
    <linearGradient id="linear-gradient-14" x1="0.5" y1="0.119" x2="0.5" y2="0.741" xlink:href="#linear-gradient"/>
    <clipPath id="clip-path-8">
      <path id="Path_21180" data-name="Path 21180" d="M1061.231,4094.675a4.729,4.729,0,0,0-.464-.633,5.138,5.138,0,0,0-.475-.548,11.3,11.3,0,0,0-8.279-3.482h-.119a8.783,8.783,0,0,0-2.792.441,11.782,11.782,0,0,0-2.38,1.155,21.3,21.3,0,0,0-3.906,3.172,29.7,29.7,0,0,0-2.434,2.781,31.452,31.452,0,0,0-4.465,6.5,24.432,24.432,0,0,0-2.987,9.812,16.062,16.062,0,0,0,2.717,9.875,22.348,22.348,0,0,0,7.282,6.745,20.668,20.668,0,0,0,9.849,3.108l.165,0a6.159,6.159,0,0,0,4.443-1.438,4.716,4.716,0,0,0,.947-1.29,4.563,4.563,0,0,0,.421-.353,6.1,6.1,0,0,0,1.526-5.25c-.123-.991-.6-3.432-2.418-4.695a2.848,2.848,0,0,0-1.622-.542h-.053a3.825,3.825,0,0,0-1.231.281c-.114.041-.223.079-.316.105-.4.114-.81.209-1.234.289a14,14,0,0,0,1.425-1.062,16.126,16.126,0,0,0,2.553-2.773,18.977,18.977,0,0,0,3.344-4.987,25.982,25.982,0,0,0,2.375-8.339A13.369,13.369,0,0,0,1061.231,4094.675Zm-18.3,19.854c-.009-.08-.015-.161-.021-.241a6.8,6.8,0,0,1,.877-3.735,2.915,2.915,0,0,1,1.718-.771c.043,0,.088,0,.132.006a1.227,1.227,0,0,1,1.029,1.4h0v.008h0a3.121,3.121,0,0,1-.49,1.415A8.954,8.954,0,0,1,1042.932,4114.529Z" transform="translate(-1032.903 -4090.011)"/>
    </clipPath>
    <linearGradient id="linear-gradient-15" x1="0.5" y1="-5.179" x2="0.5" y2="27.034" xlink:href="#linear-gradient"/>
    <clipPath id="clip-path-9">
      <path id="Path_21190" data-name="Path 21190" d="M1021.81,4123.326a42.685,42.685,0,0,0-1.979-10.3c-.027-.092-.055-.184-.084-.274-.071-.224-.144-.454-.152-.476l-.245-.756h0c-.422-1.248-.892-2.477-1.4-3.667l-.052-.124c-.605-1.416-1.177-2.754-1.629-4.166-.212-.663-.384-1.334-.564-2.044-.208-.818-.424-1.664-.708-2.5a4.464,4.464,0,0,0-1.387-2.2,5.081,5.081,0,0,0-2.559-.88,13.447,13.447,0,0,0-1.611-.1,11.01,11.01,0,0,0-7.394,2.665,12.168,12.168,0,0,0-1.959,2.2q-.332.334-.639.7a22.239,22.239,0,0,0-3.314-4.453,21.656,21.656,0,0,0-9.1-5.762,15.265,15.265,0,0,0-4.576-.734,10.119,10.119,0,0,0-6.336,2.03,9.551,9.551,0,0,0-2.03,2.225,11.744,11.744,0,0,0-2.585,3.886,19.765,19.765,0,0,0-1.443,5.309,28.645,28.645,0,0,0,.876,11,42.714,42.714,0,0,0,4,9.877,36.282,36.282,0,0,0,2.776,4.308,23.318,23.318,0,0,0,1.8,2.12,9.305,9.305,0,0,0,2.26,1.838,4.506,4.506,0,0,0,2.181.45c.112,0,.224,0,.336,0a6.141,6.141,0,0,0,2.746-.757,7.072,7.072,0,0,0,2.128-1.775c.136-.163.268-.336.392-.514l.01-.012a1.72,1.72,0,0,0,.195-.3c.18-.165.356-.339.526-.527q.24.22.48.43a11.671,11.671,0,0,0,4.978,2.728,7.843,7.843,0,0,0,1.762.2,8.941,8.941,0,0,0,5.071-1.689,12.661,12.661,0,0,0,3-3.038c.146-.151.289-.3.426-.46a.227.227,0,0,0,0,.029,1.538,1.538,0,0,0,.306.768l.016.024c.1.181.213.36.324.53a10.224,10.224,0,0,0,1.323,1.659,9.137,9.137,0,0,0,6.432,2.708,8,8,0,0,0,2.7-.46,4.6,4.6,0,0,0,2.065-1.354,4.209,4.209,0,0,0,.555-.911,3.819,3.819,0,0,0,.813-.732,4.985,4.985,0,0,0,.9-1.873A15.247,15.247,0,0,0,1021.81,4123.326Z" transform="translate(-969.862 -4090.466)"/>
    </clipPath>
    <linearGradient id="linear-gradient-17" x1="0.5" y1="0.209" x2="0.5" y2="0.904" xlink:href="#linear-gradient"/>
    <linearGradient id="linear-gradient-18" x1="0.5" y1="-14.197" x2="0.5" y2="15.886" xlink:href="#linear-gradient"/>
    <clipPath id="clip-path-10">
      <path id="Path_21196" data-name="Path 21196" d="M982.478,4094.675a4.729,4.729,0,0,0-.464-.633,5.125,5.125,0,0,0-.475-.548,11.3,11.3,0,0,0-8.279-3.482h-.119a8.783,8.783,0,0,0-2.792.441,11.779,11.779,0,0,0-2.38,1.155,21.3,21.3,0,0,0-3.906,3.172,29.715,29.715,0,0,0-2.434,2.781,31.449,31.449,0,0,0-4.465,6.5,24.414,24.414,0,0,0-2.986,9.812,16.063,16.063,0,0,0,2.716,9.875,22.35,22.35,0,0,0,7.282,6.745,20.668,20.668,0,0,0,9.851,3.108l.164,0a6.159,6.159,0,0,0,4.443-1.438,4.718,4.718,0,0,0,.947-1.29,4.579,4.579,0,0,0,.421-.353,6.1,6.1,0,0,0,1.526-5.25c-.123-.991-.6-3.432-2.419-4.695a2.844,2.844,0,0,0-1.622-.542h-.053a3.824,3.824,0,0,0-1.231.281c-.114.041-.223.079-.316.105-.4.114-.81.209-1.234.289a14,14,0,0,0,1.424-1.062,16.127,16.127,0,0,0,2.553-2.773,18.948,18.948,0,0,0,3.344-4.987,25.985,25.985,0,0,0,2.375-8.339A13.369,13.369,0,0,0,982.478,4094.675Zm-18.3,19.854c-.008-.08-.014-.161-.019-.241a6.79,6.79,0,0,1,.876-3.735,2.914,2.914,0,0,1,1.718-.771c.043,0,.089,0,.132.006a1.226,1.226,0,0,1,1.029,1.4h0v.008h0a3.129,3.129,0,0,1-.489,1.415A8.965,8.965,0,0,1,964.179,4114.529Z" transform="translate(-954.15 -4090.011)"/>
    </clipPath>
    <linearGradient id="linear-gradient-19" x1="0.5" y1="-5.179" x2="0.5" y2="27.034" xlink:href="#linear-gradient"/>
    <clipPath id="clip-path-11">
      <path id="Path_21206" data-name="Path 21206" d="M968.037,4123.326a42.688,42.688,0,0,0-1.979-10.3c-.026-.092-.055-.184-.084-.274-.071-.224-.144-.454-.152-.476l-.245-.756h0c-.422-1.248-.892-2.477-1.4-3.667l-.053-.124c-.6-1.416-1.176-2.754-1.628-4.166-.212-.663-.384-1.334-.564-2.044-.208-.818-.424-1.664-.707-2.5a4.464,4.464,0,0,0-1.387-2.2,5.081,5.081,0,0,0-2.559-.88,13.447,13.447,0,0,0-1.611-.1,11.011,11.011,0,0,0-7.394,2.665,12.173,12.173,0,0,0-1.959,2.2q-.332.334-.639.7a22.243,22.243,0,0,0-3.314-4.453,21.657,21.657,0,0,0-9.1-5.762,15.264,15.264,0,0,0-4.576-.734,10.119,10.119,0,0,0-6.336,2.03,9.551,9.551,0,0,0-2.03,2.225,11.744,11.744,0,0,0-2.585,3.886,19.767,19.767,0,0,0-1.443,5.309,28.647,28.647,0,0,0,.876,11,42.72,42.72,0,0,0,4,9.877,36.29,36.29,0,0,0,2.776,4.308,23.309,23.309,0,0,0,1.8,2.12,9.308,9.308,0,0,0,2.26,1.838,4.5,4.5,0,0,0,2.181.45c.112,0,.224,0,.336,0a6.14,6.14,0,0,0,2.746-.757,7.07,7.07,0,0,0,2.128-1.775c.136-.163.268-.336.392-.514l.01-.012a1.726,1.726,0,0,0,.2-.3c.18-.165.356-.339.526-.527.159.147.32.291.48.43a11.671,11.671,0,0,0,4.978,2.728,7.842,7.842,0,0,0,1.761.2,8.941,8.941,0,0,0,5.071-1.689,12.661,12.661,0,0,0,3-3.038c.146-.151.289-.3.426-.46a.252.252,0,0,0,0,.029,1.538,1.538,0,0,0,.306.768l.016.024c.1.181.213.36.324.53a10.221,10.221,0,0,0,1.324,1.659,9.137,9.137,0,0,0,6.432,2.708,8,8,0,0,0,2.7-.46,4.6,4.6,0,0,0,2.065-1.354,4.216,4.216,0,0,0,.555-.911,3.817,3.817,0,0,0,.813-.732,4.984,4.984,0,0,0,.9-1.873A15.247,15.247,0,0,0,968.037,4123.326Z" transform="translate(-916.089 -4090.466)"/>
    </clipPath>
    <linearGradient id="linear-gradient-22" x1="0.5" y1="-14.197" x2="0.5" y2="15.886" xlink:href="#linear-gradient"/>
  </defs>
  <g id="Group_10167" data-name="Group 10167" transform="translate(-69.742 -4035.25)">
    <g id="Group_9068" data-name="Group 9068" transform="translate(115.075 4036.657)">
      <g id="Group_9052" data-name="Group 9052">
        <path id="Path_21121" data-name="Path 21121" d="M1091.878,4053.583a9.995,9.995,0,0,0-7.551-8.6,11.765,11.765,0,0,0-5.679-.2,8.235,8.235,0,0,0-3.349,1.545,10.166,10.166,0,0,0-2.087,2.28,10.465,10.465,0,0,0-1.279,1.516q-.505-.609-1.061-1.193a11.935,11.935,0,0,0-6.251-3.748,9.077,9.077,0,0,0-1.8-.181,9.946,9.946,0,0,0-5.485,1.712,15.237,15.237,0,0,0-1.677,1.267,25.383,25.383,0,0,0-2.936-5.161,13.3,13.3,0,0,0-3.087-3.044,11.362,11.362,0,0,0-4.321-1.751,22.007,22.007,0,0,0-4.347-.4c-.9,0-1.849.042-2.906.131a41.439,41.439,0,0,0-6.46,1.05,32.523,32.523,0,0,0-3.534,1.072,16.033,16.033,0,0,0-6.359-1.3h-.141a12.945,12.945,0,0,0-4.11.668,15.905,15.905,0,0,0-3.227,1.556,23.885,23.885,0,0,0-3.63,2.774c-.107-.172-.217-.343-.327-.511a13.858,13.858,0,0,0-8.266-6.045,14.612,14.612,0,0,0-8.1.48,25.924,25.924,0,0,0-10.928,8.752,25.987,25.987,0,0,0-10.964-6.755,22.732,22.732,0,0,0-6.685-1.061h0a15.281,15.281,0,0,0-9.653,3.1,13.274,13.274,0,0,0-2.678,2.819,14.079,14.079,0,0,0-3.4,5.871,15.3,15.3,0,0,0-.082,7.536,31.059,31.059,0,0,0,2.574,7.241,53.09,53.09,0,0,0,3.564,6.186,65.145,65.145,0,0,0,9.029,10.813,42.2,42.2,0,0,0,3.275,2.773c.691.543,1.344,1.057,1.9,1.561,1.682,1.517,5.1,4.6,9.207,4.1a6.673,6.673,0,0,0,1.383.155,10.7,10.7,0,0,0,6.069-1.825,6.316,6.316,0,0,0,1.846.028,6.858,6.858,0,0,0,4.174-2.218,10.706,10.706,0,0,0,5.595,3.724,9.273,9.273,0,0,0,2.334.291,12.427,12.427,0,0,0,4.228-.8,18.874,18.874,0,0,0,4.512-2.4q.484-.345.934-.7c.119.073.239.145.36.216a24.859,24.859,0,0,0,11.942,3.691h.212a10.257,10.257,0,0,0,7.348-2.6,8.7,8.7,0,0,0,1.315-1.592l.054-.049a9.176,9.176,0,0,0,2.421-3.985c.37.436.733.857,1.094,1.265a28.129,28.129,0,0,0,5.109,4.74,12.493,12.493,0,0,0,4.205,1.925,11.225,11.225,0,0,0,2.588.3,13.308,13.308,0,0,0,2.37-.221,21.806,21.806,0,0,0,7.047-2.683,29.619,29.619,0,0,0,3.294-2.242,19.514,19.514,0,0,0,5.632,3.375,15.559,15.559,0,0,0,5.271,1c.058,0,.114,0,.173,0a7.846,7.846,0,0,0,3.394-.87,11.042,11.042,0,0,0,2.443-1.706,18.722,18.722,0,0,0,2.429-2.69,22.528,22.528,0,0,0,1.727-2.125,47.32,47.32,0,0,0,3.807-6.453,106.276,106.276,0,0,0,5.688-13.464c.542-1.583.942-2.912,1.262-4.177a15.269,15.269,0,0,0,.557-4.559Z" transform="translate(-949.1 -4036.658)" fill="#fff"/>
        <path id="Path_21122" data-name="Path 21122" d="M1091.878,4053.583a9.995,9.995,0,0,0-7.551-8.6,11.765,11.765,0,0,0-5.679-.2,8.235,8.235,0,0,0-3.349,1.545,10.166,10.166,0,0,0-2.087,2.28,10.465,10.465,0,0,0-1.279,1.516q-.505-.609-1.061-1.193a11.935,11.935,0,0,0-6.251-3.748,9.077,9.077,0,0,0-1.8-.181,9.946,9.946,0,0,0-5.485,1.712,15.237,15.237,0,0,0-1.677,1.267,25.383,25.383,0,0,0-2.936-5.161,13.3,13.3,0,0,0-3.087-3.044,11.362,11.362,0,0,0-4.321-1.751,22.007,22.007,0,0,0-4.347-.4c-.9,0-1.849.042-2.906.131a41.439,41.439,0,0,0-6.46,1.05,32.523,32.523,0,0,0-3.534,1.072,16.033,16.033,0,0,0-6.359-1.3h-.141a12.945,12.945,0,0,0-4.11.668,15.905,15.905,0,0,0-3.227,1.556,23.885,23.885,0,0,0-3.63,2.774c-.107-.172-.217-.343-.327-.511a13.858,13.858,0,0,0-8.266-6.045,14.612,14.612,0,0,0-8.1.48,25.924,25.924,0,0,0-10.928,8.752,25.987,25.987,0,0,0-10.964-6.755,22.732,22.732,0,0,0-6.685-1.061h0a15.281,15.281,0,0,0-9.653,3.1,13.274,13.274,0,0,0-2.678,2.819,14.079,14.079,0,0,0-3.4,5.871,15.3,15.3,0,0,0-.082,7.536,31.059,31.059,0,0,0,2.574,7.241,53.09,53.09,0,0,0,3.564,6.186,65.145,65.145,0,0,0,9.029,10.813,42.2,42.2,0,0,0,3.275,2.773c.691.543,1.344,1.057,1.9,1.561,1.682,1.517,5.1,4.6,9.207,4.1a6.673,6.673,0,0,0,1.383.155,10.7,10.7,0,0,0,6.069-1.825,6.316,6.316,0,0,0,1.846.028,6.858,6.858,0,0,0,4.174-2.218,10.706,10.706,0,0,0,5.595,3.724,9.273,9.273,0,0,0,2.334.291,12.427,12.427,0,0,0,4.228-.8,18.874,18.874,0,0,0,4.512-2.4q.484-.345.934-.7c.119.073.239.145.36.216a24.859,24.859,0,0,0,11.942,3.691h.212a10.257,10.257,0,0,0,7.348-2.6,8.7,8.7,0,0,0,1.315-1.592l.054-.049a9.176,9.176,0,0,0,2.421-3.985c.37.436.733.857,1.094,1.265a28.129,28.129,0,0,0,5.109,4.74,12.493,12.493,0,0,0,4.205,1.925,11.225,11.225,0,0,0,2.588.3,13.308,13.308,0,0,0,2.37-.221,21.806,21.806,0,0,0,7.047-2.683,29.619,29.619,0,0,0,3.294-2.242,19.514,19.514,0,0,0,5.632,3.375,15.559,15.559,0,0,0,5.271,1c.058,0,.114,0,.173,0a7.846,7.846,0,0,0,3.394-.87,11.042,11.042,0,0,0,2.443-1.706,18.722,18.722,0,0,0,2.429-2.69,22.528,22.528,0,0,0,1.727-2.125,47.32,47.32,0,0,0,3.807-6.453,106.276,106.276,0,0,0,5.688-13.464c.542-1.583.942-2.912,1.262-4.177a15.269,15.269,0,0,0,.557-4.559Z" transform="translate(-949.1 -4036.658)" fill="none" stroke="#fff" stroke-miterlimit="10" stroke-width="2.8"/>
        <path id="Path_21123" data-name="Path 21123" d="M1091.878,4053.583a9.995,9.995,0,0,0-7.551-8.6,11.765,11.765,0,0,0-5.679-.2,8.235,8.235,0,0,0-3.349,1.545,10.166,10.166,0,0,0-2.087,2.28,10.465,10.465,0,0,0-1.279,1.516q-.505-.609-1.061-1.193a11.935,11.935,0,0,0-6.251-3.748,9.077,9.077,0,0,0-1.8-.181,9.946,9.946,0,0,0-5.485,1.712,15.237,15.237,0,0,0-1.677,1.267,25.383,25.383,0,0,0-2.936-5.161,13.3,13.3,0,0,0-3.087-3.044,11.362,11.362,0,0,0-4.321-1.751,22.007,22.007,0,0,0-4.347-.4c-.9,0-1.849.042-2.906.131a41.439,41.439,0,0,0-6.46,1.05,32.523,32.523,0,0,0-3.534,1.072,16.033,16.033,0,0,0-6.359-1.3h-.141a12.945,12.945,0,0,0-4.11.668,15.905,15.905,0,0,0-3.227,1.556,23.885,23.885,0,0,0-3.63,2.774c-.107-.172-.217-.343-.327-.511a13.858,13.858,0,0,0-8.266-6.045,14.612,14.612,0,0,0-8.1.48,25.924,25.924,0,0,0-10.928,8.752,25.987,25.987,0,0,0-10.964-6.755,22.732,22.732,0,0,0-6.685-1.061h0a15.281,15.281,0,0,0-9.653,3.1,13.274,13.274,0,0,0-2.678,2.819,14.079,14.079,0,0,0-3.4,5.871,15.3,15.3,0,0,0-.082,7.536,31.059,31.059,0,0,0,2.574,7.241,53.09,53.09,0,0,0,3.564,6.186,65.145,65.145,0,0,0,9.029,10.813,42.2,42.2,0,0,0,3.275,2.773c.691.543,1.344,1.057,1.9,1.561,1.682,1.517,5.1,4.6,9.207,4.1a6.673,6.673,0,0,0,1.383.155,10.7,10.7,0,0,0,6.069-1.825,6.316,6.316,0,0,0,1.846.028,6.858,6.858,0,0,0,4.174-2.218,10.706,10.706,0,0,0,5.595,3.724,9.273,9.273,0,0,0,2.334.291,12.427,12.427,0,0,0,4.228-.8,18.874,18.874,0,0,0,4.512-2.4q.484-.345.934-.7c.119.073.239.145.36.216a24.859,24.859,0,0,0,11.942,3.691h.212a10.257,10.257,0,0,0,7.348-2.6,8.7,8.7,0,0,0,1.315-1.592l.054-.049a9.176,9.176,0,0,0,2.421-3.985c.37.436.733.857,1.094,1.265a28.129,28.129,0,0,0,5.109,4.74,12.493,12.493,0,0,0,4.205,1.925,11.225,11.225,0,0,0,2.588.3,13.308,13.308,0,0,0,2.37-.221,21.806,21.806,0,0,0,7.047-2.683,29.619,29.619,0,0,0,3.294-2.242,19.514,19.514,0,0,0,5.632,3.375,15.559,15.559,0,0,0,5.271,1c.058,0,.114,0,.173,0a7.846,7.846,0,0,0,3.394-.87,11.042,11.042,0,0,0,2.443-1.706,18.722,18.722,0,0,0,2.429-2.69,22.528,22.528,0,0,0,1.727-2.125,47.32,47.32,0,0,0,3.807-6.453,106.276,106.276,0,0,0,5.688-13.464c.542-1.583.942-2.912,1.262-4.177a15.269,15.269,0,0,0,.557-4.559Z" transform="translate(-949.1 -4036.658)" fill="none" stroke="#000" stroke-miterlimit="10" stroke-width="2.1"/>
      </g>
      <g id="Group_9055" data-name="Group 9055" transform="translate(73.069 5.179)">
        <path id="Path_21124" data-name="Path 21124" d="M1075.347,4053.124v-.021l0-.022a5.758,5.758,0,0,0-4.489-4.917,8.044,8.044,0,0,0-2.156-.3,6.8,6.8,0,0,0-1.473.157,4.007,4.007,0,0,0-1.653.738,6.459,6.459,0,0,0-1.464,1.726,8.552,8.552,0,0,0-1.982,2.744,25.833,25.833,0,0,0-1.332,3.108c-.212.585-.406,1.172-.591,1.759a29.669,29.669,0,0,0-4.717-7.125,7.923,7.923,0,0,0-4.048-2.533,4.792,4.792,0,0,0-.954-.1,5.822,5.822,0,0,0-3.187,1.03,15.638,15.638,0,0,0-3.507,3.356q-.2.249-.4.511c-.357.391-.681.777-.967,1.131-.221.274-.443.563-.665.857a3.28,3.28,0,0,0-.13-.4c-.013-.031-.025-.06-.034-.086a50.553,50.553,0,0,0-1.719-4.977,23.366,23.366,0,0,0-2.844-5.274,9.259,9.259,0,0,0-2.119-2.118,7.171,7.171,0,0,0-2.756-1.089,17.8,17.8,0,0,0-3.522-.319c-.78,0-1.616.037-2.556.117a37.179,37.179,0,0,0-5.8.943,23.358,23.358,0,0,0-5.674,2.1,8.255,8.255,0,0,0-2.481,1.934,3.678,3.678,0,0,0-.468.748,6.157,6.157,0,0,0-.9.894,3.83,3.83,0,0,0-.817,1.959,12.819,12.819,0,0,0,.231,4.465,37.754,37.754,0,0,0,4.8,11.244,99.117,99.117,0,0,0,6.879,9.887c1.38,1.789,2.646,3.332,3.87,4.714a24.373,24.373,0,0,0,4.336,4.057,8.36,8.36,0,0,0,2.8,1.3,6.952,6.952,0,0,0,1.612.183,9.039,9.039,0,0,0,1.615-.154,17.586,17.586,0,0,0,5.683-2.178,30.292,30.292,0,0,0,5.592-4.328c.053.054.1.106.155.155l.061.06c.177.2.365.412.555.615a16.8,16.8,0,0,0,6.176,4.333,11.463,11.463,0,0,0,3.895.725h.057a3.935,3.935,0,0,0,1.5-.419,6.954,6.954,0,0,0,1.523-1.078,15.109,15.109,0,0,0,2.017-2.274,17.7,17.7,0,0,0,1.544-1.879,43.3,43.3,0,0,0,3.459-5.882,101.917,101.917,0,0,0,5.461-12.928c.5-1.471.874-2.693,1.164-3.845A11.2,11.2,0,0,0,1075.347,4053.124Z" transform="translate(-1009.829 -4040.962)"/>
        <g id="Group_9054" data-name="Group 9054" clip-path="url(#clip-path)">
          <g id="Group_9053" data-name="Group 9053" transform="translate(2.463 1.095)">
            <path id="Path_21125" data-name="Path 21125" d="M1049.506,4075.162c-.095.135-.191.27-.287.4-.054.076-.32.336-.314.426.007.129.339.412.432.518.173.2.351.4.533.59a15.821,15.821,0,0,0,5.766,4.06,10.409,10.409,0,0,0,3.539.653h.024a2.822,2.822,0,0,0,1.006-.3,5.963,5.963,0,0,0,1.284-.914,14.711,14.711,0,0,0,2.036-2.338,41.818,41.818,0,0,0,3.369-5.734,100.567,100.567,0,0,0,5.4-12.789c.423-1.239.818-2.489,1.138-3.759a10.13,10.13,0,0,0,.4-2.984,4.691,4.691,0,0,0-3.693-3.96,6.985,6.985,0,0,0-1.863-.262,5.741,5.741,0,0,0-1.234.131,2.975,2.975,0,0,0-1.213.528,7.432,7.432,0,0,0-1.784,2.472,24.972,24.972,0,0,0-1.274,2.978q-.5,1.371-.9,2.775-.191.672-.367,1.348a5.729,5.729,0,0,0-.27,1.107,3.638,3.638,0,0,0,.219.885q.1.4.195.8c.134.576.25,1.156.355,1.739a24.747,24.747,0,0,1,.365,2.611c-.981-2.279-1.973-4.551-3.075-6.775a31.176,31.176,0,0,0-5.019-7.835,7,7,0,0,0-3.474-2.216,3.654,3.654,0,0,0-.736-.074,4.791,4.791,0,0,0-2.591.852,14.547,14.547,0,0,0-3.252,3.126,39.205,39.205,0,0,0-2.706,3.865c-1.508,2.412-2.853,4.92-4.186,7.432a29.3,29.3,0,0,1,1.156-4.523c.287-.88.6-1.752.952-2.61q.271-.67.568-1.326a2.5,2.5,0,0,0,.284-.614,2,2,0,0,0-.166-.583,50.152,50.152,0,0,0-1.684-4.877,22.154,22.154,0,0,0-2.7-5.028,8.317,8.317,0,0,0-1.866-1.877,6.244,6.244,0,0,0-2.35-.917,16.884,16.884,0,0,0-3.308-.3c-.825,0-1.651.044-2.464.112a36.388,36.388,0,0,0-5.633.915,22.437,22.437,0,0,0-5.41,2,7.078,7.078,0,0,0-2.154,1.66,2.773,2.773,0,0,0-.586,1.431,11.874,11.874,0,0,0,.219,4.085,36.261,36.261,0,0,0,4.667,10.907,97.762,97.762,0,0,0,6.8,9.776c1.226,1.589,2.493,3.153,3.822,4.657a23.3,23.3,0,0,0,4.135,3.881,7.4,7.4,0,0,0,2.434,1.139,5.911,5.911,0,0,0,1.359.153,7.911,7.911,0,0,0,1.42-.136,16.563,16.563,0,0,0,5.327-2.047,35.617,35.617,0,0,0,7.941-6.786c.362-.39.719-.786,1.066-1.189a18.614,18.614,0,0,1-1.2,2.065Q1049.738,4074.83,1049.506,4075.162Z" transform="translate(-1011.876 -4041.872)" fill="url(#linear-gradient)"/>
            <path id="Path_21126" data-name="Path 21126" d="M1023.379,4043.482a7.485,7.485,0,0,1,10.012,2.652,9,9,0,0,1,1.221,3.492,17.223,17.223,0,0,0-2.491-3.647c-2.233-2.432-5.56-2.961-8.742-2.5Z" transform="translate(-1009.539 -4041.733)" fill="#fff"/>
            <path id="Path_21127" data-name="Path 21127" d="M1058.207,4048.443c4.808-.537,7,3.889,4.085,7.622a19.127,19.127,0,0,0,.343-2.6c.2-2.908-1.956-4.171-4.428-5.022Z" transform="translate(-1002.462 -4040.546)" fill="#fff"/>
            <path id="Path_21128" data-name="Path 21128" d="M1058.952,4064.9a32.289,32.289,0,0,1-3.115,6.037,10.7,10.7,0,0,1-4.966,4.644l-.064-.089c.347-.476.732-.871,1.078-1.311,1.046-1.29,2.165-2.494,3.241-3.758a45.116,45.116,0,0,0,3.725-5.568l.1.045Z" transform="translate(-1003.965 -4037.202)" fill="#fff"/>
            <path id="Path_21129" data-name="Path 21129" d="M1044.82,4049.573a2.616,2.616,0,0,1,2.083,1.118,7.5,7.5,0,0,1,1.019,2.142,5.726,5.726,0,0,1,.183,1.528l-.108.015a6.882,6.882,0,0,0-1.4-2.488,7.516,7.516,0,0,1-1.831-2.218l.053-.1Z" transform="translate(-1005.193 -4040.308)" fill="#fff"/>
          </g>
        </g>
      </g>
      <g id="Group_9059" data-name="Group 9059" transform="translate(53.525 6.135)">
        <path id="Path_21131" data-name="Path 21131" d="M1021.913,4046.419a4.844,4.844,0,0,0-.463-.633,5.348,5.348,0,0,0-.475-.549,11.3,11.3,0,0,0-8.279-3.481h-.119a8.8,8.8,0,0,0-2.793.442,11.859,11.859,0,0,0-2.379,1.155,21.253,21.253,0,0,0-3.907,3.173,30,30,0,0,0-2.434,2.78,31.545,31.545,0,0,0-4.465,6.5,24.408,24.408,0,0,0-2.986,9.811,16.061,16.061,0,0,0,2.717,9.877,22.35,22.35,0,0,0,7.282,6.745,20.681,20.681,0,0,0,9.849,3.107h.164a6.155,6.155,0,0,0,4.443-1.437,4.687,4.687,0,0,0,.947-1.29,4.518,4.518,0,0,0,.422-.353,6.1,6.1,0,0,0,1.524-5.25c-.121-.99-.6-3.43-2.418-4.695a2.851,2.851,0,0,0-1.621-.542h-.053a3.809,3.809,0,0,0-1.232.279c-.114.041-.223.079-.315.107-.4.114-.81.209-1.236.287a14.049,14.049,0,0,0,1.426-1.061,16.271,16.271,0,0,0,2.553-2.774,19.032,19.032,0,0,0,3.344-4.988,26.01,26.01,0,0,0,2.374-8.338A13.353,13.353,0,0,0,1021.913,4046.419Zm-18.3,19.855c-.008-.08-.016-.16-.021-.242a6.763,6.763,0,0,1,.424-2.767,6.615,6.615,0,0,1,.454-.969,2.914,2.914,0,0,1,1.717-.77,1.317,1.317,0,0,1,.132.006,1.224,1.224,0,0,1,1.029,1.4h0v.007h0a3.132,3.132,0,0,1-.49,1.415A8.969,8.969,0,0,1,1003.615,4066.274Z" transform="translate(-993.585 -4041.756)"/>
        <g id="Group_9058" data-name="Group 9058" clip-path="url(#clip-path-2)">
          <g id="Group_9057" data-name="Group 9057" transform="translate(2.464 1.095)">
            <g id="Group_9056" data-name="Group 9056">
              <path id="Path_21132" data-name="Path 21132" d="M1015.762,4045.336s.085.109.322.408.327.406.328.406Z" transform="translate(-991.543 -4042.124)" fill="url(#linear-gradient-2)"/>
              <path id="Path_21133" data-name="Path 21133" d="M1020.175,4046.287a10.108,10.108,0,0,0-7.9-3.62h-.108a7.752,7.752,0,0,0-2.448.382,10.828,10.828,0,0,0-2.159,1.052,20.257,20.257,0,0,0-3.7,3.012,30.052,30.052,0,0,0-5.335,7.369,23.569,23.569,0,0,0-2.866,9.371,15,15,0,0,0,2.536,9.207,21.172,21.172,0,0,0,6.926,6.408,19.33,19.33,0,0,0,9.307,2.955h.15a5.258,5.258,0,0,0,3.688-1.136,5.067,5.067,0,0,0,1.194-4.322,5.677,5.677,0,0,0-1.958-3.931,1.763,1.763,0,0,0-.995-.345h-.03a5.145,5.145,0,0,0-1.266.344,14.82,14.82,0,0,1-2.4.474,17.622,17.622,0,0,1-2.014.117,16.267,16.267,0,0,1-2.734-.228,10.523,10.523,0,0,1-3.7-1.236,4.831,4.831,0,0,1-1.269-1.089c.457.153.9.362,1.348.532a5.122,5.122,0,0,0,1.367.248q.589.05,1.179.05a14.073,14.073,0,0,0,2.067-.153,13.355,13.355,0,0,0,6.7-3.017,17.019,17.019,0,0,0,4.249-5.754,24.87,24.87,0,0,0,2.275-7.982A11.851,11.851,0,0,0,1020.175,4046.287Zm-10.787,15.029s0-.038.007-.138a5.584,5.584,0,0,1-1.722,3.316,10.012,10.012,0,0,1-4.145,2.639,5.969,5.969,0,0,1-1.853.384,2.773,2.773,0,0,1-.427-.031,5.768,5.768,0,0,0,.91-.37c.124-.078.1-.044.064-.2-.023-.111-.044-.222-.063-.333-.035-.221-.059-.445-.073-.67a7.835,7.835,0,0,1,.491-3.219,7.288,7.288,0,0,1,1.885-2.844,4.178,4.178,0,0,1,2.679-1.249c.076,0,.153,0,.23.009a2.306,2.306,0,0,1,2.024,2.564c.006-.1.008-.136.008-.136Z" transform="translate(-995.633 -4042.667)" fill="url(#linear-gradient-3)"/>
            </g>
            <path id="Path_21134" data-name="Path 21134" d="M1009.716,4044.154a6.168,6.168,0,0,1,7.925,6.79,16.472,16.472,0,0,0-1.1-2.66c-1.323-2.584-4.056-3.729-6.828-4.129Z" transform="translate(-992.772 -4042.415)" fill="#fff"/>
            <path id="Path_21135" data-name="Path 21135" d="M1009.346,4069.611c.6-.167,1.116-.308,1.627-.491a7.961,7.961,0,0,1,2.565-.691,2.193,2.193,0,0,1,2.013,1.93c-.812-.578-1.405-1.1-2.329-.83-.094.017-.28.065-.372.094a4.665,4.665,0,0,1-3.5-.012Z" transform="translate(-992.847 -4037.431)" fill="#fff"/>
          </g>
        </g>
      </g>
      <g id="Group_9063" data-name="Group 9063" transform="translate(29.907 4.209)">
        <path id="Path_21137" data-name="Path 21137" d="M1007.2,4075.174a2.786,2.786,0,0,0-1.16-1.629c-.078-.059-.162-.119-.255-.184a3.1,3.1,0,0,0-.634-.4,24.742,24.742,0,0,0-4.313-1.869c-.543-.2-1.1-.4-1.64-.608a26.133,26.133,0,0,1-2.744-1.25,12.146,12.146,0,0,0,3.9-3.6,13.506,13.506,0,0,0,1.458-1.768,14.785,14.785,0,0,0,2.341-5.328,18.837,18.837,0,0,0,.07-7.343,17.58,17.58,0,0,0-2.509-6.512,9.715,9.715,0,0,0-5.754-4.282,8.913,8.913,0,0,0-2.113-.248,11.618,11.618,0,0,0-3.656.632,13.948,13.948,0,0,0-7.236,5.246,17.925,17.925,0,0,0-4.606,10.513,2.981,2.981,0,0,0-2.353,1.974,4.007,4.007,0,0,0-1.683,2.5,11.777,11.777,0,0,0-.337,3.8,27.18,27.18,0,0,0,.5,3.952,44.77,44.77,0,0,0,2.205,7.573,31.021,31.021,0,0,0,1.66,3.642,10.169,10.169,0,0,0,2.5,3.283,2.726,2.726,0,0,0,1.657.652,2,2,0,0,0,.273-.018,2.624,2.624,0,0,0,1.749-1.046,4.026,4.026,0,0,0,.489-.883,2.659,2.659,0,0,0,.879-.76,6.814,6.814,0,0,0,.977-3.806l.012-.233c.015-.274.019-.557.024-.83,0-.175.007-.354.013-.529a6.472,6.472,0,0,1,.788,1.567l.089.221.053.132a31.173,31.173,0,0,0,1.545,3.418c1.331,2.415,2.932,3.879,4.761,4.353a5.112,5.112,0,0,0,1.278.156,8.354,8.354,0,0,0,2.806-.557,14.623,14.623,0,0,0,3.5-1.871,13.293,13.293,0,0,0,2.821-2.639c.135-.173.277-.365.416-.569a11.145,11.145,0,0,0,.952-1.073C1006.633,4078.044,1007.542,4076.652,1007.2,4075.174ZM989,4063.953a2.027,2.027,0,0,1-.363.032,3.176,3.176,0,0,1-2.258-1.131,1.376,1.376,0,0,1-.456-.952c.025-.036.078-.1.115-.149s.079-.1.117-.147c.076-.1.147-.191.219-.285a10.371,10.371,0,0,1,.765-.758,2.339,2.339,0,0,1,1.387-.706.812.812,0,0,1,.1,0c.874.092,1.16,1.381,1.19,2.052a3.935,3.935,0,0,1-.468,1.9A1.453,1.453,0,0,1,989,4063.953Z" transform="translate(-973.956 -4040.156)"/>
        <g id="Group_9062" data-name="Group 9062" clip-path="url(#clip-path-3)">
          <g id="Group_9061" data-name="Group 9061" transform="translate(2.464 1.095)">
            <g id="Group_9060" data-name="Group 9060">
              <path id="Path_21138" data-name="Path 21138" d="M999.593,4068.29s.142.1.558.4l.138.095Z" transform="translate(-971.21 -4035.534)" fill="url(#linear-gradient-4)"/>
              <path id="Path_21139" data-name="Path 21139" d="M1004.638,4078.106a3.815,3.815,0,0,0,1.079-2.87,1.77,1.77,0,0,0-.773-1.014c-1.967-1.4-4.345-2.026-6.565-2.9a26.92,26.92,0,0,1-3.115-1.438q-.664-.367-1.3-.78-.26-.17-.514-.349a2.259,2.259,0,0,0-.669-.423,8.134,8.134,0,0,1-1.77-.5,4.275,4.275,0,0,1-1.178-.875,7.364,7.364,0,0,0,2.584.6c.089,0,.179,0,.268,0a8.472,8.472,0,0,0,2.838-.49,10.515,10.515,0,0,0,4.974-4.012,13.656,13.656,0,0,0,2.169-4.934,17.894,17.894,0,0,0,.064-6.918c-.739-4.109-3.028-8.85-7.444-9.924a7.817,7.817,0,0,0-1.854-.217,10.545,10.545,0,0,0-3.311.576,13.448,13.448,0,0,0-5.388,3.285c-3,3.056-4.306,7.467-4.483,11.666-.008.2-.007.81-.007.81l.849,1.308a9.817,9.817,0,0,0-2.54-1.245,1.732,1.732,0,0,0-.307-.028c-1.076,0-1.65,1.107-1.929,2.063a10.578,10.578,0,0,0-.294,3.446,26.135,26.135,0,0,0,.479,3.792,43.592,43.592,0,0,0,2.151,7.386,30.025,30.025,0,0,0,1.6,3.514,9.156,9.156,0,0,0,2.2,2.942,1.684,1.684,0,0,0,.988.423.96.96,0,0,0,.129-.008,1.517,1.517,0,0,0,1.012-.611,6.428,6.428,0,0,0,.776-3.448,9.346,9.346,0,0,1,.457-3.544,1.561,1.561,0,0,1,1.407-.9,1.61,1.61,0,0,1,.676.152c1.013.47,1.465,1.769,1.852,2.728a31.539,31.539,0,0,0,1.541,3.432c.883,1.6,2.216,3.339,4.078,3.821a3.949,3.949,0,0,0,1,.122,7.373,7.373,0,0,0,2.436-.493,13.475,13.475,0,0,0,3.233-1.733A12.2,12.2,0,0,0,1004.638,4078.106Zm-15.826-13.266a3.1,3.1,0,0,1-.587.056,4.277,4.277,0,0,1-3.08-1.5,2.219,2.219,0,0,1-.671-2.03,2.16,2.16,0,0,1,.4-.606c.219-.286.44-.571.668-.852a15.742,15.742,0,0,1,1.832-1.992,3.361,3.361,0,0,1,2.112-.979c.069,0,.138,0,.208.01,1.494.156,2.112,1.776,2.169,3.092a5.392,5.392,0,0,1-.86,2.954A3.69,3.69,0,0,1,988.812,4064.84Z" transform="translate(-976.004 -4041.066)" fill="url(#linear-gradient-5)"/>
            </g>
            <path id="Path_21140" data-name="Path 21140" d="M999.393,4071.3a4.973,4.973,0,0,0,.6-.876c.024-.073.018-.121,0-.132s-.014.005-.034-.031c0-.012-.024-.041-.03-.066a2.714,2.714,0,0,0-1.13-.918c-.662-.378-1.357-.676-2.055-.994l.028-.106c1.195.145,3.575.455,4.221,1.6.479.979-.656,1.817-1.562,1.626l-.037-.1Z" transform="translate(-971.789 -4035.558)" fill="#fff"/>
            <path id="Path_21141" data-name="Path 21141" d="M987.139,4042.678c5.122-2.172,10.968.5,11.569,6.29a15.666,15.666,0,0,0-1.925-3.056c-2.321-2.841-6.134-3.466-9.644-3.234Z" transform="translate(-973.741 -4040.891)" fill="#fff"/>
          </g>
        </g>
      </g>
      <g id="Group_9067" data-name="Group 9067" transform="translate(4.212 5.993)">
        <path id="Path_21143" data-name="Path 21143" d="M987.988,4075.044a5.879,5.879,0,0,0-.881-2.656,2.87,2.87,0,0,0-.357-.466l-.008-.01,0,0a7.48,7.48,0,0,0-1.5-1.2,5.034,5.034,0,0,0-2.48-.9l-.129,0a5.12,5.12,0,0,0-2.293.664c-.2.1-.395.2-.591.3-.416.216-.809.419-1.21.588a4.785,4.785,0,0,1-1.908.4,5.352,5.352,0,0,1-1.49-.222,10.117,10.117,0,0,1-3.255-1.708,13.13,13.13,0,0,1-4.548-6.019,7.2,7.2,0,0,1-.414-2.825h0a10.8,10.8,0,0,0,7.257,3.022,7.8,7.8,0,0,0,3.82-.956,12.354,12.354,0,0,0,4.749-7.2,9.973,9.973,0,0,0-2.243-6.2,21.1,21.1,0,0,0-10.441-7.142,18.491,18.491,0,0,0-5.429-.869,11.179,11.179,0,0,0-7.064,2.211,9.156,9.156,0,0,0-2.018,2.207,9.743,9.743,0,0,0-2.61,4.352,11.237,11.237,0,0,0,0,5.49,26.925,26.925,0,0,0,2.238,6.259,48.728,48.728,0,0,0,3.281,5.69,60.8,60.8,0,0,0,8.443,10.113c1.733,1.666,3.547,2.861,5.078,4.242,1.875,1.69,4.092,3.429,6.152,3,.542-.113,1.085.169,1.617.169a6.381,6.381,0,0,0,4.836-2.092,7.446,7.446,0,0,0,.809-1.093,6.3,6.3,0,0,0,.561-.55A8.736,8.736,0,0,0,987.988,4075.044Z" transform="translate(-952.601 -4041.638)"/>
        <g id="Group_9066" data-name="Group 9066" clip-path="url(#clip-path-4)">
          <g id="Group_9065" data-name="Group 9065" transform="translate(2.463 1.095)">
            <g id="Group_9064" data-name="Group 9064">
              <path id="Path_21144" data-name="Path 21144" d="M980.3,4067.411l.04.046c.067.076.183.207.184.207S980.47,4067.6,980.3,4067.411Z" transform="translate(-949.435 -4037.496)" fill="url(#linear-gradient-6)"/>
              <path id="Path_21145" data-name="Path 21145" d="M986.484,4074.976a4.542,4.542,0,0,0-.93-2.467l-.043-.05a6.433,6.433,0,0,0-1.284-1.016,3.944,3.944,0,0,0-1.93-.727l-.087,0a4.132,4.132,0,0,0-1.806.55c-.62.308-1.222.647-1.86.918a5.925,5.925,0,0,1-2.337.486,6.427,6.427,0,0,1-1.8-.266,11.261,11.261,0,0,1-3.611-1.886,14.277,14.277,0,0,1-4.921-6.534,7.894,7.894,0,0,1-.378-4.024,6.209,6.209,0,0,1,.573-1.682q.081-.155.17-.306c.037-.062.183-.227.185-.3,0-.088-.186-.285-.237-.367q-.159-.26-.307-.527a14.979,14.979,0,0,1-1.588-4.5,12.19,12.19,0,0,1-.25-3.073,21.861,21.861,0,0,0,1.214,3.908,15,15,0,0,0,3.365,5.249,9.747,9.747,0,0,0,6.5,2.719,6.731,6.731,0,0,0,3.29-.821,5.447,5.447,0,0,0,2.817-4.632,8.954,8.954,0,0,0-2.024-5.51,19.917,19.917,0,0,0-9.894-6.755,17.333,17.333,0,0,0-5.1-.819,10.219,10.219,0,0,0-6.39,1.979,8.5,8.5,0,0,0-2.883,4.363,10.378,10.378,0,0,0,.023,4.958,25.949,25.949,0,0,0,2.153,6,47.255,47.255,0,0,0,3.207,5.562,59.787,59.787,0,0,0,8.29,9.93,42.7,42.7,0,0,0,4.95,4.137,15.9,15.9,0,0,0,5.743,2.82,6.819,6.819,0,0,0,1.395.147,5.266,5.266,0,0,0,4.021-1.728A7.6,7.6,0,0,0,986.484,4074.976Z" transform="translate(-954.648 -4042.548)" fill="url(#linear-gradient-7)"/>
            </g>
            <path id="Path_21146" data-name="Path 21146" d="M963.12,4043.359a12.752,12.752,0,0,1,11.4,5.053c.779,1.366.857,1.427-.321.277-3.136-2.777-7.071-4.256-11.08-5.33Z" transform="translate(-952.926 -4042.393)" fill="#fff"/>
            <path id="Path_21147" data-name="Path 21147" d="M964.084,4054.749a7.218,7.218,0,0,1-.91,2.742,6.058,6.058,0,0,0-.353,2.823l-.106.031a5.148,5.148,0,0,1-.444-2.676,4.691,4.691,0,0,1,.5-1.923A2.671,2.671,0,0,1,964,4054.68l.085.069Z" transform="translate(-953.104 -4040.083)" fill="#fff"/>
            <path id="Path_21148" data-name="Path 21148" d="M974.721,4068.616c1.446-2.3,4.715-3.019,6.039-.206.433.88-.236.1-.609-.05-1.976-1.367-3.414-.378-5.43.255Z" transform="translate(-950.569 -4037.665)" fill="#fff"/>
          </g>
        </g>
      </g>
    </g>
    <g id="Group_9098" data-name="Group 9098" transform="translate(71.145 4093.26)">
      <g id="Group_9069" data-name="Group 9069">
        <path id="Path_21150" data-name="Path 21150" d="M1140.829,4110.3v0a16.136,16.136,0,0,0-1.013-1.536c-.2-.285-.4-.526-.6-.758-.167-.2-.355-.421-.583-.651a16.059,16.059,0,0,0-4.251-3.2l.037-.061a16.357,16.357,0,0,0,2.275-9.2,12.48,12.48,0,0,0-2.361-6.732,11.132,11.132,0,0,0-6.731-4.2,12.457,12.457,0,0,0-2.335-.256,13.7,13.7,0,0,0-9.87,4.229,16.6,16.6,0,0,0-1.256,1.443c-.073,0-.147,0-.22,0a24.272,24.272,0,0,0-3.906.243c-.21.03-.42.064-.628.1a13.355,13.355,0,0,0-6.838-4.191,14.608,14.608,0,0,0-8.1.48,18.609,18.609,0,0,0-7.5,4.6l-.228.236a15.645,15.645,0,0,0-10.289-3.761h-.141a12.937,12.937,0,0,0-4.11.667,15.945,15.945,0,0,0-3.227,1.554,25.438,25.438,0,0,0-4.684,3.789,34.291,34.291,0,0,0-2.686,3.054,35.011,35.011,0,0,0-2.652,3.4,23.07,23.07,0,0,0-6.663-1.13l-.181,0a11.809,11.809,0,0,0-2.476-5.856,12.939,12.939,0,0,0-6.169-4.307,16,16,0,0,0-8.8-.074,8.323,8.323,0,0,0-3.361-.379,8.211,8.211,0,0,0-5.389,2.845,10.317,10.317,0,0,0-.789,1.036c-.2.194-.4.4-.58.606a10,10,0,0,0-.729.946c-.219-.036-.427-.063-.62-.086a17.548,17.548,0,0,0-2.113-.127h0a15.235,15.235,0,0,0-9.544,3.189c-.232-.262-.47-.522-.715-.778a25.893,25.893,0,0,0-10.882-6.871,17.353,17.353,0,0,0-11.363.069,16.116,16.116,0,0,0-6.887-1.544h-.141a12.938,12.938,0,0,0-4.11.667,15.981,15.981,0,0,0-3.227,1.554,25.4,25.4,0,0,0-4.683,3.789,34.107,34.107,0,0,0-2.687,3.054q-.726.817-1.4,1.685a7.883,7.883,0,0,0-2.321-2.965,9.2,9.2,0,0,0-4.626-1.724,17.549,17.549,0,0,0-2.113-.127h0a15.233,15.233,0,0,0-9.544,3.189c-.232-.262-.47-.522-.715-.778a25.894,25.894,0,0,0-10.882-6.871,19.464,19.464,0,0,0-5.838-.928,14.288,14.288,0,0,0-8.937,2.928,13.711,13.711,0,0,0-2.669,2.82,16.09,16.09,0,0,0-3.208,4.924,24.018,24.018,0,0,0-1.754,6.438,32.821,32.821,0,0,0,.978,12.624,46.914,46.914,0,0,0,4.391,10.853,40.416,40.416,0,0,0,3.1,4.8,27.815,27.815,0,0,0,2.126,2.5,13.329,13.329,0,0,0,3.305,2.627,8.634,8.634,0,0,0,4.169.95c.132,0,.265,0,.4,0a10.368,10.368,0,0,0,4.655-1.248,10.894,10.894,0,0,0,1.8-1.206,14.03,14.03,0,0,0,3.991,1.616,12.787,12.787,0,0,0,10.176-2.133c.2-.137.392-.278.585-.428a13.371,13.371,0,0,0,8.839,3.4,12.162,12.162,0,0,0,4.114-.706,8.708,8.708,0,0,0,3.913-2.661,8.024,8.024,0,0,0,.5-.692c.2.125.406.249.61.369a24.861,24.861,0,0,0,11.943,3.693l.212,0a10.477,10.477,0,0,0,6.922-2.222,11.153,11.153,0,0,0,1.869,1.272,8.634,8.634,0,0,0,4.169.95c.132,0,.265,0,.4,0a10.365,10.365,0,0,0,4.654-1.249,10.813,10.813,0,0,0,1.8-1.205,14.036,14.036,0,0,0,3.99,1.616,12.788,12.788,0,0,0,10.177-2.133c.2-.137.392-.278.585-.428a13.371,13.371,0,0,0,8.839,3.4,12.168,12.168,0,0,0,4.115-.706,8.947,8.947,0,0,0,3.509-2.2,6.772,6.772,0,0,0,.869.6,5.462,5.462,0,0,0,6.33-.507,11.172,11.172,0,0,0,1.7-1.805l.048-.062c.462.223,1,.535,1.5.825.361.209.735.426,1.107.631a27.486,27.486,0,0,0,6.2,2.62,17.61,17.61,0,0,0,7.678.333,17.154,17.154,0,0,0,4.961-1.7,13.147,13.147,0,0,0,1.949-1.279,24.306,24.306,0,0,0,11.177,3.254l.212,0a10.26,10.26,0,0,0,7.348-2.6l.049-.047a6.473,6.473,0,0,0,4.125.848,6.846,6.846,0,0,0,4.174-2.217,10.721,10.721,0,0,0,5.595,3.724,9.331,9.331,0,0,0,2.334.292,12.434,12.434,0,0,0,4.229-.806,18.841,18.841,0,0,0,4.511-2.4q.236-.167.466-.34a21.763,21.763,0,0,0,6.092,2.807,19.842,19.842,0,0,0,5.1.736,21.49,21.49,0,0,0,14.952-5.79,18.274,18.274,0,0,0,1.98-2.207,17.4,17.4,0,0,0,4.692-9.139A17.869,17.869,0,0,0,1140.829,4110.3Z" transform="translate(-912.589 -4083.701)" fill="#fff"/>
        <path id="Path_21151" data-name="Path 21151" d="M1140.829,4110.3v0a16.136,16.136,0,0,0-1.013-1.536c-.2-.285-.4-.526-.6-.758-.167-.2-.355-.421-.583-.651a16.059,16.059,0,0,0-4.251-3.2l.037-.061a16.357,16.357,0,0,0,2.275-9.2,12.48,12.48,0,0,0-2.361-6.732,11.132,11.132,0,0,0-6.731-4.2,12.457,12.457,0,0,0-2.335-.256,13.7,13.7,0,0,0-9.87,4.229,16.6,16.6,0,0,0-1.256,1.443c-.073,0-.147,0-.22,0a24.272,24.272,0,0,0-3.906.243c-.21.03-.42.064-.628.1a13.355,13.355,0,0,0-6.838-4.191,14.608,14.608,0,0,0-8.1.48,18.609,18.609,0,0,0-7.5,4.6l-.228.236a15.645,15.645,0,0,0-10.289-3.761h-.141a12.937,12.937,0,0,0-4.11.667,15.945,15.945,0,0,0-3.227,1.554,25.438,25.438,0,0,0-4.684,3.789,34.291,34.291,0,0,0-2.686,3.054,35.011,35.011,0,0,0-2.652,3.4,23.07,23.07,0,0,0-6.663-1.13l-.181,0a11.809,11.809,0,0,0-2.476-5.856,12.939,12.939,0,0,0-6.169-4.307,16,16,0,0,0-8.8-.074,8.323,8.323,0,0,0-3.361-.379,8.211,8.211,0,0,0-5.389,2.845,10.317,10.317,0,0,0-.789,1.036c-.2.194-.4.4-.58.606a10,10,0,0,0-.729.946c-.219-.036-.427-.063-.62-.086a17.548,17.548,0,0,0-2.113-.127h0a15.235,15.235,0,0,0-9.544,3.189c-.232-.262-.47-.522-.715-.778a25.893,25.893,0,0,0-10.882-6.871,17.353,17.353,0,0,0-11.363.069,16.116,16.116,0,0,0-6.887-1.544h-.141a12.938,12.938,0,0,0-4.11.667,15.981,15.981,0,0,0-3.227,1.554,25.4,25.4,0,0,0-4.683,3.789,34.107,34.107,0,0,0-2.687,3.054q-.726.817-1.4,1.685a7.883,7.883,0,0,0-2.321-2.965,9.2,9.2,0,0,0-4.626-1.724,17.549,17.549,0,0,0-2.113-.127h0a15.233,15.233,0,0,0-9.544,3.189c-.232-.262-.47-.522-.715-.778a25.894,25.894,0,0,0-10.882-6.871,19.464,19.464,0,0,0-5.838-.928,14.288,14.288,0,0,0-8.937,2.928,13.711,13.711,0,0,0-2.669,2.82,16.09,16.09,0,0,0-3.208,4.924,24.018,24.018,0,0,0-1.754,6.438,32.821,32.821,0,0,0,.978,12.624,46.914,46.914,0,0,0,4.391,10.853,40.416,40.416,0,0,0,3.1,4.8,27.815,27.815,0,0,0,2.126,2.5,13.329,13.329,0,0,0,3.305,2.627,8.634,8.634,0,0,0,4.169.95c.132,0,.265,0,.4,0a10.368,10.368,0,0,0,4.655-1.248,10.894,10.894,0,0,0,1.8-1.206,14.03,14.03,0,0,0,3.991,1.616,12.787,12.787,0,0,0,10.176-2.133c.2-.137.392-.278.585-.428a13.371,13.371,0,0,0,8.839,3.4,12.162,12.162,0,0,0,4.114-.706,8.708,8.708,0,0,0,3.913-2.661,8.024,8.024,0,0,0,.5-.692c.2.125.406.249.61.369a24.861,24.861,0,0,0,11.943,3.693l.212,0a10.477,10.477,0,0,0,6.922-2.222,11.153,11.153,0,0,0,1.869,1.272,8.634,8.634,0,0,0,4.169.95c.132,0,.265,0,.4,0a10.365,10.365,0,0,0,4.654-1.249,10.813,10.813,0,0,0,1.8-1.205,14.036,14.036,0,0,0,3.99,1.616,12.788,12.788,0,0,0,10.177-2.133c.2-.137.392-.278.585-.428a13.371,13.371,0,0,0,8.839,3.4,12.168,12.168,0,0,0,4.115-.706,8.947,8.947,0,0,0,3.509-2.2,6.772,6.772,0,0,0,.869.6,5.462,5.462,0,0,0,6.33-.507,11.172,11.172,0,0,0,1.7-1.805l.048-.062c.462.223,1,.535,1.5.825.361.209.735.426,1.107.631a27.486,27.486,0,0,0,6.2,2.62,17.61,17.61,0,0,0,7.678.333,17.154,17.154,0,0,0,4.961-1.7,13.147,13.147,0,0,0,1.949-1.279,24.306,24.306,0,0,0,11.177,3.254l.212,0a10.26,10.26,0,0,0,7.348-2.6l.049-.047a6.473,6.473,0,0,0,4.125.848,6.846,6.846,0,0,0,4.174-2.217,10.721,10.721,0,0,0,5.595,3.724,9.331,9.331,0,0,0,2.334.292,12.434,12.434,0,0,0,4.229-.806,18.841,18.841,0,0,0,4.511-2.4q.236-.167.466-.34a21.763,21.763,0,0,0,6.092,2.807,19.842,19.842,0,0,0,5.1.736,21.49,21.49,0,0,0,14.952-5.79,18.274,18.274,0,0,0,1.98-2.207,17.4,17.4,0,0,0,4.692-9.139A17.869,17.869,0,0,0,1140.829,4110.3Z" transform="translate(-912.589 -4083.701)" fill="none" stroke="#fff" stroke-miterlimit="10" stroke-width="2.8"/>
        <path id="Path_21152" data-name="Path 21152" d="M1140.829,4110.3v0a16.136,16.136,0,0,0-1.013-1.536c-.2-.285-.4-.526-.6-.758-.167-.2-.355-.421-.583-.651a16.059,16.059,0,0,0-4.251-3.2l.037-.061a16.357,16.357,0,0,0,2.275-9.2,12.48,12.48,0,0,0-2.361-6.732,11.132,11.132,0,0,0-6.731-4.2,12.457,12.457,0,0,0-2.335-.256,13.7,13.7,0,0,0-9.87,4.229,16.6,16.6,0,0,0-1.256,1.443c-.073,0-.147,0-.22,0a24.272,24.272,0,0,0-3.906.243c-.21.03-.42.064-.628.1a13.355,13.355,0,0,0-6.838-4.191,14.608,14.608,0,0,0-8.1.48,18.609,18.609,0,0,0-7.5,4.6l-.228.236a15.645,15.645,0,0,0-10.289-3.761h-.141a12.937,12.937,0,0,0-4.11.667,15.945,15.945,0,0,0-3.227,1.554,25.438,25.438,0,0,0-4.684,3.789,34.291,34.291,0,0,0-2.686,3.054,35.011,35.011,0,0,0-2.652,3.4,23.07,23.07,0,0,0-6.663-1.13l-.181,0a11.809,11.809,0,0,0-2.476-5.856,12.939,12.939,0,0,0-6.169-4.307,16,16,0,0,0-8.8-.074,8.323,8.323,0,0,0-3.361-.379,8.211,8.211,0,0,0-5.389,2.845,10.317,10.317,0,0,0-.789,1.036c-.2.194-.4.4-.58.606a10,10,0,0,0-.729.946c-.219-.036-.427-.063-.62-.086a17.548,17.548,0,0,0-2.113-.127h0a15.235,15.235,0,0,0-9.544,3.189c-.232-.262-.47-.522-.715-.778a25.893,25.893,0,0,0-10.882-6.871,17.353,17.353,0,0,0-11.363.069,16.116,16.116,0,0,0-6.887-1.544h-.141a12.938,12.938,0,0,0-4.11.667,15.981,15.981,0,0,0-3.227,1.554,25.4,25.4,0,0,0-4.683,3.789,34.107,34.107,0,0,0-2.687,3.054q-.726.817-1.4,1.685a7.883,7.883,0,0,0-2.321-2.965,9.2,9.2,0,0,0-4.626-1.724,17.549,17.549,0,0,0-2.113-.127h0a15.233,15.233,0,0,0-9.544,3.189c-.232-.262-.47-.522-.715-.778a25.894,25.894,0,0,0-10.882-6.871,19.464,19.464,0,0,0-5.838-.928,14.288,14.288,0,0,0-8.937,2.928,13.711,13.711,0,0,0-2.669,2.82,16.09,16.09,0,0,0-3.208,4.924,24.018,24.018,0,0,0-1.754,6.438,32.821,32.821,0,0,0,.978,12.624,46.914,46.914,0,0,0,4.391,10.853,40.416,40.416,0,0,0,3.1,4.8,27.815,27.815,0,0,0,2.126,2.5,13.329,13.329,0,0,0,3.305,2.627,8.634,8.634,0,0,0,4.169.95c.132,0,.265,0,.4,0a10.368,10.368,0,0,0,4.655-1.248,10.894,10.894,0,0,0,1.8-1.206,14.03,14.03,0,0,0,3.991,1.616,12.787,12.787,0,0,0,10.176-2.133c.2-.137.392-.278.585-.428a13.371,13.371,0,0,0,8.839,3.4,12.162,12.162,0,0,0,4.114-.706,8.708,8.708,0,0,0,3.913-2.661,8.024,8.024,0,0,0,.5-.692c.2.125.406.249.61.369a24.861,24.861,0,0,0,11.943,3.693l.212,0a10.477,10.477,0,0,0,6.922-2.222,11.153,11.153,0,0,0,1.869,1.272,8.634,8.634,0,0,0,4.169.95c.132,0,.265,0,.4,0a10.365,10.365,0,0,0,4.654-1.249,10.813,10.813,0,0,0,1.8-1.205,14.036,14.036,0,0,0,3.99,1.616,12.788,12.788,0,0,0,10.177-2.133c.2-.137.392-.278.585-.428a13.371,13.371,0,0,0,8.839,3.4,12.168,12.168,0,0,0,4.115-.706,8.947,8.947,0,0,0,3.509-2.2,6.772,6.772,0,0,0,.869.6,5.462,5.462,0,0,0,6.33-.507,11.172,11.172,0,0,0,1.7-1.805l.048-.062c.462.223,1,.535,1.5.825.361.209.735.426,1.107.631a27.486,27.486,0,0,0,6.2,2.62,17.61,17.61,0,0,0,7.678.333,17.154,17.154,0,0,0,4.961-1.7,13.147,13.147,0,0,0,1.949-1.279,24.306,24.306,0,0,0,11.177,3.254l.212,0a10.26,10.26,0,0,0,7.348-2.6l.049-.047a6.473,6.473,0,0,0,4.125.848,6.846,6.846,0,0,0,4.174-2.217,10.721,10.721,0,0,0,5.595,3.724,9.331,9.331,0,0,0,2.334.292,12.434,12.434,0,0,0,4.229-.806,18.841,18.841,0,0,0,4.511-2.4q.236-.167.466-.34a21.763,21.763,0,0,0,6.092,2.807,19.842,19.842,0,0,0,5.1.736,21.49,21.49,0,0,0,14.952-5.79,18.274,18.274,0,0,0,1.98-2.207,17.4,17.4,0,0,0,4.692-9.139A17.869,17.869,0,0,0,1140.829,4110.3Z" transform="translate(-912.589 -4083.701)" fill="none" stroke="#000" stroke-miterlimit="10" stroke-width="2.1"/>
      </g>
      <g id="Group_9073" data-name="Group 9073" transform="translate(187.953 4.211)">
        <path id="Path_21153" data-name="Path 21153" d="M1105.444,4111.7a11.668,11.668,0,0,0-.8-1.2,5.379,5.379,0,0,0-.39-.493c-.148-.176-.268-.317-.383-.428a13.842,13.842,0,0,0-8.381-4.029,12.251,12.251,0,0,0,1.608-1.833,12.139,12.139,0,0,0,3.651-9.282,8.3,8.3,0,0,0-1.535-4.474,6.938,6.938,0,0,0-4.2-2.585,8.253,8.253,0,0,0-1.547-.171,9.484,9.484,0,0,0-6.8,2.967,12.705,12.705,0,0,0-1.213,1.448c-.06.058-.121.114-.18.174a12.912,12.912,0,0,0-1.03,1.2c-.729-.07-1.444-.112-2.122-.123a20.323,20.323,0,0,0-3.233.2,10.854,10.854,0,0,0-5.784,2.423,7.819,7.819,0,0,0-1.34,1.579c-.017.014-.036.027-.053.043a9.213,9.213,0,0,0-2.8,5.6,9.763,9.763,0,0,0,1.2,6.322,10.382,10.382,0,0,0,4.585,4.012c.408.193.841.375,1.287.539.018.007.038.018.06.028a2.877,2.877,0,0,0,.4.163l-.04.059c-.037.034-.075.066-.111.1a8.041,8.041,0,0,0-2.309,3.789,9.264,9.264,0,0,0,.074,4.745,15.126,15.126,0,0,0,4.479,7.083,17.821,17.821,0,0,0,7.184,4.043,15.571,15.571,0,0,0,4.021.579,17.193,17.193,0,0,0,12-4.636,14.129,14.129,0,0,0,1.672-1.9,13.16,13.16,0,0,0,3.739-7.074A13.587,13.587,0,0,0,1105.444,4111.7Z" transform="translate(-1068.8 -4087.2)"/>
        <g id="Group_9072" data-name="Group 9072" clip-path="url(#clip-path-5)">
          <g id="Group_9071" data-name="Group 9071" transform="translate(2.37 1.019)">
            <g id="Group_9070" data-name="Group 9070">
              <path id="Path_21154" data-name="Path 21154" d="M1097.323,4106.268l.295.343c.219.249.3.342.3.342Z" transform="translate(-1065.373 -4084.344)" fill="url(#linear-gradient-8)"/>
              <path id="Path_21155" data-name="Path 21155" d="M1104.118,4111.834a10.431,10.431,0,0,0-1.1-1.521c-2.7-3.119-6.816-4.134-10.89-4.134a29.477,29.477,0,0,0-5.246.5c-1.485.27-2.935.7-4.425.94a11.453,11.453,0,0,1-1.817.178q-.144,0-.289-.007a2.248,2.248,0,0,1-1.788-.721,1.784,1.784,0,0,1,.012-1.833,2.7,2.7,0,0,1,1.237-1.371,1.634,1.634,0,0,1,.66-.141c1.014,0,1.9.976,2.532,1.689.1.118.209.236.318.352.049.052.144.195.211.215a.132.132,0,0,0,.032,0,2.481,2.481,0,0,0,.44-.118c.193-.048.386-.1.578-.146.717-.188,1.437-.361,2.163-.5a30.828,30.828,0,0,1,4.34-.543q.543-.029,1.089-.035h.018c.178,0,.41.029.63.029a1,1,0,0,0,.486-.093,11.654,11.654,0,0,0,1.507-1.026,11.307,11.307,0,0,0,2.748-3.189,10.983,10.983,0,0,0,1.456-6.2,7.251,7.251,0,0,0-1.379-3.868,5.846,5.846,0,0,0-3.577-2.115,7.183,7.183,0,0,0-1.344-.128,8.338,8.338,0,0,0-5.963,2.728,15.01,15.01,0,0,0-3.6,7.574c-.094.489-.166.979-.233,1.469a16.182,16.182,0,0,1,.667-5.842c-.706-.059-1.416-.093-2.126-.093a19.208,19.208,0,0,0-3.055.232,9.861,9.861,0,0,0-5.181,2.233,8.117,8.117,0,0,0-2.376,4.971,8.676,8.676,0,0,0,1.139,5.6,9.3,9.3,0,0,0,4.164,3.515c.4.181.8.343,1.213.488a2.041,2.041,0,0,0,.5.179h.028c.073-.011.19-.13.254-.171.112-.073.225-.145.342-.213a8.785,8.785,0,0,1,2.672-1.005,10.64,10.64,0,0,1,2.114-.208,14.167,14.167,0,0,1,8.379,2.994c2.58,1.975,5.093,5.485,3.465,8.833a5.2,5.2,0,0,1-.425.712,7.1,7.1,0,0,0,.057-3.166,8.458,8.458,0,0,0-1.918-3.577,12.95,12.95,0,0,0-7.13-4.033,11.028,11.028,0,0,0-2.138-.215,7.794,7.794,0,0,0-5.5,2.037,6.94,6.94,0,0,0-1.949,3.3,8.171,8.171,0,0,0,.137,4.18,13.965,13.965,0,0,0,4.258,6.494,16.766,16.766,0,0,0,6.8,3.7,14.571,14.571,0,0,0,3.748.482,16.212,16.212,0,0,0,11.161-4.5,12.053,12.053,0,0,0,3.593-6.788A12.5,12.5,0,0,0,1104.118,4111.834Z" transform="translate(-1070.769 -4088.047)" fill="url(#linear-gradient-9)"/>
            </g>
            <path id="Path_21156" data-name="Path 21156" d="M1085.841,4090.106c3.049-2.091,7.844-1.995,8.9,2.195a7.534,7.534,0,0,1,.057,3.446,15.741,15.741,0,0,0-.871-3.168c-1.344-3.462-5.036-3.1-8.09-2.473Z" transform="translate(-1067.706 -4087.901)" fill="#fff"/>
            <path id="Path_21157" data-name="Path 21157" d="M1083.785,4108.751a2.61,2.61,0,0,1,2.36.134,7.506,7.506,0,0,1,1.828,1.511,5.717,5.717,0,0,1,.811,1.308l-.091.059a6.877,6.877,0,0,0-2.319-1.665,7.5,7.5,0,0,1-2.6-1.238l.007-.108Z" transform="translate(-1068.126 -4083.885)" fill="#fff"/>
            <path id="Path_21158" data-name="Path 21158" d="M1091.064,4104.661c7.548-.746,11.723,8.324,8.765,14.563a9.393,9.393,0,0,1-4.629,4.659,10.97,10.97,0,0,0,3.839-4.986c2.236-5.98-1.154-13.7-7.976-14.235Z" transform="translate(-1066.645 -4084.68)" fill="#fff"/>
          </g>
        </g>
      </g>
      <g id="Group_9077" data-name="Group 9077" transform="translate(112.981 8.108)">
        <path id="Path_21160" data-name="Path 21160" d="M1049.952,4116.184a18.3,18.3,0,0,0-4.259-9.412,15.645,15.645,0,0,0-1.309-1.311,4.445,4.445,0,0,0-.4-.348l-.183-.146a17.95,17.95,0,0,0-10.693-3.709c-.115,0-.23,0-.344,0a16.688,16.688,0,0,0-4.476.616c.116-.311.217-.624.3-.934a7.833,7.833,0,0,0-1.342-7.125,8.738,8.738,0,0,0-4.16-2.92,9.942,9.942,0,0,0-3.045-.452,14.878,14.878,0,0,0-4.451.739l-.307.1a4.477,4.477,0,0,0-2.287-.673c-.123,0-.248.006-.369.018a3.965,3.965,0,0,0-2.622,1.415,6.335,6.335,0,0,0-.723,1.032,4.671,4.671,0,0,0-.646.611,9.544,9.544,0,0,0-1.918,5,28.656,28.656,0,0,0-.161,5.675,45.2,45.2,0,0,0,2.1,11.022,55.125,55.125,0,0,0,4.334,10.085,38.171,38.171,0,0,0,3.034,4.762,9.117,9.117,0,0,0,.925,1.069,3.248,3.248,0,0,0,.624.491,1.343,1.343,0,0,0,.691.2,1.307,1.307,0,0,0,.845-.331,7.192,7.192,0,0,0,1.066-1.157c.179-.227.349-.441.521-.62a4.848,4.848,0,0,1,1.4-1.04,2.477,2.477,0,0,1,1.07-.249,2.712,2.712,0,0,1,.622.077,13.115,13.115,0,0,1,3.348,1.555c.336.195.682.4,1.028.586a23.611,23.611,0,0,0,5.247,2.243,13.926,13.926,0,0,0,3.54.47,12.718,12.718,0,0,0,2.3-.209,12.858,12.858,0,0,0,3.743-1.275,9.842,9.842,0,0,0,3.478-3.2,10.642,10.642,0,0,0,1.605-2A15.82,15.82,0,0,0,1049.952,4116.184Zm-24.91,4.126c-.028,0-.055,0-.083,0a2.474,2.474,0,0,1-1.9-1.2,2.306,2.306,0,0,1-.385-1.043,3.617,3.617,0,0,1,1.249-.235,2.607,2.607,0,0,1,.509.048,1.5,1.5,0,0,1,1.068.78,2.948,2.948,0,0,1,.3,1.518A2.383,2.383,0,0,1,1025.042,4120.311Zm-9.757-15.833c.6.332.489,1.394.457,1.626a6.4,6.4,0,0,1-.255,1.018,4.566,4.566,0,0,1-.383-1.819,4.21,4.21,0,0,1,.088-.864A.573.573,0,0,1,1015.285,4104.477Z" transform="translate(-1006.49 -4090.439)"/>
        <g id="Group_9076" data-name="Group 9076" clip-path="url(#clip-path-6)">
          <g id="Group_9075" data-name="Group 9075" transform="translate(2.463 1.095)">
            <g id="Group_9074" data-name="Group 9074">
              <path id="Path_21161" data-name="Path 21161" d="M1036.841,4103.153l.131.107.44.354Z" transform="translate(-1002.786 -4088.951)" fill="url(#linear-gradient-10)"/>
              <path id="Path_21162" data-name="Path 21162" d="M1024.541,4114.217c.007-.038.014-.073.019-.11-.012.059-.029.146-.041.207C1024.527,4114.281,1024.535,4114.249,1024.541,4114.217Z" transform="translate(-1005.289 -4086.725)" fill="url(#linear-gradient-11)"/>
              <path id="Path_21163" data-name="Path 21163" d="M1046.731,4126.074a14.885,14.885,0,0,0,1.722-9.917,17.139,17.139,0,0,0-4-8.842,14.253,14.253,0,0,0-1.734-1.656,16.86,16.86,0,0,0-10.059-3.491l-.32,0a16.547,16.547,0,0,0-8.979,2.756,16.754,16.754,0,0,0-3.312,2.79,14.945,14.945,0,0,1,3.292-3.28,16.437,16.437,0,0,1,1.364-.93c.458-.281.958-.494,1.413-.773.28-.171.427-.7.552-1a10.164,10.164,0,0,0,.44-1.265,6.781,6.781,0,0,0-1.143-6.154,7.686,7.686,0,0,0-3.637-2.56,8.857,8.857,0,0,0-2.711-.4,13.915,13.915,0,0,0-4.122.688,6.269,6.269,0,0,1,1.344,3.668,6.113,6.113,0,0,0-2.292-3.516,3.531,3.531,0,0,0-1.974-.678c-.087,0-.175,0-.262.012a2.906,2.906,0,0,0-1.9,1.045,8.537,8.537,0,0,0-1.662,4.43,28,28,0,0,0-.152,5.463,44.136,44.136,0,0,0,2.053,10.753,53.948,53.948,0,0,0,4.248,9.885,37.345,37.345,0,0,0,2.947,4.627,8.05,8.05,0,0,0,.812.943,2.315,2.315,0,0,0,.419.336.294.294,0,0,0,.138.055c.043,0,.083-.026.152-.082a20.074,20.074,0,0,0,1.494-1.691,5.934,5.934,0,0,1,1.721-1.271,3.574,3.574,0,0,1,1.533-.352,3.83,3.83,0,0,1,.877.106,19.651,19.651,0,0,1,4.648,2.246,22.493,22.493,0,0,0,5,2.144,12.748,12.748,0,0,0,3.261.433,11.667,11.667,0,0,0,2.1-.189,11.857,11.857,0,0,0,3.426-1.165A8.888,8.888,0,0,0,1046.731,4126.074Zm-28.953-21.636a7.035,7.035,0,0,1-1.029,2.735,7.308,7.308,0,0,1-1.108,1.327,2.868,2.868,0,0,1-1.178.774c.049-.066.1-.131.15-.2.069-.088.152-.173.211-.266.076-.118.09-.077,0-.192a6.52,6.52,0,0,1-.605-.915,5.69,5.69,0,0,1-.629-2.583,4.66,4.66,0,0,1,.811-2.714,2.061,2.061,0,0,1,1.606-.913,1.556,1.556,0,0,1,.759.2A2.6,2.6,0,0,1,1017.779,4104.438Zm10.043,14.226s-.008.048-.034.178-.035.172-.036.172l.015-.075a3.186,3.186,0,0,1-3.14,2.281l-.125,0a3.574,3.574,0,0,1-2.778-1.687,3.085,3.085,0,0,1-.544-2.126,2.575,2.575,0,0,1,1.066-1.663,4.651,4.651,0,0,1,2.627-.828,3.641,3.641,0,0,1,.729.071,2.58,2.58,0,0,1,1.824,1.356,4.013,4.013,0,0,1,.383,2.392Z" transform="translate(-1008.537 -4091.35)" fill="url(#linear-gradient-12)"/>
            </g>
            <path id="Path_21164" data-name="Path 21164" d="M1016.561,4092.053a6.167,6.167,0,0,1,7.924,6.79,16.489,16.489,0,0,0-1.1-2.662c-1.323-2.583-4.056-3.73-6.828-4.128Z" transform="translate(-1006.907 -4091.258)" fill="#fff"/>
            <path id="Path_21165" data-name="Path 21165" d="M1011.505,4092.3c.9-.966,2.839.058,2.308,1.349a10.983,10.983,0,0,1-2.308-1.349Z" transform="translate(-1007.934 -4091.234)" fill="#fff"/>
            <path id="Path_21166" data-name="Path 21166" d="M1022.543,4102.975a12.08,12.08,0,0,1,15.024,1.1,19.266,19.266,0,0,0-15.024-1.1Z" transform="translate(-1005.691 -4089.415)" fill="#fff"/>
            <path id="Path_21167" data-name="Path 21167" d="M1036.344,4123.866a12.453,12.453,0,0,0,4.636-6.553,17.649,17.649,0,0,0,.406-2.772c1.6,3.826-1.107,8.411-5.042,9.325Z" transform="translate(-1002.887 -4086.636)" fill="#fff"/>
          </g>
        </g>
      </g>
      <g id="Group_9081" data-name="Group 9081" transform="translate(166.956 5.667)">
        <path id="Path_21169" data-name="Path 21169" d="M1084.592,4123.43a2.784,2.784,0,0,0-1.16-1.628c-.078-.059-.163-.12-.255-.185a3.129,3.129,0,0,0-.634-.395,24.784,24.784,0,0,0-4.314-1.87c-.542-.2-1.1-.4-1.64-.607a26.281,26.281,0,0,1-2.745-1.249,12.142,12.142,0,0,0,3.9-3.6,13.564,13.564,0,0,0,1.458-1.767,14.787,14.787,0,0,0,2.341-5.328,18.862,18.862,0,0,0,.07-7.344,17.577,17.577,0,0,0-2.509-6.51,9.722,9.722,0,0,0-5.754-4.283,8.971,8.971,0,0,0-2.113-.248,11.608,11.608,0,0,0-3.657.633,14.412,14.412,0,0,0-5.823,3.557,14.221,14.221,0,0,0-1.413,1.689,17.916,17.916,0,0,0-4.606,10.513,2.98,2.98,0,0,0-2.354,1.975,4.006,4.006,0,0,0-1.683,2.5,11.787,11.787,0,0,0-.337,3.8,27.171,27.171,0,0,0,.5,3.952,44.775,44.775,0,0,0,2.205,7.572,31.124,31.124,0,0,0,1.66,3.643,10.194,10.194,0,0,0,2.5,3.283,2.729,2.729,0,0,0,1.657.652,1.962,1.962,0,0,0,.273-.019,2.629,2.629,0,0,0,1.749-1.045,4.053,4.053,0,0,0,.489-.884,2.667,2.667,0,0,0,.88-.759,6.83,6.83,0,0,0,.977-3.807l.012-.233c.014-.274.019-.556.024-.829,0-.177.007-.354.013-.529a6.5,6.5,0,0,1,.788,1.565l.089.222.053.132a31.1,31.1,0,0,0,1.545,3.419c1.331,2.415,2.932,3.879,4.761,4.353a5.112,5.112,0,0,0,1.278.157,8.335,8.335,0,0,0,2.806-.558,14.637,14.637,0,0,0,3.5-1.87,13.312,13.312,0,0,0,2.821-2.639c.135-.174.277-.364.415-.568a11.662,11.662,0,0,0,.953-1.074C1084.026,4126.3,1084.934,4124.908,1084.592,4123.43Zm-18.195-11.22a2.023,2.023,0,0,1-.363.032,3.172,3.172,0,0,1-2.258-1.131,1.38,1.38,0,0,1-.456-.952c.025-.037.078-.1.116-.149s.079-.1.117-.148l.219-.284a10.43,10.43,0,0,1,.765-.757,2.335,2.335,0,0,1,1.387-.708c.032,0,.064,0,.1,0,.873.092,1.16,1.383,1.19,2.053a3.937,3.937,0,0,1-.468,1.9A1.485,1.485,0,0,1,1066.4,4112.209Z" transform="translate(-1051.349 -4088.411)"/>
        <g id="Group_9080" data-name="Group 9080" clip-path="url(#clip-path-7)">
          <g id="Group_9079" data-name="Group 9079" transform="translate(2.464 1.095)">
            <g id="Group_9078" data-name="Group 9078">
              <path id="Path_21170" data-name="Path 21170" d="M1076.986,4116.546l.558.4.138.1Z" transform="translate(-1048.603 -4083.789)" fill="url(#linear-gradient-13)"/>
              <path id="Path_21171" data-name="Path 21171" d="M1082.031,4126.36a3.813,3.813,0,0,0,1.079-2.869,1.773,1.773,0,0,0-.773-1.015c-1.967-1.4-4.345-2.025-6.565-2.9a26.6,26.6,0,0,1-3.115-1.437q-.664-.365-1.3-.78-.26-.171-.514-.348a2.241,2.241,0,0,0-.669-.423,8.26,8.26,0,0,1-1.77-.5,4.25,4.25,0,0,1-1.178-.874,7.407,7.407,0,0,0,2.585.6c.089,0,.178,0,.268,0a8.435,8.435,0,0,0,2.838-.491,10.517,10.517,0,0,0,4.974-4.011,13.663,13.663,0,0,0,2.169-4.934,17.928,17.928,0,0,0,.064-6.92c-.739-4.108-3.028-8.849-7.444-9.924a7.816,7.816,0,0,0-1.854-.217,10.534,10.534,0,0,0-3.311.576,13.436,13.436,0,0,0-5.388,3.285c-3,3.057-4.306,7.467-4.483,11.666-.008.2-.007.81-.007.81l.849,1.309a9.759,9.759,0,0,0-2.54-1.244,1.689,1.689,0,0,0-.307-.029c-1.076,0-1.65,1.107-1.929,2.063a10.569,10.569,0,0,0-.294,3.444,25.964,25.964,0,0,0,.479,3.794,43.582,43.582,0,0,0,2.151,7.386,30.162,30.162,0,0,0,1.6,3.514,9.16,9.16,0,0,0,2.2,2.941,1.683,1.683,0,0,0,.988.424.89.89,0,0,0,.129-.009,1.521,1.521,0,0,0,1.012-.611,6.436,6.436,0,0,0,.776-3.446,9.351,9.351,0,0,1,.457-3.545,1.559,1.559,0,0,1,1.406-.9,1.591,1.591,0,0,1,.676.152c1.013.469,1.464,1.769,1.852,2.727a31.274,31.274,0,0,0,1.541,3.432c.883,1.6,2.216,3.34,4.078,3.823a4,4,0,0,0,1,.122,7.36,7.36,0,0,0,2.436-.493,13.527,13.527,0,0,0,3.233-1.732A12.219,12.219,0,0,0,1082.031,4126.36Zm-15.826-13.264a3.154,3.154,0,0,1-.587.055,4.278,4.278,0,0,1-3.08-1.5,2.218,2.218,0,0,1-.671-2.03,2.131,2.131,0,0,1,.4-.6q.328-.431.667-.853a16.012,16.012,0,0,1,1.833-1.991,3.368,3.368,0,0,1,2.112-.98,2,2,0,0,1,.208.012c1.495.156,2.112,1.777,2.17,3.093a5.393,5.393,0,0,1-.86,2.953A3.694,3.694,0,0,1,1066.205,4113.1Z" transform="translate(-1053.397 -4089.321)" fill="url(#linear-gradient-14)"/>
            </g>
            <path id="Path_21172" data-name="Path 21172" d="M1076.785,4119.552a4.989,4.989,0,0,0,.6-.875c.024-.074.018-.123,0-.132s-.016,0-.034-.031c0-.012-.024-.041-.03-.066a2.716,2.716,0,0,0-1.131-.919c-.661-.376-1.356-.674-2.054-.993l.028-.106c1.195.146,3.575.456,4.221,1.6.478.977-.656,1.817-1.562,1.625l-.037-.1Z" transform="translate(-1049.182 -4083.813)" fill="#fff"/>
            <path id="Path_21173" data-name="Path 21173" d="M1064.532,4090.934c5.122-2.173,10.968.5,11.569,6.29a15.626,15.626,0,0,0-1.926-3.057c-2.32-2.84-6.133-3.465-9.643-3.233Z" transform="translate(-1051.134 -4089.146)" fill="#fff"/>
          </g>
        </g>
      </g>
      <g id="Group_9085" data-name="Group 9085" transform="translate(144.761 7.593)">
        <path id="Path_21175" data-name="Path 21175" d="M1061.231,4094.675a4.729,4.729,0,0,0-.464-.633,5.138,5.138,0,0,0-.475-.548,11.3,11.3,0,0,0-8.279-3.482h-.119a8.783,8.783,0,0,0-2.792.441,11.782,11.782,0,0,0-2.38,1.155,21.3,21.3,0,0,0-3.906,3.172,29.7,29.7,0,0,0-2.434,2.781,31.452,31.452,0,0,0-4.465,6.5,24.432,24.432,0,0,0-2.987,9.812,16.062,16.062,0,0,0,2.717,9.875,22.348,22.348,0,0,0,7.282,6.745,20.668,20.668,0,0,0,9.849,3.108l.165,0a6.159,6.159,0,0,0,4.443-1.438,4.716,4.716,0,0,0,.947-1.29,4.563,4.563,0,0,0,.421-.353,6.1,6.1,0,0,0,1.526-5.25c-.123-.991-.6-3.432-2.418-4.695a2.848,2.848,0,0,0-1.622-.542h-.053a3.825,3.825,0,0,0-1.231.281c-.114.041-.223.079-.316.105-.4.114-.81.209-1.234.289a14,14,0,0,0,1.425-1.062,16.126,16.126,0,0,0,2.553-2.773,18.977,18.977,0,0,0,3.344-4.987,25.982,25.982,0,0,0,2.375-8.339A13.369,13.369,0,0,0,1061.231,4094.675Zm-18.3,19.854c-.009-.08-.015-.161-.021-.241a6.8,6.8,0,0,1,.877-3.735,2.915,2.915,0,0,1,1.718-.771c.043,0,.088,0,.132.006a1.227,1.227,0,0,1,1.029,1.4h0v.008h0a3.121,3.121,0,0,1-.49,1.415A8.954,8.954,0,0,1,1042.932,4114.529Z" transform="translate(-1032.903 -4090.011)"/>
        <g id="Group_9084" data-name="Group 9084" clip-path="url(#clip-path-8)">
          <g id="Group_9083" data-name="Group 9083" transform="translate(2.464 1.095)">
            <g id="Group_9082" data-name="Group 9082">
              <path id="Path_21176" data-name="Path 21176" d="M1055.079,4093.591s.085.109.323.409.327.406.328.406Z" transform="translate(-1030.86 -4090.378)" fill="url(#linear-gradient-15)"/>
              <path id="Path_21177" data-name="Path 21177" d="M1059.492,4094.543a10.107,10.107,0,0,0-7.9-3.622l-.108,0a7.744,7.744,0,0,0-2.448.382,10.76,10.76,0,0,0-2.159,1.05,20.355,20.355,0,0,0-3.7,3.013,30.137,30.137,0,0,0-5.335,7.369,23.565,23.565,0,0,0-2.866,9.372,15,15,0,0,0,2.536,9.207,21.2,21.2,0,0,0,6.926,6.408,19.344,19.344,0,0,0,9.307,2.956h.15a5.258,5.258,0,0,0,3.688-1.135,5.065,5.065,0,0,0,1.193-4.323,5.676,5.676,0,0,0-1.956-3.93,1.767,1.767,0,0,0-1-.345h-.029a5.17,5.17,0,0,0-1.267.343,14.513,14.513,0,0,1-2.4.474,17.567,17.567,0,0,1-2.014.116,16.4,16.4,0,0,1-2.733-.226,10.518,10.518,0,0,1-3.7-1.236,4.861,4.861,0,0,1-1.271-1.089c.457.152.9.361,1.349.532a5.141,5.141,0,0,0,1.367.247c.391.034.785.051,1.178.051a13.891,13.891,0,0,0,2.068-.154,13.341,13.341,0,0,0,6.7-3.017,17.062,17.062,0,0,0,4.25-5.753,24.908,24.908,0,0,0,2.274-7.984A11.843,11.843,0,0,0,1059.492,4094.543Zm-10.787,15.028s0-.036.007-.137a5.582,5.582,0,0,1-1.722,3.315,10.01,10.01,0,0,1-4.145,2.639,5.953,5.953,0,0,1-1.853.383,2.756,2.756,0,0,1-.426-.032,5.866,5.866,0,0,0,.908-.369c.125-.079.1-.044.064-.2-.023-.11-.045-.221-.063-.333-.035-.221-.059-.446-.073-.669a7.865,7.865,0,0,1,.491-3.221,7.276,7.276,0,0,1,1.887-2.843,4.175,4.175,0,0,1,2.678-1.25c.077,0,.154,0,.231.011a2.3,2.3,0,0,1,2.022,2.564c.007-.1.01-.137.01-.137Z" transform="translate(-1034.95 -4090.921)" fill="url(#linear-gradient-3)"/>
            </g>
            <path id="Path_21178" data-name="Path 21178" d="M1049.033,4092.409a6.168,6.168,0,0,1,7.926,6.79,16.389,16.389,0,0,0-1.1-2.662c-1.323-2.583-4.056-3.73-6.828-4.129Z" transform="translate(-1032.089 -4090.669)" fill="#fff"/>
            <path id="Path_21179" data-name="Path 21179" d="M1048.663,4117.867c.6-.167,1.116-.308,1.627-.491a7.993,7.993,0,0,1,2.567-.69,2.19,2.19,0,0,1,2.011,1.929c-.811-.577-1.405-1.1-2.329-.829-.094.017-.28.065-.37.094a4.677,4.677,0,0,1-3.505-.012Z" transform="translate(-1032.164 -4085.686)" fill="#fff"/>
          </g>
        </g>
      </g>
      <g id="Group_9089" data-name="Group 9089" transform="translate(68.911 8.14)">
        <path id="Path_21181" data-name="Path 21181" d="M1021.81,4123.326a42.685,42.685,0,0,0-1.979-10.3c-.027-.092-.055-.184-.084-.274-.071-.224-.144-.454-.152-.476l-.245-.756h0c-.422-1.248-.892-2.477-1.4-3.667l-.052-.124c-.605-1.416-1.177-2.754-1.629-4.166-.212-.663-.384-1.334-.564-2.044-.208-.818-.424-1.664-.708-2.5a4.464,4.464,0,0,0-1.387-2.2,5.081,5.081,0,0,0-2.559-.88,13.447,13.447,0,0,0-1.611-.1,11.01,11.01,0,0,0-7.394,2.665,12.168,12.168,0,0,0-1.959,2.2q-.332.334-.639.7a22.239,22.239,0,0,0-3.314-4.453,21.656,21.656,0,0,0-9.1-5.762,15.265,15.265,0,0,0-4.576-.734,10.119,10.119,0,0,0-6.336,2.03,9.551,9.551,0,0,0-2.03,2.225,11.744,11.744,0,0,0-2.585,3.886,19.765,19.765,0,0,0-1.443,5.309,28.645,28.645,0,0,0,.876,11,42.714,42.714,0,0,0,4,9.877,36.282,36.282,0,0,0,2.776,4.308,23.318,23.318,0,0,0,1.8,2.12,9.305,9.305,0,0,0,2.26,1.838,4.506,4.506,0,0,0,2.181.45c.112,0,.224,0,.336,0a6.141,6.141,0,0,0,2.746-.757,7.072,7.072,0,0,0,2.128-1.775c.136-.163.268-.336.392-.514l.01-.012a1.72,1.72,0,0,0,.195-.3c.18-.165.356-.339.526-.527q.24.22.48.43a11.671,11.671,0,0,0,4.978,2.728,7.843,7.843,0,0,0,1.762.2,8.941,8.941,0,0,0,5.071-1.689,12.661,12.661,0,0,0,3-3.038c.146-.151.289-.3.426-.46a.227.227,0,0,0,0,.029,1.538,1.538,0,0,0,.306.768l.016.024c.1.181.213.36.324.53a10.224,10.224,0,0,0,1.323,1.659,9.137,9.137,0,0,0,6.432,2.708,8,8,0,0,0,2.7-.46,4.6,4.6,0,0,0,2.065-1.354,4.209,4.209,0,0,0,.555-.911,3.819,3.819,0,0,0,.813-.732,4.985,4.985,0,0,0,.9-1.873A15.247,15.247,0,0,0,1021.81,4123.326Z" transform="translate(-969.862 -4090.466)"/>
        <g id="Group_9088" data-name="Group 9088" clip-path="url(#clip-path-9)">
          <g id="Group_9087" data-name="Group 9087" transform="translate(2.464 1.095)">
            <g id="Group_9086" data-name="Group 9086">
              <path id="Path_21182" data-name="Path 21182" d="M1019.266,4129.172a4.031,4.031,0,0,0,.7-1.477,14.118,14.118,0,0,0,.339-4.5,42.723,42.723,0,0,0-2.1-10.56c-.487-1.538-1.048-3.056-1.681-4.54-.618-1.449-1.234-2.882-1.717-4.385s-.759-3.04-1.266-4.521a3.437,3.437,0,0,0-1.018-1.682,4.074,4.074,0,0,0-2.022-.661,12.481,12.481,0,0,0-1.481-.089,9.95,9.95,0,0,0-6.672,2.394,11.041,11.041,0,0,0-2.376,2.958,1.506,1.506,0,0,0-.206.388c-.014.147.17.444.221.587.141.4.265.794.375,1.2a18.419,18.419,0,0,1,.47,2.268,17.777,17.777,0,0,1-1.023,8.716,18.846,18.846,0,0,0,.116-8.866,19.712,19.712,0,0,0-5-8.873,20.717,20.717,0,0,0-8.634-5.474,14.313,14.313,0,0,0-4.247-.683,9.006,9.006,0,0,0-5.66,1.8,10.067,10.067,0,0,0-2.918,4.044,18.747,18.747,0,0,0-1.362,5.016,27.728,27.728,0,0,0,.851,10.58,41.62,41.62,0,0,0,3.9,9.625,35.538,35.538,0,0,0,2.692,4.179,22.47,22.47,0,0,0,1.717,2.021,8.345,8.345,0,0,0,1.988,1.631,3.427,3.427,0,0,0,1.664.32c.106,0,.213,0,.32,0a5.012,5.012,0,0,0,2.248-.629,6.093,6.093,0,0,0,1.8-1.5c.119-.145.231-.293.339-.447a1.251,1.251,0,0,0,.128-.187c.05-.124.01-.131-.083-.242q-.426-.513-.823-1.05a31.875,31.875,0,0,1-4.552-9.087c-.183-.561-.354-1.135-.482-1.711a62.34,62.34,0,0,0,5.055,7.8,26.774,26.774,0,0,0,3.579,3.861,10.762,10.762,0,0,0,4.507,2.489,6.7,6.7,0,0,0,1.516.174,7.817,7.817,0,0,0,4.448-1.495,15.257,15.257,0,0,0,4.591-5.944,46.255,46.255,0,0,0,3.268-9.371c.058-.232.112-.464.167-.7a22.412,22.412,0,0,1-.124,3.549,31,31,0,0,1-.748,4.4,24.431,24.431,0,0,1-1.5,4.364q-.132.287-.272.572c-.057.111-.254.361-.245.476.007.092.124.23.171.312.1.169.2.333.3.5a9.115,9.115,0,0,0,1.181,1.482,8.1,8.1,0,0,0,5.654,2.383,6.861,6.861,0,0,0,2.328-.4A3.538,3.538,0,0,0,1019.266,4129.172Z" transform="translate(-971.91 -4091.376)" fill="url(#linear-gradient-17)"/>
              <path id="Path_21183" data-name="Path 21183" d="M1010.33,4108.875l.066.21c.165.517.221.7.221.7Z" transform="translate(-964.103 -4087.82)" fill="url(#linear-gradient-18)"/>
            </g>
            <path id="Path_21184" data-name="Path 21184" d="M1001.734,4096.746c1.535-.386,4.283-.306,4.757,1.6a16.4,16.4,0,0,0,1.5,5.162l-.094.058a13.823,13.823,0,0,1-2.317-4.679,1.084,1.084,0,0,0-.487-.726,15.517,15.517,0,0,0-3.363-1.307v-.11Z" transform="translate(-965.85 -4090.323)" fill="#fff"/>
            <path id="Path_21185" data-name="Path 21185" d="M975.247,4096.982a6.263,6.263,0,0,1,5.258-4.64,9.328,9.328,0,0,1,3.667.175,11.434,11.434,0,0,1,3.31,1.386,20.27,20.27,0,0,0-6.8-.482,7.854,7.854,0,0,0-5.436,3.561Z" transform="translate(-971.232 -4091.202)" fill="#fff"/>
            <path id="Path_21186" data-name="Path 21186" d="M992.087,4099.533a9.912,9.912,0,0,1,2.938,6.206,18.518,18.518,0,0,1,.273,3.452,20.732,20.732,0,0,1-.338,3.416l-.108-.013.011-.851a21.381,21.381,0,0,0-.926-6.62c-.448-1.207-.962-2.69-1.372-3.918L992,4099.6l.088-.064Z" transform="translate(-967.828 -4089.718)" fill="#fff"/>
            <path id="Path_21187" data-name="Path 21187" d="M998.579,4119.931c.2,2.9-3.276,4.2-5.5,2.729.581-.123,1.135-.159,1.693-.265a5.447,5.447,0,0,0,3.809-2.464Z" transform="translate(-967.609 -4085.573)" fill="#fff"/>
            <path id="Path_21188" data-name="Path 21188" d="M1011.822,4118.617a3.624,3.624,0,0,1-1.757,4.865,4.013,4.013,0,0,1-3.184-.489l.041-.1c1.188.331,2.723.436,3.488-.645a6.479,6.479,0,0,0,.651-1.688c.195-.589.415-1.347.651-1.933l.11-.007Z" transform="translate(-964.804 -4085.84)" fill="#fff"/>
            <path id="Path_21189" data-name="Path 21189" d="M986.368,4123.188a2.829,2.829,0,0,1-1.457-.975,10.83,10.83,0,0,1-1.121-2.219c-.31-.76-.59-1.533-.83-2.317l.1-.047,1.826,2.68a7.15,7.15,0,0,1,1.544,2.788l-.06.09Z" transform="translate(-969.665 -4086.041)" fill="#fff"/>
          </g>
        </g>
      </g>
      <g id="Group_9093" data-name="Group 9093" transform="translate(50.007 7.593)">
        <path id="Path_21191" data-name="Path 21191" d="M982.478,4094.675a4.729,4.729,0,0,0-.464-.633,5.125,5.125,0,0,0-.475-.548,11.3,11.3,0,0,0-8.279-3.482h-.119a8.783,8.783,0,0,0-2.792.441,11.779,11.779,0,0,0-2.38,1.155,21.3,21.3,0,0,0-3.906,3.172,29.715,29.715,0,0,0-2.434,2.781,31.449,31.449,0,0,0-4.465,6.5,24.414,24.414,0,0,0-2.986,9.812,16.063,16.063,0,0,0,2.716,9.875,22.35,22.35,0,0,0,7.282,6.745,20.668,20.668,0,0,0,9.851,3.108l.164,0a6.159,6.159,0,0,0,4.443-1.438,4.718,4.718,0,0,0,.947-1.29,4.579,4.579,0,0,0,.421-.353,6.1,6.1,0,0,0,1.526-5.25c-.123-.991-.6-3.432-2.419-4.695a2.844,2.844,0,0,0-1.622-.542h-.053a3.824,3.824,0,0,0-1.231.281c-.114.041-.223.079-.316.105-.4.114-.81.209-1.234.289a14,14,0,0,0,1.424-1.062,16.127,16.127,0,0,0,2.553-2.773,18.948,18.948,0,0,0,3.344-4.987,25.985,25.985,0,0,0,2.375-8.339A13.369,13.369,0,0,0,982.478,4094.675Zm-18.3,19.854c-.008-.08-.014-.161-.019-.241a6.79,6.79,0,0,1,.876-3.735,2.914,2.914,0,0,1,1.718-.771c.043,0,.089,0,.132.006a1.226,1.226,0,0,1,1.029,1.4h0v.008h0a3.129,3.129,0,0,1-.489,1.415A8.965,8.965,0,0,1,964.179,4114.529Z" transform="translate(-954.15 -4090.011)"/>
        <g id="Group_9092" data-name="Group 9092" clip-path="url(#clip-path-10)">
          <g id="Group_9091" data-name="Group 9091" transform="translate(2.464 1.095)">
            <g id="Group_9090" data-name="Group 9090">
              <path id="Path_21192" data-name="Path 21192" d="M976.326,4093.591s.085.109.322.409.327.406.329.406Z" transform="translate(-952.108 -4090.378)" fill="url(#linear-gradient-19)"/>
              <path id="Path_21193" data-name="Path 21193" d="M980.739,4094.543a10.1,10.1,0,0,0-7.9-3.622l-.108,0a7.745,7.745,0,0,0-2.449.382,10.759,10.759,0,0,0-2.159,1.05,20.352,20.352,0,0,0-3.7,3.013,30.136,30.136,0,0,0-5.335,7.369,23.545,23.545,0,0,0-2.865,9.372,14.994,14.994,0,0,0,2.535,9.207,21.2,21.2,0,0,0,6.926,6.408,19.345,19.345,0,0,0,9.307,2.956h.15a5.258,5.258,0,0,0,3.688-1.135,5.065,5.065,0,0,0,1.194-4.323,5.677,5.677,0,0,0-1.956-3.93,1.768,1.768,0,0,0-1-.345h-.029a5.169,5.169,0,0,0-1.267.343,14.513,14.513,0,0,1-2.4.474,17.553,17.553,0,0,1-2.014.116,16.4,16.4,0,0,1-2.732-.226,10.517,10.517,0,0,1-3.7-1.236,4.835,4.835,0,0,1-1.269-1.089c.456.152.9.361,1.348.532a5.141,5.141,0,0,0,1.367.247c.391.034.785.051,1.178.051a13.89,13.89,0,0,0,2.068-.154,13.349,13.349,0,0,0,6.7-3.017,17.08,17.08,0,0,0,4.249-5.753,24.912,24.912,0,0,0,2.275-7.984A11.849,11.849,0,0,0,980.739,4094.543Zm-10.787,15.028s0-.036.007-.137a5.583,5.583,0,0,1-1.722,3.315,10.011,10.011,0,0,1-4.145,2.639,5.952,5.952,0,0,1-1.852.383,2.761,2.761,0,0,1-.427-.032,5.864,5.864,0,0,0,.909-.369c.125-.079.1-.044.065-.2-.024-.11-.046-.221-.064-.333-.035-.221-.059-.446-.073-.669a7.86,7.86,0,0,1,.491-3.221,7.273,7.273,0,0,1,1.887-2.843,4.174,4.174,0,0,1,2.678-1.25c.077,0,.154,0,.231.011a2.3,2.3,0,0,1,2.023,2.564c.007-.1.01-.137.01-.137Z" transform="translate(-956.198 -4090.921)" fill="url(#linear-gradient-3)"/>
            </g>
            <path id="Path_21194" data-name="Path 21194" d="M970.28,4092.409a6.168,6.168,0,0,1,7.925,6.79,16.394,16.394,0,0,0-1.1-2.662c-1.323-2.583-4.056-3.73-6.828-4.129Z" transform="translate(-953.337 -4090.669)" fill="#fff"/>
            <path id="Path_21195" data-name="Path 21195" d="M969.91,4117.867c.6-.167,1.117-.308,1.627-.491a8,8,0,0,1,2.566-.69,2.191,2.191,0,0,1,2.012,1.929c-.811-.577-1.405-1.1-2.33-.829a3.821,3.821,0,0,0-.37.094,4.677,4.677,0,0,1-3.5-.012Z" transform="translate(-953.412 -4085.686)" fill="#fff"/>
          </g>
        </g>
      </g>
      <g id="Group_9097" data-name="Group 9097" transform="translate(4.211 8.14)">
        <path id="Path_21197" data-name="Path 21197" d="M968.037,4123.326a42.688,42.688,0,0,0-1.979-10.3c-.026-.092-.055-.184-.084-.274-.071-.224-.144-.454-.152-.476l-.245-.756h0c-.422-1.248-.892-2.477-1.4-3.667l-.053-.124c-.6-1.416-1.176-2.754-1.628-4.166-.212-.663-.384-1.334-.564-2.044-.208-.818-.424-1.664-.707-2.5a4.464,4.464,0,0,0-1.387-2.2,5.081,5.081,0,0,0-2.559-.88,13.447,13.447,0,0,0-1.611-.1,11.011,11.011,0,0,0-7.394,2.665,12.173,12.173,0,0,0-1.959,2.2q-.332.334-.639.7a22.243,22.243,0,0,0-3.314-4.453,21.657,21.657,0,0,0-9.1-5.762,15.264,15.264,0,0,0-4.576-.734,10.119,10.119,0,0,0-6.336,2.03,9.551,9.551,0,0,0-2.03,2.225,11.744,11.744,0,0,0-2.585,3.886,19.767,19.767,0,0,0-1.443,5.309,28.647,28.647,0,0,0,.876,11,42.72,42.72,0,0,0,4,9.877,36.29,36.29,0,0,0,2.776,4.308,23.309,23.309,0,0,0,1.8,2.12,9.308,9.308,0,0,0,2.26,1.838,4.5,4.5,0,0,0,2.181.45c.112,0,.224,0,.336,0a6.14,6.14,0,0,0,2.746-.757,7.07,7.07,0,0,0,2.128-1.775c.136-.163.268-.336.392-.514l.01-.012a1.726,1.726,0,0,0,.2-.3c.18-.165.356-.339.526-.527.159.147.32.291.48.43a11.671,11.671,0,0,0,4.978,2.728,7.842,7.842,0,0,0,1.761.2,8.941,8.941,0,0,0,5.071-1.689,12.661,12.661,0,0,0,3-3.038c.146-.151.289-.3.426-.46a.252.252,0,0,0,0,.029,1.538,1.538,0,0,0,.306.768l.016.024c.1.181.213.36.324.53a10.221,10.221,0,0,0,1.324,1.659,9.137,9.137,0,0,0,6.432,2.708,8,8,0,0,0,2.7-.46,4.6,4.6,0,0,0,2.065-1.354,4.216,4.216,0,0,0,.555-.911,3.817,3.817,0,0,0,.813-.732,4.984,4.984,0,0,0,.9-1.873A15.247,15.247,0,0,0,968.037,4123.326Z" transform="translate(-916.089 -4090.466)"/>
        <g id="Group_9096" data-name="Group 9096" clip-path="url(#clip-path-11)">
          <g id="Group_9095" data-name="Group 9095" transform="translate(2.464 1.095)">
            <g id="Group_9094" data-name="Group 9094">
              <path id="Path_21198" data-name="Path 21198" d="M965.493,4129.172a4.031,4.031,0,0,0,.7-1.477,14.113,14.113,0,0,0,.339-4.5,42.776,42.776,0,0,0-2.1-10.56c-.487-1.538-1.048-3.056-1.681-4.54-.619-1.449-1.234-2.882-1.717-4.385s-.759-3.04-1.266-4.521a3.438,3.438,0,0,0-1.018-1.682,4.074,4.074,0,0,0-2.021-.661,12.486,12.486,0,0,0-1.481-.089,9.95,9.95,0,0,0-6.672,2.394,11.041,11.041,0,0,0-2.376,2.958,1.5,1.5,0,0,0-.206.388c-.015.147.17.444.221.587.141.4.265.794.375,1.2a18.4,18.4,0,0,1,.47,2.268,17.777,17.777,0,0,1-1.023,8.716,18.846,18.846,0,0,0,.116-8.866,19.712,19.712,0,0,0-5-8.873,20.717,20.717,0,0,0-8.634-5.474,14.312,14.312,0,0,0-4.247-.683,9.006,9.006,0,0,0-5.66,1.8,10.067,10.067,0,0,0-2.918,4.044,18.747,18.747,0,0,0-1.362,5.016,27.728,27.728,0,0,0,.851,10.58,41.618,41.618,0,0,0,3.9,9.625,35.523,35.523,0,0,0,2.692,4.179,22.45,22.45,0,0,0,1.717,2.021,8.342,8.342,0,0,0,1.988,1.631,3.427,3.427,0,0,0,1.664.32c.106,0,.213,0,.32,0a5.013,5.013,0,0,0,2.248-.629,6.093,6.093,0,0,0,1.8-1.5c.119-.145.231-.293.339-.447a1.251,1.251,0,0,0,.128-.187c.05-.124.01-.131-.083-.242q-.426-.513-.823-1.05a31.874,31.874,0,0,1-4.552-9.087c-.183-.561-.354-1.135-.482-1.711a62.34,62.34,0,0,0,5.055,7.8,26.768,26.768,0,0,0,3.58,3.861,10.761,10.761,0,0,0,4.507,2.489,6.7,6.7,0,0,0,1.516.174,7.817,7.817,0,0,0,4.448-1.495,15.257,15.257,0,0,0,4.591-5.944,46.263,46.263,0,0,0,3.268-9.371q.085-.348.167-.7a22.412,22.412,0,0,1-.124,3.549,31,31,0,0,1-.748,4.4,24.435,24.435,0,0,1-1.5,4.364q-.132.287-.272.572c-.057.111-.254.361-.245.476.007.092.124.23.171.312.1.169.2.333.3.5a9.115,9.115,0,0,0,1.181,1.482,8.1,8.1,0,0,0,5.654,2.383,6.861,6.861,0,0,0,2.328-.4A3.537,3.537,0,0,0,965.493,4129.172Z" transform="translate(-918.137 -4091.376)" fill="url(#linear-gradient-17)"/>
              <path id="Path_21199" data-name="Path 21199" d="M956.557,4108.875l.066.21c.165.517.221.7.221.7Z" transform="translate(-910.33 -4087.82)" fill="url(#linear-gradient-22)"/>
            </g>
            <path id="Path_21200" data-name="Path 21200" d="M947.961,4096.746c1.535-.386,4.283-.306,4.757,1.6a16.4,16.4,0,0,0,1.5,5.162l-.094.058a13.825,13.825,0,0,1-2.317-4.679,1.083,1.083,0,0,0-.487-.726,15.514,15.514,0,0,0-3.363-1.307v-.11Z" transform="translate(-912.077 -4090.323)" fill="#fff"/>
            <path id="Path_21201" data-name="Path 21201" d="M921.474,4096.982a6.264,6.264,0,0,1,5.258-4.64,9.329,9.329,0,0,1,3.667.175,11.435,11.435,0,0,1,3.31,1.386,20.27,20.27,0,0,0-6.8-.482,7.854,7.854,0,0,0-5.436,3.561Z" transform="translate(-917.459 -4091.202)" fill="#fff"/>
            <path id="Path_21202" data-name="Path 21202" d="M938.314,4099.533a9.913,9.913,0,0,1,2.938,6.206,18.518,18.518,0,0,1,.273,3.452,20.732,20.732,0,0,1-.338,3.416l-.108-.013.011-.851a21.381,21.381,0,0,0-.926-6.62c-.448-1.207-.962-2.69-1.372-3.918l-.565-1.608.088-.064Z" transform="translate(-914.055 -4089.718)" fill="#fff"/>
            <path id="Path_21203" data-name="Path 21203" d="M944.805,4119.931c.2,2.9-3.275,4.2-5.5,2.729.581-.123,1.135-.159,1.693-.265a5.442,5.442,0,0,0,3.808-2.464Z" transform="translate(-913.836 -4085.573)" fill="#fff"/>
            <path id="Path_21204" data-name="Path 21204" d="M958.048,4118.617a3.624,3.624,0,0,1-1.757,4.865,4.013,4.013,0,0,1-3.184-.489l.041-.1c1.188.331,2.723.436,3.488-.645a6.481,6.481,0,0,0,.651-1.688c.195-.589.415-1.347.651-1.933l.11-.007Z" transform="translate(-911.031 -4085.84)" fill="#fff"/>
            <path id="Path_21205" data-name="Path 21205" d="M932.595,4123.188a2.829,2.829,0,0,1-1.457-.975,10.828,10.828,0,0,1-1.121-2.219c-.31-.76-.59-1.533-.83-2.317l.1-.047,1.826,2.68a7.149,7.149,0,0,1,1.544,2.788l-.06.09Z" transform="translate(-915.892 -4086.041)" fill="#fff"/>
          </g>
        </g>
      </g>
    </g>
  </g>
</svg>
