<svg xmlns="http://www.w3.org/2000/svg" xmlns:xlink="http://www.w3.org/1999/xlink" width="1724.98" height="1513.872"
     viewBox="0 0 1724.98 1513.872">
    <defs>
        <clipPath id="clip-path220">
            <path
                    d="M6895.932,3912.723c-73.876,0-150.551,3.594-228.641,10.912-258.516,24.226-475.4,84.3-566.013,156.781-155.281,124.207-140.389,275.533-72.322,421.878,29.333,63.066,57.039,122.634,63.734,176.347,10.961,87.952-25.686,166.729-61.127,242.911-62.963,135.335-61.846,252.215,155.212,391.542,88.678,56.924,222.492,60.966,318.146,45.778,35.672-5.665,71.783-13.066,106.7-20.222,71.84-14.722,146.123-29.946,221.845-31.268,85.555-1.48,170.009,14.793,251.634,30.547,31.262,6.035,63.589,12.274,95.4,17.392,120.062,19.309,214.649,8.275,306.671-35.78,123.447-59.109,162.234-188.37,157.367-289.628-3.15-65.622-20.372-131.544-37.027-195.294-12.066-46.2-24.546-93.958-31.78-141.729-16.121-106.425-6.278-217.4,28.463-320.911,2.607-7.769,5.361-15.55,8.119-23.341,13.2-37.277,26.841-75.827,23.476-113.714-9.909-111.536-94.171-196.51-250.447-252.559C7257.807,3936.622,7086.277,3912.723,6895.932,3912.723Z"
                    fill="#720343" stroke="#880049" stroke-miterlimit="10" stroke-width="60"/>
        </clipPath>
    </defs>
    <g transform="translate(-11561.529 -3763.723)">
        <g transform="translate(11591.5 3793.723)">
            <g transform="translate(-5979.944 -3912.723)">
                <path
                        d="M6895.932,3912.723c-73.876,0-150.551,3.594-228.641,10.912-258.516,24.226-475.4,84.3-566.013,156.781-155.281,124.207-140.389,275.533-72.322,421.878,29.333,63.066,57.039,122.634,63.734,176.347,10.961,87.952-25.686,166.729-61.127,242.911-62.963,135.335-61.846,252.215,155.212,391.542,88.678,56.924,222.492,60.966,318.146,45.778,35.672-5.665,71.783-13.066,106.7-20.222,71.84-14.722,146.123-29.946,221.845-31.268,85.555-1.48,170.009,14.793,251.634,30.547,31.262,6.035,63.589,12.274,95.4,17.392,120.062,19.309,214.649,8.275,306.671-35.78,123.447-59.109,162.234-188.37,157.367-289.628-3.15-65.622-20.372-131.544-37.027-195.294-12.066-46.2-24.546-93.958-31.78-141.729-16.121-106.425-6.278-217.4,28.463-320.911,2.607-7.769,5.361-15.55,8.119-23.341,13.2-37.277,26.841-75.827,23.476-113.714-9.909-111.536-94.171-196.51-250.447-252.559C7257.807,3936.622,7086.277,3912.723,6895.932,3912.723Z"
                        fill="#720343"/>
                <g clip-path="url(#clip-path220)">
                    <g>
                        <g>
                            <path
                                    d="M6813.62,4196.4c471.332,0,797.936,115.058,990.378,257.28,2.331-13.85.706-86.923-.621-100.691-11.917-123.611-110.541-379.427-298.488-441.544-153.388-50.695-478.455-80.587-707.375-80.587-88.848,0-256.03-.117-349.946,7.993-310.907,26.849-438.924,134.938-547.9,215.265-89.672,66.1-73.941,355.547-84.816,431.564C5968.889,4363.375,6336.153,4196.4,6813.62,4196.4Z"
                                    fill="#bf234c"/>
                            <path
                                    d="M5787.681,5073.6c5.83,102.972,70.36,204.467,239.08,317.239,111.054,74.232,278.633,79.5,398.424,59.7,44.674-7.389,89.9-17.039,133.629-26.372,89.969-19.2,183-39.051,277.825-40.775,107.143-1.93,212.907,19.292,315.129,39.835,39.151,7.871,79.634,16.007,119.475,22.681,150.357,25.18,268.812,10.791,384.054-46.659,134.878-67.251,189.048-204.133,196.628-325.647Z"
                                    fill="#bf234c"/>
                        </g>
                        <path
                                d="M7198.461,4376.06c73.239,88.922,90.037,215.557,101.125,334.343,6.515,69.8,11.917,142.218-9.338,208.455S7213.642,5043.626,7149.172,5042c-39.192-.989-74.843-23.145-111.809-37.346-126.272-48.513-265.3-3.578-391.153,46.211-52.781,20.881-106.372,42.883-162.483,45.493s-116.36-17.664-149.669-66.858c-27.878-41.17-32.821-95.069-35.88-146.1-7.728-128.914-8.23-264.87,47.653-378.859C6487.705,4215.153,6993.559,4127.281,7198.461,4376.06Z"
                                fill="#560332"/>
                        <path
                                d="M6457.038,4551.813c-42.2,86.074-41.818,188.734-35.983,286.078,2.309,38.53,6.042,79.229,27.092,110.316,25.153,37.147,70.646,52.456,113.016,50.485s82.836-18.585,122.691-34.352c95.032-37.6,200.012-71.526,295.361-34.9,27.913,10.724,54.833,27.454,84.427,28.2,48.681,1.229,90.477-42.969,106.527-92.984s11.971-104.7,7.051-157.405c-8.373-89.7-21.057-185.318-76.36-252.463s-168.373-84.158-216.06-10.424c-21.589,33.38-25.206,76.694-42.222,113.07s-60.7,65.862-91.028,41.833c-23.457-18.587-23.166-55.7-24.769-87.234C6718.116,4341.586,6498.279,4467.7,6457.038,4551.813Z"
                                fill="#380224"/>
                    </g>
                </g>

            </g>
        </g>
    </g>
</svg>
