<svg xmlns="http://www.w3.org/2000/svg" xmlns:xlink="http://www.w3.org/1999/xlink" width="1725.027" height="1513.872"
     viewBox="0 0 1725.027 1513.872">
    <defs>
        <clipPath id="clip-path-128">
            <path
                    d="M6895.932,3912.723c-73.876,0-150.551,3.594-228.641,10.912-258.516,24.226-475.4,84.3-566.013,156.781-155.281,124.207-140.389,275.533-72.322,421.878,29.333,63.066,57.039,122.634,63.734,176.347,10.961,87.952-25.686,166.729-61.127,242.911-62.963,135.335-61.846,252.215,155.212,391.542,88.678,56.924,222.492,60.966,318.146,45.778,35.672-5.665,71.783-13.066,106.7-20.222,71.84-14.722,146.123-29.946,221.845-31.268,85.555-1.48,170.009,14.793,251.634,30.547,31.262,6.035,63.589,12.274,95.4,17.392,120.062,19.309,214.649,8.275,306.671-35.78,123.447-59.109,162.234-188.37,157.367-289.628-3.15-65.622-20.372-131.544-37.027-195.294-12.066-46.2-24.546-93.958-31.78-141.729-16.121-106.425-6.278-217.4,28.463-320.911,2.607-7.769,5.361-15.55,8.119-23.341,13.2-37.277,26.841-75.827,23.476-113.714-9.909-111.536-94.171-196.51-250.447-252.559C7257.807,3936.622,7086.277,3912.723,6895.932,3912.723Z"
                    fill="#720343" stroke="#880049" stroke-miterlimit="10" stroke-width="60"/>
        </clipPath>
        <clipPath id="clip-path-228">
            <path
                    d="M6895.932,3912.723c-73.876,0-150.551,1.612-228.641,4.894-258.516,10.865-475.4,37.809-566.013,70.317-155.281,55.707-140.389,123.578-72.322,189.213,29.333,28.285,57.039,55,63.734,79.092,10.961,39.446-25.686,74.778-61.127,108.945-62.963,60.7-61.846,113.119,155.212,175.607,88.678,25.531,222.492,27.344,318.146,20.532,35.672-2.541,71.783-5.86,106.7-9.069,71.84-6.6,146.123-13.431,221.845-14.024,85.555-.664,170.009,6.635,251.634,13.7,31.262,2.706,63.589,5.5,95.4,7.8,120.062,8.66,214.649,3.711,306.671-16.048,123.447-26.51,162.234-84.484,157.367-129.9-3.15-29.432-20.372-59-37.027-87.59-12.066-20.719-24.546-42.141-31.78-63.565-16.121-47.732-6.278-97.5,28.463-143.929,2.607-3.485,5.361-6.975,8.119-10.468,13.2-16.72,26.841-34.009,23.476-51-9.909-50.024-94.171-88.135-250.447-113.273C7257.807,3923.442,7086.277,3912.723,6895.932,3912.723Z"
                    transform="translate(0 243.277)" fill="#720343" stroke="#880049" stroke-miterlimit="10"
                    stroke-width="60"/>
        </clipPath>
    </defs>
    <g id="mouth-0" transform="translate(-11561.488 -3763.723)">

        <g transform="translate(11591.5 4037)">
            <g transform="translate(-5979.944 -4156)">
                <path id="back-mouth"
                        d="M6895.932,3912.723c-73.876,0-150.551,1.7-228.641,5.164-258.516,11.465-475.4,39.9-566.013,74.2-155.281,58.783-140.389,130.4-72.322,199.661,29.333,29.847,57.039,58.038,63.734,83.458,10.961,41.625-25.686,78.907-61.127,114.962-62.963,64.049-61.846,119.365,155.212,185.3,88.678,26.94,222.492,28.853,318.146,21.665,35.672-2.681,71.783-6.184,106.7-9.571,71.84-6.967,146.123-14.172,221.845-14.8,85.555-.7,170.009,7,251.634,14.457,31.262,2.856,63.589,5.809,95.4,8.231,120.062,9.139,214.649,3.917,306.671-16.934,123.447-27.974,162.234-89.149,157.367-137.071-3.15-31.057-20.372-62.256-37.027-92.426-12.066-21.863-24.546-44.467-31.78-67.076-16.121-50.367-6.278-102.885,28.463-151.876,2.607-3.677,5.361-7.359,8.119-11.046,13.2-17.642,26.841-35.886,23.476-53.817-9.909-52.786-94.171-93-250.447-119.527C7257.807,3924.033,7086.277,3912.723,6895.932,3912.723Z"
                        transform="translate(0 243.277)" fill="#720343"/>
                <g clip-path="url(#clip-path-228)">
                    <g transform="translate(5787.681 3791.006)">
                        <g>
                            <path
                                    d="M6813.62,4177.268c471.332,0,797.936,109.038,990.378,243.817,2.331-13.125.706-82.375-.621-95.422-11.917-117.143-110.541-359.573-298.488-418.44-153.388-48.042-478.455-76.37-707.375-76.37-88.848,0-256.03-.111-349.946,7.575-310.907,25.444-438.924,127.877-547.9,204-89.672,62.639-73.941,336.943-84.816,408.982C5968.889,4335.51,6336.153,4177.268,6813.62,4177.268Z"
                                    transform="translate(-5787.681 -3830.853)" fill="#bf234c"/>
                            <path
                                    d="M5787.681,5073.6c5.83,97.584,70.36,193.768,239.08,300.639,111.054,70.348,278.633,75.344,398.424,56.575,44.674-7,89.9-16.147,133.629-24.992,89.969-18.193,183-37.007,277.825-38.642,107.143-1.829,212.907,18.283,315.129,37.751,39.151,7.459,79.634,15.169,119.475,21.494,150.357,23.862,268.812,10.227,384.054-44.218,134.878-63.732,189.048-193.451,196.628-308.607Z"
                                    transform="translate(-5787.681 -4045.166)" fill="#bf234c"/>
                        </g>
                        <path
                                d="M7198.461,4368.442c73.239,84.269,90.037,204.278,101.125,316.848,6.515,66.146,11.917,134.777-9.338,197.548s-76.606,118.239-141.076,116.7c-39.192-.937-74.843-21.934-111.809-35.392-126.272-45.975-265.3-3.391-391.153,43.792-52.781,19.789-106.372,40.64-162.483,43.113s-116.36-16.74-149.669-63.359c-27.878-39.016-32.821-90.094-35.88-138.451-7.728-122.168-8.23-251.01,47.653-359.035C6487.705,4215.954,6993.559,4132.68,7198.461,4368.442Z"
                                transform="translate(-5787.681 -3794.903)" fill="#560332"/>
                        <path
                                d="M6457.038,4543.673c-42.2,81.57-41.818,178.858-35.983,271.109,2.309,36.514,6.042,75.083,27.092,104.543,25.153,35.2,70.646,49.711,113.016,47.843s82.836-17.612,122.691-32.554c95.032-35.629,200.012-67.783,295.361-33.069,27.913,10.163,54.833,26.018,84.427,26.726,48.681,1.165,90.477-40.721,106.527-88.119s11.971-99.222,7.051-149.168c-8.373-85-21.057-175.621-76.36-239.253s-168.373-79.754-216.06-9.878c-21.589,31.633-25.206,72.681-42.222,107.153s-60.7,62.416-91.028,39.644c-23.457-17.614-23.166-52.789-24.769-82.669C6718.116,4344.446,6498.279,4463.958,6457.038,4543.673Z"
                                transform="translate(-5787.681 -3803.578)" fill="#380224"/>
                    </g>
                </g>
                <path id="main-mouth1"
                        d="M6895.932,3912.723c-73.876,0-150.551,1.543-228.641,4.684-258.516,10.4-475.4,36.185-566.013,67.3-155.281,53.315-140.389,118.27-72.322,181.087,29.333,27.07,57.039,52.64,63.734,75.7,10.961,37.753-25.686,71.567-61.127,104.268-62.963,58.092-61.846,108.261,155.212,168.066,88.678,24.434,222.492,26.169,318.146,19.65,35.672-2.432,71.783-5.608,106.7-8.68,71.84-6.319,146.123-12.854,221.845-13.421,85.555-.635,170.009,6.35,251.634,13.112,31.262,2.59,63.589,5.269,95.4,7.465,120.062,8.288,214.649,3.552,306.671-15.358,123.447-25.373,162.234-80.856,157.367-124.32-3.15-28.167-20.372-56.464-37.027-83.829-12.066-19.829-24.546-40.33-31.78-60.836-16.121-45.682-6.278-93.314,28.463-137.748,2.607-3.335,5.361-6.675,8.119-10.019,13.2-16,26.841-32.548,23.476-48.811-9.909-47.876-94.171-84.35-250.447-108.409C7257.807,3922.981,7086.277,3912.723,6895.932,3912.723Z"
                        transform="translate(0 271.277)" fill="none" stroke="#880049" stroke-miterlimit="10"
                        stroke-width="60"/>
            </g>
        </g>
    </g>
</svg>
