<svg xmlns="http://www.w3.org/2000/svg" width="1354.551" height="516.102" viewBox="0 0 1354.551 516.102">
  <g id="Group_5573" data-name="Group 5573" transform="translate(-3959.182 -7467.095)">
    <path id="Path_14075" data-name="Path 14075" d="M4144.625,7973.857c-57.873-8.7-73.715-36.44-77.994-49.381a125.409,125.409,0,0,1-25.171,2.767c-29.744,0-47.165-13.586-49.053-38.254-3.944-51.54-9.76-99.572-14.889-141.949-13.778-113.8-23.732-196.024,13.994-239.737,18.764-21.742,48.7-32.857,91.511-33.983,5.687-.149,15.985-.225,30.6-.225,102.885,0,402.744,3.6,667.306,6.779,191.417,2.3,356.73,4.285,397.865,4.285,44.111,0,75.756,11.465,96.742,35.051,45.529,51.168,33.862,150.859,19.092,277.074-2.558,21.848-5.2,44.441-7.635,67.59-4.507,42.874-29.451,67.561-72.138,71.393-6.218.559-19.953.83-41.986.83-112.158,0-412.614-7.183-654.034-12.954-159.514-3.813-297.275-7.106-331.094-7.106-4.2,0-6.017.051-6.8.094-16.3.9-27.047,5.565-31.93,13.872-8.265,14.06,1.787,35.074,1.889,35.285l4.99,10.253Z" fill="#ffd101"/>
    <path id="Path_14076" data-name="Path 14076" d="M4113.63,7479.1c178.648,0,968.135,11.063,1065.169,11.063,163.651,0,124.348,162.679,102.232,373.09-5.734,54.549-44.329,64.035-66.707,66.044-6.191.555-20.536.805-41.447.805-187.316,0-900.746-20.061-985.132-20.061-3.449,0-5.859.034-7.127.1-61.821,3.4-35.1,57.784-35.1,57.784-70.958-10.668-74.458-50.679-74.458-50.679a120.713,120.713,0,0,1-29.6,4c-19.2,0-41.027-6-43.071-32.712-19.207-250.97-80.943-404.856,84.792-409.213,5.808-.152,16.166-.223,30.449-.223m0-12c-14.88,0-24.943.075-30.765.228-44.6,1.172-75.965,12.968-95.9,36.06-39.459,45.721-29.371,129.049-15.409,244.379,5.123,42.316,10.929,90.277,14.863,141.685,2.13,27.833,22.19,43.8,55.036,43.8a127.7,127.7,0,0,0,21.426-1.946,62.248,62.248,0,0,0,9.693,15.109c14.861,17.289,38.8,28.52,71.154,33.384l22.659,3.407-10.1-20.565c-2.431-5.048-7.585-20.3-2.081-29.614,4.745-8.035,17.341-10.361,27.071-10.9.58-.032,2.191-.086,6.468-.086,33.749,0,171.477,3.293,330.952,7.1,241.454,5.772,541.951,12.956,654.18,12.956,22.213,0,36.122-.279,42.52-.854,18.111-1.625,33.425-6.847,45.516-15.519,18.384-13.187,29.169-33.785,32.052-61.222,2.429-23.113,5.071-45.686,7.626-67.517,7.116-60.8,13.837-118.23,13.085-165.571-.864-54.44-11.557-91.362-33.653-116.193-22.19-24.939-55.3-37.063-101.224-37.063-41.1,0-206.436-1.985-397.873-4.284-264.544-3.177-564.385-6.778-667.3-6.779Z" fill="#fff"/>
    <path id="Path_14077" data-name="Path 14077" d="M4113.629,7479.1c178.648,0,968.136,11.063,1065.17,11.063,163.651,0,124.348,162.679,102.232,373.09-5.734,54.55-44.329,64.035-66.707,66.044-6.191.555-20.537.805-41.448.805-187.316,0-900.745-20.061-985.131-20.061-3.449,0-5.859.034-7.127.1-61.821,3.4-35.1,57.784-35.1,57.784-70.958-10.668-74.458-50.679-74.458-50.679a120.713,120.713,0,0,1-29.6,4c-19.2,0-41.027-6-43.071-32.712-19.207-250.97-80.943-404.856,84.792-409.212,5.808-.153,16.165-.224,30.448-.224m0-10.141h0c-14.855,0-24.9.073-30.716.226-44.045,1.158-74.969,12.743-94.538,35.418-38.922,45.1-28.876,128.084-14.971,242.942,5.126,42.334,10.934,90.317,14.872,141.765,1.173,15.332,8.095,27.195,20.017,34.308,8.645,5.157,19.8,7.771,33.166,7.771a127.17,127.17,0,0,0,22.568-2.176c6.216,14.913,24.808,40.451,79.981,48.745l19.151,2.879-8.54-17.381c-2.56-5.3-7.944-21.324-2.02-31.368,4.143-7.025,13.757-11,28.575-11.816.6-.033,2.249-.089,6.57-.089,33.771,0,171.509,3.293,331,7.106,241.443,5.772,541.927,12.955,654.134,12.955,22.158,0,36.012-.277,42.354-.846,18.027-1.619,32.616-6.584,44.6-15.179,17.935-12.864,28.461-33.019,31.287-59.906,2.431-23.124,5.073-45.7,7.629-67.539,7.108-60.738,13.822-118.107,13.072-165.325-.857-53.97-11.4-90.508-33.183-114.988-21.817-24.52-54.474-36.439-99.836-36.439-41.114,0-206.443-1.986-397.877-4.285-264.53-3.177-564.373-6.778-667.292-6.778Z"/>
  </g>
</svg>
