<svg xmlns="http://www.w3.org/2000/svg" width="319.896" height="479.112" viewBox="0 0 319.896 479.112">
  <g id="Group_8583" data-name="Group 8583" transform="translate(-1763.876 -8196.198)">
    <path id="Path_19960" data-name="Path 19960" d="M1898.18,8668.737c-37.683-6.427-47.612-26.9-50.191-36.069a148.955,148.955,0,0,1-24.6,2.217c-34.548,0-42.812-15-43.66-27.58q-.819-12.13-1.664-24.464c-5.309-77.75-10.8-158.146-10.023-225.771.906-78.918,10.131-125.1,29.031-145.333,7.093-7.6,15.606-11.446,25.3-11.446,23.44,0,51.722,1.71,81.664,3.519,35.424,2.143,72.054,4.356,107.906,4.356,17.806,0,32.285,6.2,43.035,18.424,38.765,44.083,23.868,159.625,9.461,271.362-4.15,32.183-8.069,62.583-10.711,91.091-2.872,31-18.91,48.871-46.378,51.67a116.815,116.815,0,0,1-11.785.606c-18.864,0-33.29-4.687-46.018-8.82-9.505-3.087-17.714-5.753-25.764-5.753-.733,0-1.467.021-2.182.065-9.7.607-16.3,3.644-19.608,9.024-6.443,10.479.561,27.081.633,27.247l2.97,6.914Z" fill="#ffd101"/>
    <path id="Path_19961" data-name="Path 19961" d="M1822.374,8204.383c50.258,0,122.461,7.874,189.569,7.874,104.8,0,51.874,223.56,37.711,376.407-3.672,39.626-28.389,46.516-42.719,47.976a112.177,112.177,0,0,1-11.371.585c-32.455,0-51.953-14.572-71.781-14.572q-1.216,0-2.437.075c-39.589,2.473-22.478,41.976-22.478,41.976-45.441-7.749-47.683-36.814-47.683-36.814a144.97,144.97,0,0,1-27.8,2.9c-17.975,0-38.268-4.36-39.577-23.763-12.3-182.312-30.554-402.647,38.562-402.647m0-8.185c-10.874,0-20.393,4.288-28.292,12.745-19.639,21.025-29.214,68.08-30.132,148.082-.778,67.789,4.718,148.27,10.033,226.1q.84,12.316,1.663,24.454c.791,11.726,8.045,31.4,47.743,31.4a150.522,150.522,0,0,0,21.856-1.722c4.272,11.087,16.647,29.444,52.247,35.516l14.89,2.539-6-13.86c-1.739-4.087-5.311-16.323-.889-23.487,2.575-4.172,8.082-6.549,16.368-7.066.628-.039,1.277-.06,1.926-.06,7.4,0,15.326,2.574,24.5,5.553,12.372,4.02,27.769,9.021,47.281,9.021a120.7,120.7,0,0,0,12.2-.628c11.83-1.2,21.82-5.063,29.693-11.469,11.683-9.506,18.528-24.274,20.346-43.895,2.635-28.435,6.55-58.8,10.7-90.945,7.069-54.831,14.379-111.529,15.2-160,.448-26.517-1.061-48.184-4.613-66.239-4.165-21.175-11.044-36.987-21.031-48.345-11.561-13.146-27.074-19.813-46.108-19.813-35.728,0-72.3-2.21-107.659-4.348-30.006-1.813-58.347-3.526-81.91-3.526Z" fill="#fff"/>
    <path id="Path_19962" data-name="Path 19962" d="M1822.374,8204.383c50.258,0,122.461,7.874,189.569,7.874,104.8,0,51.874,223.56,37.711,376.407-3.672,39.626-28.389,46.516-42.719,47.976a112.177,112.177,0,0,1-11.371.585c-32.455,0-51.953-14.572-71.781-14.572q-1.216,0-2.437.075c-39.589,2.473-22.478,41.976-22.478,41.976-45.441-7.749-47.683-36.814-47.683-36.814a144.97,144.97,0,0,1-27.8,2.9c-17.975,0-38.268-4.36-39.577-23.763-12.3-182.312-30.554-402.647,38.562-402.647m0-6.918c-10.509,0-19.716,4.153-27.366,12.343-19.41,20.781-28.877,67.565-29.791,147.231-.777,67.739,4.717,148.2,10.03,226q.842,12.316,1.663,24.455c.762,11.284,7.812,30.214,46.479,30.214a150.16,150.16,0,0,0,22.674-1.861c3.788,10.632,15.533,29.516,51.642,35.674l12.585,2.146-5.075-11.714c-1.816-4.255-5.516-17.013-.807-24.651,2.8-4.546,8.646-7.127,17.369-7.672.656-.041,1.33-.061,2.006-.061,7.6,0,15.615,2.6,24.891,5.614,12.927,4.2,27.579,8.957,46.89,8.957a119.875,119.875,0,0,0,12.072-.619c11.579-1.181,21.343-4.945,29.021-11.192,11.409-9.282,18.1-23.759,19.884-43.028,2.637-28.457,6.554-58.832,10.7-90.99,14.487-112.359,29.467-228.546-10.142-273.589-11.309-12.861-26.5-19.383-45.156-19.383-35.766,0-72.353-2.212-107.735-4.35-29.986-1.813-58.31-3.525-81.834-3.525Z"/>
  </g>
</svg>
