<svg xmlns="http://www.w3.org/2000/svg" xmlns:xlink="http://www.w3.org/1999/xlink" width="500.872" height="90.714" viewBox="0 0 500.872 90.714">
  <defs>
    <clipPath id="clip-path">
      <path id="Path_14279" data-name="Path 14279" d="M4753.992,3225.164a46.7,46.7,0,0,0-2.686-10.578l-.027-.073c-.043-.12-.091-.247-.142-.383h0v0h0l-.685-1.821a5.283,5.283,0,0,0-.337-.764,70.642,70.642,0,0,0-4.543-9.124,46.071,46.071,0,0,0-8.74-11.016,19.953,19.953,0,0,0-6.383-4.052,9.351,9.351,0,0,0-3.1-.566,6.731,6.731,0,0,0-2.91.632,7.959,7.959,0,0,0-3.615,3.47c-3.783,2.988-3.791,8.782-3.794,11.73,0,2.216.129,4.439.255,6.588.155,2.632.315,5.353.221,8a18.466,18.466,0,0,1-1.925,8.443,6.538,6.538,0,0,1-2.052,1.115,4.384,4.384,0,0,1-1.331.21,3.211,3.211,0,0,1-2.615-1.215c-.873-1.157-1.156-2.907-.867-5.352.29-2.462.726-4.884,1.114-6.929.254-1.342.53-2.707.8-4.027.711-3.522,1.446-7.164,1.879-10.839a53.273,53.273,0,0,0,.431-7.664,21.233,21.233,0,0,0-1.078-6.7,6.957,6.957,0,0,0-2.272-3.367,10.442,10.442,0,0,0-6.466-1.753c-.193,0-.384,0-.573.007a27.048,27.048,0,0,0-14,4.725,25.014,25.014,0,0,0-6.523,6.188,19.349,19.349,0,0,0-4.555,7.247,22.821,22.821,0,0,0-.814,9.947,45.308,45.308,0,0,0,4.2,13.953,61.218,61.218,0,0,0,7.378,11.918,46.162,46.162,0,0,0,4.833,5.267,22.972,22.972,0,0,0,5.586,4,13.943,13.943,0,0,0,6.133,1.2q.325,0,.648-.009a45.962,45.962,0,0,0,24.6-8.628c.257-.194.508-.392.757-.6a17.054,17.054,0,0,0,1.694,3.3,9.3,9.3,0,0,0,8.147,4.3c.149,0,.3,0,.447-.008a20.554,20.554,0,0,0,4.977-.872,7.55,7.55,0,0,0,4.312-3.159c.146-.224.277-.453.4-.686a7.486,7.486,0,0,0,1.712-1.849C4754.544,3232.191,4754.332,3228.023,4753.992,3225.164Z"/>
    </clipPath>
    <linearGradient id="linear-gradient" x1="0.5" y1="-13.441" x2="0.5" y2="3.667" gradientUnits="objectBoundingBox">
      <stop offset="0" stop-color="#00ffd5"/>
      <stop offset="1" stop-color="#01cb2d"/>
    </linearGradient>
    <linearGradient id="linear-gradient-2" x1="0.501" y1="-47.903" x2="0.501" y2="8.846" xlink:href="#linear-gradient"/>
    <linearGradient id="linear-gradient-3" x1="0.5" y1="0.002" x2="0.5" y2="0.686" xlink:href="#linear-gradient"/>
    <clipPath id="clip-path-2">
      <path id="Path_14286" data-name="Path 14286" d="M4693.717,3208.887a18.293,18.293,0,0,0-1.232-1.855,8.54,8.54,0,0,0-.6-.761,8.783,8.783,0,0,0-.59-.66c-3.088-3.321-7.5-5.432-12.937-6.22a18.973,18.973,0,0,0,2.482-2.828,18.756,18.756,0,0,0,5.634-14.326,12.805,12.805,0,0,0-2.37-6.906,10.715,10.715,0,0,0-6.487-3.993,12.8,12.8,0,0,0-2.388-.262,14.627,14.627,0,0,0-10.5,4.58,19.6,19.6,0,0,0-1.872,2.232c-.093.091-.187.178-.278.271a19.43,19.43,0,0,0-1.589,1.854c-1.127-.108-2.23-.173-3.276-.188a31.422,31.422,0,0,0-4.99.307,16.77,16.77,0,0,0-8.929,3.741,12.082,12.082,0,0,0-2.068,2.436c-.026.023-.056.044-.082.067a14.216,14.216,0,0,0-4.327,8.636,15.071,15.071,0,0,0,1.848,9.758,16.007,16.007,0,0,0,7.077,6.191c.63.3,1.3.579,1.987.833.028.012.059.027.092.043a4.491,4.491,0,0,0,.621.251c-.021.03-.041.061-.061.092-.057.051-.115.1-.171.154a12.406,12.406,0,0,0-3.563,5.847,14.31,14.31,0,0,0,.114,7.326,23.351,23.351,0,0,0,6.915,10.931,27.529,27.529,0,0,0,11.088,6.242,24.187,24.187,0,0,0,6.208.893,26.539,26.539,0,0,0,18.514-7.156,21.857,21.857,0,0,0,2.583-2.929,20.3,20.3,0,0,0,5.771-10.918A20.963,20.963,0,0,0,4693.717,3208.887Z"/>
    </clipPath>
    <linearGradient id="linear-gradient-4" x1="0.5" y1="-23.702" x2="0.5" y2="14.192" xlink:href="#linear-gradient"/>
    <linearGradient id="linear-gradient-5" x1="0.5" y1="0.132" x2="0.5" y2="0.732" xlink:href="#linear-gradient"/>
    <clipPath id="clip-path-3">
      <path id="Path_14293" data-name="Path 14293" d="M4874.9,3208.887a18.55,18.55,0,0,0-1.233-1.855,8.774,8.774,0,0,0-.6-.761c-.229-.271-.414-.49-.591-.66-3.088-3.321-7.5-5.432-12.937-6.22a18.973,18.973,0,0,0,2.482-2.828,18.754,18.754,0,0,0,5.634-14.326,12.8,12.8,0,0,0-2.37-6.906,10.714,10.714,0,0,0-6.487-3.993,12.8,12.8,0,0,0-2.388-.262,14.627,14.627,0,0,0-10.5,4.58,19.6,19.6,0,0,0-1.872,2.232c-.093.091-.187.178-.278.271a19.435,19.435,0,0,0-1.589,1.854c-1.127-.108-2.23-.173-3.276-.188a31.429,31.429,0,0,0-4.99.307,16.769,16.769,0,0,0-8.929,3.741,12.066,12.066,0,0,0-2.068,2.436c-.026.023-.056.044-.082.067a14.213,14.213,0,0,0-4.327,8.636,15.068,15.068,0,0,0,1.848,9.758,16.006,16.006,0,0,0,7.077,6.191c.63.3,1.3.579,1.987.833.028.012.059.027.092.043a4.466,4.466,0,0,0,.621.251c-.021.03-.041.061-.061.092-.057.051-.115.1-.171.154a12.4,12.4,0,0,0-3.563,5.847,14.315,14.315,0,0,0,.114,7.326,23.351,23.351,0,0,0,6.915,10.931,27.524,27.524,0,0,0,11.088,6.242,24.193,24.193,0,0,0,6.208.893,26.54,26.54,0,0,0,18.514-7.156,21.891,21.891,0,0,0,2.583-2.929,20.311,20.311,0,0,0,5.772-10.918A20.975,20.975,0,0,0,4874.9,3208.887Z"/>
    </clipPath>
    <linearGradient id="linear-gradient-6" x1="0.5" y1="-23.702" x2="0.5" y2="14.192" xlink:href="#linear-gradient"/>
    <clipPath id="clip-path-4">
      <path id="Path_14299" data-name="Path 14299" d="M4547.8,3183.491a7.361,7.361,0,0,0-.716-.976,8.09,8.09,0,0,0-.733-.847,17.447,17.447,0,0,0-12.779-5.374h-.184a13.56,13.56,0,0,0-4.31.682,18.192,18.192,0,0,0-3.672,1.783,32.816,32.816,0,0,0-6.029,4.9,46.04,46.04,0,0,0-3.757,4.291,48.545,48.545,0,0,0-6.892,10.031,37.707,37.707,0,0,0-4.61,15.144,24.794,24.794,0,0,0,4.193,15.244,34.5,34.5,0,0,0,11.24,10.412c3.637,2.147,9.228,4.723,15.2,4.8l.253,0c3.047,0,5.29-.726,6.858-2.22a7.238,7.238,0,0,0,1.461-1.99,6.653,6.653,0,0,0,.651-.545c1.907-1.816,2.765-4.769,2.354-8.1-.188-1.529-.929-5.3-3.733-7.247a4.4,4.4,0,0,0-2.5-.836h-.082a5.948,5.948,0,0,0-1.9.432c-.177.063-.344.123-.488.164-.611.177-1.25.324-1.906.446a22.016,22.016,0,0,0,2.2-1.639,25.018,25.018,0,0,0,3.942-4.281,29.382,29.382,0,0,0,5.161-7.7,40.1,40.1,0,0,0,3.664-12.871C4551.083,3193.353,4550.864,3187.98,4547.8,3183.491Zm-28.244,30.646c-.013-.122-.023-.247-.031-.372a10.429,10.429,0,0,1,.654-4.271,10.239,10.239,0,0,1,.7-1.495,4.494,4.494,0,0,1,2.651-1.19c.069,0,.137,0,.205.009a1.892,1.892,0,0,1,1.588,2.166h0V3209h0a4.836,4.836,0,0,1-.756,2.184A13.824,13.824,0,0,1,4519.558,3214.137Z"/>
    </clipPath>
    <linearGradient id="linear-gradient-8" x1="0.5" y1="-5.185" x2="0.5" y2="27.061" xlink:href="#linear-gradient"/>
    <linearGradient id="linear-gradient-9" x1="0.5" y1="-0.025" x2="0.5" y2="0.635" xlink:href="#linear-gradient"/>
    <linearGradient id="linear-gradient-10" x1="0.545" y1="-398.255" x2="0.545" y2="185.815" xlink:href="#linear-gradient"/>
    <linearGradient id="linear-gradient-11" x1="0.5" y1="0.081" x2="0.5" y2="0.728" xlink:href="#linear-gradient"/>
    <linearGradient id="linear-gradient-12" x1="0.497" y1="-23.895" x2="0.497" y2="52.445" xlink:href="#linear-gradient"/>
    <clipPath id="clip-path-5">
      <path id="Path_14313" data-name="Path 14313" d="M4834.661,3179.665a8.57,8.57,0,0,0-1.992-2.2,4.385,4.385,0,0,0-.646-.46,3.916,3.916,0,0,0-.8-.428,9.194,9.194,0,0,0-4.017-.847,12.616,12.616,0,0,0-1.369.077,20.665,20.665,0,0,0-2.355.441c-.415.094-.807.184-1.2.257a62.127,62.127,0,0,1-10.422.949q-.823.013-1.645.013c-3.044,0-6.274-.129-10.164-.405-2.45-.174-4.945-.429-7.358-.676-1.522-.155-3.1-.316-4.653-.456-.767-.069-1.535-.1-2.284-.1a19.246,19.246,0,0,0-9.778,2.434,17.148,17.148,0,0,0-5.461,5.123,19.017,19.017,0,0,0-4.247,6.566,24.171,24.171,0,0,0-1.48,6,15.724,15.724,0,0,0,.32,6.448,6.621,6.621,0,0,0,3.959,4.481,7.182,7.182,0,0,0,2.494.43,10.369,10.369,0,0,0,4.066-.905,14.461,14.461,0,0,0,2.714-1.537c.442-.315.846-.647,1.238-.968.346-.284.673-.552,1-.793a15.355,15.355,0,0,1,4.276-2.184,16.86,16.86,0,0,1,5.12-.841c.159,0,.317,0,.473.008l.018.066c2.066,7.873-.632,16-3.241,23.864q-.45,1.354-.885,2.688l-.087.266a9.851,9.851,0,0,0-.683,3.89,7.359,7.359,0,0,0,1.76,4.116,17.157,17.157,0,0,0,6.441,4.482,50.026,50.026,0,0,0,15.6,3.836,48.347,48.347,0,0,0,4.864.282c.829,0,1.632-.032,2.386-.095a4.237,4.237,0,0,0,3.714-2.977c2.549-1.306,2.748-5.048,2.83-6.6a42.16,42.16,0,0,0-.535-8.186c-.363-2.51-.875-5.18-1.567-8.163-.64-2.764-1.344-5.476-2.09-8.059-.176-.606-.365-1.217-.548-1.808a29.113,29.113,0,0,1-1.339-5.541c-.018-.177-.028-.343-.034-.5.071,0,.14-.007.206-.008h.093a15.519,15.519,0,0,1,2.058.2c.216.031.432.061.647.088a31.964,31.964,0,0,0,4.006.308,14.837,14.837,0,0,0,3.416-.364,7.973,7.973,0,0,0,5.36-4.069,8.293,8.293,0,0,0,2.511-3.363,18.145,18.145,0,0,0,1.224-6.705A14.186,14.186,0,0,0,4834.661,3179.665Z"/>
    </clipPath>
    <linearGradient id="linear-gradient-13" x1="0.499" y1="2.116" x2="0.499" y2="83.13" xlink:href="#linear-gradient"/>
    <linearGradient id="linear-gradient-14" x1="0.5" y1="0.029" x2="0.5" y2="0.675" xlink:href="#linear-gradient"/>
    <clipPath id="clip-path-6">
      <path id="Path_14319" data-name="Path 14319" d="M4465.169,3179.665a8.591,8.591,0,0,0-1.993-2.2,4.326,4.326,0,0,0-.645-.46,3.907,3.907,0,0,0-.8-.428,9.194,9.194,0,0,0-4.017-.847,12.6,12.6,0,0,0-1.368.077,20.7,20.7,0,0,0-2.356.441c-.415.094-.807.184-1.2.257a62.145,62.145,0,0,1-10.423.949q-.822.013-1.645.013c-3.044,0-6.273-.129-10.163-.405-2.45-.174-4.945-.429-7.358-.676-1.523-.155-3.1-.316-4.653-.456-.767-.069-1.536-.1-2.285-.1a19.243,19.243,0,0,0-9.778,2.434,17.155,17.155,0,0,0-5.461,5.123,19.009,19.009,0,0,0-4.247,6.566,24.128,24.128,0,0,0-1.48,6,15.724,15.724,0,0,0,.32,6.448,6.623,6.623,0,0,0,3.96,4.481,7.177,7.177,0,0,0,2.493.43,10.373,10.373,0,0,0,4.067-.905,14.5,14.5,0,0,0,2.713-1.537c.442-.315.847-.647,1.238-.968.346-.284.673-.552,1-.793a15.345,15.345,0,0,1,4.276-2.184,16.865,16.865,0,0,1,5.12-.841c.159,0,.317,0,.474.008l.017.066c2.067,7.873-.632,16-3.241,23.864q-.45,1.354-.885,2.688l-.087.266a9.885,9.885,0,0,0-.683,3.89,7.374,7.374,0,0,0,1.76,4.116,17.166,17.166,0,0,0,6.441,4.482,50.043,50.043,0,0,0,15.6,3.836,48.323,48.323,0,0,0,4.864.282c.829,0,1.631-.032,2.385-.095a4.236,4.236,0,0,0,3.714-2.977c2.549-1.306,2.749-5.048,2.831-6.6a42.194,42.194,0,0,0-.536-8.186c-.362-2.51-.875-5.18-1.566-8.163-.641-2.764-1.344-5.476-2.091-8.059-.175-.606-.365-1.217-.548-1.808a29.072,29.072,0,0,1-1.338-5.541c-.019-.177-.028-.343-.034-.5.07,0,.139-.007.206-.008h.092a15.5,15.5,0,0,1,2.058.2c.217.031.433.061.647.088a31.971,31.971,0,0,0,4.006.308,14.834,14.834,0,0,0,3.416-.364,7.973,7.973,0,0,0,5.361-4.069,8.307,8.307,0,0,0,2.511-3.363,18.147,18.147,0,0,0,1.223-6.705A14.182,14.182,0,0,0,4465.169,3179.665Z"/>
    </clipPath>
    <linearGradient id="linear-gradient-15" x1="0.5" y1="2.116" x2="0.5" y2="83.13" xlink:href="#linear-gradient"/>
    <clipPath id="clip-path-7">
      <path id="Path_14325" data-name="Path 14325" d="M4647.861,3183.491a7.454,7.454,0,0,0-.716-.976,8.2,8.2,0,0,0-.734-.847,17.446,17.446,0,0,0-12.779-5.374h-.184a13.551,13.551,0,0,0-4.309.682,18.17,18.17,0,0,0-3.672,1.783,32.834,32.834,0,0,0-6.03,4.9,46.031,46.031,0,0,0-3.756,4.291,48.545,48.545,0,0,0-6.892,10.031,37.676,37.676,0,0,0-4.61,15.144,24.781,24.781,0,0,0,4.193,15.244,34.5,34.5,0,0,0,11.239,10.412c3.638,2.147,9.228,4.723,15.2,4.8l.253,0c3.047,0,5.29-.726,6.858-2.22a7.252,7.252,0,0,0,1.462-1.99,6.771,6.771,0,0,0,.651-.545c1.907-1.816,2.765-4.769,2.354-8.1-.189-1.529-.93-5.3-3.733-7.247a4.407,4.407,0,0,0-2.5-.836h-.082a5.961,5.961,0,0,0-1.9.432c-.176.063-.343.123-.487.164-.612.177-1.251.324-1.907.446a22.035,22.035,0,0,0,2.2-1.639,25.052,25.052,0,0,0,3.941-4.281,29.335,29.335,0,0,0,5.161-7.7,40.129,40.129,0,0,0,3.665-12.871C4651.141,3193.353,4650.923,3187.98,4647.861,3183.491Zm-28.245,30.646c-.012-.122-.023-.247-.03-.372a10.452,10.452,0,0,1,.653-4.271,10.3,10.3,0,0,1,.7-1.495,4.494,4.494,0,0,1,2.651-1.19c.068,0,.137,0,.2.009a1.892,1.892,0,0,1,1.588,2.166h0V3209h0a4.846,4.846,0,0,1-.756,2.184A13.832,13.832,0,0,1,4619.616,3214.137Z"/>
    </clipPath>
    <linearGradient id="linear-gradient-17" x1="0.5" y1="-5.185" x2="0.5" y2="27.061" xlink:href="#linear-gradient"/>
    <clipPath id="clip-path-8">
      <path id="Path_14332" data-name="Path 14332" d="M4796.6,3212.467a9.52,9.52,0,0,0-2.922-3.611l-.016-.012-.016-.012-.021-.016c-.047-.038-.089-.069-.123-.095v0l-.006,0v0a7.572,7.572,0,0,0-1.158-.8,23.522,23.522,0,0,0-7.391-2.9,29.476,29.476,0,0,0-4.954-.638c-.52-.028-.99-.042-1.435-.042a15.071,15.071,0,0,0-3.434.356,12.856,12.856,0,0,0-7.6,5.617l-.028.043a16.927,16.927,0,0,0-2.084,2.492c-.358.516-.7,1.04-1.029,1.547-.4.615-.787,1.2-1.19,1.763a26.058,26.058,0,0,1,.02-5.188c.5-5.588,2.08-11.183,3.611-16.593l.2-.7c.173-.613.351-1.227.529-1.841a69.671,69.671,0,0,0,1.947-7.84l.006-.035a8.716,8.716,0,0,0,.1-3.451c-.379-1.563-1.592-2.732-3.6-3.474a15.529,15.529,0,0,0-5.379-.872,27.327,27.327,0,0,0-5.044.512,21.606,21.606,0,0,0-8.461,3.237,7.2,7.2,0,0,0-2.173,2.583,8.509,8.509,0,0,0-2.74,3.922,23.182,23.182,0,0,0-1.249,4.987,54.72,54.72,0,0,0-.463,10.119,95.9,95.9,0,0,0,2.864,20.26c1.448,5.746,3.612,12.223,8.684,16.7a20.106,20.106,0,0,0,8.3,4.351,23,23,0,0,0,5.691.742,18.64,18.64,0,0,0,4.252-.477c5.454-1.282,10.926-4.728,16.265-10.243a48.063,48.063,0,0,0,3.5-4.028,40.864,40.864,0,0,0,4.595-6.149C4796.472,3219.612,4798.145,3216,4796.6,3212.467Z"/>
    </clipPath>
    <linearGradient id="linear-gradient-19" x1="0.5" y1="-145.296" x2="0.5" y2="106.606" xlink:href="#linear-gradient"/>
    <linearGradient id="linear-gradient-20" x1="0.5" y1="-42.247" x2="0.5" y2="32.731" xlink:href="#linear-gradient"/>
    <linearGradient id="linear-gradient-21" x1="0.5" y1="0.129" x2="0.5" y2="0.813" xlink:href="#linear-gradient"/>
    <clipPath id="clip-path-9">
      <path id="Path_14338" data-name="Path 14338" d="M4621.679,3227.373a4.311,4.311,0,0,0-1.791-2.514c-.12-.091-.252-.184-.394-.285a4.817,4.817,0,0,0-.979-.61,38.271,38.271,0,0,0-6.657-2.884c-.839-.3-1.706-.613-2.532-.938a40.357,40.357,0,0,1-4.235-1.93,18.712,18.712,0,0,0,6.026-5.56,20.975,20.975,0,0,0,2.251-2.727,22.806,22.806,0,0,0,3.613-8.224,29.092,29.092,0,0,0,.109-11.335,27.173,27.173,0,0,0-3.872-10.05,15.01,15.01,0,0,0-8.881-6.611,13.825,13.825,0,0,0-3.261-.382,17.924,17.924,0,0,0-5.645.976,22.255,22.255,0,0,0-8.989,5.49,21.85,21.85,0,0,0-2.18,2.608c-3.862,3.97-6.338,9.655-7.109,16.227-1.087.131-2.6.767-3.632,3.047a6.178,6.178,0,0,0-2.6,3.859,18.149,18.149,0,0,0-.52,5.869,41.908,41.908,0,0,0,.77,6.1,68.985,68.985,0,0,0,3.4,11.688,47.789,47.789,0,0,0,2.562,5.622,15.667,15.667,0,0,0,3.853,5.069,4.21,4.21,0,0,0,2.557,1.006,3.111,3.111,0,0,0,.421-.028,4.048,4.048,0,0,0,2.7-1.614,6.164,6.164,0,0,0,.755-1.363,4.113,4.113,0,0,0,1.358-1.172c1.3-1.758,1.416-4.042,1.508-5.876l.018-.359c.023-.424.031-.859.038-1.28,0-.272.011-.546.02-.818a10.036,10.036,0,0,1,1.217,2.418l.136.341.083.2a47.944,47.944,0,0,0,2.384,5.277c2.054,3.727,4.527,5.988,7.348,6.719a7.894,7.894,0,0,0,1.973.242,12.86,12.86,0,0,0,4.331-.861,22.614,22.614,0,0,0,5.4-2.886,20.516,20.516,0,0,0,4.354-4.074c.209-.268.428-.562.642-.878a17.657,17.657,0,0,0,1.471-1.657C4620.8,3231.8,4622.207,3229.654,4621.679,3227.373Zm-28.085-17.319a3.057,3.057,0,0,1-.561.051,4.9,4.9,0,0,1-3.486-1.747,2.124,2.124,0,0,1-.7-1.468c.038-.057.121-.16.178-.231s.122-.151.18-.227c.117-.154.227-.295.339-.439a16.059,16.059,0,0,1,1.18-1.17,3.6,3.6,0,0,1,2.142-1.091,1.373,1.373,0,0,1,.146.007c1.349.141,1.791,2.134,1.837,3.168a6.055,6.055,0,0,1-.723,2.934A2.166,2.166,0,0,1,4593.594,3210.054Z"/>
    </clipPath>
    <linearGradient id="linear-gradient-22" x1="0.5" y1="-56.256" x2="0.5" y2="-3.811" xlink:href="#linear-gradient"/>
    <linearGradient id="linear-gradient-23" x1="0.5" y1="0.119" x2="0.5" y2="0.741" xlink:href="#linear-gradient"/>
  </defs>
  <g id="Group_7400" data-name="Group 7400" transform="translate(-709.593 -3161.975)">
    <g id="Group_5691" data-name="Group 5691" transform="translate(-3676.444)">
      <g id="Group_5690" data-name="Group 5690">
        <g id="Group_5686" data-name="Group 5686">
          <path id="Path_14264" data-name="Path 14264" d="M4880.521,3205.625v0a24.919,24.919,0,0,0-1.562-2.37c-.305-.438-.619-.811-.926-1.175-.258-.3-.547-.647-.9-1a24.789,24.789,0,0,0-6.563-4.94l.056-.095a25.23,25.23,0,0,0,3.512-14.2,19.276,19.276,0,0,0-3.643-10.391,17.2,17.2,0,0,0-10.387-6.478,19.33,19.33,0,0,0-3.608-.4,21.173,21.173,0,0,0-15.234,6.528,25.609,25.609,0,0,0-1.937,2.227c-.114,0-.227-.005-.34-.006-.394-.007-.788-.006-1.18,0q-.486-.463-1.008-.878a10.977,10.977,0,0,0-1.339-.956,10.493,10.493,0,0,0-1.712-.907,16.393,16.393,0,0,0-8.629-1.237,26.7,26.7,0,0,0-3.094.566c-.325.074-.633.146-.939.2a55.632,55.632,0,0,1-9.33.839q-.77.012-1.54.012c-2.89,0-5.973-.124-9.7-.389-2.355-.168-4.8-.417-7.158-.658-1.548-.158-3.148-.322-4.73-.464-.959-.087-1.924-.131-2.868-.131a25.655,25.655,0,0,0-13.038,3.311q-.335.2-.664.4a13.747,13.747,0,0,0-3.819-2.1,21.991,21.991,0,0,0-7.63-1.274,33.821,33.821,0,0,0-6.237.622,27.948,27.948,0,0,0-11,4.306,13.148,13.148,0,0,0-3.468,3.642,14.941,14.941,0,0,0-3.369,4.854,21.674,21.674,0,0,0-3.924-1.865,13.851,13.851,0,0,0-14.145,2.38q-.218-.785-.485-1.538a13.4,13.4,0,0,0-4.482-6.377,16.621,16.621,0,0,0-10.38-3.063c-.248,0-.494,0-.735.01a31.434,31.434,0,0,0-11.012,2.4,17.768,17.768,0,0,0-2.057-3.581,17.2,17.2,0,0,0-10.387-6.478,19.334,19.334,0,0,0-3.607-.4,21.19,21.19,0,0,0-15.234,6.527,25.611,25.611,0,0,0-1.938,2.228c-.114,0-.228-.005-.341-.006a37.631,37.631,0,0,0-6.028.375,29.763,29.763,0,0,0-3.7.776,24.329,24.329,0,0,0-14.485-4.683h-.218a19.968,19.968,0,0,0-6.343,1.031,24.647,24.647,0,0,0-4.981,2.4,34.981,34.981,0,0,0-3.9,2.8,21.191,21.191,0,0,0-12.281-8.637,22.575,22.575,0,0,0-12.5.741,28.71,28.71,0,0,0-11.577,7.1,28.413,28.413,0,0,0-2.54,2.984,32.848,32.848,0,0,0-7.983,16.029,11.746,11.746,0,0,0-2.8,3.1,13.38,13.38,0,0,0-3.794,6.351,24.232,24.232,0,0,0-.775,7.992,48.048,48.048,0,0,0,.883,7.047,75.593,75.593,0,0,0,3.723,12.794,54.187,54.187,0,0,0,2.916,6.384,21.531,21.531,0,0,0,5.589,7.1,10.352,10.352,0,0,0,7.805,2.276,10.576,10.576,0,0,0,6.442-3.423,16.543,16.543,0,0,0,8.637,5.749,14.369,14.369,0,0,0,3.6.449,19.194,19.194,0,0,0,6.527-1.243,29.108,29.108,0,0,0,6.963-3.7l.277-.2c4.318,2.417,10.585,5.058,17.443,5.142l.351,0c4.73,0,8.546-1.35,11.342-4.013a13.547,13.547,0,0,0,2.03-2.458c.028-.025.055-.051.082-.077q.458-.435.87-.911a33.928,33.928,0,0,0,12.108,6.319,30.706,30.706,0,0,0,7.878,1.136,33.224,33.224,0,0,0,19.938-6.323,28.093,28.093,0,0,0,6.515,4.479,20.234,20.234,0,0,0,8.953,1.848c.275,0,.548,0,.817-.011a48.964,48.964,0,0,0,16.1-3.333,54.339,54.339,0,0,0,7.122-3.28,15.682,15.682,0,0,0,3.9,3.047,16.178,16.178,0,0,0,7.9,1.944q.344,0,.682-.012a26.791,26.791,0,0,0,6.537-1.121,14.479,14.479,0,0,0,3.308-1.407,27.017,27.017,0,0,0,7.568,3.228,27.555,27.555,0,0,0,13.042.3,35.977,35.977,0,0,0,13.991-7.091,28.639,28.639,0,0,0,5.376,3.055,56.4,56.4,0,0,0,17.6,4.37,54.308,54.308,0,0,0,5.515.315c1.012,0,2-.04,2.927-.118a10.453,10.453,0,0,0,8.234-5.08,11.207,11.207,0,0,0,2.972-4.2q.294.283.58.546a34.069,34.069,0,0,0,13.723,7.715,30.7,30.7,0,0,0,7.878,1.136,33.129,33.129,0,0,0,23.081-8.936,28.344,28.344,0,0,0,3.055-3.406,26.85,26.85,0,0,0,7.242-14.1A27.571,27.571,0,0,0,4880.521,3205.625Z" fill="#fff"/>
          <path id="Path_14265" data-name="Path 14265" d="M4552.164,3178.457h0a14.416,14.416,0,0,0-1.174-1.347,23.912,23.912,0,0,0-17.449-7.316h-.217a19.975,19.975,0,0,0-6.344,1.031,24.62,24.62,0,0,0-4.981,2.4,39.169,39.169,0,0,0-7.228,5.847q-1,1.006-1.966,2.093a22.98,22.98,0,0,0-7.379-1.109,32.448,32.448,0,0,0-8.412,1.123c-.81.223-1.541.46-2.235.726-.552.212-1.024.418-1.477.643a9.24,9.24,0,0,0-2.952,2.155q-.125-.38-.254-.762a32.884,32.884,0,0,0-5.892-10.979,19.549,19.549,0,0,0-13.976-6.733c-.568-.035-1.154-.052-1.743-.052a48.706,48.706,0,0,0-10.878,1.507,90.676,90.676,0,0,0-11.074,3.078c-1.333.1-2.764.167-4.264.192q-.77.012-1.54.012c-2.89,0-5.972-.124-9.7-.389-2.356-.168-4.8-.417-7.159-.658-1.547-.158-3.148-.322-4.729-.464-.959-.087-1.925-.131-2.869-.131a25.653,25.653,0,0,0-13.037,3.311,23.71,23.71,0,0,0-7.209,6.571,25.757,25.757,0,0,0-5.3,8.382,30.678,30.678,0,0,0-1.881,7.61,22.019,22.019,0,0,0,.562,9.1,13.145,13.145,0,0,0,7.922,8.676,15.322,15.322,0,0,0,11.37-.6,21.052,21.052,0,0,0,3.933-2.223c.616-.44,1.148-.875,1.591-1.239.238-.2.46-.382.688-.548l.2-.142c-.409,4.316-1.944,8.942-3.538,13.743-.305.917-.607,1.829-.9,2.719l-.086.264a15.888,15.888,0,0,0-.986,6.4,13.913,13.913,0,0,0,3.205,7.735,23.575,23.575,0,0,0,8.821,6.306,56.412,56.412,0,0,0,17.6,4.37,54.341,54.341,0,0,0,5.516.315c1.011,0,2-.04,2.926-.118a10.454,10.454,0,0,0,8.234-5.08,12.378,12.378,0,0,0,3.793-6.838c.65,1.425,1.328,2.893,2.119,4.386l.1.186c.955,1.813,3.191,6.06,8.311,7.162a13.973,13.973,0,0,0,2.98.3c.708,0,1.335-.044,1.844-.079.156-.011.311-.021.456-.029l3.034-.148a69.389,69.389,0,0,0,8.825-.806,18.431,18.431,0,0,0,4.077-1.129,10.315,10.315,0,0,0,3.493-2.3l.342-.377a10.057,10.057,0,0,0,1.024-1.473c.093-.077.187-.157.281-.24a9,9,0,0,0,2.453.748,21.994,21.994,0,0,0,3.332.251l.332,0a21.194,21.194,0,0,0,7.722-1.454,9.934,9.934,0,0,0,2.1-1.114q1.779,1.3,3.715,2.448c4.318,2.549,11.021,5.607,18.409,5.7l.352,0c4.73,0,8.545-1.35,11.341-4.013a13.52,13.52,0,0,0,2.03-2.458c.028-.025.055-.051.082-.077,3.412-3.25,4.988-8.209,4.322-13.6a17.883,17.883,0,0,0-4.3-9.9,37.235,37.235,0,0,0,4.413-7.186,46.671,46.671,0,0,0,4.254-14.985c.491-4.775.216-11.717-3.838-17.81A14.555,14.555,0,0,0,4552.164,3178.457Z" fill="#fff"/>
        </g>
        <g id="Group_5687" data-name="Group 5687">
          <path id="Path_14266" data-name="Path 14266" d="M4880.521,3205.625v0a24.919,24.919,0,0,0-1.562-2.37c-.305-.438-.619-.811-.926-1.175-.258-.3-.547-.647-.9-1a24.789,24.789,0,0,0-6.563-4.94l.056-.095a25.23,25.23,0,0,0,3.512-14.2,19.276,19.276,0,0,0-3.643-10.391,17.2,17.2,0,0,0-10.387-6.478,19.33,19.33,0,0,0-3.608-.4,21.173,21.173,0,0,0-15.234,6.528,25.609,25.609,0,0,0-1.937,2.227c-.114,0-.227-.005-.34-.006-.394-.007-.788-.006-1.18,0q-.486-.463-1.008-.878a10.977,10.977,0,0,0-1.339-.956,10.493,10.493,0,0,0-1.712-.907,16.393,16.393,0,0,0-8.629-1.237,26.7,26.7,0,0,0-3.094.566c-.325.074-.633.146-.939.2a55.632,55.632,0,0,1-9.33.839q-.77.012-1.54.012c-2.89,0-5.973-.124-9.7-.389-2.355-.168-4.8-.417-7.158-.658-1.548-.158-3.148-.322-4.73-.464-.959-.087-1.924-.131-2.868-.131a25.655,25.655,0,0,0-13.038,3.311q-.335.2-.664.4a13.747,13.747,0,0,0-3.819-2.1,21.991,21.991,0,0,0-7.63-1.274,33.821,33.821,0,0,0-6.237.622,27.948,27.948,0,0,0-11,4.306,13.148,13.148,0,0,0-3.468,3.642,14.941,14.941,0,0,0-3.369,4.854,21.674,21.674,0,0,0-3.924-1.865,13.851,13.851,0,0,0-14.145,2.38q-.218-.785-.485-1.538a13.4,13.4,0,0,0-4.482-6.377,16.621,16.621,0,0,0-10.38-3.063c-.248,0-.494,0-.735.01a31.434,31.434,0,0,0-11.012,2.4,17.768,17.768,0,0,0-2.057-3.581,17.2,17.2,0,0,0-10.387-6.478,19.334,19.334,0,0,0-3.607-.4,21.19,21.19,0,0,0-15.234,6.527,25.611,25.611,0,0,0-1.938,2.228c-.114,0-.228-.005-.341-.006a37.631,37.631,0,0,0-6.028.375,29.763,29.763,0,0,0-3.7.776,24.329,24.329,0,0,0-14.485-4.683h-.218a19.968,19.968,0,0,0-6.343,1.031,24.647,24.647,0,0,0-4.981,2.4,34.981,34.981,0,0,0-3.9,2.8,21.191,21.191,0,0,0-12.281-8.637,22.575,22.575,0,0,0-12.5.741,28.71,28.71,0,0,0-11.577,7.1,28.413,28.413,0,0,0-2.54,2.984,32.848,32.848,0,0,0-7.983,16.029,11.746,11.746,0,0,0-2.8,3.1,13.38,13.38,0,0,0-3.794,6.351,24.232,24.232,0,0,0-.775,7.992,48.048,48.048,0,0,0,.883,7.047,75.593,75.593,0,0,0,3.723,12.794,54.187,54.187,0,0,0,2.916,6.384,21.531,21.531,0,0,0,5.589,7.1,10.352,10.352,0,0,0,7.805,2.276,10.576,10.576,0,0,0,6.442-3.423,16.543,16.543,0,0,0,8.637,5.749,14.369,14.369,0,0,0,3.6.449,19.194,19.194,0,0,0,6.527-1.243,29.108,29.108,0,0,0,6.963-3.7l.277-.2c4.318,2.417,10.585,5.058,17.443,5.142l.351,0c4.73,0,8.546-1.35,11.342-4.013a13.547,13.547,0,0,0,2.03-2.458c.028-.025.055-.051.082-.077q.458-.435.87-.911a33.928,33.928,0,0,0,12.108,6.319,30.706,30.706,0,0,0,7.878,1.136,33.224,33.224,0,0,0,19.938-6.323,28.093,28.093,0,0,0,6.515,4.479,20.234,20.234,0,0,0,8.953,1.848c.275,0,.548,0,.817-.011a48.964,48.964,0,0,0,16.1-3.333,54.339,54.339,0,0,0,7.122-3.28,15.682,15.682,0,0,0,3.9,3.047,16.178,16.178,0,0,0,7.9,1.944q.344,0,.682-.012a26.791,26.791,0,0,0,6.537-1.121,14.479,14.479,0,0,0,3.308-1.407,27.017,27.017,0,0,0,7.568,3.228,27.555,27.555,0,0,0,13.042.3,35.977,35.977,0,0,0,13.991-7.091,28.639,28.639,0,0,0,5.376,3.055,56.4,56.4,0,0,0,17.6,4.37,54.308,54.308,0,0,0,5.515.315c1.012,0,2-.04,2.927-.118a10.453,10.453,0,0,0,8.234-5.08,11.207,11.207,0,0,0,2.972-4.2q.294.283.58.546a34.069,34.069,0,0,0,13.723,7.715,30.7,30.7,0,0,0,7.878,1.136,33.129,33.129,0,0,0,23.081-8.936,28.344,28.344,0,0,0,3.055-3.406,26.85,26.85,0,0,0,7.242-14.1A27.571,27.571,0,0,0,4880.521,3205.625Z" fill="#fff"/>
          <path id="Path_14267" data-name="Path 14267" d="M4552.164,3178.457h0a14.416,14.416,0,0,0-1.174-1.347,23.912,23.912,0,0,0-17.449-7.316h-.217a19.975,19.975,0,0,0-6.344,1.031,24.62,24.62,0,0,0-4.981,2.4,39.169,39.169,0,0,0-7.228,5.847q-1,1.006-1.966,2.093a22.98,22.98,0,0,0-7.379-1.109,32.448,32.448,0,0,0-8.412,1.123c-.81.223-1.541.46-2.235.726-.552.212-1.024.418-1.477.643a9.24,9.24,0,0,0-2.952,2.155q-.125-.38-.254-.762a32.884,32.884,0,0,0-5.892-10.979,19.549,19.549,0,0,0-13.976-6.733c-.568-.035-1.154-.052-1.743-.052a48.706,48.706,0,0,0-10.878,1.507,90.676,90.676,0,0,0-11.074,3.078c-1.333.1-2.764.167-4.264.192q-.77.012-1.54.012c-2.89,0-5.972-.124-9.7-.389-2.356-.168-4.8-.417-7.159-.658-1.547-.158-3.148-.322-4.729-.464-.959-.087-1.925-.131-2.869-.131a25.653,25.653,0,0,0-13.037,3.311,23.71,23.71,0,0,0-7.209,6.571,25.757,25.757,0,0,0-5.3,8.382,30.678,30.678,0,0,0-1.881,7.61,22.019,22.019,0,0,0,.562,9.1,13.145,13.145,0,0,0,7.922,8.676,15.322,15.322,0,0,0,11.37-.6,21.052,21.052,0,0,0,3.933-2.223c.616-.44,1.148-.875,1.591-1.239.238-.2.46-.382.688-.548l.2-.142c-.409,4.316-1.944,8.942-3.538,13.743-.305.917-.607,1.829-.9,2.719l-.086.264a15.888,15.888,0,0,0-.986,6.4,13.913,13.913,0,0,0,3.205,7.735,23.575,23.575,0,0,0,8.821,6.306,56.412,56.412,0,0,0,17.6,4.37,54.341,54.341,0,0,0,5.516.315c1.011,0,2-.04,2.926-.118a10.454,10.454,0,0,0,8.234-5.08,12.378,12.378,0,0,0,3.793-6.838c.65,1.425,1.328,2.893,2.119,4.386l.1.186c.955,1.813,3.191,6.06,8.311,7.162a13.973,13.973,0,0,0,2.98.3c.708,0,1.335-.044,1.844-.079.156-.011.311-.021.456-.029l3.034-.148a69.389,69.389,0,0,0,8.825-.806,18.431,18.431,0,0,0,4.077-1.129,10.315,10.315,0,0,0,3.493-2.3l.342-.377a10.057,10.057,0,0,0,1.024-1.473c.093-.077.187-.157.281-.24a9,9,0,0,0,2.453.748,21.994,21.994,0,0,0,3.332.251l.332,0a21.194,21.194,0,0,0,7.722-1.454,9.934,9.934,0,0,0,2.1-1.114q1.779,1.3,3.715,2.448c4.318,2.549,11.021,5.607,18.409,5.7l.352,0c4.73,0,8.545-1.35,11.341-4.013a13.52,13.52,0,0,0,2.03-2.458c.028-.025.055-.051.082-.077,3.412-3.25,4.988-8.209,4.322-13.6a17.883,17.883,0,0,0-4.3-9.9,37.235,37.235,0,0,0,4.413-7.186,46.671,46.671,0,0,0,4.254-14.985c.491-4.775.216-11.717-3.838-17.81A14.555,14.555,0,0,0,4552.164,3178.457Z" fill="#fff"/>
        </g>
        <g id="Group_5688" data-name="Group 5688">
          <path id="Path_14268" data-name="Path 14268" d="M4880.521,3205.625v0a24.919,24.919,0,0,0-1.562-2.37c-.305-.438-.619-.811-.926-1.175-.258-.3-.547-.647-.9-1a24.789,24.789,0,0,0-6.563-4.94l.056-.095a25.23,25.23,0,0,0,3.512-14.2,19.276,19.276,0,0,0-3.643-10.391,17.2,17.2,0,0,0-10.387-6.478,19.33,19.33,0,0,0-3.608-.4,21.173,21.173,0,0,0-15.234,6.528,25.609,25.609,0,0,0-1.937,2.227c-.114,0-.227-.005-.34-.006-.394-.007-.788-.006-1.18,0q-.486-.463-1.008-.878a10.977,10.977,0,0,0-1.339-.956,10.493,10.493,0,0,0-1.712-.907,16.393,16.393,0,0,0-8.629-1.237,26.7,26.7,0,0,0-3.094.566c-.325.074-.633.146-.939.2a55.632,55.632,0,0,1-9.33.839q-.77.012-1.54.012c-2.89,0-5.973-.124-9.7-.389-2.355-.168-4.8-.417-7.158-.658-1.548-.158-3.148-.322-4.73-.464-.959-.087-1.924-.131-2.868-.131a25.655,25.655,0,0,0-13.038,3.311q-.335.2-.664.4a13.747,13.747,0,0,0-3.819-2.1,21.991,21.991,0,0,0-7.63-1.274,33.821,33.821,0,0,0-6.237.622,27.948,27.948,0,0,0-11,4.306,13.148,13.148,0,0,0-3.468,3.642,14.941,14.941,0,0,0-3.369,4.854,21.674,21.674,0,0,0-3.924-1.865,13.851,13.851,0,0,0-14.145,2.38q-.218-.785-.485-1.538a13.4,13.4,0,0,0-4.482-6.377,16.621,16.621,0,0,0-10.38-3.063c-.248,0-.494,0-.735.01a31.434,31.434,0,0,0-11.012,2.4,17.768,17.768,0,0,0-2.057-3.581,17.2,17.2,0,0,0-10.387-6.478,19.334,19.334,0,0,0-3.607-.4,21.19,21.19,0,0,0-15.234,6.527,25.611,25.611,0,0,0-1.938,2.228c-.114,0-.228-.005-.341-.006a37.631,37.631,0,0,0-6.028.375,29.763,29.763,0,0,0-3.7.776,24.329,24.329,0,0,0-14.485-4.683h-.218a19.968,19.968,0,0,0-6.343,1.031,24.647,24.647,0,0,0-4.981,2.4,34.981,34.981,0,0,0-3.9,2.8,21.191,21.191,0,0,0-12.281-8.637,22.575,22.575,0,0,0-12.5.741,28.71,28.71,0,0,0-11.577,7.1,28.413,28.413,0,0,0-2.54,2.984,32.848,32.848,0,0,0-7.983,16.029,11.746,11.746,0,0,0-2.8,3.1,13.38,13.38,0,0,0-3.794,6.351,24.232,24.232,0,0,0-.775,7.992,48.048,48.048,0,0,0,.883,7.047,75.593,75.593,0,0,0,3.723,12.794,54.187,54.187,0,0,0,2.916,6.384,21.531,21.531,0,0,0,5.589,7.1,10.352,10.352,0,0,0,7.805,2.276,10.576,10.576,0,0,0,6.442-3.423,16.543,16.543,0,0,0,8.637,5.749,14.369,14.369,0,0,0,3.6.449,19.194,19.194,0,0,0,6.527-1.243,29.108,29.108,0,0,0,6.963-3.7l.277-.2c4.318,2.417,10.585,5.058,17.443,5.142l.351,0c4.73,0,8.546-1.35,11.342-4.013a13.547,13.547,0,0,0,2.03-2.458c.028-.025.055-.051.082-.077q.458-.435.87-.911a33.928,33.928,0,0,0,12.108,6.319,30.706,30.706,0,0,0,7.878,1.136,33.224,33.224,0,0,0,19.938-6.323,28.093,28.093,0,0,0,6.515,4.479,20.234,20.234,0,0,0,8.953,1.848c.275,0,.548,0,.817-.011a48.964,48.964,0,0,0,16.1-3.333,54.339,54.339,0,0,0,7.122-3.28,15.682,15.682,0,0,0,3.9,3.047,16.178,16.178,0,0,0,7.9,1.944q.344,0,.682-.012a26.791,26.791,0,0,0,6.537-1.121,14.479,14.479,0,0,0,3.308-1.407,27.017,27.017,0,0,0,7.568,3.228,27.555,27.555,0,0,0,13.042.3,35.977,35.977,0,0,0,13.991-7.091,28.639,28.639,0,0,0,5.376,3.055,56.4,56.4,0,0,0,17.6,4.37,54.308,54.308,0,0,0,5.515.315c1.012,0,2-.04,2.927-.118a10.453,10.453,0,0,0,8.234-5.08,11.207,11.207,0,0,0,2.972-4.2q.294.283.58.546a34.069,34.069,0,0,0,13.723,7.715,30.7,30.7,0,0,0,7.878,1.136,33.129,33.129,0,0,0,23.081-8.936,28.344,28.344,0,0,0,3.055-3.406,26.85,26.85,0,0,0,7.242-14.1A27.571,27.571,0,0,0,4880.521,3205.625Z" fill="none" stroke="#fff" stroke-miterlimit="10" stroke-width="5.2"/>
          <path id="Path_14269" data-name="Path 14269" d="M4552.164,3178.457h0a14.416,14.416,0,0,0-1.174-1.347,23.912,23.912,0,0,0-17.449-7.316h-.217a19.975,19.975,0,0,0-6.344,1.031,24.62,24.62,0,0,0-4.981,2.4,39.169,39.169,0,0,0-7.228,5.847q-1,1.006-1.966,2.093a22.98,22.98,0,0,0-7.379-1.109,32.448,32.448,0,0,0-8.412,1.123c-.81.223-1.541.46-2.235.726-.552.212-1.024.418-1.477.643a9.24,9.24,0,0,0-2.952,2.155q-.125-.38-.254-.762a32.884,32.884,0,0,0-5.892-10.979,19.549,19.549,0,0,0-13.976-6.733c-.568-.035-1.154-.052-1.743-.052a48.706,48.706,0,0,0-10.878,1.507,90.676,90.676,0,0,0-11.074,3.078c-1.333.1-2.764.167-4.264.192q-.77.012-1.54.012c-2.89,0-5.972-.124-9.7-.389-2.356-.168-4.8-.417-7.159-.658-1.547-.158-3.148-.322-4.729-.464-.959-.087-1.925-.131-2.869-.131a25.653,25.653,0,0,0-13.037,3.311,23.71,23.71,0,0,0-7.209,6.571,25.757,25.757,0,0,0-5.3,8.382,30.678,30.678,0,0,0-1.881,7.61,22.019,22.019,0,0,0,.562,9.1,13.145,13.145,0,0,0,7.922,8.676,15.322,15.322,0,0,0,11.37-.6,21.052,21.052,0,0,0,3.933-2.223c.616-.44,1.148-.875,1.591-1.239.238-.2.46-.382.688-.548l.2-.142c-.409,4.316-1.944,8.942-3.538,13.743-.305.917-.607,1.829-.9,2.719l-.086.264a15.888,15.888,0,0,0-.986,6.4,13.913,13.913,0,0,0,3.205,7.735,23.575,23.575,0,0,0,8.821,6.306,56.412,56.412,0,0,0,17.6,4.37,54.341,54.341,0,0,0,5.516.315c1.011,0,2-.04,2.926-.118a10.454,10.454,0,0,0,8.234-5.08,12.378,12.378,0,0,0,3.793-6.838c.65,1.425,1.328,2.893,2.119,4.386l.1.186c.955,1.813,3.191,6.06,8.311,7.162a13.973,13.973,0,0,0,2.98.3c.708,0,1.335-.044,1.844-.079.156-.011.311-.021.456-.029l3.034-.148a69.389,69.389,0,0,0,8.825-.806,18.431,18.431,0,0,0,4.077-1.129,10.315,10.315,0,0,0,3.493-2.3l.342-.377a10.057,10.057,0,0,0,1.024-1.473c.093-.077.187-.157.281-.24a9,9,0,0,0,2.453.748,21.994,21.994,0,0,0,3.332.251l.332,0a21.194,21.194,0,0,0,7.722-1.454,9.934,9.934,0,0,0,2.1-1.114q1.779,1.3,3.715,2.448c4.318,2.549,11.021,5.607,18.409,5.7l.352,0c4.73,0,8.545-1.35,11.341-4.013a13.52,13.52,0,0,0,2.03-2.458c.028-.025.055-.051.082-.077,3.412-3.25,4.988-8.209,4.322-13.6a17.883,17.883,0,0,0-4.3-9.9,37.235,37.235,0,0,0,4.413-7.186,46.671,46.671,0,0,0,4.254-14.985c.491-4.775.216-11.717-3.838-17.81A14.555,14.555,0,0,0,4552.164,3178.457Z" fill="none" stroke="#fff" stroke-miterlimit="10" stroke-width="5.2"/>
        </g>
        <g id="Group_5689" data-name="Group 5689">
          <path id="Path_14270" data-name="Path 14270" d="M4880.521,3205.625v0a24.919,24.919,0,0,0-1.562-2.37c-.305-.438-.619-.811-.926-1.175-.258-.3-.547-.647-.9-1a24.789,24.789,0,0,0-6.563-4.94l.056-.095a25.23,25.23,0,0,0,3.512-14.2,19.276,19.276,0,0,0-3.643-10.391,17.2,17.2,0,0,0-10.387-6.478,19.33,19.33,0,0,0-3.608-.4,21.173,21.173,0,0,0-15.234,6.528,25.609,25.609,0,0,0-1.937,2.227c-.114,0-.227-.005-.34-.006-.394-.007-.788-.006-1.18,0q-.486-.463-1.008-.878a10.977,10.977,0,0,0-1.339-.956,10.493,10.493,0,0,0-1.712-.907,16.393,16.393,0,0,0-8.629-1.237,26.7,26.7,0,0,0-3.094.566c-.325.074-.633.146-.939.2a55.632,55.632,0,0,1-9.33.839q-.77.012-1.54.012c-2.89,0-5.973-.124-9.7-.389-2.355-.168-4.8-.417-7.158-.658-1.548-.158-3.148-.322-4.73-.464-.959-.087-1.924-.131-2.868-.131a25.655,25.655,0,0,0-13.038,3.311q-.335.2-.664.4a13.747,13.747,0,0,0-3.819-2.1,21.991,21.991,0,0,0-7.63-1.274,33.821,33.821,0,0,0-6.237.622,27.948,27.948,0,0,0-11,4.306,13.148,13.148,0,0,0-3.468,3.642,14.941,14.941,0,0,0-3.369,4.854,21.674,21.674,0,0,0-3.924-1.865,13.851,13.851,0,0,0-14.145,2.38q-.218-.785-.485-1.538a13.4,13.4,0,0,0-4.482-6.377,16.621,16.621,0,0,0-10.38-3.063c-.248,0-.494,0-.735.01a31.434,31.434,0,0,0-11.012,2.4,17.768,17.768,0,0,0-2.057-3.581,17.2,17.2,0,0,0-10.387-6.478,19.334,19.334,0,0,0-3.607-.4,21.19,21.19,0,0,0-15.234,6.527,25.611,25.611,0,0,0-1.938,2.228c-.114,0-.228-.005-.341-.006a37.631,37.631,0,0,0-6.028.375,29.763,29.763,0,0,0-3.7.776,24.329,24.329,0,0,0-14.485-4.683h-.218a19.968,19.968,0,0,0-6.343,1.031,24.647,24.647,0,0,0-4.981,2.4,34.981,34.981,0,0,0-3.9,2.8,21.191,21.191,0,0,0-12.281-8.637,22.575,22.575,0,0,0-12.5.741,28.71,28.71,0,0,0-11.577,7.1,28.413,28.413,0,0,0-2.54,2.984,32.848,32.848,0,0,0-7.983,16.029,11.746,11.746,0,0,0-2.8,3.1,13.38,13.38,0,0,0-3.794,6.351,24.232,24.232,0,0,0-.775,7.992,48.048,48.048,0,0,0,.883,7.047,75.593,75.593,0,0,0,3.723,12.794,54.187,54.187,0,0,0,2.916,6.384,21.531,21.531,0,0,0,5.589,7.1,10.352,10.352,0,0,0,7.805,2.276,10.576,10.576,0,0,0,6.442-3.423,16.543,16.543,0,0,0,8.637,5.749,14.369,14.369,0,0,0,3.6.449,19.194,19.194,0,0,0,6.527-1.243,29.108,29.108,0,0,0,6.963-3.7l.277-.2c4.318,2.417,10.585,5.058,17.443,5.142l.351,0c4.73,0,8.546-1.35,11.342-4.013a13.547,13.547,0,0,0,2.03-2.458c.028-.025.055-.051.082-.077q.458-.435.87-.911a33.928,33.928,0,0,0,12.108,6.319,30.706,30.706,0,0,0,7.878,1.136,33.224,33.224,0,0,0,19.938-6.323,28.093,28.093,0,0,0,6.515,4.479,20.234,20.234,0,0,0,8.953,1.848c.275,0,.548,0,.817-.011a48.964,48.964,0,0,0,16.1-3.333,54.339,54.339,0,0,0,7.122-3.28,15.682,15.682,0,0,0,3.9,3.047,16.178,16.178,0,0,0,7.9,1.944q.344,0,.682-.012a26.791,26.791,0,0,0,6.537-1.121,14.479,14.479,0,0,0,3.308-1.407,27.017,27.017,0,0,0,7.568,3.228,27.555,27.555,0,0,0,13.042.3,35.977,35.977,0,0,0,13.991-7.091,28.639,28.639,0,0,0,5.376,3.055,56.4,56.4,0,0,0,17.6,4.37,54.308,54.308,0,0,0,5.515.315c1.012,0,2-.04,2.927-.118a10.453,10.453,0,0,0,8.234-5.08,11.207,11.207,0,0,0,2.972-4.2q.294.283.58.546a34.069,34.069,0,0,0,13.723,7.715,30.7,30.7,0,0,0,7.878,1.136,33.129,33.129,0,0,0,23.081-8.936,28.344,28.344,0,0,0,3.055-3.406,26.85,26.85,0,0,0,7.242-14.1A27.571,27.571,0,0,0,4880.521,3205.625Z" fill="none" stroke="#000" stroke-miterlimit="10" stroke-width="3.9"/>
          <path id="Path_14271" data-name="Path 14271" d="M4552.164,3178.457h0a14.416,14.416,0,0,0-1.174-1.347,23.912,23.912,0,0,0-17.449-7.316h-.217a19.975,19.975,0,0,0-6.344,1.031,24.62,24.62,0,0,0-4.981,2.4,39.169,39.169,0,0,0-7.228,5.847q-1,1.006-1.966,2.093a22.98,22.98,0,0,0-7.379-1.109,32.448,32.448,0,0,0-8.412,1.123c-.81.223-1.541.46-2.235.726-.552.212-1.024.418-1.477.643a9.24,9.24,0,0,0-2.952,2.155q-.125-.38-.254-.762a32.884,32.884,0,0,0-5.892-10.979,19.549,19.549,0,0,0-13.976-6.733c-.568-.035-1.154-.052-1.743-.052a48.706,48.706,0,0,0-10.878,1.507,90.676,90.676,0,0,0-11.074,3.078c-1.333.1-2.764.167-4.264.192q-.77.012-1.54.012c-2.89,0-5.972-.124-9.7-.389-2.356-.168-4.8-.417-7.159-.658-1.547-.158-3.148-.322-4.729-.464-.959-.087-1.925-.131-2.869-.131a25.653,25.653,0,0,0-13.037,3.311,23.71,23.71,0,0,0-7.209,6.571,25.757,25.757,0,0,0-5.3,8.382,30.678,30.678,0,0,0-1.881,7.61,22.019,22.019,0,0,0,.562,9.1,13.145,13.145,0,0,0,7.922,8.676,15.322,15.322,0,0,0,11.37-.6,21.052,21.052,0,0,0,3.933-2.223c.616-.44,1.148-.875,1.591-1.239.238-.2.46-.382.688-.548l.2-.142c-.409,4.316-1.944,8.942-3.538,13.743-.305.917-.607,1.829-.9,2.719l-.086.264a15.888,15.888,0,0,0-.986,6.4,13.913,13.913,0,0,0,3.205,7.735,23.575,23.575,0,0,0,8.821,6.306,56.412,56.412,0,0,0,17.6,4.37,54.341,54.341,0,0,0,5.516.315c1.011,0,2-.04,2.926-.118a10.454,10.454,0,0,0,8.234-5.08,12.378,12.378,0,0,0,3.793-6.838c.65,1.425,1.328,2.893,2.119,4.386l.1.186c.955,1.813,3.191,6.06,8.311,7.162a13.973,13.973,0,0,0,2.98.3c.708,0,1.335-.044,1.844-.079.156-.011.311-.021.456-.029l3.034-.148a69.389,69.389,0,0,0,8.825-.806,18.431,18.431,0,0,0,4.077-1.129,10.315,10.315,0,0,0,3.493-2.3l.342-.377a10.057,10.057,0,0,0,1.024-1.473c.093-.077.187-.157.281-.24a9,9,0,0,0,2.453.748,21.994,21.994,0,0,0,3.332.251l.332,0a21.194,21.194,0,0,0,7.722-1.454,9.934,9.934,0,0,0,2.1-1.114q1.779,1.3,3.715,2.448c4.318,2.549,11.021,5.607,18.409,5.7l.352,0c4.73,0,8.545-1.35,11.341-4.013a13.52,13.52,0,0,0,2.03-2.458c.028-.025.055-.051.082-.077,3.412-3.25,4.988-8.209,4.322-13.6a17.883,17.883,0,0,0-4.3-9.9,37.235,37.235,0,0,0,4.413-7.186,46.671,46.671,0,0,0,4.254-14.985c.491-4.775.216-11.717-3.838-17.81A14.555,14.555,0,0,0,4552.164,3178.457Z" fill="none" stroke="#000" stroke-miterlimit="10" stroke-width="3.9"/>
        </g>
      </g>
    </g>
    <g id="Group_5730" data-name="Group 5730" transform="translate(-3676.444)">
      <g id="Group_5695" data-name="Group 5695">
        <path id="Path_14272" data-name="Path 14272" d="M4753.992,3225.164a46.7,46.7,0,0,0-2.686-10.578l-.027-.073c-.043-.12-.091-.247-.142-.383h0v0h0l-.685-1.821a5.283,5.283,0,0,0-.337-.764,70.642,70.642,0,0,0-4.543-9.124,46.071,46.071,0,0,0-8.74-11.016,19.953,19.953,0,0,0-6.383-4.052,9.351,9.351,0,0,0-3.1-.566,6.731,6.731,0,0,0-2.91.632,7.959,7.959,0,0,0-3.615,3.47c-3.783,2.988-3.791,8.782-3.794,11.73,0,2.216.129,4.439.255,6.588.155,2.632.315,5.353.221,8a18.466,18.466,0,0,1-1.925,8.443,6.538,6.538,0,0,1-2.052,1.115,4.384,4.384,0,0,1-1.331.21,3.211,3.211,0,0,1-2.615-1.215c-.873-1.157-1.156-2.907-.867-5.352.29-2.462.726-4.884,1.114-6.929.254-1.342.53-2.707.8-4.027.711-3.522,1.446-7.164,1.879-10.839a53.273,53.273,0,0,0,.431-7.664,21.233,21.233,0,0,0-1.078-6.7,6.957,6.957,0,0,0-2.272-3.367,10.442,10.442,0,0,0-6.466-1.753c-.193,0-.384,0-.573.007a27.048,27.048,0,0,0-14,4.725,25.014,25.014,0,0,0-6.523,6.188,19.349,19.349,0,0,0-4.555,7.247,22.821,22.821,0,0,0-.814,9.947,45.308,45.308,0,0,0,4.2,13.953,61.218,61.218,0,0,0,7.378,11.918,46.162,46.162,0,0,0,4.833,5.267,22.972,22.972,0,0,0,5.586,4,13.943,13.943,0,0,0,6.133,1.2q.325,0,.648-.009a45.962,45.962,0,0,0,24.6-8.628c.257-.194.508-.392.757-.6a17.054,17.054,0,0,0,1.694,3.3,9.3,9.3,0,0,0,8.147,4.3c.149,0,.3,0,.447-.008a20.554,20.554,0,0,0,4.977-.872,7.55,7.55,0,0,0,4.312-3.159c.146-.224.277-.453.4-.686a7.486,7.486,0,0,0,1.712-1.849C4754.544,3232.191,4754.332,3228.023,4753.992,3225.164Z"/>
        <g id="Group_5694" data-name="Group 5694" clip-path="url(#clip-path)">
          <g id="Group_5693" data-name="Group 5693">
            <g id="Group_5692" data-name="Group 5692">
              <path id="Path_14273" data-name="Path 14273" d="M4748.674,3212.384s.346.924.658,1.754q.113.291.222.585C4748.9,3212.985,4748.674,3212.384,4748.674,3212.384Z" fill="url(#linear-gradient)"/>
              <path id="Path_14274" data-name="Path 14274" d="M4749.818,3215.428s-.074-.2-.264-.705c.056.148.111.3.166.445S4749.818,3215.428,4749.818,3215.428Z" fill="url(#linear-gradient-2)"/>
              <path id="Path_14275" data-name="Path 14275" d="M4735.989,3234.157a7.61,7.61,0,0,0,6.748,3.561c.129,0,.258,0,.387-.007a18.975,18.975,0,0,0,4.571-.808,5.875,5.875,0,0,0,3.363-2.457c1.692-2.6,1.607-6.129,1.256-9.083a45.263,45.263,0,0,0-2.594-10.2c-.092-.242-.236-.625-.388-1.03a70.559,70.559,0,0,0-5.213-10.854,44.894,44.894,0,0,0-8.411-10.619,18.041,18.041,0,0,0-5.823-3.721,7.694,7.694,0,0,0-2.537-.47,5.047,5.047,0,0,0-2.185.469c-4.072,1.933-4.328,7.223-4.331,11.14,0,4.886.648,9.753.475,14.642-.135,3.793-.758,7.748-3.2,10.781a8.75,8.75,0,0,1-4.067,2.863,6.1,6.1,0,0,1-1.842.289,4.854,4.854,0,0,1-3.964-1.887c-1.392-1.846-1.457-4.367-1.2-6.568.279-2.361.689-4.711,1.132-7.046.932-4.914,2.072-9.774,2.659-14.748a52.348,52.348,0,0,0,.42-7.424,19.861,19.861,0,0,0-.981-6.175,5.425,5.425,0,0,0-1.7-2.584,9.042,9.042,0,0,0-5.449-1.413c-.179,0-.356,0-.531.007a25.478,25.478,0,0,0-13.1,4.442c-3.606,2.4-6.911,5.839-8.3,10.025a21.347,21.347,0,0,0-.739,9.222,43.57,43.57,0,0,0,4.047,13.428,59.547,59.547,0,0,0,7.175,11.588,44.072,44.072,0,0,0,4.654,5.073,21.6,21.6,0,0,0,5.171,3.716,12.43,12.43,0,0,0,5.4,1.037c.2,0,.4,0,.6-.008a44.274,44.274,0,0,0,23.621-8.288c.4-.3.786-.615,1.164-.946a4.239,4.239,0,0,0,.525-.456c.145-.182.145-.166.1-.441a13.7,13.7,0,0,1-.118-2.454C4733.864,3229.232,4734.455,3231.9,4735.989,3234.157Z" fill="url(#linear-gradient-3)"/>
            </g>
            <path id="Path_14276" data-name="Path 14276" d="M4742.3,3235.274c4.653-1.069,7.918-2.5,8.072-7.752a21.451,21.451,0,0,0-.325-4.4l.164-.041a19.4,19.4,0,0,1,1.006,4.418c.37,3.078-.973,7-4.226,8.036a6.922,6.922,0,0,1-4.712-.1l.021-.168Z" fill="#fff"/>
            <path id="Path_14277" data-name="Path 14277" d="M4698.18,3184.11c3.965-3.265,9.335-2.518,10.66,2.917a13.52,13.52,0,0,1,.06,5.788c-.317-1.506-.568-2.981-.981-4.375-1.446-5.344-4.855-5.848-9.739-4.33Z" fill="#fff"/>
            <path id="Path_14278" data-name="Path 14278" d="M4727.566,3190.471a4.038,4.038,0,0,1,3.643.208,11.542,11.542,0,0,1,2.821,2.332,8.76,8.76,0,0,1,1.253,2.018l-.142.091a10.628,10.628,0,0,0-3.579-2.57,11.555,11.555,0,0,1-4.007-1.91l.011-.169Z" fill="#fff"/>
          </g>
        </g>
      </g>
      <g id="Group_5699" data-name="Group 5699">
        <path id="Path_14280" data-name="Path 14280" d="M4693.717,3208.887a18.293,18.293,0,0,0-1.232-1.855,8.54,8.54,0,0,0-.6-.761,8.783,8.783,0,0,0-.59-.66c-3.088-3.321-7.5-5.432-12.937-6.22a18.973,18.973,0,0,0,2.482-2.828,18.756,18.756,0,0,0,5.634-14.326,12.805,12.805,0,0,0-2.37-6.906,10.715,10.715,0,0,0-6.487-3.993,12.8,12.8,0,0,0-2.388-.262,14.627,14.627,0,0,0-10.5,4.58,19.6,19.6,0,0,0-1.872,2.232c-.093.091-.187.178-.278.271a19.43,19.43,0,0,0-1.589,1.854c-1.127-.108-2.23-.173-3.276-.188a31.422,31.422,0,0,0-4.99.307,16.77,16.77,0,0,0-8.929,3.741,12.082,12.082,0,0,0-2.068,2.436c-.026.023-.056.044-.082.067a14.216,14.216,0,0,0-4.327,8.636,15.071,15.071,0,0,0,1.848,9.758,16.007,16.007,0,0,0,7.077,6.191c.63.3,1.3.579,1.987.833.028.012.059.027.092.043a4.491,4.491,0,0,0,.621.251c-.021.03-.041.061-.061.092-.057.051-.115.1-.171.154a12.406,12.406,0,0,0-3.563,5.847,14.31,14.31,0,0,0,.114,7.326,23.351,23.351,0,0,0,6.915,10.931,27.529,27.529,0,0,0,11.088,6.242,24.187,24.187,0,0,0,6.208.893,26.539,26.539,0,0,0,18.514-7.156,21.857,21.857,0,0,0,2.583-2.929,20.3,20.3,0,0,0,5.771-10.918A20.963,20.963,0,0,0,4693.717,3208.887Z"/>
        <g id="Group_5698" data-name="Group 5698" clip-path="url(#clip-path-2)">
          <g id="Group_5697" data-name="Group 5697">
            <g id="Group_5696" data-name="Group 5696">
              <path id="Path_14281" data-name="Path 14281" d="M4690.129,3206.485s.121.141.456.529.462.527.463.527Z" fill="url(#linear-gradient-4)"/>
              <path id="Path_14282" data-name="Path 14282" d="M4692.29,3209.361a16.344,16.344,0,0,0-1.705-2.347c-4.161-4.814-10.521-6.381-16.81-6.381a45.439,45.439,0,0,0-8.1.773c-2.291.419-4.53,1.079-6.831,1.452a17.662,17.662,0,0,1-2.8.275c-.148,0-.3,0-.445-.01a3.467,3.467,0,0,1-2.76-1.114,2.751,2.751,0,0,1,.018-2.83,4.168,4.168,0,0,1,1.91-2.114,2.508,2.508,0,0,1,1.019-.22c1.566,0,2.925,1.506,3.907,2.61.162.182.324.364.49.542.077.081.223.3.326.332a.2.2,0,0,0,.051.006,3.889,3.889,0,0,0,.679-.182q.448-.111.892-.227c1.106-.291,2.217-.557,3.339-.777a47.483,47.483,0,0,1,6.7-.839q.84-.044,1.681-.053h.028c.274,0,.633.043.973.043a1.545,1.545,0,0,0,.751-.143,18.241,18.241,0,0,0,2.326-1.584,17.5,17.5,0,0,0,4.242-4.922,16.961,16.961,0,0,0,2.247-9.573,11.207,11.207,0,0,0-2.128-5.969,9.03,9.03,0,0,0-5.521-3.265,11.047,11.047,0,0,0-2.075-.2,12.874,12.874,0,0,0-9.2,4.209,23.175,23.175,0,0,0-5.564,11.691c-.144.753-.256,1.509-.361,2.268a24.993,24.993,0,0,1,1.029-9.019c-1.089-.091-2.185-.143-3.281-.143a29.627,29.627,0,0,0-4.715.359,15.219,15.219,0,0,0-8,3.446,12.541,12.541,0,0,0-3.669,7.672,13.393,13.393,0,0,0,1.76,8.637,14.361,14.361,0,0,0,6.427,5.426c.613.281,1.236.529,1.872.752a3.132,3.132,0,0,0,.774.278.316.316,0,0,0,.044,0c.112-.018.293-.2.391-.264.173-.113.348-.223.527-.328a13.562,13.562,0,0,1,4.126-1.551,16.257,16.257,0,0,1,3.263-.323,21.884,21.884,0,0,1,12.933,4.621c3.982,3.048,7.861,8.468,5.349,13.634a8.113,8.113,0,0,1-.656,1.1,10.939,10.939,0,0,0,.087-4.884,13.05,13.05,0,0,0-2.96-5.523,19.994,19.994,0,0,0-11.005-6.224,16.867,16.867,0,0,0-3.3-.334,12.038,12.038,0,0,0-8.49,3.144,10.734,10.734,0,0,0-3.007,5.092,12.609,12.609,0,0,0,.211,6.455,21.559,21.559,0,0,0,6.573,10.022,25.861,25.861,0,0,0,10.488,5.706,22.508,22.508,0,0,0,5.786.744,25.028,25.028,0,0,0,17.227-6.947,18.62,18.62,0,0,0,5.545-10.475A19.307,19.307,0,0,0,4692.29,3209.361Z" fill="url(#linear-gradient-5)"/>
            </g>
            <path id="Path_14283" data-name="Path 14283" d="M4668.806,3176.051c4.706-3.228,12.106-3.08,13.744,3.387a11.627,11.627,0,0,1,.087,5.319,24.231,24.231,0,0,0-1.345-4.89c-2.073-5.343-7.774-4.782-12.486-3.816Z" fill="#fff"/>
            <path id="Path_14284" data-name="Path 14284" d="M4664.985,3211.027a4.034,4.034,0,0,1,3.643.208,11.557,11.557,0,0,1,2.822,2.332,8.788,8.788,0,0,1,1.252,2.018l-.142.091a10.616,10.616,0,0,0-3.579-2.57,11.56,11.56,0,0,1-4.006-1.91l.01-.169Z" fill="#fff"/>
            <path id="Path_14285" data-name="Path 14285" d="M4678.506,3203.487c11.65-1.153,18.094,12.849,13.528,22.479a14.511,14.511,0,0,1-7.143,7.19,16.917,16.917,0,0,0,5.925-7.7c3.45-9.23-1.78-21.14-12.31-21.972Z" fill="#fff"/>
          </g>
        </g>
      </g>
      <g id="Group_5703" data-name="Group 5703">
        <path id="Path_14287" data-name="Path 14287" d="M4874.9,3208.887a18.55,18.55,0,0,0-1.233-1.855,8.774,8.774,0,0,0-.6-.761c-.229-.271-.414-.49-.591-.66-3.088-3.321-7.5-5.432-12.937-6.22a18.973,18.973,0,0,0,2.482-2.828,18.754,18.754,0,0,0,5.634-14.326,12.8,12.8,0,0,0-2.37-6.906,10.714,10.714,0,0,0-6.487-3.993,12.8,12.8,0,0,0-2.388-.262,14.627,14.627,0,0,0-10.5,4.58,19.6,19.6,0,0,0-1.872,2.232c-.093.091-.187.178-.278.271a19.435,19.435,0,0,0-1.589,1.854c-1.127-.108-2.23-.173-3.276-.188a31.429,31.429,0,0,0-4.99.307,16.769,16.769,0,0,0-8.929,3.741,12.066,12.066,0,0,0-2.068,2.436c-.026.023-.056.044-.082.067a14.213,14.213,0,0,0-4.327,8.636,15.068,15.068,0,0,0,1.848,9.758,16.006,16.006,0,0,0,7.077,6.191c.63.3,1.3.579,1.987.833.028.012.059.027.092.043a4.466,4.466,0,0,0,.621.251c-.021.03-.041.061-.061.092-.057.051-.115.1-.171.154a12.4,12.4,0,0,0-3.563,5.847,14.315,14.315,0,0,0,.114,7.326,23.351,23.351,0,0,0,6.915,10.931,27.524,27.524,0,0,0,11.088,6.242,24.193,24.193,0,0,0,6.208.893,26.54,26.54,0,0,0,18.514-7.156,21.891,21.891,0,0,0,2.583-2.929,20.311,20.311,0,0,0,5.772-10.918A20.975,20.975,0,0,0,4874.9,3208.887Z"/>
        <g id="Group_5702" data-name="Group 5702" clip-path="url(#clip-path-3)">
          <g id="Group_5701" data-name="Group 5701">
            <g id="Group_5700" data-name="Group 5700">
              <path id="Path_14288" data-name="Path 14288" d="M4871.311,3206.485s.121.141.456.529.462.527.463.527Z" fill="url(#linear-gradient-6)"/>
              <path id="Path_14289" data-name="Path 14289" d="M4873.472,3209.361a16.381,16.381,0,0,0-1.705-2.347c-4.161-4.814-10.521-6.381-16.809-6.381a45.452,45.452,0,0,0-8.1.773c-2.291.419-4.53,1.079-6.831,1.452a17.65,17.65,0,0,1-2.8.275c-.148,0-.3,0-.444-.01a3.469,3.469,0,0,1-2.761-1.114,2.75,2.75,0,0,1,.018-2.83,4.165,4.165,0,0,1,1.91-2.114,2.507,2.507,0,0,1,1.019-.22c1.566,0,2.925,1.506,3.907,2.61.162.182.324.364.49.542.077.081.223.3.326.332a.2.2,0,0,0,.051.006,3.889,3.889,0,0,0,.679-.182q.447-.111.892-.227c1.106-.291,2.217-.557,3.339-.777a47.49,47.49,0,0,1,6.7-.839q.84-.044,1.681-.053h.028c.274,0,.633.043.973.043a1.546,1.546,0,0,0,.751-.143,18.241,18.241,0,0,0,2.326-1.584,17.5,17.5,0,0,0,4.242-4.922,16.961,16.961,0,0,0,2.247-9.573,11.207,11.207,0,0,0-2.128-5.969,9.03,9.03,0,0,0-5.521-3.265,11.047,11.047,0,0,0-2.075-.2,12.874,12.874,0,0,0-9.2,4.209,23.179,23.179,0,0,0-5.564,11.691c-.144.753-.256,1.509-.361,2.268a24.993,24.993,0,0,1,1.029-9.019c-1.089-.091-2.185-.143-3.281-.143a29.637,29.637,0,0,0-4.715.359,15.223,15.223,0,0,0-8,3.446,12.543,12.543,0,0,0-3.669,7.672,13.4,13.4,0,0,0,1.76,8.637,14.36,14.36,0,0,0,6.427,5.426c.613.281,1.236.529,1.872.752a3.128,3.128,0,0,0,.774.278.306.306,0,0,0,.044,0c.112-.018.293-.2.391-.264.173-.113.348-.223.527-.328a13.565,13.565,0,0,1,4.126-1.551,16.257,16.257,0,0,1,3.263-.323,21.886,21.886,0,0,1,12.933,4.621c3.982,3.048,7.861,8.468,5.349,13.634a8.113,8.113,0,0,1-.656,1.1,10.939,10.939,0,0,0,.087-4.884,13.045,13.045,0,0,0-2.96-5.523,19.993,19.993,0,0,0-11-6.224,16.867,16.867,0,0,0-3.3-.334,12.037,12.037,0,0,0-8.49,3.144,10.731,10.731,0,0,0-3.007,5.092,12.609,12.609,0,0,0,.211,6.455,21.562,21.562,0,0,0,6.573,10.022,25.866,25.866,0,0,0,10.488,5.706,22.506,22.506,0,0,0,5.786.744,25.027,25.027,0,0,0,17.227-6.947,18.617,18.617,0,0,0,5.545-10.475A19.307,19.307,0,0,0,4873.472,3209.361Z" fill="url(#linear-gradient-5)"/>
            </g>
            <path id="Path_14290" data-name="Path 14290" d="M4849.988,3176.051c4.706-3.228,12.106-3.08,13.744,3.387a11.627,11.627,0,0,1,.087,5.319,24.2,24.2,0,0,0-1.345-4.89c-2.073-5.343-7.773-4.782-12.486-3.816Z" fill="#fff"/>
            <path id="Path_14291" data-name="Path 14291" d="M4846.167,3211.027a4.034,4.034,0,0,1,3.643.208,11.564,11.564,0,0,1,2.822,2.332,8.809,8.809,0,0,1,1.253,2.018l-.143.091a10.621,10.621,0,0,0-3.579-2.57,11.56,11.56,0,0,1-4.006-1.91l.01-.169Z" fill="#fff"/>
            <path id="Path_14292" data-name="Path 14292" d="M4859.688,3203.487c11.65-1.153,18.094,12.849,13.528,22.479a14.508,14.508,0,0,1-7.143,7.19,16.917,16.917,0,0,0,5.925-7.7c3.45-9.23-1.78-21.14-12.31-21.972Z" fill="#fff"/>
          </g>
        </g>
      </g>
      <g id="Group_5707" data-name="Group 5707">
        <path id="Path_14294" data-name="Path 14294" d="M4547.8,3183.491a7.361,7.361,0,0,0-.716-.976,8.09,8.09,0,0,0-.733-.847,17.447,17.447,0,0,0-12.779-5.374h-.184a13.56,13.56,0,0,0-4.31.682,18.192,18.192,0,0,0-3.672,1.783,32.816,32.816,0,0,0-6.029,4.9,46.04,46.04,0,0,0-3.757,4.291,48.545,48.545,0,0,0-6.892,10.031,37.707,37.707,0,0,0-4.61,15.144,24.794,24.794,0,0,0,4.193,15.244,34.5,34.5,0,0,0,11.24,10.412c3.637,2.147,9.228,4.723,15.2,4.8l.253,0c3.047,0,5.29-.726,6.858-2.22a7.238,7.238,0,0,0,1.461-1.99,6.653,6.653,0,0,0,.651-.545c1.907-1.816,2.765-4.769,2.354-8.1-.188-1.529-.929-5.3-3.733-7.247a4.4,4.4,0,0,0-2.5-.836h-.082a5.948,5.948,0,0,0-1.9.432c-.177.063-.344.123-.488.164-.611.177-1.25.324-1.906.446a22.016,22.016,0,0,0,2.2-1.639,25.018,25.018,0,0,0,3.942-4.281,29.382,29.382,0,0,0,5.161-7.7,40.1,40.1,0,0,0,3.664-12.871C4551.083,3193.353,4550.864,3187.98,4547.8,3183.491Zm-28.244,30.646c-.013-.122-.023-.247-.031-.372a10.429,10.429,0,0,1,.654-4.271,10.239,10.239,0,0,1,.7-1.495,4.494,4.494,0,0,1,2.651-1.19c.069,0,.137,0,.205.009a1.892,1.892,0,0,1,1.588,2.166h0V3209h0a4.836,4.836,0,0,1-.756,2.184A13.824,13.824,0,0,1,4519.558,3214.137Z"/>
        <g id="Group_5706" data-name="Group 5706" clip-path="url(#clip-path-4)">
          <g id="Group_5705" data-name="Group 5705">
            <g id="Group_5704" data-name="Group 5704">
              <path id="Path_14295" data-name="Path 14295" d="M4545.262,3182.943s.132.169.5.63.5.628.506.628Z" fill="url(#linear-gradient-8)"/>
              <path id="Path_14296" data-name="Path 14296" d="M4545.761,3183.573a15.605,15.605,0,0,0-12.187-5.589h-.167a11.969,11.969,0,0,0-3.78.591,16.688,16.688,0,0,0-3.332,1.622,31.352,31.352,0,0,0-5.717,4.65,46.445,46.445,0,0,0-8.235,11.373,36.372,36.372,0,0,0-4.423,14.465,23.156,23.156,0,0,0,3.914,14.211,32.706,32.706,0,0,0,10.69,9.89c4.284,2.529,9.333,4.5,14.365,4.562l.232,0c2,0,4.2-.329,5.693-1.753,1.771-1.687,2.128-4.351,1.842-6.672-.266-2.159-1.154-4.767-3.021-6.066a2.725,2.725,0,0,0-1.537-.534h-.045a7.977,7.977,0,0,0-1.955.53,22.736,22.736,0,0,1-3.7.732,27.356,27.356,0,0,1-3.109.18,25.14,25.14,0,0,1-4.218-.351,16.22,16.22,0,0,1-5.711-1.907,7.469,7.469,0,0,1-1.959-1.681c.705.235,1.385.558,2.08.822a7.894,7.894,0,0,0,2.11.381c.6.053,1.212.079,1.819.079a21.689,21.689,0,0,0,3.191-.237,20.612,20.612,0,0,0,10.337-4.657,26.306,26.306,0,0,0,6.558-8.88,38.389,38.389,0,0,0,3.511-12.322C4549.488,3192.341,4548.783,3187.332,4545.761,3183.573Zm-16.65,23.2s0-.057.012-.213a8.627,8.627,0,0,1-2.658,5.119,15.472,15.472,0,0,1-6.4,4.073,9.2,9.2,0,0,1-2.86.591,4.261,4.261,0,0,1-.658-.049,8.925,8.925,0,0,0,1.4-.57c.192-.122.148-.069.1-.3-.037-.17-.07-.341-.1-.514-.055-.342-.092-.688-.114-1.034a12.107,12.107,0,0,1,.757-4.969,11.25,11.25,0,0,1,2.912-4.39,6.45,6.45,0,0,1,4.135-1.928c.118,0,.236.005.356.016a3.558,3.558,0,0,1,3.123,3.957c.009-.153.013-.209.013-.209Z" fill="url(#linear-gradient-9)"/>
            </g>
            <path id="Path_14297" data-name="Path 14297" d="M4534.035,3180.669a9.52,9.52,0,0,1,12.232,10.48,25.319,25.319,0,0,0-1.693-4.108c-2.043-3.987-6.261-5.756-10.539-6.372Z" fill="#fff"/>
            <path id="Path_14298" data-name="Path 14298" d="M4533.348,3227.654c.919-.257,1.723-.475,2.51-.757a12.312,12.312,0,0,1,3.961-1.067,3.382,3.382,0,0,1,3.1,2.979c-1.252-.89-2.169-1.7-3.595-1.281-.145.027-.432.1-.573.145-1.635.506-3.777.879-5.408-.019Z" fill="#fff"/>
          </g>
        </g>
      </g>
      <g id="Group_5709" data-name="Group 5709">
        <path id="Path_14300" data-name="Path 14300" d="M4516.408,3194.918c-.074-.643-.165-1.212-.28-1.743l-.009-.07a3.017,3.017,0,0,0-.129-.517c-.011-.036-.023-.08-.039-.129l-.028-.1c-1.051-3.737-4.78-5.8-10.5-5.8a25.652,25.652,0,0,0-2.826.16,25.322,25.322,0,0,0-3.863.732c-.6.166-1.137.338-1.629.526a10.033,10.033,0,0,0-.963.421l-.033.015a2.32,2.32,0,0,0-1.215,1.075,2.151,2.151,0,0,0-.175,1.133c-.256.1-.48.206-.69.312l-.033.015a2.317,2.317,0,0,0-1.215,1.075,2.379,2.379,0,0,0-.145,1.389l0,.041.013.4.015.45c.01.314.023.628.036.942.142,3.428.3,6.822.443,9.69l.148,3.027.047.97-.132.009c-.211.014-.424.035-.637.056-.329.033-.639.063-.916.063a2.6,2.6,0,0,1-.291-.014.958.958,0,0,1-.71-.364,2.217,2.217,0,0,1-.108-.3c-.032-.1-.065-.2-.1-.308-.084-.237-.207-.612-.279-.875-.521-1.9-1.062-3.781-1.476-5.206-.712-2.455-1.446-4.946-2.156-7.356l-.652-2.216c-.113-.383-.224-.767-.336-1.15-.5-1.716-1.018-3.49-1.609-5.227a26.729,26.729,0,0,0-4.659-8.826,13.189,13.189,0,0,0-9.449-4.492c-.439-.027-.893-.04-1.349-.04a43.11,43.11,0,0,0-9.443,1.347,84.519,84.519,0,0,0-10.375,2.878,23.239,23.239,0,0,0-4.837,2.3,7.49,7.49,0,0,0-2.837,3.045,5.759,5.759,0,0,0-2.519,4.3c-.067,2.2,1.2,4.018,2.214,5.48l.022.031c.487.7.991,1.377,1.425,1.955,2.723,3.626,5.858,7.862,8.611,12.247a181.723,181.723,0,0,1,9.954,18.457c1.588,3.311,3.16,6.759,4.548,9.8l.193.424c.667,1.464,1.356,2.977,2.133,4.443l.1.191c.707,1.344,1.776,3.375,3.93,3.838a7.576,7.576,0,0,0,1.61.156c.483,0,.944-.032,1.391-.063.19-.013.379-.026.567-.036q.65-.034,1.3-.065l.612-.03,1.153-.054a63.524,63.524,0,0,0,8.015-.717,12.2,12.2,0,0,0,2.67-.715,3.988,3.988,0,0,0,1.374-.853,2.66,2.66,0,0,0,.586-1.049c.032-.2.053-.4.07-.6.027-.012.055-.02.082-.031a3.992,3.992,0,0,0,1.374-.853,2.652,2.652,0,0,0,.586-1.049,14.671,14.671,0,0,0-.06-3.844c-.028-.266-.057-.529-.08-.787l-.071-.767c-.123-1.348-.252-2.741-.334-4.1a36.154,36.154,0,0,1-.034-4.848,12.677,12.677,0,0,1,.319-2.129,2.106,2.106,0,0,1,.355-.034,1.929,1.929,0,0,1,1.61.852,10.034,10.034,0,0,1,1.29,3.8c.24,1.275.427,2.6.607,3.882q.081.573.163,1.146l.07.492a19.507,19.507,0,0,0,1.08,4.7l.021.05a2.793,2.793,0,0,0,2.1,1.951,15.589,15.589,0,0,0,2.346.175c.08,0,.159,0,.239,0a14.73,14.73,0,0,0,5.386-.983l.064-.025a2.466,2.466,0,0,0,1.344-1.051,2.312,2.312,0,0,0,.26-.763l0-.02c.046-.185.09-.373.135-.561.1-.038.206-.074.306-.115l.064-.025a2.462,2.462,0,0,0,1.344-1.051,2.322,2.322,0,0,0,.26-.763l0-.02q.126-.5.244-1.015c1.1-4.754,2.066-9.893,2.95-15.711.611-4.018,1.022-7.325,1.294-10.408A52.852,52.852,0,0,0,4516.408,3194.918Z"/>
        <g id="Group_5708" data-name="Group 5708">
          <path id="Path_14301" data-name="Path 14301" d="M4497.245,3208.366h0c0-.024,0-.048-.007-.072Z" fill="url(#linear-gradient-10)"/>
          <path id="Path_14302" data-name="Path 14302" d="M4514.589,3205.336a50.76,50.76,0,0,0,.14-10.225,14.087,14.087,0,0,0-.431-2.29c-1.033-3.672-5.245-4.575-8.873-4.575a23.951,23.951,0,0,0-2.639.15,23.459,23.459,0,0,0-3.6.681c-.5.137-.989.291-1.471.475a8.625,8.625,0,0,0-.8.35c-.122.062-.426.182-.485.307a1.851,1.851,0,0,0,.02.606q.015.446.029.889c.011.31.023.619.036.929q.2,4.839.442,9.677.148,3.029.295,6.056c.111,1.354-1.456,1.968-2.547,2.136-.452.07-.912.086-1.368.118-.554.038-1.113.123-1.67.123a4.5,4.5,0,0,1-.466-.023,2.6,2.6,0,0,1-1.949-1.12,4.188,4.188,0,0,1-.389-.97c-.086-.244-.227-.668-.316-.992-.474-1.732-.968-3.458-1.469-5.182-.926-3.192-1.869-6.378-2.806-9.566-.62-2.109-1.216-4.228-1.924-6.31a24.687,24.687,0,0,0-4.339-8.266,11.5,11.5,0,0,0-8.271-3.909q-.623-.038-1.247-.037a41.471,41.471,0,0,0-9.069,1.305,84.089,84.089,0,0,0-10.172,2.819,21.365,21.365,0,0,0-4.484,2.124c-1.206.794-2.438,1.906-2.485,3.454-.05,1.654,1.033,3.2,1.935,4.5.449.646.917,1.276,1.389,1.905,3.028,4.032,6.008,8.088,8.691,12.362a186.685,186.685,0,0,1,10.046,18.625c1.562,3.258,3.063,6.543,4.562,9.83.732,1.6,1.456,3.217,2.282,4.776.636,1.2,1.434,2.855,2.893,3.169a5.966,5.966,0,0,0,1.255.118c.624,0,1.255-.064,1.867-.1.64-.034,1.28-.063,1.92-.095a72.783,72.783,0,0,0,8.96-.747,10.679,10.679,0,0,0,2.3-.608,2.531,2.531,0,0,0,.822-.477c.03-.031.1-.15.121-.15s.006,0,0,.018a17.517,17.517,0,0,0-.154-4.214c-.149-1.639-.31-3.277-.409-4.92a37.436,37.436,0,0,1-.032-5.079,9.455,9.455,0,0,1,1.236-4.487,3.88,3.88,0,0,1,3.236-1.772,3.616,3.616,0,0,1,2.993,1.57,11.381,11.381,0,0,1,1.567,4.461c.318,1.69.536,3.4.782,5.1a20.375,20.375,0,0,0,1.041,4.793c.167.407.35.9.813.972a13.783,13.783,0,0,0,2.088.156h.215a13.233,13.233,0,0,0,4.768-.857c.2-.081.477-.164.581-.346a1.443,1.443,0,0,0,.088-.338c.084-.335.165-.672.243-1.008,1.192-5.147,2.132-10.362,2.925-15.583C4513.827,3212.219,4514.284,3208.782,4514.589,3205.336Z" fill="url(#linear-gradient-11)"/>
          <path id="Path_14303" data-name="Path 14303" d="M4514.286,3192.778l.012.043c.108.38.145.509.146.508Z" fill="url(#linear-gradient-12)"/>
        </g>
        <path id="Path_14304" data-name="Path 14304" d="M4465.183,3176.54c5.8-2.4,13.235.894,13.421,7.643a18.366,18.366,0,0,0-2.345-3.449c-2.8-3.137-7.022-3.894-11.076-4.194Z" fill="#fff"/>
        <path id="Path_14305" data-name="Path 14305" d="M4506.454,3190.219a4.5,4.5,0,0,1,6,1.375,7.075,7.075,0,0,1,.656,6.228c-.349-1-.6-1.955-.9-2.851-.927-2.969-2.584-4.471-5.756-4.752Z" fill="#fff"/>
        <path id="Path_14306" data-name="Path 14306" d="M4483.79,3237.535c1.6-.744,3.275-.943,4.762-1.723.138-.091.134-.092.193-.2a6.859,6.859,0,0,0,.036-2.562,18.051,18.051,0,0,1-.09-3.121c.916,1.842,3.037,5.714.791,7.291a7.314,7.314,0,0,1-5.692.312Z" fill="#fff"/>
        <path id="Path_14307" data-name="Path 14307" d="M4503.79,3232.141c1.158-.67,2.311-.9,3.437-1.428a.9.9,0,0,0,.219-.165c.788-.863.926-2.539,1.493-3.714.715,1.718.962,4.3-.931,5.37a5.225,5.225,0,0,1-4.218-.063Z" fill="#fff"/>
      </g>
      <g id="Group_5713" data-name="Group 5713">
        <path id="Path_14308" data-name="Path 14308" d="M4834.661,3179.665a8.57,8.57,0,0,0-1.992-2.2,4.385,4.385,0,0,0-.646-.46,3.916,3.916,0,0,0-.8-.428,9.194,9.194,0,0,0-4.017-.847,12.616,12.616,0,0,0-1.369.077,20.665,20.665,0,0,0-2.355.441c-.415.094-.807.184-1.2.257a62.127,62.127,0,0,1-10.422.949q-.823.013-1.645.013c-3.044,0-6.274-.129-10.164-.405-2.45-.174-4.945-.429-7.358-.676-1.522-.155-3.1-.316-4.653-.456-.767-.069-1.535-.1-2.284-.1a19.246,19.246,0,0,0-9.778,2.434,17.148,17.148,0,0,0-5.461,5.123,19.017,19.017,0,0,0-4.247,6.566,24.171,24.171,0,0,0-1.48,6,15.724,15.724,0,0,0,.32,6.448,6.621,6.621,0,0,0,3.959,4.481,7.182,7.182,0,0,0,2.494.43,10.369,10.369,0,0,0,4.066-.905,14.461,14.461,0,0,0,2.714-1.537c.442-.315.846-.647,1.238-.968.346-.284.673-.552,1-.793a15.355,15.355,0,0,1,4.276-2.184,16.86,16.86,0,0,1,5.12-.841c.159,0,.317,0,.473.008l.018.066c2.066,7.873-.632,16-3.241,23.864q-.45,1.354-.885,2.688l-.087.266a9.851,9.851,0,0,0-.683,3.89,7.359,7.359,0,0,0,1.76,4.116,17.157,17.157,0,0,0,6.441,4.482,50.026,50.026,0,0,0,15.6,3.836,48.347,48.347,0,0,0,4.864.282c.829,0,1.632-.032,2.386-.095a4.237,4.237,0,0,0,3.714-2.977c2.549-1.306,2.748-5.048,2.83-6.6a42.16,42.16,0,0,0-.535-8.186c-.363-2.51-.875-5.18-1.567-8.163-.64-2.764-1.344-5.476-2.09-8.059-.176-.606-.365-1.217-.548-1.808a29.113,29.113,0,0,1-1.339-5.541c-.018-.177-.028-.343-.034-.5.071,0,.14-.007.206-.008h.093a15.519,15.519,0,0,1,2.058.2c.216.031.432.061.647.088a31.964,31.964,0,0,0,4.006.308,14.837,14.837,0,0,0,3.416-.364,7.973,7.973,0,0,0,5.36-4.069,8.293,8.293,0,0,0,2.511-3.363,18.145,18.145,0,0,0,1.224-6.705A14.186,14.186,0,0,0,4834.661,3179.665Z"/>
        <g id="Group_5712" data-name="Group 5712" clip-path="url(#clip-path-5)">
          <g id="Group_5711" data-name="Group 5711">
            <g id="Group_5710" data-name="Group 5710">
              <path id="Path_14309" data-name="Path 14309" d="M4830.729,3178.194s.1.068.39.255.4.239.4.239S4830.74,3178.194,4830.729,3178.194Z" fill="url(#linear-gradient-13)"/>
              <path id="Path_14310" data-name="Path 14310" d="M4833.8,3193.769a16.8,16.8,0,0,0,1.091-6.084,12.676,12.676,0,0,0-1.654-7.108,6.7,6.7,0,0,0-2.12-2.128,7.2,7.2,0,0,0-3.91-1.029,10.821,10.821,0,0,0-1.183.067c-1.159.129-2.283.465-3.427.679a63.725,63.725,0,0,1-10.705.978q-.837.014-1.673.013c-3.431,0-6.862-.166-10.284-.409-4.024-.287-8.025-.774-12.042-1.135-.707-.064-1.42-.1-2.133-.1a17.728,17.728,0,0,0-8.931,2.207,16.308,16.308,0,0,0-6.868,8.3,22.64,22.64,0,0,0-1.376,5.579,14.13,14.13,0,0,0,.257,5.759,5,5,0,0,0,2.929,3.39,5.472,5.472,0,0,0,1.908.326,8.8,8.8,0,0,0,3.4-.769,12.787,12.787,0,0,0,2.4-1.358c.771-.551,1.466-1.2,2.234-1.754a17.133,17.133,0,0,1,4.746-2.424,18.527,18.527,0,0,1,5.641-.923,13.19,13.19,0,0,1,4.7.81,6.9,6.9,0,0,1,1.423.7c-1.332-.071-2.663-.14-4-.171,2.44,9.3-1.317,18.747-4.153,27.5a9.145,9.145,0,0,0-.692,3.508,5.772,5.772,0,0,0,1.384,3.175,15.568,15.568,0,0,0,5.822,4.008,49.131,49.131,0,0,0,15.076,3.7c1.551.156,3.126.273,4.695.273.751,0,1.5-.027,2.245-.089,2.512-.21,2.782-3.5,2.885-5.452a40.362,40.362,0,0,0-.521-7.855c-.389-2.7-.925-5.37-1.54-8.023q-.928-4.011-2.068-7.972a44.466,44.466,0,0,1-1.944-7.645,4.961,4.961,0,0,1,.708-3.542,3.974,3.974,0,0,1,3.233-1.368h.117a23.065,23.065,0,0,1,2.92.3,30.019,30.019,0,0,0,3.791.294,13.215,13.215,0,0,0,3.03-.32A6.372,6.372,0,0,0,4833.8,3193.769Z" fill="url(#linear-gradient-14)"/>
            </g>
            <path id="Path_14311" data-name="Path 14311" d="M4812.293,3236.6c4.394.241,7.082.271,7.012-5.029a25.858,25.858,0,0,0-.339-3.885l.164-.042a21.752,21.752,0,0,1,1.018,3.865c.574,2.894-.439,6.766-4,6.757a6.026,6.026,0,0,1-3.925-1.512l.07-.154Z" fill="#fff"/>
            <path id="Path_14312" data-name="Path 14312" d="M4822.546,3180.571c3.965-3.265,9.335-2.518,10.66,2.917a13.5,13.5,0,0,1,.059,5.788c-.316-1.506-.567-2.981-.98-4.375-1.446-5.344-4.855-5.848-9.739-4.33Z" fill="#fff"/>
          </g>
        </g>
      </g>
      <g id="Group_5717" data-name="Group 5717">
        <path id="Path_14314" data-name="Path 14314" d="M4465.169,3179.665a8.591,8.591,0,0,0-1.993-2.2,4.326,4.326,0,0,0-.645-.46,3.907,3.907,0,0,0-.8-.428,9.194,9.194,0,0,0-4.017-.847,12.6,12.6,0,0,0-1.368.077,20.7,20.7,0,0,0-2.356.441c-.415.094-.807.184-1.2.257a62.145,62.145,0,0,1-10.423.949q-.822.013-1.645.013c-3.044,0-6.273-.129-10.163-.405-2.45-.174-4.945-.429-7.358-.676-1.523-.155-3.1-.316-4.653-.456-.767-.069-1.536-.1-2.285-.1a19.243,19.243,0,0,0-9.778,2.434,17.155,17.155,0,0,0-5.461,5.123,19.009,19.009,0,0,0-4.247,6.566,24.128,24.128,0,0,0-1.48,6,15.724,15.724,0,0,0,.32,6.448,6.623,6.623,0,0,0,3.96,4.481,7.177,7.177,0,0,0,2.493.43,10.373,10.373,0,0,0,4.067-.905,14.5,14.5,0,0,0,2.713-1.537c.442-.315.847-.647,1.238-.968.346-.284.673-.552,1-.793a15.345,15.345,0,0,1,4.276-2.184,16.865,16.865,0,0,1,5.12-.841c.159,0,.317,0,.474.008l.017.066c2.067,7.873-.632,16-3.241,23.864q-.45,1.354-.885,2.688l-.087.266a9.885,9.885,0,0,0-.683,3.89,7.374,7.374,0,0,0,1.76,4.116,17.166,17.166,0,0,0,6.441,4.482,50.043,50.043,0,0,0,15.6,3.836,48.323,48.323,0,0,0,4.864.282c.829,0,1.631-.032,2.385-.095a4.236,4.236,0,0,0,3.714-2.977c2.549-1.306,2.749-5.048,2.831-6.6a42.194,42.194,0,0,0-.536-8.186c-.362-2.51-.875-5.18-1.566-8.163-.641-2.764-1.344-5.476-2.091-8.059-.175-.606-.365-1.217-.548-1.808a29.072,29.072,0,0,1-1.338-5.541c-.019-.177-.028-.343-.034-.5.07,0,.139-.007.206-.008h.092a15.5,15.5,0,0,1,2.058.2c.217.031.433.061.647.088a31.971,31.971,0,0,0,4.006.308,14.834,14.834,0,0,0,3.416-.364,7.973,7.973,0,0,0,5.361-4.069,8.307,8.307,0,0,0,2.511-3.363,18.147,18.147,0,0,0,1.223-6.705A14.182,14.182,0,0,0,4465.169,3179.665Z"/>
        <g id="Group_5716" data-name="Group 5716" clip-path="url(#clip-path-6)">
          <g id="Group_5715" data-name="Group 5715">
            <g id="Group_5714" data-name="Group 5714">
              <path id="Path_14315" data-name="Path 14315" d="M4461.236,3178.194s.1.068.39.255.4.239.4.239S4461.247,3178.194,4461.236,3178.194Z" fill="url(#linear-gradient-15)"/>
              <path id="Path_14316" data-name="Path 14316" d="M4464.309,3193.769a16.808,16.808,0,0,0,1.092-6.084,12.668,12.668,0,0,0-1.655-7.108,6.69,6.69,0,0,0-2.12-2.128,7.194,7.194,0,0,0-3.91-1.029,10.788,10.788,0,0,0-1.182.067c-1.16.129-2.283.465-3.427.679a63.727,63.727,0,0,1-10.706.978q-.835.014-1.673.013c-3.431,0-6.861-.166-10.283-.409-4.025-.287-8.026-.774-12.043-1.135-.707-.064-1.42-.1-2.133-.1a17.732,17.732,0,0,0-8.931,2.207,16.311,16.311,0,0,0-6.868,8.3,22.6,22.6,0,0,0-1.376,5.579,14.1,14.1,0,0,0,.258,5.759,5,5,0,0,0,2.929,3.39,5.463,5.463,0,0,0,1.907.326,8.8,8.8,0,0,0,3.4-.769,12.757,12.757,0,0,0,2.4-1.358c.772-.551,1.467-1.2,2.234-1.754a17.115,17.115,0,0,1,4.747-2.424,18.519,18.519,0,0,1,5.64-.923,13.187,13.187,0,0,1,4.7.81,6.862,6.862,0,0,1,1.423.7c-1.332-.071-2.663-.14-4-.171,2.441,9.3-1.317,18.747-4.153,27.5a9.153,9.153,0,0,0-.692,3.508,5.782,5.782,0,0,0,1.384,3.175,15.569,15.569,0,0,0,5.823,4.008,49.118,49.118,0,0,0,15.075,3.7c1.551.156,3.126.273,4.7.273.751,0,1.5-.027,2.245-.089,2.512-.21,2.782-3.5,2.885-5.452a40.323,40.323,0,0,0-.52-7.855c-.39-2.7-.925-5.37-1.54-8.023q-.93-4.011-2.069-7.972a44.648,44.648,0,0,1-1.944-7.645,4.968,4.968,0,0,1,.708-3.542,3.976,3.976,0,0,1,3.234-1.368h.117a23.084,23.084,0,0,1,2.92.3,29.991,29.991,0,0,0,3.791.294,13.234,13.234,0,0,0,3.03-.32A6.372,6.372,0,0,0,4464.309,3193.769Z" fill="url(#linear-gradient-14)"/>
            </g>
            <path id="Path_14317" data-name="Path 14317" d="M4442.8,3236.6c4.4.241,7.082.271,7.013-5.029a25.669,25.669,0,0,0-.34-3.885l.164-.042a21.712,21.712,0,0,1,1.019,3.865c.573,2.894-.44,6.766-4,6.757a6.026,6.026,0,0,1-3.924-1.512l.069-.154Z" fill="#fff"/>
            <path id="Path_14318" data-name="Path 14318" d="M4453.053,3180.571c3.966-3.265,9.335-2.518,10.66,2.917a13.5,13.5,0,0,1,.06,5.788c-.316-1.506-.568-2.981-.98-4.375-1.447-5.344-4.856-5.848-9.74-4.33Z" fill="#fff"/>
          </g>
        </g>
      </g>
      <g id="Group_5721" data-name="Group 5721">
        <path id="Path_14320" data-name="Path 14320" d="M4647.861,3183.491a7.454,7.454,0,0,0-.716-.976,8.2,8.2,0,0,0-.734-.847,17.446,17.446,0,0,0-12.779-5.374h-.184a13.551,13.551,0,0,0-4.309.682,18.17,18.17,0,0,0-3.672,1.783,32.834,32.834,0,0,0-6.03,4.9,46.031,46.031,0,0,0-3.756,4.291,48.545,48.545,0,0,0-6.892,10.031,37.676,37.676,0,0,0-4.61,15.144,24.781,24.781,0,0,0,4.193,15.244,34.5,34.5,0,0,0,11.239,10.412c3.638,2.147,9.228,4.723,15.2,4.8l.253,0c3.047,0,5.29-.726,6.858-2.22a7.252,7.252,0,0,0,1.462-1.99,6.771,6.771,0,0,0,.651-.545c1.907-1.816,2.765-4.769,2.354-8.1-.189-1.529-.93-5.3-3.733-7.247a4.407,4.407,0,0,0-2.5-.836h-.082a5.961,5.961,0,0,0-1.9.432c-.176.063-.343.123-.487.164-.612.177-1.251.324-1.907.446a22.035,22.035,0,0,0,2.2-1.639,25.052,25.052,0,0,0,3.941-4.281,29.335,29.335,0,0,0,5.161-7.7,40.129,40.129,0,0,0,3.665-12.871C4651.141,3193.353,4650.923,3187.98,4647.861,3183.491Zm-28.245,30.646c-.012-.122-.023-.247-.03-.372a10.452,10.452,0,0,1,.653-4.271,10.3,10.3,0,0,1,.7-1.495,4.494,4.494,0,0,1,2.651-1.19c.068,0,.137,0,.2.009a1.892,1.892,0,0,1,1.588,2.166h0V3209h0a4.846,4.846,0,0,1-.756,2.184A13.832,13.832,0,0,1,4619.616,3214.137Z"/>
        <g id="Group_5720" data-name="Group 5720" clip-path="url(#clip-path-7)">
          <g id="Group_5719" data-name="Group 5719">
            <g id="Group_5718" data-name="Group 5718">
              <path id="Path_14321" data-name="Path 14321" d="M4645.321,3182.943s.132.169.5.63.506.628.507.628Z" fill="url(#linear-gradient-17)"/>
              <path id="Path_14322" data-name="Path 14322" d="M4645.819,3183.573a15.6,15.6,0,0,0-12.187-5.589h-.167a11.962,11.962,0,0,0-3.779.591,16.675,16.675,0,0,0-3.332,1.622,31.342,31.342,0,0,0-5.718,4.65,46.442,46.442,0,0,0-8.234,11.373,36.35,36.35,0,0,0-4.424,14.465,23.147,23.147,0,0,0,3.915,14.211,32.7,32.7,0,0,0,10.69,9.89c4.284,2.529,9.333,4.5,14.364,4.562l.233,0c2,0,4.2-.329,5.692-1.753,1.771-1.687,2.129-4.351,1.842-6.672-.266-2.159-1.153-4.767-3.02-6.066a2.728,2.728,0,0,0-1.537-.534h-.046a8,8,0,0,0-1.955.53,22.7,22.7,0,0,1-3.7.732,27.376,27.376,0,0,1-3.109.18,25.143,25.143,0,0,1-4.219-.351,16.222,16.222,0,0,1-5.71-1.907,7.489,7.489,0,0,1-1.96-1.681c.706.235,1.385.558,2.081.822a7.88,7.88,0,0,0,2.109.381c.6.053,1.212.079,1.82.079a21.7,21.7,0,0,0,3.191-.237,20.608,20.608,0,0,0,10.336-4.657,26.293,26.293,0,0,0,6.558-8.88,38.4,38.4,0,0,0,3.512-12.322C4649.546,3192.341,4648.841,3187.332,4645.819,3183.573Zm-16.65,23.2s0-.057.012-.213a8.626,8.626,0,0,1-2.657,5.119,15.472,15.472,0,0,1-6.4,4.073,9.213,9.213,0,0,1-2.86.591,4.264,4.264,0,0,1-.659-.049,8.825,8.825,0,0,0,1.4-.57c.192-.122.149-.069.1-.3-.036-.17-.069-.341-.1-.514-.054-.342-.091-.688-.113-1.034a12.115,12.115,0,0,1,.757-4.969,11.246,11.246,0,0,1,2.912-4.39,6.447,6.447,0,0,1,4.134-1.928c.118,0,.237.005.356.016a3.557,3.557,0,0,1,3.123,3.957c.01-.153.014-.209.014-.209Z" fill="url(#linear-gradient-9)"/>
            </g>
            <path id="Path_14323" data-name="Path 14323" d="M4634.093,3180.669a9.521,9.521,0,0,1,12.233,10.48,25.41,25.41,0,0,0-1.694-4.108c-2.042-3.987-6.26-5.756-10.539-6.372Z" fill="#fff"/>
            <path id="Path_14324" data-name="Path 14324" d="M4633.406,3227.654c.919-.257,1.723-.475,2.51-.757a12.326,12.326,0,0,1,3.961-1.067,3.384,3.384,0,0,1,3.106,2.979c-1.252-.89-2.169-1.7-3.6-1.281-.144.027-.432.1-.572.145-1.635.506-3.778.879-5.409-.019Z" fill="#fff"/>
          </g>
        </g>
      </g>
      <g id="Group_5725" data-name="Group 5725">
        <path id="Path_14326" data-name="Path 14326" d="M4796.6,3212.467a9.52,9.52,0,0,0-2.922-3.611l-.016-.012-.016-.012-.021-.016c-.047-.038-.089-.069-.123-.095v0l-.006,0v0a7.572,7.572,0,0,0-1.158-.8,23.522,23.522,0,0,0-7.391-2.9,29.476,29.476,0,0,0-4.954-.638c-.52-.028-.99-.042-1.435-.042a15.071,15.071,0,0,0-3.434.356,12.856,12.856,0,0,0-7.6,5.617l-.028.043a16.927,16.927,0,0,0-2.084,2.492c-.358.516-.7,1.04-1.029,1.547-.4.615-.787,1.2-1.19,1.763a26.058,26.058,0,0,1,.02-5.188c.5-5.588,2.08-11.183,3.611-16.593l.2-.7c.173-.613.351-1.227.529-1.841a69.671,69.671,0,0,0,1.947-7.84l.006-.035a8.716,8.716,0,0,0,.1-3.451c-.379-1.563-1.592-2.732-3.6-3.474a15.529,15.529,0,0,0-5.379-.872,27.327,27.327,0,0,0-5.044.512,21.606,21.606,0,0,0-8.461,3.237,7.2,7.2,0,0,0-2.173,2.583,8.509,8.509,0,0,0-2.74,3.922,23.182,23.182,0,0,0-1.249,4.987,54.72,54.72,0,0,0-.463,10.119,95.9,95.9,0,0,0,2.864,20.26c1.448,5.746,3.612,12.223,8.684,16.7a20.106,20.106,0,0,0,8.3,4.351,23,23,0,0,0,5.691.742,18.64,18.64,0,0,0,4.252-.477c5.454-1.282,10.926-4.728,16.265-10.243a48.063,48.063,0,0,0,3.5-4.028,40.864,40.864,0,0,0,4.595-6.149C4796.472,3219.612,4798.145,3216,4796.6,3212.467Z"/>
        <g id="Group_5724" data-name="Group 5724" clip-path="url(#clip-path-8)">
          <g id="Group_5723" data-name="Group 5723">
            <g id="Group_5722" data-name="Group 5722">
              <path id="Path_14327" data-name="Path 14327" d="M4792.7,3210.233l-.219-.167.153.118Z" fill="url(#linear-gradient-19)"/>
              <path id="Path_14328" data-name="Path 14328" d="M4791.731,3209.5l.529.4c.073.053.145.107.217.161Z" fill="url(#linear-gradient-20)"/>
              <path id="Path_14329" data-name="Path 14329" d="M4787.438,3229.145a41,41,0,0,0,5.745-7.336c1.5-2.5,3.145-5.746,1.867-8.664a7.893,7.893,0,0,0-2.42-2.961l-.37-.279a20.854,20.854,0,0,0-7.685-3.236,28.185,28.185,0,0,0-4.675-.6c-.447-.024-.9-.04-1.344-.04a13.423,13.423,0,0,0-3.052.312,11.328,11.328,0,0,0-6.6,4.933c-.833,1.2-1.582,2.458-2.45,3.639s-1.782,2.292-2.722,3.4a40.838,40.838,0,0,1-5.295,5.448q.7-1.043,1.4-2.084.537-.8,1.071-1.6.315-.469.628-.941a2.46,2.46,0,0,0,.312-.473.686.686,0,0,0-.031-.4,24.045,24.045,0,0,1-.3-7.438c.533-5.99,2.239-11.843,3.867-17.606a90.018,90.018,0,0,0,2.436-9.5,7.529,7.529,0,0,0,.127-2.808,3.67,3.67,0,0,0-2.548-2.288,13.863,13.863,0,0,0-4.794-.767,26.094,26.094,0,0,0-4.734.483,20.12,20.12,0,0,0-7.8,2.96,6.8,6.8,0,0,0-2.2,3.2,21.824,21.824,0,0,0-1.153,4.629,53.654,53.654,0,0,0-.444,9.81,94.342,94.342,0,0,0,2.814,19.9c1.466,5.819,3.538,11.764,8.163,15.848a18.31,18.31,0,0,0,7.6,3.98,21.371,21.371,0,0,0,5.272.689,16.936,16.936,0,0,0,3.866-.432C4777.967,3237.517,4783.247,3233.474,4787.438,3229.145Z" fill="url(#linear-gradient-21)"/>
            </g>
            <path id="Path_14330" data-name="Path 14330" d="M4759.2,3179.314c2.187-.517,5.248-.514,6.863,1.4a2.6,2.6,0,0,1,.522,1.4,12.028,12.028,0,0,1-.953,5.688c-.506,1.394-1.009,2.777-1.541,4.157l-.163-.046c.265-1.455.589-2.9.87-4.341.364-1.932.857-3.765.125-5.534a3.686,3.686,0,0,0-1.655-1.145c-1.226-.538-2.637-.91-4.071-1.405l0-.169Z" fill="#fff"/>
            <path id="Path_14331" data-name="Path 14331" d="M4791.7,3211.329a7.39,7.39,0,0,1,1.46,5.445,11.393,11.393,0,0,1-.946,3.717,10.153,10.153,0,0,1-.873,1.687,32.683,32.683,0,0,1-6.019,7.042c-.381.364-.959.9-1.378,1.211-.842.643-2.017,1.662-2.89,2.246q-1.5,1.05-3,2.075l-.1-.137c1.822-1.539,3.732-3.117,5.422-4.81a17.14,17.14,0,0,0,1.267-1.28,38.762,38.762,0,0,0,3.447-4.11c.178-.276,1.039-1.616,1.194-1.863.288-.565.689-1.387.985-1.951l.326-.8a17.887,17.887,0,0,0,1.192-3.654c.04-.406.124-.863.158-1.27a8.837,8.837,0,0,0-.384-3.454l.139-.1Z" fill="#fff"/>
          </g>
        </g>
      </g>
      <g id="Group_5729" data-name="Group 5729">
        <path id="Path_14333" data-name="Path 14333" d="M4621.679,3227.373a4.311,4.311,0,0,0-1.791-2.514c-.12-.091-.252-.184-.394-.285a4.817,4.817,0,0,0-.979-.61,38.271,38.271,0,0,0-6.657-2.884c-.839-.3-1.706-.613-2.532-.938a40.357,40.357,0,0,1-4.235-1.93,18.712,18.712,0,0,0,6.026-5.56,20.975,20.975,0,0,0,2.251-2.727,22.806,22.806,0,0,0,3.613-8.224,29.092,29.092,0,0,0,.109-11.335,27.173,27.173,0,0,0-3.872-10.05,15.01,15.01,0,0,0-8.881-6.611,13.825,13.825,0,0,0-3.261-.382,17.924,17.924,0,0,0-5.645.976,22.255,22.255,0,0,0-8.989,5.49,21.85,21.85,0,0,0-2.18,2.608c-3.862,3.97-6.338,9.655-7.109,16.227-1.087.131-2.6.767-3.632,3.047a6.178,6.178,0,0,0-2.6,3.859,18.149,18.149,0,0,0-.52,5.869,41.908,41.908,0,0,0,.77,6.1,68.985,68.985,0,0,0,3.4,11.688,47.789,47.789,0,0,0,2.562,5.622,15.667,15.667,0,0,0,3.853,5.069,4.21,4.21,0,0,0,2.557,1.006,3.111,3.111,0,0,0,.421-.028,4.048,4.048,0,0,0,2.7-1.614,6.164,6.164,0,0,0,.755-1.363,4.113,4.113,0,0,0,1.358-1.172c1.3-1.758,1.416-4.042,1.508-5.876l.018-.359c.023-.424.031-.859.038-1.28,0-.272.011-.546.02-.818a10.036,10.036,0,0,1,1.217,2.418l.136.341.083.2a47.944,47.944,0,0,0,2.384,5.277c2.054,3.727,4.527,5.988,7.348,6.719a7.894,7.894,0,0,0,1.973.242,12.86,12.86,0,0,0,4.331-.861,22.614,22.614,0,0,0,5.4-2.886,20.516,20.516,0,0,0,4.354-4.074c.209-.268.428-.562.642-.878a17.657,17.657,0,0,0,1.471-1.657C4620.8,3231.8,4622.207,3229.654,4621.679,3227.373Zm-28.085-17.319a3.057,3.057,0,0,1-.561.051,4.9,4.9,0,0,1-3.486-1.747,2.124,2.124,0,0,1-.7-1.468c.038-.057.121-.16.178-.231s.122-.151.18-.227c.117-.154.227-.295.339-.439a16.059,16.059,0,0,1,1.18-1.17,3.6,3.6,0,0,1,2.142-1.091,1.373,1.373,0,0,1,.146.007c1.349.141,1.791,2.134,1.837,3.168a6.055,6.055,0,0,1-.723,2.934A2.166,2.166,0,0,1,4593.594,3210.054Z"/>
        <g id="Group_5728" data-name="Group 5728" clip-path="url(#clip-path-9)">
          <g id="Group_5727" data-name="Group 5727">
            <g id="Group_5726" data-name="Group 5726">
              <path id="Path_14334" data-name="Path 14334" d="M4617.978,3225.573s.219.157.863.615c.15.1.211.148.212.148S4617.981,3225.573,4617.978,3225.573Z" fill="url(#linear-gradient-22)"/>
              <path id="Path_14335" data-name="Path 14335" d="M4618.367,3232.183c.9-1.164,2.027-2.867,1.665-4.429a2.735,2.735,0,0,0-1.191-1.566c-3.038-2.159-6.706-3.126-10.133-4.473a41.522,41.522,0,0,1-4.809-2.22q-1.025-.564-2-1.2-.4-.263-.793-.538a3.524,3.524,0,0,0-1.033-.654,12.634,12.634,0,0,1-2.731-.766,6.6,6.6,0,0,1-1.818-1.351,11.423,11.423,0,0,0,3.988.92c.138,0,.276.007.415.007a13.06,13.06,0,0,0,4.38-.756,16.232,16.232,0,0,0,7.678-6.193,21.111,21.111,0,0,0,3.349-7.617,27.644,27.644,0,0,0,.1-10.679c-1.141-6.341-4.675-13.659-11.49-15.318a12.08,12.08,0,0,0-2.861-.334,16.293,16.293,0,0,0-5.112.889,20.751,20.751,0,0,0-8.316,5.071c-4.632,4.718-6.648,11.525-6.919,18.006-.013.314-.012,1.25-.012,1.25l1.312,2.02a15.156,15.156,0,0,0-3.92-1.92,2.65,2.65,0,0,0-.475-.045c-1.66,0-2.545,1.709-2.977,3.185a16.362,16.362,0,0,0-.454,5.318,40.3,40.3,0,0,0,.74,5.854,67.2,67.2,0,0,0,3.321,11.4,46.253,46.253,0,0,0,2.471,5.424,14.152,14.152,0,0,0,3.4,4.54,2.605,2.605,0,0,0,1.524.654,1.479,1.479,0,0,0,.2-.013,2.345,2.345,0,0,0,1.563-.944c1.072-1.448,1.1-3.6,1.2-5.321.094-1.761-.089-3.841.7-5.471a2.41,2.41,0,0,1,2.173-1.388,2.473,2.473,0,0,1,1.042.233c1.565.726,2.262,2.73,2.859,4.21a48.474,48.474,0,0,0,2.379,5.3c1.362,2.471,3.42,5.155,6.293,5.9a6.167,6.167,0,0,0,1.548.188,11.371,11.371,0,0,0,3.761-.762,20.843,20.843,0,0,0,4.989-2.674A18.83,18.83,0,0,0,4618.367,3232.183Zm-24.428-20.474a4.773,4.773,0,0,1-.906.086,6.6,6.6,0,0,1-4.753-2.319,3.426,3.426,0,0,1-1.038-3.133,3.329,3.329,0,0,1,.615-.935q.507-.664,1.03-1.316a24.665,24.665,0,0,1,2.83-3.073,5.19,5.19,0,0,1,3.259-1.512,3.164,3.164,0,0,1,.321.016c2.306.241,3.26,2.743,3.35,4.774a8.326,8.326,0,0,1-1.33,4.558A5.687,5.687,0,0,1,4593.939,3211.709Z" fill="url(#linear-gradient-23)"/>
            </g>
            <path id="Path_14336" data-name="Path 14336" d="M4616.776,3230.178a7.587,7.587,0,0,0,.92-1.352c.037-.113.029-.188,0-.2s-.022.008-.05-.048c0-.019-.038-.063-.047-.1a4.188,4.188,0,0,0-1.745-1.418c-1.02-.582-2.093-1.043-3.172-1.534l.043-.163c1.844.225,5.519.7,6.516,2.47.738,1.509-1.013,2.805-2.41,2.509l-.058-.158Z" fill="#fff"/>
            <path id="Path_14337" data-name="Path 14337" d="M4594.85,3177.771c7.906-3.352,16.93.77,17.857,9.709a24.239,24.239,0,0,0-2.973-4.717c-3.581-4.384-9.467-5.35-14.884-4.992Z" fill="#fff"/>
          </g>
        </g>
      </g>
    </g>
  </g>
</svg>
