<svg xmlns="http://www.w3.org/2000/svg" xmlns:xlink="http://www.w3.org/1999/xlink" width="112.513" height="102.091" viewBox="0 0 112.513 102.091">
  <defs>
    <linearGradient id="linear-gradient" x1="65.864" y1="-32.431" x2="66.913" y2="-31.743" gradientUnits="objectBoundingBox">
      <stop offset="0" stop-color="#00ffd5"/>
      <stop offset="1" stop-color="#01cb2d"/>
    </linearGradient>
  </defs>
  <g id="Group_6410" data-name="Group 6410" transform="translate(-292.9 -5440.444)">
    <g id="Group_6409" data-name="Group 6409">
      <g id="Group_6408" data-name="Group 6408">
        <path id="Path_15407" data-name="Path 15407" d="M302.052,5472.836c2.839,5.475,28.985,26.048,45.616,36.7l1.005.693a26.748,26.748,0,0,0-.049,8.106c-10.771-7.357-41.056-23.333-53.227-26.879,4.365,6.094,19.988,18.665,30.625,25.627,6.115,4,12.348,8.055,18.707,11.621,10.33,5.792,19.06,13.645,31.7,12.772,17.813-1.23,32.862-19.4,26.274-37.175-3.55-9.58-11.926-16-19.587-22.22-9.969-8.087-33.581-32.766-45.879-39.452,4.139,10.681,19.02,26.527,35.222,44.39a28.574,28.574,0,0,0-4.275.96l-.994-.757c-7.974-6.078-35.392-26.781-47.679-30.9,5.194,10.889,25.338,26.578,38.149,37.579a28.023,28.023,0,0,0-5.629,6.868C343.436,5495.01,315.034,5475.877,302.052,5472.836Z" stroke="#fff" stroke-miterlimit="10" stroke-width="2"/>
        <path id="Path_15408" data-name="Path 15408" d="M350.524,5513.694c.447-14.864,12.238-26.57,26.336-26.145s25.164,12.818,24.717,27.682a26.149,26.149,0,0,1-26.847,25.5C360.632,5540.31,350.076,5528.558,350.524,5513.694Z" fill="url(#linear-gradient)"/>
        <path id="Path_15409" data-name="Path 15409" d="M350.524,5513.7c.447-14.863,12.235-26.574,26.338-26.149,12.644.38,22.868,10.4,24.5,23.207a24.614,24.614,0,0,0-15.015-5.714c-14.093-.424-25.881,11.277-26.328,26.14a28.7,28.7,0,0,0,.191,4.307A26.405,26.405,0,0,1,350.524,5513.7Z" fill="#01cb2d" opacity="0.7" style="mix-blend-mode: multiply;isolation: isolate"/>
        <path id="Path_15410" data-name="Path 15410" d="M350.524,5513.7c.447-14.863,12.235-26.574,26.338-26.149s25.166,12.823,24.719,27.686a27.985,27.985,0,0,1-2.892,11.638c-.344-14.157-11.121-25.716-24.715-26.125a25.474,25.474,0,0,0-23.458,14.531C350.5,5514.758,350.508,5514.228,350.524,5513.7Z" fill="#615a00" opacity="0.3" style="mix-blend-mode: multiply;isolation: isolate"/>
        <path id="Path_15411" data-name="Path 15411" d="M302.052,5472.836c2.839,5.475,28.985,26.048,45.616,36.7l1.005.693a26.748,26.748,0,0,0-.049,8.106c-10.771-7.357-41.056-23.333-53.227-26.879,4.365,6.094,19.988,18.665,30.625,25.627,6.115,4,12.348,8.055,18.707,11.621,10.33,5.792,19.06,13.645,31.7,12.772,17.813-1.23,32.862-19.4,26.274-37.175-3.55-9.58-11.926-16-19.587-22.22-9.969-8.087-33.581-32.766-45.879-39.452,4.139,10.681,19.02,26.527,35.222,44.39a28.574,28.574,0,0,0-4.275.96l-.994-.757c-7.974-6.078-35.392-26.781-47.679-30.9,5.194,10.889,25.338,26.578,38.149,37.579a28.023,28.023,0,0,0-5.629,6.868C343.436,5495.01,315.034,5475.877,302.052,5472.836Zm78.385,65.911c1.175-15.844,10.8-29.911,18.136-37.014C407.427,5516.673,396.2,5535.3,380.437,5538.747Zm17.227-38.438c-7.792,7.522-18.5,22.939-19.078,38.763a23.682,23.682,0,0,1-10.407-.872c.914-20.244,15.787-38.252,23.634-43.829A24.025,24.025,0,0,1,397.664,5500.309Zm-31.331,37.214a24.715,24.715,0,0,1-9.2-6.751c1.609-19.309,16.059-36.353,23.166-40.949a26,26,0,0,1,9.836,3.431C382.369,5498.6,366.608,5517.844,366.333,5537.523Zm-3.486-44a26.187,26.187,0,0,1,14.868-3.932c-7.45,5.869-20.458,22.22-22.064,39.32A24.605,24.605,0,0,1,362.847,5493.524Z"/>
        <g id="Group_6405" data-name="Group 6405">
          <path id="Path_15412" data-name="Path 15412" d="M303.507,5496.435c11.066,5.144,34.509,18.67,45.551,25.476a27.085,27.085,0,0,0,4,8.662C336.361,5519.9,313.6,5504.393,303.507,5496.435Z" fill="#bbd25f"/>
          <path id="Path_15413" data-name="Path 15413" d="M303.507,5496.435c11.066,5.144,34.509,18.67,45.551,25.476a27.085,27.085,0,0,0,4,8.662C345,5518.7,307.989,5500.708,303.507,5496.435Z" fill="#bbd25f" style="mix-blend-mode: multiply;isolation: isolate"/>
        </g>
        <g id="Group_6406" data-name="Group 6406">
          <path id="Path_15414" data-name="Path 15414" d="M309.544,5478.008c9.482,4.665,30.541,18.144,41.291,25.347a27.566,27.566,0,0,0-1.625,4.23C335.121,5497.856,318.138,5484.766,309.544,5478.008Z" fill="#bbd25f"/>
          <path id="Path_15415" data-name="Path 15415" d="M336.216,5493.826c5.529,3.52,10.744,6.933,14.619,9.529a27.566,27.566,0,0,0-1.625,4.23C346.332,5505.544,347.415,5503.386,336.216,5493.826Z" fill="#bbd25f" style="mix-blend-mode: multiply;isolation: isolate"/>
        </g>
        <g id="Group_6407" data-name="Group 6407">
          <path id="Path_15416" data-name="Path 15416" d="M323.875,5459.9c9.54,6.494,31.879,22.144,41.744,29.664a28.94,28.94,0,0,0-5.589,3.081C346.963,5481.444,331.567,5467.488,323.875,5459.9Z" fill="#bbd25f"/>
          <path id="Path_15417" data-name="Path 15417" d="M365.619,5489.559a28.94,28.94,0,0,0-5.589,3.081c-4.57-3.916-14.136-12.37-14.136-12.37S356.564,5486.563,365.619,5489.559Z" fill="#bbd25f" style="mix-blend-mode: multiply;isolation: isolate"/>
        </g>
        <path id="Path_15418" data-name="Path 15418" d="M342.15,5448.208c9.037,8.028,31.941,29.788,41.472,39.544a30.7,30.7,0,0,0-7.612-.572C363.675,5473.608,349.271,5457.473,342.15,5448.208Z" fill="#bbd25f"/>
        <path id="Path_15419" data-name="Path 15419" d="M342.15,5448.208c9.037,8.028,29.026,35.259,41.472,39.544a30.7,30.7,0,0,0-7.612-.572C363.675,5473.608,349.271,5457.473,342.15,5448.208Z" fill="#bbd25f" style="mix-blend-mode: multiply;isolation: isolate"/>
      </g>
    </g>
  </g>
</svg>
