<svg xmlns="http://www.w3.org/2000/svg" xmlns:xlink="http://www.w3.org/1999/xlink" width="84.365" height="131.522" viewBox="0 0 84.365 131.522">
  <defs>
    <clipPath id="clip-path">
      <path id="Path_3346" data-name="Path 3346" d="M4277.273,905.2c-.032,0-.06,0-.088,0s-.061,0-.091,0c-30.569-49.3-7.888-113.942-6.233-113.947l5.89-.02h.11l5.892-.019C4284.408,791.212,4307.517,855.7,4277.273,905.2Z" fill="#a87c50"/>
    </clipPath>
  </defs>
  <g id="Group_1821" data-name="Group 1821" transform="translate(-915.808 -782.128)">
    <g id="ship" transform="translate(-3317.106)">
      <g id="Group_1455" data-name="Group 1455">
        <g id="Group_1451" data-name="Group 1451">
          <g id="Group_1437" data-name="Group 1437">
            <path id="Path_3341" data-name="Path 3341" d="M4275.553,913.247l-.9-1.325a109.9,109.9,0,0,1-14.241-30.807c-10.575-2.622-16.662-7.6-17.609-14.409l-.029-.2.152-4.258,6.812.274.083-2.262,6.475.334c-.151-1.27-.285-2.55-.4-3.816-9.675-1.749-21.323-5.724-22.578-14.735l-.028-.206.151-4.238,6.759.219-.022-.158.151-4.255,6.812.272.082-2.263,8.489.439c.166-2.33.386-4.691.652-7.028-8.176-2.813-12.925-7.4-13.743-13.268l-.028-.2.151-4.255,6.812.273.083-2.263,10.059.519a116.2,116.2,0,0,1,5.641-18.081c1.418-3.377,2.438-4.986,4.4-4.993l13.995-.046c1.965,0,2.993,1.6,4.433,4.965a119.242,119.242,0,0,1,6.21,19.949l11.1.573-.063,1.616,6.973.28-.194,4.34c-1.084,6.148-8.528,9.456-14.718,11.169.335,2.881.6,5.79.781,8.656l4.805.248-.063,1.614,6.973.28-.164,3.886,7.082.231-.2,4.356c-1.136,6.436-10.667,9.771-18.584,11.452-.179,2.212-.411,4.429-.691,6.6l8.24.426-.063,1.616,6.973.28-.193,4.339c-1.324,7.505-12.246,10.817-18.807,12.144a109.8,109.8,0,0,1-13.89,30.378l-1.014,1.373Z"/>
            <path id="Path_3342" data-name="Path 3342" d="M4283.747,782.878c1.743,0,2.7,1.529,4.077,4.737a119.309,119.309,0,0,1,6.253,20.161l11.01.569-.064,1.621,6.971.279-.176,3.964c-1.044,5.9-8.268,9.157-14.754,10.909.366,3.093.647,6.2.837,9.29l4.77.246-.063,1.619,6.971.28-.164,3.888,7.081.231-.177,3.977c-1.094,6.177-10.4,9.458-18.562,11.16-.192,2.438-.448,4.868-.763,7.261l8.275.428-.063,1.621,6.971.279-.177,3.964c-1.276,7.212-11.83,10.468-18.729,11.837a109.475,109.475,0,0,1-13.9,30.494l-.358.488-.531.715-2.724-.022-.785-1.162a109.557,109.557,0,0,1-14.251-30.91c-10.55-2.57-16.606-7.449-17.538-14.148l-.028-.2.14-3.816,6.813.273.082-2.257,6.541.338c-.184-1.508-.344-3.022-.479-4.532-9.921-1.757-21.332-5.687-22.554-14.469l-.029-.205.141-3.8,6.837.222c-.023-.131-.043-.263-.062-.395l-.028-.205.141-3.814,6.812.273.082-2.259,8.476.439c.177-2.558.415-5.128.711-7.679-8.218-2.759-12.97-7.255-13.778-13.062l-.028-.205.14-3.813,6.812.272L4250,805.5l9.991.517a116.232,116.232,0,0,1,5.694-18.327c1.352-3.222,2.3-4.757,4.053-4.763l14-.046h.009m0-.75h-.015l-13.993.046c-2.366.008-3.5,2.269-4.743,5.223a115.985,115.985,0,0,0-5.589,17.835l-9.365-.484-.76-.039-.028.761-.056,1.507-6.06-.243-.752-.03-.027.752-.141,3.813,0,.066.009.066.028.2c.828,5.952,5.564,10.6,13.708,13.472-.238,2.119-.437,4.259-.594,6.379l-7.741-.4-.76-.039-.028.761-.055,1.507-6.06-.243-.752-.03-.028.752-.135,3.664-5.979-.2-.746-.024-.028.746-.14,3.8,0,.065.009.066.028.2c1.013,7.28,8.824,12.462,22.6,15,.1,1.033.2,2.071.324,3.1l-5.652-.292-.76-.039-.028.761-.055,1.505-6.06-.244-.752-.03-.028.752-.141,3.817,0,.066.009.065.029.2c.963,6.925,7.074,11.992,17.68,14.668a110.227,110.227,0,0,0,14.229,30.7l.785,1.163.221.327.4,0,2.723.022.382,0,.227-.307.531-.715.36-.491a110.219,110.219,0,0,0,13.9-30.293c8.008-1.644,17.592-5.114,18.873-12.352l.008-.048,0-.049.177-3.963.034-.753-.753-.03-6.223-.25.035-.871.029-.741-.74-.038-7.467-.386c.246-1.958.454-3.949.619-5.937,11.408-2.459,17.664-6.377,18.6-11.646l.009-.049,0-.049.177-3.977.034-.758-.758-.025-6.324-.206.131-3.132.032-.751-.751-.03-6.222-.249.034-.87.029-.74-.74-.039-4.1-.212c-.175-2.662-.418-5.354-.724-8.023,8.73-2.473,13.8-6.383,14.673-11.33l.009-.049,0-.049.177-3.964.033-.752-.753-.03-6.222-.249.034-.872.029-.74-.739-.039-10.445-.539a119.263,119.263,0,0,0-6.167-19.737c-1.259-2.942-2.41-5.192-4.766-5.192Z" fill="#fff"/>
          </g>
          <g id="Group_1450" data-name="Group 1450">
            <g id="Group_1442" data-name="Group 1442">
              <g id="Group_1438" data-name="Group 1438">
                <path id="Path_3343" data-name="Path 3343" d="M4277.306,909.831c-.039,0-.071,0-.106,0s-.071,0-.106,0c-35.974-53.573-9.249-123.832-7.3-123.838l6.931-.023h.132l6.932-.023C4285.735,785.941,4312.922,856.022,4277.306,909.831Z" fill="#9a6e49"/>
                <path id="Path_3344" data-name="Path 3344" d="M4286.288,788.523c7.913,18.484,21.85,76.42-8.279,121.934l-.3.4-1.058-.009-.261-.385c-30.429-45.315-16.873-103.344-9.083-121.879,1.407-3.349,1.934-3.616,2.479-3.617l14-.047C4284.327,784.919,4284.858,785.182,4286.288,788.523ZM4277.195,908.3c33.146-51.27,9.5-116.875,6.3-121.326l-13.4.045C4266.919,791.492,4243.714,857.26,4277.195,908.3Z" fill="#fc3"/>
              </g>
              <g id="Group_1441" data-name="Group 1441">
                <path id="Path_3345" data-name="Path 3345" d="M4277.273,905.2c-.032,0-.06,0-.088,0s-.061,0-.091,0c-30.569-49.3-7.888-113.942-6.233-113.947l5.89-.02h.11l5.892-.019C4284.408,791.212,4307.517,855.7,4277.273,905.2Z" fill="#a87c50"/>
                <g id="Group_1440" data-name="Group 1440" clip-path="url(#clip-path)">
                  <g id="Group_1439" data-name="Group 1439">
                    <line id="Line_85" data-name="Line 85" x1="0.492" y1="148.972" transform="translate(4258.627 767.259)" fill="none" stroke="#9a6e49" stroke-miterlimit="10" stroke-width="1"/>
                    <line id="Line_86" data-name="Line 86" x1="0.492" y1="148.972" transform="translate(4263.152 767.244)" fill="none" stroke="#9a6e49" stroke-miterlimit="10" stroke-width="1"/>
                    <line id="Line_87" data-name="Line 87" x1="0.492" y1="148.972" transform="translate(4267.677 767.229)" fill="none" stroke="#9a6e49" stroke-miterlimit="10" stroke-width="1"/>
                    <line id="Line_88" data-name="Line 88" x1="0.492" y1="148.972" transform="translate(4272.203 767.214)" fill="none" stroke="#9a6e49" stroke-miterlimit="10" stroke-width="1"/>
                    <line id="Line_89" data-name="Line 89" x1="0.492" y1="148.972" transform="translate(4276.728 767.199)" fill="none" stroke="#9a6e49" stroke-miterlimit="10" stroke-width="1"/>
                    <line id="Line_90" data-name="Line 90" x1="0.492" y1="148.972" transform="translate(4281.253 767.184)" fill="none" stroke="#9a6e49" stroke-miterlimit="10" stroke-width="1"/>
                    <line id="Line_91" data-name="Line 91" x1="0.492" y1="148.972" transform="translate(4285.779 767.169)" fill="none" stroke="#9a6e49" stroke-miterlimit="10" stroke-width="1"/>
                    <line id="Line_92" data-name="Line 92" x1="0.492" y1="148.972" transform="translate(4290.304 767.154)" fill="none" stroke="#9a6e49" stroke-miterlimit="10" stroke-width="1"/>
                    <line id="Line_93" data-name="Line 93" x1="0.492" y1="148.972" transform="translate(4294.83 767.139)" fill="none" stroke="#9a6e49" stroke-miterlimit="10" stroke-width="1"/>
                  </g>
                </g>
              </g>
            </g>
            <g id="Group_1443" data-name="Group 1443">
              <rect id="Rectangle_105" data-name="Rectangle 105" width="1.591" height="65.415" transform="translate(4244.953 866.335) rotate(-87.702)" fill="#c3996c"/>
              <path id="Path_3347" data-name="Path 3347" d="M4244.956,866.337c16.21.3,65.361,2.619,65.361,2.619C4307.721,883.626,4247.732,886.29,4244.956,866.337Z" fill="#4d4d4d"/>
              <path id="Path_3348" data-name="Path 3348" d="M4279.616,865.487a2.226,2.226,0,0,0-2.954-1.568,2.8,2.8,0,0,0-1.353,3.421,2.22,2.22,0,0,0,2.953,1.567A2.793,2.793,0,0,0,4279.616,865.487Z" fill="#a87c50"/>
            </g>
            <g id="Group_1444" data-name="Group 1444">
              <path id="Path_3349" data-name="Path 3349" d="M4303.471,865.447l-51.562-2.666-.059,1.59,51.559,2.664Z" fill="#c3996c"/>
              <path id="Path_3350" data-name="Path 3350" d="M4251.85,864.371c16.21.3,51.559,2.664,51.559,2.664C4300.811,881.706,4254.626,884.324,4251.85,864.371Z" fill="#666"/>
              <path id="Path_3351" data-name="Path 3351" d="M4278.78,863.549a2.227,2.227,0,0,0-2.955-1.571,2.8,2.8,0,0,0-1.353,3.423,2.221,2.221,0,0,0,2.953,1.566A2.793,2.793,0,0,0,4278.78,863.549Z" fill="#c3996c"/>
            </g>
            <g id="Group_1445" data-name="Group 1445">
              <rect id="Rectangle_106" data-name="Rectangle 106" width="1.59" height="65.415" transform="translate(4244.771 811.183) rotate(-87.704)" fill="#c3996c"/>
              <path id="Path_3352" data-name="Path 3352" d="M4244.773,811.184c16.21.3,65.361,2.619,65.361,2.619C4307.538,828.473,4247.549,831.137,4244.773,811.184Z" fill="#4d4d4d"/>
              <path id="Path_3353" data-name="Path 3353" d="M4279.434,810.336a2.224,2.224,0,0,0-2.955-1.568,2.8,2.8,0,0,0-1.352,3.421,2.221,2.221,0,0,0,2.953,1.566A2.793,2.793,0,0,0,4279.434,810.336Z" fill="#a87c50"/>
            </g>
            <g id="Group_1446" data-name="Group 1446">
              <path id="Path_3354" data-name="Path 3354" d="M4303.289,810.294l-51.562-2.666-.059,1.59,51.559,2.664Z" fill="#c3996c"/>
              <path id="Path_3355" data-name="Path 3355" d="M4251.668,809.218c16.21.3,51.559,2.664,51.559,2.664C4300.629,826.553,4254.444,829.171,4251.668,809.218Z" fill="#666"/>
            </g>
            <g id="Group_1447" data-name="Group 1447">
              <path id="Path_3356" data-name="Path 3356" d="M4314.7,842.654l-79.168-2.575-.059,1.59,79.165,2.573Z" fill="#c3996c"/>
              <path id="Path_3357" data-name="Path 3357" d="M4235.47,841.669c16.209.3,79.165,2.573,79.165,2.573C4312.037,858.913,4238.246,861.624,4235.47,841.669Z" fill="#333"/>
              <path id="Path_3358" data-name="Path 3358" d="M4277.03,840.8a2.223,2.223,0,0,0-2.953-1.568,2.793,2.793,0,0,0-1.352,3.42,2.223,2.223,0,0,0,2.953,1.568A2.793,2.793,0,0,0,4277.03,840.8Z" fill="#a87c50"/>
            </g>
            <g id="Group_1448" data-name="Group 1448">
              <rect id="Rectangle_107" data-name="Rectangle 107" width="1.59" height="65.415" transform="translate(4242.355 837.49) rotate(-87.704)" fill="#c3996c"/>
              <path id="Path_3359" data-name="Path 3359" d="M4242.358,837.491c16.21.3,65.361,2.619,65.361,2.619C4305.123,854.781,4245.134,857.446,4242.358,837.491Z" fill="#4d4d4d"/>
              <path id="Path_3360" data-name="Path 3360" d="M4277.017,836.643a2.223,2.223,0,0,0-2.953-1.568,2.8,2.8,0,0,0-1.353,3.421,2.223,2.223,0,0,0,2.953,1.568A2.8,2.8,0,0,0,4277.017,836.643Z" fill="#a87c50"/>
            </g>
            <path id="Path_3361" data-name="Path 3361" d="M4278.6,808.4a2.224,2.224,0,0,0-2.955-1.568,2.8,2.8,0,0,0-1.353,3.42,2.223,2.223,0,0,0,2.953,1.568A2.8,2.8,0,0,0,4278.6,808.4Z" fill="#c3996c"/>
            <g id="Group_1449" data-name="Group 1449">
              <path id="Path_3362" data-name="Path 3362" d="M4300.874,836.6l-51.562-2.668-.059,1.592,51.559,2.662Z" fill="#c3996c"/>
              <path id="Path_3363" data-name="Path 3363" d="M4249.252,835.527c16.212.3,51.559,2.662,51.559,2.662C4298.213,852.862,4252.028,855.48,4249.252,835.527Z" fill="#666"/>
            </g>
            <path id="Path_3364" data-name="Path 3364" d="M4278.684,834.694a2.223,2.223,0,0,0-2.953-1.567,2.794,2.794,0,0,0-1.353,3.42,2.222,2.222,0,0,0,2.953,1.568A2.8,2.8,0,0,0,4278.684,834.694Z" fill="#c3996c"/>
          </g>
        </g>
      </g>
    </g>
  </g>
</svg>
