<svg xmlns="http://www.w3.org/2000/svg" xmlns:xlink="http://www.w3.org/1999/xlink" width="161.651" height="120.307" viewBox="0 0 161.651 120.307">
  <defs>
    <clipPath id="clip-path">
      <path id="Path_2833" data-name="Path 2833" d="M6222.376,2098.951q-.61,1.248-1.284,2.445-.212.381-.433.761-.33.565-.677,1.121a47.54,47.54,0,0,1-10.053,11.512q-1.043.865-2.128,1.663-.738.546-1.5,1.06v0a48.118,48.118,0,0,1-25.283,8.264h0a47.509,47.509,0,0,1-11.77-1.062h-.006a47.894,47.894,0,0,1-10.848-3.775q-1.347-.657-2.634-1.391l0,0s-.007,0-.008,0l-.006,0h0l0,0h0a47.505,47.505,0,0,1-16.122-14.993l0,0a48.1,48.1,0,0,1-6.9-16.088c-.339-1.5-.6-3.029-.8-4.562q-.2-1.6-.3-3.22c-.007-.116-.013-.234-.017-.351q-.06-1.17-.061-2.346a47.474,47.474,0,0,1,2.846-16.249c.142-.4.288-.789.443-1.18q.4-1.016.845-2.022c.082-.189.169-.376.256-.566.153-.334.313-.666.475-1a48.654,48.654,0,0,1,2.368-4.286c.2-.319.4-.636.6-.95a47.53,47.53,0,0,1,14.653-14.338c.328-.207.658-.408.994-.6.54-.323,1.089-.631,1.643-.93q1.221-.658,2.477-1.242c.317-.152.637-.3.96-.44q2.031-.891,4.134-1.594a48.121,48.121,0,0,1,8.756-2.036,47.375,47.375,0,0,1,8.829-.37q1.739.084,3.477.3h.016a47.681,47.681,0,0,1,15.071,4.495,48.445,48.445,0,0,1,6.4,3.759c1.073.749,2.112,1.537,3.107,2.363a46.848,46.848,0,0,1,4.885,4.657c.312.343.624.692.925,1.043.161.188.32.379.477.57.129.152.255.308.38.464.484.593.947,1.2,1.4,1.81h0q1.2,1.633,2.247,3.351.924,1.515,1.73,3.1,1.047,2.038,1.9,4.173.783,1.959,1.387,3.982c.12.4.232.8.341,1.2v0a47.633,47.633,0,0,1,1.025,4.688c.065.385.126.772.18,1.162.025.165.046.33.067.5.043.32.081.643.116.963a47.633,47.633,0,0,1-.019,10.644c-.074.632-.157,1.263-.257,1.9q-.283,1.836-.716,3.661c-.2.844-.423,1.687-.675,2.526q-.51,1.741-1.168,3.456Q6223.347,2096.964,6222.376,2098.951Z" fill="#f7aa33"/>
    </clipPath>
    <clipPath id="clip-path-2">
      <rect id="Rectangle_93" data-name="Rectangle 93" width="36.451" height="162.099" transform="translate(6092.149 2073.67) rotate(-63.968)" fill="none"/>
    </clipPath>
  </defs>
  <g id="Group_1279" data-name="Group 1279" transform="translate(-6092.149 -2024.503)">
    <g id="Group_1277" data-name="Group 1277">
      <g id="Group_1266" data-name="Group 1266">
        <path id="Path_2809" data-name="Path 2809" d="M6179.344,2130.767a52.681,52.681,0,0,1-49.874-35.656,52.877,52.877,0,0,1-2.347-24.67q-3.04-2.337-5.7-4.649c-2.108-1.833-3.934-3.57-5.582-5.311-.829-.884-1.915-2.073-2.98-3.449a30.6,30.6,0,0,1-2.025-2.946,19.422,19.422,0,0,1-1.039-1.978,13.678,13.678,0,0,1-.813-2.28,9.681,9.681,0,0,1-.322-2.766,7.654,7.654,0,0,1,.757-3.1c.084-.16.135-.249.166-.3l.138-.253c.211-.328.383-.581.558-.808.226-.261.375-.433.53-.6.209-.2.379-.36.551-.514a9.843,9.843,0,0,1,2.4-1.468,13.52,13.52,0,0,1,2.321-.768,18.851,18.851,0,0,1,2.187-.393,30.651,30.651,0,0,1,3.713-.215c1.685,0,3.237.121,4.4.227,2.4.234,4.893.606,7.627,1.139,2.293.449,4.6.974,7.051,1.606a53.107,53.107,0,0,1,38.367-16.479,52.877,52.877,0,0,1,49.875,35.654,52.88,52.88,0,0,1,2.3,25.021l.1.075a92.736,92.736,0,0,1,12.06,10.836,37.048,37.048,0,0,1,3.879,5.037,16.416,16.416,0,0,1,2.15,4.885,8.858,8.858,0,0,1,.053,4.137c-.074.259-.13.451-.181.617s-.1.281-.146.388c0,0-.167.39-.176.414l-.3.558a2.4,2.4,0,0,1-.144.237c-.114.175-.257.384-.429.613a8.881,8.881,0,0,1-3.327,2.531,16.252,16.252,0,0,1-5.151,1.3,32.46,32.46,0,0,1-3.25.155c-.994,0-2.043-.039-3.117-.118a92.917,92.917,0,0,1-15.961-2.847l-.238-.063a53.083,53.083,0,0,1-38.083,16.193Zm45.873-26.644c1.036.3,2.018.564,2.928.792a62.26,62.26,0,0,0,6.152,1.233c.3.045.616.1.939.157l.1.017a14.486,14.486,0,0,0,2.321.292l.133,0a.941.941,0,0,0,.339-.8,3.583,3.583,0,0,0-.728-1.252c-.208-.27-.429-.535-.633-.778s-.381-.454-.537-.653a58.9,58.9,0,0,0-4.272-4.832c-.843-.869-1.782-1.8-2.805-2.77a52.953,52.953,0,0,1-2.337,5.59C6226.353,2102.071,6225.826,2103.06,6225.217,2104.123Zm-100.225-54.766c-.831,0-1.626.026-2.364.077a.767.767,0,0,0-.507.234,9.073,9.073,0,0,0,1.906,1.949c.277.237.529.453.739.65,1.433,1.332,3.1,2.731,4.955,4.158.362.279.738.558,1.117.839.388-.919.75-1.719,1.119-2.475a53.107,53.107,0,0,1,2.588-4.664c-.748-.1-1.484-.191-2.2-.271-2.634-.3-4.747-.458-6.653-.491C6125.455,2049.359,6125.223,2049.357,6124.992,2049.357Z"/>
        <path id="Path_2810" data-name="Path 2810" d="M6179.432,2025.782a52.226,52.226,0,0,1,51.484,60.315c.131.1.267.2.4.3a92.084,92.084,0,0,1,11.977,10.76,36.577,36.577,0,0,1,3.813,4.947,15.812,15.812,0,0,1,2.068,4.69,8.217,8.217,0,0,1,.056,3.838c-.067.234-.122.422-.172.585-.042.13-.086.236-.126.33l-.052.129c-.086.193-.128.293-.129.3l-.264.485a2.221,2.221,0,0,1-.116.19c-.11.17-.246.366-.408.583a8.2,8.2,0,0,1-3.077,2.331,15.685,15.685,0,0,1-4.959,1.249c-1,.1-2.059.15-3.179.15-.981,0-2.007-.038-3.072-.116a92.23,92.23,0,0,1-15.849-2.829c-.2-.05-.4-.107-.6-.158a52.175,52.175,0,0,1-89.415-43.7c-.048-.038-.1-.075-.147-.112-2.04-1.563-4-3.158-5.819-4.741-2.1-1.828-3.912-3.551-5.539-5.268-.93-.993-1.946-2.12-2.937-3.4a29.912,29.912,0,0,1-1.983-2.884,18.837,18.837,0,0,1-1-1.91,13.051,13.051,0,0,1-.778-2.18,9.11,9.11,0,0,1-.3-2.582,7.021,7.021,0,0,1,.693-2.838,1.882,1.882,0,0,1,.141-.252l.15-.275c.176-.272.339-.511.5-.726.187-.216.334-.385.487-.545.183-.176.347-.328.514-.477a9.132,9.132,0,0,1,2.231-1.359,13.013,13.013,0,0,1,2.208-.732,18.492,18.492,0,0,1,2.12-.38,30,30,0,0,1,3.634-.211c1.566,0,3.029.105,4.345.225,2.373.231,4.845.6,7.563,1.13,2.369.464,4.762,1.012,7.317,1.675l.063.017a52.469,52.469,0,0,1,38.161-16.554m-48.317,32.48c.44-1.073.9-2.14,1.417-3.192a52.9,52.9,0,0,1,3.083-5.442c-1.094-.157-2.165-.295-3.2-.41-2.65-.3-4.782-.46-6.711-.5-.237,0-.47,0-.7,0-.849,0-1.66.026-2.417.078a1.366,1.366,0,0,0-1,.53.544.544,0,0,0-.039.525,7.83,7.83,0,0,0,2.077,2.258c.262.224.506.435.71.625,1.443,1.34,3.125,2.753,5,4.2.574.442,1.182.887,1.784,1.33m106.543,48.992.153,0a.679.679,0,0,0,.4-.146h0a1.579,1.579,0,0,0,.548-1.406,4.141,4.141,0,0,0-.85-1.527c-.214-.276-.441-.548-.651-.8-.191-.228-.371-.442-.521-.635a59.448,59.448,0,0,0-4.32-4.886c-1.09-1.125-2.282-2.287-3.544-3.468a52.889,52.889,0,0,1-2.629,6.455c-.614,1.258-1.287,2.475-1.99,3.669,1.317.389,2.569.733,3.737,1.026a63.261,63.261,0,0,0,6.216,1.246c.317.047.651.106,1,.167a15.128,15.128,0,0,0,2.456.306m-58.226-82.751a53.768,53.768,0,0,0-38.572,16.406c-2.334-.594-4.539-1.093-6.723-1.52-2.757-.538-5.27-.913-7.685-1.148-1.186-.108-2.757-.231-4.469-.231a31.085,31.085,0,0,0-3.788.22,19.887,19.887,0,0,0-2.265.407,14.27,14.27,0,0,0-2.416.8,10.448,10.448,0,0,0-2.546,1.553c-.209.186-.384.348-.579.536l-.021.02-.02.02c-.164.173-.323.355-.525.588l-.025.028-.023.03c-.17.221-.344.471-.564.812l-.025.039-.023.041-.118.217c-.041.063-.093.157-.182.326a8.34,8.34,0,0,0-.84,3.393,10.37,10.37,0,0,0,.341,2.939,14.235,14.235,0,0,0,.857,2.4,19.757,19.757,0,0,0,1.067,2.029,31.022,31.022,0,0,0,2.068,3.01c1.079,1.4,2.179,2.6,3.016,3.494,1.665,1.757,3.506,3.508,5.632,5.358,1.709,1.485,3.535,2.979,5.433,4.446a53.731,53.731,0,0,0,10.694,39.967,53.693,53.693,0,0,0,42.213,20.718,53.719,53.719,0,0,0,38.282-16.119,93.261,93.261,0,0,0,15.954,2.835c1.09.079,2.154.119,3.164.119,1.16,0,2.273-.053,3.308-.157a16.92,16.92,0,0,0,5.371-1.362,9.381,9.381,0,0,0,3.545-2.7c.2-.262.348-.482.471-.672a3.158,3.158,0,0,0,.166-.274l.265-.487.049-.09.023-.064c.016-.038.05-.117.1-.234l.068-.166c.046-.108.1-.25.16-.424s.114-.379.184-.625a9.527,9.527,0,0,0-.044-4.49,17.007,17.007,0,0,0-2.222-5.058,37.845,37.845,0,0,0-3.952-5.133,92.66,92.66,0,0,0-11.944-10.76,53.5,53.5,0,0,0-29.46-55.592,52.927,52.927,0,0,0-23.4-5.446Zm-56.19,25.535c.561-.028,1.15-.042,1.758-.042.225,0,.451,0,.681.006,1.884.034,3.978.189,6.587.487q.594.066,1.219.144c-.773,1.295-1.478,2.593-2.1,3.875-.271.554-.538,1.131-.813,1.76-.155-.117-.308-.233-.459-.35-1.844-1.419-3.5-2.806-4.911-4.121-.215-.2-.473-.422-.75-.659-.33-.284-.829-.712-1.208-1.1Zm102.931,53.692c.45-.809.853-1.579,1.219-2.329.737-1.51,1.416-3.094,2.028-4.73.745.721,1.44,1.414,2.077,2.072a57.99,57.99,0,0,1,4.231,4.783c.158.2.347.43.549.67s.416.5.619.759a3.009,3.009,0,0,1,.6.976.218.218,0,0,1-.013.04,16.263,16.263,0,0,1-2.05-.28c-.375-.066-.718-.127-1.043-.175-1.859-.267-3.907-.678-6.1-1.222-.672-.169-1.383-.357-2.126-.564Z" fill="#fff"/>
      </g>
      <g id="Group_1272" data-name="Group 1272">
        <path id="Path_2811" data-name="Path 2811" d="M6222.376,2098.951q-.61,1.248-1.284,2.445-.212.381-.433.761-.33.565-.677,1.121a47.54,47.54,0,0,1-10.053,11.512q-1.043.865-2.128,1.663-.738.546-1.5,1.06v0a48.118,48.118,0,0,1-25.283,8.264h0a47.509,47.509,0,0,1-11.77-1.062h-.006a47.894,47.894,0,0,1-10.848-3.775q-1.347-.657-2.634-1.391l0,0s-.007,0-.008,0l-.006,0h0l0,0h0a47.505,47.505,0,0,1-16.122-14.993l0,0a48.1,48.1,0,0,1-6.9-16.088c-.339-1.5-.6-3.029-.8-4.562q-.2-1.6-.3-3.22c-.007-.116-.013-.234-.017-.351q-.06-1.17-.061-2.346a47.474,47.474,0,0,1,2.846-16.249c.142-.4.288-.789.443-1.18q.4-1.016.845-2.022c.082-.189.169-.376.256-.566.153-.334.313-.666.475-1a48.654,48.654,0,0,1,2.368-4.286c.2-.319.4-.636.6-.95a47.53,47.53,0,0,1,14.653-14.338c.328-.207.658-.408.994-.6.54-.323,1.089-.631,1.643-.93q1.221-.658,2.477-1.242c.317-.152.637-.3.96-.44q2.031-.891,4.134-1.594a48.121,48.121,0,0,1,8.756-2.036,47.375,47.375,0,0,1,8.829-.37q1.739.084,3.477.3h.016a47.681,47.681,0,0,1,15.071,4.495,48.445,48.445,0,0,1,6.4,3.759c1.073.749,2.112,1.537,3.107,2.363a46.848,46.848,0,0,1,4.885,4.657c.312.343.624.692.925,1.043.161.188.32.379.477.57.129.152.255.308.38.464.484.593.947,1.2,1.4,1.81h0q1.2,1.633,2.247,3.351.924,1.515,1.73,3.1,1.047,2.038,1.9,4.173.783,1.959,1.387,3.982c.12.4.232.8.341,1.2v0a47.633,47.633,0,0,1,1.025,4.688c.065.385.126.772.18,1.162.025.165.046.33.067.5.043.32.081.643.116.963a47.633,47.633,0,0,1-.019,10.644c-.074.632-.157,1.263-.257,1.9q-.283,1.836-.716,3.661c-.2.844-.423,1.687-.675,2.526q-.51,1.741-1.168,3.456Q6223.347,2096.964,6222.376,2098.951Z" fill="#f7aa33"/>
        <g id="Group_1271" data-name="Group 1271" clip-path="url(#clip-path)">
          <g id="Group_1270" data-name="Group 1270">
            <g id="Group_1267" data-name="Group 1267">
              <path id="Path_2812" data-name="Path 2812" d="M6224.861,2092.839l-.069.2c.107.017.215.031.32.045C6225.03,2093,6224.946,2092.921,6224.861,2092.839Z" fill="#618400"/>
              <path id="Path_2813" data-name="Path 2813" d="M6181.169,2122.08c-4.7-1.619-9.725-3.556-14.978-5.8-2.622-1.125-5.312-2.309-8.033-3.592s-5.479-2.663-8.213-4.2a78.715,78.715,0,0,1-8.048-5.146,58.6,58.6,0,0,1-5.638-4.688q1,2.094,2.209,4.088c.77.68,1.549,1.346,2.329,2,2.527,2.113,5.1,4.113,7.7,6s5.232,3.643,7.881,5.252a90.262,90.262,0,0,0,7.99,4.319,84,84,0,0,0,7.952,3.31,73.625,73.625,0,0,0,7.15,2.173,47.9,47.9,0,0,0,10.186-1.124q-.832-.215-1.678-.457C6185.791,2123.618,6183.522,2122.884,6181.169,2122.08Z" fill="#618400"/>
              <path id="Path_2814" data-name="Path 2814" d="M6195.7,2109.906c-2.176-.795-4.44-1.691-6.8-2.642s-4.79-1.973-7.317-3.028-5.12-2.18-7.786-3.351-5.407-2.383-8.195-3.659-5.624-2.621-8.464-4.085a89.239,89.239,0,0,1-16.494-10.671q-1.931-1.605-3.725-3.371c-.591-.592-1.171-1.2-1.734-1.816-.135-.151-.268-.3-.4-.456-.414-.478-.818-.964-1.2-1.46-.427-.558-.838-1.127-1.216-1.712-.194-.3-.376-.6-.549-.9-.044.377-.081.756-.113,1.134-.057.676-.1,1.354-.129,2.03q.278.326.559.647c.2.225.4.448.6.668.981,1.068,2.009,2.073,3.056,3.041,1.262,1.173,2.567,2.284,3.876,3.37,2.632,2.161,5.329,4.183,8.018,6.149s5.392,3.848,8.085,5.659,5.4,3.516,8.09,5.107,5.391,3.041,8.073,4.346a103.568,103.568,0,0,0,15.633,6.163c2.5.751,4.929,1.359,7.255,1.862s4.554.885,6.654,1.188a74.333,74.333,0,0,0,8.363.745c.38-.315.759-.635,1.131-.963a47.614,47.614,0,0,1-9.034-1.894Q6198.967,2111.127,6195.7,2109.906Z" fill="#618400"/>
              <path id="Path_2815" data-name="Path 2815" d="M6220.307,2101.477q-1.517-.327-3.225-.825-1.187-.347-2.458-.772c-1.51-.5-3.106-1.091-4.774-1.755-1.974-.78-4.058-1.66-6.233-2.629s-4.457-2-6.832-3.074q-2.933-1.332-6.063-2.749-4.464-2.019-9.289-4.182-4.1-1.828-8.411-3.754c-2.873-1.28-5.8-2.614-8.754-4.03q-2.558-1.227-5.121-2.565a115.451,115.451,0,0,1-12.377-7.441q-.875-.608-1.739-1.235a69.945,69.945,0,0,1-5.848-4.693c-.17-.152-.338-.3-.506-.462a34.122,34.122,0,0,1-2.9-3.02c-.035.077-.07.154-.1.232-.286.644-.558,1.289-.813,1.941.183.174.368.345.553.515.345.316.7.626,1.051.929.324.278.65.55.978.82,1.327,1.081,2.678,2.112,4.043,3.11,1.464,1.072,2.942,2.105,4.424,3.12,2.388,1.631,4.789,3.2,7.169,4.757l1.419.923q4.277,2.774,8.477,5.418c2.8,1.756,5.585,3.443,8.345,5.033l.567.323c2.572,1.463,5.126,2.832,7.659,4.087q3.147,1.564,6.228,2.912c3.258,1.431,6.444,2.683,9.516,3.753,1.917.668,3.789,1.266,5.606,1.809.559.166,1.111.325,1.659.483,2.331.657,4.554,1.229,6.652,1.731,2.667.624,5.127,1.142,7.354,1.545.54.1,1.069.193,1.583.276q1.05.175,2.019.31c.127.019.252.034.374.05.042-.069.084-.14.126-.211.106-.181.21-.362.31-.546C6220.751,2101.571,6220.531,2101.525,6220.307,2101.477Z" fill="#618400"/>
              <path id="Path_2816" data-name="Path 2816" d="M6141.346,2055.057a71.938,71.938,0,0,0,8.031,6.811q.959.71,1.922,1.4c2.173,1.554,4.375,3.027,6.58,4.452q4.29,2.76,8.6,5.231,1.119.646,2.237,1.266c4.97,2.78,9.9,5.258,14.692,7.439,1.374.63,2.744,1.225,4.092,1.81,1.274.553,2.53,1.085,3.778,1.585.077.03.151.061.227.09,2.636,1.07,5.22,2.011,7.72,2.854s4.918,1.566,7.227,2.209l.347.093c2.186.593,4.269,1.107,6.239,1.557a96.513,96.513,0,0,0,10.777,1.877c.245.026.484.048.721.069l.042,0c-.011-.008-.021-.018-.033-.026.086-.244.17-.489.251-.733-.315-.044-.64-.095-.97-.155-.156-.027-.312-.057-.47-.089a62.9,62.9,0,0,1-9.887-2.915c-3.935-1.452-8.287-3.346-12.993-5.465q-1.748-.786-3.562-1.615-1.844-.847-3.756-1.728c-1.258-.586-2.541-1.182-3.84-1.788s-2.609-1.252-3.94-1.891c-5.308-2.59-10.869-5.4-16.529-8.459q-1.02-.552-2.047-1.117c-4.989-2.751-10.031-5.724-14.88-9.028-1.057-.721-2.11-1.454-3.144-2.2-1.659-1.2-3.275-2.442-4.8-3.744-.758-.648-1.5-1.315-2.17-2-.366-.373-.717-.754-1.035-1.136-.23.314-.455.63-.678.95q-.587.849-1.145,1.732c.554.689,1.137,1.341,1.736,1.973C6140.9,2054.6,6141.123,2054.828,6141.346,2055.057Z" fill="#618400"/>
              <path id="Path_2817" data-name="Path 2817" d="M6186.235,2039.707c5.136,2.18,10.036,4.476,14.639,6.742,1.147.573,2.282,1.133,3.389,1.7s2.193,1.142,3.262,1.7c2.131,1.133,4.19,2.23,6.15,3.312s3.837,2.132,5.594,3.174c1.389.819,2.708,1.629,3.943,2.434-.626-1.436-1.322-2.843-2.088-4.21-1.7-1.345-3.548-2.715-5.532-4.079-1.9-1.3-3.927-2.607-6.074-3.875-1.07-.64-2.176-1.265-3.3-1.891s-2.272-1.258-3.449-1.871a153.149,153.149,0,0,0-15.177-6.954c-2.695-1.06-5.464-2.063-8.295-2.984-2.457-.8-4.961-1.545-7.511-2.191a48.061,48.061,0,0,0-7.361,1.8c1.914.371,3.852.864,5.771,1.4A136.394,136.394,0,0,1,6186.235,2039.707Z" fill="#618400"/>
              <path id="Path_2818" data-name="Path 2818" d="M6156.8,2039.756a66.693,66.693,0,0,0,6.822,5.858c2.371,1.811,4.794,3.517,7.207,5.186.085.06.172.117.258.177q3.492,2.4,6.99,4.647,3.62,2.322,7.232,4.407l.557.318c2.221,1.256,4.433,2.428,6.632,3.5l.138.068c2.333,1.137,4.64,2.166,6.9,3.092q3.464,1.4,6.759,2.477c2.19.715,4.309,1.318,6.33,1.829.158.038.312.078.467.115,1.853.454,3.622.838,5.293,1.154a64.994,64.994,0,0,0,8.656,1.094q-.033-.372-.074-.742a45.3,45.3,0,0,1-8.384-2.039c-1.726-.562-3.545-1.226-5.449-1.972s-3.89-1.559-5.957-2.42q-2.838-1.188-5.87-2.5l-.554-.24q-3.325-1.436-6.854-3.008c-2.345-1.051-4.763-2.13-7.224-3.265-2.412-1.107-4.865-2.275-7.33-3.524-.053-.026-.106-.054-.159-.081a91.759,91.759,0,0,1-14.716-9.111,45.659,45.659,0,0,1-6.346-5.8,16.96,16.96,0,0,1-2.037-2.8c-.535.3-1.065.6-1.584.924.244.341.5.669.768.987C6155.755,2038.663,6156.27,2039.218,6156.8,2039.756Z" fill="#618400"/>
            </g>
            <g id="Group_1268" data-name="Group 1268">
              <path id="Path_2819" data-name="Path 2819" d="M6181.368,2125.058A47.565,47.565,0,0,1,6169.6,2124h-.005q-3.516-1.1-6.876-2.373-3.406-1.3-6.607-2.793l0,0c-.006,0-.008,0-.009,0l-.006,0h0l0,0h0a47.514,47.514,0,0,1-16.122-14.993c.427.282.855.565,1.29.849,4.466,2.909,9.412,5.875,14.763,8.841,2.679,1.474,5.452,2.969,8.328,4.422s5.86,2.875,8.957,4.176C6175.907,2123.2,6178.6,2124.205,6181.368,2125.058Z" fill="#ffc101"/>
              <path id="Path_2820" data-name="Path 2820" d="M6210.281,2114.069q-1.042.865-2.128,1.662-.846-.117-1.682-.255c-1.822-.292-3.621-.663-5.4-1.054-3.558-.8-7.043-1.748-10.477-2.726s-6.8-2.022-10.108-3.1-6.526-2.243-9.647-3.472-6.12-2.552-8.99-3.959a111.06,111.06,0,0,1-15.507-9.151c-2.279-1.618-4.4-3.272-6.353-4.907s-3.748-3.265-5.388-4.839q-1.4-1.359-2.649-2.664-.06-1.17-.061-2.346c1.266,1.07,2.668,2.15,4.192,3.229,1.8,1.29,3.77,2.589,5.887,3.893s4.355,2.637,6.71,4,4.822,2.748,7.378,4.188,5.216,2.892,7.963,4.374,5.575,3,8.489,4.513,5.921,3.028,9.029,4.464a95.553,95.553,0,0,0,19.885,6.908c1.751.383,3.52.7,5.3.928.889.108,1.783.2,2.676.269.218.014.433.028.651.037C6210.127,2114.062,6210.2,2114.067,6210.281,2114.069Z" fill="#ffc101"/>
              <path id="Path_2821" data-name="Path 2821" d="M6221.444,2100.675q-.213.381-.432.761-.33.565-.678,1.121l-.117-.027c-1.788-.409-3.549-.873-5.293-1.368-1.869-.53-3.716-1.1-5.549-1.682-2.953-.945-5.864-1.938-8.743-2.925l-1.716-.593q-5.16-1.786-10.163-3.594c-3.328-1.21-6.587-2.452-9.751-3.737l-.646-.267q-4.4-1.813-8.5-3.779-3.395-1.632-6.562-3.346c-3.356-1.81-6.511-3.678-9.44-5.57-1.828-1.179-3.567-2.367-5.222-3.545-.509-.364-1.008-.725-1.5-1.084-2.088-1.538-4.039-3.039-5.843-4.481-2.286-1.844-4.344-3.582-6.153-5.2-.135-.12-.268-.239-.4-.359.142-.4.288-.788.443-1.179.171.127.345.255.523.383.717.516,1.474,1.041,2.272,1.569,1.42.944,2.968,1.906,4.629,2.878,1.96,1.154,4.075,2.335,6.327,3.535,2.246,1.216,4.626,2.45,7.1,3.75q3.057,1.6,6.317,3.313,4.648,2.442,9.653,5.094l8.713,4.636c2.977,1.584,6.032,3.181,9.174,4.741q2.722,1.356,5.541,2.64a124.318,124.318,0,0,0,14.443,5.559c.725.224,1.454.445,2.188.655a74.918,74.918,0,0,0,7.818,1.849c.242.044.482.085.725.124C6220.882,2100.594,6221.162,2100.636,6221.444,2100.675Z" fill="#ffc101"/>
              <path id="Path_2822" data-name="Path 2822" d="M6224.468,2094.213l-.341-.039a76.918,76.918,0,0,1-11.048-2.3c-.82-.227-1.634-.462-2.448-.7-2.744-.813-5.44-1.7-8.1-2.628q-5.157-1.808-10.085-3.818-1.281-.519-2.543-1.056c-5.623-2.369-10.965-4.9-15.964-7.516-1.439-.747-2.844-1.512-4.226-2.266-1.306-.712-2.584-1.423-3.828-2.148-.076-.047-.152-.089-.225-.133-2.643-1.523-5.14-3.087-7.5-4.645s-4.563-3.124-6.626-4.652c-.1-.076-.207-.155-.307-.232q-2.914-2.184-5.427-4.248c-2.552-2.1-4.792-4.065-6.683-5.877.2-.319.4-.636.6-.95a74.4,74.4,0,0,0,7.459,5.167c3.819,2.368,8.286,4.8,13.177,7.38q1.817.96,3.712,1.945,1.93,1,3.935,2.037,1.988,1.017,4.04,2.068c1.371.7,2.778,1.379,4.194,2.084,5.685,2.779,11.722,5.628,18.037,8.4q1.139.5,2.293.995c5.611,2.4,11.444,4.707,17.432,6.626q1.958.632,3.935,1.207c2.107.611,4.221,1.159,6.325,1.589q.686.14,1.37.261Q6225.125,2092.5,6224.468,2094.213Z" fill="#ffc101"/>
              <path id="Path_2823" data-name="Path 2823" d="M6222.288,2055.362a148.137,148.137,0,0,0-14.761-9.233c-5.225-2.907-10.394-5.534-15.342-7.932-1.239-.593-2.461-1.182-3.67-1.742s-2.412-1.1-3.587-1.637c-2.361-1.054-4.646-2.07-6.851-3.014-1.625-.7-3.2-1.363-4.734-1.986a47.362,47.362,0,0,1,8.829-.37q2.061.716,4.183,1.548c1.247.484,2.5,1.009,3.775,1.545s2.559,1.092,3.853,1.683a164.149,164.149,0,0,1,15.875,8.246q3.345,1.976,6.673,4.168c.13.152.255.308.381.464.483.593.946,1.2,1.4,1.81h0q1.2,1.633,2.247,3.351Q6221.482,2053.779,6222.288,2055.362Z" fill="#ffc101"/>
              <path id="Path_2824" data-name="Path 2824" d="M6227.186,2071.068c-.1-.009-.207-.021-.31-.034a71.36,71.36,0,0,1-9.444-1.905c-3.1-.812-6.132-1.734-9.13-2.676-.109-.032-.214-.068-.321-.1q-4.33-1.37-8.532-2.848-4.349-1.527-8.489-3.208l-.636-.261q-3.787-1.573-7.326-3.3l-.146-.071q-3.747-1.835-7.16-3.793-3.468-2-6.545-4.08c-2.049-1.38-3.953-2.772-5.716-4.146-.137-.108-.272-.212-.406-.319-1.6-1.267-3.095-2.509-4.462-3.712-1.552-1.378-2.953-2.7-4.184-3.95.328-.207.658-.408.994-.6,1.32,1.069,2.825,2.168,4.486,3.276,1.612,1.088,3.371,2.187,5.255,3.3s3.881,2.262,5.971,3.442c1.913,1.077,3.914,2.179,5.982,3.309.19.1.379.208.568.311q3.409,1.863,7.06,3.81c2.432,1.29,4.935,2.622,7.517,3.955,2.524,1.309,5.126,2.613,7.805,3.871l.174.082a98.071,98.071,0,0,0,17.394,6.434,49.15,49.15,0,0,0,9.085,1.544c.089.005.179.008.27.011.064.386.125.773.18,1.163C6227.144,2070.736,6227.165,2070.9,6227.186,2071.068Z" fill="#ffc101"/>
            </g>
            <g id="Group_1269" data-name="Group 1269">
              <path id="Path_2825" data-name="Path 2825" d="M6224.861,2092.839l-.069.2c.107.017.215.031.32.045C6225.03,2093,6224.946,2092.921,6224.861,2092.839Z" fill="#ff970f"/>
              <path id="Path_2826" data-name="Path 2826" d="M6181.169,2122.08c-4.7-1.619-9.725-3.556-14.978-5.8-2.622-1.125-5.312-2.309-8.033-3.592s-5.479-2.663-8.213-4.2a78.715,78.715,0,0,1-8.048-5.146,58.6,58.6,0,0,1-5.638-4.688q1,2.094,2.209,4.088c.77.68,1.549,1.346,2.329,2,2.527,2.113,5.1,4.113,7.7,6s5.232,3.643,7.881,5.252a90.262,90.262,0,0,0,7.99,4.319,84,84,0,0,0,7.952,3.31,73.625,73.625,0,0,0,7.15,2.173,47.9,47.9,0,0,0,10.186-1.124q-.832-.215-1.678-.457C6185.791,2123.618,6183.522,2122.884,6181.169,2122.08Z" fill="#ff970f"/>
              <path id="Path_2827" data-name="Path 2827" d="M6195.7,2109.906c-2.176-.795-4.44-1.691-6.8-2.642s-4.79-1.973-7.317-3.028-5.12-2.18-7.786-3.351-5.407-2.383-8.195-3.659-5.624-2.621-8.464-4.085a89.239,89.239,0,0,1-16.494-10.671q-1.931-1.605-3.725-3.371c-.591-.592-1.171-1.2-1.734-1.816-.135-.151-.268-.3-.4-.456-.414-.478-.818-.964-1.2-1.46-.427-.558-.838-1.127-1.216-1.712-.194-.3-.376-.6-.549-.9-.044.377-.081.756-.113,1.134-.057.676-.1,1.354-.129,2.03q.278.326.559.647c.2.225.4.448.6.668.981,1.068,2.009,2.073,3.056,3.041,1.262,1.173,2.567,2.284,3.876,3.37,2.632,2.161,5.329,4.183,8.018,6.149s5.392,3.848,8.085,5.659,5.4,3.516,8.09,5.107,5.391,3.041,8.073,4.346a103.568,103.568,0,0,0,15.633,6.163c2.5.751,4.929,1.359,7.255,1.862s4.554.885,6.654,1.188a74.333,74.333,0,0,0,8.363.745c.38-.315.759-.635,1.131-.963a47.614,47.614,0,0,1-9.034-1.894Q6198.967,2111.127,6195.7,2109.906Z" fill="#ff970f"/>
              <path id="Path_2828" data-name="Path 2828" d="M6220.307,2101.477q-1.517-.327-3.225-.825-1.187-.347-2.458-.772c-1.51-.5-3.106-1.091-4.774-1.755-1.974-.78-4.058-1.66-6.233-2.629s-4.457-2-6.832-3.074q-2.933-1.332-6.063-2.749-4.464-2.019-9.289-4.182-4.1-1.828-8.411-3.754c-2.873-1.28-5.8-2.614-8.754-4.03q-2.558-1.227-5.121-2.565a115.451,115.451,0,0,1-12.377-7.441q-.875-.608-1.739-1.235a69.945,69.945,0,0,1-5.848-4.693c-.17-.152-.338-.3-.506-.462a34.122,34.122,0,0,1-2.9-3.02c-.035.077-.07.154-.1.232-.286.644-.558,1.289-.813,1.941.183.174.368.345.553.515.345.316.7.626,1.051.929.324.278.65.55.978.82,1.327,1.081,2.678,2.112,4.043,3.11,1.464,1.072,2.942,2.105,4.424,3.12,2.388,1.631,4.789,3.2,7.169,4.757l1.419.923q4.277,2.774,8.477,5.418c2.8,1.756,5.585,3.443,8.345,5.033l.567.323c2.572,1.463,5.126,2.832,7.659,4.087q3.147,1.564,6.228,2.912c3.258,1.431,6.444,2.683,9.516,3.753,1.917.668,3.789,1.266,5.606,1.809.559.166,1.111.325,1.659.483,2.331.657,4.554,1.229,6.652,1.731,2.667.624,5.127,1.142,7.354,1.545.54.1,1.069.193,1.583.276q1.05.175,2.019.31c.127.019.252.034.374.05.042-.069.084-.14.126-.211.106-.181.21-.362.31-.546C6220.751,2101.571,6220.531,2101.525,6220.307,2101.477Z" fill="#ff970f"/>
              <path id="Path_2829" data-name="Path 2829" d="M6141.346,2055.057a71.938,71.938,0,0,0,8.031,6.811q.959.71,1.922,1.4c2.173,1.554,4.375,3.027,6.58,4.452q4.29,2.76,8.6,5.231,1.119.646,2.237,1.266c4.97,2.78,9.9,5.258,14.692,7.439,1.374.63,2.744,1.225,4.092,1.81,1.274.553,2.53,1.085,3.778,1.585.077.03.151.061.227.09,2.636,1.07,5.22,2.011,7.72,2.854s4.918,1.566,7.227,2.209l.347.093c2.186.593,4.269,1.107,6.239,1.557a96.513,96.513,0,0,0,10.777,1.877c.245.026.484.048.721.069l.042,0c-.011-.008-.021-.018-.033-.026.086-.244.17-.489.251-.733-.315-.044-.64-.095-.97-.155-.156-.027-.312-.057-.47-.089a62.9,62.9,0,0,1-9.887-2.915c-3.935-1.452-8.287-3.346-12.993-5.465q-1.748-.786-3.562-1.615-1.844-.847-3.756-1.728c-1.258-.586-2.541-1.182-3.84-1.788s-2.609-1.252-3.94-1.891c-5.308-2.59-10.869-5.4-16.529-8.459q-1.02-.552-2.047-1.117c-4.989-2.751-10.031-5.724-14.88-9.028-1.057-.721-2.11-1.454-3.144-2.2-1.659-1.2-3.275-2.442-4.8-3.744-.758-.648-1.5-1.315-2.17-2-.366-.373-.717-.754-1.035-1.136-.23.314-.455.63-.678.95q-.587.849-1.145,1.732c.554.689,1.137,1.341,1.736,1.973C6140.9,2054.6,6141.123,2054.828,6141.346,2055.057Z" fill="#ff970f"/>
              <path id="Path_2830" data-name="Path 2830" d="M6200.874,2046.449c1.147.573,2.282,1.133,3.389,1.7s2.193,1.142,3.262,1.7c2.131,1.133,4.19,2.23,6.15,3.312s3.837,2.132,5.594,3.174c1.389.819,2.708,1.629,3.943,2.434-.626-1.436-1.322-2.843-2.088-4.21-1.7-1.345-3.548-2.715-5.532-4.079-1.9-1.3-3.927-2.607-6.074-3.875-1.07-.64-2.176-1.265-3.3-1.891s-2.272-1.258-3.449-1.871a153.149,153.149,0,0,0-15.177-6.954c-2.695-1.06-5.464-2.063-8.295-2.984-2.457-.8-4.961-1.545-7.511-2.191a48.061,48.061,0,0,0-7.361,1.8c1.914.371,3.852.864,5.771,1.4a136.394,136.394,0,0,1,16.041,5.791" fill="#ff970f"/>
              <path id="Path_2831" data-name="Path 2831" d="M6156.8,2039.756a66.693,66.693,0,0,0,6.822,5.858c2.371,1.811,4.794,3.517,7.207,5.186.085.06.172.117.258.177q3.492,2.4,6.99,4.647,3.62,2.322,7.232,4.407l.557.318c2.221,1.256,4.433,2.428,6.632,3.5l.138.068c2.333,1.137,4.64,2.166,6.9,3.092q3.464,1.4,6.759,2.477c2.19.715,4.309,1.318,6.33,1.829.158.038.312.078.467.115,1.853.454,3.622.838,5.293,1.154a64.994,64.994,0,0,0,8.656,1.094q-.033-.372-.074-.742a45.3,45.3,0,0,1-8.384-2.039c-1.726-.562-3.545-1.226-5.449-1.972s-3.89-1.559-5.957-2.42q-2.838-1.188-5.87-2.5l-.554-.24q-3.325-1.436-6.854-3.008c-2.345-1.051-4.763-2.13-7.224-3.265-2.412-1.107-4.865-2.275-7.33-3.524-.053-.026-.106-.054-.159-.081a91.759,91.759,0,0,1-14.716-9.111,45.659,45.659,0,0,1-6.346-5.8,16.96,16.96,0,0,1-2.037-2.8c-.535.3-1.065.6-1.584.924.244.341.5.669.768.987C6155.755,2038.663,6156.27,2039.218,6156.8,2039.756Z" fill="#ff970f"/>
            </g>
          </g>
          <path id="Path_2832" data-name="Path 2832" d="M6176.433,2081.822c-24.478-11.549-42.914-23.9-41.178-27.578l-7.429,15.746c-1.736,3.679,16.7,16.028,41.178,27.577s45.731,17.926,47.467,14.247l7.429-15.745C6222.164,2099.748,6200.91,2093.371,6176.433,2081.822Z" fill="#ff650f" opacity="0.5" style="mix-blend-mode: multiply;isolation: isolate"/>
        </g>
      </g>
      <path id="Path_2834" data-name="Path 2834" d="M6136.4,2056.959c-.163.332-.32.665-.474,1-.087.189-.173.376-.256.565a47.6,47.6,0,0,0-4.055,22.147q.092,1.617.3,3.222c.193,1.533.46,3.056.8,4.56a48.37,48.37,0,0,0,1.314,4.7,47.879,47.879,0,0,0,72.281,24.361v0a47.57,47.57,0,0,0,14.353-15.358q.909-1.557,1.716-3.2a47.973,47.973,0,0,0,3.582-10q.434-1.825.718-3.66.149-.948.255-1.9a47.576,47.576,0,0,0,.02-10.644q-.08-.731-.183-1.457a48,48,0,0,0-1.2-5.852v0a48.22,48.22,0,0,0-5.36-12.455q-1.05-1.719-2.246-3.35h0q-.674-.921-1.4-1.811c3.84,11.378,6.115,23.017,4,35.252-2.012,11.644-8.037,22.8-17.567,29.789a36.3,36.3,0,0,1-26.287,6.768c-10.084-1.475-21.143-6.469-27.841-14.266a45.937,45.937,0,0,1-.274-60.018c3.5-4.158,5.9-7.741,10.548-10.74q-1.255.585-2.476,1.244A47.627,47.627,0,0,0,6136.4,2056.959Z" fill="#ff650f" opacity="0.5"/>
      <path id="Path_2835" data-name="Path 2835" d="M6136.4,2056.959c-.163.332-.32.665-.474,1-.087.189-.173.376-.256.565a47.6,47.6,0,0,0-4.055,22.147q.092,1.617.3,3.222c.193,1.533.46,3.056.8,4.56a48.37,48.37,0,0,0,1.314,4.7,47.879,47.879,0,0,0,72.281,24.361v0a47.57,47.57,0,0,0,14.353-15.358q.909-1.557,1.716-3.2a47.973,47.973,0,0,0,3.582-10q.434-1.825.718-3.66.149-.948.255-1.9a47.576,47.576,0,0,0,.02-10.644q-.08-.731-.183-1.457a48,48,0,0,0-1.2-5.852v0c-.109-.4-.224-.8-.342-1.2q-.606-2.022-1.388-3.983a48.182,48.182,0,0,0-3.63-7.27q-1.05-1.719-2.246-3.35h0q-.674-.921-1.4-1.811-.42-.523-.858-1.033c-.3-.352-.612-.7-.924-1.045a47.055,47.055,0,0,0-4.887-4.657q-1.493-1.236-3.106-2.361a48.18,48.18,0,0,0-21.471-8.256h-.015a47.791,47.791,0,0,0-21.064,2.1q-2.1.7-4.133,1.594c-.324.143-.644.288-.961.438q-1.255.585-2.476,1.244A47.627,47.627,0,0,0,6136.4,2056.959Zm43.77-23.587a40.555,40.555,0,0,1,22.791,10.04c11.524,10.628,13.407,27.234,6.936,40.952-3.765,7.982-10.129,14.423-18.679,17.095-25.461,7.954-50.609-20.264-42.072-44.679C6153.827,2043.392,6165.826,2031.71,6180.17,2033.372Z" fill="#ff650f" opacity="0.3"/>
      <path id="Path_2836" data-name="Path 2836" d="M6188.642,2061.8a11.281,11.281,0,0,1-15.639,1.866c-5.207-3.879-7.8-9.218-4.538-15.6a13.157,13.157,0,0,1,9.986-6.951C6190.644,2039.667,6195.454,2053.093,6188.642,2061.8Z" fill="#fff" opacity="0.23"/>
      <g id="Group_1275" data-name="Group 1275">
        <g id="Group_1274" data-name="Group 1274" clip-path="url(#clip-path-2)">
          <g id="Group_1273" data-name="Group 1273">
            <path id="Path_2837" data-name="Path 2837" d="M6248.291,2111.418c.039-.1.1-.231.151-.387s.1-.344.163-.553a7.673,7.673,0,0,0-.058-3.54,15.357,15.357,0,0,0-1.987-4.493,35.753,35.753,0,0,0-3.746-4.859,91.266,91.266,0,0,0-11.892-10.681,199.763,199.763,0,0,0-16.908-11.583c-6.376-3.944-13.449-7.926-21.087-11.826s-15.84-7.716-24.51-11.251c-4.335-1.767-8.787-3.46-13.349-5.035s-9.234-3.032-14.021-4.272c-2.394-.622-4.819-1.185-7.279-1.667s-4.954-.873-7.5-1.12a36.581,36.581,0,0,0-7.845-.016,17.7,17.7,0,0,0-2.051.369,12.291,12.291,0,0,0-2.1.693,8.539,8.539,0,0,0-2.063,1.25c-.16.144-.32.291-.477.441s-.3.329-.444.5c-.155.2-.308.427-.451.646l-.113.2-.054.1c-.043.077.015-.036-.109.2a6.387,6.387,0,0,0-.628,2.579,8.488,8.488,0,0,0,.282,2.4,12.34,12.34,0,0,0,.741,2.078,18.145,18.145,0,0,0,.97,1.845,36.72,36.72,0,0,0,4.836,6.175c1.759,1.856,3.6,3.581,5.494,5.225s3.827,3.212,5.79,4.717c3.92,3.014,7.943,5.8,11.988,8.433s8.119,5.1,12.178,7.433c8.121,4.663,16.174,8.78,23.942,12.413s15.26,6.757,22.291,9.361a200.14,200.14,0,0,0,19.53,6.214,91.445,91.445,0,0,0,15.736,2.811,35.794,35.794,0,0,0,6.136-.033,15.26,15.26,0,0,0,4.765-1.2,7.651,7.651,0,0,0,2.827-2.13c.153-.205.281-.39.387-.553a1.628,1.628,0,0,0,.1-.165c.024-.041.044-.077.062-.107.07-.131.107-.195.107-.195l.054-.1S6248.2,2111.623,6248.291,2111.418Zm-9.7-3.8a1.32,1.32,0,0,1-.759.271,22.96,22.96,0,0,1-3.716-.476c-1.839-.264-3.953-.68-6.28-1.259s-4.863-1.333-7.572-2.225-5.588-1.941-8.608-3.127c-1.511-.594-3.061-1.2-4.641-1.854s-3.191-1.346-4.836-2.051c-6.58-2.83-13.657-6.088-21.084-9.671-1.858-.887-3.742-1.819-5.625-2.752q-1.424-.713-2.863-1.428l-2.879-1.462q-1.444-.736-2.9-1.5l-2.919-1.522c-1.948-1.034-3.917-2.069-5.882-3.145q-5.916-3.2-11.87-6.667c-3.934-2.34-7.9-4.727-11.682-7.319-1.9-1.288-3.751-2.622-5.535-4s-3.492-2.792-5.046-4.236c-.874-.814-2.5-1.993-2.947-3.117-.416-1.06.634-1.861,1.593-1.927,1.011-.07,2.082-.092,3.173-.074,2.194.04,4.472.236,6.771.5s4.624.6,6.944,1.008,4.639.868,6.945,1.378,4.6,1.074,6.876,1.678c4.554,1.193,9.013,2.589,13.354,4.111a196.314,196.314,0,0,1,24.353,10.588,187.72,187.72,0,0,1,20.4,12.206c1.514,1.042,2.965,2.1,4.378,3.14s2.774,2.068,4.08,3.1c2.608,2.067,5.016,4.082,7.2,6.027s4.147,3.82,5.861,5.59a60.241,60.241,0,0,1,4.368,4.941c.674.868,1.947,2.152,2.146,3.237A2.213,2.213,0,0,1,6238.59,2107.619Z"/>
          </g>
        </g>
      </g>
      <g id="Group_1276" data-name="Group 1276">
        <path id="Path_2838" data-name="Path 2838" d="M6226.3,2087.371c.329.279.649.557.969.835.588.5,1.149.994,1.7,1.489,2.215,1.965,4.242,3.9,6.021,5.739a64.565,64.565,0,0,1,4.6,5.2c.109.142.263.33.43.525a9.039,9.039,0,0,1,2.288,3.994,4.964,4.964,0,0,1-1.881,4.8,4.264,4.264,0,0,1-2.414.84,16.446,16.446,0,0,1-3.373-.359c-.308-.053-.611-.11-.875-.148-2.01-.289-4.227-.732-6.587-1.316-2.323-.58-4.941-1.353-7.793-2.292-.1-.03-.188-.065-.284-.095-.363-.124-.734-.249-1.106-.374s-.729-.253-1.1-.382c-2.021-.7-4.123-1.484-6.284-2.335l-.135-.049c-1.475-.581-3-1.181-4.544-1.821-1.313-.537-2.665-1.116-3.965-1.678l-.926-.392c-.981-.422-1.969-.854-2.979-1.3-5.615-2.464-11.731-5.292-18.214-8.419-.738-.359-1.481-.713-2.227-1.082q-1.713-.835-3.448-1.7l-2.815-1.4-2.95-1.494c-1.086-.558-2.045-1.046-2.924-1.514l-2.92-1.517-1.1-.588c-1.585-.836-3.215-1.7-4.817-2.58-2.8-1.507-5.665-3.1-8.568-4.756-1.121-.645-2.258-1.3-3.391-1.961l-.026-.012c-3.321-1.975-6.813-4.076-10.167-6.292-.328-.215-.647-.429-.961-.647-.24-.153-.474-.32-.709-.478-.088-.061-.172-.117-.26-.179-1.907-1.306-3.735-2.624-5.423-3.93-1.968-1.509-3.733-3-5.27-4.42-.15-.143-.368-.33-.6-.524a10.241,10.241,0,0,1-3.1-3.7,4.021,4.021,0,0,1,.337-3.672,4.879,4.879,0,0,1,3.731-2.126c1.067-.073,2.219-.1,3.439-.08,2.055.035,4.295.2,7.049.514,2.26.257,4.66.6,7.133,1.04.513.088,1.03.181,1.56.281l1.254.243c.2-.244.4-.482.607-.72-.4-.115-.792-.22-1.189-.326-.58-.165-1.158-.317-1.736-.468-2.479-.645-4.8-1.175-7.094-1.627-2.6-.506-4.955-.857-7.193-1.075a34.015,34.015,0,0,0-7.207-.028,16.7,16.7,0,0,0-1.7.306l-.033.01a9.8,9.8,0,0,0-1.571.519,5.836,5.836,0,0,0-1.347.8l-.315.292c-.089.094-.175.192-.26.291-.062.087-.14.2-.23.33l-.177.315a3.715,3.715,0,0,0-.322,1.413,5.58,5.58,0,0,0,.19,1.583,9.384,9.384,0,0,0,.56,1.572l.015.029a14.925,14.925,0,0,0,.806,1.534,33.853,33.853,0,0,0,4.437,5.655c1.543,1.628,3.27,3.267,5.28,5.019,1.764,1.529,3.663,3.076,5.648,4.6.5.382,1,.765,1.508,1.145.329.247.666.5,1,.744s.659.485.992.728c2.553,1.849,5.294,3.731,8.286,5.677,2.884,1.869,5.92,3.757,9.06,5.612q1.469.865,2.97,1.729c5.923,3.406,12.174,6.713,18.566,9.836,1.69.827,3.422,1.655,5.142,2.458,4.775,2.225,9.493,4.291,14.1,6.166q4.041,1.652,7.955,3.1c5.109,1.893,10,3.526,14.594,4.857.405.115.8.229,1.2.344s.8.221,1.2.326c.758.207,1.5.4,2.236.592a88.85,88.85,0,0,0,15.195,2.727,33.658,33.658,0,0,0,5.606-.027,12.45,12.45,0,0,0,3.816-.938l.039-.014a4.833,4.833,0,0,0,1.734-1.268c.1-.138.194-.263.262-.373l.023-.033.03-.056s.078-.149.1-.183.044-.1.071-.168a1.552,1.552,0,0,0,.073-.178c.038-.118.078-.254.12-.4a4.936,4.936,0,0,0-.068-2.147l-.009-.033a12.481,12.481,0,0,0-1.615-3.593,33.287,33.287,0,0,0-3.421-4.435,88.516,88.516,0,0,0-11.492-10.3c-.581-.448-1.17-.9-1.774-1.344q-.488-.363-.986-.741Z" fill="#ffe090"/>
      </g>
    </g>
  </g>
</svg>
