<svg xmlns="http://www.w3.org/2000/svg" xmlns:xlink="http://www.w3.org/1999/xlink" width="81.731" height="81.731" viewBox="0 0 81.731 81.731">
  <defs>
    <clipPath id="clip-path">
      <path id="Path_2882" data-name="Path 2882" d="M6777.125,2773.231q.467.947.873,1.908.13.306.256.614.188.462.359.929a36.073,36.073,0,0,1,2.248,11.4q.036,1.029.01,2.053c-.009.465-.029.929-.057,1.392v0a36.595,36.595,0,0,1-6.787,19.043l0,0a36.132,36.132,0,0,1-6.11,6.583l0,0a36.429,36.429,0,0,1-7.313,4.768q-1.022.5-2.062.937h0l-.006,0,0,0h-.006a36.1,36.1,0,0,1-16.509,2.722h0a36.483,36.483,0,0,1-12.879-3.333q-1.594-.744-3.114-1.641-1.059-.623-2.074-1.318c-.073-.05-.147-.1-.219-.152q-.732-.508-1.439-1.055a36.083,36.083,0,0,1-8.447-9.265c-.172-.27-.34-.54-.5-.815q-.426-.711-.823-1.448c-.076-.138-.148-.277-.221-.417-.13-.247-.256-.5-.38-.75a36.755,36.755,0,0,1-1.475-3.416c-.1-.268-.2-.537-.29-.8a36.122,36.122,0,0,1-1.809-15.476c.028-.294.061-.586.1-.879.057-.475.127-.948.205-1.42.114-.694.251-1.383.4-2.067.056-.261.118-.521.182-.782q.408-1.635.963-3.226a36.553,36.553,0,0,1,2.847-6.212,36.012,36.012,0,0,1,3.882-5.48q.858-1.006,1.8-1.95l.007-.009a36.244,36.244,0,0,1,9.71-6.972,36.775,36.775,0,0,1,5.235-2.1c.95-.3,1.907-.556,2.865-.77a35.792,35.792,0,0,1,5.072-.773c.351-.027.706-.053,1.057-.07.188-.009.376-.017.564-.022.152-.007.3-.01.456-.013.582-.015,1.16-.013,1.738,0h0q1.537.041,3.059.207,1.341.148,2.667.4,1.713.318,3.392.8,1.542.439,3.039,1.017c.295.113.589.232.882.354h0a36.314,36.314,0,0,1,3.295,1.564c.261.14.523.284.782.432q.165.093.329.191c.213.122.425.249.634.377a36.21,36.21,0,0,1,6.39,4.96c.346.339.686.682,1.02,1.036q.972,1.025,1.868,2.133c.415.512.818,1.038,1.205,1.58q.81,1.116,1.536,2.309Q6776.38,2771.722,6777.125,2773.231Z" fill="#618400"/>
    </clipPath>
  </defs>
  <g id="Group_1298" data-name="Group 1298" transform="translate(-6703.649 -2748.45)">
    <g id="Group_1295" data-name="Group 1295">
      <g id="Group_1283" data-name="Group 1283">
        <circle id="Ellipse_44" data-name="Ellipse 44" cx="40.355" cy="40.355" r="40.355" transform="translate(6704.159 2748.96)"/>
        <path id="Path_2839" data-name="Path 2839" d="M6744.515,2749.471a39.844,39.844,0,1,1-39.845,39.845,39.844,39.844,0,0,1,39.845-39.845m0-1.021a40.865,40.865,0,1,0,40.865,40.866,40.912,40.912,0,0,0-40.865-40.866Z" fill="#fff"/>
      </g>
      <g id="Group_1294" data-name="Group 1294">
        <g id="Group_1293" data-name="Group 1293">
          <path id="Path_2840" data-name="Path 2840" d="M6777.125,2773.231q.467.947.873,1.908.13.306.256.614.188.462.359.929a36.073,36.073,0,0,1,2.248,11.4q.036,1.029.01,2.053c-.009.465-.029.929-.057,1.392v0a36.595,36.595,0,0,1-6.787,19.043l0,0a36.132,36.132,0,0,1-6.11,6.583l0,0a36.429,36.429,0,0,1-7.313,4.768q-1.022.5-2.062.937h0l-.006,0,0,0h-.006a36.1,36.1,0,0,1-16.509,2.722h0a36.483,36.483,0,0,1-12.879-3.333q-1.594-.744-3.114-1.641-1.059-.623-2.074-1.318c-.073-.05-.147-.1-.219-.152q-.732-.508-1.439-1.055a36.083,36.083,0,0,1-8.447-9.265c-.172-.27-.34-.54-.5-.815q-.426-.711-.823-1.448c-.076-.138-.148-.277-.221-.417-.13-.247-.256-.5-.38-.75a36.755,36.755,0,0,1-1.475-3.416c-.1-.268-.2-.537-.29-.8a36.122,36.122,0,0,1-1.809-15.476c.028-.294.061-.586.1-.879.057-.475.127-.948.205-1.42.114-.694.251-1.383.4-2.067.056-.261.118-.521.182-.782q.408-1.635.963-3.226a36.553,36.553,0,0,1,2.847-6.212,36.012,36.012,0,0,1,3.882-5.48q.858-1.006,1.8-1.95l.007-.009a36.244,36.244,0,0,1,9.71-6.972,36.775,36.775,0,0,1,5.235-2.1c.95-.3,1.907-.556,2.865-.77a35.792,35.792,0,0,1,5.072-.773c.351-.027.706-.053,1.057-.07.188-.009.376-.017.564-.022.152-.007.3-.01.456-.013.582-.015,1.16-.013,1.738,0h0q1.537.041,3.059.207,1.341.148,2.667.4,1.713.318,3.392.8,1.542.439,3.039,1.017c.295.113.589.232.882.354h0a36.314,36.314,0,0,1,3.295,1.564c.261.14.523.284.782.432q.165.093.329.191c.213.122.425.249.634.377a36.21,36.21,0,0,1,6.39,4.96c.346.339.686.682,1.02,1.036q.972,1.025,1.868,2.133c.415.512.818,1.038,1.205,1.58q.81,1.116,1.536,2.309Q6776.38,2771.722,6777.125,2773.231Z" fill="#618400"/>
          <g id="Group_1292" data-name="Group 1292" clip-path="url(#clip-path)">
            <g id="Group_1287" data-name="Group 1287">
              <g id="Group_1284" data-name="Group 1284">
                <path id="Path_2841" data-name="Path 2841" d="M5450.769,2768.9l.091.136c.059-.056.118-.115.175-.172Z" fill="#f14617"/>
                <path id="Path_2842" data-name="Path 2842" d="M5448.037,2808.759c-3.159,2.075-6.659,4.194-10.447,6.311-1.9,1.054-3.858,2.121-5.9,3.161s-4.148,2.056-6.341,2.986a59.94,59.94,0,0,1-6.836,2.447,44.685,44.685,0,0,1-5.44,1.21q1.725.371,3.485.572c.767-.147,1.53-.306,2.286-.469q3.669-.807,7.188-1.839c2.343-.686,4.623-1.453,6.822-2.3a68.788,68.788,0,0,0,6.311-2.8,63.922,63.922,0,0,0,5.687-3.242,55.777,55.777,0,0,0,4.631-3.289,36.456,36.456,0,0,0,4.06-6.647q-.517.4-1.055.8C5451.111,2806.7,5449.615,2807.719,5448.037,2808.759Z" fill="#f14617"/>
                <path id="Path_2843" data-name="Path 2843" d="M5447.473,2794.364c-1.49.939-3.081,1.883-4.748,2.857s-3.413,1.963-5.222,2.991-3.691,2.066-5.635,3.124-3.946,2.143-6.01,3.226-4.191,2.163-6.391,3.19a67.809,67.809,0,0,1-14.085,4.956q-1.861.414-3.758.672c-.631.08-1.264.148-1.9.2-.154.012-.306.021-.46.029-.48.027-.959.044-1.437.044-.534,0-1.067-.02-1.594-.065-.269-.021-.535-.051-.8-.088.206.2.417.4.63.595q.57.523,1.16,1.021c.217-.01.433-.021.649-.035s.455-.032.682-.052c1.1-.093,2.18-.244,3.249-.424,1.292-.213,2.567-.481,3.829-.763,2.522-.578,4.992-1.26,7.424-1.962s4.821-1.453,7.161-2.231,4.623-1.61,6.832-2.489,4.335-1.828,6.367-2.834a78.772,78.772,0,0,0,10.973-6.533c1.613-1.154,3.108-2.332,4.493-3.5s2.649-2.327,3.807-3.448a56.449,56.449,0,0,0,4.336-4.682c-.012-.375-.029-.752-.053-1.128a36.184,36.184,0,0,1-5.339,4.551C5450.363,2792.507,5448.97,2793.433,5447.473,2794.364Z" fill="#f14617"/>
                <path id="Path_2844" data-name="Path 2844" d="M5453.846,2775.649q-.9.759-2,1.555c-.506.369-1.042.744-1.606,1.119-1.005.675-2.1,1.361-3.275,2.055-1.387.824-2.885,1.668-4.479,2.526s-3.273,1.75-5.024,2.678q-2.164,1.143-4.471,2.367-3.29,1.745-6.834,3.641l-6.167,3.312c-2.106,1.132-4.269,2.273-6.493,3.389-1.285.645-2.593,1.277-3.923,1.886a87.772,87.772,0,0,1-10.228,3.983q-.773.243-1.551.471a52.978,52.978,0,0,1-5.541,1.334c-.17.032-.34.062-.513.09a26.024,26.024,0,0,1-3.166.342c.03.057.061.114.092.17q.381.707.789,1.391c.19-.03.378-.061.566-.093q.527-.092,1.048-.2c.318-.066.633-.136.947-.207,1.267-.295,2.515-.629,3.75-.985,1.326-.382,2.634-.79,3.933-1.209,2.091-.678,4.153-1.39,6.193-2.1l1.215-.424q3.654-1.282,7.2-2.578c2.358-.868,4.667-1.758,6.906-2.677l.458-.191q3.113-1.3,6.018-2.7,2.4-1.166,4.646-2.39c2.375-1.294,4.609-2.627,6.681-3.978,1.292-.841,2.522-1.689,3.693-2.529.36-.259.713-.517,1.063-.773,1.478-1.1,2.856-2.166,4.133-3.194,1.615-1.314,3.07-2.552,4.348-3.7q.468-.419.9-.824c.4-.366.771-.722,1.126-1.07.07-.068.137-.136.2-.2q-.034-.085-.069-.174-.089-.22-.184-.44C5454.109,2775.426,5453.979,2775.537,5453.846,2775.649Z" fill="#f14617"/>
                <path id="Path_2845" data-name="Path 2845" d="M5389.226,2801.543a54.864,54.864,0,0,0,7.829-1.662q.872-.248,1.734-.506c1.944-.584,3.854-1.223,5.736-1.887q3.654-1.3,7.141-2.736.909-.372,1.8-.756c3.983-1.7,7.765-3.509,11.3-5.375,1.017-.533,2.012-1.081,2.99-1.619.925-.509,1.828-1.017,2.71-1.535.053-.032.107-.062.159-.094,1.869-1.087,3.637-2.2,5.306-3.315s3.227-2.229,4.687-3.318l.218-.166c1.372-1.038,2.65-2.051,3.836-3.027a73.457,73.457,0,0,0,6.14-5.607c.129-.135.254-.269.377-.4.007-.008.013-.017.021-.024l-.031.007q-.16-.248-.324-.491-.259.253-.545.512c-.088.08-.179.16-.271.24a47.943,47.943,0,0,1-6.35,4.59c-2.7,1.69-5.864,3.427-9.327,5.27q-1.284.687-2.626,1.391-1.368.716-2.786,1.456c-.937.483-1.892.978-2.86,1.477s-1.965.987-2.969,1.489c-4.025,1.988-8.3,4.026-12.77,6.006q-.806.357-1.623.711c-3.974,1.721-8.1,3.371-12.347,4.75-.924.3-1.855.592-2.787.865-1.493.439-2.99.834-4.482,1.147-.742.154-1.486.288-2.211.375-.394.047-.786.081-1.164.094q.123.426.256.849.239.749.509,1.494c.672-.013,1.335-.06,1.994-.126C5388.742,2801.6,5388.985,2801.57,5389.226,2801.543Z" fill="#f14617"/>
                <path id="Path_2846" data-name="Path 2846" d="M5400.866,2767.417c3.7-2.075,7.357-3.953,10.86-5.667.878-.423,1.742-.846,2.6-1.246s1.706-.787,2.539-1.171c1.672-.754,3.289-1.482,4.85-2.157s3.066-1.316,4.509-1.888c1.138-.454,2.239-.871,3.3-1.239a35.7,35.7,0,0,0-3.5-.7c-1.6.4-3.282.871-5.025,1.43-1.666.538-3.393,1.149-5.153,1.85-.883.346-1.773.72-2.672,1.106s-1.813.781-2.729,1.2a116.357,116.357,0,0,0-11.237,5.893c-1.89,1.126-3.78,2.325-5.651,3.6-1.623,1.106-3.235,2.264-4.809,3.5a36.629,36.629,0,0,0-2.342,5.261c1.113-.978,2.31-1.915,3.526-2.817A103.334,103.334,0,0,1,5400.866,2767.417Z" fill="#f14617"/>
                <path id="Path_2847" data-name="Path 2847" d="M5387.211,2785.137a50.683,50.683,0,0,0,6.694-1.379c2.192-.583,4.344-1.246,6.469-1.921.075-.024.15-.05.226-.073q3.067-.984,6.044-2.043c2.053-.731,4.062-1.5,6.012-2.3l.45-.187q2.682-1.128,5.187-2.361l.1-.051q2.652-1.311,5.067-2.711,2.454-1.43,4.632-2.913c1.447-.984,2.8-1.977,4.042-2.955l.287-.227q1.7-1.356,3.154-2.646a49.5,49.5,0,0,0,4.683-4.7q-.24-.153-.481-.3a34.338,34.338,0,0,1-5.124,4.093c-1.14.777-2.385,1.562-3.719,2.36s-2.746,1.614-4.225,2.456q-2.032,1.155-4.235,2.365l-.4.222q-2.41,1.33-5,2.722c-1.722.921-3.494,1.874-5.321,2.825-1.787.936-3.63,1.868-5.527,2.769l-.122.059a69.774,69.774,0,0,1-12.32,4.611,34.7,34.7,0,0,1-6.439,1.119,13,13,0,0,1-2.63-.077c-.071.459-.132.921-.181,1.382.319.011.636.009.951,0C5386.068,2785.258,5386.641,2785.206,5387.211,2785.137Z" fill="#f14617"/>
              </g>
              <g id="Group_1285" data-name="Group 1285">
                <path id="Path_2848" data-name="Path 2848" d="M5449.92,2810.024a36.116,36.116,0,0,1-6.11,6.583l0,0q-2.3,1.6-4.624,3.031-2.366,1.444-4.751,2.674h0l-.007,0,0,0h-.006a36.1,36.1,0,0,1-16.51,2.722c.368-.125.737-.25,1.11-.38,3.825-1.333,7.908-2.927,12.179-4.766,2.132-.925,4.32-1.9,6.53-2.951s4.454-2.187,6.676-3.444C5446.267,2812.446,5448.119,2811.293,5449.92,2810.024Z" fill="#ff6229"/>
                <path id="Path_2849" data-name="Path 2849" d="M5456.756,2787.531q.034,1.029.01,2.053-.465.453-.936.893c-1.023.959-2.082,1.868-3.145,2.758-2.136,1.767-4.326,3.422-6.51,5.032s-4.38,3.151-6.567,4.634-4.383,2.88-6.572,4.186-4.38,2.492-6.56,3.564a84.356,84.356,0,0,1-12.711,5.069c-2.033.618-4.011,1.122-5.9,1.538s-3.706.736-5.415.991q-1.469.211-2.833.354-.732-.509-1.439-1.055c1.232-.264,2.533-.6,3.89-1.019q2.421-.725,5.078-1.729c1.769-.655,3.611-1.393,5.526-2.174s3.894-1.622,5.948-2.489,4.164-1.792,6.332-2.754,4.395-1.958,6.66-3.006,4.573-2.153,6.882-3.353a72.683,72.683,0,0,0,13.4-8.744q1.567-1.312,3.024-2.757c.478-.484.949-.979,1.4-1.484.11-.124.219-.247.325-.374C5456.68,2787.621,5456.718,2787.577,5456.756,2787.531Z" fill="#ff6229"/>
                <path id="Path_2850" data-name="Path 2850" d="M5453.892,2774.592c.087.2.173.409.256.614q.188.462.359.929l-.07.058c-1.077.885-2.175,1.727-3.283,2.546-1.188.877-2.389,1.723-3.592,2.555-1.94,1.336-3.891,2.624-5.823,3.9l-1.154.756q-3.472,2.272-6.886,4.44c-2.275,1.438-4.537,2.82-6.78,4.125l-.461.264q-3.133,1.8-6.224,3.354-2.559,1.282-5.062,2.39c-2.649,1.177-5.239,2.206-7.738,3.087-1.559.551-3.082,1.044-4.56,1.491-.455.137-.9.269-1.349.4-1.9.541-3.706,1.016-5.412,1.43-2.171.517-4.173.947-5.985,1.283-.135.026-.268.051-.4.074-.171-.27-.34-.54-.5-.815.156-.044.314-.089.473-.136.644-.192,1.312-.4,2-.637,1.228-.415,2.526-.9,3.883-1.445,1.6-.642,3.3-1.365,5.066-2.161s3.624-1.642,5.555-2.525q2.385-1.094,4.929-2.258,3.63-1.659,7.551-3.435l6.838-3.083c2.337-1.054,4.717-2.148,7.116-3.312q2.081-1.005,4.163-2.1a94.412,94.412,0,0,0,10.057-6.1q.708-.5,1.411-1.011a56.819,56.819,0,0,0,4.747-3.841q.207-.187.412-.378C5453.582,2774.893,5453.738,2774.744,5453.892,2774.592Z" fill="#ff6229"/>
                <path id="Path_2851" data-name="Path 2851" d="M5451.413,2769.771l-.182.186a58.512,58.512,0,0,1-6.519,5.573c-.518.388-1.038.768-1.561,1.145-1.765,1.272-3.553,2.479-5.344,3.646q-3.485,2.26-6.984,4.288-.908.53-1.818,1.039c-4.038,2.279-8.046,4.313-11.941,6.1-1.118.518-2.231,1.007-3.327,1.487-1.035.454-2.056.892-3.07,1.3-.064.024-.125.05-.185.074-2.144.88-4.246,1.655-6.279,2.349s-4,1.291-5.878,1.821l-.282.077q-2.668.735-5.077,1.288c-2.447.559-4.672.991-6.641,1.286-.1-.267-.2-.537-.29-.8a56.926,56.926,0,0,0,6.574-2.083c3.2-1.2,6.738-2.75,10.563-4.492q1.422-.645,2.9-1.327,1.5-.7,3.054-1.419l3.121-1.468c1.057-.5,2.121-1.028,3.2-1.553,4.314-2.126,8.833-4.43,13.433-6.941q.83-.452,1.665-.916c4.053-2.256,8.15-4.692,12.088-7.4q1.289-.883,2.555-1.8c1.347-.983,2.659-2,3.9-3.064.268-.231.534-.465.794-.7Q5450.688,2768.578,5451.413,2769.771Z" fill="#ff6229"/>
                <path id="Path_2852" data-name="Path 2852" d="M5427.04,2753.018a112.644,112.644,0,0,0-12.413,4.583c-4.177,1.79-8.16,3.677-11.9,5.536-.933.47-1.855.931-2.754,1.4s-1.784.938-2.652,1.4c-1.731.93-3.4,1.831-5,2.718q-1.762.98-3.4,1.922a36.106,36.106,0,0,1,3.882-5.48c.926-.6,1.885-1.205,2.876-1.8.87-.525,1.77-1.037,2.684-1.551s1.846-1.032,2.8-1.534a124.73,124.73,0,0,1,12.338-5.712c1.829-.728,3.7-1.424,5.609-2.074.152-.007.3-.01.456-.013.581-.015,1.159-.013,1.737,0h0q1.537.039,3.059.206Q5425.714,2752.767,5427.04,2753.018Z" fill="#ff6229"/>
                <path id="Path_2853" data-name="Path 2853" d="M5438.761,2757.376c-.054.057-.109.114-.165.17a54.3,54.3,0,0,1-5.536,4.793c-1.927,1.483-3.894,2.88-5.853,4.245-.071.05-.141.1-.21.146q-2.837,1.968-5.679,3.806-2.94,1.905-5.875,3.613c-.15.086-.3.174-.453.26-1.8,1.03-3.6,1.992-5.39,2.871l-.111.055c-1.9.933-3.772,1.78-5.609,2.541q-2.818,1.154-5.5,2.039c-1.783.589-3.5,1.087-5.151,1.509l-.38.1c-1.508.374-2.947.694-4.306.956-1.55.292-3,.522-4.321.68.028-.294.061-.586.1-.879,1.257-.3,2.617-.69,4.055-1.174,1.4-.463,2.883-1.01,4.43-1.624s3.165-1.281,4.846-1.99c1.537-.649,3.13-1.34,4.771-2.058l.451-.2q2.7-1.182,5.573-2.473c1.906-.862,3.87-1.748,5.872-2.681,1.961-.909,3.954-1.867,5.956-2.893.044-.022.087-.045.131-.066a74.587,74.587,0,0,0,11.954-7.467,37.229,37.229,0,0,0,5.152-4.745c.045-.051.089-.1.133-.156q.393.21.782.432C5438.542,2757.247,5438.651,2757.311,5438.761,2757.376Z" fill="#ff6229"/>
              </g>
              <g id="Group_1286" data-name="Group 1286">
                <path id="Path_2854" data-name="Path 2854" d="M5450.769,2768.9l.091.136c.059-.056.118-.115.175-.172Z" fill="#f14617"/>
                <path id="Path_2855" data-name="Path 2855" d="M5448.037,2808.759c-3.159,2.075-6.659,4.194-10.447,6.311-1.9,1.054-3.858,2.121-5.9,3.161s-4.148,2.056-6.341,2.986a59.94,59.94,0,0,1-6.836,2.447,44.685,44.685,0,0,1-5.44,1.21q1.725.371,3.485.572c.767-.147,1.53-.306,2.286-.469q3.669-.807,7.188-1.839c2.343-.686,4.623-1.453,6.822-2.3a68.788,68.788,0,0,0,6.311-2.8,63.922,63.922,0,0,0,5.687-3.242,55.777,55.777,0,0,0,4.631-3.289,36.456,36.456,0,0,0,4.06-6.647q-.517.4-1.055.8C5451.111,2806.7,5449.615,2807.719,5448.037,2808.759Z" fill="#f14617"/>
                <path id="Path_2856" data-name="Path 2856" d="M5447.473,2794.364c-1.49.939-3.081,1.883-4.748,2.857s-3.413,1.963-5.222,2.991-3.691,2.066-5.635,3.124-3.946,2.143-6.01,3.226-4.191,2.163-6.391,3.19a67.809,67.809,0,0,1-14.085,4.956q-1.861.414-3.758.672c-.631.08-1.264.148-1.9.2-.154.012-.306.021-.46.029-.48.027-.959.044-1.437.044-.534,0-1.067-.02-1.594-.065-.269-.021-.535-.051-.8-.088.206.2.417.4.63.595q.57.523,1.16,1.021c.217-.01.433-.021.649-.035s.455-.032.682-.052c1.1-.093,2.18-.244,3.249-.424,1.292-.213,2.567-.481,3.829-.763,2.522-.578,4.992-1.26,7.424-1.962s4.821-1.453,7.161-2.231,4.623-1.61,6.832-2.489,4.335-1.828,6.367-2.834a78.772,78.772,0,0,0,10.973-6.533c1.613-1.154,3.108-2.332,4.493-3.5s2.649-2.327,3.807-3.448a56.449,56.449,0,0,0,4.336-4.682c-.012-.375-.029-.752-.053-1.128a36.184,36.184,0,0,1-5.339,4.551C5450.363,2792.507,5448.97,2793.433,5447.473,2794.364Z" fill="#f14617"/>
                <path id="Path_2857" data-name="Path 2857" d="M5453.846,2775.649q-.9.759-2,1.555c-.506.369-1.042.744-1.606,1.119-1.005.675-2.1,1.361-3.275,2.055-1.387.824-2.885,1.668-4.479,2.526s-3.273,1.75-5.024,2.678q-2.164,1.143-4.471,2.367-3.29,1.745-6.834,3.641l-6.167,3.312c-2.106,1.132-4.269,2.273-6.493,3.389-1.285.645-2.593,1.277-3.923,1.886a87.772,87.772,0,0,1-10.228,3.983q-.773.243-1.551.471a52.978,52.978,0,0,1-5.541,1.334c-.17.032-.34.062-.513.09a26.024,26.024,0,0,1-3.166.342c.03.057.061.114.092.17q.381.707.789,1.391c.19-.03.378-.061.566-.093q.527-.092,1.048-.2c.318-.066.633-.136.947-.207,1.267-.295,2.515-.629,3.75-.985,1.326-.382,2.634-.79,3.933-1.209,2.091-.678,4.153-1.39,6.193-2.1l1.215-.424q3.654-1.282,7.2-2.578c2.358-.868,4.667-1.758,6.906-2.677l.458-.191q3.113-1.3,6.018-2.7,2.4-1.166,4.646-2.39c2.375-1.294,4.609-2.627,6.681-3.978,1.292-.841,2.522-1.689,3.693-2.529.36-.259.713-.517,1.063-.773,1.478-1.1,2.856-2.166,4.133-3.194,1.615-1.314,3.07-2.552,4.348-3.7q.468-.419.9-.824c.4-.366.771-.722,1.126-1.07.07-.068.137-.136.2-.2q-.034-.085-.069-.174-.089-.22-.184-.44C5454.109,2775.426,5453.979,2775.537,5453.846,2775.649Z" fill="#f14617"/>
                <path id="Path_2858" data-name="Path 2858" d="M5389.226,2801.543a54.864,54.864,0,0,0,7.829-1.662q.872-.248,1.734-.506c1.944-.584,3.854-1.223,5.736-1.887q3.654-1.3,7.141-2.736.909-.372,1.8-.756c3.983-1.7,7.765-3.509,11.3-5.375,1.017-.533,2.012-1.081,2.99-1.619.925-.509,1.828-1.017,2.71-1.535.053-.032.107-.062.159-.094,1.869-1.087,3.637-2.2,5.306-3.315s3.227-2.229,4.687-3.318l.218-.166c1.372-1.038,2.65-2.051,3.836-3.027a73.457,73.457,0,0,0,6.14-5.607c.129-.135.254-.269.377-.4.007-.008.013-.017.021-.024l-.031.007q-.16-.248-.324-.491-.259.253-.545.512c-.088.08-.179.16-.271.24a47.943,47.943,0,0,1-6.35,4.59c-2.7,1.69-5.864,3.427-9.327,5.27q-1.284.687-2.626,1.391-1.368.716-2.786,1.456c-.937.483-1.892.978-2.86,1.477s-1.965.987-2.969,1.489c-4.025,1.988-8.3,4.026-12.77,6.006q-.806.357-1.623.711c-3.974,1.721-8.1,3.371-12.347,4.75-.924.3-1.855.592-2.787.865-1.493.439-2.99.834-4.482,1.147-.742.154-1.486.288-2.211.375-.394.047-.786.081-1.164.094q.123.426.256.849.239.749.509,1.494c.672-.013,1.335-.06,1.994-.126C5388.742,2801.6,5388.985,2801.57,5389.226,2801.543Z" fill="#f14617"/>
                <path id="Path_2859" data-name="Path 2859" d="M5400.866,2767.417c3.7-2.075,7.357-3.953,10.86-5.667.878-.423,1.742-.846,2.6-1.246s1.706-.787,2.539-1.171c1.672-.754,3.289-1.482,4.85-2.157s3.066-1.316,4.509-1.888c1.138-.454,2.239-.871,3.3-1.239a35.7,35.7,0,0,0-3.5-.7c-1.6.4-3.282.871-5.025,1.43-1.666.538-3.393,1.149-5.153,1.85-.883.346-1.773.72-2.672,1.106s-1.813.781-2.729,1.2a116.357,116.357,0,0,0-11.237,5.893c-1.89,1.126-3.78,2.325-5.651,3.6-1.623,1.106-3.235,2.264-4.809,3.5a36.629,36.629,0,0,0-2.342,5.261c1.113-.978,2.31-1.915,3.526-2.817A103.334,103.334,0,0,1,5400.866,2767.417Z" fill="#f14617"/>
                <path id="Path_2860" data-name="Path 2860" d="M5387.211,2785.137a50.683,50.683,0,0,0,6.694-1.379c2.192-.583,4.344-1.246,6.469-1.921.075-.024.15-.05.226-.073q3.067-.984,6.044-2.043c2.053-.731,4.062-1.5,6.012-2.3l.45-.187q2.682-1.128,5.187-2.361l.1-.051q2.652-1.311,5.067-2.711,2.454-1.43,4.632-2.913c1.447-.984,2.8-1.977,4.042-2.955l.287-.227q1.7-1.356,3.154-2.646a49.5,49.5,0,0,0,4.683-4.7q-.24-.153-.481-.3a34.338,34.338,0,0,1-5.124,4.093c-1.14.777-2.385,1.562-3.719,2.36s-2.746,1.614-4.225,2.456q-2.032,1.155-4.235,2.365l-.4.222q-2.41,1.33-5,2.722c-1.722.921-3.494,1.874-5.321,2.825-1.787.936-3.63,1.868-5.527,2.769l-.122.059a69.774,69.774,0,0,1-12.32,4.611,34.7,34.7,0,0,1-6.439,1.119,13,13,0,0,1-2.63-.077c-.071.459-.132.921-.181,1.382.319.011.636.009.951,0C5386.068,2785.258,5386.641,2785.206,5387.211,2785.137Z" fill="#f14617"/>
              </g>
            </g>
            <g id="Group_1291" data-name="Group 1291">
              <g id="Group_1288" data-name="Group 1288">
                <path id="Path_2861" data-name="Path 2861" d="M6774.6,2768.9l.091.136c.059-.056.118-.115.175-.172Z" fill="#f14617"/>
                <path id="Path_2862" data-name="Path 2862" d="M6771.873,2808.759c-3.159,2.075-6.659,4.194-10.447,6.311-1.9,1.054-3.858,2.121-5.9,3.161s-4.148,2.056-6.342,2.986a59.857,59.857,0,0,1-6.835,2.447,44.665,44.665,0,0,1-5.44,1.21q1.725.371,3.485.572c.766-.147,1.529-.306,2.286-.469q3.669-.807,7.188-1.839c2.343-.686,4.623-1.453,6.822-2.3a68.906,68.906,0,0,0,6.311-2.8,63.922,63.922,0,0,0,5.687-3.242,55.85,55.85,0,0,0,4.63-3.289,36.431,36.431,0,0,0,4.061-6.647q-.517.4-1.055.8C6774.947,2806.7,6773.451,2807.719,6771.873,2808.759Z" fill="#f14617"/>
                <path id="Path_2863" data-name="Path 2863" d="M6771.309,2794.364c-1.49.939-3.082,1.883-4.748,2.857s-3.413,1.963-5.222,2.991-3.691,2.066-5.635,3.124-3.947,2.143-6.01,3.226-4.191,2.163-6.391,3.19a67.823,67.823,0,0,1-14.085,4.956q-1.861.414-3.758.672c-.631.08-1.264.148-1.9.2-.154.012-.306.021-.46.029-.48.027-.96.044-1.437.044-.534,0-1.067-.02-1.594-.065-.269-.021-.535-.051-.8-.088.206.2.417.4.63.595q.571.523,1.16,1.021c.217-.01.433-.021.649-.035s.455-.032.682-.052c1.1-.093,2.18-.244,3.249-.424,1.292-.213,2.567-.481,3.829-.763,2.522-.578,4.992-1.26,7.424-1.962s4.821-1.453,7.161-2.231,4.623-1.61,6.832-2.489,4.335-1.828,6.367-2.834a78.7,78.7,0,0,0,10.972-6.533c1.614-1.154,3.109-2.332,4.493-3.5s2.649-2.327,3.808-3.448a56.631,56.631,0,0,0,4.336-4.682c-.012-.375-.029-.752-.053-1.128a36.184,36.184,0,0,1-5.339,4.551C6774.2,2792.507,6772.806,2793.433,6771.309,2794.364Z" fill="#f14617"/>
                <path id="Path_2864" data-name="Path 2864" d="M6777.682,2775.649q-.9.759-2,1.555c-.506.369-1.042.744-1.606,1.119-1,.675-2.1,1.361-3.275,2.055-1.387.824-2.885,1.668-4.479,2.526s-3.273,1.75-5.024,2.678q-2.164,1.143-4.472,2.367-3.289,1.745-6.833,3.641l-6.167,3.312c-2.106,1.132-4.269,2.273-6.493,3.389-1.285.645-2.593,1.277-3.923,1.886a87.738,87.738,0,0,1-10.228,3.983q-.773.243-1.551.471a53.058,53.058,0,0,1-5.541,1.334c-.171.032-.341.062-.513.09a26.024,26.024,0,0,1-3.166.342c.03.057.06.114.092.17.254.471.516.935.789,1.391q.283-.045.566-.093.527-.092,1.048-.2c.317-.066.633-.136.947-.207,1.267-.295,2.515-.629,3.75-.985,1.325-.382,2.634-.79,3.933-1.209,2.09-.678,4.152-1.39,6.193-2.1l1.214-.424q3.656-1.282,7.2-2.578c2.358-.868,4.667-1.758,6.906-2.677l.457-.191c2.076-.867,4.087-1.765,6.019-2.7q2.4-1.166,4.646-2.39c2.375-1.294,4.609-2.627,6.681-3.978,1.292-.841,2.522-1.689,3.693-2.529.36-.259.713-.517,1.063-.773,1.478-1.1,2.856-2.166,4.132-3.194,1.616-1.314,3.071-2.552,4.349-3.7.311-.279.613-.554.9-.824q.594-.549,1.126-1.07c.07-.068.137-.136.2-.2-.023-.057-.046-.115-.069-.174q-.089-.22-.184-.44C6777.945,2775.426,6777.815,2775.537,6777.682,2775.649Z" fill="#f14617"/>
                <path id="Path_2865" data-name="Path 2865" d="M6713.062,2801.543a54.794,54.794,0,0,0,7.828-1.662c.582-.165,1.159-.333,1.735-.506,1.944-.584,3.854-1.223,5.736-1.887q3.654-1.3,7.141-2.736.909-.372,1.8-.756c3.982-1.7,7.765-3.509,11.3-5.375,1.017-.533,2.012-1.081,2.99-1.619.925-.509,1.828-1.017,2.709-1.535.054-.032.108-.062.16-.094,1.869-1.087,3.636-2.2,5.305-3.315s3.228-2.229,4.688-3.318l.218-.166c1.372-1.038,2.65-2.051,3.836-3.027a73.256,73.256,0,0,0,6.139-5.607c.13-.135.254-.269.377-.4.008-.008.014-.017.022-.024l-.032.007q-.159-.248-.323-.491-.261.253-.545.512-.132.12-.272.24a47.894,47.894,0,0,1-6.349,4.59c-2.7,1.69-5.864,3.427-9.327,5.27q-1.284.687-2.627,1.391l-2.785,1.456c-.937.483-1.892.978-2.86,1.477s-1.965.987-2.969,1.489c-4.025,1.988-8.3,4.026-12.77,6.006q-.806.357-1.623.711c-3.974,1.721-8.1,3.371-12.347,4.75-.924.3-1.855.592-2.787.865-1.493.439-2.991.834-4.482,1.147-.742.154-1.486.288-2.211.375-.394.047-.786.081-1.164.094q.123.426.256.849c.158.5.329,1,.509,1.494.672-.013,1.335-.06,1.994-.126C6712.578,2801.6,6712.821,2801.57,6713.062,2801.543Z" fill="#f14617"/>
                <path id="Path_2866" data-name="Path 2866" d="M6724.7,2767.417c3.7-2.075,7.357-3.953,10.86-5.667.878-.423,1.742-.846,2.6-1.246s1.706-.787,2.539-1.171c1.671-.754,3.289-1.482,4.85-2.157s3.066-1.316,4.509-1.888c1.138-.454,2.238-.871,3.3-1.239a35.6,35.6,0,0,0-3.5-.7c-1.6.4-3.282.871-5.025,1.43-1.666.538-3.393,1.149-5.154,1.85-.882.346-1.772.72-2.672,1.106s-1.812.781-2.728,1.2a116.243,116.243,0,0,0-11.237,5.893c-1.89,1.126-3.78,2.325-5.651,3.6-1.623,1.106-3.235,2.264-4.809,3.5a36.522,36.522,0,0,0-2.342,5.261c1.112-.978,2.31-1.915,3.526-2.817A103.328,103.328,0,0,1,6724.7,2767.417Z" fill="#f14617"/>
                <path id="Path_2867" data-name="Path 2867" d="M6711.047,2785.137a50.69,50.69,0,0,0,6.694-1.379c2.192-.583,4.344-1.246,6.469-1.921.075-.024.15-.05.226-.073q3.067-.984,6.044-2.043c2.052-.731,4.062-1.5,6.012-2.3l.45-.187q2.682-1.128,5.187-2.361l.1-.051q2.652-1.311,5.067-2.711,2.454-1.43,4.632-2.913c1.447-.984,2.795-1.977,4.042-2.955.1-.077.192-.151.287-.227q1.7-1.356,3.154-2.646a49.363,49.363,0,0,0,4.682-4.7q-.239-.153-.48-.3a34.389,34.389,0,0,1-5.124,4.093c-1.14.777-2.385,1.562-3.719,2.36s-2.746,1.614-4.225,2.456q-2.032,1.155-4.235,2.365l-.4.222q-2.409,1.33-5,2.722c-1.722.921-3.494,1.874-5.321,2.825-1.787.936-3.63,1.868-5.527,2.769l-.122.059a69.779,69.779,0,0,1-12.32,4.611,34.717,34.717,0,0,1-6.439,1.119,12.994,12.994,0,0,1-2.63-.077c-.071.459-.133.921-.181,1.382.319.011.636.009.951,0C6709.9,2785.258,6710.477,2785.206,6711.047,2785.137Z" fill="#f14617"/>
              </g>
              <g id="Group_1289" data-name="Group 1289">
                <path id="Path_2868" data-name="Path 2868" d="M6773.756,2810.024a36.116,36.116,0,0,1-6.11,6.583l0,0q-2.3,1.6-4.623,3.031-2.366,1.444-4.751,2.674h0l-.007,0,0,0h-.007a36.1,36.1,0,0,1-16.509,2.722c.367-.125.737-.25,1.11-.38,3.825-1.333,7.908-2.927,12.179-4.766,2.132-.925,4.32-1.9,6.53-2.951s4.453-2.187,6.676-3.444C6770.1,2812.446,6771.955,2811.293,6773.756,2810.024Z" fill="#1e6e12"/>
                <path id="Path_2869" data-name="Path 2869" d="M6780.592,2787.531q.035,1.029.009,2.053-.464.453-.935.893c-1.023.959-2.082,1.868-3.145,2.758-2.137,1.767-4.326,3.422-6.511,5.032s-4.379,3.151-6.566,4.634-4.383,2.88-6.572,4.186-4.38,2.492-6.56,3.564a84.325,84.325,0,0,1-12.712,5.069c-2.032.618-4.011,1.122-5.9,1.538s-3.706.736-5.415.991q-1.471.211-2.833.354-.732-.509-1.439-1.055c1.232-.264,2.533-.6,3.89-1.019q2.421-.725,5.077-1.729c1.77-.655,3.611-1.393,5.527-2.174s3.894-1.622,5.947-2.489,4.165-1.792,6.332-2.754,4.4-1.958,6.661-3.006,4.573-2.153,6.882-3.353a72.716,72.716,0,0,0,13.4-8.744q1.567-1.312,3.024-2.757c.478-.484.949-.979,1.4-1.484.11-.124.218-.247.325-.374C6780.515,2787.621,6780.554,2787.577,6780.592,2787.531Z" fill="#1e6e12"/>
                <path id="Path_2870" data-name="Path 2870" d="M6777.728,2774.592c.087.2.173.409.256.614q.188.462.359.929l-.07.058c-1.077.885-2.175,1.727-3.283,2.546-1.188.877-2.39,1.723-3.592,2.555-1.94,1.336-3.891,2.624-5.823,3.9l-1.154.756q-3.472,2.272-6.886,4.44c-2.275,1.438-4.537,2.82-6.78,4.125-.154.088-.306.176-.461.264q-3.135,1.8-6.224,3.354-2.559,1.282-5.063,2.39c-2.649,1.177-5.238,2.206-7.738,3.087-1.558.551-3.081,1.044-4.559,1.491-.455.137-.9.269-1.349.4-1.9.541-3.706,1.016-5.412,1.43-2.172.517-4.173.947-5.985,1.283-.135.026-.268.051-.4.074-.171-.27-.34-.54-.5-.815.155-.044.314-.089.473-.136.644-.192,1.312-.4,2-.637,1.227-.415,2.526-.9,3.883-1.445,1.6-.642,3.3-1.365,5.066-2.161s3.624-1.642,5.555-2.525q2.383-1.094,4.929-2.258,3.631-1.659,7.551-3.435l6.838-3.083c2.336-1.054,4.717-2.148,7.116-3.312,1.387-.67,2.778-1.372,4.163-2.1a94.51,94.51,0,0,0,10.057-6.1q.707-.5,1.411-1.011a57.139,57.139,0,0,0,4.747-3.841c.138-.125.274-.251.411-.378C6777.418,2774.893,6777.574,2774.744,6777.728,2774.592Z" fill="#1e6e12"/>
                <path id="Path_2871" data-name="Path 2871" d="M6775.249,2769.771l-.182.186a58.434,58.434,0,0,1-6.52,5.573c-.518.388-1.037.768-1.56,1.145-1.765,1.272-3.553,2.479-5.344,3.646q-3.485,2.26-6.984,4.288-.907.53-1.818,1.039c-4.038,2.279-8.046,4.313-11.941,6.1-1.118.518-2.231,1.007-3.327,1.487-1.035.454-2.057.892-3.07,1.3-.064.024-.125.05-.186.074-2.143.88-4.245,1.655-6.279,2.349s-4,1.291-5.877,1.821l-.282.077q-2.668.735-5.078,1.288c-2.446.559-4.671.991-6.64,1.286-.1-.267-.2-.537-.29-.8a56.926,56.926,0,0,0,6.574-2.083c3.2-1.2,6.738-2.75,10.563-4.492q1.422-.645,2.9-1.327,1.5-.7,3.054-1.419l3.121-1.468c1.057-.5,2.121-1.028,3.2-1.553,4.314-2.126,8.834-4.43,13.434-6.941q.83-.452,1.664-.916c4.054-2.256,8.151-4.692,12.089-7.4.859-.589,1.713-1.191,2.555-1.8,1.347-.983,2.658-2,3.9-3.064.268-.231.534-.465.794-.7Q6774.522,2768.578,6775.249,2769.771Z" fill="#1e6e12"/>
                <path id="Path_2872" data-name="Path 2872" d="M6750.876,2753.018a112.57,112.57,0,0,0-12.413,4.583c-4.177,1.79-8.16,3.677-11.9,5.536-.933.47-1.856.931-2.754,1.4s-1.784.938-2.652,1.4c-1.731.93-3.4,1.831-5,2.718q-1.761.98-3.394,1.922a36.069,36.069,0,0,1,3.882-5.48c.926-.6,1.885-1.205,2.876-1.8.87-.525,1.77-1.037,2.684-1.551s1.846-1.032,2.8-1.534a124.584,124.584,0,0,1,12.338-5.712c1.828-.728,3.7-1.424,5.608-2.074.152-.007.3-.01.456-.013.582-.015,1.16-.013,1.738,0h0q1.537.039,3.059.206Q6749.55,2752.767,6750.876,2753.018Z" fill="#1e6e12"/>
                <path id="Path_2873" data-name="Path 2873" d="M6762.6,2757.376c-.054.057-.109.114-.165.17a54.3,54.3,0,0,1-5.536,4.793c-1.927,1.483-3.894,2.88-5.853,4.245-.071.05-.141.1-.21.146q-2.837,1.968-5.679,3.806-2.94,1.905-5.875,3.613c-.151.086-.3.174-.453.26-1.8,1.03-3.6,1.992-5.39,2.871l-.111.055c-1.9.933-3.772,1.78-5.61,2.541q-2.817,1.154-5.495,2.039c-1.783.589-3.505,1.087-5.151,1.509l-.38.1c-1.508.374-2.947.694-4.306.956-1.551.292-3,.522-4.321.68.028-.294.061-.586.1-.879,1.257-.3,2.617-.69,4.055-1.174,1.4-.463,2.883-1.01,4.43-1.624s3.165-1.281,4.846-1.99c1.537-.649,3.13-1.34,4.771-2.058l.45-.2q2.7-1.182,5.573-2.473c1.907-.862,3.871-1.748,5.873-2.681,1.961-.909,3.954-1.867,5.956-2.893.044-.022.087-.045.131-.066a74.612,74.612,0,0,0,11.954-7.467,37.252,37.252,0,0,0,5.152-4.745c.045-.051.089-.1.133-.156q.393.21.782.432C6762.378,2757.247,6762.487,2757.311,6762.6,2757.376Z" fill="#1e6e12"/>
              </g>
              <g id="Group_1290" data-name="Group 1290">
                <path id="Path_2874" data-name="Path 2874" d="M6774.6,2768.9l.091.136c.059-.056.118-.115.175-.172Z" fill="#bbd25f"/>
                <path id="Path_2875" data-name="Path 2875" d="M6771.873,2808.759c-3.159,2.075-6.659,4.194-10.447,6.311-1.9,1.054-3.858,2.121-5.9,3.161s-4.148,2.056-6.342,2.986a59.857,59.857,0,0,1-6.835,2.447,44.665,44.665,0,0,1-5.44,1.21q1.725.371,3.485.572c.766-.147,1.529-.306,2.286-.469q3.669-.807,7.188-1.839c2.343-.686,4.623-1.453,6.822-2.3a68.906,68.906,0,0,0,6.311-2.8,63.922,63.922,0,0,0,5.687-3.242,55.85,55.85,0,0,0,4.63-3.289,36.431,36.431,0,0,0,4.061-6.647q-.517.4-1.055.8C6774.947,2806.7,6773.451,2807.719,6771.873,2808.759Z" fill="#bbd25f"/>
                <path id="Path_2876" data-name="Path 2876" d="M6771.309,2794.364c-1.49.939-3.082,1.883-4.748,2.857s-3.413,1.963-5.222,2.991-3.691,2.066-5.635,3.124-3.947,2.143-6.01,3.226-4.191,2.163-6.391,3.19a67.823,67.823,0,0,1-14.085,4.956q-1.861.414-3.758.672c-.631.08-1.264.148-1.9.2-.154.012-.306.021-.46.029-.48.027-.96.044-1.437.044-.534,0-1.067-.02-1.594-.065-.269-.021-.535-.051-.8-.088.206.2.417.4.63.595q.571.523,1.16,1.021c.217-.01.433-.021.649-.035s.455-.032.682-.052c1.1-.093,2.18-.244,3.249-.424,1.292-.213,2.567-.481,3.829-.763,2.522-.578,4.992-1.26,7.424-1.962s4.821-1.453,7.161-2.231,4.623-1.61,6.832-2.489,4.335-1.828,6.367-2.834a78.7,78.7,0,0,0,10.972-6.533c1.614-1.154,3.109-2.332,4.493-3.5s2.649-2.327,3.808-3.448a56.631,56.631,0,0,0,4.336-4.682c-.012-.375-.029-.752-.053-1.128a36.184,36.184,0,0,1-5.339,4.551C6774.2,2792.507,6772.806,2793.433,6771.309,2794.364Z" fill="#bbd25f"/>
                <path id="Path_2877" data-name="Path 2877" d="M6777.682,2775.649q-.9.759-2,1.555c-.506.369-1.042.744-1.606,1.119-1,.675-2.1,1.361-3.275,2.055-1.387.824-2.885,1.668-4.479,2.526s-3.273,1.75-5.024,2.678q-2.164,1.143-4.472,2.367-3.289,1.745-6.833,3.641l-6.167,3.312c-2.106,1.132-4.269,2.273-6.493,3.389-1.285.645-2.593,1.277-3.923,1.886a87.738,87.738,0,0,1-10.228,3.983q-.773.243-1.551.471a53.058,53.058,0,0,1-5.541,1.334c-.171.032-.341.062-.513.09a26.024,26.024,0,0,1-3.166.342c.03.057.06.114.092.17.254.471.516.935.789,1.391q.283-.045.566-.093.527-.092,1.048-.2c.317-.066.633-.136.947-.207,1.267-.295,2.515-.629,3.75-.985,1.325-.382,2.634-.79,3.933-1.209,2.09-.678,4.152-1.39,6.193-2.1l1.214-.424q3.656-1.282,7.2-2.578c2.358-.868,4.667-1.758,6.906-2.677l.457-.191c2.076-.867,4.087-1.765,6.019-2.7q2.4-1.166,4.646-2.39c2.375-1.294,4.609-2.627,6.681-3.978,1.292-.841,2.522-1.689,3.693-2.529.36-.259.713-.517,1.063-.773,1.478-1.1,2.856-2.166,4.132-3.194,1.616-1.314,3.071-2.552,4.349-3.7.311-.279.613-.554.9-.824q.594-.549,1.126-1.07c.07-.068.137-.136.2-.2-.023-.057-.046-.115-.069-.174q-.089-.22-.184-.44C6777.945,2775.426,6777.815,2775.537,6777.682,2775.649Z" fill="#bbd25f"/>
                <path id="Path_2878" data-name="Path 2878" d="M6713.062,2801.543a54.794,54.794,0,0,0,7.828-1.662c.582-.165,1.159-.333,1.735-.506,1.944-.584,3.854-1.223,5.736-1.887q3.654-1.3,7.141-2.736.909-.372,1.8-.756c3.982-1.7,7.765-3.509,11.3-5.375,1.017-.533,2.012-1.081,2.99-1.619.925-.509,1.828-1.017,2.709-1.535.054-.032.108-.062.16-.094,1.869-1.087,3.636-2.2,5.305-3.315s3.228-2.229,4.688-3.318l.218-.166c1.372-1.038,2.65-2.051,3.836-3.027a73.256,73.256,0,0,0,6.139-5.607c.13-.135.254-.269.377-.4.008-.008.014-.017.022-.024l-.032.007q-.159-.248-.323-.491-.261.253-.545.512-.132.12-.272.24a47.894,47.894,0,0,1-6.349,4.59c-2.7,1.69-5.864,3.427-9.327,5.27q-1.284.687-2.627,1.391l-2.785,1.456c-.937.483-1.892.978-2.86,1.477s-1.965.987-2.969,1.489c-4.025,1.988-8.3,4.026-12.77,6.006q-.806.357-1.623.711c-3.974,1.721-8.1,3.371-12.347,4.75-.924.3-1.855.592-2.787.865-1.493.439-2.991.834-4.482,1.147-.742.154-1.486.288-2.211.375-.394.047-.786.081-1.164.094q.123.426.256.849c.158.5.329,1,.509,1.494.672-.013,1.335-.06,1.994-.126C6712.578,2801.6,6712.821,2801.57,6713.062,2801.543Z" fill="#bbd25f"/>
                <path id="Path_2879" data-name="Path 2879" d="M6724.7,2767.417c3.7-2.075,7.357-3.953,10.86-5.667.878-.423,1.742-.846,2.6-1.246s1.706-.787,2.539-1.171c1.671-.754,3.289-1.482,4.85-2.157s3.066-1.316,4.509-1.888c1.138-.454,2.238-.871,3.3-1.239a35.6,35.6,0,0,0-3.5-.7c-1.6.4-3.282.871-5.025,1.43-1.666.538-3.393,1.149-5.154,1.85-.882.346-1.772.72-2.672,1.106s-1.812.781-2.728,1.2a116.243,116.243,0,0,0-11.237,5.893c-1.89,1.126-3.78,2.325-5.651,3.6-1.623,1.106-3.235,2.264-4.809,3.5a36.522,36.522,0,0,0-2.342,5.261c1.112-.978,2.31-1.915,3.526-2.817A103.328,103.328,0,0,1,6724.7,2767.417Z" fill="#bbd25f"/>
                <path id="Path_2880" data-name="Path 2880" d="M6711.047,2785.137a50.69,50.69,0,0,0,6.694-1.379c2.192-.583,4.344-1.246,6.469-1.921.075-.024.15-.05.226-.073q3.067-.984,6.044-2.043c2.052-.731,4.062-1.5,6.012-2.3l.45-.187q2.682-1.128,5.187-2.361l.1-.051q2.652-1.311,5.067-2.711,2.454-1.43,4.632-2.913c1.447-.984,2.795-1.977,4.042-2.955.1-.077.192-.151.287-.227q1.7-1.356,3.154-2.646a49.363,49.363,0,0,0,4.682-4.7q-.239-.153-.48-.3a34.389,34.389,0,0,1-5.124,4.093c-1.14.777-2.385,1.562-3.719,2.36s-2.746,1.614-4.225,2.456q-2.032,1.155-4.235,2.365l-.4.222q-2.409,1.33-5,2.722c-1.722.921-3.494,1.874-5.321,2.825-1.787.936-3.63,1.868-5.527,2.769l-.122.059a69.779,69.779,0,0,1-12.32,4.611,34.717,34.717,0,0,1-6.439,1.119,12.994,12.994,0,0,1-2.63-.077c-.071.459-.133.921-.181,1.382.319.011.636.009.951,0C6709.9,2785.258,6710.477,2785.206,6711.047,2785.137Z" fill="#bbd25f"/>
              </g>
            </g>
            <path id="Path_2881" data-name="Path 2881" d="M6745.466,2792.89c-18.323,9.348-34.32,14.691-35.725,11.937l6.013,11.787c1.405,2.754,17.4-2.589,35.725-11.937s32.039-19.162,30.634-21.916l-6.013-11.787C6777.5,2773.729,6763.79,2783.543,6745.466,2792.89Z" fill="#1e5412" opacity="0.8" style="mix-blend-mode: multiply;isolation: isolate"/>
          </g>
        </g>
        <path id="Path_2883" data-name="Path 2883" d="M6711.906,2805.4c.124.252.251.5.381.749.073.14.145.279.22.417a36.19,36.19,0,0,0,11.431,12.735q1.016.694,2.075,1.319,1.518.9,3.112,1.64a36.634,36.634,0,0,0,3.439,1.4,36.389,36.389,0,0,0,48.251-32.133h0a36.147,36.147,0,0,0-2.56-15.77q-.514-1.27-1.13-2.522a36.385,36.385,0,0,0-4.346-6.8q-.9-1.109-1.867-2.133-.5-.529-1.021-1.035a36.141,36.141,0,0,0-6.391-4.961c-.317-.194-.638-.384-.961-.568a36.574,36.574,0,0,0-4.078-2h0a36.149,36.149,0,0,0-3.922-1.371,36.7,36.7,0,0,0-6.058-1.2q-1.523-.167-3.059-.207h0q-.867-.022-1.738,0c8.626,2.982,16.682,7.025,23.056,13.984,6.065,6.622,9.974,15.433,9.743,24.411a27.589,27.589,0,0,1-8.152,18.951c-5.575,5.378-13.72,9.705-21.521,10.107a34.913,34.913,0,0,1-36.213-27.738c-.874-4.036-1.91-7.148-1.554-11.335q-.231,1.026-.4,2.066A36.2,36.2,0,0,0,6711.906,2805.4Z" opacity="0.1"/>
        <path id="Path_2884" data-name="Path 2884" d="M6711.9,2805.4c.124.252.251.5.381.749.073.14.145.279.22.417a36.178,36.178,0,0,0,11.431,12.734q1.015.7,2.075,1.319,1.518.9,3.113,1.641a36.773,36.773,0,0,0,3.438,1.4,36.391,36.391,0,0,0,48.251-32.133h0a36.147,36.147,0,0,0-2.56-15.77q-.514-1.27-1.129-2.522a36.439,36.439,0,0,0-4.347-6.8q-.9-1.11-1.867-2.133c-.333-.354-.674-.7-1.021-1.036a36.181,36.181,0,0,0-6.391-4.96q-.475-.293-.961-.568a36.322,36.322,0,0,0-4.078-2h0q-.439-.183-.882-.354-1.5-.576-3.039-1.017a36.713,36.713,0,0,0-6.059-1.2q-1.521-.167-3.059-.207h0c-.578-.015-1.157-.017-1.738,0-.34.007-.68.018-1.02.036s-.706.042-1.058.07a35.736,35.736,0,0,0-5.072.773q-1.437.323-2.863.77a36.614,36.614,0,0,0-14.946,9.071l-.007.009a36.339,36.339,0,0,0-8.528,13.643c-.371,1.059-.691,2.137-.963,3.226-.065.261-.126.521-.183.782q-.233,1.026-.4,2.066A36.2,36.2,0,0,0,6711.9,2805.4Zm6.168-37.282a30.824,30.824,0,0,1,16.632-9.036c11.748-1.988,22.608,4.6,27.848,14.869,3.048,5.974,3.962,12.8,1.593,19.178-7.054,19.006-35.712,21.008-46.422,4.524C6711.85,2788.614,6710.4,2775.969,6718.073,2768.118Z" opacity="0.1"/>
        <path id="Path_2885" data-name="Path 2885" d="M6736.085,2778.5a8.574,8.574,0,0,1-6.149,10.271c-4.753,1.327-9.169.4-11.491-4.526a9.995,9.995,0,0,1,.464-9.235C6723.71,2767,6734.019,2770.355,6736.085,2778.5Z" fill="#fff" opacity="0.34"/>
      </g>
    </g>
  </g>
</svg>
