<svg xmlns="http://www.w3.org/2000/svg" width="136.026" height="129.788" viewBox="0 0 136.026 129.788">
  <g id="Group_7286" data-name="Group 7286" transform="translate(-84.512 -2808.333)">
    <path id="Path_3028" data-name="Path 3028" d="M6258.825,2834.952c-.184-1.139-.391-2.524-.614-4.024a132.865,132.865,0,0,0-2.751-14.581l-1.1-4.088s-29.476,30.489-31.289,32.493a10.5,10.5,0,0,0-3.893-3.341c-.61-.276-1.082-.9-1.861-1.983-1.7-2.354-4.263-5.913-11.827-6.894a11.762,11.762,0,0,1-5.5-1.721,13.368,13.368,0,0,0-2.9-1.367l-.816-1.113c-1.64-2.239-4.038-3.281-7.544-3.281-.37,0-.761.011-1.179.035a11.6,11.6,0,0,0-6.3,2.112,8.212,8.212,0,0,1-3.872,1.508c-1.009.144-2.156.244-3.349.348a36.121,36.121,0,0,0-8.184,1.345,63.069,63.069,0,0,0-10.975,5.2c-.571.326-1.081.616-1.515.851a14.8,14.8,0,0,0-5.982,6.311,29.871,29.871,0,0,1-6.153,7.954c-.585.556-1.1,1.045-1.494,1.464-2.986,3.151-3.066,5.167-2.861,7.476a8.9,8.9,0,0,1-.729,4.864,14.463,14.463,0,0,1-2.06,3.4c-1.535,2.054-3.274,4.383-1.983,8.647.986,3.26.069,5.782-1.115,7.054-4.114,4.4-4.466,11.159-.928,17.616a11.227,11.227,0,0,1,.861,2.819,21.148,21.148,0,0,0,3.1,7.791,47.868,47.868,0,0,0,8.289,8.932c.718.639,1.306,1.155,1.655,1.525a9.033,9.033,0,0,1,1.869,2.944,13.461,13.461,0,0,0,1.618,2.877,15.578,15.578,0,0,0,3.9,3.919c2.166,1.379,3.98,1.292,6.423.838a16.326,16.326,0,0,1,8.047.561c1.7.558,3.1,1.732,4.789,2.314a6.351,6.351,0,0,0,2.672.254c2.168-.148,4.183.437,6.07-1.018a4.439,4.439,0,0,1,3.979-.345c1.241.385,2.277,1.546,3.635,1.47a56.105,56.105,0,0,0,7.336-.486,49.159,49.159,0,0,0,7.4-2.208l.654-.233a20.086,20.086,0,0,1,6.2-.76c.719-.017,1.436-.035,2.144-.071a15.961,15.961,0,0,0,9.68-3.328,9.776,9.776,0,0,0,3.289-4.745c.114-.381.2-.755.29-1.126a5.04,5.04,0,0,1,.533-1.568,8.35,8.35,0,0,1,2.16-1.98c.55-.407,1.1-.815,1.623-1.271a12.839,12.839,0,0,0,3.6-5.474,27.666,27.666,0,0,0,4.494-12.58c.09-.85.146-1.636.2-2.394a18.137,18.137,0,0,1,1.347-6.572c1.227-2.922.905-5.52.564-8.273a36.116,36.116,0,0,1-.376-5.518,17.753,17.753,0,0,0-1.682-8.04,18.7,18.7,0,0,1-1.529-5.326l-.044-.361a13.985,13.985,0,0,0-1.726-6.018,7.747,7.747,0,0,0-1.21-1.4,3.6,3.6,0,0,1-.5-.531,6.757,6.757,0,0,1-.447-1.3,12.6,12.6,0,0,0-.621-1.836,17.4,17.4,0,0,0-3.066-3.889c.052-.071.108-.143.16-.214,2.242-2.989,11.372-13.219,11.372-13.219,4.439,1.763,14.443,2.372,17.585,2.4l2.906.021Z" transform="translate(-6041.106)" fill="#ffc101" stroke="#fff" stroke-miterlimit="10" stroke-width="4"/>
    <path id="Path_3029" data-name="Path 3029" d="M6160.24,2930.632a8.8,8.8,0,0,1-2.022-.74c-2.6-1.37-3.82-4.32-5.52-6.55-1.58-2.07-.48-5.68-2.83-8.18-1.5-1.6-2.91-3.41-4.85-4.26-3-1.29-4.91-3.99-6.33-6.6-2.69-4.96-1.77-7.32-1.5-10.55.2-2.36,3.88-6.98,3.33-11.09-.68-4.98.97-8.93,3.25-13.52,3.13-6.32.11-7.84,4.26-10.92a5.887,5.887,0,0,0,2.62-4.28c.92-4.58,1.51-5.61,5.2-6.98a15.824,15.824,0,0,0,8.73-7.75c1.43-3.02,8.53-3.3,10.87-.88,3.13,3.25,7.21.25,7.35-.79.79-5.3,2.28-3.18,4.9-3.5,4.53-.53,5.06-3.12,7.52-2.56.281.063.536.13.776.2q.461-1.2.985-2.378l-.711-.972c-1.64-2.24-4.04-3.28-7.54-3.28-.37,0-.76.01-1.18.04a11.564,11.564,0,0,0-6.3,2.11,8.253,8.253,0,0,1-3.88,1.51c-1,.14-2.15.24-3.34.35a35.579,35.579,0,0,0-8.19,1.34,62.707,62.707,0,0,0-10.97,5.2c-.57.32-1.08.62-1.52.85a14.8,14.8,0,0,0-5.98,6.31,30.062,30.062,0,0,1-6.15,7.96c-.59.55-1.1,1.04-1.5,1.46-2.98,3.15-3.06,5.17-2.86,7.48a8.867,8.867,0,0,1-.73,4.86,14.275,14.275,0,0,1-2.06,3.4c-1.53,2.06-3.27,4.38-1.98,8.65.99,3.26.07,5.78-1.12,7.05-4.11,4.41-4.46,11.16-.92,17.62a11.276,11.276,0,0,1,.86,2.82,21.024,21.024,0,0,0,3.1,7.79,47.672,47.672,0,0,0,8.29,8.93c.71.64,1.3,1.16,1.65,1.53a8.967,8.967,0,0,1,1.87,2.94,13.225,13.225,0,0,0,1.62,2.88,15.79,15.79,0,0,0,3.9,3.92c2.17,1.37,3.98,1.29,6.42.83a16.125,16.125,0,0,1,3.431-.244Q6160.694,2931.647,6160.24,2930.632Z" transform="translate(-6041.106)" fill="#ff7b0f" opacity="0.5" style="mix-blend-mode: multiply;isolation: isolate"/>
    <path id="Path_3030" data-name="Path 3030" d="M6164.36,2884.854a4.549,4.549,0,0,0-4.657,1.441,11.342,11.342,0,0,0-2.275,4.582c-.872,2.913-1.324,6.47.806,8.64,2.076,2.115,5.9,1.683,7.968-.441C6169.257,2895.939,6169.223,2886.584,6164.36,2884.854Z" transform="translate(-6041.106)" fill="#ffc101"/>
    <path id="Path_3031" data-name="Path 3031" d="M6186,2885.359a4.525,4.525,0,0,0-3.445-.96,3.282,3.282,0,0,0-2.958,1.877,2.979,2.979,0,0,0,1.409,3.449C6185.424,2892.291,6188.268,2887.51,6186,2885.359Z" transform="translate(-6041.106)" fill="#ffc101"/>
    <path id="Path_3032" data-name="Path 3032" d="M6163.715,2888.325a4.548,4.548,0,0,0-4.657,1.441,11.323,11.323,0,0,0-2.275,4.582c-.872,2.913-1.325,6.47.8,8.64,2.077,2.116,5.9,1.683,7.968-.441C6168.611,2899.41,6168.577,2890.055,6163.715,2888.325Z" transform="translate(-6041.106)" fill="#ff4200"/>
    <path id="Path_3033" data-name="Path 3033" d="M6185.357,2888.83a4.524,4.524,0,0,0-3.445-.959,3.28,3.28,0,0,0-2.957,1.877,2.978,2.978,0,0,0,1.408,3.448C6184.779,2895.763,6187.622,2890.981,6185.357,2888.83Z" transform="translate(-6041.106)" fill="#ff4200"/>
    <g id="Group_1338" data-name="Group 1338" transform="translate(-6041.106)">
      <path id="Path_3034" data-name="Path 3034" d="M6184.623,2853.31c-.805,1.278-1.485,2.892-.829,4.252a3.3,3.3,0,0,0,3.032,1.655,7.7,7.7,0,0,0,3.447-1.083c2.34-1.242,4.6-3.029,5.4-5.552.7-2.194-.438-6.49-3.349-6.472C6189.615,2846.126,6185.883,2851.31,6184.623,2853.31Z" fill="#ffc101"/>
      <path id="Path_3035" data-name="Path 3035" d="M6183.977,2856.781c-.805,1.278-1.485,2.892-.829,4.253a3.3,3.3,0,0,0,3.033,1.654,7.682,7.682,0,0,0,3.446-1.083c2.341-1.241,4.6-3.028,5.4-5.552.7-2.194-.437-6.49-3.349-6.472C6188.969,2849.6,6185.238,2854.781,6183.977,2856.781Z" fill="#ff4200"/>
      <path id="Path_3036" data-name="Path 3036" d="M6184.538,2855.239c-.806,1.278-1.486,2.892-.83,4.252a3.3,3.3,0,0,0,3.033,1.655,7.7,7.7,0,0,0,3.446-1.083c2.341-1.242,4.6-3.028,5.4-5.552.7-2.194-.437-6.49-3.349-6.472C6189.53,2848.055,6185.8,2853.239,6184.538,2855.239Z" fill="#ff970f"/>
    </g>
    <g id="Group_1339" data-name="Group 1339" transform="translate(-6041.106)">
      <path id="Path_3037" data-name="Path 3037" d="M6180.224,2915.19a15.928,15.928,0,0,0-1.234-6.3c-1.027-1.9-3.337-3.283-5.358-2.532a4.376,4.376,0,0,0-2.561,3.277,9.191,9.191,0,0,0,.341,4.289c.775,2.778,4.931,8.628,8.025,4.712A5.911,5.911,0,0,0,6180.224,2915.19Z" fill="#ffc101"/>
      <path id="Path_3038" data-name="Path 3038" d="M6178.291,2918.144a15.935,15.935,0,0,0-1.235-6.3c-1.027-1.9-3.337-3.283-5.357-2.532a4.375,4.375,0,0,0-2.562,3.277,9.191,9.191,0,0,0,.342,4.289c.775,2.779,4.93,8.628,8.024,4.712A5.917,5.917,0,0,0,6178.291,2918.144Z" fill="#ff4200"/>
      <path id="Path_3039" data-name="Path 3039" d="M6179.4,2916.937a15.935,15.935,0,0,0-1.235-6.3c-1.027-1.9-3.337-3.283-5.357-2.532a4.376,4.376,0,0,0-2.562,3.277,9.21,9.21,0,0,0,.342,4.289c.775,2.778,4.931,8.628,8.024,4.712A5.907,5.907,0,0,0,6179.4,2916.937Z" fill="#ff970f"/>
    </g>
    <g id="Group_1340" data-name="Group 1340" transform="translate(-6041.106)">
      <path id="Path_3040" data-name="Path 3040" d="M6205.6,2907.772c-.646-2.071-2.6-3.91-4.754-3.659-1.72.2-3.038,1.606-4,3.045a20.041,20.041,0,0,0-3.012,7.342c-.394,2.053-.407,4.358.856,6.023,1.7,2.246,5.3,2.4,7.617.792C6206.046,2918.719,6206.875,2911.88,6205.6,2907.772Z" fill="#ffc101"/>
      <path id="Path_3041" data-name="Path 3041" d="M6204.949,2911.244c-.645-2.072-2.6-3.91-4.754-3.66-1.719.2-3.037,1.607-4,3.046a20.053,20.053,0,0,0-3.013,7.342c-.394,2.052-.407,4.357.856,6.022,1.705,2.246,5.3,2.4,7.618.792C6205.4,2922.191,6206.229,2915.351,6204.949,2911.244Z" fill="#ff4200"/>
      <path id="Path_3042" data-name="Path 3042" d="M6205.509,2909.7c-.645-2.072-2.6-3.91-4.754-3.66-1.719.2-3.037,1.606-4,3.046a20.046,20.046,0,0,0-3.013,7.342c-.393,2.052-.407,4.357.856,6.022,1.705,2.246,5.3,2.4,7.618.792C6205.96,2920.648,6206.789,2913.809,6205.509,2909.7Z" fill="#ff970f"/>
    </g>
    <path id="Path_3043" data-name="Path 3043" d="M6164.275,2886.783a4.548,4.548,0,0,0-4.657,1.441,11.324,11.324,0,0,0-2.275,4.582c-.872,2.913-1.325,6.47.805,8.64,2.077,2.116,5.9,1.683,7.968-.441C6169.171,2897.868,6169.137,2888.513,6164.275,2886.783Z" transform="translate(-6041.106)" fill="#ff970f"/>
    <g id="Group_1341" data-name="Group 1341" transform="translate(-6041.106)">
      <path id="Path_3044" data-name="Path 3044" d="M6207.46,2871.694c-.856,4.049-4.464,7.435-8.646,2.916a6.656,6.656,0,0,1-1.638-6.3,5.729,5.729,0,0,1,5.473-3.921C6206.984,2864.509,6208.172,2868.33,6207.46,2871.694Z" fill="#ffc101"/>
      <path id="Path_3045" data-name="Path 3045" d="M6206.815,2875.165c-.857,4.049-4.465,7.436-8.647,2.916a6.655,6.655,0,0,1-1.637-6.3,5.726,5.726,0,0,1,5.472-3.92C6206.339,2867.98,6207.526,2871.8,6206.815,2875.165Z" fill="#ff4200"/>
      <path id="Path_3046" data-name="Path 3046" d="M6207.375,2873.623c-.857,4.049-4.465,7.435-8.646,2.916a6.655,6.655,0,0,1-1.638-6.3,5.726,5.726,0,0,1,5.472-3.921C6206.9,2866.438,6208.087,2870.259,6207.375,2873.623Z" fill="#ff970f"/>
    </g>
    <path id="Path_3047" data-name="Path 3047" d="M6185.917,2887.288a4.519,4.519,0,0,0-3.445-.959,3.277,3.277,0,0,0-2.957,1.877,2.978,2.978,0,0,0,1.408,3.448C6185.339,2894.221,6188.182,2889.439,6185.917,2887.288Z" transform="translate(-6041.106)" fill="#ff970f"/>
    <g id="Group_1342" data-name="Group 1342" transform="translate(-6041.106)">
      <path id="Path_3048" data-name="Path 3048" d="M6213.99,2885.2c-2.272.42-3.875,4.6-3,6.91.545,1.446,1.945,2.778,3.463,2.486a3.079,3.079,0,0,0,2.173-2.19c.371-1.18.842-4.949-.059-6A2.744,2.744,0,0,0,6213.99,2885.2Z" fill="#ffc101"/>
      <path id="Path_3049" data-name="Path 3049" d="M6213.345,2888.67c-2.272.42-3.875,4.6-3.005,6.91.546,1.446,1.946,2.778,3.464,2.486a3.08,3.08,0,0,0,2.173-2.19c.37-1.179.842-4.949-.059-6A2.746,2.746,0,0,0,6213.345,2888.67Z" fill="#ff4200"/>
      <path id="Path_3050" data-name="Path 3050" d="M6213.9,2887.128c-2.272.42-3.875,4.6-3,6.91.546,1.446,1.946,2.778,3.464,2.486a3.078,3.078,0,0,0,2.173-2.19c.371-1.179.842-4.949-.059-6A2.745,2.745,0,0,0,6213.9,2887.128Z" fill="#ff970f"/>
    </g>
    <g id="Group_1343" data-name="Group 1343" transform="translate(-6041.106)">
      <path id="Path_3051" data-name="Path 3051" d="M6170.85,2853.622a4.659,4.659,0,0,0-6.92.761,5.072,5.072,0,0,0,7.9,6.357C6173.909,2858.245,6172.894,2855.249,6170.85,2853.622Z" fill="#ffc101"/>
      <path id="Path_3052" data-name="Path 3052" d="M6169.275,2856.782a4.659,4.659,0,0,0-6.92.761,5.072,5.072,0,0,0,7.9,6.357C6172.333,2861.405,6171.319,2858.409,6169.275,2856.782Z" fill="#ff4200"/>
      <path id="Path_3053" data-name="Path 3053" d="M6170.237,2855.453a4.66,4.66,0,0,0-6.92.761,5.073,5.073,0,0,0,7.905,6.357C6173.3,2860.076,6172.282,2857.08,6170.237,2855.453Z" fill="#ff970f"/>
    </g>
    <path id="Path_3054" data-name="Path 3054" d="M6210.923,2916.09c-26.618,0-46.327-21.755-47.479-47.479-.53-11.827,5.671-25.338,13.906-33.573a47.507,47.507,0,0,1,14.3-9.673,12.959,12.959,0,0,0-2.92-.313c-.37,0-.761.011-1.179.035a11.6,11.6,0,0,0-6.3,2.112,8.212,8.212,0,0,1-3.872,1.508c-1.009.144-2.156.244-3.349.348a36.121,36.121,0,0,0-8.184,1.345,63.069,63.069,0,0,0-10.975,5.2c-.571.326-1.081.616-1.515.851a14.8,14.8,0,0,0-5.982,6.311,29.871,29.871,0,0,1-6.153,7.954c-.585.556-1.1,1.045-1.494,1.464-2.986,3.151-3.067,5.167-2.861,7.476a8.9,8.9,0,0,1-.729,4.864,14.463,14.463,0,0,1-2.06,3.4c-1.535,2.054-3.274,4.383-1.983,8.647.986,3.26.069,5.782-1.115,7.054-4.114,4.4-4.466,11.159-.928,17.616a11.227,11.227,0,0,1,.861,2.819,21.148,21.148,0,0,0,3.1,7.791,47.868,47.868,0,0,0,8.289,8.932c.718.639,1.306,1.155,1.655,1.525a9.033,9.033,0,0,1,1.869,2.944,13.376,13.376,0,0,0,1.618,2.877,15.578,15.578,0,0,0,3.9,3.919c2.166,1.379,3.98,1.292,6.423.838a16.326,16.326,0,0,1,8.047.561c1.7.558,3.1,1.732,4.789,2.314a6.351,6.351,0,0,0,2.672.254c2.168-.148,4.183.437,6.07-1.018a4.439,4.439,0,0,1,3.979-.345c1.241.385,2.277,1.546,3.635,1.47a56.105,56.105,0,0,0,7.336-.486,49.159,49.159,0,0,0,7.4-2.208l.654-.233a20.086,20.086,0,0,1,6.2-.76c.719-.017,1.436-.035,2.144-.071a15.961,15.961,0,0,0,9.68-3.328,9.776,9.776,0,0,0,3.289-4.745c.114-.381.2-.755.29-1.126a5.04,5.04,0,0,1,.533-1.568,8.36,8.36,0,0,1,2.159-1.98c.551-.407,1.1-.815,1.624-1.271a12.839,12.839,0,0,0,3.6-5.474c.545-.869,1.017-1.7,1.436-2.5A48.6,48.6,0,0,1,6210.923,2916.09Z" transform="translate(-6041.106)" fill="#ff7b0f" opacity="0.25" style="mix-blend-mode: multiply;isolation: isolate"/>
    <path id="Path_3055" data-name="Path 3055" d="M6258.828,2834.95c-.19-1.14-.39-2.52-.62-4.02a131.882,131.882,0,0,0-2.75-14.58l-1.1-4.09s-29.48,30.49-31.29,32.49a10.592,10.592,0,0,0-3.9-3.34c-.61-.27-1.08-.9-1.86-1.98-1.69-2.36-4.26-5.91-11.82-6.9-3.32-.42-4.33-1.02-5.5-1.72a13.449,13.449,0,0,0-2.9-1.36l-.82-1.12c-1.64-2.24-4.04-3.28-7.54-3.28-.37,0-.76.01-1.18.04a11.564,11.564,0,0,0-6.3,2.11,8.256,8.256,0,0,1-3.88,1.51c-1,.14-2.15.24-3.34.35a35.592,35.592,0,0,0-8.19,1.34,62.706,62.706,0,0,0-10.97,5.2c-.57.32-1.08.62-1.52.85a14.8,14.8,0,0,0-5.98,6.31,30.066,30.066,0,0,1-6.15,7.96c-.59.55-1.1,1.04-1.5,1.46-2.98,3.15-3.06,5.17-2.86,7.48a8.868,8.868,0,0,1-.73,4.86,14.273,14.273,0,0,1-2.06,3.4c-1.53,2.06-3.27,4.38-1.98,8.65.99,3.26.07,5.78-1.12,7.05-4.11,4.41-4.46,11.16-.92,17.62a11.273,11.273,0,0,1,.86,2.82,21.026,21.026,0,0,0,3.1,7.79,47.672,47.672,0,0,0,8.29,8.93c.71.64,1.3,1.16,1.65,1.53a8.967,8.967,0,0,1,1.87,2.94,13.219,13.219,0,0,0,1.62,2.88,15.787,15.787,0,0,0,3.9,3.92c2.17,1.37,3.98,1.29,6.42.83a16.527,16.527,0,0,1,8.05.56c1.7.56,3.11,1.74,4.79,2.32a6.358,6.358,0,0,0,2.67.25c2.17-.15,4.19.44,6.07-1.02a4.431,4.431,0,0,1,3.98-.34c1.24.38,2.28,1.54,3.64,1.47a56.044,56.044,0,0,0,7.33-.49,48.745,48.745,0,0,0,7.4-2.2l.65-.24a20.1,20.1,0,0,1,6.2-.76c.72-.02,1.44-.03,2.14-.07a15.9,15.9,0,0,0,9.68-3.33,9.781,9.781,0,0,0,3.29-4.74c.12-.38.21-.76.29-1.13a4.927,4.927,0,0,1,.54-1.57,8.336,8.336,0,0,1,2.15-1.98,19.837,19.837,0,0,0,1.63-1.27,12.787,12.787,0,0,0,3.6-5.47,27.731,27.731,0,0,0,4.5-12.58c.09-.85.14-1.64.19-2.39a18.332,18.332,0,0,1,1.35-6.58c1.23-2.92.91-5.52.57-8.27a36.243,36.243,0,0,1-.38-5.52,17.825,17.825,0,0,0-1.68-8.04,18.656,18.656,0,0,1-1.53-5.32l-.05-.36a13.83,13.83,0,0,0-1.72-6.02,8.13,8.13,0,0,0-1.21-1.4,3.682,3.682,0,0,1-.5-.53,6.522,6.522,0,0,1-.44-1.3,13.63,13.63,0,0,0-.62-1.83,17.339,17.339,0,0,0-3.07-3.89c.05-.07.11-.14.16-.22,2.24-2.99,11.37-13.21,11.37-13.21,4.44,1.76,14.44,2.37,17.59,2.39l2.9.02Zm-109.43,91.69c-1.56-2.05-1.32-3.5-3.65-6-1.49-1.59-6.46-5.28-9.7-10.15-2.95-4.45-2.44-7.82-3.85-10.42-2.7-4.94-3.1-10.84.57-14.77,1.59-1.71,3-5.06,1.67-9.44-1.46-4.83,2.11-5.77,3.97-10.43,2.61-6.54-1.36-6.86,3.1-11.56,1.48-1.57,4.76-4.21,6.87-7.62,1.57-2.53.71-4.73,6.13-7.64a72.723,72.723,0,0,1,12.12-5.89c3.17-1.09,7.82-1.11,11.09-1.58,5.15-.73,4.82-3.3,9.98-3.6,3.52-.2,5.37.57,6.59,2.24-1.82.57-3.93,1.91-7.11,2.31-2.59.3-5.02-1.04-6.42,4.09-.58,2.04-1.67,2.36-5.51.09-4.05-2.41-9.44-1.88-11.58.66-4.22,5.04-7.43,7.74-9.98,8.71-3.67,1.35-4.18,2.51-5.11,7.06-.37,1.91-.24,3.69-3.32,5.42-3.71,2.08-.31,4.51-3.45,10.82-2.26,4.56-4.47,8.39-3.56,13.33,1.11,6.07-2.4,7.91-2.81,11.59-.36,3.21-1.61,5.5,1.09,10.44,1.41,2.6,4.79,7.47,7.77,8.77,1.93.84,3.77,1.44,4.74,4.05,1.19,3.2.34,4.36,1.9,6.43,1.51,2,4.39,4.76,5.36,7.63C6152.9,2930.83,6151.348,2929.22,6149.4,2926.64Zm78.69-72.91c.48,1.06.61,2.33,1.17,3.33.46.82,1.28,1.27,1.79,2.06.98,1.51,1.18,3.62,1.39,5.35.74,5.89,3.32,7.12,3.19,13.01s1.61,9.09.01,12.89-1.36,6.18-1.72,9.66a25.43,25.43,0,0,1-4.28,11.76,10.605,10.605,0,0,1-3,4.71c-1.44,1.26-3.16,2.1-4.23,3.77a11.605,11.605,0,0,0-1.11,3.32,7.286,7.286,0,0,1-2.46,3.52,13.647,13.647,0,0,1-8.28,2.8c-3.01.15-6.16-.06-9.04.97-3.53,1.26-6.91,2.55-10.69,2.69a5.889,5.889,0,0,1-2.08-.34,3.158,3.158,0,0,1-3.55-.11,6.693,6.693,0,0,0-7.36-.07c-1.21.93-3.35.54-4.8.53a3.993,3.993,0,0,1-2.76-.39,13.8,13.8,0,0,0-2.74-1.5,17.2,17.2,0,0,0-3.2-.5c-2.07-.21-4.24-.31-6.12-1.3-2.6-1.37-3.82-4.32-5.52-6.55-1.58-2.07-.48-5.68-2.83-8.18-1.5-1.6-2.91-3.41-4.85-4.26-3-1.29-4.91-3.99-6.33-6.6-2.69-4.96-1.77-7.32-1.5-10.55.2-2.36,3.88-6.98,3.33-11.09-.68-4.98.97-8.93,3.25-13.52,3.13-6.32.11-7.84,4.26-10.92a5.888,5.888,0,0,0,2.62-4.28c.92-4.58,1.51-5.61,5.2-6.98a15.825,15.825,0,0,0,8.73-7.75c1.43-3.02,8.53-3.3,10.87-.88,3.13,3.25,7.21.25,7.35-.79.79-5.3,2.28-3.18,4.9-3.5,4.53-.53,5.06-3.12,7.52-2.56,4.15.93,3.42,2.64,9.95,3.49,9.9,1.28,9.38,7.04,12.99,8.68a10.453,10.453,0,0,1,3.7,3.54c-2.41,2.76-4.81,5.51-7.2,8.21a13.084,13.084,0,0,0,4.3,2.9c1.64-2.34,3.72-5.08,6.09-8.03C6225.3,2849.96,6227.938,2853.4,6228.088,2853.73Zm-2.62-6.58c-2.34,3.15-5.05,6.55-6.68,8.64a4.231,4.231,0,0,1-1.46-1.02c4.62-5.21,9.46-10.35,12.31-13.78A53.28,53.28,0,0,1,6225.468,2847.15Zm14.24-14.03c5.15-5.73,10.13-11.02,13.79-14.66,1.1,4.09,2.17,12.39,2.9,16.89C6253.188,2835.32,6243.638,2834.69,6239.708,2833.12Z" transform="translate(-6041.106)" stroke="#000" stroke-miterlimit="10" stroke-width="1"/>
  </g>
</svg>
