<svg xmlns="http://www.w3.org/2000/svg" width="113.516" height="114.52" viewBox="0 0 113.516 114.52">
  <g id="Group_1354" data-name="Group 1354" transform="translate(-6522.633 -1958.681)">
    <g id="Group_1353" data-name="Group 1353">
      <g id="Group_1349" data-name="Group 1349">
        <path id="Path_3056" data-name="Path 3056" d="M6580.709,2072.7a56.171,56.171,0,0,1-28.6-7.622,54.761,54.761,0,0,1-5.741-4.1c-.9-.706-1.81-1.416-2.748-2.1-18.5-13.551-22.338-37.308-19.767-55.023a38.523,38.523,0,0,1,2.608-9.113c8.662-21.269,30.709-35.56,54.859-35.56,8.583,0,21.046,1.432,31.673,8.255,8.126,5.217,14.878,14.233,19.012,25.386.69,1.865,1.321,3.816,1.873,5.8a55.139,55.139,0,0,1,.059,27.544,66.956,66.956,0,0,1-3.2,9.426c-6.757,16.452-22.029,34.775-44.632,36.86C6584.322,2072.617,6582.506,2072.7,6580.709,2072.7Z"/>
        <path id="Path_3057" data-name="Path 3057" d="M6581.317,1959.681c10.771,0,22.239,2.293,31.4,8.176,8.918,5.726,15.186,15.351,18.814,25.14q1.051,2.838,1.86,5.76a54.615,54.615,0,0,1,.055,27.29,67.342,67.342,0,0,1-3.173,9.356c-7.616,18.547-23.453,34.637-44.215,36.553q-2.665.246-5.35.245a55.908,55.908,0,0,1-28.349-7.552c-3.02-1.786-5.6-4.085-8.448-6.174-16.911-12.39-22.464-34.6-19.569-54.547a38.41,38.41,0,0,1,2.577-9c8.878-21.8,31.158-35.25,54.4-35.25m0-1c-24.351,0-46.584,14.416-55.322,35.872a38.891,38.891,0,0,0-2.64,9.231c-2.592,17.858,1.293,41.816,19.966,55.5.93.681,1.849,1.4,2.737,2.094a54.875,54.875,0,0,0,5.794,4.134,56.658,56.658,0,0,0,28.858,7.691c1.812,0,3.643-.084,5.442-.25,22.825-2.106,38.236-20.58,45.048-37.168a67.452,67.452,0,0,0,3.219-9.5,55.654,55.654,0,0,0-.063-27.8c-.556-2-1.19-3.962-1.886-5.839-4.171-11.255-10.993-20.359-19.211-25.634-10.729-6.889-23.292-8.335-31.942-8.335Z" fill="#fff"/>
      </g>
      <g id="Group_1352" data-name="Group 1352">
        <g id="Group_1350" data-name="Group 1350">
          <path id="Path_3058" data-name="Path 3058" d="M6630.208,1999.638c3.564,12.786,1.146,33.876-8.934,41.609-16.75,10.932-39.68,3.573-48.81-11.915-13.882-23.5-1.475-58.169,28.766-62.66C6611.079,1968.329,6624.269,1978.334,6630.208,1999.638Zm-7.7,19.777a6.645,6.645,0,0,0,2.376-8.981,6.41,6.41,0,0,0-8.916-2.049,6.642,6.642,0,0,0-2.36,8.982A6.377,6.377,0,0,0,6622.5,2019.415Zm-18.423-15.341a8.479,8.479,0,0,0,5.278-10.08,7.156,7.156,0,0,0-9.08-5.458,8.479,8.479,0,0,0-5.278,10.08A7.153,7.153,0,0,0,6604.081,2004.074Zm-.819,25.274a6.541,6.541,0,0,0,3.786-7.753,5.176,5.176,0,0,0-7-3.507,6.539,6.539,0,0,0-3.786,7.752A5.176,5.176,0,0,0,6603.262,2029.348Z" fill="#ffdb65"/>
          <path id="Path_3059" data-name="Path 3059" d="M6620.029,2010.122a4.55,4.55,0,0,1,2.819,5,3.2,3.2,0,0,1-4.409,2.278,4.481,4.481,0,0,1-2.819-4.983A3.206,3.206,0,0,1,6620.029,2010.122Z" fill="#ff650f"/>
          <path id="Path_3060" data-name="Path 3060" d="M6622.849,2015.121a3.2,3.2,0,0,1-4.41,2.28,4.578,4.578,0,0,1-2.71-2.91,3.969,3.969,0,0,0,1.01.55,3.184,3.184,0,0,0,4.4-2.28,4.089,4.089,0,0,0-.13-2.11A4.537,4.537,0,0,1,6622.849,2015.121Z" fill="#ff650f" opacity="0.3" style="mix-blend-mode: multiply;isolation: isolate"/>
          <path id="Path_3061" data-name="Path 3061" d="M6622.848,2015.117a3.193,3.193,0,0,1-4.41,2.28,4.448,4.448,0,0,1-2.18-1.78,4.039,4.039,0,0,0,1.24.72,3.19,3.19,0,0,0,4.41-2.28,4.224,4.224,0,0,0-.66-3.21A4.473,4.473,0,0,1,6622.848,2015.117Z" fill="#ff650f" opacity="0.3" style="mix-blend-mode: multiply;isolation: isolate"/>
          <path id="Path_3062" data-name="Path 3062" d="M6605.609,2022.3a4.548,4.548,0,0,1-3.228,4.745,3.2,3.2,0,0,1-4-2.939,4.482,4.482,0,0,1,3.214-4.738A3.206,3.206,0,0,1,6605.609,2022.3Z" fill="#ff650f"/>
          <path id="Path_3063" data-name="Path 3063" d="M6602.381,2027.042a3.2,3.2,0,0,1-4-2.94,4.578,4.578,0,0,1,1.4-3.72,3.983,3.983,0,0,0-.044,1.149,3.183,3.183,0,0,0,4,2.931,4.085,4.085,0,0,0,1.833-1.053A4.535,4.535,0,0,1,6602.381,2027.042Z" fill="#ff650f" opacity="0.3" style="mix-blend-mode: multiply;isolation: isolate"/>
          <path id="Path_3064" data-name="Path 3064" d="M6602.384,2027.039a3.192,3.192,0,0,1-4-2.939,4.454,4.454,0,0,1,.627-2.744,4.055,4.055,0,0,0-.1,1.431,3.19,3.19,0,0,0,4,2.939,4.22,4.22,0,0,0,2.583-2.016A4.473,4.473,0,0,1,6602.384,2027.039Z" fill="#ff650f" opacity="0.3" style="mix-blend-mode: multiply;isolation: isolate"/>
          <path id="Path_3065" data-name="Path 3065" d="M6607.244,1994.961c.705,3.033-.868,6.229-3.474,7.13-2.623.9-5.31-.82-6-3.868-.705-3.032.852-6.228,3.475-7.13S6606.556,1991.93,6607.244,1994.961Z" fill="#ff650f"/>
          <path id="Path_3066" data-name="Path 3066" d="M6598.707,1998.286c-.705-3.032.853-6.229,3.475-7.13a4.3,4.3,0,0,1,1.216-.227,4.226,4.226,0,0,0-2.152.163c-2.623.9-4.18,4.1-3.475,7.13a4.858,4.858,0,0,0,4.775,4.1A5.03,5.03,0,0,1,6598.707,1998.286Z" fill="#ff650f" opacity="0.5" style="mix-blend-mode: multiply;isolation: isolate"/>
          <path id="Path_3067" data-name="Path 3067" d="M6601.089,1998.62a5.386,5.386,0,0,0,2.47,3.531c-2.55.75-5.12-.961-5.79-3.931-.7-3.03.86-6.23,3.48-7.13a4.252,4.252,0,0,1,3.53.34,1.656,1.656,0,0,0-.21.06C6601.939,1992.4,6600.389,1995.59,6601.089,1998.62Z" fill="#ff650f" opacity="0.3" style="mix-blend-mode: multiply;isolation: isolate"/>
          <path id="Path_3068" data-name="Path 3068" d="M6569.629,2031.43c9.309,15.767,31.731,23.8,49.547,15.095-10,23.831-42.057,28.027-65.036,15.112a82.016,82.016,0,0,0,17.521-2.049,120.293,120.293,0,0,1-20,.574,50.1,50.1,0,0,1-8.262-6.524,80.054,80.054,0,0,0,21.39.344c-7.687-.082-16.21-.573-23.274-2.294a50.555,50.555,0,0,1-5.163-6.769,80.851,80.851,0,0,0,21.078,1.36c-7.343-.443-15.44-1.311-22.226-3.2a59.224,59.224,0,0,1-3.408-6.54,79,79,0,0,0,22.618,1.721c-7.752-.475-16.373-1.409-23.372-3.54a54.536,54.536,0,0,1-1.935-5.655,81.947,81.947,0,0,0,19.849,1.115,118.578,118.578,0,0,1-20.275-2.688,53.026,53.026,0,0,1-1.163-5.917,79.061,79.061,0,0,0,22.241,1.344c-7.409-.36-15.6-1.115-22.454-2.95a52.76,52.76,0,0,1-.295-6.441,83.564,83.564,0,0,0,18.357,1.245,127.9,127.9,0,0,1-18.325-2.655c.082-1.672.23-3.343.459-5a83.394,83.394,0,0,0,13.7.541c-4.393-.361-9.048-.885-13.523-1.672a50.39,50.39,0,0,1,1.2-5.376,78.927,78.927,0,0,0,11.293.262c-3.573-.278-7.31-.672-11-1.245a47.628,47.628,0,0,1,2.361-6.163,77.781,77.781,0,0,0,9.555.131c-2.984-.246-6.081-.557-9.162-.983a51.162,51.162,0,0,1,16.5-19.242,57.649,57.649,0,0,1,45.975-8.818C6566.286,1973.179,6555.55,2007.566,6569.629,2031.43Z" fill="#ff650f"/>
        </g>
        <path id="Path_3069" data-name="Path 3069" d="M6622.222,2032.647c-16.75,10.931-39.679,3.57-48.81-11.92a41.473,41.473,0,0,1-5.65-20.73,42.458,42.458,0,0,0,4.71,30.31c9.13,15.49,32.061,22.85,48.811,11.92,7-5.37,10.3-17.17,10.469-28.17C6630.3,2021.767,6627.2,2028.837,6622.222,2032.647Z" fill="#ffdb65" style="mix-blend-mode: multiply;isolation: isolate"/>
        <path id="Path_3070" data-name="Path 3070" d="M6630.2,1999.638c-3.352-12.021-9.012-20.443-15.078-25.8a63.845,63.845,0,0,1,4.756,12.247,53.119,53.119,0,0,1,.861,21.438,6.213,6.213,0,0,1,4.133,2.911,6.646,6.646,0,0,1-2.376,8.981,6.562,6.562,0,0,1-5.577.655,21.761,21.761,0,0,1-5.974,7.624c-12.967,8.463-29.633,5.959-40.738-2.787a39.832,39.832,0,0,0,2.249,4.424c9.13,15.49,32.06,22.848,48.81,11.917C6631.348,2033.515,6633.766,2012.424,6630.2,1999.638Z" fill="#ffdb65" opacity="0.45" style="mix-blend-mode: multiply;isolation: isolate"/>
        <ellipse id="Ellipse_45" data-name="Ellipse 45" cx="1.341" cy="1.077" rx="1.341" ry="1.077" transform="translate(6616.348 2012.219) rotate(-37.713)" fill="#ffdb65" opacity="0.2" style="mix-blend-mode: screen;isolation: isolate"/>
        <ellipse id="Ellipse_46" data-name="Ellipse 46" cx="1.077" cy="1.341" rx="1.077" ry="1.341" transform="translate(6601.431 2021.356) rotate(-63.162)" fill="#ffdb65" opacity="0.2" style="mix-blend-mode: screen;isolation: isolate"/>
        <ellipse id="Ellipse_47" data-name="Ellipse 47" cx="0.701" cy="0.825" rx="0.701" ry="0.825" transform="translate(6585.156 2005.82) rotate(-63.162)" fill="#ffdb65" opacity="0.2" style="mix-blend-mode: screen;isolation: isolate"/>
        <ellipse id="Ellipse_48" data-name="Ellipse 48" cx="1.341" cy="1.077" rx="1.341" ry="1.077" transform="matrix(0.148, -0.989, 0.989, 0.148, 6604.216, 1997.76)" fill="#ffdb65" opacity="0.2" style="mix-blend-mode: screen;isolation: isolate"/>
        <g id="Group_1351" data-name="Group 1351" opacity="0.5" style="mix-blend-mode: multiply;isolation: isolate">
          <path id="Path_3071" data-name="Path 3071" d="M6535.115,2007.693c-2.576-.086-5.162-.278-7.609-.569-.229,1.655-.377,3.327-.459,5,2.718.64,5.576,1.148,8.455,1.562A51.479,51.479,0,0,1,6535.115,2007.693Z" fill="#ff650f"/>
          <path id="Path_3072" data-name="Path 3072" d="M6535.62,2014.62a81.394,81.394,0,0,1-8.6-1.088,52.784,52.784,0,0,0,.295,6.442,77.794,77.794,0,0,0,9.871,1.874A50.8,50.8,0,0,1,6535.62,2014.62Z" fill="#ff650f"/>
          <path id="Path_3073" data-name="Path 3073" d="M6536.994,1993.683c-1.817-.012-3.653-.082-5.455-.212a47.622,47.622,0,0,0-2.361,6.162c2.137.333,4.288.6,6.417.823A50.644,50.644,0,0,1,6536.994,1993.683Z" fill="#ff650f"/>
          <path id="Path_3074" data-name="Path 3074" d="M6547.473,1974.109a50.972,50.972,0,0,0-15.541,18.509c1.734.24,3.468.437,5.19.613A51.02,51.02,0,0,1,6547.473,1974.109Z" fill="#ff650f"/>
          <path id="Path_3075" data-name="Path 3075" d="M6535.531,2000.957c-2.218-.028-4.462-.139-6.648-.34a50.135,50.135,0,0,0-1.2,5.375c2.448.431,4.948.777,7.431,1.067A51.73,51.73,0,0,1,6535.531,2000.957Z" fill="#ff650f"/>
          <path id="Path_3076" data-name="Path 3076" d="M6586.258,2058.586a50.936,50.936,0,0,1-33.057-12.131,80.222,80.222,0,0,1-16.844-1.536,50.555,50.555,0,0,0,5.163,6.769c7.064,1.721,15.587,2.213,23.274,2.295a80.135,80.135,0,0,1-21.39-.344,50.042,50.042,0,0,0,8.262,6.523,120.213,120.213,0,0,0,20-.573,82.028,82.028,0,0,1-17.521,2.048c22.952,12.9,54.961,8.727,65-15.03A50.935,50.935,0,0,1,6586.258,2058.586Z" fill="#ff650f"/>
          <path id="Path_3077" data-name="Path 3077" d="M6545.522,2038.36a71.781,71.781,0,0,1-13.721-1.816,59.224,59.224,0,0,0,3.408,6.54,98.5,98.5,0,0,0,17.377,2.838A51.417,51.417,0,0,1,6545.522,2038.36Z" fill="#ff650f"/>
          <path id="Path_3078" data-name="Path 3078" d="M6537.516,2022.966a65.761,65.761,0,0,1-9.993-1.386,53.026,53.026,0,0,0,1.163,5.917,94.008,94.008,0,0,0,11.383,1.93A50.9,50.9,0,0,1,6537.516,2022.966Z" fill="#ff650f"/>
          <path id="Path_3079" data-name="Path 3079" d="M6540.5,2030.3a79.614,79.614,0,0,1-11.39-1.225,54.51,54.51,0,0,0,1.935,5.654,81.462,81.462,0,0,0,13.78,2.693A51.062,51.062,0,0,1,6540.5,2030.3Z" fill="#ff650f"/>
        </g>
      </g>
    </g>
  </g>
</svg>
