<svg xmlns="http://www.w3.org/2000/svg" xmlns:xlink="http://www.w3.org/1999/xlink" width="113.186" height="100.877" viewBox="0 0 113.186 100.877">
  <defs>
    <linearGradient id="linear-gradient" x1="-0.091" y1="0.109" x2="0.959" y2="0.796" gradientUnits="objectBoundingBox">
      <stop offset="0" stop-color="#00ffd5"/>
      <stop offset="1" stop-color="#01cb2d"/>
    </linearGradient>
  </defs>
  <g id="Group_1371" data-name="Group 1371" transform="translate(-6832.431 -2365.82)">
    <g id="Group_1370" data-name="Group 1370">
      <path id="Path_3232" data-name="Path 3232" d="M6936.975,2433.319c-3-5.387-29.755-25.164-46.7-35.307l-1.024-.663a26.773,26.773,0,0,0-.2-8.1c10.988,7.029,41.739,22.087,54.012,25.266-4.547-5.96-20.541-18.056-31.382-24.694-6.233-3.817-12.585-7.68-19.049-11.054-10.5-5.478-19.461-13.065-32.068-11.812-17.768,1.766-32.263,20.379-25.143,37.949,3.837,9.469,12.4,15.638,20.246,21.62,10.208,7.783,34.552,31.741,47.046,38.054-4.459-10.551-19.81-25.943-36.542-43.31a28.683,28.683,0,0,0,4.244-1.088l1.017.727c8.153,5.835,36.181,25.7,48.586,29.456-5.518-10.728-26.125-25.8-39.261-36.414a28.03,28.03,0,0,0,5.419-7.035C6894.942,2412.4,6923.907,2430.67,6936.975,2433.319Z" stroke="#fff" stroke-miterlimit="10" stroke-width="2"/>
      <path id="Path_3233" data-name="Path 3233" d="M6887.3,2393.938c0,14.871-11.434,26.926-25.538,26.926s-25.538-12.055-25.538-26.926a26.149,26.149,0,0,1,26.067-26.3C6876.392,2367.638,6887.3,2379.067,6887.3,2393.938Z" fill="url(#linear-gradient)"/>
      <path id="Path_3234" data-name="Path 3234" d="M6887.3,2393.934c0,14.87-11.43,26.93-25.54,26.93-12.65,0-23.17-9.71-25.19-22.46a24.616,24.616,0,0,0,15.18,5.26c14.1,0,25.53-12.05,25.53-26.92a28.816,28.816,0,0,0-.32-4.3A26.412,26.412,0,0,1,6887.3,2393.934Z" fill="#01cb2d" opacity="0.7" style="mix-blend-mode: multiply;isolation: isolate"/>
      <path id="Path_3235" data-name="Path 3235" d="M6887.3,2393.934c0,14.87-11.43,26.93-25.54,26.93s-25.54-12.06-25.54-26.93a27.98,27.98,0,0,1,2.54-11.72c.77,14.14,11.89,25.37,25.49,25.37a25.476,25.476,0,0,0,23.01-15.23C6887.286,2392.874,6887.3,2393.4,6887.3,2393.934Z" fill="#615a00" opacity="0.3" style="mix-blend-mode: multiply;isolation: isolate"/>
      <path id="Path_3236" data-name="Path 3236" d="M6936.975,2433.319c-3-5.387-29.755-25.164-46.7-35.307l-1.024-.663a26.773,26.773,0,0,0-.2-8.1c10.988,7.029,41.739,22.087,54.012,25.266-4.547-5.96-20.541-18.056-31.382-24.694-6.233-3.817-12.585-7.68-19.049-11.054-10.5-5.478-19.461-13.065-32.068-11.812-17.768,1.766-32.263,20.379-25.143,37.949,3.837,9.469,12.4,15.638,20.246,21.62,10.208,7.783,34.552,31.741,47.046,38.054-4.459-10.551-19.81-25.943-36.542-43.31a28.683,28.683,0,0,0,4.244-1.088l1.017.727c8.153,5.835,36.181,25.7,48.586,29.456-5.518-10.728-26.125-25.8-39.261-36.414a28.03,28.03,0,0,0,5.419-7.035C6894.942,2412.4,6923.907,2430.67,6936.975,2433.319Zm-80.332-63.523c-.7,15.872-9.9,30.222-17.014,37.543C6830.329,2392.672,6840.986,2373.717,6856.643,2369.8Zm-16.063,38.939c7.562-7.753,17.8-23.485,17.9-39.319a23.683,23.683,0,0,1,10.43.558c-.305,20.262-14.629,38.71-22.305,44.521A24.044,24.044,0,0,1,6840.58,2408.735Zm30.2-38.139a24.71,24.71,0,0,1,9.4,6.471c-1.028,19.348-14.958,36.819-21.924,41.627a26,26,0,0,1-9.934-3.134C6855.919,2409.978,6871.094,2390.274,6870.777,2370.6Zm4.808,43.873a26.175,26.175,0,0,1-14.743,4.378c7.27-6.09,19.78-22.825,20.871-39.966A24.6,24.6,0,0,1,6875.585,2414.469Z"/>
      <g id="Group_1367" data-name="Group 1367">
        <path id="Path_3237" data-name="Path 3237" d="M6934.811,2409.775c-11.216-4.809-35.056-17.623-46.3-24.094a27.111,27.111,0,0,0-4.263-8.538C6901.265,2387.3,6924.483,2402.124,6934.811,2409.775Z" fill="#bbd25f"/>
        <path id="Path_3238" data-name="Path 3238" d="M6934.811,2409.775c-11.216-4.809-35.056-17.623-46.3-24.094a27.111,27.111,0,0,0-4.263-8.538C6892.67,2388.772,6930.2,2405.638,6934.811,2409.775Z" fill="#bbd25f" style="mix-blend-mode: multiply;isolation: isolate"/>
      </g>
      <g id="Group_1368" data-name="Group 1368">
        <path id="Path_3239" data-name="Path 3239" d="M6929.33,2428.375c-9.617-4.377-31.072-17.217-42.034-24.093a27.578,27.578,0,0,0,1.5-4.277C6903.168,2409.3,6920.537,2421.879,6929.33,2428.375Z" fill="#bbd25f"/>
        <path id="Path_3240" data-name="Path 3240" d="M6902.195,2413.367c-5.632-3.353-10.947-6.607-14.9-9.085a27.578,27.578,0,0,0,1.5-4.277C6891.731,2401.959,6890.713,2404.148,6902.195,2413.367Z" fill="#bbd25f" style="mix-blend-mode: multiply;isolation: isolate"/>
      </g>
      <g id="Group_1369" data-name="Group 1369">
        <path id="Path_3241" data-name="Path 3241" d="M6915.551,2446.911c-9.731-6.2-32.531-21.175-42.618-28.394a29,29,0,0,0,5.494-3.249C6891.825,2426.066,6907.634,2439.553,6915.551,2446.911Z" fill="#bbd25f"/>
        <path id="Path_3242" data-name="Path 3242" d="M6872.933,2418.517a29,29,0,0,0,5.494-3.249c4.686,3.777,14.5,11.94,14.5,11.94S6882.074,2421.238,6872.933,2418.517Z" fill="#bbd25f" style="mix-blend-mode: multiply;isolation: isolate"/>
      </g>
      <path id="Path_3243" data-name="Path 3243" d="M6897.636,2459.142c-9.274-7.752-32.823-28.813-42.643-38.278a30.689,30.689,0,0,0,7.626.342C6875.357,2434.4,6890.239,2450.1,6897.636,2459.142Z" fill="#bbd25f"/>
      <path id="Path_3244" data-name="Path 3244" d="M6897.636,2459.142c-9.274-7.752-30.073-34.37-42.643-38.278a30.689,30.689,0,0,0,7.626.342C6875.357,2434.4,6890.239,2450.1,6897.636,2459.142Z" fill="#bbd25f" style="mix-blend-mode: multiply;isolation: isolate"/>
    </g>
  </g>
</svg>
