<svg xmlns="http://www.w3.org/2000/svg" xmlns:xlink="http://www.w3.org/1999/xlink" width="604.326" height="268.051" viewBox="0 0 604.326 268.051">
  <defs>
    <clipPath id="clip-path">
      <path id="Path_5327" data-name="Path 5327" d="M4048.39,334.179c.4-2.362-1.186-4.186-1.51-6.316-.184-1.212.365-3.487-.861-4.011-.6-5.726-4.263-9.588-9.436-13.1-8.287-5.629-19.7.246-23.944,8.181a10,10,0,0,0-.454.909,2.558,2.558,0,0,0-.223.989c-3.865,4.172-6.667,8.977-6.787,14.988a2.527,2.527,0,0,0-.718,1.705,34.7,34.7,0,0,0,.019,5.874c.2,1.271.267,2.36.568,3.586.039.506.41,1.2.49,1.7a3.226,3.226,0,0,0,.05.95c1.494,7.472,7.561,14.241,14.009,17.78,8.5,4.664,13.681.03,20.26-6.481,1.225-1.213,3.081-2.428,3.679-4.05,1.09-.912,1.744-3.649,2.508-4.817a11.87,11.87,0,0,0,1.589-4.93c.109-.817,1.278-2.958.639-3.424.771-2.2-.241-3.267.2-5.76C4048.6,337.242,4048.837,334.658,4048.39,334.179Z" fill="none"/>
    </clipPath>
    <clipPath id="clip-path-2">
      <path id="Path_5328" data-name="Path 5328" d="M4128.666,341.628a2.312,2.312,0,0,0-.285-.679,41.438,41.438,0,0,0-.85-8.239,26.343,26.343,0,0,0-25.37-20.856,8.165,8.165,0,0,0-.833.046c-4.334-.857-8.864.493-12.785,3.043-5.525.718-9.281,5.867-12.169,10.612-3.655,6.005-5.809,13.324-4.756,20.338a2.38,2.38,0,0,0-.067.506c.2,9,2.9,20.571,10.182,26.6,4.314,3.572,9.283,4.644,14.389,4.544,1.5,1.181,4.78,1.176,6.863.78,5.9-.057,10.256-2.558,13.861-6.339a5.234,5.234,0,0,0,2.15-1.249,32.938,32.938,0,0,0,6.569-9.274,16.631,16.631,0,0,0,1.7-4.472,2.739,2.739,0,0,0-.011-1.457A22.235,22.235,0,0,0,4128.666,341.628Z" fill="none"/>
    </clipPath>
    <clipPath id="clip-path-3">
      <path id="Path_5334" data-name="Path 5334" d="M4048.39,334.179c.4-2.362-1.186-4.186-1.51-6.316-.184-1.212.365-3.487-.861-4.011-.6-5.726-4.263-9.588-9.436-13.1-8.287-5.629-19.7.246-23.944,8.181a10,10,0,0,0-.454.909,2.558,2.558,0,0,0-.223.989c-3.865,4.172-6.667,8.977-6.787,14.988a2.527,2.527,0,0,0-.718,1.705,34.7,34.7,0,0,0,.019,5.874c.2,1.271.267,2.36.568,3.586.039.506.41,1.2.49,1.7a3.226,3.226,0,0,0,.05.95c1.494,7.472,7.561,14.241,14.009,17.78,8.5,4.664,13.681.03,20.26-6.481,1.225-1.213,3.081-2.428,3.679-4.05,1.09-.912,1.744-3.649,2.508-4.817a11.87,11.87,0,0,0,1.589-4.93c.109-.817,1.278-2.958.639-3.424.771-2.2-.241-3.267.2-5.76C4048.6,337.242,4048.837,334.658,4048.39,334.179Z" fill="#1a1a1a"/>
    </clipPath>
    <clipPath id="clip-path-4">
      <path id="Path_5337" data-name="Path 5337" d="M4128.666,341.628a2.312,2.312,0,0,0-.285-.679,41.438,41.438,0,0,0-.85-8.239,26.343,26.343,0,0,0-25.37-20.856,8.165,8.165,0,0,0-.833.046c-4.334-.857-8.864.493-12.785,3.043-5.525.718-9.281,5.867-12.169,10.612-3.655,6.005-5.809,13.324-4.756,20.338a2.38,2.38,0,0,0-.067.506c.2,9,2.9,20.571,10.182,26.6,4.314,3.572,9.283,4.644,14.389,4.544,1.5,1.181,4.78,1.176,6.863.78,5.9-.057,10.256-2.558,13.861-6.339a5.234,5.234,0,0,0,2.15-1.249,32.938,32.938,0,0,0,6.569-9.274,16.631,16.631,0,0,0,1.7-4.472,2.739,2.739,0,0,0-.011-1.457A22.235,22.235,0,0,0,4128.666,341.628Z" fill="#1a1a1a"/>
    </clipPath>
  </defs>
  <g id="Group_1717" data-name="Group 1717" transform="translate(-3974.318 -176.614)">
    <g id="Group_1678" data-name="Group 1678">
      <g id="Group_1677" data-name="Group 1677">
        <g id="Group_1676" data-name="Group 1676">
          <g id="Group_1670" data-name="Group 1670">
            <path id="Path_5315" data-name="Path 5315" d="M4252.147,418.191a7.069,7.069,0,0,1-6.071-2.72c-2.577-3.533-1.44-9.238,1.728-19.2,1.284-4.024,44.66-108.389,46.881-112.8,2.677-5.3,5.968-10.193,11.882-10.193h0a12.27,12.27,0,0,1,4.137.777,9.392,9.392,0,0,1,5.836,9.087,398.017,398.017,0,0,0,2.448,41.948c.58,5.614,2.857,21.386,3.748,27.492,6.189.1,8.2,3.772,8.775,5.363,1.081,2.976.267,6.584-1.893,8.393a12.886,12.886,0,0,1-3.157,1.8c-.4.174-.772.341-1.09.508-.506,4.164,1.6,23.751,4.007,30.812a23.446,23.446,0,0,1,.691,10.187,7.043,7.043,0,0,1-7.18,6.426,8.645,8.645,0,0,1-5.123-1.744c-1.964-1.465-4.328-5.121-6.966-21.139-1.355-8.224-2.335-17.063-2.845-22.123-1.167-.1-2.6-.151-4.288-.151a253.7,253.7,0,0,0-29.759,2.432c-.3.262-1.572,1.594-3.9,7.053-1.961,4.591-4,10.454-5.974,16.123-5.606,16.1-7.755,21.672-11.882,21.672Zm50.056-117.02c-6.818,14.492-18.639,43.762-21.685,54.474,6.764-.777,19.078-1.761,25.578-2.1C4305.483,343.123,4303.477,315.222,4302.2,301.171Z"/>
            <path id="Path_5316" data-name="Path 5316" d="M4306.568,274.41a11.125,11.125,0,0,1,3.753.71,8.259,8.259,0,0,1,5.088,8.017,399.106,399.106,0,0,0,2.454,42.068c.613,5.939,3.067,22.852,3.9,28.523q.367-.016.721-.017c5.675,0,7.461,3.232,7.966,4.621.911,2.509.23,5.643-1.556,7.138A11.763,11.763,0,0,1,4326,367.1a11.347,11.347,0,0,0-1.652.831c-.861,3.385,1.5,24.706,3.957,31.889a22.4,22.4,0,0,1,.637,9.7,5.939,5.939,0,0,1-6.055,5.42,7.514,7.514,0,0,1-4.446-1.519c-1.679-1.252-3.938-4.7-6.526-20.416-1.438-8.727-2.451-18.138-2.927-22.969a44.265,44.265,0,0,0-5.323-.253,252.171,252.171,0,0,0-30.191,2.5c-.151.058-1.561.764-4.512,7.675-1.973,4.619-4.022,10.5-6,16.194-5.5,15.8-7.553,20.914-10.811,20.914a6.008,6.008,0,0,1-5.161-2.256c-2.291-3.141-1.16-8.59,1.893-18.19,1.281-4.015,44.594-108.225,46.814-112.634,2.512-4.97,5.568-9.57,10.871-9.57M4279,356.969c6.557-.845,21.911-2.064,28.295-2.349-.578-10.4-3.078-45.147-4.346-57.576-6.652,13.213-21.542,49.827-23.949,59.925m27.572-84.823h0c-6.545,0-10.19,5.466-12.893,10.813-2.226,4.421-45.665,108.939-46.95,112.967-3.355,10.549-4.444,16.264-1.565,20.212,1.056,1.448,3.125,3.175,6.984,3.186,4.912,0,7.023-5.391,12.956-22.433,1.968-5.655,4-11.5,5.946-16.05,1.861-4.358,2.991-5.941,3.418-6.444a257.407,257.407,0,0,1,29.2-2.354c1.226,0,2.315.027,3.259.081.532,5.178,1.477,13.475,2.757,21.245,2.7,16.371,5.154,20.183,7.407,21.863a9.784,9.784,0,0,0,5.8,1.968,8.245,8.245,0,0,0,8.306-7.435,24.548,24.548,0,0,0-.747-10.68c-2.216-6.489-4.289-24.807-4.015-29.7.157-.071.32-.143.481-.214a13.824,13.824,0,0,0,3.424-1.962c2.513-2.1,3.472-6.251,2.237-9.652-.49-1.349-2.528-5.571-8.853-6.064-.966-6.632-3.055-21.174-3.608-26.523a396.781,396.781,0,0,1-2.442-41.823,10.524,10.524,0,0,0-6.582-10.158,13.372,13.372,0,0,0-4.522-.845Zm-24.481,82.187c3.319-10.71,12.8-34.313,19.36-48.816,1.214,14.263,2.835,36.858,3.45,46.96-6.172.355-16.236,1.158-22.81,1.856Z" fill="#fff"/>
          </g>
          <g id="Group_1671" data-name="Group 1671">
            <path id="Path_5317" data-name="Path 5317" d="M4389.457,418.467a6.153,6.153,0,0,1-4.41-1.911c-1.9-1.9-2.946-5.046-2.94-8.846.008-6.7-.642-26.683-1.376-48.531-8.053.51-14.926.676-20.826.778.666,13.128,1.431,29.085,1.439,33.269,0,3.638-.449,6.345-1.38,8.278a5.654,5.654,0,0,1-5.136,3.572,6.669,6.669,0,0,1-5.123-2.786c-.767-1.065-2.553-3.543-5.072-42.653-8.5-1.3-10.319-5.189-10.319-8.279a12.038,12.038,0,0,1,1.048-4.506c1.144-1.921,3.583-2.748,8.357-2.814-1.092-20.535-1.565-37.457-1.179-42.319a7.234,7.234,0,0,1,6.774-6.957q.255-.009.5-.009c6.278,0,6.691,5.4,7.056,10.169.195,2.636,1.212,20.5,2.2,39.077,6.639-.055,14.577-.129,21.143-.194-.816-24.071-1.52-45.8-1.321-49.958.242-5.271,3.011-8.547,7.227-8.547,5.518,0,8.591,3.571,9.133,10.614l.008.107c.015.2.027.367.046.5.194,1.383.423,12.594.939,39.785l.142,7.5a6.456,6.456,0,0,1,5.818,3.891c.4,1.082,1.577,4.842-.121,7.6a4.8,4.8,0,0,1-3.621,2.292c-.6.072-1.208.141-1.811.209.4,20.407.906,43.985,1.33,48.7.361,4.065-.4,7.2-2.278,9.307a8.182,8.182,0,0,1-6.06,2.658l-.18,0Z"/>
            <path id="Path_5318" data-name="Path 5318" d="M4386.121,286.432c7.269,0,7.823,7.2,8,9.569.021.274.037.5.062.679.194,1.383.465,15.252.928,39.647l.162,8.557.859.039a5.391,5.391,0,0,1,5.008,3.159c.253.688,1.445,4.238-.022,6.622a3.7,3.7,0,0,1-2.786,1.761c-.949.112-1.9.22-2.834.321.433,22.242.928,45.073,1.355,49.814.332,3.742-.34,6.586-2,8.455a7.091,7.091,0,0,1-5.249,2.278l-.153,0a5.051,5.051,0,0,1-3.61-1.579c-1.688-1.691-2.615-4.549-2.609-8.045.007-6.713-.63-26.383-1.416-49.738-9.284.618-17.107.773-23.108.871.7,13.782,1.488,30.138,1.5,34.383,0,3.464-.412,6.01-1.268,7.784a4.51,4.51,0,0,1-4.116,2.932,5.5,5.5,0,0,1-4.205-2.318c-.6-.825-2.39-3.315-4.92-42.983-8.424-1.045-10.257-4.488-10.257-7.285a11.034,11.034,0,0,1,.894-3.936c.665-1.116,2.137-2.257,8.019-2.257.2,0,.386,0,.554,0-1.123-20.807-1.634-38.462-1.244-43.361a6.116,6.116,0,0,1,5.684-5.914q.237-.009.459-.009c5.23,0,5.553,4.226,5.927,9.125.2,2.745,1.268,21.5,2.26,40.13,7.233-.059,16.26-.144,23.386-.215-.869-25.631-1.557-46.913-1.359-51.024.213-4.677,2.492-7.469,6.1-7.469m0-2.264c-4.884,0-8.086,3.69-8.357,9.63-.2,4.136.452,24.423,1.28,48.886-5.964.059-12.887.123-18.9.174-.975-18.2-1.957-35.437-2.148-38.015-.362-4.739-.857-11.222-8.185-11.222-.176,0-.357,0-.545.01a8.345,8.345,0,0,0-7.854,7.989c-.384,4.823.064,21.263,1.114,41.32-4.464.2-6.872,1.208-8.132,3.324a13.048,13.048,0,0,0-1.213,5.094c0,2.809,1.4,7.578,10.379,9.245,2.509,38.579,4.272,41.025,5.225,42.347a7.72,7.72,0,0,0,6.042,3.258,6.749,6.749,0,0,0,6.155-4.212c1.008-2.089,1.5-4.958,1.493-8.77-.008-4.09-.73-19.257-1.381-32.158,5.349-.1,11.477-.262,18.544-.687.717,21.378,1.343,40.764,1.336,47.328-.007,4.1,1.155,7.528,3.271,9.647a7.264,7.264,0,0,0,5.212,2.244l.19,0a9.317,9.317,0,0,0,6.905-3.04c2.088-2.353,2.948-5.771,2.559-10.157-.415-4.607-.911-27.451-1.306-47.594l.8-.093a6,6,0,0,0,4.448-2.823c1.965-3.194.662-7.384.217-8.592a7.361,7.361,0,0,0-5.766-4.492l-.124-6.522c-.527-27.82-.745-38.469-.949-39.919-.017-.118-.025-.259-.038-.426l-.008-.111c-.741-9.637-5.989-11.66-10.262-11.66Z" fill="#fff"/>
          </g>
          <g id="Group_1672" data-name="Group 1672">
            <path id="Path_5319" data-name="Path 5319" d="M4444.1,383.062c-17.411,0-30.839-9.2-35.921-24.611-.081-.246-7.028-25.1,15.978-37.6a53.694,53.694,0,0,1,25.955-6.471,60.981,60.981,0,0,1,13.923,1.624c9.383,2.183,17.281,12.044,18.375,22.939,1.02,10.241-.457,19.062-4.393,26.218a32.864,32.864,0,0,1-18.554,15.325A46.755,46.755,0,0,1,4444.1,383.062Zm-.051-50.624c-8.728,0-14.339,2.739-17.154,8.37-2.566,5.131-.673,14.957,1.807,18.824,3.226,5.034,10.534,5.786,14.6,5.786a34.339,34.339,0,0,0,13.683-2.743c4.128-1.939,9.5-10.149,8.462-17.519-1.159-8.245-9.843-11.347-16.923-12.5-1.515-.142-3.047-.22-4.479-.22Z"/>
            <path id="Path_5320" data-name="Path 5320" d="M4450.109,315.515a59.844,59.844,0,0,1,13.668,1.595c8.932,2.078,16.456,11.513,17.5,21.949,1,10.008-.435,18.608-4.257,25.559a31.761,31.761,0,0,1-17.939,14.8,45.618,45.618,0,0,1-14.987,2.509c-16.9,0-29.924-8.909-34.846-23.833-.077-.237-6.776-24.179,15.443-36.248a52.577,52.577,0,0,1,25.415-6.334M4443.3,366.55a35.535,35.535,0,0,0,14.166-2.851c4.38-2.058,10.244-10.566,9.1-18.7-.994-7.067-7.17-11.72-17.862-13.457-1.625-.156-3.193-.234-4.661-.234-9.2,0-15.141,2.942-18.167,8.995-2.775,5.55-.811,15.764,1.866,19.941,3.517,5.487,11.257,6.307,15.558,6.307m6.806-53.3a54.824,54.824,0,0,0-26.5,6.609c-23.8,12.926-16.595,38.689-16.512,38.943,5.243,15.9,19.073,25.391,37,25.391a47.911,47.911,0,0,0,15.739-2.637c8.609-3.038,15.058-8.369,19.17-15.848,4.048-7.36,5.571-16.4,4.527-26.875-1.139-11.355-9.412-21.642-19.243-23.929a62.07,62.07,0,0,0-14.181-1.654Zm-6.806,51.035c-3.839,0-10.716-.684-13.652-5.264-2.351-3.67-4.07-13.062-1.747-17.708,2.641-5.282,7.771-7.743,16.142-7.743,1.373,0,2.843.073,4.371.216,6.691,1.1,14.851,3.992,15.91,11.526,1.036,7.369-4.475,14.765-7.821,16.337a33.148,33.148,0,0,1-13.2,2.636Z" fill="#fff"/>
          </g>
          <g id="Group_1673" data-name="Group 1673">
            <path id="Path_5321" data-name="Path 5321" d="M4499.9,398.157a5.94,5.94,0,0,1-4.341-1.89c-4.044-4.184-4.026-14.956-3.632-26.571.063-1.882.117-3.474.1-4.429a77.222,77.222,0,0,1,.558-8.032c.655-6.548,1.468-14.675.16-21.033-1.112-5.416-18.687-27.849-24.462-35.221-1.807-2.306-2.873-3.667-3.267-4.232a12.448,12.448,0,0,1-1.375-10.756,6.357,6.357,0,0,1,4.438-4.151,5.753,5.753,0,0,1,1.362-.16c6.5,0,14.023,10.757,24.761,27.164,2.617,4,5.782,8.835,7.6,11.067,2.126-2.194,6.073-7.222,9.324-11.364,9.731-12.393,21.84-27.817,29.925-29.875a6.248,6.248,0,0,1,1.527-.19,6.476,6.476,0,0,1,5.871,3.852c.627,1.393,1.662,5.113-2.279,9.56-9.3,10.5-33.989,38.378-37.081,44.808-1.758,3.643-1.364,22.99-.669,31.91.346,4.447.6,22.172-4.479,27.661A5.41,5.41,0,0,1,4499.9,398.157Z"/>
            <path id="Path_5322" data-name="Path 5322" d="M4542.584,279.616a5.343,5.343,0,0,1,4.839,3.184c.537,1.193,1.407,4.394-2.094,8.346-9.325,10.528-34.093,38.495-37.254,45.067-2,4.147-1.367,24.922-.778,32.489.5,6.44.144,22.13-4.181,26.8a4.311,4.311,0,0,1-3.211,1.519,4.829,4.829,0,0,1-3.527-1.545c-3.733-3.862-3.685-14.837-3.315-25.746.064-1.877.118-3.5.1-4.49a76.139,76.139,0,0,1,.554-7.914c.661-6.607,1.483-14.831.141-21.356-1.166-5.678-18.252-27.486-24.685-35.7-1.714-2.188-2.846-3.633-3.224-4.176a11.405,11.405,0,0,1-1.246-9.708,5.259,5.259,0,0,1,3.648-3.452,4.658,4.658,0,0,1,1.094-.129c5.915,0,13.6,11.049,23.814,26.653,3.072,4.693,6.819,10.42,8.482,12.074,1.861-1.564,6.312-7.232,10.284-12.291,9.624-12.259,21.6-27.515,29.313-29.477a5.107,5.107,0,0,1,1.248-.156m0-2.264a7.354,7.354,0,0,0-1.8.225c-8.462,2.153-20.191,17.093-30.539,30.274-2.828,3.6-6.187,7.88-8.358,10.316-1.851-2.481-4.591-6.668-6.731-9.938-11.271-17.221-18.624-27.676-25.709-27.68a6.9,6.9,0,0,0-1.629.193,7.558,7.558,0,0,0-5.232,4.851,13.666,13.666,0,0,0,1.507,11.8c.412.593,1.494,1.973,3.286,4.26,15.4,19.658,23.56,31.351,24.262,34.772,1.273,6.188.47,14.222-.175,20.676a77.286,77.286,0,0,0-.566,8.183c.02.936-.034,2.527-.1,4.369-.4,11.868-.4,22.894,3.951,27.4a7.041,7.041,0,0,0,5.154,2.235,6.64,6.64,0,0,0,4.873-2.245c5.267-5.693,5.211-22.929,4.777-28.518-.8-10.218-.915-28.275.559-31.329,3.026-6.291,28.529-35.087,36.909-44.55,4.378-4.941,3.182-9.182,2.465-10.776a7.611,7.611,0,0,0-6.9-4.519Z" fill="#fff"/>
          </g>
          <g id="Group_1674" data-name="Group 1674">
            <path id="Path_5323" data-name="Path 5323" d="M4558.766,408.125a19.366,19.366,0,0,1-4.739-.662,10.036,10.036,0,0,1-6.617-6.458c-.829-2.572-.97-6.648,3.063-11.457a9.583,9.583,0,0,1,7.635-3.61,15.391,15.391,0,0,1,5.218,1.05,8.249,8.249,0,0,1,5.217,5.787,14.88,14.88,0,0,1-2.129,11.863A9.1,9.1,0,0,1,4558.766,408.125Z"/>
            <path id="Path_5324" data-name="Path 5324" d="M4558.108,387.07a14.3,14.3,0,0,1,4.83.982,7.159,7.159,0,0,1,4.516,5.03,13.81,13.81,0,0,1-1.927,10.851,7.92,7.92,0,0,1-6.761,3.061,18.252,18.252,0,0,1-4.46-.628,8.849,8.849,0,0,1-5.819-5.708c-.741-2.3-.848-5.97,2.853-10.382a8.5,8.5,0,0,1,6.768-3.206m0-2.264a10.8,10.8,0,0,0-8.5,4.016c-4.365,5.2-4.189,9.687-3.272,12.531a11.067,11.067,0,0,0,7.414,7.207,20.519,20.519,0,0,0,5.019.7,10.161,10.161,0,0,0,8.523-3.9,15.912,15.912,0,0,0,2.344-12.888,9.46,9.46,0,0,0-5.919-6.542,16.453,16.453,0,0,0-5.606-1.119Z" fill="#fff"/>
          </g>
          <g id="Group_1675" data-name="Group 1675">
            <path id="Path_5325" data-name="Path 5325" d="M4560.226,382.568a8.241,8.241,0,0,1-1.273-.106l-.172-.027c-2.925-.463-5.248-1.217-6.328-6.257-5.231-24.279-.583-53.275,1.914-68.852.613-3.828,1.095-6.833,1.154-8.178.143-3.342.581-13.517,8.638-16.16a7.611,7.611,0,0,1,2.335-.354h.129a10.878,10.878,0,0,1,7.769,3.456,11.3,11.3,0,0,1,3.113,8.129c-.108,2.932-1.074,5.717-2.193,8.941-.254.735-.519,1.5-.785,2.3a131.282,131.282,0,0,0-7,41.893,243.281,243.281,0,0,1-1.863,29.028l-.03.275C4565.476,378.115,4564.986,382.568,4560.226,382.568Z"/>
            <path id="Path_5326" data-name="Path 5326" d="M4566.494,283.765l.12,0a9.748,9.748,0,0,1,6.957,3.1,10.148,10.148,0,0,1,2.8,7.308c-.1,2.761-1.041,5.472-2.13,8.611-.256.739-.522,1.507-.79,2.31a132.407,132.407,0,0,0-7.055,42.254,242.338,242.338,0,0,1-1.855,28.895l-.031.279c-.162,1.468-.541,4.908-4.287,4.908a7.031,7.031,0,0,1-1.094-.092l-.172-.027c-2.736-.433-4.464-1.01-5.4-5.376-5.188-24.074-.561-52.934,1.925-68.439.617-3.85,1.1-6.891,1.167-8.3.135-3.15.547-12.736,7.86-15.134a6.463,6.463,0,0,1,1.982-.3m.01-2.264h-.01a8.744,8.744,0,0,0-2.676.408c-8.814,2.891-9.276,13.655-9.428,17.192-.056,1.279-.558,4.41-1.139,8.035-2.511,15.659-7.181,44.792-1.9,69.282,1.226,5.724,4.133,6.641,7.258,7.135l.173.027a9.2,9.2,0,0,0,1.447.12c2.634,0,5.907-1.2,6.537-6.924l.031-.276a244.22,244.22,0,0,0,1.869-29.151,130.147,130.147,0,0,1,6.939-41.534c.264-.793.527-1.551.78-2.28,1.149-3.314,2.141-6.173,2.255-9.273a12.43,12.43,0,0,0-3.424-8.95,11.99,11.99,0,0,0-8.564-3.809h-.144Z" fill="#fff"/>
          </g>
        </g>
      </g>
    </g>
    <g id="Group_1716" data-name="Group 1716">
      <g id="Group_1715" data-name="Group 1715">
        <g id="Group_1708" data-name="Group 1708">
          <g id="Group_1685" data-name="Group 1685">
            <path id="Path_5329" data-name="Path 5329" d="M4069.039,442.9a35.873,35.873,0,0,1-5.491-.391,9.2,9.2,0,0,1-3.556-1.437,10.3,10.3,0,0,1-4.352.978,16.49,16.49,0,0,1-2.124-.167l-.13-.017c-.086-.012-.167-.024-.239-.029-.114-.008-.228-.019-.341-.033a10.4,10.4,0,0,0-1.288-.089,5.121,5.121,0,0,0-1.473.19,8.162,8.162,0,0,1-2.458.379,8.531,8.531,0,0,1-7.47-4.573l-.013.007a11.176,11.176,0,0,1-5.185,1.272,14.217,14.217,0,0,1-2.146-.18l.027-1.776-.183,1.753c-.124-.013-.248-.03-.371-.05-.664-.11-1.329-.211-1.99-.312l-.132-.021c-4.191-.64-8.523-1.3-13.052-3.5a11.3,11.3,0,0,1-5.667-6.041,25.708,25.708,0,0,1-12.357-7.927c-.107-.126-.208-.257-.3-.391a13.057,13.057,0,0,1-2.559-8.6c.028-.859.1-1.766.214-2.684-3.928-2.035-6.627-4.833-7.842-8.148-1.031-2.815-1.49-7.3,2.131-12.726a27.042,27.042,0,0,1-13.784-16.584c-2.338-7.975.359-17.741,6.876-24.86l.233-.281c-.008-.044-.016-.089-.022-.133a48.4,48.4,0,0,1,5.113-37.373c7.556-13.321,19.871-18.352,31.845-22.35.467-.194,1.147-.476,1.705-.73a39.933,39.933,0,0,1,7.306-24.957c9.586-13.4,25.32-22.822,48.106-28.806l.125-.031a171.936,171.936,0,0,1,27.438-4.313,63.024,63.024,0,0,1,22.961-33.352c13.978-10.431,33.393-16.2,54.667-16.244h.236c18.717,0,46.354,5.283,65.274,19.927v-.008a7.578,7.578,0,0,1,2.069-5.591,7.715,7.715,0,0,1,5.573-2.412h19.464a7.711,7.711,0,0,1,5.634,2.48,7.5,7.5,0,0,1,2,5.644,103.241,103.241,0,0,1-1.694,11.338c3.568-1.761,7.228-3.558,10.488-4.909a7.589,7.589,0,0,1,2.9-.583,7.348,7.348,0,0,1,6.2,3.415,7.43,7.43,0,0,1,1,2.1l5.535,18.247a7.664,7.664,0,0,1-5.356,9.592c-3.319.881-7.143,1.761-10.845,2.613l.054.054c2.8,2.829,5.68,5.744,8.112,8.752a7.67,7.67,0,0,1-1.466,11.151L4282.606,271.7a7.355,7.355,0,0,1-4.353,1.407,7.736,7.736,0,0,1-6.667-3.826c-1.728-3-3.427-6.407-5.075-9.74-1.905,3.456-3.836,6.943-5.8,10a7.826,7.826,0,0,1-6.514,3.565,7.311,7.311,0,0,1-4.362-1.422s-12.016-8.781-15.735-11.5a7.663,7.663,0,0,1-1.406-11.213c2.478-2.994,5.417-5.91,8.26-8.731-3.789-.857-7.672-1.735-11.065-2.617a7.669,7.669,0,0,1-5.383-9.565l5.448-18.238a7.737,7.737,0,0,1,.4-1.062c-12.752-7.272-30.11-11.581-46.86-11.581h-.206c-10.673.023-45.7,2.333-57.675,30.509,20.824.982,40.88,6.061,58.149,14.745,29.882,14.954,47.925,43.261,48.262,75.719.432,21.294-5.578,40.309-16.924,53.524a40.07,40.07,0,0,1-30.522,14.313,38.522,38.522,0,0,1-8.552-.962c-2.034-.414-3.975-.994-5.851-1.554-.8-.241-1.58-.472-2.331-.682.014.118.027.236.038.355a27.367,27.367,0,0,1-4.147,17.836l-.082.124c-7.067,10.4-20.246,16.858-34.391,16.858-1.194,0-2.386-.046-3.569-.137a12.548,12.548,0,0,1-3.581,13.083c-3.672,3.231-8.086,4.1-11.916,4.528l-.1.01c-1.351.129-2.72.194-4.072.194-.34,0-.681,0-1.024-.013-2.41,2.905-5.986,3.917-7.981,4.481l-.554.158c-.157.046-.323.088-.491.122a45.192,45.192,0,0,1-8.819.943,27.618,27.618,0,0,1-6.545-.724C4077.762,442.13,4073.876,442.9,4069.039,442.9Z"/>
            <path id="Path_5330" data-name="Path 5330" d="M4183.493,180.139c22.66,0,50.3,7.05,67.423,22.229-.18-1.427-.318-2.825-.39-4.168a5.806,5.806,0,0,1,1.59-4.284,5.943,5.943,0,0,1,4.293-1.862h19.464a5.944,5.944,0,0,1,4.341,1.916,5.744,5.744,0,0,1,1.533,4.311,110.048,110.048,0,0,1-1.826,11.979c-.165.874-.331,1.755-.493,2.633.884-.433,1.771-.871,2.652-1.306,3.705-1.831,7.537-3.723,10.893-5.115a5.834,5.834,0,0,1,2.229-.448,5.61,5.61,0,0,1,4.719,2.6,5.857,5.857,0,0,1,.8,1.657l4.831,15.925.705,2.324a5.9,5.9,0,0,1-4.122,7.378c-3.314.88-7.154,1.762-10.868,2.616-.993.228-2,.459-2.991.69.738.757,1.5,1.524,2.267,2.3,2.761,2.792,5.616,5.679,7.994,8.621a5.907,5.907,0,0,1-1.132,8.618l-15.835,11.511a5.6,5.6,0,0,1-3.317,1.069,5.959,5.959,0,0,1-5.144-2.95c-1.8-3.117-3.582-6.728-5.308-10.22-.4-.807-.8-1.621-1.2-2.431-.482.865-.961,1.736-1.437,2.6-1.928,3.5-3.922,7.121-5.934,10.249a6.044,6.044,0,0,1-5.032,2.756,5.567,5.567,0,0,1-3.318-1.08l-4.555-3.329q-5.6-4.09-11.183-8.176a5.9,5.9,0,0,1-1.094-8.662c2.434-2.94,5.349-5.832,8.169-8.629q1.146-1.137,2.25-2.241c-1.018-.233-2.04-.464-3.053-.693-3.778-.854-7.685-1.737-11.081-2.619a5.908,5.908,0,0,1-4.138-7.354l5.448-18.239a5.907,5.907,0,0,1,1.167-2.166c-12.911-7.843-31.041-12.744-49.316-12.744h-.206c-11.658.025-48.859,2.649-60.223,33.934,21.491.674,42.108,5.707,59.906,14.656,29.281,14.654,46.961,42.4,47.291,74.164.424,20.877-5.442,39.478-16.5,52.358a38.319,38.319,0,0,1-29.185,13.7,36.787,36.787,0,0,1-8.16-.918c-2-.408-3.909-.978-5.753-1.529-1.741-.52-3.4-1.018-5.011-1.338l0,.01c.186.935.378,1.9.472,2.865a25.593,25.593,0,0,1-3.872,16.707c-.019.03-.038.059-.058.088-6.746,9.925-19.366,16.09-32.936,16.09a44.276,44.276,0,0,1-6.42-.464q.206.384.4.786c2.305,4.276,1.313,10.05-2.256,13.035-3.335,2.933-7.419,3.733-10.979,4.128l-.073.007c-1.295.123-2.608.186-3.9.186q-.933,0-1.881-.044c-2.014,3-5.526,3.991-7.6,4.578l-.559.16c-.12.035-.242.065-.364.091a43.478,43.478,0,0,1-8.461.906,24.878,24.878,0,0,1-6.794-.851c-2.612,1.613-6.4,2.427-11.316,2.427a34.032,34.032,0,0,1-5.207-.368,7.568,7.568,0,0,1-3.707-1.82,7.379,7.379,0,0,1-3.661,1.3,7.811,7.811,0,0,1-.825.042,14.754,14.754,0,0,1-1.9-.153c-.17-.022-.33-.046-.469-.056-.082-.005-.164-.013-.247-.024a12.133,12.133,0,0,0-1.5-.1,6.849,6.849,0,0,0-1.986.267,6.428,6.428,0,0,1-1.946.3,6.808,6.808,0,0,1-6.448-4.956c-.015-.054-.03-.108-.044-.162-.037-.147-.072-.293-.106-.44a8.375,8.375,0,0,1-1.584,1.129c-.037.021-.074.04-.112.06a9.429,9.429,0,0,1-4.374,1.075,12.45,12.45,0,0,1-1.89-.161c-.082-.013-.158-.025-.229-.033-.088-.009-.176-.021-.264-.035-.719-.118-1.434-.228-2.145-.336-4.061-.621-8.26-1.263-12.55-3.345a9.385,9.385,0,0,1-5.04-5.873,24.508,24.508,0,0,1-12.4-7.64q-.117-.14-.222-.288a11.286,11.286,0,0,1-2.237-7.424,30.633,30.633,0,0,1,.386-3.856c-4.159-1.877-6.932-4.505-8.114-7.731-.9-2.452-1.276-6.4,2.031-11.272q.045-.068.093-.132a15.21,15.21,0,0,1,1.158-1.4,25.191,25.191,0,0,1-14.894-16.378c-2.176-7.424.368-16.516,6.48-23.193.233-.278.623-.746.847-1.076a4.688,4.688,0,0,1-.209-.9,46.474,46.474,0,0,1,4.9-36.1c7.258-12.794,19.255-17.7,30.948-21.6h0a22.047,22.047,0,0,0,2.932-1.361c0-.036-.006-.078-.011-.125,0-.029-.006-.059-.008-.088a37.993,37.993,0,0,1,6.92-24.747c9.331-13.045,24.742-22.243,47.115-28.118l.091-.023a169.951,169.951,0,0,1,28.388-4.357,61.189,61.189,0,0,1,22.65-33.609c13.678-10.205,32.716-15.85,53.618-15.893h.232m0-3.525h-.232c-21.658.045-41.445,5.938-55.725,16.593a64.689,64.689,0,0,0-23.249,33.1,173.73,173.73,0,0,0-26.509,4.263l-.149.037c-23.211,6.1-39.268,15.738-49.1,29.48a41.886,41.886,0,0,0-7.689,24.855l-.513.213c-11.737,3.922-24.89,9.286-32.761,23.133a50.279,50.279,0,0,0-5.5,37.919c-6.629,7.523-9.319,17.708-6.856,26.112a28.819,28.819,0,0,0,13,16.732c-2.929,5.315-2.385,9.764-1.32,12.669a16.681,16.681,0,0,0,7.621,8.523q-.072.825-.1,1.645a14.839,14.839,0,0,0,2.887,9.677c.123.173.252.339.386.5a27.094,27.094,0,0,0,12.4,8.221,13.2,13.2,0,0,0,6.214,6.207c4.762,2.311,9.429,3.025,13.548,3.654.7.107,1.4.215,2.108.33.153.026.309.047.465.063l.015,0,.064.009a15.769,15.769,0,0,0,2.41.2,12.844,12.844,0,0,0,4.532-.819,10.247,10.247,0,0,0,8.136,4.113,9.963,9.963,0,0,0,3.011-.467,3.367,3.367,0,0,1,.921-.1,8.619,8.619,0,0,1,1.068.075c.143.018.289.033.435.043.03,0,.084.011.14.019l.13.017a18.045,18.045,0,0,0,2.348.181,11.119,11.119,0,0,0,1.2-.062,10.792,10.792,0,0,0,3.023-.7,10.644,10.644,0,0,0,3.436,1.2,37.2,37.2,0,0,0,5.743.408,27.338,27.338,0,0,0,11.793-2.2,30.027,30.027,0,0,0,6.317.627,47.045,47.045,0,0,0,9.177-.98q.319-.066.635-.159l.54-.154c2.034-.575,5.579-1.577,8.274-4.4h.243c1.406,0,2.832-.068,4.238-.2l.1-.01c3.883-.43,8.827-1.38,12.917-4.96a14.2,14.2,0,0,0,4.6-12.527q.693.02,1.387.02c14.721,0,28.458-6.756,35.851-17.633.033-.049.07-.1.1-.159A29.245,29.245,0,0,0,4169.8,385.2c1.864.557,3.785,1.126,5.868,1.552a40.3,40.3,0,0,0,8.9,1,41.837,41.837,0,0,0,31.872-14.943c11.616-13.529,17.777-32.965,17.336-54.71-.344-33.1-18.751-61.987-49.238-77.244a146.529,146.529,0,0,0-56.25-14.784c12.457-25.006,44.9-27.108,55-27.129h.2c15.9,0,32.335,3.94,44.7,10.631l-5.372,17.984a9.43,9.43,0,0,0,6.616,11.77c2.5.65,5.245,1.294,8.01,1.926-2.13,2.141-4.238,4.338-6.111,6.6a9.426,9.426,0,0,0,1.735,13.759q5.519,4.039,11.08,8.1l.1.071,4.555,3.329a9.056,9.056,0,0,0,5.4,1.758,9.6,9.6,0,0,0,8-4.372c1.44-2.24,2.854-4.693,4.238-7.17,1.188,2.362,2.4,4.692,3.628,6.826a9.513,9.513,0,0,0,8.2,4.714,9.107,9.107,0,0,0,5.389-1.743l15.836-11.511a9.431,9.431,0,0,0,1.8-13.681c-1.86-2.3-3.956-4.527-6.073-6.694,2.712-.63,5.4-1.272,7.831-1.917a9.428,9.428,0,0,0,6.589-11.812l-.7-2.32-4.83-15.925a9.39,9.39,0,0,0-1.243-2.593,9.1,9.1,0,0,0-7.649-4.169,9.328,9.328,0,0,0-3.571.714c-2.351.974-4.892,2.169-7.455,3.416a80.806,80.806,0,0,0,1.086-8.1,9.255,9.255,0,0,0-2.462-6.959,9.482,9.482,0,0,0-6.927-3.045h-19.464a9.48,9.48,0,0,0-6.852,2.962,9.385,9.385,0,0,0-2.128,3.613c-18.994-13.531-44.853-18.491-63.936-18.491Z" fill="#fff"/>
          </g>
          <g id="Group_1707" data-name="Group 1707">
            <path id="Path_5331" data-name="Path 5331" d="M4222.652,317.338c-.078-5.646-.008-11.344-.584-16.963-.785-7.649-3.963-12.818-7.814-19.123-6.093-9.973-10.748-19.532-21.6-25.36a49.235,49.235,0,0,0-9.877-3.948,18.261,18.261,0,0,0-8.265-7.447,3.484,3.484,0,0,1-2.4.249c-2.136-.5-4.244-1.136-6.341-1.821-4.43-.069-9.029-.292-13.7-.449-12.343-4.1-24.973-7.373-37.323-5.746a8.274,8.274,0,0,0-2.728-.148c-17.841,1.8-35.7,3.815-52.216,11.245-13.564,6.1-32.053,18.874-29.211,35.966.417,2.51.6,5.454-.574,7.887-1.316,2.713-5.5,4.89-8.058,5.906-7.58,3.015-16.277,7.42-22.306,13.033-6.152,5.727-6.633,13.238-8.21,20.787-1.441,6.893.535,11.626,1.05,18.6-2.032.8-6.46,6.166-7.417,8.7-3.025,8,1.322,16.3,7.284,22.009a1.423,1.423,0,0,1,.553.2,22.812,22.812,0,0,0,2.6,1.72,4.1,4.1,0,0,0,.532.153,3.1,3.1,0,0,0,.57,0,1.729,1.729,0,0,1,.539.051l.412.173c.035.019.063.047.1.068a3.662,3.662,0,0,1,1.283-.233,3.273,3.273,0,0,1,2.729,1.3,1.727,1.727,0,0,1,.728,3.371c-.043.017-.1.059-.154.087a3.264,3.264,0,0,1-2.334,2.32q-.387.543-.729,1.118a11.477,11.477,0,0,0-1.843,4.664c-.111,1.669.555,2.448,1.709,3.5a18.794,18.794,0,0,1,2.508,2.63c.03,0,.055-.008.085-.008a1.559,1.559,0,0,1,1.386.735,4.657,4.657,0,0,0,.879-.581,29.874,29.874,0,0,0,2.675-2.888l2.9-3.2c1.034-1.139,2.042-2.316,3.167-3.368.2-.183.4-.355.605-.529a35.992,35.992,0,0,0-8.166,14.376c-.989,3.419-1.642,7.578.951,10.481,1.4,1.565,3.366,2.09,5.3,2.667a9.388,9.388,0,0,1,4.144,2.558,1.686,1.686,0,0,1,.845-.545,1.75,1.75,0,0,1,2.121,1.2,16.994,16.994,0,0,0,1.214,3.31c.267.551.552,1.093.844,1.631.133.245.277.482.432.713.06.089.123.175.186.262.667.319,1.335.636,1.993.974a32.2,32.2,0,0,0,4.6,1.876c.573.076,1.144.136,1.711.167,2.526.137,5.77.663,6.764-1.317,1.641-3.265,2.193-7.922,5.871-8.508,1.343-.214,2.21-.168,1.876.994a1.721,1.721,0,0,1,1.567,1.706,56.95,56.95,0,0,0-.1,10.111,1.6,1.6,0,0,1,1.522-1.036c2.451-.051,4.695,1.185,7.075,1.578,1.272-.945,2.233-2.221,2.024-3.154,1.023-1.089,1.226-1.912,1.722-2.088.049-.093.082-.191.138-.282a1.756,1.756,0,0,1,2.707-.349c2.394,1.886,3.868,5,7.087,5.524,3.721.607,7.289-.771,10.933-1.212,3.254-.395,6.453.516,9.7.567,1.833-.153,3.666-.319,5.484-.548.217-.039.433-.082.65-.122a10.251,10.251,0,0,0,1.845-7.054,18.57,18.57,0,0,0,2.043-.543,4.087,4.087,0,0,0,2.133.982,1.614,1.614,0,0,1,1.65-1.548c4.2-.019,8.34-.789,12.507-1.244.1-.11.2-.21.293-.322.02-.025.165-.211.206-.26.057-.079.13-.177.143-.2q.229-.316.445-.643a25.085,25.085,0,0,0,1.562-2.782,12.776,12.776,0,0,0-3.489-6.626c1.8-1.453,1.123-3.9,2.271-5.891.327.127.661.249,1.017.358a28.539,28.539,0,0,0,6.645,1.062c.748.042,3.618-.308,2.539-.349,5.106.029,8.8,1.808,14.182.247a27.432,27.432,0,0,0,11.525-6.6c8.491-8.319,8.7-20.01,9.377-30.685a31.016,31.016,0,0,0,17.537,3.914,17.577,17.577,0,0,0,8.776,2.31,18.742,18.742,0,0,0,12.958-5.541,18.521,18.521,0,0,0,8.309-10.765,45.779,45.779,0,0,0,7.3-9.164C4222.661,341.437,4222.818,329.455,4222.652,317.338Z" fill="#fff1cc"/>
            <g id="Group_1689" data-name="Group 1689">
              <path id="Path_5332" data-name="Path 5332" d="M4048.39,334.179c.4-2.362-1.186-4.186-1.51-6.316-.184-1.212.365-3.487-.861-4.011-.6-5.726-4.263-9.588-9.436-13.1-8.287-5.629-19.7.246-23.944,8.181a10,10,0,0,0-.454.909,2.558,2.558,0,0,0-.223.989c-3.865,4.172-6.667,8.977-6.787,14.988a2.527,2.527,0,0,0-.718,1.705,34.7,34.7,0,0,0,.019,5.874c.2,1.271.267,2.36.568,3.586.039.506.41,1.2.49,1.7a3.226,3.226,0,0,0,.05.95c1.494,7.472,7.561,14.241,14.009,17.78,8.5,4.664,13.681.03,20.26-6.481,1.225-1.213,3.081-2.428,3.679-4.05,1.09-.912,1.744-3.649,2.508-4.817a11.87,11.87,0,0,0,1.589-4.93c.109-.817,1.278-2.958.639-3.424.771-2.2-.241-3.267.2-5.76C4048.6,337.242,4048.837,334.658,4048.39,334.179Z" fill="#1a1a1a"/>
              <g id="Group_1688" data-name="Group 1688" clip-path="url(#clip-path-3)">
                <g id="Group_1686" data-name="Group 1686">
                  <ellipse id="Ellipse_128" data-name="Ellipse 128" cx="22.369" cy="24.961" rx="22.369" ry="24.961" transform="translate(4013.938 333.941)" fill="#f2f2f2"/>
                </g>
                <g id="Group_1687" data-name="Group 1687">
                  <path id="Path_5333" data-name="Path 5333" d="M4022.076,360.076c0-13.336,9.38-24.2,21.176-24.893a20.2,20.2,0,0,0-6.945-1.242c-12.354,0-22.369,11.175-22.369,24.96s10.015,24.961,22.369,24.961c.4,0,.8-.044,1.193-.067C4028.548,380.533,4022.076,371.154,4022.076,360.076Z" fill="#ccc"/>
                </g>
              </g>
            </g>
            <g id="Group_1693" data-name="Group 1693">
              <path id="Path_5335" data-name="Path 5335" d="M4128.666,341.628a2.312,2.312,0,0,0-.285-.679,41.438,41.438,0,0,0-.85-8.239,26.343,26.343,0,0,0-25.37-20.856,8.165,8.165,0,0,0-.833.046c-4.334-.857-8.864.493-12.785,3.043-5.525.718-9.281,5.867-12.169,10.612-3.655,6.005-5.809,13.324-4.756,20.338a2.38,2.38,0,0,0-.067.506c.2,9,2.9,20.571,10.182,26.6,4.314,3.572,9.283,4.644,14.389,4.544,1.5,1.181,4.78,1.176,6.863.78,5.9-.057,10.256-2.558,13.861-6.339a5.234,5.234,0,0,0,2.15-1.249,32.938,32.938,0,0,0,6.569-9.274,16.631,16.631,0,0,0,1.7-4.472,2.739,2.739,0,0,0-.011-1.457A22.235,22.235,0,0,0,4128.666,341.628Z" fill="#1a1a1a"/>
              <g id="Group_1692" data-name="Group 1692" clip-path="url(#clip-path-4)">
                <g id="Group_1690" data-name="Group 1690">
                  <ellipse id="Ellipse_129" data-name="Ellipse 129" cx="25.378" cy="28.318" rx="25.378" ry="28.318" transform="translate(4066.021 335.057)" fill="#f2f2f2"/>
                </g>
                <g id="Group_1691" data-name="Group 1691">
                  <path id="Path_5336" data-name="Path 5336" d="M4107.544,364.708c0-15.13-10.642-27.452-24.025-28.242a22.935,22.935,0,0,1,7.88-1.409c14.016,0,25.378,12.678,25.378,28.318s-11.362,28.318-25.378,28.318c-.457,0-.9-.05-1.353-.076C4100.2,387.915,4107.544,377.275,4107.544,364.708Z" fill="#ccc"/>
                </g>
              </g>
            </g>
            <path id="Path_5338" data-name="Path 5338" d="M4079.383,433.575c2.992-.188,5.944.577,8.936.624,1.833-.153,3.666-.319,5.484-.548,1.268-.226,2.535-.468,3.8-.693a5.159,5.159,0,0,0,1.2-1.818c1.789-4.6-2.61-19.542-4.517-23.858-4.267-9.655-11.413-13.478-25.886-4.5.869,1.3,3.045,4.5,3.221,5.312C4072.409,411.708,4076.362,427.921,4079.383,433.575Z" fill="#fc3"/>
            <g id="Group_1694" data-name="Group 1694">
              <path id="Path_5339" data-name="Path 5339" d="M4087.588,406.6c4.7,1.783,7.238,8.689,5.626,13.315-.975-2.339-1.666-4.515-2.618-6.779a66.729,66.729,0,0,0-3.008-6.536Z" fill="#fff"/>
            </g>
            <path id="Path_5340" data-name="Path 5340" d="M4021.208,298.687s15.466-5.925,21.226,1.581c.143-7.243-12.365-6.451-5.441-28.5-5.014,1.818-5.718,13.748-5.718,13.748l.132,6.321Z" fill="#fc3"/>
            <circle id="Ellipse_130" data-name="Ellipse 130" cx="10.047" cy="10.047" r="10.047" transform="translate(4184.463 293.86)" fill="#fc3"/>
            <circle id="Ellipse_131" data-name="Ellipse 131" cx="6.378" cy="6.378" r="6.378" transform="translate(4173.691 313.954)" fill="#fc3"/>
            <circle id="Ellipse_132" data-name="Ellipse 132" cx="3.189" cy="3.189" r="3.189" transform="translate(4173.691 300.717)" fill="#fc3"/>
            <circle id="Ellipse_133" data-name="Ellipse 133" cx="3.189" cy="3.189" r="3.189" transform="translate(4194.51 317.679)" fill="#fc3"/>
            <path id="Path_5341" data-name="Path 5341" d="M4138.468,238.771c-10.3-.7-22.885,2.043-29.2,8.222-4.393,4.3,2.043,7.48,6.422,4.476,9.652-6.622,19.106-9.258,30.126-9.932C4151.579,241.184,4139.043,239.291,4138.468,238.771Z" fill="#fc3"/>
            <path id="Path_5342" data-name="Path 5342" d="M4068.439,403.194s13.393,7.394,15.672,18.541l2.28,11.147-6.942-1.316S4075.359,409.57,4068.439,403.194Z" fill="#fc3" style="mix-blend-mode: multiply;isolation: isolate"/>
            <path id="Path_5343" data-name="Path 5343" d="M4138.383,344.062c.858,7.6,1.366,15.646-1.725,22.888-8.338,17.692-31.18,25.139-48,14.861-14.585-8.718-20.767-26.511-19.22-42.726a35.253,35.253,0,0,1,18.007-28.065c8.461-5.015,18.446-4.819,27.1-.317a43.465,43.465,0,0,1,23.838,33.359Zm-7.968,0c.367-7.794-2.281-16.191-7.92-21.935-8.449-9.362-21.689-15.011-33.574-8.429-25.742,13.163-24.9,51.91,2.1,62.833,22,7.756,39.2-11.34,39.4-32.469Z" fill="#fc3"/>
            <path id="Path_5344" data-name="Path 5344" d="M4049.783,338.146c-.117,15.557-11.573,32.993-28.4,33.952-.871-.13-1.637.423-2.519.7a5.151,5.151,0,0,1-3.623.376,21.662,21.662,0,0,1-2.947-1.6,27.749,27.749,0,0,1-8.818-9.268c-8.366-13.91-5.107-32.524,4.635-44.742,5.869-7.3,14.911-13.637,24.681-12.493,12.3,3.2,17.057,21.944,16.991,33.07Zm-1.2,0c-.114-10.329-4.9-28.293-16.165-31.142-8.816-.886-16.787,5.621-21.529,12.55-11.291,16.484-9.115,42.225,11.584,49.535a14.188,14.188,0,0,0,10.188-1.189c10.054-6.151,16-18.117,15.922-29.754Z" fill="#fc3"/>
            <path id="Path_5345" data-name="Path 5345" d="M4065.88,306.66" fill="none" stroke="#fc3" stroke-miterlimit="10" stroke-width="3.284"/>
            <path id="Path_5346" data-name="Path 5346" d="M4082.061,306.2c7.1-10.892,23.8-13.987,32.432-3.181-11.984-5.795-21.412-3.284-32.432,3.181Z" fill="#fc3"/>
            <g id="Group_1695" data-name="Group 1695">
              <path id="Path_5347" data-name="Path 5347" d="M4000.408,360.958c-13.93-12.056-14.838-33.259-5.729-48.533,4.412-7.89,12.169-13.594,20.551-16.658,2.711-1.064,5.453-1.933,7.977-2.9,2.5-.942,4.853-2.159,5.559-3.6a4.749,4.749,0,0,0,.395-2.779,35.372,35.372,0,0,1-.035-4.579c2.186-25.149,29.09-37.784,50.582-43.339,42.9-10.423,98.305-4.138,128.426,31.146,15.185,18.034,20.112,43.018,16.179,65.93-2.06,11.517-6.307,22.886-14.137,31.839a33.339,33.339,0,0,1-32.772,11.228c-4.1-.827-8.085-2.52-12.2-3.118-1.394-.14-4.143-.64-4.494.792-.584,2.027.531,5.183.738,7.436a20.824,20.824,0,0,1-3.144,13.646c-8.419,12.6-26.448,16.586-40.343,12.384a30.393,30.393,0,0,1-14.479-9.324l.065-.072c14.678,10.64,40.37,10.191,50.918-5.386a16.152,16.152,0,0,0,2.315-10.694c-1.027-4.992-2.942-12.15,4.115-13.7,4.94-.635,9.1,1.038,13.615,2.362a29.633,29.633,0,0,0,19.309.212c10.125-3.6,17.062-12.987,21.125-22.711,6.284-15.18,7.145-32.485,3.573-48.451-4.686-21.713-20.4-39.415-40.071-49.213-33.836-16.876-78.126-17.958-113.143-3.955-14.283,5.944-29.961,16.641-31.238,33.316a30.689,30.689,0,0,0,0,3.9c.739,6.131-4.04,9.51-9.138,11.25-10.732,3.577-20.367,7.042-26.3,17.379-8.586,14.711-8.182,32.294,1.775,46.2Z"/>
            </g>
            <g id="Group_1696" data-name="Group 1696">
              <path id="Path_5348" data-name="Path 5348" d="M3992.406,344.651c2.877,5.656-4.18,9.62-5.725,14.318-4.3,9.505,1.293,19.6,10.675,23.119,4.57,1.837,9.858,1.957,14.848,1.8a29.412,29.412,0,0,1-15.453-.04,20.335,20.335,0,0,1-13.641-13.839c-1.929-6.58,1.054-13.95,5.5-18.768,1.513-1.8,2.737-3.369,1.768-5.688l2.028-.9Z"/>
            </g>
            <g id="Group_1697" data-name="Group 1697">
              <path id="Path_5349" data-name="Path 5349" d="M4015.386,372.98c15.119-3.626,27.572-9.54,31.042-26.058a42.6,42.6,0,0,0-6.059-31.042c-3.05-4.508-7.114-7.771-12.766-6.367-12.268,2.9-19.986,16.2-22.008,27.934-1.938,10.7,1.992,22.1,11.666,27.683a36.936,36.936,0,0,0,9.94,4.084l-.585,2.276a47.883,47.883,0,0,1-5.437-1.777,29.593,29.593,0,0,1-13.578-10.455c-8.864-13.125-4.518-31.259,5.114-42.759,4.891-5.795,12.541-10.869,20.473-9.338,4.016,1.065,6.872,4.144,9.151,7.356a44.631,44.631,0,0,1,6.516,32.907c-2.128,11.583-11.085,20.92-22.278,24.229a35.5,35.5,0,0,1-11.166,1.542l-.025-.215Z"/>
            </g>
            <g id="Group_1698" data-name="Group 1698">
              <path id="Path_5350" data-name="Path 5350" d="M4138.759,353.19c2.725,10.6-2.974,22.568-12.653,27.532a30.8,30.8,0,0,1-6.887,2.655c1.365-.932,2.793-1.666,4.117-2.562.695-.514,2.239-1.586,2.9-2.076,8.1-6.38,12.128-15.271,12.519-25.549Z"/>
            </g>
            <ellipse id="Ellipse_134" data-name="Ellipse 134" cx="29.664" cy="33.672" rx="29.664" ry="33.672" transform="translate(4070.376 311.231)" fill="none" stroke="#000" stroke-miterlimit="10" stroke-width="2.35"/>
            <g id="Group_1699" data-name="Group 1699">
              <path id="Path_5351" data-name="Path 5351" d="M4087.745,381.115c-14.029-5.7-18.292-22.4-18.465-36.212h2.549c-.481,13.468,3.012,29.355,16.027,35.976l-.111.236Z"/>
            </g>
            <g id="Group_1700" data-name="Group 1700">
              <path id="Path_5352" data-name="Path 5352" d="M4006.73,405.9c-4.22-.859-10.546-2.617-12.257-7.263a8.7,8.7,0,0,1,1.658-6.766,14.329,14.329,0,0,1,2.9-2.831c1.975-1.478,3.618-2.678,2.621-5.354l.313-.179a5.1,5.1,0,0,1,1.023,1.719c1.06,3.376-2.855,5.788-4.047,8.423a6.429,6.429,0,0,0-.6,3.824,8.052,8.052,0,0,0,3,2.514c1.945,1.159,4.108,2.123,6.3,3.285l-.916,2.628Z"/>
            </g>
            <g id="Group_1701" data-name="Group 1701">
              <path id="Path_5353" data-name="Path 5353" d="M4021.351,385.914c-7.9,6.553-14.69,15.866-14.278,26.417.014.119-.032.5.043.59.4,1.2,1.4,1.868,2.486,2.682a42.374,42.374,0,0,0,11.094,4.581l-.72,3.96c-5.945-.7-16.241-3.8-17.336-10.722-.2-9.636,5.415-18.616,12.916-24.292a42.016,42.016,0,0,1,5.509-3.636l.286.42Z"/>
            </g>
            <g id="Group_1702" data-name="Group 1702">
              <path id="Path_5354" data-name="Path 5354" d="M4047.175,420.941c-2.762,1.436-6.272,2.426-7.326,5.335-.413,1.107-.487,2.52-1.04,3.836-.953,2.217-3.361,2.735-5.512,2.252-2.6-.388-5.39-.791-7.961-1.407-2.535-.716-6-1.285-7.661-3.873a3.232,3.232,0,0,1-.21-2.606l.191-.652c3.74-12.064,9.215-25.309,19.776-32.969,3.046-2.188,8.383-3.344,8.937,1.837l-.4.07c-.955-4.33-5.147-2.785-7.655-.669-9.568,8.318-14.273,22.034-17.424,33.441-.009-.229-.11-.26.04-.121,1.393,1.038,3.32,1.421,5.231,1.881,2.39.53,5.187.893,7.654,1.211a4.029,4.029,0,0,0,1.335.015,29.482,29.482,0,0,1,1.4-3.788c1.914-3.83,6.845-4.869,10.622-3.793Z"/>
            </g>
            <g id="Group_1703" data-name="Group 1703">
              <path id="Path_5355" data-name="Path 5355" d="M4068.346,402.606c7.367,7.768,10.079,18.722,11.437,29.061a3.11,3.11,0,0,1-1.049,2.455,9.362,9.362,0,0,1-4.577,1.859,27.939,27.939,0,0,1-9.859.079,2.785,2.785,0,0,1-1.07-.645c-1.7-1.847-2.739-4.072-4.137-5.88a6.926,6.926,0,0,0-1.318-1.444.867.867,0,0,0,.6,0,.787.787,0,0,0,.429-.3,16.01,16.01,0,0,0-.33,4.91c.151,2.161-1.618,3.127-3.443,2.855a16.681,16.681,0,0,0-6.331.027,2.346,2.346,0,0,1-2.159-.088,2.5,2.5,0,0,1-.891-1.237,28.013,28.013,0,0,1-.712-7.412c.16-9.347.671-18.843,3.921-27.719,1.326-3.154,3.808-8.207,7.871-7.463-5.692.872-6.784,14.055-7.653,18.826-.8,7.411-1.54,15.262-.315,22.622.011.036.033.056-.033-.047a1.175,1.175,0,0,0-.326-.317,1.493,1.493,0,0,0-1.241-.186,16.313,16.313,0,0,1,6.823-.475c.318.007,1.489.206,1.766.162.1.007.032-.054-.263.146a1.034,1.034,0,0,0-.295.372.615.615,0,0,0-.053.168l-.013-.465c.052-2.182-.467-6.528,2.186-7.552,3.6-1.041,6.192,6.129,8.155,8.138.026.034.043.023-.094-.05a.821.821,0,0,0-.116-.05,3.757,3.757,0,0,0,.588.121,29.38,29.38,0,0,0,7.782-.134,7.1,7.1,0,0,0,3.224-1.125,76.134,76.134,0,0,0-2.87-14.857c-1.37-4.944-3.654-9.778-5.638-14.355Z"/>
            </g>
            <g id="Group_1704" data-name="Group 1704">
              <path id="Path_5356" data-name="Path 5356" d="M4087.931,398.936c7.575,4.643,11.874,13.39,12.8,22.065a42.034,42.034,0,0,1,.045,8.992c-.735,2.757-3.832,3.4-6.119,4.064-4.891,1.042-14.255,1.856-17.573-2.717l2.3-1.569c2.514,1.679,6.241,1.3,9.235,1.2,2.82-.279,5.892-.543,8.377-1.859.244-.113.231-.3.1.152l-.023.143c1.606-10.753-.937-22.72-9.4-30.117l.261-.353Z"/>
            </g>
            <g id="Group_1705" data-name="Group 1705">
              <path id="Path_5357" data-name="Path 5357" d="M4121.918,408.407c-2.168.87-4.866,1.4-6.445,2.974a.6.6,0,0,0-.184.446c.69,2.325,2.7,4.507,3.749,6.816,1.243,2.22.973,5.612-1.118,7.339-4.945,4.069-13.229,3.479-19.09,2.518l.195-2.731c3.319-.294,6.7-.559,9.857-1.11,2.108-.438,4.332-.837,5.869-2.084.705-.711.553-1.059.217-2.079-1.047-3.334-5.088-8.269-1.316-11.267,2.607-1.577,5.442-1.32,8.223-1.174l.043.352Z"/>
            </g>
            <path id="Path_5358" data-name="Path 5358" d="M4048.478,369.307s9.6,10.674,4.2,11.093-7.866.121-9.383-1.667C4041.429,376.536,4048.277,376.842,4048.478,369.307Z"/>
            <path id="Path_5359" data-name="Path 5359" d="M4112.115,251.29c-1.622,0-2.937-.14-2.937-1.762,0-21.171,8.049-38.367,23.276-49.73,12.874-9.606,30.917-14.919,50.807-14.96h.232c37.721,0,78.414,18.956,78.541,49.68a2.937,2.937,0,1,1-5.874.025c-.109-26.254-37.622-43.831-72.671-43.831h-.216c-32.98.069-68.221,15.555-68.221,58.816C4115.052,251.15,4113.738,251.29,4112.115,251.29Z" fill="#b3b3b3" stroke="#000" stroke-miterlimit="10" stroke-width="1.175"/>
            <path id="Path_5360" data-name="Path 5360" d="M4301.761,229.9q-2.768-9.131-5.537-18.256a1.18,1.18,0,0,0-.215-.409.919.919,0,0,0-1.247-.422c-6.406,2.656-14.8,7.312-21.211,9.968.508-6.95,3.009-15.9,3.509-22.842a1.2,1.2,0,0,0-1.187-1.191h-19.464a1.2,1.2,0,0,0-1.191,1.191c.374,6.945,2.737,15.892,3.111,22.838-6.147-2.617-14.29-7.227-20.437-9.845a1.21,1.21,0,0,0-1.746.712q-2.727,9.124-5.453,18.256a1.209,1.209,0,0,0,.835,1.465c6.611,1.719,15.223,3.441,21.838,5.16-4.572,5.52-11.134,11.042-15.7,16.562a1.209,1.209,0,0,0,.239,1.866q7.866,5.76,15.745,11.511a1.2,1.2,0,0,0,1.626-.426c3.85-5.987,7.7-13.973,11.547-19.957,3.455,5.984,6.907,13.97,10.359,19.957a1.2,1.2,0,0,0,1.627.426q7.914-5.754,15.836-11.511a1.216,1.216,0,0,0,.236-1.866c-4.462-5.52-10.923-11.042-15.381-16.566,6.476-1.718,14.955-3.437,21.432-5.156a1.2,1.2,0,0,0,.831-1.465" fill="#fc3" stroke="#000" stroke-miterlimit="10" stroke-width="0.906"/>
            <g id="Group_1706" data-name="Group 1706">
              <path id="Path_5361" data-name="Path 5361" d="M4183.493,184.838c30.849,0,63.672,12.684,74.682,34.109-.626-6.64-2.615-14.65-2.957-21a1.2,1.2,0,0,1,1.191-1.19h19.464a1.2,1.2,0,0,1,1.187,1.19c-.5,6.946-3,15.893-3.509,22.843,6.408-2.656,14.8-7.312,21.211-9.968a1.146,1.146,0,0,1,.44-.094.906.906,0,0,1,.807.516,1.18,1.18,0,0,1,.215.409q2.769,9.124,5.537,18.256a1.2,1.2,0,0,1-.831,1.465c-6.477,1.719-14.956,3.438-21.432,5.156,4.458,5.524,10.919,11.046,15.381,16.566a1.216,1.216,0,0,1-.236,1.866q-7.926,5.76-15.836,11.512a.931.931,0,0,1-.554.171,1.29,1.29,0,0,1-1.073-.6c-3.452-5.987-6.9-13.973-10.359-19.957-3.851,5.984-7.7,13.97-11.547,19.957a1.355,1.355,0,0,1-1.081.6.909.909,0,0,1-.545-.174q-7.872-5.756-15.745-11.512a1.209,1.209,0,0,1-.239-1.866c4.568-5.52,11.13-11.042,15.7-16.562-6.615-1.719-15.227-3.441-21.838-5.16a1.209,1.209,0,0,1-.835-1.465q2.725-9.131,5.453-18.256a1.119,1.119,0,0,1,1.123-.843,1.6,1.6,0,0,1,.623.131c3.539,1.507,7.736,3.671,11.836,5.739-12.217-16.053-39.921-25.964-66.239-25.964h-.216c-28.669.06-59.034,11.781-66.485,43.259.432,0,.861,0,1.293,0,21.694,0,43.361,4.473,62.782,14.237,27.125,13.575,44.378,39.488,44.7,70.057.353,17.395-3.8,35.732-15.383,49.221a33.771,33.771,0,0,1-25.6,12.041,32.011,32.011,0,0,1-7.169-.813c-4.1-.826-8.085-2.52-12.2-3.118a21.75,21.75,0,0,0-2.3-.2,3.555,3.555,0,0,0-1.868.421,1,1,0,0,0-.322.568c-.584,2.026.531,5.184.738,7.436a20.819,20.819,0,0,1-3.145,13.646c-6.286,9.248-17.722,14.031-29.049,14.031a38.435,38.435,0,0,1-11.275-1.66,7.737,7.737,0,0,0-2.509,1.545.6.6,0,0,0-.184.446c.69,2.325,2.7,4.507,3.749,6.816,1.244,2.186.963,5.646-1.118,7.339-2.4,2.137-5.563,2.709-8.441,3.028q-1.748.166-3.46.164a37.781,37.781,0,0,1-5.156-.358c-.028.393-.049.786-.087,1.177-.735,2.757-3.832,3.4-6.12,4.064a38.215,38.215,0,0,1-7.506.809,17.415,17.415,0,0,1-7.222-1.3c-.182,0-.363,0-.545.014-.031-.058-.062-.123-.093-.182-1.527,2.4-6.331,3.049-10.25,3.049a29.211,29.211,0,0,1-4.481-.312,2.841,2.841,0,0,1-1.331-.715c-1.905-2.017-2.94-4.607-4.669-6.541-.2,1.407-.044,3.058-.1,4.409a2.5,2.5,0,0,1-.928,1.748,2.757,2.757,0,0,1-1.563.545,3.145,3.145,0,0,1-.329.015c-.658,0-1.468-.155-2.033-.2a16.909,16.909,0,0,0-2.088-.139,11.556,11.556,0,0,0-3.407.486,1.724,1.724,0,0,1-.525.083,2.163,2.163,0,0,1-1.935-1.567c-1.04-4.123-.707-8.194-.6-12.329-2.961,1.392-5.422,2.841-5.762,6.58a4.764,4.764,0,0,1-2.16,3.474,4.7,4.7,0,0,1-2.213.548,12.864,12.864,0,0,1-1.622-.167c-4.612-.757-9.058-1.161-13.413-3.275-1.536-.741-3.183-2.544-2.419-4.611l.191-.652.016-.052c-5.115-.95-10.211-2.851-13.67-6.983a6.6,6.6,0,0,1-1.37-4.4,26.551,26.551,0,0,1,1.229-7.152c-6.454-1.8-12.822-5.859-7.73-13.366a14.329,14.329,0,0,1,2.9-2.831c1.676-1.254,3.095-2.317,2.883-4.242a24,24,0,0,1-5.166-.955,20.335,20.335,0,0,1-13.641-13.839c-1.929-6.58,1.054-13.95,5.5-18.768,1.512-1.8,2.737-3.369,1.768-5.688l.054-.024a41.757,41.757,0,0,1,4.248-33.1c6.445-11.4,17.016-15.726,28.527-19.559,3.743-1.547,6.354-2.57,5.954-6.382a33.165,33.165,0,0,1,6.06-21.611c10.407-14.549,27.877-21.945,44.487-26.307a164.819,164.819,0,0,1,31.034-4.431,56.435,56.435,0,0,1,21.712-34.337c12.874-9.606,30.917-14.919,50.807-14.96h.232m0-4.7h-.232c-20.9.043-39.94,5.687-53.618,15.893a61.2,61.2,0,0,0-22.651,33.609A169.955,169.955,0,0,0,4078.6,234l-.091.022c-22.373,5.876-37.784,15.074-47.115,28.119a38,38,0,0,0-6.92,24.747c0,.029,0,.059.008.088,0,.047.009.089.011.126a22.187,22.187,0,0,1-2.932,1.36h0c-11.693,3.9-23.691,8.808-30.948,21.6a46.474,46.474,0,0,0-4.9,36.1,4.688,4.688,0,0,0,.209.9c-.224.33-.614.8-.848,1.076-6.1,6.669-8.649,15.747-6.487,23.166a25.219,25.219,0,0,0,14.9,16.4,15.363,15.363,0,0,0-1.158,1.4c-.032.043-.063.088-.093.132-3.307,4.874-2.93,8.82-2.031,11.272,1.182,3.226,3.955,5.854,8.114,7.731a30.63,30.63,0,0,0-.386,3.857,11.285,11.285,0,0,0,2.237,7.423q.105.148.222.288a24.508,24.508,0,0,0,12.4,7.64,9.385,9.385,0,0,0,5.04,5.873c4.29,2.082,8.489,2.724,12.549,3.345.712.108,1.427.217,2.146.336.088.014.176.026.264.035.071.008.147.02.229.033a12.45,12.45,0,0,0,1.89.161,9.429,9.429,0,0,0,4.374-1.075c.038-.019.075-.039.112-.06a8.375,8.375,0,0,0,1.584-1.129c.034.147.069.293.106.44.014.054.029.108.044.162a6.807,6.807,0,0,0,6.448,4.955,6.425,6.425,0,0,0,1.9-.289,6.913,6.913,0,0,1,2.029-.28,12.148,12.148,0,0,1,1.506.1q.123.015.246.024c.139.01.3.034.469.056a14.739,14.739,0,0,0,1.9.153,7.811,7.811,0,0,0,.825-.042,7.379,7.379,0,0,0,3.661-1.3,7.574,7.574,0,0,0,3.706,1.82,34.036,34.036,0,0,0,5.208.368c4.917,0,8.7-.814,11.316-2.427a24.878,24.878,0,0,0,6.794.851,43.478,43.478,0,0,0,8.461-.906c.122-.026.244-.056.364-.091l.559-.16c2.078-.587,5.59-1.581,7.6-4.578q.946.044,1.881.043c1.3,0,2.61-.062,3.9-.185l.073-.008c3.56-.394,7.645-1.194,10.98-4.128,3.568-2.985,4.559-8.758,2.255-13.034-.126-.267-.258-.53-.4-.786a44.276,44.276,0,0,0,6.42.464c13.57,0,26.19-6.165,32.936-16.09.02-.029.039-.058.058-.088a25.6,25.6,0,0,0,3.873-16.7c-.094-.965-.287-1.932-.473-2.868l0-.01c1.607.32,3.27.818,5.011,1.338,1.844.551,3.751,1.121,5.753,1.529a36.787,36.787,0,0,0,8.16.918,38.319,38.319,0,0,0,29.185-13.7c11.057-12.88,16.923-31.481,16.5-52.358-.33-31.768-18.01-59.51-47.291-74.164-17.8-8.949-38.415-13.982-59.906-14.656,11.363-31.285,48.565-33.909,60.223-33.934h.206c18.275,0,36.405,4.9,49.315,12.744a5.923,5.923,0,0,0-1.166,2.165l-5.448,18.24a5.908,5.908,0,0,0,4.138,7.354c3.4.882,7.3,1.765,11.081,2.619,1.013.229,2.035.46,3.053.693q-1.1,1.105-2.25,2.241c-2.82,2.8-5.735,5.689-8.169,8.629a5.9,5.9,0,0,0,1.094,8.661q5.566,4.076,11.161,8.161l4.577,3.345a5.567,5.567,0,0,0,3.318,1.08,6.046,6.046,0,0,0,5.032-2.756c2.012-3.128,4.006-6.748,5.934-10.249.476-.863.955-1.734,1.437-2.6.4.81.806,1.624,1.2,2.431,1.726,3.492,3.511,7.1,5.308,10.22a5.959,5.959,0,0,0,5.144,2.95,5.6,5.6,0,0,0,3.317-1.07l15.835-11.51a5.907,5.907,0,0,0,1.132-8.618c-2.378-2.942-5.233-5.829-7.994-8.621-.77-.779-1.529-1.546-2.267-2.3,1-.232,2-.462,2.991-.69,3.714-.854,7.554-1.736,10.868-2.616a5.9,5.9,0,0,0,4.121-7.378l-.464-1.532-5.071-16.717a5.838,5.838,0,0,0-.8-1.656,5.607,5.607,0,0,0-4.719-2.6,5.817,5.817,0,0,0-2.23.449c-3.355,1.39-7.187,3.283-10.893,5.114-.88.435-1.767.873-2.651,1.306.162-.878.328-1.759.493-2.633a110.048,110.048,0,0,0,1.826-11.979,5.745,5.745,0,0,0-1.533-4.311,5.944,5.944,0,0,0-4.341-1.916h-19.464a5.943,5.943,0,0,0-4.293,1.862,5.806,5.806,0,0,0-1.59,4.284c.072,1.343.21,2.741.39,4.168-17.123-15.179-44.763-22.229-67.423-22.229Z"/>
            </g>
          </g>
        </g>
      </g>
    </g>
  </g>
</svg>
