<svg xmlns="http://www.w3.org/2000/svg" xmlns:xlink="http://www.w3.org/1999/xlink" width="276.249" height="136.586" viewBox="0 0 276.249 136.586">
  <defs>
    <clipPath id="clip-path">
      <path id="Path_19654" data-name="Path 19654" d="M1968.913,2719.205a5.216,5.216,0,0,0-.516-.7,5.676,5.676,0,0,0-.528-.61,12.56,12.56,0,0,0-9.2-3.871h-.133a9.776,9.776,0,0,0-3.1.491,13.168,13.168,0,0,0-2.645,1.284,23.67,23.67,0,0,0-4.342,3.526,33.239,33.239,0,0,0-2.706,3.091,34.947,34.947,0,0,0-4.963,7.224,27.148,27.148,0,0,0-3.32,10.906,17.851,17.851,0,0,0,3.02,10.978,24.832,24.832,0,0,0,8.094,7.5,22.99,22.99,0,0,0,10.949,3.455h.182a6.838,6.838,0,0,0,4.939-1.6,4.985,4.985,0,0,1,1.522-1.825,6.781,6.781,0,0,0,1.695-5.836c-.136-1.1-.67-3.813-2.688-5.218a3.166,3.166,0,0,0-1.8-.6h-.059a4.256,4.256,0,0,0-1.369.31c-.127.046-.248.089-.351.119-.441.127-.9.233-1.373.32a15.791,15.791,0,0,0,1.584-1.18,18.02,18.02,0,0,0,2.838-3.083,21.114,21.114,0,0,0,3.717-5.544,28.888,28.888,0,0,0,2.639-9.27A14.849,14.849,0,0,0,1968.913,2719.205Zm-20.341,22.07c-.009-.088-.017-.178-.022-.268a7.557,7.557,0,0,1,.974-4.153,3.244,3.244,0,0,1,1.91-.857c.049,0,.1,0,.147.007a1.362,1.362,0,0,1,1.143,1.56h0v.008h0a3.492,3.492,0,0,1-.544,1.573A9.974,9.974,0,0,1,1948.572,2741.275Z"/>
    </clipPath>
    <linearGradient id="linear-gradient" x1="0.5" y1="-5.19" x2="0.5" y2="27.085" gradientUnits="objectBoundingBox">
      <stop offset="0" stop-color="#00ffd5"/>
      <stop offset="1" stop-color="#01cb2d"/>
    </linearGradient>
    <linearGradient id="linear-gradient-2" x1="0.5" y1="-0.025" x2="0.5" y2="0.635" xlink:href="#linear-gradient"/>
    <linearGradient id="linear-gradient-3" x1="0.544" y1="-397.231" x2="0.544" y2="185.334" xlink:href="#linear-gradient"/>
    <linearGradient id="linear-gradient-4" x1="0.5" y1="0.081" x2="0.5" y2="0.728" xlink:href="#linear-gradient"/>
    <linearGradient id="linear-gradient-5" x1="0.501" y1="-23.827" x2="0.501" y2="52.299" xlink:href="#linear-gradient"/>
    <clipPath id="clip-path-2">
      <path id="Path_19668" data-name="Path 19668" d="M1904.968,2716.449a6.174,6.174,0,0,0-1.435-1.584,3.208,3.208,0,0,0-.465-.332,2.813,2.813,0,0,0-.574-.308,6.621,6.621,0,0,0-2.894-.61,9,9,0,0,0-.985.056,14.825,14.825,0,0,0-1.7.317c-.3.068-.581.132-.862.185a44.724,44.724,0,0,1-7.506.684q-.593.009-1.185.009c-2.192,0-4.518-.093-7.319-.292-1.765-.125-3.562-.309-5.3-.486-1.1-.112-2.231-.228-3.351-.329-.553-.05-1.106-.075-1.646-.075a13.865,13.865,0,0,0-7.042,1.753,12.34,12.34,0,0,0-3.932,3.689,13.694,13.694,0,0,0-3.059,4.729,17.415,17.415,0,0,0-1.066,4.32,11.343,11.343,0,0,0,.231,4.643,4.766,4.766,0,0,0,2.851,3.227,5.158,5.158,0,0,0,1.8.31,7.474,7.474,0,0,0,2.929-.651,10.554,10.554,0,0,0,1.954-1.107c.318-.228.61-.467.891-.7.25-.2.485-.4.724-.571a11.074,11.074,0,0,1,3.08-1.572,12.11,12.11,0,0,1,3.687-.606c.114,0,.228,0,.341.006l.012.047c1.489,5.67-.454,11.525-2.334,17.187-.215.649-.429,1.3-.637,1.935l-.062.192a7.088,7.088,0,0,0-.492,2.8,5.306,5.306,0,0,0,1.267,2.965,12.357,12.357,0,0,0,4.639,3.227,36.027,36.027,0,0,0,11.233,2.763,34.922,34.922,0,0,0,3.5.2c.6,0,1.176-.023,1.719-.069a3.05,3.05,0,0,0,2.674-2.143c1.836-.941,1.98-3.636,2.039-4.757a30.323,30.323,0,0,0-.386-5.9c-.261-1.808-.63-3.731-1.128-5.879-.461-1.991-.968-3.944-1.506-5.8-.126-.437-.262-.877-.394-1.3a21,21,0,0,1-.964-3.991c-.013-.128-.02-.247-.025-.363.051,0,.1,0,.149,0h.066a11.126,11.126,0,0,1,1.482.141c.156.022.312.044.467.063a22.863,22.863,0,0,0,2.884.222,10.657,10.657,0,0,0,2.46-.262,5.737,5.737,0,0,0,3.861-2.931,5.966,5.966,0,0,0,1.808-2.422,13.025,13.025,0,0,0,.881-4.828A10.213,10.213,0,0,0,1904.968,2716.449Z"/>
    </clipPath>
    <linearGradient id="linear-gradient-6" x1="0.501" y1="2.118" x2="0.501" y2="83.238" xlink:href="#linear-gradient"/>
    <linearGradient id="linear-gradient-7" x1="0.5" y1="0.029" x2="0.5" y2="0.675" xlink:href="#linear-gradient"/>
    <clipPath id="clip-path-3">
      <path id="Path_19676" data-name="Path 19676" d="M2051.726,2797.194c-.079-.354-.163-.705-.252-1.051a5.856,5.856,0,0,0-.158-.593c-.015-.05-.03-.1-.045-.154l-.02-.07a18.422,18.422,0,0,0-5.771-9.131,12.135,12.135,0,0,0-5.519-2.735,8.579,8.579,0,0,0-1.531-.139,8.094,8.094,0,0,0-4.748,1.512,10.562,10.562,0,0,0-2.6,2.732,11.25,11.25,0,0,0-1.56,1.887c-.081-.065-.158-.119-.218-.159l-.032-.022q-.225-.178-.455-.352a27.164,27.164,0,0,0-2.277-1.546,14.446,14.446,0,0,0-7.33-2.378,7.981,7.981,0,0,0-4.2,1.141,9.673,9.673,0,0,0-3.019,2.984c-2.513,2.385-3.575,6.024-4.166,8.729a46.513,46.513,0,0,0-.818,12.519c.125,2.274.388,4.476.629,6.329a50.183,50.183,0,0,0,1.129,6.182,15.919,15.919,0,0,0,2.36,5.589,6.737,6.737,0,0,0,2.337,2.043,7.61,7.61,0,0,0,1.524.55,8.522,8.522,0,0,0,2.2.358,4.332,4.332,0,0,0,1.058-.125,2.525,2.525,0,0,0,1.87-1.941,2.8,2.8,0,0,0,1.657-2.815,10.945,10.945,0,0,0-.247-2.379,21.825,21.825,0,0,0,8.981,7.521,13.763,13.763,0,0,0,7.858.814,11.908,11.908,0,0,0,6.574-3.61,16.3,16.3,0,0,0,1.378-1.684c.047-.048.1-.092.144-.141,2.942-3.127,4.821-7.683,5.744-13.928A44.457,44.457,0,0,0,2051.726,2797.194Z"/>
    </clipPath>
    <linearGradient id="linear-gradient-8" x1="0.501" y1="-6.768" x2="0.501" y2="29.955" xlink:href="#linear-gradient"/>
    <linearGradient id="linear-gradient-9" x1="0.5" y1="0.119" x2="0.5" y2="0.789" xlink:href="#linear-gradient"/>
    <clipPath id="clip-path-4">
      <path id="Path_19684" data-name="Path 19684" d="M1938.717,2819.476a33.623,33.623,0,0,0-1.934-7.617l-.02-.053q-.046-.129-.1-.276h0v0h0l-.493-1.311a3.9,3.9,0,0,0-.242-.551,50.806,50.806,0,0,0-3.273-6.571,33.2,33.2,0,0,0-6.294-7.933,14.367,14.367,0,0,0-4.6-2.918,6.732,6.732,0,0,0-2.232-.407,4.845,4.845,0,0,0-2.1.454,5.736,5.736,0,0,0-2.6,2.5c-2.724,2.152-2.73,6.325-2.732,8.448,0,1.6.092,3.2.183,4.745.112,1.9.227,3.854.16,5.758a13.314,13.314,0,0,1-1.387,6.081,4.712,4.712,0,0,1-1.478.8,3.179,3.179,0,0,1-.958.151,2.317,2.317,0,0,1-1.884-.875,5.294,5.294,0,0,1-.624-3.855c.209-1.772.523-3.517.8-4.989.183-.967.382-1.95.574-2.9.512-2.536,1.042-5.159,1.354-7.806a38.484,38.484,0,0,0,.31-5.519,15.327,15.327,0,0,0-.776-4.825,5.009,5.009,0,0,0-1.637-2.424,7.513,7.513,0,0,0-4.656-1.263c-.14,0-.277,0-.413,0a19.473,19.473,0,0,0-10.081,3.4,18.015,18.015,0,0,0-4.7,4.456,13.941,13.941,0,0,0-3.28,5.22,16.431,16.431,0,0,0-.586,7.163,32.638,32.638,0,0,0,3.021,10.048,44.054,44.054,0,0,0,5.314,8.583,33.176,33.176,0,0,0,3.48,3.793,16.54,16.54,0,0,0,4.023,2.879,10.031,10.031,0,0,0,4.417.867c.156,0,.312,0,.467-.006a33.092,33.092,0,0,0,17.713-6.214c.185-.14.366-.282.545-.43a12.261,12.261,0,0,0,1.221,2.376,6.687,6.687,0,0,0,5.866,3.1c.108,0,.215,0,.323-.006a14.726,14.726,0,0,0,3.584-.628,5.44,5.44,0,0,0,3.106-2.275c.1-.161.2-.326.288-.493a5.4,5.4,0,0,0,1.233-1.332C1939.114,2824.537,1938.962,2821.535,1938.717,2819.476Z"/>
    </clipPath>
    <linearGradient id="linear-gradient-10" x1="0.5" y1="-13.443" x2="0.5" y2="3.667" xlink:href="#linear-gradient"/>
    <linearGradient id="linear-gradient-11" x1="0.501" y1="-47.877" x2="0.501" y2="8.841" xlink:href="#linear-gradient"/>
    <linearGradient id="linear-gradient-12" x1="0.5" y1="0.002" x2="0.5" y2="0.686" xlink:href="#linear-gradient"/>
    <clipPath id="clip-path-5">
      <path id="Path_19691" data-name="Path 19691" d="M1896.527,2810.332a6.856,6.856,0,0,0-2.1-2.6l-.011-.009-.012-.008-.015-.012-.088-.068h0l-.005,0v0a5.505,5.505,0,0,0-.834-.574,16.934,16.934,0,0,0-5.323-2.088,21.281,21.281,0,0,0-3.568-.459c-.374-.02-.712-.03-1.033-.03a10.856,10.856,0,0,0-2.473.256,9.255,9.255,0,0,0-5.476,4.046l-.021.03a12.3,12.3,0,0,0-1.5,1.795c-.257.372-.5.749-.74,1.114-.289.443-.567.862-.858,1.27a18.812,18.812,0,0,1,.015-3.736,66.182,66.182,0,0,1,2.6-11.951l.143-.5q.188-.663.381-1.326a50.05,50.05,0,0,0,1.4-5.646l0-.025a6.28,6.28,0,0,0,.07-2.486,3.7,3.7,0,0,0-2.6-2.5,11.207,11.207,0,0,0-3.874-.627,19.713,19.713,0,0,0-3.633.368,15.553,15.553,0,0,0-6.094,2.332,5.178,5.178,0,0,0-1.564,1.86,6.123,6.123,0,0,0-1.974,2.824,16.7,16.7,0,0,0-.9,3.592,39.363,39.363,0,0,0-.333,7.287,69.108,69.108,0,0,0,2.062,14.591c1.043,4.138,2.6,8.8,6.254,12.028a14.487,14.487,0,0,0,5.979,3.133,16.576,16.576,0,0,0,4.1.534,13.389,13.389,0,0,0,3.062-.343c3.928-.923,7.87-3.405,11.715-7.377a34.485,34.485,0,0,0,2.518-2.9,29.481,29.481,0,0,0,3.31-4.428C1896.436,2815.478,1897.641,2812.877,1896.527,2810.332Z"/>
    </clipPath>
    <linearGradient id="linear-gradient-13" x1="0.5" y1="-144.297" x2="0.5" y2="105.877" xlink:href="#linear-gradient"/>
    <linearGradient id="linear-gradient-14" x1="0.499" y1="-42.246" x2="0.499" y2="32.731" xlink:href="#linear-gradient"/>
    <linearGradient id="linear-gradient-15" x1="0.5" y1="0.129" x2="0.5" y2="0.813" xlink:href="#linear-gradient"/>
    <clipPath id="clip-path-6">
      <path id="Path_19697" data-name="Path 19697" d="M1968.3,2786.709a6.176,6.176,0,0,0-1.435-1.584,3.2,3.2,0,0,0-.465-.331,2.716,2.716,0,0,0-.574-.308,6.619,6.619,0,0,0-2.893-.61,9.016,9.016,0,0,0-.986.055,15.079,15.079,0,0,0-1.7.317c-.3.068-.581.133-.862.185a44.62,44.62,0,0,1-7.506.684c-.394.006-.79.01-1.184.01-2.193,0-4.518-.093-7.32-.292-1.764-.126-3.561-.309-5.3-.487-1.1-.112-2.23-.228-3.351-.329-.552-.05-1.106-.075-1.645-.075a13.85,13.85,0,0,0-7.042,1.754,12.341,12.341,0,0,0-3.933,3.689,13.689,13.689,0,0,0-3.059,4.728,17.474,17.474,0,0,0-1.066,4.32,11.35,11.35,0,0,0,.231,4.644,4.772,4.772,0,0,0,2.852,3.227,5.17,5.17,0,0,0,1.8.309,7.474,7.474,0,0,0,2.929-.651,10.468,10.468,0,0,0,1.954-1.107c.319-.227.61-.466.892-.7.249-.2.484-.4.724-.571a11.026,11.026,0,0,1,3.079-1.573,12.148,12.148,0,0,1,3.687-.606c.115,0,.229,0,.341.006l.013.048c1.488,5.669-.455,11.524-2.334,17.186q-.324.975-.638,1.935l-.062.192a7.092,7.092,0,0,0-.492,2.8,5.3,5.3,0,0,0,1.268,2.964,12.369,12.369,0,0,0,4.638,3.228,36.028,36.028,0,0,0,11.233,2.762,34.594,34.594,0,0,0,3.5.2c.6,0,1.175-.023,1.718-.068a3.049,3.049,0,0,0,2.674-2.144c1.836-.941,1.98-3.636,2.039-4.757a30.323,30.323,0,0,0-.386-5.9c-.261-1.808-.63-3.731-1.128-5.879-.461-1.991-.968-3.944-1.505-5.8-.127-.436-.263-.876-.4-1.3a20.98,20.98,0,0,1-.964-3.99c-.013-.128-.02-.248-.025-.363l.149-.006h.066a11.006,11.006,0,0,1,1.483.142l.466.063a22.867,22.867,0,0,0,2.885.222,10.66,10.66,0,0,0,2.46-.263,5.739,5.739,0,0,0,3.86-2.93,5.985,5.985,0,0,0,1.809-2.422,13.077,13.077,0,0,0,.881-4.829A10.217,10.217,0,0,0,1968.3,2786.709Z"/>
    </clipPath>
    <linearGradient id="linear-gradient-16" x1="0.499" y1="2.113" x2="0.499" y2="83.011" xlink:href="#linear-gradient"/>
    <clipPath id="clip-path-7">
      <path id="Path_19705" data-name="Path 19705" d="M1864.328,2805.476c-.117-.7-.263-1.411-.434-2.115l0-.015,0-.014-.011-.042c-.022-.1-.048-.2-.075-.3h-.005l0-.007h.005c-.134-.509-.224-.852-.28-1.067a3.06,3.06,0,0,0-.162-.485c-1.854-6.013-4.9-10.345-9.069-12.883a20.372,20.372,0,0,0-9.331-2.744c-.685-.046-1.408-.069-2.21-.069-.906,0-1.8.029-2.558.058-.452.017-.918.024-1.369.031-.334,0-.668.01-1,.019a6.84,6.84,0,0,0-2.394.443,4.149,4.149,0,0,0-2.3,2.237,4.448,4.448,0,0,0-1.925,3.71,17.524,17.524,0,0,0-4.253,4.156,20.9,20.9,0,0,0-5.159,10.251,31.838,31.838,0,0,0-.468,9.765,21.631,21.631,0,0,0,2.251,8.327,13.874,13.874,0,0,0,7.054,6.173,27.876,27.876,0,0,0,9.768,1.8c.707.024,1.333.036,1.915.036a21.705,21.705,0,0,0,8.016-1.25,19.659,19.659,0,0,0,7.7-5.425c.354-.4.684-.826,1-1.257q.264-.279.519-.568C1863.77,2819.409,1865.515,2812.572,1864.328,2805.476Zm-29.9,10.429c.136-.17.262-.337.388-.5.059-.063.118-.126.174-.189.316-.353.639-.734.959-1.133a16.823,16.823,0,0,0,1.457-2.1,6.687,6.687,0,0,1,.953,3.94h0v.007h0a5.989,5.989,0,0,1-.455,1.918,3.407,3.407,0,0,1-1.757.511,3.028,3.028,0,0,1-.743-.092,2.1,2.1,0,0,1-1.334-.883,1.107,1.107,0,0,1-.028-1C1834.168,2816.219,1834.3,2816.065,1834.425,2815.905Z"/>
    </clipPath>
    <linearGradient id="linear-gradient-18" x1="0.5" y1="-0.125" x2="0.5" y2="0.549" xlink:href="#linear-gradient"/>
    <linearGradient id="linear-gradient-19" x1="0.503" y1="-52.902" x2="0.503" y2="17.396" xlink:href="#linear-gradient"/>
    <linearGradient id="linear-gradient-20" x1="0.5" y1="-14.839" x2="0.5" y2="6.208" xlink:href="#linear-gradient"/>
    <clipPath id="clip-path-8">
      <path id="Path_19713" data-name="Path 19713" d="M2015.96,2805.476c-.117-.7-.263-1.411-.434-2.115l0-.015,0-.014-.011-.042c-.022-.1-.048-.2-.076-.3h-.005v-.007h0c-.133-.509-.223-.852-.28-1.067a2.963,2.963,0,0,0-.162-.485c-1.854-6.013-4.9-10.345-9.069-12.883a20.368,20.368,0,0,0-9.33-2.744c-.685-.046-1.408-.069-2.21-.069-.906,0-1.8.029-2.559.058-.451.017-.918.024-1.368.031-.334,0-.668.01-1,.019a6.839,6.839,0,0,0-2.394.443,4.149,4.149,0,0,0-2.3,2.237,4.449,4.449,0,0,0-1.925,3.71,17.5,17.5,0,0,0-4.253,4.156,20.9,20.9,0,0,0-5.159,10.251,31.872,31.872,0,0,0-.469,9.765,21.647,21.647,0,0,0,2.252,8.327,13.866,13.866,0,0,0,7.054,6.173,27.867,27.867,0,0,0,9.768,1.8c.707.024,1.333.036,1.914.036a21.707,21.707,0,0,0,8.017-1.25,19.659,19.659,0,0,0,7.7-5.425c.354-.4.684-.826,1-1.257.175-.186.349-.375.519-.568C2015.4,2819.409,2017.146,2812.572,2015.96,2805.476Zm-29.9,10.429c.136-.17.262-.337.388-.5.058-.063.117-.126.174-.189.316-.353.638-.734.959-1.133a16.825,16.825,0,0,0,1.457-2.1,6.688,6.688,0,0,1,.953,3.94h0v.007h0a5.989,5.989,0,0,1-.455,1.918,3.407,3.407,0,0,1-1.757.511,3.017,3.017,0,0,1-.743-.092,2.1,2.1,0,0,1-1.334-.883,1.1,1.1,0,0,1-.028-1C1985.8,2816.219,1985.928,2816.065,1986.057,2815.905Z"/>
    </clipPath>
    <linearGradient id="linear-gradient-22" x1="0.5" y1="-52.902" x2="0.5" y2="17.396" xlink:href="#linear-gradient"/>
    <linearGradient id="linear-gradient-23" x1="0.5" y1="-14.839" x2="0.5" y2="6.208" xlink:href="#linear-gradient"/>
    <clipPath id="clip-path-9">
      <path id="Path_19723" data-name="Path 19723" d="M1986.666,2788.983a10.422,10.422,0,0,0-4.924-4.882l-.087-.066-.15-.047a23.224,23.224,0,0,0-9.232-2.173h-.125a13.375,13.375,0,0,0-5.481,1.063,9.29,9.29,0,0,0-3.979,3.474,10.276,10.276,0,0,0-1.707,2.1c-1.742,2.824-2.649,7.044.029,10.416a11.6,11.6,0,0,0,4.517,3.293,20.207,20.207,0,0,0,5.358,1.539,15.06,15.06,0,0,0,2.141.158,12.783,12.783,0,0,0,1.793-.124l.095.082a4.3,4.3,0,0,0,1.208.74,7.888,7.888,0,0,1-4.215,1.057h-.069c-.179,0-.364-.009-.559-.017-.227-.01-.462-.02-.705-.02a5.559,5.559,0,0,0-1.259.127,3.512,3.512,0,0,0-2.474,2.009c-.038.079-.072.158-.107.237a3.611,3.611,0,0,0-1.415,1.589,12.994,12.994,0,0,0-.841,2.631l-.064.262c-.27,1.107-.508,2.012-.748,2.849a52.357,52.357,0,0,0-1.34,5.979,27.95,27.95,0,0,0-.471,6.4l.007.1a4.486,4.486,0,0,0,.923,2.872,3.938,3.938,0,0,0,1.51.878l.015.006a20.114,20.114,0,0,0,6.186,1.192c.317.013.612.02.9.02a13.54,13.54,0,0,0,2.361-.189l.064-.011a2.773,2.773,0,0,0,2.346-1.5c.079-.194.149-.391.215-.589a2.221,2.221,0,0,0,1.306-1.236,15,15,0,0,0,.732-2.6c.209-.992.385-2.015.538-3.13.274-2,.455-4.045.536-6.089.012-.284.02-.583.027-.925,0-.043.005-.088.006-.134l0-.369c0-.263,0-.4,0-.456a51.339,51.339,0,0,0-.205-5.427,13.763,13.763,0,0,0-1.446-5.079l-.07-.132a8.176,8.176,0,0,0,4.9-2.288,11.439,11.439,0,0,0,1.883-2.168,10.134,10.134,0,0,0,1.861-2.391,9.883,9.883,0,0,0,1.146-4.05A10.262,10.262,0,0,0,1986.666,2788.983Z"/>
    </clipPath>
    <linearGradient id="linear-gradient-24" x1="0.5" y1="-0.681" x2="0.5" y2="0.575" xlink:href="#linear-gradient"/>
    <linearGradient id="linear-gradient-25" x1="0.5" y1="0.325" x2="0.5" y2="1.936" xlink:href="#linear-gradient"/>
    <linearGradient id="linear-gradient-26" x1="0.5" y1="18.564" x2="0.5" y2="98.723" xlink:href="#linear-gradient"/>
    <clipPath id="clip-path-10">
      <path id="Path_19730" data-name="Path 19730" d="M1832.479,2807.754a13.376,13.376,0,0,0-.887-1.336,6.508,6.508,0,0,0-.434-.548c-.165-.2-.3-.352-.426-.475a15.38,15.38,0,0,0-9.316-4.479,13.78,13.78,0,0,0,1.787-2.037,13.507,13.507,0,0,0,4.058-10.317,9.227,9.227,0,0,0-1.708-4.974,7.706,7.706,0,0,0-4.671-2.875,9.148,9.148,0,0,0-1.72-.189,10.535,10.535,0,0,0-7.56,3.3,14.2,14.2,0,0,0-1.348,1.608c-.066.065-.135.128-.2.2a14.027,14.027,0,0,0-1.145,1.335c-.811-.078-1.605-.124-2.359-.136a22.584,22.584,0,0,0-3.594.222,12.08,12.08,0,0,0-6.43,2.694,8.728,8.728,0,0,0-1.489,1.754c-.019.017-.04.032-.059.049a10.236,10.236,0,0,0-3.117,6.218,10.866,10.866,0,0,0,1.331,7.028,11.536,11.536,0,0,0,5.1,4.459c.453.215.934.417,1.43.6.02.008.043.019.067.031a3.037,3.037,0,0,0,.447.18l-.044.067c-.041.037-.083.073-.123.111a8.93,8.93,0,0,0-2.566,4.21,10.315,10.315,0,0,0,.082,5.277,16.807,16.807,0,0,0,4.98,7.872,19.838,19.838,0,0,0,7.985,4.5,17.415,17.415,0,0,0,4.471.643,19.112,19.112,0,0,0,13.333-5.153,15.746,15.746,0,0,0,1.86-2.11,14.624,14.624,0,0,0,4.157-7.863A15.1,15.1,0,0,0,1832.479,2807.754Z"/>
    </clipPath>
    <linearGradient id="linear-gradient-27" x1="0.5" y1="-23.684" x2="0.5" y2="14.183" xlink:href="#linear-gradient"/>
    <linearGradient id="linear-gradient-28" x1="0.5" y1="0.132" x2="0.5" y2="0.732" xlink:href="#linear-gradient"/>
  </defs>
  <g id="Group_10185" data-name="Group 10185" transform="translate(-41.875 -2703.783)">
    <g id="Group_8390" data-name="Group 8390" transform="translate(-1742.222)">
      <g id="Group_8389" data-name="Group 8389">
        <g id="Group_8385" data-name="Group 8385">
          <path id="Path_19641" data-name="Path 19641" d="M1972.9,2714.906a11.815,11.815,0,0,0-.917-1.051,18.293,18.293,0,0,0-13.316-5.595h-.163a15.477,15.477,0,0,0-4.938.8,18.767,18.767,0,0,0-3.8,1.831,29.265,29.265,0,0,0-5.4,4.368q-.842.846-1.649,1.769a16.8,16.8,0,0,0-6.956-1.38,24.257,24.257,0,0,0-2.674.151,24,24,0,0,0-3.672.7c-.618.169-1.176.351-1.708.555-.415.159-.792.323-1.147.5a8.4,8.4,0,0,0-1.159.665,23.55,23.55,0,0,0-4.107-7.3,15.335,15.335,0,0,0-10.82-5.222c-.434-.026-.877-.039-1.318-.039a36.525,36.525,0,0,0-8.072,1.111,73.157,73.157,0,0,0-7.079,1.9,41.375,41.375,0,0,1-5.541.427c-.361.006-.725.009-1.09.009-2.052,0-4.248-.088-6.91-.278-1.68-.119-3.43-.3-5.123-.471-1.118-.114-2.276-.232-3.42-.335-.719-.065-1.447-.1-2.162-.1a19.535,19.535,0,0,0-9.93,2.529,18.146,18.146,0,0,0-5.481,4.974,19.662,19.662,0,0,0-3.99,6.338,23.161,23.161,0,0,0-1.421,5.747,16.871,16.871,0,0,0,.445,6.994,10.538,10.538,0,0,0,6.364,6.945,10.9,10.9,0,0,0,3.792.666,13.175,13.175,0,0,0,5.195-1.116,16.068,16.068,0,0,0,2.7-1.482,69.689,69.689,0,0,1-2.08,7.056q-.33.995-.65,1.975l-.059.181a12.562,12.562,0,0,0-.759,5.021,11.094,11.094,0,0,0,2.549,6.175,17.989,17.989,0,0,0,6.747,4.842,41.647,41.647,0,0,0,13.011,3.237,40.279,40.279,0,0,0,4.08.232c.757,0,1.5-.029,2.2-.088a8.565,8.565,0,0,0,6.679-4.034,9.759,9.759,0,0,0,2.815-4.932c.43.94.908,1.963,1.445,2.976l.071.135c.688,1.306,2.528,4.8,6.711,5.7a11.123,11.123,0,0,0,2.372.241c.546,0,1.018-.032,1.4-.059l.313-.02.909-.045.449-.022.612-.029.208-.01a50.825,50.825,0,0,0,6.495-.6,14.2,14.2,0,0,0,3.168-.881,8.449,8.449,0,0,0,2.868-1.893c.106-.108.208-.22.305-.337.174-.208.33-.414.47-.618a7.728,7.728,0,0,0,1.242.3,16.833,16.833,0,0,0,2.564.194l.242,0a16.386,16.386,0,0,0,5.948-1.119l.005,0a7.8,7.8,0,0,0,2.429-1.467,32.68,32.68,0,0,0,3.46,2.353,28.707,28.707,0,0,0,13.807,4.254h.254a12.443,12.443,0,0,0,8.912-3.187,10.788,10.788,0,0,0,1.552-1.856,12.451,12.451,0,0,0,3.409-10.683,14.35,14.35,0,0,0-2.778-7.037,28.482,28.482,0,0,0,2.766-4.673,34.716,34.716,0,0,0,3.162-11.143,20.371,20.371,0,0,0-2.927-13.516A11.609,11.609,0,0,0,1972.9,2714.906Z" fill="#fff"/>
          <path id="Path_19642" data-name="Path 19642" d="M2057.351,2795.947c-.08-.357-.164-.713-.253-1.065-.063-.291-.143-.57-.247-.929-.015-.054-.033-.116-.052-.18l-.007-.023a24.152,24.152,0,0,0-7.615-11.973,17.876,17.876,0,0,0-8.184-3.985,14.334,14.334,0,0,0-2.563-.232,13.821,13.821,0,0,0-8.107,2.592,15.536,15.536,0,0,0-1.934,1.645,19.314,19.314,0,0,0-9.184-2.564,13.66,13.66,0,0,0-7.19,1.977,14.691,14.691,0,0,0-3.031,2.454l-.068-.042a26.045,26.045,0,0,0-11.94-3.571c-.816-.055-1.666-.082-2.6-.082-1.01,0-1.97.031-2.776.062-.409.015-.83.021-1.237.027h-.087c-.329,0-.658.011-.987.02a13.561,13.561,0,0,0-2.6.307,18.646,18.646,0,0,0-1.944-1.212,5.721,5.721,0,0,0-1.183-.575,33.01,33.01,0,0,0-4.25-1.519l-.179-.091a5.74,5.74,0,0,0-2.611-.629c-.129,0-.258.016-.387.024a25.257,25.257,0,0,0-3.823-.331h-.15a19.089,19.089,0,0,0-7.847,1.564q-.515.231-1.012.5c-.123,0-.246-.006-.368-.006a14.769,14.769,0,0,0-1.62.091,19.966,19.966,0,0,0-2.343.426c-.224.051-.435.1-.645.14a39,39,0,0,1-6.537.585c-.361.006-.725.009-1.089.009-2.053,0-4.249-.088-6.911-.278-1.68-.119-3.43-.3-5.122-.47-1.119-.115-2.276-.233-3.42-.336-.72-.065-1.448-.1-2.162-.1a19.528,19.528,0,0,0-9.931,2.53,18.134,18.134,0,0,0-5.483,4.976c-.2.213-.4.434-.592.66a10.388,10.388,0,0,0-2.117.737,11.419,11.419,0,0,0-1.268.7,10.59,10.59,0,0,0-3.49-4.808,13.176,13.176,0,0,0-8.125-2.424c-.185,0-.367,0-.547.006a25.307,25.307,0,0,0-13.14,4.367,23.989,23.989,0,0,0-5.587,5.095,10.678,10.678,0,0,0-.129-4.07,9.279,9.279,0,0,0-6.2-6.547,16.92,16.92,0,0,0-5.868-.984,25.372,25.372,0,0,0-4.69.467,21.181,21.181,0,0,0-8.345,3.278,9.978,9.978,0,0,0-1.158.95,26.489,26.489,0,0,0-11.073-3.069c-.816-.055-1.666-.082-2.6-.082-1.01,0-1.97.031-2.775.062-.41.015-.831.021-1.237.027h-.089c-.328,0-.657.011-.986.02a12.454,12.454,0,0,0-4.381.855,10.089,10.089,0,0,0-1.955,1.046,13.761,13.761,0,0,0-1.148-1.831,13.46,13.46,0,0,0-8.129-5.079,15,15,0,0,0-2.8-.307l-.215,0h0a16.365,16.365,0,0,0-11.541,5.027c-.389.4-.77.822-1.139,1.273h-.171a27.975,27.975,0,0,0-4.059.286,17.675,17.675,0,0,0-9.435,4.1,14.246,14.246,0,0,0-2.032,2.258,16.158,16.158,0,0,0-4.494,9.235,16.647,16.647,0,0,0,2.064,10.767,16.235,16.235,0,0,0,3.941,4.485q-.124.378-.227.762a16.06,16.06,0,0,0,.075,8.24,22.546,22.546,0,0,0,6.65,10.643,25.613,25.613,0,0,0,10.321,5.8,23.16,23.16,0,0,0,5.951.859l.363,0a25.024,25.024,0,0,0,11.7-2.92q.706.354,1.44.655a33.359,33.359,0,0,0,11.755,2.226c.77.027,1.461.039,2.112.039a27.168,27.168,0,0,0,10.076-1.63,25.075,25.075,0,0,0,7.294-4.363q.456.458.939.883a20.263,20.263,0,0,0,8.364,4.4,22.306,22.306,0,0,0,5.527.714,19.187,19.187,0,0,0,4.379-.5,27.374,27.374,0,0,0,11.042-5.744q.5.5,1,.964a22.078,22.078,0,0,0,5.433,3.838,15.633,15.633,0,0,0,6.917,1.437c.205,0,.409,0,.612-.007a36.367,36.367,0,0,0,11.953-2.471,40.884,40.884,0,0,0,4.551-2.039,12.235,12.235,0,0,0,2.481,1.807,12.718,12.718,0,0,0,6.215,1.535c.177,0,.355,0,.531-.01a20.378,20.378,0,0,0,4.966-.848,11.406,11.406,0,0,0,2.63-1.128,42.471,42.471,0,0,0,12.3,2.93,40.285,40.285,0,0,0,4.079.231c.758,0,1.5-.029,2.2-.088a8.586,8.586,0,0,0,5.056-2.118,12.064,12.064,0,0,0,1.388.61l.036.014a25.863,25.863,0,0,0,7.969,1.557c.4.017.777.025,1.149.025a19.178,19.178,0,0,0,3.358-.276l.057-.009a9.16,9.16,0,0,0,4.751-2.2c.169.074.338.146.509.216a33.358,33.358,0,0,0,11.755,2.226c.77.027,1.461.039,2.111.039a27.146,27.146,0,0,0,10.077-1.63,24.66,24.66,0,0,0,4.836-2.5,11.889,11.889,0,0,0,1.975,1.276,13.161,13.161,0,0,0,2.656.986,13.951,13.951,0,0,0,3.7.557,10.088,10.088,0,0,0,2.473-.3,8.215,8.215,0,0,0,4.072-2.423A23.12,23.12,0,0,0,2028.3,2837a19.528,19.528,0,0,0,11.143,1.151,17.554,17.554,0,0,0,9.69-5.321,21.7,21.7,0,0,0,1.583-1.891c3.739-4,6.091-9.556,7.186-16.967A50.255,50.255,0,0,0,2057.351,2795.947Z" fill="#fff"/>
        </g>
        <g id="Group_8386" data-name="Group 8386">
          <path id="Path_19643" data-name="Path 19643" d="M1972.9,2714.906a11.815,11.815,0,0,0-.917-1.051,18.293,18.293,0,0,0-13.316-5.595h-.163a15.477,15.477,0,0,0-4.938.8,18.767,18.767,0,0,0-3.8,1.831,29.265,29.265,0,0,0-5.4,4.368q-.842.846-1.649,1.769a16.8,16.8,0,0,0-6.956-1.38,24.257,24.257,0,0,0-2.674.151,24,24,0,0,0-3.672.7c-.618.169-1.176.351-1.708.555-.415.159-.792.323-1.147.5a8.4,8.4,0,0,0-1.159.665,23.55,23.55,0,0,0-4.107-7.3,15.335,15.335,0,0,0-10.82-5.222c-.434-.026-.877-.039-1.318-.039a36.525,36.525,0,0,0-8.072,1.111,73.157,73.157,0,0,0-7.079,1.9,41.375,41.375,0,0,1-5.541.427c-.361.006-.725.009-1.09.009-2.052,0-4.248-.088-6.91-.278-1.68-.119-3.43-.3-5.123-.471-1.118-.114-2.276-.232-3.42-.335-.719-.065-1.447-.1-2.162-.1a19.535,19.535,0,0,0-9.93,2.529,18.146,18.146,0,0,0-5.481,4.974,19.662,19.662,0,0,0-3.99,6.338,23.161,23.161,0,0,0-1.421,5.747,16.871,16.871,0,0,0,.445,6.994,10.538,10.538,0,0,0,6.364,6.945,10.9,10.9,0,0,0,3.792.666,13.175,13.175,0,0,0,5.195-1.116,16.068,16.068,0,0,0,2.7-1.482,69.689,69.689,0,0,1-2.08,7.056q-.33.995-.65,1.975l-.059.181a12.562,12.562,0,0,0-.759,5.021,11.094,11.094,0,0,0,2.549,6.175,17.989,17.989,0,0,0,6.747,4.842,41.647,41.647,0,0,0,13.011,3.237,40.279,40.279,0,0,0,4.08.232c.757,0,1.5-.029,2.2-.088a8.565,8.565,0,0,0,6.679-4.034,9.759,9.759,0,0,0,2.815-4.932c.43.94.908,1.963,1.445,2.976l.071.135c.688,1.306,2.528,4.8,6.711,5.7a11.123,11.123,0,0,0,2.372.241c.546,0,1.018-.032,1.4-.059l.313-.02.909-.045.449-.022.612-.029.208-.01a50.825,50.825,0,0,0,6.495-.6,14.2,14.2,0,0,0,3.168-.881,8.449,8.449,0,0,0,2.868-1.893c.106-.108.208-.22.305-.337.174-.208.33-.414.47-.618a7.728,7.728,0,0,0,1.242.3,16.833,16.833,0,0,0,2.564.194l.242,0a16.386,16.386,0,0,0,5.948-1.119l.005,0a7.8,7.8,0,0,0,2.429-1.467,32.68,32.68,0,0,0,3.46,2.353,28.707,28.707,0,0,0,13.807,4.254h.254a12.443,12.443,0,0,0,8.912-3.187,10.788,10.788,0,0,0,1.552-1.856,12.451,12.451,0,0,0,3.409-10.683,14.35,14.35,0,0,0-2.778-7.037,28.482,28.482,0,0,0,2.766-4.673,34.716,34.716,0,0,0,3.162-11.143,20.371,20.371,0,0,0-2.927-13.516A11.609,11.609,0,0,0,1972.9,2714.906Z" fill="#fff"/>
          <path id="Path_19644" data-name="Path 19644" d="M2057.351,2795.947c-.08-.357-.164-.713-.253-1.065-.063-.291-.143-.57-.247-.929-.015-.054-.033-.116-.052-.18l-.007-.023a24.152,24.152,0,0,0-7.615-11.973,17.876,17.876,0,0,0-8.184-3.985,14.334,14.334,0,0,0-2.563-.232,13.821,13.821,0,0,0-8.107,2.592,15.536,15.536,0,0,0-1.934,1.645,19.314,19.314,0,0,0-9.184-2.564,13.66,13.66,0,0,0-7.19,1.977,14.691,14.691,0,0,0-3.031,2.454l-.068-.042a26.045,26.045,0,0,0-11.94-3.571c-.816-.055-1.666-.082-2.6-.082-1.01,0-1.97.031-2.776.062-.409.015-.83.021-1.237.027h-.087c-.329,0-.658.011-.987.02a13.561,13.561,0,0,0-2.6.307,18.646,18.646,0,0,0-1.944-1.212,5.721,5.721,0,0,0-1.183-.575,33.01,33.01,0,0,0-4.25-1.519l-.179-.091a5.74,5.74,0,0,0-2.611-.629c-.129,0-.258.016-.387.024a25.257,25.257,0,0,0-3.823-.331h-.15a19.089,19.089,0,0,0-7.847,1.564q-.515.231-1.012.5c-.123,0-.246-.006-.368-.006a14.769,14.769,0,0,0-1.62.091,19.966,19.966,0,0,0-2.343.426c-.224.051-.435.1-.645.14a39,39,0,0,1-6.537.585c-.361.006-.725.009-1.089.009-2.053,0-4.249-.088-6.911-.278-1.68-.119-3.43-.3-5.122-.47-1.119-.115-2.276-.233-3.42-.336-.72-.065-1.448-.1-2.162-.1a19.528,19.528,0,0,0-9.931,2.53,18.134,18.134,0,0,0-5.483,4.976c-.2.213-.4.434-.592.66a10.388,10.388,0,0,0-2.117.737,11.419,11.419,0,0,0-1.268.7,10.59,10.59,0,0,0-3.49-4.808,13.176,13.176,0,0,0-8.125-2.424c-.185,0-.367,0-.547.006a25.307,25.307,0,0,0-13.14,4.367,23.989,23.989,0,0,0-5.587,5.095,10.678,10.678,0,0,0-.129-4.07,9.279,9.279,0,0,0-6.2-6.547,16.92,16.92,0,0,0-5.868-.984,25.372,25.372,0,0,0-4.69.467,21.181,21.181,0,0,0-8.345,3.278,9.978,9.978,0,0,0-1.158.95,26.489,26.489,0,0,0-11.073-3.069c-.816-.055-1.666-.082-2.6-.082-1.01,0-1.97.031-2.775.062-.41.015-.831.021-1.237.027h-.089c-.328,0-.657.011-.986.02a12.454,12.454,0,0,0-4.381.855,10.089,10.089,0,0,0-1.955,1.046,13.761,13.761,0,0,0-1.148-1.831,13.46,13.46,0,0,0-8.129-5.079,15,15,0,0,0-2.8-.307l-.215,0h0a16.365,16.365,0,0,0-11.541,5.027c-.389.4-.77.822-1.139,1.273h-.171a27.975,27.975,0,0,0-4.059.286,17.675,17.675,0,0,0-9.435,4.1,14.246,14.246,0,0,0-2.032,2.258,16.158,16.158,0,0,0-4.494,9.235,16.647,16.647,0,0,0,2.064,10.767,16.235,16.235,0,0,0,3.941,4.485q-.124.378-.227.762a16.06,16.06,0,0,0,.075,8.24,22.546,22.546,0,0,0,6.65,10.643,25.613,25.613,0,0,0,10.321,5.8,23.16,23.16,0,0,0,5.951.859l.363,0a25.024,25.024,0,0,0,11.7-2.92q.706.354,1.44.655a33.359,33.359,0,0,0,11.755,2.226c.77.027,1.461.039,2.112.039a27.168,27.168,0,0,0,10.076-1.63,25.075,25.075,0,0,0,7.294-4.363q.456.458.939.883a20.263,20.263,0,0,0,8.364,4.4,22.306,22.306,0,0,0,5.527.714,19.187,19.187,0,0,0,4.379-.5,27.374,27.374,0,0,0,11.042-5.744q.5.5,1,.964a22.078,22.078,0,0,0,5.433,3.838,15.633,15.633,0,0,0,6.917,1.437c.205,0,.409,0,.612-.007a36.367,36.367,0,0,0,11.953-2.471,40.884,40.884,0,0,0,4.551-2.039,12.235,12.235,0,0,0,2.481,1.807,12.718,12.718,0,0,0,6.215,1.535c.177,0,.355,0,.531-.01a20.378,20.378,0,0,0,4.966-.848,11.406,11.406,0,0,0,2.63-1.128,42.471,42.471,0,0,0,12.3,2.93,40.285,40.285,0,0,0,4.079.231c.758,0,1.5-.029,2.2-.088a8.586,8.586,0,0,0,5.056-2.118,12.064,12.064,0,0,0,1.388.61l.036.014a25.863,25.863,0,0,0,7.969,1.557c.4.017.777.025,1.149.025a19.178,19.178,0,0,0,3.358-.276l.057-.009a9.16,9.16,0,0,0,4.751-2.2c.169.074.338.146.509.216a33.358,33.358,0,0,0,11.755,2.226c.77.027,1.461.039,2.111.039a27.146,27.146,0,0,0,10.077-1.63,24.66,24.66,0,0,0,4.836-2.5,11.889,11.889,0,0,0,1.975,1.276,13.161,13.161,0,0,0,2.656.986,13.951,13.951,0,0,0,3.7.557,10.088,10.088,0,0,0,2.473-.3,8.215,8.215,0,0,0,4.072-2.423A23.12,23.12,0,0,0,2028.3,2837a19.528,19.528,0,0,0,11.143,1.151,17.554,17.554,0,0,0,9.69-5.321,21.7,21.7,0,0,0,1.583-1.891c3.739-4,6.091-9.556,7.186-16.967A50.255,50.255,0,0,0,2057.351,2795.947Z" fill="#fff"/>
        </g>
        <g id="Group_8387" data-name="Group 8387">
          <path id="Path_19645" data-name="Path 19645" d="M1972.9,2714.906a11.815,11.815,0,0,0-.917-1.051,18.293,18.293,0,0,0-13.316-5.595h-.163a15.477,15.477,0,0,0-4.938.8,18.767,18.767,0,0,0-3.8,1.831,29.265,29.265,0,0,0-5.4,4.368q-.842.846-1.649,1.769a16.8,16.8,0,0,0-6.956-1.38,24.257,24.257,0,0,0-2.674.151,24,24,0,0,0-3.672.7c-.618.169-1.176.351-1.708.555-.415.159-.792.323-1.147.5a8.4,8.4,0,0,0-1.159.665,23.55,23.55,0,0,0-4.107-7.3,15.335,15.335,0,0,0-10.82-5.222c-.434-.026-.877-.039-1.318-.039a36.525,36.525,0,0,0-8.072,1.111,73.157,73.157,0,0,0-7.079,1.9,41.375,41.375,0,0,1-5.541.427c-.361.006-.725.009-1.09.009-2.052,0-4.248-.088-6.91-.278-1.68-.119-3.43-.3-5.123-.471-1.118-.114-2.276-.232-3.42-.335-.719-.065-1.447-.1-2.162-.1a19.535,19.535,0,0,0-9.93,2.529,18.146,18.146,0,0,0-5.481,4.974,19.662,19.662,0,0,0-3.99,6.338,23.161,23.161,0,0,0-1.421,5.747,16.871,16.871,0,0,0,.445,6.994,10.538,10.538,0,0,0,6.364,6.945,10.9,10.9,0,0,0,3.792.666,13.175,13.175,0,0,0,5.195-1.116,16.068,16.068,0,0,0,2.7-1.482,69.689,69.689,0,0,1-2.08,7.056q-.33.995-.65,1.975l-.059.181a12.562,12.562,0,0,0-.759,5.021,11.094,11.094,0,0,0,2.549,6.175,17.989,17.989,0,0,0,6.747,4.842,41.647,41.647,0,0,0,13.011,3.237,40.279,40.279,0,0,0,4.08.232c.757,0,1.5-.029,2.2-.088a8.565,8.565,0,0,0,6.679-4.034,9.759,9.759,0,0,0,2.815-4.932c.43.94.908,1.963,1.445,2.976l.071.135c.688,1.306,2.528,4.8,6.711,5.7a11.123,11.123,0,0,0,2.372.241c.546,0,1.018-.032,1.4-.059l.313-.02.909-.045.449-.022.612-.029.208-.01a50.825,50.825,0,0,0,6.495-.6,14.2,14.2,0,0,0,3.168-.881,8.449,8.449,0,0,0,2.868-1.893c.106-.108.208-.22.305-.337.174-.208.33-.414.47-.618a7.728,7.728,0,0,0,1.242.3,16.833,16.833,0,0,0,2.564.194l.242,0a16.386,16.386,0,0,0,5.948-1.119l.005,0a7.8,7.8,0,0,0,2.429-1.467,32.68,32.68,0,0,0,3.46,2.353,28.707,28.707,0,0,0,13.807,4.254h.254a12.443,12.443,0,0,0,8.912-3.187,10.788,10.788,0,0,0,1.552-1.856,12.451,12.451,0,0,0,3.409-10.683,14.35,14.35,0,0,0-2.778-7.037,28.482,28.482,0,0,0,2.766-4.673,34.716,34.716,0,0,0,3.162-11.143,20.371,20.371,0,0,0-2.927-13.516A11.609,11.609,0,0,0,1972.9,2714.906Z" fill="none" stroke="#fff" stroke-miterlimit="10" stroke-width="3.745"/>
          <path id="Path_19646" data-name="Path 19646" d="M2057.351,2795.947c-.08-.357-.164-.713-.253-1.065-.063-.291-.143-.57-.247-.929-.015-.054-.033-.116-.052-.18l-.007-.023a24.152,24.152,0,0,0-7.615-11.973,17.876,17.876,0,0,0-8.184-3.985,14.334,14.334,0,0,0-2.563-.232,13.821,13.821,0,0,0-8.107,2.592,15.536,15.536,0,0,0-1.934,1.645,19.314,19.314,0,0,0-9.184-2.564,13.66,13.66,0,0,0-7.19,1.977,14.691,14.691,0,0,0-3.031,2.454l-.068-.042a26.045,26.045,0,0,0-11.94-3.571c-.816-.055-1.666-.082-2.6-.082-1.01,0-1.97.031-2.776.062-.409.015-.83.021-1.237.027h-.087c-.329,0-.658.011-.987.02a13.561,13.561,0,0,0-2.6.307,18.646,18.646,0,0,0-1.944-1.212,5.721,5.721,0,0,0-1.183-.575,33.01,33.01,0,0,0-4.25-1.519l-.179-.091a5.74,5.74,0,0,0-2.611-.629c-.129,0-.258.016-.387.024a25.257,25.257,0,0,0-3.823-.331h-.15a19.089,19.089,0,0,0-7.847,1.564q-.515.231-1.012.5c-.123,0-.246-.006-.368-.006a14.769,14.769,0,0,0-1.62.091,19.966,19.966,0,0,0-2.343.426c-.224.051-.435.1-.645.14a39,39,0,0,1-6.537.585c-.361.006-.725.009-1.089.009-2.053,0-4.249-.088-6.911-.278-1.68-.119-3.43-.3-5.122-.47-1.119-.115-2.276-.233-3.42-.336-.72-.065-1.448-.1-2.162-.1a19.528,19.528,0,0,0-9.931,2.53,18.134,18.134,0,0,0-5.483,4.976c-.2.213-.4.434-.592.66a10.388,10.388,0,0,0-2.117.737,11.419,11.419,0,0,0-1.268.7,10.59,10.59,0,0,0-3.49-4.808,13.176,13.176,0,0,0-8.125-2.424c-.185,0-.367,0-.547.006a25.307,25.307,0,0,0-13.14,4.367,23.989,23.989,0,0,0-5.587,5.095,10.678,10.678,0,0,0-.129-4.07,9.279,9.279,0,0,0-6.2-6.547,16.92,16.92,0,0,0-5.868-.984,25.372,25.372,0,0,0-4.69.467,21.181,21.181,0,0,0-8.345,3.278,9.978,9.978,0,0,0-1.158.95,26.489,26.489,0,0,0-11.073-3.069c-.816-.055-1.666-.082-2.6-.082-1.01,0-1.97.031-2.775.062-.41.015-.831.021-1.237.027h-.089c-.328,0-.657.011-.986.02a12.454,12.454,0,0,0-4.381.855,10.089,10.089,0,0,0-1.955,1.046,13.761,13.761,0,0,0-1.148-1.831,13.46,13.46,0,0,0-8.129-5.079,15,15,0,0,0-2.8-.307l-.215,0h0a16.365,16.365,0,0,0-11.541,5.027c-.389.4-.77.822-1.139,1.273h-.171a27.975,27.975,0,0,0-4.059.286,17.675,17.675,0,0,0-9.435,4.1,14.246,14.246,0,0,0-2.032,2.258,16.158,16.158,0,0,0-4.494,9.235,16.647,16.647,0,0,0,2.064,10.767,16.235,16.235,0,0,0,3.941,4.485q-.124.378-.227.762a16.06,16.06,0,0,0,.075,8.24,22.546,22.546,0,0,0,6.65,10.643,25.613,25.613,0,0,0,10.321,5.8,23.16,23.16,0,0,0,5.951.859l.363,0a25.024,25.024,0,0,0,11.7-2.92q.706.354,1.44.655a33.359,33.359,0,0,0,11.755,2.226c.77.027,1.461.039,2.112.039a27.168,27.168,0,0,0,10.076-1.63,25.075,25.075,0,0,0,7.294-4.363q.456.458.939.883a20.263,20.263,0,0,0,8.364,4.4,22.306,22.306,0,0,0,5.527.714,19.187,19.187,0,0,0,4.379-.5,27.374,27.374,0,0,0,11.042-5.744q.5.5,1,.964a22.078,22.078,0,0,0,5.433,3.838,15.633,15.633,0,0,0,6.917,1.437c.205,0,.409,0,.612-.007a36.367,36.367,0,0,0,11.953-2.471,40.884,40.884,0,0,0,4.551-2.039,12.235,12.235,0,0,0,2.481,1.807,12.718,12.718,0,0,0,6.215,1.535c.177,0,.355,0,.531-.01a20.378,20.378,0,0,0,4.966-.848,11.406,11.406,0,0,0,2.63-1.128,42.471,42.471,0,0,0,12.3,2.93,40.285,40.285,0,0,0,4.079.231c.758,0,1.5-.029,2.2-.088a8.586,8.586,0,0,0,5.056-2.118,12.064,12.064,0,0,0,1.388.61l.036.014a25.863,25.863,0,0,0,7.969,1.557c.4.017.777.025,1.149.025a19.178,19.178,0,0,0,3.358-.276l.057-.009a9.16,9.16,0,0,0,4.751-2.2c.169.074.338.146.509.216a33.358,33.358,0,0,0,11.755,2.226c.77.027,1.461.039,2.111.039a27.146,27.146,0,0,0,10.077-1.63,24.66,24.66,0,0,0,4.836-2.5,11.889,11.889,0,0,0,1.975,1.276,13.161,13.161,0,0,0,2.656.986,13.951,13.951,0,0,0,3.7.557,10.088,10.088,0,0,0,2.473-.3,8.215,8.215,0,0,0,4.072-2.423A23.12,23.12,0,0,0,2028.3,2837a19.528,19.528,0,0,0,11.143,1.151,17.554,17.554,0,0,0,9.69-5.321,21.7,21.7,0,0,0,1.583-1.891c3.739-4,6.091-9.556,7.186-16.967A50.255,50.255,0,0,0,2057.351,2795.947Z" fill="none" stroke="#fff" stroke-miterlimit="10" stroke-width="3.745"/>
        </g>
        <g id="Group_8388" data-name="Group 8388">
          <path id="Path_19647" data-name="Path 19647" d="M1972.9,2714.906a11.815,11.815,0,0,0-.917-1.051,18.293,18.293,0,0,0-13.316-5.595h-.163a15.477,15.477,0,0,0-4.938.8,18.767,18.767,0,0,0-3.8,1.831,29.265,29.265,0,0,0-5.4,4.368q-.842.846-1.649,1.769a16.8,16.8,0,0,0-6.956-1.38,24.257,24.257,0,0,0-2.674.151,24,24,0,0,0-3.672.7c-.618.169-1.176.351-1.708.555-.415.159-.792.323-1.147.5a8.4,8.4,0,0,0-1.159.665,23.55,23.55,0,0,0-4.107-7.3,15.335,15.335,0,0,0-10.82-5.222c-.434-.026-.877-.039-1.318-.039a36.525,36.525,0,0,0-8.072,1.111,73.157,73.157,0,0,0-7.079,1.9,41.375,41.375,0,0,1-5.541.427c-.361.006-.725.009-1.09.009-2.052,0-4.248-.088-6.91-.278-1.68-.119-3.43-.3-5.123-.471-1.118-.114-2.276-.232-3.42-.335-.719-.065-1.447-.1-2.162-.1a19.535,19.535,0,0,0-9.93,2.529,18.146,18.146,0,0,0-5.481,4.974,19.662,19.662,0,0,0-3.99,6.338,23.161,23.161,0,0,0-1.421,5.747,16.871,16.871,0,0,0,.445,6.994,10.538,10.538,0,0,0,6.364,6.945,10.9,10.9,0,0,0,3.792.666,13.175,13.175,0,0,0,5.195-1.116,16.068,16.068,0,0,0,2.7-1.482,69.689,69.689,0,0,1-2.08,7.056q-.33.995-.65,1.975l-.059.181a12.562,12.562,0,0,0-.759,5.021,11.094,11.094,0,0,0,2.549,6.175,17.989,17.989,0,0,0,6.747,4.842,41.647,41.647,0,0,0,13.011,3.237,40.279,40.279,0,0,0,4.08.232c.757,0,1.5-.029,2.2-.088a8.565,8.565,0,0,0,6.679-4.034,9.759,9.759,0,0,0,2.815-4.932c.43.94.908,1.963,1.445,2.976l.071.135c.688,1.306,2.528,4.8,6.711,5.7a11.123,11.123,0,0,0,2.372.241c.546,0,1.018-.032,1.4-.059l.313-.02.909-.045.449-.022.612-.029.208-.01a50.825,50.825,0,0,0,6.495-.6,14.2,14.2,0,0,0,3.168-.881,8.449,8.449,0,0,0,2.868-1.893c.106-.108.208-.22.305-.337.174-.208.33-.414.47-.618a7.728,7.728,0,0,0,1.242.3,16.833,16.833,0,0,0,2.564.194l.242,0a16.386,16.386,0,0,0,5.948-1.119l.005,0a7.8,7.8,0,0,0,2.429-1.467,32.68,32.68,0,0,0,3.46,2.353,28.707,28.707,0,0,0,13.807,4.254h.254a12.443,12.443,0,0,0,8.912-3.187,10.788,10.788,0,0,0,1.552-1.856,12.451,12.451,0,0,0,3.409-10.683,14.35,14.35,0,0,0-2.778-7.037,28.482,28.482,0,0,0,2.766-4.673,34.716,34.716,0,0,0,3.162-11.143,20.371,20.371,0,0,0-2.927-13.516A11.609,11.609,0,0,0,1972.9,2714.906Z" fill="none" stroke="#000" stroke-miterlimit="10" stroke-width="2.809"/>
          <path id="Path_19648" data-name="Path 19648" d="M2057.351,2795.947c-.08-.357-.164-.713-.253-1.065-.063-.291-.143-.57-.247-.929-.015-.054-.033-.116-.052-.18l-.007-.023a24.152,24.152,0,0,0-7.615-11.973,17.876,17.876,0,0,0-8.184-3.985,14.334,14.334,0,0,0-2.563-.232,13.821,13.821,0,0,0-8.107,2.592,15.536,15.536,0,0,0-1.934,1.645,19.314,19.314,0,0,0-9.184-2.564,13.66,13.66,0,0,0-7.19,1.977,14.691,14.691,0,0,0-3.031,2.454l-.068-.042a26.045,26.045,0,0,0-11.94-3.571c-.816-.055-1.666-.082-2.6-.082-1.01,0-1.97.031-2.776.062-.409.015-.83.021-1.237.027h-.087c-.329,0-.658.011-.987.02a13.561,13.561,0,0,0-2.6.307,18.646,18.646,0,0,0-1.944-1.212,5.721,5.721,0,0,0-1.183-.575,33.01,33.01,0,0,0-4.25-1.519l-.179-.091a5.74,5.74,0,0,0-2.611-.629c-.129,0-.258.016-.387.024a25.257,25.257,0,0,0-3.823-.331h-.15a19.089,19.089,0,0,0-7.847,1.564q-.515.231-1.012.5c-.123,0-.246-.006-.368-.006a14.769,14.769,0,0,0-1.62.091,19.966,19.966,0,0,0-2.343.426c-.224.051-.435.1-.645.14a39,39,0,0,1-6.537.585c-.361.006-.725.009-1.089.009-2.053,0-4.249-.088-6.911-.278-1.68-.119-3.43-.3-5.122-.47-1.119-.115-2.276-.233-3.42-.336-.72-.065-1.448-.1-2.162-.1a19.528,19.528,0,0,0-9.931,2.53,18.134,18.134,0,0,0-5.483,4.976c-.2.213-.4.434-.592.66a10.388,10.388,0,0,0-2.117.737,11.419,11.419,0,0,0-1.268.7,10.59,10.59,0,0,0-3.49-4.808,13.176,13.176,0,0,0-8.125-2.424c-.185,0-.367,0-.547.006a25.307,25.307,0,0,0-13.14,4.367,23.989,23.989,0,0,0-5.587,5.095,10.678,10.678,0,0,0-.129-4.07,9.279,9.279,0,0,0-6.2-6.547,16.92,16.92,0,0,0-5.868-.984,25.372,25.372,0,0,0-4.69.467,21.181,21.181,0,0,0-8.345,3.278,9.978,9.978,0,0,0-1.158.95,26.489,26.489,0,0,0-11.073-3.069c-.816-.055-1.666-.082-2.6-.082-1.01,0-1.97.031-2.775.062-.41.015-.831.021-1.237.027h-.089c-.328,0-.657.011-.986.02a12.454,12.454,0,0,0-4.381.855,10.089,10.089,0,0,0-1.955,1.046,13.761,13.761,0,0,0-1.148-1.831,13.46,13.46,0,0,0-8.129-5.079,15,15,0,0,0-2.8-.307l-.215,0h0a16.365,16.365,0,0,0-11.541,5.027c-.389.4-.77.822-1.139,1.273h-.171a27.975,27.975,0,0,0-4.059.286,17.675,17.675,0,0,0-9.435,4.1,14.246,14.246,0,0,0-2.032,2.258,16.158,16.158,0,0,0-4.494,9.235,16.647,16.647,0,0,0,2.064,10.767,16.235,16.235,0,0,0,3.941,4.485q-.124.378-.227.762a16.06,16.06,0,0,0,.075,8.24,22.546,22.546,0,0,0,6.65,10.643,25.613,25.613,0,0,0,10.321,5.8,23.16,23.16,0,0,0,5.951.859l.363,0a25.024,25.024,0,0,0,11.7-2.92q.706.354,1.44.655a33.359,33.359,0,0,0,11.755,2.226c.77.027,1.461.039,2.112.039a27.168,27.168,0,0,0,10.076-1.63,25.075,25.075,0,0,0,7.294-4.363q.456.458.939.883a20.263,20.263,0,0,0,8.364,4.4,22.306,22.306,0,0,0,5.527.714,19.187,19.187,0,0,0,4.379-.5,27.374,27.374,0,0,0,11.042-5.744q.5.5,1,.964a22.078,22.078,0,0,0,5.433,3.838,15.633,15.633,0,0,0,6.917,1.437c.205,0,.409,0,.612-.007a36.367,36.367,0,0,0,11.953-2.471,40.884,40.884,0,0,0,4.551-2.039,12.235,12.235,0,0,0,2.481,1.807,12.718,12.718,0,0,0,6.215,1.535c.177,0,.355,0,.531-.01a20.378,20.378,0,0,0,4.966-.848,11.406,11.406,0,0,0,2.63-1.128,42.471,42.471,0,0,0,12.3,2.93,40.285,40.285,0,0,0,4.079.231c.758,0,1.5-.029,2.2-.088a8.586,8.586,0,0,0,5.056-2.118,12.064,12.064,0,0,0,1.388.61l.036.014a25.863,25.863,0,0,0,7.969,1.557c.4.017.777.025,1.149.025a19.178,19.178,0,0,0,3.358-.276l.057-.009a9.16,9.16,0,0,0,4.751-2.2c.169.074.338.146.509.216a33.358,33.358,0,0,0,11.755,2.226c.77.027,1.461.039,2.111.039a27.146,27.146,0,0,0,10.077-1.63,24.66,24.66,0,0,0,4.836-2.5,11.889,11.889,0,0,0,1.975,1.276,13.161,13.161,0,0,0,2.656.986,13.951,13.951,0,0,0,3.7.557,10.088,10.088,0,0,0,2.473-.3,8.215,8.215,0,0,0,4.072-2.423A23.12,23.12,0,0,0,2028.3,2837a19.528,19.528,0,0,0,11.143,1.151,17.554,17.554,0,0,0,9.69-5.321,21.7,21.7,0,0,0,1.583-1.891c3.739-4,6.091-9.556,7.186-16.967A50.255,50.255,0,0,0,2057.351,2795.947Z" fill="none" stroke="#000" stroke-miterlimit="10" stroke-width="2.809"/>
        </g>
      </g>
    </g>
    <g id="Group_8435" data-name="Group 8435" transform="translate(-1742.222)">
      <g id="Group_8401" data-name="Group 8401">
        <g id="Group_8394" data-name="Group 8394">
          <path id="Path_19649" data-name="Path 19649" d="M1968.913,2719.205a5.216,5.216,0,0,0-.516-.7,5.676,5.676,0,0,0-.528-.61,12.56,12.56,0,0,0-9.2-3.871h-.133a9.776,9.776,0,0,0-3.1.491,13.168,13.168,0,0,0-2.645,1.284,23.67,23.67,0,0,0-4.342,3.526,33.239,33.239,0,0,0-2.706,3.091,34.947,34.947,0,0,0-4.963,7.224,27.148,27.148,0,0,0-3.32,10.906,17.851,17.851,0,0,0,3.02,10.978,24.832,24.832,0,0,0,8.094,7.5,22.99,22.99,0,0,0,10.949,3.455h.182a6.838,6.838,0,0,0,4.939-1.6,4.985,4.985,0,0,1,1.522-1.825,6.781,6.781,0,0,0,1.695-5.836c-.136-1.1-.67-3.813-2.688-5.218a3.166,3.166,0,0,0-1.8-.6h-.059a4.256,4.256,0,0,0-1.369.31c-.127.046-.248.089-.351.119-.441.127-.9.233-1.373.32a15.791,15.791,0,0,0,1.584-1.18,18.02,18.02,0,0,0,2.838-3.083,21.114,21.114,0,0,0,3.717-5.544,28.888,28.888,0,0,0,2.639-9.27A14.849,14.849,0,0,0,1968.913,2719.205Zm-20.341,22.07c-.009-.088-.017-.178-.022-.268a7.557,7.557,0,0,1,.974-4.153,3.244,3.244,0,0,1,1.91-.857c.049,0,.1,0,.147.007a1.362,1.362,0,0,1,1.143,1.56h0v.008h0a3.492,3.492,0,0,1-.544,1.573A9.974,9.974,0,0,1,1948.572,2741.275Z"/>
          <g id="Group_8393" data-name="Group 8393" clip-path="url(#clip-path)">
            <g id="Group_8392" data-name="Group 8392">
              <g id="Group_8391" data-name="Group 8391">
                <path id="Path_19650" data-name="Path 19650" d="M1967.084,2718.81s.095.121.359.453l.364.452Z" fill="url(#linear-gradient)"/>
                <path id="Path_19651" data-name="Path 19651" d="M1967.443,2719.263a11.241,11.241,0,0,0-8.777-4.025h-.12a8.6,8.6,0,0,0-2.722.426,11.987,11.987,0,0,0-2.4,1.168,22.6,22.6,0,0,0-4.118,3.348,33.486,33.486,0,0,0-5.93,8.191,26.173,26.173,0,0,0-3.185,10.417,16.663,16.663,0,0,0,2.819,10.235,23.555,23.555,0,0,0,7.7,7.123,21.51,21.51,0,0,0,10.345,3.285h.168a5.839,5.839,0,0,0,4.1-1.263,5.632,5.632,0,0,0,1.327-4.8,6.315,6.315,0,0,0-2.176-4.368,1.963,1.963,0,0,0-1.106-.384h-.033a5.772,5.772,0,0,0-1.408.382,16.331,16.331,0,0,1-2.664.527,19.717,19.717,0,0,1-2.239.13,18.055,18.055,0,0,1-3.038-.253,11.7,11.7,0,0,1-4.113-1.373,5.363,5.363,0,0,1-1.411-1.211c.508.17,1,.4,1.5.592a5.691,5.691,0,0,0,1.519.275q.654.057,1.311.056a15.663,15.663,0,0,0,2.3-.17,14.839,14.839,0,0,0,7.444-3.354,18.959,18.959,0,0,0,4.723-6.4,27.678,27.678,0,0,0,2.529-8.874C1970.127,2725.578,1969.619,2721.971,1967.443,2719.263Zm-11.991,16.706s0-.041.008-.153a6.2,6.2,0,0,1-1.914,3.686,11.141,11.141,0,0,1-4.607,2.934,6.652,6.652,0,0,1-2.06.426,2.981,2.981,0,0,1-.474-.036,6.374,6.374,0,0,0,1.01-.41c.139-.088.107-.05.071-.218-.026-.123-.05-.246-.069-.37-.04-.246-.066-.5-.082-.745a8.732,8.732,0,0,1,.545-3.578,8.105,8.105,0,0,1,2.1-3.162,4.646,4.646,0,0,1,2.978-1.388c.085,0,.17,0,.256.011a2.562,2.562,0,0,1,2.249,2.85c.007-.11.01-.151.01-.151Z" fill="url(#linear-gradient-2)"/>
              </g>
              <path id="Path_19652" data-name="Path 19652" d="M1959,2717.172a6.855,6.855,0,0,1,8.809,7.548,18.321,18.321,0,0,0-1.219-2.959c-1.471-2.871-4.509-4.145-7.59-4.589Z" fill="#fff"/>
              <path id="Path_19653" data-name="Path 19653" d="M1958.5,2751.01c.662-.186,1.241-.343,1.808-.546a8.882,8.882,0,0,1,2.852-.768,2.436,2.436,0,0,1,2.237,2.145c-.9-.641-1.562-1.227-2.59-.922-.1.019-.311.072-.412.1a5.2,5.2,0,0,1-3.895-.013Z" fill="#fff"/>
            </g>
          </g>
        </g>
        <g id="Group_8396" data-name="Group 8396">
          <path id="Path_19655" data-name="Path 19655" d="M1943.662,2727.434a12.65,12.65,0,0,0-.2-1.255l-.007-.051a2.067,2.067,0,0,0-.093-.372c-.007-.026-.016-.058-.027-.093l-.021-.074c-.757-2.692-3.442-4.177-7.56-4.177a18.5,18.5,0,0,0-2.035.115,18.163,18.163,0,0,0-2.782.527c-.435.119-.819.243-1.173.379a7.135,7.135,0,0,0-.694.3l-.024.011a1.673,1.673,0,0,0-.875.774,1.566,1.566,0,0,0-.126.816c-.184.075-.345.148-.5.225l-.023.011a1.665,1.665,0,0,0-.875.774,1.718,1.718,0,0,0-.1,1l0,.03.009.285.011.324c.007.226.016.452.025.678.1,2.469.219,4.913.32,6.978l.106,2.181.034.7-.094.006c-.153.011-.306.026-.46.041-.236.023-.459.046-.659.046-.077,0-.146,0-.21-.01a.7.7,0,0,1-.511-.263,1.631,1.631,0,0,1-.078-.217c-.023-.073-.047-.147-.073-.222-.061-.17-.149-.44-.2-.629-.375-1.37-.765-2.724-1.063-3.75-.513-1.768-1.042-3.562-1.553-5.3l-.469-1.6c-.082-.276-.162-.552-.243-.829-.36-1.235-.733-2.513-1.158-3.764a19.246,19.246,0,0,0-3.356-6.356,9.5,9.5,0,0,0-6.8-3.235c-.316-.019-.643-.029-.971-.029a31.046,31.046,0,0,0-6.8.97,60.956,60.956,0,0,0-7.472,2.073,16.7,16.7,0,0,0-3.484,1.657,5.4,5.4,0,0,0-2.043,2.193,4.145,4.145,0,0,0-1.814,3.1,6.718,6.718,0,0,0,1.594,3.947l.016.022c.351.505.714.992,1.027,1.408,1.961,2.612,4.218,5.662,6.2,8.82a130.685,130.685,0,0,1,7.168,13.292c1.144,2.385,2.277,4.868,3.276,7.058l.139.306c.48,1.053.976,2.143,1.536,3.2l.073.138c.509.967,1.279,2.43,2.83,2.764a5.5,5.5,0,0,0,1.16.112c.347,0,.68-.023,1-.045q.205-.015.408-.026c.313-.017.625-.032.938-.047l.44-.022.83-.039a45.842,45.842,0,0,0,5.773-.516,8.853,8.853,0,0,0,1.923-.515,2.892,2.892,0,0,0,.989-.614,1.918,1.918,0,0,0,.422-.756c.023-.144.038-.289.05-.434.02-.008.04-.013.06-.022a2.879,2.879,0,0,0,.989-.614,1.9,1.9,0,0,0,.422-.755,10.536,10.536,0,0,0-.043-2.769c-.02-.191-.041-.381-.058-.567l-.05-.552c-.09-.97-.182-1.974-.241-2.954a26.038,26.038,0,0,1-.025-3.491,9.142,9.142,0,0,1,.23-1.533,1.438,1.438,0,0,1,.256-.025,1.389,1.389,0,0,1,1.159.613,7.22,7.22,0,0,1,.929,2.738c.173.918.307,1.872.437,2.795q.058.414.118.826l.05.354a14.053,14.053,0,0,0,.778,3.385l.015.036a2.013,2.013,0,0,0,1.511,1.405,11.165,11.165,0,0,0,1.689.126h.173a10.632,10.632,0,0,0,3.879-.708l.046-.018a1.777,1.777,0,0,0,.968-.757,1.676,1.676,0,0,0,.187-.549l0-.015c.033-.134.064-.269.1-.4.073-.027.148-.054.22-.083l.046-.018a1.775,1.775,0,0,0,.968-.756,1.679,1.679,0,0,0,.187-.55l0-.015c.06-.241.119-.486.175-.731.793-3.424,1.488-7.125,2.125-11.314.44-2.894.736-5.276.932-7.5A38.077,38.077,0,0,0,1943.662,2727.434Z"/>
          <g id="Group_8395" data-name="Group 8395">
            <path id="Path_19656" data-name="Path 19656" d="M1929.861,2737.119h0c0-.017,0-.035-.005-.052Z" fill="url(#linear-gradient-3)"/>
            <path id="Path_19657" data-name="Path 19657" d="M1942.352,2734.936a36.61,36.61,0,0,0,.1-7.363,10.233,10.233,0,0,0-.311-1.649c-.744-2.645-3.777-3.3-6.39-3.3a17.3,17.3,0,0,0-1.9.108,16.906,16.906,0,0,0-2.6.49c-.358.1-.713.21-1.059.343a5.835,5.835,0,0,0-.58.252c-.087.044-.307.131-.349.22a1.369,1.369,0,0,0,.014.437c.008.213.015.427.022.64s.016.446.025.669q.144,3.486.319,6.97.106,2.179.212,4.361c.08.975-1.049,1.417-1.834,1.538-.326.05-.657.062-.986.085-.4.027-.8.089-1.2.089a3.159,3.159,0,0,1-.336-.017,1.873,1.873,0,0,1-1.4-.807,3.075,3.075,0,0,1-.28-.7c-.062-.176-.163-.481-.227-.715-.342-1.247-.7-2.49-1.058-3.732-.667-2.3-1.346-4.593-2.021-6.889-.447-1.519-.876-3.045-1.385-4.544a17.792,17.792,0,0,0-3.125-5.953,8.288,8.288,0,0,0-5.957-2.815c-.3-.018-.6-.027-.9-.027a29.851,29.851,0,0,0-6.531.94,60.629,60.629,0,0,0-7.326,2.03,15.328,15.328,0,0,0-3.229,1.53,3.333,3.333,0,0,0-1.789,2.487,5.789,5.789,0,0,0,1.393,3.238c.323.465.661.919,1,1.372,2.181,2.9,4.327,5.825,6.259,8.9a134.327,134.327,0,0,1,7.235,13.413c1.125,2.346,2.206,4.712,3.285,7.079.528,1.156,1.049,2.318,1.644,3.44.458.865,1.033,2.056,2.083,2.282a4.255,4.255,0,0,0,.9.085c.45,0,.9-.046,1.345-.069.461-.025.922-.046,1.383-.069a52.552,52.552,0,0,0,6.452-.538,7.68,7.68,0,0,0,1.66-.438,1.8,1.8,0,0,0,.592-.344c.022-.022.073-.107.087-.107s0,0,0,.012a12.546,12.546,0,0,0-.111-3.034c-.107-1.181-.223-2.361-.294-3.544a26.884,26.884,0,0,1-.023-3.657,6.81,6.81,0,0,1,.89-3.232,2.8,2.8,0,0,1,2.33-1.276,2.607,2.607,0,0,1,2.156,1.131,8.193,8.193,0,0,1,1.129,3.213c.229,1.216.385,2.446.563,3.671a14.582,14.582,0,0,0,.75,3.451c.12.293.251.649.585.7a9.845,9.845,0,0,0,1.5.113l.154,0a9.506,9.506,0,0,0,3.434-.617c.142-.058.344-.117.418-.249a1.021,1.021,0,0,0,.064-.243q.092-.363.175-.726c.858-3.707,1.535-7.462,2.107-11.223C1941.8,2739.893,1942.132,2737.418,1942.352,2734.936Z" fill="url(#linear-gradient-4)"/>
            <path id="Path_19658" data-name="Path 19658" d="M1942.133,2725.892l.009.032c.078.274.1.366.1.366Z" fill="url(#linear-gradient-5)"/>
          </g>
          <path id="Path_19659" data-name="Path 19659" d="M1906.77,2714.2c4.176-1.731,9.532.644,9.666,5.5a13.224,13.224,0,0,0-1.689-2.484c-2.017-2.26-5.057-2.8-7.977-3.021Z" fill="#fff"/>
          <path id="Path_19660" data-name="Path 19660" d="M1936.493,2724.05a3.239,3.239,0,0,1,4.324.99,5.1,5.1,0,0,1,.472,4.485c-.251-.72-.428-1.408-.651-2.053a4.29,4.29,0,0,0-4.145-3.422Z" fill="#fff"/>
          <path id="Path_19661" data-name="Path 19661" d="M1920.171,2758.125c1.153-.535,2.358-.678,3.43-1.24.1-.066.1-.067.139-.142a4.98,4.98,0,0,0,.026-1.845,12.972,12.972,0,0,1-.065-2.248c.659,1.326,2.187,4.115.57,5.251a5.272,5.272,0,0,1-4.1.224Z" fill="#fff"/>
          <path id="Path_19662" data-name="Path 19662" d="M1934.574,2754.241c.835-.483,1.665-.645,2.475-1.028a.652.652,0,0,0,.159-.12c.567-.621.666-1.828,1.075-2.674.515,1.237.692,3.1-.671,3.867a3.763,3.763,0,0,1-3.038-.045Z" fill="#fff"/>
        </g>
        <g id="Group_8400" data-name="Group 8400">
          <path id="Path_19663" data-name="Path 19663" d="M1904.968,2716.449a6.174,6.174,0,0,0-1.435-1.584,3.208,3.208,0,0,0-.465-.332,2.813,2.813,0,0,0-.574-.308,6.621,6.621,0,0,0-2.894-.61,9,9,0,0,0-.985.056,14.825,14.825,0,0,0-1.7.317c-.3.068-.581.132-.862.185a44.724,44.724,0,0,1-7.506.684q-.593.009-1.185.009c-2.192,0-4.518-.093-7.319-.292-1.765-.125-3.562-.309-5.3-.486-1.1-.112-2.231-.228-3.351-.329-.553-.05-1.106-.075-1.646-.075a13.865,13.865,0,0,0-7.042,1.753,12.34,12.34,0,0,0-3.932,3.689,13.694,13.694,0,0,0-3.059,4.729,17.415,17.415,0,0,0-1.066,4.32,11.343,11.343,0,0,0,.231,4.643,4.766,4.766,0,0,0,2.851,3.227,5.158,5.158,0,0,0,1.8.31,7.474,7.474,0,0,0,2.929-.651,10.554,10.554,0,0,0,1.954-1.107c.318-.228.61-.467.891-.7.25-.2.485-.4.724-.571a11.074,11.074,0,0,1,3.08-1.572,12.11,12.11,0,0,1,3.687-.606c.114,0,.228,0,.341.006l.012.047c1.489,5.67-.454,11.525-2.334,17.187-.215.649-.429,1.3-.637,1.935l-.062.192a7.088,7.088,0,0,0-.492,2.8,5.306,5.306,0,0,0,1.267,2.965,12.357,12.357,0,0,0,4.639,3.227,36.027,36.027,0,0,0,11.233,2.763,34.922,34.922,0,0,0,3.5.2c.6,0,1.176-.023,1.719-.069a3.05,3.05,0,0,0,2.674-2.143c1.836-.941,1.98-3.636,2.039-4.757a30.323,30.323,0,0,0-.386-5.9c-.261-1.808-.63-3.731-1.128-5.879-.461-1.991-.968-3.944-1.506-5.8-.126-.437-.262-.877-.394-1.3a21,21,0,0,1-.964-3.991c-.013-.128-.02-.247-.025-.363.051,0,.1,0,.149,0h.066a11.126,11.126,0,0,1,1.482.141c.156.022.312.044.467.063a22.863,22.863,0,0,0,2.884.222,10.657,10.657,0,0,0,2.46-.262,5.737,5.737,0,0,0,3.861-2.931,5.966,5.966,0,0,0,1.808-2.422,13.025,13.025,0,0,0,.881-4.828A10.213,10.213,0,0,0,1904.968,2716.449Z"/>
          <g id="Group_8399" data-name="Group 8399" clip-path="url(#clip-path-2)">
            <g id="Group_8398" data-name="Group 8398">
              <g id="Group_8397" data-name="Group 8397">
                <path id="Path_19664" data-name="Path 19664" d="M1902.135,2715.39s.072.049.282.183.284.172.287.172S1902.143,2715.39,1902.135,2715.39Z" fill="url(#linear-gradient-6)"/>
                <path id="Path_19665" data-name="Path 19665" d="M1904.349,2726.606a12.117,12.117,0,0,0,.786-4.381,9.126,9.126,0,0,0-1.192-5.119,4.822,4.822,0,0,0-1.526-1.533,5.189,5.189,0,0,0-2.817-.741,7.536,7.536,0,0,0-.851.049c-.835.092-1.644.334-2.468.488a45.9,45.9,0,0,1-7.71.705c-.4.006-.8.009-1.205.009-2.471,0-4.941-.12-7.406-.295-2.9-.206-5.779-.557-8.672-.817q-.765-.069-1.537-.07a12.768,12.768,0,0,0-6.431,1.59,11.738,11.738,0,0,0-4.946,5.98,16.232,16.232,0,0,0-.991,4.018,10.149,10.149,0,0,0,.185,4.147,3.6,3.6,0,0,0,2.109,2.442,3.938,3.938,0,0,0,1.374.234,6.343,6.343,0,0,0,2.45-.553,9.3,9.3,0,0,0,1.726-.978c.555-.4,1.056-.863,1.609-1.264a12.306,12.306,0,0,1,3.418-1.745,13.348,13.348,0,0,1,4.062-.665,9.5,9.5,0,0,1,3.385.584,4.949,4.949,0,0,1,1.025.5c-.96-.051-1.918-.1-2.879-.123,1.758,6.7-.948,13.5-2.991,19.8a6.592,6.592,0,0,0-.5,2.527,4.157,4.157,0,0,0,1,2.287,11.208,11.208,0,0,0,4.193,2.886,35.333,35.333,0,0,0,10.857,2.662,33.675,33.675,0,0,0,3.381.2c.541,0,1.08-.019,1.617-.064,1.809-.151,2-2.523,2.077-3.926a29.053,29.053,0,0,0-.374-5.657c-.281-1.942-.667-3.868-1.11-5.778q-.669-2.889-1.489-5.741a32.073,32.073,0,0,1-1.4-5.506,3.57,3.57,0,0,1,.51-2.551,2.861,2.861,0,0,1,2.328-.985h.085a16.735,16.735,0,0,1,2.1.215,21.71,21.71,0,0,0,2.73.212,9.514,9.514,0,0,0,2.182-.231A4.589,4.589,0,0,0,1904.349,2726.606Z" fill="url(#linear-gradient-7)"/>
              </g>
              <path id="Path_19666" data-name="Path 19666" d="M1888.858,2757.449c3.165.174,5.1.2,5.051-3.622a18.5,18.5,0,0,0-.245-2.8l.118-.031a15.708,15.708,0,0,1,.734,2.783c.413,2.085-.317,4.873-2.882,4.867a4.342,4.342,0,0,1-2.826-1.089l.05-.111Z" fill="#fff"/>
              <path id="Path_19667" data-name="Path 19667" d="M1896.242,2717.1c2.856-2.351,6.723-1.813,7.677,2.1a9.707,9.707,0,0,1,.043,4.169c-.227-1.085-.409-2.147-.706-3.151-1.041-3.849-3.5-4.212-7.014-3.119Z" fill="#fff"/>
            </g>
          </g>
        </g>
      </g>
      <g id="Group_8405" data-name="Group 8405">
        <path id="Path_19669" data-name="Path 19669" d="M2051.726,2797.194c-.079-.354-.163-.705-.252-1.051a5.856,5.856,0,0,0-.158-.593c-.015-.05-.03-.1-.045-.154l-.02-.07a18.422,18.422,0,0,0-5.771-9.131,12.135,12.135,0,0,0-5.519-2.735,8.579,8.579,0,0,0-1.531-.139,8.094,8.094,0,0,0-4.748,1.512,10.562,10.562,0,0,0-2.6,2.732,11.25,11.25,0,0,0-1.56,1.887c-.081-.065-.158-.119-.218-.159l-.032-.022q-.225-.178-.455-.352a27.164,27.164,0,0,0-2.277-1.546,14.446,14.446,0,0,0-7.33-2.378,7.981,7.981,0,0,0-4.2,1.141,9.673,9.673,0,0,0-3.019,2.984c-2.513,2.385-3.575,6.024-4.166,8.729a46.513,46.513,0,0,0-.818,12.519c.125,2.274.388,4.476.629,6.329a50.183,50.183,0,0,0,1.129,6.182,15.919,15.919,0,0,0,2.36,5.589,6.737,6.737,0,0,0,2.337,2.043,7.61,7.61,0,0,0,1.524.55,8.522,8.522,0,0,0,2.2.358,4.332,4.332,0,0,0,1.058-.125,2.525,2.525,0,0,0,1.87-1.941,2.8,2.8,0,0,0,1.657-2.815,10.945,10.945,0,0,0-.247-2.379,21.825,21.825,0,0,0,8.981,7.521,13.763,13.763,0,0,0,7.858.814,11.908,11.908,0,0,0,6.574-3.61,16.3,16.3,0,0,0,1.378-1.684c.047-.048.1-.092.144-.141,2.942-3.127,4.821-7.683,5.744-13.928A44.457,44.457,0,0,0,2051.726,2797.194Z"/>
        <g id="Group_8404" data-name="Group 8404" clip-path="url(#clip-path-3)">
          <g id="Group_8403" data-name="Group 8403">
            <g id="Group_8402" data-name="Group 8402">
              <path id="Path_19670" data-name="Path 19670" d="M2050.027,2795.475s.015.054.054.189l.184.636Z" fill="url(#linear-gradient-8)"/>
              <path id="Path_19671" data-name="Path 19671" d="M2051,2812.953a43.123,43.123,0,0,0-.458-15.495q-.2-.9-.456-1.794a17.209,17.209,0,0,0-5.382-8.535,10.917,10.917,0,0,0-4.956-2.472,7.362,7.362,0,0,0-1.313-.119,6.9,6.9,0,0,0-4.039,1.284c-2.888,2.071-4.193,5.838-4.911,9.171a40.209,40.209,0,0,0-.986,11.249,22.537,22.537,0,0,0,.964,5.3,12.911,12.911,0,0,0,2.2,4.293,4.531,4.531,0,0,0,.336.371,9.213,9.213,0,0,1-2.27-2.936,18.824,18.824,0,0,1-1.782-4.884,34.779,34.779,0,0,1-.329-11.807,32.487,32.487,0,0,1,.841-4.624c.067-.249.139-.5.214-.742.056-.182.261-.583.177-.726-.056-.095-.23-.187-.316-.256q-.22-.174-.446-.344a25.314,25.314,0,0,0-2.172-1.476,13.581,13.581,0,0,0-6.7-2.2,6.759,6.759,0,0,0-3.571.965c-3.088,1.873-4.377,5.771-5.1,9.106a45.786,45.786,0,0,0-.792,12.193c.114,2.086.351,4.167.62,6.239a49.949,49.949,0,0,0,1.1,6.034,14.9,14.9,0,0,0,2.16,5.171,5.587,5.587,0,0,0,1.914,1.683,6.458,6.458,0,0,0,1.285.457,7.432,7.432,0,0,0,1.886.317,3.058,3.058,0,0,0,.76-.089c.845-.213,1.063-1,1.087-1.787a14.371,14.371,0,0,0-.382-2.945c-.185-1.022-.339-2.052-.472-3.082a53,53,0,0,1-.45-5.754,25.194,25.194,0,0,1,.358-5.275,14.358,14.358,0,0,1,.488-1.837,20.576,20.576,0,0,0-.185,6,4.766,4.766,0,0,0,.1.871,7.172,7.172,0,0,0,.3.75c.162.386.336.767.519,1.143a32.519,32.519,0,0,0,1.581,2.853c2.421,3.9,5.752,7.708,10.083,9.5a12.621,12.621,0,0,0,4.829.963,12.389,12.389,0,0,0,2.334-.22,10.757,10.757,0,0,0,5.916-3.248C2048.9,2822.689,2050.3,2817.64,2051,2812.953Z" fill="url(#linear-gradient-9)"/>
            </g>
            <path id="Path_19672" data-name="Path 19672" d="M2036.739,2786.157c2.588-1.064,5.679.052,7.679,1.853A13.463,13.463,0,0,1,2047.9,2793c.795,2.295.865,2.343-.524.287-2.5-3.589-5.905-7.229-10.632-7.129Z" fill="#fff"/>
            <path id="Path_19673" data-name="Path 19673" d="M2036.339,2828.373c4.727.1,8.127-3.539,10.631-7.128,1.366-2.018,1.337-2.05.525.287a13.484,13.484,0,0,1-3.478,4.989c-2,1.8-5.092,2.917-7.678,1.852Z" fill="#fff"/>
            <path id="Path_19674" data-name="Path 19674" d="M2013.977,2792.013a5.6,5.6,0,0,1,1.311-3.094c2.4-2.9,6.8-2.04,9.393.108-1.071-.29-2.1-.6-3.137-.77-3.449-.661-5.944.653-7.567,3.756Z" fill="#fff"/>
            <path id="Path_19675" data-name="Path 19675" d="M2019.5,2827.349a3.15,3.15,0,0,1-1.039-1.649,12.041,12.041,0,0,1-.135-2.759c.028-.913.094-1.823.2-2.729l.122,0,.643,3.546a8,8,0,0,1,.308,3.529l-.1.065Z" fill="#fff"/>
          </g>
        </g>
      </g>
      <g id="Group_8409" data-name="Group 8409">
        <path id="Path_19677" data-name="Path 19677" d="M1938.717,2819.476a33.623,33.623,0,0,0-1.934-7.617l-.02-.053q-.046-.129-.1-.276h0v0h0l-.493-1.311a3.9,3.9,0,0,0-.242-.551,50.806,50.806,0,0,0-3.273-6.571,33.2,33.2,0,0,0-6.294-7.933,14.367,14.367,0,0,0-4.6-2.918,6.732,6.732,0,0,0-2.232-.407,4.845,4.845,0,0,0-2.1.454,5.736,5.736,0,0,0-2.6,2.5c-2.724,2.152-2.73,6.325-2.732,8.448,0,1.6.092,3.2.183,4.745.112,1.9.227,3.854.16,5.758a13.314,13.314,0,0,1-1.387,6.081,4.712,4.712,0,0,1-1.478.8,3.179,3.179,0,0,1-.958.151,2.317,2.317,0,0,1-1.884-.875,5.294,5.294,0,0,1-.624-3.855c.209-1.772.523-3.517.8-4.989.183-.967.382-1.95.574-2.9.512-2.536,1.042-5.159,1.354-7.806a38.484,38.484,0,0,0,.31-5.519,15.327,15.327,0,0,0-.776-4.825,5.009,5.009,0,0,0-1.637-2.424,7.513,7.513,0,0,0-4.656-1.263c-.14,0-.277,0-.413,0a19.473,19.473,0,0,0-10.081,3.4,18.015,18.015,0,0,0-4.7,4.456,13.941,13.941,0,0,0-3.28,5.22,16.431,16.431,0,0,0-.586,7.163,32.638,32.638,0,0,0,3.021,10.048,44.054,44.054,0,0,0,5.314,8.583,33.176,33.176,0,0,0,3.48,3.793,16.54,16.54,0,0,0,4.023,2.879,10.031,10.031,0,0,0,4.417.867c.156,0,.312,0,.467-.006a33.092,33.092,0,0,0,17.713-6.214c.185-.14.366-.282.545-.43a12.261,12.261,0,0,0,1.221,2.376,6.687,6.687,0,0,0,5.866,3.1c.108,0,.215,0,.323-.006a14.726,14.726,0,0,0,3.584-.628,5.44,5.44,0,0,0,3.106-2.275c.1-.161.2-.326.288-.493a5.4,5.4,0,0,0,1.233-1.332C1939.114,2824.537,1938.962,2821.535,1938.717,2819.476Z"/>
        <g id="Group_8408" data-name="Group 8408" clip-path="url(#clip-path-4)">
          <g id="Group_8407" data-name="Group 8407">
            <g id="Group_8406" data-name="Group 8406">
              <path id="Path_19678" data-name="Path 19678" d="M1934.887,2810.273s.249.665.474,1.263c.054.14.107.28.16.421C1935.051,2810.706,1934.887,2810.273,1934.887,2810.273Z" fill="url(#linear-gradient-10)"/>
              <path id="Path_19679" data-name="Path 19679" d="M1935.711,2812.465s-.053-.145-.19-.508q.06.16.119.321Z" fill="url(#linear-gradient-11)"/>
              <path id="Path_19680" data-name="Path 19680" d="M1925.752,2825.953a5.478,5.478,0,0,0,4.86,2.564c.093,0,.186,0,.278-.005a13.659,13.659,0,0,0,3.292-.581,4.235,4.235,0,0,0,2.422-1.77c1.219-1.87,1.157-4.414.905-6.541a32.517,32.517,0,0,0-1.869-7.342c-.065-.174-.169-.45-.279-.742a50.822,50.822,0,0,0-3.754-7.817,32.346,32.346,0,0,0-6.057-7.648,13.008,13.008,0,0,0-4.194-2.679,5.528,5.528,0,0,0-1.827-.338,3.635,3.635,0,0,0-1.574.337c-2.932,1.392-3.116,5.2-3.119,8.023,0,3.518.467,7.023.342,10.544-.1,2.732-.545,5.581-2.3,7.765a6.3,6.3,0,0,1-2.929,2.062,4.41,4.41,0,0,1-1.326.208,3.5,3.5,0,0,1-2.856-1.359,6.568,6.568,0,0,1-.861-4.731c.2-1.7.5-3.392.815-5.073.671-3.539,1.492-7.039,1.915-10.622a37.629,37.629,0,0,0,.3-5.346,14.289,14.289,0,0,0-.706-4.447,3.9,3.9,0,0,0-1.223-1.862,6.512,6.512,0,0,0-3.923-1.017c-.129,0-.257,0-.383.005a18.36,18.36,0,0,0-9.437,3.2,14.672,14.672,0,0,0-5.976,7.22,15.379,15.379,0,0,0-.532,6.641,31.4,31.4,0,0,0,2.914,9.671,42.938,42.938,0,0,0,5.167,8.345,31.949,31.949,0,0,0,3.352,3.654,15.576,15.576,0,0,0,3.725,2.676,8.96,8.96,0,0,0,3.889.746c.145,0,.29,0,.435-.005a31.9,31.9,0,0,0,17.011-5.969c.289-.218.566-.443.838-.681a2.97,2.97,0,0,0,.378-.329c.1-.131.1-.12.076-.318a9.938,9.938,0,0,1-.085-1.767C1924.221,2822.406,1924.647,2824.326,1925.752,2825.953Z" fill="url(#linear-gradient-12)"/>
            </g>
            <path id="Path_19681" data-name="Path 19681" d="M1930.3,2826.758c3.352-.77,5.7-1.805,5.813-5.583a15.431,15.431,0,0,0-.233-3.166l.118-.03a14,14,0,0,1,.724,3.182c.267,2.217-.7,5.038-3.043,5.787a4.981,4.981,0,0,1-3.393-.07l.014-.12Z" fill="#fff"/>
            <path id="Path_19682" data-name="Path 19682" d="M1898.523,2789.911c2.856-2.352,6.723-1.814,7.677,2.1a9.724,9.724,0,0,1,.043,4.169c-.228-1.085-.409-2.147-.706-3.151-1.042-3.849-3.5-4.212-7.014-3.118Z" fill="#fff"/>
            <path id="Path_19683" data-name="Path 19683" d="M1919.686,2794.492a2.9,2.9,0,0,1,2.623.149,8.3,8.3,0,0,1,2.032,1.68,6.331,6.331,0,0,1,.9,1.453l-.1.066a7.638,7.638,0,0,0-2.577-1.851,8.319,8.319,0,0,1-2.886-1.376l.008-.121Z" fill="#fff"/>
          </g>
        </g>
      </g>
      <g id="Group_8413" data-name="Group 8413">
        <path id="Path_19685" data-name="Path 19685" d="M1896.527,2810.332a6.856,6.856,0,0,0-2.1-2.6l-.011-.009-.012-.008-.015-.012-.088-.068h0l-.005,0v0a5.505,5.505,0,0,0-.834-.574,16.934,16.934,0,0,0-5.323-2.088,21.281,21.281,0,0,0-3.568-.459c-.374-.02-.712-.03-1.033-.03a10.856,10.856,0,0,0-2.473.256,9.255,9.255,0,0,0-5.476,4.046l-.021.03a12.3,12.3,0,0,0-1.5,1.795c-.257.372-.5.749-.74,1.114-.289.443-.567.862-.858,1.27a18.812,18.812,0,0,1,.015-3.736,66.182,66.182,0,0,1,2.6-11.951l.143-.5q.188-.663.381-1.326a50.05,50.05,0,0,0,1.4-5.646l0-.025a6.28,6.28,0,0,0,.07-2.486,3.7,3.7,0,0,0-2.6-2.5,11.207,11.207,0,0,0-3.874-.627,19.713,19.713,0,0,0-3.633.368,15.553,15.553,0,0,0-6.094,2.332,5.178,5.178,0,0,0-1.564,1.86,6.123,6.123,0,0,0-1.974,2.824,16.7,16.7,0,0,0-.9,3.592,39.363,39.363,0,0,0-.333,7.287,69.108,69.108,0,0,0,2.062,14.591c1.043,4.138,2.6,8.8,6.254,12.028a14.487,14.487,0,0,0,5.979,3.133,16.576,16.576,0,0,0,4.1.534,13.389,13.389,0,0,0,3.062-.343c3.928-.923,7.87-3.405,11.715-7.377a34.485,34.485,0,0,0,2.518-2.9,29.481,29.481,0,0,0,3.31-4.428C1896.436,2815.478,1897.641,2812.877,1896.527,2810.332Z"/>
        <g id="Group_8412" data-name="Group 8412" clip-path="url(#clip-path-5)">
          <g id="Group_8411" data-name="Group 8411">
            <g id="Group_8410" data-name="Group 8410">
              <path id="Path_19686" data-name="Path 19686" d="M1893.716,2808.724s-.044-.035-.157-.121l.11.085Z" fill="url(#linear-gradient-13)"/>
              <path id="Path_19687" data-name="Path 19687" d="M1893.022,2808.2l.38.288.157.116Z" fill="url(#linear-gradient-14)"/>
              <path id="Path_19688" data-name="Path 19688" d="M1889.929,2822.344a29.483,29.483,0,0,0,4.138-5.284c1.08-1.8,2.265-4.138,1.345-6.239a5.709,5.709,0,0,0-1.743-2.133l-.267-.2a15,15,0,0,0-5.534-2.33,20.278,20.278,0,0,0-3.367-.432c-.322-.017-.645-.028-.968-.028a9.719,9.719,0,0,0-2.2.224,8.165,8.165,0,0,0-4.75,3.553c-.6.867-1.139,1.77-1.765,2.621s-1.283,1.65-1.96,2.446a29.474,29.474,0,0,1-3.813,3.923q.506-.75,1.011-1.5.387-.576.771-1.152c.152-.225.3-.451.452-.678a1.764,1.764,0,0,0,.225-.341.485.485,0,0,0-.022-.289,17.279,17.279,0,0,1-.217-5.356,69.78,69.78,0,0,1,2.785-12.679,65.066,65.066,0,0,0,1.754-6.842,5.414,5.414,0,0,0,.091-2.022,2.644,2.644,0,0,0-1.835-1.648,9.971,9.971,0,0,0-3.452-.552,18.755,18.755,0,0,0-3.41.348,14.483,14.483,0,0,0-5.618,2.131,4.892,4.892,0,0,0-1.581,2.3,15.667,15.667,0,0,0-.83,3.333,38.722,38.722,0,0,0-.321,7.065,68.005,68.005,0,0,0,2.027,14.333c1.056,4.19,2.548,8.472,5.879,11.413a13.191,13.191,0,0,0,5.475,2.866,15.379,15.379,0,0,0,3.8.5,12.159,12.159,0,0,0,2.784-.311C1883.109,2828.373,1886.911,2825.461,1889.929,2822.344Z" fill="url(#linear-gradient-15)"/>
            </g>
            <path id="Path_19689" data-name="Path 19689" d="M1869.59,2786.457c1.576-.373,3.78-.37,4.943,1.006a1.875,1.875,0,0,1,.376,1.007,8.654,8.654,0,0,1-.687,4.1c-.364,1-.726,2-1.109,2.993l-.117-.033c.19-1.047.424-2.086.626-3.126.262-1.391.617-2.711.09-3.985a2.654,2.654,0,0,0-1.192-.825c-.883-.387-1.9-.655-2.932-1.012l0-.121Z" fill="#fff"/>
            <path id="Path_19690" data-name="Path 19690" d="M1893,2809.513a5.32,5.32,0,0,1,1.051,3.921,8.2,8.2,0,0,1-.681,2.677,7.35,7.35,0,0,1-.629,1.215,23.507,23.507,0,0,1-4.334,5.071c-.275.263-.691.645-.993.873-.606.463-1.453,1.2-2.081,1.617q-1.078.756-2.162,1.5l-.071-.1c1.312-1.108,2.688-2.245,3.905-3.464a12.439,12.439,0,0,0,.912-.922,27.793,27.793,0,0,0,2.483-2.96c.128-.2.748-1.163.86-1.341.208-.407.5-1,.709-1.406l.235-.575a12.869,12.869,0,0,0,.859-2.631c.028-.292.088-.622.113-.915a6.351,6.351,0,0,0-.276-2.487l.1-.069Z" fill="#fff"/>
          </g>
        </g>
      </g>
      <g id="Group_8417" data-name="Group 8417">
        <path id="Path_19692" data-name="Path 19692" d="M1968.3,2786.709a6.176,6.176,0,0,0-1.435-1.584,3.2,3.2,0,0,0-.465-.331,2.716,2.716,0,0,0-.574-.308,6.619,6.619,0,0,0-2.893-.61,9.016,9.016,0,0,0-.986.055,15.079,15.079,0,0,0-1.7.317c-.3.068-.581.133-.862.185a44.62,44.62,0,0,1-7.506.684c-.394.006-.79.01-1.184.01-2.193,0-4.518-.093-7.32-.292-1.764-.126-3.561-.309-5.3-.487-1.1-.112-2.23-.228-3.351-.329-.552-.05-1.106-.075-1.645-.075a13.85,13.85,0,0,0-7.042,1.754,12.341,12.341,0,0,0-3.933,3.689,13.689,13.689,0,0,0-3.059,4.728,17.474,17.474,0,0,0-1.066,4.32,11.35,11.35,0,0,0,.231,4.644,4.772,4.772,0,0,0,2.852,3.227,5.17,5.17,0,0,0,1.8.309,7.474,7.474,0,0,0,2.929-.651,10.468,10.468,0,0,0,1.954-1.107c.319-.227.61-.466.892-.7.249-.2.484-.4.724-.571a11.026,11.026,0,0,1,3.079-1.573,12.148,12.148,0,0,1,3.687-.606c.115,0,.229,0,.341.006l.013.048c1.488,5.669-.455,11.524-2.334,17.186q-.324.975-.638,1.935l-.062.192a7.092,7.092,0,0,0-.492,2.8,5.3,5.3,0,0,0,1.268,2.964,12.369,12.369,0,0,0,4.638,3.228,36.028,36.028,0,0,0,11.233,2.762,34.594,34.594,0,0,0,3.5.2c.6,0,1.175-.023,1.718-.068a3.049,3.049,0,0,0,2.674-2.144c1.836-.941,1.98-3.636,2.039-4.757a30.323,30.323,0,0,0-.386-5.9c-.261-1.808-.63-3.731-1.128-5.879-.461-1.991-.968-3.944-1.505-5.8-.127-.436-.263-.876-.4-1.3a20.98,20.98,0,0,1-.964-3.99c-.013-.128-.02-.248-.025-.363l.149-.006h.066a11.006,11.006,0,0,1,1.483.142l.466.063a22.867,22.867,0,0,0,2.885.222,10.66,10.66,0,0,0,2.46-.263,5.739,5.739,0,0,0,3.86-2.93,5.985,5.985,0,0,0,1.809-2.422,13.077,13.077,0,0,0,.881-4.829A10.217,10.217,0,0,0,1968.3,2786.709Z"/>
        <g id="Group_8416" data-name="Group 8416" clip-path="url(#clip-path-6)">
          <g id="Group_8415" data-name="Group 8415">
            <g id="Group_8414" data-name="Group 8414">
              <path id="Path_19693" data-name="Path 19693" d="M1965.471,2785.65s.071.049.281.183.285.173.288.173S1965.479,2785.65,1965.471,2785.65Z" fill="url(#linear-gradient-16)"/>
              <path id="Path_19694" data-name="Path 19694" d="M1967.684,2796.867a12.1,12.1,0,0,0,.786-4.382,9.126,9.126,0,0,0-1.192-5.119,4.822,4.822,0,0,0-1.526-1.533,5.187,5.187,0,0,0-2.816-.74,7.777,7.777,0,0,0-.852.048c-.835.092-1.644.334-2.468.489a46,46,0,0,1-7.71.7q-.6.009-1.2.01c-2.471,0-4.942-.12-7.406-.295-2.9-.207-5.78-.557-8.673-.818-.509-.045-1.023-.07-1.536-.07a12.768,12.768,0,0,0-6.432,1.59,11.747,11.747,0,0,0-4.946,5.98,16.275,16.275,0,0,0-.991,4.018,10.153,10.153,0,0,0,.185,4.148,3.6,3.6,0,0,0,2.11,2.441,3.94,3.94,0,0,0,1.374.235,6.348,6.348,0,0,0,2.45-.554,9.212,9.212,0,0,0,1.725-.978c.556-.4,1.056-.863,1.609-1.263a12.34,12.34,0,0,1,3.418-1.746,13.349,13.349,0,0,1,4.062-.665,9.5,9.5,0,0,1,3.385.584,5,5,0,0,1,1.025.5c-.959-.051-1.918-.1-2.879-.123,1.758,6.7-.948,13.5-2.99,19.806a6.567,6.567,0,0,0-.5,2.526,4.158,4.158,0,0,0,1,2.287,11.2,11.2,0,0,0,4.193,2.886,35.376,35.376,0,0,0,10.857,2.663c1.117.112,2.251.2,3.381.2.541,0,1.08-.019,1.617-.064,1.809-.151,2-2.523,2.078-3.926a29.145,29.145,0,0,0-.375-5.657c-.281-1.942-.666-3.867-1.109-5.778s-.941-3.842-1.49-5.741a32.05,32.05,0,0,1-1.4-5.506,3.576,3.576,0,0,1,.51-2.551,2.863,2.863,0,0,1,2.329-.985h.084a16.71,16.71,0,0,1,2.1.214,21.531,21.531,0,0,0,2.73.212,9.562,9.562,0,0,0,2.182-.23A4.591,4.591,0,0,0,1967.684,2796.867Z" fill="url(#linear-gradient-7)"/>
            </g>
            <path id="Path_19695" data-name="Path 19695" d="M1952.194,2827.71c3.164.173,5.1.2,5.05-3.622a18.649,18.649,0,0,0-.244-2.8l.118-.03a15.672,15.672,0,0,1,.733,2.783c.413,2.084-.317,4.873-2.881,4.866a4.339,4.339,0,0,1-2.826-1.088l.05-.111Z" fill="#fff"/>
            <path id="Path_19696" data-name="Path 19696" d="M1959.578,2787.362c2.855-2.351,6.722-1.814,7.677,2.1a9.736,9.736,0,0,1,.043,4.168c-.228-1.085-.409-2.147-.706-3.151-1.042-3.849-3.5-4.211-7.014-3.118Z" fill="#fff"/>
          </g>
        </g>
      </g>
      <g id="Group_8421" data-name="Group 8421">
        <path id="Path_19698" data-name="Path 19698" d="M1864.328,2805.476c-.117-.7-.263-1.411-.434-2.115l0-.015,0-.014-.011-.042c-.022-.1-.048-.2-.075-.3h-.005l0-.007h.005c-.134-.509-.224-.852-.28-1.067a3.06,3.06,0,0,0-.162-.485c-1.854-6.013-4.9-10.345-9.069-12.883a20.372,20.372,0,0,0-9.331-2.744c-.685-.046-1.408-.069-2.21-.069-.906,0-1.8.029-2.558.058-.452.017-.918.024-1.369.031-.334,0-.668.01-1,.019a6.84,6.84,0,0,0-2.394.443,4.149,4.149,0,0,0-2.3,2.237,4.448,4.448,0,0,0-1.925,3.71,17.524,17.524,0,0,0-4.253,4.156,20.9,20.9,0,0,0-5.159,10.251,31.838,31.838,0,0,0-.468,9.765,21.631,21.631,0,0,0,2.251,8.327,13.874,13.874,0,0,0,7.054,6.173,27.876,27.876,0,0,0,9.768,1.8c.707.024,1.333.036,1.915.036a21.705,21.705,0,0,0,8.016-1.25,19.659,19.659,0,0,0,7.7-5.425c.354-.4.684-.826,1-1.257q.264-.279.519-.568C1863.77,2819.409,1865.515,2812.572,1864.328,2805.476Zm-29.9,10.429c.136-.17.262-.337.388-.5.059-.063.118-.126.174-.189.316-.353.639-.734.959-1.133a16.823,16.823,0,0,0,1.457-2.1,6.687,6.687,0,0,1,.953,3.94h0v.007h0a5.989,5.989,0,0,1-.455,1.918,3.407,3.407,0,0,1-1.757.511,3.028,3.028,0,0,1-.743-.092,2.1,2.1,0,0,1-1.334-.883,1.107,1.107,0,0,1-.028-1C1834.168,2816.219,1834.3,2816.065,1834.425,2815.905Z"/>
        <g id="Group_8420" data-name="Group 8420" clip-path="url(#clip-path-7)">
          <g id="Group_8419" data-name="Group 8419">
            <g id="Group_8418" data-name="Group 8418">
              <path id="Path_19699" data-name="Path 19699" d="M1851.408,2828.524a18.47,18.47,0,0,0,7.218-5.09c4.249-4.851,5.548-11.5,4.5-17.757q-.171-1.021-.416-2.029c-.037-.137-.143-.54-.242-.922-1.445-5.18-4.1-10.27-8.816-13.144a19.237,19.237,0,0,0-8.779-2.569c-.709-.047-1.418-.066-2.128-.066-.838,0-1.676.026-2.513.057-.8.03-1.589.029-2.384.051a5.691,5.691,0,0,0-1.972.356,3.264,3.264,0,0,0-1.94,3.406,21.45,21.45,0,0,1,.176,3.518q-.282-1.044-.615-2.075c-4.927,2.561-7.885,7.476-9,12.8a30.708,30.708,0,0,0-.449,9.392,20.908,20.908,0,0,0,2.108,7.867,12.723,12.723,0,0,0,6.448,5.63,27.023,27.023,0,0,0,9.348,1.71c.623.021,1.249.035,1.873.035A20.971,20.971,0,0,0,1851.408,2828.524Zm-10.3-14.512-.018.225,0-.051a6.45,6.45,0,0,1-1.486,3.807,4.7,4.7,0,0,1-3.461,1.574,4.222,4.222,0,0,1-1.043-.13,3.3,3.3,0,0,1-2.091-1.458,2.354,2.354,0,0,1,.151-2.522,11.531,11.531,0,0,1,.919-1.056c.316-.353.621-.716.918-1.084a15.1,15.1,0,0,0,1.6-2.4,10.015,10.015,0,0,0,.989-2.813.542.542,0,0,0,.012-.3,1.635,1.635,0,0,0-.207-.314c-.125-.185-.253-.367-.389-.543-.262-.339-.537-.664-.816-.989a7.116,7.116,0,0,1,1.677,1.128,9.952,9.952,0,0,1,1.719,1.855,7.986,7.986,0,0,1,1.5,5.248C1841.1,2814.057,1841.1,2814.012,1841.1,2814.012Z" fill="url(#linear-gradient-18)"/>
              <path id="Path_19700" data-name="Path 19700" d="M1862.725,2803.7s-.028-.117-.1-.41c.031.12.061.24.091.361Z" fill="url(#linear-gradient-19)"/>
              <path id="Path_19701" data-name="Path 19701" d="M1862.261,2801.918s.1.392.209.808q.078.281.151.561C1862.355,2802.27,1862.262,2801.918,1862.261,2801.918Z" fill="url(#linear-gradient-20)"/>
            </g>
            <path id="Path_19702" data-name="Path 19702" d="M1844.171,2788.25c6.837-.639,13.608,4.38,15.291,10.979a21.991,21.991,0,0,0-15.291-10.979Z" fill="#fff"/>
            <path id="Path_19703" data-name="Path 19703" d="M1859.772,2815.019c-.624,6.838-6.8,12.575-13.593,13.023a33.127,33.127,0,0,0,4.443-2.1,21.649,21.649,0,0,0,9.15-10.926Z" fill="#fff"/>
            <path id="Path_19704" data-name="Path 19704" d="M1835.9,2807.182a2.9,2.9,0,0,1-.091,2.626,8.323,8.323,0,0,1-1.633,2.069,6.343,6.343,0,0,1-1.433.935l-.068-.1a7.635,7.635,0,0,0,1.793-2.618,8.307,8.307,0,0,1,1.31-2.915l.122,0Z" fill="#fff"/>
          </g>
        </g>
      </g>
      <g id="Group_8425" data-name="Group 8425">
        <path id="Path_19706" data-name="Path 19706" d="M2015.96,2805.476c-.117-.7-.263-1.411-.434-2.115l0-.015,0-.014-.011-.042c-.022-.1-.048-.2-.076-.3h-.005v-.007h0c-.133-.509-.223-.852-.28-1.067a2.963,2.963,0,0,0-.162-.485c-1.854-6.013-4.9-10.345-9.069-12.883a20.368,20.368,0,0,0-9.33-2.744c-.685-.046-1.408-.069-2.21-.069-.906,0-1.8.029-2.559.058-.451.017-.918.024-1.368.031-.334,0-.668.01-1,.019a6.839,6.839,0,0,0-2.394.443,4.149,4.149,0,0,0-2.3,2.237,4.449,4.449,0,0,0-1.925,3.71,17.5,17.5,0,0,0-4.253,4.156,20.9,20.9,0,0,0-5.159,10.251,31.872,31.872,0,0,0-.469,9.765,21.647,21.647,0,0,0,2.252,8.327,13.866,13.866,0,0,0,7.054,6.173,27.867,27.867,0,0,0,9.768,1.8c.707.024,1.333.036,1.914.036a21.707,21.707,0,0,0,8.017-1.25,19.659,19.659,0,0,0,7.7-5.425c.354-.4.684-.826,1-1.257.175-.186.349-.375.519-.568C2015.4,2819.409,2017.146,2812.572,2015.96,2805.476Zm-29.9,10.429c.136-.17.262-.337.388-.5.058-.063.117-.126.174-.189.316-.353.638-.734.959-1.133a16.825,16.825,0,0,0,1.457-2.1,6.688,6.688,0,0,1,.953,3.94h0v.007h0a5.989,5.989,0,0,1-.455,1.918,3.407,3.407,0,0,1-1.757.511,3.017,3.017,0,0,1-.743-.092,2.1,2.1,0,0,1-1.334-.883,1.1,1.1,0,0,1-.028-1C1985.8,2816.219,1985.928,2816.065,1986.057,2815.905Z"/>
        <g id="Group_8424" data-name="Group 8424" clip-path="url(#clip-path-8)">
          <g id="Group_8423" data-name="Group 8423">
            <g id="Group_8422" data-name="Group 8422">
              <path id="Path_19707" data-name="Path 19707" d="M2003.04,2828.524a18.478,18.478,0,0,0,7.218-5.09c4.249-4.851,5.547-11.5,4.5-17.757q-.171-1.021-.417-2.029c-.036-.137-.142-.54-.241-.922-1.445-5.18-4.1-10.27-8.816-13.144a19.24,19.24,0,0,0-8.779-2.569c-.709-.047-1.419-.066-2.128-.066-.838,0-1.676.026-2.513.057-.795.03-1.589.029-2.384.051a5.7,5.7,0,0,0-1.973.356,3.265,3.265,0,0,0-1.94,3.406,21.546,21.546,0,0,1,.177,3.518q-.282-1.044-.615-2.075c-4.928,2.561-7.885,7.476-9,12.8a30.712,30.712,0,0,0-.449,9.392,20.888,20.888,0,0,0,2.108,7.867,12.724,12.724,0,0,0,6.447,5.63,27.028,27.028,0,0,0,9.349,1.71c.623.021,1.248.035,1.873.035A20.975,20.975,0,0,0,2003.04,2828.524Zm-10.3-14.512-.018.225,0-.051a6.458,6.458,0,0,1-1.486,3.807,4.7,4.7,0,0,1-3.461,1.574,4.233,4.233,0,0,1-1.044-.13,3.3,3.3,0,0,1-2.09-1.458,2.354,2.354,0,0,1,.151-2.522,11.532,11.532,0,0,1,.919-1.056c.315-.353.621-.716.917-1.084a14.965,14.965,0,0,0,1.6-2.4,10.018,10.018,0,0,0,.99-2.813.56.56,0,0,0,.012-.3,1.64,1.64,0,0,0-.207-.314c-.125-.185-.254-.367-.39-.543-.261-.339-.537-.664-.815-.989a7.136,7.136,0,0,1,1.677,1.128,9.943,9.943,0,0,1,1.718,1.855,7.982,7.982,0,0,1,1.5,5.248C1992.733,2814.057,1992.737,2814.012,1992.737,2814.012Z" fill="url(#linear-gradient-18)"/>
              <path id="Path_19708" data-name="Path 19708" d="M2014.357,2803.7s-.029-.117-.1-.41q.047.18.09.361Z" fill="url(#linear-gradient-22)"/>
              <path id="Path_19709" data-name="Path 19709" d="M2013.893,2801.918s.1.392.209.808c.052.187.1.374.151.561C2013.987,2802.27,2013.894,2801.918,2013.893,2801.918Z" fill="url(#linear-gradient-23)"/>
            </g>
            <path id="Path_19710" data-name="Path 19710" d="M1995.8,2788.25c6.837-.639,13.607,4.38,15.291,10.979a21.99,21.99,0,0,0-15.291-10.979Z" fill="#fff"/>
            <path id="Path_19711" data-name="Path 19711" d="M2011.4,2815.019c-.624,6.838-6.8,12.575-13.594,13.023a33.09,33.09,0,0,0,4.444-2.1,21.65,21.65,0,0,0,9.15-10.926Z" fill="#fff"/>
            <path id="Path_19712" data-name="Path 19712" d="M1987.536,2807.182a2.907,2.907,0,0,1-.091,2.626,8.318,8.318,0,0,1-1.633,2.069,6.364,6.364,0,0,1-1.433.935l-.068-.1a7.634,7.634,0,0,0,1.793-2.618,8.309,8.309,0,0,1,1.31-2.915l.122,0Z" fill="#fff"/>
          </g>
        </g>
      </g>
      <g id="Group_8430" data-name="Group 8430">
        <path id="Path_19714" data-name="Path 19714" d="M1986.666,2788.983a10.422,10.422,0,0,0-4.924-4.882l-.087-.066-.15-.047a23.224,23.224,0,0,0-9.232-2.173h-.125a13.375,13.375,0,0,0-5.481,1.063,9.29,9.29,0,0,0-3.979,3.474,10.276,10.276,0,0,0-1.707,2.1c-1.742,2.824-2.649,7.044.029,10.416a11.6,11.6,0,0,0,4.517,3.293,20.207,20.207,0,0,0,5.358,1.539,15.06,15.06,0,0,0,2.141.158,12.783,12.783,0,0,0,1.793-.124l.095.082a4.3,4.3,0,0,0,1.208.74,7.888,7.888,0,0,1-4.215,1.057h-.069c-.179,0-.364-.009-.559-.017-.227-.01-.462-.02-.705-.02a5.559,5.559,0,0,0-1.259.127,3.512,3.512,0,0,0-2.474,2.009c-.038.079-.072.158-.107.237a3.611,3.611,0,0,0-1.415,1.589,12.994,12.994,0,0,0-.841,2.631l-.064.262c-.27,1.107-.508,2.012-.748,2.849a52.357,52.357,0,0,0-1.34,5.979,27.95,27.95,0,0,0-.471,6.4l.007.1a4.486,4.486,0,0,0,.923,2.872,3.938,3.938,0,0,0,1.51.878l.015.006a20.114,20.114,0,0,0,6.186,1.192c.317.013.612.02.9.02a13.54,13.54,0,0,0,2.361-.189l.064-.011a2.773,2.773,0,0,0,2.346-1.5c.079-.194.149-.391.215-.589a2.221,2.221,0,0,0,1.306-1.236,15,15,0,0,0,.732-2.6c.209-.992.385-2.015.538-3.13.274-2,.455-4.045.536-6.089.012-.284.02-.583.027-.925,0-.043.005-.088.006-.134l0-.369c0-.263,0-.4,0-.456a51.339,51.339,0,0,0-.205-5.427,13.763,13.763,0,0,0-1.446-5.079l-.07-.132a8.176,8.176,0,0,0,4.9-2.288,11.439,11.439,0,0,0,1.883-2.168,10.134,10.134,0,0,0,1.861-2.391,9.883,9.883,0,0,0,1.146-4.05A10.262,10.262,0,0,0,1986.666,2788.983Z"/>
        <g id="Group_8429" data-name="Group 8429" clip-path="url(#clip-path-9)">
          <g id="Group_8428" data-name="Group 8428">
            <g id="Group_8426" data-name="Group 8426">
              <path id="Path_19715" data-name="Path 19715" d="M1985.56,2789.492c.212.452-.205-.455,0,0Z" fill="#5b2743"/>
              <path id="Path_19716" data-name="Path 19716" d="M1985.5,2789.36l.12.262-.12-.262m.12.262h0"/>
            </g>
            <g id="Group_8427" data-name="Group 8427">
              <path id="Path_19717" data-name="Path 19717" d="M1978.115,2810.206a12.547,12.547,0,0,0-1.312-4.637,9.072,9.072,0,0,1-4.9,1.265h-.077c-.418,0-.838-.037-1.256-.037a4.436,4.436,0,0,0-.987.1,2.316,2.316,0,0,0-1.649,1.35,13.544,13.544,0,0,0-.82,2.654c-.237.972-.485,1.936-.761,2.9a50.935,50.935,0,0,0-1.309,5.84,26.808,26.808,0,0,0-.457,6.12,3.734,3.734,0,0,0,.6,2.219,2.989,2.989,0,0,0,1.078.588,18.823,18.823,0,0,0,5.806,1.113c.281.012.564.019.847.019a12.354,12.354,0,0,0,2.149-.17c.562-.1,1.258-.2,1.495-.777a13.907,13.907,0,0,0,.667-2.389c.213-1.007.384-2.023.524-3.043.271-1.979.446-3.977.525-5.972.016-.4.025-.806.031-1.209,0,.162,0,.29,0,.29s0-.127.005-.473c0-.251,0-.385,0-.441A49.9,49.9,0,0,0,1978.115,2810.206Z" fill="url(#linear-gradient-24)"/>
              <path id="Path_19718" data-name="Path 19718" d="M1985.56,2789.492a9.3,9.3,0,0,0-4.468-4.357l0,0a22.077,22.077,0,0,0-8.83-2.1h-.116a12.242,12.242,0,0,0-4.984.957,8.2,8.2,0,0,0-3.626,3.281c-1.7,2.751-2.176,6.348-.054,9.021a10.513,10.513,0,0,0,4.059,2.937,19.137,19.137,0,0,0,5.037,1.447,13.9,13.9,0,0,0,1.967.145,10.51,10.51,0,0,0,3.4-.532,6.99,6.99,0,0,0,3.468-2.367,7.4,7.4,0,0,1-4.177,3.156,2.988,2.988,0,0,0,2.015.753,6.767,6.767,0,0,0,4.159-1.972,9.438,9.438,0,0,0,1.975-2.416,8.608,8.608,0,0,0,1-3.548A9.041,9.041,0,0,0,1985.56,2789.492Z" fill="url(#linear-gradient-25)"/>
              <path id="Path_19719" data-name="Path 19719" d="M1977.261,2782.5l-.741-.378.321.268C1976.981,2782.423,1977.121,2782.464,1977.261,2782.5Z" fill="url(#linear-gradient-26)"/>
            </g>
            <path id="Path_19720" data-name="Path 19720" d="M1971.141,2828.03a8.021,8.021,0,0,1,2.322-.285,4.694,4.694,0,0,0,1.445,0,.632.632,0,0,0,.25-.24,13.011,13.011,0,0,0,1-4.357l.122,0a17.534,17.534,0,0,1-.016,3.548c-.113.953-.48,1.935-1.572,2.146a3.974,3.974,0,0,1-3.571-.693l.024-.119Z" fill="#fff"/>
            <path id="Path_19721" data-name="Path 19721" d="M1976.273,2807.242a2.576,2.576,0,0,1,1.017,2.493,9.159,9.159,0,0,1-.272,2.686l-.122-.007a21.38,21.38,0,0,0-.568-2.532,3.253,3.253,0,0,1-.17-2.6l.115-.039Z" fill="#fff"/>
            <path id="Path_19722" data-name="Path 19722" d="M1980.737,2786.059c5.606,2.176,6.519,8.514,2.074,12.455,2.571-5.086,2.217-8.535-2.074-12.455Z" fill="#fff"/>
          </g>
        </g>
      </g>
      <g id="Group_8434" data-name="Group 8434">
        <path id="Path_19724" data-name="Path 19724" d="M1832.479,2807.754a13.376,13.376,0,0,0-.887-1.336,6.508,6.508,0,0,0-.434-.548c-.165-.2-.3-.352-.426-.475a15.38,15.38,0,0,0-9.316-4.479,13.78,13.78,0,0,0,1.787-2.037,13.507,13.507,0,0,0,4.058-10.317,9.227,9.227,0,0,0-1.708-4.974,7.706,7.706,0,0,0-4.671-2.875,9.148,9.148,0,0,0-1.72-.189,10.535,10.535,0,0,0-7.56,3.3,14.2,14.2,0,0,0-1.348,1.608c-.066.065-.135.128-.2.2a14.027,14.027,0,0,0-1.145,1.335c-.811-.078-1.605-.124-2.359-.136a22.584,22.584,0,0,0-3.594.222,12.08,12.08,0,0,0-6.43,2.694,8.728,8.728,0,0,0-1.489,1.754c-.019.017-.04.032-.059.049a10.236,10.236,0,0,0-3.117,6.218,10.866,10.866,0,0,0,1.331,7.028,11.536,11.536,0,0,0,5.1,4.459c.453.215.934.417,1.43.6.02.008.043.019.067.031a3.037,3.037,0,0,0,.447.18l-.044.067c-.041.037-.083.073-.123.111a8.93,8.93,0,0,0-2.566,4.21,10.315,10.315,0,0,0,.082,5.277,16.807,16.807,0,0,0,4.98,7.872,19.838,19.838,0,0,0,7.985,4.5,17.415,17.415,0,0,0,4.471.643,19.112,19.112,0,0,0,13.333-5.153,15.746,15.746,0,0,0,1.86-2.11,14.624,14.624,0,0,0,4.157-7.863A15.1,15.1,0,0,0,1832.479,2807.754Z"/>
        <g id="Group_8433" data-name="Group 8433" clip-path="url(#clip-path-10)">
          <g id="Group_8432" data-name="Group 8432">
            <g id="Group_8431" data-name="Group 8431">
              <path id="Path_19725" data-name="Path 19725" d="M1829.9,2806.024s.087.1.328.381.333.38.334.38Z" fill="url(#linear-gradient-27)"/>
              <path id="Path_19726" data-name="Path 19726" d="M1831.451,2808.1a11.783,11.783,0,0,0-1.228-1.691c-3-3.466-7.577-4.595-12.106-4.595a32.668,32.668,0,0,0-5.831.557c-1.65.3-3.262.777-4.919,1.045a12.679,12.679,0,0,1-2.02.2c-.107,0-.214,0-.32-.007a2.5,2.5,0,0,1-1.988-.8,1.983,1.983,0,0,1,.013-2.038,3,3,0,0,1,1.376-1.523,1.8,1.8,0,0,1,.733-.158c1.128,0,2.107,1.085,2.814,1.879.117.131.233.262.353.391.055.059.161.216.235.239a.128.128,0,0,0,.036,0,2.76,2.76,0,0,0,.489-.132c.215-.053.429-.107.642-.164.8-.209,1.6-.4,2.405-.559a34.337,34.337,0,0,1,4.824-.6q.6-.031,1.211-.038h.019c.2,0,.457.031.7.031a1.119,1.119,0,0,0,.541-.1,13.088,13.088,0,0,0,1.675-1.141,12.592,12.592,0,0,0,3.056-3.545,12.22,12.22,0,0,0,1.618-6.894,8.075,8.075,0,0,0-1.533-4.3,6.5,6.5,0,0,0-3.976-2.351,7.919,7.919,0,0,0-1.494-.142,9.27,9.27,0,0,0-6.629,3.032,16.689,16.689,0,0,0-4.007,8.419c-.1.542-.184,1.087-.26,1.634a18.024,18.024,0,0,1,.741-6.5c-.784-.066-1.573-.1-2.362-.1a21.2,21.2,0,0,0-3.4.259,10.957,10.957,0,0,0-5.759,2.482,9.024,9.024,0,0,0-2.643,5.525,9.649,9.649,0,0,0,1.268,6.22,10.345,10.345,0,0,0,4.628,3.907c.442.2.891.381,1.349.542a2.238,2.238,0,0,0,.557.2l.032,0c.08-.013.21-.144.281-.19.125-.082.251-.161.38-.236a9.736,9.736,0,0,1,2.971-1.117,11.675,11.675,0,0,1,2.35-.233,15.76,15.76,0,0,1,9.314,3.328c2.868,2.2,5.661,6.1,3.852,9.818a5.808,5.808,0,0,1-.472.793,7.906,7.906,0,0,0,.063-3.519,9.4,9.4,0,0,0-2.133-3.977,14.4,14.4,0,0,0-7.925-4.482,12.171,12.171,0,0,0-2.377-.241,8.668,8.668,0,0,0-6.114,2.265,7.73,7.73,0,0,0-2.166,3.667,9.086,9.086,0,0,0,.152,4.649,15.53,15.53,0,0,0,4.734,7.217,18.61,18.61,0,0,0,7.553,4.109,16.183,16.183,0,0,0,4.167.536,18.022,18.022,0,0,0,12.406-5,13.406,13.406,0,0,0,3.994-7.544A13.9,13.9,0,0,0,1831.451,2808.1Z" fill="url(#linear-gradient-28)"/>
            </g>
            <path id="Path_19727" data-name="Path 19727" d="M1814.538,2784.107c3.389-2.325,8.719-2.219,9.9,2.439a8.37,8.37,0,0,1,.064,3.83,17.5,17.5,0,0,0-.969-3.521c-1.493-3.848-5.6-3.444-8.993-2.748Z" fill="#fff"/>
            <path id="Path_19728" data-name="Path 19728" d="M1811.787,2809.3a2.907,2.907,0,0,1,2.624.149,8.334,8.334,0,0,1,2.032,1.679,6.376,6.376,0,0,1,.9,1.454l-.1.065a7.656,7.656,0,0,0-2.577-1.851,8.325,8.325,0,0,1-2.886-1.375l.008-.121Z" fill="#fff"/>
            <path id="Path_19729" data-name="Path 19729" d="M1821.524,2803.866c8.39-.831,13.031,9.252,9.743,16.188a10.452,10.452,0,0,1-5.145,5.178,12.187,12.187,0,0,0,4.268-5.543c2.484-6.648-1.282-15.225-8.866-15.823Z" fill="#fff"/>
          </g>
        </g>
      </g>
    </g>
  </g>
</svg>
