<svg xmlns="http://www.w3.org/2000/svg" xmlns:xlink="http://www.w3.org/1999/xlink" width="356.693" height="138.538" viewBox="0 0 356.693 138.538">
  <defs>
    <clipPath id="clip-path">
      <path id="Path_411" data-name="Path 411" d="M3976.679,7237.312a13.206,13.206,0,0,0-3.066-3.384,6.722,6.722,0,0,0-.993-.708,5.939,5.939,0,0,0-1.227-.658,14.132,14.132,0,0,0-6.18-1.3,19.387,19.387,0,0,0-2.1.118,31.822,31.822,0,0,0-3.624.678c-.638.145-1.241.283-1.841.4a95.447,95.447,0,0,1-16.034,1.46q-1.266.021-2.531.021c-4.683,0-9.652-.2-15.637-.624-3.769-.268-7.607-.66-11.319-1.039-2.343-.24-4.765-.487-7.159-.7-1.18-.106-2.363-.16-3.515-.16a29.608,29.608,0,0,0-15.043,3.746,26.369,26.369,0,0,0-8.4,7.881,29.25,29.25,0,0,0-6.534,10.1,37.229,37.229,0,0,0-2.277,9.228,24.2,24.2,0,0,0,.492,9.92,10.185,10.185,0,0,0,6.092,6.894,11.032,11.032,0,0,0,3.836.661,15.937,15.937,0,0,0,6.256-1.392,22.259,22.259,0,0,0,4.174-2.364c.681-.485,1.3-1,1.905-1.49.533-.436,1.036-.849,1.547-1.219a23.594,23.594,0,0,1,6.578-3.36,25.918,25.918,0,0,1,7.877-1.294q.368,0,.728.012l.027.1c3.18,12.112-.972,24.619-4.986,36.714-.461,1.388-.918,2.767-1.361,4.135l-.134.409a15.174,15.174,0,0,0-1.051,5.985,11.332,11.332,0,0,0,2.708,6.332c2.8,3.433,6.767,5.489,9.909,6.9,6.761,3.027,14.61,4.957,24,5.9a74.278,74.278,0,0,0,7.483.433c1.276,0,2.511-.049,3.67-.146a6.517,6.517,0,0,0,5.714-4.579c3.922-2.01,4.228-7.767,4.355-10.161a64.912,64.912,0,0,0-.824-12.594c-.558-3.862-1.346-7.97-2.41-12.559-.985-4.253-2.068-8.425-3.217-12.4-.269-.932-.56-1.872-.842-2.781a44.774,44.774,0,0,1-2.06-8.525c-.028-.273-.043-.528-.052-.775.108-.006.215-.011.317-.012h.142a23.653,23.653,0,0,1,3.166.3c.334.047.666.093,1,.135a49.12,49.12,0,0,0,6.163.474,22.776,22.776,0,0,0,5.255-.561,12.256,12.256,0,0,0,8.247-6.26,12.756,12.756,0,0,0,3.864-5.174,27.919,27.919,0,0,0,1.882-10.315C3979.737,7244.7,3978.743,7240.53,3976.679,7237.312Z" stroke="rgba(0,0,0,0)" stroke-width="1"/>
    </clipPath>
    <linearGradient id="linear-gradient" x1="0.5" y1="2.117" x2="0.5" y2="83.191" gradientUnits="objectBoundingBox">
      <stop offset="0" stop-color="#00ffd5"/>
      <stop offset="1" stop-color="#01cb2d"/>
    </linearGradient>
    <linearGradient id="linear-gradient-2" x1="0.5" y1="0.029" x2="0.5" y2="0.675" xlink:href="#linear-gradient"/>
    <clipPath id="clip-path-2">
      <path id="Path_417" data-name="Path 417" d="M3911.684,7310.709a6.627,6.627,0,0,0-2.754-3.867c-.186-.14-.388-.284-.606-.438a7.409,7.409,0,0,0-1.508-.939,58.9,58.9,0,0,0-10.241-4.438c-1.29-.464-2.624-.943-3.894-1.443a62.291,62.291,0,0,1-6.517-2.968,28.82,28.82,0,0,0,9.271-8.554,32.221,32.221,0,0,0,3.463-4.2,35.091,35.091,0,0,0,5.559-12.653,44.762,44.762,0,0,0,.167-17.438,41.8,41.8,0,0,0-5.957-15.462c-3.544-5.34-8.269-8.856-13.662-10.17a21.255,21.255,0,0,0-5.018-.588,27.608,27.608,0,0,0-8.684,1.5,34.271,34.271,0,0,0-13.83,8.446,33.9,33.9,0,0,0-3.354,4.013c-5.94,6.108-9.75,14.855-10.936,24.965-1.673.2-4,1.179-5.588,4.688-1.49.871-3.021,2.6-4,5.936a27.9,27.9,0,0,0-.8,9.03,64.284,64.284,0,0,0,1.183,9.385,106.243,106.243,0,0,0,5.237,17.982,73.5,73.5,0,0,0,3.942,8.649c1.468,2.692,3.257,5.737,5.927,7.8a6.484,6.484,0,0,0,3.934,1.548,5.029,5.029,0,0,0,.648-.043,6.237,6.237,0,0,0,4.153-2.483,9.5,9.5,0,0,0,1.161-2.1,6.324,6.324,0,0,0,2.089-1.8c2-2.7,2.178-6.218,2.32-9.041l.028-.552c.035-.652.047-1.322.059-1.969.007-.419.016-.84.03-1.258a15.411,15.411,0,0,1,1.872,3.719l.21.525.127.315a73.848,73.848,0,0,0,3.668,8.117c3.16,5.735,6.964,9.213,11.3,10.338a12.14,12.14,0,0,0,3.034.371,19.777,19.777,0,0,0,6.665-1.324,34.82,34.82,0,0,0,8.3-4.44,31.613,31.613,0,0,0,6.7-6.267c.321-.412.658-.865.988-1.351a27.091,27.091,0,0,0,2.262-2.549C3910.336,7317.524,3912.5,7314.219,3911.684,7310.709Zm-43.207-26.644a4.786,4.786,0,0,1-.863.077,7.547,7.547,0,0,1-5.363-2.686,3.275,3.275,0,0,1-1.082-2.259c.059-.088.186-.246.275-.355s.187-.234.276-.35c.18-.236.349-.454.521-.675a24.759,24.759,0,0,1,1.816-1.8,5.549,5.549,0,0,1,3.3-1.678c.075,0,.15,0,.223.011,2.076.217,2.757,3.283,2.827,4.873a9.331,9.331,0,0,1-1.112,4.515A3.37,3.37,0,0,1,3868.477,7284.065Z" stroke="rgba(0,0,0,0)" stroke-width="1"/>
    </clipPath>
    <linearGradient id="linear-gradient-3" x1="0.5" y1="-56.299" x2="0.5" y2="-3.814" xlink:href="#linear-gradient"/>
    <linearGradient id="linear-gradient-4" x1="0.5" y1="0.119" x2="0.5" y2="0.741" xlink:href="#linear-gradient"/>
    <clipPath id="clip-path-3">
      <path id="Path_425" data-name="Path 425" d="M3852.2,7270.56c-.681-2.1-1.487-4.272-2.4-6.467-.135-.338-.3-.729-.506-1.2-.691-1.6-.726-1.68-.8-1.805-4.887-10.816-10.544-18.79-17.257-24.339a30.764,30.764,0,0,0-15.283-7.083,26.2,26.2,0,0,0-3.464-.23,32.149,32.149,0,0,0-13.694,3.289,34.876,34.876,0,0,0-10.371,6.939,27.129,27.129,0,0,0-2.935,3.6c-.1.1-.214.2-.315.3a31.068,31.068,0,0,0-7.731,14.5c-2.294,9.458-1.549,20.465,2.277,33.648,3.4,11.708,8.067,21.844,13.875,30.129,3.607,5.145,7.654,8.917,12.027,11.21a21.759,21.759,0,0,0,10.02,2.582,17.506,17.506,0,0,0,7.15-1.488,17.146,17.146,0,0,0,7.639-6.744,16.877,16.877,0,0,0,4.945-7.675,16.7,16.7,0,0,0,.43-1.827,6.682,6.682,0,0,0,5.339,2.643,6.676,6.676,0,0,0,2.893-.657,8.14,8.14,0,0,0,3.367-3.551c.113-.2.222-.4.33-.6a8.672,8.672,0,0,0,2.92-3.3,32,32,0,0,0,3.116-7.887C3856.564,7294.118,3856.021,7282.364,3852.2,7270.56ZM3829.822,7284a5.142,5.142,0,0,1-3.651-1.466c-1.028-1.089-1.5-2.924-1.416-5.454.006-.166.019-.337.03-.506a17,17,0,0,1,4.594,4.906,6.6,6.6,0,0,1,.906,2.5C3830.108,7283.993,3829.949,7284,3829.822,7284Z" stroke="rgba(0,0,0,0)" stroke-width="1"/>
    </clipPath>
    <linearGradient id="linear-gradient-5" x1="0.5" y1="-9.276" x2="0.5" y2="10.987" xlink:href="#linear-gradient"/>
    <linearGradient id="linear-gradient-6" x1="0.5" y1="0.018" x2="0.5" y2="0.661" xlink:href="#linear-gradient"/>
    <clipPath id="clip-path-4">
      <path id="Path_431" data-name="Path 431" d="M3805.982,7237.312a13.185,13.185,0,0,0-3.065-3.384,6.722,6.722,0,0,0-.993-.708,5.964,5.964,0,0,0-1.227-.658,14.136,14.136,0,0,0-6.181-1.3,19.363,19.363,0,0,0-2.1.118,31.812,31.812,0,0,0-3.624.678c-.639.145-1.242.283-1.841.4a95.449,95.449,0,0,1-16.035,1.46q-1.265.021-2.53.021c-4.683,0-9.652-.2-15.637-.624-3.769-.268-7.608-.66-11.32-1.039-2.342-.24-4.764-.487-7.158-.7-1.18-.106-2.363-.16-3.515-.16a29.608,29.608,0,0,0-15.043,3.746,26.372,26.372,0,0,0-8.4,7.881,29.251,29.251,0,0,0-6.533,10.1,37.187,37.187,0,0,0-2.278,9.228,24.215,24.215,0,0,0,.493,9.92,10.183,10.183,0,0,0,6.092,6.894,11.026,11.026,0,0,0,3.835.661,15.94,15.94,0,0,0,6.257-1.392,22.257,22.257,0,0,0,4.174-2.364c.681-.485,1.3-1,1.905-1.49.533-.436,1.036-.849,1.547-1.219a23.594,23.594,0,0,1,6.578-3.36,25.912,25.912,0,0,1,7.876-1.294q.368,0,.729.012l.027.1c3.179,12.112-.972,24.619-4.986,36.714-.461,1.388-.919,2.767-1.362,4.135l-.133.409a15.174,15.174,0,0,0-1.051,5.985,11.318,11.318,0,0,0,2.708,6.332c2.8,3.433,6.767,5.489,9.909,6.9,6.761,3.027,14.61,4.957,24,5.9a74.239,74.239,0,0,0,7.483.433c1.275,0,2.51-.049,3.67-.146a6.515,6.515,0,0,0,5.713-4.579c3.923-2.01,4.229-7.767,4.356-10.161a64.97,64.97,0,0,0-.824-12.594c-.558-3.862-1.346-7.97-2.41-12.559-.986-4.253-2.068-8.425-3.217-12.4-.27-.932-.561-1.872-.842-2.781a44.774,44.774,0,0,1-2.06-8.525c-.028-.273-.043-.528-.052-.775.108-.006.215-.011.317-.012h.142a23.665,23.665,0,0,1,3.166.3c.333.047.665.093,1,.135a49.12,49.12,0,0,0,6.163.474,22.776,22.776,0,0,0,5.255-.561,12.259,12.259,0,0,0,8.247-6.26,12.756,12.756,0,0,0,3.863-5.174,27.9,27.9,0,0,0,1.882-10.315C3809.041,7244.7,3808.046,7240.53,3805.982,7237.312Z" stroke="rgba(0,0,0,0)" stroke-width="1"/>
    </clipPath>
    <linearGradient id="linear-gradient-7" x1="0.5" y1="2.117" x2="0.5" y2="83.191" xlink:href="#linear-gradient"/>
    <clipPath id="clip-path-5">
      <path id="Path_438" data-name="Path 438" d="M3737,7282.27a28.336,28.336,0,0,0-1.9-2.855,13.544,13.544,0,0,0-.927-1.17c-.352-.417-.636-.754-.909-1.017-4.75-5.108-11.536-8.356-19.9-9.568a29.27,29.27,0,0,0,3.818-4.351,28.855,28.855,0,0,0,8.669-22.04,19.714,19.714,0,0,0-3.647-10.625,16.474,16.474,0,0,0-9.98-6.142,19.674,19.674,0,0,0-3.674-.4,22.506,22.506,0,0,0-16.15,7.045,30.145,30.145,0,0,0-2.879,3.435c-.142.139-.288.274-.428.416a30.141,30.141,0,0,0-2.445,2.852c-1.733-.165-3.43-.265-5.04-.289a48.415,48.415,0,0,0-7.677.473c-5.8.85-10.419,2.786-13.736,5.754a18.633,18.633,0,0,0-3.182,3.749c-.04.036-.086.067-.126.1a21.865,21.865,0,0,0-6.657,13.285,23.19,23.19,0,0,0,2.843,15.013,24.638,24.638,0,0,0,10.889,9.525c.968.46,2,.891,3.056,1.281.043.019.091.043.142.067a6.8,6.8,0,0,0,.955.385l-.094.143c-.088.078-.176.156-.263.237a19.072,19.072,0,0,0-5.481,8.994,22.021,22.021,0,0,0,.175,11.272c2.022,7.67,6.9,13.378,10.638,16.816a42.358,42.358,0,0,0,17.058,9.6,37.151,37.151,0,0,0,9.551,1.373,40.833,40.833,0,0,0,28.484-11.008,33.635,33.635,0,0,0,3.973-4.508,31.252,31.252,0,0,0,8.88-16.8A32.264,32.264,0,0,0,3737,7282.27Z" stroke="rgba(0,0,0,0)" stroke-width="1"/>
    </clipPath>
    <linearGradient id="linear-gradient-9" x1="0.5" y1="-23.679" x2="0.5" y2="14.18" xlink:href="#linear-gradient"/>
    <linearGradient id="linear-gradient-10" x1="0.5" y1="0.132" x2="0.5" y2="0.732" xlink:href="#linear-gradient"/>
  </defs>
  <g id="start" transform="translate(-3636.449 -7210.598)">
    <g id="Group_252" data-name="Group 252">
      <g id="Group_251" data-name="Group 251">
        <path id="Path_403" data-name="Path 403" d="M3985.1,7231.918a23.234,23.234,0,0,0-5.131-5.716,16.772,16.772,0,0,0-2.046-1.461,16.265,16.265,0,0,0-2.642-1.4,24.211,24.211,0,0,0-10.066-2.081,29.167,29.167,0,0,0-3.21.18,40.947,40.947,0,0,0-4.754.868c-.507.116-.986.228-1.448.315a85.789,85.789,0,0,1-14.366,1.29q-1.178.019-2.357.019c-4.441,0-9.184-.19-14.926-.6-3.656-.261-7.4-.644-11.018-1.014l-.356-.036c-2.27-.232-4.608-.469-6.909-.676a47.236,47.236,0,0,0-10.287.174,30.087,30.087,0,0,0-8.21-3.353,34.7,34.7,0,0,0-19.224,1.139,44.159,44.159,0,0,0-17.81,10.93,43.6,43.6,0,0,0-3.909,4.592q-.663.707-1.3,1.444a59.056,59.056,0,0,0-7.529-7.489,40.7,40.7,0,0,0-20.323-9.286,38.838,38.838,0,0,0-17.9,1.959,26.951,26.951,0,0,0-8.074-.278,41.034,41.034,0,0,0-4.756.869c-.506.116-.984.227-1.445.314a85.789,85.789,0,0,1-14.366,1.29q-1.179.019-2.358.019c-4.44,0-9.184-.19-14.925-.6-3.656-.261-7.4-.644-11.018-1.014l-.356-.036c-2.27-.232-4.609-.469-6.909-.676a47.549,47.549,0,0,0-7.737-.081,26.931,26.931,0,0,0-13.2-6.818,29.629,29.629,0,0,0-5.545-.608,32.644,32.644,0,0,0-23.436,10.041,39.286,39.286,0,0,0-2.982,3.428l-.526-.01a57.43,57.43,0,0,0-9.272.577c-7.772,1.139-14.15,3.9-18.955,8.2a28.261,28.261,0,0,0-4.115,4.6,32.135,32.135,0,0,0-9.08,18.558,33.228,33.228,0,0,0,4.116,21.5,32.711,32.711,0,0,0,9.176,9.935,28.283,28.283,0,0,0-1,3.041,32.005,32.005,0,0,0,.162,16.416c2.639,10.006,8.818,17.283,13.537,21.625a52.4,52.4,0,0,0,21.112,11.869,47.164,47.164,0,0,0,12.121,1.749c.246,0,.489.005.734.005a51.091,51.091,0,0,0,31.667-11.05,46.456,46.456,0,0,0,7.059,3.843c7.756,3.472,16.614,5.671,27.08,6.723a83.634,83.634,0,0,0,8.485.484c1.56,0,3.077-.061,4.5-.18a16.083,16.083,0,0,0,12.671-7.815,15.735,15.735,0,0,0,1.323-1.29,38.689,38.689,0,0,0,7.91,5.56,31.78,31.78,0,0,0,14.663,3.725,27.074,27.074,0,0,0,22.521-11.782q.2-.2.4-.4a25.612,25.612,0,0,0,4.423,4.411,16.225,16.225,0,0,0,10.043,3.631,15.261,15.261,0,0,0,1.964-.129,16.263,16.263,0,0,0,9.911-5.267,25.462,25.462,0,0,0,13.293,8.846,22.1,22.1,0,0,0,5.536.689,29.523,29.523,0,0,0,10.043-1.912,44.776,44.776,0,0,0,10.714-5.7q.891-.633,1.738-1.294c1.271.681,2.459,1.239,3.485,1.7,7.755,3.472,16.613,5.671,27.079,6.723a83.634,83.634,0,0,0,8.485.484c1.561,0,3.078-.061,4.5-.18a16.083,16.083,0,0,0,12.671-7.815c5.963-5.168,6.4-13.391,6.555-16.364a74.033,74.033,0,0,0-.913-14.552c-.6-4.146-1.438-8.525-2.565-13.385-.9-3.885-1.879-7.709-2.915-11.389a31.218,31.218,0,0,0,5.322-.762,22.333,22.333,0,0,0,13.717-9.491,22.9,22.9,0,0,0,5.33-7.8,37.593,37.593,0,0,0,2.662-13.987C3989.776,7242.888,3988.251,7236.835,3985.1,7231.918Z" fill="#fff" stroke="rgba(0,0,0,0)" stroke-width="1"/>
        <path id="Path_404" data-name="Path 404" d="M3985.1,7231.918a23.234,23.234,0,0,0-5.131-5.716,16.772,16.772,0,0,0-2.046-1.461,16.265,16.265,0,0,0-2.642-1.4,24.211,24.211,0,0,0-10.066-2.081,29.167,29.167,0,0,0-3.21.18,40.947,40.947,0,0,0-4.754.868c-.507.116-.986.228-1.448.315a85.789,85.789,0,0,1-14.366,1.29q-1.178.019-2.357.019c-4.441,0-9.184-.19-14.926-.6-3.656-.261-7.4-.644-11.018-1.014l-.356-.036c-2.27-.232-4.608-.469-6.909-.676a47.236,47.236,0,0,0-10.287.174,30.087,30.087,0,0,0-8.21-3.353,34.7,34.7,0,0,0-19.224,1.139,44.159,44.159,0,0,0-17.81,10.93,43.6,43.6,0,0,0-3.909,4.592q-.663.707-1.3,1.444a59.056,59.056,0,0,0-7.529-7.489,40.7,40.7,0,0,0-20.323-9.286,38.838,38.838,0,0,0-17.9,1.959,26.951,26.951,0,0,0-8.074-.278,41.034,41.034,0,0,0-4.756.869c-.506.116-.984.227-1.445.314a85.789,85.789,0,0,1-14.366,1.29q-1.179.019-2.358.019c-4.44,0-9.184-.19-14.925-.6-3.656-.261-7.4-.644-11.018-1.014l-.356-.036c-2.27-.232-4.609-.469-6.909-.676a47.549,47.549,0,0,0-7.737-.081,26.931,26.931,0,0,0-13.2-6.818,29.629,29.629,0,0,0-5.545-.608,32.644,32.644,0,0,0-23.436,10.041,39.286,39.286,0,0,0-2.982,3.428l-.526-.01a57.43,57.43,0,0,0-9.272.577c-7.772,1.139-14.15,3.9-18.955,8.2a28.261,28.261,0,0,0-4.115,4.6,32.135,32.135,0,0,0-9.08,18.558,33.228,33.228,0,0,0,4.116,21.5,32.711,32.711,0,0,0,9.176,9.935,28.283,28.283,0,0,0-1,3.041,32.005,32.005,0,0,0,.162,16.416c2.639,10.006,8.818,17.283,13.537,21.625a52.4,52.4,0,0,0,21.112,11.869,47.164,47.164,0,0,0,12.121,1.749c.246,0,.489.005.734.005a51.091,51.091,0,0,0,31.667-11.05,46.456,46.456,0,0,0,7.059,3.843c7.756,3.472,16.614,5.671,27.08,6.723a83.634,83.634,0,0,0,8.485.484c1.56,0,3.077-.061,4.5-.18a16.083,16.083,0,0,0,12.671-7.815,15.735,15.735,0,0,0,1.323-1.29,38.689,38.689,0,0,0,7.91,5.56,31.78,31.78,0,0,0,14.663,3.725,27.074,27.074,0,0,0,22.521-11.782q.2-.2.4-.4a25.612,25.612,0,0,0,4.423,4.411,16.225,16.225,0,0,0,10.043,3.631,15.261,15.261,0,0,0,1.964-.129,16.263,16.263,0,0,0,9.911-5.267,25.462,25.462,0,0,0,13.293,8.846,22.1,22.1,0,0,0,5.536.689,29.523,29.523,0,0,0,10.043-1.912,44.776,44.776,0,0,0,10.714-5.7q.891-.633,1.738-1.294c1.271.681,2.459,1.239,3.485,1.7,7.755,3.472,16.613,5.671,27.079,6.723a83.634,83.634,0,0,0,8.485.484c1.561,0,3.078-.061,4.5-.18a16.083,16.083,0,0,0,12.671-7.815c5.963-5.168,6.4-13.391,6.555-16.364a74.033,74.033,0,0,0-.913-14.552c-.6-4.146-1.438-8.525-2.565-13.385-.9-3.885-1.879-7.709-2.915-11.389a31.218,31.218,0,0,0,5.322-.762,22.333,22.333,0,0,0,13.717-9.491,22.9,22.9,0,0,0,5.33-7.8,37.593,37.593,0,0,0,2.662-13.987C3989.776,7242.888,3988.251,7236.835,3985.1,7231.918Z" fill="rgba(0,0,0,0)" stroke="#fff" stroke-miterlimit="10" stroke-width="7"/>
        <path id="Path_405" data-name="Path 405" d="M3985.1,7231.918a23.234,23.234,0,0,0-5.131-5.716,16.772,16.772,0,0,0-2.046-1.461,16.265,16.265,0,0,0-2.642-1.4,24.211,24.211,0,0,0-10.066-2.081,29.167,29.167,0,0,0-3.21.18,40.947,40.947,0,0,0-4.754.868c-.507.116-.986.228-1.448.315a85.789,85.789,0,0,1-14.366,1.29q-1.178.019-2.357.019c-4.441,0-9.184-.19-14.926-.6-3.656-.261-7.4-.644-11.018-1.014l-.356-.036c-2.27-.232-4.608-.469-6.909-.676a47.236,47.236,0,0,0-10.287.174,30.087,30.087,0,0,0-8.21-3.353,34.7,34.7,0,0,0-19.224,1.139,44.159,44.159,0,0,0-17.81,10.93,43.6,43.6,0,0,0-3.909,4.592q-.663.707-1.3,1.444a59.056,59.056,0,0,0-7.529-7.489,40.7,40.7,0,0,0-20.323-9.286,38.838,38.838,0,0,0-17.9,1.959,26.951,26.951,0,0,0-8.074-.278,41.034,41.034,0,0,0-4.756.869c-.506.116-.984.227-1.445.314a85.789,85.789,0,0,1-14.366,1.29q-1.179.019-2.358.019c-4.44,0-9.184-.19-14.925-.6-3.656-.261-7.4-.644-11.018-1.014l-.356-.036c-2.27-.232-4.609-.469-6.909-.676a47.549,47.549,0,0,0-7.737-.081,26.931,26.931,0,0,0-13.2-6.818,29.629,29.629,0,0,0-5.545-.608,32.644,32.644,0,0,0-23.436,10.041,39.286,39.286,0,0,0-2.982,3.428l-.526-.01a57.43,57.43,0,0,0-9.272.577c-7.772,1.139-14.15,3.9-18.955,8.2a28.261,28.261,0,0,0-4.115,4.6,32.135,32.135,0,0,0-9.08,18.558,33.228,33.228,0,0,0,4.116,21.5,32.711,32.711,0,0,0,9.176,9.935,28.283,28.283,0,0,0-1,3.041,32.005,32.005,0,0,0,.162,16.416c2.639,10.006,8.818,17.283,13.537,21.625a52.4,52.4,0,0,0,21.112,11.869,47.164,47.164,0,0,0,12.121,1.749c.246,0,.489.005.734.005a51.091,51.091,0,0,0,31.667-11.05,46.456,46.456,0,0,0,7.059,3.843c7.756,3.472,16.614,5.671,27.08,6.723a83.634,83.634,0,0,0,8.485.484c1.56,0,3.077-.061,4.5-.18a16.083,16.083,0,0,0,12.671-7.815,15.735,15.735,0,0,0,1.323-1.29,38.689,38.689,0,0,0,7.91,5.56,31.78,31.78,0,0,0,14.663,3.725,27.074,27.074,0,0,0,22.521-11.782q.2-.2.4-.4a25.612,25.612,0,0,0,4.423,4.411,16.225,16.225,0,0,0,10.043,3.631,15.261,15.261,0,0,0,1.964-.129,16.263,16.263,0,0,0,9.911-5.267,25.462,25.462,0,0,0,13.293,8.846,22.1,22.1,0,0,0,5.536.689,29.523,29.523,0,0,0,10.043-1.912,44.776,44.776,0,0,0,10.714-5.7q.891-.633,1.738-1.294c1.271.681,2.459,1.239,3.485,1.7,7.755,3.472,16.613,5.671,27.079,6.723a83.634,83.634,0,0,0,8.485.484c1.561,0,3.078-.061,4.5-.18a16.083,16.083,0,0,0,12.671-7.815c5.963-5.168,6.4-13.391,6.555-16.364a74.033,74.033,0,0,0-.913-14.552c-.6-4.146-1.438-8.525-2.565-13.385-.9-3.885-1.879-7.709-2.915-11.389a31.218,31.218,0,0,0,5.322-.762,22.333,22.333,0,0,0,13.717-9.491,22.9,22.9,0,0,0,5.33-7.8,37.593,37.593,0,0,0,2.662-13.987C3989.776,7242.888,3988.251,7236.835,3985.1,7231.918Z" fill="rgba(0,0,0,0)" stroke="#000" stroke-miterlimit="10" stroke-width="6"/>
      </g>
    </g>
    <g id="Group_256" data-name="Group 256">
      <path id="Path_406" data-name="Path 406" d="M3976.679,7237.312a13.206,13.206,0,0,0-3.066-3.384,6.722,6.722,0,0,0-.993-.708,5.939,5.939,0,0,0-1.227-.658,14.132,14.132,0,0,0-6.18-1.3,19.387,19.387,0,0,0-2.1.118,31.822,31.822,0,0,0-3.624.678c-.638.145-1.241.283-1.841.4a95.447,95.447,0,0,1-16.034,1.46q-1.266.021-2.531.021c-4.683,0-9.652-.2-15.637-.624-3.769-.268-7.607-.66-11.319-1.039-2.343-.24-4.765-.487-7.159-.7-1.18-.106-2.363-.16-3.515-.16a29.608,29.608,0,0,0-15.043,3.746,26.369,26.369,0,0,0-8.4,7.881,29.25,29.25,0,0,0-6.534,10.1,37.229,37.229,0,0,0-2.277,9.228,24.2,24.2,0,0,0,.492,9.92,10.185,10.185,0,0,0,6.092,6.894,11.032,11.032,0,0,0,3.836.661,15.937,15.937,0,0,0,6.256-1.392,22.259,22.259,0,0,0,4.174-2.364c.681-.485,1.3-1,1.905-1.49.533-.436,1.036-.849,1.547-1.219a23.594,23.594,0,0,1,6.578-3.36,25.918,25.918,0,0,1,7.877-1.294q.368,0,.728.012l.027.1c3.18,12.112-.972,24.619-4.986,36.714-.461,1.388-.918,2.767-1.361,4.135l-.134.409a15.174,15.174,0,0,0-1.051,5.985,11.332,11.332,0,0,0,2.708,6.332c2.8,3.433,6.767,5.489,9.909,6.9,6.761,3.027,14.61,4.957,24,5.9a74.278,74.278,0,0,0,7.483.433c1.276,0,2.511-.049,3.67-.146a6.517,6.517,0,0,0,5.714-4.579c3.922-2.01,4.228-7.767,4.355-10.161a64.912,64.912,0,0,0-.824-12.594c-.558-3.862-1.346-7.97-2.41-12.559-.985-4.253-2.068-8.425-3.217-12.4-.269-.932-.56-1.872-.842-2.781a44.774,44.774,0,0,1-2.06-8.525c-.028-.273-.043-.528-.052-.775.108-.006.215-.011.317-.012h.142a23.653,23.653,0,0,1,3.166.3c.334.047.666.093,1,.135a49.12,49.12,0,0,0,6.163.474,22.776,22.776,0,0,0,5.255-.561,12.256,12.256,0,0,0,8.247-6.26,12.756,12.756,0,0,0,3.864-5.174,27.919,27.919,0,0,0,1.882-10.315C3979.737,7244.7,3978.743,7240.53,3976.679,7237.312Z" stroke="rgba(0,0,0,0)" stroke-width="1"/>
      <g id="Group_255" data-name="Group 255" clip-path="url(#clip-path)">
        <g id="Group_254" data-name="Group 254">
          <g id="Group_253" data-name="Group 253">
            <path id="Path_407" data-name="Path 407" d="M3970.628,7235.05c-.006,0,.153.1.6.391.441.269.608.368.615.368S3970.645,7235.049,3970.628,7235.05Z" stroke="rgba(0,0,0,0)" stroke-width="1" fill="url(#linear-gradient)"/>
            <path id="Path_408" data-name="Path 408" d="M3975.356,7259.011a25.868,25.868,0,0,0,1.679-9.36c.077-3.747-.486-7.725-2.545-10.936a10.311,10.311,0,0,0-3.261-3.274,11.072,11.072,0,0,0-6.016-1.582,16.437,16.437,0,0,0-1.819.1c-1.784.2-3.512.714-5.272,1.044a98.064,98.064,0,0,1-16.47,1.5q-1.287.021-2.574.021c-5.279,0-10.556-.256-15.821-.63-6.192-.441-12.347-1.19-18.527-1.746-1.088-.1-2.185-.15-3.282-.15a27.271,27.271,0,0,0-13.739,3.4,25.091,25.091,0,0,0-10.566,12.776,34.739,34.739,0,0,0-2.117,8.583,21.707,21.707,0,0,0,.4,8.86,7.694,7.694,0,0,0,4.507,5.216,8.439,8.439,0,0,0,2.935.5,13.548,13.548,0,0,0,5.233-1.182,19.625,19.625,0,0,0,3.687-2.09c1.186-.847,2.256-1.843,3.437-2.7a26.318,26.318,0,0,1,7.3-3.728,28.485,28.485,0,0,1,8.678-1.42,20.31,20.31,0,0,1,7.23,1.246,10.548,10.548,0,0,1,2.189,1.071c-2.049-.109-4.1-.216-6.149-.263,3.755,14.3-2.026,28.841-6.389,42.31a14.082,14.082,0,0,0-1.065,5.4,8.891,8.891,0,0,0,2.129,4.885c2.3,2.821,5.684,4.7,8.958,6.166a75.539,75.539,0,0,0,23.193,5.687,72.315,72.315,0,0,0,7.223.42c1.155,0,2.308-.041,3.454-.137,3.865-.322,4.28-5.389,4.438-8.386a62.088,62.088,0,0,0-.8-12.085c-.6-4.149-1.423-8.262-2.37-12.344q-1.429-6.17-3.181-12.264c-1.114-3.851-2.578-7.752-2.991-11.761a7.637,7.637,0,0,1,1.089-5.45,6.108,6.108,0,0,1,4.974-2.1h.18a35.686,35.686,0,0,1,4.493.457,46.124,46.124,0,0,0,5.832.453,20.375,20.375,0,0,0,4.662-.492A9.8,9.8,0,0,0,3975.356,7259.011Z" stroke="rgba(0,0,0,0)" stroke-width="1" fill="url(#linear-gradient-2)"/>
          </g>
          <path id="Path_409" data-name="Path 409" d="M3942.265,7324.9c6.761.372,10.9.417,10.789-7.736a39.652,39.652,0,0,0-.522-5.978l.252-.064a33.563,33.563,0,0,1,1.567,5.945c.882,4.453-.677,10.41-6.155,10.4a9.272,9.272,0,0,1-6.037-2.325l.106-.238Z" fill="#fff" stroke="rgba(0,0,0,0)" stroke-width="1"/>
          <path id="Path_410" data-name="Path 410" d="M3958.039,7238.706c6.1-5.022,14.362-3.874,16.4,4.488a20.771,20.771,0,0,1,.092,8.905c-.487-2.318-.873-4.587-1.508-6.732-2.225-8.221-7.47-9-14.984-6.661Z" fill="#fff" stroke="rgba(0,0,0,0)" stroke-width="1"/>
        </g>
      </g>
    </g>
    <g id="Group_260" data-name="Group 260">
      <path id="Path_412" data-name="Path 412" d="M3911.684,7310.709a6.627,6.627,0,0,0-2.754-3.867c-.186-.14-.388-.284-.606-.438a7.409,7.409,0,0,0-1.508-.939,58.9,58.9,0,0,0-10.241-4.438c-1.29-.464-2.624-.943-3.894-1.443a62.291,62.291,0,0,1-6.517-2.968,28.82,28.82,0,0,0,9.271-8.554,32.221,32.221,0,0,0,3.463-4.2,35.091,35.091,0,0,0,5.559-12.653,44.762,44.762,0,0,0,.167-17.438,41.8,41.8,0,0,0-5.957-15.462c-3.544-5.34-8.269-8.856-13.662-10.17a21.255,21.255,0,0,0-5.018-.588,27.608,27.608,0,0,0-8.684,1.5,34.271,34.271,0,0,0-13.83,8.446,33.9,33.9,0,0,0-3.354,4.013c-5.94,6.108-9.75,14.855-10.936,24.965-1.673.2-4,1.179-5.588,4.688-1.49.871-3.021,2.6-4,5.936a27.9,27.9,0,0,0-.8,9.03,64.284,64.284,0,0,0,1.183,9.385,106.243,106.243,0,0,0,5.237,17.982,73.5,73.5,0,0,0,3.942,8.649c1.468,2.692,3.257,5.737,5.927,7.8a6.484,6.484,0,0,0,3.934,1.548,5.029,5.029,0,0,0,.648-.043,6.237,6.237,0,0,0,4.153-2.483,9.5,9.5,0,0,0,1.161-2.1,6.324,6.324,0,0,0,2.089-1.8c2-2.7,2.178-6.218,2.32-9.041l.028-.552c.035-.652.047-1.322.059-1.969.007-.419.016-.84.03-1.258a15.411,15.411,0,0,1,1.872,3.719l.21.525.127.315a73.848,73.848,0,0,0,3.668,8.117c3.16,5.735,6.964,9.213,11.3,10.338a12.14,12.14,0,0,0,3.034.371,19.777,19.777,0,0,0,6.665-1.324,34.82,34.82,0,0,0,8.3-4.44,31.613,31.613,0,0,0,6.7-6.267c.321-.412.658-.865.988-1.351a27.091,27.091,0,0,0,2.262-2.549C3910.336,7317.524,3912.5,7314.219,3911.684,7310.709Zm-43.207-26.644a4.786,4.786,0,0,1-.863.077,7.547,7.547,0,0,1-5.363-2.686,3.275,3.275,0,0,1-1.082-2.259c.059-.088.186-.246.275-.355s.187-.234.276-.35c.18-.236.349-.454.521-.675a24.759,24.759,0,0,1,1.816-1.8,5.549,5.549,0,0,1,3.3-1.678c.075,0,.15,0,.223.011,2.076.217,2.757,3.283,2.827,4.873a9.331,9.331,0,0,1-1.112,4.515A3.37,3.37,0,0,1,3868.477,7284.065Z" stroke="rgba(0,0,0,0)" stroke-width="1"/>
      <g id="Group_259" data-name="Group 259" clip-path="url(#clip-path-2)">
        <g id="Group_258" data-name="Group 258">
          <g id="Group_257" data-name="Group 257">
            <path id="Path_413" data-name="Path 413" d="M3905.991,7307.94s.337.242,1.328.946c.23.162.325.227.326.227S3906,7307.94,3905.991,7307.94Z" stroke="rgba(0,0,0,0)" stroke-width="1" fill="url(#linear-gradient-3)"/>
            <path id="Path_414" data-name="Path 414" d="M3906.588,7318.109c1.393-1.791,3.119-4.411,2.563-6.813a4.207,4.207,0,0,0-1.832-2.41c-4.674-3.322-10.318-4.809-15.59-6.882a63.42,63.42,0,0,1-7.4-3.415q-1.577-.869-3.085-1.851-.617-.4-1.22-.827a5.4,5.4,0,0,0-1.589-1.006,19.385,19.385,0,0,1-4.2-1.179,10.139,10.139,0,0,1-2.8-2.078,17.538,17.538,0,0,0,6.135,1.415c.212.007.425.01.638.01a20.082,20.082,0,0,0,6.739-1.163,24.967,24.967,0,0,0,11.812-9.528,32.474,32.474,0,0,0,5.153-11.717,42.5,42.5,0,0,0,.149-16.429c-1.754-9.757-7.191-21.014-17.676-23.566a18.526,18.526,0,0,0-4.4-.515,25.044,25.044,0,0,0-7.863,1.369,31.911,31.911,0,0,0-12.795,7.8c-7.126,7.258-10.227,17.732-10.645,27.7-.02.482-.019,1.922-.019,1.922l2.019,3.108s-3.822-2.553-6.031-2.955a4.083,4.083,0,0,0-.729-.068c-2.554,0-3.917,2.628-4.581,4.9a25.156,25.156,0,0,0-.7,8.181,62.053,62.053,0,0,0,1.138,9.007,103.347,103.347,0,0,0,5.11,17.54,71.127,71.127,0,0,0,3.8,8.344c1.359,2.493,2.949,5.222,5.233,6.985a4,4,0,0,0,2.345,1.006,2.4,2.4,0,0,0,.306-.02,3.615,3.615,0,0,0,2.405-1.452c1.648-2.229,1.7-5.536,1.842-8.186.145-2.71-.136-5.91,1.084-8.417a3.708,3.708,0,0,1,3.342-2.137,3.793,3.793,0,0,1,1.6.36c2.408,1.116,3.48,4.2,4.4,6.477a74.461,74.461,0,0,0,3.661,8.15c2.095,3.8,5.261,7.93,9.68,9.076a9.516,9.516,0,0,0,2.382.288,17.519,17.519,0,0,0,5.786-1.171,32.127,32.127,0,0,0,7.677-4.114A28.954,28.954,0,0,0,3906.588,7318.109Zm-37.58-31.5a7.357,7.357,0,0,1-1.394.131,10.154,10.154,0,0,1-7.313-3.567c-1.126-1.276-2.145-3.077-1.6-4.819a5.1,5.1,0,0,1,.946-1.439q.78-1.023,1.585-2.025a37.847,37.847,0,0,1,4.354-4.728,7.983,7.983,0,0,1,5.013-2.326q.245,0,.494.025c3.548.371,5.016,4.22,5.153,7.345a12.813,12.813,0,0,1-2.045,7.013C3873.046,7284.167,3871.309,7286.1,3869.008,7286.611Z" stroke="rgba(0,0,0,0)" stroke-width="1" fill="url(#linear-gradient-4)"/>
          </g>
          <path id="Path_415" data-name="Path 415" d="M3904.141,7315.024a11.716,11.716,0,0,0,1.416-2.079c.057-.174.044-.29.005-.314s-.035.012-.078-.074c.006-.029-.058-.1-.072-.158a6.456,6.456,0,0,0-2.684-2.181c-1.57-.895-3.221-1.6-4.88-2.36l.066-.251c2.837.347,8.49,1.081,10.024,3.8,1.135,2.321-1.558,4.315-3.708,3.86l-.089-.244Z" fill="#fff" stroke="rgba(0,0,0,0)" stroke-width="1"/>
          <path id="Path_416" data-name="Path 416" d="M3870.409,7234.4c12.164-5.158,26.046,1.185,27.472,14.937a37.2,37.2,0,0,0-4.574-7.258c-5.509-6.744-14.563-8.23-22.9-7.679Z" fill="#fff" stroke="rgba(0,0,0,0)" stroke-width="1"/>
        </g>
      </g>
    </g>
    <g id="Group_264" data-name="Group 264">
      <path id="Path_418" data-name="Path 418" d="M3852.2,7270.56c-.681-2.1-1.487-4.272-2.4-6.467-.135-.338-.3-.729-.506-1.2-.691-1.6-.726-1.68-.8-1.805-4.887-10.816-10.544-18.79-17.257-24.339a30.764,30.764,0,0,0-15.283-7.083,26.2,26.2,0,0,0-3.464-.23,32.149,32.149,0,0,0-13.694,3.289,34.876,34.876,0,0,0-10.371,6.939,27.129,27.129,0,0,0-2.935,3.6c-.1.1-.214.2-.315.3a31.068,31.068,0,0,0-7.731,14.5c-2.294,9.458-1.549,20.465,2.277,33.648,3.4,11.708,8.067,21.844,13.875,30.129,3.607,5.145,7.654,8.917,12.027,11.21a21.759,21.759,0,0,0,10.02,2.582,17.506,17.506,0,0,0,7.15-1.488,17.146,17.146,0,0,0,7.639-6.744,16.877,16.877,0,0,0,4.945-7.675,16.7,16.7,0,0,0,.43-1.827,6.682,6.682,0,0,0,5.339,2.643,6.676,6.676,0,0,0,2.893-.657,8.14,8.14,0,0,0,3.367-3.551c.113-.2.222-.4.33-.6a8.672,8.672,0,0,0,2.92-3.3,32,32,0,0,0,3.116-7.887C3856.564,7294.118,3856.021,7282.364,3852.2,7270.56ZM3829.822,7284a5.142,5.142,0,0,1-3.651-1.466c-1.028-1.089-1.5-2.924-1.416-5.454.006-.166.019-.337.03-.506a17,17,0,0,1,4.594,4.906,6.6,6.6,0,0,1,.906,2.5C3830.108,7283.993,3829.949,7284,3829.822,7284Z" stroke="rgba(0,0,0,0)" stroke-width="1"/>
      <g id="Group_263" data-name="Group 263" clip-path="url(#clip-path-3)">
        <g id="Group_262" data-name="Group 262">
          <g id="Group_261" data-name="Group 261">
            <path id="Path_419" data-name="Path 419" d="M3846.236,7262.386l.663,1.538c.489,1.129.667,1.542.667,1.542Z" stroke="rgba(0,0,0,0)" stroke-width="1" fill="url(#linear-gradient-5)"/>
            <path id="Path_420" data-name="Path 420" d="M3839.482,7301.619c.232,2.248.318,4.5.382,6.761.058,2.059.745,4.291,2.736,5.258a4.117,4.117,0,0,0,1.792.407,4.049,4.049,0,0,0,1.76-.4,5.9,5.9,0,0,0,2.249-2.511,29.983,29.983,0,0,0,2.855-7.26c2.854-10.644,1.836-22.118-1.533-32.516-.818-2.523-1.771-5-2.824-7.437-4.017-9.3-9.413-18.63-17.322-25.168a28.093,28.093,0,0,0-13.974-6.51,23.345,23.345,0,0,0-3.117-.207,29.71,29.71,0,0,0-12.586,3.041,32.857,32.857,0,0,0-9.622,6.407,28.46,28.46,0,0,0-7.062,13.293c-2.565,10.575-.739,22.02,2.248,32.311s7.339,20.563,13.507,29.36a32.636,32.636,0,0,0,11.106,10.4,19.142,19.142,0,0,0,8.812,2.285,14.933,14.933,0,0,0,6.1-1.265,14.448,14.448,0,0,0,7.9-8.891c1.483-4.935.1-10.359-1.548-15.059-.443-1.265-.771-2.562-1.132-3.851a21.84,21.84,0,0,1-.763-3.314c-.286-2.424.774-4.781,3.418-5.133a5.308,5.308,0,0,1,.7-.047C3838.148,7291.576,3839.116,7298.08,3839.482,7301.619Zm-3.667-18.866-.263.592s.034-.08.129-.3a6.136,6.136,0,0,1-5.859,3.552,7.7,7.7,0,0,1-5.542-2.281c-1.835-1.944-2.213-4.764-2.123-7.33a24.8,24.8,0,0,1,.5-4.007c.124-.62.269-1.236.428-1.848a12.555,12.555,0,0,0,.531-1.848c.019-.211.085-.118-.033-.284s-.471-.275-.643-.372q-.507-.285-1.026-.55c-.6-.305-1.207-.59-1.827-.85a20.508,20.508,0,0,0-2.628-.926c.157-.006.315-.009.473-.009a19.867,19.867,0,0,1,9.4,2.829,20.719,20.719,0,0,1,7.535,7.129c1.19,2.006,1.817,4.582.816,6.795C3835.778,7282.832,3835.814,7282.753,3835.815,7282.753Z" stroke="rgba(0,0,0,0)" stroke-width="1" fill="url(#linear-gradient-6)"/>
          </g>
          <path id="Path_421" data-name="Path 421" d="M3813.174,7234.866c9.518-1.761,18.679,6.811,22.944,14.55.6,1.217,1.21,2.424,1.708,3.682-1.892-1.907-3.617-3.894-5.446-5.821-5.39-5.457-11.446-10.934-19.206-12.411Z" fill="#fff" stroke="rgba(0,0,0,0)" stroke-width="1"/>
          <path id="Path_422" data-name="Path 422" d="M3827.515,7293.952c-.867,2.336.06,4.618.679,6.882.7,2.275,1.5,4.571,2.106,6.973,1.156,4.488,2.1,11.378-2.785,14.071a8.936,8.936,0,0,0,1.626-6.552c-.158-5.454-5.771-17.15-1.626-21.374Z" fill="#fff" stroke="rgba(0,0,0,0)" stroke-width="1"/>
          <path id="Path_423" data-name="Path 423" d="M3844.6,7311.7a78.384,78.384,0,0,0,3.758-21.616c.079-1.069.029-2.134.158-3.249,3.481,7.916,2.062,18.5-3.916,24.865Z" fill="#fff" stroke="rgba(0,0,0,0)" stroke-width="1"/>
          <path id="Path_424" data-name="Path 424" d="M3820.994,7268.925a17.145,17.145,0,0,1-.667,6.826,14.406,14.406,0,0,0,.664,6.723l-.226.128a12.219,12.219,0,0,1-2.434-5.964c-.112-1.562-.409-3.21.15-4.717a6.361,6.361,0,0,1,2.281-3.112l.232.116Z" fill="#fff" stroke="rgba(0,0,0,0)" stroke-width="1"/>
        </g>
      </g>
    </g>
    <g id="Group_268" data-name="Group 268">
      <path id="Path_426" data-name="Path 426" d="M3805.982,7237.312a13.185,13.185,0,0,0-3.065-3.384,6.722,6.722,0,0,0-.993-.708,5.964,5.964,0,0,0-1.227-.658,14.136,14.136,0,0,0-6.181-1.3,19.363,19.363,0,0,0-2.1.118,31.812,31.812,0,0,0-3.624.678c-.639.145-1.242.283-1.841.4a95.449,95.449,0,0,1-16.035,1.46q-1.265.021-2.53.021c-4.683,0-9.652-.2-15.637-.624-3.769-.268-7.608-.66-11.32-1.039-2.342-.24-4.764-.487-7.158-.7-1.18-.106-2.363-.16-3.515-.16a29.608,29.608,0,0,0-15.043,3.746,26.372,26.372,0,0,0-8.4,7.881,29.251,29.251,0,0,0-6.533,10.1,37.187,37.187,0,0,0-2.278,9.228,24.215,24.215,0,0,0,.493,9.92,10.183,10.183,0,0,0,6.092,6.894,11.026,11.026,0,0,0,3.835.661,15.94,15.94,0,0,0,6.257-1.392,22.257,22.257,0,0,0,4.174-2.364c.681-.485,1.3-1,1.905-1.49.533-.436,1.036-.849,1.547-1.219a23.594,23.594,0,0,1,6.578-3.36,25.912,25.912,0,0,1,7.876-1.294q.368,0,.729.012l.027.1c3.179,12.112-.972,24.619-4.986,36.714-.461,1.388-.919,2.767-1.362,4.135l-.133.409a15.174,15.174,0,0,0-1.051,5.985,11.318,11.318,0,0,0,2.708,6.332c2.8,3.433,6.767,5.489,9.909,6.9,6.761,3.027,14.61,4.957,24,5.9a74.239,74.239,0,0,0,7.483.433c1.275,0,2.51-.049,3.67-.146a6.515,6.515,0,0,0,5.713-4.579c3.923-2.01,4.229-7.767,4.356-10.161a64.97,64.97,0,0,0-.824-12.594c-.558-3.862-1.346-7.97-2.41-12.559-.986-4.253-2.068-8.425-3.217-12.4-.27-.932-.561-1.872-.842-2.781a44.774,44.774,0,0,1-2.06-8.525c-.028-.273-.043-.528-.052-.775.108-.006.215-.011.317-.012h.142a23.665,23.665,0,0,1,3.166.3c.333.047.665.093,1,.135a49.12,49.12,0,0,0,6.163.474,22.776,22.776,0,0,0,5.255-.561,12.259,12.259,0,0,0,8.247-6.26,12.756,12.756,0,0,0,3.863-5.174,27.9,27.9,0,0,0,1.882-10.315C3809.041,7244.7,3808.046,7240.53,3805.982,7237.312Z" stroke="rgba(0,0,0,0)" stroke-width="1"/>
      <g id="Group_267" data-name="Group 267" clip-path="url(#clip-path-4)">
        <g id="Group_266" data-name="Group 266">
          <g id="Group_265" data-name="Group 265">
            <path id="Path_427" data-name="Path 427" d="M3799.932,7235.05c-.006,0,.152.1.6.391.442.269.609.368.615.368S3799.949,7235.049,3799.932,7235.05Z" stroke="rgba(0,0,0,0)" stroke-width="1" fill="url(#linear-gradient-7)"/>
            <path id="Path_428" data-name="Path 428" d="M3804.66,7259.011a25.874,25.874,0,0,0,1.679-9.36c.077-3.747-.486-7.725-2.545-10.936a10.3,10.3,0,0,0-3.262-3.274,11.069,11.069,0,0,0-6.016-1.582,16.424,16.424,0,0,0-1.818.1c-1.784.2-3.513.714-5.273,1.044a98.055,98.055,0,0,1-16.47,1.5q-1.287.021-2.573.021c-5.279,0-10.557-.256-15.821-.63-6.192-.441-12.347-1.19-18.527-1.746-1.088-.1-2.185-.15-3.282-.15a27.272,27.272,0,0,0-13.74,3.4,25.1,25.1,0,0,0-10.566,12.776,34.814,34.814,0,0,0-2.117,8.583,21.716,21.716,0,0,0,.4,8.86,7.694,7.694,0,0,0,4.506,5.216,8.447,8.447,0,0,0,2.935.5,13.553,13.553,0,0,0,5.234-1.182,19.586,19.586,0,0,0,3.686-2.09c1.187-.847,2.256-1.843,3.437-2.7a26.345,26.345,0,0,1,7.3-3.728,28.49,28.49,0,0,1,8.678-1.42,20.3,20.3,0,0,1,7.23,1.246,10.563,10.563,0,0,1,2.19,1.071c-2.049-.109-4.1-.216-6.149-.263,3.755,14.3-2.027,28.841-6.389,42.31a14.045,14.045,0,0,0-1.065,5.4,8.884,8.884,0,0,0,2.129,4.885c2.3,2.821,5.683,4.7,8.958,6.166a75.531,75.531,0,0,0,23.193,5.687,72.31,72.31,0,0,0,7.223.42c1.155,0,2.307-.041,3.454-.137,3.865-.322,4.28-5.389,4.438-8.386a62.032,62.032,0,0,0-.8-12.085c-.6-4.149-1.423-8.262-2.369-12.344q-1.429-6.17-3.182-12.264c-1.113-3.851-2.578-7.752-2.99-11.761a7.632,7.632,0,0,1,1.089-5.45,6.106,6.106,0,0,1,4.974-2.1h.18a35.652,35.652,0,0,1,4.492.457,46.125,46.125,0,0,0,5.833.453,20.366,20.366,0,0,0,4.661-.492A9.8,9.8,0,0,0,3804.66,7259.011Z" stroke="rgba(0,0,0,0)" stroke-width="1" fill="url(#linear-gradient-2)"/>
          </g>
          <path id="Path_429" data-name="Path 429" d="M3771.569,7324.9c6.761.372,10.9.417,10.789-7.736a39.747,39.747,0,0,0-.522-5.978l.252-.064a33.457,33.457,0,0,1,1.566,5.945c.883,4.453-.676,10.41-6.155,10.4a9.274,9.274,0,0,1-6.037-2.325l.107-.238Z" fill="#fff" stroke="rgba(0,0,0,0)" stroke-width="1"/>
          <path id="Path_430" data-name="Path 430" d="M3787.343,7238.706c6.1-5.022,14.361-3.874,16.4,4.488a20.787,20.787,0,0,1,.092,8.905c-.487-2.318-.874-4.587-1.508-6.732-2.225-8.221-7.47-9-14.984-6.661Z" fill="#fff" stroke="rgba(0,0,0,0)" stroke-width="1"/>
        </g>
      </g>
    </g>
    <g id="Group_272" data-name="Group 272">
      <path id="Path_432" data-name="Path 432" d="M3737,7282.27a28.336,28.336,0,0,0-1.9-2.855,13.544,13.544,0,0,0-.927-1.17c-.352-.417-.636-.754-.909-1.017-4.75-5.108-11.536-8.356-19.9-9.568a29.27,29.27,0,0,0,3.818-4.351,28.855,28.855,0,0,0,8.669-22.04,19.714,19.714,0,0,0-3.647-10.625,16.474,16.474,0,0,0-9.98-6.142,19.674,19.674,0,0,0-3.674-.4,22.506,22.506,0,0,0-16.15,7.045,30.145,30.145,0,0,0-2.879,3.435c-.142.139-.288.274-.428.416a30.141,30.141,0,0,0-2.445,2.852c-1.733-.165-3.43-.265-5.04-.289a48.415,48.415,0,0,0-7.677.473c-5.8.85-10.419,2.786-13.736,5.754a18.633,18.633,0,0,0-3.182,3.749c-.04.036-.086.067-.126.1a21.865,21.865,0,0,0-6.657,13.285,23.19,23.19,0,0,0,2.843,15.013,24.638,24.638,0,0,0,10.889,9.525c.968.46,2,.891,3.056,1.281.043.019.091.043.142.067a6.8,6.8,0,0,0,.955.385l-.094.143c-.088.078-.176.156-.263.237a19.072,19.072,0,0,0-5.481,8.994,22.021,22.021,0,0,0,.175,11.272c2.022,7.67,6.9,13.378,10.638,16.816a42.358,42.358,0,0,0,17.058,9.6,37.151,37.151,0,0,0,9.551,1.373,40.833,40.833,0,0,0,28.484-11.008,33.635,33.635,0,0,0,3.973-4.508,31.252,31.252,0,0,0,8.88-16.8A32.264,32.264,0,0,0,3737,7282.27Z" stroke="rgba(0,0,0,0)" stroke-width="1"/>
      <g id="Group_271" data-name="Group 271" clip-path="url(#clip-path-5)">
        <g id="Group_270" data-name="Group 270">
          <g id="Group_269" data-name="Group 269">
            <path id="Path_433" data-name="Path 433" d="M3731.475,7278.573s.185.218.7.814.712.812.713.812S3731.48,7278.573,3731.475,7278.573Z" stroke="rgba(0,0,0,0)" stroke-width="1" fill="url(#linear-gradient-9)"/>
            <path id="Path_434" data-name="Path 434" d="M3734.8,7283a25.181,25.181,0,0,0-2.623-3.612c-6.4-7.405-16.186-9.816-25.86-9.816a69.99,69.99,0,0,0-12.458,1.189c-3.525.644-6.969,1.66-10.509,2.233a27,27,0,0,1-4.314.423q-.342,0-.684-.015c-1.531-.069-3.284-.389-4.246-1.713a4.232,4.232,0,0,1,.027-4.354,6.407,6.407,0,0,1,2.939-3.253,3.859,3.859,0,0,1,1.567-.338c2.41,0,4.5,2.317,6.011,4.015.249.28.5.56.754.833.117.126.343.463.5.512a.253.253,0,0,0,.077.01,5.963,5.963,0,0,0,1.045-.281q.687-.169,1.372-.35c1.7-.446,3.411-.856,5.138-1.194a73.151,73.151,0,0,1,10.3-1.292q1.293-.066,2.587-.081h.043c.422,0,.975.067,1.5.067a2.374,2.374,0,0,0,1.155-.221,28.108,28.108,0,0,0,3.579-2.437,26.9,26.9,0,0,0,6.526-7.572,26.093,26.093,0,0,0,3.457-14.727,17.248,17.248,0,0,0-3.273-9.184,13.883,13.883,0,0,0-8.495-5.022,16.936,16.936,0,0,0-3.191-.3,19.8,19.8,0,0,0-14.161,6.475c-4.657,4.891-7.3,11.43-8.559,17.986-.222,1.159-.4,2.322-.556,3.49a38.465,38.465,0,0,1,1.582-13.876c-1.674-.141-3.361-.22-5.046-.22a45.51,45.51,0,0,0-7.254.552c-4.432.717-8.945,2.207-12.3,5.3a19.287,19.287,0,0,0-5.644,11.8,20.606,20.606,0,0,0,2.708,13.288,22.089,22.089,0,0,0,9.887,8.347c.943.432,1.9.814,2.881,1.156a4.746,4.746,0,0,0,1.19.428.478.478,0,0,0,.067,0c.173-.026.451-.307.6-.405.267-.174.537-.343.812-.5a20.827,20.827,0,0,1,6.348-2.387,25.048,25.048,0,0,1,5.019-.5,33.658,33.658,0,0,1,19.9,7.11c6.127,4.689,12.094,13.027,8.229,20.974a12.5,12.5,0,0,1-1.008,1.692,16.864,16.864,0,0,0,.134-7.515,20.092,20.092,0,0,0-4.555-8.5,30.748,30.748,0,0,0-16.931-9.575,25.934,25.934,0,0,0-5.077-.514,18.512,18.512,0,0,0-13.062,4.837,16.517,16.517,0,0,0-4.627,7.834,19.392,19.392,0,0,0,.325,9.93,33.167,33.167,0,0,0,10.113,15.419,39.785,39.785,0,0,0,16.135,8.778,34.592,34.592,0,0,0,8.9,1.144,38.5,38.5,0,0,0,26.5-10.688,28.64,28.64,0,0,0,8.531-16.115A29.686,29.686,0,0,0,3734.8,7283Z" stroke="rgba(0,0,0,0)" stroke-width="1" fill="url(#linear-gradient-10)"/>
          </g>
          <path id="Path_435" data-name="Path 435" d="M3698.669,7231.753c7.24-4.967,18.625-4.74,21.145,5.209a17.9,17.9,0,0,1,.134,8.184,37.2,37.2,0,0,0-2.069-7.523c-3.19-8.22-11.96-7.356-19.21-5.87Z" fill="#fff" stroke="rgba(0,0,0,0)" stroke-width="1"/>
          <path id="Path_436" data-name="Path 436" d="M3692.791,7285.562a6.208,6.208,0,0,1,5.6.319,17.805,17.805,0,0,1,4.341,3.587,13.552,13.552,0,0,1,1.927,3.106l-.219.14a16.346,16.346,0,0,0-5.506-3.955,17.758,17.758,0,0,1-6.164-2.938l.016-.259Z" fill="#fff" stroke="rgba(0,0,0,0)" stroke-width="1"/>
          <path id="Path_437" data-name="Path 437" d="M3713.593,7273.962c17.923-1.774,27.836,19.766,20.811,34.582a22.319,22.319,0,0,1-10.989,11.062,26.031,26.031,0,0,0,9.116-11.842c5.308-14.2-2.738-32.523-18.938-33.8Z" fill="#fff" stroke="rgba(0,0,0,0)" stroke-width="1"/>
        </g>
      </g>
    </g>
  </g>
</svg>
