<svg xmlns="http://www.w3.org/2000/svg" xmlns:xlink="http://www.w3.org/1999/xlink" width="89.273" height="91.738" viewBox="0 0 89.273 91.738">
  <defs>
    <clipPath id="clip-path">
      <path id="Path_3227" data-name="Path 3227" d="M7519.911,2695.908c-3.6-19.876-19.8-32.987-38.889-29.832-19.031,3.147-32.647,21.189-30.214,41.258s19.779,32.334,38.982,30.659C7512.782,2736.059,7523.528,2715.9,7519.911,2695.908Z" fill="#01cb2d"/>
    </clipPath>
  </defs>
  <g id="Group_7285" data-name="Group 7285" transform="translate(-7440.925 -2656.008)">
    <g id="Group_1363" data-name="Group 1363">
      <g id="Group_1359" data-name="Group 1359">
        <path id="Path_3080" data-name="Path 3080" d="M7534.383,2702.228c-4.355-24.022-23.928-39.868-47-36.054-23,3.8-39.457,25.609-36.516,49.863s23.9,39.078,47.112,37.054C7525.767,2750.754,7538.754,2726.392,7534.383,2702.228Z" transform="translate(-7.308 -7.608)" fill="#01cb2d"/>
        <g id="Group_1358" data-name="Group 1358" clip-path="url(#clip-path)">
          <g id="Group_1357" data-name="Group 1357" opacity="0.4" style="mix-blend-mode: multiply;isolation: isolate">
            <path id="Path_3081" data-name="Path 3081" d="M7461.861,2670.827c.873,1.631,9.47.767,9.4-1.739C7469.795,2667.934,7462.554,2667.19,7461.861,2670.827Z" fill="#1e5412" opacity="0.5"/>
            <path id="Path_3082" data-name="Path 3082" d="M7440.882,2702.619c1.126-1.9-2.021-2.084-1.919-.459C7439.015,2703,7440.442,2703.5,7440.882,2702.619Z" fill="#1e5412" opacity="0.5"/>
            <path id="Path_3083" data-name="Path 3083" d="M7454.188,2702.1c-.143-2.307-8.708-3.052-8.54-.348C7445.9,2705.793,7454.313,2704.11,7454.188,2702.1Z" fill="#1e5412" opacity="0.5"/>
            <path id="Path_3084" data-name="Path 3084" d="M7431.95,2713.2c.269,4.319,11.419,1.336,11.206-2.076-.232-3.734-3.744-1.2-5.493-.675C7435.961,2710.96,7431.7,2709.254,7431.95,2713.2Z" fill="#1e5412" opacity="0.5"/>
            <path id="Path_3085" data-name="Path 3085" d="M7512.351,2676.748c-1.386,1.136-.95,1.821-2.61,1.494-.855-.166-3.076-1.068-2.97.64a3.356,3.356,0,0,0,1.586,2.792,62.376,62.376,0,0,0,8.753-6.38A10.926,10.926,0,0,0,7512.351,2676.748Z" fill="#1e5412" opacity="0.5"/>
            <path id="Path_3086" data-name="Path 3086" d="M7456.148,2645.534a3.257,3.257,0,0,0-1.949-2.248l-1.494.119a1.673,1.673,0,0,0-.256,1.17C7452.6,2647,7456.192,2646.254,7456.148,2645.534Z" fill="#1e5412" opacity="0.5"/>
            <path id="Path_3087" data-name="Path 3087" d="M7466.873,2662.182c-.156-2.5-6.033-3.249-5.916-1.335C7461.107,2663.245,7466.974,2663.794,7466.873,2662.182Z" fill="#1e5412" opacity="0.5"/>
            <path id="Path_3088" data-name="Path 3088" d="M7464.376,2648.758c-1.069-.655-1.8-1.159-2.356-.048C7462.318,2653.463,7466.053,2649.785,7464.376,2648.758Z" fill="#1e5412" opacity="0.5"/>
            <path id="Path_3089" data-name="Path 3089" d="M7450.591,2672.3c.165,2.665,5.441,3.047,6.843,1.236C7460.4,2669.684,7450.418,2669.517,7450.591,2672.3Z" fill="#1e5412" opacity="0.5"/>
            <path id="Path_3090" data-name="Path 3090" d="M7454.859,2662.455c-.126-.513-.222-2.428-1.067-1.839-.142.325-.284.657-.426.985C7453.412,2662.327,7454.334,2662.62,7454.859,2662.455Z" fill="#1e5412" opacity="0.5"/>
            <path id="Path_3091" data-name="Path 3091" d="M7447.879,2684.479a1.49,1.49,0,0,0,2.574.957C7452.624,2683.091,7447.737,2682.217,7447.879,2684.479Z" fill="#1e5412" opacity="0.5"/>
            <path id="Path_3092" data-name="Path 3092" d="M7452.913,2653.548c-.142-2.262-5.737-3.27-5.571-.578C7447.5,2655.47,7453.077,2656.193,7452.913,2653.548Z" fill="#1e5412" opacity="0.5"/>
            <path id="Path_3093" data-name="Path 3093" d="M7414.541,2646.471l-6.609.531C7409.052,2648.141,7412.321,2647.6,7414.541,2646.471Z" fill="#1e5412" opacity="0.5"/>
            <path id="Path_3094" data-name="Path 3094" d="M7444.4,2692.652c-.173-2.817-11.6-4.909-11.287.062C7433.406,2697.553,7444.476,2693.943,7444.4,2692.652Z" fill="#1e5412" opacity="0.5"/>
            <path id="Path_3095" data-name="Path 3095" d="M7422.918,2651.27c1.222.12,1.209-1.345,2.015-2,2.107-1.7-4.987-4.4-4.8-1.434C7420.225,2649.391,7421.555,2651.139,7422.918,2651.27Z" fill="#1e5412" opacity="0.5"/>
            <path id="Path_3096" data-name="Path 3096" d="M7412.472,2672.469c3.622-3.447-10.791-8.369-10.366-1.57C7402.383,2675.388,7410.1,2674.73,7412.472,2672.469Z" fill="#1e5412" opacity="0.5"/>
            <path id="Path_3097" data-name="Path 3097" d="M7408.274,2656.584c.109,1.766,2.6,1.282,2.489-.488S7408.162,2654.812,7408.274,2656.584Z" fill="#1e5412" opacity="0.5"/>
            <path id="Path_3098" data-name="Path 3098" d="M7427.541,2661.727c2.854-2.823-4.264-3.937-5.14-3.923-2.434.04-7.777-3.4-7.458,1.717C7415.178,2663.285,7424.974,2664.272,7427.541,2661.727Z" fill="#1e5412" opacity="0.5"/>
            <path id="Path_3099" data-name="Path 3099" d="M7441.707,2683c-.128-2.069-2.877-1.1-2.778.492C7439.044,2685.339,7441.83,2684.957,7441.707,2683Z" fill="#1e5412" opacity="0.5"/>
            <path id="Path_3100" data-name="Path 3100" d="M7436.146,2662.478c.133,2.134,7.422,3.1,7.24.185C7443.136,2658.644,7435.974,2659.715,7436.146,2662.478Z" fill="#1e5412" opacity="0.5"/>
            <path id="Path_3101" data-name="Path 3101" d="M7442.654,2673.135c-.217-3.5-4.645-1.438-6.353-2.3-1.948-.982-7.451-3.643-7.127,1.59C7429.532,2678.142,7442.9,2677.08,7442.654,2673.135Z" fill="#1e5412" opacity="0.5"/>
            <path id="Path_3102" data-name="Path 3102" d="M7439.013,2652.7c-.24-3.824-8.206-3.22-8.052-.733C7431.186,2655.587,7439.238,2656.328,7439.013,2652.7Z" fill="#1e5412" opacity="0.5"/>
            <path id="Path_3103" data-name="Path 3103" d="M7419.833,2682.447c.3,4.883,9.956,4.945,9.748,1.6-.2-2.881-3.508-1.148-4.935-2.573C7423.28,2680.111,7419.643,2678.341,7419.833,2682.447Z" fill="#1e5412" opacity="0.5"/>
            <path id="Path_3104" data-name="Path 3104" d="M7507.847,2672.3c1.694-1.544,1.5-1.477,3.836-1.882.455-.08,2.117-.205,2.487-.874-.293.056-.887-1.31-1.554-1.18-1.55.3-2.342,1.354-4.005.872-2.035-.59-7.375-2.6-7.052,2.568C7501.759,2675.011,7506.409,2673.614,7507.847,2672.3Z" fill="#1e5412" opacity="0.5"/>
            <path id="Path_3105" data-name="Path 3105" d="M7506.694,2662.577c.182,2.91,11.21,2.059,12.434.118.784-1.249-5.218-1.707-6.279-2.355C7511.437,2659.48,7506.459,2658.8,7506.694,2662.577Z" fill="#1e5412" opacity="0.5"/>
            <path id="Path_3106" data-name="Path 3106" d="M7409.728,2681.412c.063,1.044,1.993,1.707,1.9.238C7411.537,2680.156,7410.208,2680.675,7409.728,2681.412Z" fill="#1e5412" opacity="0.5"/>
            <path id="Path_3107" data-name="Path 3107" d="M7484.546,2686.187c.111,1.756,2.585,1.275,2.477-.486S7484.438,2684.427,7484.546,2686.187Z" fill="#1e5412" opacity="0.5"/>
            <path id="Path_3108" data-name="Path 3108" d="M7525.317,2656.949c-.012-.185-7.271-2.647-7.178-1.135C7518.21,2656.932,7525.473,2659.467,7525.317,2656.949Z" fill="#1e5412" opacity="0.5"/>
            <path id="Path_3109" data-name="Path 3109" d="M7523.579,2668.155c-1.485.674-2.86,1.507-2.968,1.87.03.471.385.711.91.787C7522.251,2669.949,7522.944,2669.068,7523.579,2668.155Z" fill="#1e5412" opacity="0.5"/>
            <path id="Path_3110" data-name="Path 3110" d="M7499.553,2662.109c.109,1.784,2.612,1.292,2.5-.488S7499.441,2660.328,7499.553,2662.109Z" fill="#1e5412" opacity="0.5"/>
            <path id="Path_3111" data-name="Path 3111" d="M7529.273,2653.208c.02.347.425.546.892.578q.324-1.191.581-2.338A1.7,1.7,0,0,0,7529.273,2653.208Z" fill="#1e5412" opacity="0.5"/>
            <path id="Path_3112" data-name="Path 3112" d="M7496.852,2684.179c-1.458-.818-3.7.771-4.867,1.7.159,2.556,12.009.926,8.832-2.891C7498.764,2680.524,7498.225,2684.946,7496.852,2684.179Z" fill="#1e5412" opacity="0.5"/>
            <path id="Path_3113" data-name="Path 3113" d="M7494.371,2665.949c2.082-2.992-6.019-4.844-5.72-.062C7488.768,2667.794,7493.572,2667.092,7494.371,2665.949Z" fill="#1e5412" opacity="0.5"/>
            <path id="Path_3114" data-name="Path 3114" d="M7486.275,2676.025c.155,2.51,1.948,3.321,3.933,2.411,1.552-.715,6.282-1.977,7.184-3.726C7500.14,2669.393,7486.007,2671.724,7486.275,2676.025Z" fill="#1e5412" opacity="0.5"/>
            <path id="Path_3115" data-name="Path 3115" d="M7485.771,2656.591c.229,3.673,9.364,2.747,9.205.207C7494.882,2655.264,7485.832,2652.231,7485.771,2656.591Z" fill="#1e5412" opacity="0.5"/>
            <path id="Path_3116" data-name="Path 3116" d="M7484.467,2648.44c-.562-.089-1.466-.054-1.412.843C7483.242,2652.271,7485.288,2649.074,7484.467,2648.44Z" fill="#1e5412" opacity="0.5"/>
            <path id="Path_3117" data-name="Path 3117" d="M7481.293,2672.527c-.219-2.976-5.6-.334-5.475,1.68C7475.919,2675.814,7481.51,2675.468,7481.293,2672.527Z" fill="#1e5412" opacity="0.5"/>
            <path id="Path_3118" data-name="Path 3118" d="M7475.329,2647.769c-.168-2.679-5.978-3.147-5.786-.069C7469.713,2650.431,7475.5,2650.524,7475.329,2647.769Z" fill="#1e5412" opacity="0.5"/>
            <path id="Path_3119" data-name="Path 3119" d="M7525.555,2642.181c.824,1.454,2.444,5.9,4.66,2.789a1.179,1.179,0,0,0,.2-.469,26.581,26.581,0,0,0-5.227-4.742c-1.5-.6-2.726-.759-2.681-.072C7522.673,2642.415,7524.556,2640.406,7525.555,2642.181Z" fill="#1e5412" opacity="0.5"/>
            <path id="Path_3120" data-name="Path 3120" d="M7478.439,2664.049c.1,1.571,2.933,2.2,3.822,1.021C7483.389,2663.586,7478.286,2661.59,7478.439,2664.049Z" fill="#1e5412" opacity="0.5"/>
            <path id="Path_3121" data-name="Path 3121" d="M7480.435,2657.208c-.931-1.387-5.367-3.907-5.122.041C7475.475,2659.828,7481.783,2659.207,7480.435,2657.208Z" fill="#1e5412" opacity="0.5"/>
            <path id="Path_3122" data-name="Path 3122" d="M7477.446,2683.767c-1.01.5-8.629,2.048-8.565,3.042.161,2.616,6.164,3.889,7.9,3.619,1.912-.3,2.651-2.788,2.594-4.637-.035-1.1,1.708-1.057,2.154-1.2.516-.171,1.8-1.356.812-1.914C7481.044,2681.941,7478.715,2683.146,7477.446,2683.767Z" fill="#1e5412" opacity="0.5"/>
            <path id="Path_3123" data-name="Path 3123" d="M7490.521,2643.133c-.059-.954-1.016-1.887-2.215-2.587l-5.022.4C7484.149,2644.01,7490.736,2646.571,7490.521,2643.133Z" fill="#1e5412" opacity="0.5"/>
            <path id="Path_3124" data-name="Path 3124" d="M7516.878,2639.817a7.028,7.028,0,0,0-1.625-1.436l-6.529.524a13.886,13.886,0,0,1,3.613.877C7512.732,2640.021,7517.922,2641.311,7516.878,2639.817Z" fill="#1e5412" opacity="0.5"/>
            <path id="Path_3125" data-name="Path 3125" d="M7514.871,2646.47c.141,2.267,6.825,4.538,8.1,2.7C7522.749,2646.832,7514.589,2641.937,7514.871,2646.47Z" fill="#1e5412" opacity="0.5"/>
            <path id="Path_3126" data-name="Path 3126" d="M7497.9,2650.784c.788-2.265-4.462-3.958-4.3-1.452C7493.729,2651.469,7496.819,2653.9,7497.9,2650.784Z" fill="#1e5412" opacity="0.5"/>
            <path id="Path_3127" data-name="Path 3127" d="M7506.627,2642.394c-.132-2.1-9.78-3.1-9.665-1.245C7497.134,2643.914,7506.923,2647.157,7506.627,2642.394Z" fill="#1e5412" opacity="0.5"/>
            <path id="Path_3128" data-name="Path 3128" d="M7444.938,2644.582a1.61,1.61,0,0,0,.141-.563l-1.65.132C7443.47,2644.847,7444.588,2645.4,7444.938,2644.582Z" fill="#1e5412" opacity="0.5"/>
            <path id="Path_3129" data-name="Path 3129" d="M7431.069,2721.044a33.129,33.129,0,0,0,4.444-.326C7434.007,2720.17,7432.1,2720.187,7431.069,2721.044Z" fill="#1e5412" opacity="0.5"/>
            <path id="Path_3130" data-name="Path 3130" d="M7402,2652.4c1.426-2.818-11.334-5.842-10.933.591C7391.277,2656.426,7400.81,2654.734,7402,2652.4Z" fill="#1e5412" opacity="0.5"/>
            <path id="Path_3131" data-name="Path 3131" d="M7502.22,2650.93c.186,2.966,8.757,4.773,8.634,2.816C7510.706,2651.343,7501.956,2646.674,7502.22,2650.93Z" fill="#1e5412" opacity="0.5"/>
            <path id="Path_3132" data-name="Path 3132" d="M7434.752,2703.846c.365-1.044-11.355-2.827-11.076,1.666C7423.933,2709.652,7433.79,2706.617,7434.752,2703.846Z" fill="#1e5412" opacity="0.5"/>
            <path id="Path_3133" data-name="Path 3133" d="M7419.419,2717.675c.107,1.724,3.338,3.535,3.168.79C7422.45,2716.253,7419.266,2714.384,7419.419,2717.675Z" fill="#1e5412" opacity="0.5"/>
            <path id="Path_3134" data-name="Path 3134" d="M7422,2695.525c.049.776,1.872.769,2.4.354C7424,2694.379,7421.788,2692.087,7422,2695.525Z" fill="#1e5412" opacity="0.5"/>
            <path id="Path_3135" data-name="Path 3135" d="M7510.787,2644.888c-.2-.972-1.375.119-1.336.773C7509.517,2646.7,7511.064,2646.188,7510.787,2644.888Z" fill="#1e5412" opacity="0.5"/>
            <path id="Path_3136" data-name="Path 3136" d="M7466.268,2704.867c.382-.294.759-.587,1.137-.874A3.876,3.876,0,0,0,7466.268,2704.867Z" fill="#1e5412" opacity="0.5"/>
            <path id="Path_3137" data-name="Path 3137" d="M7471.958,2680.4c.781-1.126-2.375-2.456-3.25-1.575-1.894,1.893-4.466-.8-6.362.836C7462.966,2682.333,7470.4,2682.623,7471.958,2680.4Z" fill="#1e5412" opacity="0.5"/>
            <path id="Path_3138" data-name="Path 3138" d="M7462.011,2697.719c.4,2.284,9.416.783,10.571-.878C7472.171,2691.03,7463.452,2693.99,7462.011,2697.719Z" fill="#1e5412" opacity="0.5"/>
            <path id="Path_3139" data-name="Path 3139" d="M7481.023,2693.814c-.316-1.622-2.524-.98-2.776.565a1.449,1.449,0,0,0,.389,1.383c.822-.527,1.635-1.02,2.438-1.469A2.8,2.8,0,0,0,7481.023,2693.814Z" fill="#1e5412" opacity="0.5"/>
            <path id="Path_3140" data-name="Path 3140" d="M7451.083,2692.881c.32,5.16,11.494,2,11.953-1.793C7463.178,2689.1,7450.783,2688.046,7451.083,2692.881Z" fill="#1e5412" opacity="0.5"/>
            <path id="Path_3141" data-name="Path 3141" d="M7448.591,2710.355c.313,5.026,9.9-1.247,9.379-2.109C7456.435,2705.719,7449.205,2706.874,7448.591,2710.355Z" fill="#1e5412" opacity="0.5"/>
            <path id="Path_3142" data-name="Path 3142" d="M7421.473,2672.426c-.126-2.017-2.756-1.2-2.638.664C7418.939,2674.8,7421.585,2674.266,7421.473,2672.426Z" fill="#1e5412" opacity="0.5"/>
            <path id="Path_3143" data-name="Path 3143" d="M7381.961,2675.109c.281,1.294.594,2.609.938,3.934.943-.9,1.531-2.242.73-3.407A1.255,1.255,0,0,0,7381.961,2675.109Z" fill="#1e5412" opacity="0.5"/>
            <path id="Path_3144" data-name="Path 3144" d="M7383.661,2665.357c.24,3.842,5.3,2.191,5.055-1.677C7388.5,2660.227,7383.466,2662.182,7383.661,2665.357Z" fill="#1e5412" opacity="0.5"/>
            <path id="Path_3145" data-name="Path 3145" d="M7391.212,2699.249a54.286,54.286,0,0,0,3.144,4.565c3.5.617,8.194-.33,8.007-3.318C7402.32,2699.778,7393.565,2696.641,7391.212,2699.249Z" fill="#1e5412" opacity="0.5"/>
            <path id="Path_3146" data-name="Path 3146" d="M7391.777,2673.291c.125,2.015,3.762,2.812,3.618.509C7395.255,2671.57,7391.6,2670.41,7391.777,2673.291Z" fill="#1e5412" opacity="0.5"/>
            <path id="Path_3147" data-name="Path 3147" d="M7386.814,2655.549c-.119-1.9-2.653-.075-2.55,1.559S7386.9,2656.9,7386.814,2655.549Z" fill="#1e5412" opacity="0.5"/>
            <path id="Path_3148" data-name="Path 3148" d="M7402.093,2661.673c-.186-2.977-9.654-3.932-9.369.65C7392.993,2666.663,7402.157,2662.705,7402.093,2661.673Z" fill="#1e5412" opacity="0.5"/>
            <path id="Path_3149" data-name="Path 3149" d="M7397.639,2691.363c-.474-.176-.756.042-.855.661C7396.858,2693.219,7398.354,2691.828,7397.639,2691.363Z" fill="#1e5412" opacity="0.5"/>
            <path id="Path_3150" data-name="Path 3150" d="M7410.39,2709.6c-1.7-1.444-6.5-4.3-6.1,1.286.313,5.039,8.56,4.67,11.113,1.37C7417.779,2709.181,7411.141,2710.236,7410.39,2709.6Z" fill="#1e5412" opacity="0.5"/>
            <path id="Path_3151" data-name="Path 3151" d="M7414.762,2702.59c2.144-2.749-2.022-1.921-1.961-.93C7412.887,2703.046,7413.407,2704.334,7414.762,2702.59Z" fill="#1e5412" opacity="0.5"/>
            <path id="Path_3152" data-name="Path 3152" d="M7409.326,2689.969c-1.655-.919-4.708-1.791-4.622,1.77.151,2.412,12.484,5.171,12.232,1.1C7416.826,2691.1,7410.729,2690.75,7409.326,2689.969Z" fill="#1e5412" opacity="0.5"/>
            <path id="Path_3153" data-name="Path 3153" d="M7397.7,2680.084c-1.935.275-9.288-1.2-9.026,3.021.368,5.9,11.521,2.316,14.038-.409C7405.524,2679.655,7398.606,2679.955,7397.7,2680.084Z" fill="#1e5412" opacity="0.5"/>
            <path id="Path_3154" data-name="Path 3154" d="M7550.014,2661.682c.459.055,5.719-.91,4.152-1.841a7.041,7.041,0,0,0-2.073-.638l-5.732,3.171A13.859,13.859,0,0,1,7550.014,2661.682Z" fill="#1e5412" opacity="0.5"/>
            <path id="Path_3155" data-name="Path 3155" d="M7490.6,2693.855a1.6,1.6,0,0,0-.1-.572l-1.448.8C7489.367,2694.7,7490.613,2694.741,7490.6,2693.855Z" fill="#1e5412" opacity="0.5"/>
            <path id="Path_3156" data-name="Path 3156" d="M7496.639,2710.965c-1.885-3.557-7.968.373-6.672,2.818C7490.968,2715.672,7498.007,2713.547,7496.639,2710.965Z" fill="#1e5412" opacity="0.5"/>
            <path id="Path_3157" data-name="Path 3157" d="M7536.881,2678.112c1,1.891,4.82,2.832,4.52-.453C7541.185,2675.271,7535.7,2675.894,7536.881,2678.112Z" fill="#1e5412" opacity="0.5"/>
            <path id="Path_3158" data-name="Path 3158" d="M7539.2,2695.233c.894,1.689,4.981-.932,5.237-2.3C7545.1,2689.345,7536.96,2691,7539.2,2695.233Z" fill="#1e5412" opacity="0.5"/>
            <path id="Path_3159" data-name="Path 3159" d="M7545.89,2666.416c-.989-1.862-10.19,1.206-9.318,2.853C7537.869,2671.717,7548.124,2670.634,7545.89,2666.416Z" fill="#1e5412" opacity="0.5"/>
            <path id="Path_3160" data-name="Path 3160" d="M7501.558,2698.733c-1.062-2-6.574-.613-5.313,1.771C7497.42,2702.716,7502.8,2701.075,7501.558,2698.733Z" fill="#1e5412" opacity="0.5"/>
            <path id="Path_3161" data-name="Path 3161" d="M7547.577,2687.294c.836,1.58,2.913.1,2.078-1.476S7546.741,2685.719,7547.577,2687.294Z" fill="#1e5412" opacity="0.5"/>
            <path id="Path_3162" data-name="Path 3162" d="M7545.4,2676.011c1.393,2.625,9.946.735,9.027-1C7553.3,2672.887,7543.4,2672.242,7545.4,2676.011Z" fill="#1e5412" opacity="0.5"/>
            <path id="Path_3163" data-name="Path 3163" d="M7554.276,2684.775c1.365,2.576,11.061-2.748,11.376-5.021.2-1.461-5.458.6-6.692.444C7557.319,2680,7552.5,2681.429,7554.276,2684.775Z" fill="#1e5412" opacity="0.5"/>
            <path id="Path_3164" data-name="Path 3164" d="M7550.708,2666.973c-.585-.8-1.2.675-.9,1.255C7550.3,2669.143,7551.5,2668.043,7550.708,2666.973Z" fill="#1e5412" opacity="0.5"/>
            <path id="Path_3165" data-name="Path 3165" d="M7516.837,2710.783c1.468,1.126,8.943-3.207,7.842-5.46C7522.871,2704.874,7515.967,2707.183,7516.837,2710.783Z" fill="#1e5412" opacity="0.5"/>
            <path id="Path_3166" data-name="Path 3166" d="M7563.573,2665.849c-1.166-2.039-10.618-3.133-8.492.88C7556.144,2668.737,7563.17,2668.049,7563.573,2665.849Z" fill="#1e5412" opacity="0.5"/>
            <path id="Path_3167" data-name="Path 3167" d="M7563.045,2658.415c1.35.986,4.658,4.364,5.4.619a1.173,1.173,0,0,0-.013-.509,26.655,26.655,0,0,0-6.718-2.163c-1.611.073-2.8.432-2.472,1.04C7560.516,2659.817,7561.4,2657.211,7563.045,2658.415Z" fill="#1e5412" opacity="0.5"/>
            <path id="Path_3168" data-name="Path 3168" d="M7501.2,2690.1a3.264,3.264,0,0,0-2.7-1.244l-1.312.726a1.672,1.672,0,0,0,.25,1.171C7498.572,2692.9,7501.537,2690.735,7501.2,2690.1Z" fill="#1e5412" opacity="0.5"/>
            <path id="Path_3169" data-name="Path 3169" d="M7469.341,2707.053c.725,1.376,2.658,2.419,3.953,1.976,1.163-.4.547-1.723,1.012-2.65C7475.526,2703.965,7467.951,2704.432,7469.341,2707.053Z" fill="#1e5412" opacity="0.5"/>
            <path id="Path_3170" data-name="Path 3170" d="M7472.522,2732.65c1.878-4.635-13.282-3.174-10.091,2.845C7464.535,2739.47,7471.291,2735.689,7472.522,2732.65Z" fill="#1e5412" opacity="0.5"/>
            <path id="Path_3171" data-name="Path 3171" d="M7519.6,2684.222c-1.258-2.371-6.744-.4-5.3,2.324C7515.577,2688.964,7520.887,2686.662,7519.6,2684.222Z" fill="#1e5412" opacity="0.5"/>
            <path id="Path_3172" data-name="Path 3172" d="M7464.212,2718.439c-.83-1.568-2.9-.1-2.067,1.471S7465.043,2720.006,7464.212,2718.439Z" fill="#1e5412" opacity="0.5"/>
            <path id="Path_3173" data-name="Path 3173" d="M7488.544,2703.689c-1.8-3.385-8.8.451-7.637,2.653C7482.607,2709.552,7490.247,2706.906,7488.544,2703.689Z" fill="#1e5412" opacity="0.5"/>
            <path id="Path_3174" data-name="Path 3174" d="M7528.2,2681.065c-.548.15-1.357.556-.938,1.35C7528.661,2685.06,7529.206,2681.3,7528.2,2681.065Z" fill="#1e5412" opacity="0.5"/>
            <path id="Path_3175" data-name="Path 3175" d="M7523.491,2692.865c1.211,2.283,6.7-.885,4.649-2.15C7526.72,2689.836,7521.639,2689.37,7523.491,2692.865Z" fill="#1e5412" opacity="0.5"/>
            <path id="Path_3176" data-name="Path 3176" d="M7463.683,2708.113l-5.8,3.21C7459.372,2711.9,7462.128,2710.059,7463.683,2708.113Z" fill="#1e5412" opacity="0.5"/>
            <path id="Path_3177" data-name="Path 3177" d="M7541.217,2684.344c-.718-1.358-10.213-.389-8.471,3.608C7534.47,2691.2,7542.41,2686.592,7541.217,2684.344Z" fill="#1e5412" opacity="0.5"/>
            <path id="Path_3178" data-name="Path 3178" d="M7507.86,2690.569c2.231,4.207,4.116-.684,2.165-.927C7508.781,2689.485,7507.906,2689.328,7507.86,2690.569Z" fill="#1e5412" opacity="0.5"/>
            <path id="Path_3179" data-name="Path 3179" d="M7505.274,2704.809c.006.355.013.715.019,1.073a1.165,1.165,0,0,0,1.712.162C7506.679,2705.629,7505.8,2703.924,7505.274,2704.809Z" fill="#1e5412" opacity="0.5"/>
            <path id="Path_3180" data-name="Path 3180" d="M7481.819,2716.648c1.435-3.749-5.508-1.827-6.3-1.453-2.2,1.04-8.486.111-6.086,4.64C7471.2,2723.168,7480.53,2720.026,7481.819,2716.648Z" fill="#1e5412" opacity="0.5"/>
            <path id="Path_3181" data-name="Path 3181" d="M7478.574,2730.59c.8,1.519,2.991-.062,2.13-1.693C7479.757,2727.112,7477.7,2728.94,7478.574,2730.59Z" fill="#1e5412" opacity="0.5"/>
            <path id="Path_3182" data-name="Path 3182" d="M7473.711,2741.928c.488.926,2.52.733,1.831-.567C7474.841,2740.038,7473.844,2741.059,7473.711,2741.928Z" fill="#1e5412" opacity="0.5"/>
            <path id="Path_3183" data-name="Path 3183" d="M7572.031,2667.086q-.195-1.218-.435-2.37a1.7,1.7,0,0,0-.616,2.212C7571.142,2667.235,7571.592,2667.249,7572.031,2667.086Z" fill="#1e5412" opacity="0.5"/>
            <path id="Path_3184" data-name="Path 3184" d="M7509.5,2769.23a33.238,33.238,0,0,0,3.914-2.13C7511.814,2767.222,7510.082,2768.024,7509.5,2769.23Z" fill="#1e5412" opacity="0.5"/>
            <path id="Path_3185" data-name="Path 3185" d="M7511.135,2756.857c-1.339,1.168-5.921,1.37-4.07,4.863,2.027,3.823,10.954-3.493,9.352-6.513C7514.666,2751.9,7512.514,2755.662,7511.135,2756.857Z" fill="#1e5412" opacity="0.5"/>
            <path id="Path_3186" data-name="Path 3186" d="M7521.052,2752.265c2.358,4.45,8.5-5.22,7.674-5.789C7526.286,2744.807,7520.175,2748.841,7521.052,2752.265Z" fill="#1e5412" opacity="0.5"/>
            <path id="Path_3187" data-name="Path 3187" d="M7496.357,2758.13c1.941,3.665,9.67-3.165,9.4-6.086C7505.661,2750.942,7494.25,2754.152,7496.357,2758.13Z" fill="#1e5412" opacity="0.5"/>
            <path id="Path_3188" data-name="Path 3188" d="M7487.031,2759.145c.82-3.39-2.634-.916-2.169-.039C7485.511,2760.333,7486.516,2761.292,7487.031,2759.145Z" fill="#1e5412" opacity="0.5"/>
            <path id="Path_3189" data-name="Path 3189" d="M7535.566,2738.709a3.9,3.9,0,0,0-.675,1.265C7535.118,2739.55,7535.341,2739.127,7535.566,2738.709Z" fill="#1e5412" opacity="0.5"/>
            <path id="Path_3190" data-name="Path 3190" d="M7490.713,2749.722c.365.687,2.023-.071,2.327-.665C7492.057,2747.856,7489.1,2746.679,7490.713,2749.722Z" fill="#1e5412" opacity="0.5"/>
            <path id="Path_3191" data-name="Path 3191" d="M7485.942,2767.337c-2.142-.614-7.695-1.239-5.03,3.69,2.363,4.461,9.724.723,10.689-3.336C7492.5,2763.9,7486.887,2767.6,7485.942,2767.337Z" fill="#1e5412" opacity="0.5"/>
            <path id="Path_3192" data-name="Path 3192" d="M7487.327,2735.833c-1.807-.68-5.85-.792-3.984,2.87,2.291,4.324,11.109.4,9.541-2.561C7491.51,2733.6,7489.214,2736.543,7487.327,2735.833Z" fill="#1e5412" opacity="0.5"/>
            <path id="Path_3193" data-name="Path 3193" d="M7497.5,2770.966c.808,1.526,4.5,1.844,3.211-.588C7499.67,2768.421,7496,2768.031,7497.5,2770.966Z" fill="#1e5412" opacity="0.5"/>
            <path id="Path_3194" data-name="Path 3194" d="M7522.745,2742.435c-1.082-2.043-9.192.811-7.923,3.2C7516.721,2749.218,7523.689,2744.216,7522.745,2742.435Z" fill="#1e5412" opacity="0.5"/>
            <path id="Path_3195" data-name="Path 3195" d="M7528.066,2735.219c1.308,1.914,8.9-3.171,9.267-5.16C7534.562,2724.935,7527.839,2731.228,7528.066,2735.219Z" fill="#1e5412" opacity="0.5"/>
            <path id="Path_3196" data-name="Path 3196" d="M7563.961,2688.042c-.244.172-1.348-.827-1.9-.434-1.289.912-1.574,2.2-3.289,2.447-2.1.3-7.789.675-5.365,5.248,1.5,2.835,5.163-.356,5.933-2.141.907-2.107.758-1.966,2.718-3.3C7562.438,2689.6,7563.9,2688.8,7563.961,2688.042Z" fill="#1e5412" opacity="0.5"/>
            <path id="Path_3197" data-name="Path 3197" d="M7565.274,2695.352c-.794,1.607-.115,2.051-1.761,2.437-.848.2-3.243.3-2.442,1.808a3.36,3.36,0,0,0,2.6,1.89,62.4,62.4,0,0,0,5.343-9.423A10.932,10.932,0,0,0,7565.274,2695.352Z" fill="#1e5412" opacity="0.5"/>
            <path id="Path_3198" data-name="Path 3198" d="M7561.913,2673.894c.525.989,8.187.3,7.006-1.927C7568.832,2671.8,7561.2,2672.555,7561.913,2673.894Z" fill="#1e5412" opacity="0.5"/>
            <path id="Path_3199" data-name="Path 3199" d="M7571.179,2686.162c.309-1.087.578-2.176.779-3.269-1.075,1.226-1.984,2.552-1.932,2.927C7570.247,2686.237,7570.67,2686.309,7571.179,2686.162Z" fill="#1e5412" opacity="0.5"/>
            <path id="Path_3200" data-name="Path 3200" d="M7557.341,2705.793c-2.886-1.4-1.554,2.853-3.122,2.721-1.664-.144-3.05,2.227-3.732,3.555C7551.687,2714.333,7561.809,2707.96,7557.341,2705.793Z" fill="#1e5412" opacity="0.5"/>
            <path id="Path_3201" data-name="Path 3201" d="M7540.376,2713.129c-1.48-.134-3.1,1.924-4,3.014-.715.868-7.016,5.425-6.548,6.3,1.226,2.317,7.219,1,8.685.041,1.62-1.058,1.266-3.633.451-5.294-.484-.985,1.12-1.668,1.465-1.985C7540.825,2714.84,7541.5,2713.232,7540.376,2713.129Z" fill="#1e5412" opacity="0.5"/>
            <path id="Path_3202" data-name="Path 3202" d="M7541.221,2705.449c1.177,2.222,3.145,2.221,4.577.573,1.12-1.291,4.908-4.391,5.008-6.356C7551.116,2693.688,7539.2,2701.64,7541.221,2705.449Z" fill="#1e5412" opacity="0.5"/>
            <path id="Path_3203" data-name="Path 3203" d="M7541.479,2725.479a1.446,1.446,0,0,0,.924,1.1q.8-1.23,1.615-2.344a2.731,2.731,0,0,0-.244-.415C7542.817,2722.472,7541.07,2723.968,7541.479,2725.479Z" fill="#1e5412" opacity="0.5"/>
            <path id="Path_3204" data-name="Path 3204" d="M7543.838,2715.419c.825,1.554,2.88.095,2.056-1.465S7543.013,2713.86,7543.838,2715.419Z" fill="#1e5412" opacity="0.5"/>
            <path id="Path_3205" data-name="Path 3205" d="M7512.47,2728.8c1.011-3.032-3.8-1.813-2.74.19A1.49,1.49,0,0,0,7512.47,2728.8Z" fill="#1e5412" opacity="0.5"/>
            <path id="Path_3206" data-name="Path 3206" d="M7517.837,2700.84c-1.174-2.213-6.837-.471-5.94,1.224C7513.023,2704.186,7518.594,2702.267,7517.837,2700.84Z" fill="#1e5412" opacity="0.5"/>
            <path id="Path_3207" data-name="Path 3207" d="M7484.99,2749.365c-.818-1.54-6.516.657-8.117.524-1.886-.154-5.027.31-3.48,3.519C7474.526,2755.543,7486.9,2752.97,7484.99,2749.365Z" fill="#1e5412" opacity="0.5"/>
            <path id="Path_3208" data-name="Path 3208" d="M7533.046,2697.124c.416-1.817-5.057-1.531-3.9.647C7529.879,2699.161,7532.723,2698.567,7533.046,2697.124Z" fill="#1e5412" opacity="0.5"/>
            <path id="Path_3209" data-name="Path 3209" d="M7513.919,2715.073c1.116-4.729-8.047-.764-6.743,1.7C7508.426,2719.129,7513.39,2717.3,7513.919,2715.073Z" fill="#1e5412" opacity="0.5"/>
            <path id="Path_3210" data-name="Path 3210" d="M7529.981,2715.334c.247-1.348-3.176-1.257-3.61-.093-.945,2.505-4.4,1.112-5.451,3.385C7522.589,2720.808,7529.483,2718.006,7529.981,2715.334Z" fill="#1e5412" opacity="0.5"/>
            <path id="Path_3211" data-name="Path 3211" d="M7500.291,2720.807c-1.642-3.1-4.824.606-6.737.524-2.18-.092-8.29-.246-5.836,4.387C7490.4,2730.781,7502.142,2724.3,7500.291,2720.807Z" fill="#1e5412" opacity="0.5"/>
            <path id="Path_3212" data-name="Path 3212" d="M7535.24,2704.317c-1.427-2.621-5.238,2-4.294,3.788C7531.7,2709.528,7536.651,2706.906,7535.24,2704.317Z" fill="#1e5412" opacity="0.5"/>
            <path id="Path_3213" data-name="Path 3213" d="M7509.928,2737.869c-1.32-2.495-12.59.312-10.257,4.712C7501.939,2746.866,7510.534,2739.012,7509.928,2737.869Z" fill="#1e5412" opacity="0.5"/>
            <path id="Path_3214" data-name="Path 3214" d="M7510.838,2748.4c.243-2.193-2.7-1.064-1.937.374C7509.3,2749.519,7510.8,2749.382,7510.838,2748.4Z" fill="#1e5412" opacity="0.5"/>
            <path id="Path_3215" data-name="Path 3215" d="M7503.5,2730.186c-.971-1.831-3.074.187-2.328,1.594C7502.036,2733.414,7504.417,2731.917,7503.5,2730.186Z" fill="#1e5412" opacity="0.5"/>
            <path id="Path_3216" data-name="Path 3216" d="M7526.264,2728.755c-.69-1.869-12.417,2.284-10.149,6.563C7518.534,2739.887,7527.41,2732.4,7526.264,2728.755Z" fill="#1e5412" opacity="0.5"/>
            <path id="Path_3217" data-name="Path 3217" d="M7457.513,2740.906c-1.046-1.974-4.857-1.522-3.505,1.028C7454.953,2743.719,7458.6,2742.944,7457.513,2740.906Z" fill="#1e5412" opacity="0.5"/>
            <path id="Path_3218" data-name="Path 3218" d="M7467.848,2745.993c1.308-3.932-4.87-.8-5.643-.313-1.649,1.049-8.955,2.741-6.976,6.475C7458,2757.376,7466.679,2749.512,7467.848,2745.993Z" fill="#1e5412" opacity="0.5"/>
            <path id="Path_3219" data-name="Path 3219" d="M7458.614,2727.1c-1.4-2.635-10.417.4-8.267,4.456C7452.382,2735.394,7459.1,2728.009,7458.614,2727.1Z" fill="#1e5412" opacity="0.5"/>
            <path id="Path_3220" data-name="Path 3220" d="M7464.2,2765.814a54.032,54.032,0,0,0,4.747,2.862c3.443-.882,7.328-3.68,5.926-6.325C7474.538,2761.715,7465.268,2762.468,7464.2,2765.814Z" fill="#1e5412" opacity="0.5"/>
            <path id="Path_3221" data-name="Path 3221" d="M7466.3,2756.934c.561,1.058,1.349-.826.506-.955C7466.3,2756.014,7466.131,2756.33,7466.3,2756.934Z" fill="#1e5412" opacity="0.5"/>
            <path id="Path_3222" data-name="Path 3222" d="M7447.256,2734.441c-1.62-3.057-5.4.8-3.914,3.614C7445.146,2741.455,7449.071,2737.865,7447.256,2734.441Z" fill="#1e5412" opacity="0.5"/>
            <path id="Path_3223" data-name="Path 3223" d="M7444.984,2723.735c1.613,3.041,9.6-2.431,9.717-5.048C7454.837,2715.533,7441.966,2718.04,7444.984,2723.735Z" fill="#1e5412" opacity="0.5"/>
            <path id="Path_3224" data-name="Path 3224" d="M7440.489,2730.291c.76,1.435,2.317-1.275,1.68-2.472C7441.276,2726.134,7439.722,2728.845,7440.489,2730.291Z" fill="#1e5412" opacity="0.5"/>
            <path id="Path_3225" data-name="Path 3225" d="M7447.553,2747.432a1.254,1.254,0,0,0-1.737.207c.789,1.063,1.618,2.132,2.477,3.2C7448.78,2749.625,7448.763,2748.162,7447.553,2747.432Z" fill="#1e5412" opacity="0.5"/>
            <path id="Path_3226" data-name="Path 3226" d="M7524.029,2674.728c2.05,2.432,9.108,2.048,7.494-1-.448-.844-1.7-1.3-3.085-1.443Z" fill="#1e5412" opacity="0.5"/>
          </g>
        </g>
      </g>
      <g id="Group_1360" data-name="Group 1360" opacity="0.6" style="mix-blend-mode: multiply;isolation: isolate">
        <path id="Path_3228" data-name="Path 3228" d="M7519.91,2695.908a39.052,39.052,0,0,0-10.331-20.553c.062.289.141.567.194.861,2.407,13.306-4.745,26.722-20.047,28.008-12.779,1.116-24.326-7.047-25.943-20.4a25.118,25.118,0,0,1,.968-10.536,37.473,37.473,0,0,0-13.943,34.05c2.429,20.07,19.779,32.335,38.981,30.659C7512.781,2736.059,7523.527,2715.9,7519.91,2695.908Z" fill="#01cb2d"/>
      </g>
      <g id="Group_1361" data-name="Group 1361" opacity="0.6" style="mix-blend-mode: multiply;isolation: isolate">
        <path id="Path_3229" data-name="Path 3229" d="M7519.911,2695.908c-3.6-19.876-19.8-32.987-38.889-29.832-19.031,3.147-32.647,21.189-30.215,41.259s19.78,32.333,38.983,30.658C7512.782,2736.059,7523.528,2715.9,7519.911,2695.908Zm-31.225,30.452c-16.1,1.4-30.64-8.876-32.676-25.7s9.374-31.946,25.326-34.584c16-2.645,29.578,8.345,32.6,25.006C7516.967,2707.842,7507.959,2724.739,7488.686,2726.36Z" fill="#01cb2d"/>
      </g>
      <ellipse id="Ellipse_49" data-name="Ellipse 49" cx="9.612" cy="5.997" rx="9.612" ry="5.997" transform="translate(7476.996 2670.755)" fill="#8cc63f" style="mix-blend-mode: screen;isolation: isolate"/>
      <g id="Group_1362" data-name="Group 1362">
        <path id="Path_3230" data-name="Path 3230" d="M7486.646,2665.608c16.577,0,30.022,12.41,33.265,30.3,3.617,19.994-7.129,40.151-30.122,42.085q-1.753.153-3.485.153c-17.775,0-33.215-11.964-35.5-30.812-2.433-20.07,11.183-38.111,30.213-41.258a34.4,34.4,0,0,1,5.625-.468m0-9.6a44.231,44.231,0,0,0-7.19.6,45.58,45.58,0,0,0-29.311,18.049,47.147,47.147,0,0,0-8.868,33.837,44.123,44.123,0,0,0,15.295,28.669,46.2,46.2,0,0,0,29.732,10.587c1.431,0,2.884-.064,4.32-.189,12.493-1.051,23.327-6.767,30.475-16.094,7.712-10.062,10.722-23.644,8.259-37.264-4.077-22.488-21.64-38.191-42.712-38.191Z" fill="#fff"/>
        <path id="Path_3231" data-name="Path 3231" d="M7486.646,2665.608c16.577,0,30.022,12.41,33.265,30.3,3.617,19.994-7.129,40.151-30.122,42.085q-1.753.153-3.485.153c-17.775,0-33.215-11.964-35.5-30.812-2.433-20.07,11.183-38.111,30.213-41.258a34.4,34.4,0,0,1,5.625-.468m0-8a42.588,42.588,0,0,0-6.93.575,43.981,43.981,0,0,0-28.285,17.421,45.545,45.545,0,0,0-8.566,32.693,42.52,42.52,0,0,0,14.735,27.637,44.6,44.6,0,0,0,28.7,10.212c1.385,0,2.792-.062,4.181-.183,12.218-1.028,22.374-6.379,29.344-15.473,7.439-9.705,10.338-22.829,7.954-36.006-3.936-21.713-20.852-36.876-41.136-36.876Z"/>
      </g>
    </g>
  </g>
</svg>
