<svg xmlns="http://www.w3.org/2000/svg" xmlns:xlink="http://www.w3.org/1999/xlink" width="302.979" height="372.8" viewBox="0 0 302.979 372.8">
  <defs>
    <linearGradient id="linear-gradient" x1="0.5" y1="-0.408" x2="0.5" y2="1.023" gradientUnits="objectBoundingBox">
      <stop offset="0" stop-color="#fb242b"/>
      <stop offset="1" stop-color="#fb242b"/>
    </linearGradient>
  </defs>
  <g id="Subject2" transform="translate(-28.138 -5720.545)">
    <g id="Group_9990" data-name="Group 9990">
      <g id="Group_9989" data-name="Group 9989">
        <g id="Group_9988" data-name="Group 9988">
          <path id="Path_23359" data-name="Path 23359" d="M62.248,6089.875c-5.063,0-11.578-.219-17.066-1.927-11.51-3.58-13.181-12.144-13.365-15.66-.163-3.121-.3-323.759-.139-329.887.165-6.345,3.034-11.085,8.305-13.735a17.094,17.094,0,0,1,5.5-2.856c4.669-1.5,10.965-1.795,20.261-1.795h.463c23.48,0,229.8.07,243.961.921,5.659.34,10.074,2.314,13.123,5.868,1.2,1.393,2.227,2.6,3.132,55.178.479,27.8.825,65.639,1.03,112.472.351,80.043.165,163.479-.069,167.347-.072,1.2-.143,2.366-.194,3.546-.214,4.843-1.362,11.67-8.773,15.439a17.065,17.065,0,0,1-4.447,2.5c-.691.27-1.2.508-1.655.717-2.953,1.365-4.305,1.758-15.573,1.758-2.207,0-220.657,0-224.3-.015H72.1c-1.261,0-2.689.028-4.2.057C66.06,6089.839,64.2,6089.875,62.248,6089.875Z" fill="url(#linear-gradient)"/>
          <path id="Path_23360" data-name="Path 23360" d="M66.208,5727.486c19.745,0,229.645.066,243.753.914,4.685.281,8.284,1.851,10.7,4.663,4.093,4.774,3.69,325.466,3.263,332.529-.071,1.17-.144,2.378-.2,3.6-.193,4.406-1.2,9.774-7.191,12.653a13.521,13.521,0,0,1-3.822,2.206c-4.24,1.653-2.511,2.238-15.967,2.238-10.432,0-220.719,0-224.284-.015H72.1c-1.285,0-2.737.028-4.273.058-1.792.035-3.646.071-5.582.071-4.817,0-10.992-.2-16.035-1.77-9.089-2.827-10.749-9.063-10.93-12.529-.125-2.389-.315-322.743-.136-329.615.135-5.185,2.394-8.842,6.72-10.883a13.524,13.524,0,0,1,4.679-2.5c4.236-1.361,10.247-1.627,19.2-1.627h.463m0-6.941h-.465c-9.873,0-16.2.313-21.323,1.961a20.647,20.647,0,0,0-6.316,3.223c-6.2,3.252-9.7,9.107-9.9,16.581-.16,6.133-.021,327.034.143,330.159.222,4.241,2.2,14.565,15.8,18.793,5.934,1.846,12.788,2.083,18.1,2.083,1.975,0,3.837-.036,5.637-.07l.079,0c1.421-.028,2.889-.057,4.139-.057h.346c3.651.015,222.087.015,224.294.015,11.377,0,13.385-.394,17.029-2.079.455-.21.885-.409,1.458-.632a20.613,20.613,0,0,0,5.066-2.8c6.495-3.438,9.98-9.564,10.361-18.221.051-1.175.122-2.333.19-3.455.238-3.937.428-87.5.078-167.606-.2-46.848-.553-84.7-1.031-112.517-.927-53.831-1.818-54.869-3.968-57.376-2.533-2.954-7.286-6.578-15.549-7.074-14.248-.856-220.676-.922-244.167-.927Z" fill="#fff"/>
          <path id="Path_23361" data-name="Path 23361" d="M66.208,5727.486c19.745,0,229.645.066,243.753.914,4.685.281,8.284,1.851,10.7,4.663,4.093,4.774,3.69,325.466,3.263,332.529-.071,1.17-.144,2.378-.2,3.6-.193,4.406-1.2,9.774-7.191,12.653a13.521,13.521,0,0,1-3.822,2.206c-4.24,1.653-2.511,2.238-15.967,2.238-10.432,0-220.719,0-224.284-.015H72.1c-1.285,0-2.737.028-4.273.058-1.792.035-3.646.071-5.582.071-4.817,0-10.992-.2-16.035-1.77-9.089-2.827-10.749-9.063-10.93-12.529-.125-2.389-.315-322.743-.136-329.615.135-5.185,2.394-8.842,6.72-10.883a13.524,13.524,0,0,1,4.679-2.5c4.236-1.361,10.247-1.627,19.2-1.627h.463m0-5.205h-.464c-9.469,0-15.907.307-20.792,1.877a18.863,18.863,0,0,0-5.911,3.04c-5.695,2.938-8.92,8.295-9.1,15.157-.159,6.132-.022,326.9.141,330.023.2,3.879,2.03,13.323,14.583,17.227,5.712,1.777,12.4,2,17.581,2,1.964,0,3.822-.036,5.619-.07l.064,0c1.43-.028,2.908-.057,4.172-.057h.348c3.659.015,222.085.015,224.292.015,11.03,0,12.937-.363,16.3-1.919.48-.221.933-.431,1.556-.674a18.789,18.789,0,0,0,4.758-2.651c9.032-4.7,9.432-13.8,9.566-16.829.052-1.19.123-2.362.192-3.5.236-3.9.424-87.407.073-167.48-.2-46.84-.551-84.688-1.03-112.494-.916-53.206-1.852-54.3-3.55-56.277-3.366-3.925-8.189-6.1-14.336-6.471-14.208-.854-220.579-.919-244.064-.923Z"/>
        </g>
      </g>
      <path id="Path_23362" data-name="Path 23362" d="M317.714,5735.439c-1.681-2.013-4.248-3.1-7.849-3.322-14.041-.866-224.011-.929-243.769-.933h-.465c-8.353,0-14.279.247-18,1.476a9.046,9.046,0,0,0-3.682,2.134c-3.222,1.363-4.723,3.725-4.82,7.539-.175,6.928.009,327.433.131,329.832.218,4.284,2.91,7.281,8,8.907,4.533,1.449,10.327,1.635,14.869,1.635,1.9,0,3.738-.037,5.514-.073,1.56-.031,3.033-.06,4.366-.06h.368c3.535.015,214.017.016,224.471.016,12.759,0,10.87-.548,14.547-2.02a9.076,9.076,0,0,0,3.058-1.918c4.128-1.8,5.1-4.961,5.292-9.447.055-1.285.13-2.554.2-3.782C320.335,6058.821,320.67,5738.98,317.714,5735.439Z"/>
      <path id="Path_23363" data-name="Path 23363" d="M308.87,5733.659c-14.733-.909-238.341-.912-241.41-.913h-.13c-16.725,0-22.06,1.028-22.238,8.077-.17,6.717.006,326.962.127,329.348.417,8.182,11.327,9.243,21.334,9.243,3.5,0,6.893-.13,9.685-.13H76.6c3.513.015,213.52.016,222.382.016,22.9,0,18.177-13.653,18.547-22.291.318-7.433,1.284-313.812-1.294-318.834C314.911,5735.592,312.646,5733.892,308.87,5733.659Z" fill="#fff"/>
    </g>
  </g>
</svg>
