<svg xmlns="http://www.w3.org/2000/svg" xmlns:xlink="http://www.w3.org/1999/xlink" width="396.735" height="49.563" viewBox="0 0 396.735 49.563">
  <defs>
    <linearGradient id="linear-gradient" x1="0.5" y1="-0.092" x2="0.5" y2="1.09" gradientUnits="objectBoundingBox">
      <stop offset="0" stop-color="#00ffd5"/>
      <stop offset="1" stop-color="#01cb2d"/>
    </linearGradient>
  </defs>
  <g id="subscribe1" transform="translate(0 0)">
    <g id="subscribe1-2" data-name="subscribe1" transform="translate(-401.042 -1302.156)">
      <g id="Group_465" data-name="Group 465">
        <path id="Path_765" data-name="Path 765" d="M428.049,1349.31c-4.1,0-9.382-.177-13.809-1.554-9.144-2.844-10.47-9.622-10.615-12.4-.106-2.022-.263-10.451-.113-16.189.131-5.03,2.406-8.78,6.586-10.866a13.527,13.527,0,0,1,4.392-2.288c3.76-1.208,8.866-1.445,16.414-1.445h.875c56.481.01,338.788.094,349.724.75,4.5.271,8.007,1.833,10.419,4.646,3.657,4.265,3.719,12.177,3.24,20.093-.057.948-.116,1.918-.159,2.9-.17,3.856-1.082,9.292-6.969,12.267a13.594,13.594,0,0,1-3.555,2.006c-3.776,1.47-9.126,1.991-20.446,1.991-3.245,0-324.691,0-327.656-.013h-.289c-1.01,0-2.158.023-3.372.047C431.175,1349.28,429.646,1349.31,428.049,1349.31Z" fill="#fff"/>
        <path id="Path_766" data-name="Path 766" d="M431.282,1306.973c16.123,0,338.557.054,350.077.746,3.826.23,6.764,1.511,8.734,3.808,3.342,3.9,3.014,12.613,2.665,18.38-.058.955-.117,1.942-.161,2.942-.159,3.6-.981,7.981-5.873,10.331a11.02,11.02,0,0,1-3.12,1.8c-3.463,1.349-8.584,1.827-19.571,1.827-8.518,0-324.736,0-327.646-.012H436.1c-1.05,0-2.235.023-3.49.048-1.463.028-2.976.057-4.557.057-3.933,0-8.976-.164-13.094-1.445-7.421-2.308-8.777-7.4-8.925-10.23-.1-1.951-.257-10.389-.111-16,.111-4.233,1.956-7.22,5.487-8.886a11.039,11.039,0,0,1,3.821-2.037c3.459-1.112,8.367-1.329,15.677-1.329h.378m0-4.817H430.9c-7.975,0-13.071.248-17.151,1.56a16.015,16.015,0,0,0-4.959,2.542c-4.814,2.5-7.539,7.039-7.69,12.842s.008,14.328.116,16.378c.172,3.285,1.715,11.284,12.3,14.578,4.736,1.474,10.25,1.663,14.524,1.663,1.617,0,3.145-.03,4.622-.059,1.2-.023,2.4-.047,3.425-.047h.282c2.939.012,324.409.012,327.655.012,11.8,0,17.183-.544,21.319-2.155a15.986,15.986,0,0,0,3.986-2.214c7.621-3.992,7.959-11.644,8.071-14.2.043-.971.1-1.926.157-2.852.509-8.432.4-16.9-3.816-21.817-1.961-2.287-5.652-5.094-12.1-5.481-10.95-.658-293.075-.744-349.52-.755Z" fill="#fff"/>
        <path id="Path_767" data-name="Path 767" d="M431.282,1306.973c16.123,0,338.557.054,350.077.746,3.826.23,6.764,1.511,8.734,3.808,3.342,3.9,3.014,12.613,2.665,18.38-.058.955-.117,1.942-.161,2.942-.159,3.6-.981,7.981-5.873,10.331a11.02,11.02,0,0,1-3.12,1.8c-3.463,1.349-8.584,1.827-19.571,1.827-8.518,0-324.736,0-327.646-.012H436.1c-1.05,0-2.235.023-3.49.048-1.463.028-2.976.057-4.557.057-3.933,0-8.976-.164-13.094-1.445-7.421-2.308-8.777-7.4-8.925-10.23-.1-1.951-.257-10.389-.111-16,.111-4.233,1.956-7.22,5.487-8.886a11.039,11.039,0,0,1,3.821-2.037c3.459-1.112,8.367-1.329,15.677-1.329h.378m0-3.613H430.9c-7.669,0-12.873.246-16.782,1.5a14.8,14.8,0,0,0-4.676,2.414c-4.53,2.306-7,6.4-7.138,11.855-.15,5.766.008,14.247.115,16.284.158,3.033,1.592,10.422,11.459,13.491,4.582,1.425,9.978,1.608,14.167,1.608,1.606,0,3.128-.029,4.6-.058,1.2-.023,2.414-.047,3.447-.047h.284c2.946.013,324.407.013,327.653.013,11.633,0,16.9-.523,20.882-2.073a14.743,14.743,0,0,0,3.772-2.111c7.1-3.663,7.414-10.842,7.519-13.23.043-.977.1-1.939.158-2.871.494-8.18.408-16.371-3.528-20.961-2.632-3.069-6.42-4.773-11.26-5.063-10.917-.656-293.02-.742-349.461-.753Z"/>
      </g>
    </g>
    <path id="Path_768" data-name="Path 768" d="M787.068,1313.467c-1.372-1.644-3.469-2.531-6.409-2.713-11.465-.707-81.066-.758-97.2-.761h-.379c-6.822,0-11.66.2-14.7,1.2a7.388,7.388,0,0,0-3.007,1.743c-2.631,1.113-3.856,3.041-3.935,6.155-.144,5.657.007,14.219.107,16.178.178,3.5,2.376,5.945,6.532,7.273,3.7,1.183,8.433,1.335,12.141,1.335,1.551,0,3.052-.03,4.5-.059,1.273-.026,2.476-.05,3.565-.05h.3c2.886.013,66.372.013,74.908.013,10.419,0,15.409-.447,18.412-1.649a7.453,7.453,0,0,0,2.5-1.566c3.37-1.472,4.164-4.052,4.321-7.714.045-1.05.106-2.086.165-3.088C789.208,1324.378,789.482,1316.359,787.068,1313.467Z" transform="translate(-401.042 -1302.156)"/>
    <path id="Path_769" data-name="Path 769" d="M779.846,1312.014c-12.03-.743-92.766-.745-95.272-.746h-.106c-13.657,0-18.013.839-18.159,6.6-.139,5.484.005,13.834.1,15.782.34,6.681,9.249,7.547,17.42,7.547,2.859,0,5.629-.106,7.909-.106h.3c2.869.012,65.967.012,73.2.012,18.7,0,21.375-1.348,21.677-8.4C787.313,1323.505,788.919,1312.573,779.846,1312.014Z" transform="translate(-401.042 -1302.156)" fill="url(#linear-gradient)"/>
    <g id="Group_468" data-name="Group 468" transform="translate(-401.042 -1302.156)">
      <path id="Path_770" data-name="Path 770" d="M778.21,1325.66a6.885,6.885,0,0,0-1.748-2.4,28.79,28.79,0,0,0-2.947-2.455q-1.64-1.2-3.277-2.187t-2.675-1.528a9.117,9.117,0,0,0-1.611-.682,5.254,5.254,0,0,0-1.556-.246,4.525,4.525,0,0,0-3.03,1.094,8.9,8.9,0,0,0-1.463,1.591c-.123-.076-.247-.154-.37-.229q-1.635-.981-2.675-1.528a9.124,9.124,0,0,0-1.612-.682,5.247,5.247,0,0,0-1.555-.246,4.528,4.528,0,0,0-3.031,1.094,8.7,8.7,0,0,0-2.047,2.509,2.437,2.437,0,0,0,.382,3.17,22.221,22.221,0,0,0,2.24,1.964q1.146.875,2.4,1.691-.6.165-1.093.3c-.328.092-.672.19-1.036.3a6.121,6.121,0,0,0-2.293,1.365,3.082,3.082,0,0,0-.984,2.349,8.416,8.416,0,0,0,1.336,4.586q1.231,1.748,4.343,1.748a13.3,13.3,0,0,0,5.021-1.093c.471-.192.927-.4,1.372-.618.826,1.138,2.259,1.711,4.313,1.711a13.3,13.3,0,0,0,5.021-1.093,20,20,0,0,0,4.8-2.758,12.429,12.429,0,0,0,3.277-3.712A4.808,4.808,0,0,0,778.21,1325.66Z"/>
      <g id="Group_467" data-name="Group 467">
        <path id="Path_771" data-name="Path 771" d="M763.589,1324.369a21.987,21.987,0,0,1-2.24-1.964,2.437,2.437,0,0,1-.382-3.17,8.7,8.7,0,0,1,2.047-2.509,4.525,4.525,0,0,1,3.031-1.093,5.247,5.247,0,0,1,1.555.246,9.182,9.182,0,0,1,1.611.681q1.041.546,2.675,1.529t3.277,2.186a28.924,28.924,0,0,1,2.948,2.456,6.882,6.882,0,0,1,1.747,2.4,4.807,4.807,0,0,1-.491,4.014,12.431,12.431,0,0,1-3.277,3.712,19.961,19.961,0,0,1-4.805,2.758,13.3,13.3,0,0,1-5.021,1.094q-3.115,0-4.343-1.748a8.41,8.41,0,0,1-1.336-4.586,3.085,3.085,0,0,1,.983-2.349,6.13,6.13,0,0,1,2.293-1.366c.365-.11.708-.207,1.037-.3s.69-.193,1.093-.3Q764.734,1325.243,763.589,1324.369Z"/>
        <path id="Path_772" data-name="Path 772" d="M765.526,1324.422c.456.294.927.6,1.419.931s.927.637,1.31.927.556.509.521.655a.43.43,0,0,1-.439.328,2.494,2.494,0,0,1-.9-.246,1.8,1.8,0,0,0-1.392.083,8.128,8.128,0,0,1-1.094.353,8.924,8.924,0,0,0-1.09.355,3.042,3.042,0,0,0-.518.273,2.966,2.966,0,0,1-.522.276,2.236,2.236,0,0,0-1.146,2.292q.165.765.275,1.529a6.609,6.609,0,0,0,.383,1.475,3.232,3.232,0,0,0,1.555,1.556,5.665,5.665,0,0,0,2.376.462,12.288,12.288,0,0,0,4.532-.981,18.18,18.18,0,0,0,4.423-2.512,12.832,12.832,0,0,0,3.084-3.333,3.673,3.673,0,0,0,.465-3.439,5.567,5.567,0,0,0-1.668-2.183,33.306,33.306,0,0,0-2.947-2.35q-1.609-1.146-3.22-2.073c-1.076-.619-1.9-1.093-2.486-1.419a3.749,3.749,0,0,0-1.2-.519,5.106,5.106,0,0,0-1.146-.136,3.718,3.718,0,0,0-2.483.9,7.352,7.352,0,0,0-1.774,2.266,1.379,1.379,0,0,0,.272,1.8q.6.6,1.23,1.12c.417.346.844.681,1.283,1.01C764.771,1323.934,765.07,1324.132,765.526,1324.422Z" fill="#fc3"/>
        <path id="Path_773" data-name="Path 773" d="M752.883,1324.369a22.1,22.1,0,0,1-2.24-1.964,2.438,2.438,0,0,1-.382-3.17,8.714,8.714,0,0,1,2.047-2.509,4.527,4.527,0,0,1,3.031-1.093,5.247,5.247,0,0,1,1.555.246,9.191,9.191,0,0,1,1.612.681q1.039.546,2.675,1.529t3.276,2.186a28.918,28.918,0,0,1,2.948,2.456,6.887,6.887,0,0,1,1.748,2.4,4.812,4.812,0,0,1-.492,4.014,12.417,12.417,0,0,1-3.277,3.712,19.94,19.94,0,0,1-4.8,2.758,13.3,13.3,0,0,1-5.021,1.094q-3.115,0-4.343-1.748a8.419,8.419,0,0,1-1.336-4.586,3.083,3.083,0,0,1,.984-2.349,6.122,6.122,0,0,1,2.293-1.366c.364-.11.708-.207,1.036-.3s.691-.193,1.094-.3Q754.028,1325.243,752.883,1324.369Z"/>
        <path id="Path_774" data-name="Path 774" d="M754.82,1324.422c.457.294.928.6,1.419.931s.928.637,1.31.927.557.509.521.655a.43.43,0,0,1-.438.328,2.5,2.5,0,0,1-.9-.246,1.8,1.8,0,0,0-1.392.083,8.161,8.161,0,0,1-1.093.353,8.812,8.812,0,0,0-1.09.355,3.015,3.015,0,0,0-.519.273,2.994,2.994,0,0,1-.521.276,2.235,2.235,0,0,0-1.147,2.292q.165.765.276,1.529a6.555,6.555,0,0,0,.382,1.475,3.236,3.236,0,0,0,1.555,1.556,5.671,5.671,0,0,0,2.376.462,12.293,12.293,0,0,0,4.533-.981,18.216,18.216,0,0,0,4.423-2.512,12.844,12.844,0,0,0,3.083-3.333,3.677,3.677,0,0,0,.466-3.439,5.586,5.586,0,0,0-1.668-2.183,33.486,33.486,0,0,0-2.948-2.35q-1.608-1.146-3.22-2.073t-2.486-1.419a3.744,3.744,0,0,0-1.2-.519,5.107,5.107,0,0,0-1.147-.136,3.715,3.715,0,0,0-2.482.9,7.355,7.355,0,0,0-1.775,2.266,1.38,1.38,0,0,0,.273,1.8c.4.4.808.773,1.229,1.12s.844.681,1.283,1.01C754.065,1323.934,754.364,1324.132,754.82,1324.422Z" fill="#fc3"/>
      </g>
    </g>
    <path id="Path_775" data-name="Path 775" d="M771.215,1314.261c6.117-1.566,15.654.362,13.016,8.61a11.063,11.063,0,0,0-1.243-4.165,5.567,5.567,0,0,0-1.721-1.712c-3.041-1.727-6.654-1.845-10.052-2.733Z" transform="translate(-401.042 -1302.156)" fill="#fff"/>
    <path id="Path_776" data-name="Path 776" d="M683.692,1338.2c-6.117,1.566-15.655-.362-13.016-8.609a11.053,11.053,0,0,0,1.243,4.164,5.571,5.571,0,0,0,1.721,1.713c3.041,1.726,6.654,1.844,10.052,2.732Z" transform="translate(-401.042 -1302.156)" fill="#fff"/>
  </g>
</svg>
