<svg xmlns="http://www.w3.org/2000/svg" width="128.395" height="127.71" viewBox="0 0 128.395 127.71">
  <g id="Group_3579" data-name="Group 3579" transform="translate(-9539.438 -1850.351)">
    <g id="Group_3578" data-name="Group 3578">
      <g id="Group_3577" data-name="Group 3577">
        <path id="Path_10604" data-name="Path 10604" d="M9667.262,1957.692l-14.378-32.769a12.641,12.641,0,0,0-10.44-7.511l-.664-.06,1.156-12.835a1.775,1.775,0,0,0-1.608-1.929l-3.966-.358.617-6.857c.607.093,1.194.162,1.752.213h0c5.63.508,11.846-.6,14.151-2.526,4.166-3.477.576-12.4-5.295-19.872l5.483-4.682a5.745,5.745,0,1,0-2.284-2.72l-5.491,4.688c-4.9-5.4-10.361-9.016-14.267-9.369a5.178,5.178,0,0,0-3.921,1.067c-2,1.669-4.013,6.533-4.786,11.568-1,6.5.169,12.14,3.29,15.879.129.156.263.307.4.455l-1,11.132-24.941-2.25a1.776,1.776,0,0,0-1.93,1.609l-1.158,12.835-12.32-1.111,5.918-13.679a8.635,8.635,0,0,0,1.06-15.88l-3.477-10.976.972-.217a10.185,10.185,0,0,0,7.819-11.593c-.085-.517-.192-1.053-.317-1.594l-.048-.2-.006-.028a10.171,10.171,0,0,0-12.116-7.523l-26.147,5.856a7.317,7.317,0,0,0-5.533,8.728l1.494,6.673a7.3,7.3,0,0,0,8.728,5.533l14.586-3.267,3.451,10.894a8.617,8.617,0,0,0-.78,9.719l-7.145,16.512-1.9-.171a12.643,12.643,0,0,0-11.617,5.521l-20.011,29.666a6.669,6.669,0,0,0,4.929,10.371l6.667.6a15.779,15.779,0,0,0,30.95,2.792l4.429.4a15.778,15.778,0,0,0,30.949,2.792l4.431.4a15.778,15.778,0,0,0,30.949,2.793l6.666.6a6.668,6.668,0,0,0,6.706-9.321Z" fill="#fff"/>
        <g id="_15" data-name="15">
          <path id="Path_10605" data-name="Path 10605" d="M9667.262,1957.692l-14.378-32.769a12.641,12.641,0,0,0-10.44-7.511l-.665-.06,1.157-12.835a1.775,1.775,0,0,0-1.608-1.929l-3.966-.358.617-6.857c.607.093,1.194.162,1.752.213h0c5.63.508,11.846-.6,14.151-2.526,4.166-3.477.576-12.4-5.295-19.872l5.483-4.682a5.745,5.745,0,1,0-2.284-2.72l-5.491,4.688c-4.9-5.4-10.361-9.016-14.267-9.369a5.178,5.178,0,0,0-3.921,1.067c-2,1.668-4.013,6.533-4.786,11.568-1,6.5.169,12.14,3.289,15.879.131.156.264.307.4.455l-1,11.132-24.941-2.25a1.776,1.776,0,0,0-1.93,1.609l-1.158,12.835-12.32-1.111,5.918-13.679a8.635,8.635,0,0,0,1.06-15.88l-3.477-10.976.972-.217a10.185,10.185,0,0,0,7.819-11.593c-.085-.517-.192-1.053-.317-1.594l-.048-.2-.006-.028a10.171,10.171,0,0,0-12.116-7.523l-26.147,5.856a7.317,7.317,0,0,0-5.533,8.728l1.494,6.673a7.3,7.3,0,0,0,8.728,5.533l14.586-3.267,3.451,10.894a8.618,8.618,0,0,0-.78,9.719l-7.145,16.512-1.9-.171a12.643,12.643,0,0,0-11.617,5.521l-20.011,29.666a6.669,6.669,0,0,0,4.929,10.371l6.667.6a15.779,15.779,0,0,0,30.95,2.792l4.429.4a15.778,15.778,0,0,0,30.949,2.792l4.431.4a15.778,15.778,0,0,0,30.948,2.792l6.667.6a6.668,6.668,0,0,0,6.706-9.321Zm-9.961-96.227a2.184,2.184,0,1,1-2.371,1.979A2.187,2.187,0,0,1,9657.3,1861.465Zm-13.706,11.316-2.76,2.356a1.776,1.776,0,0,0,2.307,2.7l2.744-2.343c5.208,6.663,6.959,12.661,6,14.486a1.767,1.767,0,0,0-.336.208c-1.048.312-6.41-2.272-13.177-10.381s-8.351-13.846-7.855-14.822a1.677,1.677,0,0,0,.257-.28,2.664,2.664,0,0,1,.941-.064C9634.165,1864.865,9638.8,1867.506,9643.595,1872.781Zm-16.761,1.5a28.647,28.647,0,0,1,1.06-4.465c.129.326.264.658.415,1a56.048,56.048,0,0,0,18,21.09,28.2,28.2,0,0,1-6.257.142h0a24.373,24.373,0,0,1-2.74-.4,1.755,1.755,0,0,0-.755-.249,1.78,1.78,0,0,0-.292,0,13.205,13.205,0,0,1-6.923-4.053C9626.023,1883.369,9626.346,1877.453,9626.834,1874.28Zm3.5,18.488a18.8,18.8,0,0,0,4.149,1.815l-.661,7.328-4.278-.386Zm-27.82,9.885,36.725,3.314-1,11.066-36.726-3.314Zm-8.693-11.749a5.087,5.087,0,1,1-4.609-5.524A5.092,5.092,0,0,1,9593.821,1890.9Zm-7.583-36.839a6.621,6.621,0,0,1,7.892,4.912l.04.172c.109.469.2.932.274,1.374a6.63,6.63,0,0,1-5.091,7.547l-21.673,4.855a13.7,13.7,0,0,0-1.185-11.178,16.7,16.7,0,0,0-2.025-2.806Zm-27.5,17.014-1.5-6.672a3.76,3.76,0,0,1,2.844-4.485l.26-.058c1.786,1.478,6.788,6.5,3.135,14l-.259.057a3.749,3.749,0,0,1-4.484-2.843Zm26.937,1.455,2.938,9.275a8.573,8.573,0,0,0-3.6.851l-2.95-9.317Zm-1.781,25.053a8.575,8.575,0,0,0,3.639,1.413l-5.605,12.952-4.091-.369Zm-17.093,70.488a12.23,12.23,0,1,1,13.279-11.082A12.244,12.244,0,0,1,9566.8,1968.075Zm35.379,3.191a12.23,12.23,0,1,1,13.279-11.081A12.243,12.243,0,0,1,9602.184,1971.266Zm35.38,3.192a12.23,12.23,0,1,1,13.278-11.081A12.243,12.243,0,0,1,9637.563,1974.458Zm26.121-12.266a3.087,3.087,0,0,1-2.81,1.283l-6.443-.581a15.782,15.782,0,0,0-31.4-2.833l-3.983-.359a15.782,15.782,0,0,0-31.4-2.832l-3.983-.36a15.782,15.782,0,0,0-31.4-2.832l-6.444-.582a3.116,3.116,0,0,1-2.3-4.846l20.011-29.666a9.088,9.088,0,0,1,8.353-3.97l3.182.287,7.815.7,16.536,1.492,40.263,3.632,2.434.22a9.089,9.089,0,0,1,7.507,5.4l14.378,32.768A3.091,3.091,0,0,1,9663.685,1962.192Z"/>
          <path id="Path_10606" data-name="Path 10606" d="M9568.567,1948.545a7.379,7.379,0,1,0,6.685,8.012A7.388,7.388,0,0,0,9568.567,1948.545Zm-1.008,11.16a3.826,3.826,0,1,1,4.155-3.467A3.831,3.831,0,0,1,9567.56,1959.7Z"/>
          <path id="Path_10607" data-name="Path 10607" d="M9603.946,1951.737a7.379,7.379,0,1,0,6.685,8.012A7.388,7.388,0,0,0,9603.946,1951.737Zm-1.007,11.16a3.826,3.826,0,1,1,4.154-3.467A3.831,3.831,0,0,1,9602.939,1962.9Z"/>
          <path id="Path_10608" data-name="Path 10608" d="M9639.325,1954.929a7.379,7.379,0,1,0,6.685,8.012A7.388,7.388,0,0,0,9639.325,1954.929Zm-1.007,11.16a3.826,3.826,0,1,1,4.154-3.467A3.832,3.832,0,0,1,9638.318,1966.089Z"/>
          <path id="Path_10609" data-name="Path 10609" d="M9639.153,1928.029l-65.6-5.919a1.776,1.776,0,0,0-1.929,1.609l-.969,10.743a1.776,1.776,0,0,0,1.608,1.929l65.6,5.918a1.775,1.775,0,0,0,1.929-1.609l.969-10.743A1.775,1.775,0,0,0,9639.153,1928.029Zm-2.739,10.583-62.063-5.6.65-7.2,62.063,5.6Z"/>
          <path id="Path_10610" data-name="Path 10610" d="M9573.681,1863.623a1.753,1.753,0,0,0,.561-.039l11.622-2.687a1.776,1.776,0,1,0-.8-3.461l-11.621,2.688a1.776,1.776,0,0,0,.24,3.5Z"/>
        </g>
      </g>
    </g>
  </g>
</svg>
