<svg xmlns="http://www.w3.org/2000/svg" xmlns:xlink="http://www.w3.org/1999/xlink" width="281.347" height="252.912" viewBox="0 0 281.347 252.912">
  <defs>
    <clipPath id="clip-path">
      <path id="Path_10855" data-name="Path 10855" d="M8464.172,2241.732c0,.225.019.448.02.673.017.014,0,.047.006.079a131.165,131.165,0,0,1-12.213,60.711c-1.258,2.692-2.614,5.344-4.039,7.938-2.062,3.731-4.308,7.348-6.691,10.847a133.554,133.554,0,0,1-8.162,10.686,131.689,131.689,0,0,1-230.781-65.3c-.236-1.651-.455-3.286-.645-4.956-.018-.015-.018-.015,0-.032-.046-.4-.092-.795-.122-1.194,1.127-10.4,58.562-22.99,129.884-28.351C8403.433,2227.42,8462.515,2231.416,8464.172,2241.732Z" fill="#347b00"/>
    </clipPath>
  </defs>
  <g id="Group_3634" data-name="Group 3634" transform="translate(-8192.219 -2135.634)">
    <g id="Group_3633" data-name="Group 3633">
      <g id="Group_3631" data-name="Group 3631">
        <g id="Group_3621" data-name="Group 3621">
          <path id="Path_10708" data-name="Path 10708" d="M8332.532,2388.115a140.433,140.433,0,0,1-138.969-119.481c-.279-1.938-.5-3.466-.611-4.73l-.069-.505c-.057-.487-.183-1.911-.194-2.072-.791-10.5,11.3-16.037,15.272-17.855a146.224,146.224,0,0,1,23.421-7.813,100.328,100.328,0,0,1,92.8-99.3c2.546-.192,5.125-.289,7.666-.289a100.346,100.346,0,0,1,98.93,84.58,146.967,146.967,0,0,1,24.417,4.225c4.214,1.2,17.037,4.859,17.828,15.388a11.712,11.712,0,0,1,0,1.727c.01.094.014.244.016.395a140.85,140.85,0,0,1-13.046,64.555c-1.3,2.778-2.748,5.627-4.309,8.468-2.121,3.843-4.524,7.737-7.142,11.576a142.73,142.73,0,0,1-8.706,11.4,139.59,139.59,0,0,1-96.755,49.339c-3.5.262-7.045.4-10.548.4Z"/>
          <path id="Path_10709" data-name="Path 10709" d="M8331.847,2136.5a99.914,99.914,0,0,1,98.556,84.544,147.507,147.507,0,0,1,24.674,4.244c4.143,1.182,16.747,4.778,17.516,15.005a11.28,11.28,0,0,1,0,1.665c.01.143.015.287.016.431a140.464,140.464,0,0,1-13.006,64.366c-1.287,2.756-2.732,5.6-4.3,8.443-2.115,3.832-4.511,7.715-7.119,11.541a142.625,142.625,0,0,1-8.679,11.366,139.162,139.162,0,0,1-96.458,49.186q-5.269.4-10.518.4a140.011,140.011,0,0,1-138.543-119.114c-.286-2-.5-3.475-.607-4.7l-.071-.525c-.055-.474-.18-1.885-.191-2.045-.769-10.209,11.12-15.646,15.024-17.434a146.993,146.993,0,0,1,23.668-7.869,99.9,99.9,0,0,1,92.4-99.209q3.831-.288,7.633-.287m0-.863c-2.552,0-5.142.1-7.7.289a100.76,100.76,0,0,0-93.2,99.4,145.828,145.828,0,0,0-23.168,7.753c-4.046,1.853-16.339,7.481-15.527,18.283.011.153.139,1.588.2,2.08l.073.541c.108,1.226.33,2.764.608,4.711a141.015,141.015,0,0,0,139.4,119.854c3.515,0,7.075-.133,10.583-.4a140.023,140.023,0,0,0,97.052-49.489,143.561,143.561,0,0,0,8.731-11.435c2.626-3.852,5.034-7.758,7.163-11.613,1.565-2.849,3.02-5.706,4.322-8.494a141.279,141.279,0,0,0,13.085-64.764c0-.119,0-.256-.012-.4a12.054,12.054,0,0,0,0-1.732c-.814-10.828-13.854-14.548-18.139-15.771a146.364,146.364,0,0,0-24.163-4.205,100.778,100.778,0,0,0-99.3-84.616Z" fill="#fff"/>
        </g>
        <g id="Group_3625" data-name="Group 3625">
          <path id="Path_10710" data-name="Path 10710" d="M8464.172,2241.732c0,.225.019.448.02.673.017.014,0,.047.006.079a131.165,131.165,0,0,1-12.213,60.711c-1.258,2.692-2.614,5.344-4.039,7.938-2.062,3.731-4.308,7.348-6.691,10.847a133.554,133.554,0,0,1-8.162,10.686,131.689,131.689,0,0,1-230.781-65.3c-.236-1.651-.455-3.286-.645-4.956-.018-.015-.018-.015,0-.032-.046-.4-.092-.795-.122-1.194,1.127-10.4,58.562-22.99,129.884-28.351C8403.433,2227.42,8462.515,2231.416,8464.172,2241.732Z" fill="#347b00"/>
          <g id="Group_3624" data-name="Group 3624" clip-path="url(#clip-path)">
            <g id="Group_3623" data-name="Group 3623">
              <g id="Group_3622" data-name="Group 3622">
                <path id="Path_10711" data-name="Path 10711" d="M8305.813,2287.6c1.612,2.536,15.435.09,15.011-3.961C8318.315,2281.951,8306.492,2281.627,8305.813,2287.6Z" fill="#1e5412" opacity="0.5"/>
                <path id="Path_10712" data-name="Path 10712" d="M8275.7,2341.663c1.593-3.211-3.527-3.129-3.164-.509C8272.719,2342.516,8275.091,2343.146,8275.7,2341.663Z" fill="#1e5412" opacity="0.5"/>
                <path id="Path_10713" data-name="Path 10713" d="M8297.191,2339.2c-.515-3.72-14.479-3.886-13.878.476C8284.218,2346.194,8297.638,2342.443,8297.191,2339.2Z" fill="#1e5412" opacity="0.5"/>
                <path id="Path_10714" data-name="Path 10714" d="M8262.515,2359.892c.962,6.963,18.662.774,17.9-4.728-.83-6.021-6.211-1.481-8.982-.425C8268.741,2355.775,8261.637,2353.53,8262.515,2359.892Z" fill="#1e5412" opacity="0.5"/>
                <path id="Path_10715" data-name="Path 10715" d="M8388.331,2291.049c-2.107,2.009-1.318,3.066-4.046,2.738-1.405-.165-5.114-1.356-4.733,1.4a5.452,5.452,0,0,0,2.909,4.331,101.447,101.447,0,0,0,13.4-11.4A17.769,17.769,0,0,0,8388.331,2291.049Z" fill="#1e5412" opacity="0.5"/>
                <path id="Path_10716" data-name="Path 10716" d="M8293.479,2247.323c-.19-1.373-1.872-2.859-3.432-3.405l-2.407.376a2.727,2.727,0,0,0-.271,1.927C8287.909,2250.127,8293.637,2248.484,8293.479,2247.323Z" fill="#1e5412" opacity="0.5"/>
                <path id="Path_10717" data-name="Path 10717" d="M8312.881,2272.988c-.558-4.032-10.171-4.528-9.748-1.442C8303.669,2275.412,8313.241,2275.588,8312.881,2272.988Z" fill="#1e5412" opacity="0.5"/>
                <path id="Path_10718" data-name="Path 10718" d="M8307.2,2251.545c-1.812-.931-3.06-1.66-3.822.209C8304.439,2259.418,8310.042,2253,8307.2,2251.545Z" fill="#1e5412" opacity="0.5"/>
                <path id="Path_10719" data-name="Path 10719" d="M8287.734,2291.356c.592,4.3,9.186,4.274,11.235,1.17C8303.307,2285.931,8287.116,2286.874,8287.734,2291.356Z" fill="#1e5412" opacity="0.5"/>
                <path id="Path_10720" data-name="Path 10720" d="M8293.45,2274.894c-.268-.816-.655-3.907-1.952-2.85-.19.545-.381,1.1-.57,1.648C8291.091,2274.862,8292.62,2275.225,8293.45,2274.894Z" fill="#1e5412" opacity="0.5"/>
                <path id="Path_10721" data-name="Path 10721" d="M8284.823,2311.424a2.421,2.421,0,0,0,4.288,1.237C8292.342,2308.6,8284.318,2307.776,8284.823,2311.424Z" fill="#1e5412" opacity="0.5"/>
                <path id="Path_10722" data-name="Path 10722" d="M8289.213,2260.7c-.5-3.648-9.691-4.6-9.1-.258C8280.677,2264.474,8289.8,2264.966,8289.213,2260.7Z" fill="#1e5412" opacity="0.5"/>
                <path id="Path_10723" data-name="Path 10723" d="M8226.186,2253.908l-10.643,1.665C8217.5,2257.282,8222.727,2256.011,8226.186,2253.908Z" fill="#1e5412" opacity="0.5"/>
                <path id="Path_10724" data-name="Path 10724" d="M8280.175,2325.089c-.624-4.543-19.387-6.541-18.278,1.475C8262.969,2334.367,8280.464,2327.171,8280.175,2325.089Z" fill="#1e5412" opacity="0.5"/>
                <path id="Path_10725" data-name="Path 10725" d="M8240.342,2260.662c1.994.046,1.794-2.325,3.021-3.48,3.207-3-8.613-6.513-7.952-1.738C8235.75,2257.947,8238.118,2260.616,8240.342,2260.662Z" fill="#1e5412" opacity="0.5"/>
                <path id="Path_10726" data-name="Path 10726" d="M8226,2296.278c5.448-6.025-18.5-12.244-16.985-1.281C8210.011,2302.236,8222.428,2300.23,8226,2296.278Z" fill="#1e5412" opacity="0.5"/>
                <path id="Path_10727" data-name="Path 10727" d="M8217.264,2271.054c.393,2.848,4.369,1.761,3.975-1.093S8216.867,2268.2,8217.264,2271.054Z" fill="#1e5412" opacity="0.5"/>
                <path id="Path_10728" data-name="Path 10728" d="M8249.105,2277.04c4.278-4.921-7.388-5.859-8.807-5.729-3.937.36-13.012-4.561-11.873,3.689C8229.265,2281.071,8245.256,2281.476,8249.105,2277.04Z" fill="#1e5412" opacity="0.5"/>
                <path id="Path_10729" data-name="Path 10729" d="M8274.645,2309.782c-.46-3.336-4.795-1.428-4.439,1.136C8270.614,2313.892,8275.083,2312.934,8274.645,2309.782Z" fill="#1e5412" opacity="0.5"/>
                <path id="Path_10730" data-name="Path 10730" d="M8263.137,2277.209c.475,3.441,12.4,4.12,11.752-.582C8273.994,2270.147,8262.521,2272.755,8263.137,2277.209Z" fill="#1e5412" opacity="0.5"/>
                <path id="Path_10731" data-name="Path 10731" d="M8274.978,2293.681c-.777-5.648-7.7-1.763-10.572-2.955-3.276-1.354-12.516-5-11.353,3.443C8254.329,2303.392,8275.855,2300.043,8274.978,2293.681Z" fill="#1e5412" opacity="0.5"/>
                <path id="Path_10732" data-name="Path 10732" d="M8266.59,2261.011c-.854-6.166-13.687-4.218-13.134-.207C8254.262,2266.649,8267.4,2266.87,8266.59,2261.011Z" fill="#1e5412" opacity="0.5"/>
                <path id="Path_10733" data-name="Path 10733" d="M8239.14,2311.546c1.086,7.875,16.731,6.8,15.987,1.41-.682-4.643-5.823-1.434-8.308-3.569C8244.441,2307.343,8238.333,2304.918,8239.14,2311.546Z" fill="#1e5412" opacity="0.5"/>
                <path id="Path_10734" data-name="Path 10734" d="M8380.493,2284.4c2.557-2.709,2.252-2.576,5.984-3.518.729-.183,3.405-.588,3.924-1.718-.469.127-1.6-2.013-2.661-1.722-2.476.673-3.628,2.479-6.383,1.9-3.368-.709-12.264-3.31-11.111,5.019C8370.959,2289.523,8378.323,2286.694,8380.493,2284.4Z" fill="#1e5412" opacity="0.5"/>
                <path id="Path_10735" data-name="Path 10735" d="M8377.442,2268.778c.646,4.693,18.41,1.972,20.157-1.322,1.117-2.118-8.66-2.13-10.459-3.051C8384.748,2263.184,8376.6,2262.685,8377.442,2268.778Z" fill="#1e5412" opacity="0.5"/>
                <path id="Path_10736" data-name="Path 10736" d="M8222.644,2311.1c.229,1.684,3.438,2.522,3.111.154C8225.421,2308.846,8223.331,2309.848,8222.644,2311.1Z" fill="#1e5412" opacity="0.5"/>
                <path id="Path_10737" data-name="Path 10737" d="M8344.435,2309.726c.394,2.832,4.344,1.75,3.954-1.089S8344.045,2306.888,8344.435,2309.726Z" fill="#1e5412" opacity="0.5"/>
                <path id="Path_10738" data-name="Path 10738" d="M8406.926,2257.393c-.041-.3-12.1-3.4-11.766-.964C8395.41,2258.231,8407.486,2261.455,8406.926,2257.393Z" fill="#1e5412" opacity="0.5"/>
                <path id="Path_10739" data-name="Path 10739" d="M8405.474,2275.76c-2.322,1.272-4.449,2.789-4.579,3.392.105.758.711,1.1,1.569,1.163C8403.542,2278.829,8404.558,2277.317,8405.474,2275.76Z" fill="#1e5412" opacity="0.5"/>
                <path id="Path_10740" data-name="Path 10740" d="M8365.815,2268.89c.395,2.877,4.389,1.776,3.992-1.095S8365.417,2266.02,8365.815,2268.89Z" fill="#1e5412" opacity="0.5"/>
                <path id="Path_10741" data-name="Path 10741" d="M8412.879,2250.852c.076.559.755.832,1.516.827q.382-1.968.657-3.859A2.761,2.761,0,0,0,8412.879,2250.852Z" fill="#1e5412" opacity="0.5"/>
                <path id="Path_10742" data-name="Path 10742" d="M8364.126,2304.974c-2.461-1.147-5.9,1.7-7.677,3.347.568,4.122,19.568.037,13.957-5.759C8366.78,2298.821,8366.444,2306.049,8364.126,2304.974Z" fill="#1e5412" opacity="0.5"/>
                <path id="Path_10743" data-name="Path 10743" d="M8357.888,2275.743c3.01-5.1-10.341-7.115-9.274.6C8349.035,2279.414,8356.733,2277.692,8357.888,2275.743Z" fill="#1e5412" opacity="0.5"/>
                <path id="Path_10744" data-name="Path 10744" d="M8346,2293.053c.558,4.047,3.561,5.142,6.666,3.425,2.427-1.346,9.936-3.966,11.184-6.909C8367.653,2280.619,8345.04,2286.116,8346,2293.053Z" fill="#1e5412" opacity="0.5"/>
                <path id="Path_10745" data-name="Path 10745" d="M8342.815,2261.629c.818,5.922,15.506,3.31,14.938-.786C8357.414,2258.371,8342.384,2254.559,8342.815,2261.629Z" fill="#1e5412" opacity="0.5"/>
                <path id="Path_10746" data-name="Path 10746" d="M8339.71,2248.583c-.92-.076-2.382.092-2.184,1.537C8338.192,2254.938,8341.118,2249.51,8339.71,2248.583Z" fill="#1e5412" opacity="0.5"/>
                <path id="Path_10747" data-name="Path 10747" d="M8337.5,2287.992c-.717-4.795-9.11.141-8.664,3.388C8329.2,2293.971,8338.211,2292.73,8337.5,2287.992Z" fill="#1e5412" opacity="0.5"/>
                <path id="Path_10748" data-name="Path 10748" d="M8324.824,2248.609c-.6-4.321-10.068-4.371-9.382.592C8316.05,2253.606,8325.436,2253.052,8324.824,2248.609Z" fill="#1e5412" opacity="0.5"/>
                <path id="Path_10749" data-name="Path 10749" d="M8405.514,2233.439c1.512,2.256,4.678,9.256,7.889,3.952a1.923,1.923,0,0,0,.263-.785,43.206,43.206,0,0,0-9.046-7.044c-2.5-.786-4.508-.9-4.352.209C8400.873,2234.169,8403.678,2230.686,8405.514,2233.439Z" fill="#1e5412" opacity="0.5"/>
                <path id="Path_10750" data-name="Path 10750" d="M8331.846,2274.6c.349,2.532,5.02,3.21,6.315,1.188C8339.809,2273.251,8331.3,2270.639,8331.846,2274.6Z" fill="#1e5412" opacity="0.5"/>
                <path id="Path_10751" data-name="Path 10751" d="M8334.246,2263.279c-1.677-2.134-9.171-5.676-8.292.689C8326.529,2268.127,8336.673,2266.352,8334.246,2263.279Z" fill="#1e5412" opacity="0.5"/>
                <path id="Path_10752" data-name="Path 10752" d="M8332.638,2306.67c-1.576.927-13.729,4.369-13.506,5.971.58,4.218,10.459,5.549,13.232,4.9,3.062-.712,3.957-4.839,3.639-7.828-.191-1.772,2.638-1.921,3.342-2.212.815-.339,2.746-2.416,1.083-3.2C8338.244,2303.273,8334.618,2305.509,8332.638,2306.67Z" fill="#1e5412" opacity="0.5"/>
                <path id="Path_10753" data-name="Path 10753" d="M8348.872,2239.249c-.212-1.539-1.876-2.934-3.9-3.923l-8.087,1.265C8338.655,2241.445,8349.639,2244.792,8348.872,2239.249Z" fill="#1e5412" opacity="0.5"/>
                <path id="Path_10754" data-name="Path 10754" d="M8391.169,2230.667a11.423,11.423,0,0,0-2.808-2.129l-10.515,1.644c2.408.258,4.789.389,5.96.98C8384.476,2231.5,8393.042,2232.96,8391.169,2230.667Z" fill="#1e5412" opacity="0.5"/>
                <path id="Path_10755" data-name="Path 10755" d="M8388.727,2241.688c.5,3.657,11.609,6.522,13.449,3.389C8401.534,2241.316,8387.718,2234.38,8388.727,2241.688Z" fill="#1e5412" opacity="0.5"/>
                <path id="Path_10756" data-name="Path 10756" d="M8361.76,2250.744c1-3.765-7.71-5.868-7.15-1.828C8355.085,2252.362,8360.386,2255.925,8361.76,2250.744Z" fill="#1e5412" opacity="0.5"/>
                <path id="Path_10757" data-name="Path 10757" d="M8374.875,2236.089c-.471-3.393-16.222-3.84-15.809-.839C8359.68,2239.709,8375.934,2243.77,8374.875,2236.089Z" fill="#1e5412" opacity="0.5"/>
                <path id="Path_10758" data-name="Path 10758" d="M8275.2,2247.146a2.589,2.589,0,0,0,.16-.93l-2.657.415C8272.855,2247.755,8274.734,2248.509,8275.2,2247.146Z" fill="#1e5412" opacity="0.5"/>
                <path id="Path_10759" data-name="Path 10759" d="M8262.043,2372.708a54.17,54.17,0,0,0,7.159-1.068C8266.7,2370.935,8263.606,2371.2,8262.043,2372.708Z" fill="#1e5412" opacity="0.5"/>
                <path id="Path_10760" data-name="Path 10760" d="M8206.584,2265.039c1.967-4.738-19.073-8.085-17.641,2.288C8189.71,2272.868,8204.947,2268.967,8206.584,2265.039Z" fill="#1e5412" opacity="0.5"/>
                <path id="Path_10761" data-name="Path 10761" d="M8368.774,2250.456c.664,4.781,14.769,6.665,14.331,3.511C8382.572,2250.092,8367.829,2243.592,8368.774,2250.456Z" fill="#1e5412" opacity="0.5"/>
                <path id="Path_10762" data-name="Path 10762" d="M8265.916,2344.4c.463-1.737-18.741-3.2-17.742,4.048C8249.094,2355.121,8264.7,2349,8265.916,2344.4Z" fill="#1e5412" opacity="0.5"/>
                <path id="Path_10763" data-name="Path 10763" d="M8242.759,2368.669c.383,2.78,5.838,5.321,5.229.893C8247.5,2366,8242.11,2363.356,8242.759,2368.669Z" fill="#1e5412" opacity="0.5"/>
                <path id="Path_10764" data-name="Path 10764" d="M8244.246,2332.469c.175,1.252,3.128,1.019,3.923.282C8247.338,2330.37,8243.481,2326.926,8244.246,2332.469Z" fill="#1e5412" opacity="0.5"/>
                <path id="Path_10765" data-name="Path 10765" d="M8381.918,2239.624c-.446-1.551-2.213.359-2.07,1.414C8380.081,2242.706,8382.525,2241.7,8381.918,2239.624Z" fill="#1e5412" opacity="0.5"/>
                <path id="Path_10766" data-name="Path 10766" d="M8317.1,2342.214c.583-.522,1.16-1.043,1.736-1.554A6.3,6.3,0,0,0,8317.1,2342.214Z" fill="#1e5412" opacity="0.5"/>
                <path id="Path_10767" data-name="Path 10767" d="M8323.337,2301.874c1.127-1.919-4.146-3.688-5.459-2.154-2.837,3.3-7.332-.753-10.2,2.128C8309,2306.109,8321.087,2305.674,8323.337,2301.874Z" fill="#1e5412" opacity="0.5"/>
                <path id="Path_10768" data-name="Path 10768" d="M8309.331,2331.153c.931,3.65,15.35.121,17.019-2.71C8324.976,2319.079,8311.21,2324.936,8309.331,2331.153Z" fill="#1e5412" opacity="0.5"/>
                <path id="Path_10769" data-name="Path 10769" d="M8339.656,2322.511c-.709-2.59-4.209-1.28-4.429,1.254a2.351,2.351,0,0,0,.8,2.192c1.267-.954,2.524-1.85,3.771-2.676A4.522,4.522,0,0,0,8339.656,2322.511Z" fill="#1e5412" opacity="0.5"/>
                <path id="Path_10770" data-name="Path 10770" d="M8291.038,2324.645c1.146,8.32,18.864,1.84,19.146-4.36C8310.172,2317.048,8289.962,2316.849,8291.038,2324.645Z" fill="#1e5412" opacity="0.5"/>
                <path id="Path_10771" data-name="Path 10771" d="M8289.128,2353.257c1.119,8.1,15.887-3.226,14.938-4.558C8301.272,2344.792,8289.7,2347.543,8289.128,2353.257Z" fill="#1e5412" opacity="0.5"/>
                <path id="Path_10772" data-name="Path 10772" d="M8240.577,2295.112c-.451-3.252-4.611-1.61-4.194,1.4C8236.761,2299.272,8240.982,2298.08,8240.577,2295.112Z" fill="#1e5412" opacity="0.5"/>
                <path id="Path_10773" data-name="Path 10773" d="M8176.891,2304.27c.613,2.062,1.281,4.155,2,6.259,1.418-1.576,2.208-3.819.768-5.607A2.038,2.038,0,0,0,8176.891,2304.27Z" fill="#1e5412" opacity="0.5"/>
                <path id="Path_10774" data-name="Path 10774" d="M8178.458,2288.265c.857,6.2,8.847,2.9,7.985-3.333C8185.676,2279.364,8177.755,2283.144,8178.458,2288.265Z" fill="#1e5412" opacity="0.5"/>
                <path id="Path_10775" data-name="Path 10775" d="M8194.817,2342.251a87.7,87.7,0,0,0,5.65,7.013c5.745.574,13.233-1.532,12.567-6.349C8212.878,2341.757,8198.313,2337.741,8194.817,2342.251Z" fill="#1e5412" opacity="0.5"/>
                <path id="Path_10776" data-name="Path 10776" d="M8192.573,2300.13c.446,3.25,6.437,4.1,5.922.383C8198,2296.918,8191.93,2295.485,8192.573,2300.13Z" fill="#1e5412" opacity="0.5"/>
                <path id="Path_10777" data-name="Path 10777" d="M8182.372,2271.991c-.424-3.068-4.307.2-3.941,2.836C8178.79,2277.44,8182.677,2274.172,8182.372,2271.991Z" fill="#1e5412" opacity="0.5"/>
                <path id="Path_10778" data-name="Path 10778" d="M8207.87,2280.052c-.663-4.8-16.119-5.2-15.1,2.193C8193.736,2289.243,8208.1,2281.716,8207.87,2280.052Z" fill="#1e5412" opacity="0.5"/>
                <path id="Path_10779" data-name="Path 10779" d="M8204.27,2328.693c-.789-.227-1.22.161-1.3,1.176C8203.231,2331.8,8205.484,2329.36,8204.27,2328.693Z" fill="#1e5412" opacity="0.5"/>
                <path id="Path_10780" data-name="Path 10780" d="M8227.149,2356.692c-2.928-2.131-11.053-6.18-9.733,2.828,1.12,8.125,14.437,6.523,18.171.866C8239.067,2355.107,8228.442,2357.626,8227.149,2356.692Z" fill="#1e5412" opacity="0.5"/>
                <path id="Path_10781" data-name="Path 10781" d="M8233.377,2344.8c3.139-4.716-3.509-2.866-3.289-1.269C8230.395,2345.764,8231.394,2347.787,8233.377,2344.8Z" fill="#1e5412" opacity="0.5"/>
                <path id="Path_10782" data-name="Path 10782" d="M8223.033,2325.012c-2.793-1.287-7.845-2.329-7.272,3.431.539,3.888,20.855,6.857,19.951.291C8235.322,2325.93,8225.4,2326.106,8223.033,2325.012Z" fill="#1e5412" opacity="0.5"/>
                <path id="Path_10783" data-name="Path 10783" d="M8202.994,2310.414c-3.1.681-15.193-.807-14.255,5.993,1.314,9.511,18.947,2.349,22.692-2.372C8215.618,2308.765,8204.448,2310.094,8202.994,2310.414Z" fill="#1e5412" opacity="0.5"/>
                <path id="Path_10784" data-name="Path 10784" d="M8447.513,2262.054c.75.034,9.154-2.171,6.5-3.488a11.416,11.416,0,0,0-3.436-.781l-8.9,5.835C8443.979,2262.861,8446.2,2262,8447.513,2262.054Z" fill="#1e5412" opacity="0.5"/>
                <path id="Path_10785" data-name="Path 10785" d="M8355.169,2321.411a2.583,2.583,0,0,0-.239-.913l-2.248,1.474C8353.282,2322.933,8355.3,2322.845,8355.169,2321.411Z" fill="#1e5412" opacity="0.5"/>
                <path id="Path_10786" data-name="Path 10786" d="M8367.044,2348.4c-3.488-5.533-12.864,1.575-10.466,5.379C8358.43,2356.712,8369.574,2352.412,8367.044,2348.4Z" fill="#1e5412" opacity="0.5"/>
                <path id="Path_10787" data-name="Path 10787" d="M8428.238,2290.271c1.854,2.943,8.151,4,7.267-1.285C8434.864,2285.144,8426.061,2286.821,8428.238,2290.271Z" fill="#1e5412" opacity="0.5"/>
                <path id="Path_10788" data-name="Path 10788" d="M8434.086,2317.725c1.653,2.628,7.955-2.116,8.2-4.368C8442.926,2307.469,8429.934,2311.14,8434.086,2317.725Z" fill="#1e5412" opacity="0.5"/>
                <path id="Path_10789" data-name="Path 10789" d="M8441.409,2270.226c-1.829-2.9-16.362,3.194-14.748,5.756C8429.059,2279.791,8445.541,2276.787,8441.409,2270.226Z" fill="#1e5412" opacity="0.5"/>
                <path id="Path_10790" data-name="Path 10790" d="M8373.523,2327.979c-1.965-3.115-10.727-.192-8.393,3.517C8367.3,2334.937,8375.818,2331.623,8373.523,2327.979Z" fill="#1e5412" opacity="0.5"/>
                <path id="Path_10791" data-name="Path 10791" d="M8446.684,2303.845c1.547,2.458,4.731-.193,3.187-2.645S8445.137,2301.394,8446.684,2303.845Z" fill="#1e5412" opacity="0.5"/>
                <path id="Path_10792" data-name="Path 10792" d="M8441.777,2285.831c2.575,4.082,16.2-.02,14.5-2.713C8454.2,2279.808,8438.085,2279.968,8441.777,2285.831Z" fill="#1e5412" opacity="0.5"/>
                <path id="Path_10793" data-name="Path 10793" d="M8457.229,2298.947c2.526,4.008,17.587-5.8,17.819-9.519.145-2.391-8.769,1.632-10.786,1.535C8461.578,2290.838,8453.951,2293.743,8457.229,2298.947Z" fill="#1e5412" opacity="0.5"/>
                <path id="Path_10794" data-name="Path 10794" d="M8449.282,2270.542c-1.045-1.229-1.868,1.24-1.3,2.142C8448.88,2274.107,8450.69,2272.179,8449.282,2270.542Z" fill="#1e5412" opacity="0.5"/>
                <path id="Path_10795" data-name="Path 10795" d="M8399.743,2345.641c2.515,1.645,14.1-6.285,12.04-9.8C8408.8,2335.334,8397.9,2339.915,8399.743,2345.641Z" fill="#1e5412" opacity="0.5"/>
                <path id="Path_10796" data-name="Path 10796" d="M8469.987,2267.154c-2.138-3.161-17.584-3.782-13.65,2.46C8458.3,2272.738,8469.6,2270.767,8469.987,2267.154Z" fill="#1e5412" opacity="0.5"/>
                <path id="Path_10797" data-name="Path 10797" d="M8468.227,2255.175c2.308,1.432,8.078,6.5,8.815.346a1.9,1.9,0,0,0-.083-.823,43.256,43.256,0,0,0-11.147-2.686c-2.6.314-4.477,1.041-3.877,1.986C8464.3,2257.754,8465.419,2253.425,8468.227,2255.175Z" fill="#1e5412" opacity="0.5"/>
                <path id="Path_10798" data-name="Path 10798" d="M8371.892,2314.033c-.739-1.172-2.885-1.832-4.529-1.686l-2.038,1.335a2.718,2.718,0,0,0,.547,1.867C8367.974,2318.885,8372.516,2315.026,8371.892,2314.033Z" fill="#1e5412" opacity="0.5"/>
                <path id="Path_10799" data-name="Path 10799" d="M8322.342,2345.382c1.342,2.14,4.6,3.595,6.646,2.72,1.835-.782.675-2.859,1.314-4.417C8331.986,2339.626,8319.771,2341.3,8322.342,2345.382Z" fill="#1e5412" opacity="0.5"/>
                <path id="Path_10800" data-name="Path 10800" d="M8330.612,2386.463c2.478-7.737-21.9-3.524-16,5.838C8318.5,2398.485,8328.988,2391.536,8330.612,2386.463Z" fill="#1e5412" opacity="0.5"/>
                <path id="Path_10801" data-name="Path 10801" d="M8400.978,2302.275c-2.326-3.689-10.975.172-8.3,4.41C8395.045,2310.447,8403.367,2306.071,8400.978,2302.275Z" fill="#1e5412" opacity="0.5"/>
                <path id="Path_10802" data-name="Path 10802" d="M8315.419,2364.452c-1.535-2.438-4.708.2-3.169,2.635S8316.957,2366.89,8315.419,2364.452Z" fill="#1e5412" opacity="0.5"/>
                <path id="Path_10803" data-name="Path 10803" d="M8353.043,2337.593c-3.321-5.264-14.209,1.8-12.05,5.229C8344.138,2347.814,8356.194,2342.6,8353.043,2337.593Z" fill="#1e5412" opacity="0.5"/>
                <path id="Path_10804" data-name="Path 10804" d="M8414.527,2296.112c-.869.311-2.133,1.066-1.355,2.3C8415.766,2302.528,8416.192,2296.377,8414.527,2296.112Z" fill="#1e5412" opacity="0.5"/>
                <path id="Path_10805" data-name="Path 10805" d="M8408.341,2315.8c2.24,3.551,10.748-2.249,7.271-4.048C8413.2,2310.5,8404.916,2310.365,8408.341,2315.8Z" fill="#1e5412" opacity="0.5"/>
                <path id="Path_10806" data-name="Path 10806" d="M8313.306,2347.787l-9.009,5.907C8306.782,2354.445,8311.022,2351.13,8313.306,2347.787Z" fill="#1e5412" opacity="0.5"/>
                <path id="Path_10807" data-name="Path 10807" d="M8436.022,2299.839c-1.33-2.112-16.595.615-13.285,6.877C8425.926,2311.774,8438.227,2303.336,8436.022,2299.839Z" fill="#1e5412" opacity="0.5"/>
                <path id="Path_10808" data-name="Path 10808" d="M8382.738,2313.987c4.127,6.544,6.586-1.611,3.395-1.767C8384.1,2312.119,8382.662,2311.97,8382.738,2313.987Z" fill="#1e5412" opacity="0.5"/>
                <path id="Path_10809" data-name="Path 10809" d="M8380.284,2337.371c.051.574.106,1.157.16,1.736.632,1,2.174.7,2.793.054C8382.658,2338.528,8381.03,2335.872,8380.284,2337.371Z" fill="#1e5412" opacity="0.5"/>
                <path id="Path_10810" data-name="Path 10810" d="M8343.726,2359.407c1.868-6.248-9.146-2.29-10.385-1.587-3.438,1.952-13.734,1.213-9.295,8.258C8327.314,2371.262,8342.049,2365.036,8343.726,2359.407Z" fill="#1e5412" opacity="0.5"/>
                <path id="Path_10811" data-name="Path 10811" d="M8340.166,2382.39c1.484,2.362,4.838-.466,3.245-3C8341.659,2376.611,8338.546,2379.823,8340.166,2382.39Z" fill="#1e5412" opacity="0.5"/>
                <path id="Path_10812" data-name="Path 10812" d="M8333.669,2401.35c.9,1.44,4.171.88,2.9-1.143C8335.269,2398.15,8333.778,2399.925,8333.669,2401.35Z" fill="#1e5412" opacity="0.5"/>
                <path id="Path_10813" data-name="Path 10813" d="M8483.841,2268.128q-.464-1.948-.994-3.786a2.761,2.761,0,0,0-.729,3.658C8482.418,2268.478,8483.149,2268.446,8483.841,2268.128Z" fill="#1e5412" opacity="0.5"/>
                <path id="Path_10814" data-name="Path 10814" d="M8394.971,2441.222a53.922,53.922,0,0,0,6.081-3.926C8398.478,2437.688,8395.77,2439.2,8394.971,2441.222Z" fill="#1e5412" opacity="0.5"/>
                <path id="Path_10815" data-name="Path 10815" d="M8396.115,2420.979c-2.026,2.055-9.424,2.94-6,8.373,3.748,5.947,17.319-6.992,14.357-11.691C8401.234,2412.519,8398.2,2418.874,8396.115,2420.979Z" fill="#1e5412" opacity="0.5"/>
                <path id="Path_10816" data-name="Path 10816" d="M8411.623,2412.331c4.361,6.922,13.141-9.491,11.728-10.313C8419.193,2399.611,8409.785,2406.89,8411.623,2412.331Z" fill="#1e5412" opacity="0.5"/>
                <path id="Path_10817" data-name="Path 10817" d="M8384.567,2419.572c1.543-2.118,2.5-4.279,2.255-5.737-.1-.628-2.438-.207-5.237.872A28.959,28.959,0,0,1,8384.567,2419.572Z" fill="#1e5412" opacity="0.5"/>
                <path id="Path_10818" data-name="Path 10818" d="M8433.487,2388.6a6.31,6.31,0,0,0-.941,2.132C8432.863,2390.019,8433.173,2389.307,8433.487,2388.6Z" fill="#1e5412" opacity="0.5"/>
                <path id="Path_10819" data-name="Path 10819" d="M8354.985,2389.818c-3.011-.882-9.574-.572-6.105,5.133,4.238,6.727,18.047-.706,15.146-5.309C8361.49,2385.693,8358.13,2390.737,8354.985,2389.818Z" fill="#1e5412" opacity="0.5"/>
                <path id="Path_10820" data-name="Path 10820" d="M8413.169,2396.2c-2-3.177-14.793,2.432-12.446,6.157C8404.236,2407.922,8414.914,2398.97,8413.169,2396.2Z" fill="#1e5412" opacity="0.5"/>
                <path id="Path_10821" data-name="Path 10821" d="M8420.91,2383.862c2.353,2.941,14.033-6.221,14.385-9.488C8430.182,2366.41,8420.057,2377.423,8420.91,2383.862Z" fill="#1e5412" opacity="0.5"/>
                <path id="Path_10822" data-name="Path 10822" d="M8473.318,2303.061c-.374.309-2.284-1.176-3.136-.471-1.976,1.634-2.281,3.755-5.029,4.364-3.361.744-12.536,2.043-8.053,9.156,2.78,4.409,8.321-1.205,9.352-4.192,1.212-3.523.989-3.276,4-5.673C8471.041,2305.777,8473.312,2304.3,8473.318,2303.061Z" fill="#1e5412" opacity="0.5"/>
                <path id="Path_10823" data-name="Path 10823" d="M8476.336,2314.744c-1.092,2.7.064,3.336-2.557,4.163-1.349.429-5.219.874-3.735,3.226a5.454,5.454,0,0,0,4.437,2.745,101.385,101.385,0,0,0,7.507-15.916A17.767,17.767,0,0,0,8476.336,2314.744Z" fill="#1e5412" opacity="0.5"/>
                <path id="Path_10824" data-name="Path 10824" d="M8468.277,2280.389c.971,1.539,13.3-.506,11.116-3.975C8479.233,2276.16,8466.966,2278.306,8468.277,2280.389Z" fill="#1e5412" opacity="0.5"/>
                <path id="Path_10825" data-name="Path 10825" d="M8484.783,2299.136c.368-1.8.671-3.595.864-5.391-1.593,2.117-2.9,4.376-2.774,4.979C8483.283,2299.371,8483.976,2299.436,8484.783,2299.136Z" fill="#1e5412" opacity="0.5"/>
                <path id="Path_10826" data-name="Path 10826" d="M8464.754,2332.625c-4.845-1.913-2.17,4.811-4.725,4.788-2.715-.03-4.671,3.98-5.614,6.215C8456.634,2347.149,8472.258,2335.591,8464.754,2332.625Z" fill="#1e5412" opacity="0.5"/>
                <path id="Path_10827" data-name="Path 10827" d="M8438.163,2346.576c-2.414-.038-4.795,3.5-6.12,5.37-1.053,1.494-10.705,9.642-9.841,11.009,2.269,3.6,11.817.741,14.077-.992,2.5-1.911,1.607-6.04.085-8.632-.9-1.536,1.611-2.837,2.133-3.393C8439.1,2349.292,8440,2346.6,8438.163,2346.576Z" fill="#1e5412" opacity="0.5"/>
                <path id="Path_10828" data-name="Path 10828" d="M8438.6,2334.03c2.178,3.457,5.364,3.216,7.485.371,1.656-2.228,7.415-7.711,7.339-10.907C8453.2,2313.771,8434.864,2328.106,8438.6,2334.03Z" fill="#1e5412" opacity="0.5"/>
                <path id="Path_10829" data-name="Path 10829" d="M8441.454,2366.45a2.35,2.35,0,0,0,1.631,1.668c.761-1.392,1.537-2.727,2.332-3.994a4.555,4.555,0,0,0-.447-.643C8443.256,2361.415,8440.609,2364.052,8441.454,2366.45Z" fill="#1e5412" opacity="0.5"/>
                <path id="Path_10830" data-name="Path 10830" d="M8444.051,2349.864c1.526,2.417,4.677-.2,3.152-2.623S8442.525,2347.439,8444.051,2349.864Z" fill="#1e5412" opacity="0.5"/>
                <path id="Path_10831" data-name="Path 10831" d="M8394.862,2375.356c1.268-5.035-6.38-2.473-4.416.642A2.421,2.421,0,0,0,8394.862,2375.356Z" fill="#1e5412" opacity="0.5"/>
                <path id="Path_10832" data-name="Path 10832" d="M8400.153,2329.41c-2.172-3.442-11.135.07-9.476,2.708C8392.76,2335.418,8401.553,2331.631,8400.153,2329.41Z" fill="#1e5412" opacity="0.5"/>
                <path id="Path_10833" data-name="Path 10833" d="M8424.34,2321.539c.452-3-8.379-1.864-6.244,1.522C8419.458,2325.224,8423.992,2323.915,8424.34,2321.539Z" fill="#1e5412" opacity="0.5"/>
                <path id="Path_10834" data-name="Path 10834" d="M8395.539,2352.946c1.23-7.8-13.13-.258-10.719,3.57C8387.133,2360.187,8394.952,2356.62,8395.539,2352.946Z" fill="#1e5412" opacity="0.5"/>
                <path id="Path_10835" data-name="Path 10835" d="M8421.592,2351.413c.236-2.213-5.3-1.65-5.86.289-1.225,4.173-6.99,2.338-8.418,6.148C8410.283,2361.182,8421.11,2355.8,8421.592,2351.413Z" fill="#1e5412" opacity="0.5"/>
                <path id="Path_10836" data-name="Path 10836" d="M8374.159,2363.9c-3.038-4.824-7.741,1.57-10.852,1.669-3.543.118-13.461.612-8.921,7.819C8359.354,2381.258,8377.582,2369.329,8374.159,2363.9Z" fill="#1e5412" opacity="0.5"/>
                <path id="Path_10837" data-name="Path 10837" d="M8428.77,2332.924c-2.632-4.072-8.241,3.886-6.5,6.661C8423.669,2341.8,8431.37,2336.948,8428.77,2332.924Z" fill="#1e5412" opacity="0.5"/>
                <path id="Path_10838" data-name="Path 10838" d="M8391.848,2390.364c-2.441-3.882-20.358,2.038-16.043,8.882C8380,2405.912,8392.97,2392.141,8391.848,2390.364Z" fill="#1e5412" opacity="0.5"/>
                <path id="Path_10839" data-name="Path 10839" d="M8394.6,2407.309c.129-3.582-4.5-1.4-3.092.842C8392.244,2409.314,8394.664,2408.91,8394.6,2407.309Z" fill="#1e5412" opacity="0.5"/>
                <path id="Path_10840" data-name="Path 10840" d="M8380.5,2378.7c-1.795-2.849-4.958.677-3.577,2.866C8378.521,2384.107,8382.2,2381.391,8380.5,2378.7Z" fill="#1e5412" opacity="0.5"/>
                <path id="Path_10841" data-name="Path 10841" d="M8417.2,2373.609c-1.346-2.943-19.838,5.212-15.644,11.869C8406.037,2392.585,8419.5,2379.374,8417.2,2373.609Z" fill="#1e5412" opacity="0.5"/>
                <path id="Path_10842" data-name="Path 10842" d="M8307.3,2401.665c-1.936-3.07-8.055-1.873-5.553,2.094C8303.5,2406.534,8309.3,2404.836,8307.3,2401.665Z" fill="#1e5412" opacity="0.5"/>
                <path id="Path_10843" data-name="Path 10843" d="M8324.664,2408.648c1.642-6.528-7.987-.71-9.179.181-2.544,1.9-14.174,5.531-10.515,11.339C8310.091,2428.29,8323.2,2414.493,8324.664,2408.648Z" fill="#1e5412" opacity="0.5"/>
                <path id="Path_10844" data-name="Path 10844" d="M8307.4,2379.158c-2.584-4.1-16.827,1.916-12.851,8.226C8298.319,2393.361,8308.3,2380.58,8307.4,2379.158Z" fill="#1e5412" opacity="0.5"/>
                <path id="Path_10845" data-name="Path 10845" d="M8325.792,2436.824c-2.335,1.122-4.2,2.582-4.624,4.38q3.139,1.789,6.428,3.322A39.723,39.723,0,0,1,8325.792,2436.824Z" fill="#1e5412" opacity="0.5"/>
                <path id="Path_10846" data-name="Path 10846" d="M8323.483,2426.563c1.038,1.646,2.085-1.5.7-1.608C8323.374,2425.073,8323.142,2425.6,8323.483,2426.563Z" fill="#1e5412" opacity="0.5"/>
                <path id="Path_10847" data-name="Path 10847" d="M8289.9,2392.442c-3-4.756-8.652,1.955-5.9,6.33C8287.334,2404.062,8293.255,2397.768,8289.9,2392.442Z" fill="#1e5412" opacity="0.5"/>
                <path id="Path_10848" data-name="Path 10848" d="M8284.913,2375.373c2.984,4.731,15.256-5.107,15.127-9.361C8299.878,2360.885,8279.33,2366.515,8284.913,2375.373Z" fill="#1e5412" opacity="0.5"/>
                <path id="Path_10849" data-name="Path 10849" d="M8278.43,2386.541c1.406,2.233,3.6-2.347,2.421-4.209C8279.2,2379.712,8277.011,2384.293,8278.43,2386.541Z" fill="#1e5412" opacity="0.5"/>
                <path id="Path_10850" data-name="Path 10850" d="M8291.961,2413.451a2.037,2.037,0,0,0-2.789.548c1.409,1.625,2.881,3.256,4.4,4.877C8294.216,2416.855,8294.01,2414.486,8291.961,2413.451Z" fill="#1e5412" opacity="0.5"/>
                <path id="Path_10851" data-name="Path 10851" d="M8407,2286.354c3.617,3.691,15,2.209,12.02-2.524-.828-1.314-2.919-1.9-5.175-1.963Z" fill="#1e5412" opacity="0.5"/>
              </g>
              <path id="Path_10852" data-name="Path 10852" d="M8444.463,2294.205c2.051,2,5.166-2.634,7.5-2.517,2.142.111,2.575-5.848,2.608-5.852C8453.279,2286.041,8441.513,2291.335,8444.463,2294.205Zm-8.333,1.354c.447.106,3.119-1.776,3.134-.461.044,3.486-.479,5.591-2.864,5.654C8430.767,2300.9,8430.317,2294.189,8436.13,2295.559Zm-11.179,4.786c.711-.3-1.536,3.709-1.329,3.379-1.177,1.852-2.783,2.651-4.475,2.282-3.656-.8-6.658,1.279-10.211.866-5-.582,2.869-3.763,3.568-4.859C8415.372,2297.5,8421.226,2302.076,8424.951,2300.345Zm-13.853,11.531c.691,1.587-3.146,4.226-4.025,2.927C8405.552,2312.562,8409.86,2309.017,8411.1,2311.876Zm-17.146,3.5c.935.133,3.8-1.416,4.465.455.911,2.573-2.186,4.237-3.1,4.5-3.019.86-5.085,3-7.9,4.4-2.044,1.019-7.44-.709-2.988-2.759C8387.994,2320.333,8389.727,2314.771,8393.953,2315.379Zm7.941-10.3c.019,4.086-5.11,3.946-4.677,1.958C8397.566,2305.462,8401.885,2303.543,8401.895,2305.08Zm58.9-26.658c-.04,1.542-2.408,6.188-3.5,3.922C8456.007,2279.664,8460.91,2274.04,8460.795,2278.422Zm-40.481,31.287c.587,1.425,1.2,2.457-.447,3.237C8416.887,2314.351,8417.866,2307.7,8420.313,2309.709Zm-41.815,20.614c2.212,2.987-5.489,7.251-6.072,7.517-4.686,2.141-7.306,5.517-12.577,2.773-6.429-3.346,4.79-4.427,5.77-4.868,1.972-.884,3.62-2.96,5.633-3.648C8372.8,2331.571,8377.153,2328.569,8378.5,2330.323Zm-.475-8.083c.422.194-2.438,7-3.767,4.172C8372.858,2323.445,8376.949,2321.748,8378.023,2322.24Zm8.517,12.01c1.04,3.79-4.235,6.909-4.466,2.791C8381.924,2334.386,8385.591,2330.787,8386.54,2334.25Zm7.4-6.569c.6,2.269-2.549,4.467-3.215,2.059C8390.139,2327.622,8393.268,2325.13,8393.941,2327.681Zm-48.865,16.135c1.368.61,3.2,3.884,4.639,2.215.323-.372,4.591-3.409,3.716-.273-2.378,8.543-4.923,6.387-9.651,4.022-3.541-1.767-7.284,2.953-10.314-3-1.16-2.276,3.148-1.865,3.463-1.866C8339.75,2344.908,8342.171,2342.52,8345.076,2343.816Zm4.707-6.985c2.059,1.785-1.542,4.562-2.928,3.228C8344.509,2337.8,8348.357,2335.593,8349.783,2336.831Zm17.3,10.752c1.111-1.511,7.385-3.6,4.655.495a13.058,13.058,0,0,1-9.221,5.054c-1.1.417-7.133.5-4.583-3.659C8359.992,2346.119,8364.41,2351.224,8367.087,2347.583Zm-51.912-5.84c.964.523,1.827,1.66,2.811,2.018,1.693.621,3.159-1.478,4.938-1.014.752.2,4.058.487,4.5,1.275,1.524,2.7-2.26,3.428-2.873,3.379-3.034-.249-5.518,2.285-8.586.41C8313.3,2346.183,8310.067,2338.962,8315.175,2341.743Zm12.642,11.383c1.1-.017,2.467-.249,3.455.983,1.1,1.372-2.265,3.372-2.7,3.366C8325.922,2357.436,8324.493,2353.19,8327.816,2353.126Zm-21.662-14.2c2.613,1.635,2.263,4.857-.4,3.483C8303.25,2341.118,8303.222,2337.107,8306.154,2338.926Z" fill="#618400"/>
              <path id="Path_10853" data-name="Path 10853" d="M8312.295,2371.213c-.4,2.834,5.177,2.611,6.46,4.56,1.176,1.793,6.238-1.379,6.261-1.355C8324.09,2373.5,8312.866,2367.137,8312.295,2371.213Zm-6.018-5.922c.18.423,3.276,1.466,2.225,2.255-2.787,2.1-4.794,2.918-6.255,1.03C8298.8,2364.121,8303.947,2359.792,8306.277,2365.291Zm-10.468-6.19c.666.393-3.9.953-3.511.924-2.189.146-3.784-.678-4.484-2.261-1.517-3.422-4.968-4.615-6.732-7.725-2.488-4.381,4.731.091,6.028.007C8292.446,2349.691,8292.212,2357.119,8295.81,2359.1Zm-17.487-4.36c-.871,1.5-5.269-.04-4.74-1.519C8274.491,2350.671,8279.9,2352.051,8278.322,2354.741Zm-12.958-11.762c.444.833,3.389,2.23,2.271,3.87-1.537,2.256-4.709.742-5.461.153-2.478-1.927-5.425-2.329-8.221-3.77-2.03-1.046-3.825-6.42.46-4.041C8257.846,2341.1,8263.357,2339.211,8265.364,2342.979Zm13,.321c-3.285,2.428-6.2-1.792-4.343-2.616C8275.5,2340.033,8279.6,2342.383,8278.365,2343.3Zm56.313,31.761c-1.268.879-6.415,1.714-5.23-.5C8330.846,2371.933,8338.28,2372.564,8334.678,2375.061Zm-49.163-14.168c-.8,1.316-1.271,2.42-2.875,1.552C8279.746,2360.873,8285.691,2357.731,8285.515,2360.893Zm-41.34-21.551c-1.1,3.55-9.092-.143-9.651-.456-4.5-2.514-8.769-2.633-9.67-8.507-1.1-7.164,6.4,1.248,7.337,1.777,1.879,1.069,4.526,1.172,6.271,2.388C8239.8,2335.481,8244.795,2337.221,8244.175,2339.342Zm6.24-5.16c.093.456-7.088,2.17-5.591-.572C8246.39,2330.728,8250.177,2333.026,8250.415,2334.182Zm-4.655,13.969c-2.442,3.079-8.076.666-4.891-1.954C8242.922,2344.507,8247.993,2345.339,8245.76,2348.151Zm9.673,2.088c-1.476,1.826-5.109.584-3.561-1.375C8253.233,2347.137,8257.093,2348.189,8255.433,2350.239Zm-41.894-29.885c.317,1.465-1.239,4.881.955,5.052.491.04,5.463,1.688,2.416,2.836-8.3,3.13-8.062-.2-8.948-5.41-.667-3.9-6.686-4.131-3.676-10.092,1.149-2.281,3.365,1.437,3.552,1.691C8209.512,2316.7,8212.869,2317.244,8213.539,2320.354Zm8.418-.33c-.224,2.716-4.592,1.452-4.336-.455C8218.057,2316.343,8222.112,2318.142,8221.957,2320.024Zm1.551,20.313c1.876,0,7.269,3.83,2.353,4.047a13.054,13.054,0,0,1-9.527-4.452c-.986-.641-4.617-5.458.244-5.859C8220.5,2333.748,8218.989,2340.329,8223.508,2340.337Zm-25.966-45.329c.148,1.087-.259,2.454.033,3.46.5,1.733,3.059,1.676,3.736,3.384.285.723,2,3.561,1.631,4.384-1.277,2.824-4.1.2-4.424-.321-1.592-2.595-5.1-3.1-5.4-6.684C8192.852,2296.119,8196.767,2289.244,8197.542,2295.008Zm-1.712,16.925c.665.879,1.658,1.842,1.248,3.367-.455,1.7-4.059.166-4.312-.189C8191.233,2312.952,8193.814,2309.289,8195.83,2311.933Zm-1.346-25.867c.225,3.075-2.582,4.7-3.049,1.732C8191,2285.019,8194.218,2282.626,8194.484,2286.066Z" fill="#618400"/>
              <path id="Path_10854" data-name="Path 10854" d="M8344.534,2289.467c2.18,3.011-5.566,7.191-6.152,7.451-4.708,2.091-7.365,5.438-12.605,2.638-6.394-3.416,4.837-4.376,5.82-4.806,1.982-.863,3.652-2.921,5.672-3.587C8338.821,2290.653,8343.209,2287.7,8344.534,2289.467Zm-.387-8.088c.42.2-2.515,6.974-3.812,4.132C8338.969,2282.529,8343.078,2280.876,8344.147,2281.379Zm8.387,12.1c1,3.8-4.31,6.863-4.5,2.744C8347.917,2293.567,8351.622,2290.008,8352.534,2293.48Zm-41.565,9.119c1.362.625,3.163,3.919,4.616,2.265.326-.368,4.626-3.359,3.718-.233-2.47,8.517-4.992,6.333-9.694,3.917-3.522-1.8-7.315,2.875-10.281-3.109-1.135-2.288,3.168-1.831,3.482-1.828C8305.632,2303.634,8308.078,2301.271,8310.969,2302.6Zm4.783-6.934c2.039,1.807-1.591,4.545-2.964,3.2C8310.468,2296.579,8314.339,2294.412,8315.752,2295.665Zm17.188,10.938c1.127-1.5,7.423-3.52,4.648.545a13.056,13.056,0,0,1-9.276,4.955c-1.1.405-7.136.422-4.543-3.709C8325.86,2305.063,8330.223,2310.215,8332.939,2306.6Zm-51.848-6.4c.959.533,1.81,1.679,2.789,2.049,1.688.638,3.176-1.444,4.949-.962.75.205,4.052.531,4.486,1.324,1.494,2.715-2.3,3.4-2.909,3.348-3.031-.282-5.543,2.225-8.59.317C8279.17,2304.623,8276.014,2297.368,8281.092,2300.2Zm12.519,11.519c1.1-.006,2.47-.223,3.443,1.02,1.087,1.384-2.3,3.347-2.736,3.336C8291.67,2316.012,8290.286,2311.751,8293.61,2311.723ZM8272.1,2297.29c2.6,1.663,2.212,4.881-.44,3.478C8269.175,2299.451,8269.19,2295.44,8272.1,2297.29Z" fill="#618400"/>
            </g>
          </g>
        </g>
        <path id="Path_10856" data-name="Path 10856" d="M8451.139,2234.823a158.2,158.2,0,0,0-20.268-2.919,85.6,85.6,0,0,1-9.095,28.158c-25.836,49.112-96.694,73.443-143.378,35.524a78.579,78.579,0,0,1-18.437-21.662,90.25,90.25,0,0,1-10.742-30.676,264.024,264.024,0,0,0-30.187,7.433c-10.584,3.442-16.862,6.977-17.447,10.293.094,1.035.22,2.069.346,3.1q.195,1.644.439,3.287a131.343,131.343,0,0,0,37.577,73.808,133.805,133.805,0,0,0,28.711,21.579,128.687,128.687,0,0,0,14.888,7.093q4.091,1.617,8.311,3.017l.016,0c1.4.457,2.809.88,4.236,1.3,1.426.406,2.865.8,4.3,1.152,1.93.5,3.855.945,5.809,1.328.979.2,1.954.382,2.946.564,1.967.349,3.946.65,5.939.917.987.134,1.992.267,2.994.368,2.021.217,4.039.4,6.069.522a131.28,131.28,0,0,0,18.245-.1c4.577-.344,9.088-.924,13.521-1.706a131.033,131.033,0,0,0,77.151-44.532,133.554,133.554,0,0,0,8.162-10.686c2.383-3.5,4.63-7.116,6.691-10.848,1.425-2.593,2.78-5.245,4.037-7.938a131.134,131.134,0,0,0,12.215-60.71c0-.032.011-.065-.007-.08,0-.224-.018-.447-.019-.672C8463.719,2238.962,8459.085,2236.632,8451.139,2234.823Z" fill="#1e5412" opacity="0.2" style="mix-blend-mode: multiply;isolation: isolate"/>
        <path id="Path_10857" data-name="Path 10857" d="M8464.168,2241.735c0,.225.018.448.019.672.018.015,0,.048.007.08a131.134,131.134,0,0,1-12.215,60.71c-1.257,2.693-2.612,5.345-4.037,7.938-2.062,3.732-4.309,7.349-6.691,10.848a132.578,132.578,0,0,1-52.344,44.689,131.212,131.212,0,0,1-32.97,10.529c-4.433.782-8.943,1.362-13.521,1.706a131.28,131.28,0,0,1-18.245.1c-2.03-.12-4.048-.3-6.069-.522-1-.1-2.007-.234-2.994-.368-1.993-.267-3.973-.568-5.939-.917-.992-.182-1.968-.365-2.946-.564-1.953-.383-3.879-.832-5.809-1.328-1.439-.357-2.879-.746-4.3-1.152-1.428-.422-2.839-.845-4.236-1.3l-.016,0q-4.219-1.392-8.311-3.017a128.687,128.687,0,0,1-14.888-7.093,132.781,132.781,0,0,1-45.235-41.476,131.144,131.144,0,0,1-21.053-53.911q-.243-1.642-.439-3.287c-.126-1.033-.252-2.067-.346-3.1.585-3.316,6.863-6.851,17.447-10.293a130.292,130.292,0,0,0,1.838,19.766,116.286,116.286,0,0,0,15.771,42.311c13.489,21.569,35.477,38.185,60.333,44.111,27.307,6.513,60.683,5.014,85.76-8.1a128.771,128.771,0,0,0,56.742-58.924,124.284,124.284,0,0,0,10.7-37.694,122.045,122.045,0,0,0,.959-17.33C8459.085,2236.632,8463.719,2238.962,8464.168,2241.735Z" fill="#1e5412" opacity="0.2" style="mix-blend-mode: multiply;isolation: isolate"/>
        <g id="Group_3626" data-name="Group 3626">
          <path id="Path_10858" data-name="Path 10858" d="M8278.512,2275.221c-18.091,0-77.2-1.043-78.206-14.466-1.084-14.43,66.623-27.35,130.88-32.179,19.527-1.468,38.373-2.212,56.013-2.212,18.091,0,77.2,1.043,78.206,14.466,1.084,14.43-66.623,27.349-130.88,32.179C8315,2274.477,8296.152,2275.221,8278.512,2275.221Z" fill="#bed466"/>
          <path id="Path_10859" data-name="Path 10859" d="M8387.2,2227.563c44.914,0,76.377,4.938,77.01,13.357.872,11.609-57.229,25.44-129.773,30.893-19.937,1.5-38.9,2.208-55.923,2.208-44.914,0-76.377-4.938-77.01-13.356-.872-11.609,57.229-25.44,129.773-30.893,19.938-1.5,38.9-2.208,55.923-2.209m.007-2.4v2.4l0-2.4c-17.677,0-36.553.746-56.107,2.216-35.208,2.646-68.162,7.332-92.793,13.2-12.076,2.875-21.532,5.888-28.106,8.957-7.76,3.622-11.386,7.322-11.085,11.312.415,5.522,8.007,9.341,23.893,12.021,13.788,2.325,32.983,3.554,55.509,3.554,17.67,0,36.546-.745,56.1-2.215,35.208-2.646,68.163-7.332,92.793-13.2,12.076-2.875,21.533-5.888,28.106-8.957,7.76-3.622,11.386-7.322,11.085-11.312-.415-5.522-8.006-9.342-23.891-12.021-13.787-2.325-32.98-3.555-55.5-3.555Z"/>
          <path id="Path_10860" data-name="Path 10860" d="M8387.205,2229.963c22.261,0,41.178,1.206,54.706,3.488,15.454,2.606,19.783,6.034,19.9,7.649.174,2.306-7.027,8.459-35.519,15.241-24.391,5.807-57.079,10.452-92.042,13.08-19.437,1.46-38.191,2.2-55.743,2.2-22.263,0-41.182-1.206-54.711-3.487-15.456-2.607-19.785-6.035-19.906-7.65-.174-2.306,7.027-8.459,35.519-15.241,24.391-5.807,57.079-10.452,92.042-13.08,19.435-1.46,38.188-2.2,55.747-2.2h0m-.007-2.4c-17.023,0-35.985.71-55.923,2.209-72.544,5.453-130.646,19.284-129.773,30.893.633,8.418,32.1,13.356,77.01,13.356,17.023,0,35.985-.71,55.923-2.208,72.544-5.453,130.646-19.284,129.773-30.893-.633-8.419-32.1-13.357-77.01-13.357Z" fill="#78ad0a"/>
        </g>
        <path id="Path_10861" data-name="Path 10861" d="M8422.38,2240.511a68.093,68.093,0,0,1-11.161,4.079,236.767,236.767,0,0,1-24.354,5.455c-15.338,2.709-33.978,5.024-54.137,6.539-16.538,1.243-32.15,1.791-45.819,1.744a293.242,293.242,0,0,1-31.071-1.546,87.127,87.127,0,0,1-13.1-2.368c-.345-.1-.674-.206-1-.309.137.743.272,1.487.425,2.229s.3,1.469.469,2.2c.143.614.286,1.245.445,1.859.049.221.112.44.162.661a86.972,86.972,0,0,0,13.1,2.367,293.242,293.242,0,0,0,31.071,1.546c13.668.047,29.281-.5,45.819-1.744,20.159-1.515,38.8-3.83,54.137-6.539a236.316,236.316,0,0,0,24.354-5.455,68.08,68.08,0,0,0,11.161-4.078c.077-.68.137-1.374.2-2.052.115-1.677.2-3.367.229-5.054C8423.014,2240.191,8422.705,2240.358,8422.38,2240.511Z" fill="#c1642e" opacity="0.25" style="mix-blend-mode: multiply;isolation: isolate"/>
        <path id="Path_10862" data-name="Path 10862" d="M8220.654,2270.076c-11.131-2.131-17.958-5.05-19.062-8.64-.017-.015-.017-.015,0-.032a2.992,2.992,0,0,1-.151-.742,2.562,2.562,0,0,1,.019-.6c.343-3.763,6.683-7.752,17.558-11.585-3.37,3.381-5.229,6.825-5.308,10.247a7.11,7.11,0,0,0,.011,1.01,9.033,9.033,0,0,0,.193,1.285c-.013.033-.013.033,0,.063C8214.61,2264.339,8216.936,2267.34,8220.654,2270.076Z" opacity="0.15"/>
        <g id="Group_3627" data-name="Group 3627">
          <path id="Path_10863" data-name="Path 10863" d="M8289.364,2265.819c-16.08,0-53.549-.919-54.188-9.425-.328-4.368,9.118-8.74,28.076-13,18-4.04,42.076-7.329,67.8-9.263,15.434-1.159,30.216-1.748,43.938-1.748,16.079,0,53.547.919,54.187,9.425.729,9.721-48.853,18.723-95.874,22.258C8317.866,2265.23,8303.085,2265.819,8289.364,2265.819Z" fill="#78ad0a"/>
          <path id="Path_10864" data-name="Path 10864" d="M8374.986,2233.243c31.278,0,52.923,3.152,53.335,8.634.586,7.8-41.985,17.35-95.085,21.341-15.759,1.184-30.676,1.745-43.873,1.745-31.279,0-52.922-3.151-53.334-8.633-.586-7.8,41.984-17.35,95.085-21.341,15.757-1.184,30.673-1.746,43.872-1.746m0-1.709h0c-13.742,0-28.546.589-44,1.75-25.763,1.936-49.885,5.232-67.921,9.28-8.838,1.984-15.76,4.048-20.574,6.135-5.781,2.507-8.377,4.972-8.167,7.759.276,3.683,5.529,6.2,16.531,7.934,9.5,1.492,22.813,2.281,38.508,2.281,13.742,0,28.546-.589,44-1.75,25.761-1.937,49.883-5.232,67.921-9.281,8.837-1.983,15.759-4.047,20.573-6.135,5.781-2.506,8.377-4.971,8.168-7.758-.277-3.683-5.53-6.2-16.533-7.934-9.5-1.492-22.812-2.281-38.5-2.281Z"/>
        </g>
        <path id="Path_10865" data-name="Path 10865" d="M8259.621,2273.819c-33.386-1.2-55.947-5.595-58.029-12.383-.017-.015-.017-.015,0-.032a2.992,2.992,0,0,1-.151-.742,2.562,2.562,0,0,1,.019-.6c.64-7.073,22.378-14.882,55.513-21.093-8.386,5.586-13.1,11.522-13.2,17.448a7.786,7.786,0,0,0,.017,1.057,9.532,9.532,0,0,0,.2,1.333c-.014.033-.014.033.006.064C8245.134,2264.595,8250.677,2269.632,8259.621,2273.819Z" opacity="0.1"/>
        <path id="Path_10866" data-name="Path 10866" d="M8422.38,2240.511a68.093,68.093,0,0,1-11.161,4.079,236.767,236.767,0,0,1-24.354,5.455c-15.338,2.709-33.978,5.024-54.137,6.539-16.538,1.243-32.15,1.791-45.819,1.744a293.242,293.242,0,0,1-31.071-1.546,87.127,87.127,0,0,1-13.1-2.368c-.345-.1-.674-.206-1-.309.137.743.272,1.487.425,2.229s.3,1.469.469,2.2c.143.614.286,1.245.445,1.859.049.221.112.44.162.661a86.972,86.972,0,0,0,13.1,2.367,293.242,293.242,0,0,0,31.071,1.546c13.668.047,29.281-.5,45.819-1.744,20.159-1.515,38.8-3.83,54.137-6.539a236.316,236.316,0,0,0,24.354-5.455,68.08,68.08,0,0,0,11.161-4.078c.077-.68.137-1.374.2-2.052.115-1.677.2-3.367.229-5.054C8423.014,2240.191,8422.705,2240.358,8422.38,2240.511Z" fill="#c1642e" opacity="0.25" style="mix-blend-mode: multiply;isolation: isolate"/>
        <path id="Path_10867" data-name="Path 10867" d="M8220.654,2270.076c-11.131-2.131-17.958-5.05-19.062-8.64-.017-.015-.017-.015,0-.032a2.992,2.992,0,0,1-.151-.742,2.562,2.562,0,0,1,.019-.6c.343-3.763,6.683-7.752,17.558-11.585-3.37,3.381-5.229,6.825-5.308,10.247a7.11,7.11,0,0,0,.011,1.01,9.033,9.033,0,0,0,.193,1.285c-.013.033-.013.033,0,.063C8214.61,2264.339,8216.936,2267.34,8220.654,2270.076Z" opacity="0.15"/>
        <path id="Path_10868" data-name="Path 10868" d="M8259.621,2273.819c-33.386-1.2-55.947-5.595-58.029-12.383-.017-.015-.017-.015,0-.032a2.992,2.992,0,0,1-.151-.742,2.562,2.562,0,0,1,.019-.6c.64-7.073,22.378-14.882,55.513-21.093-8.386,5.586-13.1,11.522-13.2,17.448a7.786,7.786,0,0,0,.017,1.057,9.532,9.532,0,0,0,.2,1.333c-.014.033-.014.033.006.064C8245.134,2264.595,8250.677,2269.632,8259.621,2273.819Z" opacity="0.1"/>
        <g id="Group_3630" data-name="Group 3630">
          <g id="Group_3628" data-name="Group 3628">
            <path id="Path_10869" data-name="Path 10869" d="M8287.4,2265.762a295.954,295.954,0,0,1-31.158-1.551,87.846,87.846,0,0,1-13.233-2.393l-.461-.131-.1-.469c-.022-.1-.136-.541-.162-.658-.133-.514-.261-1.068-.387-1.613l-.056-.238c-.168-.733-.32-1.465-.474-2.214-.288-1.4-.546-2.857-.788-4.457l-.106-.772c-.095-.647-.175-1.3-.255-1.955l-.158-1.387c-.021-.182-.093-.915-.114-1.092-.057-.552-.1-1.1-.141-1.647l-.009-.124q-.111-1.475-.173-2.95c-.049-.861-.064-1.72-.081-2.579-.007-.526-.012-1.032,0-1.54-.018-.418,0-.887.012-1.356,0-.391.006-.789.024-1.187,0-.615.03-1.273.064-1.916,0-.066.021-.433.021-.513l.025-.385c.035-.6.072-1.185.125-1.775.037-.55.092-1.12.146-1.69.063-.694.14-1.4.235-2.095.1-.814.211-1.641.325-2.47.369-2.487.816-4.867,1.332-7.092.258-1.166.551-2.34.9-3.581a91.651,91.651,0,0,1,7.561-19.09c.289-.543.593-1.089.9-1.634l.463-.835a92.484,92.484,0,0,1,6.177-9.4l.181-.256c.483-.632.969-1.265,1.469-1.9a2.641,2.641,0,0,1,.18-.212c.562-.706,1.089-1.368,1.635-2,.543-.651,1.1-1.293,1.665-1.921.611-.675,1.224-1.351,1.852-2.012a92.067,92.067,0,0,1,11.688-10.439c2.125-1.578,4.282-3.057,6.414-4.4l.169-.106h.017c.728-.454,1.468-.9,2.209-1.326l.032-.038.045-.02.112-.133.157-.009c.212-.131.42-.253.634-.367l.023-.028.137-.061a2.278,2.278,0,0,1,.222-.121l.049-.031c.748-.43,1.513-.845,2.279-1.244.615-.322,1.242-.636,1.864-.947l.524-.263a93.146,93.146,0,0,1,12.1-4.861c2.341-.752,4.778-1.424,7.245-2a93.01,93.01,0,0,1,14.155-2.164c2.337-.176,4.7-.265,7.035-.265a91.954,91.954,0,0,1,23.179,2.961l.172.045.009.007a92.754,92.754,0,0,1,36.1,18.787c2.105,1.768,4.213,3.722,6.261,5.807.373.366.736.753,1.1,1.135l.308.327c1.23,1.3,2.427,2.649,3.556,4.008.637.757,1.262,1.535,1.887,2.329.307.385.616.789.909,1.2.28.337.59.757.944,1.283.289.351.588.778.886,1.205.575.807,1.156,1.653,1.721,2.5.683,1.033,1.273,1.976,1.81,2.887.486.785.968,1.619,1.449,2.453.256.457.5.9.729,1.333.862,1.563,1.7,3.223,2.544,5.058.244.506.479,1.027.715,1.563.206.426.408.9.594,1.364.271.646.546,1.3.806,1.961.336.828.659,1.68.966,2.533s.616,1.719.891,2.574c.248.735.483,1.482.7,2.23a8.537,8.537,0,0,1,.27.918c.2.67.4,1.388.588,2.107.234.852.445,1.734.651,2.6.181.741.331,1.432.464,2.107l.01.053,0,.053c.144.614.275,1.339.4,2.051l.032.178c.073.355.135.731.2,1.106.279,1.6.519,3.258.71,4.925a.993.993,0,0,1,.02.2c.05.317.075.635.1.952.1.852.177,1.705.243,2.577.05.671.085,1.342.121,2.013l.006.113c.03.391.044.8.058,1.213.039.931.062,1.885.067,2.824,0,0,.006.412,0,.506.021,2.29-.062,4.741-.245,7.258l-.029.323c-.053.585-.106,1.178-.172,1.761l-.05.431-.389.194a68.686,68.686,0,0,1-11.3,4.132,236.717,236.717,0,0,1-24.435,5.474c-15.959,2.818-34.707,5.083-54.217,6.549-15.219,1.144-30.519,1.749-44.242,1.749Z" fill="#c1642e"/>
            <path id="Path_10870" data-name="Path 10870" d="M8331.942,2146.655a91.019,91.019,0,0,1,22.978,2.935.055.055,0,0,0,.032.013h0a91.365,91.365,0,0,1,35.934,18.663c2.157,1.811,4.228,3.74,6.207,5.756.485.477.939.973,1.393,1.452q1.83,1.93,3.521,3.969c.634.754,1.254,1.526,1.874,2.313.3.379.6.773.891,1.168.335.408.64.835.928,1.262.318.393.605.8.894,1.216.574.806,1.15,1.645,1.71,2.486.616.932,1.218,1.881,1.786,2.848.493.8.974,1.627,1.452,2.457.241.431.482.863.707,1.295.91,1.647,1.741,3.317,2.527,5.022.246.511.477,1.023.71,1.551.209.433.4.884.581,1.335.273.653.548,1.307.8,1.961.335.825.655,1.667.958,2.51s.61,1.7.882,2.548q.371,1.1.7,2.209a8.45,8.45,0,0,1,.259.879q.319,1.059.592,2.12c.242.881.454,1.779.665,2.661.162.662.31,1.34.44,2l0,.032c.169.757.307,1.532.444,2.292.075.364.136.728.194,1.092.282,1.615.518,3.249.7,4.887a.421.421,0,0,1,.011.144c.058.332.082.667.107,1,.1.843.175,1.687.24,2.549.053.7.09,1.4.126,2.107.029.4.044.8.058,1.2.038.928.061,1.872.066,2.8,0,.16.008.319,0,.48.021,2.42-.07,4.833-.244,7.22-.062.678-.121,1.372-.2,2.051a68.071,68.071,0,0,1-11.161,4.079,236.548,236.548,0,0,1-24.354,5.456c-15.338,2.708-33.979,5.023-54.137,6.538-15.89,1.2-30.924,1.747-44.2,1.747-.542,0-1.083,0-1.619,0a292.981,292.981,0,0,1-31.071-1.546,87.1,87.1,0,0,1-13.1-2.367c-.05-.221-.113-.441-.162-.661-.159-.614-.3-1.245-.445-1.859-.167-.726-.317-1.452-.469-2.2-.3-1.468-.559-2.941-.781-4.416-.035-.254-.07-.507-.106-.762-.1-.682-.182-1.365-.266-2.049-.048-.429-.095-.842-.144-1.272-.043-.365-.071-.733-.114-1.1-.061-.573-.1-1.163-.147-1.737q-.108-1.459-.171-2.922c-.049-.863-.064-1.712-.081-2.56-.006-.513-.011-1.01,0-1.508-.017-.448,0-.9.012-1.348,0-.4,0-.787.023-1.173,0-.641.032-1.285.065-1.913,0-.177.02-.371.022-.547l.023-.339c.035-.6.072-1.176.124-1.757.038-.565.092-1.13.146-1.7.062-.678.138-1.374.23-2.054.1-.826.213-1.653.327-2.479.351-2.368.784-4.71,1.316-7.012.265-1.191.561-2.368.89-3.547a90.6,90.6,0,0,1,7.494-18.928c.436-.818.9-1.639,1.355-2.459a91.074,91.074,0,0,1,6.292-9.535v-.016c.481-.629.963-1.259,1.461-1.89a1.631,1.631,0,0,1,.148-.172c.542-.682,1.084-1.364,1.645-2.016.544-.65,1.09-1.284,1.653-1.9.606-.671,1.214-1.342,1.838-2a91.053,91.053,0,0,1,11.588-10.35c2.066-1.534,4.186-2.993,6.361-4.359h.016c.812-.511,1.64-1.006,2.47-1.485.016-.017.047-.02.063-.037.016,0,.031-.018.046-.019.291-.183.568-.348.861-.5.015-.017.047-.02.062-.037a1.766,1.766,0,0,1,.246-.131l.015-.017c.738-.424,1.493-.834,2.249-1.228.787-.411,1.592-.809,2.38-1.2a91.922,91.922,0,0,1,11.988-4.814c2.349-.754,4.753-1.416,7.181-1.984a91.93,91.93,0,0,1,14.032-2.145q3.511-.264,6.976-.262m0-1.6v0c-2.351,0-4.737.09-7.1.267a93.951,93.951,0,0,0-14.275,2.183c-2.487.581-4.944,1.26-7.307,2.018a93.861,93.861,0,0,0-12.2,4.9l-.537.269c-.628.314-1.262.631-1.884.956-.816.425-1.593.849-2.3,1.259l-.061.034a2.659,2.659,0,0,0-.233.132l-.036.021c-.21.11-.4.221-.583.328l-.286.018-.267.306c-.725.42-1.392.82-2.025,1.213h0l-.339.205c-2.15,1.351-4.326,2.841-6.463,4.43a92.838,92.838,0,0,0-11.8,10.535c-.62.653-1.228,1.323-1.834,1.994-.548.6-1.1,1.243-1.721,1.98-.546.636-1.089,1.316-1.612,1.976a2.472,2.472,0,0,0-.174.2l-.023.026-.012.017c-.49.621-.965,1.24-1.439,1.859l-.037.05-.371.485,0,.025a93.285,93.285,0,0,0-6.037,9.215l-.467.84c-.311.556-.619,1.111-.914,1.665a92.39,92.39,0,0,0-7.627,19.262c-.345,1.235-.642,2.423-.906,3.62-.52,2.24-.971,4.642-1.338,7.122-.118.852-.233,1.689-.333,2.524-.087.636-.168,1.352-.235,2.1-.055.572-.11,1.153-.148,1.732-.051.56-.089,1.156-.126,1.769l-.01.159-.012.167,0,.041V2233c0,.069,0,.14-.009.212-.007.1-.012.2-.014.3-.036.676-.064,1.291-.065,1.932-.02.4-.022.793-.024,1.205s-.029.878-.012,1.368c-.009.5,0,1,0,1.515.016.859.032,1.737.083,2.63.04.965.1,1.966.173,2.952.044.588.09,1.193.151,1.781.022.2.039.368.056.538.019.2.038.391.062.586l.068.614.074.647c.087.715.172,1.408.272,2.1l.1.713,0,.01.006.048c.245,1.618.506,3.09.8,4.5.154.753.309,1.492.479,2.231l.054.234c.126.544.254,1.1.394,1.64.026.118.058.236.087.355.024.092.049.184.068.277l.206.932.918.261A88.509,88.509,0,0,0,8256.15,2265a296.448,296.448,0,0,0,31.251,1.557l1.626,0c13.751,0,29.076-.6,44.32-1.751,19.538-1.468,38.313-3.736,54.294-6.558a237.623,237.623,0,0,0,24.525-5.5,69.406,69.406,0,0,0,11.425-4.182l.777-.388.1-.862c.069-.608.125-1.226.18-1.836l.022-.253c.188-2.564.271-5.029.25-7.355,0-.1,0-.193,0-.289,0-.054,0-.108,0-.161,0-.984-.028-1.945-.066-2.907-.016-.424-.03-.84-.062-1.253-.036-.7-.073-1.4-.126-2.107-.066-.873-.146-1.717-.242-2.578-.021-.3-.048-.626-.1-.965a2.084,2.084,0,0,0-.027-.245c-.191-1.659-.431-3.324-.714-4.949-.062-.379-.125-.762-.205-1.143l-.01-.061c-.126-.7-.257-1.421-.414-2.138v-.015l-.019-.092c-.141-.718-.294-1.417-.455-2.076l-.04-.167c-.2-.831-.4-1.69-.637-2.538-.174-.68-.375-1.4-.59-2.113a9.649,9.649,0,0,0-.281-.956c-.218-.74-.453-1.489-.7-2.226-.272-.849-.591-1.743-.892-2.579-.322-.9-.653-1.76-.981-2.57-.251-.637-.523-1.289-.8-1.941-.2-.509-.408-.985-.618-1.422-.236-.537-.472-1.058-.723-1.578-.842-1.827-1.686-3.5-2.566-5.1-.215-.412-.463-.857-.711-1.3-.5-.859-.986-1.707-1.488-2.518-.523-.889-1.121-1.843-1.812-2.888-.587-.881-1.172-1.731-1.741-2.532-.264-.377-.569-.815-.909-1.241-.342-.5-.646-.914-.949-1.287-.274-.376-.578-.775-.906-1.187-.721-.916-1.327-1.663-1.9-2.346-1.142-1.374-2.35-2.736-3.585-4.041l-.3-.32c-.367-.39-.738-.786-1.129-1.171-2.045-2.082-4.172-4.054-6.3-5.841a93.557,93.557,0,0,0-36.225-18.9l-.011-.009-.357-.093a92.79,92.79,0,0,0-23.381-2.987Z"/>
          </g>
          <g id="Group_3629" data-name="Group 3629" opacity="0.1" style="mix-blend-mode: multiply;isolation: isolate">
            <path id="Path_10871" data-name="Path 10871" d="M8390.883,2168.26a3.729,3.729,0,0,1-.347.863c-2.248,3.992-9.344,11.322-43.812,10.515-28.226-.661-52.145-12.189-63.354-19.116q2.934-1.839,6.019-3.455c22.006,7.207,71.8,14.755,82.571,7.93,5.981-3.792-4.649-10.028-17-15.39A91.416,91.416,0,0,1,8390.883,2168.26Z" fill="#c1642e"/>
            <path id="Path_10872" data-name="Path 10872" d="M8391.992,2228.059c-20.548,9.191-52.882,14.17-106.931,7.188-20.036-2.589-34.048-6.566-43.746-10.543q.523-3.551,1.316-7.011a190.536,190.536,0,0,0,76.485,12.87c55.039-2.438,75.747-9.516,80.212-17.923s-4.173-10.306-9.21-9.5-51.552,14.919-121.368-4.047a70.928,70.928,0,0,1-16.371-6.33,91.583,91.583,0,0,1,6.283-9.542c25.317,17.625,88.784,24.468,126.461,15.621C8427.7,2188.844,8410.749,2219.67,8391.992,2228.059Z" fill="#c1642e"/>
            <path id="Path_10873" data-name="Path 10873" d="M8240.468,2233.029c3.965,1.963,8.143,3.766,12.452,5.415,4.757,1.824,9.674,3.443,14.707,4.893h.016c2.918.839,5.9,1.61,8.867,2.317,22.666,5.385,46.407,6.921,64.594,4.143a186.929,186.929,0,0,0,53.323-16.085c1.672-.8,3.324-1.646,4.977-2.508a144.039,144.039,0,0,0,14.421-8.718q3.617-2.462,7.1-5.2c.162.662.31,1.34.439,2-2.209,1.979-4.65,4.071-7.329,6.2-3.6,2.853-7.647,5.8-12.127,8.722-1.27.833-2.57,1.653-3.921,2.46a162.692,162.692,0,0,1-29.863,14.306c-33.766,12.113-61.566,13.32-83.583,10.388a158.191,158.191,0,0,1-30.309-7.2l0-.016c-3.917-1.326-7.485-2.709-10.711-4.007h-.016c-.86-.352-1.688-.707-2.5-1.031Z" fill="#c1642e"/>
          </g>
          <path id="Path_10874" data-name="Path 10874" d="M8256.337,2263.416a86.972,86.972,0,0,1-13.1-2.367c-.05-.221-.113-.44-.162-.661-.159-.614-.3-1.245-.445-1.859-.166-.726-.317-1.452-.469-2.2-.3-1.468-.559-2.941-.781-4.416l-.106-.762c-.1-.682-.183-1.365-.266-2.049-.048-.429-.095-.843-.144-1.272-.043-.366-.071-.732-.114-1.1-.061-.573-.1-1.163-.147-1.737q-.108-1.459-.172-2.922c-.048-.863-.063-1.712-.08-2.561-.006-.512-.011-1.009,0-1.507-.018-.448,0-.9.011-1.348,0-.4,0-.786.023-1.173,0-.641.032-1.285.065-1.913,0-.177.02-.371.022-.547l.023-.339c.035-.6.072-1.176.125-1.757.037-.565.091-1.13.145-1.7.062-.679.138-1.374.23-2.055.1-.825.213-1.652.327-2.478.351-2.368.784-4.71,1.317-7.012.264-1.19.56-2.368.889-3.547a90.577,90.577,0,0,1,7.494-18.928c.436-.818.9-1.639,1.354-2.459a91.393,91.393,0,0,1,6.293-9.535v-.016c.482-.63.963-1.259,1.461-1.89a1.45,1.45,0,0,1,.148-.171c.542-.683,1.084-1.365,1.645-2.017.544-.65,1.09-1.285,1.653-1.9.606-.671,1.214-1.342,1.838-2a91.053,91.053,0,0,1,11.588-10.35c2.066-1.534,4.186-2.993,6.361-4.359h.016c.812-.511,1.64-1.006,2.47-1.485.016-.017.047-.02.063-.037.016,0,.029-.018.046-.019.291-.183.568-.348.861-.5.015-.017.047-.02.062-.037a1.766,1.766,0,0,1,.246-.131q-1.258,1.491-2.47,2.977c-.767.907-1.5,1.813-2.233,2.734-.951,1.21-1.9,2.42-2.838,3.629-.466.629-.934,1.241-1.4,1.87-.554.731-1.107,1.478-1.644,2.241-.741,1.017-1.465,2.05-2.174,3.082-.275.389-.552.779-.793,1.182-.521.745-1.011,1.5-1.515,2.263-.272.422-.546.843-.8,1.263-.46.709-.9,1.432-1.345,2.17-.273.422-.545.859-.8,1.312-.514.856-1.011,1.712-1.507,2.583q-.618,1.056-1.188,2.11c-1.618,3.009-3.152,6.075-4.534,9.242v.016a106.77,106.77,0,0,0-6.817,21.106c-.26,1.239-.5,2.476-.716,3.711-.18,1.024-.342,2.063-.473,3.1-.105.73-.2,1.458-.284,2.2-.007.113-.032.211-.039.324-.06.486-.1.97-.147,1.455a94.657,94.657,0,0,0-.484,9.563c0,2.791.114,5.573.371,8.344.2,2.471.53,4.917.938,7.356l0,.016A88.161,88.161,0,0,0,8256.337,2263.416Z" fill="#c1642e" opacity="0.25" style="mix-blend-mode: multiply;isolation: isolate"/>
          <path id="Path_10875" data-name="Path 10875" d="M8423.066,2231.285c.053.7.09,1.405.126,2.108.029.4.044.8.058,1.2.038.928.061,1.873.066,2.8,0,.161.009.321,0,.481.021,2.42-.07,4.833-.244,7.22-.062.678-.121,1.372-.2,2.052a68.08,68.08,0,0,1-11.161,4.078,87.206,87.206,0,0,0,2.293-15.585,86.117,86.117,0,0,0,.022-10.154c-.043-1.008-.119-2.012-.209-3a89.41,89.41,0,0,0-2.521-14.758v-.016c-.5-1.92-1.056-3.8-1.678-5.68-.351-1.049-.686-2.082-1-3.085-2.677-8.508-4.65-15.769-10.137-23.472q1.83,1.93,3.521,3.969c.634.754,1.254,1.526,1.874,2.313.3.379.6.773.891,1.168.335.408.64.835.929,1.262.317.393.6.8.893,1.216.574.807,1.15,1.645,1.71,2.486.616.932,1.218,1.881,1.786,2.848.493.8.974,1.627,1.452,2.458.241.431.482.862.707,1.294.91,1.647,1.741,3.317,2.527,5.022.246.511.477,1.023.71,1.551.208.433.4.884.581,1.335.273.653.547,1.307.8,1.961.335.825.655,1.667.958,2.51s.61,1.7.882,2.548q.371,1.1.7,2.209a8.45,8.45,0,0,1,.259.879q.319,1.059.592,2.121c.242.88.454,1.778.665,2.66.162.662.31,1.34.439,2l0,.032c.169.757.307,1.533.444,2.292.075.363.136.728.194,1.092.282,1.615.518,3.249.7,4.887a.421.421,0,0,1,.011.144c.058.332.082.667.107,1C8422.922,2229.58,8423,2230.424,8423.066,2231.285Z" fill="#c1642e" opacity="0.25" style="mix-blend-mode: multiply;isolation: isolate"/>
          <path id="Path_10876" data-name="Path 10876" d="M8422.826,2228.737c-.025-.335-.05-.67-.107-1a.421.421,0,0,0-.011-.144c-.187-1.638-.422-3.272-.7-4.887-.059-.364-.119-.729-.194-1.092-.138-.759-.275-1.535-.444-2.292l0-.032c-.13-.664-.277-1.342-.439-2-.211-.882-.423-1.78-.665-2.66q-.272-1.062-.592-2.121a8.45,8.45,0,0,0-.259-.879q-.324-1.106-.7-2.209c-.271-.846-.578-1.705-.882-2.548s-.623-1.685-.958-2.51c-.258-.654-.531-1.308-.8-1.961-.179-.451-.373-.9-.581-1.335-.233-.528-.464-1.04-.71-1.551-.786-1.705-1.617-3.375-2.527-5.022-.225-.432-.466-.863-.707-1.294-.479-.831-.959-1.661-1.452-2.458-.568-.967-1.17-1.916-1.786-2.848-.56-.841-1.136-1.679-1.71-2.486-.288-.412-.575-.823-.893-1.216-.289-.427-.594-.854-.929-1.262-.287-.4-.59-.789-.891-1.168-.62-.787-1.24-1.559-1.874-2.313q-1.693-2.037-3.521-3.969c-.453-.479-.907-.975-1.393-1.451-1.979-2.017-4.05-3.946-6.207-5.757a91.352,91.352,0,0,0-35.934-18.663.052.052,0,0,1-.033-.013,92.246,92.246,0,0,0-43.986-.527c-2.427.567-4.831,1.229-7.18,1.983a91.922,91.922,0,0,0-11.988,4.814c-.788.4-1.593.794-2.38,1.206-.756.393-1.511.8-2.249,1.227l-.015.017a1.766,1.766,0,0,0-.246.131c-.015.017-.047.02-.062.037-.293.15-.57.315-.861.5-.017,0-.03.018-.046.019-.016.017-.047.02-.062.037-.83.479-1.658.974-2.47,1.485h-.016c-2.176,1.366-4.295,2.825-6.361,4.359a91.053,91.053,0,0,0-11.588,10.35c-.624.657-1.231,1.328-1.838,2-.563.619-1.109,1.254-1.653,1.9-.561.652-1.1,1.334-1.645,2.017a1.45,1.45,0,0,0-.148.171c-.5.631-.979,1.26-1.461,1.89v.016a91.393,91.393,0,0,0-6.293,9.535c-.451.82-.919,1.641-1.354,2.459a90.577,90.577,0,0,0-7.494,18.928c-.329,1.179-.625,2.357-.889,3.547-.533,2.3-.967,4.644-1.317,7.012-.114.826-.229,1.653-.327,2.478-.093.681-.169,1.376-.23,2.055-.054.565-.107,1.13-.145,1.7-.053.581-.09,1.161-.125,1.757l-.023.339c0,.176-.02.37-.022.547-.033.628-.065,1.272-.065,1.913-.019.387-.021.772-.023,1.173-.015.45-.028.9-.011,1.348-.011.5-.006.995,0,1.507.017.849.032,1.7.08,2.561q.063,1.463.172,2.922c.043.574.087,1.164.147,1.737.043.366.071.732.114,1.1.049.429.1.843.144,1.272.083.684.167,1.367.266,2.049l.106.762c.223,1.475.478,2.948.781,4.416.151.743.3,1.469.469,2.2.143.614.286,1.245.445,1.859.049.221.112.44.162.661a86.972,86.972,0,0,0,13.1,2.367,293.242,293.242,0,0,0,31.071,1.546c-1.018-1.158-1.957-2.355-2.869-3.6a58.24,58.24,0,0,1-8.029-15.708c-.432-1.267-.815-2.537-1.153-3.827a66.641,66.641,0,0,1-1.7-8.309q-.4-2.76-.564-5.587c-.029-.4-.046-.814-.06-1.214a73.133,73.133,0,0,1,3.365-25.658,68.421,68.421,0,0,1,3.147-8.048,63.659,63.659,0,0,1,19.484-24.368,58.93,58.93,0,0,1,10.5-6.435h.016c1.577-.776,3.193-1.475,4.861-2.113,15.076-5.769,32.017-5.919,47.6-1.7a44.769,44.769,0,0,1,11.5,4.91,48.082,48.082,0,0,1,12.2,10.583,63.951,63.951,0,0,1,11.868,23.037,79.04,79.04,0,0,1,1.944,8.579v.016c.284,1.663.507,3.33.682,5.017v.016a77.1,77.1,0,0,1,.343,11.394c-.014.242-.028.467-.043.709a56.567,56.567,0,0,1-1.1,8.551c-.2.946-.406,1.859-.658,2.777-.221.9-.474,1.8-.76,2.687a62.558,62.558,0,0,1-10.621,20.012,236.316,236.316,0,0,0,24.354-5.455,68.08,68.08,0,0,0,11.161-4.078c.077-.68.137-1.374.2-2.052.174-2.387.265-4.8.244-7.22,0-.16-.008-.32,0-.481-.006-.929-.028-1.874-.066-2.8-.014-.4-.028-.8-.058-1.2-.036-.7-.073-1.406-.126-2.108C8423,2230.424,8422.922,2229.58,8422.826,2228.737Z" fill="#c1642e" opacity="0.1" style="mix-blend-mode: color-burn;isolation: isolate"/>
          <path id="Path_10877" data-name="Path 10877" d="M8314.3,2164.965c2.215,8.821,20.636,18.529,40.541,22.106,21.306,3.83,37.823,3.062,39.765-6.254,1.144-5.487-5.02-12.71-15.9-18.635C8347.082,2144.957,8310.329,2149.144,8314.3,2164.965Z" fill="#e59f79" opacity="0.1" style="mix-blend-mode: color-dodge;isolation: isolate"/>
          <path id="Path_10878" data-name="Path 10878" d="M8342.086,2160.738c.848,3.379,7.905,7.1,15.531,8.469,8.162,1.467,14.491,1.173,15.233-2.4.438-2.1-1.922-4.87-6.09-7.139C8354.644,2153.072,8340.564,2154.676,8342.086,2160.738Z" fill="#fff" opacity="0.85"/>
        </g>
      </g>
    </g>
  </g>
</svg>
