<svg xmlns="http://www.w3.org/2000/svg" width="98.549" height="99.17" viewBox="0 0 98.549 99.17">
  <g id="Group_3645" data-name="Group 3645" transform="translate(-9527.599 -2955.637)">
    <g id="Group_3644" data-name="Group 3644">
      <g id="Group_3643" data-name="Group 3643">
        <g id="Group_3635" data-name="Group 3635">
          <path id="Path_10879" data-name="Path 10879" d="M9575.712,3050.007a43.361,43.361,0,0,1-32.869-14.978c-15.794-18.514-13.4-46.849,5.313-63.186a45.379,45.379,0,0,1,29.922-11.406,43.21,43.21,0,0,1,32.831,15.021c15.789,18.413,13.405,46.749-5.311,63.169a45.314,45.314,0,0,1-29.884,11.38Z" fill="#ffd101"/>
          <path id="Path_10880" data-name="Path 10880" d="M9578.078,2965.237a38.253,38.253,0,0,1,29.19,13.349c14.072,16.412,11.88,41.768-4.837,56.433a40.406,40.406,0,0,1-26.72,10.188,38.418,38.418,0,0,1-29.236-13.314c-14.083-16.509-11.973-41.761,4.838-56.434a40.483,40.483,0,0,1,26.765-10.222m0-9.6a50.188,50.188,0,0,0-33.1,12.611c-20.663,18.037-23.276,49.392-5.8,69.875l.019.021.019.022a48.15,48.15,0,0,0,36.5,16.641,50.109,50.109,0,0,0,33.057-12.577c20.679-18.14,23.277-49.5,5.787-69.893a48.013,48.013,0,0,0-36.478-16.7Z" fill="#fff"/>
          <path id="Path_10881" data-name="Path 10881" d="M9578.078,2965.237a38.253,38.253,0,0,1,29.19,13.349c14.072,16.412,11.88,41.768-4.837,56.433a40.411,40.411,0,0,1-26.72,10.188,38.418,38.418,0,0,1-29.236-13.314c-14.083-16.509-11.973-41.761,4.838-56.434a40.483,40.483,0,0,1,26.765-10.222m0-8a48.589,48.589,0,0,0-32.047,12.213c-20.009,17.466-22.549,47.815-5.642,67.635a46.58,46.58,0,0,0,35.322,16.122,48.517,48.517,0,0,0,32-12.178c20.023-17.566,22.55-47.916,5.629-67.65a46.413,46.413,0,0,0-35.264-16.142Z"/>
        </g>
        <g id="Group_3639" data-name="Group 3639">
          <g id="Group_3636" data-name="Group 3636">
            <path id="Path_10882" data-name="Path 10882" d="M9566.473,3036.375a2.661,2.661,0,0,0,2.439-.613,1.915,1.915,0,0,0,.121-2,4.478,4.478,0,0,0-1.419-1.544,6.046,6.046,0,0,0-4.251-1.469c-1.326.173-3.3,1.831-2.574,3.357C9561.467,3035.525,9565.111,3036.206,9566.473,3036.375Z" fill="#ffd101" opacity="0.7" style="mix-blend-mode: screen;isolation: isolate"/>
            <path id="Path_10883" data-name="Path 10883" d="M9595.249,3011.488a9.23,9.23,0,0,0-1.924,3.192,2.717,2.717,0,0,0,1.317,3.177,2.543,2.543,0,0,0,2.38-.411,5.343,5.343,0,0,0,1.523-1.979c.75-1.5,1.242-5.633-1.615-5.154A3.426,3.426,0,0,0,9595.249,3011.488Z" fill="#ffd101" opacity="0.7" style="mix-blend-mode: screen;isolation: isolate"/>
            <path id="Path_10884" data-name="Path 10884" d="M9573.368,2978.634a2.822,2.822,0,0,0-.75,3.4,3.544,3.544,0,0,0,2.587,1.35,11.642,11.642,0,0,0,4.6-.229,4.4,4.4,0,0,0,2.953-1.936,3.336,3.336,0,0,0-1.464-4.2C9579.009,2975.7,9575.211,2976.948,9573.368,2978.634Z" fill="#ffd101" opacity="0.7" style="mix-blend-mode: screen;isolation: isolate"/>
            <path id="Path_10885" data-name="Path 10885" d="M9576.587,3004.41a2.64,2.64,0,0,0,1.906,2.091,6.579,6.579,0,0,0,2.969.065c1.746-.261,3.728-.9,4.341-2.555a3.369,3.369,0,0,0-2.2-4.078C9581.2,2999.1,9576.3,3001.428,9576.587,3004.41Z" fill="#ffd101" opacity="0.7" style="mix-blend-mode: screen;isolation: isolate"/>
            <path id="Path_10886" data-name="Path 10886" d="M9553.95,2986.556c2.339-.549,5.009.511,3.666,3.824a3.864,3.864,0,0,1-2.908,2.416,3.326,3.326,0,0,1-3.41-1.908C9550.292,2988.579,9552.007,2987.012,9553.95,2986.556Z" fill="#ffd101" opacity="0.7" style="mix-blend-mode: screen;isolation: isolate"/>
            <path id="Path_10887" data-name="Path 10887" d="M9595.152,2989.091a2.625,2.625,0,0,0,.346,2.047,1.906,1.906,0,0,0,1.716,1.091,1.727,1.727,0,0,0,1.464-1.591C9598.938,2987.684,9595.723,2987.37,9595.152,2989.091Z" fill="#ffd101" opacity="0.7" style="mix-blend-mode: screen;isolation: isolate"/>
            <path id="Path_10888" data-name="Path 10888" d="M9580.923,3028.7c.781,1.09,3.375.9,4.372-.126a1.989,1.989,0,0,0,.451-2.433,1.786,1.786,0,0,0-1.687-.6c-.711.1-2.809.779-3.138,1.512A1.591,1.591,0,0,0,9580.923,3028.7Z" fill="#ffd101" opacity="0.7" style="mix-blend-mode: screen;isolation: isolate"/>
            <path id="Path_10889" data-name="Path 10889" d="M9556.809,3015.437a2.705,2.705,0,0,0,2.975,2.736,2.944,2.944,0,0,0-.237-5.883A2.835,2.835,0,0,0,9556.809,3015.437Z" fill="#ffd101" opacity="0.7" style="mix-blend-mode: screen;isolation: isolate"/>
          </g>
          <g id="Group_3637" data-name="Group 3637">
            <path id="Path_10890" data-name="Path 10890" d="M9568.456,3035.858a2.656,2.656,0,0,0,2.438-.614,1.911,1.911,0,0,0,.121-2,4.449,4.449,0,0,0-1.419-1.543,6.038,6.038,0,0,0-4.251-1.469c-1.324.173-3.3,1.831-2.573,3.356C9563.45,3035.007,9567.095,3035.689,9568.456,3035.858Z" fill="#ff650f"/>
            <path id="Path_10891" data-name="Path 10891" d="M9597.233,3010.97a9.228,9.228,0,0,0-1.926,3.193,2.717,2.717,0,0,0,1.318,3.177,2.537,2.537,0,0,0,2.379-.412,5.337,5.337,0,0,0,1.525-1.978c.749-1.5,1.241-5.634-1.616-5.155A3.435,3.435,0,0,0,9597.233,3010.97Z" fill="#ff650f"/>
            <path id="Path_10892" data-name="Path 10892" d="M9575.351,2978.116a2.826,2.826,0,0,0-.75,3.4,3.542,3.542,0,0,0,2.589,1.349,11.634,11.634,0,0,0,4.6-.228,4.41,4.41,0,0,0,2.953-1.936,3.336,3.336,0,0,0-1.463-4.2C9580.992,2975.178,9577.194,2976.43,9575.351,2978.116Z" fill="#ff650f"/>
            <path id="Path_10893" data-name="Path 10893" d="M9578.57,3003.893a2.641,2.641,0,0,0,1.905,2.091,6.6,6.6,0,0,0,2.971.065c1.745-.261,3.726-.9,4.34-2.556a3.37,3.37,0,0,0-2.2-4.078C9583.186,2998.584,9578.279,3000.911,9578.57,3003.893Z" fill="#ff650f"/>
            <path id="Path_10894" data-name="Path 10894" d="M9555.934,2986.039c2.339-.549,5.009.511,3.665,3.824a3.859,3.859,0,0,1-2.906,2.415,3.324,3.324,0,0,1-3.411-1.908C9552.276,2988.062,9553.99,2986.5,9555.934,2986.039Z" fill="#ff650f"/>
            <path id="Path_10895" data-name="Path 10895" d="M9597.135,2988.574a2.631,2.631,0,0,0,.347,2.047,1.9,1.9,0,0,0,1.716,1.09,1.73,1.73,0,0,0,1.465-1.59C9600.921,2987.167,9597.707,2986.853,9597.135,2988.574Z" fill="#ff650f"/>
            <path id="Path_10896" data-name="Path 10896" d="M9582.906,3028.18c.782,1.09,3.376.9,4.372-.126a1.991,1.991,0,0,0,.452-2.434,1.789,1.789,0,0,0-1.687-.6c-.711.1-2.808.779-3.138,1.511A1.592,1.592,0,0,0,9582.906,3028.18Z" fill="#ff650f"/>
            <path id="Path_10897" data-name="Path 10897" d="M9558.792,3014.92a2.705,2.705,0,0,0,2.975,2.736,2.945,2.945,0,0,0-.237-5.884A2.836,2.836,0,0,0,9558.792,3014.92Z" fill="#ff650f"/>
          </g>
          <g id="Group_3638" data-name="Group 3638">
            <path id="Path_10898" data-name="Path 10898" d="M9567.508,3035.944a2.66,2.66,0,0,0,2.439-.614,1.916,1.916,0,0,0,.121-2,4.472,4.472,0,0,0-1.419-1.544,6.043,6.043,0,0,0-4.251-1.469c-1.326.173-3.3,1.831-2.574,3.357C9562.5,3035.094,9566.146,3035.775,9567.508,3035.944Z" fill="#ff970f"/>
            <path id="Path_10899" data-name="Path 10899" d="M9596.284,3011.057a9.233,9.233,0,0,0-1.924,3.192,2.717,2.717,0,0,0,1.316,3.177,2.541,2.541,0,0,0,2.38-.411,5.331,5.331,0,0,0,1.524-1.979c.75-1.5,1.241-5.633-1.616-5.154A3.428,3.428,0,0,0,9596.284,3011.057Z" fill="#ff970f"/>
            <path id="Path_10900" data-name="Path 10900" d="M9574.4,2978.2a2.821,2.821,0,0,0-.75,3.4,3.542,3.542,0,0,0,2.587,1.35,11.643,11.643,0,0,0,4.6-.229,4.406,4.406,0,0,0,2.953-1.936,3.336,3.336,0,0,0-1.463-4.2C9580.044,2975.265,9576.245,2976.517,9574.4,2978.2Z" fill="#ff970f"/>
            <path id="Path_10901" data-name="Path 10901" d="M9577.622,3003.979a2.639,2.639,0,0,0,1.906,2.091,6.578,6.578,0,0,0,2.969.065c1.746-.261,3.726-.9,4.341-2.555a3.371,3.371,0,0,0-2.2-4.078C9582.238,2998.671,9577.331,3001,9577.622,3003.979Z" fill="#ff970f"/>
            <path id="Path_10902" data-name="Path 10902" d="M9554.985,2986.125c2.339-.549,5.009.511,3.666,3.824a3.864,3.864,0,0,1-2.908,2.416,3.324,3.324,0,0,1-3.41-1.908C9551.327,2988.148,9553.042,2986.581,9554.985,2986.125Z" fill="#ff970f"/>
            <path id="Path_10903" data-name="Path 10903" d="M9596.187,2988.66a2.627,2.627,0,0,0,.347,2.047,1.9,1.9,0,0,0,1.716,1.091,1.729,1.729,0,0,0,1.464-1.591C9599.972,2987.253,9596.758,2986.939,9596.187,2988.66Z" fill="#ff970f"/>
            <path id="Path_10904" data-name="Path 10904" d="M9581.958,3028.266c.781,1.09,3.375.9,4.372-.126a1.991,1.991,0,0,0,.451-2.433,1.787,1.787,0,0,0-1.687-.6c-.712.1-2.809.779-3.139,1.512A1.591,1.591,0,0,0,9581.958,3028.266Z" fill="#ff970f"/>
            <path id="Path_10905" data-name="Path 10905" d="M9557.843,3015.006a2.706,2.706,0,0,0,2.976,2.736,2.945,2.945,0,0,0-.238-5.884A2.838,2.838,0,0,0,9557.843,3015.006Z" fill="#ff970f"/>
          </g>
        </g>
        <g id="Group_3640" data-name="Group 3640" opacity="0.6" style="mix-blend-mode: multiply;isolation: isolate">
          <path id="Path_10906" data-name="Path 10906" d="M9607.269,2978.586a38.264,38.264,0,0,0-30.245-13.312,29.5,29.5,0,0,1,5.833,5.169c10.863,12.668,9.17,32.242-3.733,43.562-12.248,10.762-30.125,10.324-41.284-.418a38.746,38.746,0,0,0,8.637,18.305c14.161,16.4,39.154,17.89,55.957,3.127C9619.148,3020.354,9621.341,2995,9607.269,2978.586Z" fill="#ffd101"/>
        </g>
        <g id="Group_3642" data-name="Group 3642">
          <g id="Group_3641" data-name="Group 3641" style="mix-blend-mode: multiply;isolation: isolate">
            <path id="Path_10907" data-name="Path 10907" d="M9612.657,2986.853a41.239,41.239,0,0,1-13.725,36.368c-16.8,14.763-41.8,13.275-55.956-3.127-.693-.813-1.261-1.689-1.875-2.543-.023-.027-.051-.051-.074-.079a32.2,32.2,0,0,1-3.273-4.658,38.763,38.763,0,0,0,8.756,19.078c14.16,16.4,39.155,17.89,55.957,3.127C9616.578,3022.64,9620.292,3002.658,9612.657,2986.853Z" fill="#ffd101"/>
          </g>
        </g>
        <ellipse id="Ellipse_466" data-name="Ellipse 466" cx="18.149" cy="9.638" rx="18.149" ry="9.638" transform="matrix(0.595, -0.804, 0.804, 0.595, 9539.04, 2999.912)" fill="#ffd101" opacity="0.7" style="mix-blend-mode: screen;isolation: isolate"/>
      </g>
    </g>
  </g>
</svg>
