<svg xmlns="http://www.w3.org/2000/svg" width="172.149" height="126.15" viewBox="0 0 172.149 126.15">
  <g id="Group_1243" data-name="Group 1243" transform="translate(-7562.209 -1808.603)">
    <g id="Group_1242" data-name="Group 1242">
      <path id="Path_2742" data-name="Path 2742" d="M7730.472,1893.759l3.886-1.708L7732,1888.52c-5.228-7.847-14.417-13.714-19.428-16.513a67.314,67.314,0,0,0-10.892-4.972c-1.258-.432-3.5-.619-4.471-1.426-1.077-.89-1.557-3.238-2.083-4.476a52.565,52.565,0,0,0-12.8-18.1,47.156,47.156,0,0,0-10.588-7.357c-1.009-.514-13.092-5.617-13.142-5.165l.79-7.082a8.424,8.424,0,0,0,3.984-6.9,7.671,7.671,0,0,0-3.936-6.905,8.115,8.115,0,0,0-4.4-1,8.56,8.56,0,0,0-8.139,8.281,7.722,7.722,0,0,0,1.147,4.161l-.726,8.117c-12.513.2-25.138,5.669-35.823,15.64l-.095-.126c-1.614,1.717-3.975,4.38-6.358,4.892-1.882.4-3.828.607-5.724.957-4.286.791-8.549,1.715-12.79,2.721-6.572,1.56-13.364,3.095-19.64,5.647l-4.673,1.9,3.349,3.769a122.31,122.31,0,0,0,23.789,20.941l-5.654,7.045c-.388.484-2.728.74-3.475,1.175a9.84,9.84,0,0,0-3.007,2.793,10.3,10.3,0,0,0-1.742,8.157c1.524,6.614,9.562,9.919,15.175,6.043a9.954,9.954,0,0,0,4.156-6.49,10.157,10.157,0,0,0-.888-6.27l5.5-6.551c1,.52,2,1.06,3.02,1.551l2.556,4.544a47.105,47.105,0,0,0,18.179,17.934,49.942,49.942,0,0,0,15.35,5.523c13.707,2.52,26.594-1.83,37.4-10.26a57.067,57.067,0,0,0,4.932-4.354c.814-.8.618-.959,1.719-1.38.213-.082,2.851-.321,2.853-.317l3.629,13.18a10.5,10.5,0,0,0,3.265,15.566,10.69,10.69,0,0,0,15.887-9.3,10.488,10.488,0,0,0-8.695-10.385l-2.618-10.759C7710.745,1900.53,7723.037,1897.032,7730.472,1893.759Z"/>
      <g id="Group_1241" data-name="Group 1241">
        <path id="Path_2743" data-name="Path 2743" d="M7704.633,1924.1a7.131,7.131,0,0,1-7.091,7.09,7.025,7.025,0,0,1-7.093-7.014,7.112,7.112,0,0,1,7.1-7.081A7.01,7.01,0,0,1,7704.633,1924.1Z" fill="#fff"/>
        <path id="Path_2744" data-name="Path 2744" d="M7714.2,1884.458c1.1.945.514,2.3-1.307,3.006-1.83.719-4.206.525-5.3-.419s-.522-2.287,1.308-3.005S7713.1,1883.529,7714.2,1884.458Z" fill="#fff"/>
        <path id="Path_2745" data-name="Path 2745" d="M7693.359,1903.561l2.611,10.73a9.7,9.7,0,0,0-3.824,1.384l-3.165-11.489C7690.443,1903.985,7691.912,1903.77,7693.359,1903.561Z" fill="#fff"/>
        <path id="Path_2746" data-name="Path 2746" d="M7694.823,1868.977c8.1.906,26.755,10.332,34.215,21.521-15.768,6.936-51.432,14.2-78.111,11.361-32.177-3.425-58.483-12.391-82.7-39.653,6.3-2.561,25.3-7.362,37.593-9.137C7630.409,1884.215,7675.919,1880.654,7694.823,1868.977Zm20.091,19.634c2.759-1.823,3.136-4.878.853-6.779-2.289-1.924-6.39-2.006-9.149-.183s-3.128,4.864-.839,6.788S7712.154,1890.434,7714.914,1888.611Zm-20.984,5c3.735-2.1,4.41-5.654,1.5-7.943-2.915-2.274-8.289-2.421-12.025-.322-3.726,2.084-4.386,5.647-1.494,7.927C7684.829,1895.549,7690.218,1895.7,7693.93,1893.612Zm-27.74,3.65c4.335-1.529,5.711-5.181,3.081-8.175s-8.286-4.18-12.621-2.651-5.711,5.18-3.082,8.175C7656.206,1897.591,7661.862,1898.776,7666.19,1897.262Zm-28.731-2.419c4.736-.249,7.279-3.541,5.665-7.338-1.607-3.812-6.764-6.693-11.508-6.429-4.736.249-7.279,3.542-5.665,7.338C7627.558,1892.226,7632.715,1895.107,7637.459,1894.843Zm-26.239-10.728c4.386.514,7.079-2.03,6.032-5.686s-5.448-7.053-9.827-7.583c-4.387-.514-7.08,2.03-6.032,5.686S7606.841,1883.585,7611.22,1884.115Zm-20.432-11.532c3.507.2,5.85-2.209,5.215-5.379-.619-3.163-3.987-5.886-7.51-6.094-3.507-.2-5.849,2.209-5.215,5.38C7583.906,1869.638,7587.266,1872.375,7590.788,1872.583Z" fill="#fff"/>
        <path id="Path_2747" data-name="Path 2747" d="M7694.171,1888.524c1.4,1.348.227,2.885-2.633,3.419s-6.34-.1-7.753-1.457c-1.422-1.342-.236-2.87,2.625-3.4S7692.75,1887.182,7694.171,1888.524Z" fill="#fff"/>
        <path id="Path_2748" data-name="Path 2748" d="M7676.231,1905.512a43.378,43.378,0,0,1-3.765,3.413c-5.78.858-12.583.852-15.544,1.075a51.394,51.394,0,0,0,13.446.51,43.424,43.424,0,0,1-4.963,3.036c-5.062.028-10.26-.47-12.772-.525a45.227,45.227,0,0,0,10.318,1.7,40.423,40.423,0,0,1-23.793,2.746,44.943,44.943,0,0,1-31.065-21.7C7630.416,1905.91,7653.538,1907.269,7676.231,1905.512Z" fill="#fff"/>
        <path id="Path_2749" data-name="Path 2749" d="M7691.984,1862.051c.465,1.023.9,2.067,1.286,3.124-18.981,12.163-61.91,16.149-83.328-13.714.371-.419.757-.829,1.142-1.239C7631.237,1877.168,7673.9,1871.274,7691.984,1862.051Z" fill="#fff"/>
        <path id="Path_2750" data-name="Path 2750" d="M7689.086,1856.735q.8,1.242,1.511,2.546c-17.7,9.378-58.8,15.909-77.948-10.669,10.687-10.518,26.284-18.234,42.658-15.228a49.239,49.239,0,0,1,17.167,6.873c-3.384,1.121-6.5,1.964-8.446,2.479a46.774,46.774,0,0,0,9.552-1.764c1.595,1.067,3.14,2.223,4.627,3.446a120.43,120.43,0,0,1-14.535,3.752,60.9,60.9,0,0,0,15.712-2.742,53.692,53.692,0,0,1,4.366,4.3,117.209,117.209,0,0,1-15.443,4.047c4.884.009,11.284-1.364,16.425-2.931a50.538,50.538,0,0,1,3.569,4.673,113.775,113.775,0,0,1-16.268,4.368C7677.116,1859.886,7683.857,1858.391,7689.086,1856.735Z" fill="#fff"/>
        <path id="Path_2751" data-name="Path 2751" d="M7666.961,1890.632c1.4,1.7-.089,3.588-3.312,4.212-3.231.6-6.982-.282-8.371-2s.088-3.589,3.3-4.2C7661.82,1888.033,7665.556,1888.909,7666.961,1890.632Z" fill="#fff"/>
        <path id="Path_2752" data-name="Path 2752" d="M7639.422,1887.06c1.168,2.178-.14,4.381-2.9,4.935s-5.965-.77-7.134-2.949.14-4.381,2.918-4.942C7635.079,1883.558,7638.268,1884.889,7639.422,1887.06Z" fill="#fff"/>
        <path id="Path_2753" data-name="Path 2753" d="M7655.739,1823.963l-.675,6.039c-1.412-.2-2.811-.359-4.206-.453l.532-5.923A8.947,8.947,0,0,0,7655.739,1823.963Z" fill="#fff"/>
        <path id="Path_2754" data-name="Path 2754" d="M7659.807,1816.437a5.043,5.043,0,0,1-4.768,4.789,4.2,4.2,0,0,1-4.582-4.262,5.048,5.048,0,0,1,4.768-4.789A4.2,4.2,0,0,1,7659.807,1816.437Z" fill="#fff"/>
        <path id="Path_2755" data-name="Path 2755" d="M7613.864,1878.61c.6,2.252-1.1,3.649-3.82,3.127-2.712-.537-5.421-2.794-6.021-5.046s1.123-3.656,3.835-3.118C7610.578,1874.094,7613.264,1876.358,7613.864,1878.61Z" fill="#fff"/>
        <path id="Path_2756" data-name="Path 2756" d="M7591.291,1903.611a6.3,6.3,0,0,1-7.332,5.175,6.471,6.471,0,0,1-5.066-7.525,6.308,6.308,0,0,1,7.346-5.167A6.447,6.447,0,0,1,7591.291,1903.611Z" fill="#fff"/>
        <path id="Path_2757" data-name="Path 2757" d="M7596.34,1889.533l-4.795,5.711a9.088,9.088,0,0,0-3.7-2.165l4.759-5.927C7593.842,1887.981,7595.1,1888.78,7596.34,1889.533Z" fill="#fff"/>
        <path id="Path_2758" data-name="Path 2758" d="M7592.457,1868.195c-.079,1.716-1.6,2.587-3.4,1.954a4.821,4.821,0,0,1-3.144-4.28c.079-1.716,1.6-2.586,3.4-1.953A4.819,4.819,0,0,1,7592.457,1868.195Z" fill="#fff"/>
      </g>
    </g>
  </g>
</svg>
