<svg xmlns="http://www.w3.org/2000/svg" width="1403.979" height="526.012" viewBox="0 0 1403.979 526.012">
  <g id="top-teeth" transform="translate(-6093.577 -3963.652)">
    <g id="Group_4457" data-name="Group 4457">
      <g id="Path_12286" data-name="Path 12286" fill="#ffd66e" stroke-miterlimit="10">
        <path d="M 6720.728515625 4367.36279296875 L 6694.84375 4355.37158203125 C 6692.0615234375 4354.0830078125 6626.1748046875 4322.7529296875 6579.9775390625 4231.0390625 C 6547.09228515625 4165.75244140625 6543.134765625 4077.0966796875 6570.771484375 4024.81787109375 C 6584.41845703125 3999.00341796875 6604.70751953125 3983.6279296875 6629.44482421875 3980.353759765625 C 6637.97607421875 3979.224853515625 6646.296875 3978.65234375 6654.1767578125 3978.65234375 C 6700.2509765625 3978.65234375 6735.52978515625 3998.549560546875 6753.5146484375 4034.67919921875 C 6775.05078125 4077.94384765625 6768.58544921875 4140.62109375 6738.4755859375 4180.4716796875 C 6698.46875 4233.421875 6715.75634765625 4338.18896484375 6715.935546875 4339.2412109375 L 6720.728515625 4367.36279296875 Z" stroke="none"/>
        <path d="M 6654.1767578125 3993.65234375 C 6647.03466796875 3993.6513671875 6639.4658203125 3994.158203125 6631.4130859375 3995.22412109375 C 6561.2451171875 4004.5107421875 6548.99609375 4136.18798828125 6593.3740234375 4224.291015625 C 6637.751953125 4312.39306640625 6701.14892578125 4341.76123046875 6701.14892578125 4341.76123046875 C 6701.14892578125 4341.76123046875 6682.1298828125 4230.1640625 6726.5078125 4171.42919921875 C 6768.2021484375 4116.24658203125 6765.107421875 3993.66650390625 6654.1767578125 3993.65234375 M 6654.15673828125 3963.65234375 L 6654.16064453125 3963.65234375 C 6706.2373046875 3963.6591796875 6746.2919921875 3986.51708984375 6766.9462890625 4028.01611328125 C 6790.83544921875 4076.015625 6783.7412109375 4145.44482421875 6750.44384765625 4189.51416015625 C 6720.4501953125 4229.21142578125 6726.03857421875 4309.236328125 6730.72265625 4336.72119140625 L 6740.3076171875 4392.9638671875 L 6688.5390625 4368.982421875 C 6685.56298828125 4367.603515625 6615.10205078125 4334.1142578125 6566.5810546875 4237.787109375 C 6531.138671875 4167.42333984375 6527.32421875 4074.90869140625 6557.5107421875 4017.80712890625 C 6573.2958984375 3987.94775390625 6598.1435546875 3969.36572265625 6627.47705078125 3965.4833984375 C 6636.658203125 3964.2685546875 6645.63427734375 3963.65234375 6654.15673828125 3963.65234375 Z" stroke="none" fill="#000"/>
      </g>
      <path id="Path_12287" data-name="Path 12287" d="M6658.523,4050.111c-47.394,0-60.323,120.646-20.108,180.97C6638.415,4231.081,6705.441,4050.111,6658.523,4050.111Z" fill="#fffdf8"/>
      <g id="Group_4455" data-name="Group 4455">
        <g id="Path_12288" data-name="Path 12288" fill="#ffd66e" stroke-miterlimit="10">
          <path d="M 6499.76025390625 4381.552734375 L 6476.89306640625 4372.7578125 C 6473.89697265625 4371.60546875 6402.99951171875 4343.58251953125 6358.9248046875 4260.943359375 C 6328.83837890625 4204.53125 6320.5458984375 4143.4189453125 6337.2841796875 4101.4560546875 C 6346.32568359375 4078.788818359375 6362.18505859375 4063.11376953125 6383.1484375 4056.125732421875 C 6401.1845703125 4050.11376953125 6418.46337890625 4047.0654296875 6434.5048828125 4047.0654296875 C 6464.337890625 4047.0654296875 6488.9150390625 4057.95458984375 6503.7099609375 4077.727294921875 C 6515.8486328125 4093.95068359375 6527.21044921875 4123.8603515625 6512.3994140625 4174.21826171875 C 6487.30859375 4259.5244140625 6497.09375 4356.220703125 6497.1953125 4357.1875 L 6499.76025390625 4381.552734375 Z" stroke="none"/>
          <path d="M 6434.50537109375 4062.0654296875 C 6420.31005859375 4062.06494140625 6404.57421875 4064.794921875 6387.89208984375 4070.35595703125 C 6334.31396484375 4088.2158203125 6330.2109375 4175.22998046875 6372.16015625 4253.884765625 C 6414.10986328125 4332.5400390625 6482.27783203125 4358.7578125 6482.27783203125 4358.7578125 C 6482.27783203125 4358.7578125 6471.7900390625 4259.1279296875 6498.0087890625 4169.98583984375 C 6518.666015625 4099.74951171875 6487.23681640625 4062.06689453125 6434.50537109375 4062.0654296875 M 6434.50244140625 4032.0654296875 L 6434.50341796875 4032.0654296875 C 6469.18115234375 4032.06640625 6498.02490234375 4045.091796875 6515.720703125 4068.74267578125 C 6529.912109375 4087.708984375 6543.35205078125 4122.138671875 6526.78955078125 4178.45068359375 C 6502.52783203125 4260.9404296875 6512.01416015625 4354.6796875 6512.11279296875 4355.6171875 L 6517.24267578125 4404.34765625 L 6471.5087890625 4386.75830078125 C 6468.29931640625 4385.5234375 6392.36572265625 4355.51953125 6345.689453125 4268.00244140625 C 6313.5810546875 4207.798828125 6305.021484375 4141.8525390625 6323.3515625 4095.8984375 C 6334.08154296875 4068.99853515625 6353.11865234375 4050.32470703125 6378.40478515625 4041.8955078125 C 6397.97314453125 4035.37255859375 6416.84716796875 4032.0654296875 6434.50244140625 4032.0654296875 Z" stroke="none" fill="#000"/>
        </g>
        <path id="Path_12289" data-name="Path 12289" d="M6411.682,4121.767c-42.131,4.681,13.406,140.753,13.406,140.753S6472,4115.064,6411.682,4121.767Z" fill="#fffdf8"/>
      </g>
      <g id="Group_4456" data-name="Group 4456">
        <g id="Path_12290" data-name="Path 12290" fill="#ffd66e" stroke-miterlimit="10">
          <path d="M 6279.49365234375 4466.869140625 L 6256.62646484375 4458.07421875 C 6253.6298828125 4456.921875 6182.73193359375 4428.8984375 6138.65869140625 4346.259765625 C 6108.57177734375 4289.8466796875 6100.279296875 4228.73388671875 6117.017578125 4186.77099609375 C 6126.05908203125 4164.1044921875 6141.91845703125 4148.43017578125 6162.8818359375 4141.4423828125 C 6180.91748046875 4135.4306640625 6198.19677734375 4132.38232421875 6214.23828125 4132.38232421875 C 6244.07080078125 4132.38232421875 6268.6484375 4143.27099609375 6283.44287109375 4163.04345703125 C 6295.58203125 4179.26708984375 6306.943359375 4209.17724609375 6292.1328125 4259.53564453125 C 6267.04248046875 4344.84130859375 6276.8271484375 4441.537109375 6276.9287109375 4442.50390625 L 6279.49365234375 4466.869140625 Z" stroke="none"/>
          <path d="M 6214.23828125 4147.3818359375 C 6200.04345703125 4147.3818359375 6184.3076171875 4150.11181640625 6167.625 4155.6728515625 C 6114.046875 4173.5322265625 6109.94482421875 4260.5458984375 6151.89404296875 4339.201171875 C 6193.8427734375 4417.85595703125 6262.01123046875 4444.07421875 6262.01123046875 4444.07421875 C 6262.01123046875 4444.07421875 6251.52392578125 4344.44482421875 6277.7421875 4255.30322265625 C 6298.3994140625 4185.0673828125 6266.97021484375 4147.38330078125 6214.23828125 4147.3818359375 M 6214.23486328125 4117.3818359375 L 6214.23583984375 4117.3818359375 C 6248.91357421875 4117.3828125 6277.7578125 4130.40869140625 6295.45361328125 4154.0595703125 C 6309.64501953125 4173.0263671875 6323.0849609375 4207.45556640625 6306.52294921875 4263.76806640625 C 6282.37158203125 4345.8828125 6291.75146484375 4440.01611328125 6291.84912109375 4440.95703125 L 6296.89208984375 4489.609375 L 6251.2421875 4472.07470703125 C 6248.0322265625 4470.84033203125 6172.0986328125 4440.83544921875 6125.42333984375 4353.31884765625 C 6093.314453125 4293.1142578125 6084.7548828125 4227.16748046875 6103.08544921875 4181.2138671875 C 6113.81494140625 4154.314453125 6132.85205078125 4135.64111328125 6158.13818359375 4127.21240234375 C 6177.70654296875 4120.689453125 6196.580078125 4117.3818359375 6214.23486328125 4117.3818359375 Z" stroke="none" fill="#000"/>
        </g>
        <path id="Path_12291" data-name="Path 12291" d="M6191.416,4207.083c-42.132,4.681,13.4,140.754,13.4,140.754S6251.738,4200.381,6191.416,4207.083Z" fill="#fffdf8"/>
      </g>
    </g>
    <g id="Group_4460" data-name="Group 4460">
      <g id="Path_12292" data-name="Path 12292" fill="#ffd66e" stroke-miterlimit="10">
        <path d="M 6870.44384765625 4367.34423828125 L 6875.19580078125 4339.25048828125 C 6875.37353515625 4338.19677734375 6892.55419921875 4233.2763671875 6852.6572265625 4180.4716796875 C 6822.54736328125 4140.62060546875 6816.08203125 4077.943603515625 6837.61865234375 4034.67919921875 C 6855.603515625 3998.549560546875 6890.8828125 3978.65234375 6936.95751953125 3978.65234375 C 6944.8369140625 3978.65234375 6953.158203125 3979.224853515625 6961.689453125 3980.353759765625 C 6986.4267578125 3983.6279296875 7006.71533203125 3999.003173828125 7020.3623046875 4024.817626953125 C 7047.9990234375 4077.096435546875 7044.041015625 4165.75244140625 7011.1552734375 4231.0390625 C 6964.9580078125 4322.7529296875 6899.0712890625 4354.0830078125 6896.2890625 4355.37158203125 L 6870.44384765625 4367.34423828125 Z" stroke="none"/>
        <path d="M 6936.95751953125 3993.65234375 C 6826.02490234375 3993.65234375 6822.93115234375 4116.24658203125 6864.625 4171.42919921875 C 6909.0029296875 4230.1640625 6889.98388671875 4341.76123046875 6889.98388671875 4341.76123046875 C 6889.98388671875 4341.76123046875 6953.380859375 4312.39306640625 6997.7587890625 4224.291015625 C 7042.13720703125 4136.18798828125 7029.88916015625 4004.5107421875 6959.72119140625 3995.22412109375 C 6951.66845703125 3994.158203125 6944.09912109375 3993.65234375 6936.95751953125 3993.65234375 M 6936.95751953125 3963.65234375 C 6945.4931640625 3963.65234375 6954.47607421875 3964.2685546875 6963.6572265625 3965.4833984375 C 6992.99072265625 3969.36572265625 7017.83837890625 3987.94775390625 7033.623046875 4017.80712890625 C 7063.8095703125 4074.90869140625 7059.99462890625 4167.42333984375 7024.5517578125 4237.787109375 C 6976.03076171875 4334.1142578125 6905.56982421875 4367.603515625 6902.59375 4368.982421875 L 6850.8251953125 4392.9638671875 L 6860.41015625 4336.72119140625 C 6865.03076171875 4309.1845703125 6870.5078125 4228.97998046875 6840.68896484375 4189.51416015625 C 6807.38720703125 4145.43798828125 6800.2939453125 4076 6824.1904296875 4027.99462890625 C 6844.84423828125 3986.5029296875 6884.892578125 3963.65234375 6936.95751953125 3963.65234375 Z" stroke="none" fill="#000"/>
      </g>
      <path id="Path_12293" data-name="Path 12293" d="M6932.61,4050.111c47.4,0,60.323,120.646,20.108,180.97C6952.718,4231.081,6885.692,4050.111,6932.61,4050.111Z" fill="#fffdf8"/>
      <g id="Group_4458" data-name="Group 4458">
        <g id="Path_12294" data-name="Path 12294" fill="#ffd66e" stroke-miterlimit="10">
          <path d="M 7091.39404296875 4381.544921875 L 7093.9375 4357.193359375 C 7094.0390625 4356.224609375 7103.76806640625 4259.33349609375 7078.734375 4174.21826171875 C 7063.923828125 4123.85986328125 7075.28515625 4093.950439453125 7087.42431640625 4077.726806640625 C 7102.21875 4057.95458984375 7126.7958984375 4047.0654296875 7156.62890625 4047.0654296875 C 7172.67041015625 4047.0654296875 7189.94921875 4050.11376953125 7207.9853515625 4056.125732421875 C 7228.94873046875 4063.11376953125 7244.80810546875 4078.788330078125 7253.84912109375 4101.455078125 C 7270.58740234375 4143.41796875 7262.294921875 4204.5302734375 7232.20849609375 4260.943359375 C 7188.13330078125 4343.58251953125 7117.23681640625 4371.60546875 7114.24072265625 4372.7578125 L 7091.39404296875 4381.544921875 Z" stroke="none"/>
          <path d="M 7156.62841796875 4062.0654296875 C 7103.896484375 4062.0654296875 7072.4677734375 4099.74951171875 7093.125 4169.98583984375 C 7119.3427734375 4259.1279296875 7108.85595703125 4358.7578125 7108.85595703125 4358.7578125 C 7108.85595703125 4358.7578125 7177.02294921875 4332.5400390625 7218.97314453125 4253.884765625 C 7260.921875 4175.22998046875 7256.81982421875 4088.2158203125 7203.2421875 4070.35595703125 C 7186.5595703125 4064.794921875 7170.82373046875 4062.0654296875 7156.62841796875 4062.0654296875 M 7156.62841796875 4032.0654296875 C 7174.28564453125 4032.0654296875 7193.16064453125 4035.37255859375 7212.72900390625 4041.8955078125 C 7238.01513671875 4050.32470703125 7257.0517578125 4068.998046875 7267.78173828125 4095.8974609375 C 7286.11181640625 4141.85107421875 7277.55224609375 4207.7978515625 7245.44384765625 4268.00244140625 C 7198.76708984375 4355.51953125 7122.8349609375 4385.5234375 7119.625 4386.75830078125 L 7073.8916015625 4404.34765625 L 7079.02099609375 4355.6171875 C 7079.11572265625 4354.69970703125 7088.4951171875 4260.56591796875 7064.34423828125 4178.45068359375 C 7047.78173828125 4122.13671875 7061.22216796875 4087.70703125 7075.4140625 4068.740234375 C 7093.10986328125 4045.08984375 7121.95263671875 4032.0654296875 7156.62841796875 4032.0654296875 Z" stroke="none" fill="#000"/>
        </g>
        <path id="Path_12295" data-name="Path 12295" d="M7179.451,4121.767c42.132,4.681-13.405,140.753-13.405,140.753S7119.128,4115.064,7179.451,4121.767Z" fill="#fffdf8"/>
      </g>
      <g id="Group_4459" data-name="Group 4459">
        <g id="Path_12296" data-name="Path 12296" fill="#ffd66e" stroke-miterlimit="10">
          <path d="M 7311.65966796875 4466.86181640625 L 7314.2041015625 4442.509765625 C 7314.30517578125 4441.541015625 7324.03515625 4344.650390625 7299.00048828125 4259.53564453125 C 7284.189453125 4209.17724609375 7295.55078125 4179.267578125 7307.6904296875 4163.0439453125 C 7322.48486328125 4143.271484375 7347.06201171875 4132.38232421875 7376.89453125 4132.38232421875 C 7392.9365234375 4132.38232421875 7410.21533203125 4135.4306640625 7428.25146484375 4141.44287109375 C 7449.21435546875 4148.43017578125 7465.07373046875 4164.10498046875 7474.115234375 4186.771484375 C 7490.85400390625 4228.734375 7482.56201171875 4289.8466796875 7452.4755859375 4346.259765625 C 7408.400390625 4428.8984375 7337.50341796875 4456.921875 7334.5068359375 4458.07421875 L 7311.65966796875 4466.86181640625 Z" stroke="none"/>
          <path d="M 7376.89501953125 4147.3818359375 C 7324.1630859375 4147.3818359375 7292.73388671875 4185.0673828125 7313.39111328125 4255.30322265625 C 7339.60986328125 4344.44482421875 7329.1220703125 4444.07421875 7329.1220703125 4444.07421875 C 7329.1220703125 4444.07421875 7397.2900390625 4417.85595703125 7439.240234375 4339.201171875 C 7481.18896484375 4260.5458984375 7477.0859375 4173.5322265625 7423.5078125 4155.6728515625 C 7406.82568359375 4150.11181640625 7391.08984375 4147.3818359375 7376.89501953125 4147.3818359375 M 7376.89453125 4117.3818359375 C 7394.5517578125 4117.3818359375 7413.4267578125 4120.689453125 7432.9951171875 4127.21240234375 C 7458.28076171875 4135.64111328125 7477.31787109375 4154.31494140625 7488.0478515625 4181.21435546875 C 7506.37841796875 4227.16796875 7497.8193359375 4293.1142578125 7465.7109375 4353.31884765625 C 7419.0341796875 4440.83544921875 7343.10107421875 4470.83984375 7339.8916015625 4472.07470703125 L 7294.1572265625 4489.66455078125 L 7299.287109375 4440.93359375 C 7299.38232421875 4440.015625 7308.76220703125 4345.8828125 7284.6103515625 4263.7685546875 C 7268.04736328125 4207.45458984375 7281.48828125 4173.0244140625 7295.68017578125 4154.0576171875 C 7313.37646484375 4130.40673828125 7342.21875 4117.3818359375 7376.89453125 4117.3818359375 Z" stroke="none" fill="#000"/>
        </g>
        <path id="Path_12297" data-name="Path 12297" d="M7399.718,4207.083c42.131,4.681-13.4,140.754-13.4,140.754S7339.4,4200.381,7399.718,4207.083Z" fill="#fffdf8"/>
      </g>
    </g>
  </g>
</svg>
