<svg xmlns="http://www.w3.org/2000/svg" width="84.75" height="84.186" viewBox="0 0 84.75 84.186">
  <g id="tp1" transform="translate(-7375.417 -2193.438)">
    <g id="Group_1113" data-name="Group 1113">
      <path id="Path_2408" data-name="Path 2408" d="M7416.3,2276.624a39.554,39.554,0,0,1-35.788-21.893l-.056-.112a40.405,40.405,0,0,1-1.58-31.53,43.273,43.273,0,0,1,40.464-28.651,39.392,39.392,0,0,1,35.77,21.951c9.768,19.776,1.289,44.569-18.9,55.265A42.913,42.913,0,0,1,7416.3,2276.624Z"/>
      <path id="Path_2409" data-name="Path 2409" d="M7419.342,2195.438a38.389,38.389,0,0,1,34.872,21.39c9.534,19.3,1.273,43.482-18.473,53.942a41.908,41.908,0,0,1-19.439,4.854,38.563,38.563,0,0,1-34.893-21.337l-.026-.053-.027-.054a39.422,39.422,0,0,1-1.536-30.756,42.273,42.273,0,0,1,39.522-27.986m0-2a44.27,44.27,0,0,0-41.406,29.314,41.4,41.4,0,0,0,1.623,32.3l.03.061.03.06a40.547,40.547,0,0,0,36.683,22.446,43.923,43.923,0,0,0,20.371-5.084c20.67-10.95,29.341-36.338,19.334-56.6a40.38,40.38,0,0,0-36.665-22.5Z" fill="#fff"/>
    </g>
    <g id="Group_1170" data-name="Group 1170">
      <g id="Group_1168" data-name="Group 1168">
        <path id="Path_2521" data-name="Path 2521" d="M7416.3,2259.624a22.662,22.662,0,0,1-20.558-12.442c-5.692-11.679-.464-26.358,11.65-32.735a25.645,25.645,0,0,1,11.948-3.009,22.5,22.5,0,0,1,20.519,12.46c5.751,11.6.564,26.285-11.569,32.712a25.86,25.86,0,0,1-11.989,3.014Z" fill="#ff521b"/>
        <path id="Path_2522" data-name="Path 2522" d="M7419.341,2213.438a20.5,20.5,0,0,1,18.722,11.338c5.278,10.648.436,24.164-10.708,30.067a23.707,23.707,0,0,1-11.053,2.781,20.627,20.627,0,0,1-18.765-11.331c-5.2-10.66-.437-24.167,10.789-30.076a23.513,23.513,0,0,1,11.015-2.779m0-4a27.663,27.663,0,0,0-12.887,3.244c-13.051,6.87-18.668,22.736-12.513,35.364a24.656,24.656,0,0,0,22.361,13.578,27.856,27.856,0,0,0,12.916-3.242c13.092-6.934,18.663-22.8,12.429-35.382a24.476,24.476,0,0,0-22.306-13.562Z"/>
      </g>
      <g id="Group_1169" data-name="Group 1169" style="mix-blend-mode: multiply;isolation: isolate">
        <path id="Path_2523" data-name="Path 2523" d="M7438.488,2225.733a19.927,19.927,0,0,1-10.636,19.86c-9.433,4.966-20.626,1.763-25.062-7.186-3.378-6.93-1.734-15.278,3.543-21.009-9.77,6.388-13.66,18.894-8.784,28.9,5.277,10.649,18.6,14.459,29.818,8.55C7438.182,2249.114,7443.032,2236.223,7438.488,2225.733Z" fill="#ff521b"/>
      </g>
      <ellipse id="Ellipse_36" data-name="Ellipse 36" cx="10.641" cy="8.505" rx="10.641" ry="8.505" transform="translate(7407.177 2215.598)" fill="#ff521b" opacity="0.5" style="mix-blend-mode: screen;isolation: isolate"/>
    </g>
  </g>
</svg>
