<svg xmlns="http://www.w3.org/2000/svg" xmlns:xlink="http://www.w3.org/1999/xlink" width="183.769" height="183.839" viewBox="0 0 183.769 183.839">
  <defs>
    <linearGradient id="linear-gradient" x1="207.698" y1="-36.664" x2="208.649" y2="-36.905" gradientUnits="objectBoundingBox">
      <stop offset="0" stop-color="#aaca23"/>
      <stop offset="1" stop-color="#2e5600"/>
    </linearGradient>
    <linearGradient id="linear-gradient-3" x1="6048.032" y1="-754.249" x2="6049.156" y2="-754.249" xlink:href="#linear-gradient"/>
    <linearGradient id="linear-gradient-4" x1="6511.914" y1="-767.803" x2="6512.92" y2="-767.803" xlink:href="#linear-gradient"/>
    <linearGradient id="linear-gradient-5" x1="813.816" y1="-119.089" x2="815.031" y2="-119.089" xlink:href="#linear-gradient"/>
    <linearGradient id="linear-gradient-6" x1="988.591" y1="-135.702" x2="989.855" y2="-135.702" xlink:href="#linear-gradient"/>
    <linearGradient id="linear-gradient-7" x1="1116.748" y1="-153.316" x2="1118.012" y2="-153.316" xlink:href="#linear-gradient"/>
    <linearGradient id="linear-gradient-8" x1="859.178" y1="-116.542" x2="860.357" y2="-116.019" xlink:href="#linear-gradient"/>
    <linearGradient id="linear-gradient-9" x1="1059.657" y1="-132.603" x2="1060.55" y2="-132.188" xlink:href="#linear-gradient"/>
    <linearGradient id="linear-gradient-10" x1="1216.981" y1="-152.245" x2="1217.874" y2="-151.83" xlink:href="#linear-gradient"/>
    <clipPath id="clip-path">
      <path id="Path_5722" data-name="Path 5722" d="M111.32,39.411c1.386,2.5,3.27,3.357,3.623,3.178s.3-2.342-.853-4.549-3.112-3.721-3.519-3.365S109.935,36.912,111.32,39.411Z" fill="#fff"/>
    </clipPath>
    <clipPath id="clip-path-2">
      <path id="Path_5728" data-name="Path 5728" d="M93.51,38.415c-1.258,2.567-3.1,3.519-3.457,3.359s-.416-2.323.623-4.589,2.919-3.873,3.343-3.536S94.768,35.85,93.51,38.415Z" fill="#fff"/>
    </clipPath>
    <linearGradient id="linear-gradient-11" x1="1338.516" y1="-150.034" x2="1338.081" y2="-149.837" gradientUnits="objectBoundingBox">
      <stop offset="0" stop-color="#aaca23"/>
      <stop offset="0.2" stop-color="#7f971a"/>
      <stop offset="0.48" stop-color="#49570f"/>
      <stop offset="0.716" stop-color="#212706"/>
      <stop offset="0.897" stop-color="#090a01"/>
      <stop offset="1"/>
    </linearGradient>
    <linearGradient id="linear-gradient-12" x1="-939.981" y1="123.554" x2="-940.387" y2="123.757" xlink:href="#linear-gradient-11"/>
    <linearGradient id="linear-gradient-13" x1="762.25" y1="-227.631" x2="762.481" y2="-228.626" xlink:href="#linear-gradient-11"/>
  </defs>
  <g id="Component_3_4" data-name="Component 3 – 4" transform="translate(0.5 0.5)">
    <g id="Group_1945" data-name="Group 1945" transform="translate(205.105 -11.592) rotate(90)">
      <path id="Union_1" data-name="Union 1" d="M-2502.215-2957.9l-.093-.028-.326-.1-.15-.049-.3-.1-.167-.06c-.219-.079-.437-.162-.618-.235l-.1-.038-.191-.08-.059-.025-.222-.094-.22-.1-.253-.116-.211-.1-.306-.151-.149-.076c-.127-.065-.254-.132-.364-.191l-.1-.052c-.151-.083-.3-.167-.458-.259l-.132-.077c-.108-.064-.217-.13-.324-.2l-.153-.1c-.105-.066-.209-.132-.308-.2l-.148-.1c-.118-.077-.233-.156-.355-.241l-.092-.063c-.152-.106-.3-.214-.455-.326l-.03-.023c-.136-.1-.27-.2-.4-.3l-.118-.094c-.108-.085-.215-.171-.319-.255l-.134-.11c-.105-.087-.209-.177-.339-.289l-.094-.08c-.125-.109-.249-.219-.357-.318l-.064-.058q-.212-.194-.422-.4l-.08-.078c-.109-.107-.218-.214-.328-.325l-.128-.13c-.094-.1-.186-.192-.276-.287l-.134-.143c-.094-.1-.187-.2-.305-.334l-.091-.1c-.131-.147-.259-.294-.385-.445a40.384,40.384,0,0,1-8.327-16.14,8.505,8.505,0,0,1-3.742,1.125l-.134,0h-.047c-.1,0-.2,0-.31-.008-.055,0-.126-.008-.185-.014-.105-.008-.209-.021-.307-.034-.054-.007-.143-.021-.2-.031a40.027,40.027,0,0,1-7.6,4.4c-1.311,4.831-3.355,9.26-7.538,9.8a5.826,5.826,0,0,1-.741.048c-4.347,0-6.929-4.419-8.949-9.665a42.952,42.952,0,0,1-10.2-5.27,5.76,5.76,0,0,1-2.408.521,6.7,6.7,0,0,1-2.628-.559,40.6,40.6,0,0,1-4.461,12c-.1.17-.194.338-.292.5l-.1.16c-.068.114-.138.228-.208.337l-.116.183c-.067.105-.135.21-.224.344l-.1.143c-.077.113-.153.224-.245.356l-.08.115q-.162.228-.328.448l-.09.119c-.083.109-.166.218-.248.324l-.136.171-.213.263-.149.179-.233.272-.129.147c-.079.089-.158.177-.268.3l-.116.127q-.163.176-.328.346l-.178.18-.2.2-.2.192-.177.168-.211.2-.184.164-.212.186-.085.072q-.286.245-.577.475l-.075.06c-.1.075-.192.148-.31.238l-.083.062-.3.221-.084.059c-.108.077-.217.153-.3.207l-.046.032a16.418,16.418,0,0,1-9.184,3,12.168,12.168,0,0,1-11.791-8.43c-3.681-10.247,3.871-17.026,9.386-21.976a41.912,41.912,0,0,0,5.4-5.415c.023-.034.049-.068.074-.1q.118-.158.224-.315a11.191,11.191,0,0,1-.7-1.087,59.256,59.256,0,0,1-3.871-8.528c-.178-.022-.354-.052-.529-.092-1.409-.292-3.576-1.34-4.541-4.927a44.619,44.619,0,0,1-1.236-8.327,5.615,5.615,0,0,1-2.58-2.318l-.04-.066c-.041-.073-.084-.151-.129-.234-.021-.042-.047-.088-.066-.125-.032-.065-.065-.134-.085-.176s-.059-.128-.079-.171-.049-.115-.067-.16c-.027-.065-.054-.13-.076-.186l-.049-.132c-.026-.07-.052-.142-.082-.23l-.027-.083c-.027-.08-.052-.161-.077-.243l-.02-.072c-.024-.081-.048-.167-.08-.288l-.005-.022,0,0v0c-.024-.1-.05-.2-.074-.3l-.005-.026c-.048-.206-.093-.426-.134-.661l-.005-.027q-.03-.172-.057-.347l-.005-.033c-.017-.111-.033-.223-.047-.328l-.007-.054c-.014-.11-.029-.223-.042-.337l-.01-.094-.023-.226-.009-.079a70.225,70.225,0,0,1-.31-7.254,5.352,5.352,0,0,1-2.3-1.554c-1.794-2.055-1.679-4.862-1.375-7.094.019-.135.039-.273.052-.369l.012-.068c.042-.272.089-.557.145-.856a63.883,63.883,0,0,1,1.894-7.729,5.353,5.353,0,0,1-.529-.581,6.528,6.528,0,0,1-.9-5.839c.916-3.713,1.716-6.772,2.49-9.513a4.585,4.585,0,0,1,.2-1.325c.49-1.6,1.036-3.27,1.673-5.1a4.637,4.637,0,0,1,.339-.755q.082-.243.165-.483a16.111,16.111,0,0,1-1.676-1.3l-.281-.248-.051.031a10.03,10.03,0,0,1-5.336,1.572,13.113,13.113,0,0,1-4.6-.963l-.286-.1a13.955,13.955,0,0,1-7.129,2.129,14.28,14.28,0,0,1-5.655-1.3l-.08-.032-.029.014-.1.047-.074.034c-.148.068-.3.133-.465.205-.116.049-.229.1-.376.155l-.138.055-.065.026-.164.062-.069.026-.3.107-.052.018-.054.018c-.164.057-.326.109-.528.172-.177.053-.351.1-.477.135l-.077.021-.12.031-.055.014c-.118.029-.235.056-.346.08l-.085.018c-.123.026-.246.051-.366.072l-.02,0,0,0-.044.006-.078.014-.078.012c-.156.024-.31.046-.478.065l-.069.008h-.022l-.1.009c-.132.014-.262.022-.367.029l-.064,0-.078,0c-.112.005-.22.007-.281.007h-.256l-.09,0c-.193-.006-.38-.016-.571-.034l-.1-.011c-.13-.014-.258-.031-.384-.051l-.05-.008-.016,0-.116-.019c-.093-.017-.183-.036-.252-.051-.026,0-.069-.015-.094-.021l-.219-.053-.113-.031c-.194-.055-.383-.115-.565-.184-.035-.012-.077-.03-.117-.045-.115-.046-.227-.093-.326-.138l-.1-.047-.018-.009c-.047-.021-.1-.049-.143-.069l-.2-.1-.113-.064c-.076-.042-.149-.087-.221-.132l-.072-.047c-.041-.025-.094-.06-.134-.087-.14-.1-.276-.2-.432-.321l-.012-.01-.058-.047-.005-.005-.058-.049c-.076-.064-.149-.13-.221-.2-.033-.031-.066-.061-.1-.094l-.028-.027c-.041-.04-.081-.081-.124-.124s-.086-.093-.126-.138-.074-.083-.11-.124c-.053-.062-.105-.125-.157-.19-.032-.041-.068-.086-.1-.123-.016-.02-.046-.061-.061-.082-.076-.1-.148-.21-.211-.308-.033-.051-.066-.1-.1-.161s-.06-.1-.083-.142c-.038-.067-.077-.134-.105-.19s-.07-.135-.109-.216v0l-.04-.083-.039-.083c-.011-.025-.023-.05-.033-.076q-.04-.094-.078-.189c-.028-.069-.054-.139-.08-.21s-.055-.155-.077-.225-.041-.13-.058-.193c-.031-.107-.061-.215-.086-.318l-.029-.13-.008-.031c-.01-.046-.021-.1-.03-.141-.015-.078-.029-.157-.042-.237-.008-.047-.016-.094-.022-.143l-.01-.068c-.01-.076-.019-.156-.028-.235l-.014-.139c-.007-.067-.011-.133-.017-.213,0-.037,0-.082-.005-.123v-.029c-.006-.132-.009-.267-.008-.4v-.126c0-.143.009-.288.015-.393l0-.035,0-.022c0-.031,0-.064.005-.094.006-.071.014-.143.022-.234l.008-.075c.009-.08.018-.161.028-.232l.006-.041.01-.068q.031-.219.075-.448l.016-.082c.048-.243.106-.491.165-.715l.017-.061c.027-.1.056-.2.094-.328a14.512,14.512,0,0,1,.58-1.6,25.763,25.763,0,0,1,3.662-5.867c6.145-7.65,18.654-15.369,32.743-15.369a37.648,37.648,0,0,1,4.4.257,18.338,18.338,0,0,1,5.641,1.6l.052.025c.182.085.361.175.508.252.025.012.081.041.106.054.164.086.325.173.479.26l.113.063c.148.084.3.172.449.265l.12.073c.137.085.271.172.426.274l.121.079c.128.085.252.172.4.274l.125.089c.119.085.235.172.374.278l.128.1c.11.085.218.171.344.273l.135.11c.1.085.2.17.311.262l.144.125c.1.086.193.17.286.256l.151.14c.09.084.179.169.261.248l.155.151c.084.085.167.167.245.248l.147.152c.077.082.156.165.232.248l.139.152.069.076a39.491,39.491,0,0,1,3.217-2.455,4.6,4.6,0,0,1,.512-.4,42.31,42.31,0,0,1,7.469-3.97,4.51,4.51,0,0,1,.975-.278,52.262,52.262,0,0,1,7.564-2.2c-1.8-3.119-2.56-7.846.308-14.835a7.437,7.437,0,0,1,.794-5.977,8.275,8.275,0,0,1,4.318-3.868,9.843,9.843,0,0,1,.809-.6l.456-.66.4-.578c2.745-4.006,6.163-6.123,9.885-6.123,3.594,0,6.927,1.971,9.905,5.856.682.892,1.337,1.782,1.953,2.657l.233.161a7.573,7.573,0,0,1,4.554,3.952,8.506,8.506,0,0,1,1.121,5.226,12.093,12.093,0,0,1,.189,2.091c2.03,6.075,1.146,10.271-.382,13.022a61.485,61.485,0,0,1,8.726,2.62,51.78,51.78,0,0,1,10.268,5.31c.066-.1.133-.207.214-.328l.038-.058c.08-.119.161-.239.239-.349l.062-.088c.084-.121.172-.241.261-.362l.06-.08c.089-.121.181-.24.276-.363l.063-.081c.1-.12.194-.24.3-.365l.063-.076c.1-.12.205-.24.315-.365l.068-.077c.107-.12.216-.24.333-.365l.067-.07c.115-.122.232-.241.355-.365l.068-.068c.123-.12.247-.24.376-.363l.069-.063c.13-.121.262-.24.394-.355l.072-.062q.208-.181.423-.356l.064-.051c.148-.121.3-.24.447-.351l.057-.041c.162-.121.326-.241.509-.369l.034-.022a18.24,18.24,0,0,1,5.949-2.693,38.492,38.492,0,0,1,9.42-1.151c10.822,0,22.073,4.345,29.363,11.339a27.779,27.779,0,0,1,3.776,4.374c.018.025.035.052.052.077.152.227.294.45.425.665l.046.075c.056.093.111.185.171.29l.043.074c.054.094.105.188.157.283l.037.067c.129.239.247.473.355.7l.046.1c.038.083.075.165.113.251l.052.123c.034.081.067.161.1.25l.043.112c.035.093.069.184.1.275l.03.084c.042.121.08.239.115.351l.042.14c.023.08.046.159.067.238l.042.156c.019.076.037.151.057.237l.033.15c.016.081.031.161.046.237.007.037.021.12.028.156.02.126.038.25.053.38l.017.159c.007.081.014.161.02.233s.009.137.011.19c0,.081.007.161.008.23s0,.136,0,.208,0,.155-.005.23-.005.132-.01.2c-.008.13-.02.257-.034.39-.008.068-.019.135-.031.217s-.025.163-.041.248c-.013.069-.027.139-.044.212s-.035.157-.058.243-.038.143-.059.218-.047.154-.076.239-.048.14-.075.215c-.035.092-.071.181-.108.268-.045.107-.093.211-.145.319-.043.087-.087.175-.134.261-.038.071-.078.139-.119.208s-.091.149-.137.221-.094.14-.138.2-.1.139-.157.213-.1.123-.151.19-.116.136-.185.212-.124.135-.192.2c-.092.093-.187.184-.282.27-.059.053-.119.1-.172.148s-.134.11-.211.169c-.059.046-.121.091-.185.136s-.135.1-.2.141-.128.084-.2.125-.14.083-.212.123-.128.072-.191.105c-.123.064-.251.126-.383.185-.063.029-.129.057-.178.076-.076.032-.155.063-.237.095-.065.025-.131.049-.2.071l-.218.072c-.065.02-.13.04-.2.058s-.15.042-.226.061-.123.031-.182.044c-.1.022-.2.044-.305.064l-.229.04c-.082.013-.166.026-.253.037l-.182.022c-.072.008-.144.016-.22.021l-.188.015-.23.013-.166.007c-.085,0-.171,0-.261,0h-.069l-.166,0-.069,0-.2-.006-.19-.01-.068,0-.136-.01-.174-.013-.162-.015-.057-.006-.016,0-.162-.018-.21-.027-.09-.012-.092-.014-.355-.057-.027-.005-.139-.026-.259-.049-.079-.016-.08-.018-.231-.051-.151-.033-.069-.016-.172-.043.56-2.211-.031-.007-.59,2.2-.119-.031-.092-.024-.105-.028.6-2.2-.026-.008-.631,2.192-.141-.04-.106-.031-.1-.028-.093-.027-.113-.034-.131-.042.035-.112-.069.039-.018.058-.052-.017-.075.042a13.5,13.5,0,0,1-6.987,2.119,14.7,14.7,0,0,1-5.8-1.292c-.093.047-.185.1-.269.138a12.051,12.051,0,0,1-5.689,1.631,10.286,10.286,0,0,1-4.246-.95l-.052-.023-.245.28a15.558,15.558,0,0,1-2.329,2.186c.073.179.144.357.214.538a62.2,62.2,0,0,1,3.562,13.458,66.1,66.1,0,0,1,.735,10.572v.315a7.694,7.694,0,0,1-2.017,5.726,40.289,40.289,0,0,1-1.114,11.569,5.931,5.931,0,0,1-2.315,3.507,54.055,54.055,0,0,1-2.759,16.235c-.026.08-.054.16-.082.24-.982,2.806-2.4,4.578-4.239,5.3-1.359,4.3-3.826,10.818-7.187,14.453-.393.425-.779.823-1.16,1.193a11.084,11.084,0,0,0,.78.8l.072.068a41.767,41.767,0,0,0,6.333,4.331c6.343,3.832,15.029,9.079,13.328,19.833a12.451,12.451,0,0,1-12.717,10.736A16.709,16.709,0,0,1-2502.215-2957.9ZM-2622.778-3077.383Z" transform="translate(2645.627 3162.301)" fill="#fff" stroke="rgba(0,0,0,0)" stroke-miterlimit="10" stroke-width="1"/>
      <path id="Path_5645" data-name="Path 5645" d="M101.813,26.892c1.879,0,4.006,1.093,6.29,4.073q1.3,1.7,2.371,3.271c.1.054.2.111.3.174a7.019,7.019,0,0,1,1.442,1.115.545.545,0,0,1,.045-.039.518.518,0,0,1,.3-.091c.544,0,1.32.691,1.9,1.75.651,1.192.818,2.427.417,2.88a8.358,8.358,0,0,1,.336,2.353q0,.329-.02.617c2.363,6.407.95,10.377-1.786,12.367.349.345.417.607.331.632.267.651-.29,1.282-.522,1.507a1.239,1.239,0,0,1,.473.326c.154.187.127.354.064.354h-.01a1.124,1.124,0,0,1-.057.694,59.89,59.89,0,0,1,12.79,3.3,45.358,45.358,0,0,1,13.748,8.21,6.455,6.455,0,0,1,.319-1.311c.061-.163.129-.337.2-.517l0,0c.035-.086.071-.173.109-.262l.008-.018c.037-.087.076-.176.116-.266l.011-.025c.039-.088.08-.178.123-.269l.014-.032c.042-.089.086-.18.13-.271l.019-.04.138-.273.023-.045c.047-.091.1-.183.145-.275l.027-.05c.049-.091.1-.184.154-.277l.03-.053c.053-.093.107-.186.163-.279l.033-.057c.056-.093.114-.186.173-.28l.037-.059c.059-.093.12-.187.182-.28l.04-.062c.063-.093.127-.187.192-.28l.044-.063c.066-.093.134-.187.2-.28l.046-.063c.07-.093.142-.187.214-.28l.05-.063c.074-.093.149-.186.226-.279l.052-.061c.077-.093.157-.186.238-.278l.054-.06c.082-.093.166-.185.251-.276l.056-.058c.087-.092.175-.183.266-.274l.055-.055c.093-.091.186-.182.282-.272l.055-.05c.1-.091.2-.181.3-.27l.051-.044c.105-.09.211-.18.32-.268l.046-.037c.111-.09.225-.18.341-.267l.036-.027q.182-.136.369-.268l.02-.013a13.638,13.638,0,0,1,4.487-2.031,33.831,33.831,0,0,1,8.3-1.013c10.478,0,20.466,4.561,26.211,10.072a23.094,23.094,0,0,1,3.2,3.7v0c.115.171.222.339.323.506l.032.052c.041.068.081.135.12.2l.036.062c.038.067.076.135.112.2l.027.049c.088.163.168.324.242.481l.032.069.073.162.034.08.062.152.03.076c.024.061.046.121.067.181l.014.038c.025.071.047.14.068.208.009.026.016.052.023.078.013.044.026.087.038.13s.015.058.022.087.019.079.028.119.013.056.019.085.017.082.024.123c0,.025.009.049.013.073.01.061.019.121.026.18,0,.025,0,.051.007.076s.008.072.01.108,0,.056,0,.083,0,.065,0,.1,0,.056,0,.083l0,.1,0,.076c0,.049-.008.1-.013.144,0,.026-.008.052-.011.078s-.009.061-.015.091l-.015.074c-.006.027-.012.053-.019.079s-.013.049-.02.073-.016.051-.024.076-.015.046-.024.069-.022.056-.034.084-.028.065-.044.1-.026.054-.04.08l-.035.061c-.013.021-.026.043-.04.064l-.041.06-.044.06c-.015.019-.029.038-.044.056l-.054.062c-.019.02-.038.041-.058.061s-.055.055-.085.082l-.054.045c-.02.017-.04.034-.062.05l-.06.045-.066.045-.063.041c-.024.015-.05.029-.075.043s-.041.024-.063.035c-.044.023-.09.046-.136.067l-.068.028-.088.036-.078.027-.088.03-.082.024-.1.026-.081.02-.138.028-.11.019-.122.019-.092.011-.113.011-.1.008-.119.006c-.033,0-.065,0-.1,0-.049,0-.1,0-.148,0h-.171l-.127,0-.1,0-.036,0h-.023l-.082-.006-.112-.009-.1-.01-.042,0h0c-.038,0-.075-.007-.113-.012l-.145-.019-.058-.007-.06-.009c-.085-.012-.171-.026-.259-.042h-.006l-.1-.018-.177-.034-.068-.014-.055-.012L185,78.1l-.12-.028-.043-.01-.153-.038-.11-.028-.071-.019-.1-.026-.133-.036-.085-.025-.054-.016-.094-.028-.087-.026-.123-.038-.147-.046-.07-.023-.121-.041-.191-.065-.086-.03-.063-.022c-.114-.04-.23-.082-.347-.126a1.583,1.583,0,0,0-.566-.1c-1.646,0-3.424,2.382-6.912,2.382a10.7,10.7,0,0,1-4.733-1.259,2.188,2.188,0,0,0-.987-.234c-1.743,0-3.465,1.971-6.036,1.971a5.681,5.681,0,0,1-2.369-.546,9.157,9.157,0,0,0-2.733-1.073c-.748,0-1.3.686-2.87,2.479a7.573,7.573,0,0,1-4.948,2.887c.767,1.507,1.437,3.014,2.02,4.5a57.768,57.768,0,0,1,3.3,12.472,62.083,62.083,0,0,1,.684,10.2c0,2.328-.783,2.825-1.451,2.825a1.964,1.964,0,0,1-.935-.278,33.476,33.476,0,0,1-.613,13.664c-.188.764-.587,1-1.016,1a3,3,0,0,1-1.557-.707,49.23,49.23,0,0,1-2.4,19.091c-.016.049-.032.1-.051.148-.712,2.054-1.4,2.64-1.958,2.64-.737,0-1.236-1.03-1.236-1.03s-2.926,11.864-7.287,16.582c-1.718,1.859-2.651,2.422-3.151,2.422-.578,0-.577-.752-.54-1.126v0l.006-.055a1.38,1.38,0,0,1,.02-.147,7.213,7.213,0,0,1-.565,1.008c.324-.225.524-.338.524-.338q.009.132.024.264c0,.025.006.05.009.076.007.061.014.123.022.184,0,.031.009.062.014.093.008.054.016.108.025.162l.018.1c.009.051.018.1.028.151s.014.071.022.106.02.1.031.142.017.073.026.109.022.09.033.135.02.075.031.113.023.084.035.125l.035.119c.012.038.024.077.037.115s.027.083.041.124.023.068.035.1.032.09.049.135c.009.025.019.05.029.075.02.053.04.106.061.158h0a11.54,11.54,0,0,0,2.97,4.069h0c6.658,6.174,20.071,9.186,18.332,20.18-.716,4.531-4.111,6.891-8.217,6.891a12.119,12.119,0,0,1-3.421-.514l-.082-.024q-.122-.036-.243-.075l-.112-.037q-.115-.038-.231-.078l-.124-.045q-.249-.09-.5-.189l-.046-.019c-.059-.023-.118-.049-.176-.073s-.124-.052-.186-.08-.113-.05-.17-.076l-.194-.089-.161-.077c-.072-.034-.143-.07-.214-.106l-.142-.071q-.147-.076-.294-.156l-.06-.032c-.119-.065-.237-.132-.355-.2l-.1-.062c-.086-.05-.171-.1-.256-.154l-.12-.074-.246-.157-.114-.075c-.091-.061-.183-.123-.274-.186l-.079-.054q-.18-.126-.359-.258l-.011-.008c-.113-.084-.225-.169-.337-.256l-.093-.073c-.086-.068-.171-.136-.257-.206l-.1-.086q-.126-.1-.252-.213c-.031-.028-.063-.054-.1-.082-.1-.088-.2-.178-.3-.269l-.038-.033q-.171-.157-.341-.321l-.066-.064q-.132-.129-.264-.261l-.1-.106c-.075-.077-.151-.155-.226-.235l-.109-.116-.228-.249-.1-.106q-.159-.179-.316-.363a34.091,34.091,0,0,1-7.961-17.363,10.374,10.374,0,0,1,1.048-5.205c-1.054.983-2.327,2.068-3.861,3.237-2.664,2.028-4.125,2.682-4.91,2.705h-.042c-.023,0-.045,0-.067,0l-.037,0c-.022,0-.043,0-.064-.006l-.035-.006-.059-.012-.029-.008a.618.618,0,0,1-.065-.021l-.014,0c-.026-.011-.05-.022-.072-.034l-.015-.009-.05-.032-.018-.013c-.014-.011-.028-.022-.041-.034l-.015-.014q-.022-.022-.042-.045l-.006-.007a.6.6,0,0,1-.042-.057l-.01-.015c-.009-.015-.018-.03-.026-.046l-.011-.021c-.007-.015-.013-.029-.019-.044l-.009-.022c-.007-.018-.013-.035-.019-.053l0-.015c-.006-.022-.012-.044-.017-.067l-.005-.027-.009-.044,0-.032-.005-.041,0-.032,0-.043,0-.051V176.9l0-.031,0-.04,0-.027q0-.04.009-.081l0-.019.006-.041,0-.023.006-.039,0-.022.007-.037,0-.016c.006-.026.011-.051.016-.075l0-.009.008-.032,0-.017.007-.027,0-.016.006-.024,0-.013.01-.035,0-.011,0-.013,0-.011,0-.008,0-.007v-.008a34.938,34.938,0,0,1-11.769,7.212c-.852,3.731-2.3,8.38-4.263,8.633a1.123,1.123,0,0,1-.153.01c-1.973,0-4.07-4.868-5.418-8.711-10.571-3.4-14.625-8.489-14.625-8.489v.023h0c.008.268.04,2.762-1.518,2.762-.658,0-1.6-.445-2.948-1.691a45.131,45.131,0,0,1-3.658-3.849c.049.242.092.49.126.745A34.087,34.087,0,0,1,71.419,191.4q-.119.209-.241.413l-.079.131c-.056.093-.113.185-.17.276l-.093.146c-.055.086-.111.171-.166.255l-.1.142c-.061.091-.124.181-.186.27l-.077.111q-.13.185-.264.363l-.073.1q-.1.132-.2.261l-.108.137-.171.211-.119.143-.169.2-.12.137c-.063.072-.127.142-.191.212l-.115.126c-.087.093-.174.185-.262.276l-.141.142-.154.154-.156.15c-.047.045-.094.09-.142.134s-.11.1-.166.153l-.128.115c-.06.054-.121.108-.181.16l-.067.056q-.222.19-.45.371l-.057.046c-.074.058-.149.115-.224.172l-.08.061c-.077.057-.153.113-.23.168l-.066.047c-.083.059-.166.118-.25.175l0,0a11.95,11.95,0,0,1-6.633,2.224,7.69,7.69,0,0,1-7.5-5.414c-3.762-10.475,8.85-15.941,14.238-23.251h0a11.045,11.045,0,0,0,2.267-5.239l0-.024q.012-.1.021-.2l0-.051c.006-.061.01-.122.014-.184l0-.07c0-.056.005-.113.007-.169-.245.58-.574,1.033-1.007,1.033-.4,0-.894-.393-1.489-1.445a62.9,62.9,0,0,1-5.217-12.967c-.221.453-1.113,2.166-1.989,2.166a.685.685,0,0,1-.189-.027c-.407-.057-.8-.509-1.111-1.658-1.5-5.56-1.219-13.687-1.219-13.687s-1.241,2.426-2.322,2.426a.914.914,0,0,1-.773-.552l0-.006c-.017-.028-.033-.059-.049-.09l-.018-.033c-.012-.024-.024-.05-.036-.076s-.019-.039-.028-.06l-.027-.064c-.012-.029-.024-.057-.035-.087s-.013-.036-.02-.054c-.013-.036-.027-.072-.04-.111l-.012-.038c-.016-.046-.031-.093-.046-.143l-.006-.023c-.017-.056-.033-.113-.049-.173l0-.011c-.017-.065-.034-.132-.05-.2v0c-.033-.146-.065-.3-.1-.47v0c-.015-.084-.029-.171-.043-.26v-.01q-.021-.13-.039-.27l0-.031c-.012-.086-.023-.175-.033-.266l-.007-.067c-.009-.079-.018-.158-.026-.241h0v-.011a68.95,68.95,0,0,1,.053-13.172l-.015.017-.007.007-.013.014-.008.009-.017.019-.012.012-.021.023-.016.017-.023.024-.02.021-.025.027-.023.024-.028.029-.028.028-.028.03-.031.031-.032.032-.034.034-.032.032-.039.038-.032.032-.043.042-.033.031-.047.045-.033.031-.051.048-.032.03-.056.051-.031.028-.061.055-.029.026-.065.057-.028.024-.07.06-.025.022-.075.063-.022.018-.081.065-.018.015-.087.068-.013.011-.093.071-.009.006c-.033.025-.066.05-.1.074h0a2.912,2.912,0,0,1-1.521.659c-.8,0-1.34-.876-.948-3.756l0-.014c.015-.111.032-.224.05-.341v-.007h0c.036-.234.077-.479.124-.738,1.653-8.982,4.16-12.958,4.16-12.958a7.183,7.183,0,0,1-2.974,1.315c-.731,0-1.2-.525-.777-2.239.89-3.607,1.8-7.1,2.767-10.466.042-.146.085-.29.127-.436-.09.1-.18.2-.27.3.515-1.687,1.058-3.323,1.618-4.935h.087c.6-1.8,1.224-3.556,1.9-5.256a8.127,8.127,0,0,1-4.448-2.2c-1.668-1.468-2.333-2.1-3.017-2.1-.627,0-1.271.53-2.72,1.426a5.466,5.466,0,0,1-2.94.89c-2.083,0-3.764-1.236-5.259-1.236a2.215,2.215,0,0,0-1.27.379,9.839,9.839,0,0,1-5.489,1.922c-2.741,0-4.532-1.547-5.967-1.547a1.649,1.649,0,0,0-.786.19c-.112.06-.222.117-.332.173l-.087.044-.027.013-.07.035-.146.071-.093.045c-.059.029-.119.057-.177.084l-.069.032-.071.032q-.174.08-.345.153l-.018.007c-.089.038-.176.075-.263.11l-.025.009-.111.044-.043.017-.12.046-.054.02-.208.075-.052.018-.033.012c-.117.04-.232.077-.344.112l-.031.009c-.121.037-.24.071-.356.1l-.022.006-.087.022-.029.007c-.076.019-.151.036-.225.052l-.052.012c-.081.017-.16.032-.238.046h0l-.081.014-.04.006c-.107.017-.213.032-.315.043h0l-.055,0h-.015c-.071.007-.141.012-.211.016h-.022l-.04,0c-.057,0-.113,0-.168,0h-.1l-.046,0c-.089,0-.176-.007-.261-.014l-.011,0h-.024q-.09-.011-.177-.024l-.031-.005h0l-.04-.006-.109-.022-.028-.006-.082-.02-.045-.013c-.07-.019-.139-.041-.2-.065l-.029-.012c-.043-.016-.085-.034-.126-.053l-.035-.016-.014-.007-.032-.015-.062-.033-.037-.021-.069-.042-.04-.025-.022-.014c-.043-.029-.084-.059-.123-.091l-.008-.006-.031-.027c-.024-.021-.049-.042-.072-.064l-.036-.035-.016-.016-.023-.022-.028-.032-.038-.042c-.018-.021-.036-.043-.053-.065L16.6,85.3l-.015-.02c-.023-.031-.044-.063-.065-.1L16.5,85.14c-.009-.014-.017-.029-.025-.044l-.036-.062c-.011-.021-.021-.043-.031-.064l-.014-.028-.018-.04,0,0-.03-.073c-.009-.023-.018-.046-.026-.069s-.019-.053-.028-.08-.013-.044-.02-.066c-.011-.039-.022-.077-.031-.117,0-.019-.009-.039-.013-.058l-.006-.024-.006-.03c-.007-.035-.013-.071-.019-.107l-.007-.042,0-.029c0-.032-.008-.064-.011-.1l-.006-.058c0-.03-.006-.059-.008-.089V83.93l0-.045c0-.061,0-.123,0-.185v-.058c0-.07,0-.142.01-.215v-.056c0-.04.008-.081.012-.122l0-.041c0-.044.01-.087.016-.132l0-.032,0-.023c.012-.083.027-.168.043-.254l.009-.048c.03-.149.065-.3.107-.459l0-.017c.018-.066.036-.132.056-.2l0-.014a10.278,10.278,0,0,1,.4-1.106h0a21.256,21.256,0,0,1,3.024-4.8c5.7-7.092,17.044-13.668,29.191-13.668a32.874,32.874,0,0,1,3.864.226,13.71,13.71,0,0,1,4.263,1.212l.017.008c.136.065.269.131.4.2l.058.029c.123.064.242.13.361.2.027.015.055.029.082.045.111.063.221.129.329.195l.1.058c.1.064.2.129.3.195l.106.069c.1.065.19.13.283.2l.111.078c.09.065.178.131.265.2.038.028.077.057.114.086.084.065.167.131.248.2.039.031.078.062.116.094.079.065.156.13.233.2l.116.1c.074.065.147.13.218.2l.116.107c.07.064.138.129.2.195l.115.112c.065.064.129.129.193.194l.112.116c.061.064.122.128.181.192l.11.12.17.19.107.124c.054.062.107.125.16.187l.1.126.149.184.1.129c.047.06.094.12.139.18l.1.13c.043.059.087.117.129.176l.1.132c.04.056.081.113.12.169l.091.135c.037.054.075.108.111.162l.089.136c.033.051.068.1.1.155s.058.091.087.137l.091.146.085.141.08.134.085.146.069.12c.031.054.06.107.09.16.017.032.036.064.053.1l.131.244c.069.131.134.274.2.423a35.549,35.549,0,0,1,6.978-6.061l-.005-.049a37.464,37.464,0,0,1,6.664-3.542l-.172.176.247-.1a47.016,47.016,0,0,1,8.023-2.383c.287-.061.579-.118.872-.173q1.784-.34,3.695-.585a.9.9,0,0,1-.062-.692c-.062,0-.105-.135-.03-.387a1.644,1.644,0,0,1,.619-.786.806.806,0,0,1-.184-1.06c-.075-.036-.017-.212.231-.411-4.852-3.186-3.875-8.977-1.569-14.185a9.135,9.135,0,0,1,.243-1.935c-.019-.006-.039-.009-.057-.016-.685-.258-.669-1.489.036-2.749a3.261,3.261,0,0,1,2.241-1.866.79.79,0,0,1,.22.03,6.841,6.841,0,0,1,1.283-1.1,5.8,5.8,0,0,1,.632-.4c.571-.843,1.057-1.531,1.387-2.012,1.419-2.07,3.538-4.142,6.127-4.142m0-1.822h0c-2.779,0-5.418,1.706-7.63,4.933l-.41.593c-.219.316-.472.679-.748,1.084q-.189.117-.377.251a7.755,7.755,0,0,0-1.045.822,5.293,5.293,0,0,0-3.271,2.742,4.71,4.71,0,0,0-.58,3.806,2.82,2.82,0,0,0,.225.473c-.042.305-.071.607-.086.9-3.55,8.253-1.58,12.778,1.211,15.231a2.543,2.543,0,0,0,.014.5,3.009,3.009,0,0,0-.249.566l-.015.051c-.753.115-1.487.241-2.193.376-.3.057-.607.116-.908.18a49.575,49.575,0,0,0-7.811,2.273,1.822,1.822,0,0,0-.6.134A39.083,39.083,0,0,0,70.354,63.7a1.812,1.812,0,0,0-.306.257,37.385,37.385,0,0,0-5.285,4.336l-.009-.014-.1-.155-1.541.975,1.507-1.025-.084-.122-.116-.166-1.524,1,1.485-1.057-.081-.113-.136-.184-.115-.154-.154-.2-.112-.143-.165-.2L63.5,66.6l-.177-.208L63.2,66.25l-.19-.212-.121-.133-.2-.214-.126-.13c-.07-.072-.142-.144-.214-.216l-.13-.126c-.074-.072-.15-.144-.227-.217l-.131-.12c-.08-.074-.162-.147-.245-.22l-.126-.109c-.09-.078-.177-.152-.266-.225l-.114-.093c-.108-.087-.2-.161-.3-.234l-.1-.076c-.127-.1-.226-.17-.327-.243l-.1-.069c-.133-.094-.24-.168-.348-.241l-.088-.058c-.145-.095-.26-.169-.376-.241l-.083-.05c-.15-.091-.274-.165-.4-.237l-.073-.041c-.154-.086-.29-.161-.429-.233l-.06-.031c-.156-.08-.307-.156-.461-.229a15.609,15.609,0,0,0-4.846-1.382,34.707,34.707,0,0,0-4.079-.24c-13.185,0-24.875,7.207-30.612,14.349a23.053,23.053,0,0,0-3.279,5.229,12.327,12.327,0,0,0-.476,1.3c-.029.1-.051.178-.073.258-.058.218-.1.41-.14.6l-.009.05c-.024.125-.042.235-.058.343l1.8.318-1.806-.246-.021.177-.006.055-.016.167,0,.055c-.009.124-.013.225-.015.325v.083c0,.093,0,.183.006.272v.028l0,.053.011.148.011.107.017.151.007.049.014.081c.007.044.016.1.027.155,0,.021.013.059.017.079l.025.109c.016.066.034.133.054.2l.034.114c.015.045.031.092.048.138l.049.129c.014.036.03.075.047.113.008.02.017.039.025.057l.049.1.054.108.06.107.053.092.055.088c.04.062.082.123.125.183l.031.042.061.078c.018.023.053.065.088.107l.077.087.057.062.07.07.075.073c.047.043.094.085.143.126.01.009.051.044.062.052l.013.011c.076.061.155.119.237.175l.062.041.058.037.132.079.06.034.12.064.079.038.074.034c.069.032.144.064.221.093l.054.021c.109.041.225.078.345.111l.076.021.132.032.05.011c.055.012.113.024.172.035l.063.011.054.009c.09.014.181.026.273.035l.053.006c.124.012.251.018.382.022l.063,0h.158c.063,0,.141,0,.22,0l.052,0c.124-.007.218-.013.315-.022l.091-.009.05-.006c.085-.008.22-.027.359-.049l.054-.008.1-.017.011,0c.094-.017.19-.036.288-.056l.049-.011c.1-.022.2-.044.289-.066l.055-.014.085-.021c.164-.044.305-.084.448-.127.167-.051.3-.1.436-.141l.085-.03.252-.091.062-.023.135-.051.047-.019.127-.05c.126-.051.224-.091.324-.134.146-.062.274-.119.4-.178l.057-.025.1-.046.195-.092.1-.049.16-.079.054-.027-.794-1.64.842,1.617.1-.05c.105-.053.209-.107.315-.163a6.392,6.392,0,0,1,1.326.452,11.744,11.744,0,0,0,4.618,1.093,11.646,11.646,0,0,0,6.5-2.227.4.4,0,0,1,.26-.074,5.933,5.933,0,0,1,1.579.435,10.669,10.669,0,0,0,3.68.8,7.339,7.339,0,0,0,3.9-1.163c.335-.207.629-.4.889-.563.3-.19.622-.4.837-.518.335.235.941.769,1.53,1.289l.319.281a11.557,11.557,0,0,0,3.228,2.07c-.353.956-.7,1.947-1.043,2.966a1.713,1.713,0,0,0-.237.45c-.626,1.8-1.162,3.436-1.64,5a1.833,1.833,0,0,0-.056.823c-.805,2.825-1.636,5.985-2.594,9.872a4.158,4.158,0,0,0,.4,3.5,2.594,2.594,0,0,0,1.714.968,56.694,56.694,0,0,0-2.543,9.522c-.051.276-.095.539-.134.79-.02.134-.038.257-.054.378-.334,2.454-.11,3.969.726,4.926a2.651,2.651,0,0,0,2.025.913,3.275,3.275,0,0,0,1.009-.165,69.754,69.754,0,0,0,.232,9.592l.029.275.008.076.037.295c.018.139.033.241.048.34s.034.212.051.308l.005.026c.032.178.07.365.11.539.021.091.041.175.062.256s.045.164.066.236c.029.1.049.161.07.224l.016.05.054.15.033.089.047.117.047.112.044.1.062.129.042.079c.016.031.046.087.076.138l.016.027A2.716,2.716,0,0,0,53.9,142.7a2.576,2.576,0,0,0,.522-.054,47.114,47.114,0,0,0,1.259,9.966c.469,1.745,1.306,2.742,2.489,2.967a2.49,2.49,0,0,0,.571.067,2.64,2.64,0,0,0,1.214-.3,60.01,60.01,0,0,0,4.406,10.175,5.418,5.418,0,0,0,1.695,1.96,11.487,11.487,0,0,1-1.4,2.411c-.017.023-.034.047-.05.071a43.312,43.312,0,0,1-5.793,5.86c-5.484,4.922-11.7,10.5-8.64,19.017a9.53,9.53,0,0,0,9.219,6.621,13.711,13.711,0,0,0,7.659-2.54c.1-.067.191-.132.284-.2l.072-.051c.088-.063.173-.126.259-.189l.067-.051c.106-.081.19-.144.273-.21l.048-.038c.184-.146.351-.284.517-.426l.074-.062.186-.165.157-.141.184-.169.156-.148.173-.167.171-.17.037-.037.119-.12c.1-.1.193-.2.289-.305l.094-.1.034-.037.209-.233.106-.121.212-.248.132-.158.187-.231.12-.151c.073-.094.147-.189.22-.286l.079-.1c.1-.131.194-.263.289-.4l.062-.088c.091-.131.159-.229.226-.329l.087-.13c.077-.117.138-.209.2-.3l.1-.161c.062-.1.124-.2.185-.3l.087-.143q.132-.221.261-.449a37.613,37.613,0,0,0,4.774-15.479q.256.246.51.48c1.6,1.484,2.935,2.175,4.185,2.175a2.962,2.962,0,0,0,2.172-.913,3.372,3.372,0,0,0,.26-.3A38.972,38.972,0,0,0,97.2,184.81c2.915,7.979,5.087,9.082,6.834,9.082a2.962,2.962,0,0,0,.388-.025c2.379-.306,4.115-3.119,5.579-9.082a37.176,37.176,0,0,0,9.419-5.472c.038.025.079.05.122.075l.05.029a2.464,2.464,0,0,0,.266.125l.076.029c.061.022.124.043.19.061l.085.023c.062.015.12.027.179.037l.1.016c.056.008.113.014.171.019.019,0,.074.006.092.006.053,0,.106.005.16.005h.041l.1,0c.878-.027,2.369-.393,5.789-2.979,0,.174.009.348.019.523l0,.052a35.713,35.713,0,0,0,8.387,18.387c.113.133.228.265.343.4l.073.081c.113.126.2.216.279.306l.12.127c.081.086.163.172.246.256l.113.115c.1.1.193.193.29.287l.071.069q.186.179.374.351l.037.034c.114.1.224.2.335.3l.074.063c.122.106.214.184.307.26l.116.1c.093.076.188.152.283.226l.1.08q.186.144.372.282c.143.106.276.2.408.294l.064.044c.124.086.226.154.327.222l.122.08.277.177.133.083.283.17.117.069c.131.076.262.151.394.223l.058.031c.119.064.228.123.338.179l.121.061.275.137.181.086.217.1.19.085.193.082.062.026.152.064.053.021c.185.074.372.145.559.213l.14.05.26.088.128.042c.09.029.182.058.274.085l.073.022a13.98,13.98,0,0,0,3.956.593,9.683,9.683,0,0,0,10.017-8.429c1.414-8.938-5.734-13.256-12.041-17.066a43.172,43.172,0,0,1-6.8-4.687l-.049-.048a9.72,9.72,0,0,1-2.514-3.4,13.994,13.994,0,0,0,2.744-2.444c3.413-3.692,5.923-11.123,7.055-14.969.043,0,.086,0,.13,0,2.339,0,3.349-2.909,3.68-3.865.012-.031.039-.109.064-.187a51.358,51.358,0,0,0,2.618-17.149,2.892,2.892,0,0,0,2.388-2.362,37.134,37.134,0,0,0,.94-12.235c.975-.41,2.108-1.51,2.111-4.41l0-.331a63.56,63.56,0,0,0-.705-10.147,59.555,59.555,0,0,0-3.4-12.867c-.351-.9-.727-1.782-1.124-2.653a10.86,10.86,0,0,0,3.727-2.87l.282-.323c.516-.59,1.046-1.2,1.347-1.473.229.091.578.256.9.406.28.132.6.281.955.444a7.568,7.568,0,0,0,3.12.707,9.416,9.416,0,0,0,4.44-1.329,5.023,5.023,0,0,1,1.6-.641.37.37,0,0,1,.182.046,12.463,12.463,0,0,0,5.538,1.446,10.778,10.778,0,0,0,5.632-1.758,6.524,6.524,0,0,1,1.253-.62c.111.041.221.081.33.119l.067.024.065.023.241.082.131.043.079.026.128.041.6-1.723-.546,1.739.116.036.1.03.074.021.562-1.734-.513,1.749.582-1.729-.516,1.748.069.02.111.031.546-1.74-.483,1.757.084.023.079.021.093.023.513-1.75-.448,1.767.139.034.051.012.136.031.195.043.063.014.06.012.225.043.116.021c.11.02.212.036.312.051l.056.008.073.01.186.024.119.013.018,0,.05,0,.124.012.137.011.1.007.067,0,.133.007.15,0,.051,0h.183l.191,0,.111,0,.179-.01.133-.011.154-.015.13-.016.175-.026.158-.027c.068-.013.136-.027.2-.042l.111-.028.16-.042.128-.039.139-.045.126-.046c.05-.019.1-.039.147-.059l.113-.048c.08-.036.158-.074.234-.113l.1-.058c.053-.03.1-.056.142-.083l.115-.073c.04-.027.081-.055.12-.083l.112-.082c.041-.033.081-.065.119-.1s.07-.059.1-.087c.056-.05.111-.1.164-.157.038-.038.075-.078.111-.118s.074-.082.107-.122l.083-.1c.034-.044.063-.083.091-.123s.055-.079.081-.119.053-.084.079-.127.047-.081.068-.119.052-.1.077-.149c.032-.066.059-.127.085-.188s.044-.1.064-.159l.042-.12c.018-.055.033-.1.047-.148l.036-.133c.012-.048.023-.1.034-.143l.026-.128c.011-.055.018-.1.026-.156l.018-.133c.01-.082.017-.161.022-.242l.006-.111,0-.162v-.131l-.005-.149-.007-.128-.014-.157-.012-.112c-.01-.086-.022-.171-.036-.258,0-.015-.013-.075-.016-.089l-.036-.187-.023-.1-.041-.172-.03-.115-.049-.173-.031-.1c-.026-.087-.055-.176-.087-.266l-.02-.056c-.023-.066-.051-.142-.081-.219l-.031-.078-.083-.2-.042-.1-.088-.2L190.928,73c-.089-.188-.184-.378-.288-.571l-.025-.046c-.048-.088-.092-.166-.137-.245l-.031-.054c-.054-.094-.1-.172-.147-.25l-.038-.062q-.169-.278-.364-.569l-.03-.043a25,25,0,0,0-3.419-3.958c-6.7-6.426-17.482-10.578-27.472-10.578a35.711,35.711,0,0,0-8.75,1.068,15.52,15.52,0,0,0-5.081,2.3c-.165.115-.3.216-.441.319l-.044.032c-.129.1-.258.2-.384.3l-.054.043c-.122.1-.242.2-.36.3l-.058.05c-.116.1-.228.2-.339.306l-.06.055c-.11.1-.216.205-.32.308l-.062.061q-.153.155-.3.309l-.061.064c-.1.1-.191.208-.284.311l-.06.068c-.092.1-.181.208-.268.312l-.056.066c-.088.107-.172.211-.255.315l-.055.07c-.081.105-.161.208-.239.312l-.051.07c-.078.105-.153.209-.227.313l-.05.073c-.071.1-.143.205-.212.309l-.032.048c-.082.124-.149.227-.215.331l-.03.048c-.076.122-.14.225-.2.328l-.026.043c-.072.122-.133.225-.191.327l-.033.06c-.059.1-.116.2-.171.306l-.028.054c-.055.1-.109.2-.161.3l-.025.05c-.052.1-.1.2-.151.3-.07.144-.118.243-.164.341-.063.136-.108.234-.152.331l-.014.034a48.128,48.128,0,0,0-12.18-6.8,61.091,61.091,0,0,0-11.654-3.157l0-.013a2.869,2.869,0,0,0,.122-1.4v-.039c1.851-1.926,3.986-5.914,1.438-13.137,0-.11,0-.222,0-.335A9.6,9.6,0,0,0,116.8,40.2a5.6,5.6,0,0,0-.738-3.927,4.608,4.608,0,0,0-3.288-2.69,7.931,7.931,0,0,0-1.025-.714c-.682-.987-1.42-2-2.2-3.012-2.434-3.175-5.037-4.786-7.736-4.786Z" fill="#231f20"/>
      <path id="Path_5646" data-name="Path 5646" d="M109.337,178.76s-1.846,12.875-5.149,13.3-7.01-13.276-7.01-13.276Z" fill="#aaca23"/>
      <path id="Path_5647" data-name="Path 5647" d="M100.112,187.164a3.941,3.941,0,0,1,1.326-.657c.146-.041.3-.074.453-.105a5.3,5.3,0,0,1,1.109-.166,7.053,7.053,0,0,1,1.408.149,5.543,5.543,0,0,1,2.334,1.238c.13.144.259.289.385.431a55.221,55.221,0,0,0,2.21-9.294l-12.159.024A67.3,67.3,0,0,0,100.112,187.164Z" fill="#729415" opacity="0.4" style="mix-blend-mode: multiply;isolation: isolate"/>
      <g id="Group_1908" data-name="Group 1908">
        <path id="Path_5648" data-name="Path 5648" d="M75.994,172.861A34.087,34.087,0,0,1,71.419,191.4c-5.49,9.71-16.571,11.066-19.533,2.819C47,180.627,69.524,174.58,68.2,162.875,68.2,162.875,75.091,166.046,75.994,172.861Z" fill="#aaca23"/>
        <g id="Group_1907" data-name="Group 1907" opacity="0.6" style="mix-blend-mode: multiply;isolation: isolate">
          <path id="Path_5649" data-name="Path 5649" d="M62.495,178.471a1.133,1.133,0,0,0,1.015.484,1.675,1.675,0,0,0,1.371-.737,1.188,1.188,0,0,0,.4-.631,1.8,1.8,0,0,0-.3-1.406,1.277,1.277,0,0,0-1.067-.589c-.562.007-.958.57-1.216,1.1A2.034,2.034,0,0,0,62.495,178.471Z" fill="#59771f"/>
          <path id="Path_5650" data-name="Path 5650" d="M54.5,187.535a.1.1,0,0,0,.007.034c.548,1.108,1.72.854,2.413-.1a1.757,1.757,0,0,0-.659-2.773C55.016,184.356,54.039,186.483,54.5,187.535Z" fill="#59771f"/>
          <path id="Path_5651" data-name="Path 5651" d="M58.085,184.233a.312.312,0,0,0,.126.041.713.713,0,0,0,.866-.171.818.818,0,0,0-.034-1.218.741.741,0,0,0-1.07.241A.76.76,0,0,0,58.085,184.233Z" fill="#59771f"/>
          <path id="Path_5652" data-name="Path 5652" d="M59.639,180.486a.4.4,0,0,0,.358.379.321.321,0,0,0,.168.05.532.532,0,0,0,.227-.115h0l.006-.007a1.114,1.114,0,0,0,.317-.891.478.478,0,0,0-.72-.4A1.1,1.1,0,0,0,59.639,180.486Z" fill="#59771f"/>
          <path id="Path_5653" data-name="Path 5653" d="M71.933,180.13a.277.277,0,0,0,.143.1,1.031,1.031,0,0,0,1.6.1,1.8,1.8,0,0,0,.081-2.32C72.773,176.852,71.359,178.969,71.933,180.13Z" fill="#59771f"/>
          <path id="Path_5654" data-name="Path 5654" d="M69.285,175.653c.095.015.209-.043.2-.091a.922.922,0,0,0,.675-.525.811.811,0,0,0-.452-1.239c-.442-.079-.812.309-.985.764A.743.743,0,0,0,69.285,175.653Z" fill="#59771f"/>
          <path id="Path_5655" data-name="Path 5655" d="M68.246,177.582c-.632-.272-1.969,1.076-1.134,1.524C68.154,179.665,69.514,178.129,68.246,177.582Z" fill="#59771f"/>
        </g>
        <path id="Path_5656" data-name="Path 5656" d="M65.422,170.813c5.943.616,9.522,8,3.048,17.7-5.086,7.622-10.481,10.53-14.305,9.2,4.453,4,12.741,1.671,17.254-6.31a34.087,34.087,0,0,0,4.575-18.544c-.9-6.815-7.885-9.923-7.885-9.923C68.411,165.625,67.028,168.633,65.422,170.813Z" fill="#729415" opacity="0.4" style="mix-blend-mode: multiply;isolation: isolate"/>
      </g>
      <path id="Path_5657" data-name="Path 5657" d="M57.888,195.865c-2.25-4.074.821-13.6,6.291-18.126,2.823-2.336-6.956.086-10.859,8.287C48.444,196.276,60.017,199.718,57.888,195.865Z" fill="#e3f441" opacity="0.75" style="mix-blend-mode: screen;isolation: isolate"/>
      <g id="Group_1911" data-name="Group 1911">
        <path id="Path_5658" data-name="Path 5658" d="M128.675,177.177a34.091,34.091,0,0,0,7.961,17.363c7.208,8.511,18.348,7.772,19.716-.882,2.257-14.271-21.017-15.092-21.9-26.838C134.447,166.82,128.289,170.314,128.675,177.177Z" fill="#aaca23"/>
        <g id="Group_1910" data-name="Group 1910" opacity="0.6" style="mix-blend-mode: multiply;isolation: isolate">
          <path id="Path_5659" data-name="Path 5659" d="M142.452,178.455c-.353-.471-.846-.951-1.4-.853a1.277,1.277,0,0,0-.938.78,1.8,1.8,0,0,0-.034,1.436,1.176,1.176,0,0,0,.514.544,1.671,1.671,0,0,0,1.486.468,1.13,1.13,0,0,0,.9-.664A2.033,2.033,0,0,0,142.452,178.455Z" fill="#59771f"/>
          <path id="Path_5660" data-name="Path 5660" d="M150.274,185.115a1.756,1.756,0,0,0-.128,2.846c.859.809,2.057.84,2.388-.351a.066.066,0,0,0,0-.034C152.79,186.456,151.433,184.548,150.274,185.115Z" fill="#59771f"/>
          <path id="Path_5661" data-name="Path 5661" d="M148.3,183.892a.742.742,0,0,0-1.1-.035.818.818,0,0,0,.2,1.2.713.713,0,0,0,.882.007A.352.352,0,0,0,148.4,185,.763.763,0,0,0,148.3,183.892Z" fill="#59771f"/>
          <path id="Path_5662" data-name="Path 5662" d="M145.632,180.712a.479.479,0,0,0-.635.526,1.122,1.122,0,0,0,.476.815.014.014,0,0,0,.008.007h0a.568.568,0,0,0,.245.07.3.3,0,0,0,.156-.08.4.4,0,0,0,.281-.44A1.1,1.1,0,0,0,145.632,180.712Z" fill="#59771f"/>
          <path id="Path_5663" data-name="Path 5663" d="M131.836,181.822a1.8,1.8,0,0,0,.512,2.264,1.032,1.032,0,0,0,1.553-.4.288.288,0,0,0,.124-.121C134.372,182.311,132.586,180.5,131.836,181.822Z" fill="#59771f"/>
          <path id="Path_5664" data-name="Path 5664" d="M136.138,177.49a.987.987,0,0,0-1.109-.567.812.812,0,0,0-.215,1.3.932.932,0,0,0,.764.39c0,.049.119.084.21.051A.742.742,0,0,0,136.138,177.49Z" fill="#59771f"/>
          <path id="Path_5665" data-name="Path 5665" d="M137.17,180.368c.57-.386,2.136.688,1.4,1.285C137.649,182.4,136.027,181.14,137.17,180.368Z" fill="#59771f"/>
        </g>
        <path id="Path_5666" data-name="Path 5666" d="M138.022,173.478c-5.723,1.715-7.2,9.349.971,17.672,6.422,6.539,12.266,8.386,15.773,6.362-3.626,4.766-12.205,4.025-18.13-2.972a34.091,34.091,0,0,1-7.961-17.363c-.386-6.863,5.772-10.357,5.772-10.357A10,10,0,0,0,138.022,173.478Z" fill="#729415" opacity="0.4" style="mix-blend-mode: multiply;isolation: isolate"/>
      </g>
      <path id="Path_5667" data-name="Path 5667" d="M152.028,194.581c.123-4.651-6.987-11.7-13.926-13.2-3.582-.775,6.215-3.124,13.454,2.361C160.6,190.6,151.911,198.982,152.028,194.581Z" fill="#e3f441" opacity="0.7" style="mix-blend-mode: screen;isolation: isolate"/>
      <g id="Group_1913" data-name="Group 1913">
        <path id="Path_5668" data-name="Path 5668" d="M140.542,69.071c1.02-2.735,3.7-7.985,10.132-9.611,13.232-3.347,27.257,2.1,34.514,9.059s5.8,11.983-2.381,8.914c-2.438-.914-4.769,4.687-12.211,1.021-2.611-1.286-4.828,3.254-9.392,1.191-3.248-1.468-2.794-1.8-5.6,1.406s-6.372,4.261-10.906.581S139.523,71.805,140.542,69.071Z" fill="#aaca23"/>
        <path id="Path_5669" data-name="Path 5669" d="M144.7,81.632c4.534,3.68,8.1,2.626,10.906-.581s2.355-2.874,5.6-1.406c4.564,2.063,6.781-2.477,9.392-1.191,7.442,3.666,9.773-1.935,12.211-1.021,6.636,2.488,8.846-.342,5.578-5.213.29,1.079.186,2.022-.7,2.521-2.54,1.43-3.375-2.69-10.134-2.271s-8.437-4.951-13.648-1.716-6.553-1.047-10.019-.09c-6.466,1.784-8.467-5.947-3.85-11.025-5.967,1.8-8.5,6.791-9.49,9.432C139.523,71.805,140.165,77.948,144.7,81.632Z" fill="#729415" opacity="0.4" style="mix-blend-mode: multiply;isolation: isolate"/>
        <path id="Path_5670" data-name="Path 5670" d="M148.79,65.376s16.584-8.894,36.023,3.714C179.025,62.258,154.091,52.786,148.79,65.376Z" fill="#e3f441" style="mix-blend-mode: screen;isolation: isolate"/>
      </g>
      <g id="Group_1914" data-name="Group 1914" opacity="0.6" style="mix-blend-mode: multiply;isolation: isolate">
        <path id="Path_5671" data-name="Path 5671" d="M157.978,61.264c-.915-.591-2.055.1-2.73.76s-1.108,1.444.029,1.889a1.889,1.889,0,0,0,1.542.035,3.315,3.315,0,0,0,1.746-.788C159.134,62.492,158.594,61.662,157.978,61.264Z" fill="#59771f"/>
        <path id="Path_5672" data-name="Path 5672" d="M166.165,65.976c.585-.59.086-1.937-.5-2.327-1.193-.753-5.409.817-3.549,2.16a3.125,3.125,0,0,0,2.215.44C164.915,66.238,165.683,66.45,166.165,65.976Z" fill="#59771f"/>
        <path id="Path_5673" data-name="Path 5673" d="M171.358,64.369c-.129-.668.181-1.13.734-1.19a3.713,3.713,0,0,1,1.973.928c.309.244.576.51.332.875a2.59,2.59,0,0,1-1.112.7,3.41,3.41,0,0,1-1.212-.465A1.11,1.11,0,0,1,171.358,64.369Z" fill="#59771f"/>
        <path id="Path_5674" data-name="Path 5674" d="M166.194,60.5c-.345-.827-2.37.047-2.322.689C163.928,61.937,166.878,62.145,166.194,60.5Z" fill="#59771f"/>
        <path id="Path_5675" data-name="Path 5675" d="M159.759,60.436a1.172,1.172,0,0,0-.723.14.447.447,0,0,0-.094.776C160.24,62.7,161.051,60.629,159.759,60.436Z" fill="#59771f"/>
        <path id="Path_5676" data-name="Path 5676" d="M152.959,62.963a1.092,1.092,0,0,0-1.48.448c-.209.511.152,1.262.79,1.022C152.7,64.271,153.749,63.326,152.959,62.963Z" fill="#59771f"/>
      </g>
      <path id="Path_5677" data-name="Path 5677" d="M144.7,81.632c4.534,3.68,8.1,2.626,10.906-.581s2.355-2.874,5.6-1.406c4.564,2.063,6.781-2.477,9.392-1.191,7.442,3.666,9.773-1.935,12.211-1.021,4.713,1.768,7.188.849,7.06-1.574-1.615,3.291-4.552-1.782-8.394.232-7.059,3.706-8.564-2.937-12.979-.669-8.038,4.13-7.722-3.466-15.58,2.412-6.115,4.571-11.868-.142-12.782-6.335A12.877,12.877,0,0,0,144.7,81.632Z" fill="#63890e" opacity="0.4" style="mix-blend-mode: multiply;isolation: isolate"/>
      <g id="Group_1943" data-name="Group 1943">
        <g id="Group_1916" data-name="Group 1916">
          <path id="Path_5678" data-name="Path 5678" d="M64.2,70.9c-1.365-2.581-4.7-7.44-11.288-8.222-13.554-1.608-26.758,5.6-33.055,13.442s-4.206,12.632,3.511,8.532c2.3-1.221,5.336,4.031,12.242-.565,2.422-1.613,5.208,2.6,9.468-.033,3.03-1.873,2.539-2.144,5.738.671s6.87,3.4,10.888-.834S65.561,73.481,64.2,70.9Z" fill="#aaca23"/>
          <path id="Path_5679" data-name="Path 5679" d="M61.7,83.892c-4.018,4.237-7.691,3.652-10.888.834s-2.708-2.544-5.738-.671c-4.26,2.635-7.046-1.58-9.468.033-6.906,4.6-9.942-.656-12.242.565-6.257,3.325-8.815.8-6.2-4.449-.149,1.109.076,2.028,1.021,2.409,2.7,1.091,3-3.1,9.756-3.56s7.726-6,13.311-3.465S47.614,73.7,51.176,74.2c6.64.932,7.626-6.991,2.393-11.429,6.149,1.014,9.31,5.633,10.628,8.126C65.561,73.481,65.72,79.656,61.7,83.892Z" fill="#729415" opacity="0.4" style="mix-blend-mode: multiply;isolation: isolate"/>
          <path id="Path_5680" data-name="Path 5680" d="M55.54,68.3S37.947,61.626,20.3,76.637C25.157,69.115,48.659,56.5,55.54,68.3Z" fill="#e3f441" style="mix-blend-mode: screen;isolation: isolate"/>
        </g>
        <g id="Group_1917" data-name="Group 1917" opacity="0.6" style="mix-blend-mode: multiply;isolation: isolate">
          <path id="Path_5681" data-name="Path 5681" d="M57.162,66.685c-.526-.361-1.443-.015-1.9.312a1.174,1.174,0,0,0-.316,1.87,1.411,1.411,0,0,0,2.219-.035C57.613,68.364,57.783,67.111,57.162,66.685Z" fill="#59771f"/>
          <path id="Path_5682" data-name="Path 5682" d="M47.6,66.968a1.6,1.6,0,0,0,1.225.244,10.96,10.96,0,0,0,1.417-.068c.546-.123,1.639-.569,1.722-1.2a1.8,1.8,0,0,0-.627-1.428c-.819-.446-2.593.389-3.363.738C47.259,65.564,46.824,66.336,47.6,66.968Z" fill="#59771f"/>
          <path id="Path_5683" data-name="Path 5683" d="M43.44,65.69a1.164,1.164,0,0,0-.47,1c.071.5.677.68,1.138.637C45.592,67.186,44.38,65.335,43.44,65.69Z" fill="#59771f"/>
          <path id="Path_5684" data-name="Path 5684" d="M39.486,67.9a1.4,1.4,0,0,0-.328-1.843c-.675-.387-1.74.072-2.365.365-.478.224-1.825,1.333-1.71,1.885a1.465,1.465,0,0,0,1.959.9C37.851,68.908,38.983,68.676,39.486,67.9Z" fill="#59771f"/>
          <path id="Path_5685" data-name="Path 5685" d="M38.389,69.658c-.633-.271-1.97,1.076-1.134,1.524C38.3,71.742,39.656,70.2,38.389,69.658Z" fill="#59771f"/>
          <path id="Path_5686" data-name="Path 5686" d="M32.189,70.9c-.049-.6-.532-.621-.948-.528a2.3,2.3,0,0,0-1.431.976c-.184.273-.885,1.159-.474,1.447C30.014,73.27,32.249,71.656,32.189,70.9Z" fill="#59771f"/>
          <path id="Path_5687" data-name="Path 5687" d="M27.118,74.593a.912.912,0,0,0-.564,1.25c.162.339,1.078,1.011,1.461.929.492-.106.944-1.15.912-1.608C28.866,74.286,27.7,74.357,27.118,74.593Z" fill="#59771f"/>
        </g>
        <path id="Path_5688" data-name="Path 5688" d="M52.75,79.612c-5.643-4.027-6.458,5.975-14.364,2.476s-8.481,2.106-13.187.55-8.794,3.955-8.875-.238h0c-.911,3.689,1.735,5.072,7.041,2.253,2.3-1.221,5.336,4.031,12.242-.565,2.422-1.613,5.208,2.6,9.468-.033,3.03-1.873,2.539-2.144,5.738.671s6.87,3.4,10.888-.834a11.619,11.619,0,0,0,1.186-1.476C59.959,83.464,56.142,82.033,52.75,79.612Z" fill="#63890e" opacity="0.4" style="mix-blend-mode: multiply;isolation: isolate"/>
      </g>
      <g id="Group_1942" data-name="Group 1942">
        <g id="Group_1941" data-name="Group 1941">
          <path id="Path_5689" data-name="Path 5689" d="M113.289,55.446c4.254-2.967,5.478-10.575-5.186-24.481-5.43-7.084-9.969-3.5-12.417.069S82.23,49.478,91.359,55.327a.894.894,0,0,0-.071,1.476s-1.37,1.457-.263,2.121c0,0,9.692,5.687,22.308.576,0,0,1.125-1.386-.213-1.913C113.12,57.587,114.55,56.412,113.289,55.446Z" fill="url(#linear-gradient)"/>
          <g id="Group_1919" data-name="Group 1919">
            <path id="Path_5690" data-name="Path 5690" d="M109.6,56.13c-.061.12-.5-.024-1.466-.323a24.285,24.285,0,0,0-4.658-1.006,20.551,20.551,0,0,0-4.99.06l-1.046.181c-.32.051-.59.142-.825.194l-.741.185.72-.257c.227-.074.494-.191.808-.271l1.04-.272a17.276,17.276,0,0,1,5.087-.367,16.771,16.771,0,0,1,4.777,1.07C109.268,55.714,109.654,56.017,109.6,56.13Z" fill="#3c5108"/>
          </g>
          <g id="Group_1920" data-name="Group 1920">
            <path id="Path_5691" data-name="Path 5691" d="M95.05,53.718c-.054-.116.3-.383,1.186-.713a15.842,15.842,0,0,1,4.345-.867,16.839,16.839,0,0,1,4.6.364l.942.24c.285.071.529.172.734.236l.654.224s-.252-.058-.675-.151c-.21-.043-.458-.118-.748-.16l-.949-.148a20.889,20.889,0,0,0-4.516-.058,24.824,24.824,0,0,0-4.231.807C95.511,53.732,95.107,53.84,95.05,53.718Z" fill="#3c5108"/>
          </g>
          <g id="Group_1921" data-name="Group 1921">
            <path id="Path_5692" data-name="Path 5692" d="M111.676,45.974c-.054.115-.442.034-1.131-.419a8.091,8.091,0,0,1-2.579-2.866c-.142-.286-.282-.595-.41-.914a9.426,9.426,0,0,1-.287-1.006,8.209,8.209,0,0,1-.162-1.988c.027-.3.051-.585.073-.84s.1-.47.131-.653l.126-.582-.053.593c-.013.185-.044.4-.052.656s.013.528.02.824a8.806,8.806,0,0,0,.333,1.883c.08.322.232.621.337.925.139.292.283.573.424.835a10.232,10.232,0,0,0,2.4,2.722C111.451,45.64,111.736,45.855,111.676,45.974Z" fill="#3c5108"/>
          </g>
          <g id="Group_1922" data-name="Group 1922">
            <path id="Path_5693" data-name="Path 5693" d="M97.273,39.289c.126.008.2.305.095.919a5.551,5.551,0,0,1-1.307,2.62c-.169.177-.357.354-.556.525a5.6,5.6,0,0,1-.66.445,5.4,5.4,0,0,1-1.4.55c-.225.046-.435.086-.625.123-.189.021-.36.024-.5.035l-.447.024.436-.1c.135-.033.3-.063.481-.111l.581-.207a5.6,5.6,0,0,0,2.277-1.646,7.279,7.279,0,0,0,1.227-2.385C97.052,39.534,97.141,39.28,97.273,39.289Z" fill="#3c5108"/>
          </g>
          <g id="Group_1923" data-name="Group 1923" opacity="0.6" style="mix-blend-mode: multiply;isolation: isolate">
            <path id="Path_5694" data-name="Path 5694" d="M101.294,42.826c.528-.947.264-4.243-.66-4.862-1.76-1.329-3.145,3.979-2.105,5.061A2.02,2.02,0,0,0,101.294,42.826Z" fill="#59771f"/>
            <path id="Path_5695" data-name="Path 5695" d="M104.967,37.859c-.719-.807-1.622-.39-2.015.446a4.509,4.509,0,0,0-.245,2.609A1.935,1.935,0,0,0,103.88,42.6c.556.187,1.517.7,2.092.343.613-.38.279-1.829.194-2.4A5.241,5.241,0,0,0,104.967,37.859Z" fill="#59771f"/>
            <path id="Path_5696" data-name="Path 5696" d="M98.927,44.885c-.97-.239-2.61.353-2.692,1.5-.093,1.288,1.854,1.445,2.724.865C99.812,46.683,100.291,45.221,98.927,44.885Z" fill="#59771f"/>
            <path id="Path_5697" data-name="Path 5697" d="M104.607,46.8c-.6-.857-2.416.06-2.252.981C102.575,49.023,105.515,48.1,104.607,46.8Z" fill="#59771f"/>
            <path id="Path_5698" data-name="Path 5698" d="M94.163,47.529c.088-1.154-1.894-1.448-2.608-1.33-.915.15-2.211.326-2.615,1.332-.319.8.337,2.429,1.285,2.443C91.034,49.986,94.1,48.343,94.163,47.529Z" fill="#59771f"/>
            <path id="Path_5699" data-name="Path 5699" d="M112.383,51.239a2.92,2.92,0,0,0,1.9-2.369,6.115,6.115,0,0,0-2.452-2.562C108.849,46.132,110.294,51.239,112.383,51.239Z" fill="#59771f"/>
            <path id="Path_5700" data-name="Path 5700" d="M108.634,49.534a2.112,2.112,0,0,0-2.4-1.752c-1.614.357-1.435,1.831-.56,2.879.433.518.916.97,1.572.817A2.164,2.164,0,0,0,108.634,49.534Z" fill="#59771f"/>
            <path id="Path_5701" data-name="Path 5701" d="M103.577,50.34c-.081,2.295-5.765.91-3.533-1.287C100.973,48.136,103.629,48.909,103.577,50.34Z" fill="#59771f"/>
            <path id="Path_5702" data-name="Path 5702" d="M96.174,49.3c-1.168-.739-2.622.172-3.282,1.128-.69,1-.506,1.425.445,2.112,1.114.8,1.657.562,2.613-.319C96.88,51.361,97.609,50.128,96.174,49.3Z" fill="#59771f"/>
            <path id="Path_5703" data-name="Path 5703" d="M89.8,51.273c-.614-.036-1.053.3-.6,1.274.3.641,1.634,1.075,2.136.409C92.012,52.064,90.529,51.313,89.8,51.273Z" fill="#59771f"/>
            <path id="Path_5704" data-name="Path 5704" d="M112.1,53.593a.806.806,0,0,0,.952.337.2.2,0,0,0,.116.01c.657-.268,2.228-1.1,1.38-2a1.488,1.488,0,0,0-2.062-.1A1.538,1.538,0,0,0,112.1,53.593Z" fill="#59771f"/>
          </g>
          <path id="Path_5705" data-name="Path 5705" d="M91.04,55.679c-.124-.057.1-.487.93-.782a2.593,2.593,0,0,1,.472-.137,2.912,2.912,0,0,1,.476-.084l.508-.054-.48.172c-.138.042-.287.107-.438.17s-.3.119-.432.186C91.317,55.49,91.153,55.752,91.04,55.679Z" fill="#3c5108"/>
          <path id="Path_5706" data-name="Path 5706" d="M90.636,57.913c-.063,0-.108-.134-.032-.388a1.727,1.727,0,0,1,.794-.9,3.014,3.014,0,0,1,1.164-.367,3.377,3.377,0,0,1,.454-.038l.18-.008-.175.045a4.434,4.434,0,0,0-.432.119,3.948,3.948,0,0,0-1.046.481,2.071,2.071,0,0,0-.7.767C90.741,57.82,90.7,57.915,90.636,57.913Z" fill="#3c5108"/>
          <g id="Group_1924" data-name="Group 1924" opacity="0.5" style="mix-blend-mode: multiply;isolation: isolate">
            <path id="Path_5707" data-name="Path 5707" d="M91.359,55.327a.894.894,0,0,0-.071,1.476s-1.37,1.457-.263,2.121c0,0,9.692,5.687,22.308.576,0,0,1.125-1.386-.213-1.913,0,0,1.43-1.175.169-2.141,4.254-2.967,5.478-10.575-5.186-24.481-5.43-7.084-9.969-3.5-12.417.069S82.23,49.478,91.359,55.327Zm16.387-.321c-4.742-1.058-8.04-1.626-11.172-.212s-2.444-2.056,5.279-1.929S112.017,55.958,107.746,55.006ZM92.92,45.815c3.942-2.347,4.775-4.269,4.662-6.448-.047-.913-.375-.7-.724-.181-.483.72.784-1.991-.017-4.5s1.521-7.22,5.471-7.03,6.157,4.864,5.254,8.524c-.129.523-.365-.644-.543.878-.27,2.317-.271,6.346,2.746,8.116s5.021,1.854,5.578,5.145c.494,2.923-2.179,4.117-4.241,3.259a22.736,22.736,0,0,0-17.272-.613C88.923,54.751,86.476,49.653,92.92,45.815Z" fill="url(#linear-gradient)"/>
          </g>
          <path id="Path_5708" data-name="Path 5708" d="M103.312,29.944c.624-.233-.109-1.285-.3-1.169S102.687,30.178,103.312,29.944Z" fill="#3e5110"/>
          <path id="Path_5709" data-name="Path 5709" d="M103.351,30.165c.869-.324-.152-1.788-.417-1.625S102.483,30.489,103.351,30.165Z" opacity="0.5" fill="url(#linear-gradient-3)" style="mix-blend-mode: multiply;isolation: isolate"/>
          <path id="Path_5710" data-name="Path 5710" d="M101.428,30.008c.636.124.364-1.232.152-1.229S100.793,29.884,101.428,30.008Z" fill="#3e5110"/>
          <path id="Path_5711" data-name="Path 5711" d="M101.406,30.212c.848.166.484-1.641.2-1.637S100.56,30.047,101.406,30.212Z" opacity="0.5" fill="url(#linear-gradient-4)" style="mix-blend-mode: multiply;isolation: isolate"/>
          <path id="Path_5712" data-name="Path 5712" d="M109.118,40.576c1.882,3.329,4.93,4.2,5.565,3.879s.961-3.429-.579-6.386-4.59-4.758-5.351-4.165S107.236,37.245,109.118,40.576Z" fill="url(#linear-gradient-5)"/>
          <path id="Path_5713" data-name="Path 5713" d="M110.379,39.909c1.64,2.936,4.046,3.848,4.521,3.608s.553-2.863-.8-5.463-3.815-4.3-4.372-3.838S108.737,36.973,110.379,39.909Z" fill="url(#linear-gradient-6)"/>
          <path id="Path_5714" data-name="Path 5714" d="M110.8,39.685c1.452,2.6,3.583,3.407,4,3.193s.49-2.534-.709-4.835-3.379-3.806-3.871-3.4S109.346,37.086,110.8,39.685Z" opacity="0.5" fill="url(#linear-gradient-7)" style="mix-blend-mode: multiply;isolation: isolate"/>
          <path id="Path_5715" data-name="Path 5715" d="M95.693,39.49c-1.681,3.438-4.67,4.491-5.324,4.2s-1.164-3.366.2-6.41,4.3-5.022,5.1-4.476S97.374,36.056,95.693,39.49Z" fill="url(#linear-gradient-8)"/>
          <path id="Path_5716" data-name="Path 5716" d="M94.395,38.9c-1.463,3.028-3.809,4.084-4.3,3.87s-.724-2.824.476-5.5,3.551-4.519,4.134-4.091S95.858,35.874,94.395,38.9Z" fill="url(#linear-gradient-9)"/>
          <path id="Path_5717" data-name="Path 5717" d="M93.916,38.648c-1.273,2.637-3.318,3.555-3.741,3.37s-.63-2.46.413-4.79,3.094-3.936,3.6-3.563S95.191,36.011,93.916,38.648Z" opacity="0.5" fill="url(#linear-gradient-10)" style="mix-blend-mode: multiply;isolation: isolate"/>
          <g id="Group_1930" data-name="Group 1930">
            <g id="Group_1928" data-name="Group 1928">
              <path id="Path_5718" data-name="Path 5718" d="M111.32,39.411c1.386,2.5,3.27,3.357,3.623,3.178s.3-2.342-.853-4.549-3.112-3.721-3.519-3.365S109.935,36.912,111.32,39.411Z" fill="#fff"/>
              <g id="Group_1927" data-name="Group 1927" clip-path="url(#clip-path)">
                <g id="Group_1926" data-name="Group 1926">
                  <path id="Path_5719" data-name="Path 5719" d="M114.782,40.111c-.519.361-1.5-.385-2.2-1.661s-.841-2.6-.324-2.964,1.5.382,2.2,1.659S115.3,39.75,114.782,40.111Z" fill="#282825"/>
                  <g id="Group_1925" data-name="Group 1925" style="mix-blend-mode: multiply;isolation: isolate">
                    <path id="Path_5720" data-name="Path 5720" d="M114.231,38.962c-.323.225-.936-.238-1.37-1.034s-.525-1.624-.2-1.849.936.239,1.371,1.035S114.554,38.737,114.231,38.962Z" fill="#111110"/>
                  </g>
                  <path id="Path_5721" data-name="Path 5721" d="M113.258,38.09c-.179.127-.522-.133-.765-.577s-.293-.907-.112-1.032.523.133.766.577S113.439,37.965,113.258,38.09Z" fill="#fff"/>
                </g>
              </g>
            </g>
            <g id="Group_1929" data-name="Group 1929" opacity="0.6" style="mix-blend-mode: multiply;isolation: isolate">
              <path id="Path_5723" data-name="Path 5723" d="M111.32,39.411c1.386,2.5,3.27,3.357,3.623,3.178s.3-2.342-.853-4.549l0-.009c.937,1.8.98,3.561.692,3.707s-1.826-.555-2.956-2.594-.943-3.575-.612-3.866c.311-.273,1.732.791,2.684,2.407-1.167-2.012-2.938-3.347-3.322-3.01C110.165,35.033,109.935,36.912,111.32,39.411Z" fill="#c8ccbe"/>
            </g>
          </g>
          <g id="Group_1936" data-name="Group 1936">
            <g id="Group_1934" data-name="Group 1934">
              <path id="Path_5724" data-name="Path 5724" d="M93.51,38.415c-1.258,2.567-3.1,3.519-3.457,3.359s-.416-2.323.623-4.589,2.919-3.873,3.343-3.536S94.768,35.85,93.51,38.415Z" fill="#fff"/>
              <g id="Group_1933" data-name="Group 1933" clip-path="url(#clip-path-2)">
                <g id="Group_1932" data-name="Group 1932">
                  <path id="Path_5725" data-name="Path 5725" d="M89.887,39.132c.684.257,1.808-.558,2.514-1.819s.723-2.494.039-2.751-1.812.556-2.517,1.821S89.2,38.874,89.887,39.132Z" fill="#282825"/>
                  <g id="Group_1931" data-name="Group 1931" style="mix-blend-mode: multiply;isolation: isolate">
                    <path id="Path_5726" data-name="Path 5726" d="M90.425,38.007c.427.16,1.129-.347,1.569-1.133s.45-1.554.023-1.714-1.129.347-1.568,1.133S90,37.847,90.425,38.007Z" fill="#111110"/>
                  </g>
                  <path id="Path_5727" data-name="Path 5727" d="M91.522,37.078c.237.09.63-.195.875-.633s.252-.868.013-.958-.63.194-.875.633S91.284,36.988,91.522,37.078Z" fill="#fff"/>
                </g>
              </g>
            </g>
            <g id="Group_1935" data-name="Group 1935" opacity="0.6" style="mix-blend-mode: multiply;isolation: isolate">
              <path id="Path_5729" data-name="Path 5729" d="M93.51,38.415c-1.258,2.567-3.1,3.519-3.457,3.359s-.416-2.323.623-4.589l0-.007c-.845,1.845-.8,3.606-.5,3.737s1.795-.648,2.821-2.742.761-3.617.415-3.891c-.324-.256-1.69.878-2.559,2.541,1.065-2.069,2.765-3.492,3.166-3.174C94.443,33.985,94.768,35.85,93.51,38.415Z" fill="#c8ccbe"/>
            </g>
          </g>
          <g id="Group_1937" data-name="Group 1937">
            <path id="Path_5730" data-name="Path 5730" d="M90.56,42.889c-.026-.063.272-.208.87-.618a8.739,8.739,0,0,0,2.391-2.4,8.6,8.6,0,0,0,.816-1.6,6.036,6.036,0,0,0,.285-.872,6.5,6.5,0,0,0,.192-.843c.041-.271.078-.525.114-.754.012-.23.022-.434.031-.607.019-.341.028-.545.028-.545l.01.548c0,.171,0,.377.007.609-.022.233-.045.492-.07.767a6.152,6.152,0,0,1-.147.866,5.917,5.917,0,0,1-.249.9,7.828,7.828,0,0,1-.787,1.675,7.709,7.709,0,0,1-2.482,2.47C90.926,42.873,90.582,42.947,90.56,42.889Z" fill="#3c5108" opacity="0.5" style="mix-blend-mode: multiply;isolation: isolate"/>
          </g>
          <g id="Group_1938" data-name="Group 1938">
            <path id="Path_5731" data-name="Path 5731" d="M96.617,36.237c.062,0,.1.336-.015,1.04a8.794,8.794,0,0,1-1.207,3.133c-.138.24-.326.467-.5.712-.193.227-.4.457-.607.676-.231.2-.444.418-.68.592s-.466.342-.694.48l-.65.352a5.141,5.141,0,0,1-.538.228l-.489.192.474-.227a5.561,5.561,0,0,0,.518-.26l.618-.387c.215-.149.426-.333.653-.509s.419-.406.633-.61c.195-.223.383-.452.562-.681.158-.243.333-.466.464-.7a10.469,10.469,0,0,0,1.188-3.04C96.506,36.549,96.55,36.234,96.617,36.237Z" fill="#3c5108" opacity="0.5" style="mix-blend-mode: multiply;isolation: isolate"/>
          </g>
          <g id="Group_1939" data-name="Group 1939" opacity="0.5" style="mix-blend-mode: multiply;isolation: isolate">
            <path id="Path_5732" data-name="Path 5732" d="M107.95,36.832c.066,0,.115.279.264.888a11.175,11.175,0,0,0,1.05,2.76,9.835,9.835,0,0,0,1.9,2.439c.177.155.347.3.5.431s.305.223.421.312l.385.276-.405-.245c-.124-.081-.285-.162-.447-.282l-.533-.4a8.873,8.873,0,0,1-3.119-5.239C107.852,37.137,107.886,36.835,107.95,36.832Z" fill="#3c5108"/>
          </g>
          <g id="Group_1940" data-name="Group 1940">
            <path id="Path_5733" data-name="Path 5733" d="M113.5,43.158c-.026.057-.334-.031-.89-.419a6.435,6.435,0,0,1-.979-.851,8.013,8.013,0,0,1-1.141-1.509,9.407,9.407,0,0,1-1.118-3.1c-.039-.247-.074-.48-.107-.687-.013-.209-.027-.4-.037-.552-.019-.309-.032-.495-.032-.495s.027.185.069.492c.022.153.047.336.075.543.047.2.1.431.151.674a10.461,10.461,0,0,0,1.234,2.987,8.678,8.678,0,0,0,1.116,1.449,8.962,8.962,0,0,0,.921.849C113.276,42.943,113.532,43.1,113.5,43.158Z" fill="#3c5108" opacity="0.5" style="mix-blend-mode: multiply;isolation: isolate"/>
          </g>
        </g>
        <path id="Path_5734" data-name="Path 5734" d="M113.737,55.994c-.122.062-.3-.347-1.237-.965a5.882,5.882,0,0,0-.536-.339,6.271,6.271,0,0,0-.549-.315l-.6-.319.651.207a4.777,4.777,0,0,1,.6.236,3.634,3.634,0,0,1,.584.3C113.653,55.385,113.866,55.956,113.737,55.994Z" fill="#3c5108"/>
        <path id="Path_5735" data-name="Path 5735" d="M113.743,58.18c-.067-.009-.1-.059-.238-.174a3.01,3.01,0,0,0-.835-.412c-.306-.09-.681-.224-.994-.291s-.539-.141-.539-.141l.558.021a5.3,5.3,0,0,1,1.056.148,1.921,1.921,0,0,1,.937.5C113.849,58.022,113.812,58.2,113.743,58.18Z" fill="#3c5108"/>
      </g>
      <path id="Path_5736" data-name="Path 5736" d="M113,43.4c-2.024-1.316-4.418-5.024-4.05-7.917S106.267,40.66,113,43.4Z" fill="url(#linear-gradient-11)" style="mix-blend-mode: screen;isolation: isolate"/>
      <path id="Path_5737" data-name="Path 5737" d="M91.378,43.022c2.085-1.218,4.649-4.81,4.416-7.718S98.23,40.6,91.378,43.022Z" fill="url(#linear-gradient-12)" style="mix-blend-mode: screen;isolation: isolate"/>
      <path id="Path_5738" data-name="Path 5738" d="M106.275,33.528s-4-2.671-7.8-.053c0,0,.058-5.277,3.407-5.48C105.894,27.752,106.275,33.528,106.275,33.528Z" fill="url(#linear-gradient-13)" style="mix-blend-mode: screen;isolation: isolate"/>
      <path id="Path_5739" data-name="Path 5739" d="M50.919,125.793h0c.034-.024.067-.049.1-.074l.009-.006.093-.071.013-.011.087-.068.018-.015.081-.065.022-.018.075-.063.025-.022.07-.06.028-.024.065-.057.029-.026.061-.055.031-.028.056-.051.032-.03.051-.048.033-.031.047-.045.033-.031.043-.042.032-.032.039-.038.032-.032.034-.034.032-.032.031-.031.028-.03.028-.028.028-.029.023-.024.026-.027.019-.021.023-.024.016-.017.021-.023.012-.012.017-.019.008-.009.013-.014.007-.007.015-.017a68.95,68.95,0,0,0-.053,13.172v.011h0c.008.083.017.162.026.241l.007.067c.01.091.021.18.033.266l0,.031q.018.139.039.27v.01c.014.089.028.176.043.26v0c.03.168.062.324.1.47v0c.016.069.033.136.05.2l0,.011c.016.06.032.117.049.173l.006.023c.015.05.03.1.046.143l.012.038c.013.039.027.075.04.111.007.018.013.037.02.054s.023.058.035.087l.027.064c.009.021.019.04.028.06s.024.052.036.076l.018.033c.016.031.032.062.049.09l0,.006c1.141,1.946,3.1-1.874,3.1-1.874s-.279,8.127,1.219,13.687c.309,1.149.7,1.6,1.111,1.658.933.28,1.941-1.653,2.178-2.139a62.9,62.9,0,0,0,5.217,12.967c1.465,2.59,2.3,1.188,2.73-.252l0-.007.027-.094,0-.015.024-.086.006-.022.021-.079.008-.03.018-.072.009-.035.015-.066.01-.039.014-.063.009-.04.013-.058.01-.045.011-.052.01-.048.009-.046.01-.05.009-.043.01-.05.007-.039.009-.051.007-.034.009-.051,0-.031.009-.052,0-.025.009-.051,0-.022.007-.048,0-.02.008-.046,0-.016.007-.047v-.008l.007-.043v-.008l.006-.042h0l0-.032v-.006l0-.021v-.008l0-.015v-.006l0-.017s4.716,8.042,10.485,13.374c4.536,4.194,4.477-.69,4.465-1.071h0v-.023s5.277,6.63,19.49,9.806c.083.019.166.039.251.056,0,0,.194-.026.538-.1v0a34.32,34.32,0,0,0,15.949-8.42v.008l0,.007,0,.008,0,.011,0,.013,0,.011-.01.035,0,.013-.006.024,0,.016-.007.027,0,.017-.008.032,0,.009c0,.024-.01.049-.016.075l0,.016-.007.037,0,.022-.006.039,0,.023-.006.041,0,.019q-.006.04-.009.081l0,.027,0,.04,0,.031v.073c0,.013,0,.025,0,.038v.046l0,.05,0,.044,0,.032.005.041,0,.032.009.044.005.027c0,.023.011.045.017.067l0,.015c.006.018.012.035.019.053l.009.022c.006.015.012.029.019.044l.011.021c.008.016.017.031.026.046l.01.015a.6.6,0,0,0,.042.057l.006.007q.02.022.042.045l.015.014c.013.012.027.023.041.034l.018.013a.528.528,0,0,0,.05.032l.015.009c.022.012.046.023.072.034l.014,0a.618.618,0,0,0,.065.021l.029.008.059.012.035.006c.021,0,.042,0,.064.006l.037,0c.032,0,.065,0,.1,0h.009c.785-.023,2.246-.677,4.91-2.705,7.132-5.432,8.626-9.059,8.626-9.059a1.38,1.38,0,0,0-.02.147l-.006.055v0c-.069.7-.012,2.712,3.691-1.3,4.361-4.718,7.287-16.582,7.287-16.582s1.537,3.169,3.194-1.61c.019-.049.035-.1.051-.148a49.23,49.23,0,0,0,2.4-19.091s2.063,1.774,2.573-.3a33.488,33.488,0,0,0,.614-13.664s2.381,1.519,2.385-2.547a62.155,62.155,0,0,0-.683-10.2,57.834,57.834,0,0,0-3.3-12.472,47.563,47.563,0,0,0-8.683-14.312l-.064-.072q-.219-.245-.442-.489a44.406,44.406,0,0,0-17.009-11.4,65.171,65.171,0,0,0-20.263-4.032A80.533,80.533,0,0,0,87,59.189c-.293.055-.585.112-.872.173a47.016,47.016,0,0,0-8.023,2.383l-.247.1.172-.176a37.464,37.464,0,0,0-6.664,3.542l.005.049C64.5,69.809,59.918,76.272,56.466,84.042c-1.142,2.576-2.162,5.3-3.1,8.138h-.087c-.56,1.612-1.1,3.248-1.618,4.935.09-.1.18-.2.27-.3-.042.146-.085.29-.127.436-.972,3.361-1.877,6.859-2.767,10.466-1.089,4.425,3.751.924,3.751.924s-2.507,3.976-4.16,12.958c-.047.259-.088.5-.124.738h0v.007c-.018.117-.035.23-.05.341l0,.014C47.832,127.241,49.532,126.794,50.919,125.793Z" fill="#fff" stroke="#231f20" stroke-miterlimit="10" stroke-width="0.568"/>
    </g>
  </g>
</svg>
