<svg xmlns="http://www.w3.org/2000/svg" xmlns:xlink="http://www.w3.org/1999/xlink" width="390.243" height="137.076" viewBox="0 0 390.243 137.076">
  <defs>
    <clipPath id="clip-path">
      <path id="Path_447" data-name="Path 447" d="M4512.767,7096.274a13.175,13.175,0,0,0-3.066-3.384,6.758,6.758,0,0,0-.993-.708,5.955,5.955,0,0,0-1.226-.658,14.146,14.146,0,0,0-6.181-1.3,19.274,19.274,0,0,0-2.1.119,31.788,31.788,0,0,0-3.623.677c-.639.145-1.242.283-1.842.4a95.43,95.43,0,0,1-16.034,1.461q-1.264.021-2.531.02c-4.683,0-9.651-.2-15.636-.624-3.769-.268-7.608-.66-11.32-1.039-2.342-.24-4.765-.487-7.159-.7-1.18-.107-2.362-.161-3.514-.161a29.6,29.6,0,0,0-15.044,3.747,26.382,26.382,0,0,0-8.4,7.88,29.247,29.247,0,0,0-6.534,10.1,37.229,37.229,0,0,0-2.277,9.228,24.211,24.211,0,0,0,.493,9.92,10.187,10.187,0,0,0,6.091,6.894,11.032,11.032,0,0,0,3.836.661,15.963,15.963,0,0,0,6.257-1.391,22.42,22.42,0,0,0,4.174-2.364c.68-.486,1.3-1,1.905-1.49.532-.437,1.035-.85,1.546-1.22a23.6,23.6,0,0,1,6.578-3.36,25.916,25.916,0,0,1,7.877-1.294q.368,0,.729.012l.026.1c3.18,12.112-.971,24.619-4.986,36.714-.461,1.388-.918,2.767-1.361,4.135l-.134.409a15.193,15.193,0,0,0-1.051,5.985,11.337,11.337,0,0,0,2.708,6.333c2.8,3.433,6.767,5.488,9.91,6.9,6.76,3.027,14.609,4.958,24,5.9a74.3,74.3,0,0,0,7.483.434c1.276,0,2.511-.05,3.671-.146a6.519,6.519,0,0,0,5.713-4.58c3.922-2.01,4.229-7.767,4.355-10.161a64.813,64.813,0,0,0-.824-12.594c-.558-3.862-1.346-7.97-2.41-12.559-.985-4.253-2.067-8.425-3.216-12.4-.27-.932-.561-1.872-.843-2.781a44.778,44.778,0,0,1-2.059-8.524c-.029-.274-.044-.529-.053-.776.108-.006.215-.011.318-.012h.141a23.584,23.584,0,0,1,3.167.3c.333.047.665.093,1,.135a49.111,49.111,0,0,0,6.162.474,22.774,22.774,0,0,0,5.255-.561,12.259,12.259,0,0,0,8.248-6.26,12.751,12.751,0,0,0,3.863-5.174,27.919,27.919,0,0,0,1.882-10.315C4515.825,7103.662,4514.831,7099.492,4512.767,7096.274Z"/>
    </clipPath>
    <linearGradient id="linear-gradient" x1="0.5" y1="2.118" x2="0.5" y2="83.244" gradientUnits="objectBoundingBox">
      <stop offset="0" stop-color="#00ffd5"/>
      <stop offset="1" stop-color="#01cb2d"/>
    </linearGradient>
    <linearGradient id="linear-gradient-2" x1="0.5" y1="0.029" x2="0.5" y2="0.675" xlink:href="#linear-gradient"/>
    <clipPath id="clip-path-2">
      <path id="Path_455" data-name="Path 455" d="M4432.315,7129.522c-.681-2.1-1.487-4.272-2.4-6.467-.136-.338-.305-.729-.507-1.2-.691-1.6-.726-1.679-.8-1.8-4.888-10.815-10.544-18.79-17.258-24.339a30.75,30.75,0,0,0-15.283-7.082,26.018,26.018,0,0,0-3.464-.231,32.153,32.153,0,0,0-13.694,3.289,34.866,34.866,0,0,0-10.371,6.939,27.291,27.291,0,0,0-2.935,3.6c-.1.1-.213.2-.315.3a31.068,31.068,0,0,0-7.731,14.5c-2.294,9.458-1.549,20.465,2.277,33.648,3.4,11.708,8.067,21.845,13.875,30.129,3.608,5.145,7.654,8.917,12.028,11.21a21.743,21.743,0,0,0,10.02,2.583,17.507,17.507,0,0,0,7.149-1.489,17.141,17.141,0,0,0,7.639-6.744,16.873,16.873,0,0,0,4.945-7.675,16.7,16.7,0,0,0,.43-1.827,6.686,6.686,0,0,0,5.339,2.643,6.684,6.684,0,0,0,2.893-.656,8.151,8.151,0,0,0,3.368-3.552c.113-.195.221-.4.33-.6a8.7,8.7,0,0,0,2.92-3.3,32.042,32.042,0,0,0,3.115-7.887C4436.684,7153.08,4436.14,7141.326,4432.315,7129.522Zm-22.374,13.439a5.141,5.141,0,0,1-3.651-1.466c-1.028-1.089-1.5-2.924-1.416-5.454.006-.166.019-.337.03-.506a16.994,16.994,0,0,1,4.594,4.907,6.587,6.587,0,0,1,.906,2.5C4410.227,7142.955,4410.068,7142.961,4409.941,7142.961Z"/>
    </clipPath>
    <linearGradient id="linear-gradient-3" x1="0.5" y1="-9.278" x2="0.5" y2="10.988" xlink:href="#linear-gradient"/>
    <linearGradient id="linear-gradient-4" x1="0.5" y1="0.018" x2="0.5" y2="0.661" xlink:href="#linear-gradient"/>
    <linearGradient id="linear-gradient-5" x1="0.499" y1="-396.374" x2="0.499" y2="184.937" xlink:href="#linear-gradient"/>
    <linearGradient id="linear-gradient-6" x1="0.5" y1="0.081" x2="0.5" y2="0.728" xlink:href="#linear-gradient"/>
    <linearGradient id="linear-gradient-7" x1="0.499" y1="-23.87" x2="0.499" y2="52.389" xlink:href="#linear-gradient"/>
    <clipPath id="clip-path-3">
      <path id="Path_470" data-name="Path 470" d="M4309.063,7117.7l0-.051,0-.051c-.49-5.5-4.575-9.978-10.66-11.675a19.078,19.078,0,0,0-5.122-.719,16.065,16.065,0,0,0-3.5.375,9.527,9.527,0,0,0-3.926,1.752,15.314,15.314,0,0,0-3.475,4.095,20.308,20.308,0,0,0-4.706,6.518,61.159,61.159,0,0,0-3.163,7.381c-.5,1.387-.964,2.782-1.4,4.175-2.915-5.736-6.433-11.936-11.2-16.919-3.243-3.391-6.386-5.358-9.61-6.014a11.421,11.421,0,0,0-2.268-.228,13.822,13.822,0,0,0-7.569,2.444,37.265,37.265,0,0,0-8.327,7.968c-.319.4-.637.8-.955,1.214-.847.932-1.618,1.847-2.295,2.686-.528.653-1.054,1.338-1.581,2.04a7.594,7.594,0,0,0-.311-.95c-.028-.074-.057-.144-.077-.206a120.48,120.48,0,0,0-4.084-11.818,55.712,55.712,0,0,0-6.754-12.525,22.033,22.033,0,0,0-5.031-5.029,17.064,17.064,0,0,0-6.546-2.585,42.356,42.356,0,0,0-8.364-.758c-1.852,0-3.836.091-6.068.277a88.77,88.77,0,0,0-13.781,2.24,55.46,55.46,0,0,0-13.472,4.984,19.617,19.617,0,0,0-5.892,4.591,8.646,8.646,0,0,0-1.112,1.778,14.53,14.53,0,0,0-2.138,2.122,9.1,9.1,0,0,0-1.94,4.653,30.466,30.466,0,0,0,.548,10.6c2.1,10.185,7.193,19.62,11.393,26.7A235.824,235.824,0,0,0,4182,7170.243c3.279,4.25,6.285,7.912,9.191,11.195a57.9,57.9,0,0,0,10.3,9.635,19.907,19.907,0,0,0,6.648,3.091,16.569,16.569,0,0,0,3.829.435,21.4,21.4,0,0,0,3.835-.366,41.815,41.815,0,0,0,13.493-5.172,71.93,71.93,0,0,0,13.282-10.278c.124.129.248.251.367.368.055.055.106.1.145.144.422.486.866.977,1.319,1.459a39.823,39.823,0,0,0,14.664,10.289,27.238,27.238,0,0,0,9.25,1.72c.044,0,.088,0,.133,0a9.377,9.377,0,0,0,3.559-1,16.482,16.482,0,0,0,3.616-2.56,35.825,35.825,0,0,0,4.789-5.4,42.056,42.056,0,0,0,3.664-4.46,102.824,102.824,0,0,0,8.214-13.969,241.947,241.947,0,0,0,12.97-30.7c1.195-3.5,2.073-6.4,2.763-9.131A26.58,26.58,0,0,0,4309.063,7117.7Z"/>
    </clipPath>
    <linearGradient id="linear-gradient-8" x1="0.5" y1="0.214" x2="0.5" y2="0.72" xlink:href="#linear-gradient"/>
  </defs>
  <g id="what" transform="translate(-4139.487 -7071.524)">
    <g id="Group_275" data-name="Group 275">
      <g id="Group_274" data-name="Group 274">
        <path id="Path_439" data-name="Path 439" d="M4521.184,7090.875a23.235,23.235,0,0,0-5.131-5.713,17.013,17.013,0,0,0-2.036-1.454,16.116,16.116,0,0,0-2.653-1.406,25.124,25.124,0,0,0-13.273-1.9,41.344,41.344,0,0,0-4.756.871c-.5.114-.973.224-1.446.312a85.7,85.7,0,0,1-14.366,1.291q-1.178.021-2.357.02c-4.428,0-9.171-.191-14.926-.6-3.655-.261-7.4-.644-11.014-1.014-2.381-.243-4.843-.494-7.276-.714-1.476-.132-2.961-.2-4.413-.2a39.453,39.453,0,0,0-20.057,5.094q-.853.494-1.678,1.038a39.969,39.969,0,0,0-18.393-7.777,35.887,35.887,0,0,0-4.8-.321,42.034,42.034,0,0,0-17.953,4.242,44.367,44.367,0,0,0-13.252,8.985,36.781,36.781,0,0,0-3.453,4.108q-1.222,1.269-2.341,2.685c-.237.06-.47.122-.7.185-1.237.341-2.356.705-3.437,1.118-.856.329-1.587.647-2.288,1a14.22,14.22,0,0,0-4.521,3.3c-.128-.389-.258-.781-.391-1.172-1.54-4.527-4.156-11.2-9.065-16.89a30.058,30.058,0,0,0-21.5-10.358c-.885-.054-1.787-.082-2.682-.082a74.776,74.776,0,0,0-16.735,2.32,138.454,138.454,0,0,0-17.162,4.781,44.948,44.948,0,0,0-9.532,4.589,22.236,22.236,0,0,0-6.742,6.616,20.284,20.284,0,0,0-3.231,3.88,23.177,23.177,0,0,0-3.328-.941,21.334,21.334,0,0,0-4.264-.43A23.632,23.632,0,0,0,4237,7100.4a36.505,36.505,0,0,0-3.982,3.009,60.233,60.233,0,0,0-6.972-12.253,31.6,31.6,0,0,0-7.328-7.228,27.039,27.039,0,0,0-10.261-4.158,52.1,52.1,0,0,0-10.326-.954c-2.118,0-4.374.1-6.9.313a98.638,98.638,0,0,0-15.339,2.5,65.2,65.2,0,0,0-15.883,5.923,29.086,29.086,0,0,0-8.872,7.082,18.989,18.989,0,0,0-1.218,1.693,23.436,23.436,0,0,0-2.038,2.214,19.068,19.068,0,0,0-4.047,9.481,40.2,40.2,0,0,0,.65,14.068c2.4,11.638,7.987,22.027,12.584,29.779a245.15,245.15,0,0,0,17.017,24.484c3.412,4.422,6.558,8.255,9.62,11.715a66.858,66.858,0,0,0,12.132,11.256,29.647,29.647,0,0,0,9.98,4.568,28.5,28.5,0,0,0,11.779.181,51.809,51.809,0,0,0,16.735-6.37,70.719,70.719,0,0,0,7.822-5.321,46.337,46.337,0,0,0,13.373,8.014,37.055,37.055,0,0,0,12.531,2.366q.2.005.4.005a18.929,18.929,0,0,0,8.06-2.067,26.122,26.122,0,0,0,5.8-4.052,44.4,44.4,0,0,0,5.77-6.39,53.413,53.413,0,0,0,4.1-5.043c1.047-1.445,2.026-2.907,2.944-4.363.621,1.354,1.227,2.683,1.815,3.97l.295.649c1.033,2.268,2.2,4.84,3.539,7.36l.149.281c1.468,2.791,4.907,9.327,12.788,11.025a21.538,21.538,0,0,0,4.585.464c1.079,0,2.037-.066,2.872-.122.228-.018.455-.033.666-.044l4.654-.227a106.783,106.783,0,0,0,13.588-1.241,28.462,28.462,0,0,0,6.3-1.745,15.881,15.881,0,0,0,5.353-3.526l.526-.581a15.413,15.413,0,0,0,1.575-2.265c.144-.118.289-.242.433-.37a13.813,13.813,0,0,0,3.778,1.153,33.911,33.911,0,0,0,5.121.386l.513,0a34.789,34.789,0,0,0,8.944-1.233,38.887,38.887,0,0,0,8.478,6.093,31.772,31.772,0,0,0,14.664,3.726,27.079,27.079,0,0,0,22.52-11.783,27.144,27.144,0,0,0,2.842-3.31,16.722,16.722,0,0,0,7.388-1.653,15.637,15.637,0,0,0,2.623-1.6q.513.733,1.088,1.439c4.175,5.118,9.745,7.988,13.572,9.7,7.755,3.472,16.613,5.672,27.08,6.723a83.675,83.675,0,0,0,8.486.485c1.56,0,3.077-.062,4.5-.182a16.078,16.078,0,0,0,12.668-7.814c5.964-5.168,6.4-13.391,6.555-16.364a74.107,74.107,0,0,0-.912-14.55c-.6-4.148-1.439-8.527-2.565-13.387-.9-3.892-1.881-7.716-2.916-11.39a31.035,31.035,0,0,0,5.322-.761,22.32,22.32,0,0,0,13.717-9.491,22.865,22.865,0,0,0,5.33-7.8,37.62,37.62,0,0,0,2.663-13.987C4525.864,7101.848,4524.338,7095.792,4521.184,7090.875Z" fill="#fff"/>
        <path id="Path_440" data-name="Path 440" d="M4521.184,7090.875a23.235,23.235,0,0,0-5.131-5.713,17.013,17.013,0,0,0-2.036-1.454,16.116,16.116,0,0,0-2.653-1.406,25.124,25.124,0,0,0-13.273-1.9,41.344,41.344,0,0,0-4.756.871c-.5.114-.973.224-1.446.312a85.7,85.7,0,0,1-14.366,1.291q-1.178.021-2.357.02c-4.428,0-9.171-.191-14.926-.6-3.655-.261-7.4-.644-11.014-1.014-2.381-.243-4.843-.494-7.276-.714-1.476-.132-2.961-.2-4.413-.2a39.453,39.453,0,0,0-20.057,5.094q-.853.494-1.678,1.038a39.969,39.969,0,0,0-18.393-7.777,35.887,35.887,0,0,0-4.8-.321,42.034,42.034,0,0,0-17.953,4.242,44.367,44.367,0,0,0-13.252,8.985,36.781,36.781,0,0,0-3.453,4.108q-1.222,1.269-2.341,2.685c-.237.06-.47.122-.7.185-1.237.341-2.356.705-3.437,1.118-.856.329-1.587.647-2.288,1a14.22,14.22,0,0,0-4.521,3.3c-.128-.389-.258-.781-.391-1.172-1.54-4.527-4.156-11.2-9.065-16.89a30.058,30.058,0,0,0-21.5-10.358c-.885-.054-1.787-.082-2.682-.082a74.776,74.776,0,0,0-16.735,2.32,138.454,138.454,0,0,0-17.162,4.781,44.948,44.948,0,0,0-9.532,4.589,22.236,22.236,0,0,0-6.742,6.616,20.284,20.284,0,0,0-3.231,3.88,23.177,23.177,0,0,0-3.328-.941,21.334,21.334,0,0,0-4.264-.43A23.632,23.632,0,0,0,4237,7100.4a36.505,36.505,0,0,0-3.982,3.009,60.233,60.233,0,0,0-6.972-12.253,31.6,31.6,0,0,0-7.328-7.228,27.039,27.039,0,0,0-10.261-4.158,52.1,52.1,0,0,0-10.326-.954c-2.118,0-4.374.1-6.9.313a98.638,98.638,0,0,0-15.339,2.5,65.2,65.2,0,0,0-15.883,5.923,29.086,29.086,0,0,0-8.872,7.082,18.989,18.989,0,0,0-1.218,1.693,23.436,23.436,0,0,0-2.038,2.214,19.068,19.068,0,0,0-4.047,9.481,40.2,40.2,0,0,0,.65,14.068c2.4,11.638,7.987,22.027,12.584,29.779a245.15,245.15,0,0,0,17.017,24.484c3.412,4.422,6.558,8.255,9.62,11.715a66.858,66.858,0,0,0,12.132,11.256,29.647,29.647,0,0,0,9.98,4.568,28.5,28.5,0,0,0,11.779.181,51.809,51.809,0,0,0,16.735-6.37,70.719,70.719,0,0,0,7.822-5.321,46.337,46.337,0,0,0,13.373,8.014,37.055,37.055,0,0,0,12.531,2.366q.2.005.4.005a18.929,18.929,0,0,0,8.06-2.067,26.122,26.122,0,0,0,5.8-4.052,44.4,44.4,0,0,0,5.77-6.39,53.413,53.413,0,0,0,4.1-5.043c1.047-1.445,2.026-2.907,2.944-4.363.621,1.354,1.227,2.683,1.815,3.97l.295.649c1.033,2.268,2.2,4.84,3.539,7.36l.149.281c1.468,2.791,4.907,9.327,12.788,11.025a21.538,21.538,0,0,0,4.585.464c1.079,0,2.037-.066,2.872-.122.228-.018.455-.033.666-.044l4.654-.227a106.783,106.783,0,0,0,13.588-1.241,28.462,28.462,0,0,0,6.3-1.745,15.881,15.881,0,0,0,5.353-3.526l.526-.581a15.413,15.413,0,0,0,1.575-2.265c.144-.118.289-.242.433-.37a13.813,13.813,0,0,0,3.778,1.153,33.911,33.911,0,0,0,5.121.386l.513,0a34.789,34.789,0,0,0,8.944-1.233,38.887,38.887,0,0,0,8.478,6.093,31.772,31.772,0,0,0,14.664,3.726,27.079,27.079,0,0,0,22.52-11.783,27.144,27.144,0,0,0,2.842-3.31,16.722,16.722,0,0,0,7.388-1.653,15.637,15.637,0,0,0,2.623-1.6q.513.733,1.088,1.439c4.175,5.118,9.745,7.988,13.572,9.7,7.755,3.472,16.613,5.672,27.08,6.723a83.675,83.675,0,0,0,8.486.485c1.56,0,3.077-.062,4.5-.182a16.078,16.078,0,0,0,12.668-7.814c5.964-5.168,6.4-13.391,6.555-16.364a74.107,74.107,0,0,0-.912-14.55c-.6-4.148-1.439-8.527-2.565-13.387-.9-3.892-1.881-7.716-2.916-11.39a31.035,31.035,0,0,0,5.322-.761,22.32,22.32,0,0,0,13.717-9.491,22.865,22.865,0,0,0,5.33-7.8,37.62,37.62,0,0,0,2.663-13.987C4525.864,7101.848,4524.338,7095.792,4521.184,7090.875Z" fill="none" stroke="#fff" stroke-miterlimit="10" stroke-width="8"/>
        <path id="Path_441" data-name="Path 441" d="M4521.184,7090.875a23.235,23.235,0,0,0-5.131-5.713,17.013,17.013,0,0,0-2.036-1.454,16.116,16.116,0,0,0-2.653-1.406,25.124,25.124,0,0,0-13.273-1.9,41.344,41.344,0,0,0-4.756.871c-.5.114-.973.224-1.446.312a85.7,85.7,0,0,1-14.366,1.291q-1.178.021-2.357.02c-4.428,0-9.171-.191-14.926-.6-3.655-.261-7.4-.644-11.014-1.014-2.381-.243-4.843-.494-7.276-.714-1.476-.132-2.961-.2-4.413-.2a39.453,39.453,0,0,0-20.057,5.094q-.853.494-1.678,1.038a39.969,39.969,0,0,0-18.393-7.777,35.887,35.887,0,0,0-4.8-.321,42.034,42.034,0,0,0-17.953,4.242,44.367,44.367,0,0,0-13.252,8.985,36.781,36.781,0,0,0-3.453,4.108q-1.222,1.269-2.341,2.685c-.237.06-.47.122-.7.185-1.237.341-2.356.705-3.437,1.118-.856.329-1.587.647-2.288,1a14.22,14.22,0,0,0-4.521,3.3c-.128-.389-.258-.781-.391-1.172-1.54-4.527-4.156-11.2-9.065-16.89a30.058,30.058,0,0,0-21.5-10.358c-.885-.054-1.787-.082-2.682-.082a74.776,74.776,0,0,0-16.735,2.32,138.454,138.454,0,0,0-17.162,4.781,44.948,44.948,0,0,0-9.532,4.589,22.236,22.236,0,0,0-6.742,6.616,20.284,20.284,0,0,0-3.231,3.88,23.177,23.177,0,0,0-3.328-.941,21.334,21.334,0,0,0-4.264-.43A23.632,23.632,0,0,0,4237,7100.4a36.505,36.505,0,0,0-3.982,3.009,60.233,60.233,0,0,0-6.972-12.253,31.6,31.6,0,0,0-7.328-7.228,27.039,27.039,0,0,0-10.261-4.158,52.1,52.1,0,0,0-10.326-.954c-2.118,0-4.374.1-6.9.313a98.638,98.638,0,0,0-15.339,2.5,65.2,65.2,0,0,0-15.883,5.923,29.086,29.086,0,0,0-8.872,7.082,18.989,18.989,0,0,0-1.218,1.693,23.436,23.436,0,0,0-2.038,2.214,19.068,19.068,0,0,0-4.047,9.481,40.2,40.2,0,0,0,.65,14.068c2.4,11.638,7.987,22.027,12.584,29.779a245.15,245.15,0,0,0,17.017,24.484c3.412,4.422,6.558,8.255,9.62,11.715a66.858,66.858,0,0,0,12.132,11.256,29.647,29.647,0,0,0,9.98,4.568,28.5,28.5,0,0,0,11.779.181,51.809,51.809,0,0,0,16.735-6.37,70.719,70.719,0,0,0,7.822-5.321,46.337,46.337,0,0,0,13.373,8.014,37.055,37.055,0,0,0,12.531,2.366q.2.005.4.005a18.929,18.929,0,0,0,8.06-2.067,26.122,26.122,0,0,0,5.8-4.052,44.4,44.4,0,0,0,5.77-6.39,53.413,53.413,0,0,0,4.1-5.043c1.047-1.445,2.026-2.907,2.944-4.363.621,1.354,1.227,2.683,1.815,3.97l.295.649c1.033,2.268,2.2,4.84,3.539,7.36l.149.281c1.468,2.791,4.907,9.327,12.788,11.025a21.538,21.538,0,0,0,4.585.464c1.079,0,2.037-.066,2.872-.122.228-.018.455-.033.666-.044l4.654-.227a106.783,106.783,0,0,0,13.588-1.241,28.462,28.462,0,0,0,6.3-1.745,15.881,15.881,0,0,0,5.353-3.526l.526-.581a15.413,15.413,0,0,0,1.575-2.265c.144-.118.289-.242.433-.37a13.813,13.813,0,0,0,3.778,1.153,33.911,33.911,0,0,0,5.121.386l.513,0a34.789,34.789,0,0,0,8.944-1.233,38.887,38.887,0,0,0,8.478,6.093,31.772,31.772,0,0,0,14.664,3.726,27.079,27.079,0,0,0,22.52-11.783,27.144,27.144,0,0,0,2.842-3.31,16.722,16.722,0,0,0,7.388-1.653,15.637,15.637,0,0,0,2.623-1.6q.513.733,1.088,1.439c4.175,5.118,9.745,7.988,13.572,9.7,7.755,3.472,16.613,5.672,27.08,6.723a83.675,83.675,0,0,0,8.486.485c1.56,0,3.077-.062,4.5-.182a16.078,16.078,0,0,0,12.668-7.814c5.964-5.168,6.4-13.391,6.555-16.364a74.107,74.107,0,0,0-.912-14.55c-.6-4.148-1.439-8.527-2.565-13.387-.9-3.892-1.881-7.716-2.916-11.39a31.035,31.035,0,0,0,5.322-.761,22.32,22.32,0,0,0,13.717-9.491,22.865,22.865,0,0,0,5.33-7.8,37.62,37.62,0,0,0,2.663-13.987C4525.864,7101.848,4524.338,7095.792,4521.184,7090.875Z" fill="none" stroke="#000" stroke-miterlimit="10" stroke-width="6"/>
      </g>
    </g>
    <g id="Group_279" data-name="Group 279">
      <path id="Path_442" data-name="Path 442" d="M4512.767,7096.274a13.175,13.175,0,0,0-3.066-3.384,6.758,6.758,0,0,0-.993-.708,5.955,5.955,0,0,0-1.226-.658,14.146,14.146,0,0,0-6.181-1.3,19.274,19.274,0,0,0-2.1.119,31.788,31.788,0,0,0-3.623.677c-.639.145-1.242.283-1.842.4a95.43,95.43,0,0,1-16.034,1.461q-1.264.021-2.531.02c-4.683,0-9.651-.2-15.636-.624-3.769-.268-7.608-.66-11.32-1.039-2.342-.24-4.765-.487-7.159-.7-1.18-.107-2.362-.161-3.514-.161a29.6,29.6,0,0,0-15.044,3.747,26.382,26.382,0,0,0-8.4,7.88,29.247,29.247,0,0,0-6.534,10.1,37.229,37.229,0,0,0-2.277,9.228,24.211,24.211,0,0,0,.493,9.92,10.187,10.187,0,0,0,6.091,6.894,11.032,11.032,0,0,0,3.836.661,15.963,15.963,0,0,0,6.257-1.391,22.42,22.42,0,0,0,4.174-2.364c.68-.486,1.3-1,1.905-1.49.532-.437,1.035-.85,1.546-1.22a23.6,23.6,0,0,1,6.578-3.36,25.916,25.916,0,0,1,7.877-1.294q.368,0,.729.012l.026.1c3.18,12.112-.971,24.619-4.986,36.714-.461,1.388-.918,2.767-1.361,4.135l-.134.409a15.193,15.193,0,0,0-1.051,5.985,11.337,11.337,0,0,0,2.708,6.333c2.8,3.433,6.767,5.488,9.91,6.9,6.76,3.027,14.609,4.958,24,5.9a74.3,74.3,0,0,0,7.483.434c1.276,0,2.511-.05,3.671-.146a6.519,6.519,0,0,0,5.713-4.58c3.922-2.01,4.229-7.767,4.355-10.161a64.813,64.813,0,0,0-.824-12.594c-.558-3.862-1.346-7.97-2.41-12.559-.985-4.253-2.067-8.425-3.216-12.4-.27-.932-.561-1.872-.843-2.781a44.778,44.778,0,0,1-2.059-8.524c-.029-.274-.044-.529-.053-.776.108-.006.215-.011.318-.012h.141a23.584,23.584,0,0,1,3.167.3c.333.047.665.093,1,.135a49.111,49.111,0,0,0,6.162.474,22.774,22.774,0,0,0,5.255-.561,12.259,12.259,0,0,0,8.248-6.26,12.751,12.751,0,0,0,3.863-5.174,27.919,27.919,0,0,0,1.882-10.315C4515.825,7103.662,4514.831,7099.492,4512.767,7096.274Z"/>
      <g id="Group_278" data-name="Group 278" clip-path="url(#clip-path)">
        <g id="Group_277" data-name="Group 277">
          <g id="Group_276" data-name="Group 276">
            <path id="Path_443" data-name="Path 443" d="M4506.717,7094.012c-.007,0,.152.1.6.391.442.269.608.368.615.368S4506.733,7094.011,4506.717,7094.012Z" fill="url(#linear-gradient)"/>
            <path id="Path_444" data-name="Path 444" d="M4511.444,7117.973a25.859,25.859,0,0,0,1.68-9.36c.076-3.746-.487-7.725-2.546-10.936a10.312,10.312,0,0,0-3.261-3.274,11.071,11.071,0,0,0-6.016-1.582,16.441,16.441,0,0,0-1.819.1c-1.783.2-3.512.714-5.272,1.044a98.113,98.113,0,0,1-16.47,1.5q-1.288.021-2.574.021c-5.279,0-10.556-.256-15.821-.63-6.192-.441-12.347-1.19-18.527-1.746-1.088-.1-2.184-.15-3.281-.15a27.277,27.277,0,0,0-13.74,3.4,25.1,25.1,0,0,0-10.566,12.776,34.793,34.793,0,0,0-2.117,8.583,21.7,21.7,0,0,0,.4,8.86,7.69,7.69,0,0,0,4.506,5.216,8.42,8.42,0,0,0,2.935.5,13.544,13.544,0,0,0,5.234-1.182,19.685,19.685,0,0,0,3.686-2.09c1.187-.847,2.256-1.843,3.437-2.7a26.316,26.316,0,0,1,7.3-3.729,28.491,28.491,0,0,1,8.678-1.42,20.326,20.326,0,0,1,7.23,1.246,10.565,10.565,0,0,1,2.19,1.072c-2.05-.11-4.1-.217-6.15-.264,3.755,14.305-2.026,28.841-6.389,42.31a14.088,14.088,0,0,0-1.065,5.4,8.886,8.886,0,0,0,2.13,4.885c2.3,2.822,5.683,4.7,8.957,6.166a75.56,75.56,0,0,0,23.194,5.687c2.385.24,4.809.421,7.222.421,1.156,0,2.308-.042,3.454-.137,3.865-.323,4.28-5.39,4.439-8.387a62.124,62.124,0,0,0-.8-12.085c-.6-4.148-1.423-8.262-2.369-12.344q-1.43-6.169-3.182-12.264c-1.114-3.85-2.578-7.752-2.991-11.761a7.633,7.633,0,0,1,1.09-5.45,6.111,6.111,0,0,1,4.974-2.1h.179a35.672,35.672,0,0,1,4.493.457,46.12,46.12,0,0,0,5.832.453,20.378,20.378,0,0,0,4.662-.492A9.8,9.8,0,0,0,4511.444,7117.973Z" fill="url(#linear-gradient-2)"/>
          </g>
          <path id="Path_445" data-name="Path 445" d="M4478.354,7183.861c6.76.371,10.9.416,10.788-7.737a39.533,39.533,0,0,0-.522-5.977l.252-.065a33.408,33.408,0,0,1,1.567,5.945c.882,4.453-.676,10.41-6.155,10.4a9.277,9.277,0,0,1-6.037-2.326l.107-.237Z" fill="#fff"/>
          <path id="Path_446" data-name="Path 446" d="M4494.128,7097.668c6.1-5.022,14.361-3.874,16.4,4.488a20.771,20.771,0,0,1,.092,8.905c-.486-2.318-.873-4.587-1.508-6.732-2.225-8.221-7.469-9-14.983-6.661Z" fill="#fff"/>
        </g>
      </g>
    </g>
    <g id="Group_283" data-name="Group 283">
      <path id="Path_448" data-name="Path 448" d="M4432.315,7129.522c-.681-2.1-1.487-4.272-2.4-6.467-.136-.338-.305-.729-.507-1.2-.691-1.6-.726-1.679-.8-1.8-4.888-10.815-10.544-18.79-17.258-24.339a30.75,30.75,0,0,0-15.283-7.082,26.018,26.018,0,0,0-3.464-.231,32.153,32.153,0,0,0-13.694,3.289,34.866,34.866,0,0,0-10.371,6.939,27.291,27.291,0,0,0-2.935,3.6c-.1.1-.213.2-.315.3a31.068,31.068,0,0,0-7.731,14.5c-2.294,9.458-1.549,20.465,2.277,33.648,3.4,11.708,8.067,21.845,13.875,30.129,3.608,5.145,7.654,8.917,12.028,11.21a21.743,21.743,0,0,0,10.02,2.583,17.507,17.507,0,0,0,7.149-1.489,17.141,17.141,0,0,0,7.639-6.744,16.873,16.873,0,0,0,4.945-7.675,16.7,16.7,0,0,0,.43-1.827,6.686,6.686,0,0,0,5.339,2.643,6.684,6.684,0,0,0,2.893-.656,8.151,8.151,0,0,0,3.368-3.552c.113-.195.221-.4.33-.6a8.7,8.7,0,0,0,2.92-3.3,32.042,32.042,0,0,0,3.115-7.887C4436.684,7153.08,4436.14,7141.326,4432.315,7129.522Zm-22.374,13.439a5.141,5.141,0,0,1-3.651-1.466c-1.028-1.089-1.5-2.924-1.416-5.454.006-.166.019-.337.03-.506a16.994,16.994,0,0,1,4.594,4.907,6.587,6.587,0,0,1,.906,2.5C4410.227,7142.955,4410.068,7142.961,4409.941,7142.961Z"/>
      <g id="Group_282" data-name="Group 282" clip-path="url(#clip-path-2)">
        <g id="Group_281" data-name="Group 281">
          <g id="Group_280" data-name="Group 280">
            <path id="Path_449" data-name="Path 449" d="M4426.355,7121.349l.664,1.537c.488,1.129.667,1.542.667,1.542Z" fill="url(#linear-gradient-3)"/>
            <path id="Path_450" data-name="Path 450" d="M4419.6,7160.582c.232,2.247.318,4.5.382,6.761.058,2.058.746,4.29,2.736,5.257a4.116,4.116,0,0,0,1.792.407,4.041,4.041,0,0,0,1.761-.4,5.893,5.893,0,0,0,2.248-2.511,29.96,29.96,0,0,0,2.856-7.26c2.853-10.644,1.835-22.118-1.534-32.515-.818-2.524-1.77-5-2.823-7.438-4.017-9.305-9.413-18.63-17.323-25.168a28.087,28.087,0,0,0-13.974-6.51,23.346,23.346,0,0,0-3.117-.207,29.718,29.718,0,0,0-12.586,3.042,32.84,32.84,0,0,0-9.622,6.406,28.461,28.461,0,0,0-7.061,13.293c-2.565,10.576-.739,22.02,2.247,32.311s7.339,20.563,13.507,29.36a32.659,32.659,0,0,0,11.106,10.4,19.15,19.15,0,0,0,8.813,2.285,14.936,14.936,0,0,0,6.1-1.266,14.445,14.445,0,0,0,7.9-8.891c1.484-4.935.1-10.359-1.548-15.059-.443-1.265-.771-2.562-1.132-3.851a21.977,21.977,0,0,1-.763-3.314c-.286-2.424.774-4.781,3.419-5.133a5.376,5.376,0,0,1,.7-.047C4418.267,7150.538,4419.236,7157.042,4419.6,7160.582Zm-3.667-18.866-.262.591s.033-.08.128-.3a6.134,6.134,0,0,1-5.859,3.552,7.7,7.7,0,0,1-5.542-2.281c-1.834-1.943-2.213-4.764-2.123-7.33a24.934,24.934,0,0,1,.5-4.007c.125-.62.269-1.236.428-1.848a12.534,12.534,0,0,0,.532-1.848c.018-.21.085-.118-.033-.284s-.472-.275-.643-.372q-.509-.285-1.027-.55-.9-.458-1.826-.85a20.726,20.726,0,0,0-2.629-.926c.157-.006.315-.009.473-.009a19.872,19.872,0,0,1,9.4,2.829,20.716,20.716,0,0,1,7.534,7.129c1.19,2.006,1.817,4.582.816,6.795C4415.9,7141.794,4415.934,7141.716,4415.934,7141.716Z" fill="url(#linear-gradient-4)"/>
          </g>
          <path id="Path_451" data-name="Path 451" d="M4393.294,7093.828c9.517-1.761,18.678,6.811,22.943,14.55.6,1.218,1.211,2.424,1.709,3.682-1.893-1.907-3.618-3.894-5.446-5.82-5.391-5.458-11.447-10.935-19.206-12.412Z" fill="#fff"/>
          <path id="Path_452" data-name="Path 452" d="M4407.634,7152.914c-.866,2.336.06,4.618.68,6.882.7,2.275,1.5,4.572,2.1,6.973,1.156,4.488,2.1,11.378-2.785,14.071a8.941,8.941,0,0,0,1.627-6.552c-.158-5.454-5.772-17.15-1.627-21.374Z" fill="#fff"/>
          <path id="Path_453" data-name="Path 453" d="M4424.72,7170.666a78.393,78.393,0,0,0,3.758-21.616c.079-1.069.029-2.133.159-3.249,3.481,7.916,2.062,18.5-3.917,24.865Z" fill="#fff"/>
          <path id="Path_454" data-name="Path 454" d="M4401.114,7127.887a17.117,17.117,0,0,1-.668,6.826,14.413,14.413,0,0,0,.665,6.723l-.227.128a12.21,12.21,0,0,1-2.433-5.964c-.113-1.562-.41-3.21.149-4.717a6.37,6.37,0,0,1,2.281-3.112l.233.116Z" fill="#fff"/>
        </g>
      </g>
    </g>
    <g id="Group_285" data-name="Group 285">
      <path id="Path_456" data-name="Path 456" d="M4384.75,7119.74a26.862,26.862,0,0,0-.431-2.68l-.014-.108a4.526,4.526,0,0,0-.2-.795c-.016-.056-.035-.124-.058-.2-.015-.053-.03-.1-.045-.158-1.617-5.75-7.353-8.922-16.149-8.923a39.22,39.22,0,0,0-4.349.247,38.721,38.721,0,0,0-5.943,1.125c-.929.255-1.749.52-2.506.81a15.519,15.519,0,0,0-1.482.647l-.051.024a3.562,3.562,0,0,0-1.869,1.653,3.339,3.339,0,0,0-.269,1.743c-.394.161-.738.316-1.061.48l-.051.024a3.561,3.561,0,0,0-1.869,1.653,3.673,3.673,0,0,0-.224,2.137l.008.063.02.609.023.692q.024.724.055,1.449c.219,5.275.468,10.5.682,14.908l.227,4.658.073,1.492c-.068,0-.135.008-.2.013-.326.022-.653.054-.981.087-.5.05-.982.1-1.409.1a4.336,4.336,0,0,1-.448-.021,1.479,1.479,0,0,1-1.091-.561,3.336,3.336,0,0,1-.168-.464c-.049-.156-.1-.313-.156-.473-.129-.365-.319-.942-.429-1.345-.8-2.927-1.634-5.818-2.27-8.01-1.1-3.777-2.226-7.61-3.317-11.317l-1-3.41q-.259-.884-.517-1.769c-.77-2.639-1.566-5.368-2.475-8.041-1.272-3.737-3.4-9.21-7.169-13.579a20.29,20.29,0,0,0-14.536-6.911c-.676-.04-1.374-.061-2.076-.061a66.29,66.29,0,0,0-14.526,2.072,129.9,129.9,0,0,0-15.962,4.429,35.738,35.738,0,0,0-7.442,3.54,11.521,11.521,0,0,0-4.365,4.683c-1.555,1.185-3.777,3.362-3.876,6.623-.1,3.383,1.843,6.182,3.407,8.431l.033.049c.75,1.078,1.525,2.117,2.194,3.008,4.188,5.578,9.012,12.094,13.246,18.84a279.2,279.2,0,0,1,15.314,28.4c2.443,5.095,4.863,10.4,7,15.078l.3.653c1.025,2.251,2.086,4.579,3.281,6.834l.156.295c1.088,2.067,2.733,5.191,6.045,5.9a11.689,11.689,0,0,0,2.478.24c.743,0,1.453-.049,2.139-.1.293-.02.584-.04.872-.055q1-.053,2-.1l.941-.046,1.773-.084a97.846,97.846,0,0,0,12.331-1.1,18.8,18.8,0,0,0,4.108-1.1,6.162,6.162,0,0,0,2.114-1.312,4.078,4.078,0,0,0,.9-1.614c.049-.308.082-.618.108-.927.042-.017.085-.029.127-.047a6.147,6.147,0,0,0,2.114-1.312,4.075,4.075,0,0,0,.9-1.614,22.518,22.518,0,0,0-.093-5.914c-.043-.409-.087-.813-.123-1.211l-.108-1.18c-.191-2.073-.388-4.217-.514-6.31a55.5,55.5,0,0,1-.052-7.458,19.426,19.426,0,0,1,.49-3.275,3.14,3.14,0,0,1,.547-.053,2.966,2.966,0,0,1,2.477,1.31,15.438,15.438,0,0,1,1.984,5.849c.369,1.96.656,4,.934,5.971q.123.882.251,1.763l.108.758a29.985,29.985,0,0,0,1.661,7.23l.031.077a4.3,4.3,0,0,0,3.229,3,23.949,23.949,0,0,0,3.609.27l.367,0a22.67,22.67,0,0,0,8.287-1.513l.1-.038a3.788,3.788,0,0,0,2.068-1.616,3.577,3.577,0,0,0,.4-1.174l.006-.031c.071-.286.138-.575.207-.863.157-.059.318-.115.471-.178l.1-.038a3.787,3.787,0,0,0,2.068-1.616,3.575,3.575,0,0,0,.4-1.174l.006-.031c.129-.517.254-1.039.375-1.562,1.694-7.315,3.178-15.221,4.538-24.17.94-6.182,1.572-11.27,1.991-16.013A81.252,81.252,0,0,0,4384.75,7119.74Z"/>
      <g id="Group_284" data-name="Group 284">
        <path id="Path_457" data-name="Path 457" d="M4355.269,7140.43h0c0-.037-.007-.074-.011-.111Z" fill="url(#linear-gradient-5)"/>
        <path id="Path_458" data-name="Path 458" d="M4381.951,7135.768a78.1,78.1,0,0,0,.216-15.731,21.837,21.837,0,0,0-.664-3.522c-1.588-5.649-8.069-7.038-13.649-7.039a36.8,36.8,0,0,0-4.06.231,36.113,36.113,0,0,0-5.544,1.048c-.764.21-1.522.447-2.263.731a13.292,13.292,0,0,0-1.238.538c-.186.094-.655.28-.745.472a2.872,2.872,0,0,0,.031.932q.022.683.045,1.368.024.716.054,1.429.309,7.446.681,14.888.228,4.66.454,9.317c.171,2.082-2.241,3.027-3.919,3.286-.7.107-1.4.132-2.1.181-.851.059-1.711.19-2.569.19a6.793,6.793,0,0,1-.718-.035,4,4,0,0,1-3-1.724,6.471,6.471,0,0,1-.6-1.492c-.133-.376-.349-1.028-.486-1.527-.729-2.663-1.49-5.319-2.26-7.972-1.425-4.91-2.875-9.812-4.317-14.717-.954-3.245-1.871-6.5-2.96-9.707-1.533-4.507-3.537-9.081-6.675-12.718a17.7,17.7,0,0,0-12.725-6.013q-.959-.059-1.919-.057a63.835,63.835,0,0,0-13.952,2.007,129.625,129.625,0,0,0-15.649,4.338,32.777,32.777,0,0,0-6.9,3.267c-1.856,1.222-3.751,2.933-3.823,5.314-.077,2.545,1.588,4.919,2.976,6.917.691.993,1.412,1.963,2.138,2.931,4.658,6.2,9.242,12.443,13.369,19.019a286.929,286.929,0,0,1,15.457,28.653c2.4,5.012,4.711,10.067,7.018,15.123,1.126,2.468,2.239,4.95,3.51,7.349.979,1.847,2.207,4.391,4.452,4.874a9.127,9.127,0,0,0,1.93.182c.961,0,1.931-.1,2.873-.149.985-.052,1.969-.1,2.954-.146a111.818,111.818,0,0,0,13.784-1.15,16.342,16.342,0,0,0,3.546-.935,3.846,3.846,0,0,0,1.265-.735c.046-.046.156-.23.186-.23.006,0,.009.008.006.027a26.857,26.857,0,0,0-.237-6.482c-.229-2.522-.476-5.042-.629-7.57a57.548,57.548,0,0,1-.049-7.813,14.535,14.535,0,0,1,1.9-6.9,5.967,5.967,0,0,1,4.978-2.725,5.564,5.564,0,0,1,4.6,2.415,17.5,17.5,0,0,1,2.412,6.863c.489,2.6.824,5.225,1.2,7.842a31.162,31.162,0,0,0,1.6,7.374c.256.626.537,1.386,1.249,1.5a21.087,21.087,0,0,0,3.214.24l.33,0a20.354,20.354,0,0,0,7.336-1.319c.3-.124.733-.251.893-.532a2.209,2.209,0,0,0,.136-.519q.193-.774.373-1.552c1.834-7.918,3.28-15.94,4.5-23.974C4380.779,7146.357,4381.483,7141.07,4381.951,7135.768Z" fill="url(#linear-gradient-6)"/>
        <path id="Path_459" data-name="Path 459" d="M4381.485,7116.448l.018.067c.168.584.224.782.225.782Z" fill="url(#linear-gradient-7)"/>
      </g>
      <path id="Path_460" data-name="Path 460" d="M4305.941,7091.467c8.921-3.7,20.363,1.375,20.648,11.758a28.23,28.23,0,0,0-3.607-5.306c-4.31-4.827-10.8-5.99-17.041-6.452Z" fill="#fff"/>
      <path id="Path_461" data-name="Path 461" d="M4369.435,7112.511a6.922,6.922,0,0,1,9.237,2.115,10.881,10.881,0,0,1,1.01,9.581c-.536-1.538-.916-3.006-1.39-4.385-1.427-4.567-3.976-6.878-8.857-7.311Z" fill="#fff"/>
      <path id="Path_462" data-name="Path 462" d="M4334.568,7185.3c2.463-1.144,5.038-1.449,7.327-2.649.211-.14.206-.143.3-.3.413-.983.132-2.736.055-3.942a27.685,27.685,0,0,1-.138-4.8c1.408,2.833,4.672,8.792,1.217,11.217a11.257,11.257,0,0,1-8.758.479Z" fill="#fff"/>
      <path id="Path_463" data-name="Path 463" d="M4365.337,7177.007c1.782-1.031,3.556-1.378,5.288-2.2a1.4,1.4,0,0,0,.338-.255c1.211-1.327,1.424-3.905,2.3-5.714,1.1,2.644,1.48,6.616-1.433,8.262a8.035,8.035,0,0,1-6.489-.1Z" fill="#fff"/>
    </g>
    <g id="Group_288" data-name="Group 288">
      <path id="Path_464" data-name="Path 464" d="M4309.063,7117.7l0-.051,0-.051c-.49-5.5-4.575-9.978-10.66-11.675a19.078,19.078,0,0,0-5.122-.719,16.065,16.065,0,0,0-3.5.375,9.527,9.527,0,0,0-3.926,1.752,15.314,15.314,0,0,0-3.475,4.095,20.308,20.308,0,0,0-4.706,6.518,61.159,61.159,0,0,0-3.163,7.381c-.5,1.387-.964,2.782-1.4,4.175-2.915-5.736-6.433-11.936-11.2-16.919-3.243-3.391-6.386-5.358-9.61-6.014a11.421,11.421,0,0,0-2.268-.228,13.822,13.822,0,0,0-7.569,2.444,37.265,37.265,0,0,0-8.327,7.968c-.319.4-.637.8-.955,1.214-.847.932-1.618,1.847-2.295,2.686-.528.653-1.054,1.338-1.581,2.04a7.594,7.594,0,0,0-.311-.95c-.028-.074-.057-.144-.077-.206a120.48,120.48,0,0,0-4.084-11.818,55.712,55.712,0,0,0-6.754-12.525,22.033,22.033,0,0,0-5.031-5.029,17.064,17.064,0,0,0-6.546-2.585,42.356,42.356,0,0,0-8.364-.758c-1.852,0-3.836.091-6.068.277a88.77,88.77,0,0,0-13.781,2.24,55.46,55.46,0,0,0-13.472,4.984,19.617,19.617,0,0,0-5.892,4.591,8.646,8.646,0,0,0-1.112,1.778,14.53,14.53,0,0,0-2.138,2.122,9.1,9.1,0,0,0-1.94,4.653,30.466,30.466,0,0,0,.548,10.6c2.1,10.185,7.193,19.62,11.393,26.7A235.824,235.824,0,0,0,4182,7170.243c3.279,4.25,6.285,7.912,9.191,11.195a57.9,57.9,0,0,0,10.3,9.635,19.907,19.907,0,0,0,6.648,3.091,16.569,16.569,0,0,0,3.829.435,21.4,21.4,0,0,0,3.835-.366,41.815,41.815,0,0,0,13.493-5.172,71.93,71.93,0,0,0,13.282-10.278c.124.129.248.251.367.368.055.055.106.1.145.144.422.486.866.977,1.319,1.459a39.823,39.823,0,0,0,14.664,10.289,27.238,27.238,0,0,0,9.25,1.72c.044,0,.088,0,.133,0a9.377,9.377,0,0,0,3.559-1,16.482,16.482,0,0,0,3.616-2.56,35.825,35.825,0,0,0,4.789-5.4,42.056,42.056,0,0,0,3.664-4.46,102.824,102.824,0,0,0,8.214-13.969,241.947,241.947,0,0,0,12.97-30.7c1.195-3.5,2.073-6.4,2.763-9.131A26.58,26.58,0,0,0,4309.063,7117.7Z"/>
      <g id="Group_287" data-name="Group 287" clip-path="url(#clip-path-3)">
        <g id="Group_286" data-name="Group 286">
          <path id="Path_465" data-name="Path 465" d="M4248.689,7170.471q-.338.483-.683.96c-.129.178-.759.795-.746,1.01.019.307.806.976,1.027,1.231q.617.713,1.264,1.4a37.561,37.561,0,0,0,13.693,9.64,24.734,24.734,0,0,0,8.4,1.552h.059a6.783,6.783,0,0,0,2.389-.717,14.181,14.181,0,0,0,3.047-2.173,34.853,34.853,0,0,0,4.835-5.55,99.723,99.723,0,0,0,8-13.617,239.1,239.1,0,0,0,12.831-30.368c1.006-2.941,1.942-5.91,2.7-8.925a24.015,24.015,0,0,0,.957-7.086c-.434-4.879-4.264-8.145-8.769-9.4a16.592,16.592,0,0,0-4.423-.623,13.468,13.468,0,0,0-2.93.312,7.047,7.047,0,0,0-2.88,1.254,17.649,17.649,0,0,0-4.236,5.87,59.374,59.374,0,0,0-3.027,7.073q-1.182,3.255-2.137,6.591-.456,1.594-.871,3.2a13.683,13.683,0,0,0-.642,2.627,8.771,8.771,0,0,0,.52,2.1q.243.952.464,1.911.474,2.053.842,4.13a58.562,58.562,0,0,1,.867,6.2c-2.329-5.411-4.686-10.808-7.3-16.088-3.239-6.539-6.834-13.292-11.917-18.607-2.239-2.341-5-4.6-8.249-5.263a8.793,8.793,0,0,0-1.75-.176,11.363,11.363,0,0,0-6.15,2.023,34.507,34.507,0,0,0-7.724,7.423,92.837,92.837,0,0,0-6.424,9.177c-3.582,5.728-6.777,11.683-9.941,17.648a69.384,69.384,0,0,1,2.746-10.74q1.022-3.137,2.259-6.2.644-1.586,1.35-3.147a5.916,5.916,0,0,0,.674-1.457,4.834,4.834,0,0,0-.4-1.387,118.8,118.8,0,0,0-4-11.578,52.592,52.592,0,0,0-6.422-11.941,19.778,19.778,0,0,0-4.432-4.457,14.781,14.781,0,0,0-5.581-2.176,40.016,40.016,0,0,0-7.854-.708c-1.96,0-3.92.107-5.852.268a86.143,86.143,0,0,0-13.376,2.174,53.181,53.181,0,0,0-12.845,4.74,16.854,16.854,0,0,0-5.116,3.941,6.622,6.622,0,0,0-1.392,3.4,28.137,28.137,0,0,0,.523,9.7c1.9,9.221,6.315,17.862,11.082,25.9a232.286,232.286,0,0,0,16.156,23.214c2.912,3.774,5.919,7.49,9.079,11.06a55.246,55.246,0,0,0,9.819,9.213,17.531,17.531,0,0,0,5.781,2.706,13.859,13.859,0,0,0,3.226.365,18.8,18.8,0,0,0,3.369-.323,39.364,39.364,0,0,0,12.65-4.861c7.185-4.188,13.233-10.055,18.857-16.113.861-.927,1.709-1.867,2.531-2.828a43.938,43.938,0,0,1-2.858,4.906Q4249.24,7169.684,4248.689,7170.471Z" fill="url(#linear-gradient-8)"/>
          <path id="Path_466" data-name="Path 466" d="M4192.2,7095.574c8.158-4.476,19.042-1.948,23.776,6.3a21.375,21.375,0,0,1,2.9,8.293,41.038,41.038,0,0,0-5.913-8.662c-5.306-5.774-13.2-7.031-20.763-5.929Z" fill="#fff"/>
          <path id="Path_467" data-name="Path 467" d="M4291.708,7110.173c11.417-1.274,16.628,9.233,9.7,18.1a45.069,45.069,0,0,0,.815-6.174c.479-6.906-4.646-9.907-10.512-11.925Z" fill="#fff"/>
          <path id="Path_468" data-name="Path 468" d="M4289.9,7157.193a76.592,76.592,0,0,1-7.4,14.336c-2.822,4.64-6.611,8.986-11.791,11.026l-.151-.211c.823-1.129,1.736-2.068,2.56-3.11,2.481-3.065,5.14-5.924,7.7-8.923a107.546,107.546,0,0,0,8.844-13.225l.237.107Z" fill="#fff"/>
          <path id="Path_469" data-name="Path 469" d="M4253.432,7113.423a6.209,6.209,0,0,1,4.945,2.656,17.768,17.768,0,0,1,2.421,5.085,13.519,13.519,0,0,1,.435,3.629l-.257.034a16.344,16.344,0,0,0-3.321-5.909,17.77,17.77,0,0,1-4.348-5.266l.125-.229Z" fill="#fff"/>
        </g>
      </g>
    </g>
  </g>
</svg>
