<svg xmlns="http://www.w3.org/2000/svg" xmlns:xlink="http://www.w3.org/1999/xlink" width="335.611" height="137.851" viewBox="0 0 335.611 137.851">
  <defs>
    <clipPath id="clip-path">
      <path id="Path_566" data-name="Path 566" d="M4260.321,7446.831c-.25-1.494-.562-3.015-.928-4.52l-.007-.03-.008-.031-.024-.089c-.046-.206-.1-.422-.161-.653l-.01,0,0-.014.01,0c-.285-1.088-.477-1.82-.6-2.28a6.394,6.394,0,0,0-.346-1.035c-3.961-12.846-10.472-22.1-19.374-27.522a43.539,43.539,0,0,0-19.932-5.862c-1.464-.1-3.008-.146-4.722-.146-1.935,0-3.848.062-5.465.122-.965.037-1.96.052-2.923.067-.714.011-1.427.021-2.141.04a14.605,14.605,0,0,0-5.114.948,8.856,8.856,0,0,0-4.915,4.778,9.5,9.5,0,0,0-4.112,7.925,37.4,37.4,0,0,0-9.086,8.878,44.652,44.652,0,0,0-11.02,21.9,68.014,68.014,0,0,0-1,20.862c.768,7.536,2.3,13.188,4.809,17.788a29.635,29.635,0,0,0,15.069,13.187c5.69,2.331,12.321,3.553,20.866,3.845,1.511.052,2.849.077,4.091.077,7.021,0,12.3-.824,17.124-2.671a42.01,42.01,0,0,0,16.447-11.588c.755-.862,1.46-1.765,2.141-2.686.375-.4.747-.8,1.109-1.214C4259.128,7476.6,4262.855,7461.988,4260.321,7446.831Zm-63.881,22.278c.291-.363.561-.72.83-1.077.124-.134.25-.268.371-.4.674-.754,1.364-1.568,2.049-2.42a35.838,35.838,0,0,0,3.112-4.5,14.288,14.288,0,0,1,2.036,8.418h0v.016h0a12.769,12.769,0,0,1-.971,4.1,7.273,7.273,0,0,1-3.753,1.091,6.419,6.419,0,0,1-1.588-.2,4.487,4.487,0,0,1-2.849-1.885,2.357,2.357,0,0,1-.06-2.142C4195.89,7469.78,4196.165,7469.45,4196.44,7469.109Z"/>
    </clipPath>
    <linearGradient id="linear-gradient" x1="0.574" y1="0.037" x2="0.416" y2="0.95" gradientUnits="objectBoundingBox">
      <stop offset="0" stop-color="#00ffd5"/>
      <stop offset="0.769" stop-color="#01cd33"/>
      <stop offset="1" stop-color="#01cb2d"/>
    </linearGradient>
    <linearGradient id="linear-gradient-2" x1="0.501" y1="-52.882" x2="0.501" y2="17.391" gradientUnits="objectBoundingBox">
      <stop offset="0" stop-color="#00ffd5"/>
      <stop offset="1" stop-color="#01cb2d"/>
    </linearGradient>
    <linearGradient id="linear-gradient-3" x1="0.5" y1="-14.843" x2="0.5" y2="6.21" xlink:href="#linear-gradient-2"/>
    <linearGradient id="linear-gradient-4" x1="0.489" y1="-396.374" x2="0.489" y2="184.937" xlink:href="#linear-gradient-2"/>
    <linearGradient id="linear-gradient-5" x1="0.5" y1="0.081" x2="0.5" y2="0.728" xlink:href="#linear-gradient-2"/>
    <linearGradient id="linear-gradient-6" x1="0.5" y1="-23.87" x2="0.5" y2="52.389" xlink:href="#linear-gradient-2"/>
    <clipPath id="clip-path-2">
      <path id="Path_581" data-name="Path 581" d="M4108.5,7427.389l0-.051,0-.051c-.49-5.5-4.575-9.978-10.661-11.675a19.077,19.077,0,0,0-5.121-.719,16.057,16.057,0,0,0-3.5.375,9.523,9.523,0,0,0-3.926,1.752,15.272,15.272,0,0,0-3.475,4.1,20.268,20.268,0,0,0-4.706,6.518,60.936,60.936,0,0,0-3.163,7.381c-.5,1.387-.965,2.782-1.4,4.175-2.916-5.736-6.434-11.936-11.2-16.919-3.242-3.391-6.386-5.358-9.61-6.014a11.421,11.421,0,0,0-2.267-.228,13.818,13.818,0,0,0-7.569,2.444,37.25,37.25,0,0,0-8.328,7.968c-.318.4-.636.8-.955,1.214-.847.931-1.617,1.847-2.295,2.686-.527.653-1.053,1.338-1.58,2.04a7.638,7.638,0,0,0-.311-.95c-.029-.074-.058-.144-.078-.206a120.68,120.68,0,0,0-4.083-11.818,55.66,55.66,0,0,0-6.755-12.525,22.015,22.015,0,0,0-5.03-5.029,17.079,17.079,0,0,0-6.546-2.585,42.369,42.369,0,0,0-8.365-.758c-1.851,0-3.836.09-6.068.277a88.816,88.816,0,0,0-13.781,2.24,55.47,55.47,0,0,0-13.471,4.984,19.605,19.605,0,0,0-5.893,4.591,8.647,8.647,0,0,0-1.112,1.778,14.636,14.636,0,0,0-2.138,2.122,9.11,9.11,0,0,0-1.94,4.653,30.463,30.463,0,0,0,.549,10.6c2.1,10.185,7.192,19.62,11.392,26.7a235.579,235.579,0,0,0,16.334,23.476c3.278,4.25,6.284,7.912,9.19,11.195a57.865,57.865,0,0,0,10.3,9.635,19.9,19.9,0,0,0,6.648,3.091,16.567,16.567,0,0,0,3.828.434,21.415,21.415,0,0,0,3.836-.365,41.824,41.824,0,0,0,13.493-5.172,71.9,71.9,0,0,0,13.281-10.278c.124.129.249.251.368.368.055.055.106.1.145.144.421.486.865.977,1.319,1.459a39.819,39.819,0,0,0,14.663,10.289,27.238,27.238,0,0,0,9.251,1.72l.132,0a9.376,9.376,0,0,0,3.559-1,16.483,16.483,0,0,0,3.616-2.56,35.784,35.784,0,0,0,4.789-5.4,42.1,42.1,0,0,0,3.664-4.46,102.963,102.963,0,0,0,8.215-13.969,242.184,242.184,0,0,0,12.97-30.7c1.195-3.494,2.073-6.4,2.763-9.13A26.666,26.666,0,0,0,4108.5,7427.389Z"/>
    </clipPath>
    <linearGradient id="linear-gradient-7" x1="0.5" y1="0.214" x2="0.5" y2="0.72" xlink:href="#linear-gradient-2"/>
  </defs>
  <g id="who" transform="translate(-3938.921 -7381.214)">
    <g id="Group_341" data-name="Group 341">
      <g id="Group_340" data-name="Group 340">
        <path id="Path_556" data-name="Path 556" d="M3956.5,7461.557a245.213,245.213,0,0,0,17.018,24.482c3.411,4.423,6.558,8.255,9.62,11.716a66.782,66.782,0,0,0,12.129,11.254,29.637,29.637,0,0,0,9.989,4.572,28.546,28.546,0,0,0,11.771.179,51.763,51.763,0,0,0,16.737-6.37,70.633,70.633,0,0,0,7.821-5.322,46.354,46.354,0,0,0,13.376,8.016,37.024,37.024,0,0,0,12.506,2.363c.139.005.28.007.42.007a18.956,18.956,0,0,0,8.061-2.066,26.214,26.214,0,0,0,5.8-4.053,44.515,44.515,0,0,0,5.769-6.389,53.477,53.477,0,0,0,4.1-5.044c1.046-1.445,2.025-2.907,2.944-4.364.62,1.355,1.227,2.685,1.814,3.971l.295.648c1.035,2.273,2.207,4.848,3.54,7.362l.149.283c1.469,2.79,4.909,9.324,12.788,11.021a21.466,21.466,0,0,0,4.584.464c1.079,0,2.037-.065,2.851-.121.236-.016.47-.033.688-.045l4.668-.226a107.043,107.043,0,0,0,13.58-1.242,28.381,28.381,0,0,0,6.27-1.737,15.85,15.85,0,0,0,5.377-3.538l.518-.571a15.413,15.413,0,0,0,1.579-2.27q.215-.177.432-.37a13.793,13.793,0,0,0,3.771,1.151,33.755,33.755,0,0,0,5.129.387l.513,0a33.523,33.523,0,0,0,10.619-1.756,41.511,41.511,0,0,0,10.8,6.452c6.825,2.795,14.551,4.251,24.314,4.585,1.631.055,3.08.083,4.433.083,8.3,0,14.684-1.029,20.7-3.333a52.041,52.041,0,0,0,20.387-14.331c.747-.851,1.488-1.768,2.306-2.856.321-.346.639-.695.95-1.05,10.319-11.78,15.8-34.474,11.258-54.485s-15.038-30.943-24.8-36.894a53.384,53.384,0,0,0-24.463-7.3c-1.689-.114-3.453-.169-5.394-.169-2.086,0-4.122.065-5.839.129-.833.032-1.691.044-2.525.058l-.177,0c-.749.012-1.5.022-2.249.043a24.365,24.365,0,0,0-8.574,1.662,40.741,40.741,0,0,0-13.155,12.988,33.165,33.165,0,0,0-14.411-2.966,49.446,49.446,0,0,0-5.462.308,48.8,48.8,0,0,0-7.476,1.419c-1.246.342-2.371.707-3.434,1.115-.84.322-1.592.649-2.3,1a14.205,14.205,0,0,0-4.527,3.307c-.127-.389-.258-.779-.39-1.17-1.54-4.526-4.156-11.2-9.065-16.892a30.077,30.077,0,0,0-21.5-10.358c-.873-.053-1.776-.08-2.681-.08a74.951,74.951,0,0,0-16.735,2.318,138.573,138.573,0,0,0-17.162,4.782,45.058,45.058,0,0,0-9.533,4.588,22.249,22.249,0,0,0-6.742,6.619,20.249,20.249,0,0,0-3.231,3.879,23.351,23.351,0,0,0-3.34-.946,21.517,21.517,0,0,0-4.247-.426h-.008a23.62,23.62,0,0,0-13.02,4.064,36.506,36.506,0,0,0-3.984,3.009,60.229,60.229,0,0,0-6.972-12.253,31.565,31.565,0,0,0-7.33-7.231,27.05,27.05,0,0,0-10.258-4.155,52.124,52.124,0,0,0-10.327-.953c-2.125,0-4.381.1-6.9.311a98.771,98.771,0,0,0-15.34,2.5,65.285,65.285,0,0,0-15.882,5.922,29.078,29.078,0,0,0-8.873,7.083,19.174,19.174,0,0,0-1.217,1.693,23.393,23.393,0,0,0-2.036,2.212,19.069,19.069,0,0,0-4.05,9.482,40.244,40.244,0,0,0,.65,14.068C3946.32,7443.411,3951.9,7453.8,3956.5,7461.557Z" fill="#fff"/>
        <path id="Path_557" data-name="Path 557" d="M3956.5,7461.557a245.213,245.213,0,0,0,17.018,24.482c3.411,4.423,6.558,8.255,9.62,11.716a66.782,66.782,0,0,0,12.129,11.254,29.637,29.637,0,0,0,9.989,4.572,28.546,28.546,0,0,0,11.771.179,51.763,51.763,0,0,0,16.737-6.37,70.633,70.633,0,0,0,7.821-5.322,46.354,46.354,0,0,0,13.376,8.016,37.024,37.024,0,0,0,12.506,2.363c.139.005.28.007.42.007a18.956,18.956,0,0,0,8.061-2.066,26.214,26.214,0,0,0,5.8-4.053,44.515,44.515,0,0,0,5.769-6.389,53.477,53.477,0,0,0,4.1-5.044c1.046-1.445,2.025-2.907,2.944-4.364.62,1.355,1.227,2.685,1.814,3.971l.295.648c1.035,2.273,2.207,4.848,3.54,7.362l.149.283c1.469,2.79,4.909,9.324,12.788,11.021a21.466,21.466,0,0,0,4.584.464c1.079,0,2.037-.065,2.851-.121.236-.016.47-.033.688-.045l4.668-.226a107.043,107.043,0,0,0,13.58-1.242,28.381,28.381,0,0,0,6.27-1.737,15.85,15.85,0,0,0,5.377-3.538l.518-.571a15.413,15.413,0,0,0,1.579-2.27q.215-.177.432-.37a13.793,13.793,0,0,0,3.771,1.151,33.755,33.755,0,0,0,5.129.387l.513,0a33.523,33.523,0,0,0,10.619-1.756,41.511,41.511,0,0,0,10.8,6.452c6.825,2.795,14.551,4.251,24.314,4.585,1.631.055,3.08.083,4.433.083,8.3,0,14.684-1.029,20.7-3.333a52.041,52.041,0,0,0,20.387-14.331c.747-.851,1.488-1.768,2.306-2.856.321-.346.639-.695.95-1.05,10.319-11.78,15.8-34.474,11.258-54.485s-15.038-30.943-24.8-36.894a53.384,53.384,0,0,0-24.463-7.3c-1.689-.114-3.453-.169-5.394-.169-2.086,0-4.122.065-5.839.129-.833.032-1.691.044-2.525.058l-.177,0c-.749.012-1.5.022-2.249.043a24.365,24.365,0,0,0-8.574,1.662,40.741,40.741,0,0,0-13.155,12.988,33.165,33.165,0,0,0-14.411-2.966,49.446,49.446,0,0,0-5.462.308,48.8,48.8,0,0,0-7.476,1.419c-1.246.342-2.371.707-3.434,1.115-.84.322-1.592.649-2.3,1a14.205,14.205,0,0,0-4.527,3.307c-.127-.389-.258-.779-.39-1.17-1.54-4.526-4.156-11.2-9.065-16.892a30.077,30.077,0,0,0-21.5-10.358c-.873-.053-1.776-.08-2.681-.08a74.951,74.951,0,0,0-16.735,2.318,138.573,138.573,0,0,0-17.162,4.782,45.058,45.058,0,0,0-9.533,4.588,22.249,22.249,0,0,0-6.742,6.619,20.249,20.249,0,0,0-3.231,3.879,23.351,23.351,0,0,0-3.34-.946,21.517,21.517,0,0,0-4.247-.426h-.008a23.62,23.62,0,0,0-13.02,4.064,36.506,36.506,0,0,0-3.984,3.009,60.229,60.229,0,0,0-6.972-12.253,31.565,31.565,0,0,0-7.33-7.231,27.05,27.05,0,0,0-10.258-4.155,52.124,52.124,0,0,0-10.327-.953c-2.125,0-4.381.1-6.9.311a98.771,98.771,0,0,0-15.34,2.5,65.285,65.285,0,0,0-15.882,5.922,29.078,29.078,0,0,0-8.873,7.083,19.174,19.174,0,0,0-1.217,1.693,23.393,23.393,0,0,0-2.036,2.212,19.069,19.069,0,0,0-4.05,9.482,40.244,40.244,0,0,0,.65,14.068C3946.32,7443.411,3951.9,7453.8,3956.5,7461.557Z" fill="none" stroke="#fff" stroke-miterlimit="10" stroke-width="8"/>
        <path id="Path_558" data-name="Path 558" d="M3956.5,7461.557a245.213,245.213,0,0,0,17.018,24.482c3.411,4.423,6.558,8.255,9.62,11.716a66.782,66.782,0,0,0,12.129,11.254,29.637,29.637,0,0,0,9.989,4.572,28.546,28.546,0,0,0,11.771.179,51.763,51.763,0,0,0,16.737-6.37,70.633,70.633,0,0,0,7.821-5.322,46.354,46.354,0,0,0,13.376,8.016,37.024,37.024,0,0,0,12.506,2.363c.139.005.28.007.42.007a18.956,18.956,0,0,0,8.061-2.066,26.214,26.214,0,0,0,5.8-4.053,44.515,44.515,0,0,0,5.769-6.389,53.477,53.477,0,0,0,4.1-5.044c1.046-1.445,2.025-2.907,2.944-4.364.62,1.355,1.227,2.685,1.814,3.971l.295.648c1.035,2.273,2.207,4.848,3.54,7.362l.149.283c1.469,2.79,4.909,9.324,12.788,11.021a21.466,21.466,0,0,0,4.584.464c1.079,0,2.037-.065,2.851-.121.236-.016.47-.033.688-.045l4.668-.226a107.043,107.043,0,0,0,13.58-1.242,28.381,28.381,0,0,0,6.27-1.737,15.85,15.85,0,0,0,5.377-3.538l.518-.571a15.413,15.413,0,0,0,1.579-2.27q.215-.177.432-.37a13.793,13.793,0,0,0,3.771,1.151,33.755,33.755,0,0,0,5.129.387l.513,0a33.523,33.523,0,0,0,10.619-1.756,41.511,41.511,0,0,0,10.8,6.452c6.825,2.795,14.551,4.251,24.314,4.585,1.631.055,3.08.083,4.433.083,8.3,0,14.684-1.029,20.7-3.333a52.041,52.041,0,0,0,20.387-14.331c.747-.851,1.488-1.768,2.306-2.856.321-.346.639-.695.95-1.05,10.319-11.78,15.8-34.474,11.258-54.485s-15.038-30.943-24.8-36.894a53.384,53.384,0,0,0-24.463-7.3c-1.689-.114-3.453-.169-5.394-.169-2.086,0-4.122.065-5.839.129-.833.032-1.691.044-2.525.058l-.177,0c-.749.012-1.5.022-2.249.043a24.365,24.365,0,0,0-8.574,1.662,40.741,40.741,0,0,0-13.155,12.988,33.165,33.165,0,0,0-14.411-2.966,49.446,49.446,0,0,0-5.462.308,48.8,48.8,0,0,0-7.476,1.419c-1.246.342-2.371.707-3.434,1.115-.84.322-1.592.649-2.3,1a14.205,14.205,0,0,0-4.527,3.307c-.127-.389-.258-.779-.39-1.17-1.54-4.526-4.156-11.2-9.065-16.892a30.077,30.077,0,0,0-21.5-10.358c-.873-.053-1.776-.08-2.681-.08a74.951,74.951,0,0,0-16.735,2.318,138.573,138.573,0,0,0-17.162,4.782,45.058,45.058,0,0,0-9.533,4.588,22.249,22.249,0,0,0-6.742,6.619,20.249,20.249,0,0,0-3.231,3.879,23.351,23.351,0,0,0-3.34-.946,21.517,21.517,0,0,0-4.247-.426h-.008a23.62,23.62,0,0,0-13.02,4.064,36.506,36.506,0,0,0-3.984,3.009,60.229,60.229,0,0,0-6.972-12.253,31.565,31.565,0,0,0-7.33-7.231,27.05,27.05,0,0,0-10.258-4.155,52.124,52.124,0,0,0-10.327-.953c-2.125,0-4.381.1-6.9.311a98.771,98.771,0,0,0-15.34,2.5,65.285,65.285,0,0,0-15.882,5.922,29.078,29.078,0,0,0-8.873,7.083,19.174,19.174,0,0,0-1.217,1.693,23.393,23.393,0,0,0-2.036,2.212,19.069,19.069,0,0,0-4.05,9.482,40.244,40.244,0,0,0,.65,14.068C3946.32,7443.411,3951.9,7453.8,3956.5,7461.557Z" fill="none" stroke="#000" stroke-miterlimit="10" stroke-width="6"/>
      </g>
    </g>
    <g id="Group_345" data-name="Group 345">
      <path id="Path_559" data-name="Path 559" d="M4260.321,7446.831c-.25-1.494-.562-3.015-.928-4.52l-.007-.03-.008-.031-.024-.089c-.046-.206-.1-.422-.161-.653l-.01,0,0-.014.01,0c-.285-1.088-.477-1.82-.6-2.28a6.394,6.394,0,0,0-.346-1.035c-3.961-12.846-10.472-22.1-19.374-27.522a43.539,43.539,0,0,0-19.932-5.862c-1.464-.1-3.008-.146-4.722-.146-1.935,0-3.848.062-5.465.122-.965.037-1.96.052-2.923.067-.714.011-1.427.021-2.141.04a14.605,14.605,0,0,0-5.114.948,8.856,8.856,0,0,0-4.915,4.778,9.5,9.5,0,0,0-4.112,7.925,37.4,37.4,0,0,0-9.086,8.878,44.652,44.652,0,0,0-11.02,21.9,68.014,68.014,0,0,0-1,20.862c.768,7.536,2.3,13.188,4.809,17.788a29.635,29.635,0,0,0,15.069,13.187c5.69,2.331,12.321,3.553,20.866,3.845,1.511.052,2.849.077,4.091.077,7.021,0,12.3-.824,17.124-2.671a42.01,42.01,0,0,0,16.447-11.588c.755-.862,1.46-1.765,2.141-2.686.375-.4.747-.8,1.109-1.214C4259.128,7476.6,4262.855,7461.988,4260.321,7446.831Zm-63.881,22.278c.291-.363.561-.72.83-1.077.124-.134.25-.268.371-.4.674-.754,1.364-1.568,2.049-2.42a35.838,35.838,0,0,0,3.112-4.5,14.288,14.288,0,0,1,2.036,8.418h0v.016h0a12.769,12.769,0,0,1-.971,4.1,7.273,7.273,0,0,1-3.753,1.091,6.419,6.419,0,0,1-1.588-.2,4.487,4.487,0,0,1-2.849-1.885,2.357,2.357,0,0,1-.06-2.142C4195.89,7469.78,4196.165,7469.45,4196.44,7469.109Z"/>
      <g id="Group_344" data-name="Group 344" clip-path="url(#clip-path)">
        <g id="Group_343" data-name="Group 343">
          <g id="Group_342" data-name="Group 342">
            <path id="Path_560" data-name="Path 560" d="M4232.719,7496.065a39.437,39.437,0,0,0,15.421-10.873c9.077-10.362,11.85-24.569,9.616-37.932q-.364-2.183-.889-4.335c-.078-.293-.3-1.153-.516-1.969-3.087-11.066-8.756-21.94-18.832-28.079a41.1,41.1,0,0,0-18.755-5.488c-1.514-.1-3.031-.14-4.547-.14-1.789,0-3.579.054-5.367.121-1.7.063-3.4.062-5.093.107a12.186,12.186,0,0,0-4.214.762c-3.04,1.22-4.292,4.129-4.144,7.277.118,2.515.67,4.981.377,7.514-.4-1.487-.841-2.968-1.314-4.433-10.526,5.471-16.844,15.971-19.226,27.341a65.708,65.708,0,0,0-.96,20.065c.583,5.712,1.726,11.719,4.5,16.806a27.168,27.168,0,0,0,13.772,12.027c6.311,2.585,13.2,3.421,19.97,3.653,1.333.045,2.668.075,4,.075A44.776,44.776,0,0,0,4232.719,7496.065Zm-22.008-31-.039.482.008-.111a13.783,13.783,0,0,1-3.175,8.133,10.041,10.041,0,0,1-7.392,3.363,9.027,9.027,0,0,1-2.23-.278,7.052,7.052,0,0,1-4.465-3.115,5.025,5.025,0,0,1,.322-5.386,24.661,24.661,0,0,1,1.963-2.258c.674-.753,1.327-1.528,1.96-2.315a32.073,32.073,0,0,0,3.429-5.134,21.385,21.385,0,0,0,2.113-6.008,1.173,1.173,0,0,0,.027-.641,3.535,3.535,0,0,0-.443-.672c-.267-.394-.541-.782-.832-1.159-.559-.725-1.147-1.418-1.742-2.113a15.2,15.2,0,0,1,3.582,2.411,21.217,21.217,0,0,1,3.672,3.961,17.053,17.053,0,0,1,3.211,11.211C4210.7,7465.16,4210.71,7465.065,4210.711,7465.065Z" fill="url(#linear-gradient)"/>
            <path id="Path_561" data-name="Path 561" d="M4256.9,7443.029s-.061-.249-.222-.876q.1.386.193.772C4256.885,7442.992,4256.9,7443.029,4256.9,7443.029Z" fill="url(#linear-gradient-2)"/>
            <path id="Path_562" data-name="Path 562" d="M4255.9,7439.229s.215.838.447,1.727c.111.4.219.8.323,1.2C4256.1,7439.981,4255.906,7439.229,4255.9,7439.229Z" fill="url(#linear-gradient-3)"/>
          </g>
          <path id="Path_563" data-name="Path 563" d="M4217.261,7410.03c14.6-1.364,29.068,9.359,32.665,23.455-7.557-12.649-18.107-20.617-32.665-23.455Z" fill="#fff"/>
          <path id="Path_564" data-name="Path 564" d="M4250.587,7467.216c-1.332,14.608-14.522,26.864-29.038,27.82a70.693,70.693,0,0,0,9.492-4.479,46.236,46.236,0,0,0,19.546-23.341Z" fill="#fff"/>
          <path id="Path_565" data-name="Path 565" d="M4199.6,7450.474a6.206,6.206,0,0,1-.193,5.61,17.785,17.785,0,0,1-3.489,4.42,13.51,13.51,0,0,1-3.062,2l-.144-.216a16.367,16.367,0,0,0,3.83-5.593,17.764,17.764,0,0,1,2.8-6.229l.259.011Z" fill="#fff"/>
        </g>
      </g>
    </g>
    <g id="Group_347" data-name="Group 347">
      <path id="Path_567" data-name="Path 567" d="M4184.184,7429.429c-.114-.989-.254-1.865-.431-2.68l-.015-.108a4.316,4.316,0,0,0-.2-.8c-.016-.056-.036-.123-.059-.2-.015-.053-.03-.1-.044-.158-1.617-5.75-7.354-8.922-16.15-8.923a39.209,39.209,0,0,0-4.348.247,38.756,38.756,0,0,0-5.944,1.125c-.929.255-1.748.52-2.5.81a15.628,15.628,0,0,0-1.483.647l-.05.024a3.558,3.558,0,0,0-1.869,1.653,3.314,3.314,0,0,0-.269,1.743c-.394.16-.739.316-1.062.48l-.05.024a3.56,3.56,0,0,0-1.869,1.653,3.658,3.658,0,0,0-.224,2.137l.008.063.02.609.023.692q.024.724.055,1.449c.218,5.275.467,10.5.682,14.908l.227,4.658.073,1.492-.2.013c-.326.022-.653.054-.98.087-.506.05-.983.1-1.409.1a4.309,4.309,0,0,1-.448-.021,1.48,1.48,0,0,1-1.092-.561,3.448,3.448,0,0,1-.167-.464c-.05-.156-.1-.314-.157-.473-.129-.365-.318-.942-.429-1.345-.8-2.927-1.634-5.818-2.27-8.01-1.1-3.777-2.225-7.61-3.317-11.317l-1-3.41q-.261-.884-.518-1.769c-.77-2.64-1.566-5.369-2.475-8.041-1.271-3.737-3.4-9.21-7.168-13.579a20.293,20.293,0,0,0-14.537-6.911c-.675-.04-1.374-.061-2.075-.061a66.3,66.3,0,0,0-14.527,2.072,129.914,129.914,0,0,0-15.962,4.429,35.749,35.749,0,0,0-7.441,3.539,11.534,11.534,0,0,0-4.366,4.684c-1.554,1.185-3.776,3.362-3.875,6.623-.1,3.383,1.843,6.182,3.406,8.431l.034.049c.75,1.078,1.525,2.117,2.193,3.007,4.189,5.579,9.012,12.1,13.247,18.841a279.68,279.68,0,0,1,15.314,28.4c2.443,5.095,4.862,10.4,7,15.078l.3.652c1.026,2.252,2.086,4.58,3.281,6.835l.156.295c1.088,2.067,2.733,5.191,6.046,5.9a11.686,11.686,0,0,0,2.478.239c.742,0,1.452-.048,2.138-.1.293-.02.584-.04.873-.055q1-.054,2-.1l.941-.046q.886-.044,1.774-.084a97.87,97.87,0,0,0,12.331-1.1,18.834,18.834,0,0,0,4.108-1.1,6.169,6.169,0,0,0,2.113-1.312,4.09,4.09,0,0,0,.9-1.614c.049-.308.081-.618.107-.927.043-.017.086-.029.128-.047a6.169,6.169,0,0,0,2.113-1.312,4.09,4.09,0,0,0,.9-1.614,22.581,22.581,0,0,0-.093-5.914c-.044-.409-.087-.813-.123-1.211l-.108-1.18c-.191-2.073-.389-4.217-.515-6.31a55.659,55.659,0,0,1-.052-7.458,19.452,19.452,0,0,1,.49-3.276,3.237,3.237,0,0,1,.547-.052,2.965,2.965,0,0,1,2.477,1.31,15.44,15.44,0,0,1,1.984,5.849c.369,1.96.656,4,.934,5.971q.125.882.251,1.763l.108.758a29.989,29.989,0,0,0,1.662,7.23l.031.077a4.3,4.3,0,0,0,3.228,3,23.944,23.944,0,0,0,3.609.27l.368,0a22.667,22.667,0,0,0,8.287-1.513l.1-.038a3.794,3.794,0,0,0,2.069-1.616,3.569,3.569,0,0,0,.4-1.174l.006-.031c.072-.286.139-.575.207-.863.158-.059.318-.115.472-.178l.1-.038a3.793,3.793,0,0,0,2.069-1.616,3.567,3.567,0,0,0,.4-1.174l.006-.031c.129-.517.254-1.039.375-1.562,1.694-7.315,3.179-15.221,4.539-24.17.939-6.182,1.572-11.27,1.99-16.013A81.249,81.249,0,0,0,4184.184,7429.429Z"/>
      <g id="Group_346" data-name="Group 346">
        <path id="Path_568" data-name="Path 568" d="M4154.7,7450.119h0c0-.037-.007-.074-.012-.111Z" fill="url(#linear-gradient-4)"/>
        <path id="Path_569" data-name="Path 569" d="M4181.385,7445.457a78.14,78.14,0,0,0,.216-15.731,21.956,21.956,0,0,0-.664-3.523c-1.589-5.648-8.069-7.037-13.65-7.038a36.818,36.818,0,0,0-4.06.231,35.867,35.867,0,0,0-5.543,1.048c-.764.21-1.523.447-2.263.731a13.18,13.18,0,0,0-1.238.538c-.187.094-.655.28-.746.472a2.871,2.871,0,0,0,.031.932l.045,1.368c.016.477.035.953.054,1.429q.309,7.446.682,14.888.226,4.66.454,9.317c.17,2.082-2.241,3.027-3.919,3.285-.7.108-1.4.133-2.1.182-.852.059-1.712.19-2.569.19-.24,0-.479-.011-.718-.035a4,4,0,0,1-3-1.724,6.474,6.474,0,0,1-.6-1.492c-.132-.376-.349-1.028-.485-1.527-.73-2.664-1.49-5.319-2.26-7.972-1.425-4.91-2.875-9.812-4.318-14.717-.954-3.245-1.87-6.5-2.959-9.707-1.534-4.507-3.538-9.081-6.676-12.718a17.7,17.7,0,0,0-12.724-6.013q-.96-.059-1.919-.057a63.831,63.831,0,0,0-13.953,2.007,129.737,129.737,0,0,0-15.649,4.338,32.8,32.8,0,0,0-6.9,3.267c-1.855,1.222-3.75,2.933-3.822,5.314-.078,2.545,1.588,4.919,2.976,6.917.691.993,1.411,1.963,2.137,2.931,4.658,6.2,9.242,12.443,13.37,19.019a286.969,286.969,0,0,1,15.456,28.653c2.4,5.012,4.712,10.066,7.018,15.123,1.127,2.468,2.24,4.95,3.511,7.349.978,1.847,2.206,4.391,4.451,4.874a9.143,9.143,0,0,0,1.931.181c.96,0,1.931-.1,2.873-.148.984-.052,1.969-.1,2.953-.146a111.787,111.787,0,0,0,13.784-1.15,16.444,16.444,0,0,0,3.546-.935,3.843,3.843,0,0,0,1.266-.735c.045-.046.156-.23.185-.23.007,0,.009.008.007.027a26.885,26.885,0,0,0-.237-6.482c-.23-2.522-.477-5.042-.629-7.57a57.39,57.39,0,0,1-.049-7.813,14.529,14.529,0,0,1,1.9-6.9,5.966,5.966,0,0,1,4.978-2.725,5.564,5.564,0,0,1,4.6,2.415,17.482,17.482,0,0,1,2.412,6.863c.489,2.6.824,5.225,1.2,7.842a31.293,31.293,0,0,0,1.6,7.374c.257.626.537,1.385,1.25,1.495a21.069,21.069,0,0,0,3.213.24l.33,0a20.363,20.363,0,0,0,7.336-1.319c.3-.124.734-.251.893-.532a2.137,2.137,0,0,0,.136-.52c.13-.515.253-1.033.373-1.551,1.834-7.918,3.28-15.94,4.5-23.974C4180.213,7456.046,4180.916,7450.759,4181.385,7445.457Z" fill="url(#linear-gradient-5)"/>
        <path id="Path_570" data-name="Path 570" d="M4180.918,7426.137l.019.066c.167.585.224.783.224.783Z" fill="url(#linear-gradient-6)"/>
      </g>
      <path id="Path_571" data-name="Path 571" d="M4105.375,7401.156c8.921-3.7,20.362,1.375,20.648,11.758a28.315,28.315,0,0,0-3.607-5.306c-4.311-4.827-10.8-5.991-17.041-6.452Z" fill="#fff"/>
      <path id="Path_572" data-name="Path 572" d="M4168.869,7422.2a6.922,6.922,0,0,1,9.237,2.115,10.887,10.887,0,0,1,1.01,9.581c-.537-1.538-.917-3.006-1.391-4.385-1.426-4.567-3.975-6.878-8.856-7.311Z" fill="#fff"/>
      <path id="Path_573" data-name="Path 573" d="M4134,7494.993c2.463-1.144,5.038-1.449,7.326-2.649.212-.14.206-.143.3-.3.414-.983.132-2.736.056-3.942a27.635,27.635,0,0,1-.139-4.8c1.409,2.833,4.672,8.792,1.217,11.217a11.252,11.252,0,0,1-8.757.479Z" fill="#fff"/>
      <path id="Path_574" data-name="Path 574" d="M4164.771,7486.7c1.782-1.031,3.555-1.378,5.287-2.2a1.379,1.379,0,0,0,.338-.255c1.212-1.327,1.424-3.905,2.3-5.714,1.1,2.644,1.479,6.616-1.433,8.262a8.034,8.034,0,0,1-6.489-.1Z" fill="#fff"/>
    </g>
    <g id="Group_350" data-name="Group 350">
      <path id="Path_575" data-name="Path 575" d="M4108.5,7427.389l0-.051,0-.051c-.49-5.5-4.575-9.978-10.661-11.675a19.077,19.077,0,0,0-5.121-.719,16.057,16.057,0,0,0-3.5.375,9.523,9.523,0,0,0-3.926,1.752,15.272,15.272,0,0,0-3.475,4.1,20.268,20.268,0,0,0-4.706,6.518,60.936,60.936,0,0,0-3.163,7.381c-.5,1.387-.965,2.782-1.4,4.175-2.916-5.736-6.434-11.936-11.2-16.919-3.242-3.391-6.386-5.358-9.61-6.014a11.421,11.421,0,0,0-2.267-.228,13.818,13.818,0,0,0-7.569,2.444,37.25,37.25,0,0,0-8.328,7.968c-.318.4-.636.8-.955,1.214-.847.931-1.617,1.847-2.295,2.686-.527.653-1.053,1.338-1.58,2.04a7.638,7.638,0,0,0-.311-.95c-.029-.074-.058-.144-.078-.206a120.68,120.68,0,0,0-4.083-11.818,55.66,55.66,0,0,0-6.755-12.525,22.015,22.015,0,0,0-5.03-5.029,17.079,17.079,0,0,0-6.546-2.585,42.369,42.369,0,0,0-8.365-.758c-1.851,0-3.836.09-6.068.277a88.816,88.816,0,0,0-13.781,2.24,55.47,55.47,0,0,0-13.471,4.984,19.605,19.605,0,0,0-5.893,4.591,8.647,8.647,0,0,0-1.112,1.778,14.636,14.636,0,0,0-2.138,2.122,9.11,9.11,0,0,0-1.94,4.653,30.463,30.463,0,0,0,.549,10.6c2.1,10.185,7.192,19.62,11.392,26.7a235.579,235.579,0,0,0,16.334,23.476c3.278,4.25,6.284,7.912,9.19,11.195a57.865,57.865,0,0,0,10.3,9.635,19.9,19.9,0,0,0,6.648,3.091,16.567,16.567,0,0,0,3.828.434,21.415,21.415,0,0,0,3.836-.365,41.824,41.824,0,0,0,13.493-5.172,71.9,71.9,0,0,0,13.281-10.278c.124.129.249.251.368.368.055.055.106.1.145.144.421.486.865.977,1.319,1.459a39.819,39.819,0,0,0,14.663,10.289,27.238,27.238,0,0,0,9.251,1.72l.132,0a9.376,9.376,0,0,0,3.559-1,16.483,16.483,0,0,0,3.616-2.56,35.784,35.784,0,0,0,4.789-5.4,42.1,42.1,0,0,0,3.664-4.46,102.963,102.963,0,0,0,8.215-13.969,242.184,242.184,0,0,0,12.97-30.7c1.195-3.494,2.073-6.4,2.763-9.13A26.666,26.666,0,0,0,4108.5,7427.389Z"/>
      <g id="Group_349" data-name="Group 349" clip-path="url(#clip-path-2)">
        <g id="Group_348" data-name="Group 348">
          <path id="Path_576" data-name="Path 576" d="M4048.122,7480.16q-.338.483-.683.96c-.128.177-.758.794-.745,1.01.018.307.8.976,1.026,1.231q.618.713,1.265,1.4a37.56,37.56,0,0,0,13.692,9.64,24.737,24.737,0,0,0,8.4,1.552h.058a6.757,6.757,0,0,0,2.389-.718,14.2,14.2,0,0,0,3.048-2.172,34.89,34.89,0,0,0,4.835-5.55,99.874,99.874,0,0,0,8-13.617,239.17,239.17,0,0,0,12.831-30.368c1-2.941,1.941-5.911,2.7-8.925a24.1,24.1,0,0,0,.957-7.087c-.434-4.878-4.265-8.144-8.769-9.4a16.6,16.6,0,0,0-4.423-.623,13.473,13.473,0,0,0-2.931.312,7.04,7.04,0,0,0-2.88,1.254,17.643,17.643,0,0,0-4.235,5.87,59.276,59.276,0,0,0-3.028,7.072q-1.181,3.256-2.136,6.592-.456,1.594-.871,3.2a13.673,13.673,0,0,0-.642,2.627,8.656,8.656,0,0,0,.52,2.1q.242.952.463,1.911c.317,1.369.595,2.747.843,4.13a58.88,58.88,0,0,1,.867,6.2c-2.329-5.411-4.687-10.808-7.3-16.088-3.24-6.539-6.835-13.292-11.918-18.607-2.238-2.341-5-4.6-8.249-5.263a8.783,8.783,0,0,0-1.749-.176,11.368,11.368,0,0,0-6.151,2.023,34.52,34.52,0,0,0-7.723,7.423,92.949,92.949,0,0,0-6.425,9.177c-3.582,5.728-6.776,11.683-9.941,17.648a69.276,69.276,0,0,1,2.747-10.74q1.021-3.137,2.258-6.2.645-1.587,1.35-3.147a5.921,5.921,0,0,0,.675-1.457,4.829,4.829,0,0,0-.4-1.387,118.5,118.5,0,0,0-4-11.578,52.626,52.626,0,0,0-6.421-11.941,19.767,19.767,0,0,0-4.433-4.457,14.785,14.785,0,0,0-5.58-2.176,40.027,40.027,0,0,0-7.855-.708c-1.96,0-3.919.106-5.851.268a85.978,85.978,0,0,0-13.376,2.174,53.156,53.156,0,0,0-12.845,4.74,16.833,16.833,0,0,0-5.116,3.941,6.6,6.6,0,0,0-1.392,3.4,28.131,28.131,0,0,0,.522,9.7c1.9,9.221,6.315,17.862,11.082,25.9a232.405,232.405,0,0,0,16.156,23.214c2.912,3.774,5.92,7.49,9.079,11.06a55.211,55.211,0,0,0,9.82,9.213,17.536,17.536,0,0,0,5.78,2.706,13.861,13.861,0,0,0,3.226.364,18.816,18.816,0,0,0,3.37-.322,39.377,39.377,0,0,0,12.65-4.861c7.184-4.188,13.233-10.055,18.857-16.113.86-.927,1.708-1.867,2.531-2.828a43.753,43.753,0,0,1-2.859,4.906Q4048.672,7479.373,4048.122,7480.16Z" fill="url(#linear-gradient-7)"/>
          <path id="Path_577" data-name="Path 577" d="M3991.631,7405.263c8.157-4.476,19.042-1.948,23.776,6.3a21.387,21.387,0,0,1,2.9,8.293,40.986,40.986,0,0,0-5.914-8.662c-5.305-5.774-13.2-7.031-20.762-5.929Z" fill="#fff"/>
          <path id="Path_578" data-name="Path 578" d="M4091.141,7419.862c11.417-1.274,16.628,9.233,9.7,18.1a45.025,45.025,0,0,0,.814-6.173c.48-6.906-4.645-9.907-10.512-11.925Z" fill="#fff"/>
          <path id="Path_579" data-name="Path 579" d="M4089.336,7466.881a76.493,76.493,0,0,1-7.4,14.337c-2.822,4.64-6.611,8.986-11.791,11.026l-.152-.211c.824-1.129,1.737-2.068,2.561-3.11,2.481-3.065,5.14-5.924,7.7-8.923a107.509,107.509,0,0,0,8.844-13.225l.237.106Z" fill="#fff"/>
          <path id="Path_580" data-name="Path 580" d="M4052.865,7423.112a6.211,6.211,0,0,1,4.946,2.656,17.791,17.791,0,0,1,2.42,5.085,13.55,13.55,0,0,1,.436,3.629l-.258.034a16.329,16.329,0,0,0-3.321-5.909,17.774,17.774,0,0,1-4.347-5.267l.124-.228Z" fill="#fff"/>
        </g>
      </g>
    </g>
  </g>
</svg>
