<svg xmlns="http://www.w3.org/2000/svg" xmlns:xlink="http://www.w3.org/1999/xlink" width="358.966" height="136.096" viewBox="0 0 358.966 136.096">
  <defs>
    <clipPath id="clip-path">
      <path id="Path_481" data-name="Path 481" d="M4783.991,7352.587a3.376,3.376,0,0,0-.448-.682,19.894,19.894,0,0,0-4.982-4.556,38.539,38.539,0,0,0-9.242-4.634,74.914,74.914,0,0,0-9.7-2.75c-1.276-.28-2.489-.522-3.679-.735a104.448,104.448,0,0,0,9-7.5c1.976-1.852,3.818-3.81,5.687-5.822a38.128,38.128,0,0,0,3.07-3.708c.06-.064.12-.127.18-.192a46.979,46.979,0,0,0,5.535-7.331c2.547-4.031,3.725-8.137,3.406-11.877-.355-4.175-2.578-7.732-4.474-10.364-2.263-3.141-4.727-6.116-7.056-8.894a81.729,81.729,0,0,0-7.771-8.284,27.958,27.958,0,0,0-4.759-3.571,10.069,10.069,0,0,0-4.889-1.564,6.036,6.036,0,0,0-1.6.21,13.307,13.307,0,0,0-5.029,3.138,43.941,43.941,0,0,0-4.03,4.06c-1.019,1.147-2.043,2.384-3.086,3.719l-.164.181a91.288,91.288,0,0,0-6.731,8.692q-1.626,2.349-3.138,4.781-.193-.471-.41-.91a8.677,8.677,0,0,0-6.13-5.075,8.482,8.482,0,0,0-1.493-.131,12.167,12.167,0,0,0-6.281,2.008,9.364,9.364,0,0,0-4.117,4.485,7.79,7.79,0,0,0-3.5,4.789,8.864,8.864,0,0,0,.441,4l.051.179c.362,1.284.8,2.533,1.173,3.585.457,1.274.947,2.551,1.42,3.785a68.863,68.863,0,0,1,3.04,9.16c2.1,9.152,1.6,18.817.912,27.932-.055.729-.115,1.457-.174,2.187-.141,1.737-.287,3.533-.378,5.321a15.869,15.869,0,0,0,.876,7.133,7.858,7.858,0,0,0,5.771,4.627,14.567,14.567,0,0,0,3.069.324c4.688,0,8.356-2.153,9.771-5.672a9.009,9.009,0,0,0,.923-.693c1.211,1.734,2.43,3.472,3.654,5.189,1.563,2.2,3.432,4.79,5.437,7.376.043.055.087.123.136.193a4.082,4.082,0,0,0,3.776,2.173,9.95,9.95,0,0,0,1.547-.149l.169-.025a27.315,27.315,0,0,0,4.763-1.246,117.677,117.677,0,0,0,16.825-7.7c.792-.418,1.58-.843,2.369-1.267.9-.487,1.805-.973,2.712-1.449l.238-.124a16.383,16.383,0,0,0,2.717-1.663,5.577,5.577,0,0,0,2.07-2.862c.023-.087.037-.174.054-.262a11.123,11.123,0,0,0,1.126-.776,5.579,5.579,0,0,0,2.07-2.862A4.92,4.92,0,0,0,4783.991,7352.587Z"/>
    </clipPath>
    <linearGradient id="linear-gradient" x1="0.5" y1="0.163" x2="0.5" y2="0.826" gradientUnits="objectBoundingBox">
      <stop offset="0" stop-color="#00ffd5"/>
      <stop offset="1" stop-color="#01cb2d"/>
    </linearGradient>
    <linearGradient id="linear-gradient-2" x1="0.502" y1="-208.027" x2="0.502" y2="-0.611" xlink:href="#linear-gradient"/>
    <clipPath id="clip-path-2">
      <path id="Path_489" data-name="Path 489" d="M4672.775,7315.47c-.25-1.493-.562-3.014-.927-4.52l-.008-.03-.008-.03-.023-.089c-.047-.206-.1-.423-.162-.654l-.01,0,0-.014.011,0c-.285-1.088-.478-1.82-.6-2.28a6.349,6.349,0,0,0-.346-1.035c-3.961-12.845-10.472-22.1-19.373-27.522a43.539,43.539,0,0,0-19.933-5.862c-1.464-.1-3.008-.146-4.721-.146-1.936,0-3.849.062-5.465.123-.966.036-1.961.051-2.924.066-.714.011-1.427.022-2.141.041a14.615,14.615,0,0,0-5.113.947,8.854,8.854,0,0,0-4.915,4.778,9.5,9.5,0,0,0-4.113,7.926,37.4,37.4,0,0,0-9.085,8.877,44.657,44.657,0,0,0-11.021,21.9,68.018,68.018,0,0,0-1,20.862c.768,7.536,2.3,13.189,4.809,17.789a29.65,29.65,0,0,0,15.069,13.187c5.691,2.331,12.321,3.552,20.867,3.845,1.511.051,2.848.077,4.09.077,7.021,0,12.3-.824,17.125-2.671a42.01,42.01,0,0,0,16.446-11.588c.756-.863,1.46-1.766,2.141-2.687.376-.4.747-.8,1.109-1.213C4671.582,7345.234,4675.309,7330.628,4672.775,7315.47Zm-63.881,22.278c.291-.362.561-.72.83-1.077.124-.134.25-.268.371-.4.675-.754,1.364-1.568,2.049-2.42a35.831,35.831,0,0,0,3.112-4.5,14.284,14.284,0,0,1,2.037,8.417h0v.016h0a12.792,12.792,0,0,1-.97,4.1,7.274,7.274,0,0,1-3.754,1.091,6.439,6.439,0,0,1-1.588-.2,4.49,4.49,0,0,1-2.849-1.885,2.361,2.361,0,0,1-.06-2.142C4608.344,7338.419,4608.62,7338.09,4608.894,7337.748Z"/>
    </clipPath>
    <linearGradient id="linear-gradient-3" x1="0.545" y1="0" x2="0.5" y2="0.943" xlink:href="#linear-gradient"/>
    <linearGradient id="linear-gradient-4" x1="0.499" y1="-52.882" x2="0.499" y2="17.391" xlink:href="#linear-gradient"/>
    <linearGradient id="linear-gradient-5" x1="0.5" y1="-14.843" x2="0.5" y2="6.21" xlink:href="#linear-gradient"/>
    <clipPath id="clip-path-3">
      <path id="Path_495" data-name="Path 495" d="M4729.447,7352.609a6.622,6.622,0,0,0-2.754-3.867c-.186-.14-.388-.284-.606-.438a7.393,7.393,0,0,0-1.508-.939,58.95,58.95,0,0,0-10.241-4.438c-1.29-.464-2.624-.943-3.894-1.443a62.142,62.142,0,0,1-6.517-2.968,28.824,28.824,0,0,0,9.271-8.554,32.208,32.208,0,0,0,3.463-4.2,35.1,35.1,0,0,0,5.559-12.653,44.767,44.767,0,0,0,.167-17.438,41.809,41.809,0,0,0-5.957-15.462c-3.544-5.34-8.269-8.856-13.662-10.17a21.255,21.255,0,0,0-5.018-.588,27.608,27.608,0,0,0-8.684,1.5,33.1,33.1,0,0,0-17.184,12.459c-5.94,6.108-9.75,14.855-10.936,24.965-1.673.2-4,1.18-5.588,4.688-1.49.871-3.021,2.6-4,5.936a27.91,27.91,0,0,0-.8,9.03,64.246,64.246,0,0,0,1.183,9.385,106.158,106.158,0,0,0,5.237,17.982,73.583,73.583,0,0,0,3.942,8.649c1.468,2.692,3.257,5.737,5.927,7.8a6.48,6.48,0,0,0,3.934,1.548,4.868,4.868,0,0,0,.648-.043,6.234,6.234,0,0,0,4.153-2.483,9.47,9.47,0,0,0,1.161-2.1,6.327,6.327,0,0,0,2.089-1.8c2-2.705,2.178-6.218,2.32-9.041l.028-.552c.035-.652.047-1.322.059-1.969.007-.419.016-.84.03-1.258a15.4,15.4,0,0,1,1.872,3.719l.21.525.127.315a73.9,73.9,0,0,0,3.668,8.117c3.16,5.735,6.964,9.213,11.305,10.338a12.133,12.133,0,0,0,3.034.371,19.776,19.776,0,0,0,6.665-1.324,34.82,34.82,0,0,0,8.3-4.44,31.582,31.582,0,0,0,6.7-6.267c.321-.412.658-.865.988-1.351a26.989,26.989,0,0,0,2.262-2.549C4728.1,7359.424,4730.259,7356.119,4729.447,7352.609Zm-43.207-26.644a4.791,4.791,0,0,1-.863.077,7.544,7.544,0,0,1-5.363-2.686,3.275,3.275,0,0,1-1.082-2.259c.059-.088.186-.246.275-.355s.187-.234.276-.35c.18-.236.349-.454.521-.675a24.759,24.759,0,0,1,1.816-1.8,5.549,5.549,0,0,1,3.3-1.678c.075,0,.15,0,.223.011,2.076.217,2.757,3.283,2.827,4.873a9.332,9.332,0,0,1-1.112,4.515A3.38,3.38,0,0,1,4686.24,7325.965Z"/>
    </clipPath>
    <linearGradient id="linear-gradient-6" x1="0.5" y1="-56.276" x2="0.5" y2="-3.812" xlink:href="#linear-gradient"/>
    <linearGradient id="linear-gradient-7" x1="0.5" y1="0.119" x2="0.5" y2="0.741" xlink:href="#linear-gradient"/>
    <clipPath id="clip-path-4">
      <path id="Path_502" data-name="Path 502" d="M4609.509,7299.487l0-.052,0-.05c-.49-5.5-4.575-9.978-10.661-11.676a19.1,19.1,0,0,0-5.121-.718,16.122,16.122,0,0,0-3.5.374,9.529,9.529,0,0,0-3.926,1.752,15.327,15.327,0,0,0-3.475,4.1,20.283,20.283,0,0,0-4.706,6.517,61.169,61.169,0,0,0-3.163,7.382c-.5,1.387-.965,2.782-1.4,4.175-2.916-5.736-6.433-11.936-11.2-16.92-3.243-3.39-6.386-5.357-9.61-6.013a11.432,11.432,0,0,0-2.268-.228,13.825,13.825,0,0,0-7.569,2.444,37.269,37.269,0,0,0-8.328,7.968c-.318.394-.636.8-.954,1.214-.848.931-1.618,1.847-2.3,2.686-.527.653-1.053,1.337-1.58,2.039a7.686,7.686,0,0,0-.311-.95c-.029-.074-.057-.144-.078-.206a120.537,120.537,0,0,0-4.083-11.817,55.608,55.608,0,0,0-6.755-12.525,22.027,22.027,0,0,0-5.03-5.03,17.062,17.062,0,0,0-6.546-2.584,42.365,42.365,0,0,0-8.364-.758c-1.852,0-3.837.09-6.068.277a88.637,88.637,0,0,0-13.782,2.24,55.475,55.475,0,0,0-13.471,4.984,19.555,19.555,0,0,0-5.892,4.591,8.689,8.689,0,0,0-1.113,1.777,14.6,14.6,0,0,0-2.137,2.123,9.1,9.1,0,0,0-1.941,4.652,30.463,30.463,0,0,0,.549,10.6c2.1,10.184,7.193,19.62,11.392,26.7a235.651,235.651,0,0,0,16.334,23.476c3.278,4.249,6.285,7.911,9.19,11.2a57.827,57.827,0,0,0,10.3,9.634,19.874,19.874,0,0,0,6.648,3.091,16.543,16.543,0,0,0,3.829.435,21.492,21.492,0,0,0,3.835-.365,41.861,41.861,0,0,0,13.493-5.172,71.846,71.846,0,0,0,13.281-10.279c.124.13.249.252.368.369.055.054.106.1.145.144.421.486.865.977,1.319,1.459a39.838,39.838,0,0,0,14.664,10.289,27.242,27.242,0,0,0,9.25,1.72l.132,0a9.393,9.393,0,0,0,3.56-1,16.5,16.5,0,0,0,3.615-2.561,35.711,35.711,0,0,0,4.789-5.4,41.836,41.836,0,0,0,3.664-4.461,102.776,102.776,0,0,0,8.215-13.968,242.216,242.216,0,0,0,12.97-30.7c1.2-3.494,2.073-6.4,2.763-9.13A26.633,26.633,0,0,0,4609.509,7299.487Z"/>
    </clipPath>
    <linearGradient id="linear-gradient-8" x1="0.5" y1="0.214" x2="0.5" y2="0.72" xlink:href="#linear-gradient"/>
  </defs>
  <g id="work" transform="translate(-4439.933 -7255.44)">
    <g id="Group_291" data-name="Group 291">
      <g id="Group_290" data-name="Group 290">
        <path id="Path_471" data-name="Path 471" d="M4792.728,7347.715a13.447,13.447,0,0,0-1.229-1.874,29.742,29.742,0,0,0-7.164-6.658,44.147,44.147,0,0,0-8.2-4.523c.6-.631,1.187-1.265,1.78-1.9a46.987,46.987,0,0,0,3.468-4.132,57.47,57.47,0,0,0,6.483-8.607c3.721-5.888,5.422-12.135,4.917-18.066-.57-6.692-3.882-11.972-6.325-15.363-2.461-3.414-5.058-6.552-7.506-9.472a90.958,90.958,0,0,0-8.747-9.295,37.4,37.4,0,0,0-6.492-4.821,19.679,19.679,0,0,0-9.843-2.878,15.951,15.951,0,0,0-4.231.564,22.53,22.53,0,0,0-8.955,5.237,53.6,53.6,0,0,0-4.943,4.963c-1.081,1.217-2.152,2.5-3.266,3.918-1.382,1.557-2.763,3.242-4.171,5.086-.229-.085-.46-.166-.693-.241a44.554,44.554,0,0,0-2.846-4.967c-4.96-7.474-11.748-12.439-19.627-14.356a34.723,34.723,0,0,0-19.225,1.139,44.16,44.16,0,0,0-17.809,10.93,43.408,43.408,0,0,0-3.739,4.364,46.594,46.594,0,0,0-7.835-6.006,53.4,53.4,0,0,0-24.462-7.3c-1.689-.113-3.453-.169-5.394-.169-2.086,0-4.122.065-5.838.13-.833.031-1.691.044-2.525.057l-.176,0c-.754.012-1.508.024-2.246.043a24.353,24.353,0,0,0-8.578,1.662,44.788,44.788,0,0,0-12.523,11.828,26.472,26.472,0,0,0-6.739.594,19.507,19.507,0,0,0-7.95,3.668,24.081,24.081,0,0,0-4.959,5.414,24.935,24.935,0,0,0-3.037,3.6q-1.2-1.446-2.524-2.834c-4.7-4.913-9.556-7.824-14.841-8.9a21.4,21.4,0,0,0-4.263-.429,23.637,23.637,0,0,0-13.026,4.064,36.743,36.743,0,0,0-3.982,3.009,60.229,60.229,0,0,0-6.971-12.253,31.618,31.618,0,0,0-7.328-7.228,27.007,27.007,0,0,0-10.261-4.159,52.189,52.189,0,0,0-10.326-.953c-2.131,0-4.389.1-6.9.313a98.6,98.6,0,0,0-15.34,2.5,65.218,65.218,0,0,0-15.882,5.923,29.055,29.055,0,0,0-8.872,7.082,18.686,18.686,0,0,0-1.218,1.693,23.306,23.306,0,0,0-2.038,2.214,19.076,19.076,0,0,0-4.048,9.479,40.222,40.222,0,0,0,.651,14.069c2.4,11.638,7.987,22.028,12.584,29.78a245,245,0,0,0,17.017,24.483c3.405,4.416,6.552,8.248,9.62,11.716a66.8,66.8,0,0,0,12.132,11.256,29.65,29.65,0,0,0,9.979,4.568,28.467,28.467,0,0,0,11.782.18,51.8,51.8,0,0,0,16.732-6.37,70.527,70.527,0,0,0,7.823-5.321,46.3,46.3,0,0,0,13.373,8.014,37.012,37.012,0,0,0,12.529,2.366c.132,0,.266.006.4.006a18.942,18.942,0,0,0,8.061-2.067,26.124,26.124,0,0,0,5.8-4.054,41.743,41.743,0,0,0,4.608-4.9,41.628,41.628,0,0,0,9.613,5.507c6.825,2.795,14.551,4.251,24.314,4.585,1.631.056,3.081.083,4.433.083,8.3,0,14.683-1.027,20.7-3.333a50.177,50.177,0,0,0,9.826-5.091,25.636,25.636,0,0,0,4.475,4.48,15.9,15.9,0,0,0,12.016,3.507,16.268,16.268,0,0,0,9.91-5.265,25.458,25.458,0,0,0,13.293,8.844,22.11,22.11,0,0,0,5.537.69,29.516,29.516,0,0,0,10.043-1.912,44.82,44.82,0,0,0,10.714-5.7q1.1-.781,2.146-1.623a22.757,22.757,0,0,0,8.812-1.72c.916,1.249,1.885,2.546,2.886,3.84a14.469,14.469,0,0,0,6.764,5.513,14.635,14.635,0,0,0,5.21.932,19.3,19.3,0,0,0,3.033-.26l.157-.023a36.972,36.972,0,0,0,6.519-1.673,125.86,125.86,0,0,0,18.263-8.319c.82-.433,1.637-.873,2.445-1.309.866-.467,1.731-.933,2.621-1.4l.2-.107a25.646,25.646,0,0,0,4.326-2.709,16.478,16.478,0,0,0,4.019-4.545,15.043,15.043,0,0,0,4.739-7.475A14.889,14.889,0,0,0,4792.728,7347.715Z" fill="#fff"/>
        <path id="Path_472" data-name="Path 472" d="M4792.728,7347.715a13.447,13.447,0,0,0-1.229-1.874,29.742,29.742,0,0,0-7.164-6.658,44.147,44.147,0,0,0-8.2-4.523c.6-.631,1.187-1.265,1.78-1.9a46.987,46.987,0,0,0,3.468-4.132,57.47,57.47,0,0,0,6.483-8.607c3.721-5.888,5.422-12.135,4.917-18.066-.57-6.692-3.882-11.972-6.325-15.363-2.461-3.414-5.058-6.552-7.506-9.472a90.958,90.958,0,0,0-8.747-9.295,37.4,37.4,0,0,0-6.492-4.821,19.679,19.679,0,0,0-9.843-2.878,15.951,15.951,0,0,0-4.231.564,22.53,22.53,0,0,0-8.955,5.237,53.6,53.6,0,0,0-4.943,4.963c-1.081,1.217-2.152,2.5-3.266,3.918-1.382,1.557-2.763,3.242-4.171,5.086-.229-.085-.46-.166-.693-.241a44.554,44.554,0,0,0-2.846-4.967c-4.96-7.474-11.748-12.439-19.627-14.356a34.723,34.723,0,0,0-19.225,1.139,44.16,44.16,0,0,0-17.809,10.93,43.408,43.408,0,0,0-3.739,4.364,46.594,46.594,0,0,0-7.835-6.006,53.4,53.4,0,0,0-24.462-7.3c-1.689-.113-3.453-.169-5.394-.169-2.086,0-4.122.065-5.838.13-.833.031-1.691.044-2.525.057l-.176,0c-.754.012-1.508.024-2.246.043a24.353,24.353,0,0,0-8.578,1.662,44.788,44.788,0,0,0-12.523,11.828,26.472,26.472,0,0,0-6.739.594,19.507,19.507,0,0,0-7.95,3.668,24.081,24.081,0,0,0-4.959,5.414,24.935,24.935,0,0,0-3.037,3.6q-1.2-1.446-2.524-2.834c-4.7-4.913-9.556-7.824-14.841-8.9a21.4,21.4,0,0,0-4.263-.429,23.637,23.637,0,0,0-13.026,4.064,36.743,36.743,0,0,0-3.982,3.009,60.229,60.229,0,0,0-6.971-12.253,31.618,31.618,0,0,0-7.328-7.228,27.007,27.007,0,0,0-10.261-4.159,52.189,52.189,0,0,0-10.326-.953c-2.131,0-4.389.1-6.9.313a98.6,98.6,0,0,0-15.34,2.5,65.218,65.218,0,0,0-15.882,5.923,29.055,29.055,0,0,0-8.872,7.082,18.686,18.686,0,0,0-1.218,1.693,23.306,23.306,0,0,0-2.038,2.214,19.076,19.076,0,0,0-4.048,9.479,40.222,40.222,0,0,0,.651,14.069c2.4,11.638,7.987,22.028,12.584,29.78a245,245,0,0,0,17.017,24.483c3.405,4.416,6.552,8.248,9.62,11.716a66.8,66.8,0,0,0,12.132,11.256,29.65,29.65,0,0,0,9.979,4.568,28.467,28.467,0,0,0,11.782.18,51.8,51.8,0,0,0,16.732-6.37,70.527,70.527,0,0,0,7.823-5.321,46.3,46.3,0,0,0,13.373,8.014,37.012,37.012,0,0,0,12.529,2.366c.132,0,.266.006.4.006a18.942,18.942,0,0,0,8.061-2.067,26.124,26.124,0,0,0,5.8-4.054,41.743,41.743,0,0,0,4.608-4.9,41.628,41.628,0,0,0,9.613,5.507c6.825,2.795,14.551,4.251,24.314,4.585,1.631.056,3.081.083,4.433.083,8.3,0,14.683-1.027,20.7-3.333a50.177,50.177,0,0,0,9.826-5.091,25.636,25.636,0,0,0,4.475,4.48,15.9,15.9,0,0,0,12.016,3.507,16.268,16.268,0,0,0,9.91-5.265,25.458,25.458,0,0,0,13.293,8.844,22.11,22.11,0,0,0,5.537.69,29.516,29.516,0,0,0,10.043-1.912,44.82,44.82,0,0,0,10.714-5.7q1.1-.781,2.146-1.623a22.757,22.757,0,0,0,8.812-1.72c.916,1.249,1.885,2.546,2.886,3.84a14.469,14.469,0,0,0,6.764,5.513,14.635,14.635,0,0,0,5.21.932,19.3,19.3,0,0,0,3.033-.26l.157-.023a36.972,36.972,0,0,0,6.519-1.673,125.86,125.86,0,0,0,18.263-8.319c.82-.433,1.637-.873,2.445-1.309.866-.467,1.731-.933,2.621-1.4l.2-.107a25.646,25.646,0,0,0,4.326-2.709,16.478,16.478,0,0,0,4.019-4.545,15.043,15.043,0,0,0,4.739-7.475A14.889,14.889,0,0,0,4792.728,7347.715Z" fill="none" stroke="#fff" stroke-miterlimit="10" stroke-width="8"/>
        <path id="Path_473" data-name="Path 473" d="M4792.728,7347.715a13.447,13.447,0,0,0-1.229-1.874,29.742,29.742,0,0,0-7.164-6.658,44.147,44.147,0,0,0-8.2-4.523c.6-.631,1.187-1.265,1.78-1.9a46.987,46.987,0,0,0,3.468-4.132,57.47,57.47,0,0,0,6.483-8.607c3.721-5.888,5.422-12.135,4.917-18.066-.57-6.692-3.882-11.972-6.325-15.363-2.461-3.414-5.058-6.552-7.506-9.472a90.958,90.958,0,0,0-8.747-9.295,37.4,37.4,0,0,0-6.492-4.821,19.679,19.679,0,0,0-9.843-2.878,15.951,15.951,0,0,0-4.231.564,22.53,22.53,0,0,0-8.955,5.237,53.6,53.6,0,0,0-4.943,4.963c-1.081,1.217-2.152,2.5-3.266,3.918-1.382,1.557-2.763,3.242-4.171,5.086-.229-.085-.46-.166-.693-.241a44.554,44.554,0,0,0-2.846-4.967c-4.96-7.474-11.748-12.439-19.627-14.356a34.723,34.723,0,0,0-19.225,1.139,44.16,44.16,0,0,0-17.809,10.93,43.408,43.408,0,0,0-3.739,4.364,46.594,46.594,0,0,0-7.835-6.006,53.4,53.4,0,0,0-24.462-7.3c-1.689-.113-3.453-.169-5.394-.169-2.086,0-4.122.065-5.838.13-.833.031-1.691.044-2.525.057l-.176,0c-.754.012-1.508.024-2.246.043a24.353,24.353,0,0,0-8.578,1.662,44.788,44.788,0,0,0-12.523,11.828,26.472,26.472,0,0,0-6.739.594,19.507,19.507,0,0,0-7.95,3.668,24.081,24.081,0,0,0-4.959,5.414,24.935,24.935,0,0,0-3.037,3.6q-1.2-1.446-2.524-2.834c-4.7-4.913-9.556-7.824-14.841-8.9a21.4,21.4,0,0,0-4.263-.429,23.637,23.637,0,0,0-13.026,4.064,36.743,36.743,0,0,0-3.982,3.009,60.229,60.229,0,0,0-6.971-12.253,31.618,31.618,0,0,0-7.328-7.228,27.007,27.007,0,0,0-10.261-4.159,52.189,52.189,0,0,0-10.326-.953c-2.131,0-4.389.1-6.9.313a98.6,98.6,0,0,0-15.34,2.5,65.218,65.218,0,0,0-15.882,5.923,29.055,29.055,0,0,0-8.872,7.082,18.686,18.686,0,0,0-1.218,1.693,23.306,23.306,0,0,0-2.038,2.214,19.076,19.076,0,0,0-4.048,9.479,40.222,40.222,0,0,0,.651,14.069c2.4,11.638,7.987,22.028,12.584,29.78a245,245,0,0,0,17.017,24.483c3.405,4.416,6.552,8.248,9.62,11.716a66.8,66.8,0,0,0,12.132,11.256,29.65,29.65,0,0,0,9.979,4.568,28.467,28.467,0,0,0,11.782.18,51.8,51.8,0,0,0,16.732-6.37,70.527,70.527,0,0,0,7.823-5.321,46.3,46.3,0,0,0,13.373,8.014,37.012,37.012,0,0,0,12.529,2.366c.132,0,.266.006.4.006a18.942,18.942,0,0,0,8.061-2.067,26.124,26.124,0,0,0,5.8-4.054,41.743,41.743,0,0,0,4.608-4.9,41.628,41.628,0,0,0,9.613,5.507c6.825,2.795,14.551,4.251,24.314,4.585,1.631.056,3.081.083,4.433.083,8.3,0,14.683-1.027,20.7-3.333a50.177,50.177,0,0,0,9.826-5.091,25.636,25.636,0,0,0,4.475,4.48,15.9,15.9,0,0,0,12.016,3.507,16.268,16.268,0,0,0,9.91-5.265,25.458,25.458,0,0,0,13.293,8.844,22.11,22.11,0,0,0,5.537.69,29.516,29.516,0,0,0,10.043-1.912,44.82,44.82,0,0,0,10.714-5.7q1.1-.781,2.146-1.623a22.757,22.757,0,0,0,8.812-1.72c.916,1.249,1.885,2.546,2.886,3.84a14.469,14.469,0,0,0,6.764,5.513,14.635,14.635,0,0,0,5.21.932,19.3,19.3,0,0,0,3.033-.26l.157-.023a36.972,36.972,0,0,0,6.519-1.673,125.86,125.86,0,0,0,18.263-8.319c.82-.433,1.637-.873,2.445-1.309.866-.467,1.731-.933,2.621-1.4l.2-.107a25.646,25.646,0,0,0,4.326-2.709,16.478,16.478,0,0,0,4.019-4.545,15.043,15.043,0,0,0,4.739-7.475A14.889,14.889,0,0,0,4792.728,7347.715Z" fill="none" stroke="#000" stroke-miterlimit="10" stroke-width="6"/>
      </g>
    </g>
    <g id="Group_295" data-name="Group 295">
      <path id="Path_474" data-name="Path 474" d="M4783.991,7352.587a3.376,3.376,0,0,0-.448-.682,19.894,19.894,0,0,0-4.982-4.556,38.539,38.539,0,0,0-9.242-4.634,74.914,74.914,0,0,0-9.7-2.75c-1.276-.28-2.489-.522-3.679-.735a104.448,104.448,0,0,0,9-7.5c1.976-1.852,3.818-3.81,5.687-5.822a38.128,38.128,0,0,0,3.07-3.708c.06-.064.12-.127.18-.192a46.979,46.979,0,0,0,5.535-7.331c2.547-4.031,3.725-8.137,3.406-11.877-.355-4.175-2.578-7.732-4.474-10.364-2.263-3.141-4.727-6.116-7.056-8.894a81.729,81.729,0,0,0-7.771-8.284,27.958,27.958,0,0,0-4.759-3.571,10.069,10.069,0,0,0-4.889-1.564,6.036,6.036,0,0,0-1.6.21,13.307,13.307,0,0,0-5.029,3.138,43.941,43.941,0,0,0-4.03,4.06c-1.019,1.147-2.043,2.384-3.086,3.719l-.164.181a91.288,91.288,0,0,0-6.731,8.692q-1.626,2.349-3.138,4.781-.193-.471-.41-.91a8.677,8.677,0,0,0-6.13-5.075,8.482,8.482,0,0,0-1.493-.131,12.167,12.167,0,0,0-6.281,2.008,9.364,9.364,0,0,0-4.117,4.485,7.79,7.79,0,0,0-3.5,4.789,8.864,8.864,0,0,0,.441,4l.051.179c.362,1.284.8,2.533,1.173,3.585.457,1.274.947,2.551,1.42,3.785a68.863,68.863,0,0,1,3.04,9.16c2.1,9.152,1.6,18.817.912,27.932-.055.729-.115,1.457-.174,2.187-.141,1.737-.287,3.533-.378,5.321a15.869,15.869,0,0,0,.876,7.133,7.858,7.858,0,0,0,5.771,4.627,14.567,14.567,0,0,0,3.069.324c4.688,0,8.356-2.153,9.771-5.672a9.009,9.009,0,0,0,.923-.693c1.211,1.734,2.43,3.472,3.654,5.189,1.563,2.2,3.432,4.79,5.437,7.376.043.055.087.123.136.193a4.082,4.082,0,0,0,3.776,2.173,9.95,9.95,0,0,0,1.547-.149l.169-.025a27.315,27.315,0,0,0,4.763-1.246,117.677,117.677,0,0,0,16.825-7.7c.792-.418,1.58-.843,2.369-1.267.9-.487,1.805-.973,2.712-1.449l.238-.124a16.383,16.383,0,0,0,2.717-1.663,5.577,5.577,0,0,0,2.07-2.862c.023-.087.037-.174.054-.262a11.123,11.123,0,0,0,1.126-.776,5.579,5.579,0,0,0,2.07-2.862A4.92,4.92,0,0,0,4783.991,7352.587Z"/>
      <g id="Group_294" data-name="Group 294" clip-path="url(#clip-path)">
        <g id="Group_293" data-name="Group 293">
          <g id="Group_292" data-name="Group 292">
            <path id="Path_475" data-name="Path 475" d="M4773.4,7361.55c1.7-.9,3.384-1.827,5.088-2.72a15.683,15.683,0,0,0,2.542-1.518,3.119,3.119,0,0,0,1.176-1.494,2.676,2.676,0,0,0-.551-2.053,16.517,16.517,0,0,0-4.6-4.293,36.592,36.592,0,0,0-8.633-4.315,72.565,72.565,0,0,0-9.367-2.652c-1.628-.357-3.264-.676-4.908-.944q-1.184-.193-2.37-.357a19.758,19.758,0,0,0-2.622-.342c-.043,0-.084,0-.126,0a7.531,7.531,0,0,0-2.367.974q-1.045.462-2.121.853a19.232,19.232,0,0,1-3.178.923c3.91-2.615,8.133-4.72,12.033-7.358a105.017,105.017,0,0,0,13.009-10.322c1.944-1.822,3.759-3.756,5.571-5.706a45.167,45.167,0,0,0,5.231-6.94c1.915-3.03,3.323-6.63,3.014-10.266-.287-3.368-2.058-6.379-3.994-9.065-2.169-3.012-4.554-5.9-6.938-8.744a78.585,78.585,0,0,0-7.518-8.021,25.254,25.254,0,0,0-4.308-3.246,7.7,7.7,0,0,0-3.6-1.222,3.432,3.432,0,0,0-.91.118,11.252,11.252,0,0,0-4.02,2.6,41.652,41.652,0,0,0-3.78,3.814,88.51,88.51,0,0,0-6.538,8.446,112.594,112.594,0,0,0-6.211,10.052,46.527,46.527,0,0,1-4.887,8,16.2,16.2,0,0,1,.787-4.342,8.348,8.348,0,0,0,.486-1.458,6.272,6.272,0,0,0-.357-1.711,15.174,15.174,0,0,0-1.087-3.1,6.145,6.145,0,0,0-4.255-3.664,5.909,5.909,0,0,0-1.035-.09,9.539,9.539,0,0,0-4.9,1.61c-1.225.77-2.915,2.081-3.184,3.621a7.105,7.105,0,0,0,.432,3.021c.326,1.153.716,2.287,1.12,3.415,1.57,4.383,3.5,8.69,4.546,13.24,2.153,9.371,1.692,19.2.971,28.711-.189,2.479-.423,4.959-.548,7.443a13.464,13.464,0,0,0,.672,5.983,5.269,5.269,0,0,0,3.928,3.1,12.04,12.04,0,0,0,2.519.265c3.211,0,6.557-1.281,7.534-4.542a36.511,36.511,0,0,0,1-5.873c.037-.285.073-.57.11-.855,2.591,3.739,5.181,7.48,7.82,11.186,1.75,2.459,3.524,4.905,5.374,7.291.289.372.667,1.077,1.111,1.245a2.126,2.126,0,0,0,.746.114,9.18,9.18,0,0,0,1.332-.146,24.8,24.8,0,0,0,4.308-1.134A116.153,116.153,0,0,0,4773.4,7361.55Z" fill="url(#linear-gradient)"/>
            <path id="Path_476" data-name="Path 476" d="M4781.509,7353.524s.038.062.151.241l.048.071Z" fill="url(#linear-gradient-2)"/>
          </g>
          <path id="Path_477" data-name="Path 477" d="M4744.738,7283.378c2.154-2.826,6.682-8.74,10.757-7.8a22.441,22.441,0,0,1,8.179,5.219,28.66,28.66,0,0,1,4.559,6.036l-.181.186a33.47,33.47,0,0,1-6.18-4.283c-1.848-1.527-3.38-3.438-5.436-4.653-.356-.226-.769-.443-1.149-.633-1.579-.831-3.334.408-4.782,1.283a36.109,36.109,0,0,0-5.565,4.808l-.2-.163Z" fill="#fff"/>
          <path id="Path_478" data-name="Path 478" d="M4774.843,7297.977a6.807,6.807,0,0,1,3.348,6.3c.239,2.4-.42,5.243-2.425,6.73l-.189-.178a7,7,0,0,0,.713-1.5,8.461,8.461,0,0,0-.149-4.705c-.288-1.036-.921-1.945-1.127-3.011a13.3,13.3,0,0,1-.393-3.5l.222-.136Z" fill="#fff"/>
          <path id="Path_479" data-name="Path 479" d="M4726.684,7301.1a4.818,4.818,0,0,1-1.766-1.661,6.024,6.024,0,0,1-.55-2.016,19.539,19.539,0,0,0-.657-1.966,4.53,4.53,0,0,0-1.078-1.74l.107-.237c1.575.38,2.644,1.808,3.511,3.06a4.865,4.865,0,0,1,1.11,2.01,3.861,3.861,0,0,1-.426,2.482l-.251.068Z" fill="#fff"/>
          <path id="Path_480" data-name="Path 480" d="M4748.1,7344.018c3.412-1.344,7.089-.708,10.426.48,1.673.506,3.328,1.057,4.937,1.72s3.192,1.374,4.731,2.168l-.093.243c-3.275-.84-6.707-1.569-10.033-2.1a29.865,29.865,0,0,1-9.965-2.249l0-.26Z" fill="#fff"/>
        </g>
      </g>
    </g>
    <g id="Group_299" data-name="Group 299">
      <path id="Path_482" data-name="Path 482" d="M4672.775,7315.47c-.25-1.493-.562-3.014-.927-4.52l-.008-.03-.008-.03-.023-.089c-.047-.206-.1-.423-.162-.654l-.01,0,0-.014.011,0c-.285-1.088-.478-1.82-.6-2.28a6.349,6.349,0,0,0-.346-1.035c-3.961-12.845-10.472-22.1-19.373-27.522a43.539,43.539,0,0,0-19.933-5.862c-1.464-.1-3.008-.146-4.721-.146-1.936,0-3.849.062-5.465.123-.966.036-1.961.051-2.924.066-.714.011-1.427.022-2.141.041a14.615,14.615,0,0,0-5.113.947,8.854,8.854,0,0,0-4.915,4.778,9.5,9.5,0,0,0-4.113,7.926,37.4,37.4,0,0,0-9.085,8.877,44.657,44.657,0,0,0-11.021,21.9,68.018,68.018,0,0,0-1,20.862c.768,7.536,2.3,13.189,4.809,17.789a29.65,29.65,0,0,0,15.069,13.187c5.691,2.331,12.321,3.552,20.867,3.845,1.511.051,2.848.077,4.09.077,7.021,0,12.3-.824,17.125-2.671a42.01,42.01,0,0,0,16.446-11.588c.756-.863,1.46-1.766,2.141-2.687.376-.4.747-.8,1.109-1.213C4671.582,7345.234,4675.309,7330.628,4672.775,7315.47Zm-63.881,22.278c.291-.362.561-.72.83-1.077.124-.134.25-.268.371-.4.675-.754,1.364-1.568,2.049-2.42a35.831,35.831,0,0,0,3.112-4.5,14.284,14.284,0,0,1,2.037,8.417h0v.016h0a12.792,12.792,0,0,1-.97,4.1,7.274,7.274,0,0,1-3.754,1.091,6.439,6.439,0,0,1-1.588-.2,4.49,4.49,0,0,1-2.849-1.885,2.361,2.361,0,0,1-.06-2.142C4608.344,7338.419,4608.62,7338.09,4608.894,7337.748Z"/>
      <g id="Group_298" data-name="Group 298" clip-path="url(#clip-path-2)">
        <g id="Group_297" data-name="Group 297">
          <g id="Group_296" data-name="Group 296">
            <path id="Path_483" data-name="Path 483" d="M4645.174,7364.705a39.459,39.459,0,0,0,15.42-10.873c9.077-10.362,11.851-24.57,9.617-37.933q-.366-2.183-.89-4.335c-.078-.292-.3-1.152-.516-1.969-3.087-11.065-8.756-21.94-18.832-28.079a41.1,41.1,0,0,0-18.755-5.487c-1.514-.1-3.03-.141-4.546-.141-1.79,0-3.579.054-5.368.121-1.7.064-3.4.063-5.093.108a12.182,12.182,0,0,0-4.214.761c-3.04,1.22-4.291,4.129-4.144,7.277.118,2.515.671,4.981.377,7.514-.4-1.486-.84-2.967-1.313-4.433-10.527,5.471-16.844,15.971-19.227,27.342a65.654,65.654,0,0,0-.959,20.064c.582,5.713,1.726,11.72,4.5,16.806a27.179,27.179,0,0,0,13.772,12.028c6.311,2.584,13.2,3.421,19.97,3.652,1.333.046,2.668.076,4,.076A44.789,44.789,0,0,0,4645.174,7364.705Zm-22.009-31-.039.481.008-.111a13.787,13.787,0,0,1-3.174,8.133,10.044,10.044,0,0,1-7.393,3.363,9.058,9.058,0,0,1-2.229-.277,7.057,7.057,0,0,1-4.466-3.116,5.026,5.026,0,0,1,.322-5.386,24.654,24.654,0,0,1,1.963-2.257c.674-.753,1.327-1.528,1.961-2.316a32.157,32.157,0,0,0,3.428-5.133,21.373,21.373,0,0,0,2.114-6.009,1.173,1.173,0,0,0,.026-.641,3.562,3.562,0,0,0-.442-.672c-.267-.393-.542-.782-.833-1.159-.558-.725-1.147-1.417-1.742-2.112a15.169,15.169,0,0,1,3.583,2.41,21.256,21.256,0,0,1,3.671,3.961,17.051,17.051,0,0,1,3.211,11.211C4623.157,7333.8,4623.165,7333.705,4623.165,7333.705Z" fill="url(#linear-gradient-3)"/>
            <path id="Path_484" data-name="Path 484" d="M4669.35,7311.668s-.061-.249-.221-.876c.065.257.13.514.192.772C4669.339,7311.631,4669.349,7311.668,4669.35,7311.668Z" fill="url(#linear-gradient-4)"/>
            <path id="Path_485" data-name="Path 485" d="M4668.358,7307.868s.215.838.447,1.727q.166.6.324,1.2C4668.559,7308.62,4668.361,7307.868,4668.358,7307.868Z" fill="url(#linear-gradient-5)"/>
          </g>
          <path id="Path_486" data-name="Path 486" d="M4629.715,7278.67c14.6-1.365,29.068,9.358,32.665,23.455-7.557-12.65-18.107-20.618-32.665-23.455Z" fill="#fff"/>
          <path id="Path_487" data-name="Path 487" d="M4663.041,7335.856c-1.331,14.608-14.521,26.864-29.038,27.819a70.461,70.461,0,0,0,9.492-4.479,46.227,46.227,0,0,0,19.546-23.34Z" fill="#fff"/>
          <path id="Path_488" data-name="Path 488" d="M4612.054,7319.113a6.209,6.209,0,0,1-.194,5.611,17.789,17.789,0,0,1-3.489,4.42,13.571,13.571,0,0,1-3.061,2l-.145-.216a16.34,16.34,0,0,0,3.83-5.593,17.774,17.774,0,0,1,2.8-6.229l.26.011Z" fill="#fff"/>
        </g>
      </g>
    </g>
    <g id="Group_303" data-name="Group 303">
      <path id="Path_490" data-name="Path 490" d="M4729.447,7352.609a6.622,6.622,0,0,0-2.754-3.867c-.186-.14-.388-.284-.606-.438a7.393,7.393,0,0,0-1.508-.939,58.95,58.95,0,0,0-10.241-4.438c-1.29-.464-2.624-.943-3.894-1.443a62.142,62.142,0,0,1-6.517-2.968,28.824,28.824,0,0,0,9.271-8.554,32.208,32.208,0,0,0,3.463-4.2,35.1,35.1,0,0,0,5.559-12.653,44.767,44.767,0,0,0,.167-17.438,41.809,41.809,0,0,0-5.957-15.462c-3.544-5.34-8.269-8.856-13.662-10.17a21.255,21.255,0,0,0-5.018-.588,27.608,27.608,0,0,0-8.684,1.5,33.1,33.1,0,0,0-17.184,12.459c-5.94,6.108-9.75,14.855-10.936,24.965-1.673.2-4,1.18-5.588,4.688-1.49.871-3.021,2.6-4,5.936a27.91,27.91,0,0,0-.8,9.03,64.246,64.246,0,0,0,1.183,9.385,106.158,106.158,0,0,0,5.237,17.982,73.583,73.583,0,0,0,3.942,8.649c1.468,2.692,3.257,5.737,5.927,7.8a6.48,6.48,0,0,0,3.934,1.548,4.868,4.868,0,0,0,.648-.043,6.234,6.234,0,0,0,4.153-2.483,9.47,9.47,0,0,0,1.161-2.1,6.327,6.327,0,0,0,2.089-1.8c2-2.705,2.178-6.218,2.32-9.041l.028-.552c.035-.652.047-1.322.059-1.969.007-.419.016-.84.03-1.258a15.4,15.4,0,0,1,1.872,3.719l.21.525.127.315a73.9,73.9,0,0,0,3.668,8.117c3.16,5.735,6.964,9.213,11.305,10.338a12.133,12.133,0,0,0,3.034.371,19.776,19.776,0,0,0,6.665-1.324,34.82,34.82,0,0,0,8.3-4.44,31.582,31.582,0,0,0,6.7-6.267c.321-.412.658-.865.988-1.351a26.989,26.989,0,0,0,2.262-2.549C4728.1,7359.424,4730.259,7356.119,4729.447,7352.609Zm-43.207-26.644a4.791,4.791,0,0,1-.863.077,7.544,7.544,0,0,1-5.363-2.686,3.275,3.275,0,0,1-1.082-2.259c.059-.088.186-.246.275-.355s.187-.234.276-.35c.18-.236.349-.454.521-.675a24.759,24.759,0,0,1,1.816-1.8,5.549,5.549,0,0,1,3.3-1.678c.075,0,.15,0,.223.011,2.076.217,2.757,3.283,2.827,4.873a9.332,9.332,0,0,1-1.112,4.515A3.38,3.38,0,0,1,4686.24,7325.965Z"/>
      <g id="Group_302" data-name="Group 302" clip-path="url(#clip-path-3)">
        <g id="Group_301" data-name="Group 301">
          <g id="Group_300" data-name="Group 300">
            <path id="Path_491" data-name="Path 491" d="M4723.754,7349.84s.337.242,1.328.946c.23.162.325.227.326.227S4723.759,7349.84,4723.754,7349.84Z" fill="url(#linear-gradient-6)"/>
            <path id="Path_492" data-name="Path 492" d="M4724.351,7360.009c1.393-1.791,3.119-4.411,2.563-6.813a4.209,4.209,0,0,0-1.832-2.41c-4.674-3.322-10.318-4.809-15.59-6.882a63.3,63.3,0,0,1-7.4-3.415q-1.577-.866-3.085-1.851-.616-.4-1.22-.827a5.4,5.4,0,0,0-1.589-1.006,19.416,19.416,0,0,1-4.2-1.179,10.134,10.134,0,0,1-2.8-2.078,17.537,17.537,0,0,0,6.135,1.415c.212.007.425.01.638.01a20.081,20.081,0,0,0,6.739-1.163,24.966,24.966,0,0,0,11.812-9.528,32.466,32.466,0,0,0,5.153-11.717,42.516,42.516,0,0,0,.149-16.429c-1.754-9.757-7.191-21.014-17.676-23.566a18.525,18.525,0,0,0-4.4-.515,25.047,25.047,0,0,0-7.863,1.369,31.912,31.912,0,0,0-12.8,7.8c-7.126,7.258-10.227,17.732-10.644,27.7-.02.482-.02,1.922-.02,1.922l2.019,3.108s-3.822-2.553-6.031-2.955a4.081,4.081,0,0,0-.729-.068c-2.554,0-3.917,2.629-4.581,4.9a25.156,25.156,0,0,0-.7,8.181,61.985,61.985,0,0,0,1.138,9.007,103.391,103.391,0,0,0,5.11,17.54,71.132,71.132,0,0,0,3.8,8.344c1.359,2.493,2.95,5.222,5.233,6.985a4.006,4.006,0,0,0,2.345,1.006,2.409,2.409,0,0,0,.306-.02,3.615,3.615,0,0,0,2.405-1.452c1.648-2.229,1.7-5.536,1.842-8.186.145-2.71-.136-5.91,1.084-8.417a3.708,3.708,0,0,1,3.342-2.137,3.8,3.8,0,0,1,1.6.36c2.408,1.116,3.48,4.2,4.4,6.477a74.417,74.417,0,0,0,3.661,8.15c2.1,3.8,5.261,7.93,9.681,9.076a9.479,9.479,0,0,0,2.381.288,17.52,17.52,0,0,0,5.786-1.171,32.148,32.148,0,0,0,7.677-4.114A28.966,28.966,0,0,0,4724.351,7360.009Zm-37.58-31.5a7.4,7.4,0,0,1-1.394.131,10.155,10.155,0,0,1-7.313-3.567c-1.126-1.276-2.145-3.077-1.6-4.819a5.118,5.118,0,0,1,.946-1.439q.78-1.023,1.585-2.024a37.825,37.825,0,0,1,4.354-4.729,7.984,7.984,0,0,1,5.013-2.326,4.825,4.825,0,0,1,.494.025c3.548.371,5.016,4.22,5.153,7.345a12.811,12.811,0,0,1-2.045,7.013C4690.809,7326.067,4689.072,7328,4686.771,7328.511Z" fill="url(#linear-gradient-7)"/>
          </g>
          <path id="Path_493" data-name="Path 493" d="M4721.9,7356.924a11.707,11.707,0,0,0,1.416-2.079c.057-.174.044-.29.005-.314s-.035.012-.078-.074c.006-.029-.058-.1-.072-.158a6.448,6.448,0,0,0-2.684-2.181c-1.57-.9-3.221-1.6-4.88-2.36l.066-.251c2.837.347,8.49,1.081,10.024,3.8,1.135,2.321-1.558,4.315-3.708,3.86l-.089-.244Z" fill="#fff"/>
          <path id="Path_494" data-name="Path 494" d="M4688.172,7276.3c12.164-5.158,26.046,1.185,27.472,14.937a37.2,37.2,0,0,0-4.574-7.258c-5.509-6.744-14.563-8.23-22.9-7.679Z" fill="#fff"/>
        </g>
      </g>
    </g>
    <g id="Group_306" data-name="Group 306">
      <path id="Path_496" data-name="Path 496" d="M4609.509,7299.487l0-.052,0-.05c-.49-5.5-4.575-9.978-10.661-11.676a19.1,19.1,0,0,0-5.121-.718,16.122,16.122,0,0,0-3.5.374,9.529,9.529,0,0,0-3.926,1.752,15.327,15.327,0,0,0-3.475,4.1,20.283,20.283,0,0,0-4.706,6.517,61.169,61.169,0,0,0-3.163,7.382c-.5,1.387-.965,2.782-1.4,4.175-2.916-5.736-6.433-11.936-11.2-16.92-3.243-3.39-6.386-5.357-9.61-6.013a11.432,11.432,0,0,0-2.268-.228,13.825,13.825,0,0,0-7.569,2.444,37.269,37.269,0,0,0-8.328,7.968c-.318.394-.636.8-.954,1.214-.848.931-1.618,1.847-2.3,2.686-.527.653-1.053,1.337-1.58,2.039a7.686,7.686,0,0,0-.311-.95c-.029-.074-.057-.144-.078-.206a120.537,120.537,0,0,0-4.083-11.817,55.608,55.608,0,0,0-6.755-12.525,22.027,22.027,0,0,0-5.03-5.03,17.062,17.062,0,0,0-6.546-2.584,42.365,42.365,0,0,0-8.364-.758c-1.852,0-3.837.09-6.068.277a88.637,88.637,0,0,0-13.782,2.24,55.475,55.475,0,0,0-13.471,4.984,19.555,19.555,0,0,0-5.892,4.591,8.689,8.689,0,0,0-1.113,1.777,14.6,14.6,0,0,0-2.137,2.123,9.1,9.1,0,0,0-1.941,4.652,30.463,30.463,0,0,0,.549,10.6c2.1,10.184,7.193,19.62,11.392,26.7a235.651,235.651,0,0,0,16.334,23.476c3.278,4.249,6.285,7.911,9.19,11.2a57.827,57.827,0,0,0,10.3,9.634,19.874,19.874,0,0,0,6.648,3.091,16.543,16.543,0,0,0,3.829.435,21.492,21.492,0,0,0,3.835-.365,41.861,41.861,0,0,0,13.493-5.172,71.846,71.846,0,0,0,13.281-10.279c.124.13.249.252.368.369.055.054.106.1.145.144.421.486.865.977,1.319,1.459a39.838,39.838,0,0,0,14.664,10.289,27.242,27.242,0,0,0,9.25,1.72l.132,0a9.393,9.393,0,0,0,3.56-1,16.5,16.5,0,0,0,3.615-2.561,35.711,35.711,0,0,0,4.789-5.4,41.836,41.836,0,0,0,3.664-4.461,102.776,102.776,0,0,0,8.215-13.968,242.216,242.216,0,0,0,12.97-30.7c1.2-3.494,2.073-6.4,2.763-9.13A26.633,26.633,0,0,0,4609.509,7299.487Z"/>
      <g id="Group_305" data-name="Group 305" clip-path="url(#clip-path-4)">
        <g id="Group_304" data-name="Group 304">
          <path id="Path_497" data-name="Path 497" d="M4549.135,7352.258q-.337.483-.683.959c-.129.178-.759.8-.746,1.011.018.307.805.976,1.026,1.231q.618.713,1.265,1.4a37.549,37.549,0,0,0,13.693,9.639,24.733,24.733,0,0,0,8.4,1.553h.058a6.766,6.766,0,0,0,2.389-.718,14.2,14.2,0,0,0,3.048-2.172,34.9,34.9,0,0,0,4.835-5.55,99.889,99.889,0,0,0,8-13.617,238.986,238.986,0,0,0,12.831-30.368c1.006-2.941,1.941-5.911,2.7-8.926a24.1,24.1,0,0,0,.957-7.086c-.434-4.878-4.264-8.145-8.769-9.4a16.556,16.556,0,0,0-4.423-.623,13.451,13.451,0,0,0-2.931.312,7.029,7.029,0,0,0-2.879,1.254,17.644,17.644,0,0,0-4.236,5.87,59.162,59.162,0,0,0-3.027,7.072q-1.182,3.256-2.137,6.591-.456,1.6-.871,3.2a13.611,13.611,0,0,0-.642,2.626,8.659,8.659,0,0,0,.52,2.1q.242.952.464,1.91.474,2.055.842,4.131a58.679,58.679,0,0,1,.867,6.2c-2.329-5.411-4.686-10.808-7.3-16.088-3.24-6.539-6.834-13.293-11.917-18.608-2.239-2.341-5-4.6-8.25-5.262a8.746,8.746,0,0,0-1.749-.176,11.359,11.359,0,0,0-6.15,2.023,34.515,34.515,0,0,0-7.724,7.423,92.92,92.92,0,0,0-6.425,9.176c-3.582,5.729-6.776,11.683-9.941,17.649a69.433,69.433,0,0,1,2.747-10.741c.681-2.09,1.431-4.161,2.258-6.2q.645-1.587,1.35-3.148a5.87,5.87,0,0,0,.675-1.457,4.839,4.839,0,0,0-.4-1.386,119.171,119.171,0,0,0-4-11.579,52.674,52.674,0,0,0-6.422-11.941,19.816,19.816,0,0,0-4.432-4.457,14.83,14.83,0,0,0-5.581-2.176,40.093,40.093,0,0,0-7.854-.707c-1.961,0-3.92.106-5.852.268a86.046,86.046,0,0,0-13.376,2.173,53.131,53.131,0,0,0-12.845,4.741,16.8,16.8,0,0,0-5.116,3.941,6.608,6.608,0,0,0-1.392,3.4,28.131,28.131,0,0,0,.523,9.7c1.9,9.222,6.315,17.862,11.082,25.9a232.182,232.182,0,0,0,16.156,23.215c2.911,3.774,5.919,7.49,9.078,11.06a55.306,55.306,0,0,0,9.82,9.213,17.535,17.535,0,0,0,5.781,2.706,13.856,13.856,0,0,0,3.226.364,18.81,18.81,0,0,0,3.369-.323,39.328,39.328,0,0,0,12.65-4.861c7.184-4.187,13.233-10.054,18.857-16.113.861-.927,1.709-1.866,2.531-2.827a43.807,43.807,0,0,1-2.859,4.906Q4549.686,7351.471,4549.135,7352.258Z" fill="url(#linear-gradient-8)"/>
          <path id="Path_498" data-name="Path 498" d="M4492.643,7277.361c8.158-4.476,19.042-1.949,23.776,6.3a21.379,21.379,0,0,1,2.9,8.292,40.98,40.98,0,0,0-5.914-8.661c-5.3-5.775-13.2-7.031-20.762-5.929Z" fill="#fff"/>
          <path id="Path_499" data-name="Path 499" d="M4592.153,7291.96c11.417-1.274,16.628,9.233,9.7,18.1a45.042,45.042,0,0,0,.814-6.173c.48-6.906-4.645-9.907-10.512-11.925Z" fill="#fff"/>
          <path id="Path_500" data-name="Path 500" d="M4590.348,7338.979a76.523,76.523,0,0,1-7.4,14.337c-2.822,4.639-6.611,8.986-11.791,11.026l-.152-.211c.824-1.13,1.737-2.069,2.561-3.111,2.481-3.064,5.14-5.924,7.7-8.923a107.31,107.31,0,0,0,8.844-13.224l.237.106Z" fill="#fff"/>
          <path id="Path_501" data-name="Path 501" d="M4553.877,7295.21a6.21,6.21,0,0,1,4.946,2.656,17.791,17.791,0,0,1,2.42,5.085,13.5,13.5,0,0,1,.436,3.628l-.258.035a16.334,16.334,0,0,0-3.321-5.91,17.777,17.777,0,0,1-4.347-5.266l.124-.228Z" fill="#fff"/>
        </g>
      </g>
    </g>
  </g>
</svg>
