<svg xmlns="http://www.w3.org/2000/svg" width="46.316" height="46.321" viewBox="0 0 46.316 46.321">
  <g id="Group_385" data-name="Group 385" transform="translate(-5074.701 -6022.999)">
    <path id="Path_638" data-name="Path 638" d="M5112,6046.157l4.917-4.917a10,10,0,0,0-14.141-14.143l-4.918,4.918-4.917-4.918a10,10,0,0,0-14.142,14.143l4.917,4.917-4.917,4.917a10,10,0,0,0,14.142,14.143l4.917-4.918,4.918,4.918a10,10,0,0,0,14.141-14.143Z" fill="#fff"/>
    <path id="Path_639" data-name="Path 639" d="M5112,6046.157l4.917-4.917a10,10,0,0,0-14.141-14.143l-4.918,4.918-4.917-4.918a10,10,0,0,0-14.142,14.143l4.917,4.917-4.917,4.917a10,10,0,0,0,14.142,14.143l4.917-4.918,4.918,4.918a10,10,0,0,0,14.141-14.143Z" fill="none" stroke="#fff" stroke-miterlimit="10" stroke-width="2.35"/>
    <path id="Path_640" data-name="Path 640" d="M5112,6046.157l4.917-4.917a10,10,0,0,0-14.141-14.143l-4.918,4.918-4.917-4.918a10,10,0,0,0-14.142,14.143l4.917,4.917-4.917,4.917a10,10,0,0,0,14.142,14.143l4.917-4.918,4.918,4.918a10,10,0,0,0,14.141-14.143Z" fill="none" stroke="#000" stroke-miterlimit="10" stroke-width="1"/>
  </g>
</svg>
