<svg xmlns="http://www.w3.org/2000/svg" width="48.946" height="35.625" viewBox="0 0 48.946 35.625">
    <g id="Group_611" data-name="Group 611" transform="translate(-7480.266 -1323.29)">
        <path class="fill-change"
              d="M7528.731,1338.8l-.034-.094a12.277,12.277,0,0,0-3.146-4.408,44.953,44.953,0,0,0-4.536-3.781c-1.66-1.214-3.326-2.325-4.951-3.3s-2.964-1.741-4-2.284a15.8,15.8,0,0,0-2.78-1.172,10.141,10.141,0,0,0-3-.469,9.045,9.045,0,0,0-6.025,2.184q-.543.463-1.042.977c-1.055-.618-1.965-1.128-2.712-1.52a15.886,15.886,0,0,0-2.78-1.172,10.134,10.134,0,0,0-3-.469,9.042,9.042,0,0,0-6.024,2.184,15.206,15.206,0,0,0-3.549,4.355,6.039,6.039,0,0,0,.986,7.572,34.877,34.877,0,0,0,3.032,2.706,11.3,11.3,0,0,0-2.663,1.871,7.063,7.063,0,0,0-2.212,5.331,14.7,14.7,0,0,0,2.4,8.007c1.685,2.388,4.495,3.6,8.354,3.6a21.864,21.864,0,0,0,8.239-1.775q.249-.1.5-.209a10.762,10.762,0,0,0,6.814,1.984,21.865,21.865,0,0,0,8.24-1.775,31.7,31.7,0,0,0,7.575-4.349,20.624,20.624,0,0,0,5.4-6.145A9.416,9.416,0,0,0,7528.731,1338.8Z"
              fill="#fff"/>
        <path
              d="M7502.721,1338.483a32.06,32.06,0,0,1-3.254-2.854,3.54,3.54,0,0,1-.555-4.6,12.63,12.63,0,0,1,2.974-3.646,6.576,6.576,0,0,1,4.4-1.588,7.651,7.651,0,0,1,2.259.357,13.312,13.312,0,0,1,2.342.99q1.51.8,3.886,2.221t4.761,3.177a42.075,42.075,0,0,1,4.283,3.568,10,10,0,0,1,2.539,3.491,6.989,6.989,0,0,1-.714,5.832,18.055,18.055,0,0,1-4.761,5.393,29.044,29.044,0,0,1-6.981,4.007,19.327,19.327,0,0,1-7.3,1.588q-4.526,0-6.31-2.539a12.226,12.226,0,0,1-1.941-6.663,4.479,4.479,0,0,1,1.429-3.413,8.9,8.9,0,0,1,3.331-1.984c.53-.16,1.029-.3,1.507-.435s1-.28,1.588-.439Q7504.385,1339.753,7502.721,1338.483Z"/>
        <path
              d="M7505.536,1338.561c.663.426,1.348.873,2.062,1.351s1.347.926,1.9,1.347.81.741.758.952a.625.625,0,0,1-.637.477,3.619,3.619,0,0,1-1.308-.357,2.609,2.609,0,0,0-2.023.121,12.094,12.094,0,0,1-1.589.512,12.738,12.738,0,0,0-1.584.516,4.365,4.365,0,0,0-.753.4,4.239,4.239,0,0,1-.757.4,3.248,3.248,0,0,0-1.666,3.331q.239,1.11.4,2.221a9.59,9.59,0,0,0,.555,2.143,4.7,4.7,0,0,0,2.26,2.26,8.229,8.229,0,0,0,3.452.672,17.864,17.864,0,0,0,6.585-1.425,26.426,26.426,0,0,0,6.427-3.65,18.689,18.689,0,0,0,4.48-4.842,5.34,5.34,0,0,0,.676-5,8.1,8.1,0,0,0-2.423-3.173,48.462,48.462,0,0,0-4.283-3.413q-2.336-1.665-4.679-3.013t-3.611-2.062a5.439,5.439,0,0,0-1.747-.753,7.466,7.466,0,0,0-1.666-.2,5.4,5.4,0,0,0-3.607,1.309,10.7,10.7,0,0,0-2.578,3.292,2,2,0,0,0,.4,2.617q.872.872,1.786,1.627c.607.5,1.227.99,1.864,1.468C7504.439,1337.85,7504.873,1338.139,7505.536,1338.561Z"
              fill="#fc3"/>
        <path
              d="M7487.167,1338.483a31.951,31.951,0,0,1-3.254-2.854,3.537,3.537,0,0,1-.555-4.6,12.638,12.638,0,0,1,2.974-3.646,6.575,6.575,0,0,1,4.4-1.588,7.66,7.66,0,0,1,2.26.357,13.331,13.331,0,0,1,2.341.99q1.51.8,3.887,2.221t4.76,3.177a41.923,41.923,0,0,1,4.283,3.568,9.981,9.981,0,0,1,2.539,3.491,6.989,6.989,0,0,1-.714,5.832,18.056,18.056,0,0,1-4.76,5.393,29.051,29.051,0,0,1-6.982,4.007,19.327,19.327,0,0,1-7.3,1.588q-4.526,0-6.309-2.539a12.23,12.23,0,0,1-1.942-6.663,4.482,4.482,0,0,1,1.429-3.413,8.9,8.9,0,0,1,3.332-1.984c.529-.16,1.028-.3,1.506-.435s1-.28,1.589-.439Q7488.829,1339.753,7487.167,1338.483Z"/>
        <path
              d="M7489.982,1338.561c.663.426,1.347.873,2.061,1.351s1.348.926,1.9,1.347.809.741.757.952a.625.625,0,0,1-.637.477,3.626,3.626,0,0,1-1.308-.357,2.609,2.609,0,0,0-2.023.121,12.058,12.058,0,0,1-1.588.512,12.712,12.712,0,0,0-1.584.516,4.307,4.307,0,0,0-.753.4,4.235,4.235,0,0,1-.758.4,3.248,3.248,0,0,0-1.666,3.331q.24,1.11.4,2.221a9.563,9.563,0,0,0,.555,2.143,4.7,4.7,0,0,0,2.26,2.26,8.223,8.223,0,0,0,3.451.672,17.869,17.869,0,0,0,6.586-1.425,26.407,26.407,0,0,0,6.426-3.65,18.693,18.693,0,0,0,4.481-4.842,5.347,5.347,0,0,0,.676-5,8.119,8.119,0,0,0-2.424-3.173,48.435,48.435,0,0,0-4.282-3.413q-2.339-1.665-4.679-3.013c-1.563-.9-2.763-1.588-3.611-2.062a5.441,5.441,0,0,0-1.748-.753,7.459,7.459,0,0,0-1.666-.2,5.4,5.4,0,0,0-3.606,1.309,10.7,10.7,0,0,0-2.579,3.292,2.005,2.005,0,0,0,.4,2.617q.872.872,1.787,1.627c.606.5,1.226.99,1.863,1.468C7488.884,1337.85,7489.319,1338.139,7489.982,1338.561Z"
              fill="#fc3"/>
    </g>
</svg>
