<svg xmlns="http://www.w3.org/2000/svg" width="1403.979" height="440.696" viewBox="0 0 1403.979 440.696">
  <g id="bottom-teeth" transform="translate(-6093.577 -4835.46)">
    <g id="Group_4464" data-name="Group 4464">
      <g id="Path_12298" data-name="Path 12298" fill="#ffd66e" stroke-miterlimit="10">
        <path d="M 6936.9775390625 5261.15576171875 C 6936.9697265625 5261.15576171875 6936.96337890625 5261.15576171875 6936.95556640625 5261.15576171875 C 6890.8779296875 5261.14990234375 6855.59814453125 5241.24755859375 6837.615234375 5205.115234375 C 6816.083984375 5161.85400390625 6822.55078125 5099.1826171875 6852.6572265625 5059.33642578125 C 6892.55419921875 5006.53173828125 6875.37353515625 4901.611328125 6875.19580078125 4900.5576171875 L 6870.44580078125 4872.47314453125 L 6896.2890625 4884.4365234375 C 6899.0712890625 4885.72509765625 6964.9580078125 4917.05517578125 7011.1552734375 5008.76904296875 C 7044.041015625 5074.0556640625 7047.9990234375 5162.71142578125 7020.3623046875 5214.990234375 C 7006.7158203125 5240.8046875 6986.4267578125 5256.18017578125 6961.689453125 5259.4541015625 C 6953.15869140625 5260.58349609375 6944.84375 5261.15576171875 6936.9775390625 5261.15576171875 Z" stroke="none"/>
        <path d="M 6936.95751953125 5246.15576171875 C 6944.09912109375 5246.15673828125 6951.66845703125 5245.64990234375 6959.72119140625 5244.583984375 C 7029.88916015625 5235.296875 7042.13720703125 5103.6201171875 6997.7587890625 5015.51708984375 C 6953.380859375 4927.4150390625 6889.98388671875 4898.046875 6889.98388671875 4898.046875 C 6889.98388671875 4898.046875 6909.0029296875 5009.64404296875 6864.625 5068.37890625 C 6822.93115234375 5123.56103515625 6826.025390625 5246.14111328125 6936.95751953125 5246.15576171875 M 6936.9775390625 5276.15576171875 L 6936.9736328125 5276.15576171875 C 6884.89599609375 5276.14892578125 6844.84130859375 5253.291015625 6824.18701171875 5211.7919921875 C 6800.29736328125 5163.7919921875 6807.39208984375 5094.36328125 6840.68896484375 5050.2939453125 C 6870.5078125 5010.828125 6865.03076171875 4930.62353515625 6860.40380859375 4903.0498046875 L 6850.9921875 4846.95703125 L 6902.59375 4870.82568359375 C 6905.56982421875 4872.2041015625 6976.03076171875 4905.69384765625 7024.5517578125 5002.021484375 C 7059.994140625 5072.38427734375 7063.8095703125 5164.89892578125 7033.62353515625 5222.00048828125 C 7017.83837890625 5251.85986328125 6992.99072265625 5270.4423828125 6963.65771484375 5274.32470703125 C 6954.47607421875 5275.53955078125 6945.5 5276.15576171875 6936.9775390625 5276.15576171875 Z" stroke="none" fill="#000"/>
      </g>
      <path id="Path_12299" data-name="Path 12299" d="M6932.61,5189.7c47.4,0,60.323-120.645,20.108-180.969C6952.718,5008.727,6885.692,5189.7,6932.61,5189.7Z" fill="#fffdf8"/>
      <g id="Group_4462" data-name="Group 4462">
        <g id="Path_12300" data-name="Path 12300" fill="#ffd66e" stroke-miterlimit="10">
          <path d="M 7156.63330078125 5192.7421875 C 7156.63134765625 5192.7421875 7156.630859375 5192.7421875 7156.62890625 5192.7421875 C 7126.79541015625 5192.7412109375 7102.2177734375 5181.8515625 7087.42333984375 5162.07861328125 C 7075.28515625 5145.85498046875 7063.923828125 5115.94580078125 7078.734375 5065.58935546875 C 7103.82421875 4980.28271484375 7094.0400390625 4883.5869140625 7093.9384765625 4882.6201171875 L 7091.37353515625 4858.25439453125 L 7114.24072265625 4867.0498046875 C 7117.2373046875 4868.2021484375 7188.13330078125 4896.2255859375 7232.20849609375 4978.86376953125 C 7262.294921875 5035.27734375 7270.58740234375 5096.39013671875 7253.84912109375 5138.35302734375 C 7244.80810546875 5161.01953125 7228.94873046875 5176.6943359375 7207.98583984375 5183.68212890625 C 7189.9501953125 5189.69384765625 7172.671875 5192.7421875 7156.63330078125 5192.7421875 Z" stroke="none"/>
          <path d="M 7156.62939453125 5177.74267578125 C 7170.82470703125 5177.7431640625 7186.5595703125 5175.0126953125 7203.2421875 5169.4521484375 C 7256.81982421875 5151.591796875 7260.921875 5064.578125 7218.97314453125 4985.9228515625 C 7177.02294921875 4907.26806640625 7108.85595703125 4881.0498046875 7108.85595703125 4881.0498046875 C 7108.85595703125 4881.0498046875 7119.3427734375 4980.67919921875 7093.125 5069.82177734375 C 7072.4677734375 5140.05712890625 7103.8974609375 5177.74072265625 7156.62939453125 5177.74267578125 M 7156.6328125 5207.74267578125 L 7156.6318359375 5207.74267578125 C 7121.95361328125 5207.7412109375 7093.109375 5194.71533203125 7075.4130859375 5171.06396484375 C 7061.22216796875 5152.09716796875 7047.7822265625 5117.66796875 7064.34423828125 5061.35693359375 C 7088.4951171875 4979.24169921875 7079.11572265625 4885.10791015625 7079.0185546875 4884.16650390625 L 7073.9755859375 4835.5146484375 L 7119.62548828125 4853.04931640625 C 7122.8349609375 4854.2841796875 7198.76708984375 4884.28857421875 7245.443359375 4971.80517578125 C 7277.55224609375 5032.009765625 7286.11181640625 5097.95654296875 7267.78173828125 5143.91015625 C 7257.05224609375 5170.8095703125 7238.015625 5189.4833984375 7212.7294921875 5197.91259765625 C 7193.16064453125 5204.435546875 7174.287109375 5207.74267578125 7156.6328125 5207.74267578125 Z" stroke="none" fill="#000"/>
        </g>
        <path id="Path_12301" data-name="Path 12301" d="M7179.451,5118.041c42.132-4.681-13.405-140.754-13.405-140.754S7119.128,5124.743,7179.451,5118.041Z" fill="#fffdf8"/>
      </g>
      <g id="Group_4463" data-name="Group 4463">
        <g id="Path_12302" data-name="Path 12302" fill="#ffd66e" stroke-miterlimit="10">
          <path d="M 7376.89794921875 5237.43408203125 C 7376.89599609375 5237.43408203125 7376.896484375 5237.43408203125 7376.89453125 5237.43408203125 C 7347.06103515625 5237.43310546875 7322.48388671875 5226.54345703125 7307.689453125 5206.7705078125 C 7295.55078125 5190.546875 7284.18994140625 5160.6376953125 7299.00048828125 5110.28076171875 C 7324.09130859375 5024.974609375 7314.30615234375 4928.279296875 7314.20458984375 4927.3125 L 7311.6396484375 4902.947265625 L 7334.5068359375 4911.7421875 C 7337.5029296875 4912.89453125 7408.400390625 4940.91748046875 7452.4755859375 5023.55615234375 C 7482.56201171875 5079.9697265625 7490.85400390625 5141.08203125 7474.115234375 5183.044921875 C 7465.07373046875 5205.71142578125 7449.21435546875 5221.3857421875 7428.2509765625 5228.37353515625 C 7410.21630859375 5234.38525390625 7392.93701171875 5237.43408203125 7376.89794921875 5237.43408203125 Z" stroke="none"/>
          <path d="M 7376.89453125 5222.43408203125 C 7391.08984375 5222.43408203125 7406.82568359375 5219.7041015625 7423.5078125 5214.14306640625 C 7477.0859375 5196.2841796875 7481.18896484375 5109.27001953125 7439.240234375 5030.615234375 C 7397.2900390625 4951.9599609375 7329.1220703125 4925.7421875 7329.1220703125 4925.7421875 C 7329.1220703125 4925.7421875 7339.60986328125 5025.37109375 7313.39111328125 5114.51318359375 C 7292.73388671875 5184.7490234375 7324.1630859375 5222.4326171875 7376.89453125 5222.43408203125 M 7376.8984375 5252.43408203125 L 7376.8974609375 5252.43408203125 C 7342.21923828125 5252.43310546875 7313.375 5239.4072265625 7295.67919921875 5215.755859375 C 7281.48779296875 5196.78955078125 7268.0478515625 5162.35986328125 7284.6103515625 5106.04833984375 C 7308.8720703125 5023.55859375 7299.3857421875 4929.8203125 7299.287109375 4928.8828125 L 7294.1572265625 4880.15185546875 L 7339.89111328125 4897.74169921875 C 7343.10107421875 4898.97607421875 7419.0341796875 4928.98046875 7465.71044921875 5016.4970703125 C 7497.8193359375 5076.70166015625 7506.37841796875 5142.6484375 7488.0478515625 5188.6025390625 C 7477.31787109375 5215.501953125 7458.28076171875 5234.17529296875 7432.994140625 5242.603515625 C 7413.4267578125 5249.12646484375 7394.552734375 5252.43408203125 7376.8984375 5252.43408203125 Z" stroke="none" fill="#000"/>
        </g>
        <path id="Path_12303" data-name="Path 12303" d="M7399.718,5162.733c42.131-4.682-13.4-140.754-13.4-140.754S7339.4,5169.435,7399.718,5162.733Z" fill="#fffdf8"/>
      </g>
    </g>
    <g id="Group_4467" data-name="Group 4467">
      <g id="Path_12304" data-name="Path 12304" fill="#ffd66e" stroke-miterlimit="10">
        <path d="M 6654.1767578125 5261.15576171875 C 6646.296875 5261.15576171875 6637.97607421875 5260.58349609375 6629.44482421875 5259.45458984375 C 6604.70751953125 5256.18017578125 6584.41845703125 5240.8046875 6570.771484375 5214.98974609375 C 6543.134765625 5162.71142578125 6547.09228515625 5074.0556640625 6579.9775390625 5008.76904296875 C 6626.1748046875 4917.05517578125 6692.0615234375 4885.72509765625 6694.84375 4884.4365234375 L 6720.68896484375 4872.4638671875 L 6715.9375 4900.5576171875 C 6715.75927734375 4901.611328125 6698.57861328125 5006.53173828125 6738.4755859375 5059.33642578125 C 6768.58544921875 5099.18701171875 6775.05078125 5161.86376953125 6753.5146484375 5205.12890625 C 6735.52978515625 5241.25830078125 6700.2509765625 5261.15576171875 6654.1767578125 5261.15576171875 Z" stroke="none"/>
        <path d="M 6654.17626953125 5246.15576171875 C 6765.107421875 5246.15576171875 6768.2021484375 5123.56103515625 6726.5078125 5068.37890625 C 6682.1298828125 5009.64404296875 6701.14892578125 4898.046875 6701.14892578125 4898.046875 C 6701.14892578125 4898.046875 6637.751953125 4927.4150390625 6593.3740234375 5015.51708984375 C 6548.99609375 5103.6201171875 6561.2451171875 5235.296875 6631.4130859375 5244.583984375 C 6639.4658203125 5245.64990234375 6647.03466796875 5246.15576171875 6654.17626953125 5246.15576171875 M 6654.17626953125 5276.15576171875 C 6645.64111328125 5276.15576171875 6636.658203125 5275.53955078125 6627.47705078125 5274.32470703125 C 6598.1435546875 5270.4423828125 6573.29541015625 5251.85986328125 6557.5107421875 5222.00048828125 C 6527.32421875 5164.89892578125 6531.138671875 5072.38427734375 6566.5810546875 5002.021484375 C 6615.10205078125 4905.69384765625 6685.56298828125 4872.2041015625 6688.5390625 4870.82568359375 L 6740.3076171875 4846.84423828125 L 6730.72265625 4903.0869140625 C 6726.10205078125 4930.62353515625 6720.625 5010.828125 6750.44384765625 5050.2939453125 C 6783.74609375 5094.369140625 6790.8388671875 5163.80712890625 6766.94287109375 5211.81298828125 C 6746.2890625 5253.30517578125 6706.2412109375 5276.15576171875 6654.17626953125 5276.15576171875 Z" stroke="none" fill="#000"/>
      </g>
      <path id="Path_12305" data-name="Path 12305" d="M6658.523,5189.7c-47.394,0-60.323-120.645-20.108-180.969C6638.415,5008.727,6705.441,5189.7,6658.523,5189.7Z" fill="#fffdf8"/>
      <g id="Group_4465" data-name="Group 4465">
        <g id="Path_12306" data-name="Path 12306" fill="#ffd66e" stroke-miterlimit="10">
          <path d="M 6434.50390625 5192.7421875 C 6418.462890625 5192.7421875 6401.18408203125 5189.6943359375 6383.14892578125 5183.6826171875 C 6362.18505859375 5176.6943359375 6346.32568359375 5161.01904296875 6337.2841796875 5138.35205078125 C 6320.5458984375 5096.38916015625 6328.83837890625 5035.27685546875 6358.9248046875 4978.8642578125 C 6402.99951171875 4896.2255859375 6473.896484375 4868.2021484375 6476.89306640625 4867.0498046875 L 6499.740234375 4858.26220703125 L 6497.19580078125 4882.6142578125 C 6497.0947265625 4883.5830078125 6487.36474609375 4980.4736328125 6512.3994140625 5065.58935546875 C 6527.21044921875 5115.94677734375 6515.8486328125 5145.8564453125 6503.70947265625 5162.080078125 C 6488.91455078125 5181.85302734375 6464.3369140625 5192.7421875 6434.50390625 5192.7421875 Z" stroke="none"/>
          <path d="M 6434.50390625 5177.74267578125 C 6487.23583984375 5177.74267578125 6518.666015625 5140.05712890625 6498.0087890625 5069.82177734375 C 6471.7900390625 4980.67919921875 6482.27783203125 4881.0498046875 6482.27783203125 4881.0498046875 C 6482.27783203125 4881.0498046875 6414.10986328125 4907.26806640625 6372.16015625 4985.9228515625 C 6330.2109375 5064.578125 6334.31396484375 5151.591796875 6387.89208984375 5169.4521484375 C 6404.57421875 5175.0126953125 6420.30908203125 5177.74267578125 6434.50390625 5177.74267578125 M 6434.50390625 5207.74267578125 C 6416.84765625 5207.74267578125 6397.97314453125 5204.435546875 6378.4052734375 5197.91259765625 C 6353.11865234375 5189.4833984375 6334.08154296875 5170.80908203125 6323.3515625 5143.9091796875 C 6305.02197265625 5097.95556640625 6313.5810546875 5032.0087890625 6345.689453125 4971.80517578125 C 6392.36572265625 4884.28857421875 6468.298828125 4854.28369140625 6471.50830078125 4853.04931640625 L 6517.24267578125 4835.45947265625 L 6512.11279296875 4884.1904296875 C 6512.01806640625 4885.1083984375 6502.63818359375 4979.24169921875 6526.78955078125 5061.3564453125 C 6543.3525390625 5117.66943359375 6529.91162109375 5152.099609375 6515.7197265625 5171.06640625 C 6498.0234375 5194.71728515625 6469.18017578125 5207.74267578125 6434.50390625 5207.74267578125 Z" stroke="none" fill="#000"/>
        </g>
        <path id="Path_12307" data-name="Path 12307" d="M6411.682,5118.041c-42.131-4.681,13.406-140.754,13.406-140.754S6472,5124.743,6411.682,5118.041Z" fill="#fffdf8"/>
      </g>
      <g id="Group_4466" data-name="Group 4466">
        <g id="Path_12308" data-name="Path 12308" fill="#ffd66e" stroke-miterlimit="10">
          <path d="M 6214.23779296875 5227.43359375 C 6198.1962890625 5227.43359375 6180.91748046875 5224.38525390625 6162.8818359375 5218.37353515625 C 6141.91845703125 5211.38525390625 6126.05908203125 5195.7109375 6117.017578125 5173.04443359375 C 6100.279296875 5131.0810546875 6108.57177734375 5069.96826171875 6138.65869140625 5013.55517578125 C 6182.732421875 4930.91650390625 6253.63037109375 4902.8935546875 6256.62646484375 4901.7412109375 L 6279.4736328125 4892.9541015625 L 6276.9296875 4917.3056640625 C 6276.828125 4918.2744140625 6267.0986328125 5015.16455078125 6292.1328125 5100.28076171875 C 6306.943359375 5150.638671875 6295.58203125 5180.54833984375 6283.44287109375 5196.77197265625 C 6268.6484375 5216.54443359375 6244.07080078125 5227.43359375 6214.23779296875 5227.43359375 Z" stroke="none"/>
          <path d="M 6214.23779296875 5212.43359375 C 6266.9697265625 5212.43359375 6298.3994140625 5174.7490234375 6277.7421875 5104.51318359375 C 6251.52392578125 5015.3701171875 6262.01123046875 4915.7412109375 6262.01123046875 4915.7412109375 C 6262.01123046875 4915.7412109375 6193.8427734375 4941.958984375 6151.89404296875 5020.61376953125 C 6109.94482421875 5099.26904296875 6114.046875 5186.283203125 6167.625 5204.14306640625 C 6184.3076171875 5209.70361328125 6200.04296875 5212.43359375 6214.23779296875 5212.43359375 M 6214.23779296875 5242.43359375 C 6196.58154296875 5242.43359375 6177.70703125 5239.12646484375 6158.138671875 5232.603515625 C 6132.85205078125 5224.17431640625 6113.81494140625 5205.5009765625 6103.08544921875 5178.6015625 C 6084.7548828125 5132.6474609375 6093.314453125 5066.70068359375 6125.42333984375 5006.49609375 C 6172.0986328125 4918.9794921875 6248.03271484375 4888.97509765625 6251.2421875 4887.74072265625 L 6296.97607421875 4870.1513671875 L 6291.84619140625 4918.8818359375 C 6291.75146484375 4919.79931640625 6282.37158203125 5013.9326171875 6306.52294921875 5096.04833984375 C 6323.08544921875 5152.361328125 6309.64501953125 5186.79150390625 6295.453125 5205.75830078125 C 6277.7568359375 5229.40869140625 6248.9140625 5242.43359375 6214.23779296875 5242.43359375 Z" stroke="none" fill="#000"/>
        </g>
        <path id="Path_12309" data-name="Path 12309" d="M6191.416,5152.732c-42.132-4.681,13.4-140.753,13.4-140.753S6251.738,5159.435,6191.416,5152.732Z" fill="#fffdf8"/>
      </g>
    </g>
  </g>
</svg>
