<svg xmlns="http://www.w3.org/2000/svg"
     xmlns:xlink="http://www.w3.org/1999/xlink" width="31.289" height="42.964" viewBox="0 0 31.289 42.964">
    <defs>
        <linearGradient id="linear-gradient" x1="0.5" x2="0.5" y2="1" gradientUnits="objectBoundingBox">
            <stop offset="0" stop-color="#00ffd5"/>
            <stop offset="1" stop-color="#01cb2d"/>
        </linearGradient>
    </defs>
    <g transform="translate(-4620.8 -850.445)">
        <path class="filling"
              d="M4638.523,892.982l.082-.03a10.788,10.788,0,0,0,3.862-2.769,39.408,39.408,0,0,0,3.308-3.988c1.063-1.458,2.034-2.922,2.889-4.35s1.521-2.6,2-3.512a13.811,13.811,0,0,0,1.024-2.442,8.891,8.891,0,0,0,.406-2.63,7.937,7.937,0,0,0-1.929-5.282q-.406-.476-.859-.913c.541-.927.986-1.726,1.329-2.383a13.864,13.864,0,0,0,1.023-2.441,8.887,8.887,0,0,0,.406-2.63,7.939,7.939,0,0,0-1.928-5.282,13.389,13.389,0,0,0-3.828-3.105,5.3,5.3,0,0,0-6.643.88,30.565,30.565,0,0,0-2.368,2.665,9.914,9.914,0,0,0-1.647-2.332,6.2,6.2,0,0,0-4.682-1.932,12.909,12.909,0,0,0-7.021,2.117c-2.092,1.483-3.149,3.952-3.142,7.337a19.193,19.193,0,0,0,1.573,7.226c.059.146.121.292.184.44a9.443,9.443,0,0,0-1.727,5.983,19.2,19.2,0,0,0,1.573,7.226,27.808,27.808,0,0,0,3.831,6.638,18.093,18.093,0,0,0,5.4,4.731A8.268,8.268,0,0,0,4638.523,892.982Z"
        />
        <path
                d="M4638.751,870.159a28.035,28.035,0,0,1,2.5-2.861,3.107,3.107,0,0,1,4.04-.5,11.082,11.082,0,0,1,3.205,2.6,5.772,5.772,0,0,1,1.4,3.861,6.719,6.719,0,0,1-.309,1.983,11.723,11.723,0,0,1-.864,2.056q-.7,1.328-1.942,3.415T4644,884.9a36.936,36.936,0,0,1-3.122,3.765,8.764,8.764,0,0,1-3.059,2.235,6.126,6.126,0,0,1-5.118-.616,15.832,15.832,0,0,1-4.742-4.166,25.48,25.48,0,0,1-3.529-6.119,16.948,16.948,0,0,1-1.408-6.4q-.009-3.972,2.216-5.542a10.732,10.732,0,0,1,5.843-1.716,3.936,3.936,0,0,1,3,1.247,7.806,7.806,0,0,1,1.747,2.92c.141.464.266.9.384,1.321s.248.879.389,1.393Q4637.639,871.621,4638.751,870.159Z"/>
        <path
                d="M4638.688,872.629c-.373.583-.764,1.184-1.182,1.812s-.809,1.184-1.178,1.672-.649.711-.834.666a.548.548,0,0,1-.42-.558,3.183,3.183,0,0,1,.311-1.149,2.29,2.29,0,0,0-.11-1.775,10.4,10.4,0,0,1-.452-1.392,11.064,11.064,0,0,0-.457-1.389,3.772,3.772,0,0,0-.348-.66,3.652,3.652,0,0,1-.353-.664,2.85,2.85,0,0,0-2.927-1.455q-.973.211-1.948.355a8.414,8.414,0,0,0-1.879.491,4.124,4.124,0,0,0-1.979,1.988,7.211,7.211,0,0,0-.582,3.03,15.682,15.682,0,0,0,1.262,5.776,23.239,23.239,0,0,0,3.215,5.631,16.386,16.386,0,0,0,4.258,3.923,4.69,4.69,0,0,0,4.386.583,7.118,7.118,0,0,0,2.779-2.132,42.694,42.694,0,0,0,2.987-3.765q1.457-2.054,2.634-4.111t1.8-3.173a4.76,4.76,0,0,0,.658-1.534,6.553,6.553,0,0,0,.171-1.462,4.746,4.746,0,0,0-1.155-3.163,9.4,9.4,0,0,0-2.9-2.256,1.757,1.757,0,0,0-2.295.353q-.764.766-1.424,1.57c-.441.534-.867,1.078-1.285,1.638C4639.309,871.665,4639.057,872.047,4638.688,872.629Z"
                fill="url(#linear-gradient)"/>
        <path
                d="M4638.721,856.51a28.118,28.118,0,0,1,2.5-2.86,3.106,3.106,0,0,1,4.04-.5,11.077,11.077,0,0,1,3.205,2.6,5.772,5.772,0,0,1,1.4,3.861,6.689,6.689,0,0,1-.309,1.984,11.72,11.72,0,0,1-.864,2.056q-.694,1.328-1.941,3.415t-2.779,4.183a36.936,36.936,0,0,1-3.122,3.765,8.8,8.8,0,0,1-3.058,2.235,6.137,6.137,0,0,1-5.119-.616,15.852,15.852,0,0,1-4.742-4.167,25.494,25.494,0,0,1-3.529-6.118,16.974,16.974,0,0,1-1.408-6.4q-.01-3.971,2.216-5.541a10.717,10.717,0,0,1,5.843-1.716,3.928,3.928,0,0,1,3,1.247,7.81,7.81,0,0,1,1.747,2.919c.141.465.267.9.385,1.321s.247.88.388,1.393Q4637.609,857.973,4638.721,856.51Z"/>
        <path
                d="M4638.658,858.981c-.373.582-.764,1.183-1.182,1.811s-.809,1.184-1.178,1.672-.648.712-.834.667a.55.55,0,0,1-.42-.558,3.166,3.166,0,0,1,.311-1.149,2.292,2.292,0,0,0-.11-1.775,10.435,10.435,0,0,1-.452-1.393,11.264,11.264,0,0,0-.456-1.388,3.823,3.823,0,0,0-.349-.661,3.779,3.779,0,0,1-.353-.664,2.852,2.852,0,0,0-2.926-1.455q-.975.211-1.948.356a8.42,8.42,0,0,0-1.88.491,4.132,4.132,0,0,0-1.979,1.987,7.222,7.222,0,0,0-.582,3.03,15.676,15.676,0,0,0,1.263,5.776,23.181,23.181,0,0,0,3.215,5.632,16.386,16.386,0,0,0,4.257,3.922,4.686,4.686,0,0,0,4.386.583,7.109,7.109,0,0,0,2.779-2.132,42.7,42.7,0,0,0,2.987-3.764q1.457-2.055,2.634-4.111t1.8-3.173a4.793,4.793,0,0,0,.657-1.535,6.513,6.513,0,0,0,.171-1.462,4.744,4.744,0,0,0-1.155-3.162,9.376,9.376,0,0,0-2.9-2.256,1.758,1.758,0,0,0-2.295.352q-.763.766-1.424,1.571c-.441.533-.867,1.078-1.285,1.638C4639.279,858.016,4639.027,858.4,4638.658,858.981Z"
                fill="url(#linear-gradient)" style="mix-blend-mode: screen;isolation: isolate"/>
    </g>
</svg>
