<svg xmlns="http://www.w3.org/2000/svg" xmlns:xlink="http://www.w3.org/1999/xlink" width="1665" height="1453.727" viewBox="0 0 1665 1453.727">
  <defs>
    <clipPath id="clip-path">
      <path id="Path_12310" data-name="Path 12310" d="M6895.932,3912.723c-73.876,0-150.551,3.594-228.641,10.912-258.516,24.226-475.4,84.3-566.013,156.781-155.281,124.207-140.389,275.533-72.322,421.878,29.333,63.066,57.039,122.634,63.734,176.347,10.961,87.952-25.686,166.729-61.127,242.911-62.963,135.335-61.846,252.215,155.212,391.542,88.678,56.924,222.492,60.966,318.146,45.778,35.672-5.665,71.783-13.066,106.7-20.222,71.84-14.722,146.123-29.946,221.845-31.268,85.555-1.48,170.009,14.793,251.634,30.547,31.262,6.035,63.589,12.274,95.4,17.392,120.062,19.309,214.649,8.275,306.671-35.78,123.447-59.109,162.234-188.37,157.367-289.628-3.15-65.622-20.372-131.544-37.027-195.294-12.066-46.2-24.546-93.958-31.78-141.729-16.121-106.425-6.278-217.4,28.463-320.911,2.607-7.769,5.361-15.55,8.119-23.341,13.2-37.277,26.841-75.827,23.476-113.714-9.909-111.536-94.171-196.51-250.447-252.559C7257.807,3936.622,7086.277,3912.723,6895.932,3912.723Z" fill="#720343" stroke="#880049" stroke-miterlimit="10" stroke-width="60"/>
    </clipPath>
  </defs>
  <g id="Group_4470" data-name="Group 4470" transform="translate(-5979.944 -3912.723)" clip-path="url(#clip-path)">
    <g id="Group_4469" data-name="Group 4469">
      <g id="Group_4454" data-name="Group 4454">
        <path id="Path_12282" data-name="Path 12282" d="M6813.62,4196.4c471.332,0,797.936,115.058,990.378,257.28,2.331-13.85.706-86.923-.621-100.691-11.917-123.611-110.541-379.427-298.488-441.544-153.388-50.695-478.455-80.587-707.375-80.587-88.848,0-256.03-.117-349.946,7.993-310.907,26.849-438.924,134.938-547.9,215.265-89.672,66.1-73.941,355.547-84.816,431.564C5968.889,4363.375,6336.153,4196.4,6813.62,4196.4Z" fill="#bf234c"/>
        <path id="Path_12283" data-name="Path 12283" d="M5787.681,5073.6c5.83,102.972,70.36,204.467,239.08,317.239,111.054,74.232,278.633,79.5,398.424,59.7,44.674-7.389,89.9-17.039,133.629-26.372,89.969-19.2,183-39.051,277.825-40.775,107.143-1.93,212.907,19.292,315.129,39.835,39.151,7.871,79.634,16.007,119.475,22.681,150.357,25.18,268.812,10.791,384.054-46.659,134.878-67.251,189.048-204.133,196.628-325.647Z" fill="#bf234c"/>
      </g>
      <path id="Path_12284" data-name="Path 12284" d="M7198.461,4376.06c73.239,88.922,90.037,215.557,101.125,334.343,6.515,69.8,11.917,142.218-9.338,208.455S7213.642,5043.626,7149.172,5042c-39.192-.989-74.843-23.145-111.809-37.346-126.272-48.513-265.3-3.578-391.153,46.211-52.781,20.881-106.372,42.883-162.483,45.493s-116.36-17.664-149.669-66.858c-27.878-41.17-32.821-95.069-35.88-146.1-7.728-128.914-8.23-264.87,47.653-378.859C6487.705,4215.153,6993.559,4127.281,7198.461,4376.06Z" fill="#560332"/>
      <path id="Path_12285" data-name="Path 12285" d="M6457.038,4551.813c-42.2,86.074-41.818,188.734-35.983,286.078,2.309,38.53,6.042,79.229,27.092,110.316,25.153,37.147,70.646,52.456,113.016,50.485s82.836-18.585,122.691-34.352c95.032-37.6,200.012-71.526,295.361-34.9,27.913,10.724,54.833,27.454,84.427,28.2,48.681,1.229,90.477-42.969,106.527-92.984s11.971-104.7,7.051-157.405c-8.373-89.7-21.057-185.318-76.36-252.463s-168.373-84.158-216.06-10.424c-21.589,33.38-25.206,76.694-42.222,113.07s-60.7,65.862-91.028,41.833c-23.457-18.587-23.166-55.7-24.769-87.234C6718.116,4341.586,6498.279,4467.7,6457.038,4551.813Z" fill="#380224"/>
      <g id="top-teeth">
        <g id="Group_4457" data-name="Group 4457">
          <g id="Path_12286" data-name="Path 12286" fill="#ffd66e" stroke-miterlimit="10">
            <path d="M 6720.728515625 4367.36279296875 L 6694.84375 4355.37158203125 C 6692.0615234375 4354.0830078125 6626.1748046875 4322.7529296875 6579.9775390625 4231.0390625 C 6547.09228515625 4165.75244140625 6543.134765625 4077.0966796875 6570.771484375 4024.81787109375 C 6584.41845703125 3999.00341796875 6604.70751953125 3983.6279296875 6629.44482421875 3980.353759765625 C 6637.97607421875 3979.224853515625 6646.296875 3978.65234375 6654.1767578125 3978.65234375 C 6700.2509765625 3978.65234375 6735.52978515625 3998.549560546875 6753.5146484375 4034.67919921875 C 6775.05078125 4077.94384765625 6768.58544921875 4140.62109375 6738.4755859375 4180.4716796875 C 6698.46875 4233.421875 6715.75634765625 4338.18896484375 6715.935546875 4339.2412109375 L 6720.728515625 4367.36279296875 Z" stroke="none"/>
            <path d="M 6654.1767578125 3993.65234375 C 6647.03466796875 3993.6513671875 6639.4658203125 3994.158203125 6631.4130859375 3995.22412109375 C 6561.2451171875 4004.5107421875 6548.99609375 4136.18798828125 6593.3740234375 4224.291015625 C 6637.751953125 4312.39306640625 6701.14892578125 4341.76123046875 6701.14892578125 4341.76123046875 C 6701.14892578125 4341.76123046875 6682.1298828125 4230.1640625 6726.5078125 4171.42919921875 C 6768.2021484375 4116.24658203125 6765.107421875 3993.66650390625 6654.1767578125 3993.65234375 M 6654.15673828125 3963.65234375 L 6654.16064453125 3963.65234375 C 6706.2373046875 3963.6591796875 6746.2919921875 3986.51708984375 6766.9462890625 4028.01611328125 C 6790.83544921875 4076.015625 6783.7412109375 4145.44482421875 6750.44384765625 4189.51416015625 C 6720.4501953125 4229.21142578125 6726.03857421875 4309.236328125 6730.72265625 4336.72119140625 L 6740.3076171875 4392.9638671875 L 6688.5390625 4368.982421875 C 6685.56298828125 4367.603515625 6615.10205078125 4334.1142578125 6566.5810546875 4237.787109375 C 6531.138671875 4167.42333984375 6527.32421875 4074.90869140625 6557.5107421875 4017.80712890625 C 6573.2958984375 3987.94775390625 6598.1435546875 3969.36572265625 6627.47705078125 3965.4833984375 C 6636.658203125 3964.2685546875 6645.63427734375 3963.65234375 6654.15673828125 3963.65234375 Z" stroke="none" fill="#000"/>
          </g>
          <path id="Path_12287" data-name="Path 12287" d="M6658.523,4050.111c-47.394,0-60.323,120.646-20.108,180.97C6638.415,4231.081,6705.441,4050.111,6658.523,4050.111Z" fill="#fffdf8"/>
          <g id="Group_4455" data-name="Group 4455">
            <g id="Path_12288" data-name="Path 12288" fill="#ffd66e" stroke-miterlimit="10">
              <path d="M 6499.76025390625 4381.552734375 L 6476.89306640625 4372.7578125 C 6473.89697265625 4371.60546875 6402.99951171875 4343.58251953125 6358.9248046875 4260.943359375 C 6328.83837890625 4204.53125 6320.5458984375 4143.4189453125 6337.2841796875 4101.4560546875 C 6346.32568359375 4078.788818359375 6362.18505859375 4063.11376953125 6383.1484375 4056.125732421875 C 6401.1845703125 4050.11376953125 6418.46337890625 4047.0654296875 6434.5048828125 4047.0654296875 C 6464.337890625 4047.0654296875 6488.9150390625 4057.95458984375 6503.7099609375 4077.727294921875 C 6515.8486328125 4093.95068359375 6527.21044921875 4123.8603515625 6512.3994140625 4174.21826171875 C 6487.30859375 4259.5244140625 6497.09375 4356.220703125 6497.1953125 4357.1875 L 6499.76025390625 4381.552734375 Z" stroke="none"/>
              <path d="M 6434.50537109375 4062.0654296875 C 6420.31005859375 4062.06494140625 6404.57421875 4064.794921875 6387.89208984375 4070.35595703125 C 6334.31396484375 4088.2158203125 6330.2109375 4175.22998046875 6372.16015625 4253.884765625 C 6414.10986328125 4332.5400390625 6482.27783203125 4358.7578125 6482.27783203125 4358.7578125 C 6482.27783203125 4358.7578125 6471.7900390625 4259.1279296875 6498.0087890625 4169.98583984375 C 6518.666015625 4099.74951171875 6487.23681640625 4062.06689453125 6434.50537109375 4062.0654296875 M 6434.50244140625 4032.0654296875 L 6434.50341796875 4032.0654296875 C 6469.18115234375 4032.06640625 6498.02490234375 4045.091796875 6515.720703125 4068.74267578125 C 6529.912109375 4087.708984375 6543.35205078125 4122.138671875 6526.78955078125 4178.45068359375 C 6502.52783203125 4260.9404296875 6512.01416015625 4354.6796875 6512.11279296875 4355.6171875 L 6517.24267578125 4404.34765625 L 6471.5087890625 4386.75830078125 C 6468.29931640625 4385.5234375 6392.36572265625 4355.51953125 6345.689453125 4268.00244140625 C 6313.5810546875 4207.798828125 6305.021484375 4141.8525390625 6323.3515625 4095.8984375 C 6334.08154296875 4068.99853515625 6353.11865234375 4050.32470703125 6378.40478515625 4041.8955078125 C 6397.97314453125 4035.37255859375 6416.84716796875 4032.0654296875 6434.50244140625 4032.0654296875 Z" stroke="none" fill="#000"/>
            </g>
            <path id="Path_12289" data-name="Path 12289" d="M6411.682,4121.767c-42.131,4.681,13.406,140.753,13.406,140.753S6472,4115.064,6411.682,4121.767Z" fill="#fffdf8"/>
          </g>
          <g id="Group_4456" data-name="Group 4456">
            <g id="Path_12290" data-name="Path 12290" fill="#ffd66e" stroke-miterlimit="10">
              <path d="M 6279.49365234375 4466.869140625 L 6256.62646484375 4458.07421875 C 6253.6298828125 4456.921875 6182.73193359375 4428.8984375 6138.65869140625 4346.259765625 C 6108.57177734375 4289.8466796875 6100.279296875 4228.73388671875 6117.017578125 4186.77099609375 C 6126.05908203125 4164.1044921875 6141.91845703125 4148.43017578125 6162.8818359375 4141.4423828125 C 6180.91748046875 4135.4306640625 6198.19677734375 4132.38232421875 6214.23828125 4132.38232421875 C 6244.07080078125 4132.38232421875 6268.6484375 4143.27099609375 6283.44287109375 4163.04345703125 C 6295.58203125 4179.26708984375 6306.943359375 4209.17724609375 6292.1328125 4259.53564453125 C 6267.04248046875 4344.84130859375 6276.8271484375 4441.537109375 6276.9287109375 4442.50390625 L 6279.49365234375 4466.869140625 Z" stroke="none"/>
              <path d="M 6214.23828125 4147.3818359375 C 6200.04345703125 4147.3818359375 6184.3076171875 4150.11181640625 6167.625 4155.6728515625 C 6114.046875 4173.5322265625 6109.94482421875 4260.5458984375 6151.89404296875 4339.201171875 C 6193.8427734375 4417.85595703125 6262.01123046875 4444.07421875 6262.01123046875 4444.07421875 C 6262.01123046875 4444.07421875 6251.52392578125 4344.44482421875 6277.7421875 4255.30322265625 C 6298.3994140625 4185.0673828125 6266.97021484375 4147.38330078125 6214.23828125 4147.3818359375 M 6214.23486328125 4117.3818359375 L 6214.23583984375 4117.3818359375 C 6248.91357421875 4117.3828125 6277.7578125 4130.40869140625 6295.45361328125 4154.0595703125 C 6309.64501953125 4173.0263671875 6323.0849609375 4207.45556640625 6306.52294921875 4263.76806640625 C 6282.37158203125 4345.8828125 6291.75146484375 4440.01611328125 6291.84912109375 4440.95703125 L 6296.89208984375 4489.609375 L 6251.2421875 4472.07470703125 C 6248.0322265625 4470.84033203125 6172.0986328125 4440.83544921875 6125.42333984375 4353.31884765625 C 6093.314453125 4293.1142578125 6084.7548828125 4227.16748046875 6103.08544921875 4181.2138671875 C 6113.81494140625 4154.314453125 6132.85205078125 4135.64111328125 6158.13818359375 4127.21240234375 C 6177.70654296875 4120.689453125 6196.580078125 4117.3818359375 6214.23486328125 4117.3818359375 Z" stroke="none" fill="#000"/>
            </g>
            <path id="Path_12291" data-name="Path 12291" d="M6191.416,4207.083c-42.132,4.681,13.4,140.754,13.4,140.754S6251.738,4200.381,6191.416,4207.083Z" fill="#fffdf8"/>
          </g>
        </g>
        <g id="Group_4460" data-name="Group 4460">
          <g id="Path_12292" data-name="Path 12292" fill="#ffd66e" stroke-miterlimit="10">
            <path d="M 6870.44384765625 4367.34423828125 L 6875.19580078125 4339.25048828125 C 6875.37353515625 4338.19677734375 6892.55419921875 4233.2763671875 6852.6572265625 4180.4716796875 C 6822.54736328125 4140.62060546875 6816.08203125 4077.943603515625 6837.61865234375 4034.67919921875 C 6855.603515625 3998.549560546875 6890.8828125 3978.65234375 6936.95751953125 3978.65234375 C 6944.8369140625 3978.65234375 6953.158203125 3979.224853515625 6961.689453125 3980.353759765625 C 6986.4267578125 3983.6279296875 7006.71533203125 3999.003173828125 7020.3623046875 4024.817626953125 C 7047.9990234375 4077.096435546875 7044.041015625 4165.75244140625 7011.1552734375 4231.0390625 C 6964.9580078125 4322.7529296875 6899.0712890625 4354.0830078125 6896.2890625 4355.37158203125 L 6870.44384765625 4367.34423828125 Z" stroke="none"/>
            <path d="M 6936.95751953125 3993.65234375 C 6826.02490234375 3993.65234375 6822.93115234375 4116.24658203125 6864.625 4171.42919921875 C 6909.0029296875 4230.1640625 6889.98388671875 4341.76123046875 6889.98388671875 4341.76123046875 C 6889.98388671875 4341.76123046875 6953.380859375 4312.39306640625 6997.7587890625 4224.291015625 C 7042.13720703125 4136.18798828125 7029.88916015625 4004.5107421875 6959.72119140625 3995.22412109375 C 6951.66845703125 3994.158203125 6944.09912109375 3993.65234375 6936.95751953125 3993.65234375 M 6936.95751953125 3963.65234375 C 6945.4931640625 3963.65234375 6954.47607421875 3964.2685546875 6963.6572265625 3965.4833984375 C 6992.99072265625 3969.36572265625 7017.83837890625 3987.94775390625 7033.623046875 4017.80712890625 C 7063.8095703125 4074.90869140625 7059.99462890625 4167.42333984375 7024.5517578125 4237.787109375 C 6976.03076171875 4334.1142578125 6905.56982421875 4367.603515625 6902.59375 4368.982421875 L 6850.8251953125 4392.9638671875 L 6860.41015625 4336.72119140625 C 6865.03076171875 4309.1845703125 6870.5078125 4228.97998046875 6840.68896484375 4189.51416015625 C 6807.38720703125 4145.43798828125 6800.2939453125 4076 6824.1904296875 4027.99462890625 C 6844.84423828125 3986.5029296875 6884.892578125 3963.65234375 6936.95751953125 3963.65234375 Z" stroke="none" fill="#000"/>
          </g>
          <path id="Path_12293" data-name="Path 12293" d="M6932.61,4050.111c47.4,0,60.323,120.646,20.108,180.97C6952.718,4231.081,6885.692,4050.111,6932.61,4050.111Z" fill="#fffdf8"/>
          <g id="Group_4458" data-name="Group 4458">
            <g id="Path_12294" data-name="Path 12294" fill="#ffd66e" stroke-miterlimit="10">
              <path d="M 7091.39404296875 4381.544921875 L 7093.9375 4357.193359375 C 7094.0390625 4356.224609375 7103.76806640625 4259.33349609375 7078.734375 4174.21826171875 C 7063.923828125 4123.85986328125 7075.28515625 4093.950439453125 7087.42431640625 4077.726806640625 C 7102.21875 4057.95458984375 7126.7958984375 4047.0654296875 7156.62890625 4047.0654296875 C 7172.67041015625 4047.0654296875 7189.94921875 4050.11376953125 7207.9853515625 4056.125732421875 C 7228.94873046875 4063.11376953125 7244.80810546875 4078.788330078125 7253.84912109375 4101.455078125 C 7270.58740234375 4143.41796875 7262.294921875 4204.5302734375 7232.20849609375 4260.943359375 C 7188.13330078125 4343.58251953125 7117.23681640625 4371.60546875 7114.24072265625 4372.7578125 L 7091.39404296875 4381.544921875 Z" stroke="none"/>
              <path d="M 7156.62841796875 4062.0654296875 C 7103.896484375 4062.0654296875 7072.4677734375 4099.74951171875 7093.125 4169.98583984375 C 7119.3427734375 4259.1279296875 7108.85595703125 4358.7578125 7108.85595703125 4358.7578125 C 7108.85595703125 4358.7578125 7177.02294921875 4332.5400390625 7218.97314453125 4253.884765625 C 7260.921875 4175.22998046875 7256.81982421875 4088.2158203125 7203.2421875 4070.35595703125 C 7186.5595703125 4064.794921875 7170.82373046875 4062.0654296875 7156.62841796875 4062.0654296875 M 7156.62841796875 4032.0654296875 C 7174.28564453125 4032.0654296875 7193.16064453125 4035.37255859375 7212.72900390625 4041.8955078125 C 7238.01513671875 4050.32470703125 7257.0517578125 4068.998046875 7267.78173828125 4095.8974609375 C 7286.11181640625 4141.85107421875 7277.55224609375 4207.7978515625 7245.44384765625 4268.00244140625 C 7198.76708984375 4355.51953125 7122.8349609375 4385.5234375 7119.625 4386.75830078125 L 7073.8916015625 4404.34765625 L 7079.02099609375 4355.6171875 C 7079.11572265625 4354.69970703125 7088.4951171875 4260.56591796875 7064.34423828125 4178.45068359375 C 7047.78173828125 4122.13671875 7061.22216796875 4087.70703125 7075.4140625 4068.740234375 C 7093.10986328125 4045.08984375 7121.95263671875 4032.0654296875 7156.62841796875 4032.0654296875 Z" stroke="none" fill="#000"/>
            </g>
            <path id="Path_12295" data-name="Path 12295" d="M7179.451,4121.767c42.132,4.681-13.405,140.753-13.405,140.753S7119.128,4115.064,7179.451,4121.767Z" fill="#fffdf8"/>
          </g>
          <g id="Group_4459" data-name="Group 4459">
            <g id="Path_12296" data-name="Path 12296" fill="#ffd66e" stroke-miterlimit="10">
              <path d="M 7311.65966796875 4466.86181640625 L 7314.2041015625 4442.509765625 C 7314.30517578125 4441.541015625 7324.03515625 4344.650390625 7299.00048828125 4259.53564453125 C 7284.189453125 4209.17724609375 7295.55078125 4179.267578125 7307.6904296875 4163.0439453125 C 7322.48486328125 4143.271484375 7347.06201171875 4132.38232421875 7376.89453125 4132.38232421875 C 7392.9365234375 4132.38232421875 7410.21533203125 4135.4306640625 7428.25146484375 4141.44287109375 C 7449.21435546875 4148.43017578125 7465.07373046875 4164.10498046875 7474.115234375 4186.771484375 C 7490.85400390625 4228.734375 7482.56201171875 4289.8466796875 7452.4755859375 4346.259765625 C 7408.400390625 4428.8984375 7337.50341796875 4456.921875 7334.5068359375 4458.07421875 L 7311.65966796875 4466.86181640625 Z" stroke="none"/>
              <path d="M 7376.89501953125 4147.3818359375 C 7324.1630859375 4147.3818359375 7292.73388671875 4185.0673828125 7313.39111328125 4255.30322265625 C 7339.60986328125 4344.44482421875 7329.1220703125 4444.07421875 7329.1220703125 4444.07421875 C 7329.1220703125 4444.07421875 7397.2900390625 4417.85595703125 7439.240234375 4339.201171875 C 7481.18896484375 4260.5458984375 7477.0859375 4173.5322265625 7423.5078125 4155.6728515625 C 7406.82568359375 4150.11181640625 7391.08984375 4147.3818359375 7376.89501953125 4147.3818359375 M 7376.89453125 4117.3818359375 C 7394.5517578125 4117.3818359375 7413.4267578125 4120.689453125 7432.9951171875 4127.21240234375 C 7458.28076171875 4135.64111328125 7477.31787109375 4154.31494140625 7488.0478515625 4181.21435546875 C 7506.37841796875 4227.16796875 7497.8193359375 4293.1142578125 7465.7109375 4353.31884765625 C 7419.0341796875 4440.83544921875 7343.10107421875 4470.83984375 7339.8916015625 4472.07470703125 L 7294.1572265625 4489.66455078125 L 7299.287109375 4440.93359375 C 7299.38232421875 4440.015625 7308.76220703125 4345.8828125 7284.6103515625 4263.7685546875 C 7268.04736328125 4207.45458984375 7281.48828125 4173.0244140625 7295.68017578125 4154.0576171875 C 7313.37646484375 4130.40673828125 7342.21875 4117.3818359375 7376.89453125 4117.3818359375 Z" stroke="none" fill="#000"/>
            </g>
            <path id="Path_12297" data-name="Path 12297" d="M7399.718,4207.083c42.131,4.681-13.4,140.754-13.4,140.754S7339.4,4200.381,7399.718,4207.083Z" fill="#fffdf8"/>
          </g>
        </g>
      </g>
      <g id="bottom-teeth">
        <g id="Group_4464" data-name="Group 4464">
          <g id="Path_12298" data-name="Path 12298" fill="#ffd66e" stroke-miterlimit="10">
            <path d="M 6936.9775390625 5261.15576171875 C 6936.9697265625 5261.15576171875 6936.96337890625 5261.15576171875 6936.95556640625 5261.15576171875 C 6890.8779296875 5261.14990234375 6855.59814453125 5241.24755859375 6837.615234375 5205.115234375 C 6816.083984375 5161.85400390625 6822.55078125 5099.1826171875 6852.6572265625 5059.33642578125 C 6892.55419921875 5006.53173828125 6875.37353515625 4901.611328125 6875.19580078125 4900.5576171875 L 6870.44580078125 4872.47314453125 L 6896.2890625 4884.4365234375 C 6899.0712890625 4885.72509765625 6964.9580078125 4917.05517578125 7011.1552734375 5008.76904296875 C 7044.041015625 5074.0556640625 7047.9990234375 5162.71142578125 7020.3623046875 5214.990234375 C 7006.7158203125 5240.8046875 6986.4267578125 5256.18017578125 6961.689453125 5259.4541015625 C 6953.15869140625 5260.58349609375 6944.84375 5261.15576171875 6936.9775390625 5261.15576171875 Z" stroke="none"/>
            <path d="M 6936.95751953125 5246.15576171875 C 6944.09912109375 5246.15673828125 6951.66845703125 5245.64990234375 6959.72119140625 5244.583984375 C 7029.88916015625 5235.296875 7042.13720703125 5103.6201171875 6997.7587890625 5015.51708984375 C 6953.380859375 4927.4150390625 6889.98388671875 4898.046875 6889.98388671875 4898.046875 C 6889.98388671875 4898.046875 6909.0029296875 5009.64404296875 6864.625 5068.37890625 C 6822.93115234375 5123.56103515625 6826.025390625 5246.14111328125 6936.95751953125 5246.15576171875 M 6936.9775390625 5276.15576171875 L 6936.9736328125 5276.15576171875 C 6884.89599609375 5276.14892578125 6844.84130859375 5253.291015625 6824.18701171875 5211.7919921875 C 6800.29736328125 5163.7919921875 6807.39208984375 5094.36328125 6840.68896484375 5050.2939453125 C 6870.5078125 5010.828125 6865.03076171875 4930.62353515625 6860.40380859375 4903.0498046875 L 6850.9921875 4846.95703125 L 6902.59375 4870.82568359375 C 6905.56982421875 4872.2041015625 6976.03076171875 4905.69384765625 7024.5517578125 5002.021484375 C 7059.994140625 5072.38427734375 7063.8095703125 5164.89892578125 7033.62353515625 5222.00048828125 C 7017.83837890625 5251.85986328125 6992.99072265625 5270.4423828125 6963.65771484375 5274.32470703125 C 6954.47607421875 5275.53955078125 6945.5 5276.15576171875 6936.9775390625 5276.15576171875 Z" stroke="none" fill="#000"/>
          </g>
          <path id="Path_12299" data-name="Path 12299" d="M6932.61,5189.7c47.4,0,60.323-120.645,20.108-180.969C6952.718,5008.727,6885.692,5189.7,6932.61,5189.7Z" fill="#fffdf8"/>
          <g id="Group_4462" data-name="Group 4462">
            <g id="Path_12300" data-name="Path 12300" fill="#ffd66e" stroke-miterlimit="10">
              <path d="M 7156.63330078125 5192.7421875 C 7156.63134765625 5192.7421875 7156.630859375 5192.7421875 7156.62890625 5192.7421875 C 7126.79541015625 5192.7412109375 7102.2177734375 5181.8515625 7087.42333984375 5162.07861328125 C 7075.28515625 5145.85498046875 7063.923828125 5115.94580078125 7078.734375 5065.58935546875 C 7103.82421875 4980.28271484375 7094.0400390625 4883.5869140625 7093.9384765625 4882.6201171875 L 7091.37353515625 4858.25439453125 L 7114.24072265625 4867.0498046875 C 7117.2373046875 4868.2021484375 7188.13330078125 4896.2255859375 7232.20849609375 4978.86376953125 C 7262.294921875 5035.27734375 7270.58740234375 5096.39013671875 7253.84912109375 5138.35302734375 C 7244.80810546875 5161.01953125 7228.94873046875 5176.6943359375 7207.98583984375 5183.68212890625 C 7189.9501953125 5189.69384765625 7172.671875 5192.7421875 7156.63330078125 5192.7421875 Z" stroke="none"/>
              <path d="M 7156.62939453125 5177.74267578125 C 7170.82470703125 5177.7431640625 7186.5595703125 5175.0126953125 7203.2421875 5169.4521484375 C 7256.81982421875 5151.591796875 7260.921875 5064.578125 7218.97314453125 4985.9228515625 C 7177.02294921875 4907.26806640625 7108.85595703125 4881.0498046875 7108.85595703125 4881.0498046875 C 7108.85595703125 4881.0498046875 7119.3427734375 4980.67919921875 7093.125 5069.82177734375 C 7072.4677734375 5140.05712890625 7103.8974609375 5177.74072265625 7156.62939453125 5177.74267578125 M 7156.6328125 5207.74267578125 L 7156.6318359375 5207.74267578125 C 7121.95361328125 5207.7412109375 7093.109375 5194.71533203125 7075.4130859375 5171.06396484375 C 7061.22216796875 5152.09716796875 7047.7822265625 5117.66796875 7064.34423828125 5061.35693359375 C 7088.4951171875 4979.24169921875 7079.11572265625 4885.10791015625 7079.0185546875 4884.16650390625 L 7073.9755859375 4835.5146484375 L 7119.62548828125 4853.04931640625 C 7122.8349609375 4854.2841796875 7198.76708984375 4884.28857421875 7245.443359375 4971.80517578125 C 7277.55224609375 5032.009765625 7286.11181640625 5097.95654296875 7267.78173828125 5143.91015625 C 7257.05224609375 5170.8095703125 7238.015625 5189.4833984375 7212.7294921875 5197.91259765625 C 7193.16064453125 5204.435546875 7174.287109375 5207.74267578125 7156.6328125 5207.74267578125 Z" stroke="none" fill="#000"/>
            </g>
            <path id="Path_12301" data-name="Path 12301" d="M7179.451,5118.041c42.132-4.681-13.405-140.754-13.405-140.754S7119.128,5124.743,7179.451,5118.041Z" fill="#fffdf8"/>
          </g>
          <g id="Group_4463" data-name="Group 4463">
            <g id="Path_12302" data-name="Path 12302" fill="#ffd66e" stroke-miterlimit="10">
              <path d="M 7376.89794921875 5237.43408203125 C 7376.89599609375 5237.43408203125 7376.896484375 5237.43408203125 7376.89453125 5237.43408203125 C 7347.06103515625 5237.43310546875 7322.48388671875 5226.54345703125 7307.689453125 5206.7705078125 C 7295.55078125 5190.546875 7284.18994140625 5160.6376953125 7299.00048828125 5110.28076171875 C 7324.09130859375 5024.974609375 7314.30615234375 4928.279296875 7314.20458984375 4927.3125 L 7311.6396484375 4902.947265625 L 7334.5068359375 4911.7421875 C 7337.5029296875 4912.89453125 7408.400390625 4940.91748046875 7452.4755859375 5023.55615234375 C 7482.56201171875 5079.9697265625 7490.85400390625 5141.08203125 7474.115234375 5183.044921875 C 7465.07373046875 5205.71142578125 7449.21435546875 5221.3857421875 7428.2509765625 5228.37353515625 C 7410.21630859375 5234.38525390625 7392.93701171875 5237.43408203125 7376.89794921875 5237.43408203125 Z" stroke="none"/>
              <path d="M 7376.89453125 5222.43408203125 C 7391.08984375 5222.43408203125 7406.82568359375 5219.7041015625 7423.5078125 5214.14306640625 C 7477.0859375 5196.2841796875 7481.18896484375 5109.27001953125 7439.240234375 5030.615234375 C 7397.2900390625 4951.9599609375 7329.1220703125 4925.7421875 7329.1220703125 4925.7421875 C 7329.1220703125 4925.7421875 7339.60986328125 5025.37109375 7313.39111328125 5114.51318359375 C 7292.73388671875 5184.7490234375 7324.1630859375 5222.4326171875 7376.89453125 5222.43408203125 M 7376.8984375 5252.43408203125 L 7376.8974609375 5252.43408203125 C 7342.21923828125 5252.43310546875 7313.375 5239.4072265625 7295.67919921875 5215.755859375 C 7281.48779296875 5196.78955078125 7268.0478515625 5162.35986328125 7284.6103515625 5106.04833984375 C 7308.8720703125 5023.55859375 7299.3857421875 4929.8203125 7299.287109375 4928.8828125 L 7294.1572265625 4880.15185546875 L 7339.89111328125 4897.74169921875 C 7343.10107421875 4898.97607421875 7419.0341796875 4928.98046875 7465.71044921875 5016.4970703125 C 7497.8193359375 5076.70166015625 7506.37841796875 5142.6484375 7488.0478515625 5188.6025390625 C 7477.31787109375 5215.501953125 7458.28076171875 5234.17529296875 7432.994140625 5242.603515625 C 7413.4267578125 5249.12646484375 7394.552734375 5252.43408203125 7376.8984375 5252.43408203125 Z" stroke="none" fill="#000"/>
            </g>
            <path id="Path_12303" data-name="Path 12303" d="M7399.718,5162.733c42.131-4.682-13.4-140.754-13.4-140.754S7339.4,5169.435,7399.718,5162.733Z" fill="#fffdf8"/>
          </g>
        </g>
        <g id="Group_4467" data-name="Group 4467">
          <g id="Path_12304" data-name="Path 12304" fill="#ffd66e" stroke-miterlimit="10">
            <path d="M 6654.1767578125 5261.15576171875 C 6646.296875 5261.15576171875 6637.97607421875 5260.58349609375 6629.44482421875 5259.45458984375 C 6604.70751953125 5256.18017578125 6584.41845703125 5240.8046875 6570.771484375 5214.98974609375 C 6543.134765625 5162.71142578125 6547.09228515625 5074.0556640625 6579.9775390625 5008.76904296875 C 6626.1748046875 4917.05517578125 6692.0615234375 4885.72509765625 6694.84375 4884.4365234375 L 6720.68896484375 4872.4638671875 L 6715.9375 4900.5576171875 C 6715.75927734375 4901.611328125 6698.57861328125 5006.53173828125 6738.4755859375 5059.33642578125 C 6768.58544921875 5099.18701171875 6775.05078125 5161.86376953125 6753.5146484375 5205.12890625 C 6735.52978515625 5241.25830078125 6700.2509765625 5261.15576171875 6654.1767578125 5261.15576171875 Z" stroke="none"/>
            <path d="M 6654.17626953125 5246.15576171875 C 6765.107421875 5246.15576171875 6768.2021484375 5123.56103515625 6726.5078125 5068.37890625 C 6682.1298828125 5009.64404296875 6701.14892578125 4898.046875 6701.14892578125 4898.046875 C 6701.14892578125 4898.046875 6637.751953125 4927.4150390625 6593.3740234375 5015.51708984375 C 6548.99609375 5103.6201171875 6561.2451171875 5235.296875 6631.4130859375 5244.583984375 C 6639.4658203125 5245.64990234375 6647.03466796875 5246.15576171875 6654.17626953125 5246.15576171875 M 6654.17626953125 5276.15576171875 C 6645.64111328125 5276.15576171875 6636.658203125 5275.53955078125 6627.47705078125 5274.32470703125 C 6598.1435546875 5270.4423828125 6573.29541015625 5251.85986328125 6557.5107421875 5222.00048828125 C 6527.32421875 5164.89892578125 6531.138671875 5072.38427734375 6566.5810546875 5002.021484375 C 6615.10205078125 4905.69384765625 6685.56298828125 4872.2041015625 6688.5390625 4870.82568359375 L 6740.3076171875 4846.84423828125 L 6730.72265625 4903.0869140625 C 6726.10205078125 4930.62353515625 6720.625 5010.828125 6750.44384765625 5050.2939453125 C 6783.74609375 5094.369140625 6790.8388671875 5163.80712890625 6766.94287109375 5211.81298828125 C 6746.2890625 5253.30517578125 6706.2412109375 5276.15576171875 6654.17626953125 5276.15576171875 Z" stroke="none" fill="#000"/>
          </g>
          <path id="Path_12305" data-name="Path 12305" d="M6658.523,5189.7c-47.394,0-60.323-120.645-20.108-180.969C6638.415,5008.727,6705.441,5189.7,6658.523,5189.7Z" fill="#fffdf8"/>
          <g id="Group_4465" data-name="Group 4465">
            <g id="Path_12306" data-name="Path 12306" fill="#ffd66e" stroke-miterlimit="10">
              <path d="M 6434.50390625 5192.7421875 C 6418.462890625 5192.7421875 6401.18408203125 5189.6943359375 6383.14892578125 5183.6826171875 C 6362.18505859375 5176.6943359375 6346.32568359375 5161.01904296875 6337.2841796875 5138.35205078125 C 6320.5458984375 5096.38916015625 6328.83837890625 5035.27685546875 6358.9248046875 4978.8642578125 C 6402.99951171875 4896.2255859375 6473.896484375 4868.2021484375 6476.89306640625 4867.0498046875 L 6499.740234375 4858.26220703125 L 6497.19580078125 4882.6142578125 C 6497.0947265625 4883.5830078125 6487.36474609375 4980.4736328125 6512.3994140625 5065.58935546875 C 6527.21044921875 5115.94677734375 6515.8486328125 5145.8564453125 6503.70947265625 5162.080078125 C 6488.91455078125 5181.85302734375 6464.3369140625 5192.7421875 6434.50390625 5192.7421875 Z" stroke="none"/>
              <path d="M 6434.50390625 5177.74267578125 C 6487.23583984375 5177.74267578125 6518.666015625 5140.05712890625 6498.0087890625 5069.82177734375 C 6471.7900390625 4980.67919921875 6482.27783203125 4881.0498046875 6482.27783203125 4881.0498046875 C 6482.27783203125 4881.0498046875 6414.10986328125 4907.26806640625 6372.16015625 4985.9228515625 C 6330.2109375 5064.578125 6334.31396484375 5151.591796875 6387.89208984375 5169.4521484375 C 6404.57421875 5175.0126953125 6420.30908203125 5177.74267578125 6434.50390625 5177.74267578125 M 6434.50390625 5207.74267578125 C 6416.84765625 5207.74267578125 6397.97314453125 5204.435546875 6378.4052734375 5197.91259765625 C 6353.11865234375 5189.4833984375 6334.08154296875 5170.80908203125 6323.3515625 5143.9091796875 C 6305.02197265625 5097.95556640625 6313.5810546875 5032.0087890625 6345.689453125 4971.80517578125 C 6392.36572265625 4884.28857421875 6468.298828125 4854.28369140625 6471.50830078125 4853.04931640625 L 6517.24267578125 4835.45947265625 L 6512.11279296875 4884.1904296875 C 6512.01806640625 4885.1083984375 6502.63818359375 4979.24169921875 6526.78955078125 5061.3564453125 C 6543.3525390625 5117.66943359375 6529.91162109375 5152.099609375 6515.7197265625 5171.06640625 C 6498.0234375 5194.71728515625 6469.18017578125 5207.74267578125 6434.50390625 5207.74267578125 Z" stroke="none" fill="#000"/>
            </g>
            <path id="Path_12307" data-name="Path 12307" d="M6411.682,5118.041c-42.131-4.681,13.406-140.754,13.406-140.754S6472,5124.743,6411.682,5118.041Z" fill="#fffdf8"/>
          </g>
          <g id="Group_4466" data-name="Group 4466">
            <g id="Path_12308" data-name="Path 12308" fill="#ffd66e" stroke-miterlimit="10">
              <path d="M 6214.23779296875 5227.43359375 C 6198.1962890625 5227.43359375 6180.91748046875 5224.38525390625 6162.8818359375 5218.37353515625 C 6141.91845703125 5211.38525390625 6126.05908203125 5195.7109375 6117.017578125 5173.04443359375 C 6100.279296875 5131.0810546875 6108.57177734375 5069.96826171875 6138.65869140625 5013.55517578125 C 6182.732421875 4930.91650390625 6253.63037109375 4902.8935546875 6256.62646484375 4901.7412109375 L 6279.4736328125 4892.9541015625 L 6276.9296875 4917.3056640625 C 6276.828125 4918.2744140625 6267.0986328125 5015.16455078125 6292.1328125 5100.28076171875 C 6306.943359375 5150.638671875 6295.58203125 5180.54833984375 6283.44287109375 5196.77197265625 C 6268.6484375 5216.54443359375 6244.07080078125 5227.43359375 6214.23779296875 5227.43359375 Z" stroke="none"/>
              <path d="M 6214.23779296875 5212.43359375 C 6266.9697265625 5212.43359375 6298.3994140625 5174.7490234375 6277.7421875 5104.51318359375 C 6251.52392578125 5015.3701171875 6262.01123046875 4915.7412109375 6262.01123046875 4915.7412109375 C 6262.01123046875 4915.7412109375 6193.8427734375 4941.958984375 6151.89404296875 5020.61376953125 C 6109.94482421875 5099.26904296875 6114.046875 5186.283203125 6167.625 5204.14306640625 C 6184.3076171875 5209.70361328125 6200.04296875 5212.43359375 6214.23779296875 5212.43359375 M 6214.23779296875 5242.43359375 C 6196.58154296875 5242.43359375 6177.70703125 5239.12646484375 6158.138671875 5232.603515625 C 6132.85205078125 5224.17431640625 6113.81494140625 5205.5009765625 6103.08544921875 5178.6015625 C 6084.7548828125 5132.6474609375 6093.314453125 5066.70068359375 6125.42333984375 5006.49609375 C 6172.0986328125 4918.9794921875 6248.03271484375 4888.97509765625 6251.2421875 4887.74072265625 L 6296.97607421875 4870.1513671875 L 6291.84619140625 4918.8818359375 C 6291.75146484375 4919.79931640625 6282.37158203125 5013.9326171875 6306.52294921875 5096.04833984375 C 6323.08544921875 5152.361328125 6309.64501953125 5186.79150390625 6295.453125 5205.75830078125 C 6277.7568359375 5229.40869140625 6248.9140625 5242.43359375 6214.23779296875 5242.43359375 Z" stroke="none" fill="#000"/>
            </g>
            <path id="Path_12309" data-name="Path 12309" d="M6191.416,5152.732c-42.132-4.681,13.4-140.753,13.4-140.753S6251.738,5159.435,6191.416,5152.732Z" fill="#fffdf8"/>
          </g>
        </g>
      </g>
    </g>
  </g>
</svg>
