<svg xmlns="http://www.w3.org/2000/svg" width="31.947" height="21.605" viewBox="0 0 31.947 21.605">
    <g transform="translate(-12320.104 -463.491)">
        <path d="M12350.161,473.518a6.874,6.874,0,0,0-1.751-2.4,29.041,29.041,0,0,0-2.952-2.456q-1.642-1.2-3.282-2.186t-2.679-1.529a9.213,9.213,0,0,0-1.615-.681,5.265,5.265,0,0,0-1.558-.246,4.536,4.536,0,0,0-3.035,1.093,8.874,8.874,0,0,0-1.465,1.592c-.124-.076-.248-.155-.371-.229q-1.638-.982-2.68-1.529a9.236,9.236,0,0,0-1.614-.681,5.267,5.267,0,0,0-1.559-.246,4.532,4.532,0,0,0-3.034,1.093,8.718,8.718,0,0,0-2.052,2.509,2.434,2.434,0,0,0,.384,3.17,22.094,22.094,0,0,0,2.242,1.964q1.15.876,2.407,1.692-.606.163-1.095.3c-.33.092-.674.189-1.039.3a6.135,6.135,0,0,0-2.3,1.366,3.08,3.08,0,0,0-.986,2.349,8.415,8.415,0,0,0,1.339,4.586q1.233,1.746,4.351,1.748a13.35,13.35,0,0,0,5.028-1.093c.473-.193.93-.4,1.375-.618q1.239,1.707,4.319,1.711a13.363,13.363,0,0,0,5.03-1.093,20.045,20.045,0,0,0,4.813-2.759,12.43,12.43,0,0,0,3.282-3.711A4.81,4.81,0,0,0,12350.161,473.518Z"/>
        <g>
            <path d="M12335.515,472.228a22.1,22.1,0,0,1-2.242-1.965,2.434,2.434,0,0,1-.384-3.169,8.722,8.722,0,0,1,2.052-2.51,4.537,4.537,0,0,1,3.034-1.093,5.267,5.267,0,0,1,1.559.246,9.166,9.166,0,0,1,1.614.682q1.042.546,2.68,1.528t3.282,2.186a28.923,28.923,0,0,1,2.951,2.456,6.873,6.873,0,0,1,1.751,2.4,4.8,4.8,0,0,1-.492,4.014,12.43,12.43,0,0,1-3.281,3.712,20.049,20.049,0,0,1-4.813,2.758,13.339,13.339,0,0,1-5.029,1.093q-3.12,0-4.351-1.748a8.407,8.407,0,0,1-1.338-4.586,3.08,3.08,0,0,1,.985-2.349,6.148,6.148,0,0,1,2.3-1.366c.365-.109.71-.207,1.039-.3s.69-.192,1.095-.3Q12336.662,473.1,12335.515,472.228Z"/>
            <path class="filling"
                  d="M12337.456,472.281c.457.293.929.6,1.421.93s.929.637,1.313.927.558.51.521.655a.431.431,0,0,1-.438.329,2.5,2.5,0,0,1-.9-.246,1.807,1.807,0,0,0-1.4.083,8.091,8.091,0,0,1-1.095.352,8.9,8.9,0,0,0-1.092.356,3,3,0,0,0-.52.272,2.9,2.9,0,0,1-.521.276,2.234,2.234,0,0,0-1.148,2.293q.164.764.275,1.529a6.663,6.663,0,0,0,.383,1.475,3.238,3.238,0,0,0,1.559,1.555,5.685,5.685,0,0,0,2.38.462,12.348,12.348,0,0,0,4.54-.98,18.242,18.242,0,0,0,4.43-2.512,12.881,12.881,0,0,0,3.089-3.333,3.671,3.671,0,0,0,.466-3.44,5.577,5.577,0,0,0-1.671-2.183,33.167,33.167,0,0,0-2.952-2.349q-1.61-1.146-3.226-2.074t-2.489-1.419a3.747,3.747,0,0,0-1.205-.518,5.124,5.124,0,0,0-1.147-.137,3.731,3.731,0,0,0-2.487.9,7.368,7.368,0,0,0-1.777,2.266,1.379,1.379,0,0,0,.273,1.8q.6.6,1.23,1.12c.42.347.847.682,1.285,1.01C12336.7,471.792,12337,471.991,12337.456,472.281Z"
            />
            <path d="M12324.792,472.228a22.111,22.111,0,0,1-2.243-1.965,2.432,2.432,0,0,1-.383-3.169,8.715,8.715,0,0,1,2.05-2.51,4.546,4.546,0,0,1,3.036-1.093,5.265,5.265,0,0,1,1.558.246,9.136,9.136,0,0,1,1.614.682q1.042.546,2.68,1.528t3.281,2.186a29.061,29.061,0,0,1,2.953,2.456,6.9,6.9,0,0,1,1.751,2.4,4.8,4.8,0,0,1-.493,4.014,12.43,12.43,0,0,1-3.281,3.712,20.049,20.049,0,0,1-4.813,2.758,13.339,13.339,0,0,1-5.029,1.093q-3.122,0-4.351-1.748a8.4,8.4,0,0,1-1.338-4.586,3.086,3.086,0,0,1,.984-2.349,6.163,6.163,0,0,1,2.3-1.366c.364-.109.709-.207,1.038-.3s.691-.192,1.1-.3Q12325.939,473.1,12324.792,472.228Z"/>
            <path class="filling"
                  d="M12326.733,472.281c.457.293.928.6,1.421.93s.929.637,1.312.927.558.51.522.655a.433.433,0,0,1-.439.329,2.5,2.5,0,0,1-.9-.246,1.806,1.806,0,0,0-1.4.083,8.135,8.135,0,0,1-1.095.352,8.842,8.842,0,0,0-1.092.356,3,3,0,0,0-.52.272,2.913,2.913,0,0,1-.522.276,2.237,2.237,0,0,0-1.148,2.293q.166.764.276,1.529a6.506,6.506,0,0,0,.383,1.475,3.237,3.237,0,0,0,1.558,1.555,5.682,5.682,0,0,0,2.38.462,12.344,12.344,0,0,0,4.54-.98,18.248,18.248,0,0,0,4.431-2.512,12.9,12.9,0,0,0,3.089-3.333,3.674,3.674,0,0,0,.466-3.44,5.6,5.6,0,0,0-1.671-2.183,33.309,33.309,0,0,0-2.952-2.349q-1.613-1.146-3.226-2.074t-2.49-1.419a3.751,3.751,0,0,0-1.2-.518,5.14,5.14,0,0,0-1.149-.137,3.73,3.73,0,0,0-2.485.9,7.37,7.37,0,0,0-1.778,2.266,1.377,1.377,0,0,0,.273,1.8q.6.6,1.231,1.12c.418.347.845.682,1.285,1.01Q12326.048,471.847,12326.733,472.281Z"
            />
        </g>
    </g>
</svg>
