<svg xmlns="http://www.w3.org/2000/svg" xmlns:xlink="http://www.w3.org/1999/xlink" width="796.48" height="206.319"
     viewBox="0 0 796.48 206.319">
    <defs>
        <linearGradient id="linear-gradient" x1="0.5" y1="0.039" x2="0.5" y2="1.357" gradientUnits="objectBoundingBox">
            <stop offset="0.187" stop-color="#00ffd5"/>
            <stop offset="1" stop-color="#01cb2d"/>
        </linearGradient>
    </defs>
    <g transform="translate(-4652.984 -8310.222)">
        <g>
            <g>
                <g>
                    <path class="filling"
                            d="M4765.363,8506.317c-17.017,0-38.907-.734-57.283-6.449-38.032-11.829-43.545-40.037-44.149-51.615-.439-8.388-1.087-43.332-.47-67.088.546-20.924,10.012-36.531,27.4-45.218a56.3,56.3,0,0,1,18.256-9.5c15.6-5.016,36.777-6,68.076-6h1.569c56.582.01,554.187.188,602.805,3.108,18.72,1.124,33.3,7.627,43.333,19.327,15.207,17.735,15.468,50.573,13.486,83.418-.225,3.707-.48,7.905-.66,12.02-.706,16.027-4.5,38.63-28.985,51.013a56.156,56.156,0,0,1-14.774,8.333c-15.667,6.106-37.856,8.269-84.794,8.269-20.284,0-496.926,0-509.309-.053l-1.176,0c-4.3,0-9.353.1-14.242.2l-.261,0C4778.153,8506.2,4771.918,8506.317,4765.363,8506.317Z"
                            />
                    <path
                            d="M4778.76,8330.671c66.792.013,554.467.226,602.192,3.091,15.85.952,28.024,6.263,36.184,15.777,13.847,16.146,12.485,52.253,11.041,76.146-.239,3.958-.487,8.044-.668,12.188-.656,14.905-4.064,33.064-24.33,42.8a45.731,45.731,0,0,1-12.928,7.465c-14.345,5.589-35.561,7.57-81.08,7.57-35.29,0-497.208,0-509.266-.053h-1.2c-4.349,0-9.261.094-14.458.2-6.062.117-12.331.24-18.88.24-16.295,0-37.186-.68-54.247-5.988-30.745-9.562-36.363-30.658-36.976-42.384-.423-8.08-1.063-43.041-.458-66.289.457-17.538,8.1-29.911,22.731-36.816a45.754,45.754,0,0,1,15.831-8.437c14.327-4.6,34.663-5.506,64.946-5.506h1.569m0-20.449h-1.573c-33.09,0-54.239,1.033-71.2,6.487a66.758,66.758,0,0,0-20.66,10.582c-20.09,10.455-31.456,29.391-32.087,53.608-.624,24,.034,59.382.479,67.889a63.979,63.979,0,0,0,10.63,32.329c8.921,13.3,22.613,22.89,40.695,28.514,19.687,6.125,42.577,6.91,60.32,6.91,6.66,0,12.951-.121,19.034-.239l.241,0c4.828-.095,9.815-.192,14.063-.192l1.14,0c12.955.052,489.056.053,509.329.053,48.968,0,71.3-2.263,88.5-8.966a66.671,66.671,0,0,0,16.6-9.213,59.009,59.009,0,0,0,27.034-28.3c5.226-11.486,6.286-23.141,6.627-30.907.173-3.938.413-7.9.645-11.739l.006-.115c2.114-34.99,1.647-70.194-15.93-90.691-8.185-9.545-23.588-21.263-50.481-22.878-48.856-2.934-546.8-3.115-603.414-3.127Z"
                            fill="#fff"/>
                    <path
                            d="M4778.76,8330.671c66.792.013,554.467.226,602.192,3.091,15.85.952,28.024,6.263,36.184,15.777,13.847,16.146,12.485,52.253,11.041,76.146-.239,3.958-.487,8.044-.668,12.188-.656,14.905-4.064,33.064-24.33,42.8a45.731,45.731,0,0,1-12.928,7.465c-14.345,5.589-35.561,7.57-81.08,7.57-35.29,0-497.208,0-509.266-.053h-1.2c-4.349,0-9.261.094-14.458.2-6.062.117-12.331.24-18.88.24-16.295,0-37.186-.68-54.247-5.988-30.745-9.562-36.363-30.658-36.976-42.384-.423-8.08-1.063-43.041-.458-66.289.457-17.538,8.1-29.911,22.731-36.816a45.754,45.754,0,0,1,15.831-8.437c14.327-4.6,34.663-5.506,64.946-5.506h1.569m0-16.839h-1.572c-31.956,0-53.671,1.033-70.1,6.314a63.1,63.1,0,0,0-19.81,10.2,54.286,54.286,0,0,0-21.875,19.845c-5.372,8.7-8.251,19.063-8.556,30.8-.622,23.922.032,59.143.475,67.606.678,12.961,6.789,44.52,48.791,57.583,19.223,5.981,41.76,6.747,59.248,6.747,6.631,0,12.909-.121,18.981-.237l.224,0c4.844-.1,9.848-.194,14.133-.194l1.177,0c12.315.053,489,.053,509.292.053,48.461,0,70.463-2.2,87.194-8.719a63.015,63.015,0,0,0,15.959-8.9c30.218-15.689,31.56-46.166,32.007-56.314.175-3.984.417-7.982.65-11.848l0-.064c2.068-34.233,1.674-68.6-15.067-88.123-11.245-13.113-27.379-20.389-47.957-21.624-48.76-2.929-546.593-3.111-603.2-3.122Z"/>
                </g>
            </g>
            <path
                    d="M5407.178,8357.575c-5.685-6.811-14.369-10.486-26.55-11.237-47.5-2.931-535.41-3.143-602.249-3.156h-1.572c-28.259,0-48.3.836-60.9,4.994a30.609,30.609,0,0,0-12.456,7.22c-10.9,4.611-15.977,12.6-16.3,25.5-.594,23.435.031,58.9.444,67.02.738,14.493,9.842,24.631,27.061,30.134,15.334,4.9,34.936,5.528,50.3,5.528,6.423,0,12.643-.124,18.653-.243,5.276-.1,10.26-.205,14.77-.205l1.244,0c11.958.052,474.534.055,509.9.055,43.164,0,63.837-1.853,76.278-6.832a30.81,30.81,0,0,0,10.344-6.49c13.963-6.095,17.252-16.783,17.9-31.957.186-4.349.439-8.642.683-12.793C5416.044,8402.778,5417.178,8369.556,5407.178,8357.575Z"/>
            <path
                    d="M5377.26,8351.554c-49.838-3.075-583.883-3.084-594.267-3.088h-.44c-56.578,0-74.624,3.477-75.228,27.324-.576,22.722.02,57.313.431,65.384,1.408,27.68,38.316,31.27,72.168,31.27,11.845,0,23.318-.44,32.764-.44l1.234,0c11.886.052,472.855.053,502.835.053,77.45,0,88.555-5.587,89.806-34.809C5408.193,8399.164,5414.85,8353.874,5377.26,8351.554Z"
                    fill="url(#linear-gradient)"/>
        </g>
        <path
                d="M5344.055,8360.02c25.635-7.449,65.731,1.162,53.924,35.667-1.184-6.436-2.593-12.508-5.571-17.043-2.806-4.618-7.415-7.36-12.616-9.542-11.229-4.412-23.8-5.621-35.737-9.082Z"
                fill="#fff"/>
        <path
                d="M4781.073,8459.2c-25.635,7.45-65.732-1.162-53.925-35.667,1.185,6.436,2.594,12.508,5.572,17.043,2.8,4.619,7.415,7.36,12.615,9.542,11.23,4.414,23.8,5.622,35.738,9.082Z"
                fill="#fff"/>
    </g>
</svg>
