<svg xmlns="http://www.w3.org/2000/svg" width="39.276" height="35.173" viewBox="0 0 39.276 35.173">
    <g transform="translate(-5248.654 -568.306)">
        <g style="mix-blend-mode: multiply;isolation: isolate">
            <path
                    d="M5286.93,585.09q0,4.363-3.345,6.122a30.1,30.1,0,0,1-7.14,1.824v2.41q0,7.034-5.992,7.033a14.654,14.654,0,0,1-4.69-.52,3.756,3.756,0,0,1-2.344-3.583l-.326-5.145-.13-.13q-2.216-.065-6.677-.456t-4.461-3.061q0-3.646,1.4-5.406t4.982-2.28q.259,0,2.736-.586a9.669,9.669,0,0,1,2.735-.325q.064-2.214.13-4.429a5.31,5.31,0,0,1,1.856-3.811,6.662,6.662,0,0,1,4.267-1.27q7.293,0,7.294,5.341a14.9,14.9,0,0,1-.325,2.866Q5286.93,579.814,5286.93,585.09Z"
                    stroke="#000" stroke-miterlimit="10" stroke-width="2"/>
        </g>
        <g>
            <path class="filling2"
                    d="M5284.759,582.919q0,4.363-3.345,6.122a30.107,30.107,0,0,1-7.14,1.824v2.41q0,7.033-5.992,7.033a14.662,14.662,0,0,1-4.69-.52,3.757,3.757,0,0,1-2.344-3.583l-.326-5.145-.13-.13q-2.216-.064-6.677-.456t-4.461-3.061q0-3.647,1.4-5.406t4.982-2.28q.259,0,2.736-.586a9.67,9.67,0,0,1,2.735-.325q.064-2.214.13-4.429a5.31,5.31,0,0,1,1.856-3.811,6.662,6.662,0,0,1,4.267-1.27q7.293,0,7.294,5.341a14.934,14.934,0,0,1-.325,2.866Q5284.759,577.643,5284.759,582.919Z"
                    fill="#ffd101" stroke="#000" stroke-miterlimit="10" stroke-width="2"/>
        </g>
    </g>
</svg>
