<svg xmlns="http://www.w3.org/2000/svg" width="132.138" height="89.505" viewBox="0 0 132.138 89.505">
    <g transform="translate(-5248.715 -8365.702)">
        <path
              d="M5373.036,8407.244q-1.8-4.75-7.241-9.954a119.829,119.829,0,0,0-12.211-10.174q-6.793-4.972-13.574-9.059-6.775-4.068-11.083-6.333a38.04,38.04,0,0,0-6.677-2.821,21.7,21.7,0,0,0-6.443-1.02,18.746,18.746,0,0,0-12.555,4.529,36.819,36.819,0,0,0-6.061,6.594c-.511-.315-1.023-.641-1.534-.949q-6.776-4.068-11.083-6.333a38.035,38.035,0,0,0-6.676-2.821,21.714,21.714,0,0,0-6.444-1.02,18.748,18.748,0,0,0-12.555,4.529,36.031,36.031,0,0,0-8.481,10.395q-4.068,7.475,1.584,13.133a91.243,91.243,0,0,0,9.278,8.137q4.749,3.627,9.953,7.008-2.5.681-4.528,1.252c-1.362.38-2.787.785-4.3,1.239a25.391,25.391,0,0,0-9.5,5.658,12.775,12.775,0,0,0-4.075,9.732q.461,11.763,5.535,19,5.1,7.235,17.993,7.241a55.108,55.108,0,0,0,20.8-4.529c1.951-.8,3.84-1.653,5.684-2.559,3.419,4.715,9.36,7.088,17.866,7.088a55.109,55.109,0,0,0,20.8-4.529,82.8,82.8,0,0,0,19.907-11.426A51.46,51.46,0,0,0,5371,8423.874Q5375.75,8415.387,5373.036,8407.244Z"/>
        <g>
            <path
                  d="M5312.46,8401.895a91.108,91.108,0,0,1-9.278-8.137q-5.652-5.65-1.583-13.132a36.028,36.028,0,0,1,8.48-10.395,18.753,18.753,0,0,1,12.556-4.529,21.769,21.769,0,0,1,6.443,1.019,38.01,38.01,0,0,1,6.677,2.823q4.307,2.263,11.082,6.333,6.794,4.085,13.574,9.057a120,120,0,0,1,12.212,10.175q5.43,5.21,7.241,9.953,2.725,8.139-2.037,16.631a51.472,51.472,0,0,1-13.574,15.378,82.817,82.817,0,0,1-19.907,11.426,55.113,55.113,0,0,1-20.8,4.529q-12.906,0-17.992-7.241t-5.536-19a12.778,12.778,0,0,1,4.075-9.732,25.408,25.408,0,0,1,9.5-5.658c1.51-.453,2.934-.858,4.3-1.239s2.86-.8,4.529-1.252Q5317.2,8405.515,5312.46,8401.895Z"/>
            <path class="filling"
                  d="M5320.487,8402.116c1.89,1.215,3.841,2.492,5.879,3.854s3.841,2.64,5.424,3.842,2.308,2.111,2.16,2.713a1.783,1.783,0,0,1-1.816,1.361,10.353,10.353,0,0,1-3.731-1.018,7.449,7.449,0,0,0-5.768.343,33.9,33.9,0,0,1-4.529,1.461,36.439,36.439,0,0,0-4.517,1.473,12.3,12.3,0,0,0-2.147,1.13,12.226,12.226,0,0,1-2.16,1.141q-5.652,3.848-4.75,9.5.68,3.167,1.141,6.333a27.366,27.366,0,0,0,1.583,6.112,13.412,13.412,0,0,0,6.444,6.443,23.471,23.471,0,0,0,9.843,1.914,50.944,50.944,0,0,0,18.778-4.062,75.366,75.366,0,0,0,18.323-10.408,53.267,53.267,0,0,0,12.777-13.807q4.638-7.456,1.926-14.249-1.362-4.069-6.909-9.045a137.862,137.862,0,0,0-12.212-9.733q-6.664-4.749-13.341-8.591t-10.3-5.879a15.525,15.525,0,0,0-4.983-2.147,21.18,21.18,0,0,0-4.749-.564,15.406,15.406,0,0,0-10.285,3.73,30.517,30.517,0,0,0-7.352,9.389q-2.264,4.069,1.129,7.463,2.485,2.484,5.094,4.639c1.73,1.436,3.5,2.823,5.314,4.185Q5317.657,8400.318,5320.487,8402.116Z"
                  />
            <path
                  d="M5268.108,8401.895a91.011,91.011,0,0,1-9.279-8.137q-5.652-5.65-1.583-13.132a36.031,36.031,0,0,1,8.481-10.395,18.753,18.753,0,0,1,12.555-4.529,21.764,21.764,0,0,1,6.443,1.019,37.979,37.979,0,0,1,6.677,2.823q4.308,2.263,11.083,6.333,6.792,4.085,13.574,9.057a120.089,120.089,0,0,1,12.211,10.175q5.432,5.21,7.241,9.953,2.725,8.139-2.037,16.631a51.458,51.458,0,0,1-13.574,15.378,82.8,82.8,0,0,1-19.907,11.426,55.113,55.113,0,0,1-20.8,4.529q-12.9,0-17.992-7.241t-5.535-19a12.781,12.781,0,0,1,4.074-9.732,25.415,25.415,0,0,1,9.5-5.658c1.509-.453,2.933-.858,4.3-1.239s2.86-.8,4.529-1.252Q5272.851,8405.515,5268.108,8401.895Z"/>
            <path class="filling"
                  d="M5276.134,8402.116c1.89,1.215,3.842,2.492,5.879,3.854s3.842,2.64,5.425,3.842,2.307,2.111,2.16,2.713a1.784,1.784,0,0,1-1.817,1.361,10.358,10.358,0,0,1-3.731-1.018,7.447,7.447,0,0,0-5.768.343,33.883,33.883,0,0,1-4.529,1.461,36.373,36.373,0,0,0-4.516,1.473,12.308,12.308,0,0,0-2.148,1.13,12.158,12.158,0,0,1-2.16,1.141q-5.652,3.848-4.75,9.5.68,3.167,1.142,6.333a27.287,27.287,0,0,0,1.583,6.112,13.406,13.406,0,0,0,6.443,6.443,23.471,23.471,0,0,0,9.843,1.914,50.94,50.94,0,0,0,18.778-4.062,75.354,75.354,0,0,0,18.324-10.408,53.279,53.279,0,0,0,12.776-13.807q4.64-7.456,1.927-14.249-1.362-4.069-6.91-9.045a137.72,137.72,0,0,0-12.212-9.733q-6.663-4.749-13.34-8.591t-10.3-5.879a15.525,15.525,0,0,0-4.983-2.147,21.182,21.182,0,0,0-4.75-.564,15.408,15.408,0,0,0-10.285,3.73,30.514,30.514,0,0,0-7.351,9.389q-2.265,4.069,1.129,7.463,2.485,2.484,5.093,4.639c1.731,1.436,3.5,2.823,5.314,4.185C5273,8400.091,5274.244,8400.914,5276.134,8402.116Z"
                  />
        </g>
    </g>
</svg>
