<svg xmlns="http://www.w3.org/2000/svg" xmlns:xlink="http://www.w3.org/1999/xlink" width="89.413" height="80.172"
     viewBox="0 0 89.413 80.172">
    <defs>
        <linearGradient id="linear-gradient345" x1="0.5" y1="0.039" x2="0.5" y2="1.357" gradientUnits="objectBoundingBox">
            <stop offset="0.187" stop-color="#00ffd5"/>
            <stop offset="1" stop-color="#01cb2d"/>
        </linearGradient>
    </defs>
    <g  transform="translate(-5220.319 -546.456)">
        <g >
            <g >
                <g >
                    <path class="filling"
                          d="M5258.609,623.468c-5.891,0-13.465-.253-19.8-2.226-12.989-4.039-14.87-13.649-15.076-17.593-.161-3.059-.369-25.379-.163-33.3.185-7.136,3.415-12.452,9.347-15.4a19.185,19.185,0,0,1,6.256-3.264c5.377-1.728,12.708-2.066,23.554-2.066.338,0,7.665.09,24.15,1.08,6.4.385,11.377,2.6,14.794,6.585,6.166,7.19,4.91,33.524,4.6,38.73l-.007.115c-.079,1.323-.162,2.688-.222,4.071-.241,5.482-1.537,13.213-9.9,17.424a19.115,19.115,0,0,1-5.067,2.864c-5.4,2.1-13.078,2.849-29.346,2.849h-1.993A4.467,4.467,0,0,1,5258.609,623.468Z"
                          fill="#f7aa33"/>
                    <path
                          d="M5262.722,552.777s7.363.078,23.961,1.075c5.512.332,9.746,2.178,12.584,5.487,4.815,5.616,4.341,28.173,3.84,36.482-.084,1.377-.17,2.8-.233,4.239-.228,5.183-1.413,11.5-8.461,14.886a15.906,15.906,0,0,1-4.5,2.6c-4.989,1.944-12.368,2.633-28.2,2.633-12.273,0-.832.133-3.11.133-5.667,0-12.932-.236-18.866-2.082-10.692-3.326-12.646-10.663-12.859-14.741-.147-2.81-.37-24.968-.159-33.053.158-6.1,2.817-10.4,7.9-12.805a15.92,15.92,0,0,1,5.5-2.934c4.983-1.6,12.055-1.915,22.587-1.915m.034-6.321h-.034c-11.159,0-18.749.363-24.521,2.218a22.416,22.416,0,0,0-7,3.6c-6.758,3.493-10.584,9.852-10.8,17.995-.207,7.965.005,30.457.166,33.549.241,4.6,2.408,15.815,17.3,20.446,6.744,2.1,14.628,2.367,20.743,2.367a7.817,7.817,0,0,0,1.443-.131h1.667c16.919,0,24.613-.773,30.493-3.064a22.39,22.39,0,0,0,5.632-3.136c10.713-5.583,11.187-16.365,11.345-19.958.061-1.383.145-2.773.226-4.116a184.076,184.076,0,0,0,.077-20.012c-.794-13.917-3.317-18.525-5.427-20.985-4-4.66-9.717-7.245-17-7.683-16.563-.994-23.966-1.083-24.273-1.086Z"
                          fill="#fff"/>
                    <path
                          d="M5262.722,552.777s7.363.078,23.961,1.075c5.512.332,9.746,2.178,12.584,5.487,4.815,5.616,4.341,28.173,3.84,36.482-.084,1.377-.17,2.8-.233,4.239-.228,5.183-1.413,11.5-8.461,14.886a15.906,15.906,0,0,1-4.5,2.6c-4.989,1.944-12.368,2.633-28.2,2.633-12.273,0-.832.133-3.11.133-5.667,0-12.932-.236-18.866-2.082-10.692-3.326-12.646-10.663-12.859-14.741-.147-2.81-.37-24.968-.159-33.053.158-6.1,2.817-10.4,7.9-12.805a15.92,15.92,0,0,1,5.5-2.934c4.983-1.6,12.055-1.915,22.587-1.915m.028-5.2h-.028c-11.048,0-18.546.354-24.179,2.165a21.27,21.27,0,0,0-6.737,3.477c-6.527,3.323-10.08,9.215-10.285,17.081-.207,7.949,0,30.38.165,33.461.228,4.372,2.295,15.017,16.511,19.439,6.6,2.054,14.376,2.317,20.412,2.317a6.758,6.758,0,0,0,1.363-.132h1.747c16.762,0,24.354-.754,30.088-2.987a21.286,21.286,0,0,0,5.434-3.04c10.227-5.279,10.682-15.623,10.833-19.063.061-1.394.146-2.79.227-4.14.582-9.636,1.251-32.813-5.083-40.2-3.792-4.421-9.25-6.875-16.223-7.294-16.536-.993-23.912-1.081-24.218-1.085Z"/>
                </g>
            </g>
            <path
                  d="M5295.8,562.049c-1.977-2.369-5-3.647-9.233-3.908-16.519-1.02-23.982-1.1-23.982-1.1-9.827,0-16.8.29-21.178,1.736a10.642,10.642,0,0,0-4.331,2.511c-3.791,1.6-5.557,4.382-5.671,8.87-.206,8.15.011,30.486.155,33.308.256,5.04,3.423,8.566,9.411,10.48,5.333,1.7,12.15,1.923,17.493,1.923,2.234,0-8.924-.137,3.375-.137,15.011,0,22.2-.644,26.527-2.376a10.683,10.683,0,0,0,3.6-2.257c4.856-2.119,6-5.836,6.226-11.113.065-1.512.153-3.006.238-4.45C5298.887,587.77,5299.281,566.215,5295.8,562.049Z"/>
            <path
                  d="M5285.4,559.955c-17.333-1.07-20.761-1.074-20.812-1.074-19.676,0-25.953,1.209-26.163,9.5-.2,7.9.007,29.933.15,32.74.49,9.626,13.326,10.874,25.1,10.874,4.12,0-4.319-.152-4.177-.152,4.134.018-5.564.019,4.862.019,26.936,0,30.8-1.943,31.233-12.106C5296.157,586.513,5298.471,560.761,5285.4,559.955Z"
                  fill="url(#linear-gradient345)"/>
        </g>
        <path
              d="M5273.851,562.9c8.915-2.591,22.859.4,18.753,12.4a16.319,16.319,0,0,0-1.937-5.927,8.777,8.777,0,0,0-4.388-3.319c-3.9-1.535-8.276-1.955-12.428-3.158Z"
              fill="#fff"/>
        <path
              d="M5261.224,607.276c-8.915,2.591-22.86-.4-18.753-12.4a16.31,16.31,0,0,0,1.937,5.927,8.768,8.768,0,0,0,4.387,3.318c3.906,1.535,8.276,1.956,12.429,3.159Z"
              fill="#fff"/>
    </g>
</svg>
