<svg xmlns="http://www.w3.org/2000/svg" xmlns:xlink="http://www.w3.org/1999/xlink" width="341.967" height="549.956" viewBox="0 0 341.967 549.956">
  <defs>
    <clipPath id="clip-path">
      <path id="Path_19835" data-name="Path 19835" d="M1937.839,7482.016c-14.716,0-29.99.713-45.546,2.165-51.5,4.806-94.7,16.724-112.751,31.1-30.932,24.641-23.475,52.975-14.406,83.694,31.385,106.313,7.579,317.664.519,332.778-12.542,26.848-12.32,50.035,30.918,77.675,17.665,11.293,44.321,12.095,63.376,9.082,7.106-1.124,14.3-2.592,21.255-4.012,14.311-2.92,29.108-5.941,44.192-6.2,17.043-.294,33.866,2.935,50.126,6.06,6.228,1.2,12.667,2.435,19,3.45,23.917,3.831,42.759,1.642,61.09-7.1,24.591-11.726,33.274-37.438,31.348-57.457-3.877-40.3-54.82-241.315-6.419-384.758,2.628-7.4,5.346-15.043,4.676-22.559-1.974-22.127-18.759-38.985-49.89-50.1C2009.925,7486.758,1975.756,7482.016,1937.839,7482.016Z" fill="#720343" stroke="#880049" stroke-miterlimit="10" stroke-width="11.928"/>
    </clipPath>
    <clipPath id="clip-path-2">
      <path id="Path_19835-2" data-name="Path 19835" d="M1937.839,7482.017c-14.716,0-29.99.352-45.546,1.067-51.5,2.37-94.7,8.248-112.751,15.34-30.932,12.152-23.475,26.126-14.406,41.276,31.385,52.432,7.579,156.667.519,164.121-12.542,13.241-12.32,24.677,30.918,38.308,17.665,5.57,44.321,5.965,63.376,4.479,7.106-.554,14.3-1.278,21.255-1.979,14.311-1.44,29.108-2.93,44.192-3.06,17.043-.145,33.866,1.448,50.126,2.989,6.228.59,12.667,1.2,19,1.7,23.917,1.89,42.759.81,61.09-3.5,24.591-5.783,33.274-18.464,31.348-28.337-3.877-19.875-54.82-119.013-6.419-189.756,2.628-3.647,5.346-7.419,4.676-11.125-1.974-10.913-18.759-19.227-49.89-24.711C2009.925,7484.354,1975.756,7482.017,1937.839,7482.017Z" fill="#720343" stroke="#880049" stroke-miterlimit="10" stroke-width="11.928"/>
    </clipPath>
  </defs>
  <g id="Group_102082" data-name="Group 102082" transform="translate(-2802.04 -10285.036)">
    <g id="Component_12_4" data-name="Component 12 – 4" transform="translate(2808 10291)">
      <path id="Path_19806" data-name="Path 19806" d="M1937.839,7482.016c-14.716,0-29.99.713-45.546,2.165-51.5,4.806-94.7,16.724-112.751,31.1-30.932,24.641-23.475,52.975-14.406,83.694,31.385,106.313,7.579,317.664.519,332.778-12.542,26.848-12.32,50.035,30.918,77.675,17.665,11.293,44.321,12.095,63.376,9.082,7.106-1.124,14.3-2.592,21.255-4.012,14.311-2.92,29.108-5.941,44.192-6.2,17.043-.294,33.866,2.935,50.126,6.06,6.228,1.2,12.667,2.435,19,3.45,23.917,3.831,42.759,1.642,61.09-7.1,24.591-11.726,33.274-37.438,31.348-57.457-3.877-40.3-54.82-241.315-6.419-384.758,2.628-7.4,5.346-15.043,4.676-22.559-1.974-22.127-18.759-38.985-49.89-50.1C2009.925,7486.758,1975.756,7482.016,1937.839,7482.016Z" transform="translate(-1757.222 -7482.016)" fill="#720343"/>
      <g id="Group_8503" data-name="Group 8503" transform="translate(-1757.222 -7482.016)" clip-path="url(#clip-path)">
        <g id="Group_8502" data-name="Group 8502">
          <path id="Path_19809" data-name="Path 19809" d="M2012.445,7632.927c16.875,17.465,20.745,159.623,23.3,182.954,1.5,13.708,2.746,27.932-2.151,40.942s-17.651,24.5-32.506,24.186c-9.03-.195-17.245-4.546-25.762-7.336-29.1-9.528-61.128-.7-90.126,9.077-12.162,4.1-24.51,8.422-37.438,8.935s-26.811-3.47-34.486-13.132c-6.423-8.086-7.562-18.672-8.267-28.694-1.781-25.319-1.9-169.309,10.98-191.7C1848.678,7601.323,1965.233,7584.065,2012.445,7632.927Z" fill="#560332"/>
          <path id="Path_19810" data-name="Path 19810" d="M1841.612,7667.446c-9.723,16.905-9.635,154.355-8.291,173.474.532,7.568,1.393,15.561,6.243,21.667,5.8,7.3,16.277,10.3,26.04,9.916s19.086-3.651,28.269-6.747c21.9-7.384,46.085-14.049,68.055-6.854,6.431,2.106,12.634,5.392,19.453,5.539,11.217.241,20.847-8.439,24.545-18.263s2.758-20.564,1.625-30.915c-1.93-17.617-4.852-153.685-17.595-166.872s-38.8-16.53-49.782-2.048c-4.975,6.556-5.808,15.064-9.729,22.208s-13.986,12.936-20.974,8.216c-5.4-3.65-5.337-10.94-5.707-17.133C1901.768,7626.156,1851.115,7650.925,1841.612,7667.446Z" fill="#380224"/>
          <g id="Group_8487" data-name="Group 8487">
            <path id="Path_19807" data-name="Path 19807" d="M1921.442,7538.292c93.89,0,158.95,22.826,197.285,51.041.465-2.748.141-17.245-.123-19.976-2.374-24.522-22.02-75.272-59.46-87.595-30.555-10.057-95.309-15.987-140.91-15.987-17.7,0-51-.024-69.71,1.585-61.933,5.327-87.435,26.77-109.143,42.706-17.863,13.112-14.729,70.534-16.9,85.615C1753.17,7571.419,1826.33,7538.292,1921.442,7538.292Z" fill="#bf234c"/>
            <path id="Path_19808" data-name="Path 19808" d="M1717.073,7961.92c1.162,20.428,14.016,40.563,47.625,62.935,22.123,14.727,55.505,15.773,79.367,11.843,8.9-1.465,17.908-3.38,26.619-5.231,17.922-3.809,36.453-7.747,55.343-8.089,21.344-.384,42.412,3.827,62.775,7.9,7.8,1.562,15.863,3.176,23.8,4.5,29.952,5,53.548,2.14,76.505-9.257,26.868-13.341,37.659-47.352,39.168-71.458Z" fill="#bf234c"/>
          </g>
        </g>
      </g>
      <path id="Path_19836" data-name="Path 19836" d="M1937.839,7482.016c-14.716,0-29.99.713-45.546,2.165-51.5,4.806-94.7,16.724-112.751,31.1-30.932,24.641-23.475,52.975-14.406,83.694,31.385,106.313,7.579,317.664.519,332.778-12.542,26.848-12.32,50.035,30.918,77.675,17.665,11.293,44.321,12.095,63.376,9.082,7.106-1.124,14.3-2.592,21.255-4.012,14.311-2.92,29.108-5.941,44.192-6.2,17.043-.294,33.866,2.935,50.126,6.06,6.228,1.2,12.667,2.435,19,3.45,23.917,3.831,42.759,1.642,61.09-7.1,24.591-11.726,33.274-37.438,31.348-57.457-3.877-40.3-54.82-241.315-6.419-384.758,2.628-7.4,5.346-15.043,4.676-22.559-1.974-22.127-18.759-38.985-49.89-50.1C2009.925,7486.758,1975.756,7482.016,1937.839,7482.016Z" transform="translate(-1757.222 -7482.016)" fill="none" stroke="#880049" stroke-miterlimit="10" stroke-width="11.928"/>
    </g>
    <g id="Component_12_5" data-name="Component 12 – 5" transform="translate(2808 10291)" opacity="0">
      <path id="Path_19806-2" data-name="Path 19806" d="M1937.839,7482.016c-14.716,0-29.99.356-45.546,1.083-51.5,2.4-94.7,8.362-112.751,15.552-30.932,12.32-23.475,26.487-14.406,41.847,31.385,53.156,7.579,158.832.519,166.389-12.542,13.424-12.32,25.018,30.918,38.838,17.665,5.646,44.321,6.047,63.376,4.541,7.106-.562,14.3-1.3,21.255-2.006,14.311-1.46,29.108-2.971,44.192-3.1,17.043-.147,33.866,1.467,50.126,3.03,6.228.6,12.667,1.217,19,1.725,23.917,1.916,42.759.821,61.09-3.549,24.591-5.863,33.274-18.719,31.348-28.729-3.877-20.149-54.82-120.658-6.419-192.379,2.628-3.7,5.346-7.521,4.676-11.28-1.974-11.063-18.759-19.493-49.89-25.052C2009.925,7484.387,1975.756,7482.016,1937.839,7482.016Z" transform="translate(-1757.222 -7482.016)" fill="#720343"/>
      <g id="Group_8503-2" data-name="Group 8503" transform="translate(-1757.222 -7482.016)" clip-path="url(#clip-path-2)">
        <g id="Group_8502-2" data-name="Group 8502">
          <path id="Path_19809-2" data-name="Path 19809" d="M2012.445,7632.927c16.875,17.465,20.745,159.623,23.3,182.954,1.5,13.708,2.746,27.932-2.151,40.942s-17.651,24.5-32.506,24.186c-9.03-.195-17.245-4.546-25.762-7.336-29.1-9.528-61.128-.7-90.126,9.077-12.162,4.1-24.51,8.422-37.438,8.935s-26.811-3.47-34.486-13.132c-6.423-8.086-7.562-18.672-8.267-28.694-1.781-25.319-1.9-169.309,10.98-191.7C1848.678,7601.323,1965.233,7584.065,2012.445,7632.927Z" transform="translate(0 -97)" fill="#560332"/>
          <path id="Path_19810-2" data-name="Path 19810" d="M1841.612,7667.446c-9.723,16.905-9.635,154.355-8.291,173.474.532,7.568,1.393,15.561,6.243,21.667,5.8,7.3,16.277,10.3,26.04,9.916s19.086-3.651,28.269-6.747c21.9-7.384,46.085-14.049,68.055-6.854,6.431,2.106,12.634,5.392,19.453,5.539,11.217.241,20.847-8.439,24.545-18.263s2.758-20.564,1.625-30.915c-1.93-17.617-4.852-153.685-17.595-166.872s-38.8-16.53-49.782-2.048c-4.975,6.556-5.808,15.064-9.729,22.208s-13.986,12.936-20.974,8.216c-5.4-3.65-5.337-10.94-5.707-17.133C1901.768,7626.156,1851.115,7650.925,1841.612,7667.446Z" transform="translate(0 -97)" fill="#380224"/>
          <g id="Group_8487-2" data-name="Group 8487">
            <path id="Path_19807-2" data-name="Path 19807" d="M1921.442,7538.292c93.89,0,158.95,22.826,197.285,51.041.465-2.748.141-17.245-.123-19.976-2.374-24.522-22.02-75.272-59.46-87.595-30.555-10.057-95.309-15.987-140.91-15.987-17.7,0-51-.024-69.71,1.585-61.933,5.327-87.435,26.77-109.143,42.706-17.863,13.112-14.729,70.534-16.9,85.615C1753.17,7571.419,1826.33,7538.292,1921.442,7538.292Z" fill="#bf234c"/>
            <path id="Path_19808-2" data-name="Path 19808" d="M1717.073,7961.92c1.162,20.428,14.016,40.563,47.625,62.935,22.123,14.727,55.505,15.773,79.367,11.843,8.9-1.465,17.908-3.38,26.619-5.231,17.922-3.809,36.453-7.747,55.343-8.089,21.344-.384,42.412,3.827,62.775,7.9,7.8,1.562,15.863,3.176,23.8,4.5,29.952,5,53.548,2.14,76.505-9.257,26.868-13.341,37.659-47.352,39.168-71.458Z" transform="translate(0 -280)" fill="#bf234c"/>
          </g>
        </g>
      </g>
      <path id="Path_19836-2" data-name="Path 19836" d="M1937.839,7482.016c-14.716,0-29.99.356-45.546,1.082-51.5,2.4-94.7,8.362-112.751,15.552-30.932,12.32-23.475,26.487-14.406,41.847,31.385,53.156,7.579,158.832.519,166.389-12.542,13.424-12.32,25.018,30.918,38.838,17.665,5.646,44.321,6.047,63.376,4.541,7.106-.562,14.3-1.3,21.255-2.006,14.311-1.46,29.108-2.971,44.192-3.1,17.043-.147,33.866,1.467,50.126,3.03,6.228.6,12.667,1.217,19,1.725,23.917,1.916,42.759.821,61.09-3.549,24.591-5.863,33.274-18.719,31.348-28.729-3.877-20.15-54.82-120.658-6.419-192.379,2.628-3.7,5.346-7.521,4.676-11.28-1.974-11.063-18.759-19.492-49.89-25.052C2009.925,7484.387,1975.756,7482.016,1937.839,7482.016Z" transform="translate(-1757.222 -7482.016)" fill="none" stroke="#880049" stroke-miterlimit="10" stroke-width="11.928"/>
    </g>
  </g>
</svg>
