<svg xmlns="http://www.w3.org/2000/svg" width="1920" height="1100.474" viewBox="0 0 1920 1100.474">
    <g id="mask-map1" transform="translate(0 265)">
        <path id="Exclusion_1" data-name="Exclusion 1"
              d="M1920,835.241H0V-172.309c22.3,5.642,30.268,11.931,37.975,18.013l0,0a73.414,73.414,0,0,0,15.015,9.811,84.447,84.447,0,0,0,11.85,4.51,162.944,162.944,0,0,0,17.148,4.1,287.069,287.069,0,0,1,33.39,8.288c9.25,2.927,17.2,6.024,24.894,9.019s15.662,6.1,24.91,9.024a286.957,286.957,0,0,0,33.417,8.288,302.828,302.828,0,0,1,35.971,9.141c10.783,3.438,20.827,7.233,30.54,10.9l.005,0h0c9.711,3.669,19.753,7.462,30.533,10.9a302.816,302.816,0,0,0,35.961,9.139A152.071,152.071,0,0,1,348.5-57.081a74.841,74.841,0,0,1,11.392,4.487,59.832,59.832,0,0,1,13.627,9.648A59.844,59.844,0,0,0,387.146-33.3a74.874,74.874,0,0,0,11.393,4.489,152.109,152.109,0,0,0,16.888,4.086c2.454.465,23.8,10.523,40.947,18.605l.012.005C467.934-.669,477.9,4.03,479.2,4.431c14.374,4.445,23.9,7.917,32.3,10.98l.008,0c16.1,5.87,27.737,10.11,60.615,16.347a332.7,332.7,0,0,1,32.544,7.719c8.734,2.584,16,5.219,23.02,7.767l.016.006c7.022,2.547,14.282,5.18,23.01,7.763a332.97,332.97,0,0,0,32.555,7.721,116.69,116.69,0,0,1,16.575,4.242,51.834,51.834,0,0,1,10.567,4.9c5.486,3.438,8.35,7.23,11.12,10.9s5.635,7.463,11.122,10.9a51.842,51.842,0,0,0,10.567,4.9,116.676,116.676,0,0,0,16.575,4.242,212.046,212.046,0,0,1,31.7,8.289,220.269,220.269,0,0,1,21.143,9.02,220.172,220.172,0,0,0,21.142,9.02,212.163,212.163,0,0,0,31.7,8.289c17.393,3.3,26.595,5.565,33.314,7.22,6.873,1.693,10.66,2.625,17.362,3.129,6.643.5,16.154.583,34.961.583,45.049,0,47.444-.479,76.772-6.339,6.175-1.234,13.859-2.77,23.441-4.594a260.482,260.482,0,0,0,32.779-8.289c8.913-2.926,16.432-6.024,23.7-9.02l.005,0c7.272-3,14.792-6.093,23.7-9.018a260.491,260.491,0,0,1,32.78-8.289,162.912,162.912,0,0,0,17.462-4.242,106.6,106.6,0,0,0,13.035-4.9,125.943,125.943,0,0,0,18.688-10.9,125.825,125.825,0,0,1,18.7-10.9,106.491,106.491,0,0,1,13.04-4.9,162.95,162.95,0,0,1,17.47-4.24c26.916-5.118,45.667-10.392,63.8-15.492s36.86-10.366,63.744-15.484a227.059,227.059,0,0,0,29.081-7.151,122.317,122.317,0,0,0,15.561-6.517,122.332,122.332,0,0,1,15.56-6.515,226.914,226.914,0,0,1,29.079-7.147A420.7,420.7,0,0,0,1536-10.145l.008,0a421.109,421.109,0,0,1,56.465-14.574A199.683,199.683,0,0,0,1624.4-33.3a225.63,225.63,0,0,0,21.822-9.646,225.565,225.565,0,0,1,21.825-9.647,199.728,199.728,0,0,1,31.931-8.575,158.3,158.3,0,0,0,17.391-4.243,100.538,100.538,0,0,0,12.832-4.9,114.893,114.893,0,0,0,18.063-10.9l0,0a114.843,114.843,0,0,1,18.064-10.9,100.521,100.521,0,0,1,12.829-4.9,158.306,158.306,0,0,1,17.385-4.242,193.882,193.882,0,0,0,19.591-4.777c5.768-1.727,11.459-3.716,17.4-6.08,11.019-4.386,21.21-9.424,31.065-14.3l.023-.012c8.332-4.12,16.948-8.379,26-12.205a203.453,203.453,0,0,1,29.383-10V835.241Z"
              transform="translate(0 0)" fill="#08f"/>

    </g>
</svg>
