<svg xmlns="http://www.w3.org/2000/svg" width="1920.001" height="1100.242" viewBox="0 0 1920.001 1100.242">
    <g id="mask-map3" transform="translate(0 264.767)">
        <g id="Group_10209" data-name="Group 10209" transform="translate(0 0.233)">
            <path id="Exclusion_1" data-name="Exclusion 1"
                  d="M2095,1030.223H175V540.472a85.311,85.311,0,0,1,14.846,5.163,72.709,72.709,0,0,1,11.544,6.628c6.842,4.8,12.3,10.339,17.584,15.7,5.766,5.848,11.727,11.9,19.5,16.995A73.543,73.543,0,0,0,251.8,591.86a102.969,102.969,0,0,0,35.545,6.8,74.281,74.281,0,0,0,11.552-.878,75.252,75.252,0,0,0,10.135-2.315,150.515,150.515,0,0,0,17.9-7.025,150.478,150.478,0,0,1,17.915-7.028A75.259,75.259,0,0,1,354.99,579.1a74.292,74.292,0,0,1,11.555-.878,102.9,102.9,0,0,1,35.539,6.8,73.521,73.521,0,0,1,13.328,6.909c7.77,5.1,13.731,11.145,19.495,16.991l0,0c5.764,5.847,11.724,11.894,19.5,16.994a73.5,73.5,0,0,0,13.325,6.908,102.814,102.814,0,0,0,35.524,6.794,74.31,74.31,0,0,0,11.555-.878,75.225,75.225,0,0,0,10.136-2.316,150.491,150.491,0,0,0,17.909-7.029,150.444,150.444,0,0,1,17.914-7.031,75.207,75.207,0,0,1,10.137-2.317,74.279,74.279,0,0,1,11.555-.879,102.893,102.893,0,0,1,35.549,6.8,73.606,73.606,0,0,1,13.328,6.909c7.771,5.1,13.732,11.145,19.5,16.992s11.726,11.893,19.5,16.993a73.554,73.554,0,0,0,13.325,6.908,102.83,102.83,0,0,0,35.535,6.8,74.268,74.268,0,0,0,11.552-.878,75.29,75.29,0,0,0,10.134-2.316,150.416,150.416,0,0,0,17.9-7.027l.011-.005a150.377,150.377,0,0,1,17.911-7.03,75.2,75.2,0,0,1,10.137-2.317,74.233,74.233,0,0,1,11.555-.879,102.88,102.88,0,0,1,35.543,6.8,73.56,73.56,0,0,1,13.327,6.909c7.771,5.1,13.732,11.146,19.5,16.992s11.726,11.894,19.5,16.993a73.553,73.553,0,0,0,13.327,6.909,102.865,102.865,0,0,0,35.541,6.8,74.267,74.267,0,0,0,11.556-.879,75.242,75.242,0,0,0,10.137-2.317,150.44,150.44,0,0,0,17.91-7.03,150.538,150.538,0,0,1,17.914-7.031,75.287,75.287,0,0,1,10.137-2.317,74.275,74.275,0,0,1,11.555-.879,95.453,95.453,0,0,1,17.923,1.8,80.163,80.163,0,0,1,16.906,5.076,71.2,71.2,0,0,1,13.164,7.391c7.788,5.508,13.889,12.019,19.79,18.316l0,0c13.185,14.072,25.639,27.363,54.577,27.363,28.834,0,41.235-13.289,54.364-27.357l0,0c5.875-6.3,11.951-12.806,19.708-18.313a70.837,70.837,0,0,1,13.112-7.39,79.622,79.622,0,0,1,16.842-5.076,94.8,94.8,0,0,1,17.862-1.8,73.774,73.774,0,0,1,11.516.878,74.871,74.871,0,0,1,10.106,2.316,149.943,149.943,0,0,1,17.86,7.027,150.024,150.024,0,0,0,17.862,7.027,74.892,74.892,0,0,0,10.107,2.316,73.793,73.793,0,0,0,11.517.879,102.127,102.127,0,0,0,35.413-6.8,73.118,73.118,0,0,0,13.272-6.909c7.738-5.1,13.671-11.146,19.408-16.992s11.673-11.9,19.413-17a73.111,73.111,0,0,1,13.276-6.908,102.176,102.176,0,0,1,35.41-6.8,73.839,73.839,0,0,1,11.52.879,74.84,74.84,0,0,1,10.107,2.316,149.86,149.86,0,0,1,17.86,7.029l.007,0a149.854,149.854,0,0,0,17.857,7.028,74.9,74.9,0,0,0,10.107,2.317,73.806,73.806,0,0,0,11.518.879,102.177,102.177,0,0,0,35.422-6.8,73.144,73.144,0,0,0,13.276-6.91c7.74-5.1,13.674-11.146,19.414-16.994s11.675-11.895,19.414-16.994a73.1,73.1,0,0,1,13.274-6.907,102.145,102.145,0,0,1,35.4-6.795,73.843,73.843,0,0,1,11.52.879,74.889,74.889,0,0,1,10.108,2.317,149.821,149.821,0,0,1,17.855,7.026l.009,0,.009,0a149.876,149.876,0,0,0,17.855,7.026,74.909,74.909,0,0,0,10.108,2.317,73.8,73.8,0,0,0,11.518.879,102.146,102.146,0,0,0,35.415-6.8,73.118,73.118,0,0,0,13.272-6.908c7.737-5.1,13.669-11.143,19.406-16.989s11.673-11.895,19.414-17a73.165,73.165,0,0,1,13.275-6.909,102.205,102.205,0,0,1,35.424-6.8,73.821,73.821,0,0,1,11.518.878,74.893,74.893,0,0,1,10.107,2.316,149.963,149.963,0,0,1,17.863,7.027,150.012,150.012,0,0,0,17.862,7.027,74.962,74.962,0,0,0,10.107,2.315,73.842,73.842,0,0,0,11.517.878,102.311,102.311,0,0,0,35.423-6.8,73.113,73.113,0,0,0,13.278-6.907c7.743-5.1,13.678-11.146,19.417-16.993,5.258-5.356,10.694-10.894,17.506-15.691a72.394,72.394,0,0,1,11.5-6.626,84.784,84.784,0,0,1,14.79-5.161v489.741Z"
                  transform="translate(-175 -194.981)" fill="#08f"/>
            <g id="Rectangle_1482" data-name="Rectangle 1482" transform="translate(0 -265)" fill="#fff" stroke="#707070"
               stroke-width="1" opacity="0">
                <rect width="1920" height="950" stroke="none"/>
                <rect x="0.5" y="0.5" width="1919" height="949" fill="none"/>
            </g>
        </g>
    </g>
</svg>
