<svg xmlns="http://www.w3.org/2000/svg" width="1920.001" height="1100.474" viewBox="0 0 1920.001 1100.474">
    <g id="mask-map1" transform="translate(0 265)">
        <path id="Exclusion_1" data-name="Exclusion 1"
              d="M14200,2440.241H12280V1950.491a85.277,85.277,0,0,1,14.846,5.162,72.727,72.727,0,0,1,11.542,6.627c6.843,4.8,12.3,10.339,17.583,15.7,5.768,5.85,11.729,11.9,19.5,16.995a73.47,73.47,0,0,0,13.327,6.908,102.952,102.952,0,0,0,35.543,6.8,74.266,74.266,0,0,0,11.549-.878,75.378,75.378,0,0,0,10.132-2.314,150.476,150.476,0,0,0,17.89-7.018l.011,0,.014-.007a150.585,150.585,0,0,1,17.911-7.026,75.235,75.235,0,0,1,10.136-2.316,74.29,74.29,0,0,1,11.555-.878,102.913,102.913,0,0,1,35.546,6.8,73.624,73.624,0,0,1,13.328,6.909c7.771,5.1,13.733,11.148,19.5,17l.008.008c5.762,5.845,11.72,11.889,19.487,16.986a73.465,73.465,0,0,0,13.326,6.908,102.743,102.743,0,0,0,35.518,6.793,74.377,74.377,0,0,0,11.558-.879,75.377,75.377,0,0,0,10.139-2.317,150.3,150.3,0,0,0,17.911-7.032,150.512,150.512,0,0,1,17.91-7.029,75.232,75.232,0,0,1,10.135-2.316,74.253,74.253,0,0,1,11.552-.878,102.975,102.975,0,0,1,35.559,6.8,73.542,73.542,0,0,1,13.329,6.909c7.777,5.1,13.736,11.148,19.5,16.994s11.726,11.891,19.5,16.991a73.477,73.477,0,0,0,13.325,6.908,102.769,102.769,0,0,0,35.529,6.8,74.291,74.291,0,0,0,11.555-.879,75.313,75.313,0,0,0,10.136-2.316,150.471,150.471,0,0,0,17.9-7.027l.007,0a150.382,150.382,0,0,1,17.912-7.031,75.091,75.091,0,0,1,10.136-2.317,74.213,74.213,0,0,1,11.555-.879,102.926,102.926,0,0,1,35.55,6.8,73.621,73.621,0,0,1,13.327,6.909c7.771,5.1,13.731,11.145,19.5,16.991s11.723,11.891,19.5,16.991a73.605,73.605,0,0,0,13.327,6.908,102.9,102.9,0,0,0,35.54,6.8,74.243,74.243,0,0,0,11.551-.878,75.3,75.3,0,0,0,10.134-2.315,150.492,150.492,0,0,0,17.9-7.025l.02-.009.016-.007a150.277,150.277,0,0,1,17.895-7.023,75.334,75.334,0,0,1,10.137-2.317,74.321,74.321,0,0,1,11.555-.879,95.42,95.42,0,0,1,17.925,1.8,80.1,80.1,0,0,1,16.905,5.077,71.175,71.175,0,0,1,13.163,7.391c7.789,5.509,13.893,12.022,19.794,18.321,13.185,14.072,25.638,27.364,54.576,27.364,28.833,0,41.235-13.289,54.366-27.358,5.875-6.3,11.95-12.807,19.713-18.318a70.826,70.826,0,0,1,13.111-7.39,79.644,79.644,0,0,1,16.843-5.077,94.747,94.747,0,0,1,17.859-1.8,73.829,73.829,0,0,1,11.512.877,74.887,74.887,0,0,1,10.1,2.314,149.757,149.757,0,0,1,17.85,7.021l.018.009.007,0a150.037,150.037,0,0,0,17.858,7.025,74.943,74.943,0,0,0,10.1,2.315,73.854,73.854,0,0,0,11.515.878,102.174,102.174,0,0,0,35.417-6.8,73.071,73.071,0,0,0,13.272-6.909c7.738-5.1,13.671-11.145,19.408-16.992l0,0c5.737-5.846,11.67-11.892,19.409-16.99a73.072,73.072,0,0,1,13.273-6.908,102.25,102.25,0,0,1,35.414-6.8,73.826,73.826,0,0,1,11.518.878,74.87,74.87,0,0,1,10.105,2.316,149.737,149.737,0,0,1,17.856,7.026l.008,0a149.823,149.823,0,0,0,17.862,7.031,74.875,74.875,0,0,0,10.108,2.317,73.855,73.855,0,0,0,11.521.879,102.093,102.093,0,0,0,35.414-6.8,73.152,73.152,0,0,0,13.276-6.91c7.738-5.1,13.672-11.144,19.409-16.99l0,0,0,0c5.738-5.846,11.672-11.892,19.41-16.99a73.108,73.108,0,0,1,13.274-6.908,102.217,102.217,0,0,1,35.407-6.8,73.773,73.773,0,0,1,11.516.878,74.811,74.811,0,0,1,10.105,2.316,149.937,149.937,0,0,1,17.856,7.023l0,0,.008,0a149.566,149.566,0,0,0,17.863,7.031,74.888,74.888,0,0,0,10.108,2.317,73.833,73.833,0,0,0,11.521.879,102.079,102.079,0,0,0,35.408-6.8,73.172,73.172,0,0,0,13.272-6.909c7.739-5.1,13.671-11.146,19.407-16.992s11.672-11.893,19.412-16.993a73.161,73.161,0,0,1,13.275-6.909,102.193,102.193,0,0,1,35.422-6.8,73.836,73.836,0,0,1,11.516.878,74.862,74.862,0,0,1,10.1,2.315,149.832,149.832,0,0,1,17.856,7.024l.01,0,.015.006a149.945,149.945,0,0,0,17.856,7.023,74.937,74.937,0,0,0,10.1,2.315,73.832,73.832,0,0,0,11.514.878,102.323,102.323,0,0,0,35.425-6.8,73.142,73.142,0,0,0,13.277-6.907c7.741-5.1,13.676-11.145,19.416-16.992,5.257-5.355,10.692-10.892,17.508-15.691a72.268,72.268,0,0,1,11.5-6.626A84.79,84.79,0,0,1,14200,1950.5V2440.24Z"
              transform="translate(-12280 -1604.767)" fill="#08f"/>
        <g id="Rectangle_1482" data-name="Rectangle 1482" transform="translate(0 -265)" fill="#fff" stroke="#707070"
           stroke-width="1" opacity="0">
            <rect width="1920" height="950" stroke="none"/>
            <rect x="0.5" y="0.5" width="1919" height="949" fill="none"/>
        </g>
    </g>
</svg>
