<svg class="svg-for-clipping-mask" xmlns="http://www.w3.org/2000/svg" width="1920" height="855.55"
     viewBox="0 0 1920 855.55">

    <defs>
        <clipPath id="shape-mask" width="100%" height="100%" viewBox="0 0 1920 855.55"
                  clipPathUnits="objectBoundingBox">
            <path id="circle1" viewBox="0 0 1920 855.55"
                  d="M1920,0l429.415,215.493c-46.86,11.9-463.826-183.273-515.376-173.473-53.79,10.24-29.373-10.24-83.173,0s-23.982,3.8-77.772,14.042-84.471-4.829-138.261,5.4-92.022,57.81-145.822,68.05-81.22,53.5-135.02,63.73-68.268,93.456-122.058,103.7S1084.188,403.356,1030.4,413.6s-13.732,211.928-68.482,211.928c-54.95,0-15.789-201.688-69.779-211.928s-45.385-106.418-99.375-116.658-52.946-93.456-106.936-103.7-70.239-53.49-124.219-63.73S503.26,71.7,449.27,61.463s-79.96,4.829-133.94-5.4S242.185,52.25,188.195,42.02s-51.336,10.24-105.316,0c-51.72-9.8-307.815,325.935-354.845,314.035L0,0Z"
                  fill="#08f" transform="scale(0.00052, 0.001104)"/>
            <path id="isl1" viewBox="0 0 1920 855.55"
                  d="M1920,0l429.415,215.493C2302.555,227.393,1877.5,681.6,1825.95,691.4c-53.79,10.24-60.9-27.09-114.7-16.85s-46.69,47.57-100.48,57.81-60.9-27.09-114.69-16.86-46.69,47.57-100.49,57.81-60.89-27.09-114.69-16.86-46.69,47.57-100.48,57.81-60.9-27.09-114.69-16.85-49.28,58.14-104.03,58.14c-54.95,0-50.45-47.91-104.44-58.15s-61.06,27.1-115.05,16.86-46.9-47.57-100.89-57.81-61.06,27.1-115.04,16.86-46.9-47.57-100.89-57.81-61.06,27.09-115.04,16.86-46.9-47.58-100.89-57.81S148.4,701.64,94.42,691.4C42.7,681.6-224.936,367.955-271.966,356.055L0,0Z"
                  fill="#08f"/>
        </clipPath>
    </defs>
</svg>