<svg xmlns="http://www.w3.org/2000/svg" width="170.225" height="47.16"
     viewBox="0 0 170.225 47.16">
    <defs>
        <linearGradient id="linear-gradient32" x1="0.5" y1="0.039" x2="0.5" y2="1.357"
                        gradientUnits="objectBoundingBox">
            <stop offset="0.187" stop-color="#00ffd5"/>
            <stop offset="1" stop-color="#01cb2d"/>
        </linearGradient>
    </defs>
    <g transform="translate(-12197.087 -451.42)">
        <g>
            <g>
                <g>
                    <path class="filling"
                          d="M12360.823,459.59c-1.973-2.3-4.916-3.579-8.748-3.808-11.539-.692-109.758-.743-125.907-.746h-.379c-7.322,0-12.239.217-15.7,1.329a11.073,11.073,0,0,0-3.827,2.036c-3.538,1.667-5.386,4.654-5.5,8.887-.146,5.611.01,14.05.111,16,.148,2.831,1.506,7.923,8.94,10.231,4.125,1.281,9.176,1.445,13.114,1.445,1.584,0,3.1-.029,4.565-.058,1.257-.024,2.444-.047,3.5-.047h.291c2.916.013,94.908.013,103.439.013,11,0,16.136-.478,19.6-1.827a11.062,11.062,0,0,0,3.126-1.8c4.9-2.35,5.724-6.734,5.882-10.332.044-1,.1-1.986.162-2.941C12363.842,472.2,12364.171,463.488,12360.823,459.59Z"
                          />
                    <path
                            d="M12226.168,455.036c16.149,0,114.368.054,125.907.746,3.832.23,6.775,1.511,8.749,3.808,3.347,3.9,3.018,12.613,2.669,18.38-.059.955-.118,1.942-.162,2.942-.158,3.6-.982,7.981-5.882,10.331a11.062,11.062,0,0,1-3.126,1.8c-3.468,1.349-8.6,1.827-19.6,1.827-8.531,0-100.523,0-103.439-.013h-.291c-1.051,0-2.238.023-3.5.047-1.466.029-2.981.058-4.565.058-3.938,0-8.989-.164-13.114-1.445-7.435-2.308-8.792-7.4-8.94-10.23-.1-1.951-.257-10.39-.111-16,.11-4.233,1.958-7.22,5.5-8.887a11.057,11.057,0,0,1,3.827-2.036c3.464-1.112,8.381-1.329,15.7-1.329h.379m0-3.616h-.38c-7.681,0-12.893.245-16.808,1.5a14.772,14.772,0,0,0-4.682,2.413c-4.539,2.306-7.009,6.4-7.151,11.859-.15,5.763.008,14.246.114,16.284.159,3.035,1.6,10.425,11.479,13.494,4.588,1.425,9.992,1.608,14.187,1.608,1.594,0,3.1-.029,4.565-.058h.07c1.235-.024,2.4-.046,3.425-.046h.285c2.772.012,86.657.013,103.445.013,11.652,0,16.93-.523,20.914-2.074a14.735,14.735,0,0,0,3.778-2.109c7.11-3.664,7.426-10.845,7.532-13.234.042-.974.1-1.934.156-2.865.5-8.187.409-16.38-3.534-20.972-2.636-3.068-6.43-4.771-11.274-5.062-11.564-.693-107.091-.748-126.123-.752Z"/>
                </g>
            </g>
            <path
                    d="M12358.416,461.53c-1.375-1.644-3.474-2.531-6.419-2.713-11.485-.707-109.761-.759-125.921-.762h-.38c-6.833,0-11.68.2-14.724,1.206a7.4,7.4,0,0,0-3.012,1.742c-2.635,1.113-3.863,3.041-3.942,6.156-.143,5.657.009,14.219.108,16.177.178,3.5,2.379,5.946,6.542,7.274,3.708,1.183,8.447,1.334,12.162,1.334,1.553,0,3.057-.03,4.51-.059,1.275-.025,2.48-.049,3.571-.049h.3c2.892.012,95.043.013,103.593.013,10.437,0,15.435-.447,18.442-1.649a7.439,7.439,0,0,0,2.5-1.567c3.376-1.471,4.172-4.051,4.329-7.713.045-1.05.105-2.086.165-3.088C12360.559,472.441,12360.834,464.421,12358.416,461.53Z"/>
            <path
                    d="M12351.183,460.076c-12.05-.742-121.48-.744-123.991-.745h-.106c-13.679,0-18.042.839-18.187,6.6-.14,5.485,0,13.834.1,15.783.341,6.681,9.264,7.547,17.448,7.547,2.864,0,5.638-.106,7.922-.106h.3c2.874.012,94.637.012,101.885.012,18.727,0,21.411-1.348,21.713-8.4C12358.661,471.568,12360.271,460.636,12351.183,460.076Z"
                    fill="url(#linear-gradient32)"/>
        </g>
        <path d="M12343.154,462.12c10.163,0,13.61,2.464,13.038,8.609" fill="none"
              stroke="#fff" stroke-miterlimit="10" stroke-width="1.808"/>
        <path d="M12226.727,486.058c-10.162,0-13.61-2.464-13.036-8.609" fill="none"
              stroke="#fff" stroke-miterlimit="10" stroke-width="1.808"/>
    </g>
</svg>
