<svg xmlns="http://www.w3.org/2000/svg" width="26.211" height="27.042" viewBox="0 0 26.211 27.042">
    <path id="Path_997" data-name="Path 997"
          d="M6166.277,161.934a7.474,7.474,0,0,1-.311-.975c-.058-.3-.017-.621-.053-.929-.1-.89-.3-1.766-.346-2.666a12.249,12.249,0,0,0-.279-1.371c-.089-.515-.141-1.036-.221-1.552-.037-.244-.1-.484-.166-.782a4.936,4.936,0,0,0-2.051.424c-.807.349-1.606.716-2.416,1.058-.9.379-1.8.743-2.7,1.1a4.96,4.96,0,0,1-.58.158c.124-.727.282-1.368.331-2.017a10.279,10.279,0,0,1,.321-2.512.918.918,0,0,0,.01-.218c.037-.516.062-1.033.114-1.547.066-.655.156-1.308.23-1.962.031-.275-.1-.4-.378-.383s-.535.028-.8.069c-1.8.285-3.609.58-5.415.863a2.75,2.75,0,0,0-.908.419c-.465.257-.2.606-.229.914a5.407,5.407,0,0,0,.063.579c.035,1.071.052,2.142.094,3.213.028.746.085,1.491.135,2.325-.4-.08-.747-.122-1.075-.221a8.483,8.483,0,0,1-.963-.388c-.549-.245-1.1-.488-1.637-.755-.416-.206-.82-.439-1.219-.678s-.769-.5-1.173-.757c-.081.048-.252.093-.326.2-.384.566-.715,1.161-1.108,1.726a13.848,13.848,0,0,0-1.348,3.5c-.241.692-.5,1.378-.753,2.067v.073a1.93,1.93,0,0,0,.286.342,1.035,1.035,0,0,0,.485.254c1.095.083,2.195.123,3.291.2.845.063,1.688.173,2.533.243.332.028.668.005,1.091.005a1.629,1.629,0,0,1-.215.393q-1.411,1.224-2.838,2.434c-.264.225-.549.425-.812.651-.53.456-1.062.911-1.568,1.393a.791.791,0,0,0-.263.545.988.988,0,0,0,.354.515c.505.465,1.005.941,1.553,1.352a12.085,12.085,0,0,1,2.387,2.231c.311.4.64.8.985,1.173a.683.683,0,0,0,1.059.091,15.464,15.464,0,0,0,1.3-1.559c.389-.54.713-1.126,1.056-1.7.368-.613.72-1.237,1.088-1.85.145-.242.316-.467.493-.727a.992.992,0,0,1,.136.187c.194.56.413,1.113.565,1.684.223.842.379,1.7.6,2.547.192.737.416,1.466.663,2.187a.551.551,0,0,0,.406.286,1.343,1.343,0,0,0,.7-.132c.708-.387,1.4-.8,2.089-1.23,1-.621,1.962-1.3,2.989-1.874.731-.407,1.544-.665,2.313-1.006.173-.077.429-.21.445-.342a1.154,1.154,0,0,0-.215-.621c-.071-.126-.237-.195-.329-.313-.178-.228-.321-.484-.5-.708-.509-.625-1.05-1.225-1.544-1.862-.47-.607-.9-1.247-1.365-1.906a3.434,3.434,0,0,1,.334-.138c.744-.209,1.487-.421,2.234-.618.567-.149,1.136-.291,1.71-.408.436-.089.881-.141,1.323-.2C6166.348,162.4,6166.407,162.314,6166.277,161.934Z"
          transform="translate(-6140.621 -147.262)" fill="none" stroke="#000" stroke-miterlimit="10" stroke-width="1"/>
</svg>
